G04 ================== begin FILE IDENTIFICATION RECORD ==================*
G04 Layout Name:  LED_12inArena, v5 7-42019 V4.brd*
G04 Film Name:    LAYER_2*
G04 File Format:  Gerber RS274X*
G04 File Origin:  Cadence Allegro 17.2-P019*
G04 Origin Date:  Thu Mar 12 23:19:02 2020*
G04 *
G04 Layer:  VIA KEEPOUT/ALL*
G04 Layer:  VIA KEEPOUT/BOTTOM*
G04 Layer:  VIA KEEPOUT/LAYER 2*
G04 Layer:  VIA KEEPOUT/GND2*
G04 Layer:  VIA KEEPOUT/LAYER 1*
G04 Layer:  VIA KEEPOUT/PWR*
G04 Layer:  VIA KEEPOUT/TOP*
G04 Layer:  VIA CLASS/FILMMASKBOTTOM*
G04 Layer:  VIA CLASS/LAYER 2*
G04 Layer:  ROUTE KEEPOUT/ALL*
G04 Layer:  ROUTE KEEPOUT/BOTTOM*
G04 Layer:  ROUTE KEEPOUT/LAYER 2*
G04 Layer:  ROUTE KEEPOUT/GND2*
G04 Layer:  ROUTE KEEPOUT/LAYER 1*
G04 Layer:  ROUTE KEEPOUT/PWR*
G04 Layer:  ROUTE KEEPOUT/TOP*
G04 Layer:  ROUTE KEEPIN/ALL*
G04 Layer:  PIN/FILMMASKBOTTOM*
G04 Layer:  PIN/LAYER 2*
G04 Layer:  PACKAGE KEEPOUT/ALL*
G04 Layer:  PACKAGE KEEPOUT/TOP*
G04 Layer:  PACKAGE KEEPOUT/BOTTOM*
G04 Layer:  PACKAGE KEEPIN/ALL*
G04 Layer:  ETCH/LAYER 2*
G04 Layer:  BOARD GEOMETRY/OUTLINE*
G04 *
G04 Offset:    (0.0 0.0)*
G04 Mirror:    No*
G04 Mode:      Positive*
G04 Rotation:  0*
G04 FullContactRelief:  No*
G04 UndefLineWidth:     0.1*
G04 ================== end FILE IDENTIFICATION RECORD ====================*
%FSLAX35Y35*MOIN*%
%IR0*IPPOS*OFA0.00000B0.00000*MIA0B0*SFA1.00000B1.00000*%
%ADD10C,.35*%
%ADD13R,.1969X.0787*%
%ADD12R,.0787X.1969*%
%ADD14C,.06*%
%ADD16C,5.7*%
%ADD11C,.026*%
%ADD15C,.0591*%
%ADD17C,.005*%
%ADD18C,.008*%
%ADD19C,.0001*%
%ADD20C,.015*%
%ADD21C,.0704*%
%ADD22C,.0364*%
G75*
%LPD*%
G75*
G36*
G01X-418000Y-562500D02*
Y-532860D01*
X-414260D01*
G03X-413740Y-532340I5J515D01*
G01Y-512660D01*
G03X-414260Y-512140I-515J5D01*
G01X-418000D01*
Y-494500D01*
X-371500D01*
Y-277500D01*
X-290750Y-196750D01*
G02X-277080Y-215580I290774J196716D01*
G01X-343500Y-282000D01*
Y-562500D01*
X-418000D01*
G37*
G36*
G01X-297200Y-196110D02*
X-329640Y-228560D01*
G02X-330250Y-228500I-280J286D01*
G02X-49220Y-398700I330360J228368D01*
G03X-51410Y-398430I-1272J-1301D01*
G02X-300710Y-266210I51528J398292D01*
G01X-316500Y-282000D01*
Y-490500D01*
X-256500D01*
Y-523000D01*
X-332500D01*
Y-278090D01*
X-277830Y-223420D01*
G02X-277240Y-223450I281J-282D01*
G03X-200600Y-294210I277263J223418D01*
G02X-200480Y-294750I-222J-333D01*
G03X-197460Y-296790I1543J-972D01*
G02X-196920Y-296690I322J-232D01*
G03X-29640Y-354870I196936J296659D01*
G02X-29290Y-355390I-32J-400D01*
G03X-25760Y-355670I1732J-560D01*
G02X-25340Y-355210I393J63D01*
G03X152900Y-321620I25351J355173D01*
G03X156170Y-320050I1609J839D01*
G03X292510Y-203120I-156145J320016D01*
G03X294530Y-200180I709J1677D01*
G03X355240Y-24730I-294509J200136D01*
G02X355700Y-24360I401J-27D01*
G03X355930Y-20740I256J1801D01*
G02X355520Y-20320I-10J400D01*
G03X321590Y152880I-355496J20282D01*
G03X320010Y156160I-810J1630D01*
G03X203090Y292460I-319988J-156192D01*
G03X200140Y294490I-1654J755D01*
G03X29620Y354810I-200114J-294524D01*
G02X29280Y355340I35J397D01*
G03X25770Y355610I-1719J605D01*
G02X25350Y355140I-393J-72D01*
G03X-152860Y321550I-25325J-355174D01*
G03X-156140Y319970I-1650J-770D01*
G03X-294170Y200570I156159J-320008D01*
G02X-294720Y200460I-331J223D01*
G03X-296750Y197440I-990J-1527D01*
G02X-296640Y196890I-225J-331D01*
G03X-354810Y29620I296667J-196919D01*
G02X-355350Y29280I-399J35D01*
G03X-355620Y25770I-599J-1719D01*
G02X-355150Y25350I73J-392D01*
G03X-321580Y-152880I355173J-25379D01*
G03X-320000Y-156150I800J-1630D01*
G03X-297290Y-195980I320040J156089D01*
G01X-297200Y-196110D01*
G37*
%LPC*%
G75*
G36*
G01X285520Y0D02*
G02I-285520J0D01*
G37*
G54D21*
X-325860Y-107310D03*
X-335860Y-70000D03*
Y-60000D03*
Y-50000D03*
Y-40000D03*
Y-10000D03*
Y-30000D03*
Y-20000D03*
Y20000D03*
Y0D03*
Y10000D03*
Y50000D03*
Y40000D03*
Y30000D03*
Y60000D03*
Y70000D03*
X-325860Y107310D03*
X-295860Y-159270D03*
X-300860Y-150610D03*
X-315860Y-124630D03*
X-310860Y-133290D03*
X-305860Y-141950D03*
X-320860Y-115970D03*
Y115970D03*
X-315860Y124630D03*
X-310860Y133290D03*
X-305860Y141950D03*
X-300860Y150610D03*
X-295860Y159270D03*
X-265860Y-211230D03*
X-270860Y-202570D03*
X-275860Y-193910D03*
X-280860Y-185250D03*
X-285860Y-176590D03*
X-290860Y-167930D03*
Y167930D03*
X-285860Y176590D03*
X-275860Y193910D03*
X-280860Y185250D03*
X-270860Y202570D03*
X-265860Y211230D03*
X-255860Y-228550D03*
X-260860Y-219890D03*
Y219890D03*
X-255860Y228550D03*
X-211230Y-265860D03*
X-219890Y-260860D03*
X-228550Y-255860D03*
Y255860D03*
X-219890Y260860D03*
X-211230Y265860D03*
X-193910Y-275860D03*
X-176590Y-285860D03*
X-185250Y-280860D03*
X-202570Y-270860D03*
Y270860D03*
X-176590Y285860D03*
X-193910Y275860D03*
X-185250Y280860D03*
X-150610Y-300860D03*
X-159270Y-295860D03*
X-167930Y-290860D03*
Y290860D03*
X-159270Y295860D03*
X-150610Y300860D03*
X-115970Y-320860D03*
X-124630Y-315860D03*
X-133290Y-310860D03*
X-141950Y-305860D03*
X-124630Y315860D03*
X-133290Y310860D03*
X-141950Y305860D03*
X-115970Y320860D03*
X-107310Y-325860D03*
Y325860D03*
X-60000Y-335860D03*
X-70000D03*
Y335860D03*
X-60000D03*
X-30000Y-335860D03*
X-40000D03*
X-50000D03*
Y335860D03*
X-40000D03*
X-30000D03*
X0Y-335860D03*
X-10000D03*
X-20000D03*
X-10000Y335860D03*
X0D03*
X-20000D03*
X10000Y-335860D03*
X30000D03*
X20000D03*
X10000Y335860D03*
X20000D03*
X30000D03*
X60000Y-335860D03*
X50000D03*
X40000D03*
Y335860D03*
X50000D03*
X60000D03*
X70000Y-335860D03*
Y335860D03*
X107310Y-325860D03*
X115970Y-320860D03*
X107310Y325860D03*
X115970Y320860D03*
X124630Y-315860D03*
X133290Y-310860D03*
X141950Y-305860D03*
X150610Y-300860D03*
Y300860D03*
X124630Y315860D03*
X133290Y310860D03*
X141950Y305860D03*
X167930Y-290860D03*
X159270Y-295860D03*
X176590Y-285860D03*
X159270Y295860D03*
X167930Y290860D03*
X176590Y285860D03*
X202570Y-270860D03*
X193910Y-275860D03*
X185250Y-280860D03*
X211230Y-265860D03*
X202570Y270860D03*
X211230Y265860D03*
X193910Y275860D03*
X185250Y280860D03*
X228550Y-255860D03*
X219890Y-260860D03*
Y260860D03*
X228550Y255860D03*
X265860Y-211230D03*
X260860Y-219890D03*
X255860Y-228550D03*
X270860Y-202570D03*
Y202570D03*
X255860Y228550D03*
X260860Y219890D03*
X265860Y211230D03*
X275860Y-193910D03*
X280860Y-185250D03*
X295860Y-159270D03*
X290860Y-167930D03*
X285860Y-176590D03*
X300860Y-150610D03*
Y150610D03*
X285860Y176590D03*
X290860Y167930D03*
X295860Y159270D03*
X275860Y193910D03*
X280860Y185250D03*
X315860Y-124630D03*
X310860Y-133290D03*
X305860Y-141950D03*
X325860Y-107310D03*
X320860Y-115970D03*
Y115970D03*
X325860Y107310D03*
X315860Y124630D03*
X310860Y133290D03*
X305860Y141950D03*
X335860Y-70000D03*
Y-40000D03*
Y-50000D03*
Y-60000D03*
Y-10000D03*
Y-20000D03*
Y-30000D03*
Y10000D03*
Y0D03*
Y20000D03*
Y50000D03*
Y40000D03*
Y30000D03*
Y70000D03*
Y60000D03*
G54D22*
X362440Y152290D03*
X390240Y-45500D03*
X312440Y-238950D03*
X242780Y309440D03*
X238450Y311940D03*
X152290Y-362440D03*
X50500Y389740D03*
X-50500Y-389740D03*
X-151790Y362440D03*
X-235950Y-314440D03*
X-314440Y235450D03*
X-361940Y-152290D03*
X-389740Y50500D03*
%LPD*%
G75*
G54D10*
X-435000Y-435000D03*
X-437500Y550000D03*
X-400000Y-400000D03*
Y400000D03*
X-100000Y550000D03*
X400000Y-400000D03*
Y400000D03*
X435000Y-435000D03*
Y435000D03*
G54D20*
G01X-355950Y27560D02*
X-347560D01*
G01X-320780Y-154510D02*
X-313510Y-150320D01*
G01X-295720Y198940D02*
X-288450Y194740D01*
G01X-198940Y-295720D02*
X-194740Y-288450D01*
G01X-154510Y320780D02*
X-150320Y313510D01*
G01X-27500Y-347500D02*
X-27560Y-347560D01*
G01D02*
Y-355950D01*
G01X27560Y355950D02*
Y347560D01*
G01X154510Y-320780D02*
X150320Y-313510D01*
G01X201440Y293220D02*
X196050Y286790D01*
G01X293220Y-201440D02*
X285950Y-197240D01*
G01X320780Y154510D02*
X313510Y150320D01*
G01X355950Y-22560D02*
X347560D01*
G54D11*
X-450940Y33500D03*
D03*
Y56000D03*
D03*
X-440500Y-335000D03*
D03*
X-423310Y-175720D03*
D03*
X-426500Y20500D03*
D03*
X-422500Y25500D03*
D03*
X-420500Y28000D03*
D03*
X-424500Y23000D03*
D03*
X-420000Y15500D03*
D03*
X-436940D03*
D03*
X-439100Y45740D03*
D03*
X-428900D03*
D03*
X-439100Y38260D03*
D03*
X-420000Y38000D03*
D03*
X-420500Y53000D03*
D03*
X-439100Y42000D03*
D03*
X-436940Y53000D03*
D03*
X-439100Y67740D03*
D03*
X-428900D03*
D03*
X-439100Y60260D03*
D03*
Y64000D03*
D03*
X-389000Y-558000D03*
D03*
Y-554000D03*
D03*
Y-550000D03*
D03*
Y-546000D03*
D03*
Y-542000D03*
D03*
X-413000D03*
D03*
Y-546000D03*
D03*
Y-550000D03*
D03*
Y-554000D03*
D03*
Y-558000D03*
D03*
X-393000Y-542000D03*
D03*
Y-546000D03*
D03*
Y-550000D03*
D03*
Y-554000D03*
D03*
Y-558000D03*
D03*
X-397000Y-542000D03*
D03*
Y-546000D03*
D03*
Y-550000D03*
D03*
Y-554000D03*
D03*
Y-558000D03*
D03*
X-401000Y-542000D03*
D03*
Y-546000D03*
D03*
Y-550000D03*
D03*
Y-554000D03*
D03*
Y-558000D03*
D03*
X-405000Y-542000D03*
D03*
Y-546000D03*
D03*
Y-550000D03*
D03*
Y-554000D03*
D03*
Y-558000D03*
D03*
X-409000D03*
D03*
Y-554000D03*
D03*
Y-550000D03*
D03*
Y-546000D03*
D03*
Y-542000D03*
D03*
X-389000Y-538000D03*
D03*
Y-534000D03*
D03*
Y-530000D03*
D03*
Y-526000D03*
D03*
Y-522000D03*
D03*
Y-518000D03*
D03*
Y-514000D03*
D03*
X-413000D03*
D03*
Y-518000D03*
D03*
Y-522000D03*
D03*
Y-526000D03*
D03*
Y-530000D03*
D03*
Y-534000D03*
D03*
Y-538000D03*
D03*
X-393000Y-514000D03*
D03*
Y-518000D03*
D03*
Y-522000D03*
D03*
Y-526000D03*
D03*
Y-530000D03*
D03*
Y-534000D03*
D03*
Y-538000D03*
D03*
X-397000Y-514000D03*
D03*
Y-518000D03*
D03*
Y-522000D03*
D03*
Y-526000D03*
D03*
Y-530000D03*
D03*
Y-534000D03*
D03*
Y-538000D03*
D03*
X-401000Y-514000D03*
D03*
Y-518000D03*
D03*
Y-522000D03*
D03*
Y-526000D03*
D03*
Y-530000D03*
D03*
Y-534000D03*
D03*
Y-538000D03*
D03*
X-405000Y-514000D03*
D03*
Y-518000D03*
D03*
Y-522000D03*
D03*
Y-526000D03*
D03*
Y-530000D03*
D03*
Y-534000D03*
D03*
Y-538000D03*
D03*
X-409000D03*
D03*
Y-534000D03*
D03*
Y-530000D03*
D03*
Y-526000D03*
D03*
Y-522000D03*
D03*
Y-518000D03*
D03*
Y-514000D03*
D03*
X-389000Y-510000D03*
D03*
Y-506000D03*
D03*
Y-502000D03*
D03*
Y-498000D03*
D03*
X-413000D03*
D03*
Y-502000D03*
D03*
Y-506000D03*
D03*
Y-510000D03*
D03*
X-393000Y-498000D03*
D03*
Y-502000D03*
D03*
Y-506000D03*
D03*
Y-510000D03*
D03*
X-397000Y-498000D03*
D03*
Y-502000D03*
D03*
Y-506000D03*
D03*
Y-510000D03*
D03*
X-401000Y-498000D03*
D03*
Y-502000D03*
D03*
Y-506000D03*
D03*
Y-510000D03*
D03*
X-405000Y-498000D03*
D03*
Y-502000D03*
D03*
Y-506000D03*
D03*
Y-510000D03*
D03*
X-409000D03*
D03*
Y-506000D03*
D03*
Y-502000D03*
D03*
Y-498000D03*
D03*
X-397950Y-187540D03*
D03*
X-412310Y-196220D03*
D03*
X-402850Y-155460D03*
D03*
X-411690Y-160560D03*
D03*
X-401690Y-181060D03*
D03*
X-392850Y-175960D03*
D03*
X-407950Y-167040D03*
D03*
X-404310Y-173720D03*
D03*
X-409820Y-163800D03*
D03*
X-392020Y-179800D03*
D03*
X-389740Y15500D03*
D03*
X-411000Y18000D03*
D03*
Y48000D03*
D03*
X-409330Y51830D03*
D03*
X-398740Y30500D03*
D03*
X-389740Y38000D03*
D03*
X-411000Y40500D03*
D03*
Y55500D03*
D03*
Y33000D03*
D03*
X-389740Y50500D03*
D03*
X-393940Y61000D03*
D03*
X-388940Y86500D03*
D03*
X-408600Y67760D03*
D03*
X-412500Y420000D03*
D03*
X-393740Y438740D03*
D03*
Y428540D03*
D03*
X-390000Y436260D03*
D03*
X-412500Y476500D03*
D03*
X-404500Y497500D03*
D03*
X-369000Y-558000D03*
D03*
Y-554000D03*
D03*
Y-550000D03*
D03*
Y-546000D03*
D03*
Y-542000D03*
D03*
X-385000D03*
D03*
Y-546000D03*
D03*
Y-550000D03*
D03*
Y-554000D03*
D03*
Y-558000D03*
D03*
X-377000Y-542000D03*
D03*
Y-546000D03*
D03*
Y-550000D03*
D03*
Y-554000D03*
D03*
Y-558000D03*
D03*
X-373000Y-542000D03*
D03*
Y-546000D03*
D03*
Y-550000D03*
D03*
Y-554000D03*
D03*
Y-558000D03*
D03*
X-381000Y-542000D03*
D03*
Y-546000D03*
D03*
Y-550000D03*
D03*
Y-554000D03*
D03*
Y-558000D03*
D03*
X-365000Y-522000D03*
D03*
Y-518000D03*
D03*
Y-514000D03*
D03*
X-369000Y-538000D03*
D03*
Y-534000D03*
D03*
Y-530000D03*
D03*
Y-526000D03*
D03*
Y-522000D03*
D03*
Y-518000D03*
D03*
Y-514000D03*
D03*
X-385000D03*
D03*
Y-518000D03*
D03*
Y-522000D03*
D03*
Y-526000D03*
D03*
Y-530000D03*
D03*
Y-534000D03*
D03*
Y-538000D03*
D03*
X-377000Y-514000D03*
D03*
Y-518000D03*
D03*
Y-522000D03*
D03*
Y-526000D03*
D03*
Y-530000D03*
D03*
Y-534000D03*
D03*
Y-538000D03*
D03*
X-373000Y-514000D03*
D03*
Y-518000D03*
D03*
Y-522000D03*
D03*
Y-526000D03*
D03*
Y-530000D03*
D03*
Y-534000D03*
D03*
Y-538000D03*
D03*
X-381000Y-514000D03*
D03*
Y-518000D03*
D03*
Y-522000D03*
D03*
Y-526000D03*
D03*
Y-530000D03*
D03*
Y-534000D03*
D03*
Y-538000D03*
D03*
X-365000Y-510000D03*
D03*
Y-506000D03*
D03*
Y-502000D03*
D03*
Y-498000D03*
D03*
X-369000Y-510000D03*
D03*
Y-506000D03*
D03*
Y-502000D03*
D03*
Y-498000D03*
D03*
X-385000D03*
D03*
Y-502000D03*
D03*
Y-506000D03*
D03*
Y-510000D03*
D03*
X-377000Y-498000D03*
D03*
Y-502000D03*
D03*
Y-506000D03*
D03*
Y-510000D03*
D03*
X-373000Y-498000D03*
D03*
Y-502000D03*
D03*
Y-506000D03*
D03*
Y-510000D03*
D03*
X-381000Y-498000D03*
D03*
Y-502000D03*
D03*
Y-506000D03*
D03*
Y-510000D03*
D03*
X-379030Y-196170D03*
D03*
X-378060Y-189840D03*
D03*
X-377580Y-186670D03*
D03*
X-378540Y-193000D03*
D03*
X-370900Y-197250D03*
D03*
X-385810Y-205720D03*
D03*
X-364350Y-190580D03*
D03*
X-379100Y-165090D03*
D03*
X-361940Y-152290D03*
D03*
X-388150Y-167420D03*
D03*
X-359990Y-173630D03*
D03*
X-381900Y-178250D03*
D03*
X-375350Y-171580D03*
D03*
X-382850Y-158590D03*
D03*
X-371850Y-177590D03*
D03*
X-386950Y-145540D03*
D03*
X-370810Y-145220D03*
D03*
X-379660Y-120570D03*
D03*
X-378000Y25000D03*
D03*
X-360530Y228830D03*
D03*
X-371810Y229720D03*
D03*
X-363190Y249560D03*
D03*
X-361320Y252800D03*
D03*
X-377810Y257720D03*
D03*
X-359450Y256040D03*
D03*
X-365810Y277220D03*
D03*
X-373740Y438740D03*
D03*
Y428540D03*
D03*
X-360000Y429700D03*
D03*
X-366260Y428540D03*
D03*
X-380000Y429700D03*
D03*
X-386260Y428540D03*
D03*
X-360000Y445300D03*
D03*
X-380000D03*
D03*
X-370000Y428540D03*
D03*
X-332500Y-543000D03*
D03*
Y-546500D03*
D03*
Y-550000D03*
D03*
Y-553500D03*
D03*
Y-557000D03*
D03*
X-337000Y-543000D03*
D03*
Y-546500D03*
D03*
Y-550000D03*
D03*
Y-553500D03*
D03*
Y-557000D03*
D03*
X-341500Y-543000D03*
D03*
Y-546500D03*
D03*
Y-550000D03*
D03*
Y-553500D03*
D03*
Y-557000D03*
D03*
X-332500Y-532500D03*
D03*
Y-536000D03*
D03*
Y-539500D03*
D03*
X-337000Y-532500D03*
D03*
Y-536000D03*
D03*
Y-539500D03*
D03*
X-341500Y-532500D03*
D03*
Y-536000D03*
D03*
Y-539500D03*
D03*
X-344690Y-182120D03*
D03*
X-355690Y-163120D03*
D03*
X-338600Y-167750D03*
D03*
X-355950Y27560D03*
D03*
X-331190Y206120D03*
D03*
X-354560Y231160D03*
D03*
X-351580Y232330D03*
D03*
X-357540Y230000D03*
D03*
X-331490Y223610D03*
D03*
X-357400Y221250D03*
D03*
X-337850Y237420D03*
D03*
X-348350Y218920D03*
D03*
X-348650Y236410D03*
D03*
X-334100Y243910D03*
D03*
X-340650Y250580D03*
D03*
X-346900Y239750D03*
D03*
X-330350Y250410D03*
D03*
X-353810Y261220D03*
D03*
X-350610Y250940D03*
D03*
X-351690Y268560D03*
D03*
X-349820Y271800D03*
D03*
X-347950Y275040D03*
D03*
X-339110Y269940D03*
D03*
X-337000Y362000D03*
D03*
Y384500D03*
D03*
X-353740Y438740D03*
D03*
Y428540D03*
D03*
X-333740Y438740D03*
D03*
Y428540D03*
D03*
X-340000Y429700D03*
D03*
X-346260Y428540D03*
D03*
X-331000Y437000D03*
D03*
X-340000Y445300D03*
D03*
X-350000Y428540D03*
D03*
X-333760Y535340D03*
D03*
X-347500Y536500D03*
D03*
X-333760Y545540D03*
D03*
X-347500Y553500D03*
D03*
X-341240Y545540D03*
D03*
X-337500D03*
D03*
X-323500Y-543000D03*
D03*
Y-546500D03*
D03*
Y-550000D03*
D03*
Y-553500D03*
D03*
Y-557000D03*
D03*
X-328000Y-543000D03*
D03*
Y-546500D03*
D03*
Y-550000D03*
D03*
Y-553500D03*
D03*
Y-557000D03*
D03*
X-316000Y-546500D03*
D03*
Y-550000D03*
D03*
Y-553500D03*
D03*
Y-557000D03*
D03*
Y-560500D03*
D03*
X-311500Y-543000D03*
D03*
X-305500Y-546000D03*
D03*
Y-549500D03*
D03*
Y-553000D03*
D03*
Y-556500D03*
D03*
Y-560000D03*
D03*
X-299500Y-560500D03*
D03*
Y-557000D03*
D03*
Y-553500D03*
D03*
Y-550000D03*
D03*
Y-546500D03*
D03*
Y-543000D03*
D03*
X-311500Y-546500D03*
D03*
Y-550000D03*
D03*
Y-553500D03*
D03*
Y-557000D03*
D03*
Y-560500D03*
D03*
X-323500Y-532500D03*
D03*
Y-536000D03*
D03*
Y-539500D03*
D03*
X-328000Y-532500D03*
D03*
Y-536000D03*
D03*
Y-539500D03*
D03*
X-299500D03*
D03*
Y-536000D03*
D03*
X-311500D03*
D03*
Y-539500D03*
D03*
X-305500Y-541000D03*
D03*
X-315000Y-537500D03*
D03*
X-320780Y-154510D03*
D03*
X-314470Y-112970D03*
D03*
X-319190Y-104250D03*
D03*
X-328440Y60000D03*
D03*
X-328500Y70000D03*
D03*
X-316100Y207750D03*
D03*
X-314440Y235450D03*
D03*
X-320690Y224620D03*
D03*
X-322190Y260560D03*
D03*
X-313600Y246710D03*
D03*
X-313740Y438740D03*
D03*
Y428540D03*
D03*
X-300000Y429700D03*
D03*
X-320000D03*
D03*
X-306260Y428540D03*
D03*
X-326260D03*
D03*
X-310000Y436260D03*
D03*
X-313760Y535340D03*
D03*
X-307500Y536500D03*
D03*
X-327500Y533000D03*
D03*
X-313760Y545540D03*
D03*
X-327500Y553500D03*
D03*
X-301240Y545540D03*
D03*
X-321240D03*
D03*
X-307500Y554000D03*
D03*
X-317500Y554660D03*
D03*
X-279000Y-546500D03*
D03*
Y-550000D03*
D03*
Y-553500D03*
D03*
Y-557000D03*
D03*
Y-560500D03*
D03*
X-287000Y-546500D03*
D03*
Y-550000D03*
D03*
Y-553500D03*
D03*
Y-557000D03*
D03*
Y-560500D03*
D03*
X-269500Y-546500D03*
D03*
Y-550000D03*
D03*
Y-553500D03*
D03*
Y-557000D03*
D03*
Y-560500D03*
D03*
X-295000D03*
D03*
Y-557000D03*
D03*
Y-553500D03*
D03*
Y-550000D03*
D03*
Y-546500D03*
D03*
Y-543000D03*
D03*
X-291000D03*
D03*
Y-546500D03*
D03*
Y-550000D03*
D03*
Y-553500D03*
D03*
Y-557000D03*
D03*
Y-560500D03*
D03*
X-283000Y-543000D03*
D03*
Y-546500D03*
D03*
Y-550000D03*
D03*
Y-553500D03*
D03*
Y-557000D03*
D03*
Y-560500D03*
D03*
X-275000Y-543000D03*
D03*
Y-546500D03*
D03*
Y-550000D03*
D03*
Y-553500D03*
D03*
Y-557000D03*
D03*
Y-560500D03*
D03*
X-272000Y-515000D03*
D03*
X-276000D03*
D03*
X-279500D03*
D03*
X-283000D03*
D03*
X-292500D03*
D03*
X-295000Y-539500D03*
D03*
Y-536000D03*
D03*
X-291000D03*
D03*
Y-539500D03*
D03*
X-283000Y-536000D03*
D03*
Y-539500D03*
D03*
X-275000Y-536000D03*
D03*
Y-539500D03*
D03*
X-269500Y-540500D03*
D03*
X-279000Y-535440D03*
D03*
X-287000D03*
D03*
X-272000Y-497500D03*
D03*
Y-494000D03*
D03*
Y-511500D03*
D03*
Y-508000D03*
D03*
Y-504500D03*
D03*
Y-501000D03*
D03*
X-276000Y-497500D03*
D03*
Y-494000D03*
D03*
X-279500Y-497500D03*
D03*
Y-494000D03*
D03*
X-276000Y-511500D03*
D03*
Y-508000D03*
D03*
Y-504500D03*
D03*
Y-501000D03*
D03*
X-279500Y-511500D03*
D03*
Y-508000D03*
D03*
Y-504500D03*
D03*
Y-501000D03*
D03*
X-283000Y-497500D03*
D03*
Y-494000D03*
D03*
Y-511500D03*
D03*
Y-508000D03*
D03*
Y-504500D03*
D03*
Y-501000D03*
D03*
X-292500D03*
D03*
Y-504500D03*
D03*
Y-508000D03*
D03*
Y-511500D03*
D03*
Y-494000D03*
D03*
Y-497500D03*
D03*
X-278220Y-366810D03*
D03*
X-276040Y-348450D03*
D03*
X-270940Y-339610D03*
D03*
X-269560Y-352190D03*
D03*
X-272800Y-350320D03*
D03*
X-295720Y198940D03*
D03*
X-297160Y266870D03*
D03*
X-293740Y438740D03*
D03*
Y428540D03*
D03*
X-273740Y438740D03*
D03*
Y428540D03*
D03*
X-280000Y429700D03*
D03*
X-286260Y428540D03*
D03*
X-290000Y436260D03*
D03*
X-270000D03*
D03*
X-280500Y451000D03*
D03*
X-293000Y452000D03*
D03*
X-293760Y535340D03*
D03*
X-289500Y533500D03*
D03*
X-273760Y535340D03*
D03*
X-293760Y545540D03*
D03*
X-287500Y553500D03*
D03*
X-281240Y545540D03*
D03*
X-297500Y554660D03*
D03*
X-277500D03*
D03*
X-273760Y545540D03*
D03*
X-265000Y-543000D03*
D03*
Y-546500D03*
D03*
Y-550000D03*
D03*
Y-553500D03*
D03*
Y-557000D03*
D03*
Y-560500D03*
D03*
X-261500Y-543000D03*
D03*
Y-546500D03*
D03*
Y-550000D03*
D03*
Y-553500D03*
D03*
Y-557000D03*
D03*
Y-560500D03*
D03*
X-261000Y-518500D03*
D03*
Y-515000D03*
D03*
X-264500Y-518500D03*
D03*
Y-515000D03*
D03*
X-268500D03*
D03*
X-265000Y-536000D03*
D03*
Y-539500D03*
D03*
X-261500Y-536000D03*
D03*
Y-539500D03*
D03*
X-261000Y-497500D03*
D03*
Y-494000D03*
D03*
X-264500Y-497500D03*
D03*
Y-494000D03*
D03*
X-261000Y-511500D03*
D03*
Y-508000D03*
D03*
Y-504500D03*
D03*
Y-501000D03*
D03*
X-264500Y-511500D03*
D03*
Y-508000D03*
D03*
Y-504500D03*
D03*
Y-501000D03*
D03*
X-268500Y-497500D03*
D03*
Y-494000D03*
D03*
Y-511500D03*
D03*
Y-508000D03*
D03*
Y-504500D03*
D03*
Y-501000D03*
D03*
X-250060Y-363690D03*
D03*
X-253300Y-361820D03*
D03*
X-258220Y-378810D03*
D03*
X-244410Y-334100D03*
D03*
X-251080Y-340650D03*
D03*
X-256540Y-359950D03*
D03*
X-251440Y-351110D03*
D03*
X-240250Y-346900D03*
D03*
X-261720Y-353810D03*
D03*
X-261560Y-321690D03*
D03*
X-247720Y-312310D03*
D03*
X-250910Y-330350D03*
D03*
X-267370Y-295660D03*
D03*
X-256970Y215470D03*
D03*
X-249190Y224250D03*
D03*
X-253740Y438740D03*
D03*
Y428540D03*
D03*
X-240000Y429700D03*
D03*
X-260000D03*
D03*
X-246260Y428540D03*
D03*
X-266260D03*
D03*
X-256500Y450000D03*
D03*
X-253760Y535340D03*
D03*
X-267500Y536500D03*
D03*
X-253760Y545540D03*
D03*
X-267500Y553500D03*
D03*
X-261240Y545540D03*
D03*
X-257500Y554660D03*
D03*
X-229720Y-372310D03*
D03*
X-228830Y-360530D03*
D03*
X-231160Y-354560D03*
D03*
X-232330Y-351580D03*
D03*
X-230000Y-357540D03*
D03*
X-221250Y-357400D03*
D03*
X-237920Y-337850D03*
D03*
X-218920Y-348350D03*
D03*
X-231910Y-340850D03*
D03*
X-235950Y-314440D03*
D03*
X-223610Y-331490D03*
D03*
X-225120Y-320690D03*
D03*
X-217970Y-254470D03*
D03*
X-225250Y-250190D03*
D03*
X-213740Y438740D03*
D03*
Y428540D03*
D03*
X-233740Y438740D03*
D03*
Y428540D03*
D03*
X-220000Y429700D03*
D03*
X-226260Y428540D03*
D03*
X-210000Y436260D03*
D03*
X-230000D03*
D03*
X-206120Y-331190D03*
D03*
X-207750Y-316100D03*
D03*
X-198940Y-295720D03*
D03*
X-181620Y345190D03*
D03*
X-195670Y379530D03*
D03*
X-189340Y378560D03*
D03*
X-186170Y378080D03*
D03*
X-192500Y379040D03*
D03*
X-196750Y371400D03*
D03*
X-205220Y385810D03*
D03*
X-181060Y403190D03*
D03*
X-187540Y399450D03*
D03*
X-184300Y401320D03*
D03*
X-195720Y413310D03*
D03*
X-193740Y438740D03*
D03*
Y428540D03*
D03*
X-180000Y429700D03*
D03*
X-200000D03*
D03*
X-186260Y428540D03*
D03*
X-206260D03*
D03*
X-190000Y436260D03*
D03*
X-180000Y450000D03*
D03*
X-200000D03*
D03*
X-172000Y-490500D03*
D03*
X-168500D03*
D03*
X-172000Y-487000D03*
D03*
X-168500D03*
D03*
X-165000Y-490500D03*
D03*
X-161500D03*
D03*
X-165000Y-487000D03*
D03*
X-161500D03*
D03*
X-158000Y-490500D03*
D03*
Y-487000D03*
D03*
Y-483500D03*
D03*
X-161500D03*
D03*
X-165000D03*
D03*
X-168500D03*
D03*
X-172000D03*
D03*
Y-498500D03*
D03*
Y-502000D03*
D03*
Y-495000D03*
D03*
X-154510Y320780D03*
D03*
X-162620Y356190D03*
D03*
X-167750Y338600D03*
D03*
X-164590Y379600D03*
D03*
X-151790Y362440D03*
D03*
X-173130Y360490D03*
D03*
X-177750Y382400D03*
D03*
X-171080Y375850D03*
D03*
X-158090Y383350D03*
D03*
X-177090Y372350D03*
D03*
X-166920Y388650D03*
D03*
X-175960Y394350D03*
D03*
X-155960Y404850D03*
D03*
X-161060Y413690D03*
D03*
X-167540Y409950D03*
D03*
X-173220Y404810D03*
D03*
X-164300Y411820D03*
D03*
X-173740Y438740D03*
D03*
Y428540D03*
D03*
X-153740Y438740D03*
D03*
Y428540D03*
D03*
X-160000Y429700D03*
D03*
X-166260Y428540D03*
D03*
X-175720Y424310D03*
D03*
X-150000Y436260D03*
D03*
X-170000D03*
D03*
X-129000Y-552500D03*
D03*
Y-549000D03*
D03*
X-132500Y-552500D03*
D03*
Y-549000D03*
D03*
X-129000Y-559500D03*
D03*
Y-556000D03*
D03*
X-132500Y-559500D03*
D03*
Y-556000D03*
D03*
X-129000Y-545500D03*
D03*
Y-542000D03*
D03*
X-132500Y-545500D03*
D03*
Y-542000D03*
D03*
X-129000Y-538500D03*
D03*
Y-535000D03*
D03*
X-132500Y-538500D03*
D03*
Y-535000D03*
D03*
X-148000Y-490500D03*
D03*
X-144500D03*
D03*
X-148000Y-487000D03*
D03*
X-144500D03*
D03*
X-141000Y-490500D03*
D03*
X-137500D03*
D03*
X-141000Y-487000D03*
D03*
X-137500D03*
D03*
X-134000Y-490500D03*
D03*
Y-487000D03*
D03*
Y-483500D03*
D03*
X-137500D03*
D03*
X-141000D03*
D03*
X-144500D03*
D03*
X-148000D03*
D03*
X-146040Y387450D03*
D03*
X-121070Y380660D03*
D03*
X-143720Y370310D03*
D03*
X-133740Y428540D03*
D03*
Y438740D03*
D03*
X-120000Y429700D03*
D03*
X-140000D03*
D03*
X-126260Y428540D03*
D03*
X-146260D03*
D03*
X-130000Y436260D03*
D03*
X-140000Y451000D03*
D03*
X-112970Y314470D03*
D03*
X-104250Y319190D03*
D03*
X-93740Y428540D03*
D03*
Y438740D03*
D03*
X-113740D03*
D03*
Y428540D03*
D03*
X-100000Y429700D03*
D03*
X-106260Y428540D03*
D03*
X-90000Y436260D03*
D03*
X-110000D03*
D03*
X-100000Y451000D03*
D03*
X-61000Y-456440D03*
D03*
X-68240Y-439100D03*
D03*
Y-428900D03*
D03*
X-60760Y-439100D03*
D03*
X-64500D03*
D03*
X-68260Y-408600D03*
D03*
X-61000Y-394000D03*
D03*
X-86560Y-390940D03*
D03*
X-60000Y-327440D03*
D03*
X-70000Y-327500D03*
D03*
X-60000Y429700D03*
D03*
X-80000D03*
D03*
X-66260Y428540D03*
D03*
X-86260D03*
D03*
X-60000Y445300D03*
D03*
X-70000Y436260D03*
D03*
X-80000Y445300D03*
D03*
X-73740Y438740D03*
D03*
Y428540D03*
D03*
X-38500Y-456440D03*
D03*
X-45740Y-439100D03*
D03*
Y-428900D03*
D03*
X-38260Y-439100D03*
D03*
X-53000Y-436940D03*
D03*
X-42000Y-439100D03*
D03*
X-48000Y-411000D03*
D03*
X-50500Y-400000D03*
D03*
X-31000Y-398740D03*
D03*
X-53000Y-420000D03*
D03*
X-38000D03*
D03*
X-40500Y-411000D03*
D03*
X-55500D03*
D03*
X-33500D03*
D03*
X-50500Y-389740D03*
D03*
X-38000D03*
D03*
X-53740Y438740D03*
D03*
Y428540D03*
D03*
X-33740Y438740D03*
D03*
Y428540D03*
D03*
X-40000Y429700D03*
D03*
X-46260Y428540D03*
D03*
X-40000Y445300D03*
D03*
X-30000Y436260D03*
D03*
X-50000D03*
D03*
X-21000Y-426500D03*
D03*
X-26000Y-422500D03*
D03*
X-23500Y-424500D03*
D03*
X-16000Y-436940D03*
D03*
X-28500Y-420500D03*
D03*
X-16000Y-420000D03*
D03*
X-18500Y-411000D03*
D03*
X-16000Y-389740D03*
D03*
X-25000Y-378000D03*
D03*
X-27560Y-355950D03*
D03*
X-20000Y429700D03*
D03*
X-26260Y428540D03*
D03*
X-20000Y445300D03*
D03*
X27560Y355950D03*
D03*
X25000Y378000D03*
D03*
X16000Y389740D03*
D03*
X31000Y398740D03*
D03*
X18500Y411000D03*
D03*
X21000Y426500D03*
D03*
X26000Y422500D03*
D03*
X28500Y420500D03*
D03*
X23500Y424500D03*
D03*
X16000Y420000D03*
D03*
Y436440D03*
D03*
X57000Y325940D03*
D03*
X48000Y411000D03*
D03*
X50500Y389740D03*
D03*
X38000D03*
D03*
X61000Y393940D03*
D03*
X40500Y411000D03*
D03*
X55500D03*
D03*
X33500D03*
D03*
X50500Y420000D03*
D03*
X45740Y438600D03*
D03*
Y428400D03*
D03*
X38000Y420000D03*
D03*
X38260Y438600D03*
D03*
X60260D03*
D03*
X53000Y436440D03*
D03*
X42000Y438600D03*
D03*
X34000Y450440D03*
D03*
X56000D03*
D03*
X70000Y326000D03*
D03*
X67260Y408600D03*
D03*
X86000Y390440D03*
D03*
X67740Y438600D03*
D03*
Y428400D03*
D03*
X64000Y438600D03*
D03*
X120570Y-381160D03*
D03*
X112970Y-314470D03*
D03*
X104250Y-319190D03*
D03*
X145540Y-387450D03*
D03*
X144720Y-370810D03*
D03*
X176720Y-424310D03*
D03*
X161560Y-413190D03*
D03*
X156460Y-404350D03*
D03*
X181060Y-402690D03*
D03*
X175960Y-393850D03*
D03*
X168040Y-409450D03*
D03*
X173720Y-404310D03*
D03*
X164800Y-411320D03*
D03*
X165090Y-379600D03*
D03*
X152290Y-362440D03*
D03*
X167420Y-388650D03*
D03*
X178250Y-382400D03*
D03*
X171580Y-375850D03*
D03*
X158590Y-383350D03*
D03*
X177090Y-372350D03*
D03*
X173130Y-360490D03*
D03*
X163120Y-356190D03*
D03*
X167750Y-338600D03*
D03*
X154510Y-320780D03*
D03*
X187540Y-398950D03*
D03*
X184300Y-400820D03*
D03*
X196220Y-413310D03*
D03*
X195670Y-379530D03*
D03*
X189340Y-378560D03*
D03*
X186170Y-378080D03*
D03*
X192500Y-379040D03*
D03*
X196750Y-371400D03*
D03*
X205220Y-386310D03*
D03*
X190080Y-364850D03*
D03*
X181620Y-345190D03*
D03*
X201440Y293220D03*
D03*
X210250Y313600D03*
D03*
X209120Y328690D03*
D03*
X215470Y251970D03*
D03*
X224250Y246690D03*
D03*
X238450Y311940D03*
D03*
X227620Y318190D03*
D03*
X231830Y358030D03*
D03*
X234160Y352060D03*
D03*
X235330Y349080D03*
D03*
X233000Y355040D03*
D03*
X226610Y328990D03*
D03*
X224250Y354900D03*
D03*
X240420Y335350D03*
D03*
X234910Y338350D03*
D03*
X221920Y345850D03*
D03*
X232220Y369310D03*
D03*
X251970Y-215470D03*
D03*
X246690Y-224250D03*
D03*
X270370Y295160D03*
D03*
X263060Y320190D03*
D03*
X249220Y309310D03*
D03*
X253410Y327850D03*
D03*
X242780Y309440D03*
D03*
X246910Y331600D03*
D03*
X253580Y338150D03*
D03*
X259040Y356450D03*
D03*
X253940Y347610D03*
D03*
X242750Y344400D03*
D03*
X270560Y349690D03*
D03*
X263720Y351310D03*
D03*
X252560Y360190D03*
D03*
X255800Y358320D03*
D03*
X261220Y374810D03*
D03*
X294160Y-271370D03*
D03*
X293220Y-201440D03*
D03*
X277040Y345950D03*
D03*
X271940Y337110D03*
D03*
X273800Y347820D03*
D03*
X279220Y365310D03*
D03*
X319690Y-264560D03*
D03*
X309810Y-249720D03*
D03*
X328350Y-253910D03*
D03*
X312440Y-238950D03*
D03*
X329990Y-226610D03*
D03*
X318690Y-228120D03*
D03*
X329690Y-209120D03*
D03*
X313600Y-210250D03*
D03*
X326000Y-70000D03*
D03*
X325940Y-60000D03*
D03*
X311970Y112970D03*
D03*
X316690Y104250D03*
D03*
X320780Y154510D03*
D03*
X346450Y-278040D03*
D03*
X337610Y-272940D03*
D03*
X348320Y-274800D03*
D03*
X332100Y-247410D03*
D03*
X338650Y-254080D03*
D03*
X356950Y-259540D03*
D03*
X348110Y-254440D03*
D03*
X350190Y-271560D03*
D03*
X360690Y-253060D03*
D03*
X344900Y-243250D03*
D03*
X352310Y-264720D03*
D03*
X358820Y-256300D03*
D03*
X359030Y-231830D03*
D03*
X353060Y-234160D03*
D03*
X350080Y-235330D03*
D03*
X356040Y-233000D03*
D03*
X355900Y-224250D03*
D03*
X335850Y-240920D03*
D03*
X339350Y-234910D03*
D03*
X346850Y-221920D03*
D03*
X355950Y-22560D03*
D03*
X360490Y173630D03*
D03*
X356190Y163120D03*
D03*
X338600Y167750D03*
D03*
X345190Y182120D03*
D03*
X365310Y-279720D03*
D03*
X375810Y-261220D03*
D03*
X370310Y-232720D03*
D03*
X390440Y-83500D03*
D03*
X390240Y-45500D03*
D03*
Y-33000D03*
D03*
Y-11000D03*
D03*
X378000Y-20000D03*
D03*
X387450Y146540D03*
D03*
X381160Y121570D03*
D03*
X370310Y144720D03*
D03*
X379600Y165090D03*
D03*
X362440Y152290D03*
D03*
X388650Y167420D03*
D03*
X375850Y171580D03*
D03*
X383350Y158590D03*
D03*
X372350Y177590D03*
D03*
X379530Y196170D03*
D03*
X378560Y189840D03*
D03*
X378080Y186670D03*
D03*
X379040Y193000D03*
D03*
X382400Y178250D03*
D03*
X371400Y197250D03*
D03*
X385810Y205720D03*
D03*
X364850Y190580D03*
D03*
X409100Y-64260D03*
D03*
X411500Y-43000D03*
D03*
X420500Y-45500D03*
D03*
X394940Y-57000D03*
D03*
X420500Y-33000D03*
D03*
X411500Y-35500D03*
D03*
Y-50500D03*
D03*
X421000Y-23500D03*
D03*
X399240Y-26000D03*
D03*
X420500Y-11000D03*
D03*
X411500Y-28500D03*
D03*
Y-13500D03*
D03*
X412690Y162060D03*
D03*
X403850Y156960D03*
D03*
X393850Y174960D03*
D03*
X408950Y168540D03*
D03*
X410820Y165300D03*
D03*
X404310Y173720D03*
D03*
X402690Y180060D03*
D03*
X398950Y186540D03*
D03*
X400820Y183300D03*
D03*
X413810Y195220D03*
D03*
X438600Y-62240D03*
D03*
X428400D03*
D03*
X439100Y-41240D03*
D03*
X428900D03*
D03*
X439100Y-33760D03*
D03*
X438600Y-54760D03*
D03*
Y-58500D03*
D03*
X437440Y-48000D03*
D03*
X439100Y-37500D03*
D03*
X450940Y-50500D03*
D03*
X427000Y-16000D03*
D03*
X423000Y-21000D03*
D03*
X425000Y-18500D03*
D03*
X450940Y-29000D03*
D03*
X437440Y-11000D03*
D03*
X423810Y177220D03*
D03*
G54D12*
X-441810Y-522500D03*
X-418190D03*
G54D13*
X-430000Y-504000D03*
G54D14*
X-325860Y-107310D03*
X-335860Y-70000D03*
Y-60000D03*
Y-50000D03*
Y-40000D03*
Y-30000D03*
Y-20000D03*
Y-10000D03*
Y0D03*
Y10000D03*
Y20000D03*
Y30000D03*
Y40000D03*
Y50000D03*
Y60000D03*
Y70000D03*
X-325860Y107310D03*
X-295860Y-159270D03*
X-300860Y-150610D03*
X-305860Y-141950D03*
X-310860Y-133290D03*
X-315860Y-124630D03*
X-320860Y-115970D03*
Y115970D03*
X-315860Y124630D03*
X-310860Y133290D03*
X-305860Y141950D03*
X-300860Y150610D03*
X-295860Y159270D03*
X-265860Y-211230D03*
X-270860Y-202570D03*
X-275860Y-193910D03*
X-280860Y-185250D03*
X-285860Y-176590D03*
X-290860Y-167930D03*
Y167930D03*
X-285860Y176590D03*
X-280860Y185250D03*
X-275860Y193910D03*
X-270860Y202570D03*
X-265860Y211230D03*
X-255860Y-228550D03*
X-260860Y-219890D03*
Y219890D03*
X-255860Y228550D03*
X-211230Y-265860D03*
X-219890Y-260860D03*
X-228550Y-255860D03*
Y255860D03*
X-219890Y260860D03*
X-211230Y265860D03*
X-176590Y-285860D03*
X-185250Y-280860D03*
X-193910Y-275860D03*
X-202570Y-270860D03*
Y270860D03*
X-193910Y275860D03*
X-185250Y280860D03*
X-176590Y285860D03*
X-150610Y-300860D03*
X-159270Y-295860D03*
X-167930Y-290860D03*
Y290860D03*
X-159270Y295860D03*
X-150610Y300860D03*
X-115970Y-320860D03*
X-124630Y-315860D03*
X-133290Y-310860D03*
X-141950Y-305860D03*
Y305860D03*
X-133290Y310860D03*
X-124630Y315860D03*
X-115970Y320860D03*
X-107310Y-325860D03*
Y325860D03*
X-60000Y-335860D03*
X-70000D03*
Y335860D03*
X-60000D03*
X-30000Y-335860D03*
X-40000D03*
X-50000D03*
Y335860D03*
X-40000D03*
X-30000D03*
X0Y-335860D03*
X-10000D03*
X-20000D03*
Y335860D03*
X-10000D03*
X0D03*
X30000Y-335860D03*
X20000D03*
X10000D03*
Y335860D03*
X20000D03*
X30000D03*
X60000Y-335860D03*
X50000D03*
X40000D03*
Y335860D03*
X50000D03*
X60000D03*
X70000Y-335860D03*
Y335860D03*
X115970Y-320860D03*
X107310Y-325860D03*
Y325860D03*
X115970Y320860D03*
X150610Y-300860D03*
X141950Y-305860D03*
X133290Y-310860D03*
X124630Y-315860D03*
X150610Y300860D03*
X124630Y315860D03*
X133290Y310860D03*
X141950Y305860D03*
X176590Y-285860D03*
X167930Y-290860D03*
X159270Y-295860D03*
Y295860D03*
X167930Y290860D03*
X176590Y285860D03*
X202570Y-270860D03*
X193910Y-275860D03*
X185250Y-280860D03*
X211230Y-265860D03*
X202570Y270860D03*
X211230Y265860D03*
X185250Y280860D03*
X193910Y275860D03*
X228550Y-255860D03*
X219890Y-260860D03*
Y260860D03*
X228550Y255860D03*
X265860Y-211230D03*
X260860Y-219890D03*
X255860Y-228550D03*
X270860Y-202570D03*
Y202570D03*
X255860Y228550D03*
X260860Y219890D03*
X265860Y211230D03*
X280860Y-185250D03*
X275860Y-193910D03*
X300860Y-150610D03*
X295860Y-159270D03*
X290860Y-167930D03*
X285860Y-176590D03*
X300860Y150610D03*
X285860Y176590D03*
X290860Y167930D03*
X295860Y159270D03*
X275860Y193910D03*
X280860Y185250D03*
X315860Y-124630D03*
X310860Y-133290D03*
X305860Y-141950D03*
X325860Y-107310D03*
X320860Y-115970D03*
Y115970D03*
X325860Y107310D03*
X305860Y141950D03*
X310860Y133290D03*
X315860Y124630D03*
X335860Y-70000D03*
Y-40000D03*
Y-50000D03*
Y-60000D03*
Y-10000D03*
Y-20000D03*
Y-30000D03*
Y20000D03*
Y10000D03*
Y0D03*
Y50000D03*
Y40000D03*
Y30000D03*
Y70000D03*
Y60000D03*
G54D15*
X-352500Y490000D03*
X-347500Y497500D03*
X-342500Y490000D03*
X-337500Y497500D03*
X-332500Y490000D03*
X-327500Y497500D03*
X-352500Y505000D03*
X-342500D03*
X-332500D03*
X-347500Y512500D03*
X-337500D03*
X-327500D03*
X-322500Y490000D03*
X-317500Y497500D03*
X-312500Y490000D03*
X-307500Y497500D03*
X-302500Y490000D03*
X-297500Y497500D03*
X-322500Y505000D03*
X-312500D03*
X-302500D03*
X-317500Y512500D03*
X-307500D03*
X-297500D03*
X-292500Y490000D03*
X-287500Y497500D03*
X-282500Y490000D03*
X-277500Y497500D03*
X-272500Y490000D03*
X-267500Y497500D03*
X-292500Y505000D03*
X-282500D03*
X-272500D03*
X-287500Y512500D03*
X-277500D03*
X-267500D03*
X-262500Y490000D03*
X-257500Y497500D03*
X-252500Y490000D03*
X-247500Y497500D03*
X-242500Y490000D03*
X-237500Y497500D03*
X-262500Y505000D03*
X-252500D03*
X-242500D03*
X-257500Y512500D03*
X-247500D03*
X-237500D03*
X-232500Y490000D03*
X-227500Y497500D03*
X-222500Y490000D03*
X-217500Y497500D03*
X-212500Y490000D03*
X-207500Y497500D03*
X-232500Y505000D03*
X-222500D03*
X-212500D03*
X-227500Y512500D03*
X-217500D03*
X-207500D03*
X-202500Y490000D03*
X-197500Y497500D03*
X-192500Y490000D03*
X-187500Y497500D03*
X-202500Y505000D03*
X-192500D03*
X-197500Y512500D03*
X-187500D03*
G54D16*
X0Y0D03*
G54D17*
G01X-335860Y66290D02*
Y70000D01*
G01D02*
Y73710D01*
G01X-339570Y70000D02*
X-335860D01*
G01D02*
X-332150D01*
G01X-325860Y-111020D02*
Y-107310D01*
G01D02*
Y-103600D01*
G01X-329570Y-107310D02*
X-325860D01*
G01D02*
X-322150D01*
G01X-255860Y224840D02*
Y228550D01*
G01D02*
Y232260D01*
G01X-259570Y228550D02*
X-255860D01*
G01D02*
X-252150D01*
G01X-228550Y-259570D02*
Y-255860D01*
G01D02*
Y-252150D01*
G01X-232260Y-255860D02*
X-228550D01*
G01D02*
X-224840D01*
G01X-107310Y322150D02*
Y325860D01*
G01D02*
Y329570D01*
G01X-111020Y325860D02*
X-107310D01*
G01D02*
X-103600D01*
G01X-70000Y-339570D02*
Y-335860D01*
G01D02*
Y-332150D01*
G01X-73710Y-335860D02*
X-70000D01*
G01D02*
X-66290D01*
G01X70000Y332150D02*
Y335860D01*
G01D02*
Y339570D01*
G01X66290Y335860D02*
X70000D01*
G01D02*
X73710D01*
G01X107310Y-329570D02*
Y-325860D01*
G01D02*
Y-322150D01*
G01X103600Y-325860D02*
X107310D01*
G01D02*
X111020D01*
G01X228550Y252150D02*
Y255860D01*
G01D02*
Y259570D01*
G01X224840Y255860D02*
X228550D01*
G01D02*
X232260D01*
G01X255860Y-232260D02*
Y-228550D01*
G01D02*
Y-224840D01*
G01X252150Y-228550D02*
X255860D01*
G01D02*
X259570D01*
G01X325860Y103600D02*
Y107310D01*
G01D02*
Y111020D01*
G01X322150Y107310D02*
X325860D01*
G01D02*
X329570D01*
G01X335860Y-73710D02*
Y-70000D01*
G01D02*
Y-66290D01*
G01X332150Y-70000D02*
X335860D01*
G01D02*
X339570D01*
G54D18*
G01X-426500Y20500D02*
Y-198000D01*
X-423000Y-201500D01*
X-384360D01*
X-379030Y-196170D01*
G01X-378540Y-193000D02*
X-380450Y-194100D01*
X-382050Y-192500D01*
X-417000D01*
X-420000Y-189500D01*
Y-170000D01*
X-422940Y-167060D01*
Y21440D01*
X-424500Y23000D01*
G01X-426500Y20500D02*
X-434740Y28740D01*
Y74760D01*
X-433000Y76500D01*
Y234500D01*
G01X-378060Y-189840D02*
X-414160D01*
X-417500Y-186500D01*
Y20500D01*
X-422500Y25500D01*
G01X-354560Y231160D02*
Y219940D01*
X-356500Y218000D01*
X-418500D01*
X-422000Y214500D01*
Y64000D01*
X-426000Y60000D01*
Y29000D01*
X-422500Y25500D01*
G01X-377580Y-186670D02*
X-388330D01*
X-396140Y-178860D01*
X-412140D01*
X-414500Y-176500D01*
Y22000D01*
X-420500Y28000D01*
G01X-424500Y23000D02*
X-431500Y30000D01*
Y59000D01*
X-426500Y64000D01*
Y217500D01*
X-421500Y222500D01*
X-359500D01*
X-357540Y224460D01*
Y230000D01*
G01X-351580Y232330D02*
Y218920D01*
X-355500Y215000D01*
X-414000D01*
X-417500Y211500D01*
Y64000D01*
X-423000Y58500D01*
Y30500D01*
X-420500Y28000D01*
G01X-433000Y234500D02*
Y373000D01*
X-426470Y379530D01*
X-200530D01*
G01X-433000Y234500D02*
X-425500Y227000D01*
X-363920D01*
X-362660Y228260D01*
X-360530Y228830D01*
G01X-354560Y231160D02*
X-357400Y234000D01*
X-422000D01*
X-426500Y238500D01*
Y368500D01*
X-421000Y374000D01*
X-191500D01*
X-189340Y376160D01*
Y378560D01*
G01X-192500Y379040D02*
X-193070Y376910D01*
X-423590D01*
X-430000Y370500D01*
Y236000D01*
X-425920Y231920D01*
X-360870D01*
X-357540Y230000D01*
G01X-351580Y232330D02*
X-357250Y238000D01*
X-419000D01*
X-423000Y242000D01*
Y365500D01*
X-419500Y369000D01*
X-189000D01*
X-186170Y371830D01*
Y378080D01*
G01X-379100Y-165090D02*
X-382190Y-162000D01*
X-407000D01*
X-412000Y-157000D01*
Y10000D01*
X-408800Y13200D01*
Y20800D01*
X-415000Y27000D01*
Y44000D01*
X-411000Y48000D01*
G01X-340090Y243910D02*
X-344700Y239300D01*
Y218300D01*
X-351000Y212000D01*
X-410500D01*
X-414000Y208500D01*
Y60000D01*
X-416500Y57500D01*
Y53500D01*
X-411000Y48000D01*
G01X-412500Y420000D02*
X-343000D01*
X-337000Y414000D01*
Y384500D01*
G01X-352500Y505000D02*
X-355230Y507730D01*
X-405270D01*
X-412500Y500500D01*
Y476500D01*
G01X-334100Y243910D02*
X-340090D01*
G01D02*
X-343900D01*
X-346500Y246510D01*
Y273370D01*
X-345750Y274120D01*
Y275960D01*
X-346500Y276710D01*
Y352500D01*
X-337000Y362000D01*
G01D02*
X-333000Y366000D01*
X-188000D01*
X-183000Y371000D01*
Y377500D01*
X-180900Y379600D01*
X-164590D01*
G01X-244410Y-334100D02*
Y-338580D01*
X-236990Y-346000D01*
X-217000D01*
X-214500Y-348500D01*
Y-408000D01*
X-208500Y-414000D01*
X-51000D01*
X-48000Y-411000D01*
G01X-228830Y-360530D02*
X-231920Y-363620D01*
Y-451580D01*
X-224000Y-459500D01*
X-21000D01*
X-17500Y-456000D01*
X-17000D01*
G01X-23500Y-424500D02*
Y-452000D01*
X-25740Y-454240D01*
X-224260D01*
X-229500Y-449000D01*
Y-378000D01*
X-225500Y-374000D01*
Y-359500D01*
X-227500Y-357500D01*
X-229960D01*
X-230000Y-357540D01*
G01X-231160Y-354560D02*
X-231100Y-354500D01*
X-228000D01*
X-222500Y-360000D01*
Y-375000D01*
X-226500Y-379000D01*
Y-445500D01*
X-220500Y-451500D01*
X-30000D01*
X-26000Y-447500D01*
Y-422500D01*
G01X-232330Y-351580D02*
X-228290Y-350500D01*
X-224500D01*
X-219000Y-356000D01*
Y-375500D01*
X-222000Y-378500D01*
Y-443000D01*
X-216500Y-448500D01*
X-32500D01*
X-28500Y-444500D01*
Y-420500D01*
G01X-195670Y379530D02*
X-200530D01*
G01D02*
X-202500Y381500D01*
Y490000D01*
G01X-192500D02*
Y444000D01*
X-195940Y440560D01*
Y435440D01*
X-191540Y431040D01*
Y412460D01*
X-197000Y407000D01*
Y387000D01*
X-194500Y384500D01*
X-191500D01*
X-189000Y382000D01*
Y378900D01*
X-189340Y378560D01*
G01X-187500Y497500D02*
Y430500D01*
X-188500Y429500D01*
Y411800D01*
X-193500Y406800D01*
Y389000D01*
X-191500Y387000D01*
X-188000D01*
X-185600Y384600D01*
Y380210D01*
X-186170Y378080D01*
G01X-192500Y379040D02*
X-194490Y382500D01*
X-198000D01*
X-200000Y384500D01*
Y413500D01*
X-197500Y416000D01*
Y497500D01*
G01X-202500Y490000D02*
Y498500D01*
X-206500Y502500D01*
Y507000D01*
X-202500Y511000D01*
Y516000D01*
X-201000Y517500D01*
X-121000D01*
X-115500Y512000D01*
Y445000D01*
X-112000Y441500D01*
X18500D01*
X21000Y439000D01*
Y432500D01*
X22000Y431500D01*
G01X26000Y422500D02*
Y416000D01*
X23500Y413500D01*
X-113500D01*
X-116000Y416000D01*
Y432500D01*
X-124500Y441000D01*
Y498000D01*
X-128500Y502000D01*
X-188460D01*
X-192500Y497960D01*
Y490000D01*
G01X28500Y420500D02*
Y411000D01*
X26000Y408500D01*
X-122000D01*
X-124000Y410500D01*
Y437000D01*
X-127500Y440500D01*
Y494500D01*
X-130500Y497500D01*
X-187500D01*
G01X-197500D02*
Y507000D01*
X-195500Y509000D01*
X-191000D01*
X-190500Y508500D01*
X-124500D01*
X-119500Y503500D01*
Y440500D01*
X-109000Y430000D01*
Y417500D01*
X-106500Y415000D01*
X21000D01*
X23500Y417500D01*
Y424500D01*
G01X-164590Y379600D02*
X-162560Y381630D01*
Y403940D01*
X-159450Y407050D01*
X44050D01*
X48000Y411000D01*
G01X-48000Y-411000D02*
X-45800Y-413200D01*
X157300D01*
X161500Y-409000D01*
Y-388500D01*
X165090Y-384910D01*
Y-379600D01*
G01X-21000Y-426500D02*
Y-452000D01*
X-17000Y-456000D01*
G01D02*
X189500D01*
X192500Y-453000D01*
Y-382700D01*
X195670Y-379530D01*
G01X192500Y-379040D02*
X190640Y-380900D01*
Y-450860D01*
X188000Y-453500D01*
X-15500D01*
X-18200Y-450800D01*
Y-425300D01*
X-20560Y-422940D01*
X-21940D01*
X-23500Y-424500D01*
G01X189340Y-378560D02*
Y-390160D01*
X178920Y-400580D01*
Y-401710D01*
X178860Y-401770D01*
Y-403610D01*
X178920Y-403670D01*
Y-448580D01*
X176000Y-451500D01*
X-9500D01*
X-11500Y-449500D01*
Y-421000D01*
X-14700Y-417800D01*
X-21300D01*
X-26000Y-422500D01*
G01X-28500Y-420500D02*
X-23000Y-415000D01*
X-13000D01*
X-8500Y-419500D01*
Y-445500D01*
X-5500Y-448500D01*
X171000D01*
X174000Y-445500D01*
Y-421500D01*
X176500Y-419000D01*
Y-399500D01*
X186170Y-389830D01*
Y-378080D01*
G01X21000Y426500D02*
Y430500D01*
X22000Y431500D01*
G01D02*
X24740Y434240D01*
X228260D01*
X231830Y430670D01*
Y372040D01*
X230020Y370230D01*
Y368390D01*
X231830Y366580D01*
Y358030D01*
G01X26000Y422500D02*
Y425000D01*
X27200Y426200D01*
X216300D01*
X220000Y422500D01*
Y354510D01*
X222450Y352060D01*
X234160D01*
G01X235330Y349080D02*
X230410D01*
X229190Y350300D01*
X217700D01*
X217000Y351000D01*
Y421000D01*
X214500Y423500D01*
X29300D01*
X28500Y422700D01*
Y420500D01*
G01X233000Y355040D02*
X230870Y354470D01*
X228500Y356840D01*
Y428500D01*
X224500Y432500D01*
X27500D01*
X23500Y428500D01*
Y424500D01*
G01X246910Y331600D02*
X248010Y333510D01*
Y335490D01*
X236620Y346880D01*
X226610D01*
X224990Y348500D01*
X216500D01*
X215000Y350000D01*
Y414000D01*
X212500Y416500D01*
X50000D01*
X48000Y414500D01*
Y411000D01*
G01X165090Y-379600D02*
X167220Y-380170D01*
X181830D01*
X183970Y-378030D01*
Y-377160D01*
X185000Y-376130D01*
Y-365500D01*
X188000Y-362500D01*
X335000D01*
X342500Y-355000D01*
Y-278870D01*
X344500Y-276870D01*
Y-250000D01*
G01X195670Y-379530D02*
X199190Y-377500D01*
X364000D01*
X367750Y-373750D01*
Y-245250D01*
X365000Y-242500D01*
X361000D01*
X359030Y-240530D01*
Y-231830D01*
G01X189340Y-378560D02*
Y-371660D01*
X192000Y-369000D01*
X201000D01*
X203500Y-371500D01*
X356500D01*
X360000Y-368000D01*
Y-275500D01*
X363000Y-272500D01*
Y-250000D01*
X360500Y-247500D01*
X355500D01*
X353060Y-245060D01*
Y-234160D01*
G01X186170Y-378080D02*
X186740Y-375950D01*
Y-371760D01*
X191500Y-367000D01*
X202500D01*
X203500Y-368000D01*
X354000D01*
X357000Y-365000D01*
Y-264500D01*
X352000Y-259500D01*
Y-252000D01*
X350080Y-250080D01*
Y-235330D01*
G01X192500Y-379040D02*
X197040Y-374500D01*
X359000D01*
X363000Y-370500D01*
Y-277000D01*
X365500Y-274500D01*
Y-247500D01*
X363500Y-245500D01*
X359000D01*
X356040Y-242540D01*
Y-233000D01*
G01X378560Y189840D02*
X375800Y192600D01*
Y203800D01*
X377000Y205000D01*
Y353500D01*
X374500Y356000D01*
X270000D01*
X268000Y354000D01*
Y350500D01*
X266000Y348500D01*
X257000D01*
X253440Y352060D01*
X234160D01*
G01X378080Y186670D02*
X373600Y191150D01*
Y198170D01*
X373500Y198270D01*
Y340000D01*
X371000Y342500D01*
X254000D01*
X247420Y349080D01*
X235330D01*
G01X233000Y355040D02*
X240460Y362500D01*
X375500D01*
X379500Y358500D01*
Y202500D01*
X377100Y200100D01*
Y194940D01*
X379040Y193000D01*
G01X231830Y358030D02*
X241800Y368000D01*
X376000D01*
X382500Y361500D01*
Y200700D01*
X380100Y198300D01*
X379530Y196170D01*
G01X379600Y165090D02*
X383000Y168490D01*
Y172500D01*
X369000Y186500D01*
Y326500D01*
X363900Y331600D01*
X246910D01*
G01X332100Y-247410D02*
X334690Y-250000D01*
X344500D01*
G01D02*
X347100Y-247400D01*
Y-242330D01*
X347000Y-242230D01*
Y-234000D01*
X349050Y-231950D01*
Y-221000D01*
X349000Y-220950D01*
Y-217000D01*
X356000Y-210000D01*
X411500D01*
X415000Y-206500D01*
Y-46500D01*
X411500Y-43000D01*
G01X359030Y-231830D02*
X369860Y-221000D01*
X430000D01*
X435000Y-216000D01*
Y-19000D01*
X432000Y-16000D01*
X431500D01*
G01X353060Y-234160D02*
Y-223440D01*
X362000Y-214500D01*
X422500D01*
X425500Y-211500D01*
Y-23500D01*
X423000Y-21000D01*
G01X350080Y-235330D02*
Y-232760D01*
X351000Y-231840D01*
Y-221000D01*
X360000Y-212000D01*
X415500D01*
X417500Y-210000D01*
Y-27000D01*
X421000Y-23500D01*
G01X356040Y-233000D02*
X355400Y-230600D01*
X368000Y-218000D01*
X428500D01*
X432500Y-214000D01*
Y-21000D01*
X430000Y-18500D01*
X425000D01*
G01X411500Y-43000D02*
X415000Y-39500D01*
Y-6500D01*
X420500Y-1000D01*
Y152500D01*
X413500Y159500D01*
X388500D01*
X382910Y165090D01*
X379600D01*
G01X379530Y196170D02*
X404330D01*
X407500Y193000D01*
X432500D01*
X435000Y190500D01*
Y-12500D01*
X431500Y-16000D01*
G01X378560Y189840D02*
X400660D01*
X402500Y188000D01*
X425500D01*
X429000Y184500D01*
Y-7000D01*
X421440Y-14560D01*
Y-19440D01*
X423000Y-21000D01*
G01X421000Y-23500D02*
X417000Y-19500D01*
Y-10000D01*
X425500Y-1500D01*
Y171000D01*
X419500Y177000D01*
X399000D01*
X396500Y179500D01*
Y184500D01*
X394330Y186670D01*
X378080D01*
G01X379040Y193000D02*
X402500D01*
X405000Y190500D01*
X429500D01*
X432500Y187500D01*
Y-10000D01*
X428700Y-13800D01*
X425740D01*
X423440Y-16100D01*
Y-16940D01*
X425000Y-18500D01*
G01X431500Y-16000D02*
X427000D01*
G54D19*
G01X-460000Y-480000D02*
G03I-15000J5000D01*
G01X-465000D02*
G03I-10000J5000D01*
G01X-495000Y-475000D02*
X-455000D01*
G01X-485000Y500000D02*
Y460000D01*
G01X-470000Y475000D02*
G03I-15000J5000D01*
G01X-475000D02*
G03I-10000J5000D01*
G01X-505000Y480000D02*
X-465000D01*
G01X-455000Y455000D02*
Y567500D01*
X-82500D01*
Y455000D01*
X455000D01*
Y-565000D01*
X-455000D01*
Y455000D01*
G01X-475000Y-455000D02*
Y-495000D01*
G01X275000Y0D02*
G03I-275000J0D01*
G01X0Y-9000D02*
Y9000D01*
G01Y-9000D02*
Y9000D01*
G01X-9000Y0D02*
X9000D01*
G01X-9000D02*
X9000D01*
G01X480000Y-450000D02*
Y-490000D01*
G01X495000Y-475000D02*
G03I-15000J5000D01*
G01X460000Y-470000D02*
X500000D01*
G01X490000Y-475000D02*
G03I-10000J5000D01*
G01Y455000D02*
G03I-15000J5000D01*
G01X475000Y480000D02*
Y440000D01*
G01X485000Y455000D02*
G03I-10000J5000D01*
G01X455000Y460000D02*
X495000D01*
M02*
