G04 ================== begin FILE IDENTIFICATION RECORD ==================*
G04 Layout Name:  LED_12inArena, v5 7-42019 V4.brd*
G04 Film Name:    silk_screen_top*
G04 File Format:  Gerber RS274X*
G04 File Origin:  Cadence Allegro 17.2-P019*
G04 Origin Date:  Thu Mar 12 23:19:03 2020*
G04 *
G04 Layer:  CONSTRAINT REGION/ALL*
G04 Layer:  CONSTRAINT REGION/OUTER_LAYERS*
G04 Layer:  CONSTRAINT REGION/INNER_SIGNAL_LAYERS*
G04 Layer:  CONSTRAINT REGION/INNER_PLANE_LAYERS*
G04 Layer:  CONSTRAINT REGION/BOTTOM*
G04 Layer:  CONSTRAINT REGION/LAYER 2*
G04 Layer:  CONSTRAINT REGION/GND2*
G04 Layer:  CONSTRAINT REGION/LAYER 1*
G04 Layer:  CONSTRAINT REGION/PWR*
G04 Layer:  CONSTRAINT REGION/TOP*
G04 Layer:  VIA KEEPOUT/ALL*
G04 Layer:  VIA KEEPOUT/BOTTOM*
G04 Layer:  VIA KEEPOUT/LAYER 2*
G04 Layer:  VIA KEEPOUT/GND2*
G04 Layer:  VIA KEEPOUT/LAYER 1*
G04 Layer:  VIA KEEPOUT/PWR*
G04 Layer:  VIA KEEPOUT/TOP*
G04 Layer:  USER PART NUMBER/SILKSCREEN_TOP*
G04 Layer:  TOLERANCE/SILKSCREEN_TOP*
G04 Layer:  ROUTE KEEPOUT/ALL*
G04 Layer:  ROUTE KEEPOUT/BOTTOM*
G04 Layer:  ROUTE KEEPOUT/LAYER 2*
G04 Layer:  ROUTE KEEPOUT/GND2*
G04 Layer:  ROUTE KEEPOUT/LAYER 1*
G04 Layer:  ROUTE KEEPOUT/PWR*
G04 Layer:  ROUTE KEEPOUT/TOP*
G04 Layer:  ROUTE KEEPIN/ALL*
G04 Layer:  REF DES/SILKSCREEN_TOP*
G04 Layer:  PACKAGE KEEPOUT/ALL*
G04 Layer:  PACKAGE KEEPOUT/TOP*
G04 Layer:  PACKAGE KEEPOUT/BOTTOM*
G04 Layer:  PACKAGE KEEPIN/ALL*
G04 Layer:  PACKAGE GEOMETRY/SILKSCREEN_TOP*
G04 Layer:  DEVICE TYPE/SILKSCREEN_TOP*
G04 Layer:  COMPONENT VALUE/SILKSCREEN_TOP*
G04 Layer:  BOARD GEOMETRY/OUTLINE*
G04 Layer:  BOARD GEOMETRY/SILKSCREEN_TOP*
G04 Layer:  BOARD GEOMETRY/DESIGN_OUTLINE*
G04 Layer:  BOARD GEOMETRY/CUTOUT*
G04 *
G04 Offset:    (0.0 0.0)*
G04 Mirror:    No*
G04 Mode:      Positive*
G04 Rotation:  0*
G04 FullContactRelief:  No*
G04 UndefLineWidth:     0.1*
G04 ================== end FILE IDENTIFICATION RECORD ====================*
%FSLAX35Y35*MOIN*%
%IR0*IPPOS*OFA0.00000B0.00000*MIA0B0*SFA1.00000B1.00000*%
%ADD10C,.007*%
%ADD11C,.01*%
%ADD12C,.0001*%
%ADD13C,.025*%
G75*
%LPD*%
G75*
G54D10*
G01X-439770Y-422500D02*
Y-419000D01*
X-438250Y-421920D01*
X-436730Y-419000D01*
Y-422500D01*
G01X-435860Y-419580D02*
X-435510Y-419230D01*
X-435100Y-419060D01*
X-434630Y-419000D01*
X-434050Y-419120D01*
X-433640Y-419410D01*
X-433520Y-419760D01*
X-433580Y-420110D01*
X-433820Y-420400D01*
X-434980Y-420980D01*
X-435510Y-421390D01*
X-435860Y-421980D01*
X-435980Y-422500D01*
X-433520D01*
G01X-439770Y535000D02*
Y538500D01*
X-438250Y535580D01*
X-436730Y538500D01*
Y535000D01*
G01X-434870D02*
X-434750Y535760D01*
X-434570Y536400D01*
X-434340Y536980D01*
X-434050Y537620D01*
X-433580Y538500D01*
X-435920D01*
G01X-402270Y-375000D02*
Y-371500D01*
X-400750Y-374420D01*
X-399230Y-371500D01*
Y-375000D01*
G01X-396550D02*
Y-371500D01*
X-398710Y-374010D01*
X-395790D01*
G01X-402270Y425000D02*
Y428500D01*
X-400750Y425580D01*
X-399230Y428500D01*
Y425000D01*
G01X-398360Y426460D02*
X-397950Y426870D01*
X-397600Y427100D01*
X-397130Y427220D01*
X-396720Y427100D01*
X-396430Y426870D01*
X-396200Y426520D01*
X-396140Y426110D01*
X-396200Y425760D01*
X-396430Y425410D01*
X-396780Y425120D01*
X-397190Y425000D01*
X-397660Y425120D01*
X-398070Y425470D01*
X-398300Y425990D01*
X-398360Y426570D01*
X-398240Y427330D01*
X-398070Y427740D01*
X-397780Y428150D01*
X-397370Y428440D01*
X-396960Y428500D01*
X-396550Y428380D01*
X-396260Y428090D01*
G01X-331600Y-92660D02*
X-331760Y-93080D01*
X-331790Y-93500D01*
X-331680Y-93910D01*
X-331350Y-94260D01*
X-330970Y-94450D01*
X-330490Y-94570D01*
X-330030Y-94440D01*
X-328010Y-93280D01*
G01X-329880Y-97050D02*
X-326840Y-95300D01*
X-327800Y-95040D01*
G01X-330230Y-96440D02*
X-329530Y-97650D01*
G01X-325090Y-98330D02*
X-325430Y-97980D01*
X-325860Y-97820D01*
X-326280Y-97800D01*
X-326770Y-97880D01*
X-327250Y-98090D01*
X-327680Y-98400D01*
X-327990Y-98790D01*
X-328180Y-99160D01*
X-328260Y-99610D01*
X-328130Y-100080D01*
X-327790Y-100420D01*
X-327360Y-100580D01*
X-326940Y-100610D01*
X-326450Y-100520D01*
X-325970Y-100310D01*
X-325540Y-100000D01*
X-325230Y-99610D01*
X-325040Y-99240D01*
X-324960Y-98790D01*
X-325090Y-98330D01*
G01X-341800Y84420D02*
X-342150Y84120D01*
X-342380Y83780D01*
X-342500Y83370D01*
X-342380Y82900D01*
X-342150Y82550D01*
X-341800Y82200D01*
X-341330Y82080D01*
X-339000D01*
G01X-341980Y81030D02*
X-342270Y80680D01*
X-342440Y80280D01*
X-342500Y79750D01*
X-342380Y79220D01*
X-342150Y78820D01*
X-341740Y78520D01*
X-341280Y78470D01*
X-340810Y78580D01*
X-340520Y78880D01*
X-340280Y79280D01*
X-340230Y79690D01*
X-340280Y80100D01*
X-340520Y80620D01*
X-339000Y80450D01*
Y78880D01*
G01X-321330Y-102480D02*
X-316700Y-101160D01*
G01X-316120Y-102170D02*
X-320750Y-103490D01*
G01X-320100Y-101100D02*
X-318350Y-104130D01*
G01X-317340Y-103550D02*
X-319090Y-100520D01*
G01X-317990Y-105940D02*
X-314950Y-104190D01*
X-315910Y-103930D01*
G01X-318340Y-105330D02*
X-317640Y-106540D01*
G01X-329530Y71920D02*
X-324860Y70750D01*
G01Y69580D02*
X-329530Y70750D01*
G01X-327780Y72500D02*
Y69000D01*
G01X-326610D02*
Y72500D01*
G01X-328360Y67250D02*
X-324860D01*
X-325560Y67950D01*
G01X-328360D02*
Y66550D01*
G01X-241640Y-252190D02*
X-241570Y-252630D01*
X-241380Y-253010D01*
X-241090Y-253320D01*
X-240620Y-253450D01*
X-240200Y-253420D01*
X-239730Y-253290D01*
X-239390Y-252950D01*
X-238220Y-250930D01*
G01X-237950Y-255120D02*
X-236200Y-252090D01*
X-237160Y-252350D01*
G01X-238560Y-254770D02*
X-237350Y-255470D01*
G01X-249410Y227050D02*
X-245950Y223700D01*
G01X-246540Y222690D02*
X-250000Y226040D01*
G01X-247600Y226680D02*
X-249350Y223650D01*
G01X-248340Y223060D02*
X-246590Y226100D01*
G01X-250730Y222420D02*
X-247700Y220670D01*
X-247960Y221630D01*
G01X-250380Y223030D02*
X-251080Y221820D01*
G01X-249690Y244140D02*
X-250130Y244070D01*
X-250510Y243880D01*
X-250820Y243590D01*
X-250950Y243120D01*
X-250920Y242700D01*
X-250790Y242230D01*
X-250450Y241890D01*
X-248430Y240720D01*
G01X-252620Y240450D02*
X-249590Y238700D01*
X-249850Y239660D01*
G01X-252270Y241060D02*
X-252970Y239850D01*
G01X-254320Y237530D02*
X-253720Y237050D01*
X-253250Y236570D01*
X-252860Y236080D01*
X-252450Y235510D01*
X-251930Y234660D01*
X-250760Y236680D01*
G01X-227050Y-249410D02*
X-223700Y-245950D01*
G01X-222690Y-246540D02*
X-226040Y-250000D01*
G01X-226680Y-247600D02*
X-223650Y-249350D01*
G01X-223060Y-248340D02*
X-226100Y-246590D01*
G01X-222420Y-250730D02*
X-220670Y-247700D01*
X-221630Y-247960D01*
G01X-223030Y-250380D02*
X-221820Y-251080D01*
G01X-102480Y321330D02*
X-101160Y316700D01*
G01X-102170Y316120D02*
X-103490Y320750D01*
G01X-101100Y320100D02*
X-104130Y318350D01*
G01X-103550Y317340D02*
X-100520Y319090D01*
G01X-105940Y317990D02*
X-104190Y314950D01*
X-103930Y315910D01*
G01X-105330Y318340D02*
X-106540Y317640D01*
G01X-114840Y310900D02*
X-114420Y310740D01*
X-114000Y310710D01*
X-113590Y310820D01*
X-113240Y311150D01*
X-113050Y311530D01*
X-112930Y312010D01*
X-113060Y312470D01*
X-114220Y314490D01*
G01X-112140Y313330D02*
X-111990Y313890D01*
X-111810Y314270D01*
X-111460Y314600D01*
X-111050Y314710D01*
X-110680Y314650D01*
X-110300Y314460D01*
X-110050Y314140D01*
X-109920Y313810D01*
X-109950Y313390D01*
X-110110Y312960D01*
X-110400Y312650D01*
X-110870Y312520D01*
X-111390Y312620D01*
X-111860Y312960D01*
X-112200Y313430D01*
X-112480Y314150D01*
X-112530Y314590D01*
X-112480Y315090D01*
X-112280Y315550D01*
X-111950Y315800D01*
X-111540Y315910D01*
X-111140Y315800D01*
G01X-110000Y560230D02*
X-113500D01*
X-110580Y561750D01*
X-113500Y563270D01*
X-110000D01*
G01Y565250D02*
X-113500D01*
X-112800Y564550D01*
G01X-110000D02*
Y565950D01*
G01X-113500Y568750D02*
X-113380Y568280D01*
X-113090Y567930D01*
X-112740Y567700D01*
X-112270Y567520D01*
X-111750Y567470D01*
X-111220Y567520D01*
X-110760Y567700D01*
X-110410Y567930D01*
X-110120Y568280D01*
X-110000Y568750D01*
X-110120Y569220D01*
X-110410Y569570D01*
X-110760Y569800D01*
X-111220Y569980D01*
X-111750Y570030D01*
X-112270Y569980D01*
X-112740Y569800D01*
X-113090Y569570D01*
X-113380Y569220D01*
X-113500Y568750D01*
G01X-81920Y-339300D02*
X-81620Y-339650D01*
X-81280Y-339880D01*
X-80870Y-340000D01*
X-80400Y-339880D01*
X-80050Y-339650D01*
X-79700Y-339300D01*
X-79580Y-338830D01*
Y-336500D01*
G01X-76550Y-340000D02*
Y-336500D01*
X-78710Y-339010D01*
X-75790D01*
G01X-71920Y-329530D02*
X-70750Y-324860D01*
G01X-69580D02*
X-70750Y-329530D01*
G01X-72500Y-327780D02*
X-69000D01*
G01Y-326610D02*
X-72500D01*
G01X-67250Y-328360D02*
Y-324860D01*
X-67950Y-325560D01*
G01Y-328360D02*
X-66550D01*
G01X0Y36230D02*
X-3500D01*
X-580Y37750D01*
X-3500Y39270D01*
X0D01*
G01X-410Y40270D02*
X-120Y40680D01*
X0Y41140D01*
X-120Y41610D01*
X-470Y42020D01*
X-990Y42310D01*
X-1520Y42430D01*
X-2160D01*
X-2680Y42310D01*
X-3150Y42020D01*
X-3380Y41670D01*
X-3500Y41260D01*
X-3380Y40790D01*
X-3150Y40440D01*
X-2800Y40210D01*
X-2330Y40090D01*
X-1930Y40210D01*
X-1520Y40500D01*
X-1280Y40850D01*
X-1220Y41260D01*
X-1340Y41730D01*
X-1630Y42080D01*
X-2160Y42430D01*
G01X71920Y329530D02*
X70750Y324860D01*
G01X69580D02*
X70750Y329530D01*
G01X72500Y327780D02*
X69000D01*
G01Y326610D02*
X72500D01*
G01X67250Y328360D02*
Y324860D01*
X67950Y325560D01*
G01Y328360D02*
X66550D01*
G01X65580Y345700D02*
X65880Y345350D01*
X66220Y345120D01*
X66630Y345000D01*
X67100Y345120D01*
X67450Y345350D01*
X67800Y345700D01*
X67920Y346170D01*
Y348500D01*
G01X70250Y345000D02*
Y348500D01*
X69550Y347800D01*
G01Y345000D02*
X70950D01*
G01X72760Y345410D02*
X73170Y345120D01*
X73630Y345000D01*
X74100Y345120D01*
X74510Y345470D01*
X74800Y345990D01*
X74920Y346520D01*
Y347160D01*
X74800Y347680D01*
X74510Y348150D01*
X74160Y348380D01*
X73750Y348500D01*
X73280Y348380D01*
X72930Y348150D01*
X72700Y347800D01*
X72580Y347330D01*
X72700Y346930D01*
X72990Y346520D01*
X73340Y346280D01*
X73750Y346220D01*
X74220Y346340D01*
X74570Y346630D01*
X74920Y347160D01*
G01X97660Y-336600D02*
X98080Y-336760D01*
X98500Y-336790D01*
X98910Y-336680D01*
X99260Y-336350D01*
X99450Y-335970D01*
X99570Y-335490D01*
X99440Y-335030D01*
X98280Y-333010D01*
G01X102050Y-334880D02*
X102370Y-334620D01*
X102690Y-334240D01*
X102790Y-333840D01*
X102690Y-333430D01*
X102390Y-333130D01*
X101910Y-333000D01*
X101360Y-333110D01*
X100860Y-333400D01*
X100500Y-333480D01*
X100100Y-333370D01*
X99790Y-333080D01*
X99740Y-332640D01*
X99950Y-332180D01*
X100300Y-331840D01*
X100760Y-331710D01*
X101260Y-331760D01*
X101610Y-332030D01*
X101720Y-332440D01*
X101610Y-332840D01*
X101360Y-333110D01*
X100860Y-333400D01*
X100490Y-333820D01*
X100360Y-334300D01*
X100470Y-334710D01*
X100770Y-335000D01*
X101170Y-335110D01*
X101660Y-335030D01*
X102050Y-334880D01*
G01X102480Y-321330D02*
X101160Y-316700D01*
G01X102170Y-316120D02*
X103490Y-320750D01*
G01X101100Y-320100D02*
X104130Y-318350D01*
G01X103550Y-317340D02*
X100520Y-319090D01*
G01X105940Y-317990D02*
X104190Y-314950D01*
X103930Y-315910D01*
G01X105330Y-318340D02*
X106540Y-317640D01*
G01X227050Y249410D02*
X223700Y245950D01*
G01X222690Y246540D02*
X226040Y250000D01*
G01X226680Y247600D02*
X223650Y249350D01*
G01X223060Y248340D02*
X226100Y246590D01*
G01X222420Y250730D02*
X220670Y247700D01*
X221630Y247960D01*
G01X223030Y250380D02*
X221820Y251080D01*
G01X239140Y247190D02*
X239070Y247630D01*
X238880Y248010D01*
X238590Y248320D01*
X238120Y248450D01*
X237700Y248420D01*
X237230Y248290D01*
X236890Y247950D01*
X235720Y245930D01*
G01X235560Y250070D02*
X235080Y249470D01*
X234600Y249000D01*
X234110Y248610D01*
X233540Y248200D01*
X232690Y247680D01*
X234710Y246510D01*
G01X252190Y-241640D02*
X252630Y-241570D01*
X253010Y-241380D01*
X253320Y-241090D01*
X253450Y-240620D01*
X253420Y-240200D01*
X253290Y-239730D01*
X252950Y-239390D01*
X250930Y-238220D01*
G01X252040Y-237460D02*
X251920Y-236980D01*
X251970Y-236540D01*
X252150Y-236100D01*
X252540Y-235660D01*
X253000Y-235450D01*
X253360Y-235520D01*
X253640Y-235750D01*
X253770Y-236100D01*
X253690Y-237400D01*
X253790Y-238060D01*
X254120Y-238650D01*
X254510Y-239020D01*
X255740Y-236890D01*
G01X249410Y-227050D02*
X245950Y-223700D01*
G01X246540Y-222690D02*
X250000Y-226040D01*
G01X247600Y-226680D02*
X249350Y-223650D01*
G01X248340Y-223060D02*
X246590Y-226100D01*
G01X250730Y-222420D02*
X247700Y-220670D01*
X247960Y-221630D01*
G01X250380Y-223030D02*
X251080Y-221820D01*
G01X329530Y-71920D02*
X324860Y-70750D01*
G01Y-69580D02*
X329530Y-70750D01*
G01X327780Y-72500D02*
Y-69000D01*
G01X326610D02*
Y-72500D01*
G01X328360Y-67250D02*
X324860D01*
X325560Y-67950D01*
G01X328360D02*
Y-66550D01*
G01X321330Y102480D02*
X316700Y101160D01*
G01X316120Y102170D02*
X320750Y103490D01*
G01X320100Y101100D02*
X318350Y104130D01*
G01X317340Y103550D02*
X319090Y100520D01*
G01X317990Y105940D02*
X314950Y104190D01*
X315910Y103930D01*
G01X318340Y105330D02*
X317640Y106540D01*
G01X331600Y95160D02*
X331760Y95580D01*
X331790Y96000D01*
X331680Y96410D01*
X331350Y96760D01*
X330970Y96950D01*
X330490Y97070D01*
X330030Y96940D01*
X328010Y95780D01*
G01X329910Y98080D02*
X330090Y98590D01*
X330060Y99110D01*
X329850Y99600D01*
X329560Y99970D01*
X329080Y100230D01*
X328630Y100310D01*
X328290Y100180D01*
X328000Y99880D01*
X327950Y99380D01*
X328050Y98970D01*
X328320Y98510D01*
G01X328050Y98970D02*
X327730Y99180D01*
X327330Y99290D01*
X326970Y99210D01*
X326720Y98940D01*
X326620Y98540D01*
X326730Y98000D01*
X327040Y97570D01*
X327500Y97230D01*
G01X334300Y-81920D02*
X334650Y-81620D01*
X334880Y-81280D01*
X335000Y-80870D01*
X334880Y-80400D01*
X334650Y-80050D01*
X334300Y-79700D01*
X333830Y-79580D01*
X331500D01*
G01X334590Y-78240D02*
X334880Y-77830D01*
X335000Y-77370D01*
X334880Y-76900D01*
X334530Y-76490D01*
X334010Y-76200D01*
X333480Y-76080D01*
X332840D01*
X332320Y-76200D01*
X331850Y-76490D01*
X331620Y-76840D01*
X331500Y-77250D01*
X331620Y-77720D01*
X331850Y-78070D01*
X332200Y-78300D01*
X332670Y-78420D01*
X333070Y-78300D01*
X333480Y-78010D01*
X333720Y-77660D01*
X333780Y-77250D01*
X333660Y-76780D01*
X333370Y-76430D01*
X332840Y-76080D01*
G01X397730Y-375000D02*
Y-371500D01*
X399250Y-374420D01*
X400770Y-371500D01*
Y-375000D01*
G01X401470Y-374300D02*
X401820Y-374710D01*
X402280Y-374940D01*
X402810Y-375000D01*
X403280Y-374940D01*
X403740Y-374650D01*
X404030Y-374300D01*
X404090Y-373950D01*
X403980Y-373540D01*
X403570Y-373250D01*
X403160Y-373130D01*
X402630D01*
G01X403160D02*
X403510Y-372960D01*
X403800Y-372670D01*
X403920Y-372320D01*
X403800Y-371970D01*
X403510Y-371680D01*
X402980Y-371500D01*
X402460Y-371560D01*
X401930Y-371790D01*
G01X432730Y-422500D02*
Y-419000D01*
X434250Y-421920D01*
X435770Y-419000D01*
Y-422500D01*
G01X437750D02*
Y-419000D01*
X437050Y-419700D01*
G01Y-422500D02*
X438450D01*
G01X425230Y400000D02*
Y403500D01*
X426750Y400580D01*
X428270Y403500D01*
Y400000D01*
G01X428970Y400520D02*
X429320Y400230D01*
X429720Y400060D01*
X430250Y400000D01*
X430780Y400120D01*
X431180Y400350D01*
X431480Y400760D01*
X431530Y401220D01*
X431420Y401690D01*
X431120Y401980D01*
X430720Y402220D01*
X430310Y402270D01*
X429900Y402220D01*
X429380Y401980D01*
X429550Y403500D01*
X431120D01*
G01X432730Y420000D02*
Y423500D01*
X434250Y420580D01*
X435770Y423500D01*
Y420000D01*
G01X437750D02*
X438160Y420060D01*
X438620Y420230D01*
X438920Y420520D01*
X439030Y420930D01*
X438920Y421340D01*
X438570Y421690D01*
X438040Y421870D01*
X437460D01*
X437110Y421980D01*
X436820Y422270D01*
X436700Y422680D01*
X436880Y423090D01*
X437280Y423380D01*
X437750Y423500D01*
X438220Y423380D01*
X438620Y423090D01*
X438800Y422680D01*
X438680Y422270D01*
X438390Y421980D01*
X438040Y421870D01*
X437460D01*
X436930Y421690D01*
X436580Y421340D01*
X436470Y420930D01*
X436580Y420520D01*
X436880Y420230D01*
X437340Y420060D01*
X437750Y420000D01*
G54D11*
G01X-332690Y-105480D02*
X-302690Y-157440D01*
G01X-324030Y-100480D02*
X-332690Y-105480D01*
G01X-330860Y-15000D02*
Y-75000D01*
X-340860D01*
Y-15000D01*
G01Y15000D02*
Y-15000D01*
G01X-330860Y15000D02*
Y-15000D01*
G01Y15000D02*
Y75000D01*
G01X-340860D02*
Y15000D01*
G01X-330860Y65000D02*
X-340860D01*
G01X-330860Y75000D02*
X-340860D01*
G01X-294030Y152440D02*
X-324030Y100480D01*
X-332690Y105480D01*
X-302690Y157440D01*
G01Y-157440D02*
X-287690Y-183420D01*
G01X-294030Y-152440D02*
X-324030Y-100480D01*
G01X-319030Y-109140D02*
X-327690Y-114140D01*
G01X-287690Y183420D02*
X-302690Y157440D01*
G01X-279030Y-178420D02*
X-249030Y-230380D01*
X-257690Y-235380D01*
X-287690Y-183420D01*
G01X-294030Y-152440D02*
X-279030Y-178420D01*
G01Y178420D02*
X-294030Y152440D01*
G01X-279030Y178420D02*
X-249030Y230380D01*
G01X-257690Y235380D02*
X-287690Y183420D01*
G01X-254030Y221720D02*
X-262690Y226720D01*
G01X-249030Y230380D02*
X-257690Y235380D01*
G01X-221720Y-254030D02*
X-226720Y-262690D01*
G01X-178420Y-279030D02*
X-230380Y-249030D01*
G01X-235380Y-257690D02*
X-183420Y-287690D01*
G01X-230380Y-249030D02*
X-235380Y-257690D01*
G01X-178420Y279030D02*
X-230380Y249030D01*
X-235380Y257690D01*
X-183420Y287690D01*
G01Y-287690D02*
X-157440Y-302690D01*
G01Y302690D02*
X-183420Y287690D01*
G01X-152440Y-294030D02*
X-100480Y-324030D01*
X-105480Y-332690D01*
X-157440Y-302690D01*
G01X-178420Y-279030D02*
X-152440Y-294030D01*
G01Y294030D02*
X-178420Y279030D01*
G01X-152440Y294030D02*
X-100480Y324030D01*
G01X-105480Y332690D02*
X-157440Y302690D01*
G01X-109140Y319030D02*
X-114140Y327690D01*
G01X-100480Y324030D02*
X-105480Y332690D01*
G01X-65000Y-330860D02*
Y-340860D01*
G01X-75000D02*
X-15000D01*
G01X-75000Y-330860D02*
Y-340860D01*
G01X-15000Y-330860D02*
X-75000D01*
G01X-15000Y330860D02*
X-75000D01*
Y340860D01*
X-15000D01*
G01Y-340860D02*
X15000D01*
G01X-15000Y-330860D02*
X15000D01*
G01Y340860D02*
X-15000D01*
G01X15000Y330860D02*
X-15000D01*
G01X15000Y-330860D02*
X75000D01*
Y-340860D01*
X15000D01*
G01Y330860D02*
X75000D01*
G01Y340860D02*
X15000D01*
G01X65000Y330860D02*
Y340860D01*
G01X75000Y330860D02*
Y340860D01*
G01X105480Y-332690D02*
X157440Y-302690D01*
G01X100480Y-324030D02*
X105480Y-332690D01*
G01X109140Y-319030D02*
X114140Y-327690D01*
G01X152440Y-294030D02*
X100480Y-324030D01*
G01X152440Y294030D02*
X100480Y324030D01*
X105480Y332690D01*
X157440Y302690D01*
G01Y-302690D02*
X183420Y-287690D01*
G01X152440Y-294030D02*
X178420Y-279030D01*
G01D02*
X230380Y-249030D01*
X235380Y-257690D01*
X183420Y-287690D01*
G01Y287690D02*
X157440Y302690D01*
G01X178420Y279030D02*
X152440Y294030D01*
G01X178420Y279030D02*
X230380Y249030D01*
G01X235380Y257690D02*
X183420Y287690D01*
G01X221720Y254030D02*
X226720Y262690D01*
G01X230380Y249030D02*
X235380Y257690D01*
G01X254030Y-221720D02*
X262690Y-226720D01*
G01X279030Y-178420D02*
X249030Y-230380D01*
G01X257690Y-235380D02*
X287690Y-183420D01*
G01X249030Y-230380D02*
X257690Y-235380D01*
G01X279030Y178420D02*
X249030Y230380D01*
X257690Y235380D01*
X287690Y183420D01*
G01Y-183420D02*
X302690Y-157440D01*
G01X279030Y-178420D02*
X294030Y-152440D01*
G01D02*
X324030Y-100480D01*
X332690Y-105480D01*
X302690Y-157440D01*
G01X294030Y152440D02*
X324030Y100480D01*
G01X302690Y157440D02*
X287690Y183420D01*
G01X294030Y152440D02*
X279030Y178420D01*
G01X319030Y109140D02*
X327690Y114140D01*
G01X332690Y105480D02*
X302690Y157440D01*
G01X324030Y100480D02*
X332690Y105480D01*
G01X330860Y-65000D02*
X340860D01*
G01X330860Y-15000D02*
Y-75000D01*
G01X340860D02*
Y-15000D01*
G01X330860Y-75000D02*
X340860D01*
G01Y-15000D02*
Y15000D01*
G01X330860Y-15000D02*
Y15000D01*
G01D02*
Y75000D01*
X340860D01*
Y15000D01*
G54D12*
G01X-460000Y-480000D02*
G03I-15000J5000D01*
G01X-465000D02*
G03I-10000J5000D01*
G01X-495000Y-475000D02*
X-455000D01*
G01X-485000Y500000D02*
Y460000D01*
G01X-470000Y475000D02*
G03I-15000J5000D01*
G01X-475000D02*
G03I-10000J5000D01*
G01X-505000Y480000D02*
X-465000D01*
G01X-455000Y455000D02*
Y567500D01*
X-82500D01*
Y455000D01*
X455000D01*
Y-565000D01*
X-455000D01*
Y455000D01*
G01X-475000Y-455000D02*
Y-495000D01*
G01X275000Y0D02*
G03I-275000J0D01*
G01X0Y-9000D02*
Y9000D01*
G01Y-9000D02*
Y9000D01*
G01X-9000Y0D02*
X9000D01*
G01X-9000D02*
X9000D01*
G01X480000Y-450000D02*
Y-490000D01*
G01X495000Y-475000D02*
G03I-15000J5000D01*
G01X460000Y-470000D02*
X500000D01*
G01X490000Y-475000D02*
G03I-10000J5000D01*
G01Y455000D02*
G03I-15000J5000D01*
G01X475000Y480000D02*
Y440000D01*
G01X485000Y455000D02*
G03I-10000J5000D01*
G01X455000Y460000D02*
X495000D01*
G54D13*
G01X-308830Y10580D02*
X-285500Y4750D01*
G01Y-1080D02*
X-308830Y4750D01*
G01X-300080Y13500D02*
Y-4000D01*
G01X-294250D02*
Y13500D01*
G01X-300960Y-7790D02*
X-302420Y-9830D01*
X-303000Y-12170D01*
X-302420Y-14500D01*
X-300670Y-16540D01*
X-298040Y-18000D01*
X-295420Y-18580D01*
X-292210D01*
X-289580Y-18000D01*
X-287250Y-16540D01*
X-286080Y-14790D01*
X-285500Y-12750D01*
X-286080Y-10420D01*
X-287250Y-8670D01*
X-289000Y-7500D01*
X-291330Y-6920D01*
X-293370Y-7500D01*
X-295420Y-8960D01*
X-296580Y-10710D01*
X-296880Y-12750D01*
X-296290Y-15080D01*
X-294830Y-16830D01*
X-292210Y-18580D01*
G01X-273590Y-145940D02*
X-250470Y-139330D01*
G01X-247550Y-144380D02*
X-270680Y-150990D01*
G01X-267470Y-139040D02*
X-258720Y-154200D01*
G01X-253670Y-151280D02*
X-262420Y-136130D01*
G01X-256880Y-163240D02*
X-255600Y-164860D01*
X-253680Y-166440D01*
X-251690Y-166980D01*
X-249630Y-166460D01*
X-248150Y-164940D01*
X-247510Y-162540D01*
X-248060Y-159830D01*
X-249520Y-157310D01*
X-249890Y-155500D01*
X-249360Y-153510D01*
X-247880Y-151980D01*
X-245680Y-151720D01*
X-243390Y-152760D01*
X-241720Y-154490D01*
X-241060Y-156800D01*
X-241300Y-159300D01*
X-242630Y-161080D01*
X-244690Y-161590D01*
X-246680Y-161060D01*
X-248060Y-159830D01*
X-249520Y-157310D01*
X-251590Y-155470D01*
X-253980Y-154830D01*
X-256040Y-155350D01*
X-257520Y-156870D01*
X-258050Y-158870D01*
X-257640Y-161320D01*
X-256880Y-163240D01*
G01X-260510Y173390D02*
X-243220Y156670D01*
G01X-246140Y151620D02*
X-263430Y168340D01*
G01X-251470Y171540D02*
X-260220Y156390D01*
G01X-255170Y153470D02*
X-246420Y168630D01*
G01X-267120Y150260D02*
X-251970Y141510D01*
X-253250Y146290D01*
G01X-265370Y153290D02*
X-268870Y147230D01*
G01X-260720Y126350D02*
X-260060Y128660D01*
X-260450Y130910D01*
X-261380Y132790D01*
X-262960Y134720D01*
X-265090Y136280D01*
X-267510Y137340D01*
X-269970Y137750D01*
X-272070Y137620D01*
X-274200Y136830D01*
X-275870Y135100D01*
X-276540Y132790D01*
X-276150Y130550D01*
X-275220Y128660D01*
X-273630Y126740D01*
X-271510Y125170D01*
X-269090Y124110D01*
X-266630Y123700D01*
X-264530Y123840D01*
X-262390Y124620D01*
X-260720Y126350D01*
G01X-142940Y283090D02*
X-136330Y259970D01*
G01X-141380Y257050D02*
X-147990Y280180D01*
G01X-136040Y276970D02*
X-151200Y268220D01*
G01X-148280Y263170D02*
X-133130Y271920D01*
G01X-160240Y266380D02*
X-151490Y251220D01*
X-150210Y256000D01*
G01X-157210Y268130D02*
X-163270Y264630D01*
G01X-175400Y257630D02*
X-166650Y242470D01*
X-165370Y247250D01*
G01X-172370Y259380D02*
X-178430Y255880D01*
G01X-163390Y-264510D02*
X-146670Y-247220D01*
G01X-141620Y-250140D02*
X-158340Y-267430D01*
G01X-161540Y-255470D02*
X-146390Y-264220D01*
G01X-143470Y-259170D02*
X-158630Y-250420D01*
G01X-140770Y-270830D02*
X-138370Y-267840D01*
X-136000Y-265500D01*
X-133540Y-263560D01*
X-130670Y-261510D01*
X-126460Y-258890D01*
X-136560Y-253050D01*
G01X-15580Y-312330D02*
X-9750Y-289000D01*
G01X-3920D02*
X-9750Y-312330D01*
G01X-18500Y-303580D02*
X-1000D01*
G01Y-297750D02*
X-18500D01*
G01X2210Y-299210D02*
X4250Y-297170D01*
X6000Y-296000D01*
X8330Y-295420D01*
X10380Y-296000D01*
X11830Y-297170D01*
X13000Y-298920D01*
X13290Y-300960D01*
X13000Y-302710D01*
X11830Y-304460D01*
X10080Y-305920D01*
X8040Y-306500D01*
X5710Y-305920D01*
X3670Y-304170D01*
X2500Y-301540D01*
X2210Y-298630D01*
X2790Y-294830D01*
X3670Y-292790D01*
X5120Y-290750D01*
X7170Y-289290D01*
X9210Y-289000D01*
X11250Y-289580D01*
X12710Y-291040D01*
G01X21080Y317330D02*
X15250Y294000D01*
G01X9420D02*
X15250Y317330D01*
G01X24000Y308580D02*
X6500D01*
G01Y302750D02*
X24000D01*
G01X-2250Y311500D02*
Y294000D01*
X1250Y297500D01*
G01Y311500D02*
X-5750D01*
G01X-14210Y296920D02*
X-15960Y295170D01*
X-18000Y294290D01*
X-20330Y294000D01*
X-23250Y294580D01*
X-25290Y296040D01*
X-25880Y297790D01*
X-25580Y299540D01*
X-24420Y301000D01*
X-18580Y303920D01*
X-15960Y305960D01*
X-14210Y308880D01*
X-13620Y311500D01*
X-25880D01*
G01X121750Y-550500D02*
Y-533000D01*
X118250Y-536500D01*
G01Y-550500D02*
X125250D01*
G01X133710Y-535920D02*
X135460Y-534170D01*
X137500Y-533290D01*
X139830Y-533000D01*
X142750Y-533580D01*
X144790Y-535040D01*
X145380Y-536790D01*
X145080Y-538540D01*
X143920Y-540000D01*
X138080Y-542920D01*
X135460Y-544960D01*
X133710Y-547880D01*
X133120Y-550500D01*
X145380D01*
G01X154120Y-536790D02*
X155580Y-533000D01*
G01X159380D02*
X157920Y-536790D01*
G01X185920Y-533000D02*
Y-550500D01*
X197580D01*
G01X215080D02*
X203420D01*
Y-533000D01*
X215080D01*
G01X210420Y-541460D02*
X203420D01*
G01X220330Y-550500D02*
Y-533000D01*
X226170D01*
X228500Y-533880D01*
X230250Y-535040D01*
X231710Y-536790D01*
X232880Y-538830D01*
X233170Y-541750D01*
X232880Y-544670D01*
X231710Y-546710D01*
X230250Y-548460D01*
X228500Y-549630D01*
X226170Y-550500D01*
X220330D01*
G01X254460D02*
X261750Y-533000D01*
X269040Y-550500D01*
G01X266420Y-544380D02*
X257080D01*
G01X273420Y-550500D02*
Y-533000D01*
X280710D01*
X283040Y-533880D01*
X284500Y-535040D01*
X285080Y-537380D01*
X284500Y-539710D01*
X282750Y-541170D01*
X280710Y-542040D01*
X273420D01*
G01X280710D02*
X285080Y-550500D01*
G01X302580D02*
X290920D01*
Y-533000D01*
X302580D01*
G01X297920Y-541460D02*
X290920D01*
G01X307540Y-550500D02*
Y-533000D01*
X320960Y-550500D01*
Y-533000D01*
G01X324460Y-550500D02*
X331750Y-533000D01*
X339040Y-550500D01*
G01X336420Y-544380D02*
X327080D01*
G01X359460Y-533000D02*
X366750Y-550500D01*
X374040Y-533000D01*
G01X377830Y-547880D02*
X379580Y-549330D01*
X381620Y-550210D01*
X384250Y-550500D01*
X386880Y-549920D01*
X388920Y-548750D01*
X390380Y-546710D01*
X390670Y-544380D01*
X390080Y-542040D01*
X388620Y-540580D01*
X386580Y-539420D01*
X384540Y-539130D01*
X382500Y-539420D01*
X379880Y-540580D01*
X380750Y-533000D01*
X388620D01*
G01X401750Y-551080D02*
X401170Y-550790D01*
Y-550210D01*
X401750Y-549920D01*
X402330Y-550210D01*
Y-550790D01*
X401750Y-551080D01*
G01X419250Y-533000D02*
X416920Y-533580D01*
X415170Y-535040D01*
X414000Y-536790D01*
X413120Y-539130D01*
X412830Y-541750D01*
X413120Y-544380D01*
X414000Y-546710D01*
X415170Y-548460D01*
X416920Y-549920D01*
X419250Y-550500D01*
X421580Y-549920D01*
X423330Y-548460D01*
X424500Y-546710D01*
X425380Y-544380D01*
X425670Y-541750D01*
X425380Y-539130D01*
X424500Y-536790D01*
X423330Y-535040D01*
X421580Y-533580D01*
X419250Y-533000D01*
G01X146940Y-279090D02*
X140330Y-255970D01*
G01X145380Y-253050D02*
X151990Y-276180D01*
G01X140040Y-272970D02*
X155200Y-264220D01*
G01X152280Y-259170D02*
X137130Y-267920D01*
G01X157370Y-263310D02*
X159610Y-263700D01*
X161820Y-263440D01*
X164240Y-262380D01*
X166220Y-260560D01*
X167400Y-258530D01*
X167650Y-256030D01*
X166730Y-253860D01*
X165060Y-252130D01*
X163070Y-251600D01*
X160720Y-251610D01*
X158800Y-252380D01*
X157180Y-253650D01*
X155490Y-255970D01*
X152460Y-248970D01*
X159280Y-245030D01*
G01X173890Y275010D02*
X157170Y257720D01*
G01X152120Y260640D02*
X168840Y277930D01*
G01X172040Y265970D02*
X156890Y274720D01*
G01X153970Y269670D02*
X169130Y260920D01*
G01X150760Y281620D02*
X142010Y266470D01*
X146790Y267750D01*
G01X153790Y279870D02*
X147730Y283370D01*
G01X271980Y-167250D02*
X252050Y-153790D01*
G01X254040Y-148310D02*
X273970Y-161770D01*
G01X262760Y-167000D02*
X268740Y-150560D01*
G01X263260Y-148560D02*
X257280Y-165010D01*
G01X275680Y-140050D02*
X259240Y-134060D01*
X267330Y-148490D01*
X272320Y-134790D01*
G01X282590Y140940D02*
X259470Y134330D01*
G01X256550Y139380D02*
X279680Y145990D01*
G01X276470Y134040D02*
X267720Y149200D01*
G01X262670Y146280D02*
X271420Y131130D01*
G01X256020Y146150D02*
X253630Y146790D01*
X251850Y148120D01*
X250430Y149990D01*
X249470Y152810D01*
X249720Y155310D01*
X250940Y156690D01*
X252600Y157310D01*
X254450Y157030D01*
X259890Y153440D01*
X262970Y152180D01*
X266370Y152130D01*
X268940Y152930D01*
X262810Y163540D01*
G01X311830Y-20580D02*
X288500Y-14750D01*
G01Y-8920D02*
X311830Y-14750D01*
G01X303080Y-23500D02*
Y-6000D01*
G01X297250D02*
Y-23500D01*
G01X302500Y-3670D02*
X304540Y-1920D01*
X305710Y420D01*
X306000Y3040D01*
X305710Y5380D01*
X304250Y7710D01*
X302500Y9170D01*
X300750Y9460D01*
X298710Y8880D01*
X297250Y6830D01*
X296670Y4790D01*
Y2170D01*
G01Y4790D02*
X295790Y6540D01*
X294330Y8000D01*
X292580Y8580D01*
X290830Y8000D01*
X289380Y6540D01*
X288500Y3920D01*
X288790Y1290D01*
X289960Y-1330D01*
M02*
