G04 ================== begin FILE IDENTIFICATION RECORD ==================*
G04 Layout Name:  LED_12inArena, 6-25-2019 V3.brd*
G04 Film Name:    BOTTOM*
G04 File Format:  Gerber RS274X*
G04 File Origin:  Cadence Allegro 17.2-P019*
G04 Origin Date:  Mon Oct 05 13:45:43 2020*
G04 *
G04 Layer:  VIA KEEPOUT/ALL*
G04 Layer:  VIA KEEPOUT/BOTTOM*
G04 Layer:  VIA KEEPOUT/LAYER 2*
G04 Layer:  VIA KEEPOUT/GND2*
G04 Layer:  VIA KEEPOUT/LAYER 1*
G04 Layer:  VIA KEEPOUT/PWR*
G04 Layer:  VIA KEEPOUT/TOP*
G04 Layer:  VIA CLASS/FILMMASKBOTTOM*
G04 Layer:  VIA CLASS/BOTTOM*
G04 Layer:  ROUTE KEEPOUT/ALL*
G04 Layer:  ROUTE KEEPOUT/BOTTOM*
G04 Layer:  ROUTE KEEPOUT/LAYER 2*
G04 Layer:  ROUTE KEEPOUT/GND2*
G04 Layer:  ROUTE KEEPOUT/LAYER 1*
G04 Layer:  ROUTE KEEPOUT/PWR*
G04 Layer:  ROUTE KEEPOUT/TOP*
G04 Layer:  ROUTE KEEPIN/ALL*
G04 Layer:  PIN/FILMMASKBOTTOM*
G04 Layer:  PIN/BOTTOM*
G04 Layer:  PACKAGE KEEPOUT/ALL*
G04 Layer:  PACKAGE KEEPOUT/TOP*
G04 Layer:  PACKAGE KEEPOUT/BOTTOM*
G04 Layer:  PACKAGE KEEPIN/ALL*
G04 Layer:  ETCH/BOTTOM*
G04 Layer:  BOARD GEOMETRY/OUTLINE*
G04 *
G04 Offset:    (0.0 0.0)*
G04 Mirror:    No*
G04 Mode:      Positive*
G04 Rotation:  0*
G04 FullContactRelief:  No*
G04 UndefLineWidth:     0.1*
G04 ================== end FILE IDENTIFICATION RECORD ====================*
%FSLAX25Y25*MOIN*%
%IR0*IPPOS*OFA0.00000B0.00000*MIA0B0*SFA1.00000B1.00000*%
%ADD10C,.2*%
%ADD17R,.1969X.0787*%
%ADD18R,.0787X.1969*%
%AMMACRO13*
21,1,.06,.06,0.0,0.0,30.*%
%ADD13MACRO13*%
%ADD12C,.06*%
%ADD11C,.024*%
%ADD15C,5.7*%
%AMMACRO16*
21,1,.06,.06,0.0,0.0,60.*%
%ADD16MACRO16*%
%ADD14R,.06X.06*%
%ADD19C,.005*%
%ADD20C,.008*%
%ADD21C,.0001*%
%ADD22C,.015*%
%ADD24C,.2104*%
%ADD25C,.0344*%
%ADD23C,.0704*%
G75*
%LPD*%
G75*
G36*
G01X408270Y-447500D02*
X401730D01*
X401710Y-447320D01*
G03X398290I-1710J-180D01*
G01X398270Y-447500D01*
X391730D01*
X391710Y-447320D01*
G03X388290I-1710J-180D01*
G01X388270Y-447500D01*
X381730D01*
X381710Y-447320D01*
G03X378290I-1710J-180D01*
G01X378270Y-447500D01*
X371730D01*
X371710Y-447320D01*
G03X368290I-1710J-180D01*
G01X368270Y-447500D01*
X361730D01*
X361710Y-447320D01*
G03X358290I-1710J-180D01*
G01X358270Y-447500D01*
X351730D01*
X351710Y-447320D01*
G03X348290I-1710J-180D01*
G01X348270Y-447500D01*
X341730D01*
X341710Y-447320D01*
G03X338290I-1710J-180D01*
G01X338270Y-447500D01*
X331730D01*
X331710Y-447320D01*
G03X328290I-1710J-180D01*
G01X328270Y-447500D01*
X321730D01*
X321710Y-447320D01*
G03X318290I-1710J-180D01*
G01X318270Y-447500D01*
X311730D01*
X311710Y-447320D01*
G03X308290I-1710J-180D01*
G01X308270Y-447500D01*
X301730D01*
X301710Y-447320D01*
G03X298290I-1710J-180D01*
G01X298270Y-447500D01*
X291730D01*
X291710Y-447320D01*
G03X288290I-1710J-180D01*
G01X288270Y-447500D01*
X281730D01*
X281710Y-447320D01*
G03X278290I-1710J-180D01*
G01X278270Y-447500D01*
X271730D01*
X271710Y-447320D01*
G03X268290I-1710J-180D01*
G01X268270Y-447500D01*
X261730D01*
X261710Y-447320D01*
G03X258290I-1710J-180D01*
G01X258270Y-447500D01*
X251730D01*
X251710Y-447320D01*
G03X248290I-1710J-180D01*
G01X248270Y-447500D01*
X241730D01*
X241710Y-447320D01*
G03X238290I-1710J-180D01*
G01X238270Y-447500D01*
X231730D01*
X231710Y-447320D01*
G03X228290I-1710J-180D01*
G01X228270Y-447500D01*
X221730D01*
X221710Y-447320D01*
G03X218290I-1710J-180D01*
G01X218270Y-447500D01*
X211730D01*
X211710Y-447320D01*
G03X208290I-1710J-180D01*
G01X208270Y-447500D01*
X201730D01*
X201710Y-447320D01*
G03X198290I-1710J-180D01*
G01X198270Y-447500D01*
X191730D01*
X191710Y-447320D01*
G03X188290I-1710J-180D01*
G01X188270Y-447500D01*
X181730D01*
X181710Y-447320D01*
G03X178290I-1710J-180D01*
G01X178270Y-447500D01*
X171730D01*
X171710Y-447320D01*
G03X168290I-1710J-180D01*
G01X168270Y-447500D01*
X161730D01*
X161710Y-447320D01*
G03X158290I-1710J-180D01*
G01X158270Y-447500D01*
X151730D01*
X151710Y-447320D01*
G03X148290I-1710J-180D01*
G01X148270Y-447500D01*
X141730D01*
X141710Y-447320D01*
G03X138290I-1710J-180D01*
G01X138270Y-447500D01*
X131730D01*
X131710Y-447320D01*
G03X128290I-1710J-180D01*
G01X128270Y-447500D01*
X121730D01*
X121710Y-447320D01*
G03X118290I-1710J-180D01*
G01X118270Y-447500D01*
X111730D01*
X111710Y-447320D01*
G03X108290I-1710J-180D01*
G01X108270Y-447500D01*
X101730D01*
X101710Y-447320D01*
G03X98290I-1710J-180D01*
G01X98270Y-447500D01*
X91730D01*
X91710Y-447320D01*
G03X88290I-1710J-180D01*
G01X88270Y-447500D01*
X81730D01*
X81710Y-447320D01*
G03X78290I-1710J-180D01*
G01X78270Y-447500D01*
X71730D01*
X71710Y-447320D01*
G03X68290I-1710J-180D01*
G01X68270Y-447500D01*
X61730D01*
X61710Y-447320D01*
G03X58290I-1710J-180D01*
G01X58270Y-447500D01*
X51730D01*
X51710Y-447320D01*
G03X48290I-1710J-180D01*
G01X48270Y-447500D01*
X41730D01*
X41710Y-447320D01*
G03X38290I-1710J-180D01*
G01X38270Y-447500D01*
X31730D01*
X31710Y-447320D01*
G03X28290I-1710J-180D01*
G01X28270Y-447500D01*
X21730D01*
X21710Y-447320D01*
G03X18290I-1710J-180D01*
G01X18270Y-447500D01*
X11730D01*
X11710Y-447320D01*
G03X8290I-1710J-180D01*
G01X8270Y-447500D01*
X1730D01*
X1710Y-447320D01*
G03X-1710I-1710J-180D01*
G01X-1730Y-447500D01*
X-8270D01*
X-8290Y-447320D01*
G03X-11710I-1710J-180D01*
G01X-11730Y-447500D01*
X-18270D01*
X-18290Y-447320D01*
G03X-21710I-1710J-180D01*
G01X-21730Y-447500D01*
X-28270D01*
X-28290Y-447320D01*
G03X-31710I-1710J-180D01*
G01X-31730Y-447500D01*
X-38270D01*
X-38290Y-447320D01*
G03X-41710I-1710J-180D01*
G01X-41730Y-447500D01*
X-48270D01*
X-48290Y-447320D01*
G03X-51710I-1710J-180D01*
G01X-51730Y-447500D01*
X-58270D01*
X-58290Y-447320D01*
G03X-61710I-1710J-180D01*
G01X-61730Y-447500D01*
X-68270D01*
X-68290Y-447320D01*
G03X-71710I-1710J-180D01*
G01X-71730Y-447500D01*
X-78270D01*
X-78290Y-447320D01*
G03X-81710I-1710J-180D01*
G01X-81730Y-447500D01*
X-88270D01*
X-88290Y-447320D01*
G03X-91710I-1710J-180D01*
G01X-91730Y-447500D01*
X-98270D01*
X-98290Y-447320D01*
G03X-101710I-1710J-180D01*
G01X-101730Y-447500D01*
X-108270D01*
X-108290Y-447320D01*
G03X-111710I-1710J-180D01*
G01X-111730Y-447500D01*
X-118270D01*
X-118290Y-447320D01*
G03X-121710I-1710J-180D01*
G01X-121730Y-447500D01*
X-128270D01*
X-128290Y-447320D01*
G03X-131710I-1710J-180D01*
G01X-131730Y-447500D01*
X-138270D01*
X-138290Y-447320D01*
G03X-141710I-1710J-180D01*
G01X-141730Y-447500D01*
X-148270D01*
X-148290Y-447320D01*
G03X-151710I-1710J-180D01*
G01X-151730Y-447500D01*
X-158270D01*
X-158290Y-447320D01*
G03X-161710I-1710J-180D01*
G01X-161730Y-447500D01*
X-168270D01*
X-168290Y-447320D01*
G03X-171710I-1710J-180D01*
G01X-171730Y-447500D01*
X-178270D01*
X-178290Y-447320D01*
G03X-181710I-1710J-180D01*
G01X-181730Y-447500D01*
X-188270D01*
X-188290Y-447320D01*
G03X-191710I-1710J-180D01*
G01X-191730Y-447500D01*
X-198270D01*
X-198290Y-447320D01*
G03X-201710I-1710J-180D01*
G01X-201730Y-447500D01*
X-208270D01*
X-208290Y-447320D01*
G03X-211710I-1710J-180D01*
G01X-211730Y-447500D01*
X-218270D01*
X-218290Y-447320D01*
G03X-221710I-1710J-180D01*
G01X-221730Y-447500D01*
X-228270D01*
X-228290Y-447320D01*
G03X-231710I-1710J-180D01*
G01X-231730Y-447500D01*
X-238270D01*
X-238290Y-447320D01*
G03X-241710I-1710J-180D01*
G01X-241730Y-447500D01*
X-248270D01*
X-248290Y-447320D01*
G03X-251710I-1710J-180D01*
G01X-251730Y-447500D01*
X-258270D01*
X-258290Y-447320D01*
G03X-261710I-1710J-180D01*
G01X-261730Y-447500D01*
X-268270D01*
X-268290Y-447320D01*
G03X-271710I-1710J-180D01*
G01X-271730Y-447500D01*
X-278270D01*
X-278290Y-447320D01*
G03X-281710I-1710J-180D01*
G01X-281730Y-447500D01*
X-288270D01*
X-288290Y-447320D01*
G03X-291710I-1710J-180D01*
G01X-291730Y-447500D01*
X-298270D01*
X-298290Y-447320D01*
G03X-301710I-1710J-180D01*
G01X-301730Y-447500D01*
X-308270D01*
X-308290Y-447320D01*
G03X-311710I-1710J-180D01*
G01X-311730Y-447500D01*
X-318270D01*
X-318290Y-447320D01*
G03X-321710I-1710J-180D01*
G01X-321730Y-447500D01*
X-328270D01*
X-328290Y-447320D01*
G03X-331710I-1710J-180D01*
G01X-331730Y-447500D01*
X-338270D01*
X-338290Y-447320D01*
G03X-341710I-1710J-180D01*
G01X-341730Y-447500D01*
X-345770D01*
X-345790Y-447320D01*
G03X-349210I-1710J-180D01*
G01X-349230Y-447500D01*
X-355770D01*
X-355790Y-447320D01*
G03X-359210I-1710J-180D01*
G01X-359230Y-447500D01*
X-365770D01*
X-365790Y-447320D01*
G03X-369210I-1710J-180D01*
G01X-369230Y-447500D01*
X-375770D01*
X-375790Y-447320D01*
G03X-379210I-1710J-180D01*
G01X-379230Y-447500D01*
X-385770D01*
X-385790Y-447320D01*
G03X-389210I-1710J-180D01*
G01X-389230Y-447500D01*
X-395770D01*
X-395790Y-447320D01*
G03X-399210I-1710J-180D01*
G01X-399230Y-447500D01*
X-405770D01*
X-405790Y-447320D01*
G03X-409210I-1710J-180D01*
G01X-409230Y-447500D01*
X-415770D01*
X-415790Y-447320D01*
G03X-419210I-1710J-180D01*
G01X-419230Y-447500D01*
X-447500D01*
Y447500D01*
X447500D01*
Y-447500D01*
X424230D01*
X424210Y-447320D01*
G03X421400Y-446170I-1713J-177D01*
G01X421370Y-446190D01*
X421250Y-446240D01*
X421130Y-446190D01*
X421100Y-446170D01*
G03X418290Y-447320I-1097J-1327D01*
G01X418270Y-447500D01*
X411730D01*
X411710Y-447320D01*
G03X408290I-1710J-180D01*
G01X408270Y-447500D01*
G37*
%LPC*%
G75*
G36*
G01X-413820Y-306320D02*
X-419090Y-311590D01*
Y-414620D01*
X-407120Y-426590D01*
X-363960D01*
G02Y-428410I1460J-910D01*
G01X-407880D01*
X-407940Y-428350D01*
X-420910Y-415380D01*
Y-310830D01*
X-420850Y-310770D01*
X-414580Y-304500D01*
X-411640D01*
G02Y-306320I1460J-910D01*
G01X-413820D01*
G37*
G36*
G01X-297510Y-123720D02*
X-285910Y-112120D01*
Y-47890D01*
X-295910Y-37890D01*
Y44620D01*
X-300380Y49090D01*
X-332460D01*
X-332500Y48950D01*
G02Y51050I-3360J1050D01*
G01X-332460Y50910D01*
X-300280D01*
X-296510Y54680D01*
Y135280D01*
X-288980Y142810D01*
X-266680D01*
X-256910Y152580D01*
Y206920D01*
X-260310Y210320D01*
X-262460D01*
X-262500Y210180D01*
G02Y212280I-3360J1050D01*
G01X-262460Y212140D01*
X-248150D01*
X-243310Y216980D01*
Y251120D01*
X-251410Y259220D01*
Y322380D01*
X-242880Y330910D01*
X-157380D01*
X-151180Y337110D01*
X-137260D01*
X-136390Y336240D01*
X-136260Y336310D01*
G02X-137750Y334820I1630J-3120D01*
G01X-137680Y334950D01*
X-138020Y335290D01*
X-150420D01*
X-156620Y329090D01*
X-242120D01*
X-249590Y321620D01*
Y259980D01*
X-241490Y251880D01*
Y216220D01*
X-247390Y210320D01*
X-256770D01*
G03X-257050Y209640I4J-399D01*
G01X-255090Y207680D01*
Y151820D01*
X-265920Y140990D01*
X-288220D01*
X-294690Y134520D01*
Y53920D01*
X-298660Y49950D01*
X-294090Y45380D01*
Y-37130D01*
X-284090Y-47130D01*
Y-112880D01*
X-295310Y-124100D01*
X-242990Y-176420D01*
Y-233780D01*
X-246120Y-236910D01*
X-257620D01*
X-272990Y-252280D01*
Y-323420D01*
X-267490Y-328920D01*
Y-341620D01*
X-265220Y-343890D01*
X-226380D01*
X-223810Y-341320D01*
Y-289260D01*
X-221840Y-287290D01*
G03X-222030Y-286620I-281J282D01*
G02X-219350Y-286160I791J3429D01*
G01X-219470Y-286240D01*
X-219200Y-287230D01*
X-221990Y-290020D01*
Y-299420D01*
X-220020Y-301390D01*
X-208920D01*
X-203190Y-307120D01*
Y-364220D01*
X-195340Y-372070D01*
Y-377940D01*
G02X-194550Y-379690I-908J-1463D01*
G01X-194570Y-379790D01*
X-187890Y-386470D01*
Y-404820D01*
X-186120Y-406590D01*
X-185620D01*
G03X-185300Y-405950I-1J400D01*
G02X-183650Y-403200I1361J1054D01*
G01X-183550Y-403220D01*
X-179420Y-399090D01*
X-122890D01*
X-118220Y-394420D01*
Y-346590D01*
X-118360Y-346550D01*
G02X-116260I1050J3360D01*
G01X-116400Y-346590D01*
Y-395180D01*
X-116460Y-395240D01*
X-122130Y-400910D01*
X-178660D01*
X-182260Y-404510D01*
X-182240Y-404610D01*
G02X-182580Y-405950I-1698J-282D01*
G03X-182260Y-406590I321J-240D01*
G01X-117880D01*
X-110910Y-399620D01*
Y-354620D01*
X-104980Y-348690D01*
X-55880D01*
X-51760Y-352810D01*
X-51630Y-352740D01*
G02X-53120Y-354230I1630J-3120D01*
G01X-53050Y-354100D01*
X-56640Y-350510D01*
X-104220D01*
X-109090Y-355380D01*
Y-400380D01*
X-117120Y-408410D01*
X-186880D01*
X-189710Y-405580D01*
Y-387230D01*
X-195860Y-381080D01*
X-195960Y-381100D01*
G02X-197160Y-377940I-293J1696D01*
G01Y-372830D01*
X-205010Y-364980D01*
Y-307880D01*
X-209680Y-303210D01*
X-220780D01*
X-221310Y-302680D01*
G03X-221990Y-302960I-281J-284D01*
G01Y-342080D01*
X-225620Y-345710D01*
X-265980D01*
X-269310Y-342380D01*
Y-329680D01*
X-274810Y-324180D01*
Y-251520D01*
X-258380Y-235090D01*
X-246880D01*
X-244810Y-233020D01*
Y-177180D01*
X-296450Y-125540D01*
X-312460D01*
X-312500Y-125680D01*
G02Y-123580I-3360J1050D01*
G01X-312460Y-123720D01*
X-297510D01*
G37*
G36*
G01X341650Y112960D02*
X338650Y118150D01*
G02X338840Y118850I441J256D01*
G01X344030Y121850D01*
G02X344730Y121660I256J-441D01*
G01X347730Y116470D01*
G02X347540Y115770I-441J-256D01*
G01X342350Y112770D01*
G02X341650Y112960I-256J441D01*
G37*
G36*
G01X-363860Y-343450D02*
X-326630D01*
G03X-326260Y-342900I1J399D01*
G02X-326360Y-341970I1598J642D01*
G01X-326340Y-341870D01*
X-327200Y-341010D01*
X-360980D01*
X-368410Y-333580D01*
Y-190320D01*
X-347080Y-168990D01*
X-347100Y-168890D01*
G02X-345690Y-170300I1700J290D01*
G01X-345790Y-170280D01*
X-366590Y-191080D01*
Y-332820D01*
X-360220Y-339190D01*
X-326440D01*
X-325050Y-340580D01*
X-324950Y-340560D01*
G02X-322990Y-341850I287J-1697D01*
G03X-322320Y-342030I386J101D01*
G01X-321710Y-341420D01*
Y-341160D01*
X-321790Y-341100D01*
G02X-319890Y-341160I995J1401D01*
G01Y-342180D01*
X-320130Y-342420D01*
G03X-319870Y-343100I282J-282D01*
G02X-318480Y-343910I-71J-1719D01*
G01X-316180D01*
X-315910Y-343640D01*
Y-324620D01*
X-310380Y-319090D01*
X-283520D01*
X-270790Y-331820D01*
Y-346120D01*
X-268720Y-348190D01*
X-218380D01*
X-215510Y-345320D01*
Y-316900D01*
X-215730Y-316680D01*
Y-315660D01*
G02X-213830Y-315600I905J1461D01*
G01X-213910Y-315660D01*
Y-315920D01*
X-213690Y-316140D01*
Y-346080D01*
X-217620Y-350010D01*
X-269480D01*
X-272610Y-346880D01*
Y-332580D01*
X-284280Y-320910D01*
X-309620D01*
X-314090Y-325380D01*
Y-344400D01*
X-315420Y-345730D01*
X-318480D01*
G02X-321660Y-344890I-1461J909D01*
G03X-322340Y-344630I-398J-22D01*
G01X-322980Y-345270D01*
X-364620D01*
X-379620Y-330270D01*
Y20170D01*
X-367380Y32410D01*
X-367400Y32510D01*
G02X-364410Y33940I1697J293D01*
G03X-363710Y34200I301J263D01*
G01Y209380D01*
X-355890Y217200D01*
X-305760D01*
G02Y215380I1460J-910D01*
G01X-355130D01*
X-361890Y208620D01*
Y-154420D01*
X-357520Y-158790D01*
X-334720D01*
X-331090Y-162420D01*
Y-176340D01*
X-360190Y-205440D01*
Y-327720D01*
X-351670Y-336240D01*
X-326120D01*
G02Y-338060I1460J-910D01*
G01X-352430D01*
X-362010Y-328480D01*
Y-204680D01*
X-332910Y-175580D01*
Y-163180D01*
X-335480Y-160610D01*
X-358280D01*
X-363710Y-155180D01*
Y31400D01*
G03X-364410Y31660I-399J-3D01*
G02X-365990Y31100I-1293J1138D01*
G01X-366090Y31120D01*
X-377800Y19410D01*
Y-329510D01*
X-363860Y-343450D01*
G37*
G36*
G01X-156780Y336890D02*
X-161480Y341590D01*
X-284620D01*
X-297890Y328320D01*
Y203720D01*
X-308720Y192890D01*
X-345920D01*
X-350690Y188120D01*
Y106780D01*
X-344490Y100580D01*
Y-72980D01*
X-351190Y-79680D01*
Y-150420D01*
X-348820Y-152790D01*
X-332120D01*
X-324090Y-160820D01*
Y-190380D01*
X-353290Y-219580D01*
Y-277120D01*
X-351320Y-279090D01*
X-319620D01*
X-316590Y-282120D01*
Y-331670D01*
X-319120Y-334200D01*
X-319100Y-334300D01*
G02X-320510Y-332890I-1700J-290D01*
G01X-320410Y-332910D01*
X-318410Y-330910D01*
Y-282880D01*
X-320380Y-280910D01*
X-352080D01*
X-355110Y-277880D01*
Y-218820D01*
X-325910Y-189620D01*
Y-161580D01*
X-332880Y-154610D01*
X-349580D01*
X-353010Y-151180D01*
Y-78920D01*
X-346310Y-72220D01*
Y99820D01*
X-352510Y106020D01*
Y188880D01*
X-346680Y194710D01*
X-309480D01*
X-299710Y204480D01*
Y329080D01*
X-285380Y343410D01*
X-160720D01*
X-155490Y338180D01*
X-155390Y338200D01*
G02X-156800Y336790I290J-1700D01*
G01X-156780Y336890D01*
G37*
G36*
G01X285520Y0D02*
G02I-285520J0D01*
G37*
G36*
G01X274050Y-412340D02*
Y-392660D01*
G02X274560Y-392140I515J5D01*
G01X282440D01*
G02X282950Y-392660I-5J-515D01*
G01Y-412340D01*
G02X282440Y-412860I-515J-5D01*
G01X274560D01*
G02X274050Y-412340I5J515D01*
G37*
G36*
G01X352350Y-73000D02*
Y-67000D01*
G02X352860Y-66490I510J0D01*
G01X358860D01*
G02X359370Y-67000I0J-510D01*
G01Y-73000D01*
G02X358860Y-73510I-510J0D01*
G01X352860D01*
G02X352350Y-73000I0J510D01*
G37*
G36*
G01X332350D02*
Y-67000D01*
G02X332860Y-66490I510J0D01*
G01X338860D01*
G02X339370Y-67000I0J-510D01*
G01Y-73000D01*
G02X338860Y-73510I-510J0D01*
G01X332860D01*
G02X332350Y-73000I0J510D01*
G37*
G36*
G01X324320Y102960D02*
X321320Y108150D01*
G02X321510Y108850I441J256D01*
G01X326700Y111850D01*
G02X327400Y111660I256J-441D01*
G01X330400Y106470D01*
G02X330210Y105770I-441J-256D01*
G01X325020Y102770D01*
G02X324320Y102960I-256J441D01*
G37*
G36*
G01X274030Y-243090D02*
X268840Y-240090D01*
G02X268650Y-239390I251J444D01*
G01X271650Y-234200D01*
G02X272350Y-234010I444J-251D01*
G01X277540Y-237010D01*
G02X277730Y-237710I-251J-444D01*
G01X274730Y-242900D01*
G02X274030Y-243090I-444J251D01*
G37*
G36*
G01X256700Y-233090D02*
X251510Y-230090D01*
G02X251320Y-229390I251J444D01*
G01X254320Y-224200D01*
G02X255020Y-224010I444J-251D01*
G01X260210Y-227010D01*
G02X260400Y-227710I-251J-444D01*
G01X257400Y-232900D01*
G02X256700Y-233090I-444J251D01*
G37*
G36*
G01X249640Y-394620D02*
Y-386760D01*
G02X250160Y-386240I515J5D01*
G01X269840D01*
G02X270360Y-386760I5J-515D01*
G01Y-394620D01*
G02X269840Y-395140I-515J-5D01*
G01X250160D01*
G02X249640Y-394620I-5J515D01*
G37*
G36*
G01Y-418240D02*
Y-410380D01*
G02X250160Y-409860I515J5D01*
G01X269840D01*
G02X270360Y-410380I5J-515D01*
G01Y-418240D01*
G02X269840Y-418760I-515J-5D01*
G01X250160D01*
G02X249640Y-418240I-5J515D01*
G37*
G36*
G01X239390Y268650D02*
X234200Y271650D01*
G02X234010Y272350I251J444D01*
G01X237010Y277540D01*
G02X237710Y277730I444J-251D01*
G01X242900Y274730D01*
G02X243090Y274030I-251J-444D01*
G01X240090Y268840D01*
G02X239390Y268650I-444J251D01*
G37*
G36*
G01X229390Y251320D02*
X224200Y254320D01*
G02X224010Y255020I251J444D01*
G01X227010Y260210D01*
G02X227710Y260400I444J-251D01*
G01X232900Y257400D01*
G02X233090Y256700I-251J-444D01*
G01X230090Y251510D01*
G02X229390Y251320I-444J251D01*
G37*
G36*
G01X105770Y-330210D02*
X102770Y-325020D01*
G02X102960Y-324320I441J256D01*
G01X108150Y-321320D01*
G02X108850Y-321510I256J-441D01*
G01X111850Y-326700D01*
G02X111660Y-327400I-441J-256D01*
G01X106470Y-330400D01*
G02X105770Y-330210I-256J441D01*
G37*
G36*
G01X115770Y-347540D02*
X112770Y-342350D01*
G02X112960Y-341650I441J256D01*
G01X118150Y-338650D01*
G02X118850Y-338840I256J-441D01*
G01X121850Y-344030D01*
G02X121660Y-344730I-441J-256D01*
G01X116470Y-347730D01*
G02X115770Y-347540I-256J441D01*
G37*
G36*
G01X66490Y332860D02*
Y338860D01*
G02X67000Y339370I510J0D01*
G01X73000D01*
G02X73510Y338860I0J-510D01*
G01Y332860D01*
G02X73000Y332350I-510J0D01*
G01X67000D01*
G02X66490Y332860I0J510D01*
G37*
G36*
G01Y352860D02*
Y358860D01*
G02X67000Y359370I510J0D01*
G01X73000D01*
G02X73510Y358860I0J-510D01*
G01Y352860D01*
G02X73000Y352350I-510J0D01*
G01X67000D01*
G02X66490Y352860I0J510D01*
G37*
G36*
G01X-73510Y-358860D02*
Y-352860D01*
G02X-73000Y-352350I510J0D01*
G01X-67000D01*
G02X-66490Y-352860I0J-510D01*
G01Y-358860D01*
G02X-67000Y-359370I-510J0D01*
G01X-73000D01*
G02X-73510Y-358860I0J510D01*
G37*
G36*
G01Y-338860D02*
Y-332860D01*
G02X-73000Y-332350I510J0D01*
G01X-67000D01*
G02X-66490Y-332860I0J-510D01*
G01Y-338860D01*
G02X-67000Y-339370I-510J0D01*
G01X-73000D01*
G02X-73510Y-338860I0J510D01*
G37*
G36*
G01X-108850Y321510D02*
X-111850Y326700D01*
G02X-111660Y327400I441J256D01*
G01X-106470Y330400D01*
G02X-105770Y330210I256J-441D01*
G01X-102770Y325020D01*
G02X-102960Y324320I-441J-256D01*
G01X-108150Y321320D01*
G02X-108850Y321510I-256J441D01*
G37*
G36*
G01X-118850Y338840D02*
X-121850Y344030D01*
G02X-121660Y344730I441J256D01*
G01X-116470Y347730D01*
G02X-115770Y347540I256J-441D01*
G01X-112770Y342350D01*
G02X-112960Y341650I-441J-256D01*
G01X-118150Y338650D01*
G02X-118850Y338840I-256J441D01*
G37*
G36*
G01X-255020Y224010D02*
X-260210Y227010D01*
G02X-260400Y227710I251J444D01*
G01X-257400Y232900D01*
G02X-256700Y233090I444J-251D01*
G01X-251510Y230090D01*
G02X-251320Y229390I-251J-444D01*
G01X-254320Y224200D01*
G02X-255020Y224010I-444J251D01*
G37*
G36*
G01X-237710Y-277730D02*
X-242900Y-274730D01*
G02X-243090Y-274030I251J444D01*
G01X-240090Y-268840D01*
G02X-239390Y-268650I444J-251D01*
G01X-234200Y-271650D01*
G02X-234010Y-272350I-251J-444D01*
G01X-237010Y-277540D01*
G02X-237710Y-277730I-444J251D01*
G37*
G36*
G01X-272350Y234010D02*
X-277540Y237010D01*
G02X-277730Y237710I251J444D01*
G01X-274730Y242900D01*
G02X-274030Y243090I444J-251D01*
G01X-268840Y240090D01*
G02X-268650Y239390I-251J-444D01*
G01X-271650Y234200D01*
G02X-272350Y234010I-444J251D01*
G37*
G36*
G01X-359370Y67000D02*
Y73000D01*
G02X-358860Y73510I510J0D01*
G01X-352860D01*
G02X-352350Y73000I0J-510D01*
G01Y67000D01*
G02X-352860Y66490I-510J0D01*
G01X-358860D01*
G02X-359370Y67000I0J510D01*
G37*
G36*
G01X-339370D02*
Y73000D01*
G02X-338860Y73510I510J0D01*
G01X-332860D01*
G02X-332350Y73000I0J-510D01*
G01Y67000D01*
G02X-332860Y66490I-510J0D01*
G01X-338860D01*
G02X-339370Y67000I0J510D01*
G37*
G36*
G01X-344730Y-121660D02*
X-347730Y-116470D01*
G02X-347540Y-115770I441J256D01*
G01X-342350Y-112770D01*
G02X-341650Y-112960I256J-441D01*
G01X-338650Y-118150D01*
G02X-338840Y-118850I-441J-256D01*
G01X-344030Y-121850D01*
G02X-344730Y-121660I-256J441D01*
G37*
G36*
G01X-327400Y-111660D02*
X-330400Y-106470D01*
G02X-330210Y-105770I441J256D01*
G01X-325020Y-102770D01*
G02X-324320Y-102960I256J-441D01*
G01X-321320Y-108150D01*
G02X-321510Y-108850I-441J-256D01*
G01X-326700Y-111850D01*
G02X-327400Y-111660I-256J441D01*
G37*
G36*
G01X299180Y-315210D02*
G03X298920I-130J-147D01*
G02X296490Y-312780I-1120J1310D01*
G03Y-312520I-147J130D01*
G02Y-310280I1310J1120D01*
G03Y-310020I-147J130D01*
G02X296770Y-307520I1309J1119D01*
G03Y-306880I-236J320D01*
G02X296490Y-304380I1029J1381D01*
G03Y-304120I-147J130D01*
G02Y-301880I1310J1120D01*
G03Y-301620I-147J130D01*
G02X298920Y-299190I1310J1120D01*
G03X299180I130J147D01*
G02X301420I1120J-1310D01*
G03X301680I130J147D01*
G02X303920I1120J-1310D01*
G03X304180I130J147D01*
G02X306420I1120J-1310D01*
G03X306680I130J147D01*
G02X308920I1120J-1310D01*
G03X309180I130J147D01*
G02X311610Y-301620I1120J-1310D01*
G03Y-301880I147J-130D01*
G02Y-304120I-1310J-1120D01*
G03Y-304380I147J-130D01*
G02X311330Y-306880I-1309J-1119D01*
G03Y-307520I236J-320D01*
G02X311610Y-310020I-1029J-1381D01*
G03Y-310280I147J-130D01*
G02Y-312520I-1310J-1120D01*
G03Y-312780I147J-130D01*
G02X309180Y-315210I-1310J-1120D01*
G03X308920I-130J-147D01*
G02X306680I-1120J1310D01*
G03X306420I-130J-147D01*
G02X304180I-1120J1310D01*
G03X303920I-130J-147D01*
G02X301680I-1120J1310D01*
G03X301420I-130J-147D01*
G02X299180I-1120J1310D01*
G37*
G36*
G01X393680Y-321310D02*
G03X393420I-130J-147D01*
G02X390990Y-318880I-1120J1310D01*
G03Y-318620I-147J130D01*
G02Y-316380I1310J1120D01*
G03Y-316120I-147J130D01*
G02X393420Y-313690I1310J1120D01*
G03X393680I130J147D01*
G02X395920I1120J-1310D01*
G03X396180I130J147D01*
G02X398420I1120J-1310D01*
G03X398680I130J147D01*
G02X400920I1120J-1310D01*
G03X401180I130J147D01*
G02X403420I1120J-1310D01*
G03X403680I130J147D01*
G02X406110Y-316120I1120J-1310D01*
G03Y-316380I147J-130D01*
G02Y-318620I-1310J-1120D01*
G03Y-318880I147J-130D01*
G02X403680Y-321310I-1310J-1120D01*
G03X403420I-130J-147D01*
G02X401180I-1120J1310D01*
G03X400920I-130J-147D01*
G02X398680I-1120J1310D01*
G03X398420I-130J-147D01*
G02X396180I-1120J1310D01*
G03X395920I-130J-147D01*
G02X393680I-1120J1310D01*
G37*
G36*
G01X299080Y-324110D02*
G03X298820I-130J-147D01*
G02X296390Y-321680I-1120J1310D01*
G03Y-321420I-147J130D01*
G02Y-319180I1310J1120D01*
G03Y-318920I-147J130D01*
G02X298820Y-316490I1310J1120D01*
G03X299080I130J147D01*
G02X301320I1120J-1310D01*
G03X301580I130J147D01*
G02X303820I1120J-1310D01*
G03X304080I130J147D01*
G02X306320I1120J-1310D01*
G03X306580I130J147D01*
G02X308820I1120J-1310D01*
G03X309080I130J147D01*
G02X311510Y-318920I1120J-1310D01*
G03Y-319180I147J-130D01*
G02Y-321420I-1310J-1120D01*
G03Y-321680I147J-130D01*
G02X309080Y-324110I-1310J-1120D01*
G03X308820I-130J-147D01*
G02X306580I-1120J1310D01*
G03X306320I-130J-147D01*
G02X304080I-1120J1310D01*
G03X303820I-130J-147D01*
G02X301580I-1120J1310D01*
G03X301320I-130J-147D01*
G02X299080I-1120J1310D01*
G37*
G36*
G01X-102820Y-333390D02*
X-166860Y-305960D01*
X-174410Y-308130D01*
Y-308270D01*
G02X-174990Y-306250I-3520J83D01*
G01X-174910Y-306380D01*
X-166740Y-304040D01*
X-111010Y-327900D01*
G03X-110500Y-327360I149J370D01*
G02X-106200Y-329200I3186J1501D01*
G03X-106230Y-329950I128J-381D01*
G01X-103120Y-331270D01*
X-99270Y-328090D01*
X-90860Y-328880D01*
X-90790Y-328800D01*
G02X-90980Y-330780I1300J-1124D01*
G01X-91030Y-330690D01*
X-98690Y-329970D01*
X-102820Y-333390D01*
G37*
G36*
G01X299180Y-333010D02*
G03X298920I-130J-147D01*
G02X296490Y-330580I-1120J1310D01*
G03Y-330320I-147J130D01*
G02Y-328080I1310J1120D01*
G03Y-327820I-147J130D01*
G02X298920Y-325390I1310J1120D01*
G03X299180I130J147D01*
G02X301420I1120J-1310D01*
G03X301680I130J147D01*
G02X303920I1120J-1310D01*
G03X304180I130J147D01*
G02X306420I1120J-1310D01*
G03X306680I130J147D01*
G02X308920I1120J-1310D01*
G03X309180I130J147D01*
G02X311610Y-327820I1120J-1310D01*
G03Y-328080I147J-130D01*
G02Y-330320I-1310J-1120D01*
G03Y-330580I147J-130D01*
G02X309180Y-333010I-1310J-1120D01*
G03X308920I-130J-147D01*
G02X306680I-1120J1310D01*
G03X306420I-130J-147D01*
G02X304180I-1120J1310D01*
G03X303920I-130J-147D01*
G02X301680I-1120J1310D01*
G03X301420I-130J-147D01*
G02X299180I-1120J1310D01*
G37*
G36*
G01X-158770Y-310760D02*
X-101330Y-336680D01*
X-97880Y-333230D01*
X-91540D01*
G02Y-335050I1460J-910D01*
G01X-97120D01*
X-100930Y-338860D01*
X-159030Y-312640D01*
X-165770Y-313610D01*
X-165800Y-313750D01*
G02X-166090Y-311670I-3472J576D01*
G01X-166030Y-311800D01*
X-158770Y-310760D01*
G37*
G36*
G01X-152960Y-316240D02*
X-101400Y-341490D01*
X-88420Y-338690D01*
X-86990Y-334450D01*
X-87050Y-334360D01*
G02X-85160Y-335000I1395J1008D01*
G01X-85260Y-335030D01*
X-87020Y-340250D01*
X-101640Y-343410D01*
X-153260Y-318120D01*
X-157120Y-318640D01*
X-157140Y-318780D01*
G02X-157420Y-316700I-3470J592D01*
G01X-157360Y-316830D01*
X-152960Y-316240D01*
G37*
G36*
G01X236180Y-365910D02*
G03X235920I-130J-147D01*
G02X233490Y-363480I-1120J1310D01*
G03Y-363220I-147J130D01*
G02Y-360980I1310J1120D01*
G03Y-360720I-147J130D01*
G02Y-358480I1310J1120D01*
G03Y-358220I-147J130D01*
G02Y-355980I1310J1120D01*
G03Y-355720I-147J130D01*
G02Y-353480I1310J1120D01*
G03Y-353220I-147J130D01*
G02X235920Y-350790I1310J1120D01*
G03X236180I130J147D01*
G02X238420I1120J-1310D01*
G03X238680I130J147D01*
G02X241110Y-353220I1120J-1310D01*
G03Y-353480I147J-130D01*
G02Y-355720I-1310J-1120D01*
G03Y-355980I147J-130D01*
G02Y-358220I-1310J-1120D01*
G03Y-358480I147J-130D01*
G02Y-360720I-1310J-1120D01*
G03Y-360980I147J-130D01*
G02Y-363220I-1310J-1120D01*
G03Y-363480I147J-130D01*
G02X238680Y-365910I-1310J-1120D01*
G03X238420I-130J-147D01*
G02X236180I-1120J1310D01*
G37*
G36*
G01X291480Y-372010D02*
G03X291220I-130J-147D01*
G02X288790Y-369580I-1120J1310D01*
G03Y-369320I-147J130D01*
G02Y-367080I1310J1120D01*
G03Y-366820I-147J130D01*
G02Y-364580I1310J1120D01*
G03Y-364320I-147J130D01*
G02Y-362080I1310J1120D01*
G03Y-361820I-147J130D01*
G02Y-359580I1310J1120D01*
G03Y-359320I-147J130D01*
G02X291220Y-356890I1310J1120D01*
G03X291480I130J147D01*
G02X293720I1120J-1310D01*
G03X293980I130J147D01*
G02X296410Y-359320I1120J-1310D01*
G03Y-359580I147J-130D01*
G02Y-361820I-1310J-1120D01*
G03Y-362080I147J-130D01*
G02Y-364320I-1310J-1120D01*
G03Y-364580I147J-130D01*
G02Y-366820I-1310J-1120D01*
G03Y-367080I147J-130D01*
G02Y-369320I-1310J-1120D01*
G03Y-369580I147J-130D01*
G02X293980Y-372010I-1310J-1120D01*
G03X293720I-130J-147D01*
G02X291480I-1120J1310D01*
G37*
G36*
G01X254280Y-384910D02*
G03X254020I-130J-147D01*
G02X251590Y-382480I-1120J1310D01*
G03Y-382220I-147J130D01*
G02Y-379980I1310J1120D01*
G03Y-379720I-147J130D01*
G02X254020Y-377290I1310J1120D01*
G03X254280I130J147D01*
G02X256520I1120J-1310D01*
G03X256780I130J147D01*
G02X259020I1120J-1310D01*
G03X259280I130J147D01*
G02X261520I1120J-1310D01*
G03X261780I130J147D01*
G02X264020I1120J-1310D01*
G03X264280I130J147D01*
G02X266710Y-379720I1120J-1310D01*
G03Y-379980I147J-130D01*
G02Y-382220I-1310J-1120D01*
G03Y-382480I147J-130D01*
G02X264280Y-384910I-1310J-1120D01*
G03X264020I-130J-147D01*
G02X261780I-1120J1310D01*
G03X261520I-130J-147D01*
G02X259280I-1120J1310D01*
G03X259020I-130J-147D01*
G02X256780I-1120J1310D01*
G03X256520I-130J-147D01*
G02X254280I-1120J1310D01*
G37*
G36*
G01X-298670Y-423760D02*
X-306330D01*
G02Y-421240I-1170J1260D01*
G01X-298670D01*
G02Y-423760I1170J-1260D01*
G37*
G36*
G01X-274280Y-426590D02*
X-273410Y-425720D01*
Y-419620D01*
X-270500Y-416710D01*
X-208840D01*
G02Y-418530I1460J-910D01*
G01X-269740D01*
X-271590Y-420380D01*
Y-426480D01*
X-273520Y-428410D01*
X-301040D01*
G02Y-426590I-1460J910D01*
G01X-274280D01*
G37*
G36*
G01X-398410Y-300380D02*
X-402700Y-296090D01*
X-408720D01*
G02Y-294270I-1460J910D01*
G01X-401940D01*
X-396590Y-299620D01*
Y-354620D01*
X-382120Y-369090D01*
X-351220D01*
X-336590Y-383720D01*
Y-412120D01*
X-332120Y-416590D01*
X-324620D01*
X-321590Y-419620D01*
Y-426040D01*
G02X-323410I-910J-1460D01*
G01Y-420380D01*
X-325380Y-418410D01*
X-332880D01*
X-338410Y-412880D01*
Y-384480D01*
X-351980Y-370910D01*
X-382880D01*
X-398410Y-355380D01*
Y-300380D01*
G37*
G36*
G01X-343410Y-426040D02*
Y-392880D01*
X-360380Y-375910D01*
X-395380D01*
X-403410Y-367880D01*
Y-302880D01*
X-405080Y-301210D01*
X-408720D01*
G02Y-299390I-1460J910D01*
G01X-404320D01*
X-401590Y-302120D01*
Y-367120D01*
X-394620Y-374090D01*
X-359620D01*
X-341590Y-392120D01*
Y-426040D01*
G02X-343410I-910J-1460D01*
G37*
G36*
G01X-309670Y-345700D02*
X-307660Y-343690D01*
X-307380D01*
X-307110Y-343420D01*
Y-330830D01*
X-302870Y-326590D01*
X-280420D01*
X-273390Y-333620D01*
Y-352820D01*
X-269620Y-356590D01*
X-214620D01*
X-208190Y-363020D01*
Y-408710D01*
X-185310Y-431590D01*
X-107880D01*
X-103410Y-427120D01*
Y-369620D01*
X-99480Y-365690D01*
X-35160D01*
G02Y-367510I1460J-910D01*
G01X-98720D01*
X-101590Y-370380D01*
Y-427880D01*
X-107120Y-433410D01*
X-186070D01*
X-210010Y-409470D01*
Y-363780D01*
X-215380Y-358410D01*
X-270380D01*
X-275210Y-353580D01*
Y-334380D01*
X-281180Y-328410D01*
X-302110D01*
X-305290Y-331590D01*
Y-344180D01*
X-306620Y-345510D01*
X-306900D01*
X-308380Y-346990D01*
X-308360Y-347090D01*
G02X-309770Y-345680I-1700J-290D01*
G01X-309670Y-345700D01*
G37*
G36*
G01X285520Y0D02*
G02I-285520J0D01*
G37*
G36*
G01X-311590Y-426040D02*
G02X-313410I-910J-1460D01*
G01Y-407880D01*
X-317880Y-403410D01*
X-325380D01*
X-333410Y-395380D01*
Y-360380D01*
X-337080Y-356710D01*
X-384580D01*
X-390910Y-350380D01*
Y-291580D01*
X-391180Y-291310D01*
X-417280D01*
X-418200Y-292230D01*
X-418180Y-292330D01*
G02X-419590Y-290920I-1700J-290D01*
G01X-419490Y-290940D01*
X-418040Y-289490D01*
X-401850D01*
G03X-401590Y-288790I-3J399D01*
G02X-399310I1140J1290D01*
G03X-399050Y-289490I263J-301D01*
G01X-390420D01*
X-389090Y-290820D01*
Y-349620D01*
X-383820Y-354890D01*
X-336320D01*
X-331590Y-359620D01*
Y-394620D01*
X-324620Y-401590D01*
X-317120D01*
X-311590Y-407120D01*
Y-426040D01*
G37*
G36*
G01X-292790Y-420800D02*
G02X-294200Y-422210I290J-1700D01*
G01X-294180Y-422110D01*
X-300910Y-415380D01*
Y-387440D01*
G03X-301530Y-387110I-400J-4D01*
G02Y-384270I-970J1420D01*
G03X-300910Y-383940I220J334D01*
G01Y-344350D01*
G03X-301520Y-344020I-398J-7D01*
G02X-301030Y-341580I-921J1454D01*
G03X-300420Y-341630I326J232D01*
G01X-295910Y-337120D01*
X-283430D01*
G02X-282350Y-339710I1460J-911D01*
G03X-282840Y-340170I-96J-388D01*
G02X-284910Y-342150I-1693J-302D01*
G03X-285400Y-342610I-96J-388D01*
G02X-287470Y-344590I-1693J-302D01*
G03X-287960Y-345050I-96J-388D01*
G02X-287950Y-345640I-1690J-324D01*
G01X-287970Y-345740D01*
X-274090Y-359620D01*
Y-383940D01*
G03X-273470Y-384270I400J4D01*
G02Y-387110I970J-1420D01*
G03X-274090Y-387440I-220J-334D01*
G01Y-420380D01*
X-275820Y-422110D01*
X-275800Y-422210D01*
G02X-277210Y-420800I-1700J-290D01*
G01X-277110Y-420820D01*
X-275910Y-419620D01*
Y-387440D01*
G03X-276530Y-387110I-400J-4D01*
G02X-278470I-970J1420D01*
G03X-279090Y-387440I-220J-334D01*
G01Y-420380D01*
X-280820Y-422110D01*
X-280800Y-422210D01*
G02X-282210Y-420800I-1700J-290D01*
G01X-282110Y-420820D01*
X-280910Y-419620D01*
Y-387440D01*
G03X-281530Y-387110I-400J-4D01*
G02X-283470I-970J1420D01*
G03X-284090Y-387440I-220J-334D01*
G01Y-420380D01*
X-285820Y-422110D01*
X-285800Y-422210D01*
G02X-287210Y-420800I-1700J-290D01*
G01X-287110Y-420820D01*
X-285910Y-419620D01*
Y-387440D01*
G03X-286530Y-387110I-400J-4D01*
G02X-288050Y-384060I-970J1420D01*
G03X-287890Y-383400I-124J379D01*
G01X-295910Y-375380D01*
Y-364250D01*
G03X-296530Y-363920I-400J-4D01*
G02X-298470I-970J1420D01*
G03X-299090Y-364250I-220J-334D01*
G01Y-383940D01*
G03X-298470Y-384270I400J4D01*
G02Y-387110I970J-1420D01*
G03X-299090Y-387440I-220J-334D01*
G01Y-414620D01*
X-292890Y-420820D01*
X-292790Y-420800D01*
G37*
G36*
G01X-196810Y-434620D02*
G02Y-436440I1460J-910D01*
G01X-249850D01*
X-253410Y-432880D01*
Y-428960D01*
G02X-253920Y-426530I910J1460D01*
G03X-254250Y-425910I-334J220D01*
G01X-265380D01*
X-267110Y-424180D01*
X-267210Y-424200D01*
G02X-265800Y-422790I-290J1700D01*
G01X-265820Y-422890D01*
X-264620Y-424090D01*
X-264250D01*
G03X-263920Y-423470I-4J400D01*
G02X-261040Y-421590I1421J970D01*
G01X-237120D01*
X-232890Y-425820D01*
X-232790Y-425800D01*
G02X-230800Y-427790I290J-1700D01*
G01X-230820Y-427890D01*
X-229210Y-429500D01*
X-223890D01*
G03X-223630Y-428800I-2J399D01*
G02X-222210Y-425800I1127J1303D01*
G01X-222110Y-425820D01*
X-220380Y-424090D01*
X-209620D01*
X-206770Y-426940D01*
X-206110D01*
G02X-203260Y-428860I1463J-904D01*
G03X-202940Y-429500I321J-240D01*
G01X-196810D01*
G02Y-431320I1460J-910D01*
G01X-202940D01*
G03X-203260Y-431960I1J-400D01*
G02Y-433980I-1390J-1010D01*
G03X-202940Y-434620I321J-240D01*
G01X-196810D01*
G37*
G36*
G01X161910Y-344040D02*
G02X160090I-910J-1460D01*
G01Y-330090D01*
X142430Y-295910D01*
X135390D01*
X127290Y-304010D01*
X31400D01*
G03X31140Y-304710I3J-399D01*
G02X28860I-1140J-1290D01*
G03X28600Y-304010I-263J301D01*
G01X-129870D01*
X-152270Y-281610D01*
X-178310D01*
X-185250Y-288550D01*
X-195350D01*
X-200490Y-283410D01*
X-215180D01*
X-230580Y-268010D01*
X-241020D01*
X-244790Y-271780D01*
Y-333480D01*
X-250020Y-338710D01*
X-259920D01*
G02X-262770Y-336790I-1463J904D01*
G03X-263090Y-336150I-321J240D01*
G01X-263210D01*
X-263270Y-336230D01*
G02Y-334250I-1400J990D01*
G01X-263210Y-334330D01*
X-263090D01*
G03X-262770Y-333690I-1J400D01*
G02X-261090Y-330980I1391J1014D01*
G01X-260990Y-331000D01*
X-260800Y-330810D01*
Y-257020D01*
X-247870Y-244090D01*
X-167010D01*
X-120810Y-290290D01*
X-74420D01*
X-72220Y-292490D01*
X58180D01*
G03X58520Y-291880I1J399D01*
G02X58640Y-289950I1480J877D01*
G03X58320Y-289310I-321J240D01*
G01X-68280D01*
X-70780Y-286810D01*
X-116170D01*
X-162070Y-240910D01*
X-253230D01*
X-263760Y-251440D01*
Y-328660D01*
G02X-265580I-910J-1460D01*
G01Y-250680D01*
X-253990Y-239090D01*
X-161310D01*
X-115410Y-284990D01*
X-70020D01*
X-67520Y-287490D01*
X118520D01*
X189420Y-216590D01*
X214620D01*
X259090Y-172120D01*
Y-141010D01*
X284990Y-115110D01*
Y-83820D01*
X298190Y-70620D01*
Y33020D01*
X294090Y37120D01*
Y43330D01*
X298190Y47430D01*
Y128680D01*
X317610Y148100D01*
X321330D01*
G03X321520Y148850I-2J399D01*
G02X324860I1670J3100D01*
G03X325050Y148100I192J-351D01*
G01X325310D01*
X331720Y154510D01*
X332740D01*
G02X332800Y152610I1461J-905D01*
G01X332740Y152690D01*
X332480D01*
X327220Y147430D01*
G03X327570Y146760I284J-278D01*
G02X325550Y145620I625J-3466D01*
G03X325250Y146280I-303J261D01*
G01X318370D01*
X309400Y137310D01*
G03X309800Y136650I284J-279D01*
G02X307500Y134350I1060J-3360D01*
G03X306840Y134750I-381J116D01*
G01X300010Y127920D01*
Y46670D01*
X295910Y42570D01*
Y37880D01*
X300010Y33780D01*
Y-71380D01*
X286810Y-84580D01*
Y-115870D01*
X260910Y-141770D01*
Y-172880D01*
X215380Y-218410D01*
X190180D01*
X119280Y-289310D01*
X61680D01*
G03X61360Y-289950I1J-400D01*
G02X61480Y-291880I-1360J-1053D01*
G03X61820Y-292490I339J-211D01*
G01X123720D01*
X189620Y-226590D01*
X222720D01*
X272190Y-177120D01*
Y-149030D01*
X296590Y-124630D01*
Y-92120D01*
X306720Y-81990D01*
X341420D01*
X343790Y-79620D01*
Y-51520D01*
X351520Y-43790D01*
X353890D01*
G03X354090Y-43040I4J401D01*
G02X357630I1770J3040D01*
G03X357830Y-43790I196J-349D01*
G01X367320D01*
X369490Y-41620D01*
Y-34080D01*
X369190Y-33780D01*
X369090Y-33800D01*
G02X370500Y-32390I-290J1700D01*
G01X370480Y-32490D01*
X371310Y-33320D01*
Y-42380D01*
X368080Y-45610D01*
X352280D01*
X345610Y-52280D01*
Y-80380D01*
X342180Y-83810D01*
X307480D01*
X298410Y-92880D01*
Y-125390D01*
X274010Y-149790D01*
Y-177880D01*
X223480Y-228410D01*
X190380D01*
X124480Y-294310D01*
X51680D01*
G03X51360Y-294950I1J-400D01*
G02X51600Y-296640I-1359J-1055D01*
G03X51970Y-297190I369J-151D01*
G01X124020D01*
X148520Y-272690D01*
X173520D01*
X207120Y-239090D01*
X253620D01*
X264590Y-228120D01*
Y-224920D01*
X282020Y-207490D01*
X290900D01*
G03X291130Y-206770I-5J398D01*
G02X295250I2060J2860D01*
G03X295480Y-207490I235J-322D01*
G01X298870D01*
X301000Y-209620D01*
X301100Y-209600D01*
G02X299690Y-211010I290J-1700D01*
G01X299710Y-210910D01*
X298110Y-209310D01*
X290870D01*
G03X290600Y-210000I2J-399D01*
G02X285780I-2410J-2570D01*
G03X285510Y-209310I-272J291D01*
G01X282780D01*
X266410Y-225680D01*
Y-228880D01*
X254380Y-240910D01*
X207880D01*
X174280Y-274510D01*
X149280D01*
X124780Y-299010D01*
X41400D01*
G03X41140Y-299710I3J-399D01*
G02X41600Y-301640I-1139J-1291D01*
G03X41970Y-302190I369J-151D01*
G01X126530D01*
X134630Y-294090D01*
X143530D01*
X146520Y-299860D01*
G03X147250Y-299800I352J184D01*
G02X149530Y-304210I3358J-1058D01*
G03X149060Y-304780I-118J-382D01*
G01X161910Y-329650D01*
Y-344040D01*
G37*
G36*
G01X285520Y0D02*
G02I-285520J0D01*
G37*
G36*
G01D02*
G02I-285520J0D01*
G37*
G36*
G01X-357120Y-433410D02*
X-410380D01*
X-410440Y-433350D01*
X-425910Y-417880D01*
Y-307590D01*
X-425850Y-307530D01*
X-421560Y-303240D01*
X-421580Y-303140D01*
G02X-420170Y-304550I1700J290D01*
G01X-420270Y-304530D01*
X-424090Y-308350D01*
Y-417120D01*
X-409620Y-431590D01*
X-357880D01*
X-354180Y-427890D01*
X-354200Y-427790D01*
G02X-352790Y-429200I1700J290D01*
G01X-352890Y-429180D01*
X-357120Y-433410D01*
G37*
G36*
G01X-424860Y-298650D02*
X-429090Y-302880D01*
Y-419620D01*
X-414620Y-434090D01*
X-340380D01*
X-334180Y-427890D01*
X-334200Y-427790D01*
G02X-332790Y-429200I1700J290D01*
G01X-332890Y-429180D01*
X-339620Y-435910D01*
X-415380D01*
X-415440Y-435850D01*
X-430910Y-420380D01*
Y-302120D01*
X-430850Y-302060D01*
X-425620Y-296830D01*
X-421340D01*
G02Y-298650I1460J-910D01*
G01X-424860D01*
G37*
G36*
G01X285520Y0D02*
G02I-285520J0D01*
G37*
G36*
G01X284100Y-224630D02*
Y-336890D01*
X277680Y-343310D01*
X200380D01*
X185280Y-358410D01*
X109260D01*
X89060Y-347110D01*
X-44880D01*
X-50910Y-341080D01*
Y-339260D01*
X-51050Y-339220D01*
G02X-48950I1050J3360D01*
G01X-49090Y-339260D01*
Y-340320D01*
X-44120Y-345290D01*
X89540D01*
X109740Y-356590D01*
X133720D01*
Y-336590D01*
X133580Y-336550D01*
G02X135680I1050J3360D01*
G01X135540Y-336590D01*
Y-356590D01*
X184520D01*
X199620Y-341490D01*
X276920D01*
X282280Y-336130D01*
Y-224630D01*
X282140Y-224590D01*
G02X286310Y-222860I1050J3360D01*
G01X286240Y-222990D01*
X289840Y-226590D01*
X379620D01*
X389090Y-217120D01*
Y-55380D01*
X384620Y-50910D01*
X359260D01*
X359220Y-51050D01*
G02Y-48950I-3360J1050D01*
G01X359260Y-49090D01*
X383620D01*
X389090Y-43620D01*
Y126520D01*
X381890Y133720D01*
X336590D01*
X336550Y133580D01*
G02Y135680I-3360J1050D01*
G01X336590Y135540D01*
X381320D01*
X389090Y143310D01*
Y267120D01*
X366660Y289550D01*
X228880D01*
X224280Y284950D01*
G02X222990Y286240I-3050J-1760D01*
G01X227590Y290840D01*
Y431120D01*
X217120Y441590D01*
X62880D01*
X50910Y429620D01*
Y359260D01*
X51050Y359220D01*
G02X48950I-1050J-3360D01*
G01X49090Y359260D01*
Y430380D01*
X62120Y443410D01*
X217880D01*
X229410Y431880D01*
Y291370D01*
X367420D01*
X390910Y267880D01*
Y142550D01*
X383270Y134920D01*
X390910Y127280D01*
Y-44380D01*
X385790Y-49500D01*
X390910Y-54620D01*
Y-217880D01*
X380380Y-228410D01*
X289080D01*
X284950Y-224280D01*
X284820Y-224350D01*
G02X284240Y-224590I-1631J3120D01*
G01X284100Y-224630D01*
G37*
G54D24*
X-435000Y-435000D03*
Y435000D03*
X-400000Y-400000D03*
Y400000D03*
X400000Y-400000D03*
Y400000D03*
X435000Y-435000D03*
Y435000D03*
G54D25*
X-435000Y-400000D03*
Y-420000D03*
Y-410000D03*
Y-370000D03*
Y-380000D03*
Y-390000D03*
Y-340000D03*
Y-360000D03*
Y-350000D03*
Y-310000D03*
Y-320000D03*
Y-330000D03*
Y-280000D03*
Y-300000D03*
Y-290000D03*
X-422500Y-287500D03*
X-435000Y-250000D03*
Y-260000D03*
Y-270000D03*
Y-220000D03*
Y-240000D03*
Y-230000D03*
Y-190000D03*
Y-200000D03*
Y-210000D03*
Y-160000D03*
Y-180000D03*
Y-170000D03*
Y-130000D03*
Y-140000D03*
Y-150000D03*
Y-100000D03*
Y-120000D03*
Y-110000D03*
Y-70000D03*
Y-80000D03*
Y-90000D03*
Y-40000D03*
Y-60000D03*
Y-50000D03*
Y-10000D03*
Y-20000D03*
Y-30000D03*
Y20000D03*
Y0D03*
Y10000D03*
Y50000D03*
Y40000D03*
Y30000D03*
Y80000D03*
Y60000D03*
Y70000D03*
Y110000D03*
Y100000D03*
Y90000D03*
Y140000D03*
Y120000D03*
Y130000D03*
Y170000D03*
Y160000D03*
Y150000D03*
Y200000D03*
Y180000D03*
Y190000D03*
Y230000D03*
Y220000D03*
Y210000D03*
Y260000D03*
Y240000D03*
Y250000D03*
Y290000D03*
Y280000D03*
Y270000D03*
Y320000D03*
Y300000D03*
Y310000D03*
Y350000D03*
Y340000D03*
Y330000D03*
Y380000D03*
Y360000D03*
Y370000D03*
Y410000D03*
Y400000D03*
Y390000D03*
Y420000D03*
X-392950Y-280000D03*
X-362500Y-442500D03*
X-382500Y-346460D03*
X-386250Y-343900D03*
X-382500Y-341340D03*
X-386250Y-338780D03*
X-382500Y-336220D03*
X-386250Y-333660D03*
X-382500Y-331100D03*
X-386250Y-328540D03*
X-372400Y15300D03*
X-352500Y-442500D03*
X-342500D03*
X-332500D03*
X-347500Y-362500D03*
X-337500D03*
X-332560Y-349940D03*
X-333140Y-312340D03*
X-338750Y-308840D03*
X-342500Y-311400D03*
X-338750Y-313960D03*
X-342500Y-296040D03*
X-340000Y-174950D03*
X-322500Y-442500D03*
X-312500D03*
X-302500D03*
X-327500Y-362500D03*
X-317500D03*
X-307500D03*
X-327500Y-385690D03*
X-322500D03*
X-312500D03*
X-307500D03*
X-317500D03*
X-319940Y-349940D03*
X-302440Y-334940D03*
X-324660Y-332030D03*
X-309200Y-329470D03*
X-298960Y-277500D03*
X-301000Y-40000D03*
X-316000Y-10000D03*
X-311000Y-20000D03*
X-306000Y-30000D03*
X-326000Y10000D03*
X-321000Y0D03*
X-319060Y205800D03*
X-292500Y-442500D03*
X-282500D03*
X-272500D03*
X-292500Y-385690D03*
X-270000Y-320000D03*
X-296400Y-273750D03*
X-293840Y-277500D03*
X-291280Y-273750D03*
X-287320Y-154340D03*
X-268660Y-166660D03*
X-277990Y-160500D03*
X-296000Y-50000D03*
X-291000Y-60000D03*
X-280670Y115860D03*
X-281340Y104700D03*
X-282010Y93540D03*
X-278660Y149340D03*
X-279330Y138180D03*
X-280000Y127020D03*
X-277320Y171660D03*
X-277990Y160500D03*
X-262500Y-442500D03*
X-252500D03*
X-242500D03*
Y-377500D03*
Y-385690D03*
X-267500D03*
X-262500D03*
X-257500D03*
X-252500D03*
X-247500D03*
X-242500Y-362500D03*
X-240670Y-185140D03*
X-259330Y-172820D03*
X-250000Y-178980D03*
X-212500Y-442500D03*
X-232500D03*
X-222500D03*
X-237500Y-412500D03*
X-231340Y-191300D03*
X-222010Y-197460D03*
X-196250Y-399400D03*
X-189900Y-412500D03*
X-195060Y-415060D03*
X-203750Y-399400D03*
X-193750Y-351460D03*
X-197500Y-348900D03*
X-193750Y-346340D03*
X-197500Y-343780D03*
Y-333540D03*
X-193750Y-336100D03*
X-197500Y-338660D03*
X-193750Y-341220D03*
X-207600Y-317450D03*
X-191300Y231340D03*
X-197460Y222010D03*
X-178980Y250000D03*
X-185140Y240670D03*
X-176060Y-395100D03*
X-171700Y-412500D03*
X-176160Y-379300D03*
X-176460Y-360300D03*
X-166660Y268660D03*
X-172820Y259330D03*
X-154340Y287320D03*
X-160500Y277990D03*
X-174130Y335000D03*
X-139240Y-423660D03*
X-142200Y-421100D03*
Y-426220D03*
X-139240Y-418540D03*
X-127020Y-280000D03*
X-95700Y-412500D03*
X-115860Y-280670D03*
X-104700Y-281340D03*
X-93540Y-282010D03*
X-74900Y-412600D03*
X-30000Y-426160D03*
Y-431280D03*
Y-436400D03*
Y-421040D03*
X-26250Y-423600D03*
Y-428720D03*
Y-433840D03*
Y-438960D03*
X-11400Y-370300D03*
X-10000Y-326000D03*
X0Y-321000D03*
X10000Y-316000D03*
X20000Y-311000D03*
X15900Y377600D03*
X33200Y370000D03*
X149990Y-340200D03*
X176290Y-337200D03*
X154340Y-287320D03*
X160500Y-277990D03*
X166660Y-268660D03*
X172820Y-259330D03*
X178980Y-250000D03*
X185140Y-240670D03*
X191300Y-231340D03*
X197460Y-222010D03*
X202300Y319700D03*
X240670Y185140D03*
X231340Y191300D03*
X222010Y197460D03*
X218300Y310800D03*
X268660Y166660D03*
X259330Y172820D03*
X250000Y178980D03*
X277320Y-171660D03*
X277990Y-160500D03*
X278660Y-149340D03*
X279330Y-138180D03*
X280000Y-127020D03*
X280670Y-115860D03*
X281340Y-104700D03*
X282010Y-93540D03*
X296000Y50000D03*
X291000Y60000D03*
X287320Y154340D03*
X277990Y160500D03*
X292100Y273600D03*
Y315500D03*
X309940Y-223180D03*
X320800Y-208170D03*
X326000Y-10000D03*
X316000Y10000D03*
X311000Y20000D03*
X321000Y0D03*
X306000Y30000D03*
X339160Y172600D03*
X365980Y-39730D03*
X376500Y-15500D03*
X435000Y-400000D03*
Y-420000D03*
Y-410000D03*
Y-370000D03*
Y-380000D03*
Y-390000D03*
Y-340000D03*
Y-360000D03*
Y-350000D03*
Y-310000D03*
Y-320000D03*
Y-330000D03*
Y-280000D03*
Y-300000D03*
Y-290000D03*
Y-250000D03*
Y-260000D03*
Y-270000D03*
Y-220000D03*
Y-240000D03*
Y-230000D03*
Y-190000D03*
Y-200000D03*
Y-210000D03*
Y-160000D03*
Y-180000D03*
Y-170000D03*
Y-130000D03*
Y-140000D03*
Y-150000D03*
Y-100000D03*
Y-120000D03*
Y-110000D03*
Y-70000D03*
Y-80000D03*
Y-90000D03*
Y-40000D03*
Y-60000D03*
Y-50000D03*
Y-10000D03*
Y-20000D03*
Y-30000D03*
Y20000D03*
Y0D03*
Y10000D03*
Y50000D03*
Y40000D03*
Y30000D03*
Y80000D03*
Y60000D03*
Y70000D03*
Y110000D03*
Y100000D03*
Y90000D03*
Y140000D03*
Y120000D03*
Y130000D03*
Y170000D03*
Y160000D03*
Y150000D03*
Y200000D03*
Y180000D03*
Y190000D03*
Y230000D03*
Y220000D03*
Y210000D03*
Y260000D03*
Y240000D03*
Y250000D03*
Y290000D03*
Y280000D03*
Y270000D03*
Y320000D03*
Y300000D03*
Y310000D03*
Y350000D03*
Y340000D03*
Y330000D03*
Y380000D03*
Y360000D03*
Y370000D03*
Y410000D03*
Y400000D03*
Y390000D03*
Y420000D03*
X301000Y40000D03*
G54D23*
X50000Y-355860D03*
X60000D03*
X40000D03*
X20000D03*
X30000D03*
X10000D03*
X-10000D03*
X0D03*
X-328190Y-143290D03*
X-333190Y-134630D03*
X-338190Y-125970D03*
X-335860Y-70000D03*
X-355860D03*
X-335860Y-60000D03*
Y-50000D03*
Y-40000D03*
X-355860Y-60000D03*
Y-50000D03*
Y-40000D03*
X-335860Y-30000D03*
Y-20000D03*
Y-10000D03*
X-355860Y-30000D03*
Y-20000D03*
Y-10000D03*
X-335860Y0D03*
Y10000D03*
Y20000D03*
X-355860Y0D03*
Y10000D03*
Y20000D03*
X-335860Y30000D03*
Y40000D03*
X-355860Y30000D03*
Y40000D03*
Y50000D03*
X-335860Y60000D03*
X-355860D03*
X-343190Y117310D03*
X-325860Y107310D03*
X-338190Y125970D03*
X-333190Y134630D03*
X-328190Y143290D03*
X-298190Y-195250D03*
X-303190Y-186590D03*
X-295860Y-159270D03*
X-300860Y-150610D03*
X-313190Y-169270D03*
X-318190Y-160610D03*
X-323190Y-151950D03*
X-305860Y-141950D03*
X-310860Y-133290D03*
X-320860Y-115970D03*
Y115970D03*
X-315860Y124630D03*
X-310860Y133290D03*
X-305860Y141950D03*
X-300860Y150610D03*
X-323190Y151950D03*
X-318190Y160610D03*
X-313190Y169270D03*
X-308190Y177930D03*
X-295860Y159270D03*
X-303190Y186590D03*
X-298190Y195250D03*
X-265860Y-211230D03*
X-273190Y-238550D03*
X-278190Y-229890D03*
X-283190Y-221230D03*
X-288190Y-212570D03*
X-270860Y-202570D03*
X-275860Y-193910D03*
X-280860Y-185250D03*
X-293190Y-203910D03*
X-285860Y-176590D03*
X-290860Y-167930D03*
Y167930D03*
X-285860Y176590D03*
X-293190Y203910D03*
X-280860Y185250D03*
X-275860Y193910D03*
X-270860Y202570D03*
X-288190Y212570D03*
X-283190Y221230D03*
X-278190Y229890D03*
X-255860Y-228550D03*
X-260860Y-219890D03*
Y219890D03*
X-238550Y273190D03*
X-212570Y-288190D03*
X-229890Y-278190D03*
X-228550Y255860D03*
X-219890Y260860D03*
X-211230Y265860D03*
X-229890Y278190D03*
X-221230Y283190D03*
X-212570Y288190D03*
X-186590Y-303190D03*
X-176590Y-285860D03*
X-195250Y-298190D03*
X-203910Y-293190D03*
X-202570Y270860D03*
X-193910Y275860D03*
X-185250Y280860D03*
X-176590Y285860D03*
X-203910Y293190D03*
X-195250Y298190D03*
X-186590Y303190D03*
X-177930Y308190D03*
X-150610Y-300860D03*
X-151950Y-323190D03*
X-159270Y-295860D03*
X-167930Y-290860D03*
Y290860D03*
X-159270Y295860D03*
X-150610Y300860D03*
X-169270Y313190D03*
X-160610Y318190D03*
X-151950Y323190D03*
X-125970Y-338190D03*
X-134630Y-333190D03*
X-115970Y-320860D03*
X-124630Y-315860D03*
X-133290Y-310860D03*
X-141950Y-305860D03*
X-143290Y-328190D03*
X-141950Y305860D03*
X-133290Y310860D03*
X-124630Y315860D03*
X-115970Y320860D03*
X-143290Y328190D03*
X-125970Y338190D03*
X-60000Y-335860D03*
Y-355860D03*
X-70000Y355860D03*
X-60000D03*
X-70000Y335860D03*
X-60000D03*
X-30000Y-335860D03*
X-40000D03*
X-30000Y-355860D03*
X-40000D03*
X-50000Y355860D03*
X-40000D03*
X-30000D03*
X-50000Y335860D03*
X-40000D03*
X-30000D03*
X0Y-335860D03*
X-10000D03*
X-20000D03*
Y-355860D03*
Y355860D03*
X-10000D03*
X0D03*
X-20000Y335860D03*
X-10000D03*
X0D03*
X30000Y-335860D03*
X20000D03*
X10000D03*
Y355860D03*
X20000D03*
X30000D03*
X10000Y335860D03*
X20000D03*
X30000D03*
X60000Y-335860D03*
X50000D03*
X40000D03*
Y355860D03*
X60000D03*
X40000Y335860D03*
X50000D03*
X60000D03*
X70000Y-335860D03*
Y-355860D03*
X115970Y-320860D03*
X107310Y325860D03*
X115970Y320860D03*
X117310Y343190D03*
X125970Y-338190D03*
X141950Y-305860D03*
X133290Y-310860D03*
X124630Y-315860D03*
X151950Y-323190D03*
X143290Y-328190D03*
X150610Y300860D03*
X124630Y315860D03*
X133290Y310860D03*
X141950Y305860D03*
X143290Y328190D03*
X151950Y323190D03*
X125970Y338190D03*
X134630Y333190D03*
X177930Y-308190D03*
X169270Y-313190D03*
X160610Y-318190D03*
X176590Y-285860D03*
X167930Y-290860D03*
X159270Y-295860D03*
Y295860D03*
X167930Y290860D03*
X176590Y285860D03*
X160610Y318190D03*
X169270Y313190D03*
X177930Y308190D03*
X186590Y-303190D03*
X202570Y-270860D03*
X193910Y-275860D03*
X185250Y-280860D03*
X212570Y-288190D03*
X203910Y-293190D03*
X195250Y-298190D03*
X211230Y-265860D03*
X202570Y270860D03*
X211230Y265860D03*
X185250Y280860D03*
X193910Y275860D03*
X195250Y298190D03*
X203910Y293190D03*
X212570Y288190D03*
X186590Y303190D03*
X238550Y-273190D03*
X229890Y-278190D03*
X221230Y-283190D03*
X228550Y-255860D03*
X219890Y-260860D03*
Y260860D03*
X229890Y278190D03*
X265860Y-211230D03*
X260860Y-219890D03*
X270860Y-202570D03*
Y202570D03*
X255860Y228550D03*
X260860Y219890D03*
X265860Y211230D03*
X273190Y238550D03*
X278190Y-229890D03*
X280860Y-185250D03*
X275860Y-193910D03*
X303190Y-186590D03*
X298190Y-195250D03*
X300860Y-150610D03*
X295860Y-159270D03*
X290860Y-167930D03*
X285860Y-176590D03*
X300860Y150610D03*
X285860Y176590D03*
X290860Y167930D03*
X295860Y159270D03*
X275860Y193910D03*
X280860Y185250D03*
X293190Y203910D03*
X298190Y195250D03*
X303190Y186590D03*
X278190Y229890D03*
X283190Y221230D03*
X288190Y212570D03*
X323190Y-151950D03*
X318190Y-160610D03*
X313190Y-169270D03*
X308190Y-177930D03*
X315860Y-124630D03*
X310860Y-133290D03*
X305860Y-141950D03*
X333190Y-134630D03*
X328190Y-143290D03*
X325860Y-107310D03*
X320860Y-115970D03*
Y115970D03*
X305860Y141950D03*
X315860Y124630D03*
X308190Y177930D03*
X313190Y169270D03*
X318190Y160610D03*
X338190Y-125970D03*
X343190Y-117310D03*
X335860Y-40000D03*
Y-50000D03*
Y-60000D03*
X355860D03*
X335860Y-10000D03*
Y-20000D03*
Y-30000D03*
X355860Y-10000D03*
Y-20000D03*
Y-30000D03*
X335860Y20000D03*
Y10000D03*
Y0D03*
X355860Y20000D03*
Y10000D03*
Y0D03*
X335860Y50000D03*
Y40000D03*
Y30000D03*
X355860Y50000D03*
Y40000D03*
Y30000D03*
X335860Y70000D03*
Y60000D03*
X355860Y70000D03*
Y60000D03*
X338190Y125970D03*
X-308190Y-177930D03*
%LPD*%
G75*
G36*
G01X-290900Y-346530D02*
G03X-289360Y-347050I1255J1177D01*
G01X-289260Y-347030D01*
X-275910Y-360380D01*
Y-383940D01*
G02X-276530Y-384270I-400J4D01*
G03X-278470I-970J-1420D01*
G02X-279090Y-383940I-220J334D01*
G01Y-382120D01*
X-291590Y-369620D01*
Y-346810D01*
G02X-290900Y-346530I400J4D01*
G37*
G36*
G01X-288550Y-342000D02*
X-290790D01*
X-293410Y-344620D01*
Y-370380D01*
X-280910Y-382880D01*
Y-383940D01*
G02X-281530Y-384270I-400J4D01*
G03X-283700Y-384460I-969J-1420D01*
G02X-284260Y-384450I-275J290D01*
G01X-294090Y-374620D01*
Y-342880D01*
X-292590Y-341380D01*
X-288470D01*
G02X-288330Y-341720I-4J-200D01*
G03X-288550Y-342000I1235J-1197D01*
G37*
G36*
G01X-299090Y-360750D02*
Y-342880D01*
X-295150Y-338940D01*
X-285910D01*
G02X-285770Y-339280I-4J-200D01*
G03X-285990Y-339560I1235J-1197D01*
G01X-293350D01*
X-295910Y-342120D01*
Y-360750D01*
G02X-296530Y-361080I-400J4D01*
G03X-298470I-970J-1420D01*
G02X-299090Y-360750I-220J334D01*
G37*
G36*
G01X-261040Y-423410D02*
X-237880D01*
X-234180Y-427110D01*
X-234200Y-427210D01*
G03X-232210Y-429200I1700J-290D01*
G01X-232110Y-429180D01*
X-229970Y-431320D01*
X-206360D01*
G02X-206040Y-431960I-1J-400D01*
G03X-206110Y-432060I1372J-1035D01*
G01X-236650D01*
X-240820Y-427890D01*
X-240800Y-427790D01*
G03X-242790Y-425800I-1700J290D01*
G01X-242890Y-425820D01*
X-244620Y-424090D01*
X-261180D01*
G02X-261310Y-423750I8J198D01*
G03X-261040Y-423410I-1204J1233D01*
G37*
G36*
G01X-206360Y-434620D02*
X-249090D01*
X-251590Y-432120D01*
Y-428960D01*
G03X-251080Y-426530I-910J1460D01*
G02X-250750Y-425910I334J220D01*
G01X-245380D01*
X-244180Y-427110D01*
X-244200Y-427210D01*
G03X-242210Y-429200I1700J-290D01*
G01X-242110Y-429180D01*
X-237410Y-433880D01*
X-206110D01*
G03X-206040Y-433980I1442J935D01*
G02X-206360Y-434620I-321J-240D01*
G37*
G36*
G01X-259920Y-336890D02*
G03X-259990Y-336790I-1442J-935D01*
G02X-259670Y-336150I321J240D01*
G01X-253200D01*
X-249290Y-332240D01*
Y-258080D01*
X-242120Y-250910D01*
X-229730D01*
Y-251240D01*
X-229850Y-251290D01*
G03X-230090Y-251510I207J-467D01*
G01X-233090Y-256700D01*
G03X-232900Y-257400I441J-256D01*
G01X-227710Y-260400D01*
G03X-227010Y-260210I256J441D01*
G01X-224010Y-255020D01*
G03X-224200Y-254320I-441J256D01*
G01X-229390Y-251320D01*
G03X-229440Y-251290I-288J-424D01*
G01X-229570Y-251240D01*
Y-250910D01*
X-172690D01*
X-124590Y-299010D01*
X38600D01*
G02X38860Y-299710I-3J-399D01*
G03X38400Y-301640I1139J-1291D01*
G02X38030Y-302190I-369J-151D01*
G01X-129110D01*
X-151510Y-279790D01*
X-158910D01*
G02X-159210Y-279130I3J399D01*
G03X-161790I-1290J1140D01*
G02X-162090Y-279790I-303J-261D01*
G01X-179070D01*
X-181110Y-281830D01*
G02X-181780Y-281480I-278J284D01*
G03X-184630Y-284330I-3470J620D01*
G02X-184280Y-285000I66J-392D01*
G01X-186010Y-286730D01*
X-194590D01*
X-199730Y-281590D01*
X-214420D01*
X-229820Y-266190D01*
X-241780D01*
X-246610Y-271020D01*
Y-332720D01*
X-250780Y-336890D01*
X-259920D01*
G37*
G36*
G01X-251110Y-257320D02*
Y-331480D01*
X-253960Y-334330D01*
X-259670D01*
G02X-259990Y-333690I1J400D01*
G03X-259680Y-332390I-1388J1018D01*
G01X-259700Y-332290D01*
X-258980Y-331570D01*
Y-257780D01*
X-247110Y-245910D01*
X-167770D01*
X-121570Y-292110D01*
X-75180D01*
X-72980Y-294310D01*
X48320D01*
G02X48640Y-294950I-1J-400D01*
G03X48400Y-296640I1359J-1055D01*
G02X48030Y-297190I-369J-151D01*
G01X-123830D01*
X-171930Y-249090D01*
X-242880D01*
X-251110Y-257320D01*
G37*
G36*
G01X-221370Y-428800D02*
G03X-220800Y-427210I-1128J1302D01*
G01X-220820Y-427110D01*
X-219620Y-425910D01*
X-214250D01*
G02X-213920Y-426530I-4J-400D01*
G03X-213630Y-428800I1420J-972D01*
G02X-213890Y-429500I-262J-301D01*
G01X-221110D01*
G02X-221370Y-428800I2J399D01*
G37*
G36*
G01X-211370D02*
G03X-211080Y-426530I-1130J1298D01*
G02X-210750Y-425910I334J220D01*
G01X-210380D01*
X-207530Y-428760D01*
X-206110D01*
G03X-206040Y-428860I1442J935D01*
G02X-206360Y-429500I-321J-240D01*
G01X-211110D01*
G02X-211370Y-428800I2J399D01*
G37*
%LPC*%
G75*
G54D25*
X-286540Y-364640D03*
X-171660Y-277320D03*
X-149340Y-278660D03*
X-254940Y-327560D03*
X-138180Y-279330D03*
G54D23*
X-211230Y-265860D03*
X-219890Y-260860D03*
X-193910Y-275860D03*
X-202570Y-270860D03*
%LPD*%
G75*
G54D10*
X-435000Y-435000D03*
Y435000D03*
X-400000Y-400000D03*
Y400000D03*
X400000Y-400000D03*
Y400000D03*
X435000Y-435000D03*
Y435000D03*
G54D20*
G01X-419880Y-297740D02*
X-425240D01*
X-430000Y-302500D01*
Y-420000D01*
X-415000Y-435000D01*
X-340000D01*
X-332500Y-427500D01*
G01X-419880Y-302850D02*
X-425000Y-307970D01*
Y-417500D01*
X-410000Y-432500D01*
X-357500D01*
X-352500Y-427500D01*
G01X-362500D02*
X-407500D01*
X-420000Y-415000D01*
Y-311210D01*
X-414200Y-305410D01*
X-410180D01*
G01X-312500Y-427500D02*
Y-407500D01*
X-317500Y-402500D01*
X-325000D01*
X-332500Y-395000D01*
Y-360000D01*
X-336700Y-355800D01*
X-384200D01*
X-390000Y-350000D01*
Y-291200D01*
X-390800Y-290400D01*
X-417660D01*
X-419880Y-292620D01*
G01X-410180Y-295180D02*
X-402320D01*
X-397500Y-300000D01*
Y-355000D01*
X-382500Y-370000D01*
X-351600D01*
X-337500Y-384100D01*
Y-412500D01*
X-332500Y-417500D01*
X-325000D01*
X-322500Y-420000D01*
Y-427500D01*
G01X-342500D02*
Y-392500D01*
X-360000Y-375000D01*
X-395000D01*
X-402500Y-367500D01*
Y-302500D01*
X-404700Y-300300D01*
X-410180D01*
G01X-345400Y-168600D02*
X-367500Y-190700D01*
Y-333200D01*
X-360600Y-340100D01*
X-326820D01*
X-324660Y-342260D01*
G01X-365700Y32800D02*
X-378710Y19790D01*
Y-329890D01*
X-364240Y-344360D01*
X-323360D01*
X-320800Y-341800D01*
Y-339700D01*
G01X-324660Y-337150D02*
X-352050D01*
X-361100Y-328100D01*
Y-205060D01*
X-332000Y-175960D01*
Y-162800D01*
X-335100Y-159700D01*
X-357900D01*
X-362800Y-154800D01*
Y209000D01*
X-355510Y216290D01*
X-304300D01*
G01X-320800Y-334590D02*
X-317500Y-331290D01*
Y-282500D01*
X-320000Y-280000D01*
X-351700D01*
X-354200Y-277500D01*
Y-219200D01*
X-325000Y-190000D01*
Y-161200D01*
X-332500Y-153700D01*
X-349200D01*
X-352100Y-150800D01*
Y-79300D01*
X-345400Y-72600D01*
Y100200D01*
X-351600Y106400D01*
Y188500D01*
X-346300Y193800D01*
X-309100D01*
X-298800Y204100D01*
Y328700D01*
X-285000Y342500D01*
X-161100D01*
X-155100Y336500D01*
G01X-300000Y50000D02*
X-335860D01*
G01X-302500Y-427500D02*
X-273900D01*
X-272500Y-426100D01*
Y-420000D01*
X-270120Y-417620D01*
X-207380D01*
G01X-292500Y-422500D02*
X-300000Y-415000D01*
Y-342500D01*
X-295530Y-338030D01*
X-281970D01*
G01X-310060Y-347380D02*
X-307280Y-344600D01*
X-307000D01*
X-306200Y-343800D01*
Y-331210D01*
X-302490Y-327500D01*
X-280800D01*
X-274300Y-334000D01*
Y-353200D01*
X-270000Y-357500D01*
X-215000D01*
X-209100Y-363400D01*
Y-409090D01*
X-185690Y-432500D01*
X-107500D01*
X-102500Y-427500D01*
Y-370000D01*
X-99100Y-366600D01*
X-33700D01*
G01X-319940Y-344820D02*
X-315800D01*
X-315000Y-344020D01*
Y-325000D01*
X-310000Y-320000D01*
X-283900D01*
X-271700Y-332200D01*
Y-346500D01*
X-269100Y-349100D01*
X-218000D01*
X-214600Y-345700D01*
Y-316520D01*
X-214820Y-316300D01*
Y-314200D01*
G01X-315860Y-124630D02*
X-297130D01*
G01X-259930Y211230D02*
X-256000Y207300D01*
Y152200D01*
X-266300Y141900D01*
X-288600D01*
X-295600Y134900D01*
Y54300D01*
X-299900Y50000D01*
X-300000D01*
G01D02*
X-295000Y45000D01*
Y-37510D01*
X-285000Y-47510D01*
Y-112500D01*
X-297130Y-124630D01*
G01X-289650Y-345350D02*
X-275000Y-360000D01*
Y-420000D01*
X-277500Y-422500D01*
G01X-282500D02*
X-280000Y-420000D01*
Y-382500D01*
X-292500Y-370000D01*
Y-345000D01*
X-290410Y-342910D01*
X-287090D01*
G01X-287500Y-422500D02*
X-285000Y-420000D01*
Y-385000D01*
X-295000Y-375000D01*
Y-342500D01*
X-292970Y-340470D01*
X-284530D01*
G01X-297130Y-124630D02*
X-296070D01*
X-243900Y-176800D01*
Y-233400D01*
X-246500Y-236000D01*
X-258000D01*
X-273900Y-251900D01*
Y-323800D01*
X-268400Y-329300D01*
Y-342000D01*
X-265600Y-344800D01*
X-226000D01*
X-222900Y-341700D01*
Y-299800D01*
G01X-267500Y-422500D02*
X-265000Y-425000D01*
X-245000D01*
X-242500Y-427500D01*
G01X-204650Y-432970D02*
X-237030D01*
X-242500Y-427500D01*
G01X-252500D02*
Y-432500D01*
X-249470Y-435530D01*
X-195350D01*
G01X-262500Y-422500D02*
X-237500D01*
X-232500Y-427500D01*
G01X368800Y-32100D02*
X370400Y-33700D01*
Y-42000D01*
X367700Y-44700D01*
X351900D01*
X344700Y-51900D01*
Y-80000D01*
X341800Y-82900D01*
X307100D01*
X297500Y-92500D01*
Y-125010D01*
X273100Y-149410D01*
Y-177500D01*
X223100Y-227500D01*
X190000D01*
X124100Y-293400D01*
X-72600D01*
X-74800Y-291200D01*
X-121190D01*
X-167390Y-245000D01*
X-247490D01*
X-259890Y-257400D01*
Y-331190D01*
X-261380Y-332680D01*
G01X301390Y-211300D02*
X298490Y-208400D01*
X282400D01*
X265500Y-225300D01*
Y-228500D01*
X254000Y-240000D01*
X207500D01*
X173900Y-273600D01*
X148900D01*
X124400Y-298100D01*
X-124210D01*
X-172310Y-250000D01*
X-242500D01*
X-250200Y-257700D01*
Y-331860D01*
X-253580Y-335240D01*
X-264670D01*
G01X-261380Y-337800D02*
X-250400D01*
X-245700Y-333100D01*
Y-271400D01*
X-241400Y-267100D01*
X-230200D01*
X-214800Y-282500D01*
X-200110D01*
X-194970Y-287640D01*
X-185630D01*
X-178690Y-280700D01*
X-151890D01*
X-129490Y-303100D01*
X126910D01*
X135010Y-295000D01*
X142980D01*
X161000Y-329870D01*
Y-345500D01*
G01X-264670Y-330120D02*
Y-251060D01*
X-253610Y-240000D01*
X-161690D01*
X-115790Y-285900D01*
X-70400D01*
X-67900Y-288400D01*
X118900D01*
X189800Y-217500D01*
X215000D01*
X260000Y-172500D01*
Y-141390D01*
X285900Y-115490D01*
Y-84200D01*
X299100Y-71000D01*
Y33400D01*
X295000Y37500D01*
Y42950D01*
X299100Y47050D01*
Y128300D01*
X317990Y147190D01*
X325690D01*
X332100Y153600D01*
X334200D01*
G01X-265860Y211230D02*
X-259930D01*
G01X-134630Y333190D02*
X-137640Y336200D01*
X-150800D01*
X-157000Y330000D01*
X-242500D01*
X-250500Y322000D01*
Y259600D01*
X-242400Y251500D01*
Y216600D01*
X-247770Y211230D01*
X-259930D01*
G01X-222500Y-427500D02*
X-220000Y-425000D01*
X-210000D01*
X-207150Y-427850D01*
X-204650D01*
G01X-195350Y-430410D02*
X-229590D01*
X-232500Y-427500D01*
G01X-222900Y-299800D02*
X-220400Y-302300D01*
X-209300D01*
X-204100Y-307500D01*
Y-364600D01*
X-196250Y-372450D01*
Y-379400D01*
G01X-222900Y-299800D02*
Y-289640D01*
X-220220Y-286960D01*
X-221230Y-283190D01*
G01X-50000Y-355860D02*
X-56260Y-349600D01*
X-104600D01*
X-110000Y-355000D01*
Y-400000D01*
X-117500Y-407500D01*
X-186500D01*
X-188800Y-405200D01*
Y-386850D01*
X-196250Y-379400D01*
G01X-117310Y-343190D02*
Y-394800D01*
X-122510Y-400000D01*
X-179040D01*
X-183940Y-404900D01*
G01X-90080Y-334140D02*
X-97500D01*
X-101130Y-337770D01*
X-158900Y-311700D01*
X-169270Y-313190D01*
G01X-85660Y-333350D02*
X-87720Y-339470D01*
X-101520Y-342450D01*
X-153110Y-317180D01*
X-160610Y-318190D01*
G01X-89490Y-329920D02*
X-98980Y-329030D01*
X-102970Y-332330D01*
X-166800Y-305000D01*
X-177930Y-308190D01*
G01X-50000Y-335860D02*
Y-340700D01*
X-44500Y-346200D01*
X89300D01*
X109500Y-357500D01*
X134100D01*
G01X228500Y290460D02*
Y431500D01*
X217500Y442500D01*
X62500D01*
X50000Y430000D01*
Y355860D01*
G01X134630Y-333190D02*
Y-356970D01*
X134100Y-357500D01*
G01X283190Y-221230D02*
Y-336510D01*
X277300Y-342400D01*
X200000D01*
X184900Y-357500D01*
X134100D01*
G01X228500Y290460D02*
X221230Y283190D01*
G01X228500Y290460D02*
X367040D01*
X390000Y267500D01*
Y142930D01*
X381700Y134630D01*
G01X384000Y-50000D02*
X385000D01*
X390000Y-55000D01*
Y-217500D01*
X380000Y-227500D01*
X289460D01*
X283190Y-221230D01*
G01X384000Y-50000D02*
X355860D01*
G01X381700Y134630D02*
X333190D01*
G01X384000Y-50000D02*
X390000Y-44000D01*
Y126900D01*
X382270Y134630D01*
X381700D01*
G54D11*
X-435000Y-400000D03*
Y-420000D03*
Y-410000D03*
X-427500Y-375000D03*
Y-365000D03*
X-435000Y-370000D03*
Y-380000D03*
Y-390000D03*
X-427500Y-345000D03*
Y-355000D03*
Y-335000D03*
X-435000Y-340000D03*
Y-360000D03*
Y-350000D03*
X-427500Y-315000D03*
Y-325000D03*
X-419880Y-302850D03*
X-435000Y-310000D03*
Y-320000D03*
Y-330000D03*
X-422500Y-287500D03*
X-419880Y-292620D03*
Y-297740D03*
X-435000Y-280000D03*
Y-300000D03*
Y-290000D03*
X-420000Y-260000D03*
Y-270000D03*
Y-250000D03*
X-435000D03*
Y-260000D03*
Y-270000D03*
X-420000Y-230000D03*
Y-240000D03*
Y-220000D03*
X-435000D03*
Y-240000D03*
Y-230000D03*
X-420000Y-210000D03*
Y-200000D03*
Y-190000D03*
X-435000D03*
Y-200000D03*
Y-210000D03*
X-420000Y-170000D03*
Y-180000D03*
Y-160000D03*
X-435000D03*
Y-180000D03*
Y-170000D03*
X-420000Y-130000D03*
Y-140000D03*
Y-150000D03*
X-435000Y-130000D03*
Y-140000D03*
Y-150000D03*
X-420000Y-100000D03*
Y-110000D03*
Y-120000D03*
X-435000Y-100000D03*
Y-120000D03*
Y-110000D03*
X-420000Y-80000D03*
Y-70000D03*
Y-90000D03*
X-435000Y-70000D03*
Y-80000D03*
Y-90000D03*
X-420000Y-40000D03*
Y-50000D03*
Y-60000D03*
X-435000Y-40000D03*
Y-60000D03*
Y-50000D03*
X-420000Y-10000D03*
Y-20000D03*
Y-30000D03*
X-435000Y-10000D03*
Y-20000D03*
Y-30000D03*
X-420000Y0D03*
Y20000D03*
Y10000D03*
X-435000Y20000D03*
Y0D03*
Y10000D03*
X-420000Y30000D03*
Y50000D03*
Y40000D03*
X-435000Y50000D03*
Y40000D03*
Y30000D03*
X-420000Y60000D03*
Y80000D03*
Y70000D03*
X-435000Y80000D03*
Y60000D03*
Y70000D03*
X-420000Y90000D03*
Y110000D03*
Y100000D03*
X-435000Y110000D03*
Y100000D03*
Y90000D03*
X-420000Y130000D03*
Y120000D03*
Y140000D03*
X-435000D03*
Y120000D03*
Y130000D03*
X-420000Y160000D03*
Y150000D03*
Y170000D03*
X-435000D03*
Y160000D03*
Y150000D03*
X-420000Y180000D03*
Y190000D03*
Y200000D03*
X-435000D03*
Y180000D03*
Y190000D03*
X-420000Y220000D03*
Y210000D03*
Y230000D03*
X-435000D03*
Y220000D03*
Y210000D03*
X-420000Y260000D03*
Y250000D03*
Y240000D03*
X-435000Y260000D03*
Y240000D03*
Y250000D03*
X-420000Y290000D03*
Y280000D03*
Y270000D03*
X-435000Y290000D03*
Y280000D03*
Y270000D03*
X-420000Y310000D03*
Y320000D03*
Y300000D03*
X-435000Y320000D03*
Y300000D03*
Y310000D03*
X-420000Y350000D03*
Y340000D03*
Y330000D03*
X-435000Y350000D03*
Y340000D03*
Y330000D03*
X-420000Y370000D03*
Y360000D03*
X-435000Y380000D03*
Y360000D03*
Y370000D03*
Y410000D03*
Y400000D03*
Y390000D03*
Y430000D03*
Y420000D03*
X-407500Y-440000D03*
X-397500D03*
X-405000Y-425000D03*
X-395000D03*
X-417500Y-447500D03*
X-407500D03*
X-397500D03*
X-392500Y-317500D03*
X-405000Y-312500D03*
X-410180Y-305410D03*
X-392950Y-280000D03*
X-400450Y-287500D03*
X-397380Y-292620D03*
X-410180Y-295180D03*
Y-300300D03*
X-412500Y-220000D03*
X-405000Y-210000D03*
Y-200000D03*
Y-190000D03*
X-395000Y-210000D03*
Y-200000D03*
Y-190000D03*
X-412500Y-200000D03*
Y-190000D03*
Y-210000D03*
X-405000Y-180000D03*
Y-170000D03*
Y-160000D03*
X-395000Y-180000D03*
Y-170000D03*
Y-160000D03*
X-412500Y-180000D03*
Y-160000D03*
Y-170000D03*
X-405000Y-140000D03*
Y-130000D03*
X-395000Y-140000D03*
Y-130000D03*
X-405000Y-150000D03*
X-395000D03*
X-412500D03*
Y-140000D03*
Y-130000D03*
X-405000Y-110000D03*
Y-120000D03*
Y-100000D03*
X-395000Y-110000D03*
Y-120000D03*
Y-100000D03*
X-412500Y-120000D03*
Y-110000D03*
Y-100000D03*
X-405000Y-70000D03*
X-395000D03*
X-405000Y-80000D03*
Y-90000D03*
X-395000Y-80000D03*
Y-90000D03*
X-412500Y-80000D03*
Y-70000D03*
Y-90000D03*
X-405000Y-60000D03*
Y-40000D03*
Y-50000D03*
X-395000Y-60000D03*
Y-40000D03*
Y-50000D03*
X-412500Y-60000D03*
Y-40000D03*
Y-50000D03*
X-405000Y-30000D03*
Y-10000D03*
Y-20000D03*
X-395000Y-30000D03*
Y-10000D03*
Y-20000D03*
X-412500Y-30000D03*
Y-20000D03*
Y-10000D03*
X-405000Y0D03*
Y10000D03*
Y20000D03*
X-395000Y0D03*
Y10000D03*
Y20000D03*
X-412500Y0D03*
Y10000D03*
Y20000D03*
X-405000Y30000D03*
Y40000D03*
Y50000D03*
X-395000Y30000D03*
Y40000D03*
Y50000D03*
X-412500Y40000D03*
Y50000D03*
Y30000D03*
X-405000Y70000D03*
Y80000D03*
X-395000Y70000D03*
Y80000D03*
X-405000Y60000D03*
X-395000D03*
X-412500D03*
Y80000D03*
Y70000D03*
X-405000Y100000D03*
Y90000D03*
Y110000D03*
X-395000Y100000D03*
Y90000D03*
Y110000D03*
X-412500Y90000D03*
Y100000D03*
Y110000D03*
X-395000Y140000D03*
X-405000D03*
Y130000D03*
Y120000D03*
X-395000Y130000D03*
Y120000D03*
X-412500D03*
Y130000D03*
Y140000D03*
X-395000Y150000D03*
Y170000D03*
Y160000D03*
X-405000Y150000D03*
Y170000D03*
Y160000D03*
X-412500D03*
Y170000D03*
Y150000D03*
X-395000Y180000D03*
Y200000D03*
Y190000D03*
X-405000Y180000D03*
Y200000D03*
Y190000D03*
X-412500Y180000D03*
Y200000D03*
Y190000D03*
Y210000D03*
X-403710Y236290D03*
X-391210D03*
X-389570Y250430D03*
X-396640Y243360D03*
X-389570Y267930D03*
X-403710Y253790D03*
X-396640Y260860D03*
X-402500Y287500D03*
Y297500D03*
X-395000Y287500D03*
Y297500D03*
X-402500Y317500D03*
Y307500D03*
Y327500D03*
X-395000Y317500D03*
Y307500D03*
Y327500D03*
X-402500Y347500D03*
Y337500D03*
X-395000Y347500D03*
Y337500D03*
X-387500Y-440000D03*
X-377500D03*
X-385000Y-425000D03*
X-375000D03*
X-362500Y-442500D03*
Y-427500D03*
X-387500Y-447500D03*
X-377500D03*
X-367500D03*
X-372500Y-405000D03*
Y-415000D03*
Y-395000D03*
Y-385000D03*
X-382500Y-346460D03*
X-386250Y-343900D03*
X-382500Y-341340D03*
X-386250Y-338780D03*
X-382500Y-336220D03*
X-386250Y-333660D03*
X-382500Y-331100D03*
X-386250Y-328540D03*
X-382500Y-215000D03*
X-370000D03*
X-382500Y-205000D03*
Y-185000D03*
Y-195000D03*
X-370000Y-205000D03*
Y-185000D03*
Y-195000D03*
X-382500Y-175000D03*
Y-155000D03*
Y-165000D03*
X-370000Y-175000D03*
Y-155000D03*
Y-165000D03*
Y-145000D03*
Y-135000D03*
Y-125000D03*
X-382500Y-145000D03*
Y-135000D03*
Y-125000D03*
X-370000Y-115000D03*
Y-105000D03*
Y-95000D03*
X-382500Y-115000D03*
Y-105000D03*
Y-95000D03*
X-370000Y-85000D03*
X-382500D03*
X-372400Y15300D03*
X-365700Y32800D03*
X-380000Y82500D03*
X-375000D03*
X-370000D03*
X-380000Y102500D03*
Y112500D03*
Y92500D03*
X-375000Y102500D03*
Y112500D03*
Y92500D03*
X-370000Y102500D03*
Y112500D03*
Y92500D03*
X-377500Y145000D03*
X-370000D03*
X-377500Y155000D03*
Y175000D03*
Y165000D03*
X-370000Y155000D03*
Y175000D03*
Y165000D03*
X-377500Y185000D03*
Y205000D03*
Y195000D03*
X-370000Y185000D03*
Y205000D03*
Y195000D03*
X-381210Y228790D03*
X-374140Y235860D03*
X-382500Y257500D03*
X-377070Y250430D03*
X-370000Y257500D03*
X-384140Y243360D03*
X-367070Y242930D03*
X-360000Y250000D03*
X-382500Y275000D03*
X-352500Y-442500D03*
X-342500D03*
X-332500D03*
Y-427500D03*
X-342500D03*
X-352500D03*
X-347500Y-447500D03*
X-340000D03*
X-330000D03*
X-357500D03*
X-347500Y-362500D03*
X-337500D03*
X-332560Y-349940D03*
X-333140Y-312340D03*
X-338750Y-308840D03*
X-342500Y-311400D03*
X-338750Y-313960D03*
X-347500Y-275000D03*
X-340000D03*
X-332500D03*
X-342500Y-296040D03*
X-347500Y-255000D03*
Y-245000D03*
Y-265000D03*
X-340000Y-255000D03*
Y-245000D03*
Y-265000D03*
X-332500Y-255000D03*
Y-245000D03*
Y-265000D03*
X-340000Y-174950D03*
X-345400Y-168600D03*
X-357500Y82500D03*
Y102500D03*
Y112500D03*
Y92500D03*
Y145000D03*
Y155000D03*
Y175000D03*
Y165000D03*
X-342500D03*
Y155000D03*
Y175000D03*
X-357500Y185000D03*
Y205000D03*
Y195000D03*
X-342500Y185000D03*
X-347500Y230000D03*
X-337500D03*
X-347500Y237500D03*
X-337500D03*
X-347500Y220000D03*
X-337500D03*
X-347500Y245000D03*
X-337500D03*
X-347500Y262500D03*
X-337500D03*
X-330000Y350000D03*
X-340000D03*
X-330000Y360000D03*
X-340000D03*
X-330000Y370000D03*
X-340000D03*
X-330000Y380000D03*
X-340000D03*
X-330000Y390000D03*
X-340000D03*
X-330000Y400000D03*
X-340000D03*
X-330000Y410000D03*
X-340000D03*
X-322500Y-442500D03*
X-312500D03*
X-302500D03*
X-312500Y-427500D03*
X-322500D03*
X-307500Y-422500D03*
X-302500Y-427500D03*
X-320000Y-447500D03*
X-310000D03*
X-300000D03*
X-302500Y-385690D03*
X-327500Y-362500D03*
X-317500D03*
X-307500D03*
X-327500Y-385690D03*
X-322500D03*
X-312500D03*
X-307500D03*
X-317500D03*
X-319940Y-349940D03*
X-302440Y-334940D03*
X-327620Y-347380D03*
X-299880Y-332380D03*
X-302440Y-342560D03*
X-310060Y-347380D03*
X-319940Y-344820D03*
X-324660Y-342260D03*
X-320800Y-339700D03*
X-324660Y-337150D03*
X-320800Y-334590D03*
X-324660Y-332030D03*
X-321910Y-326910D03*
X-309200Y-329470D03*
X-325000Y-275000D03*
X-298960Y-277500D03*
X-325000Y-255000D03*
Y-245000D03*
Y-265000D03*
Y-227500D03*
Y-217500D03*
X-310000Y-227500D03*
Y-217500D03*
X-320000Y-207500D03*
Y-187500D03*
Y-197500D03*
X-315000Y-207500D03*
Y-187500D03*
Y-197500D03*
X-325000Y-207500D03*
Y-197500D03*
X-310000Y-207500D03*
Y-197500D03*
X-320000Y-177500D03*
X-315000D03*
X-301000Y-40000D03*
X-316000Y-10000D03*
X-311000Y-20000D03*
X-306000Y-30000D03*
X-326000Y10000D03*
X-321000Y0D03*
X-319060Y205800D03*
X-327500Y230000D03*
X-317500D03*
X-327500Y237500D03*
X-317500D03*
X-327500Y220000D03*
X-317500D03*
X-304300Y216290D03*
X-327500Y245000D03*
X-317500D03*
X-327500Y262500D03*
X-317500D03*
X-305000Y272500D03*
Y282500D03*
Y292500D03*
X-315000Y272500D03*
Y282500D03*
Y292500D03*
X-325000Y272500D03*
Y282500D03*
Y292500D03*
X-305000Y302500D03*
Y312500D03*
Y322500D03*
X-315000Y302500D03*
Y312500D03*
Y322500D03*
X-325000Y302500D03*
Y312500D03*
Y322500D03*
X-300000Y350000D03*
X-310000D03*
X-320000D03*
X-305000Y332500D03*
X-315000D03*
X-325000D03*
X-300000Y360000D03*
X-310000D03*
X-320000D03*
X-300000Y370000D03*
X-310000D03*
X-320000D03*
X-300000Y380000D03*
X-310000D03*
X-320000D03*
X-300000Y390000D03*
X-310000D03*
X-320000D03*
X-300000Y400000D03*
X-310000D03*
X-320000D03*
X-300000Y410000D03*
X-310000D03*
X-320000D03*
X-292500Y-442500D03*
X-282500D03*
X-272500D03*
X-277500Y-422500D03*
X-282500D03*
X-287500D03*
X-292500D03*
X-297500D03*
X-290000Y-447500D03*
X-280000D03*
X-270000D03*
X-297500Y-385690D03*
X-292500D03*
X-287500D03*
X-282500D03*
X-277500D03*
X-272500D03*
X-297500Y-362500D03*
X-286540Y-364640D03*
X-277500Y-335000D03*
Y-345000D03*
X-289650Y-345350D03*
X-287090Y-342910D03*
X-284530Y-340470D03*
X-281970Y-338030D03*
X-270000Y-320000D03*
X-296400Y-273750D03*
X-293840Y-277500D03*
X-291280Y-273750D03*
X-287320Y-154340D03*
X-268660Y-166660D03*
X-277990Y-160500D03*
X-296000Y-50000D03*
X-291000Y-60000D03*
X-280670Y115860D03*
X-281340Y104700D03*
X-282010Y93540D03*
X-278660Y149340D03*
X-279330Y138180D03*
X-280000Y127020D03*
X-277320Y171660D03*
X-277990Y160500D03*
X-280000Y272500D03*
Y282500D03*
Y292500D03*
X-270000Y272500D03*
Y282500D03*
Y292500D03*
X-280000Y302500D03*
Y312500D03*
Y322500D03*
X-270000Y302500D03*
Y312500D03*
Y322500D03*
X-280000Y350000D03*
X-270000D03*
X-290000D03*
X-280000Y332500D03*
X-270000D03*
X-280000Y360000D03*
X-270000D03*
X-290000D03*
X-280000Y370000D03*
X-270000D03*
X-290000D03*
X-280000Y380000D03*
X-270000D03*
X-290000D03*
X-280000Y390000D03*
X-270000D03*
X-290000D03*
X-280000Y400000D03*
X-270000D03*
X-290000D03*
X-280000Y410000D03*
X-270000D03*
X-290000D03*
X-262500Y-442500D03*
X-252500D03*
X-242500D03*
X-262500Y-422500D03*
X-267500D03*
X-242500Y-427500D03*
X-252500D03*
X-240000Y-447500D03*
X-260000D03*
X-250000D03*
X-242500Y-377500D03*
Y-385690D03*
X-267500D03*
X-262500D03*
X-257500D03*
X-252500D03*
X-247500D03*
X-242500Y-362500D03*
X-265650Y-353150D03*
X-247950Y-354550D03*
X-261380Y-332680D03*
X-264670Y-335240D03*
X-261380Y-337800D03*
X-242620Y-330120D03*
X-254940Y-327560D03*
X-264670Y-330120D03*
X-240670Y-185140D03*
X-259330Y-172820D03*
X-250000Y-178980D03*
X-260000Y272500D03*
Y282500D03*
Y292500D03*
Y302500D03*
Y312500D03*
Y322500D03*
Y350000D03*
Y332500D03*
Y360000D03*
Y370000D03*
Y380000D03*
X-242500Y365000D03*
Y375000D03*
Y385000D03*
X-260000Y390000D03*
Y400000D03*
Y410000D03*
X-242500Y395000D03*
Y405000D03*
Y415000D03*
Y425000D03*
X-212500Y-442500D03*
X-232500D03*
X-222500D03*
Y-427500D03*
X-232500D03*
X-212500D03*
X-230000Y-447500D03*
X-220000D03*
X-210000D03*
X-217500Y-397500D03*
Y-407500D03*
X-225000Y-397500D03*
Y-407500D03*
X-237500Y-412500D03*
X-217500Y-377500D03*
Y-387500D03*
X-225000Y-377500D03*
Y-387500D03*
X-214820Y-314200D03*
X-231340Y-191300D03*
X-222010Y-197460D03*
X-227500Y365000D03*
Y375000D03*
Y385000D03*
X-217500Y365000D03*
Y375000D03*
Y385000D03*
X-227500Y395000D03*
Y405000D03*
Y415000D03*
X-217500Y395000D03*
Y405000D03*
Y415000D03*
X-227500Y425000D03*
X-217500D03*
X-185000Y-440000D03*
X-192500Y-437500D03*
X-204650Y-427850D03*
X-195350Y-430410D03*
X-204650Y-432970D03*
X-195350Y-435530D03*
X-200000Y-447500D03*
X-190000D03*
X-180000D03*
X-184880Y-417620D03*
X-183940Y-404900D03*
X-196250Y-399400D03*
X-189900Y-412500D03*
X-195060Y-415060D03*
X-203750Y-399400D03*
X-207380Y-417620D03*
X-189240Y-365200D03*
X-188940Y-374400D03*
X-195100Y-365500D03*
Y-385500D03*
X-196250Y-379400D03*
X-193750Y-351460D03*
X-197500Y-348900D03*
X-193750Y-346340D03*
X-197500Y-343780D03*
Y-333540D03*
X-193750Y-336100D03*
X-197500Y-338660D03*
X-193750Y-341220D03*
X-207600Y-317450D03*
X-191300Y231340D03*
X-197460Y222010D03*
X-178980Y250000D03*
X-185140Y240670D03*
X-207500Y365000D03*
Y375000D03*
Y385000D03*
X-200000Y365000D03*
Y375000D03*
Y385000D03*
X-190000Y365000D03*
Y375000D03*
Y385000D03*
X-182500Y365000D03*
Y375000D03*
Y385000D03*
X-207500Y395000D03*
Y405000D03*
Y415000D03*
X-200000Y395000D03*
Y405000D03*
Y415000D03*
X-190000Y395000D03*
Y405000D03*
Y415000D03*
X-182500Y395000D03*
Y405000D03*
Y415000D03*
X-207500Y425000D03*
X-200000D03*
X-190000D03*
X-182500D03*
X-150000Y-447500D03*
X-170000D03*
X-160000D03*
X-176060Y-395100D03*
X-171700Y-412500D03*
X-176160Y-379300D03*
X-176460Y-360300D03*
X-171660Y-277320D03*
X-149340Y-278660D03*
X-160500Y-277990D03*
X-166660Y268660D03*
X-172820Y259330D03*
X-154340Y287320D03*
X-160500Y277990D03*
X-174130Y335000D03*
X-155100Y336500D03*
X-172500Y365000D03*
Y375000D03*
Y385000D03*
Y395000D03*
Y405000D03*
Y415000D03*
Y425000D03*
X-139240Y-423660D03*
X-142200Y-421100D03*
Y-426220D03*
X-140000Y-447500D03*
X-130000D03*
X-120000D03*
X-140000Y-392500D03*
Y-402500D03*
X-139240Y-418540D03*
X-140000Y-372500D03*
Y-382500D03*
X-138180Y-279330D03*
X-127020Y-280000D03*
X-95000Y-440650D03*
X-90000Y-447500D03*
X-100000D03*
X-110000D03*
X-95700Y-412500D03*
X-90080Y-334140D03*
X-89490Y-329920D03*
X-115860Y-280670D03*
X-104700Y-281340D03*
X-93540Y-282010D03*
X-60000Y-447500D03*
X-70000D03*
X-80000D03*
X-74900Y-412600D03*
X-86720Y-417620D03*
X-85660Y-333350D03*
X-30000Y-426160D03*
Y-431280D03*
Y-436400D03*
Y-421040D03*
Y-447500D03*
X-40000D03*
X-50000D03*
X-33700Y-366600D03*
X-42500Y365000D03*
Y375000D03*
Y385000D03*
Y395000D03*
Y405000D03*
Y415000D03*
Y425000D03*
X-5000Y-430000D03*
Y-422500D03*
X-26250Y-423600D03*
Y-428720D03*
Y-433840D03*
Y-438960D03*
X0Y-447500D03*
X-10000D03*
X-20000D03*
X-5000Y-405000D03*
X-15000Y-395000D03*
X-5000D03*
X-11400Y-370300D03*
X-5000Y-377500D03*
Y-370000D03*
Y-362500D03*
X-15000Y-390000D03*
X-5000D03*
X-15000Y-385000D03*
X-5000D03*
X-10000Y-326000D03*
X0Y-321000D03*
X-25000Y365000D03*
Y375000D03*
Y385000D03*
X-7500Y365000D03*
Y375000D03*
Y385000D03*
X-25000Y395000D03*
Y405000D03*
Y415000D03*
X-7500Y395000D03*
Y405000D03*
Y415000D03*
X-25000Y425000D03*
X-7500D03*
X5000Y-430000D03*
X25000D03*
X15000D03*
X5000Y-422500D03*
X25000D03*
X15000D03*
Y-440000D03*
X25000D03*
X30000Y-447500D03*
X20000D03*
X10000D03*
X5000Y-405000D03*
X25000D03*
X15000D03*
Y-395000D03*
X5000D03*
X25000D03*
X5000Y-377500D03*
X25000D03*
X15000D03*
X5000Y-370000D03*
X25000D03*
X15000D03*
X5000Y-362500D03*
X25000D03*
X15000D03*
Y-390000D03*
X5000D03*
X25000D03*
X15000Y-385000D03*
X5000D03*
X25000D03*
X10000Y-316000D03*
X20000Y-311000D03*
X30000Y-306000D03*
X15900Y377600D03*
X5000Y367500D03*
Y377500D03*
Y387500D03*
Y397500D03*
Y407500D03*
Y417500D03*
Y427500D03*
X35000Y-430000D03*
X55000D03*
X45000D03*
X35000Y-422500D03*
X55000D03*
X45000D03*
X57500Y-440000D03*
X35000D03*
X45000D03*
X60000Y-447500D03*
X50000D03*
X40000D03*
X35000Y-405000D03*
X55000D03*
X45000D03*
X52500Y-395000D03*
X45000D03*
X35000D03*
Y-377500D03*
X55000D03*
X45000D03*
X35000Y-370000D03*
X55000D03*
X45000D03*
X35000Y-362500D03*
X55000D03*
X45000D03*
Y-390000D03*
X35000D03*
X45000Y-385000D03*
X35000D03*
X40000Y-301000D03*
X50000Y-296000D03*
X60000Y-291000D03*
X33200Y370000D03*
X67500Y-430000D03*
X77500D03*
X87500D03*
X67500Y-422500D03*
X77500D03*
X87500D03*
X77500Y-440000D03*
X87500D03*
X67500D03*
X90000Y-447500D03*
X80000D03*
X70000D03*
X67500Y-405000D03*
X77500D03*
X87500D03*
X62500Y-395000D03*
X82500D03*
X72500D03*
X97500Y-430000D03*
X107500D03*
X117500D03*
X97500Y-422500D03*
X107500D03*
X117500D03*
Y-440000D03*
X97500D03*
X107500D03*
X120000Y-447500D03*
X110000D03*
X100000D03*
X97500Y-405000D03*
X107500D03*
X117500D03*
X92500Y-395000D03*
X112500D03*
X102500D03*
X118790Y-386210D03*
X127500Y-430000D03*
Y-422500D03*
X141290Y-431210D03*
X148360Y-424140D03*
X127500Y-440000D03*
X150000Y-447500D03*
X140000D03*
X130000D03*
X127500Y-405000D03*
X132930Y-372070D03*
X140000Y-365000D03*
X125860Y-379140D03*
X140430Y-372070D03*
X147500Y-365000D03*
X126290Y-386210D03*
X133360Y-379140D03*
X149990Y-340200D03*
X140000Y360000D03*
X130000D03*
X150000D03*
X140000Y370000D03*
X130000D03*
X150000D03*
Y380000D03*
X140000D03*
X150000Y390000D03*
X140000D03*
X150000Y400000D03*
X140000D03*
X156290Y-433710D03*
X163360Y-426640D03*
X180000Y-447500D03*
X170000D03*
X160000D03*
X167500Y-395000D03*
X177500D03*
X155430Y-417070D03*
X162500Y-410000D03*
X170430Y-419570D03*
X177500Y-412500D03*
X167500Y-385000D03*
Y-365000D03*
Y-375000D03*
X177500Y-385000D03*
Y-365000D03*
Y-375000D03*
X176290Y-337200D03*
X161000Y-345500D03*
X154340Y-287320D03*
X160500Y-277990D03*
X166660Y-268660D03*
X172820Y-259330D03*
X178980Y-250000D03*
X155000Y340000D03*
X165000D03*
X175000D03*
X155000Y332500D03*
X165000D03*
X175000D03*
X170000Y360000D03*
X160000D03*
X180000D03*
X170000Y370000D03*
X160000D03*
X180000D03*
Y380000D03*
X170000D03*
X160000D03*
X180000Y390000D03*
X170000D03*
X160000D03*
X180000Y400000D03*
X170000D03*
X160000D03*
X210000Y-440000D03*
Y-430000D03*
X190000D03*
X210000Y-447500D03*
X200000D03*
X190000D03*
Y-420000D03*
Y-400000D03*
Y-410000D03*
X205000Y-400000D03*
X209700Y-366500D03*
X190000Y-390000D03*
Y-370000D03*
Y-380000D03*
X205000Y-390000D03*
Y-370000D03*
Y-380000D03*
X185140Y-240670D03*
X191300Y-231340D03*
X197460Y-222010D03*
X202300Y319700D03*
X185000Y340000D03*
X195000D03*
X205000D03*
X185000Y332500D03*
X195000D03*
X205000D03*
X190000Y360000D03*
X200000D03*
X210000D03*
X190000Y370000D03*
X200000D03*
X210000D03*
X200000Y380000D03*
X210000D03*
X190000D03*
X200000Y390000D03*
X210000D03*
X190000D03*
X200000Y400000D03*
X210000D03*
X190000D03*
X220000Y-440000D03*
X240000D03*
X230000D03*
Y-430000D03*
X240000D03*
X220000D03*
X240000Y-447500D03*
X230000D03*
X220000D03*
X214100Y-379900D03*
X234800Y-362100D03*
Y-364600D03*
X237300Y-362100D03*
Y-364600D03*
X239800Y-362100D03*
Y-364600D03*
X212900Y-352900D03*
X234800Y-352100D03*
Y-354600D03*
Y-357100D03*
Y-359600D03*
X237300Y-352100D03*
Y-354600D03*
Y-357100D03*
Y-359600D03*
X239800Y-352100D03*
Y-354600D03*
Y-357100D03*
Y-359600D03*
X235430Y-309570D03*
X242500Y-302500D03*
X221290Y-323710D03*
X228360Y-316640D03*
X240670Y185140D03*
X231340Y191300D03*
X222010Y197460D03*
X218300Y310800D03*
X215000Y340000D03*
Y332500D03*
X240000Y370000D03*
Y380000D03*
Y360000D03*
X220000Y380000D03*
X240000Y410000D03*
Y400000D03*
Y390000D03*
X220000D03*
Y400000D03*
X240000Y440000D03*
Y430000D03*
Y420000D03*
X250000Y-440000D03*
X270000D03*
X260000D03*
Y-430000D03*
X270000D03*
X250000D03*
X270000Y-447500D03*
X260000D03*
X250000D03*
X252900Y-383600D03*
X255400D03*
X257900D03*
X260400D03*
X262900D03*
X265400D03*
X252900Y-381100D03*
X255400D03*
X257900D03*
X260400D03*
X262900D03*
X265400D03*
X252900Y-378600D03*
X255400D03*
X257900D03*
X260400D03*
X262900D03*
X265400D03*
X260700Y-347900D03*
X254940Y-306900D03*
X259600Y-321300D03*
Y-330800D03*
X259800Y-296600D03*
X268660Y166660D03*
X259330Y172820D03*
X250000Y178980D03*
X267930Y265430D03*
X253790Y251290D03*
X260860Y258360D03*
X265000Y320000D03*
X245000D03*
X255000D03*
X265000Y310000D03*
X245000D03*
X255000D03*
X265000Y340000D03*
X245000D03*
X255000D03*
X265000Y330000D03*
X245000D03*
X255000D03*
X270000Y370000D03*
X260000D03*
X250000D03*
Y380000D03*
X260000D03*
X270000D03*
X250000Y360000D03*
X260000D03*
X270000D03*
X250000Y410000D03*
X260000D03*
X270000D03*
X250000Y400000D03*
X260000D03*
X270000D03*
X250000Y390000D03*
X260000D03*
X270000D03*
Y440000D03*
X260000D03*
X250000D03*
X270000Y430000D03*
X260000D03*
X250000D03*
Y420000D03*
X260000D03*
X270000D03*
X280000Y-440000D03*
X300000D03*
X290000D03*
Y-430000D03*
X300000D03*
X280000D03*
X300000Y-447500D03*
X290000D03*
X280000D03*
X297500Y-400000D03*
X295000D03*
X292500D03*
X290000D03*
X287500D03*
X285000D03*
X297500Y-402500D03*
X295000D03*
X292500D03*
X290000D03*
X287500D03*
X285000D03*
X297500Y-405000D03*
X295000D03*
X292500D03*
X290000D03*
X287500D03*
X285000D03*
X280000Y-380000D03*
X300000D03*
X290000D03*
X280000Y-390000D03*
X300000D03*
X290000D03*
X290100Y-363200D03*
Y-365700D03*
Y-368200D03*
Y-370700D03*
X292600Y-363200D03*
Y-365700D03*
Y-368200D03*
Y-370700D03*
X295100Y-363200D03*
Y-365700D03*
Y-368200D03*
Y-370700D03*
X297800Y-331700D03*
X300300D03*
X290100Y-360700D03*
X292600D03*
X295100D03*
Y-358200D03*
X292600D03*
X290100D03*
X297800Y-305500D03*
X300300D03*
X297800Y-303000D03*
X300300D03*
X297800Y-313900D03*
X300300D03*
X297800Y-311400D03*
X300300D03*
X297800Y-308900D03*
X300300D03*
X297700Y-322800D03*
X300200D03*
X297700Y-320300D03*
X300200D03*
X297700Y-317800D03*
X300200D03*
X297800Y-329200D03*
X300300D03*
X297800Y-326700D03*
X300300D03*
X297800Y-300500D03*
X300300D03*
X300000Y-280000D03*
Y-270000D03*
X301390Y-211300D03*
X277320Y-171660D03*
X277990Y-160500D03*
X278660Y-149340D03*
X279330Y-138180D03*
X280000Y-127020D03*
X280670Y-115860D03*
X281340Y-104700D03*
X282010Y-93540D03*
X301000Y40000D03*
X296000Y50000D03*
X291000Y60000D03*
X287320Y154340D03*
X277990Y160500D03*
X292500Y235000D03*
Y242500D03*
X300000Y262500D03*
Y282500D03*
Y272500D03*
X275000D03*
X292100Y273600D03*
X300000Y320000D03*
Y310000D03*
X275000Y320000D03*
Y310000D03*
X292100Y315500D03*
X300000Y340000D03*
Y330000D03*
X275000Y340000D03*
Y330000D03*
X300000Y370000D03*
X290000D03*
X280000D03*
Y380000D03*
X290000D03*
X300000D03*
X280000Y360000D03*
X290000D03*
X300000D03*
X280000Y410000D03*
X290000D03*
X300000D03*
X280000Y400000D03*
X290000D03*
X300000D03*
X280000Y390000D03*
X290000D03*
X300000D03*
Y440000D03*
X290000D03*
X280000D03*
X300000Y430000D03*
X290000D03*
X280000D03*
Y420000D03*
X290000D03*
X300000D03*
X310000Y-440000D03*
X330000D03*
X320000D03*
X330000Y-447500D03*
X320000D03*
X310000D03*
Y-380000D03*
X330000D03*
X320000D03*
X310000Y-390000D03*
X330000D03*
X320000D03*
X302800Y-331700D03*
X305300D03*
X307800D03*
X310300D03*
X302800Y-305500D03*
X305300D03*
X307800D03*
X310300D03*
X302800Y-303000D03*
X305300D03*
X307800D03*
X310300D03*
X302800Y-313900D03*
X305300D03*
X307800D03*
X310300D03*
X302800Y-311400D03*
X305300D03*
X307800D03*
X310300D03*
X302800Y-308900D03*
X305300D03*
X307800D03*
X310300D03*
X302700Y-322800D03*
X305200D03*
X307700D03*
X310200D03*
X302700Y-320300D03*
X305200D03*
X307700D03*
X310200D03*
X302700Y-317800D03*
X305200D03*
X307700D03*
X310200D03*
X302800Y-329200D03*
X305300D03*
X307800D03*
X310300D03*
X302800Y-326700D03*
X305300D03*
X307800D03*
X310300D03*
X302800Y-300500D03*
X305300D03*
X307800D03*
X310300D03*
X310000Y-280000D03*
X330000D03*
X320000D03*
X310000Y-270000D03*
X330000D03*
X320000D03*
X310000Y-242500D03*
X320000D03*
X330000D03*
X310000Y-235000D03*
X320000D03*
X330000D03*
X309940Y-223180D03*
X320800Y-208170D03*
X326290Y-201210D03*
X331290Y-188710D03*
X326000Y-10000D03*
X316000Y10000D03*
X311000Y20000D03*
X321000Y0D03*
X306000Y30000D03*
X302500Y235000D03*
X322500D03*
X312500D03*
X302500Y242500D03*
X322500D03*
X312500D03*
X310000Y262500D03*
X330000D03*
X320000D03*
X310000Y282500D03*
X330000D03*
X320000D03*
X310000Y272500D03*
X330000D03*
X320000D03*
X310000Y320000D03*
X330000D03*
X320000D03*
X310000Y310000D03*
X330000D03*
X320000D03*
X310000Y340000D03*
X330000D03*
X320000D03*
X310000Y330000D03*
X330000D03*
X320000D03*
X330000Y370000D03*
X320000D03*
X310000D03*
Y380000D03*
X320000D03*
X330000D03*
X310000Y360000D03*
X320000D03*
X330000D03*
X310000Y410000D03*
X320000D03*
X330000D03*
X310000Y400000D03*
X320000D03*
X330000D03*
X310000Y390000D03*
X320000D03*
X330000D03*
Y440000D03*
X320000D03*
X310000D03*
X330000Y430000D03*
X320000D03*
X310000D03*
Y420000D03*
X320000D03*
X330000D03*
X360000Y-447500D03*
X350000D03*
X340000D03*
Y-380000D03*
X360000D03*
X350000D03*
X340000Y-390000D03*
X360000D03*
X350000D03*
X340000Y-280000D03*
X360000D03*
X350000D03*
X340000Y-270000D03*
X360000D03*
X350000D03*
X340000Y-242500D03*
X350000D03*
X360000D03*
X340000Y-235000D03*
X350000D03*
X360000D03*
X340430Y-187070D03*
X347500Y-180000D03*
X333360Y-194140D03*
X338360Y-181640D03*
X345430Y-174570D03*
X352500Y-167500D03*
X345000Y80000D03*
X355000Y85000D03*
X345000Y90000D03*
Y110000D03*
Y100000D03*
X355000Y95000D03*
Y115000D03*
Y105000D03*
X339160Y172600D03*
X360000Y162500D03*
Y172500D03*
X352500Y162500D03*
Y172500D03*
X334200Y153600D03*
X360000Y192500D03*
Y182500D03*
Y202500D03*
X352500Y192500D03*
Y182500D03*
Y202500D03*
X360000Y222500D03*
Y212500D03*
X352500Y222500D03*
Y212500D03*
X332500Y235000D03*
X352500D03*
X342500D03*
X332500Y242500D03*
X352500D03*
X342500D03*
X340000Y262500D03*
X360000D03*
X350000D03*
X340000Y282500D03*
X360000D03*
X350000D03*
X340000Y272500D03*
X360000D03*
X350000D03*
X340000Y320000D03*
X360000D03*
X350000D03*
X340000Y310000D03*
X360000D03*
X350000D03*
X340000Y340000D03*
X360000D03*
X350000D03*
X340000Y330000D03*
X360000D03*
X350000D03*
X360000Y370000D03*
X350000D03*
X340000D03*
Y380000D03*
X350000D03*
X360000D03*
X340000Y360000D03*
X350000D03*
X360000D03*
X340000Y410000D03*
X350000D03*
X360000D03*
X340000Y400000D03*
X350000D03*
X360000D03*
X340000Y390000D03*
X350000D03*
X360000D03*
Y440000D03*
X350000D03*
X340000D03*
X360000Y430000D03*
X350000D03*
X340000D03*
Y420000D03*
X350000D03*
X360000D03*
X390000Y-447500D03*
X380000D03*
X370000D03*
Y-380000D03*
Y-390000D03*
Y-242500D03*
X380000Y-212500D03*
X370000Y-235000D03*
X380000Y-202500D03*
Y-182500D03*
Y-192500D03*
X367500Y-207500D03*
Y-197500D03*
Y-187500D03*
X380000Y-172500D03*
Y-152500D03*
Y-162500D03*
X367500Y-177500D03*
Y-167500D03*
Y-157500D03*
X380000Y-142500D03*
Y-132500D03*
Y-122500D03*
X367500Y-140000D03*
Y-130000D03*
Y-147500D03*
X380000Y-112500D03*
Y-102500D03*
Y-92500D03*
X367500Y-110000D03*
Y-120000D03*
Y-100000D03*
X380000Y-82500D03*
X367500Y-80000D03*
Y-90000D03*
X368800Y-32100D03*
X365980Y-39730D03*
X376500Y-15500D03*
X377500Y10000D03*
Y20000D03*
X365000Y12500D03*
Y2500D03*
Y22500D03*
X377500Y40000D03*
Y30000D03*
Y50000D03*
X365000Y52500D03*
Y42500D03*
Y32500D03*
X377500Y70000D03*
Y60000D03*
X365000Y72500D03*
Y62500D03*
X377500Y150000D03*
Y160000D03*
Y170000D03*
Y180000D03*
Y190000D03*
Y200000D03*
Y210000D03*
X382500Y237500D03*
X375000Y252500D03*
Y242500D03*
Y262500D03*
X382500Y247500D03*
Y267500D03*
Y257500D03*
X375000Y272500D03*
X370000Y320000D03*
X380000D03*
X370000Y310000D03*
X380000D03*
X370000Y340000D03*
X380000D03*
X370000Y330000D03*
X380000D03*
X390000Y370000D03*
X380000D03*
X370000D03*
X390000Y440000D03*
X380000D03*
X370000D03*
X390000Y430000D03*
X380000D03*
X370000D03*
X410000Y-447500D03*
X400000D03*
X420000D03*
X392300Y-320000D03*
X394800D03*
X397300D03*
X399800D03*
X402300D03*
X404800D03*
X392300Y-317500D03*
X394800D03*
X397300D03*
X399800D03*
X402300D03*
X404800D03*
X392300Y-315000D03*
X394800D03*
X397300D03*
X399800D03*
X402300D03*
X404800D03*
X420000Y-250000D03*
X410000D03*
X420000Y-260000D03*
X410000D03*
X420000Y-270000D03*
X410000D03*
X420000Y-220000D03*
X410000D03*
X420000Y-230000D03*
X410000D03*
X420000Y-240000D03*
X410000D03*
X420000Y-190000D03*
X410000D03*
X420000Y-200000D03*
X410000D03*
X420000Y-210000D03*
X410000D03*
X420000Y-170000D03*
X410000D03*
X420000Y-160000D03*
X410000D03*
X420000Y-180000D03*
X410000D03*
X420000Y-130000D03*
X410000D03*
X420000Y-140000D03*
X410000D03*
X420000Y-150000D03*
X410000D03*
X420000Y-100000D03*
X410000D03*
X420000Y-110000D03*
X410000D03*
X420000Y-120000D03*
X410000D03*
X420000Y-70000D03*
X410000D03*
X420000Y-80000D03*
X410000D03*
X420000Y-90000D03*
X410000D03*
Y-40000D03*
X420000D03*
Y-50000D03*
X410000D03*
X420000Y-60000D03*
X410000D03*
Y-30000D03*
X420000D03*
X410000Y-20000D03*
X420000D03*
X410000Y-10000D03*
X420000D03*
X410000Y0D03*
X420000D03*
X410000Y10000D03*
X420000D03*
X410000Y20000D03*
X420000D03*
X410000Y30000D03*
X420000D03*
X410000Y40000D03*
X420000D03*
X410000Y50000D03*
X420000D03*
X410000Y70000D03*
X420000D03*
X410000Y60000D03*
X420000D03*
X410000Y80000D03*
X420000D03*
X410000Y90000D03*
X420000D03*
X410000Y100000D03*
X420000D03*
X410000Y110000D03*
X420000D03*
X410000Y120000D03*
X420000D03*
X410000Y130000D03*
X420000D03*
X410000Y140000D03*
X420000D03*
X410000Y150000D03*
X420000D03*
X410000Y160000D03*
X420000D03*
X410000Y170000D03*
X420000D03*
X410000Y180000D03*
X420000D03*
X410000Y190000D03*
X420000D03*
X410000Y200000D03*
X420000D03*
X410000Y210000D03*
X420000D03*
X410000Y220000D03*
X420000D03*
X410000Y230000D03*
X420000D03*
X397500D03*
X410000Y240000D03*
X420000D03*
X410000Y250000D03*
X420000D03*
X410000Y260000D03*
X420000D03*
X397500Y240000D03*
Y260000D03*
Y250000D03*
X410000Y270000D03*
X420000D03*
X410000Y280000D03*
X420000D03*
Y290000D03*
X410000D03*
Y310000D03*
X420000D03*
X410000Y300000D03*
X420000D03*
X410000Y320000D03*
X420000D03*
X410000Y340000D03*
X420000D03*
X410000Y330000D03*
X420000D03*
X410000Y350000D03*
X420000D03*
X410000Y360000D03*
X420000D03*
X410000Y370000D03*
X400000D03*
X402500Y420000D03*
X410000Y440000D03*
X400000D03*
X410000Y430000D03*
X400000D03*
X422500Y-447500D03*
X435000Y-410000D03*
Y-420000D03*
Y-400000D03*
Y-390000D03*
Y-380000D03*
Y-370000D03*
Y-350000D03*
Y-360000D03*
Y-340000D03*
Y-330000D03*
Y-320000D03*
Y-310000D03*
Y-290000D03*
Y-300000D03*
Y-280000D03*
Y-270000D03*
Y-260000D03*
Y-250000D03*
Y-230000D03*
Y-240000D03*
Y-220000D03*
Y-210000D03*
Y-200000D03*
Y-190000D03*
Y-170000D03*
Y-180000D03*
Y-160000D03*
Y-150000D03*
Y-140000D03*
Y-130000D03*
Y-110000D03*
Y-120000D03*
Y-100000D03*
Y-90000D03*
Y-80000D03*
Y-70000D03*
Y-50000D03*
Y-60000D03*
Y-40000D03*
Y-30000D03*
Y-20000D03*
Y-10000D03*
Y10000D03*
Y0D03*
Y20000D03*
Y30000D03*
Y40000D03*
Y50000D03*
Y70000D03*
Y60000D03*
Y80000D03*
Y90000D03*
Y100000D03*
Y110000D03*
Y130000D03*
Y120000D03*
Y140000D03*
Y150000D03*
Y160000D03*
Y170000D03*
Y190000D03*
Y180000D03*
Y200000D03*
Y210000D03*
Y220000D03*
Y230000D03*
Y250000D03*
Y240000D03*
Y260000D03*
Y270000D03*
Y280000D03*
Y290000D03*
Y310000D03*
Y300000D03*
Y320000D03*
Y330000D03*
Y340000D03*
Y350000D03*
Y370000D03*
Y360000D03*
Y380000D03*
Y390000D03*
Y400000D03*
Y410000D03*
Y420000D03*
Y430000D03*
G54D21*
G01X-460000Y-480000D02*
G03I-15000J5000D01*
G01X-465000D02*
G03I-10000J5000D01*
G01X-495000Y-475000D02*
X-455000D01*
G01X-485000Y500000D02*
Y460000D01*
G01X-470000Y475000D02*
G03I-15000J5000D01*
G01X-475000D02*
G03I-10000J5000D01*
G01X-505000Y480000D02*
X-465000D01*
G01X-475000Y-455000D02*
Y-495000D01*
G01X-450000Y-450000D02*
X450000D01*
Y450000D01*
X-450000D01*
Y-450000D01*
G01X-376500Y-400000D02*
G03I-23500J0D01*
G01Y399930D02*
G03I-23500J2D01*
G01X275000Y0D02*
G03I-275000J0D01*
G01X-78660Y292500D02*
X-153660Y422400D01*
G01X-136340Y432400D02*
G03X-153660Y422400I-8662J-4997D01*
G01X-136340Y432400D02*
X-61340Y302500D01*
G01D02*
G02X-78660Y292500I-8660J-5000D01*
G01X0Y-9000D02*
Y9000D01*
G01Y-9000D02*
Y9000D01*
G01X-9000Y0D02*
X9000D01*
G01X-9000D02*
X9000D01*
G01X76160Y292500D02*
G02X58840Y302500I-8660J5000D01*
G01D02*
X133840Y432400D01*
G01X151160Y422400D02*
X76160Y292500D01*
G01X151160Y422400D02*
G03X133840Y432400I-8658J5003D01*
G01X423500Y-400000D02*
G03I-23500J0D01*
G01Y399930D02*
G03I-23500J2D01*
G01X480000Y-450000D02*
Y-490000D01*
G01X495000Y-475000D02*
G03I-15000J5000D01*
G01X460000Y-470000D02*
X500000D01*
G01X490000Y-475000D02*
G03I-10000J5000D01*
G01Y455000D02*
G03I-15000J5000D01*
G01X475000Y480000D02*
Y440000D01*
G01X485000Y455000D02*
G03I-10000J5000D01*
G01X455000Y460000D02*
X495000D01*
G54D12*
X-328190Y-143290D03*
X-333190Y-134630D03*
X-338190Y-125970D03*
X-335860Y-70000D03*
X-355860D03*
X-335860Y-60000D03*
Y-50000D03*
Y-40000D03*
X-355860Y-60000D03*
Y-50000D03*
Y-40000D03*
X-335860Y-30000D03*
Y-20000D03*
Y-10000D03*
X-355860Y-30000D03*
Y-20000D03*
Y-10000D03*
X-335860Y0D03*
Y10000D03*
Y20000D03*
X-355860Y0D03*
Y10000D03*
Y20000D03*
X-335860Y30000D03*
Y40000D03*
Y50000D03*
X-355860Y30000D03*
Y40000D03*
Y50000D03*
X-335860Y60000D03*
X-355860D03*
X-343190Y117310D03*
X-325860Y107310D03*
X-338190Y125970D03*
X-333190Y134630D03*
X-328190Y143290D03*
X-298190Y-195250D03*
X-303190Y-186590D03*
X-295860Y-159270D03*
X-300860Y-150610D03*
X-308190Y-177930D03*
X-313190Y-169270D03*
X-318190Y-160610D03*
X-323190Y-151950D03*
X-305860Y-141950D03*
X-310860Y-133290D03*
X-315860Y-124630D03*
X-320860Y-115970D03*
Y115970D03*
X-315860Y124630D03*
X-310860Y133290D03*
X-305860Y141950D03*
X-300860Y150610D03*
X-323190Y151950D03*
X-318190Y160610D03*
X-313190Y169270D03*
X-308190Y177930D03*
X-295860Y159270D03*
X-303190Y186590D03*
X-298190Y195250D03*
X-265860Y-211230D03*
X-273190Y-238550D03*
X-278190Y-229890D03*
X-283190Y-221230D03*
X-288190Y-212570D03*
X-270860Y-202570D03*
X-275860Y-193910D03*
X-280860Y-185250D03*
X-293190Y-203910D03*
X-285860Y-176590D03*
X-290860Y-167930D03*
Y167930D03*
X-285860Y176590D03*
X-293190Y203910D03*
X-280860Y185250D03*
X-275860Y193910D03*
X-270860Y202570D03*
X-288190Y212570D03*
X-283190Y221230D03*
X-278190Y229890D03*
X-265860Y211230D03*
X-255860Y-228550D03*
X-260860Y-219890D03*
Y219890D03*
X-238550Y273190D03*
X-212570Y-288190D03*
X-221230Y-283190D03*
X-229890Y-278190D03*
X-211230Y-265860D03*
X-219890Y-260860D03*
X-228550Y255860D03*
X-219890Y260860D03*
X-211230Y265860D03*
X-229890Y278190D03*
X-221230Y283190D03*
X-212570Y288190D03*
X-177930Y-308190D03*
X-186590Y-303190D03*
X-176590Y-285860D03*
X-185250Y-280860D03*
X-193910Y-275860D03*
X-202570Y-270860D03*
X-195250Y-298190D03*
X-203910Y-293190D03*
X-202570Y270860D03*
X-193910Y275860D03*
X-185250Y280860D03*
X-176590Y285860D03*
X-203910Y293190D03*
X-195250Y298190D03*
X-186590Y303190D03*
X-177930Y308190D03*
X-150610Y-300860D03*
X-151950Y-323190D03*
X-160610Y-318190D03*
X-169270Y-313190D03*
X-159270Y-295860D03*
X-167930Y-290860D03*
Y290860D03*
X-159270Y295860D03*
X-150610Y300860D03*
X-169270Y313190D03*
X-160610Y318190D03*
X-151950Y323190D03*
X-117310Y-343190D03*
X-125970Y-338190D03*
X-134630Y-333190D03*
X-115970Y-320860D03*
X-124630Y-315860D03*
X-133290Y-310860D03*
X-141950Y-305860D03*
X-143290Y-328190D03*
X-141950Y305860D03*
X-133290Y310860D03*
X-124630Y315860D03*
X-115970Y320860D03*
X-143290Y328190D03*
X-134630Y333190D03*
X-125970Y338190D03*
X-107310Y-325860D03*
X-60000Y-335860D03*
Y-355860D03*
X-70000Y355860D03*
X-60000D03*
X-70000Y335860D03*
X-60000D03*
X-30000Y-335860D03*
X-40000D03*
X-50000D03*
X-30000Y-355860D03*
X-40000D03*
X-50000D03*
Y355860D03*
X-40000D03*
X-30000D03*
X-50000Y335860D03*
X-40000D03*
X-30000D03*
X0Y-335860D03*
X-10000D03*
X-20000D03*
X0Y-355860D03*
X-10000D03*
X-20000D03*
Y355860D03*
X-10000D03*
X0D03*
X-20000Y335860D03*
X-10000D03*
X0D03*
X30000Y-335860D03*
X20000D03*
X10000D03*
X30000Y-355860D03*
X20000D03*
X10000D03*
Y355860D03*
X20000D03*
X30000D03*
X10000Y335860D03*
X20000D03*
X30000D03*
X60000Y-335860D03*
X50000D03*
X40000D03*
X60000Y-355860D03*
X50000D03*
X40000D03*
Y355860D03*
X50000D03*
X60000D03*
X40000Y335860D03*
X50000D03*
X60000D03*
X70000Y-335860D03*
Y-355860D03*
X115970Y-320860D03*
X107310Y325860D03*
X115970Y320860D03*
X117310Y343190D03*
X134630Y-333190D03*
X125970Y-338190D03*
X150610Y-300860D03*
X141950Y-305860D03*
X133290Y-310860D03*
X124630Y-315860D03*
X151950Y-323190D03*
X143290Y-328190D03*
X150610Y300860D03*
X124630Y315860D03*
X133290Y310860D03*
X141950Y305860D03*
X143290Y328190D03*
X151950Y323190D03*
X125970Y338190D03*
X134630Y333190D03*
X177930Y-308190D03*
X169270Y-313190D03*
X160610Y-318190D03*
X176590Y-285860D03*
X167930Y-290860D03*
X159270Y-295860D03*
Y295860D03*
X167930Y290860D03*
X176590Y285860D03*
X160610Y318190D03*
X169270Y313190D03*
X177930Y308190D03*
X186590Y-303190D03*
X202570Y-270860D03*
X193910Y-275860D03*
X185250Y-280860D03*
X212570Y-288190D03*
X203910Y-293190D03*
X195250Y-298190D03*
X211230Y-265860D03*
X202570Y270860D03*
X211230Y265860D03*
X185250Y280860D03*
X193910Y275860D03*
X195250Y298190D03*
X203910Y293190D03*
X212570Y288190D03*
X186590Y303190D03*
X238550Y-273190D03*
X229890Y-278190D03*
X221230Y-283190D03*
X228550Y-255860D03*
X219890Y-260860D03*
Y260860D03*
X221230Y283190D03*
X229890Y278190D03*
X265860Y-211230D03*
X260860Y-219890D03*
X270860Y-202570D03*
Y202570D03*
X255860Y228550D03*
X260860Y219890D03*
X265860Y211230D03*
X273190Y238550D03*
X288190Y-212570D03*
X283190Y-221230D03*
X278190Y-229890D03*
X280860Y-185250D03*
X275860Y-193910D03*
X303190Y-186590D03*
X298190Y-195250D03*
X293190Y-203910D03*
X300860Y-150610D03*
X295860Y-159270D03*
X290860Y-167930D03*
X285860Y-176590D03*
X300860Y150610D03*
X285860Y176590D03*
X290860Y167930D03*
X295860Y159270D03*
X275860Y193910D03*
X280860Y185250D03*
X293190Y203910D03*
X298190Y195250D03*
X303190Y186590D03*
X278190Y229890D03*
X283190Y221230D03*
X288190Y212570D03*
X323190Y-151950D03*
X318190Y-160610D03*
X313190Y-169270D03*
X308190Y-177930D03*
X315860Y-124630D03*
X310860Y-133290D03*
X305860Y-141950D03*
X333190Y-134630D03*
X328190Y-143290D03*
X325860Y-107310D03*
X320860Y-115970D03*
Y115970D03*
X305860Y141950D03*
X310860Y133290D03*
X315860Y124630D03*
X328190Y143290D03*
X333190Y134630D03*
X308190Y177930D03*
X313190Y169270D03*
X318190Y160610D03*
X323190Y151950D03*
X338190Y-125970D03*
X343190Y-117310D03*
X335860Y-40000D03*
Y-50000D03*
Y-60000D03*
X355860Y-40000D03*
Y-50000D03*
Y-60000D03*
X335860Y-10000D03*
Y-20000D03*
Y-30000D03*
X355860Y-10000D03*
Y-20000D03*
Y-30000D03*
X335860Y20000D03*
Y10000D03*
Y0D03*
X355860Y20000D03*
Y10000D03*
Y0D03*
X335860Y50000D03*
Y40000D03*
Y30000D03*
X355860Y50000D03*
Y40000D03*
Y30000D03*
X335860Y70000D03*
Y60000D03*
X355860Y70000D03*
Y60000D03*
X338190Y125970D03*
G54D22*
G01X-297500Y-422500D02*
X-307500D01*
G54D13*
X-325860Y-107310D03*
X-343190Y-117310D03*
X-117310Y343190D03*
X-107310Y325860D03*
X117310Y-343190D03*
X107310Y-325860D03*
X325860Y107310D03*
X343190Y117310D03*
G54D14*
X-335860Y70000D03*
X-355860D03*
X-70000Y-335860D03*
Y-355860D03*
X70000Y355860D03*
Y335860D03*
X335860Y-70000D03*
X355860D03*
G54D15*
X0Y0D03*
G54D16*
X-273190Y238550D03*
X-238550Y-273190D03*
X-255860Y228550D03*
X-228550Y-255860D03*
X228550Y255860D03*
X238550Y273190D03*
X255860Y-228550D03*
X273190Y-238550D03*
G54D17*
X260000Y-414310D03*
Y-390690D03*
G54D18*
X278500Y-402500D03*
G54D19*
G01X-400000Y-410710D02*
Y-400000D01*
G01D02*
Y-389290D01*
G01X-410710Y-400000D02*
X-400000D01*
G01D02*
X-389290D01*
G01X-400000Y389290D02*
Y400000D01*
G01D02*
Y410710D01*
G01X-410710Y400000D02*
X-400000D01*
G01D02*
X-389290D01*
G01X-338190Y-129680D02*
Y-125970D01*
G01D02*
Y-122260D01*
G01X-341900Y-125970D02*
X-338190D01*
G01D02*
X-334480D01*
G01X-355860Y56290D02*
Y60000D01*
G01X-335860Y56290D02*
Y60000D01*
G01X-355860D02*
Y63710D01*
G01X-359570Y60000D02*
X-355860D01*
G01D02*
X-352150D01*
G01X-335860D02*
Y63710D01*
G01X-339570Y60000D02*
X-335860D01*
G01D02*
X-332150D01*
G01X-320860Y-119680D02*
Y-115970D01*
G01D02*
Y-112260D01*
G01X-324570Y-115970D02*
X-320860D01*
G01D02*
X-317150D01*
G01X-285710Y0D02*
X0D01*
G01X-278190Y226180D02*
Y229890D01*
G01D02*
Y233600D01*
G01X-281900Y229890D02*
X-278190D01*
G01D02*
X-274480D01*
G01X-260860Y216180D02*
Y219890D01*
G01D02*
Y223600D01*
G01X-264570Y219890D02*
X-260860D01*
G01D02*
X-257150D01*
G01X-229890Y-281900D02*
Y-278190D01*
G01D02*
Y-274480D01*
G01X-233600Y-278190D02*
X-229890D01*
G01D02*
X-226180D01*
G01X-219890Y-264570D02*
Y-260860D01*
G01D02*
Y-257150D01*
G01X-223600Y-260860D02*
X-219890D01*
G01D02*
X-216180D01*
G01X-125970Y334480D02*
Y338190D01*
G01D02*
Y341900D01*
G01X-129680Y338190D02*
X-125970D01*
G01D02*
X-122260D01*
G01X-115970Y317150D02*
Y320860D01*
G01D02*
Y324570D01*
G01X-119680Y320860D02*
X-115970D01*
G01D02*
X-112260D01*
G01X-60000Y-359570D02*
Y-355860D01*
G01D02*
Y-352150D01*
G01X-63710Y-355860D02*
X-60000D01*
G01D02*
X-56290D01*
G01X-60000Y-339570D02*
Y-335860D01*
G01D02*
Y-332150D01*
G01X-63710Y-335860D02*
X-60000D01*
G01D02*
X-56290D01*
G01X0Y-285710D02*
Y0D01*
G01D02*
Y285710D01*
G01Y0D02*
X285710D01*
G01X60000Y332150D02*
Y335860D01*
G01D02*
Y339570D01*
G01X56290Y335860D02*
X60000D01*
G01D02*
X63710D01*
G01X60000Y352150D02*
Y355860D01*
G01D02*
Y359570D01*
G01X56290Y355860D02*
X60000D01*
G01D02*
X63710D01*
G01X115970Y-324570D02*
Y-320860D01*
G01D02*
Y-317150D01*
G01X112260Y-320860D02*
X115970D01*
G01D02*
X119680D01*
G01X125970Y-341900D02*
Y-338190D01*
G01D02*
Y-334480D01*
G01X122260Y-338190D02*
X125970D01*
G01D02*
X129680D01*
G01X219890Y257150D02*
Y260860D01*
G01D02*
Y264570D01*
G01X216180Y260860D02*
X219890D01*
G01D02*
X223600D01*
G01X229890Y274480D02*
Y278190D01*
G01D02*
Y281900D01*
G01X226180Y278190D02*
X229890D01*
G01D02*
X233600D01*
G01X260000Y-418960D02*
Y-414310D01*
G01D02*
Y-409660D01*
G01X249440Y-414310D02*
X260000D01*
G01D02*
X270560D01*
G01X260860Y-223600D02*
Y-219890D01*
G01D02*
Y-216180D01*
G01X257150Y-219890D02*
X260860D01*
G01D02*
X264570D01*
G01X278500Y-413060D02*
Y-402500D01*
G01D02*
Y-391940D01*
G01X273850Y-402500D02*
X278500D01*
G01D02*
X283150D01*
G01X278190Y-233600D02*
Y-229890D01*
G01D02*
Y-226180D01*
G01X274480Y-229890D02*
X278190D01*
G01D02*
X281900D01*
G01X320860Y112260D02*
Y115970D01*
G01D02*
Y119680D01*
G01X317150Y115970D02*
X320860D01*
G01D02*
X324570D01*
G01X355860Y-63710D02*
Y-60000D01*
G01X335860Y-63710D02*
Y-60000D01*
G01X355860D02*
Y-56290D01*
G01X352150Y-60000D02*
X355860D01*
G01D02*
X359570D01*
G01X335860D02*
Y-56290D01*
G01X332150Y-60000D02*
X335860D01*
G01D02*
X339570D01*
G01X338190Y122260D02*
Y125970D01*
G01D02*
Y129680D01*
G01X334480Y125970D02*
X338190D01*
G01D02*
X341900D01*
G01X389290Y-400000D02*
X400000D01*
G01X389290Y400000D02*
X400000D01*
G01Y-410710D02*
Y-400000D01*
G01D02*
Y-389290D01*
G01Y-400000D02*
X410710D01*
G01X400000Y389290D02*
Y400000D01*
G01D02*
Y410710D01*
G01Y400000D02*
X410710D01*
M02*
