G04 ================== begin FILE IDENTIFICATION RECORD ==================*
G04 Layout Name:  LED_12inArena, 6-25-2019 V3.brd*
G04 Film Name:    LAYER_1*
G04 File Format:  Gerber RS274X*
G04 File Origin:  Cadence Allegro 17.2-P019*
G04 Origin Date:  Mon Oct 05 13:45:43 2020*
G04 *
G04 Layer:  VIA KEEPOUT/ALL*
G04 Layer:  VIA KEEPOUT/BOTTOM*
G04 Layer:  VIA KEEPOUT/LAYER 2*
G04 Layer:  VIA KEEPOUT/GND2*
G04 Layer:  VIA KEEPOUT/LAYER 1*
G04 Layer:  VIA KEEPOUT/PWR*
G04 Layer:  VIA KEEPOUT/TOP*
G04 Layer:  VIA CLASS/FILMMASKBOTTOM*
G04 Layer:  VIA CLASS/LAYER 1*
G04 Layer:  ROUTE KEEPOUT/ALL*
G04 Layer:  ROUTE KEEPOUT/BOTTOM*
G04 Layer:  ROUTE KEEPOUT/LAYER 2*
G04 Layer:  ROUTE KEEPOUT/GND2*
G04 Layer:  ROUTE KEEPOUT/LAYER 1*
G04 Layer:  ROUTE KEEPOUT/PWR*
G04 Layer:  ROUTE KEEPOUT/TOP*
G04 Layer:  ROUTE KEEPIN/ALL*
G04 Layer:  PIN/FILMMASKBOTTOM*
G04 Layer:  PIN/LAYER 1*
G04 Layer:  PACKAGE KEEPOUT/ALL*
G04 Layer:  PACKAGE KEEPOUT/TOP*
G04 Layer:  PACKAGE KEEPOUT/BOTTOM*
G04 Layer:  PACKAGE KEEPIN/ALL*
G04 Layer:  ETCH/LAYER 1*
G04 Layer:  BOARD GEOMETRY/OUTLINE*
G04 *
G04 Offset:    (0.0 0.0)*
G04 Mirror:    No*
G04 Mode:      Positive*
G04 Rotation:  0*
G04 FullContactRelief:  No*
G04 UndefLineWidth:     0.1*
G04 ================== end FILE IDENTIFICATION RECORD ====================*
%FSLAX25Y25*MOIN*%
%IR0*IPPOS*OFA0.00000B0.00000*MIA0B0*SFA1.00000B1.00000*%
%ADD10C,.2*%
%ADD14R,.1969X.0787*%
%ADD15R,.0787X.1969*%
%ADD12C,.06*%
%ADD11C,.024*%
%ADD13C,5.7*%
%ADD16C,.005*%
%ADD17C,.008*%
%ADD18C,.0001*%
%ADD20C,.2104*%
%ADD21C,.0344*%
%ADD19C,.0704*%
G75*
%LPD*%
G75*
G36*
G01X388270Y-447500D02*
X381730D01*
X381710Y-447320D01*
G03X378290I-1710J-180D01*
G01X378270Y-447500D01*
X371730D01*
X371710Y-447320D01*
G03X368290I-1710J-180D01*
G01X368270Y-447500D01*
X361730D01*
X361710Y-447320D01*
G03X358290I-1710J-180D01*
G01X358270Y-447500D01*
X351730D01*
X351710Y-447320D01*
G03X348290I-1710J-180D01*
G01X348270Y-447500D01*
X341730D01*
X341710Y-447320D01*
G03X338290I-1710J-180D01*
G01X338270Y-447500D01*
X331730D01*
X331710Y-447320D01*
G03X328290I-1710J-180D01*
G01X328270Y-447500D01*
X321730D01*
X321710Y-447320D01*
G03X318290I-1710J-180D01*
G01X318270Y-447500D01*
X311730D01*
X311710Y-447320D01*
G03X308290I-1710J-180D01*
G01X308270Y-447500D01*
X301730D01*
X301710Y-447320D01*
G03X298290I-1710J-180D01*
G01X298270Y-447500D01*
X291730D01*
X291710Y-447320D01*
G03X288290I-1710J-180D01*
G01X288270Y-447500D01*
X281730D01*
X281710Y-447320D01*
G03X278290I-1710J-180D01*
G01X278270Y-447500D01*
X271730D01*
X271710Y-447320D01*
G03X268290I-1710J-180D01*
G01X268270Y-447500D01*
X261730D01*
X261710Y-447320D01*
G03X258290I-1710J-180D01*
G01X258270Y-447500D01*
X251730D01*
X251710Y-447320D01*
G03X248290I-1710J-180D01*
G01X248270Y-447500D01*
X241730D01*
X241710Y-447320D01*
G03X238290I-1710J-180D01*
G01X238270Y-447500D01*
X231730D01*
X231710Y-447320D01*
G03X228290I-1710J-180D01*
G01X228270Y-447500D01*
X221730D01*
X221710Y-447320D01*
G03X218290I-1710J-180D01*
G01X218270Y-447500D01*
X211730D01*
X211710Y-447320D01*
G03X208290I-1710J-180D01*
G01X208270Y-447500D01*
X201730D01*
X201710Y-447320D01*
G03X198290I-1710J-180D01*
G01X198270Y-447500D01*
X191730D01*
X191710Y-447320D01*
G03X188290I-1710J-180D01*
G01X188270Y-447500D01*
X181730D01*
X181710Y-447320D01*
G03X178290I-1710J-180D01*
G01X178270Y-447500D01*
X171730D01*
X171710Y-447320D01*
G03X168290I-1710J-180D01*
G01X168270Y-447500D01*
X161730D01*
X161710Y-447320D01*
G03X158290I-1710J-180D01*
G01X158270Y-447500D01*
X151730D01*
X151710Y-447320D01*
G03X148290I-1710J-180D01*
G01X148270Y-447500D01*
X141730D01*
X141710Y-447320D01*
G03X138290I-1710J-180D01*
G01X138270Y-447500D01*
X131730D01*
X131710Y-447320D01*
G03X128290I-1710J-180D01*
G01X128270Y-447500D01*
X121730D01*
X121710Y-447320D01*
G03X118290I-1710J-180D01*
G01X118270Y-447500D01*
X111730D01*
X111710Y-447320D01*
G03X108290I-1710J-180D01*
G01X108270Y-447500D01*
X101730D01*
X101710Y-447320D01*
G03X98290I-1710J-180D01*
G01X98270Y-447500D01*
X91730D01*
X91710Y-447320D01*
G03X88290I-1710J-180D01*
G01X88270Y-447500D01*
X81730D01*
X81710Y-447320D01*
G03X78290I-1710J-180D01*
G01X78270Y-447500D01*
X71730D01*
X71710Y-447320D01*
G03X68290I-1710J-180D01*
G01X68270Y-447500D01*
X61730D01*
X61710Y-447320D01*
G03X58290I-1710J-180D01*
G01X58270Y-447500D01*
X51730D01*
X51710Y-447320D01*
G03X48290I-1710J-180D01*
G01X48270Y-447500D01*
X41730D01*
X41710Y-447320D01*
G03X38290I-1710J-180D01*
G01X38270Y-447500D01*
X31730D01*
X31710Y-447320D01*
G03X28290I-1710J-180D01*
G01X28270Y-447500D01*
X21730D01*
X21710Y-447320D01*
G03X18290I-1710J-180D01*
G01X18270Y-447500D01*
X11730D01*
X11710Y-447320D01*
G03X8290I-1710J-180D01*
G01X8270Y-447500D01*
X1730D01*
X1710Y-447320D01*
G03X-1710I-1710J-180D01*
G01X-1730Y-447500D01*
X-8270D01*
X-8290Y-447320D01*
G03X-11710I-1710J-180D01*
G01X-11730Y-447500D01*
X-18270D01*
X-18290Y-447320D01*
G03X-21710I-1710J-180D01*
G01X-21730Y-447500D01*
X-28270D01*
X-28290Y-447320D01*
G03X-31710I-1710J-180D01*
G01X-31730Y-447500D01*
X-38270D01*
X-38290Y-447320D01*
G03X-41710I-1710J-180D01*
G01X-41730Y-447500D01*
X-48270D01*
X-48290Y-447320D01*
G03X-51710I-1710J-180D01*
G01X-51730Y-447500D01*
X-58270D01*
X-58290Y-447320D01*
G03X-61710I-1710J-180D01*
G01X-61730Y-447500D01*
X-68270D01*
X-68290Y-447320D01*
G03X-71710I-1710J-180D01*
G01X-71730Y-447500D01*
X-78270D01*
X-78290Y-447320D01*
G03X-81710I-1710J-180D01*
G01X-81730Y-447500D01*
X-88270D01*
X-88290Y-447320D01*
G03X-91710I-1710J-180D01*
G01X-91730Y-447500D01*
X-98270D01*
X-98290Y-447320D01*
G03X-101710I-1710J-180D01*
G01X-101730Y-447500D01*
X-108270D01*
X-108290Y-447320D01*
G03X-111710I-1710J-180D01*
G01X-111730Y-447500D01*
X-118270D01*
X-118290Y-447320D01*
G03X-121710I-1710J-180D01*
G01X-121730Y-447500D01*
X-128270D01*
X-128290Y-447320D01*
G03X-131710I-1710J-180D01*
G01X-131730Y-447500D01*
X-138270D01*
X-138290Y-447320D01*
G03X-141710I-1710J-180D01*
G01X-141730Y-447500D01*
X-148270D01*
X-148290Y-447320D01*
G03X-151710I-1710J-180D01*
G01X-151730Y-447500D01*
X-158270D01*
X-158290Y-447320D01*
G03X-161710I-1710J-180D01*
G01X-161730Y-447500D01*
X-168270D01*
X-168290Y-447320D01*
G03X-171710I-1710J-180D01*
G01X-171730Y-447500D01*
X-178270D01*
X-178290Y-447320D01*
G03X-181710I-1710J-180D01*
G01X-181730Y-447500D01*
X-188270D01*
X-188290Y-447320D01*
G03X-191710I-1710J-180D01*
G01X-191730Y-447500D01*
X-198270D01*
X-198290Y-447320D01*
G03X-201710I-1710J-180D01*
G01X-201730Y-447500D01*
X-208270D01*
X-208290Y-447320D01*
G03X-211710I-1710J-180D01*
G01X-211730Y-447500D01*
X-218270D01*
X-218290Y-447320D01*
G03X-221710I-1710J-180D01*
G01X-221730Y-447500D01*
X-228270D01*
X-228290Y-447320D01*
G03X-231710I-1710J-180D01*
G01X-231730Y-447500D01*
X-238270D01*
X-238290Y-447320D01*
G03X-241710I-1710J-180D01*
G01X-241730Y-447500D01*
X-248270D01*
X-248290Y-447320D01*
G03X-251710I-1710J-180D01*
G01X-251730Y-447500D01*
X-258270D01*
X-258290Y-447320D01*
G03X-261710I-1710J-180D01*
G01X-261730Y-447500D01*
X-268270D01*
X-268290Y-447320D01*
G03X-271710I-1710J-180D01*
G01X-271730Y-447500D01*
X-278270D01*
X-278290Y-447320D01*
G03X-281710I-1710J-180D01*
G01X-281730Y-447500D01*
X-288270D01*
X-288290Y-447320D01*
G03X-291710I-1710J-180D01*
G01X-291730Y-447500D01*
X-298270D01*
X-298290Y-447320D01*
G03X-301710I-1710J-180D01*
G01X-301730Y-447500D01*
X-308270D01*
X-308290Y-447320D01*
G03X-311710I-1710J-180D01*
G01X-311730Y-447500D01*
X-318270D01*
X-318290Y-447320D01*
G03X-321710I-1710J-180D01*
G01X-321730Y-447500D01*
X-328270D01*
X-328290Y-447320D01*
G03X-331710I-1710J-180D01*
G01X-331730Y-447500D01*
X-338270D01*
X-338290Y-447320D01*
G03X-341710I-1710J-180D01*
G01X-341730Y-447500D01*
X-345770D01*
X-345790Y-447320D01*
G03X-349210I-1710J-180D01*
G01X-349230Y-447500D01*
X-355770D01*
X-355790Y-447320D01*
G03X-359210I-1710J-180D01*
G01X-359230Y-447500D01*
X-365770D01*
X-365790Y-447320D01*
G03X-369210I-1710J-180D01*
G01X-369230Y-447500D01*
X-375770D01*
X-375790Y-447320D01*
G03X-379210I-1710J-180D01*
G01X-379230Y-447500D01*
X-385770D01*
X-385790Y-447320D01*
G03X-389210I-1710J-180D01*
G01X-389230Y-447500D01*
X-395770D01*
X-395790Y-447320D01*
G03X-399210I-1710J-180D01*
G01X-399230Y-447500D01*
X-405770D01*
X-405790Y-447320D01*
G03X-409210I-1710J-180D01*
G01X-409230Y-447500D01*
X-415770D01*
X-415790Y-447320D01*
G03X-419210I-1710J-180D01*
G01X-419230Y-447500D01*
X-447500D01*
Y447500D01*
X-232250D01*
G02X-231970Y446820I-4J-399D01*
G01X-239460Y439330D01*
Y276590D01*
X-239600Y276550D01*
G03X-237500I1050J-3360D01*
G01X-237640Y276590D01*
Y438570D01*
X-229620Y446590D01*
X-80380D01*
X-70910Y437120D01*
Y359260D01*
X-71050Y359220D01*
G03X-68950I1050J-3360D01*
G01X-69090Y359260D01*
Y437880D01*
X-78030Y446820D01*
G02X-77750Y447500I284J281D01*
G01X447500D01*
Y-447500D01*
X424230D01*
X424210Y-447320D01*
G03X421400Y-446170I-1713J-177D01*
G01X421370Y-446190D01*
X421250Y-446240D01*
X421130Y-446190D01*
X421100Y-446170D01*
G03X418290Y-447320I-1097J-1327D01*
G01X418270Y-447500D01*
X411730D01*
X411710Y-447320D01*
G03X408290I-1710J-180D01*
G01X408270Y-447500D01*
X401730D01*
X401710Y-447320D01*
G03X398290I-1710J-180D01*
G01X398270Y-447500D01*
X391730D01*
X391710Y-447320D01*
G03X388290I-1710J-180D01*
G01X388270Y-447500D01*
G37*
%LPC*%
G75*
G36*
G01X-197160Y-397940D02*
Y-389170D01*
X-195280Y-387290D01*
X-173580D01*
X-168610Y-382320D01*
Y-335080D01*
X-176280Y-327410D01*
X-248480D01*
X-256770Y-319120D01*
Y-231950D01*
X-256910Y-231910D01*
G02X-254810I1050J3360D01*
G01X-254950Y-231950D01*
Y-318360D01*
X-247720Y-325590D01*
X-175520D01*
X-166790Y-334320D01*
Y-383080D01*
X-170320Y-386610D01*
G03X-170040Y-387290I284J-281D01*
G01X-131080D01*
X-125910Y-382120D01*
Y-350500D01*
X-120360Y-344950D01*
X-120430Y-344820D01*
G02X-118940Y-346310I3120J1630D01*
G01X-119070Y-346240D01*
X-124090Y-351260D01*
Y-382880D01*
X-130320Y-389110D01*
X-194520D01*
X-195340Y-389930D01*
Y-397940D01*
G02X-197160I-910J-1460D01*
G37*
G36*
G01X350810Y-140060D02*
X279080Y-257640D01*
X61830Y-383410D01*
X-117120D01*
X-119090Y-385380D01*
Y-410370D01*
X-128170Y-419450D01*
X-137780D01*
G02X-137850Y-419550I-1442J935D01*
G03X-137570Y-420190I321J-241D01*
G01X-123980D01*
X-115910Y-412120D01*
Y-392120D01*
X-110380Y-386590D01*
X57830D01*
X282700Y-256400D01*
X361330Y-127500D01*
Y-43090D01*
X364300Y-40120D01*
X364280Y-40020D01*
G02X365690Y-41430I1700J290D01*
G01X365590Y-41410D01*
X363150Y-43850D01*
Y-128020D01*
X284020Y-257740D01*
X58310Y-388410D01*
X-109620D01*
X-114090Y-392880D01*
Y-412880D01*
X-123220Y-422010D01*
X-137570D01*
G03X-137850Y-422650I41J-399D01*
G02X-137780Y-422750I-1372J-1035D01*
G01X-116550D01*
X-110370Y-416570D01*
Y-396580D01*
X-105380Y-391590D01*
X54300D01*
X289040Y-255690D01*
X308400Y-223950D01*
X308360Y-223860D01*
G02X310060Y-224900I1583J677D01*
G01X309960Y-224910D01*
X290360Y-257030D01*
X150580Y-337950D01*
G03X150680Y-338630I260J-309D01*
G02X151550Y-340910I-693J-1570D01*
G01X151510Y-341010D01*
X153870Y-345080D01*
X162350Y-359730D01*
X160230Y-367670D01*
X158620Y-373680D01*
X115920Y-398410D01*
X-99620D01*
X-104090Y-402880D01*
Y-422880D01*
X-104150Y-422940D01*
X-108340Y-427130D01*
X-140740D01*
G02X-140800Y-425230I-1461J905D01*
G01X-140740Y-425310D01*
X-140300D01*
Y-425020D01*
X-140370Y-424960D01*
G02Y-422360I1130J1300D01*
G01X-140300Y-422300D01*
Y-422010D01*
X-140740D01*
X-140800Y-422090D01*
G02Y-420110I-1400J990D01*
G01X-140740Y-420190D01*
X-140300D01*
Y-419900D01*
X-140370Y-419840D01*
G02X-137780Y-417630I1131J1297D01*
G01X-128930D01*
X-120910Y-409610D01*
Y-384620D01*
X-117880Y-381590D01*
X61350D01*
X277760Y-256300D01*
X348990Y-139540D01*
Y135520D01*
X342130Y142380D01*
X331590D01*
X331550Y142240D01*
G02Y144340I-3360J1050D01*
G01X331590Y144200D01*
X342890D01*
X350810Y136280D01*
Y-140060D01*
G37*
G36*
G01X357620Y73050D02*
X383590Y99020D01*
Y221920D01*
X356460Y249050D01*
X284980D01*
X276240Y240310D01*
G02X274950Y241600I-3050J-1760D01*
G01X283690Y250340D01*
Y337520D01*
X274620Y346590D01*
X122000D01*
X120360Y344950D01*
X120430Y344820D01*
G02X118940Y346310I-3120J-1630D01*
G01X119070Y346240D01*
X121240Y348410D01*
X275380D01*
X285510Y338280D01*
Y250870D01*
X357220D01*
X357280Y250810D01*
X385410Y222680D01*
Y98260D01*
X385350Y98200D01*
X358910Y71760D01*
X358980Y71630D01*
G02X357490Y73120I-3120J-1630D01*
G01X357620Y73050D01*
G37*
G36*
G01X285520Y0D02*
G02I-285520J0D01*
G37*
G36*
G01D02*
G02I-285520J0D01*
G37*
G36*
G01D02*
G02I-285520J0D01*
G37*
G36*
G01X-33120Y337490D02*
X-33050Y337620D01*
X-37020Y341590D01*
X-75380D01*
X-80910Y347120D01*
Y432120D01*
X-87880Y439090D01*
X-199620D01*
X-203000Y435710D01*
Y296590D01*
X-202860Y296550D01*
G02X-204960I-1050J-3360D01*
G01X-204820Y296590D01*
Y436470D01*
X-200380Y440910D01*
X-87120D01*
X-79090Y432880D01*
Y347880D01*
X-74620Y343410D01*
X-36260D01*
X-31760Y338910D01*
X-31630Y338980D01*
G02X-33120Y337490I1630J-3120D01*
G37*
G36*
G01X-75910Y352120D02*
Y437120D01*
X-82880Y444090D01*
X-217120D01*
X-220320Y440890D01*
Y286590D01*
X-220180Y286550D01*
G02X-222280I-1050J-3360D01*
G01X-222140Y286590D01*
Y441650D01*
X-217880Y445910D01*
X-82120D01*
X-74090Y437880D01*
Y352880D01*
X-72120Y350910D01*
X-56240D01*
X-53050Y354100D01*
X-53120Y354230D01*
G02X-51630Y352740I3120J1630D01*
G01X-51760Y352810D01*
X-55480Y349090D01*
X-72880D01*
X-75910Y352120D01*
G37*
G36*
G01X-287960Y-345050D02*
G02X-289270Y-343670I-1694J-296D01*
G03X-288780Y-343210I96J388D01*
G02X-286710Y-341230I1693J302D01*
G03X-286220Y-340770I96J388D01*
G02X-284150Y-338790I1693J302D01*
G03X-283660Y-338330I96J388D01*
G02X-282350Y-339710I1694J296D01*
G03X-282840Y-340170I-96J-388D01*
G02X-284910Y-342150I-1693J-302D01*
G03X-285400Y-342610I-96J-388D01*
G02X-287470Y-344590I-1693J-302D01*
G03X-287960Y-345050I-96J-388D01*
G37*
G36*
G01X-261590Y-384230D02*
G02X-263410I-910J-1460D01*
G01Y-343320D01*
X-252720Y-332630D01*
X-198960D01*
G02X-196110Y-334550I1463J-904D01*
G01X-195470Y-335190D01*
X-195210D01*
X-195150Y-335110D01*
G02X-195210Y-337010I1401J-995D01*
G01X-195790D01*
G03X-196110Y-337650I1J-400D01*
G02Y-339670I-1390J-1010D01*
G03X-195790Y-340310I321J-240D01*
G01X-195210D01*
G02X-195150Y-342210I1461J-905D01*
G01X-195210Y-342130D01*
X-195470D01*
X-196110Y-342770D01*
G02X-199100Y-343140I-1393J-1010D01*
G03X-199470Y-342590I-369J151D01*
G01X-243800D01*
X-244940Y-343730D01*
Y-384420D01*
X-245820Y-385300D01*
X-245800Y-385400D01*
G02X-247210Y-383990I-1700J-290D01*
G01X-247110Y-384010D01*
X-246760Y-383660D01*
Y-342970D01*
X-244560Y-340770D01*
X-198750D01*
G03X-198520Y-340050I-5J398D01*
G02X-198960Y-339570I1026J1382D01*
G01X-248280D01*
X-251590Y-342880D01*
Y-384230D01*
G02X-253410I-910J-1460D01*
G01Y-342120D01*
X-249040Y-337750D01*
X-198960D01*
G02X-198520Y-337270I1466J-902D01*
G03X-198750Y-336550I-235J322D01*
G01X-250160D01*
X-256590Y-342980D01*
Y-384230D01*
G02X-258410I-910J-1460D01*
G01Y-342220D01*
X-251320Y-335130D01*
G03X-251600Y-334450I-284J281D01*
G01X-251960D01*
X-261590Y-344080D01*
Y-384230D01*
G37*
G36*
G01X285520Y0D02*
G02I-285520J0D01*
G37*
G36*
G01X-211940Y-440870D02*
X-210320Y-439240D01*
X-192560D01*
X-190160Y-436840D01*
Y-429520D01*
X-191920Y-427760D01*
X-197420D01*
X-200760Y-424420D01*
Y-384780D01*
X-198520Y-382540D01*
X-195720D01*
X-191720Y-378540D01*
X-177700D01*
G02Y-380060I1540J-760D01*
G01X-191080D01*
X-195080Y-384060D01*
X-197880D01*
X-199240Y-385420D01*
Y-423780D01*
X-196780Y-426240D01*
X-191280D01*
X-188640Y-428880D01*
Y-437480D01*
X-191920Y-440760D01*
X-209680D01*
X-210870Y-441940D01*
X-210840Y-442060D01*
G02X-212060Y-440840I-1660J-440D01*
G01X-211940Y-440870D01*
G37*
G36*
G01X-300910Y-377880D02*
X-302880Y-375910D01*
X-374580D01*
X-378410Y-372080D01*
Y-347880D01*
X-380100Y-346190D01*
G03X-380780Y-346470I-281J-284D01*
G02X-381590Y-347920I-1720J10D01*
G01Y-377120D01*
X-379620Y-379090D01*
X-304620D01*
X-301590Y-382120D01*
Y-384230D01*
G02X-303410I-910J-1460D01*
G01Y-382880D01*
X-305380Y-380910D01*
X-380380D01*
X-383410Y-377880D01*
Y-347920D01*
G02X-383890Y-345450I911J1459D01*
G03X-384210Y-344810I-321J240D01*
G01X-384790D01*
G02Y-342990I-1460J910D01*
G01X-384210D01*
G03X-383890Y-342350I-1J400D01*
G02Y-340330I1390J1010D01*
G03X-384210Y-339690I-321J240D01*
G01X-384790D01*
G02Y-337870I-1460J910D01*
G01X-384210D01*
G03X-383890Y-337230I-1J400D01*
G02Y-335210I1390J1010D01*
G03X-384210Y-334570I-321J240D01*
G01X-384790D01*
G02Y-332750I-1460J910D01*
G01X-384210D01*
G03X-383890Y-332110I-1J400D01*
G02Y-330090I1390J1010D01*
G03X-384210Y-329450I-321J240D01*
G01X-384790D01*
G02Y-327630I-1460J910D01*
G01X-341080D01*
X-339090Y-329620D01*
Y-349620D01*
X-337120Y-351590D01*
X-334270D01*
G03X-333950Y-350950I-1J400D01*
G02X-331170I1390J1010D01*
G03X-330850Y-351590I321J-240D01*
G01X-321650D01*
G03X-321330Y-350950I-1J400D01*
G02X-318550I1390J1010D01*
G03X-318230Y-351590I321J-240D01*
G01X-274620D01*
X-266590Y-359620D01*
Y-384230D01*
G02X-268410I-910J-1460D01*
G01Y-360380D01*
X-275380Y-353410D01*
X-337880D01*
X-340910Y-350380D01*
Y-330380D01*
X-341840Y-329450D01*
X-380790D01*
G03X-381110Y-330090I1J-400D01*
G02X-381040Y-330190I-1372J-1035D01*
G01X-348520D01*
X-344090Y-334620D01*
Y-352120D01*
X-342220Y-353990D01*
X-278420D01*
X-271590Y-360820D01*
Y-384230D01*
G02X-273410I-910J-1460D01*
G01Y-361580D01*
X-279180Y-355810D01*
X-287150D01*
X-287190Y-355830D01*
G02X-287910I-360J840D01*
G01X-287950Y-355810D01*
X-342980D01*
X-345910Y-352880D01*
Y-335380D01*
X-349280Y-332010D01*
X-381040D01*
G02X-381110Y-332110I-1442J935D01*
G03X-380790Y-332750I321J-240D01*
G01X-353460D01*
X-349090Y-337120D01*
Y-352120D01*
X-344620Y-356590D01*
X-282120D01*
X-276590Y-362120D01*
Y-384230D01*
G02X-278410I-910J-1460D01*
G01Y-362880D01*
X-282880Y-358410D01*
X-345380D01*
X-350910Y-352880D01*
Y-337880D01*
X-354220Y-334570D01*
X-380790D01*
G03X-381110Y-335210I1J-400D01*
G02X-381040Y-335310I-1372J-1035D01*
G01X-365900D01*
X-361590Y-339620D01*
Y-357120D01*
X-359620Y-359090D01*
X-284620D01*
X-281590Y-362120D01*
Y-384230D01*
G02X-283410I-910J-1460D01*
G01Y-362880D01*
X-285380Y-360910D01*
X-295750D01*
G03X-296080Y-361530I4J-400D01*
G02X-298920I-1420J-970D01*
G03X-299250Y-360910I-334J220D01*
G01X-305750D01*
G03X-306080Y-361530I4J-400D01*
G02X-308920I-1420J-970D01*
G03X-309250Y-360910I-334J220D01*
G01X-315750D01*
G03X-316080Y-361530I4J-400D01*
G02X-318920I-1420J-970D01*
G03X-319250Y-360910I-334J220D01*
G01X-325750D01*
G03X-326080Y-361530I4J-400D01*
G02X-328920I-1420J-970D01*
G03X-329250Y-360910I-334J220D01*
G01X-335750D01*
G03X-336080Y-361530I4J-400D01*
G02X-338920I-1420J-970D01*
G03X-339250Y-360910I-334J220D01*
G01X-345750D01*
G03X-346080Y-361530I4J-400D01*
G02X-348920I-1420J-970D01*
G03X-349250Y-360910I-334J220D01*
G01X-360380D01*
X-363410Y-357880D01*
Y-340380D01*
X-366660Y-337130D01*
X-381040D01*
G02X-381110Y-337230I-1442J935D01*
G03X-380790Y-337870I321J-240D01*
G01X-370840D01*
X-366590Y-342120D01*
Y-362120D01*
X-362120Y-366590D01*
X-289620D01*
X-286590Y-369620D01*
Y-384230D01*
G02X-288410I-910J-1460D01*
G01Y-370380D01*
X-290380Y-368410D01*
X-362880D01*
X-368410Y-362880D01*
Y-342880D01*
X-371600Y-339690D01*
X-380790D01*
G03X-381110Y-340330I1J-400D01*
G02X-381040Y-340430I-1372J-1035D01*
G01X-375780D01*
X-371590Y-344620D01*
Y-367120D01*
X-369620Y-369090D01*
X-297120D01*
X-291590Y-374620D01*
Y-384230D01*
G02X-293410I-910J-1460D01*
G01Y-375380D01*
X-297880Y-370910D01*
X-370380D01*
X-373410Y-367880D01*
Y-345380D01*
X-376540Y-342250D01*
X-381040D01*
G02X-381110Y-342350I-1442J935D01*
G03X-380790Y-342990I321J-240D01*
G01X-380720D01*
X-376590Y-347120D01*
Y-371320D01*
X-373820Y-374090D01*
X-302120D01*
X-299090Y-377120D01*
Y-382810D01*
X-297890Y-384010D01*
X-297790Y-383990D01*
G02X-299200Y-385400I290J-1700D01*
G01X-299180Y-385300D01*
X-300910Y-383570D01*
Y-377880D01*
G37*
G36*
G01X-243410Y-378960D02*
G02X-241590I910J1460D01*
G01Y-384230D01*
G02X-243410I-910J-1460D01*
G01Y-378960D01*
G37*
G36*
G01X254280Y-384910D02*
G03X254020I-130J-147D01*
G02X251590Y-382480I-1120J1310D01*
G03Y-382220I-147J130D01*
G02Y-379980I1310J1120D01*
G03Y-379720I-147J130D01*
G02X254020Y-377290I1310J1120D01*
G03X254280I130J147D01*
G02X256520I1120J-1310D01*
G03X256780I130J147D01*
G02X259020I1120J-1310D01*
G03X259280I130J147D01*
G02X261520I1120J-1310D01*
G03X261780I130J147D01*
G02X264020I1120J-1310D01*
G03X264280I130J147D01*
G02X266710Y-379720I1120J-1310D01*
G03Y-379980I147J-130D01*
G02Y-382220I-1310J-1120D01*
G03Y-382480I147J-130D01*
G02X264280Y-384910I-1310J-1120D01*
G03X264020I-130J-147D01*
G02X261780I-1120J1310D01*
G03X261520I-130J-147D01*
G02X259280I-1120J1310D01*
G03X259020I-130J-147D01*
G02X256780I-1120J1310D01*
G03X256520I-130J-147D01*
G02X254280I-1120J1310D01*
G37*
G36*
G01X291480Y-372010D02*
G03X291220I-130J-147D01*
G02X288790Y-369580I-1120J1310D01*
G03Y-369320I-147J130D01*
G02Y-367080I1310J1120D01*
G03Y-366820I-147J130D01*
G02Y-364580I1310J1120D01*
G03Y-364320I-147J130D01*
G02Y-362080I1310J1120D01*
G03Y-361820I-147J130D01*
G02Y-359580I1310J1120D01*
G03Y-359320I-147J130D01*
G02X291220Y-356890I1310J1120D01*
G03X291480I130J147D01*
G02X293720I1120J-1310D01*
G03X293980I130J147D01*
G02X296410Y-359320I1120J-1310D01*
G03Y-359580I147J-130D01*
G02Y-361820I-1310J-1120D01*
G03Y-362080I147J-130D01*
G02Y-364320I-1310J-1120D01*
G03Y-364580I147J-130D01*
G02Y-366820I-1310J-1120D01*
G03Y-367080I147J-130D01*
G02Y-369320I-1310J-1120D01*
G03Y-369580I147J-130D01*
G02X293980Y-372010I-1310J-1120D01*
G03X293720I-130J-147D01*
G02X291480I-1120J1310D01*
G37*
G36*
G01X236180Y-365910D02*
G03X235920I-130J-147D01*
G02X233490Y-363480I-1120J1310D01*
G03Y-363220I-147J130D01*
G02Y-360980I1310J1120D01*
G03Y-360720I-147J130D01*
G02Y-358480I1310J1120D01*
G03Y-358220I-147J130D01*
G02Y-355980I1310J1120D01*
G03Y-355720I-147J130D01*
G02Y-353480I1310J1120D01*
G03Y-353220I-147J130D01*
G02X235920Y-350790I1310J1120D01*
G03X236180I130J147D01*
G02X238420I1120J-1310D01*
G03X238680I130J147D01*
G02X241110Y-353220I1120J-1310D01*
G03Y-353480I147J-130D01*
G02Y-355720I-1310J-1120D01*
G03Y-355980I147J-130D01*
G02Y-358220I-1310J-1120D01*
G03Y-358480I147J-130D01*
G02Y-360720I-1310J-1120D01*
G03Y-360980I147J-130D01*
G02Y-363220I-1310J-1120D01*
G03Y-363480I147J-130D01*
G02X238680Y-365910I-1310J-1120D01*
G03X238420I-130J-147D01*
G02X236180I-1120J1310D01*
G37*
G36*
G01X-104260Y-327620D02*
X-85390Y-346490D01*
X62720D01*
X69090Y-340120D01*
Y-339260D01*
X68950Y-339220D01*
G02X71630Y-332740I1051J3360D01*
G01X71760Y-332810D01*
X186980Y-217590D01*
X233980D01*
X237970Y-221580D01*
G03X238650Y-221300I281J284D01*
G01Y-170060D01*
X242120Y-166590D01*
X262120D01*
X266590Y-162120D01*
Y-119620D01*
X274090Y-112120D01*
Y-89620D01*
X279620Y-84090D01*
X320380D01*
X328720Y-92430D01*
Y-104170D01*
X328350Y-104820D01*
X328450Y-104930D01*
G02X329220Y-106260I-2587J-2386D01*
G01X329260Y-106400D01*
X340720D01*
X344520Y-102600D01*
Y60050D01*
X337620Y66950D01*
X337490Y66880D01*
G02X338910Y68240I-1628J3121D01*
G01X346340Y60810D01*
Y-103360D01*
X341480Y-108220D01*
X329260D01*
X329220Y-108360D01*
G02X326630Y-103870I-3361J1054D01*
G01X326770Y-103910D01*
X326900Y-103690D01*
Y-93190D01*
X319620Y-85910D01*
X280380D01*
X275910Y-90380D01*
Y-112880D01*
X268410Y-120380D01*
Y-162880D01*
X262880Y-168410D01*
X242880D01*
X240470Y-170820D01*
Y-269540D01*
X240310Y-270140D01*
X240430Y-270220D01*
G02X238400Y-269670I-1893J-2967D01*
G01X238550D01*
X238650Y-269300D01*
Y-224840D01*
X233220Y-219410D01*
X187740D01*
X73050Y-334100D01*
G02X71050Y-339220I-3049J-1759D01*
G01X70910Y-339260D01*
Y-340880D01*
X63480Y-348310D01*
X-86150D01*
X-105550Y-328910D01*
X-105680Y-328980D01*
G02X-104190Y-327490I-1630J3120D01*
G01X-104260Y-327620D01*
G37*
G36*
G01X-11050Y-332500D02*
X-10910Y-332460D01*
Y-327460D01*
G02X-9090I910J1460D01*
G01Y-332460D01*
X-8950Y-332500D01*
G02X-11050I-1050J-3360D01*
G37*
G36*
G01X-1050D02*
X-910Y-332460D01*
Y-322460D01*
G02X910I910J1460D01*
G01Y-332460D01*
X1050Y-332500D01*
G02X-1050I-1050J-3360D01*
G37*
G36*
G01X8950D02*
X9090Y-332460D01*
Y-317460D01*
G02X10910I910J1460D01*
G01Y-332460D01*
X11050Y-332500D01*
G02X8950I-1050J-3360D01*
G37*
G36*
G01X18950D02*
X19090Y-332460D01*
Y-312460D01*
G02X20910I910J1460D01*
G01Y-332460D01*
X21050Y-332500D01*
G02X18950I-1050J-3360D01*
G37*
G36*
G01X28950D02*
X29090Y-332460D01*
Y-307460D01*
G02X30910I910J1460D01*
G01Y-332460D01*
X31050Y-332500D01*
G02X28950I-1050J-3360D01*
G37*
G36*
G01X38950D02*
X39090Y-332460D01*
Y-302460D01*
G02X40910I910J1460D01*
G01Y-332460D01*
X41050Y-332500D01*
G02X38950I-1050J-3360D01*
G37*
G36*
G01X49090Y-332460D02*
Y-297460D01*
G02X50910I910J1460D01*
G01Y-332460D01*
X51050Y-332500D01*
G02X48950I-1050J-3360D01*
G01X49090Y-332460D01*
G37*
G36*
G01X59090D02*
Y-292460D01*
G02X60910I910J1460D01*
G01Y-332460D01*
X61050Y-332500D01*
G02X58950I-1050J-3360D01*
G01X59090Y-332460D01*
G37*
G36*
G01X299180Y-333010D02*
G03X298920I-130J-147D01*
G02X296490Y-330580I-1120J1310D01*
G03Y-330320I-147J130D01*
G02Y-328080I1310J1120D01*
G03Y-327820I-147J130D01*
G02X298920Y-325390I1310J1120D01*
G03X299180I130J147D01*
G02X301420I1120J-1310D01*
G03X301680I130J147D01*
G02X303920I1120J-1310D01*
G03X304180I130J147D01*
G02X306420I1120J-1310D01*
G03X306680I130J147D01*
G02X308920I1120J-1310D01*
G03X309180I130J147D01*
G02X311610Y-327820I1120J-1310D01*
G03Y-328080I147J-130D01*
G02Y-330320I-1310J-1120D01*
G03Y-330580I147J-130D01*
G02X309180Y-333010I-1310J-1120D01*
G03X308920I-130J-147D01*
G02X306680I-1120J1310D01*
G03X306420I-130J-147D01*
G02X304180I-1120J1310D01*
G03X303920I-130J-147D01*
G02X301680I-1120J1310D01*
G03X301420I-130J-147D01*
G02X299180I-1120J1310D01*
G37*
G36*
G01X299080Y-324110D02*
G03X298820I-130J-147D01*
G02X296390Y-321680I-1120J1310D01*
G03Y-321420I-147J130D01*
G02Y-319180I1310J1120D01*
G03Y-318920I-147J130D01*
G02X298820Y-316490I1310J1120D01*
G03X299080I130J147D01*
G02X301320I1120J-1310D01*
G03X301580I130J147D01*
G02X303820I1120J-1310D01*
G03X304080I130J147D01*
G02X306320I1120J-1310D01*
G03X306580I130J147D01*
G02X308820I1120J-1310D01*
G03X309080I130J147D01*
G02X311510Y-318920I1120J-1310D01*
G03Y-319180I147J-130D01*
G02Y-321420I-1310J-1120D01*
G03Y-321680I147J-130D01*
G02X309080Y-324110I-1310J-1120D01*
G03X308820I-130J-147D01*
G02X306580I-1120J1310D01*
G03X306320I-130J-147D01*
G02X304080I-1120J1310D01*
G03X303820I-130J-147D01*
G02X301580I-1120J1310D01*
G03X301320I-130J-147D01*
G02X299080I-1120J1310D01*
G37*
G36*
G01X-93480Y-283730D02*
X-113480Y-318370D01*
X-113380Y-318480D01*
G02X-115200Y-317430I-2588J-2383D01*
G01X-115060Y-317460D01*
X-95060Y-282820D01*
X-95100Y-282730D01*
G02X-93380Y-283720I1560J721D01*
G01X-93480Y-283730D01*
G37*
G36*
G01X393680Y-321310D02*
G03X393420I-130J-147D01*
G02X390990Y-318880I-1120J1310D01*
G03Y-318620I-147J130D01*
G02Y-316380I1310J1120D01*
G03Y-316120I-147J130D01*
G02X393420Y-313690I1310J1120D01*
G03X393680I130J147D01*
G02X395920I1120J-1310D01*
G03X396180I130J147D01*
G02X398420I1120J-1310D01*
G03X398680I130J147D01*
G02X400920I1120J-1310D01*
G03X401180I130J147D01*
G02X403420I1120J-1310D01*
G03X403680I130J147D01*
G02X406110Y-316120I1120J-1310D01*
G03Y-316380I147J-130D01*
G02Y-318620I-1310J-1120D01*
G03Y-318880I147J-130D01*
G02X403680Y-321310I-1310J-1120D01*
G03X403420I-130J-147D01*
G02X401180I-1120J1310D01*
G03X400920I-130J-147D01*
G02X398680I-1120J1310D01*
G03X398420I-130J-147D01*
G02X396180I-1120J1310D01*
G03X395920I-130J-147D01*
G02X393680I-1120J1310D01*
G37*
G36*
G01X-123720Y-312460D02*
X-106220Y-282150D01*
X-106260Y-282060D01*
G02X-104540Y-283050I1560J721D01*
G01X-104640Y-283060D01*
X-122140Y-313370D01*
X-122040Y-313480D01*
G02X-123860Y-312430I-2588J-2383D01*
G01X-123720Y-312460D01*
G37*
G36*
G01X299180Y-315210D02*
G03X298920I-130J-147D01*
G02X296490Y-312780I-1120J1310D01*
G03Y-312520I-147J130D01*
G02Y-310280I1310J1120D01*
G03Y-310020I-147J130D01*
G02X296770Y-307520I1309J1119D01*
G03Y-306880I-236J320D01*
G02X296490Y-304380I1029J1381D01*
G03Y-304120I-147J130D01*
G02Y-301880I1310J1120D01*
G03Y-301620I-147J130D01*
G02X298920Y-299190I1310J1120D01*
G03X299180I130J147D01*
G02X301420I1120J-1310D01*
G03X301680I130J147D01*
G02X303920I1120J-1310D01*
G03X304180I130J147D01*
G02X306420I1120J-1310D01*
G03X306680I130J147D01*
G02X308920I1120J-1310D01*
G03X309180I130J147D01*
G02X311610Y-301620I1120J-1310D01*
G03Y-301880I147J-130D01*
G02Y-304120I-1310J-1120D01*
G03Y-304380I147J-130D01*
G02X311330Y-306880I-1309J-1119D01*
G03Y-307520I236J-320D01*
G02X311610Y-310020I-1029J-1381D01*
G03Y-310280I147J-130D01*
G02Y-312520I-1310J-1120D01*
G03Y-312780I147J-130D01*
G02X309180Y-315210I-1310J-1120D01*
G03X308920I-130J-147D01*
G02X306680I-1120J1310D01*
G03X306420I-130J-147D01*
G02X304180I-1120J1310D01*
G03X303920I-130J-147D01*
G02X301680I-1120J1310D01*
G03X301420I-130J-147D01*
G02X299180I-1120J1310D01*
G37*
G36*
G01X-132380Y-307460D02*
X-117380Y-281480D01*
X-117420Y-281390D01*
G02X-115700Y-282380I1560J721D01*
G01X-115800Y-282390D01*
X-130800Y-308370D01*
X-130700Y-308480D01*
G02X-132520Y-307430I-2588J-2383D01*
G01X-132380Y-307460D01*
G37*
G36*
G01X-141040Y-302460D02*
X-128540Y-280810D01*
X-128580Y-280720D01*
G02X-126860Y-281710I1560J721D01*
G01X-126960Y-281720D01*
X-139460Y-303370D01*
X-139360Y-303480D01*
G02X-141180Y-302430I-2588J-2383D01*
G01X-141040Y-302460D01*
G37*
G36*
G01X-149700Y-297460D02*
X-139700Y-280140D01*
X-139740Y-280050D01*
G02X-138020Y-281040I1560J721D01*
G01X-138120Y-281050D01*
X-148120Y-298370D01*
X-148020Y-298480D01*
G02X-149840Y-297430I-2588J-2383D01*
G01X-149700Y-297460D01*
G37*
G36*
G01X-158360Y-292460D02*
X-150860Y-279470D01*
X-150900Y-279380D01*
G02X-149180Y-280370I1560J721D01*
G01X-149280Y-280380D01*
X-156780Y-293370D01*
X-156680Y-293480D01*
G02X-158500Y-292430I-2588J-2383D01*
G01X-158360Y-292460D01*
G37*
G36*
G01X156780Y-293370D02*
X154280Y-289040D01*
X154180Y-289030D01*
G02X155900Y-288040I160J1711D01*
G01X155860Y-288130D01*
X158360Y-292460D01*
X158500Y-292430D01*
G02X156680Y-293480I768J-3433D01*
G01X156780Y-293370D01*
G37*
G36*
G01X-167020Y-287460D02*
X-162020Y-278800D01*
X-162060Y-278710D01*
G02X-160340Y-279700I1560J721D01*
G01X-160440Y-279710D01*
X-165440Y-288370D01*
X-165340Y-288480D01*
G02X-167160Y-287430I-2588J-2383D01*
G01X-167020Y-287460D01*
G37*
G36*
G01X165440Y-288370D02*
X160440Y-279710D01*
X160340Y-279700D01*
G02X162060Y-278710I160J1711D01*
G01X162020Y-278800D01*
X167020Y-287460D01*
X167160Y-287430D01*
G02X165340Y-288480I768J-3433D01*
G01X165440Y-288370D01*
G37*
G36*
G01X-175680Y-282460D02*
X-173180Y-278130D01*
X-173220Y-278040D01*
G02X-171500Y-279030I1560J721D01*
G01X-171600Y-279040D01*
X-174100Y-283370D01*
X-174000Y-283480D01*
G02X-175820Y-282430I-2588J-2383D01*
G01X-175680Y-282460D01*
G37*
G36*
G01X174100Y-283370D02*
X166600Y-270380D01*
X166500Y-270370D01*
G02X168220Y-269380I160J1711D01*
G01X168180Y-269470D01*
X175680Y-282460D01*
X175820Y-282430D01*
G02X174000Y-283480I768J-3433D01*
G01X174100Y-283370D01*
G37*
G36*
G01X182760Y-278370D02*
X172760Y-261050D01*
X172660Y-261040D01*
G02X174380Y-260050I160J1711D01*
G01X174340Y-260140D01*
X184340Y-277460D01*
X184480Y-277430D01*
G02X182660Y-278480I768J-3433D01*
G01X182760Y-278370D01*
G37*
G36*
G01X191420Y-273370D02*
X178920Y-251720D01*
X178820Y-251710D01*
G02X180540Y-250720I160J1711D01*
G01X180500Y-250810D01*
X193000Y-272460D01*
X193140Y-272430D01*
G02X191320Y-273480I768J-3433D01*
G01X191420Y-273370D01*
G37*
G36*
G01X200080Y-268370D02*
X185080Y-242390D01*
X184980Y-242380D01*
G02X186700Y-241390I160J1711D01*
G01X186660Y-241480D01*
X201660Y-267460D01*
X201800Y-267430D01*
G02X199980Y-268480I768J-3433D01*
G01X200080Y-268370D01*
G37*
G36*
G01X208740Y-263370D02*
X191240Y-233060D01*
X191140Y-233050D01*
G02X192860Y-232060I160J1711D01*
G01X192820Y-232150D01*
X210320Y-262460D01*
X210460Y-262430D01*
G02X208640Y-263480I768J-3433D01*
G01X208740Y-263370D01*
G37*
G36*
G01X217400Y-258370D02*
X197400Y-223730D01*
X197300Y-223720D01*
G02X199020Y-222730I160J1711D01*
G01X198980Y-222820D01*
X218980Y-257460D01*
X219120Y-257430D01*
G02X217300Y-258480I768J-3433D01*
G01X217400Y-258370D01*
G37*
G36*
G01X-258370Y-217400D02*
X-223730Y-197400D01*
X-223720Y-197300D01*
G02X-222730Y-199020I1711J-160D01*
G01X-222820Y-198980D01*
X-257460Y-218980D01*
X-257430Y-219120D01*
G02X-258480Y-217300I-3433J-768D01*
G01X-258370Y-217400D01*
G37*
G36*
G01X-232150Y-192820D02*
X-262460Y-210320D01*
X-262430Y-210460D01*
G02X-263480Y-208640I-3433J-768D01*
G01X-263370Y-208740D01*
X-233060Y-191240D01*
X-233050Y-191140D01*
G02X-232060Y-192860I1711J-160D01*
G01X-232150Y-192820D01*
G37*
G36*
G01X-268370Y-200080D02*
X-242390Y-185080D01*
X-242380Y-184980D01*
G02X-241390Y-186700I1711J-160D01*
G01X-241480Y-186660D01*
X-267460Y-201660D01*
X-267430Y-201800D01*
G02X-268480Y-199980I-3433J-768D01*
G01X-268370Y-200080D01*
G37*
G36*
G01X-273370Y-191420D02*
X-251720Y-178920D01*
X-251710Y-178820D01*
G02X-250720Y-180540I1711J-160D01*
G01X-250810Y-180500D01*
X-272460Y-193000D01*
X-272430Y-193140D01*
G02X-273480Y-191320I-3433J-768D01*
G01X-273370Y-191420D01*
G37*
G36*
G01X-278370Y-182760D02*
X-261050Y-172760D01*
X-261040Y-172660D01*
G02X-260050Y-174380I1711J-160D01*
G01X-260140Y-174340D01*
X-277460Y-184340D01*
X-277430Y-184480D01*
G02X-278480Y-182660I-3433J-768D01*
G01X-278370Y-182760D01*
G37*
G36*
G01X-283370Y-174100D02*
X-270380Y-166600D01*
X-270370Y-166500D01*
G02X-269380Y-168220I1711J-160D01*
G01X-269470Y-168180D01*
X-282460Y-175680D01*
X-282430Y-175820D01*
G02X-283480Y-174000I-3433J-768D01*
G01X-283370Y-174100D01*
G37*
G36*
G01X279040Y-171600D02*
X283370Y-174100D01*
X283480Y-174000D01*
G02X282430Y-175820I2383J-2588D01*
G01X282460Y-175680D01*
X278130Y-173180D01*
X278040Y-173220D01*
G02X279030Y-171500I-721J1560D01*
G01X279040Y-171600D01*
G37*
G36*
G01X-288370Y-165440D02*
X-279710Y-160440D01*
X-279700Y-160340D01*
G02X-278710Y-162060I1711J-160D01*
G01X-278800Y-162020D01*
X-287460Y-167020D01*
X-287430Y-167160D01*
G02X-288480Y-165340I-3433J-768D01*
G01X-288370Y-165440D01*
G37*
G36*
G01X287460Y-167020D02*
X278800Y-162020D01*
X278710Y-162060D01*
G02X279700Y-160340I-721J1560D01*
G01X279710Y-160440D01*
X288370Y-165440D01*
X288480Y-165340D01*
G02X287430Y-167160I2383J-2588D01*
G01X287460Y-167020D01*
G37*
G36*
G01X-293370Y-156780D02*
X-289040Y-154280D01*
X-289030Y-154180D01*
G02X-288040Y-155900I1711J-160D01*
G01X-288130Y-155860D01*
X-292460Y-158360D01*
X-292430Y-158500D01*
G02X-293480Y-156680I-3433J-768D01*
G01X-293370Y-156780D01*
G37*
G36*
G01X280380Y-149280D02*
X293370Y-156780D01*
X293480Y-156680D01*
G02X292430Y-158500I2383J-2588D01*
G01X292460Y-158360D01*
X279470Y-150860D01*
X279380Y-150900D01*
G02X280370Y-149180I-721J1560D01*
G01X280380Y-149280D01*
G37*
G36*
G01X297460Y-149700D02*
X280140Y-139700D01*
X280050Y-139740D01*
G02X281040Y-138020I-721J1560D01*
G01X281050Y-138120D01*
X298370Y-148120D01*
X298480Y-148020D01*
G02X297430Y-149840I2383J-2588D01*
G01X297460Y-149700D01*
G37*
G36*
G01X302460Y-141040D02*
X280810Y-128540D01*
X280720Y-128580D01*
G02X281710Y-126860I-721J1560D01*
G01X281720Y-126960D01*
X303370Y-139460D01*
X303480Y-139360D01*
G02X302430Y-141180I2383J-2588D01*
G01X302460Y-141040D01*
G37*
G36*
G01X307460Y-132380D02*
X281480Y-117380D01*
X281390Y-117420D01*
G02X282380Y-115700I-721J1560D01*
G01X282390Y-115800D01*
X308370Y-130800D01*
X308480Y-130700D01*
G02X307430Y-132520I2383J-2588D01*
G01X307460Y-132380D01*
G37*
G36*
G01X312460Y-123720D02*
X282150Y-106220D01*
X282060Y-106260D01*
G02X283050Y-104540I-721J1560D01*
G01X283060Y-104640D01*
X313370Y-122140D01*
X313480Y-122040D01*
G02X312430Y-123860I2383J-2588D01*
G01X312460Y-123720D01*
G37*
G36*
G01X317460Y-115060D02*
X282820Y-95060D01*
X282730Y-95100D01*
G02X283720Y-93380I-721J1560D01*
G01X283730Y-93480D01*
X318370Y-113480D01*
X318480Y-113380D01*
G02X317430Y-115200I2383J-2588D01*
G01X317460Y-115060D01*
G37*
G36*
G01X-292460Y-60910D02*
X-332460D01*
X-332500Y-61050D01*
G02Y-58950I-3360J1050D01*
G01X-332460Y-59090D01*
X-292460D01*
G02Y-60910I1460J-910D01*
G37*
G36*
G01X-297460Y-50910D02*
X-332460D01*
X-332500Y-51050D01*
G02Y-48950I-3360J1050D01*
G01X-332460Y-49090D01*
X-297460D01*
G02Y-50910I1460J-910D01*
G37*
G36*
G01X-302460Y-40910D02*
X-332460D01*
X-332500Y-41050D01*
G02Y-38950I-3360J1050D01*
G01X-332460Y-39090D01*
X-302460D01*
G02Y-40910I1460J-910D01*
G37*
G36*
G01X-307460Y-30910D02*
X-332460D01*
X-332500Y-31050D01*
G02Y-28950I-3360J1050D01*
G01X-332460Y-29090D01*
X-307460D01*
G02Y-30910I1460J-910D01*
G37*
G36*
G01X-312460Y-20910D02*
X-332460D01*
X-332500Y-21050D01*
G02Y-18950I-3360J1050D01*
G01X-332460Y-19090D01*
X-312460D01*
G02Y-20910I1460J-910D01*
G37*
G36*
G01X-317460Y-10910D02*
X-332460D01*
X-332500Y-11050D01*
G02Y-8950I-3360J1050D01*
G01X-332460Y-9090D01*
X-317460D01*
G02Y-10910I1460J-910D01*
G37*
G36*
G01X327460Y-9090D02*
X332460D01*
X332500Y-8950D01*
G02Y-11050I3360J-1050D01*
G01X332460Y-10910D01*
X327460D01*
G02Y-9090I-1460J910D01*
G37*
G36*
G01X-322460Y-910D02*
X-332460D01*
X-332500Y-1050D01*
G02Y1050I-3360J1050D01*
G01X-332460Y910D01*
X-322460D01*
G02Y-910I1460J-910D01*
G37*
G36*
G01X322460Y910D02*
X332460D01*
X332500Y1050D01*
G02Y-1050I3360J-1050D01*
G01X332460Y-910D01*
X322460D01*
G02Y910I-1460J910D01*
G37*
G36*
G01X-327460Y9090D02*
X-332460D01*
X-332500Y8950D01*
G02Y11050I-3360J1050D01*
G01X-332460Y10910D01*
X-327460D01*
G02Y9090I1460J-910D01*
G37*
G36*
G01X317460Y10910D02*
X332460D01*
X332500Y11050D01*
G02Y8950I3360J-1050D01*
G01X332460Y9090D01*
X317460D01*
G02Y10910I-1460J910D01*
G37*
G36*
G01X312460Y20910D02*
X332460D01*
X332500Y21050D01*
G02Y18950I3360J-1050D01*
G01X332460Y19090D01*
X312460D01*
G02Y20910I-1460J910D01*
G37*
G36*
G01X307460Y30910D02*
X332460D01*
X332500Y31050D01*
G02Y28950I3360J-1050D01*
G01X332460Y29090D01*
X307460D01*
G02Y30910I-1460J910D01*
G37*
G36*
G01X302460Y40910D02*
X332460D01*
X332500Y41050D01*
G02Y38950I3360J-1050D01*
G01X332460Y39090D01*
X302460D01*
G02Y40910I-1460J910D01*
G37*
G36*
G01X297460Y50910D02*
X332460D01*
X332500Y51050D01*
G02Y48950I3360J-1050D01*
G01X332460Y49090D01*
X297460D01*
G02Y50910I-1460J910D01*
G37*
G36*
G01X292460Y60910D02*
X332460D01*
X332500Y61050D01*
G02Y58950I3360J-1050D01*
G01X332460Y59090D01*
X292460D01*
G02Y60910I-1460J910D01*
G37*
G36*
G01X-283730Y93480D02*
X-318370Y113480D01*
X-318480Y113380D01*
G02X-317430Y115200I-2383J2588D01*
G01X-317460Y115060D01*
X-282820Y95060D01*
X-282730Y95100D01*
G02X-283720Y93380I721J-1560D01*
G01X-283730Y93480D01*
G37*
G36*
G01X-283060Y104640D02*
X-313370Y122140D01*
X-313480Y122040D01*
G02X-312430Y123860I-2383J2588D01*
G01X-312460Y123720D01*
X-282150Y106220D01*
X-282060Y106260D01*
G02X-283050Y104540I721J-1560D01*
G01X-283060Y104640D01*
G37*
G36*
G01X-282390Y115800D02*
X-308370Y130800D01*
X-308480Y130700D01*
G02X-307430Y132520I-2383J2588D01*
G01X-307460Y132380D01*
X-281480Y117380D01*
X-281390Y117420D01*
G02X-282380Y115700I721J-1560D01*
G01X-282390Y115800D01*
G37*
G36*
G01X-281720Y126960D02*
X-303370Y139460D01*
X-303480Y139360D01*
G02X-302430Y141180I-2383J2588D01*
G01X-302460Y141040D01*
X-280810Y128540D01*
X-280720Y128580D01*
G02X-281710Y126860I721J-1560D01*
G01X-281720Y126960D01*
G37*
G36*
G01X-281050Y138120D02*
X-298370Y148120D01*
X-298480Y148020D01*
G02X-297430Y149840I-2383J2588D01*
G01X-297460Y149700D01*
X-280140Y139700D01*
X-280050Y139740D01*
G02X-281040Y138020I721J-1560D01*
G01X-281050Y138120D01*
G37*
G36*
G01X-280380Y149280D02*
X-293370Y156780D01*
X-293480Y156680D01*
G02X-292430Y158500I-2383J2588D01*
G01X-292460Y158360D01*
X-279470Y150860D01*
X-279380Y150900D01*
G02X-280370Y149180I721J-1560D01*
G01X-280380Y149280D01*
G37*
G36*
G01X288130Y155860D02*
X292460Y158360D01*
X292430Y158500D01*
G02X293480Y156680I3433J768D01*
G01X293370Y156780D01*
X289040Y154280D01*
X289030Y154180D01*
G02X288040Y155900I-1711J160D01*
G01X288130Y155860D01*
G37*
G36*
G01X-279710Y160440D02*
X-288370Y165440D01*
X-288480Y165340D01*
G02X-287430Y167160I-2383J2588D01*
G01X-287460Y167020D01*
X-278800Y162020D01*
X-278710Y162060D01*
G02X-279700Y160340I721J-1560D01*
G01X-279710Y160440D01*
G37*
G36*
G01X278800Y162020D02*
X287460Y167020D01*
X287430Y167160D01*
G02X288480Y165340I3433J768D01*
G01X288370Y165440D01*
X279710Y160440D01*
X279700Y160340D01*
G02X278710Y162060I-1711J160D01*
G01X278800Y162020D01*
G37*
G36*
G01X269470Y168180D02*
X282460Y175680D01*
X282430Y175820D01*
G02X283480Y174000I3433J768D01*
G01X283370Y174100D01*
X270380Y166600D01*
X270370Y166500D01*
G02X269380Y168220I-1711J160D01*
G01X269470Y168180D01*
G37*
G36*
G01X-282460Y175680D02*
X-278130Y173180D01*
X-278040Y173220D01*
G02X-279030Y171500I721J-1560D01*
G01X-279040Y171600D01*
X-283370Y174100D01*
X-283480Y174000D01*
G02X-282430Y175820I-2383J2588D01*
G01X-282460Y175680D01*
G37*
G36*
G01X260140Y174340D02*
X277460Y184340D01*
X277430Y184480D01*
G02X278480Y182660I3433J768D01*
G01X278370Y182760D01*
X261050Y172760D01*
X261040Y172660D01*
G02X260050Y174380I-1711J160D01*
G01X260140Y174340D01*
G37*
G36*
G01X250810Y180500D02*
X272460Y193000D01*
X272430Y193140D01*
G02X273480Y191320I3433J768D01*
G01X273370Y191420D01*
X251720Y178920D01*
X251710Y178820D01*
G02X250720Y180540I-1711J160D01*
G01X250810Y180500D01*
G37*
G36*
G01X241480Y186660D02*
X267460Y201660D01*
X267430Y201800D01*
G02X268480Y199980I3433J768D01*
G01X268370Y200080D01*
X242390Y185080D01*
X242380Y184980D01*
G02X241390Y186700I-1711J160D01*
G01X241480Y186660D01*
G37*
G36*
G01X232150Y192820D02*
X262460Y210320D01*
X262430Y210460D01*
G02X263480Y208640I3433J768D01*
G01X263370Y208740D01*
X233060Y191240D01*
X233050Y191140D01*
G02X232060Y192860I-1711J160D01*
G01X232150Y192820D01*
G37*
G36*
G01X222820Y198980D02*
X257460Y218980D01*
X257430Y219120D01*
G02X258480Y217300I3433J768D01*
G01X258370Y217400D01*
X223730Y197400D01*
X223720Y197300D01*
G02X222730Y199020I-1711J160D01*
G01X222820Y198980D01*
G37*
G36*
G01X-198980Y222820D02*
X-218980Y257460D01*
X-219120Y257430D01*
G02X-217300Y258480I-768J3433D01*
G01X-217400Y258370D01*
X-197400Y223730D01*
X-197300Y223720D01*
G02X-199020Y222730I-160J-1711D01*
G01X-198980Y222820D01*
G37*
G36*
G01X-192820Y232150D02*
X-210320Y262460D01*
X-210460Y262430D01*
G02X-208640Y263480I-768J3433D01*
G01X-208740Y263370D01*
X-191240Y233060D01*
X-191140Y233050D01*
G02X-192860Y232060I-160J-1711D01*
G01X-192820Y232150D01*
G37*
G36*
G01X-186660Y241480D02*
X-201660Y267460D01*
X-201800Y267430D01*
G02X-199980Y268480I-768J3433D01*
G01X-200080Y268370D01*
X-185080Y242390D01*
X-184980Y242380D01*
G02X-186700Y241390I-160J-1711D01*
G01X-186660Y241480D01*
G37*
G36*
G01X-191420Y273370D02*
X-178920Y251720D01*
X-178820Y251710D01*
G02X-180540Y250720I-160J-1711D01*
G01X-180500Y250810D01*
X-193000Y272460D01*
X-193140Y272430D01*
G02X-191320Y273480I-768J3433D01*
G01X-191420Y273370D01*
G37*
G36*
G01X-174340Y260140D02*
X-184340Y277460D01*
X-184480Y277430D01*
G02X-182660Y278480I-768J3433D01*
G01X-182760Y278370D01*
X-172760Y261050D01*
X-172660Y261040D01*
G02X-174380Y260050I-160J-1711D01*
G01X-174340Y260140D01*
G37*
G36*
G01X-168180Y269470D02*
X-175680Y282460D01*
X-175820Y282430D01*
G02X-174000Y283480I-768J3433D01*
G01X-174100Y283370D01*
X-166600Y270380D01*
X-166500Y270370D01*
G02X-168220Y269380I-160J-1711D01*
G01X-168180Y269470D01*
G37*
G36*
G01X-165440Y288370D02*
X-160440Y279710D01*
X-160340Y279700D01*
G02X-162060Y278710I-160J-1711D01*
G01X-162020Y278800D01*
X-167020Y287460D01*
X-167160Y287430D01*
G02X-165340Y288480I-768J3433D01*
G01X-165440Y288370D01*
G37*
G36*
G01X-156780Y293370D02*
X-154280Y289040D01*
X-154180Y289030D01*
G02X-155900Y288040I-160J-1711D01*
G01X-155860Y288130D01*
X-158360Y292460D01*
X-158500Y292430D01*
G02X-156680Y293480I-768J3433D01*
G01X-156780Y293370D01*
G37*
G36*
G01X249640Y-418240D02*
Y-410380D01*
G02X250160Y-409860I515J5D01*
G01X269840D01*
G02X270360Y-410380I5J-515D01*
G01Y-418240D01*
G02X269840Y-418760I-515J-5D01*
G01X250160D01*
G02X249640Y-418240I-5J515D01*
G37*
G36*
G01Y-394620D02*
Y-386760D01*
G02X250160Y-386240I515J5D01*
G01X269840D01*
G02X270360Y-386760I5J-515D01*
G01Y-394620D01*
G02X269840Y-395140I-515J-5D01*
G01X250160D01*
G02X249640Y-394620I-5J515D01*
G37*
G36*
G01X-76590Y350380D02*
X-75470Y349260D01*
X-72120Y345910D01*
X-51240D01*
X-43050Y354100D01*
X-43120Y354230D01*
G02X-41630Y352740I3120J1630D01*
G01X-41760Y352810D01*
X-50480Y344090D01*
X-72880D01*
X-77170Y348380D01*
X-78410Y349620D01*
Y434620D01*
X-85380Y441590D01*
X-207120D01*
X-211660Y437050D01*
Y291590D01*
X-211520Y291550D01*
G02X-213620I-1050J-3360D01*
G01X-213480Y291590D01*
Y437810D01*
X-213420Y437870D01*
X-207880Y443410D01*
X-84620D01*
X-84560Y443350D01*
X-76590Y435380D01*
Y350380D01*
G37*
G36*
G01X274050Y-412340D02*
Y-392660D01*
G02X274560Y-392140I515J5D01*
G01X282440D01*
G02X282950Y-392660I-5J-515D01*
G01Y-412340D01*
G02X282440Y-412860I-515J-5D01*
G01X274560D01*
G02X274050Y-412340I5J515D01*
G37*
G36*
G01X285520Y0D02*
G02I-285520J0D01*
G37*
G36*
G01X-381980Y268210D02*
X-231140D01*
X-154670Y312010D01*
X-154470Y311930D01*
X-154170Y311810D01*
X-153630Y311590D01*
X-153530Y311550D01*
X-153210Y311420D01*
X-152840Y311270D01*
X-144760Y307990D01*
X-144670Y308100D01*
G02X-145460Y306150I2720J-2237D01*
G01X-145450Y306300D01*
X-154530Y309990D01*
X-230660Y266390D01*
X-381220D01*
X-414590Y233020D01*
Y-278220D01*
X-384880Y-307930D01*
X-340210D01*
G02Y-309750I1460J-910D01*
G01X-340830D01*
G03X-341110Y-310390I41J-399D01*
G02X-343890I-1390J-1010D01*
G03X-344170Y-309750I-321J241D01*
G01X-385640D01*
X-385700Y-309690D01*
X-416410Y-278980D01*
Y233780D01*
X-416350Y233840D01*
X-381980Y268210D01*
G37*
G36*
G01X-362720Y254390D02*
X-384890Y232220D01*
Y115640D01*
G03X-384210Y115380I399J24D01*
G01X-381370Y118220D01*
X-346590D01*
X-346550Y118360D01*
G02Y116260I3360J-1050D01*
G01X-346590Y116400D01*
X-380610D01*
X-384890Y112120D01*
Y-59960D01*
X-366000Y-78850D01*
X-358910Y-71760D01*
X-358980Y-71630D01*
G02X-357490Y-73120I3120J1630D01*
G01X-357620Y-73050D01*
X-365090Y-80520D01*
Y-233320D01*
X-360770Y-237640D01*
X-276590D01*
X-276550Y-237500D01*
G02Y-239600I3360J-1050D01*
G01X-276590Y-239460D01*
X-361530D01*
X-366910Y-234080D01*
Y-80520D01*
X-386710Y-60720D01*
Y112470D01*
Y232980D01*
X-386650Y233040D01*
X-363480Y256210D01*
X-232940D01*
X-232880Y256150D01*
X-232730Y256000D01*
G03X-232050Y256240I283J281D01*
G02X-230930Y253270I3499J-377D01*
G01X-231040Y253370D01*
X-232080Y252770D01*
X-233700Y254390D01*
X-362720D01*
G37*
G36*
G01X-205290Y-400160D02*
X-209220D01*
X-214160Y-395220D01*
Y-363260D01*
X-240960D01*
G02Y-361740I-1540J760D01*
G01X-178980D01*
X-178090Y-360860D01*
X-178120Y-360740D01*
G02X-176900Y-361960I1660J440D01*
G01X-177020Y-361930D01*
X-178340Y-363260D01*
X-212280D01*
X-212640Y-363620D01*
Y-394580D01*
X-208580Y-398640D01*
X-205290D01*
G02Y-400160I1540J-760D01*
G37*
G54D20*
X435000Y435000D03*
Y-435000D03*
X400000Y400000D03*
Y-400000D03*
X-400000Y400000D03*
Y-400000D03*
X-435000Y435000D03*
Y-435000D03*
G54D21*
X435000Y420000D03*
Y390000D03*
Y400000D03*
Y410000D03*
Y370000D03*
Y360000D03*
Y380000D03*
Y330000D03*
Y340000D03*
Y350000D03*
Y310000D03*
Y300000D03*
Y320000D03*
Y270000D03*
Y280000D03*
Y290000D03*
Y250000D03*
Y240000D03*
Y260000D03*
Y210000D03*
Y220000D03*
Y230000D03*
Y190000D03*
Y180000D03*
Y200000D03*
Y150000D03*
Y160000D03*
Y170000D03*
Y130000D03*
Y120000D03*
Y140000D03*
Y90000D03*
Y100000D03*
Y110000D03*
Y70000D03*
Y60000D03*
Y80000D03*
Y30000D03*
Y40000D03*
Y50000D03*
Y10000D03*
Y0D03*
Y20000D03*
Y-30000D03*
Y-20000D03*
Y-10000D03*
Y-50000D03*
Y-60000D03*
Y-40000D03*
Y-90000D03*
Y-80000D03*
Y-70000D03*
Y-110000D03*
Y-120000D03*
Y-100000D03*
Y-150000D03*
Y-140000D03*
Y-130000D03*
Y-170000D03*
Y-180000D03*
Y-160000D03*
Y-210000D03*
Y-200000D03*
Y-190000D03*
Y-230000D03*
Y-240000D03*
Y-220000D03*
Y-270000D03*
Y-260000D03*
Y-250000D03*
Y-290000D03*
Y-300000D03*
Y-280000D03*
Y-330000D03*
Y-320000D03*
Y-310000D03*
Y-350000D03*
Y-360000D03*
Y-340000D03*
Y-390000D03*
Y-380000D03*
Y-370000D03*
Y-410000D03*
Y-420000D03*
Y-400000D03*
X376500Y-15500D03*
X368800Y-32100D03*
X334200Y153600D03*
X339160Y172600D03*
X320800Y-208170D03*
X292100Y315500D03*
Y273600D03*
X301390Y-211300D03*
X218300Y310800D03*
X202300Y319700D03*
X161000Y-345500D03*
X176290Y-337200D03*
X33200Y370000D03*
X15900Y377600D03*
X-11400Y-370300D03*
X-26250Y-438960D03*
Y-433840D03*
Y-428720D03*
Y-423600D03*
X-33700Y-366600D03*
X-30000Y-421040D03*
Y-436400D03*
Y-431280D03*
Y-426160D03*
X-85660Y-333350D03*
X-74900Y-412600D03*
X-89490Y-329920D03*
X-90080Y-334140D03*
X-95700Y-412500D03*
X-155100Y336500D03*
X-174130Y335000D03*
X-171700Y-412500D03*
X-176060Y-395100D03*
X-207600Y-317450D03*
X-193750Y-346340D03*
X-197500Y-348900D03*
X-193750Y-351460D03*
X-196250Y-379400D03*
X-207380Y-417620D03*
X-195060Y-415060D03*
X-189900Y-412500D03*
X-183940Y-404900D03*
X-195350Y-435530D03*
X-204650Y-432970D03*
X-195350Y-430410D03*
X-204650Y-427850D03*
X-214820Y-314200D03*
X-237500Y-412500D03*
X-212500Y-427500D03*
X-232500D03*
X-222500D03*
Y-442500D03*
X-232500D03*
X-264670Y-330120D03*
X-254940Y-327560D03*
X-261380Y-337800D03*
X-264670Y-335240D03*
X-261380Y-332680D03*
X-252500Y-427500D03*
X-242500D03*
X-267500Y-422500D03*
X-262500D03*
X-242500Y-442500D03*
X-252500D03*
X-262500D03*
X-291280Y-273750D03*
X-293840Y-277500D03*
X-296400Y-273750D03*
X-270000Y-320000D03*
X-286540Y-364640D03*
X-297500Y-422500D03*
X-292500D03*
X-287500D03*
X-282500D03*
X-277500D03*
X-272500Y-442500D03*
X-282500D03*
X-292500D03*
X-304300Y216290D03*
X-319060Y205800D03*
X-298960Y-277500D03*
X-309200Y-329470D03*
X-324660Y-332030D03*
X-320800Y-334590D03*
X-324660Y-337150D03*
X-320800Y-339700D03*
X-324660Y-342260D03*
X-319940Y-344820D03*
X-310060Y-347380D03*
X-302440Y-342560D03*
Y-334940D03*
X-317500Y-385690D03*
X-307500D03*
X-312500D03*
X-322500D03*
X-327500D03*
X-302500Y-427500D03*
X-307500Y-422500D03*
X-322500Y-427500D03*
X-312500D03*
X-302500Y-442500D03*
X-312500D03*
X-322500D03*
X-345400Y-168600D03*
X-340000Y-174950D03*
X-342500Y-296040D03*
X-338750Y-313960D03*
X-333140Y-312340D03*
X-352500Y-427500D03*
X-342500D03*
X-332500D03*
Y-442500D03*
X-342500D03*
X-352500D03*
X-365700Y32800D03*
X-372400Y15300D03*
X-362500Y-427500D03*
Y-442500D03*
X-410180Y-300300D03*
Y-295180D03*
X-400450Y-287500D03*
X-392950Y-280000D03*
X-410180Y-305410D03*
X-435000Y420000D03*
Y390000D03*
Y400000D03*
Y410000D03*
Y370000D03*
Y360000D03*
Y380000D03*
Y330000D03*
Y340000D03*
Y350000D03*
Y310000D03*
Y300000D03*
Y320000D03*
Y270000D03*
Y280000D03*
Y290000D03*
Y250000D03*
Y240000D03*
Y260000D03*
Y210000D03*
Y220000D03*
Y230000D03*
Y190000D03*
Y180000D03*
Y200000D03*
Y150000D03*
Y160000D03*
Y170000D03*
Y130000D03*
Y120000D03*
Y140000D03*
Y90000D03*
Y100000D03*
Y110000D03*
Y70000D03*
Y60000D03*
Y80000D03*
Y30000D03*
Y40000D03*
Y50000D03*
Y10000D03*
Y0D03*
Y20000D03*
Y-30000D03*
Y-20000D03*
Y-10000D03*
Y-50000D03*
Y-60000D03*
Y-40000D03*
Y-90000D03*
Y-80000D03*
Y-70000D03*
Y-110000D03*
Y-120000D03*
Y-100000D03*
Y-150000D03*
Y-140000D03*
Y-130000D03*
Y-170000D03*
Y-180000D03*
Y-160000D03*
Y-210000D03*
Y-200000D03*
Y-190000D03*
Y-230000D03*
Y-240000D03*
Y-220000D03*
Y-270000D03*
Y-260000D03*
Y-250000D03*
X-419880Y-297740D03*
Y-292620D03*
X-422500Y-287500D03*
X-435000Y-290000D03*
Y-300000D03*
Y-280000D03*
X-419880Y-302850D03*
X-435000Y-330000D03*
Y-320000D03*
Y-310000D03*
Y-350000D03*
Y-360000D03*
Y-340000D03*
Y-390000D03*
Y-380000D03*
Y-370000D03*
Y-410000D03*
Y-420000D03*
Y-400000D03*
G54D19*
X-308190Y-177930D03*
X338190Y125970D03*
X343190Y117310D03*
X355860Y60000D03*
Y30000D03*
Y40000D03*
Y50000D03*
Y0D03*
Y10000D03*
Y20000D03*
Y-30000D03*
Y-20000D03*
Y-10000D03*
X335860Y-30000D03*
Y-20000D03*
X355860Y-60000D03*
Y-50000D03*
Y-40000D03*
X335860Y-60000D03*
Y-50000D03*
Y-40000D03*
X355860Y-70000D03*
X335860D03*
X343190Y-117310D03*
X338190Y-125970D03*
X323190Y151950D03*
X318190Y160610D03*
X313190Y169270D03*
X308190Y177930D03*
X333190Y134630D03*
X315860Y124630D03*
X310860Y133290D03*
X305860Y141950D03*
X325860Y107310D03*
X320860Y115970D03*
X328190Y-143290D03*
X333190Y-134630D03*
X308190Y-177930D03*
X313190Y-169270D03*
X318190Y-160610D03*
X323190Y-151950D03*
X288190Y212570D03*
X283190Y221230D03*
X278190Y229890D03*
X303190Y186590D03*
X298190Y195250D03*
X293190Y203910D03*
X300860Y150610D03*
X293190Y-203910D03*
X298190Y-195250D03*
X303190Y-186590D03*
X275860Y-193910D03*
X280860Y-185250D03*
X278190Y-229890D03*
X283190Y-221230D03*
X288190Y-212570D03*
X255860Y228550D03*
X270860Y-202570D03*
X273190Y-238550D03*
X255860Y-228550D03*
X260860Y-219890D03*
X265860Y-211230D03*
X238550Y273190D03*
X229890Y278190D03*
X221230Y283190D03*
X228550Y255860D03*
X219890Y260860D03*
X228550Y-255860D03*
X221230Y-283190D03*
X229890Y-278190D03*
X186590Y303190D03*
X212570Y288190D03*
X203910Y293190D03*
X195250Y298190D03*
X193910Y275860D03*
X185250Y280860D03*
X211230Y265860D03*
X202570Y270860D03*
X195250Y-298190D03*
X203910Y-293190D03*
X212570Y-288190D03*
X186590Y-303190D03*
X177930Y308190D03*
X169270Y313190D03*
X160610Y318190D03*
X176590Y285860D03*
X167930Y290860D03*
X159270Y295860D03*
X160610Y-318190D03*
X169270Y-313190D03*
X177930Y-308190D03*
X134630Y333190D03*
X125970Y338190D03*
X151950Y323190D03*
X143290Y328190D03*
X141950Y305860D03*
X133290Y310860D03*
X124630Y315860D03*
X150610Y300860D03*
X143290Y-328190D03*
X151950Y-323190D03*
X124630Y-315860D03*
X133290Y-310860D03*
X141950Y-305860D03*
X150610Y-300860D03*
X125970Y-338190D03*
X134630Y-333190D03*
X115970Y320860D03*
X107310Y325860D03*
Y-325860D03*
X115970Y-320860D03*
X117310Y-343190D03*
X70000Y335860D03*
Y355860D03*
Y-355860D03*
X60000Y335860D03*
X50000D03*
X40000D03*
X60000Y355860D03*
X50000D03*
X40000D03*
X30000Y335860D03*
X20000D03*
X10000D03*
X30000Y355860D03*
X20000D03*
X10000D03*
X0Y335860D03*
X-10000D03*
X-20000D03*
X0Y355860D03*
X-10000D03*
X-20000D03*
Y-355860D03*
Y-335860D03*
X-40000Y335860D03*
X-50000D03*
X-30000Y355860D03*
X-50000Y-355860D03*
X-40000D03*
X-30000D03*
X-50000Y-335860D03*
X-40000D03*
X-30000D03*
X-60000Y335860D03*
X-70000D03*
X-60000Y355860D03*
X-70000Y-355860D03*
X-60000D03*
X-70000Y-335860D03*
X-60000D03*
X-107310Y325860D03*
X-117310Y343190D03*
X-125970Y338190D03*
X-134630Y333190D03*
X-143290Y328190D03*
X-115970Y320860D03*
X-124630Y315860D03*
X-133290Y310860D03*
X-143290Y-328190D03*
X-134630Y-333190D03*
X-125970Y-338190D03*
X-151950Y323190D03*
X-160610Y318190D03*
X-169270Y313190D03*
X-150610Y300860D03*
X-169270Y-313190D03*
X-160610Y-318190D03*
X-151950Y-323190D03*
X-177930Y308190D03*
X-186590Y303190D03*
X-195250Y298190D03*
X-203910Y-293190D03*
X-195250Y-298190D03*
X-202570Y-270860D03*
X-193910Y-275860D03*
X-185250Y-280860D03*
X-186590Y-303190D03*
X-177930Y-308190D03*
X-229890Y278190D03*
X-228550Y-255860D03*
X-219890Y-260860D03*
X-211230Y-265860D03*
X-229890Y-278190D03*
X-221230Y-283190D03*
X-212570Y-288190D03*
X-255860Y228550D03*
X-260860Y219890D03*
X-238550Y-273190D03*
X-265860Y211230D03*
X-273190Y238550D03*
X-278190Y229890D03*
X-283190Y221230D03*
X-288190Y212570D03*
X-270860Y202570D03*
X-275860Y193910D03*
X-280860Y185250D03*
X-293190Y203910D03*
Y-203910D03*
X-288190Y-212570D03*
X-283190Y-221230D03*
X-278190Y-229890D03*
X-298190Y195250D03*
X-303190Y186590D03*
X-308190Y177930D03*
X-313190Y169270D03*
X-318190Y160610D03*
X-323190Y151950D03*
X-320860Y-115970D03*
X-315860Y-124630D03*
X-310860Y-133290D03*
X-305860Y-141950D03*
X-323190Y-151950D03*
X-318190Y-160610D03*
X-313190Y-169270D03*
X-300860Y-150610D03*
X-303190Y-186590D03*
X-298190Y-195250D03*
X-328190Y143290D03*
X-333190Y134630D03*
X-338190Y125970D03*
X-325860Y107310D03*
X-355860Y70000D03*
Y60000D03*
X-335860Y70000D03*
Y60000D03*
X-355860Y50000D03*
Y40000D03*
Y30000D03*
X-335860Y50000D03*
Y40000D03*
Y30000D03*
X-355860Y20000D03*
Y10000D03*
Y0D03*
X-335860Y20000D03*
X-355860Y-10000D03*
Y-20000D03*
Y-30000D03*
Y-40000D03*
Y-50000D03*
Y-60000D03*
X-335860Y-70000D03*
X-343190Y-117310D03*
X-325860Y-107310D03*
X-338190Y-125970D03*
X-333190Y-134630D03*
X-328190Y-143290D03*
X0Y-355860D03*
X-10000D03*
X10000D03*
X30000D03*
X20000D03*
X40000D03*
X60000D03*
X50000D03*
%LPD*%
G75*
G36*
G01X160020Y-361390D02*
X157060Y-372480D01*
X115440Y-396590D01*
X-100380D01*
X-100440Y-396650D01*
X-105910Y-402120D01*
Y-422120D01*
X-109100Y-425310D01*
X-137570D01*
G02X-137850Y-424670I41J399D01*
G03X-137780Y-424570I-1372J1035D01*
G01X-115790D01*
X-108550Y-417330D01*
Y-397340D01*
X-104620Y-393410D01*
X54780D01*
X147710Y-339620D01*
G02X148280Y-340020I174J-358D01*
G03X149830Y-341910I1710J-178D01*
G01X149930Y-341920D01*
X160390Y-359990D01*
X160020Y-361390D01*
G37*
G54D10*
X-435000Y-435000D03*
Y435000D03*
X-400000Y-400000D03*
Y400000D03*
X400000Y-400000D03*
Y400000D03*
X435000Y-435000D03*
Y435000D03*
G54D11*
X-435000Y-400000D03*
Y-420000D03*
Y-410000D03*
X-427500Y-375000D03*
Y-365000D03*
X-435000Y-370000D03*
Y-380000D03*
Y-390000D03*
X-427500Y-345000D03*
Y-355000D03*
Y-335000D03*
X-435000Y-340000D03*
Y-360000D03*
Y-350000D03*
X-427500Y-315000D03*
Y-325000D03*
X-419880Y-302850D03*
X-435000Y-310000D03*
Y-320000D03*
Y-330000D03*
X-422500Y-287500D03*
X-419880Y-292620D03*
Y-297740D03*
X-435000Y-280000D03*
Y-300000D03*
Y-290000D03*
X-420000Y-260000D03*
Y-270000D03*
Y-250000D03*
X-435000D03*
Y-260000D03*
Y-270000D03*
X-420000Y-230000D03*
Y-240000D03*
Y-220000D03*
X-435000D03*
Y-240000D03*
Y-230000D03*
X-420000Y-210000D03*
Y-200000D03*
Y-190000D03*
X-435000D03*
Y-200000D03*
Y-210000D03*
X-420000Y-170000D03*
Y-180000D03*
Y-160000D03*
X-435000D03*
Y-180000D03*
Y-170000D03*
X-420000Y-130000D03*
Y-140000D03*
Y-150000D03*
X-435000Y-130000D03*
Y-140000D03*
Y-150000D03*
X-420000Y-100000D03*
Y-110000D03*
Y-120000D03*
X-435000Y-100000D03*
Y-120000D03*
Y-110000D03*
X-420000Y-80000D03*
Y-70000D03*
Y-90000D03*
X-435000Y-70000D03*
Y-80000D03*
Y-90000D03*
X-420000Y-40000D03*
Y-50000D03*
Y-60000D03*
X-435000Y-40000D03*
Y-60000D03*
Y-50000D03*
X-420000Y-10000D03*
Y-20000D03*
Y-30000D03*
X-435000Y-10000D03*
Y-20000D03*
Y-30000D03*
X-420000Y0D03*
Y20000D03*
Y10000D03*
X-435000Y20000D03*
Y0D03*
Y10000D03*
X-420000Y30000D03*
Y50000D03*
Y40000D03*
X-435000Y50000D03*
Y40000D03*
Y30000D03*
X-420000Y60000D03*
Y80000D03*
Y70000D03*
X-435000Y80000D03*
Y60000D03*
Y70000D03*
X-420000Y90000D03*
Y110000D03*
Y100000D03*
X-435000Y110000D03*
Y100000D03*
Y90000D03*
X-420000Y130000D03*
Y120000D03*
Y140000D03*
X-435000D03*
Y120000D03*
Y130000D03*
X-420000Y160000D03*
Y150000D03*
Y170000D03*
X-435000D03*
Y160000D03*
Y150000D03*
X-420000Y180000D03*
Y190000D03*
Y200000D03*
X-435000D03*
Y180000D03*
Y190000D03*
X-420000Y220000D03*
Y210000D03*
Y230000D03*
X-435000D03*
Y220000D03*
Y210000D03*
X-420000Y260000D03*
Y250000D03*
Y240000D03*
X-435000Y260000D03*
Y240000D03*
Y250000D03*
X-420000Y290000D03*
Y280000D03*
Y270000D03*
X-435000Y290000D03*
Y280000D03*
Y270000D03*
X-420000Y310000D03*
Y320000D03*
Y300000D03*
X-435000Y320000D03*
Y300000D03*
Y310000D03*
X-420000Y350000D03*
Y340000D03*
Y330000D03*
X-435000Y350000D03*
Y340000D03*
Y330000D03*
X-420000Y370000D03*
Y360000D03*
X-435000Y380000D03*
Y360000D03*
Y370000D03*
Y410000D03*
Y400000D03*
Y390000D03*
Y430000D03*
Y420000D03*
X-407500Y-440000D03*
X-397500D03*
X-405000Y-425000D03*
X-395000D03*
X-417500Y-447500D03*
X-407500D03*
X-397500D03*
X-392500Y-317500D03*
X-405000Y-312500D03*
X-410180Y-305410D03*
X-392950Y-280000D03*
X-400450Y-287500D03*
X-397380Y-292620D03*
X-410180Y-295180D03*
Y-300300D03*
X-412500Y-220000D03*
X-405000Y-210000D03*
Y-200000D03*
Y-190000D03*
X-395000Y-210000D03*
Y-200000D03*
Y-190000D03*
X-412500Y-200000D03*
Y-190000D03*
Y-210000D03*
X-405000Y-180000D03*
Y-170000D03*
Y-160000D03*
X-395000Y-180000D03*
Y-170000D03*
Y-160000D03*
X-412500Y-180000D03*
Y-160000D03*
Y-170000D03*
X-405000Y-140000D03*
Y-130000D03*
X-395000Y-140000D03*
Y-130000D03*
X-405000Y-150000D03*
X-395000D03*
X-412500D03*
Y-140000D03*
Y-130000D03*
X-405000Y-110000D03*
Y-120000D03*
Y-100000D03*
X-395000Y-110000D03*
Y-120000D03*
Y-100000D03*
X-412500Y-120000D03*
Y-110000D03*
Y-100000D03*
X-405000Y-70000D03*
X-395000D03*
X-405000Y-80000D03*
Y-90000D03*
X-395000Y-80000D03*
Y-90000D03*
X-412500Y-80000D03*
Y-70000D03*
Y-90000D03*
X-405000Y-60000D03*
Y-40000D03*
Y-50000D03*
X-395000Y-60000D03*
Y-40000D03*
Y-50000D03*
X-412500Y-60000D03*
Y-40000D03*
Y-50000D03*
X-405000Y-30000D03*
Y-10000D03*
Y-20000D03*
X-395000Y-30000D03*
Y-10000D03*
Y-20000D03*
X-412500Y-30000D03*
Y-20000D03*
Y-10000D03*
X-405000Y0D03*
Y10000D03*
Y20000D03*
X-395000Y0D03*
Y10000D03*
Y20000D03*
X-412500Y0D03*
Y10000D03*
Y20000D03*
X-405000Y30000D03*
Y40000D03*
Y50000D03*
X-395000Y30000D03*
Y40000D03*
Y50000D03*
X-412500Y40000D03*
Y50000D03*
Y30000D03*
X-405000Y70000D03*
Y80000D03*
X-395000Y70000D03*
Y80000D03*
X-405000Y60000D03*
X-395000D03*
X-412500D03*
Y80000D03*
Y70000D03*
X-405000Y100000D03*
Y90000D03*
Y110000D03*
X-395000Y100000D03*
Y90000D03*
Y110000D03*
X-412500Y90000D03*
Y100000D03*
Y110000D03*
X-395000Y140000D03*
X-405000D03*
Y130000D03*
Y120000D03*
X-395000Y130000D03*
Y120000D03*
X-412500D03*
Y130000D03*
Y140000D03*
X-395000Y150000D03*
Y170000D03*
Y160000D03*
X-405000Y150000D03*
Y170000D03*
Y160000D03*
X-412500D03*
Y170000D03*
Y150000D03*
X-395000Y180000D03*
Y200000D03*
Y190000D03*
X-405000Y180000D03*
Y200000D03*
Y190000D03*
X-412500Y180000D03*
Y200000D03*
Y190000D03*
Y210000D03*
X-403710Y236290D03*
X-391210D03*
X-389570Y250430D03*
X-396640Y243360D03*
X-389570Y267930D03*
X-403710Y253790D03*
X-396640Y260860D03*
X-402500Y287500D03*
Y297500D03*
X-395000Y287500D03*
Y297500D03*
X-402500Y317500D03*
Y307500D03*
Y327500D03*
X-395000Y317500D03*
Y307500D03*
Y327500D03*
X-402500Y347500D03*
Y337500D03*
X-395000Y347500D03*
Y337500D03*
X-387500Y-440000D03*
X-377500D03*
X-385000Y-425000D03*
X-375000D03*
X-362500Y-442500D03*
Y-427500D03*
X-387500Y-447500D03*
X-377500D03*
X-367500D03*
X-372500Y-405000D03*
Y-415000D03*
Y-395000D03*
Y-385000D03*
X-382500Y-346460D03*
X-386250Y-343900D03*
X-382500Y-341340D03*
X-386250Y-338780D03*
X-382500Y-336220D03*
X-386250Y-333660D03*
X-382500Y-331100D03*
X-386250Y-328540D03*
X-382500Y-215000D03*
X-370000D03*
X-382500Y-205000D03*
Y-185000D03*
Y-195000D03*
X-370000Y-205000D03*
Y-185000D03*
Y-195000D03*
X-382500Y-175000D03*
Y-155000D03*
Y-165000D03*
X-370000Y-175000D03*
Y-155000D03*
Y-165000D03*
Y-145000D03*
Y-135000D03*
Y-125000D03*
X-382500Y-145000D03*
Y-135000D03*
Y-125000D03*
X-370000Y-115000D03*
Y-105000D03*
Y-95000D03*
X-382500Y-115000D03*
Y-105000D03*
Y-95000D03*
X-370000Y-85000D03*
X-382500D03*
X-372400Y15300D03*
X-365700Y32800D03*
X-380000Y82500D03*
X-375000D03*
X-370000D03*
X-380000Y102500D03*
Y112500D03*
Y92500D03*
X-375000Y102500D03*
Y112500D03*
Y92500D03*
X-370000Y102500D03*
Y112500D03*
Y92500D03*
X-377500Y145000D03*
X-370000D03*
X-377500Y155000D03*
Y175000D03*
Y165000D03*
X-370000Y155000D03*
Y175000D03*
Y165000D03*
X-377500Y185000D03*
Y205000D03*
Y195000D03*
X-370000Y185000D03*
Y205000D03*
Y195000D03*
X-381210Y228790D03*
X-374140Y235860D03*
X-382500Y257500D03*
X-377070Y250430D03*
X-370000Y257500D03*
X-384140Y243360D03*
X-367070Y242930D03*
X-360000Y250000D03*
X-382500Y275000D03*
X-352500Y-442500D03*
X-342500D03*
X-332500D03*
Y-427500D03*
X-342500D03*
X-352500D03*
X-347500Y-447500D03*
X-340000D03*
X-330000D03*
X-357500D03*
X-347500Y-362500D03*
X-337500D03*
X-332560Y-349940D03*
X-333140Y-312340D03*
X-338750Y-308840D03*
X-342500Y-311400D03*
X-338750Y-313960D03*
X-347500Y-275000D03*
X-340000D03*
X-332500D03*
X-342500Y-296040D03*
X-347500Y-255000D03*
Y-245000D03*
Y-265000D03*
X-340000Y-255000D03*
Y-245000D03*
Y-265000D03*
X-332500Y-255000D03*
Y-245000D03*
Y-265000D03*
X-340000Y-174950D03*
X-345400Y-168600D03*
X-357500Y82500D03*
Y102500D03*
Y112500D03*
Y92500D03*
Y145000D03*
Y155000D03*
Y175000D03*
Y165000D03*
X-342500D03*
Y155000D03*
Y175000D03*
X-357500Y185000D03*
Y205000D03*
Y195000D03*
X-342500Y185000D03*
X-347500Y230000D03*
X-337500D03*
X-347500Y237500D03*
X-337500D03*
X-347500Y220000D03*
X-337500D03*
X-347500Y245000D03*
X-337500D03*
X-347500Y262500D03*
X-337500D03*
X-330000Y350000D03*
X-340000D03*
X-330000Y360000D03*
X-340000D03*
X-330000Y370000D03*
X-340000D03*
X-330000Y380000D03*
X-340000D03*
X-330000Y390000D03*
X-340000D03*
X-330000Y400000D03*
X-340000D03*
X-330000Y410000D03*
X-340000D03*
X-322500Y-442500D03*
X-312500D03*
X-302500D03*
X-312500Y-427500D03*
X-322500D03*
X-307500Y-422500D03*
X-302500Y-427500D03*
X-320000Y-447500D03*
X-310000D03*
X-300000D03*
X-302500Y-385690D03*
X-327500Y-362500D03*
X-317500D03*
X-307500D03*
X-327500Y-385690D03*
X-322500D03*
X-312500D03*
X-307500D03*
X-317500D03*
X-319940Y-349940D03*
X-302440Y-334940D03*
X-327620Y-347380D03*
X-299880Y-332380D03*
X-302440Y-342560D03*
X-310060Y-347380D03*
X-319940Y-344820D03*
X-324660Y-342260D03*
X-320800Y-339700D03*
X-324660Y-337150D03*
X-320800Y-334590D03*
X-324660Y-332030D03*
X-321910Y-326910D03*
X-309200Y-329470D03*
X-325000Y-275000D03*
X-298960Y-277500D03*
X-325000Y-255000D03*
Y-245000D03*
Y-265000D03*
Y-227500D03*
Y-217500D03*
X-310000Y-227500D03*
Y-217500D03*
X-320000Y-207500D03*
Y-187500D03*
Y-197500D03*
X-315000Y-207500D03*
Y-187500D03*
Y-197500D03*
X-325000Y-207500D03*
Y-197500D03*
X-310000Y-207500D03*
Y-197500D03*
X-320000Y-177500D03*
X-315000D03*
X-301000Y-40000D03*
X-316000Y-10000D03*
X-311000Y-20000D03*
X-306000Y-30000D03*
X-326000Y10000D03*
X-321000Y0D03*
X-319060Y205800D03*
X-327500Y230000D03*
X-317500D03*
X-327500Y237500D03*
X-317500D03*
X-327500Y220000D03*
X-317500D03*
X-304300Y216290D03*
X-327500Y245000D03*
X-317500D03*
X-327500Y262500D03*
X-317500D03*
X-305000Y272500D03*
Y282500D03*
Y292500D03*
X-315000Y272500D03*
Y282500D03*
Y292500D03*
X-325000Y272500D03*
Y282500D03*
Y292500D03*
X-305000Y302500D03*
Y312500D03*
Y322500D03*
X-315000Y302500D03*
Y312500D03*
Y322500D03*
X-325000Y302500D03*
Y312500D03*
Y322500D03*
X-300000Y350000D03*
X-310000D03*
X-320000D03*
X-305000Y332500D03*
X-315000D03*
X-325000D03*
X-300000Y360000D03*
X-310000D03*
X-320000D03*
X-300000Y370000D03*
X-310000D03*
X-320000D03*
X-300000Y380000D03*
X-310000D03*
X-320000D03*
X-300000Y390000D03*
X-310000D03*
X-320000D03*
X-300000Y400000D03*
X-310000D03*
X-320000D03*
X-300000Y410000D03*
X-310000D03*
X-320000D03*
X-292500Y-442500D03*
X-282500D03*
X-272500D03*
X-277500Y-422500D03*
X-282500D03*
X-287500D03*
X-292500D03*
X-297500D03*
X-290000Y-447500D03*
X-280000D03*
X-270000D03*
X-297500Y-385690D03*
X-292500D03*
X-287500D03*
X-282500D03*
X-277500D03*
X-272500D03*
X-297500Y-362500D03*
X-286540Y-364640D03*
X-277500Y-335000D03*
Y-345000D03*
X-289650Y-345350D03*
X-287090Y-342910D03*
X-284530Y-340470D03*
X-281970Y-338030D03*
X-270000Y-320000D03*
X-296400Y-273750D03*
X-293840Y-277500D03*
X-291280Y-273750D03*
X-287320Y-154340D03*
X-268660Y-166660D03*
X-277990Y-160500D03*
X-296000Y-50000D03*
X-291000Y-60000D03*
X-280670Y115860D03*
X-281340Y104700D03*
X-282010Y93540D03*
X-278660Y149340D03*
X-279330Y138180D03*
X-280000Y127020D03*
X-277320Y171660D03*
X-277990Y160500D03*
X-280000Y272500D03*
Y282500D03*
Y292500D03*
X-270000Y272500D03*
Y282500D03*
Y292500D03*
X-280000Y302500D03*
Y312500D03*
Y322500D03*
X-270000Y302500D03*
Y312500D03*
Y322500D03*
X-280000Y350000D03*
X-270000D03*
X-290000D03*
X-280000Y332500D03*
X-270000D03*
X-280000Y360000D03*
X-270000D03*
X-290000D03*
X-280000Y370000D03*
X-270000D03*
X-290000D03*
X-280000Y380000D03*
X-270000D03*
X-290000D03*
X-280000Y390000D03*
X-270000D03*
X-290000D03*
X-280000Y400000D03*
X-270000D03*
X-290000D03*
X-280000Y410000D03*
X-270000D03*
X-290000D03*
X-262500Y-442500D03*
X-252500D03*
X-242500D03*
X-262500Y-422500D03*
X-267500D03*
X-242500Y-427500D03*
X-252500D03*
X-240000Y-447500D03*
X-260000D03*
X-250000D03*
X-242500Y-377500D03*
Y-385690D03*
X-267500D03*
X-262500D03*
X-257500D03*
X-252500D03*
X-247500D03*
X-242500Y-362500D03*
X-265650Y-353150D03*
X-247950Y-354550D03*
X-261380Y-332680D03*
X-264670Y-335240D03*
X-261380Y-337800D03*
X-242620Y-330120D03*
X-254940Y-327560D03*
X-264670Y-330120D03*
X-240670Y-185140D03*
X-259330Y-172820D03*
X-250000Y-178980D03*
X-260000Y272500D03*
Y282500D03*
Y292500D03*
Y302500D03*
Y312500D03*
Y322500D03*
Y350000D03*
Y332500D03*
Y360000D03*
Y370000D03*
Y380000D03*
X-242500Y365000D03*
Y375000D03*
Y385000D03*
X-260000Y390000D03*
Y400000D03*
Y410000D03*
X-242500Y395000D03*
Y405000D03*
Y415000D03*
Y425000D03*
X-212500Y-442500D03*
X-232500D03*
X-222500D03*
Y-427500D03*
X-232500D03*
X-212500D03*
X-230000Y-447500D03*
X-220000D03*
X-210000D03*
X-217500Y-397500D03*
Y-407500D03*
X-225000Y-397500D03*
Y-407500D03*
X-237500Y-412500D03*
X-217500Y-377500D03*
Y-387500D03*
X-225000Y-377500D03*
Y-387500D03*
X-214820Y-314200D03*
X-231340Y-191300D03*
X-222010Y-197460D03*
X-227500Y365000D03*
Y375000D03*
Y385000D03*
X-217500Y365000D03*
Y375000D03*
Y385000D03*
X-227500Y395000D03*
Y405000D03*
Y415000D03*
X-217500Y395000D03*
Y405000D03*
Y415000D03*
X-227500Y425000D03*
X-217500D03*
X-185000Y-440000D03*
X-192500Y-437500D03*
X-204650Y-427850D03*
X-195350Y-430410D03*
X-204650Y-432970D03*
X-195350Y-435530D03*
X-200000Y-447500D03*
X-190000D03*
X-180000D03*
X-184880Y-417620D03*
X-183940Y-404900D03*
X-196250Y-399400D03*
X-189900Y-412500D03*
X-195060Y-415060D03*
X-203750Y-399400D03*
X-207380Y-417620D03*
X-189240Y-365200D03*
X-188940Y-374400D03*
X-195100Y-365500D03*
Y-385500D03*
X-196250Y-379400D03*
X-193750Y-351460D03*
X-197500Y-348900D03*
X-193750Y-346340D03*
X-197500Y-343780D03*
Y-333540D03*
X-193750Y-336100D03*
X-197500Y-338660D03*
X-193750Y-341220D03*
X-207600Y-317450D03*
X-191300Y231340D03*
X-197460Y222010D03*
X-178980Y250000D03*
X-185140Y240670D03*
X-207500Y365000D03*
Y375000D03*
Y385000D03*
X-200000Y365000D03*
Y375000D03*
Y385000D03*
X-190000Y365000D03*
Y375000D03*
Y385000D03*
X-182500Y365000D03*
Y375000D03*
Y385000D03*
X-207500Y395000D03*
Y405000D03*
Y415000D03*
X-200000Y395000D03*
Y405000D03*
Y415000D03*
X-190000Y395000D03*
Y405000D03*
Y415000D03*
X-182500Y395000D03*
Y405000D03*
Y415000D03*
X-207500Y425000D03*
X-200000D03*
X-190000D03*
X-182500D03*
X-150000Y-447500D03*
X-170000D03*
X-160000D03*
X-176060Y-395100D03*
X-171700Y-412500D03*
X-176160Y-379300D03*
X-176460Y-360300D03*
X-171660Y-277320D03*
X-149340Y-278660D03*
X-160500Y-277990D03*
X-166660Y268660D03*
X-172820Y259330D03*
X-154340Y287320D03*
X-160500Y277990D03*
X-174130Y335000D03*
X-155100Y336500D03*
X-172500Y365000D03*
Y375000D03*
Y385000D03*
Y395000D03*
Y405000D03*
Y415000D03*
Y425000D03*
X-139240Y-423660D03*
X-142200Y-421100D03*
Y-426220D03*
X-140000Y-447500D03*
X-130000D03*
X-120000D03*
X-140000Y-392500D03*
Y-402500D03*
X-139240Y-418540D03*
X-140000Y-372500D03*
Y-382500D03*
X-138180Y-279330D03*
X-127020Y-280000D03*
X-95000Y-440650D03*
X-90000Y-447500D03*
X-100000D03*
X-110000D03*
X-95700Y-412500D03*
X-90080Y-334140D03*
X-89490Y-329920D03*
X-115860Y-280670D03*
X-104700Y-281340D03*
X-93540Y-282010D03*
X-60000Y-447500D03*
X-70000D03*
X-80000D03*
X-74900Y-412600D03*
X-86720Y-417620D03*
X-85660Y-333350D03*
X-30000Y-426160D03*
Y-431280D03*
Y-436400D03*
Y-421040D03*
Y-447500D03*
X-40000D03*
X-50000D03*
X-33700Y-366600D03*
X-42500Y365000D03*
Y375000D03*
Y385000D03*
Y395000D03*
Y405000D03*
Y415000D03*
Y425000D03*
X-5000Y-430000D03*
Y-422500D03*
X-26250Y-423600D03*
Y-428720D03*
Y-433840D03*
Y-438960D03*
X0Y-447500D03*
X-10000D03*
X-20000D03*
X-5000Y-405000D03*
X-15000Y-395000D03*
X-5000D03*
X-11400Y-370300D03*
X-5000Y-377500D03*
Y-370000D03*
Y-362500D03*
X-15000Y-390000D03*
X-5000D03*
X-15000Y-385000D03*
X-5000D03*
X-10000Y-326000D03*
X0Y-321000D03*
X-25000Y365000D03*
Y375000D03*
Y385000D03*
X-7500Y365000D03*
Y375000D03*
Y385000D03*
X-25000Y395000D03*
Y405000D03*
Y415000D03*
X-7500Y395000D03*
Y405000D03*
Y415000D03*
X-25000Y425000D03*
X-7500D03*
X5000Y-430000D03*
X25000D03*
X15000D03*
X5000Y-422500D03*
X25000D03*
X15000D03*
Y-440000D03*
X25000D03*
X30000Y-447500D03*
X20000D03*
X10000D03*
X5000Y-405000D03*
X25000D03*
X15000D03*
Y-395000D03*
X5000D03*
X25000D03*
X5000Y-377500D03*
X25000D03*
X15000D03*
X5000Y-370000D03*
X25000D03*
X15000D03*
X5000Y-362500D03*
X25000D03*
X15000D03*
Y-390000D03*
X5000D03*
X25000D03*
X15000Y-385000D03*
X5000D03*
X25000D03*
X10000Y-316000D03*
X20000Y-311000D03*
X30000Y-306000D03*
X15900Y377600D03*
X5000Y367500D03*
Y377500D03*
Y387500D03*
Y397500D03*
Y407500D03*
Y417500D03*
Y427500D03*
X35000Y-430000D03*
X55000D03*
X45000D03*
X35000Y-422500D03*
X55000D03*
X45000D03*
X57500Y-440000D03*
X35000D03*
X45000D03*
X60000Y-447500D03*
X50000D03*
X40000D03*
X35000Y-405000D03*
X55000D03*
X45000D03*
X52500Y-395000D03*
X45000D03*
X35000D03*
Y-377500D03*
X55000D03*
X45000D03*
X35000Y-370000D03*
X55000D03*
X45000D03*
X35000Y-362500D03*
X55000D03*
X45000D03*
Y-390000D03*
X35000D03*
X45000Y-385000D03*
X35000D03*
X40000Y-301000D03*
X50000Y-296000D03*
X60000Y-291000D03*
X33200Y370000D03*
X67500Y-430000D03*
X77500D03*
X87500D03*
X67500Y-422500D03*
X77500D03*
X87500D03*
X77500Y-440000D03*
X87500D03*
X67500D03*
X90000Y-447500D03*
X80000D03*
X70000D03*
X67500Y-405000D03*
X77500D03*
X87500D03*
X62500Y-395000D03*
X82500D03*
X72500D03*
X97500Y-430000D03*
X107500D03*
X117500D03*
X97500Y-422500D03*
X107500D03*
X117500D03*
Y-440000D03*
X97500D03*
X107500D03*
X120000Y-447500D03*
X110000D03*
X100000D03*
X97500Y-405000D03*
X107500D03*
X117500D03*
X92500Y-395000D03*
X112500D03*
X102500D03*
X118790Y-386210D03*
X127500Y-430000D03*
Y-422500D03*
X141290Y-431210D03*
X148360Y-424140D03*
X127500Y-440000D03*
X150000Y-447500D03*
X140000D03*
X130000D03*
X127500Y-405000D03*
X132930Y-372070D03*
X140000Y-365000D03*
X125860Y-379140D03*
X140430Y-372070D03*
X147500Y-365000D03*
X126290Y-386210D03*
X133360Y-379140D03*
X149990Y-340200D03*
X140000Y360000D03*
X130000D03*
X150000D03*
X140000Y370000D03*
X130000D03*
X150000D03*
Y380000D03*
X140000D03*
X150000Y390000D03*
X140000D03*
X150000Y400000D03*
X140000D03*
X156290Y-433710D03*
X163360Y-426640D03*
X180000Y-447500D03*
X170000D03*
X160000D03*
X167500Y-395000D03*
X177500D03*
X155430Y-417070D03*
X162500Y-410000D03*
X170430Y-419570D03*
X177500Y-412500D03*
X167500Y-385000D03*
Y-365000D03*
Y-375000D03*
X177500Y-385000D03*
Y-365000D03*
Y-375000D03*
X176290Y-337200D03*
X161000Y-345500D03*
X154340Y-287320D03*
X160500Y-277990D03*
X166660Y-268660D03*
X172820Y-259330D03*
X178980Y-250000D03*
X155000Y340000D03*
X165000D03*
X175000D03*
X155000Y332500D03*
X165000D03*
X175000D03*
X170000Y360000D03*
X160000D03*
X180000D03*
X170000Y370000D03*
X160000D03*
X180000D03*
Y380000D03*
X170000D03*
X160000D03*
X180000Y390000D03*
X170000D03*
X160000D03*
X180000Y400000D03*
X170000D03*
X160000D03*
X210000Y-440000D03*
Y-430000D03*
X190000D03*
X210000Y-447500D03*
X200000D03*
X190000D03*
Y-420000D03*
Y-400000D03*
Y-410000D03*
X205000Y-400000D03*
X209700Y-366500D03*
X190000Y-390000D03*
Y-370000D03*
Y-380000D03*
X205000Y-390000D03*
Y-370000D03*
Y-380000D03*
X185140Y-240670D03*
X191300Y-231340D03*
X197460Y-222010D03*
X202300Y319700D03*
X185000Y340000D03*
X195000D03*
X205000D03*
X185000Y332500D03*
X195000D03*
X205000D03*
X190000Y360000D03*
X200000D03*
X210000D03*
X190000Y370000D03*
X200000D03*
X210000D03*
X200000Y380000D03*
X210000D03*
X190000D03*
X200000Y390000D03*
X210000D03*
X190000D03*
X200000Y400000D03*
X210000D03*
X190000D03*
X220000Y-440000D03*
X240000D03*
X230000D03*
Y-430000D03*
X240000D03*
X220000D03*
X240000Y-447500D03*
X230000D03*
X220000D03*
X214100Y-379900D03*
X234800Y-362100D03*
Y-364600D03*
X237300Y-362100D03*
Y-364600D03*
X239800Y-362100D03*
Y-364600D03*
X212900Y-352900D03*
X234800Y-352100D03*
Y-354600D03*
Y-357100D03*
Y-359600D03*
X237300Y-352100D03*
Y-354600D03*
Y-357100D03*
Y-359600D03*
X239800Y-352100D03*
Y-354600D03*
Y-357100D03*
Y-359600D03*
X235430Y-309570D03*
X242500Y-302500D03*
X221290Y-323710D03*
X228360Y-316640D03*
X240670Y185140D03*
X231340Y191300D03*
X222010Y197460D03*
X218300Y310800D03*
X215000Y340000D03*
Y332500D03*
X240000Y370000D03*
Y380000D03*
Y360000D03*
X220000Y380000D03*
X240000Y410000D03*
Y400000D03*
Y390000D03*
X220000D03*
Y400000D03*
X240000Y440000D03*
Y430000D03*
Y420000D03*
X250000Y-440000D03*
X270000D03*
X260000D03*
Y-430000D03*
X270000D03*
X250000D03*
X270000Y-447500D03*
X260000D03*
X250000D03*
X252900Y-383600D03*
X255400D03*
X257900D03*
X260400D03*
X262900D03*
X265400D03*
X252900Y-381100D03*
X255400D03*
X257900D03*
X260400D03*
X262900D03*
X265400D03*
X252900Y-378600D03*
X255400D03*
X257900D03*
X260400D03*
X262900D03*
X265400D03*
X260700Y-347900D03*
X254940Y-306900D03*
X259600Y-321300D03*
Y-330800D03*
X259800Y-296600D03*
X268660Y166660D03*
X259330Y172820D03*
X250000Y178980D03*
X267930Y265430D03*
X253790Y251290D03*
X260860Y258360D03*
X265000Y320000D03*
X245000D03*
X255000D03*
X265000Y310000D03*
X245000D03*
X255000D03*
X265000Y340000D03*
X245000D03*
X255000D03*
X265000Y330000D03*
X245000D03*
X255000D03*
X270000Y370000D03*
X260000D03*
X250000D03*
Y380000D03*
X260000D03*
X270000D03*
X250000Y360000D03*
X260000D03*
X270000D03*
X250000Y410000D03*
X260000D03*
X270000D03*
X250000Y400000D03*
X260000D03*
X270000D03*
X250000Y390000D03*
X260000D03*
X270000D03*
Y440000D03*
X260000D03*
X250000D03*
X270000Y430000D03*
X260000D03*
X250000D03*
Y420000D03*
X260000D03*
X270000D03*
X280000Y-440000D03*
X300000D03*
X290000D03*
Y-430000D03*
X300000D03*
X280000D03*
X300000Y-447500D03*
X290000D03*
X280000D03*
X297500Y-400000D03*
X295000D03*
X292500D03*
X290000D03*
X287500D03*
X285000D03*
X297500Y-402500D03*
X295000D03*
X292500D03*
X290000D03*
X287500D03*
X285000D03*
X297500Y-405000D03*
X295000D03*
X292500D03*
X290000D03*
X287500D03*
X285000D03*
X280000Y-380000D03*
X300000D03*
X290000D03*
X280000Y-390000D03*
X300000D03*
X290000D03*
X290100Y-363200D03*
Y-365700D03*
Y-368200D03*
Y-370700D03*
X292600Y-363200D03*
Y-365700D03*
Y-368200D03*
Y-370700D03*
X295100Y-363200D03*
Y-365700D03*
Y-368200D03*
Y-370700D03*
X297800Y-331700D03*
X300300D03*
X290100Y-360700D03*
X292600D03*
X295100D03*
Y-358200D03*
X292600D03*
X290100D03*
X297800Y-305500D03*
X300300D03*
X297800Y-303000D03*
X300300D03*
X297800Y-313900D03*
X300300D03*
X297800Y-311400D03*
X300300D03*
X297800Y-308900D03*
X300300D03*
X297700Y-322800D03*
X300200D03*
X297700Y-320300D03*
X300200D03*
X297700Y-317800D03*
X300200D03*
X297800Y-329200D03*
X300300D03*
X297800Y-326700D03*
X300300D03*
X297800Y-300500D03*
X300300D03*
X300000Y-280000D03*
Y-270000D03*
X301390Y-211300D03*
X277320Y-171660D03*
X277990Y-160500D03*
X278660Y-149340D03*
X279330Y-138180D03*
X280000Y-127020D03*
X280670Y-115860D03*
X281340Y-104700D03*
X282010Y-93540D03*
X301000Y40000D03*
X296000Y50000D03*
X291000Y60000D03*
X287320Y154340D03*
X277990Y160500D03*
X292500Y235000D03*
Y242500D03*
X300000Y262500D03*
Y282500D03*
Y272500D03*
X275000D03*
X292100Y273600D03*
X300000Y320000D03*
Y310000D03*
X275000Y320000D03*
Y310000D03*
X292100Y315500D03*
X300000Y340000D03*
Y330000D03*
X275000Y340000D03*
Y330000D03*
X300000Y370000D03*
X290000D03*
X280000D03*
Y380000D03*
X290000D03*
X300000D03*
X280000Y360000D03*
X290000D03*
X300000D03*
X280000Y410000D03*
X290000D03*
X300000D03*
X280000Y400000D03*
X290000D03*
X300000D03*
X280000Y390000D03*
X290000D03*
X300000D03*
Y440000D03*
X290000D03*
X280000D03*
X300000Y430000D03*
X290000D03*
X280000D03*
Y420000D03*
X290000D03*
X300000D03*
X310000Y-440000D03*
X330000D03*
X320000D03*
X330000Y-447500D03*
X320000D03*
X310000D03*
Y-380000D03*
X330000D03*
X320000D03*
X310000Y-390000D03*
X330000D03*
X320000D03*
X302800Y-331700D03*
X305300D03*
X307800D03*
X310300D03*
X302800Y-305500D03*
X305300D03*
X307800D03*
X310300D03*
X302800Y-303000D03*
X305300D03*
X307800D03*
X310300D03*
X302800Y-313900D03*
X305300D03*
X307800D03*
X310300D03*
X302800Y-311400D03*
X305300D03*
X307800D03*
X310300D03*
X302800Y-308900D03*
X305300D03*
X307800D03*
X310300D03*
X302700Y-322800D03*
X305200D03*
X307700D03*
X310200D03*
X302700Y-320300D03*
X305200D03*
X307700D03*
X310200D03*
X302700Y-317800D03*
X305200D03*
X307700D03*
X310200D03*
X302800Y-329200D03*
X305300D03*
X307800D03*
X310300D03*
X302800Y-326700D03*
X305300D03*
X307800D03*
X310300D03*
X302800Y-300500D03*
X305300D03*
X307800D03*
X310300D03*
X310000Y-280000D03*
X330000D03*
X320000D03*
X310000Y-270000D03*
X330000D03*
X320000D03*
X310000Y-242500D03*
X320000D03*
X330000D03*
X310000Y-235000D03*
X320000D03*
X330000D03*
X309940Y-223180D03*
X320800Y-208170D03*
X326290Y-201210D03*
X331290Y-188710D03*
X326000Y-10000D03*
X316000Y10000D03*
X311000Y20000D03*
X321000Y0D03*
X306000Y30000D03*
X302500Y235000D03*
X322500D03*
X312500D03*
X302500Y242500D03*
X322500D03*
X312500D03*
X310000Y262500D03*
X330000D03*
X320000D03*
X310000Y282500D03*
X330000D03*
X320000D03*
X310000Y272500D03*
X330000D03*
X320000D03*
X310000Y320000D03*
X330000D03*
X320000D03*
X310000Y310000D03*
X330000D03*
X320000D03*
X310000Y340000D03*
X330000D03*
X320000D03*
X310000Y330000D03*
X330000D03*
X320000D03*
X330000Y370000D03*
X320000D03*
X310000D03*
Y380000D03*
X320000D03*
X330000D03*
X310000Y360000D03*
X320000D03*
X330000D03*
X310000Y410000D03*
X320000D03*
X330000D03*
X310000Y400000D03*
X320000D03*
X330000D03*
X310000Y390000D03*
X320000D03*
X330000D03*
Y440000D03*
X320000D03*
X310000D03*
X330000Y430000D03*
X320000D03*
X310000D03*
Y420000D03*
X320000D03*
X330000D03*
X360000Y-447500D03*
X350000D03*
X340000D03*
Y-380000D03*
X360000D03*
X350000D03*
X340000Y-390000D03*
X360000D03*
X350000D03*
X340000Y-280000D03*
X360000D03*
X350000D03*
X340000Y-270000D03*
X360000D03*
X350000D03*
X340000Y-242500D03*
X350000D03*
X360000D03*
X340000Y-235000D03*
X350000D03*
X360000D03*
X340430Y-187070D03*
X347500Y-180000D03*
X333360Y-194140D03*
X338360Y-181640D03*
X345430Y-174570D03*
X352500Y-167500D03*
X345000Y80000D03*
X355000Y85000D03*
X345000Y90000D03*
Y110000D03*
Y100000D03*
X355000Y95000D03*
Y115000D03*
Y105000D03*
X339160Y172600D03*
X360000Y162500D03*
Y172500D03*
X352500Y162500D03*
Y172500D03*
X334200Y153600D03*
X360000Y192500D03*
Y182500D03*
Y202500D03*
X352500Y192500D03*
Y182500D03*
Y202500D03*
X360000Y222500D03*
Y212500D03*
X352500Y222500D03*
Y212500D03*
X332500Y235000D03*
X352500D03*
X342500D03*
X332500Y242500D03*
X352500D03*
X342500D03*
X340000Y262500D03*
X360000D03*
X350000D03*
X340000Y282500D03*
X360000D03*
X350000D03*
X340000Y272500D03*
X360000D03*
X350000D03*
X340000Y320000D03*
X360000D03*
X350000D03*
X340000Y310000D03*
X360000D03*
X350000D03*
X340000Y340000D03*
X360000D03*
X350000D03*
X340000Y330000D03*
X360000D03*
X350000D03*
X360000Y370000D03*
X350000D03*
X340000D03*
Y380000D03*
X350000D03*
X360000D03*
X340000Y360000D03*
X350000D03*
X360000D03*
X340000Y410000D03*
X350000D03*
X360000D03*
X340000Y400000D03*
X350000D03*
X360000D03*
X340000Y390000D03*
X350000D03*
X360000D03*
Y440000D03*
X350000D03*
X340000D03*
X360000Y430000D03*
X350000D03*
X340000D03*
Y420000D03*
X350000D03*
X360000D03*
X390000Y-447500D03*
X380000D03*
X370000D03*
Y-380000D03*
Y-390000D03*
Y-242500D03*
X380000Y-212500D03*
X370000Y-235000D03*
X380000Y-202500D03*
Y-182500D03*
Y-192500D03*
X367500Y-207500D03*
Y-197500D03*
Y-187500D03*
X380000Y-172500D03*
Y-152500D03*
Y-162500D03*
X367500Y-177500D03*
Y-167500D03*
Y-157500D03*
X380000Y-142500D03*
Y-132500D03*
Y-122500D03*
X367500Y-140000D03*
Y-130000D03*
Y-147500D03*
X380000Y-112500D03*
Y-102500D03*
Y-92500D03*
X367500Y-110000D03*
Y-120000D03*
Y-100000D03*
X380000Y-82500D03*
X367500Y-80000D03*
Y-90000D03*
X368800Y-32100D03*
X365980Y-39730D03*
X376500Y-15500D03*
X377500Y10000D03*
Y20000D03*
X365000Y12500D03*
Y2500D03*
Y22500D03*
X377500Y40000D03*
Y30000D03*
Y50000D03*
X365000Y52500D03*
Y42500D03*
Y32500D03*
X377500Y70000D03*
Y60000D03*
X365000Y72500D03*
Y62500D03*
X377500Y150000D03*
Y160000D03*
Y170000D03*
Y180000D03*
Y190000D03*
Y200000D03*
Y210000D03*
X382500Y237500D03*
X375000Y252500D03*
Y242500D03*
Y262500D03*
X382500Y247500D03*
Y267500D03*
Y257500D03*
X375000Y272500D03*
X370000Y320000D03*
X380000D03*
X370000Y310000D03*
X380000D03*
X370000Y340000D03*
X380000D03*
X370000Y330000D03*
X380000D03*
X390000Y370000D03*
X380000D03*
X370000D03*
X390000Y440000D03*
X380000D03*
X370000D03*
X390000Y430000D03*
X380000D03*
X370000D03*
X410000Y-447500D03*
X400000D03*
X420000D03*
X392300Y-320000D03*
X394800D03*
X397300D03*
X399800D03*
X402300D03*
X404800D03*
X392300Y-317500D03*
X394800D03*
X397300D03*
X399800D03*
X402300D03*
X404800D03*
X392300Y-315000D03*
X394800D03*
X397300D03*
X399800D03*
X402300D03*
X404800D03*
X420000Y-250000D03*
X410000D03*
X420000Y-260000D03*
X410000D03*
X420000Y-270000D03*
X410000D03*
X420000Y-220000D03*
X410000D03*
X420000Y-230000D03*
X410000D03*
X420000Y-240000D03*
X410000D03*
X420000Y-190000D03*
X410000D03*
X420000Y-200000D03*
X410000D03*
X420000Y-210000D03*
X410000D03*
X420000Y-170000D03*
X410000D03*
X420000Y-160000D03*
X410000D03*
X420000Y-180000D03*
X410000D03*
X420000Y-130000D03*
X410000D03*
X420000Y-140000D03*
X410000D03*
X420000Y-150000D03*
X410000D03*
X420000Y-100000D03*
X410000D03*
X420000Y-110000D03*
X410000D03*
X420000Y-120000D03*
X410000D03*
X420000Y-70000D03*
X410000D03*
X420000Y-80000D03*
X410000D03*
X420000Y-90000D03*
X410000D03*
Y-40000D03*
X420000D03*
Y-50000D03*
X410000D03*
X420000Y-60000D03*
X410000D03*
Y-30000D03*
X420000D03*
X410000Y-20000D03*
X420000D03*
X410000Y-10000D03*
X420000D03*
X410000Y0D03*
X420000D03*
X410000Y10000D03*
X420000D03*
X410000Y20000D03*
X420000D03*
X410000Y30000D03*
X420000D03*
X410000Y40000D03*
X420000D03*
X410000Y50000D03*
X420000D03*
X410000Y70000D03*
X420000D03*
X410000Y60000D03*
X420000D03*
X410000Y80000D03*
X420000D03*
X410000Y90000D03*
X420000D03*
X410000Y100000D03*
X420000D03*
X410000Y110000D03*
X420000D03*
X410000Y120000D03*
X420000D03*
X410000Y130000D03*
X420000D03*
X410000Y140000D03*
X420000D03*
X410000Y150000D03*
X420000D03*
X410000Y160000D03*
X420000D03*
X410000Y170000D03*
X420000D03*
X410000Y180000D03*
X420000D03*
X410000Y190000D03*
X420000D03*
X410000Y200000D03*
X420000D03*
X410000Y210000D03*
X420000D03*
X410000Y220000D03*
X420000D03*
X410000Y230000D03*
X420000D03*
X397500D03*
X410000Y240000D03*
X420000D03*
X410000Y250000D03*
X420000D03*
X410000Y260000D03*
X420000D03*
X397500Y240000D03*
Y260000D03*
Y250000D03*
X410000Y270000D03*
X420000D03*
X410000Y280000D03*
X420000D03*
Y290000D03*
X410000D03*
Y310000D03*
X420000D03*
X410000Y300000D03*
X420000D03*
X410000Y320000D03*
X420000D03*
X410000Y340000D03*
X420000D03*
X410000Y330000D03*
X420000D03*
X410000Y350000D03*
X420000D03*
X410000Y360000D03*
X420000D03*
X410000Y370000D03*
X400000D03*
X402500Y420000D03*
X410000Y440000D03*
X400000D03*
X410000Y430000D03*
X400000D03*
X422500Y-447500D03*
X435000Y-410000D03*
Y-420000D03*
Y-400000D03*
Y-390000D03*
Y-380000D03*
Y-370000D03*
Y-350000D03*
Y-360000D03*
Y-340000D03*
Y-330000D03*
Y-320000D03*
Y-310000D03*
Y-290000D03*
Y-300000D03*
Y-280000D03*
Y-270000D03*
Y-260000D03*
Y-250000D03*
Y-230000D03*
Y-240000D03*
Y-220000D03*
Y-210000D03*
Y-200000D03*
Y-190000D03*
Y-170000D03*
Y-180000D03*
Y-160000D03*
Y-150000D03*
Y-140000D03*
Y-130000D03*
Y-110000D03*
Y-120000D03*
Y-100000D03*
Y-90000D03*
Y-80000D03*
Y-70000D03*
Y-50000D03*
Y-60000D03*
Y-40000D03*
Y-30000D03*
Y-20000D03*
Y-10000D03*
Y10000D03*
Y0D03*
Y20000D03*
Y30000D03*
Y40000D03*
Y50000D03*
Y70000D03*
Y60000D03*
Y80000D03*
Y90000D03*
Y100000D03*
Y110000D03*
Y130000D03*
Y120000D03*
Y140000D03*
Y150000D03*
Y160000D03*
Y170000D03*
Y190000D03*
Y180000D03*
Y200000D03*
Y210000D03*
Y220000D03*
Y230000D03*
Y250000D03*
Y240000D03*
Y260000D03*
Y270000D03*
Y280000D03*
Y290000D03*
Y310000D03*
Y300000D03*
Y320000D03*
Y330000D03*
Y340000D03*
Y350000D03*
Y370000D03*
Y360000D03*
Y380000D03*
Y390000D03*
Y400000D03*
Y410000D03*
Y420000D03*
Y430000D03*
G54D12*
X-328190Y-143290D03*
X-333190Y-134630D03*
X-338190Y-125970D03*
X-325860Y-107310D03*
X-343190Y-117310D03*
X-335860Y-70000D03*
X-355860D03*
X-335860Y-60000D03*
Y-50000D03*
Y-40000D03*
X-355860Y-60000D03*
Y-50000D03*
Y-40000D03*
X-335860Y-30000D03*
Y-20000D03*
Y-10000D03*
X-355860Y-30000D03*
Y-20000D03*
Y-10000D03*
X-335860Y0D03*
Y10000D03*
Y20000D03*
X-355860Y0D03*
Y10000D03*
Y20000D03*
X-335860Y30000D03*
Y40000D03*
Y50000D03*
X-355860Y30000D03*
Y40000D03*
Y50000D03*
X-335860Y60000D03*
Y70000D03*
X-355860Y60000D03*
Y70000D03*
X-343190Y117310D03*
X-325860Y107310D03*
X-338190Y125970D03*
X-333190Y134630D03*
X-328190Y143290D03*
X-298190Y-195250D03*
X-303190Y-186590D03*
X-295860Y-159270D03*
X-300860Y-150610D03*
X-308190Y-177930D03*
X-313190Y-169270D03*
X-318190Y-160610D03*
X-323190Y-151950D03*
X-305860Y-141950D03*
X-310860Y-133290D03*
X-315860Y-124630D03*
X-320860Y-115970D03*
Y115970D03*
X-315860Y124630D03*
X-310860Y133290D03*
X-305860Y141950D03*
X-300860Y150610D03*
X-323190Y151950D03*
X-318190Y160610D03*
X-313190Y169270D03*
X-308190Y177930D03*
X-295860Y159270D03*
X-303190Y186590D03*
X-298190Y195250D03*
X-265860Y-211230D03*
X-273190Y-238550D03*
X-278190Y-229890D03*
X-283190Y-221230D03*
X-288190Y-212570D03*
X-270860Y-202570D03*
X-275860Y-193910D03*
X-280860Y-185250D03*
X-293190Y-203910D03*
X-285860Y-176590D03*
X-290860Y-167930D03*
Y167930D03*
X-285860Y176590D03*
X-293190Y203910D03*
X-280860Y185250D03*
X-275860Y193910D03*
X-270860Y202570D03*
X-288190Y212570D03*
X-283190Y221230D03*
X-278190Y229890D03*
X-273190Y238550D03*
X-265860Y211230D03*
X-238550Y-273190D03*
X-255860Y-228550D03*
X-260860Y-219890D03*
Y219890D03*
X-255860Y228550D03*
X-238550Y273190D03*
X-212570Y-288190D03*
X-221230Y-283190D03*
X-229890Y-278190D03*
X-211230Y-265860D03*
X-219890Y-260860D03*
X-228550Y-255860D03*
Y255860D03*
X-219890Y260860D03*
X-211230Y265860D03*
X-229890Y278190D03*
X-221230Y283190D03*
X-212570Y288190D03*
X-177930Y-308190D03*
X-186590Y-303190D03*
X-176590Y-285860D03*
X-185250Y-280860D03*
X-193910Y-275860D03*
X-202570Y-270860D03*
X-195250Y-298190D03*
X-203910Y-293190D03*
X-202570Y270860D03*
X-193910Y275860D03*
X-185250Y280860D03*
X-176590Y285860D03*
X-203910Y293190D03*
X-195250Y298190D03*
X-186590Y303190D03*
X-177930Y308190D03*
X-150610Y-300860D03*
X-151950Y-323190D03*
X-160610Y-318190D03*
X-169270Y-313190D03*
X-159270Y-295860D03*
X-167930Y-290860D03*
Y290860D03*
X-159270Y295860D03*
X-150610Y300860D03*
X-169270Y313190D03*
X-160610Y318190D03*
X-151950Y323190D03*
X-117310Y-343190D03*
X-125970Y-338190D03*
X-134630Y-333190D03*
X-115970Y-320860D03*
X-124630Y-315860D03*
X-133290Y-310860D03*
X-141950Y-305860D03*
X-143290Y-328190D03*
X-141950Y305860D03*
X-133290Y310860D03*
X-124630Y315860D03*
X-115970Y320860D03*
X-143290Y328190D03*
X-134630Y333190D03*
X-125970Y338190D03*
X-117310Y343190D03*
X-107310Y-325860D03*
Y325860D03*
X-60000Y-335860D03*
X-70000D03*
X-60000Y-355860D03*
X-70000D03*
Y355860D03*
X-60000D03*
X-70000Y335860D03*
X-60000D03*
X-30000Y-335860D03*
X-40000D03*
X-50000D03*
X-30000Y-355860D03*
X-40000D03*
X-50000D03*
Y355860D03*
X-40000D03*
X-30000D03*
X-50000Y335860D03*
X-40000D03*
X-30000D03*
X0Y-335860D03*
X-10000D03*
X-20000D03*
X0Y-355860D03*
X-10000D03*
X-20000D03*
Y355860D03*
X-10000D03*
X0D03*
X-20000Y335860D03*
X-10000D03*
X0D03*
X30000Y-335860D03*
X20000D03*
X10000D03*
X30000Y-355860D03*
X20000D03*
X10000D03*
Y355860D03*
X20000D03*
X30000D03*
X10000Y335860D03*
X20000D03*
X30000D03*
X60000Y-335860D03*
X50000D03*
X40000D03*
X60000Y-355860D03*
X50000D03*
X40000D03*
Y355860D03*
X50000D03*
X60000D03*
X40000Y335860D03*
X50000D03*
X60000D03*
X70000Y-335860D03*
Y-355860D03*
Y355860D03*
Y335860D03*
X117310Y-343190D03*
X115970Y-320860D03*
X107310Y-325860D03*
Y325860D03*
X115970Y320860D03*
X117310Y343190D03*
X134630Y-333190D03*
X125970Y-338190D03*
X150610Y-300860D03*
X141950Y-305860D03*
X133290Y-310860D03*
X124630Y-315860D03*
X151950Y-323190D03*
X143290Y-328190D03*
X150610Y300860D03*
X124630Y315860D03*
X133290Y310860D03*
X141950Y305860D03*
X143290Y328190D03*
X151950Y323190D03*
X125970Y338190D03*
X134630Y333190D03*
X177930Y-308190D03*
X169270Y-313190D03*
X160610Y-318190D03*
X176590Y-285860D03*
X167930Y-290860D03*
X159270Y-295860D03*
Y295860D03*
X167930Y290860D03*
X176590Y285860D03*
X160610Y318190D03*
X169270Y313190D03*
X177930Y308190D03*
X186590Y-303190D03*
X202570Y-270860D03*
X193910Y-275860D03*
X185250Y-280860D03*
X212570Y-288190D03*
X203910Y-293190D03*
X195250Y-298190D03*
X211230Y-265860D03*
X202570Y270860D03*
X211230Y265860D03*
X185250Y280860D03*
X193910Y275860D03*
X195250Y298190D03*
X203910Y293190D03*
X212570Y288190D03*
X186590Y303190D03*
X238550Y-273190D03*
X229890Y-278190D03*
X221230Y-283190D03*
X228550Y-255860D03*
X219890Y-260860D03*
Y260860D03*
X228550Y255860D03*
X221230Y283190D03*
X229890Y278190D03*
X238550Y273190D03*
X265860Y-211230D03*
X260860Y-219890D03*
X255860Y-228550D03*
X273190Y-238550D03*
X270860Y-202570D03*
Y202570D03*
X255860Y228550D03*
X260860Y219890D03*
X265860Y211230D03*
X273190Y238550D03*
X288190Y-212570D03*
X283190Y-221230D03*
X278190Y-229890D03*
X280860Y-185250D03*
X275860Y-193910D03*
X303190Y-186590D03*
X298190Y-195250D03*
X293190Y-203910D03*
X300860Y-150610D03*
X295860Y-159270D03*
X290860Y-167930D03*
X285860Y-176590D03*
X300860Y150610D03*
X285860Y176590D03*
X290860Y167930D03*
X295860Y159270D03*
X275860Y193910D03*
X280860Y185250D03*
X293190Y203910D03*
X298190Y195250D03*
X303190Y186590D03*
X278190Y229890D03*
X283190Y221230D03*
X288190Y212570D03*
X323190Y-151950D03*
X318190Y-160610D03*
X313190Y-169270D03*
X308190Y-177930D03*
X315860Y-124630D03*
X310860Y-133290D03*
X305860Y-141950D03*
X333190Y-134630D03*
X328190Y-143290D03*
X325860Y-107310D03*
X320860Y-115970D03*
Y115970D03*
X325860Y107310D03*
X305860Y141950D03*
X310860Y133290D03*
X315860Y124630D03*
X328190Y143290D03*
X333190Y134630D03*
X308190Y177930D03*
X313190Y169270D03*
X318190Y160610D03*
X323190Y151950D03*
X338190Y-125970D03*
X343190Y-117310D03*
X335860Y-70000D03*
X355860D03*
X335860Y-40000D03*
Y-50000D03*
Y-60000D03*
X355860Y-40000D03*
Y-50000D03*
Y-60000D03*
X335860Y-10000D03*
Y-20000D03*
Y-30000D03*
X355860Y-10000D03*
Y-20000D03*
Y-30000D03*
X335860Y20000D03*
Y10000D03*
Y0D03*
X355860Y20000D03*
Y10000D03*
Y0D03*
X335860Y50000D03*
Y40000D03*
Y30000D03*
X355860Y50000D03*
Y40000D03*
Y30000D03*
X335860Y70000D03*
Y60000D03*
X355860Y70000D03*
Y60000D03*
X343190Y117310D03*
X338190Y125970D03*
G54D13*
X0Y0D03*
G54D14*
X260000Y-414310D03*
Y-390690D03*
G54D15*
X278500Y-402500D03*
G54D16*
G01X-400000Y-410710D02*
Y-400000D01*
G01D02*
Y-389290D01*
G01X-410710Y-400000D02*
X-400000D01*
G01D02*
X-389290D01*
G01X-400000Y389290D02*
Y400000D01*
G01D02*
Y410710D01*
G01X-410710Y400000D02*
X-400000D01*
G01D02*
X-389290D01*
G01X-338190Y-129680D02*
Y-125970D01*
G01D02*
Y-122260D01*
G01X-341900Y-125970D02*
X-338190D01*
G01D02*
X-334480D01*
G01X-355860Y56290D02*
Y60000D01*
G01X-335860Y56290D02*
Y60000D01*
G01X-355860D02*
Y63710D01*
G01X-359570Y60000D02*
X-355860D01*
G01D02*
X-352150D01*
G01X-335860D02*
Y63710D01*
G01X-339570Y60000D02*
X-335860D01*
G01D02*
X-332150D01*
G01X-320860Y-119680D02*
Y-115970D01*
G01D02*
Y-112260D01*
G01X-324570Y-115970D02*
X-320860D01*
G01D02*
X-317150D01*
G01X-285710Y0D02*
X0D01*
G01X-278190Y226180D02*
Y229890D01*
G01D02*
Y233600D01*
G01X-281900Y229890D02*
X-278190D01*
G01D02*
X-274480D01*
G01X-242500Y-362500D02*
X-212600D01*
G01X-260860Y216180D02*
Y219890D01*
G01D02*
Y223600D01*
G01X-264570Y219890D02*
X-260860D01*
G01D02*
X-257150D01*
G01X-176160Y-379300D02*
X-191400D01*
X-195400Y-383300D01*
X-198200D01*
X-200000Y-385100D01*
Y-424100D01*
X-197100Y-427000D01*
X-191600D01*
X-189400Y-429200D01*
Y-437160D01*
X-192240Y-440000D01*
X-210000D01*
X-212500Y-442500D01*
G01X-212600Y-362500D02*
X-213400Y-363300D01*
Y-394900D01*
X-208900Y-399400D01*
X-203750D01*
G01X-212600Y-362500D02*
X-178660D01*
X-176460Y-360300D01*
G01X-229890Y-281900D02*
Y-278190D01*
G01D02*
Y-274480D01*
G01X-233600Y-278190D02*
X-229890D01*
G01D02*
X-226180D01*
G01X-219890Y-264570D02*
Y-260860D01*
G01D02*
Y-257150D01*
G01X-223600Y-260860D02*
X-219890D01*
G01D02*
X-216180D01*
G01X-125970Y334480D02*
Y338190D01*
G01D02*
Y341900D01*
G01X-129680Y338190D02*
X-125970D01*
G01D02*
X-122260D01*
G01X-115970Y317150D02*
Y320860D01*
G01D02*
Y324570D01*
G01X-119680Y320860D02*
X-115970D01*
G01D02*
X-112260D01*
G01X-60000Y-359570D02*
Y-355860D01*
G01D02*
Y-352150D01*
G01X-63710Y-355860D02*
X-60000D01*
G01D02*
X-56290D01*
G01X-60000Y-339570D02*
Y-335860D01*
G01D02*
Y-332150D01*
G01X-63710Y-335860D02*
X-60000D01*
G01D02*
X-56290D01*
G01X0Y-285710D02*
Y0D01*
G01D02*
Y285710D01*
G01Y0D02*
X285710D01*
G01X60000Y332150D02*
Y335860D01*
G01D02*
Y339570D01*
G01X56290Y335860D02*
X60000D01*
G01D02*
X63710D01*
G01X60000Y352150D02*
Y355860D01*
G01D02*
Y359570D01*
G01X56290Y355860D02*
X60000D01*
G01D02*
X63710D01*
G01X115970Y-324570D02*
Y-320860D01*
G01D02*
Y-317150D01*
G01X112260Y-320860D02*
X115970D01*
G01D02*
X119680D01*
G01X125970Y-341900D02*
Y-338190D01*
G01D02*
Y-334480D01*
G01X122260Y-338190D02*
X125970D01*
G01D02*
X129680D01*
G01X219890Y257150D02*
Y260860D01*
G01D02*
Y264570D01*
G01X216180Y260860D02*
X219890D01*
G01D02*
X223600D01*
G01X229890Y274480D02*
Y278190D01*
G01D02*
Y281900D01*
G01X226180Y278190D02*
X229890D01*
G01D02*
X233600D01*
G01X260000Y-418960D02*
Y-414310D01*
G01D02*
Y-409660D01*
G01X249440Y-414310D02*
X260000D01*
G01D02*
X270560D01*
G01X260860Y-223600D02*
Y-219890D01*
G01D02*
Y-216180D01*
G01X257150Y-219890D02*
X260860D01*
G01D02*
X264570D01*
G01X278500Y-413060D02*
Y-402500D01*
G01D02*
Y-391940D01*
G01X273850Y-402500D02*
X278500D01*
G01D02*
X283150D01*
G01X278190Y-233600D02*
Y-229890D01*
G01D02*
Y-226180D01*
G01X274480Y-229890D02*
X278190D01*
G01D02*
X281900D01*
G01X320860Y112260D02*
Y115970D01*
G01D02*
Y119680D01*
G01X317150Y115970D02*
X320860D01*
G01D02*
X324570D01*
G01X355860Y-63710D02*
Y-60000D01*
G01X335860Y-63710D02*
Y-60000D01*
G01X355860D02*
Y-56290D01*
G01X352150Y-60000D02*
X355860D01*
G01D02*
X359570D01*
G01X335860D02*
Y-56290D01*
G01X332150Y-60000D02*
X335860D01*
G01D02*
X339570D01*
G01X338190Y122260D02*
Y125970D01*
G01D02*
Y129680D01*
G01X334480Y125970D02*
X338190D01*
G01D02*
X341900D01*
G01X389290Y-400000D02*
X400000D01*
G01X389290Y400000D02*
X400000D01*
G01Y-410710D02*
Y-400000D01*
G01D02*
Y-389290D01*
G01Y-400000D02*
X410710D01*
G01X400000Y389290D02*
Y400000D01*
G01D02*
Y410710D01*
G01Y400000D02*
X410710D01*
G54D17*
G01X-141950Y305860D02*
X-154600Y311000D01*
X-230900Y267300D01*
X-381600D01*
X-415500Y233400D01*
Y-278600D01*
X-385260Y-308840D01*
X-338750D01*
G01X-382500Y-346460D02*
Y-377500D01*
X-380000Y-380000D01*
X-305000D01*
X-302500Y-382500D01*
Y-385690D01*
G01X-386250Y-343900D02*
X-381100D01*
X-377500Y-347500D01*
Y-371700D01*
X-374200Y-375000D01*
X-302500D01*
X-300000Y-377500D01*
Y-383190D01*
X-297500Y-385690D01*
G01X-382500Y-341340D02*
X-376160D01*
X-372500Y-345000D01*
Y-367500D01*
X-370000Y-370000D01*
X-297500D01*
X-292500Y-375000D01*
Y-385690D01*
G01X-386250Y-338780D02*
X-371220D01*
X-367500Y-342500D01*
Y-362500D01*
X-362500Y-367500D01*
X-290000D01*
X-287500Y-370000D01*
Y-385690D01*
G01X-382500Y-336220D02*
X-366280D01*
X-362500Y-340000D01*
Y-357500D01*
X-360000Y-360000D01*
X-285000D01*
X-282500Y-362500D01*
Y-385690D01*
G01X-386250Y-333660D02*
X-353840D01*
X-350000Y-337500D01*
Y-352500D01*
X-345000Y-357500D01*
X-282500D01*
X-277500Y-362500D01*
Y-385690D01*
G01X-382500Y-331100D02*
X-348900D01*
X-345000Y-335000D01*
Y-352500D01*
X-342600Y-354900D01*
X-287640D01*
X-287550Y-354990D01*
Y-354900D01*
X-278800D01*
X-272500Y-361200D01*
Y-385690D01*
G01X-386250Y-328540D02*
X-341460D01*
X-340000Y-330000D01*
Y-350000D01*
X-337500Y-352500D01*
X-275000D01*
X-267500Y-360000D01*
Y-385690D01*
G01X-273190Y-238550D02*
X-361150D01*
X-366000Y-233700D01*
Y-80140D01*
G01D02*
X-355860Y-70000D01*
G01X-385800Y112500D02*
Y-60340D01*
X-366000Y-80140D01*
G01X-228550Y255860D02*
X-231930Y253910D01*
X-233320Y255300D01*
X-363100D01*
X-385800Y232600D01*
Y112500D01*
G01X-343190Y117310D02*
X-380990D01*
X-385800Y112500D01*
G01X-335860Y-40000D02*
X-301000D01*
G01X-335860Y-50000D02*
X-296000D01*
G01X-335860Y-60000D02*
X-291000D01*
G01X-335860Y-10000D02*
X-316000D01*
G01X-335860Y-20000D02*
X-311000D01*
G01X-335860Y-30000D02*
X-306000D01*
G01X-335860Y10000D02*
X-326000D01*
G01X-335860Y0D02*
X-321000D01*
G01X-315860Y124630D02*
X-281340Y104700D01*
G01X-320860Y115970D02*
X-282010Y93540D01*
G01X-305860Y141950D02*
X-280000Y127020D01*
G01X-310860Y133290D02*
X-280670Y115860D01*
G01X-300860Y150610D02*
X-279330Y138180D01*
G01X-280860Y-185250D02*
X-259330Y-172820D01*
G01X-275860Y-193910D02*
X-250000Y-178980D01*
G01X-270860Y-202570D02*
X-240670Y-185140D01*
G01X-295860Y-159270D02*
X-287320Y-154340D01*
G01X-285860Y-176590D02*
X-268660Y-166660D01*
G01X-290860Y-167930D02*
X-277990Y-160500D01*
G01X-285860Y176590D02*
X-277320Y171660D01*
G01X-295860Y159270D02*
X-278660Y149340D01*
G01X-290860Y167930D02*
X-277990Y160500D01*
G01X-242500Y-385690D02*
Y-377500D01*
G01X-197500Y-333540D02*
X-252340D01*
X-262500Y-343700D01*
Y-385690D01*
G01X-257500D02*
Y-342600D01*
X-250540Y-335640D01*
X-196310D01*
X-195850Y-336100D01*
X-193750D01*
G01X-197500Y-338660D02*
X-248660D01*
X-252500Y-342500D01*
Y-385690D01*
G01X-247500D02*
X-245850Y-384040D01*
Y-343350D01*
X-244180Y-341680D01*
X-196310D01*
X-195850Y-341220D01*
X-193750D01*
G01X-173200Y-388200D02*
X-167700Y-382700D01*
Y-334700D01*
X-175900Y-326500D01*
X-248100D01*
X-255860Y-318740D01*
Y-228550D01*
G01X-260860Y-219890D02*
X-222010Y-197460D01*
G01X-265860Y-211230D02*
X-231340Y-191300D01*
G01X-211230Y265860D02*
X-191300Y231340D01*
G01X-219890Y260860D02*
X-197460Y222010D01*
G01X-40000Y355860D02*
X-50860Y345000D01*
X-72500D01*
X-77500Y350000D01*
Y435000D01*
X-85000Y442500D01*
X-207500D01*
X-212570Y437430D01*
Y288190D01*
G01X-50000Y355860D02*
X-55860Y350000D01*
X-72500D01*
X-75000Y352500D01*
Y437500D01*
X-82500Y445000D01*
X-217500D01*
X-221230Y441270D01*
Y283190D01*
G01X-70000Y355860D02*
Y437500D01*
X-80000Y447500D01*
X-230000D01*
X-238550Y438950D01*
Y273190D01*
G01X-173200Y-388200D02*
X-194900D01*
X-196250Y-389550D01*
Y-399400D01*
G01X-193910Y275860D02*
X-178980Y250000D01*
G01X-202570Y270860D02*
X-185140Y240670D01*
G01X-185250Y280860D02*
X-172820Y259330D01*
G01X-203910Y293190D02*
Y436090D01*
X-200000Y440000D01*
X-87500D01*
X-80000Y432500D01*
Y347500D01*
X-75000Y342500D01*
X-36640D01*
X-30000Y335860D01*
G01X-117310Y-343190D02*
X-125000Y-350880D01*
Y-382500D01*
X-130700Y-388200D01*
X-173200D01*
G01X-176590Y-285860D02*
X-171660Y-277320D01*
G01X-159270Y-295860D02*
X-149340Y-278660D01*
G01X-150610Y-300860D02*
X-138180Y-279330D01*
G01X-167930Y-290860D02*
X-160500Y-277990D01*
G01X-159270Y295860D02*
X-154340Y287320D01*
G01X-176590Y285860D02*
X-166660Y268660D01*
G01X-167930Y290860D02*
X-160500Y277990D01*
G01X-139240Y-423660D02*
X-116170D01*
X-109460Y-416950D01*
Y-396960D01*
X-105000Y-392500D01*
X54540D01*
X289700Y-256360D01*
X309940Y-223180D01*
G01X149990Y-340200D02*
X161370Y-359860D01*
X157840Y-373080D01*
X115680Y-397500D01*
X-100000D01*
X-105000Y-402500D01*
Y-422500D01*
X-108720Y-426220D01*
X-142200D01*
G01X-139240Y-418540D02*
X-128550D01*
X-120000Y-409990D01*
Y-385000D01*
X-117500Y-382500D01*
X61590D01*
X278420Y-256970D01*
X349900Y-139800D01*
Y135900D01*
X342510Y143290D01*
X328190D01*
G01X365980Y-39730D02*
X362240Y-43470D01*
Y-127760D01*
X283360Y-257070D01*
X58070Y-387500D01*
X-110000D01*
X-115000Y-392500D01*
Y-412500D01*
X-123600Y-421100D01*
X-142200D01*
G01X-141950Y-305860D02*
X-127020Y-280000D01*
G01X-133290Y-310860D02*
X-115860Y-280670D01*
G01X-124630Y-315860D02*
X-104700Y-281340D01*
G01X-107310Y-325860D02*
X-85770Y-347400D01*
X63100D01*
X70000Y-340500D01*
Y-335860D01*
G01X-115970Y-320860D02*
X-93540Y-282010D01*
G01X-10000Y-335860D02*
Y-326000D01*
G01X0Y-335860D02*
Y-321000D01*
G01X10000Y-335860D02*
Y-316000D01*
G01X20000Y-335860D02*
Y-311000D01*
G01X30000Y-335860D02*
Y-306000D01*
G01X40000Y-335860D02*
Y-301000D01*
G01X50000Y-335860D02*
Y-296000D01*
G01X60000Y-335860D02*
Y-291000D01*
G01X239560Y-224460D02*
X233600Y-218500D01*
X187360D01*
X70000Y-335860D01*
G01X284600Y249960D02*
Y337900D01*
X275000Y347500D01*
X121620D01*
X117310Y343190D01*
G01X159270Y-295860D02*
X154340Y-287320D01*
G01X176590Y-285860D02*
X166660Y-268660D01*
G01X167930Y-290860D02*
X160500Y-277990D01*
G01X185250Y-280860D02*
X172820Y-259330D01*
G01X193910Y-275860D02*
X178980Y-250000D01*
G01X202570Y-270860D02*
X185140Y-240670D01*
G01X211230Y-265860D02*
X191300Y-231340D01*
G01X219890Y-260860D02*
X197460Y-222010D01*
G01X238550Y-273190D02*
X239560Y-269420D01*
Y-224460D01*
G01X325860Y-107310D02*
X327810Y-103930D01*
Y-92810D01*
X320000Y-85000D01*
X280000D01*
X275000Y-90000D01*
Y-112500D01*
X267500Y-120000D01*
Y-162500D01*
X262500Y-167500D01*
X242500D01*
X239560Y-170440D01*
Y-224460D01*
G01X265860Y211230D02*
X231340Y191300D01*
G01X260860Y219890D02*
X222010Y197460D01*
G01X285860Y176590D02*
X268660Y166660D01*
G01X280860Y185250D02*
X259330Y172820D01*
G01X275860Y193910D02*
X250000Y178980D01*
G01X270860Y202570D02*
X240670Y185140D01*
G01X285860Y-176590D02*
X277320Y-171660D01*
G01X295860Y-159270D02*
X278660Y-149340D01*
G01X290860Y-167930D02*
X277990Y-160500D01*
G01X300860Y-150610D02*
X279330Y-138180D01*
G01X305860Y-141950D02*
X280000Y-127020D01*
G01X310860Y-133290D02*
X280670Y-115860D01*
G01X315860Y-124630D02*
X281340Y-104700D01*
G01X320860Y-115970D02*
X282010Y-93540D01*
G01X335860Y50000D02*
X296000D01*
G01X335860Y60000D02*
X291000D01*
G01X295860Y159270D02*
X287320Y154340D01*
G01X290860Y167930D02*
X277990Y160500D01*
G01X355860Y70000D02*
X384500Y98640D01*
Y222300D01*
X356840Y249960D01*
X284600D01*
G01D02*
X273190Y238550D01*
G01X335860Y70000D02*
X345430Y60430D01*
Y-102980D01*
X341100Y-107310D01*
X325860D01*
G01X335860Y-10000D02*
X326000D01*
G01X335860Y10000D02*
X316000D01*
G01X335860Y20000D02*
X311000D01*
G01X335860Y0D02*
X321000D01*
G01X335860Y30000D02*
X306000D01*
G01X335860Y40000D02*
X301000D01*
G54D18*
G01X-460000Y-480000D02*
G03I-15000J5000D01*
G01X-465000D02*
G03I-10000J5000D01*
G01X-495000Y-475000D02*
X-455000D01*
G01X-485000Y500000D02*
Y460000D01*
G01X-470000Y475000D02*
G03I-15000J5000D01*
G01X-475000D02*
G03I-10000J5000D01*
G01X-505000Y480000D02*
X-465000D01*
G01X-475000Y-455000D02*
Y-495000D01*
G01X-450000Y-450000D02*
X450000D01*
Y450000D01*
X-450000D01*
Y-450000D01*
G01X-376500Y-400000D02*
G03I-23500J0D01*
G01Y399930D02*
G03I-23500J2D01*
G01X275000Y0D02*
G03I-275000J0D01*
G01X-78660Y292500D02*
X-153660Y422400D01*
G01X-136340Y432400D02*
G03X-153660Y422400I-8662J-4997D01*
G01X-136340Y432400D02*
X-61340Y302500D01*
G01D02*
G02X-78660Y292500I-8660J-5000D01*
G01X0Y-9000D02*
Y9000D01*
G01Y-9000D02*
Y9000D01*
G01X-9000Y0D02*
X9000D01*
G01X-9000D02*
X9000D01*
G01X76160Y292500D02*
G02X58840Y302500I-8660J5000D01*
G01D02*
X133840Y432400D01*
G01X151160Y422400D02*
X76160Y292500D01*
G01X151160Y422400D02*
G03X133840Y432400I-8658J5003D01*
G01X423500Y-400000D02*
G03I-23500J0D01*
G01Y399930D02*
G03I-23500J2D01*
G01X480000Y-450000D02*
Y-490000D01*
G01X495000Y-475000D02*
G03I-15000J5000D01*
G01X460000Y-470000D02*
X500000D01*
G01X490000Y-475000D02*
G03I-10000J5000D01*
G01Y455000D02*
G03I-15000J5000D01*
G01X475000Y480000D02*
Y440000D01*
G01X485000Y455000D02*
G03I-10000J5000D01*
G01X455000Y460000D02*
X495000D01*
M02*
