G04 ================== begin FILE IDENTIFICATION RECORD ==================*
G04 Layout Name:  LED_12inArena, 6-25-2019 V3.brd*
G04 Film Name:    PWR*
G04 File Format:  Gerber RS274X*
G04 File Origin:  Cadence Allegro 17.2-P019*
G04 Origin Date:  Mon Oct 05 13:45:43 2020*
G04 *
G04 Layer:  VIA KEEPOUT/ALL*
G04 Layer:  VIA KEEPOUT/BOTTOM*
G04 Layer:  VIA KEEPOUT/LAYER 2*
G04 Layer:  VIA KEEPOUT/GND2*
G04 Layer:  VIA KEEPOUT/LAYER 1*
G04 Layer:  VIA KEEPOUT/PWR*
G04 Layer:  VIA KEEPOUT/TOP*
G04 Layer:  VIA CLASS/FILMMASKBOTTOM*
G04 Layer:  VIA CLASS/PWR*
G04 Layer:  ROUTE KEEPOUT/ALL*
G04 Layer:  ROUTE KEEPOUT/BOTTOM*
G04 Layer:  ROUTE KEEPOUT/LAYER 2*
G04 Layer:  ROUTE KEEPOUT/GND2*
G04 Layer:  ROUTE KEEPOUT/LAYER 1*
G04 Layer:  ROUTE KEEPOUT/PWR*
G04 Layer:  ROUTE KEEPOUT/TOP*
G04 Layer:  ROUTE KEEPIN/ALL*
G04 Layer:  PIN/FILMMASKBOTTOM*
G04 Layer:  PIN/PWR*
G04 Layer:  PACKAGE KEEPOUT/ALL*
G04 Layer:  PACKAGE KEEPOUT/TOP*
G04 Layer:  PACKAGE KEEPOUT/BOTTOM*
G04 Layer:  PACKAGE KEEPIN/ALL*
G04 Layer:  ETCH/PWR*
G04 Layer:  BOARD GEOMETRY/OUTLINE*
G04 *
G04 Offset:    (0.0 0.0)*
G04 Mirror:    No*
G04 Mode:      Positive*
G04 Rotation:  0*
G04 FullContactRelief:  No*
G04 UndefLineWidth:     0.1*
G04 ================== end FILE IDENTIFICATION RECORD ====================*
%FSLAX25Y25*MOIN*%
%IR0*IPPOS*OFA0.00000B0.00000*MIA0B0*SFA1.00000B1.00000*%
%ADD10C,.2*%
%ADD14R,.1969X.0787*%
%ADD15R,.0787X.1969*%
%ADD12C,.06*%
%ADD11C,.024*%
%ADD13C,5.7*%
%ADD16C,.005*%
%ADD17C,.0001*%
%ADD20C,.2104*%
%ADD21R,.2072X.089*%
%ADD19C,.0704*%
%ADD18C,.0344*%
G75*
%LPD*%
G75*
G36*
G01X-426300Y-442000D02*
G02X-426620Y-441360I-1J400D01*
G03X-440490Y-426030I-8381J6357D01*
G02X-441100Y-425690I-209J342D01*
G01Y425690D01*
G02X-440490Y426030I401J-2D01*
G03X-426270Y440880I5494J8972D01*
G02X-425940Y441500I330J222D01*
G01X238190D01*
G02X238530Y440890I-1J-400D01*
G03X241470I1470J-890D01*
G02X241810Y441500I341J210D01*
G01X248190D01*
G02X248530Y440890I-1J-400D01*
G03X251470I1470J-890D01*
G02X251810Y441500I341J210D01*
G01X258190D01*
G02X258530Y440890I-1J-400D01*
G03X261470I1470J-890D01*
G02X261810Y441500I341J210D01*
G01X268190D01*
G02X268530Y440890I-1J-400D01*
G03X271470I1470J-890D01*
G02X271810Y441500I341J210D01*
G01X278190D01*
G02X278530Y440890I-1J-400D01*
G03X281470I1470J-890D01*
G02X281810Y441500I341J210D01*
G01X288190D01*
G02X288530Y440890I-1J-400D01*
G03X291470I1470J-890D01*
G02X291810Y441500I341J210D01*
G01X298190D01*
G02X298530Y440890I-1J-400D01*
G03X301470I1470J-890D01*
G02X301810Y441500I341J210D01*
G01X308190D01*
G02X308530Y440890I-1J-400D01*
G03X311470I1470J-890D01*
G02X311810Y441500I341J210D01*
G01X318190D01*
G02X318530Y440890I-1J-400D01*
G03X321470I1470J-890D01*
G02X321810Y441500I341J210D01*
G01X328190D01*
G02X328530Y440890I-1J-400D01*
G03X331470I1470J-890D01*
G02X331810Y441500I341J210D01*
G01X338190D01*
G02X338530Y440890I-1J-400D01*
G03X341470I1470J-890D01*
G02X341810Y441500I341J210D01*
G01X348190D01*
G02X348530Y440890I-1J-400D01*
G03X351470I1470J-890D01*
G02X351810Y441500I341J210D01*
G01X358190D01*
G02X358530Y440890I-1J-400D01*
G03X361470I1470J-890D01*
G02X361810Y441500I341J210D01*
G01X368190D01*
G02X368530Y440890I-1J-400D01*
G03X371470I1470J-890D01*
G02X371810Y441500I341J210D01*
G01X378190D01*
G02X378530Y440890I-1J-400D01*
G03X381470I1470J-890D01*
G02X381810Y441500I341J210D01*
G01X388190D01*
G02X388530Y440890I-1J-400D01*
G03X391470I1470J-890D01*
G02X391810Y441500I341J210D01*
G01X398190D01*
G02X398530Y440890I-1J-400D01*
G03X401470I1470J-890D01*
G02X401810Y441500I341J210D01*
G01X408190D01*
G02X408530Y440890I-1J-400D01*
G03X411470I1470J-890D01*
G02X411810Y441500I341J210D01*
G01X425940D01*
G02X426270Y440880I0J-398D01*
G03X442130Y427260I8721J-5889D01*
G02X442800Y426970I271J-292D01*
G01Y-426970D01*
G02X442130Y-427260I-399J2D01*
G03X426620Y-441360I-7133J-7734D01*
G02X426300Y-442000I-319J-240D01*
G01X331390D01*
G02X331130Y-441300I2J399D01*
G03X328870I-1130J1300D01*
G02X328610Y-442000I-262J-301D01*
G01X321390D01*
G02X321130Y-441300I2J399D01*
G03X318870I-1130J1300D01*
G02X318610Y-442000I-262J-301D01*
G01X311390D01*
G02X311130Y-441300I2J399D01*
G03X308870I-1130J1300D01*
G02X308610Y-442000I-262J-301D01*
G01X301390D01*
G02X301130Y-441300I2J399D01*
G03X298870I-1130J1300D01*
G02X298610Y-442000I-262J-301D01*
G01X291390D01*
G02X291130Y-441300I2J399D01*
G03X288870I-1130J1300D01*
G02X288610Y-442000I-262J-301D01*
G01X281390D01*
G02X281130Y-441300I2J399D01*
G03X278870I-1130J1300D01*
G02X278610Y-442000I-262J-301D01*
G01X271390D01*
G02X271130Y-441300I2J399D01*
G03X268870I-1130J1300D01*
G02X268610Y-442000I-262J-301D01*
G01X261390D01*
G02X261130Y-441300I2J399D01*
G03X258870I-1130J1300D01*
G02X258610Y-442000I-262J-301D01*
G01X251390D01*
G02X251130Y-441300I2J399D01*
G03X248870I-1130J1300D01*
G02X248610Y-442000I-262J-301D01*
G01X246010D01*
Y-346890D01*
X229090D01*
Y-425290D01*
X164430D01*
G03X162290I-1070J-1350D01*
G01X150300D01*
G02X149970Y-424750I44J398D01*
G03X146750I-1610J610D01*
G02X146420Y-425290I-374J-142D01*
G01X-24610D01*
G02X-24890Y-424650I41J399D01*
G03X-27610I-1360J1050D01*
G02X-27890Y-425290I-321J-241D01*
G01X-28520D01*
G03X-31480I-1480J-870D01*
G01X-89990D01*
Y-402190D01*
X-103110D01*
Y-425290D01*
X-137560D01*
G02X-137840Y-424660I47J398D01*
G03X-140390Y-424940I-1400J1000D01*
G01X-140320Y-425000D01*
Y-425290D01*
X-140750D01*
X-140810Y-425210D01*
G03X-143650Y-425290I-1393J-1010D01*
G01X-191990D01*
Y-413740D01*
G02X-191270Y-413540I399J-39D01*
G03Y-411460I1370J1040D01*
G02X-191990Y-411260I-321J239D01*
G01Y-396990D01*
X-215510D01*
Y-397000D01*
X-215850D01*
X-215900Y-396880D01*
G03X-216210Y-398640I-1601J-625D01*
G02X-215510Y-398860I302J-262D01*
G01Y-406140D01*
G02X-216210Y-406360I-398J42D01*
G03Y-408640I-1290J-1140D01*
G02X-215510Y-408860I302J-262D01*
G01Y-419490D01*
X-359490D01*
Y-368010D01*
X-249490D01*
Y-356290D01*
G02X-248870Y-356000I399J-45D01*
G03Y-353100I920J1450D01*
G02X-249490Y-352810I-221J335D01*
G01Y-321990D01*
X-258010D01*
Y-354490D01*
X-263790D01*
G02X-264110Y-353910I38J400D01*
G03X-267190I-1540J760D01*
G02X-267510Y-354490I-358J-180D01*
G01X-299490D01*
Y-336990D01*
X-308010D01*
Y-346090D01*
G02X-308720Y-346300I-398J41D01*
G03Y-348460I-1340J-1080D01*
G02X-308010Y-348670I312J-251D01*
G01Y-354490D01*
X-329490D01*
Y-348860D01*
G02X-328810Y-348620I399J-46D01*
G03Y-346140I1190J1240D01*
G02X-329490Y-345900I-281J286D01*
G01Y-344490D01*
X-340510D01*
Y-354490D01*
X-359490D01*
Y-281990D01*
X-428010D01*
Y-290510D01*
X-421090D01*
G02X-420900Y-291230I-45J-397D01*
G03X-418860I1020J-1390D01*
G02X-418670Y-290510I235J323D01*
G01X-398590D01*
G02X-398400Y-291230I-45J-397D01*
G03X-396360I1020J-1390D01*
G02X-396170Y-290510I235J323D01*
G01X-375510D01*
Y-423350D01*
X-375640Y-423400D01*
G03Y-426600I640J-1600D01*
G01X-375510Y-426650D01*
Y-438620D01*
G02X-376210Y-438860I-399J23D01*
G03X-378630Y-441300I-1283J-1148D01*
G02X-378890Y-442000I-262J-301D01*
G01X-386110D01*
G02X-386370Y-441300I2J399D01*
G03X-388630I-1130J1300D01*
G02X-388890Y-442000I-262J-301D01*
G01X-396110D01*
G02X-396370Y-441300I2J399D01*
G03X-398630I-1130J1300D01*
G02X-398890Y-442000I-262J-301D01*
G01X-406110D01*
G02X-406370Y-441300I2J399D01*
G03X-408630I-1130J1300D01*
G02X-408890Y-442000I-262J-301D01*
G01X-426300D01*
G37*
G36*
G01X147860Y-425800D02*
X147900Y-425810D01*
G03X148800I450J1669D01*
G01X148830Y-425800D01*
X161290D01*
G02X161680Y-426280I-2J-400D01*
G03X165040I1680J-360D01*
G02X165430Y-425800I392J80D01*
G01X229600D01*
Y-347400D01*
X245500D01*
Y-447500D01*
X241730D01*
X241710Y-447320D01*
G03X238290I-1710J-180D01*
G01X238270Y-447500D01*
X231730D01*
X231710Y-447320D01*
G03X228290I-1710J-180D01*
G01X228270Y-447500D01*
X221730D01*
X221710Y-447320D01*
G03X218290I-1710J-180D01*
G01X218270Y-447500D01*
X211730D01*
X211710Y-447320D01*
G03X208290I-1710J-180D01*
G01X208270Y-447500D01*
X201730D01*
X201710Y-447320D01*
G03X198290I-1710J-180D01*
G01X198270Y-447500D01*
X191730D01*
X191710Y-447320D01*
G03X188290I-1710J-180D01*
G01X188270Y-447500D01*
X181730D01*
X181710Y-447320D01*
G03X178290I-1710J-180D01*
G01X178270Y-447500D01*
X171730D01*
X171710Y-447320D01*
G03X168290I-1710J-180D01*
G01X168270Y-447500D01*
X161730D01*
X161710Y-447320D01*
G03X158290I-1710J-180D01*
G01X158270Y-447500D01*
X151730D01*
X151710Y-447320D01*
G03X148290I-1710J-180D01*
G01X148270Y-447500D01*
X141730D01*
X141710Y-447320D01*
G03X138290I-1710J-180D01*
G01X138270Y-447500D01*
X131730D01*
X131710Y-447320D01*
G03X128290I-1710J-180D01*
G01X128270Y-447500D01*
X121730D01*
X121710Y-447320D01*
G03X118290I-1710J-180D01*
G01X118270Y-447500D01*
X111730D01*
X111710Y-447320D01*
G03X108290I-1710J-180D01*
G01X108270Y-447500D01*
X101730D01*
X101710Y-447320D01*
G03X98290I-1710J-180D01*
G01X98270Y-447500D01*
X91730D01*
X91710Y-447320D01*
G03X88290I-1710J-180D01*
G01X88270Y-447500D01*
X81730D01*
X81710Y-447320D01*
G03X78290I-1710J-180D01*
G01X78270Y-447500D01*
X71730D01*
X71710Y-447320D01*
G03X68290I-1710J-180D01*
G01X68270Y-447500D01*
X61730D01*
X61710Y-447320D01*
G03X58290I-1710J-180D01*
G01X58270Y-447500D01*
X51730D01*
X51710Y-447320D01*
G03X48290I-1710J-180D01*
G01X48270Y-447500D01*
X41730D01*
X41710Y-447320D01*
G03X38290I-1710J-180D01*
G01X38270Y-447500D01*
X31730D01*
X31710Y-447320D01*
G03X28290I-1710J-180D01*
G01X28270Y-447500D01*
X21730D01*
X21710Y-447320D01*
G03X18290I-1710J-180D01*
G01X18270Y-447500D01*
X11730D01*
X11710Y-447320D01*
G03X8290I-1710J-180D01*
G01X8270Y-447500D01*
X1730D01*
X1710Y-447320D01*
G03X-1710I-1710J-180D01*
G01X-1730Y-447500D01*
X-8270D01*
X-8290Y-447320D01*
G03X-11710I-1710J-180D01*
G01X-11730Y-447500D01*
X-18270D01*
X-18290Y-447320D01*
G03X-21710I-1710J-180D01*
G01X-21730Y-447500D01*
X-28270D01*
X-28290Y-447320D01*
G03X-31710I-1710J-180D01*
G01X-31730Y-447500D01*
X-38270D01*
X-38290Y-447320D01*
G03X-41710I-1710J-180D01*
G01X-41730Y-447500D01*
X-48270D01*
X-48290Y-447320D01*
G03X-51710I-1710J-180D01*
G01X-51730Y-447500D01*
X-58270D01*
X-58290Y-447320D01*
G03X-61710I-1710J-180D01*
G01X-61730Y-447500D01*
X-68270D01*
X-68290Y-447320D01*
G03X-71710I-1710J-180D01*
G01X-71730Y-447500D01*
X-78270D01*
X-78290Y-447320D01*
G03X-81710I-1710J-180D01*
G01X-81730Y-447500D01*
X-88270D01*
X-88290Y-447320D01*
G03X-91710I-1710J-180D01*
G01X-91730Y-447500D01*
X-98270D01*
X-98290Y-447320D01*
G03X-101710I-1710J-180D01*
G01X-101730Y-447500D01*
X-108270D01*
X-108290Y-447320D01*
G03X-111710I-1710J-180D01*
G01X-111730Y-447500D01*
X-118270D01*
X-118290Y-447320D01*
G03X-121710I-1710J-180D01*
G01X-121730Y-447500D01*
X-128270D01*
X-128290Y-447320D01*
G03X-131710I-1710J-180D01*
G01X-131730Y-447500D01*
X-138270D01*
X-138290Y-447320D01*
G03X-141710I-1710J-180D01*
G01X-141730Y-447500D01*
X-148270D01*
X-148290Y-447320D01*
G03X-151710I-1710J-180D01*
G01X-151730Y-447500D01*
X-158270D01*
X-158290Y-447320D01*
G03X-161710I-1710J-180D01*
G01X-161730Y-447500D01*
X-168270D01*
X-168290Y-447320D01*
G03X-171710I-1710J-180D01*
G01X-171730Y-447500D01*
X-178270D01*
X-178290Y-447320D01*
G03X-181710I-1710J-180D01*
G01X-181730Y-447500D01*
X-188270D01*
X-188290Y-447320D01*
G03X-191710I-1710J-180D01*
G01X-191730Y-447500D01*
X-198270D01*
X-198290Y-447320D01*
G03X-201710I-1710J-180D01*
G01X-201730Y-447500D01*
X-208270D01*
X-208290Y-447320D01*
G03X-211710I-1710J-180D01*
G01X-211730Y-447500D01*
X-218270D01*
X-218290Y-447320D01*
G03X-221710I-1710J-180D01*
G01X-221730Y-447500D01*
X-228270D01*
X-228290Y-447320D01*
G03X-231710I-1710J-180D01*
G01X-231730Y-447500D01*
X-238270D01*
X-238290Y-447320D01*
G03X-241710I-1710J-180D01*
G01X-241730Y-447500D01*
X-248270D01*
X-248290Y-447320D01*
G03X-251710I-1710J-180D01*
G01X-251730Y-447500D01*
X-258270D01*
X-258290Y-447320D01*
G03X-261710I-1710J-180D01*
G01X-261730Y-447500D01*
X-268270D01*
X-268290Y-447320D01*
G03X-271710I-1710J-180D01*
G01X-271730Y-447500D01*
X-278270D01*
X-278290Y-447320D01*
G03X-281710I-1710J-180D01*
G01X-281730Y-447500D01*
X-288270D01*
X-288290Y-447320D01*
G03X-291710I-1710J-180D01*
G01X-291730Y-447500D01*
X-298270D01*
X-298290Y-447320D01*
G03X-301710I-1710J-180D01*
G01X-301730Y-447500D01*
X-308270D01*
X-308290Y-447320D01*
G03X-311710I-1710J-180D01*
G01X-311730Y-447500D01*
X-318270D01*
X-318290Y-447320D01*
G03X-321710I-1710J-180D01*
G01X-321730Y-447500D01*
X-328270D01*
X-328290Y-447320D01*
G03X-331710I-1710J-180D01*
G01X-331730Y-447500D01*
X-338270D01*
X-338290Y-447320D01*
G03X-341710I-1710J-180D01*
G01X-341730Y-447500D01*
X-345770D01*
X-345790Y-447320D01*
G03X-349210I-1710J-180D01*
G01X-349230Y-447500D01*
X-355770D01*
X-355790Y-447320D01*
G03X-359210I-1710J-180D01*
G01X-359230Y-447500D01*
X-365770D01*
X-365790Y-447320D01*
G03X-369210I-1710J-180D01*
G01X-369230Y-447500D01*
X-375000D01*
Y-426730D01*
X-374820Y-426710D01*
G03Y-423290I-180J1710D01*
G01X-375000Y-423270D01*
Y-290000D01*
X-427500D01*
Y-282500D01*
X-360000D01*
Y-355000D01*
X-340000D01*
Y-345000D01*
X-330000D01*
Y-355000D01*
X-307500D01*
Y-337500D01*
X-300000D01*
Y-355000D01*
X-257500D01*
Y-322500D01*
X-250000D01*
Y-367500D01*
X-360000D01*
Y-420000D01*
X-215000D01*
Y-397500D01*
X-205250D01*
G02X-204970Y-398180I-1J-398D01*
G03X-202530I1220J-1220D01*
G02X-202250Y-397500I281J282D01*
G01X-197750D01*
G02X-197470Y-398180I-1J-398D01*
G03X-195030I1220J-1220D01*
G02X-194750Y-397500I281J282D01*
G01X-192500D01*
Y-425800D01*
X-144320D01*
G02X-143920Y-426200I0J-400D01*
G03X-140480I1720J-20D01*
G02X-140080Y-425800I400J0D01*
G01X-102600D01*
Y-402700D01*
X-90500D01*
Y-425800D01*
X-32120D01*
G02X-31720Y-426190I1J-400D01*
G03X-28280I1720J30D01*
G02X-27880Y-425800I399J-10D01*
G01X147860D01*
G37*
%LPC*%
G75*
G36*
G01X285520Y0D02*
G02I-285520J0D01*
G37*
G36*
G01D02*
G02I-285520J0D01*
G37*
G36*
G01D02*
G02I-285520J0D01*
G37*
G36*
G01D02*
G02I-285520J0D01*
G37*
G36*
G01X291480Y-372010D02*
G03X291220I-130J-147D01*
G02X288790Y-369580I-1120J1310D01*
G03Y-369320I-147J130D01*
G02Y-367080I1310J1120D01*
G03Y-366820I-147J130D01*
G02Y-364580I1310J1120D01*
G03Y-364320I-147J130D01*
G02Y-362080I1310J1120D01*
G03Y-361820I-147J130D01*
G02Y-359580I1310J1120D01*
G03Y-359320I-147J130D01*
G02X291220Y-356890I1310J1120D01*
G03X291480I130J147D01*
G02X293720I1120J-1310D01*
G03X293980I130J147D01*
G02X296410Y-359320I1120J-1310D01*
G03Y-359580I147J-130D01*
G02Y-361820I-1310J-1120D01*
G03Y-362080I147J-130D01*
G02Y-364320I-1310J-1120D01*
G03Y-364580I147J-130D01*
G02Y-366820I-1310J-1120D01*
G03Y-367080I147J-130D01*
G02Y-369320I-1310J-1120D01*
G03Y-369580I147J-130D01*
G02X293980Y-372010I-1310J-1120D01*
G03X293720I-130J-147D01*
G02X291480I-1120J1310D01*
G37*
G36*
G01X393680Y-321310D02*
G03X393420I-130J-147D01*
G02X390990Y-318880I-1120J1310D01*
G03Y-318620I-147J130D01*
G02Y-316380I1310J1120D01*
G03Y-316120I-147J130D01*
G02X393420Y-313690I1310J1120D01*
G03X393680I130J147D01*
G02X395920I1120J-1310D01*
G03X396180I130J147D01*
G02X398420I1120J-1310D01*
G03X398680I130J147D01*
G02X400920I1120J-1310D01*
G03X401180I130J147D01*
G02X403420I1120J-1310D01*
G03X403680I130J147D01*
G02X406110Y-316120I1120J-1310D01*
G03Y-316380I147J-130D01*
G02Y-318620I-1310J-1120D01*
G03Y-318880I147J-130D01*
G02X403680Y-321310I-1310J-1120D01*
G03X403420I-130J-147D01*
G02X401180I-1120J1310D01*
G03X400920I-130J-147D01*
G02X398680I-1120J1310D01*
G03X398420I-130J-147D01*
G02X396180I-1120J1310D01*
G03X395920I-130J-147D01*
G02X393680I-1120J1310D01*
G37*
G36*
G01X-287470Y-344590D02*
G03X-287960Y-345050I-96J-388D01*
G02X-289270Y-343670I-1694J-296D01*
G03X-288780Y-343210I96J388D01*
G02X-286710Y-341230I1693J302D01*
G03X-286220Y-340770I96J388D01*
G02X-284150Y-338790I1693J302D01*
G03X-283660Y-338330I96J388D01*
G02X-282350Y-339710I1694J296D01*
G03X-282840Y-340170I-96J-388D01*
G02X-284910Y-342150I-1693J-302D01*
G03X-285400Y-342610I-96J-388D01*
G02X-287470Y-344590I-1693J-302D01*
G37*
G36*
G01X282950Y-398680D02*
G03X283660Y-398930I400J3D01*
G02X286120Y-398690I1346J-1070D01*
G03X286380I130J152D01*
G02X288620I1120J-1310D01*
G03X288880I130J152D01*
G02X291120I1120J-1310D01*
G03X291380I130J152D01*
G02X293620I1120J-1310D01*
G03X293880I130J152D01*
G02X296120I1120J-1310D01*
G03X296380I130J152D01*
G02X298810Y-401120I1120J-1310D01*
G03Y-401380I152J-130D01*
G02Y-403620I-1310J-1120D01*
G03Y-403880I152J-130D01*
G02X296380Y-406310I-1310J-1120D01*
G03X296120I-130J-152D01*
G02X293880I-1120J1310D01*
G03X293620I-130J-152D01*
G02X291380I-1120J1310D01*
G03X291120I-130J-152D01*
G02X288880I-1120J1310D01*
G03X288620I-130J-152D01*
G02X286380I-1120J1310D01*
G03X286120I-130J-152D01*
G02X283660Y-406070I-1114J1310D01*
G03X282950Y-406320I-310J-253D01*
G01Y-412860D01*
X274050D01*
Y-392140D01*
X282950D01*
Y-398680D01*
G37*
G36*
G01X285520Y0D02*
G02I-285520J0D01*
G37*
G36*
G01X-193090Y-435890D02*
G02X-194220Y-437520I588J-1614D01*
G03X-194760Y-437140I-401J3D01*
G02X-193630Y-435510I-588J1614D01*
G03X-193090Y-435890I401J-3D01*
G37*
G54D20*
X400000Y400000D03*
Y-400000D03*
X-400000Y400000D03*
Y-400000D03*
G54D21*
X260000Y-390690D03*
Y-414310D03*
G54D19*
X-308190Y-177930D03*
X293190Y203910D03*
X298190Y195250D03*
X303190Y186590D03*
X295860Y159270D03*
X290860Y167930D03*
X300860Y150610D03*
X290860Y-167930D03*
X295860Y-159270D03*
X300860Y-150610D03*
X293190Y-203910D03*
X298190Y-195250D03*
X303190Y-186590D03*
X186590Y303190D03*
X203910Y293190D03*
X195250Y298190D03*
Y-298190D03*
X203910Y-293190D03*
X186590Y-303190D03*
X167930Y290860D03*
X159270Y295860D03*
Y-295860D03*
X167930Y-290860D03*
X150610Y300860D03*
Y-300860D03*
X-150610Y300860D03*
X-159270Y295860D03*
X-167930Y290860D03*
Y-290860D03*
X-159270Y-295860D03*
X-150610Y-300860D03*
X-186590Y303190D03*
X-195250Y298190D03*
X-203910Y293190D03*
X-186590Y-303190D03*
X-195250Y-298190D03*
X-203910Y-293190D03*
X-293190Y203910D03*
X-290860Y167930D03*
X-295860Y159270D03*
X-290860Y-167930D03*
X-295860Y-159270D03*
X-293190Y-203910D03*
X-298190Y195250D03*
X-303190Y186590D03*
X-300860Y150610D03*
Y-150610D03*
X-303190Y-186590D03*
X-298190Y-195250D03*
X338190Y125970D03*
X343190Y117310D03*
X355860Y60000D03*
Y70000D03*
X335860Y60000D03*
Y70000D03*
X355860Y30000D03*
Y40000D03*
Y50000D03*
X335860Y30000D03*
Y40000D03*
Y50000D03*
X355860Y0D03*
Y10000D03*
Y20000D03*
X335860Y0D03*
Y10000D03*
Y20000D03*
X355860Y-30000D03*
Y-20000D03*
Y-10000D03*
X335860Y-30000D03*
Y-20000D03*
Y-10000D03*
X355860Y-60000D03*
Y-50000D03*
Y-40000D03*
X335860Y-60000D03*
Y-50000D03*
Y-40000D03*
X355860Y-70000D03*
X335860D03*
X343190Y-117310D03*
X338190Y-125970D03*
X323190Y151950D03*
X318190Y160610D03*
X313190Y169270D03*
X308190Y177930D03*
X333190Y134630D03*
X328190Y143290D03*
X315860Y124630D03*
X310860Y133290D03*
X305860Y141950D03*
X325860Y107310D03*
X320860Y115970D03*
Y-115970D03*
X325860Y-107310D03*
X328190Y-143290D03*
X333190Y-134630D03*
X305860Y-141950D03*
X310860Y-133290D03*
X315860Y-124630D03*
X308190Y-177930D03*
X313190Y-169270D03*
X318190Y-160610D03*
X323190Y-151950D03*
X177930Y308190D03*
X169270Y313190D03*
X160610Y318190D03*
X134630Y333190D03*
X125970Y338190D03*
X151950Y323190D03*
X143290Y328190D03*
X141950Y305860D03*
X133290Y310860D03*
X124630Y315860D03*
X117310Y343190D03*
X115970Y320860D03*
X107310Y325860D03*
X70000Y335860D03*
Y355860D03*
X60000Y335860D03*
X50000D03*
X40000D03*
X60000Y355860D03*
X50000D03*
X40000D03*
X30000Y335860D03*
X20000D03*
X10000D03*
X30000Y355860D03*
X20000D03*
X10000D03*
X0Y335860D03*
X-10000D03*
X-20000D03*
X0Y355860D03*
X-10000D03*
X-20000D03*
X-30000Y335860D03*
X-40000D03*
X-50000D03*
X-30000Y355860D03*
X-40000D03*
X-50000D03*
X-60000Y335860D03*
X-70000D03*
X-60000Y355860D03*
X-70000D03*
X-107310Y325860D03*
X-117310Y343190D03*
X-125970Y338190D03*
X-134630Y333190D03*
X-143290Y328190D03*
X-115970Y320860D03*
X-124630Y315860D03*
X-133290Y310860D03*
X-141950Y305860D03*
X-151950Y323190D03*
X-160610Y318190D03*
X-169270Y313190D03*
X-177930Y308190D03*
X-308190Y177930D03*
X-313190Y169270D03*
X-318190Y160610D03*
X-323190Y151950D03*
X-305860Y141950D03*
X-310860Y133290D03*
X-315860Y124630D03*
X-320860Y115970D03*
Y-115970D03*
X-315860Y-124630D03*
X-310860Y-133290D03*
X-305860Y-141950D03*
X-323190Y-151950D03*
X-318190Y-160610D03*
X-313190Y-169270D03*
X-328190Y143290D03*
X-333190Y134630D03*
X-338190Y125970D03*
X-325860Y107310D03*
X-343190Y117310D03*
X-335860Y70000D03*
Y60000D03*
X-355860D03*
Y70000D03*
X-335860Y50000D03*
Y40000D03*
Y30000D03*
X-355860D03*
Y40000D03*
Y50000D03*
X-335860Y20000D03*
Y10000D03*
Y0D03*
X-355860D03*
Y10000D03*
Y20000D03*
X-335860Y-10000D03*
Y-20000D03*
Y-30000D03*
X-355860D03*
Y-20000D03*
Y-10000D03*
X-335860Y-40000D03*
Y-50000D03*
Y-60000D03*
X-355860D03*
Y-50000D03*
Y-40000D03*
X-335860Y-70000D03*
X-355860D03*
X-343190Y-117310D03*
X-325860Y-107310D03*
X-338190Y-125970D03*
X-333190Y-134630D03*
X-328190Y-143290D03*
X-177930Y-308190D03*
X-151950Y-323190D03*
X-160610Y-318190D03*
X-169270Y-313190D03*
X-117310Y-343190D03*
X-125970Y-338190D03*
X-134630Y-333190D03*
X-124630Y-315860D03*
X-133290Y-310860D03*
X-141950Y-305860D03*
X-143290Y-328190D03*
X-115970Y-320860D03*
X-107310Y-325860D03*
X-60000Y-335860D03*
X-70000D03*
X-60000Y-355860D03*
X-70000D03*
X-30000Y-335860D03*
X-40000D03*
X-50000D03*
X-30000Y-355860D03*
X-40000D03*
X-50000D03*
X0Y-335860D03*
X-10000D03*
X-20000D03*
Y-355860D03*
X30000Y-335860D03*
X20000D03*
X10000D03*
X60000D03*
X50000D03*
X40000D03*
X70000D03*
Y-355860D03*
X117310Y-343190D03*
X115970Y-320860D03*
X107310Y-325860D03*
X134630Y-333190D03*
X125970Y-338190D03*
X141950Y-305860D03*
X133290Y-310860D03*
X124630Y-315860D03*
X151950Y-323190D03*
X143290Y-328190D03*
X177930Y-308190D03*
X169270Y-313190D03*
X160610Y-318190D03*
X-273190Y-238550D03*
X-278190Y-229890D03*
X-283190Y-221230D03*
X-288190Y-212570D03*
X-270860Y-202570D03*
X-275860Y-193910D03*
X-280860Y-185250D03*
X-285860Y-176590D03*
Y176590D03*
X-280860Y185250D03*
X-275860Y193910D03*
X-270860Y202570D03*
X-288190Y212570D03*
X-283190Y221230D03*
X-278190Y229890D03*
X-273190Y238550D03*
X-238550Y-273190D03*
X-265860Y-211230D03*
X-255860Y-228550D03*
X-260860Y-219890D03*
X-265860Y211230D03*
X-260860Y219890D03*
X-255860Y228550D03*
X-238550Y273190D03*
X-229890Y-278190D03*
X-221230Y-283190D03*
X-212570Y-288190D03*
X-211230Y-265860D03*
X-219890Y-260860D03*
X-228550Y-255860D03*
Y255860D03*
X-219890Y260860D03*
X-211230Y265860D03*
X-229890Y278190D03*
X-221230Y283190D03*
X-212570Y288190D03*
X-176590Y-285860D03*
X-185250Y-280860D03*
X-193910Y-275860D03*
X-202570Y-270860D03*
Y270860D03*
X-193910Y275860D03*
X-185250Y280860D03*
X-176590Y285860D03*
X176590Y-285860D03*
Y285860D03*
X185250Y-280860D03*
X212570Y-288190D03*
X202570Y-270860D03*
X193910Y-275860D03*
X211230Y-265860D03*
Y265860D03*
X202570Y270860D03*
X185250Y280860D03*
X193910Y275860D03*
X212570Y288190D03*
X229890Y-278190D03*
X221230Y-283190D03*
X238550Y-273190D03*
X228550Y-255860D03*
X219890Y-260860D03*
Y260860D03*
X228550Y255860D03*
X221230Y283190D03*
X229890Y278190D03*
X238550Y273190D03*
X265860Y-211230D03*
X260860Y-219890D03*
X255860Y-228550D03*
X273190Y-238550D03*
X270860Y-202570D03*
Y202570D03*
X255860Y228550D03*
X260860Y219890D03*
X265860Y211230D03*
X273190Y238550D03*
X288190Y-212570D03*
X283190Y-221230D03*
X278190Y-229890D03*
X280860Y-185250D03*
X275860Y-193910D03*
X285860Y-176590D03*
Y176590D03*
X275860Y193910D03*
X280860Y185250D03*
X288190Y212570D03*
X283190Y221230D03*
X278190Y229890D03*
X0Y-355860D03*
X-10000D03*
X10000D03*
X30000D03*
X20000D03*
X40000D03*
X60000D03*
X50000D03*
G54D18*
X-225000Y-387500D03*
Y-377500D03*
Y-407500D03*
Y-397500D03*
X-217500Y-387500D03*
Y-377500D03*
X125860Y-379140D03*
X118790Y-386210D03*
X140000Y-365000D03*
X132930Y-372070D03*
X177500Y-412500D03*
X170430Y-419570D03*
X177500Y-375000D03*
Y-365000D03*
Y-395000D03*
Y-385000D03*
X228360Y-316640D03*
X221290Y-323710D03*
X242500Y-302500D03*
X235430Y-309570D03*
X326290Y-201210D03*
X355000Y105000D03*
Y115000D03*
Y85000D03*
Y95000D03*
X365000Y62500D03*
Y72500D03*
Y42500D03*
Y52500D03*
X382500Y257500D03*
Y267500D03*
Y237500D03*
Y247500D03*
X260860Y258360D03*
X253790Y251290D03*
X275000Y272500D03*
X267930Y265430D03*
X255000Y320000D03*
X245000D03*
X275000D03*
X265000D03*
X255000Y340000D03*
X245000D03*
X275000D03*
X265000D03*
X-342500Y175000D03*
Y185000D03*
Y155000D03*
Y165000D03*
X-384140Y243360D03*
X-391210Y236290D03*
X-370000Y257500D03*
X-377070Y250430D03*
X-396640Y243360D03*
X-403710Y236290D03*
X-382500Y257500D03*
X-389570Y250430D03*
X-337500Y245000D03*
X-347500D03*
X-317500D03*
X-327500D03*
X-337500Y230000D03*
X-347500D03*
X-317500D03*
X-327500D03*
X-412500Y150000D03*
Y170000D03*
Y160000D03*
Y140000D03*
X-375000Y92500D03*
Y112500D03*
Y102500D03*
Y82500D03*
X-370000Y92500D03*
Y112500D03*
Y102500D03*
Y82500D03*
X-412500Y70000D03*
Y90000D03*
Y80000D03*
Y60000D03*
Y-10000D03*
Y10000D03*
Y0D03*
Y-20000D03*
Y-90000D03*
Y-70000D03*
Y-80000D03*
Y-100000D03*
Y-210000D03*
Y-190000D03*
Y-200000D03*
Y-220000D03*
X-325000Y-265000D03*
Y-245000D03*
Y-255000D03*
Y-275000D03*
X-340000Y-265000D03*
Y-245000D03*
Y-255000D03*
Y-275000D03*
X-315000Y-197500D03*
Y-207500D03*
X-310000Y-217500D03*
Y-197500D03*
Y-207500D03*
Y-227500D03*
X-320000Y-177500D03*
Y-187500D03*
X-315000Y-177500D03*
Y-187500D03*
X-370000Y-165000D03*
Y-155000D03*
Y-175000D03*
Y-195000D03*
Y-185000D03*
Y-205000D03*
Y-215000D03*
X-382500Y-95000D03*
Y-85000D03*
Y-105000D03*
Y-125000D03*
Y-115000D03*
Y-135000D03*
Y-145000D03*
X-427500Y-325000D03*
Y-315000D03*
Y-335000D03*
Y-355000D03*
Y-345000D03*
Y-365000D03*
Y-375000D03*
X35000Y-395000D03*
X45000D03*
X25000D03*
X5000D03*
X15000D03*
X-5000D03*
X-15000D03*
X102500D03*
X112500D03*
X92500D03*
X72500D03*
X82500D03*
X62500D03*
X52500D03*
X45000Y-370000D03*
X55000D03*
X35000D03*
X15000D03*
X25000D03*
X5000D03*
X-5000D03*
X-242500Y415000D03*
Y425000D03*
Y405000D03*
Y385000D03*
Y395000D03*
Y375000D03*
Y365000D03*
X-325000Y322500D03*
Y332500D03*
Y312500D03*
Y292500D03*
Y302500D03*
Y282500D03*
Y272500D03*
X-260000Y322500D03*
Y332500D03*
Y312500D03*
Y292500D03*
Y302500D03*
Y282500D03*
Y272500D03*
X-280000Y322500D03*
Y332500D03*
Y312500D03*
Y292500D03*
Y302500D03*
Y282500D03*
Y272500D03*
X5000Y417500D03*
Y427500D03*
Y407500D03*
Y387500D03*
Y397500D03*
Y377500D03*
Y367500D03*
X-25000Y415000D03*
Y425000D03*
Y405000D03*
Y385000D03*
Y395000D03*
Y375000D03*
Y365000D03*
X-182500Y415000D03*
Y425000D03*
Y405000D03*
Y385000D03*
Y395000D03*
Y375000D03*
Y365000D03*
X-200000Y415000D03*
Y425000D03*
Y405000D03*
Y385000D03*
Y395000D03*
Y375000D03*
Y365000D03*
X-217500Y415000D03*
Y425000D03*
Y405000D03*
Y385000D03*
Y395000D03*
Y375000D03*
Y365000D03*
X-305000Y322500D03*
Y332500D03*
Y312500D03*
Y292500D03*
Y302500D03*
Y282500D03*
Y272500D03*
X-395000Y-160000D03*
Y-150000D03*
Y-170000D03*
Y-190000D03*
Y-180000D03*
Y-200000D03*
Y-210000D03*
Y-90000D03*
Y-80000D03*
Y-100000D03*
Y-120000D03*
Y-110000D03*
Y-130000D03*
Y-140000D03*
Y-20000D03*
Y-10000D03*
Y-30000D03*
Y-50000D03*
Y-40000D03*
Y-60000D03*
Y-70000D03*
Y50000D03*
Y60000D03*
Y40000D03*
Y20000D03*
Y30000D03*
Y10000D03*
Y0D03*
Y120000D03*
Y130000D03*
Y110000D03*
Y90000D03*
Y100000D03*
Y80000D03*
Y70000D03*
X-405000Y190000D03*
Y200000D03*
Y180000D03*
Y160000D03*
Y170000D03*
Y150000D03*
Y140000D03*
X-377500Y195000D03*
Y205000D03*
Y185000D03*
Y165000D03*
Y175000D03*
Y155000D03*
Y145000D03*
X-402500Y337500D03*
Y347500D03*
Y327500D03*
Y307500D03*
Y317500D03*
Y297500D03*
Y287500D03*
X45000Y-405000D03*
X55000D03*
X35000D03*
X15000D03*
X25000D03*
X5000D03*
X-5000D03*
X45000Y-422500D03*
X55000D03*
X35000D03*
X15000D03*
X25000D03*
X5000D03*
X-5000D03*
X360000Y-235000D03*
X370000D03*
X350000D03*
X330000D03*
X340000D03*
X320000D03*
X310000D03*
X367500Y-90000D03*
Y-80000D03*
Y-100000D03*
Y-120000D03*
Y-110000D03*
Y-130000D03*
Y-140000D03*
X380000Y-92500D03*
Y-82500D03*
Y-102500D03*
Y-122500D03*
Y-112500D03*
Y-132500D03*
Y-142500D03*
X205000Y340000D03*
X215000D03*
X195000D03*
X175000D03*
X185000D03*
X165000D03*
X155000D03*
X350000Y272500D03*
X360000D03*
X340000D03*
X320000D03*
X330000D03*
X310000D03*
X300000D03*
X342500Y235000D03*
X352500D03*
X332500D03*
X312500D03*
X322500D03*
X302500D03*
X292500D03*
X352500Y212500D03*
Y222500D03*
Y202500D03*
Y182500D03*
Y192500D03*
Y172500D03*
Y162500D03*
X377500Y200000D03*
Y210000D03*
Y190000D03*
Y170000D03*
Y180000D03*
Y160000D03*
Y150000D03*
X190000Y-380000D03*
Y-370000D03*
Y-390000D03*
Y-410000D03*
Y-400000D03*
Y-420000D03*
X350000Y-270000D03*
X360000D03*
X340000D03*
X320000D03*
X330000D03*
X310000D03*
X300000D03*
X350000Y-380000D03*
X370000D03*
X360000D03*
X320000D03*
X340000D03*
X330000D03*
X290000D03*
X310000D03*
X300000D03*
X280000D03*
X-420000Y-30000D03*
Y-20000D03*
Y-60000D03*
Y-50000D03*
Y-40000D03*
Y-90000D03*
Y-70000D03*
Y-80000D03*
Y-120000D03*
Y-110000D03*
Y-100000D03*
Y-140000D03*
Y-130000D03*
Y230000D03*
Y240000D03*
Y200000D03*
Y210000D03*
Y220000D03*
Y170000D03*
Y190000D03*
Y180000D03*
Y140000D03*
Y150000D03*
Y160000D03*
Y120000D03*
Y130000D03*
X-260000Y350000D03*
X-290000D03*
X-270000D03*
X-280000D03*
X-320000D03*
X-310000D03*
X-300000D03*
X-340000D03*
X-330000D03*
X-260000Y400000D03*
X-290000D03*
X-270000D03*
X-280000D03*
X-320000D03*
X-310000D03*
X-300000D03*
X-340000D03*
X-330000D03*
X-260000Y380000D03*
X-290000D03*
X-270000D03*
X-280000D03*
X-320000D03*
X-310000D03*
X-300000D03*
X-340000D03*
X-330000D03*
X-260000Y360000D03*
X-290000D03*
X-270000D03*
X-280000D03*
X-320000D03*
X-310000D03*
X-300000D03*
X-340000D03*
X-330000D03*
X380000Y320000D03*
X350000D03*
X370000D03*
X360000D03*
X320000D03*
X330000D03*
X340000D03*
X300000D03*
X310000D03*
X380000Y340000D03*
X350000D03*
X370000D03*
X360000D03*
X320000D03*
X330000D03*
X340000D03*
X300000D03*
X310000D03*
X220000Y390000D03*
X190000D03*
X210000D03*
X200000D03*
X160000D03*
X170000D03*
X180000D03*
X140000D03*
X150000D03*
X210000Y370000D03*
X180000D03*
X200000D03*
X190000D03*
X150000D03*
X160000D03*
X170000D03*
X130000D03*
X140000D03*
X360000Y360000D03*
X350000D03*
X340000D03*
X330000D03*
X320000D03*
X300000D03*
X310000D03*
X290000D03*
X280000D03*
X270000D03*
X260000D03*
X250000D03*
X240000D03*
X360000Y390000D03*
X350000D03*
X340000D03*
X330000D03*
X320000D03*
X300000D03*
X310000D03*
X290000D03*
X280000D03*
X270000D03*
X260000D03*
X250000D03*
X240000D03*
X360000Y410000D03*
X350000D03*
X340000D03*
X330000D03*
X320000D03*
X300000D03*
X310000D03*
X290000D03*
X280000D03*
X270000D03*
X260000D03*
X250000D03*
X240000D03*
Y370000D03*
X250000D03*
X260000D03*
X270000D03*
X280000D03*
X290000D03*
X310000D03*
X300000D03*
X320000D03*
X330000D03*
X340000D03*
X350000D03*
X360000D03*
X370000D03*
X380000D03*
X390000D03*
X400000D03*
X410000D03*
X420000Y350000D03*
X410000D03*
X420000Y360000D03*
X410000D03*
X420000Y320000D03*
X410000D03*
X420000Y330000D03*
X410000D03*
X420000Y340000D03*
X410000D03*
Y290000D03*
X420000D03*
Y300000D03*
X410000D03*
X420000Y310000D03*
X410000D03*
X420000Y280000D03*
X410000D03*
X420000Y270000D03*
X410000D03*
X420000Y260000D03*
X410000D03*
X420000Y250000D03*
X410000D03*
X420000Y240000D03*
X410000D03*
X420000Y230000D03*
X410000D03*
X420000Y220000D03*
X410000D03*
X420000Y210000D03*
X410000D03*
X420000Y200000D03*
X410000D03*
X420000Y190000D03*
X410000D03*
X420000Y180000D03*
X410000D03*
X420000Y170000D03*
X410000D03*
X420000Y160000D03*
X410000D03*
X420000Y150000D03*
X410000D03*
X420000Y140000D03*
X410000D03*
X420000Y130000D03*
X410000D03*
X420000Y120000D03*
X410000D03*
X420000Y110000D03*
X410000D03*
X420000Y100000D03*
X410000D03*
X420000Y90000D03*
X410000D03*
X420000Y80000D03*
X410000D03*
X420000Y60000D03*
X410000D03*
X420000Y70000D03*
X410000D03*
X420000Y50000D03*
X410000D03*
X420000Y40000D03*
X410000D03*
X420000Y30000D03*
X410000D03*
X420000Y20000D03*
X410000D03*
X420000Y10000D03*
X410000D03*
X420000Y0D03*
X410000D03*
X420000Y-10000D03*
X410000D03*
X420000Y-20000D03*
X410000D03*
X420000Y-30000D03*
X410000D03*
X420000Y-40000D03*
X410000D03*
X435000Y420000D03*
Y410000D03*
Y400000D03*
Y380000D03*
Y390000D03*
Y360000D03*
Y370000D03*
Y350000D03*
Y340000D03*
Y320000D03*
Y330000D03*
Y300000D03*
Y310000D03*
Y290000D03*
Y280000D03*
Y260000D03*
Y270000D03*
Y240000D03*
Y250000D03*
Y230000D03*
Y220000D03*
Y200000D03*
Y210000D03*
Y180000D03*
Y190000D03*
Y170000D03*
Y160000D03*
Y140000D03*
Y150000D03*
Y120000D03*
Y130000D03*
Y110000D03*
Y100000D03*
Y80000D03*
Y90000D03*
Y60000D03*
Y70000D03*
Y50000D03*
Y40000D03*
Y20000D03*
Y30000D03*
Y0D03*
Y10000D03*
Y-10000D03*
Y-20000D03*
Y-40000D03*
Y-30000D03*
Y-60000D03*
Y-50000D03*
Y-70000D03*
Y-80000D03*
Y-100000D03*
Y-90000D03*
Y-120000D03*
Y-110000D03*
Y-130000D03*
Y-140000D03*
Y-160000D03*
Y-150000D03*
Y-180000D03*
Y-170000D03*
Y-190000D03*
Y-200000D03*
Y-220000D03*
Y-210000D03*
Y-240000D03*
Y-230000D03*
Y-250000D03*
Y-260000D03*
Y-280000D03*
Y-270000D03*
Y-300000D03*
Y-290000D03*
Y-310000D03*
Y-320000D03*
Y-340000D03*
Y-330000D03*
Y-360000D03*
Y-350000D03*
Y-370000D03*
Y-380000D03*
Y-400000D03*
Y-390000D03*
Y-420000D03*
Y-410000D03*
X292100Y273600D03*
X301000Y40000D03*
X301390Y-211300D03*
X259800Y-296600D03*
X40000Y-301000D03*
X-293840Y-277500D03*
X-296400Y-273750D03*
X-291280D03*
X-301000Y-40000D03*
X-298960Y-277500D03*
X292100Y315500D03*
X-264670Y-330120D03*
X-321910Y-326910D03*
X-324660Y-337150D03*
X-320800Y-334590D03*
X-324660Y-332030D03*
X-319940Y-344820D03*
X365980Y-39730D03*
X368800Y-32100D03*
X334200Y153600D03*
X306000Y30000D03*
X321000Y0D03*
X316000Y10000D03*
X311000Y20000D03*
X326000Y-10000D03*
X309940Y-223180D03*
X259600Y-321300D03*
Y-330800D03*
X254940Y-306900D03*
X260700Y-347900D03*
X218300Y310800D03*
X33200Y370000D03*
X-155100Y336500D03*
X-304300Y216290D03*
X-326000Y10000D03*
X-321000Y0D03*
X-311000Y-20000D03*
X-316000Y-10000D03*
X-306000Y-30000D03*
X-345400Y-168600D03*
X-365700Y32800D03*
X-419880Y-302850D03*
Y-297740D03*
X-405000Y-312500D03*
X-392500Y-317500D03*
X-410180Y-305410D03*
Y-300300D03*
Y-295180D03*
X-386250Y-333660D03*
Y-338780D03*
Y-343900D03*
X-382500Y-346460D03*
Y-341340D03*
Y-336220D03*
Y-331100D03*
X-386250Y-328540D03*
X-338750Y-308840D03*
X-342500Y-311400D03*
X-338750Y-313960D03*
X-342500Y-296040D03*
X-302500Y-385690D03*
X-307500D03*
X-312500D03*
X-317500D03*
X-322500D03*
X-327500D03*
X-299880Y-332380D03*
X-272500Y-385690D03*
X-277500D03*
X-282500D03*
X-287500D03*
X-292500D03*
X-297500D03*
X-277500Y-345000D03*
Y-335000D03*
X-242500Y-362500D03*
Y-377500D03*
Y-385690D03*
X-247500D03*
X-252500D03*
X-257500D03*
X-262500D03*
X-267500D03*
X-242620Y-330120D03*
X-237500Y-412500D03*
X-214820Y-314200D03*
X-183940Y-404900D03*
X-184880Y-417620D03*
X-196250Y-379400D03*
X-189240Y-365200D03*
X-188940Y-374400D03*
X-195100Y-365500D03*
Y-385500D03*
X-197500Y-333540D03*
X-193750Y-336100D03*
X-197500Y-338660D03*
X-193750Y-341220D03*
X-197500Y-343780D03*
X-193750Y-346340D03*
X-197500Y-348900D03*
X-193750Y-351460D03*
X-176160Y-379300D03*
X-176460Y-360300D03*
X-142200Y-421100D03*
X-139240Y-418540D03*
X-90080Y-334140D03*
X-89490Y-329920D03*
X-86720Y-417620D03*
X-85660Y-333350D03*
X-30000Y-421040D03*
X-33700Y-366600D03*
X0Y-321000D03*
X-10000Y-326000D03*
X30000Y-306000D03*
X10000Y-316000D03*
X20000Y-311000D03*
X149990Y-340200D03*
X161000Y-345500D03*
X214100Y-379900D03*
X212900Y-352900D03*
X-320800Y-339700D03*
X-324660Y-342260D03*
X-309200Y-329470D03*
X-261380Y-337800D03*
Y-332680D03*
X-264670Y-335240D03*
X-282010Y93540D03*
X-281340Y104700D03*
X-222010Y-197460D03*
X-231340Y-191300D03*
X-197460Y222010D03*
X-191300Y231340D03*
X-93540Y-282010D03*
X-104700Y-281340D03*
X197460Y-222010D03*
X191300Y-231340D03*
X222010Y197460D03*
X231340Y191300D03*
X282010Y-93540D03*
X281340Y-104700D03*
X-291000Y-60000D03*
X-296000Y-50000D03*
X60000Y-291000D03*
X50000Y-296000D03*
X296000Y50000D03*
X291000Y60000D03*
X-277990Y-160500D03*
X-268660Y-166660D03*
X-287320Y-154340D03*
X-280670Y115860D03*
X-280000Y127020D03*
X-279330Y138180D03*
X-278660Y149340D03*
X-277990Y160500D03*
X-277320Y171660D03*
X-240670Y-185140D03*
X-250000Y-178980D03*
X-259330Y-172820D03*
X-178980Y250000D03*
X-185140Y240670D03*
X-160500Y-277990D03*
X-149340Y-278660D03*
X-171660Y-277320D03*
X-172820Y259330D03*
X-166660Y268660D03*
X-160500Y277990D03*
X-154340Y287320D03*
X-127020Y-280000D03*
X-138180Y-279330D03*
X-115860Y-280670D03*
X154340Y-287320D03*
X160500Y-277990D03*
X178980Y-250000D03*
X166660Y-268660D03*
X172820Y-259330D03*
X185140Y-240670D03*
X240670Y185140D03*
X268660Y166660D03*
X259330Y172820D03*
X250000Y178980D03*
X277990Y-160500D03*
X277320Y-171660D03*
X280000Y-127020D03*
X278660Y-149340D03*
X279330Y-138180D03*
X280670Y-115860D03*
X277990Y160500D03*
X287320Y154340D03*
X-435000Y-410000D03*
Y-420000D03*
Y-390000D03*
Y-400000D03*
Y-380000D03*
Y-370000D03*
Y-350000D03*
Y-360000D03*
Y-330000D03*
Y-340000D03*
Y-320000D03*
Y-310000D03*
Y-290000D03*
Y-300000D03*
Y-270000D03*
Y-280000D03*
Y-260000D03*
Y-250000D03*
Y-230000D03*
Y-240000D03*
Y-210000D03*
Y-220000D03*
Y-200000D03*
Y-190000D03*
Y-170000D03*
Y-180000D03*
Y-150000D03*
Y-160000D03*
Y-140000D03*
Y-130000D03*
Y-110000D03*
Y-120000D03*
Y-90000D03*
Y-100000D03*
Y-80000D03*
Y-70000D03*
Y-50000D03*
Y-60000D03*
Y-30000D03*
Y-40000D03*
Y-20000D03*
Y-10000D03*
Y10000D03*
Y0D03*
Y30000D03*
Y20000D03*
Y40000D03*
Y50000D03*
Y70000D03*
Y60000D03*
Y90000D03*
Y80000D03*
Y100000D03*
Y110000D03*
Y130000D03*
Y120000D03*
Y150000D03*
Y140000D03*
Y160000D03*
Y170000D03*
Y190000D03*
Y180000D03*
Y210000D03*
Y200000D03*
Y220000D03*
Y230000D03*
Y250000D03*
Y240000D03*
Y270000D03*
Y260000D03*
Y280000D03*
Y290000D03*
Y310000D03*
Y300000D03*
Y330000D03*
Y320000D03*
Y340000D03*
Y350000D03*
Y370000D03*
Y360000D03*
Y390000D03*
Y380000D03*
Y400000D03*
Y410000D03*
Y420000D03*
X402500D03*
X420000Y-250000D03*
X410000D03*
X420000Y-260000D03*
X410000D03*
X420000Y-270000D03*
X410000D03*
X420000Y-220000D03*
X410000D03*
X420000Y-230000D03*
X410000D03*
X420000Y-240000D03*
X410000D03*
X420000Y-190000D03*
X410000D03*
X420000Y-200000D03*
X410000D03*
X420000Y-210000D03*
X410000D03*
X420000Y-170000D03*
X410000D03*
X420000Y-160000D03*
X410000D03*
X420000Y-180000D03*
X410000D03*
X420000Y-130000D03*
X410000D03*
X420000Y-140000D03*
X410000D03*
X420000Y-150000D03*
X410000D03*
X420000Y-100000D03*
X410000D03*
X420000Y-110000D03*
X410000D03*
X420000Y-120000D03*
X410000D03*
X420000Y-70000D03*
X410000D03*
X420000Y-80000D03*
X410000D03*
X420000Y-90000D03*
X410000D03*
X420000Y-50000D03*
X410000D03*
X420000Y-60000D03*
X410000D03*
Y430000D03*
X400000D03*
X390000D03*
X380000D03*
X370000D03*
X360000D03*
X350000D03*
X340000D03*
X330000D03*
X320000D03*
X300000D03*
X310000D03*
X290000D03*
X280000D03*
X270000D03*
X260000D03*
X250000D03*
X240000D03*
Y420000D03*
X250000D03*
X260000D03*
X270000D03*
X280000D03*
X290000D03*
X310000D03*
X300000D03*
X320000D03*
X330000D03*
X340000D03*
X350000D03*
X360000D03*
X240000Y400000D03*
X250000D03*
X260000D03*
X270000D03*
X280000D03*
X290000D03*
X310000D03*
X300000D03*
X320000D03*
X330000D03*
X340000D03*
X350000D03*
X360000D03*
X240000Y380000D03*
X250000D03*
X260000D03*
X270000D03*
X280000D03*
X290000D03*
X310000D03*
X300000D03*
X320000D03*
X330000D03*
X340000D03*
X350000D03*
X360000D03*
X140000Y360000D03*
X130000D03*
X170000D03*
X160000D03*
X150000D03*
X190000D03*
X200000D03*
X180000D03*
X210000D03*
X150000Y380000D03*
X140000D03*
X180000D03*
X170000D03*
X160000D03*
X200000D03*
X210000D03*
X190000D03*
X220000D03*
X150000Y400000D03*
X140000D03*
X180000D03*
X170000D03*
X160000D03*
X200000D03*
X210000D03*
X190000D03*
X220000D03*
X310000Y330000D03*
X300000D03*
X340000D03*
X330000D03*
X320000D03*
X360000D03*
X370000D03*
X350000D03*
X380000D03*
X310000Y310000D03*
X300000D03*
X340000D03*
X330000D03*
X320000D03*
X360000D03*
X370000D03*
X350000D03*
X380000D03*
X-330000Y370000D03*
X-340000D03*
X-300000D03*
X-310000D03*
X-320000D03*
X-280000D03*
X-270000D03*
X-290000D03*
X-260000D03*
X-330000Y390000D03*
X-340000D03*
X-300000D03*
X-310000D03*
X-320000D03*
X-280000D03*
X-270000D03*
X-290000D03*
X-260000D03*
X-330000Y410000D03*
X-340000D03*
X-300000D03*
X-310000D03*
X-320000D03*
X-280000D03*
X-270000D03*
X-290000D03*
X-260000D03*
X-420000Y260000D03*
Y250000D03*
Y290000D03*
Y280000D03*
Y270000D03*
Y310000D03*
Y320000D03*
Y300000D03*
Y350000D03*
Y340000D03*
Y330000D03*
Y370000D03*
Y360000D03*
Y0D03*
Y-10000D03*
Y30000D03*
Y20000D03*
Y10000D03*
Y50000D03*
Y60000D03*
Y40000D03*
Y90000D03*
Y80000D03*
Y70000D03*
Y110000D03*
Y100000D03*
Y-260000D03*
Y-270000D03*
Y-230000D03*
Y-240000D03*
Y-250000D03*
Y-210000D03*
Y-200000D03*
Y-220000D03*
Y-170000D03*
Y-180000D03*
Y-190000D03*
Y-150000D03*
Y-160000D03*
X260000Y-430000D03*
X270000D03*
X250000D03*
X290000D03*
X300000D03*
X280000D03*
Y-390000D03*
X300000D03*
X310000D03*
X290000D03*
X330000D03*
X340000D03*
X320000D03*
X360000D03*
X370000D03*
X350000D03*
X300000Y-280000D03*
X310000D03*
X330000D03*
X320000D03*
X340000D03*
X360000D03*
X350000D03*
X377500Y10000D03*
Y20000D03*
Y40000D03*
Y30000D03*
Y50000D03*
Y70000D03*
Y60000D03*
X360000Y162500D03*
Y172500D03*
Y192500D03*
Y182500D03*
Y202500D03*
Y222500D03*
Y212500D03*
X292500Y242500D03*
X302500D03*
X322500D03*
X312500D03*
X332500D03*
X352500D03*
X342500D03*
X300000Y282500D03*
X310000D03*
X330000D03*
X320000D03*
X340000D03*
X360000D03*
X350000D03*
X300000Y262500D03*
X310000D03*
X330000D03*
X320000D03*
X340000D03*
X360000D03*
X350000D03*
X155000Y332500D03*
X165000D03*
X185000D03*
X175000D03*
X195000D03*
X215000D03*
X205000D03*
X380000Y-212500D03*
Y-202500D03*
Y-182500D03*
Y-192500D03*
Y-172500D03*
Y-152500D03*
Y-162500D03*
X367500Y-207500D03*
Y-197500D03*
Y-177500D03*
Y-187500D03*
Y-167500D03*
Y-147500D03*
Y-157500D03*
X310000Y-242500D03*
X320000D03*
X340000D03*
X330000D03*
X350000D03*
X370000D03*
X360000D03*
X67500Y-422500D03*
X77500D03*
X97500D03*
X87500D03*
X107500D03*
X127500D03*
X117500D03*
X67500Y-405000D03*
X77500D03*
X97500D03*
X87500D03*
X107500D03*
X127500D03*
X117500D03*
X-395000Y140000D03*
Y150000D03*
Y170000D03*
Y160000D03*
Y180000D03*
Y200000D03*
Y190000D03*
X-370000Y145000D03*
Y155000D03*
Y175000D03*
Y165000D03*
Y185000D03*
Y205000D03*
Y195000D03*
X-405000Y70000D03*
Y80000D03*
Y100000D03*
Y90000D03*
Y110000D03*
Y130000D03*
Y120000D03*
Y0D03*
Y10000D03*
Y30000D03*
Y20000D03*
Y40000D03*
Y60000D03*
Y50000D03*
Y-70000D03*
Y-60000D03*
Y-40000D03*
Y-50000D03*
Y-30000D03*
Y-10000D03*
Y-20000D03*
Y-140000D03*
Y-130000D03*
Y-110000D03*
Y-120000D03*
Y-100000D03*
Y-80000D03*
Y-90000D03*
Y-210000D03*
Y-200000D03*
Y-180000D03*
Y-190000D03*
Y-170000D03*
Y-150000D03*
Y-160000D03*
X-357500Y145000D03*
Y155000D03*
Y175000D03*
Y165000D03*
Y185000D03*
Y205000D03*
Y195000D03*
X-227500Y365000D03*
Y375000D03*
Y395000D03*
Y385000D03*
Y405000D03*
Y425000D03*
Y415000D03*
X-207500Y365000D03*
Y375000D03*
Y395000D03*
Y385000D03*
Y405000D03*
Y425000D03*
Y415000D03*
X-190000Y365000D03*
Y375000D03*
Y395000D03*
Y385000D03*
Y405000D03*
Y425000D03*
Y415000D03*
X-42500Y365000D03*
Y375000D03*
Y395000D03*
Y385000D03*
Y405000D03*
Y425000D03*
Y415000D03*
X-7500Y365000D03*
Y375000D03*
Y395000D03*
Y385000D03*
Y405000D03*
Y425000D03*
Y415000D03*
X-172500Y365000D03*
Y375000D03*
Y395000D03*
Y385000D03*
Y405000D03*
Y425000D03*
Y415000D03*
X-270000Y272500D03*
Y282500D03*
Y302500D03*
Y292500D03*
Y312500D03*
Y332500D03*
Y322500D03*
X-315000Y272500D03*
Y282500D03*
Y302500D03*
Y292500D03*
Y312500D03*
Y332500D03*
Y322500D03*
X-395000Y287500D03*
Y297500D03*
Y317500D03*
Y307500D03*
Y327500D03*
Y347500D03*
Y337500D03*
X-5000Y-377500D03*
X5000D03*
X25000D03*
X15000D03*
X35000D03*
X55000D03*
X45000D03*
X-5000Y-362500D03*
X5000D03*
X25000D03*
X15000D03*
X35000D03*
X55000D03*
X45000D03*
X-15000Y-385000D03*
X-5000D03*
X15000D03*
X5000D03*
X25000D03*
X45000D03*
X35000D03*
X-15000Y-390000D03*
X-5000D03*
X15000D03*
X5000D03*
X25000D03*
X45000D03*
X35000D03*
X-370000Y-145000D03*
Y-135000D03*
Y-115000D03*
Y-125000D03*
Y-105000D03*
Y-85000D03*
Y-95000D03*
X-382500Y-215000D03*
Y-205000D03*
Y-185000D03*
Y-195000D03*
Y-175000D03*
Y-155000D03*
Y-165000D03*
X-325000Y-227500D03*
Y-207500D03*
Y-197500D03*
Y-217500D03*
X-320000Y-207500D03*
Y-197500D03*
X-347500Y-275000D03*
Y-255000D03*
Y-245000D03*
Y-265000D03*
X-332500Y-275000D03*
Y-255000D03*
Y-245000D03*
Y-265000D03*
X-412500Y-180000D03*
Y-160000D03*
Y-150000D03*
Y-170000D03*
Y-140000D03*
Y-120000D03*
Y-110000D03*
Y-130000D03*
Y-60000D03*
Y-40000D03*
Y-30000D03*
Y-50000D03*
Y20000D03*
Y40000D03*
Y50000D03*
Y30000D03*
Y100000D03*
Y120000D03*
Y130000D03*
Y110000D03*
X-380000Y82500D03*
Y102500D03*
Y112500D03*
Y92500D03*
X-357500Y82500D03*
Y102500D03*
Y112500D03*
Y92500D03*
X-412500Y180000D03*
Y200000D03*
Y210000D03*
Y190000D03*
X-327500Y237500D03*
X-317500D03*
X-347500D03*
X-337500D03*
X-327500Y262500D03*
X-317500D03*
X-347500D03*
X-337500D03*
X-389570Y267930D03*
X-382500Y275000D03*
X-403710Y253790D03*
X-396640Y260860D03*
X-367070Y242930D03*
X-360000Y250000D03*
X-381210Y228790D03*
X-374140Y235860D03*
X-327500Y220000D03*
X-317500D03*
X-347500D03*
X-337500D03*
X265000Y330000D03*
X275000D03*
X245000D03*
X255000D03*
X265000Y310000D03*
X275000D03*
X245000D03*
X255000D03*
X375000Y252500D03*
Y242500D03*
Y272500D03*
Y262500D03*
X397500Y240000D03*
Y230000D03*
Y260000D03*
Y250000D03*
X345000Y90000D03*
Y80000D03*
Y110000D03*
Y100000D03*
X365000Y12500D03*
Y2500D03*
Y32500D03*
Y22500D03*
X345430Y-174570D03*
X352500Y-167500D03*
X331290Y-188710D03*
X338360Y-181640D03*
X347500Y-180000D03*
X333360Y-194140D03*
X340430Y-187070D03*
X167500Y-385000D03*
Y-395000D03*
Y-365000D03*
Y-375000D03*
X155430Y-417070D03*
X162500Y-410000D03*
X205000Y-390000D03*
Y-400000D03*
Y-370000D03*
Y-380000D03*
X209700Y-366500D03*
X140430Y-372070D03*
X147500Y-365000D03*
X126290Y-386210D03*
X133360Y-379140D03*
X-140000Y-392500D03*
Y-402500D03*
Y-372500D03*
Y-382500D03*
X-385000Y-425000D03*
X-405000D03*
X-395000D03*
X67500Y-440000D03*
X57500D03*
X87500D03*
X77500D03*
X-372500Y-395000D03*
Y-385000D03*
Y-415000D03*
Y-405000D03*
X156290Y-433710D03*
X117500Y-430000D03*
X127500D03*
X107500D03*
X87500D03*
X97500D03*
X77500D03*
X67500D03*
X190000D03*
X230000Y-440000D03*
X240000D03*
X210000D03*
X220000D03*
X-212500Y-442500D03*
X-26250Y-438960D03*
Y-433840D03*
Y-428720D03*
X-30000Y-436400D03*
Y-431280D03*
X-95000Y-440650D03*
X-207380Y-417620D03*
X-204650Y-432970D03*
X-195350Y-430410D03*
X-204650Y-427850D03*
X-185000Y-440000D03*
X-212500Y-427500D03*
X-232500D03*
X-222500D03*
X-252500D03*
X-242500D03*
X-267500Y-422500D03*
X-262500D03*
X-297500D03*
X-292500D03*
X-287500D03*
X-282500D03*
X-277500D03*
X-302500Y-427500D03*
X-307500Y-422500D03*
X-322500Y-427500D03*
X-312500D03*
X-352500D03*
X-342500D03*
X-332500D03*
X-362500D03*
X-400450Y-287500D03*
X210000Y-430000D03*
X230000D03*
X240000D03*
X220000D03*
X-5000D03*
X5000D03*
X25000D03*
X15000D03*
X35000D03*
X55000D03*
X45000D03*
X141290Y-431210D03*
X117500Y-440000D03*
X127500D03*
X97500D03*
X107500D03*
X35000D03*
X45000D03*
X15000D03*
X25000D03*
%LPD*%
G75*
G54D10*
X-435000Y-435000D03*
Y435000D03*
X-400000Y-400000D03*
Y400000D03*
X400000Y-400000D03*
Y400000D03*
X435000Y-435000D03*
Y435000D03*
G54D11*
X-435000Y-400000D03*
Y-420000D03*
Y-410000D03*
X-427500Y-375000D03*
Y-365000D03*
X-435000Y-370000D03*
Y-380000D03*
Y-390000D03*
X-427500Y-345000D03*
Y-355000D03*
Y-335000D03*
X-435000Y-340000D03*
Y-360000D03*
Y-350000D03*
X-427500Y-315000D03*
Y-325000D03*
X-419880Y-302850D03*
X-435000Y-310000D03*
Y-320000D03*
Y-330000D03*
X-422500Y-287500D03*
X-419880Y-292620D03*
Y-297740D03*
X-435000Y-280000D03*
Y-300000D03*
Y-290000D03*
X-420000Y-260000D03*
Y-270000D03*
Y-250000D03*
X-435000D03*
Y-260000D03*
Y-270000D03*
X-420000Y-230000D03*
Y-240000D03*
Y-220000D03*
X-435000D03*
Y-240000D03*
Y-230000D03*
X-420000Y-210000D03*
Y-200000D03*
Y-190000D03*
X-435000D03*
Y-200000D03*
Y-210000D03*
X-420000Y-170000D03*
Y-180000D03*
Y-160000D03*
X-435000D03*
Y-180000D03*
Y-170000D03*
X-420000Y-130000D03*
Y-140000D03*
Y-150000D03*
X-435000Y-130000D03*
Y-140000D03*
Y-150000D03*
X-420000Y-100000D03*
Y-110000D03*
Y-120000D03*
X-435000Y-100000D03*
Y-120000D03*
Y-110000D03*
X-420000Y-80000D03*
Y-70000D03*
Y-90000D03*
X-435000Y-70000D03*
Y-80000D03*
Y-90000D03*
X-420000Y-40000D03*
Y-50000D03*
Y-60000D03*
X-435000Y-40000D03*
Y-60000D03*
Y-50000D03*
X-420000Y-10000D03*
Y-20000D03*
Y-30000D03*
X-435000Y-10000D03*
Y-20000D03*
Y-30000D03*
X-420000Y0D03*
Y20000D03*
Y10000D03*
X-435000Y20000D03*
Y0D03*
Y10000D03*
X-420000Y30000D03*
Y50000D03*
Y40000D03*
X-435000Y50000D03*
Y40000D03*
Y30000D03*
X-420000Y60000D03*
Y80000D03*
Y70000D03*
X-435000Y80000D03*
Y60000D03*
Y70000D03*
X-420000Y90000D03*
Y110000D03*
Y100000D03*
X-435000Y110000D03*
Y100000D03*
Y90000D03*
X-420000Y130000D03*
Y120000D03*
Y140000D03*
X-435000D03*
Y120000D03*
Y130000D03*
X-420000Y160000D03*
Y150000D03*
Y170000D03*
X-435000D03*
Y160000D03*
Y150000D03*
X-420000Y180000D03*
Y190000D03*
Y200000D03*
X-435000D03*
Y180000D03*
Y190000D03*
X-420000Y220000D03*
Y210000D03*
Y230000D03*
X-435000D03*
Y220000D03*
Y210000D03*
X-420000Y260000D03*
Y250000D03*
Y240000D03*
X-435000Y260000D03*
Y240000D03*
Y250000D03*
X-420000Y290000D03*
Y280000D03*
Y270000D03*
X-435000Y290000D03*
Y280000D03*
Y270000D03*
X-420000Y310000D03*
Y320000D03*
Y300000D03*
X-435000Y320000D03*
Y300000D03*
Y310000D03*
X-420000Y350000D03*
Y340000D03*
Y330000D03*
X-435000Y350000D03*
Y340000D03*
Y330000D03*
X-420000Y370000D03*
Y360000D03*
X-435000Y380000D03*
Y360000D03*
Y370000D03*
Y410000D03*
Y400000D03*
Y390000D03*
Y430000D03*
Y420000D03*
X-407500Y-440000D03*
X-397500D03*
X-405000Y-425000D03*
X-395000D03*
X-417500Y-447500D03*
X-407500D03*
X-397500D03*
X-392500Y-317500D03*
X-405000Y-312500D03*
X-410180Y-305410D03*
X-392950Y-280000D03*
X-400450Y-287500D03*
X-397380Y-292620D03*
X-410180Y-295180D03*
Y-300300D03*
X-412500Y-220000D03*
X-405000Y-210000D03*
Y-200000D03*
Y-190000D03*
X-395000Y-210000D03*
Y-200000D03*
Y-190000D03*
X-412500Y-200000D03*
Y-190000D03*
Y-210000D03*
X-405000Y-180000D03*
Y-170000D03*
Y-160000D03*
X-395000Y-180000D03*
Y-170000D03*
Y-160000D03*
X-412500Y-180000D03*
Y-160000D03*
Y-170000D03*
X-405000Y-140000D03*
Y-130000D03*
X-395000Y-140000D03*
Y-130000D03*
X-405000Y-150000D03*
X-395000D03*
X-412500D03*
Y-140000D03*
Y-130000D03*
X-405000Y-110000D03*
Y-120000D03*
Y-100000D03*
X-395000Y-110000D03*
Y-120000D03*
Y-100000D03*
X-412500Y-120000D03*
Y-110000D03*
Y-100000D03*
X-405000Y-70000D03*
X-395000D03*
X-405000Y-80000D03*
Y-90000D03*
X-395000Y-80000D03*
Y-90000D03*
X-412500Y-80000D03*
Y-70000D03*
Y-90000D03*
X-405000Y-60000D03*
Y-40000D03*
Y-50000D03*
X-395000Y-60000D03*
Y-40000D03*
Y-50000D03*
X-412500Y-60000D03*
Y-40000D03*
Y-50000D03*
X-405000Y-30000D03*
Y-10000D03*
Y-20000D03*
X-395000Y-30000D03*
Y-10000D03*
Y-20000D03*
X-412500Y-30000D03*
Y-20000D03*
Y-10000D03*
X-405000Y0D03*
Y10000D03*
Y20000D03*
X-395000Y0D03*
Y10000D03*
Y20000D03*
X-412500Y0D03*
Y10000D03*
Y20000D03*
X-405000Y30000D03*
Y40000D03*
Y50000D03*
X-395000Y30000D03*
Y40000D03*
Y50000D03*
X-412500Y40000D03*
Y50000D03*
Y30000D03*
X-405000Y70000D03*
Y80000D03*
X-395000Y70000D03*
Y80000D03*
X-405000Y60000D03*
X-395000D03*
X-412500D03*
Y80000D03*
Y70000D03*
X-405000Y100000D03*
Y90000D03*
Y110000D03*
X-395000Y100000D03*
Y90000D03*
Y110000D03*
X-412500Y90000D03*
Y100000D03*
Y110000D03*
X-395000Y140000D03*
X-405000D03*
Y130000D03*
Y120000D03*
X-395000Y130000D03*
Y120000D03*
X-412500D03*
Y130000D03*
Y140000D03*
X-395000Y150000D03*
Y170000D03*
Y160000D03*
X-405000Y150000D03*
Y170000D03*
Y160000D03*
X-412500D03*
Y170000D03*
Y150000D03*
X-395000Y180000D03*
Y200000D03*
Y190000D03*
X-405000Y180000D03*
Y200000D03*
Y190000D03*
X-412500Y180000D03*
Y200000D03*
Y190000D03*
Y210000D03*
X-403710Y236290D03*
X-391210D03*
X-389570Y250430D03*
X-396640Y243360D03*
X-389570Y267930D03*
X-403710Y253790D03*
X-396640Y260860D03*
X-402500Y287500D03*
Y297500D03*
X-395000Y287500D03*
Y297500D03*
X-402500Y317500D03*
Y307500D03*
Y327500D03*
X-395000Y317500D03*
Y307500D03*
Y327500D03*
X-402500Y347500D03*
Y337500D03*
X-395000Y347500D03*
Y337500D03*
X-387500Y-440000D03*
X-377500D03*
X-385000Y-425000D03*
X-375000D03*
X-362500Y-442500D03*
Y-427500D03*
X-387500Y-447500D03*
X-377500D03*
X-367500D03*
X-372500Y-405000D03*
Y-415000D03*
Y-395000D03*
Y-385000D03*
X-382500Y-346460D03*
X-386250Y-343900D03*
X-382500Y-341340D03*
X-386250Y-338780D03*
X-382500Y-336220D03*
X-386250Y-333660D03*
X-382500Y-331100D03*
X-386250Y-328540D03*
X-382500Y-215000D03*
X-370000D03*
X-382500Y-205000D03*
Y-185000D03*
Y-195000D03*
X-370000Y-205000D03*
Y-185000D03*
Y-195000D03*
X-382500Y-175000D03*
Y-155000D03*
Y-165000D03*
X-370000Y-175000D03*
Y-155000D03*
Y-165000D03*
Y-145000D03*
Y-135000D03*
Y-125000D03*
X-382500Y-145000D03*
Y-135000D03*
Y-125000D03*
X-370000Y-115000D03*
Y-105000D03*
Y-95000D03*
X-382500Y-115000D03*
Y-105000D03*
Y-95000D03*
X-370000Y-85000D03*
X-382500D03*
X-372400Y15300D03*
X-365700Y32800D03*
X-380000Y82500D03*
X-375000D03*
X-370000D03*
X-380000Y102500D03*
Y112500D03*
Y92500D03*
X-375000Y102500D03*
Y112500D03*
Y92500D03*
X-370000Y102500D03*
Y112500D03*
Y92500D03*
X-377500Y145000D03*
X-370000D03*
X-377500Y155000D03*
Y175000D03*
Y165000D03*
X-370000Y155000D03*
Y175000D03*
Y165000D03*
X-377500Y185000D03*
Y205000D03*
Y195000D03*
X-370000Y185000D03*
Y205000D03*
Y195000D03*
X-381210Y228790D03*
X-374140Y235860D03*
X-382500Y257500D03*
X-377070Y250430D03*
X-370000Y257500D03*
X-384140Y243360D03*
X-367070Y242930D03*
X-360000Y250000D03*
X-382500Y275000D03*
X-352500Y-442500D03*
X-342500D03*
X-332500D03*
Y-427500D03*
X-342500D03*
X-352500D03*
X-347500Y-447500D03*
X-340000D03*
X-330000D03*
X-357500D03*
X-347500Y-362500D03*
X-337500D03*
X-332560Y-349940D03*
X-333140Y-312340D03*
X-338750Y-308840D03*
X-342500Y-311400D03*
X-338750Y-313960D03*
X-347500Y-275000D03*
X-340000D03*
X-332500D03*
X-342500Y-296040D03*
X-347500Y-255000D03*
Y-245000D03*
Y-265000D03*
X-340000Y-255000D03*
Y-245000D03*
Y-265000D03*
X-332500Y-255000D03*
Y-245000D03*
Y-265000D03*
X-340000Y-174950D03*
X-345400Y-168600D03*
X-357500Y82500D03*
Y102500D03*
Y112500D03*
Y92500D03*
Y145000D03*
Y155000D03*
Y175000D03*
Y165000D03*
X-342500D03*
Y155000D03*
Y175000D03*
X-357500Y185000D03*
Y205000D03*
Y195000D03*
X-342500Y185000D03*
X-347500Y230000D03*
X-337500D03*
X-347500Y237500D03*
X-337500D03*
X-347500Y220000D03*
X-337500D03*
X-347500Y245000D03*
X-337500D03*
X-347500Y262500D03*
X-337500D03*
X-330000Y350000D03*
X-340000D03*
X-330000Y360000D03*
X-340000D03*
X-330000Y370000D03*
X-340000D03*
X-330000Y380000D03*
X-340000D03*
X-330000Y390000D03*
X-340000D03*
X-330000Y400000D03*
X-340000D03*
X-330000Y410000D03*
X-340000D03*
X-322500Y-442500D03*
X-312500D03*
X-302500D03*
X-312500Y-427500D03*
X-322500D03*
X-307500Y-422500D03*
X-302500Y-427500D03*
X-320000Y-447500D03*
X-310000D03*
X-300000D03*
X-302500Y-385690D03*
X-327500Y-362500D03*
X-317500D03*
X-307500D03*
X-327500Y-385690D03*
X-322500D03*
X-312500D03*
X-307500D03*
X-317500D03*
X-319940Y-349940D03*
X-302440Y-334940D03*
X-327620Y-347380D03*
X-299880Y-332380D03*
X-302440Y-342560D03*
X-310060Y-347380D03*
X-319940Y-344820D03*
X-324660Y-342260D03*
X-320800Y-339700D03*
X-324660Y-337150D03*
X-320800Y-334590D03*
X-324660Y-332030D03*
X-321910Y-326910D03*
X-309200Y-329470D03*
X-325000Y-275000D03*
X-298960Y-277500D03*
X-325000Y-255000D03*
Y-245000D03*
Y-265000D03*
Y-227500D03*
Y-217500D03*
X-310000Y-227500D03*
Y-217500D03*
X-320000Y-207500D03*
Y-187500D03*
Y-197500D03*
X-315000Y-207500D03*
Y-187500D03*
Y-197500D03*
X-325000Y-207500D03*
Y-197500D03*
X-310000Y-207500D03*
Y-197500D03*
X-320000Y-177500D03*
X-315000D03*
X-301000Y-40000D03*
X-316000Y-10000D03*
X-311000Y-20000D03*
X-306000Y-30000D03*
X-326000Y10000D03*
X-321000Y0D03*
X-319060Y205800D03*
X-327500Y230000D03*
X-317500D03*
X-327500Y237500D03*
X-317500D03*
X-327500Y220000D03*
X-317500D03*
X-304300Y216290D03*
X-327500Y245000D03*
X-317500D03*
X-327500Y262500D03*
X-317500D03*
X-305000Y272500D03*
Y282500D03*
Y292500D03*
X-315000Y272500D03*
Y282500D03*
Y292500D03*
X-325000Y272500D03*
Y282500D03*
Y292500D03*
X-305000Y302500D03*
Y312500D03*
Y322500D03*
X-315000Y302500D03*
Y312500D03*
Y322500D03*
X-325000Y302500D03*
Y312500D03*
Y322500D03*
X-300000Y350000D03*
X-310000D03*
X-320000D03*
X-305000Y332500D03*
X-315000D03*
X-325000D03*
X-300000Y360000D03*
X-310000D03*
X-320000D03*
X-300000Y370000D03*
X-310000D03*
X-320000D03*
X-300000Y380000D03*
X-310000D03*
X-320000D03*
X-300000Y390000D03*
X-310000D03*
X-320000D03*
X-300000Y400000D03*
X-310000D03*
X-320000D03*
X-300000Y410000D03*
X-310000D03*
X-320000D03*
X-292500Y-442500D03*
X-282500D03*
X-272500D03*
X-277500Y-422500D03*
X-282500D03*
X-287500D03*
X-292500D03*
X-297500D03*
X-290000Y-447500D03*
X-280000D03*
X-270000D03*
X-297500Y-385690D03*
X-292500D03*
X-287500D03*
X-282500D03*
X-277500D03*
X-272500D03*
X-297500Y-362500D03*
X-286540Y-364640D03*
X-277500Y-335000D03*
Y-345000D03*
X-289650Y-345350D03*
X-287090Y-342910D03*
X-284530Y-340470D03*
X-281970Y-338030D03*
X-270000Y-320000D03*
X-296400Y-273750D03*
X-293840Y-277500D03*
X-291280Y-273750D03*
X-287320Y-154340D03*
X-268660Y-166660D03*
X-277990Y-160500D03*
X-296000Y-50000D03*
X-291000Y-60000D03*
X-280670Y115860D03*
X-281340Y104700D03*
X-282010Y93540D03*
X-278660Y149340D03*
X-279330Y138180D03*
X-280000Y127020D03*
X-277320Y171660D03*
X-277990Y160500D03*
X-280000Y272500D03*
Y282500D03*
Y292500D03*
X-270000Y272500D03*
Y282500D03*
Y292500D03*
X-280000Y302500D03*
Y312500D03*
Y322500D03*
X-270000Y302500D03*
Y312500D03*
Y322500D03*
X-280000Y350000D03*
X-270000D03*
X-290000D03*
X-280000Y332500D03*
X-270000D03*
X-280000Y360000D03*
X-270000D03*
X-290000D03*
X-280000Y370000D03*
X-270000D03*
X-290000D03*
X-280000Y380000D03*
X-270000D03*
X-290000D03*
X-280000Y390000D03*
X-270000D03*
X-290000D03*
X-280000Y400000D03*
X-270000D03*
X-290000D03*
X-280000Y410000D03*
X-270000D03*
X-290000D03*
X-262500Y-442500D03*
X-252500D03*
X-242500D03*
X-262500Y-422500D03*
X-267500D03*
X-242500Y-427500D03*
X-252500D03*
X-240000Y-447500D03*
X-260000D03*
X-250000D03*
X-242500Y-377500D03*
Y-385690D03*
X-267500D03*
X-262500D03*
X-257500D03*
X-252500D03*
X-247500D03*
X-242500Y-362500D03*
X-265650Y-353150D03*
X-247950Y-354550D03*
X-261380Y-332680D03*
X-264670Y-335240D03*
X-261380Y-337800D03*
X-242620Y-330120D03*
X-254940Y-327560D03*
X-264670Y-330120D03*
X-240670Y-185140D03*
X-259330Y-172820D03*
X-250000Y-178980D03*
X-260000Y272500D03*
Y282500D03*
Y292500D03*
Y302500D03*
Y312500D03*
Y322500D03*
Y350000D03*
Y332500D03*
Y360000D03*
Y370000D03*
Y380000D03*
X-242500Y365000D03*
Y375000D03*
Y385000D03*
X-260000Y390000D03*
Y400000D03*
Y410000D03*
X-242500Y395000D03*
Y405000D03*
Y415000D03*
Y425000D03*
X-212500Y-442500D03*
X-232500D03*
X-222500D03*
Y-427500D03*
X-232500D03*
X-212500D03*
X-230000Y-447500D03*
X-220000D03*
X-210000D03*
X-217500Y-397500D03*
Y-407500D03*
X-225000Y-397500D03*
Y-407500D03*
X-237500Y-412500D03*
X-217500Y-377500D03*
Y-387500D03*
X-225000Y-377500D03*
Y-387500D03*
X-214820Y-314200D03*
X-231340Y-191300D03*
X-222010Y-197460D03*
X-227500Y365000D03*
Y375000D03*
Y385000D03*
X-217500Y365000D03*
Y375000D03*
Y385000D03*
X-227500Y395000D03*
Y405000D03*
Y415000D03*
X-217500Y395000D03*
Y405000D03*
Y415000D03*
X-227500Y425000D03*
X-217500D03*
X-185000Y-440000D03*
X-192500Y-437500D03*
X-204650Y-427850D03*
X-195350Y-430410D03*
X-204650Y-432970D03*
X-195350Y-435530D03*
X-200000Y-447500D03*
X-190000D03*
X-180000D03*
X-184880Y-417620D03*
X-183940Y-404900D03*
X-196250Y-399400D03*
X-189900Y-412500D03*
X-195060Y-415060D03*
X-203750Y-399400D03*
X-207380Y-417620D03*
X-189240Y-365200D03*
X-188940Y-374400D03*
X-195100Y-365500D03*
Y-385500D03*
X-196250Y-379400D03*
X-193750Y-351460D03*
X-197500Y-348900D03*
X-193750Y-346340D03*
X-197500Y-343780D03*
Y-333540D03*
X-193750Y-336100D03*
X-197500Y-338660D03*
X-193750Y-341220D03*
X-207600Y-317450D03*
X-191300Y231340D03*
X-197460Y222010D03*
X-178980Y250000D03*
X-185140Y240670D03*
X-207500Y365000D03*
Y375000D03*
Y385000D03*
X-200000Y365000D03*
Y375000D03*
Y385000D03*
X-190000Y365000D03*
Y375000D03*
Y385000D03*
X-182500Y365000D03*
Y375000D03*
Y385000D03*
X-207500Y395000D03*
Y405000D03*
Y415000D03*
X-200000Y395000D03*
Y405000D03*
Y415000D03*
X-190000Y395000D03*
Y405000D03*
Y415000D03*
X-182500Y395000D03*
Y405000D03*
Y415000D03*
X-207500Y425000D03*
X-200000D03*
X-190000D03*
X-182500D03*
X-150000Y-447500D03*
X-170000D03*
X-160000D03*
X-176060Y-395100D03*
X-171700Y-412500D03*
X-176160Y-379300D03*
X-176460Y-360300D03*
X-171660Y-277320D03*
X-149340Y-278660D03*
X-160500Y-277990D03*
X-166660Y268660D03*
X-172820Y259330D03*
X-154340Y287320D03*
X-160500Y277990D03*
X-174130Y335000D03*
X-155100Y336500D03*
X-172500Y365000D03*
Y375000D03*
Y385000D03*
Y395000D03*
Y405000D03*
Y415000D03*
Y425000D03*
X-139240Y-423660D03*
X-142200Y-421100D03*
Y-426220D03*
X-140000Y-447500D03*
X-130000D03*
X-120000D03*
X-140000Y-392500D03*
Y-402500D03*
X-139240Y-418540D03*
X-140000Y-372500D03*
Y-382500D03*
X-138180Y-279330D03*
X-127020Y-280000D03*
X-95000Y-440650D03*
X-90000Y-447500D03*
X-100000D03*
X-110000D03*
X-95700Y-412500D03*
X-90080Y-334140D03*
X-89490Y-329920D03*
X-115860Y-280670D03*
X-104700Y-281340D03*
X-93540Y-282010D03*
X-60000Y-447500D03*
X-70000D03*
X-80000D03*
X-74900Y-412600D03*
X-86720Y-417620D03*
X-85660Y-333350D03*
X-30000Y-426160D03*
Y-431280D03*
Y-436400D03*
Y-421040D03*
Y-447500D03*
X-40000D03*
X-50000D03*
X-33700Y-366600D03*
X-42500Y365000D03*
Y375000D03*
Y385000D03*
Y395000D03*
Y405000D03*
Y415000D03*
Y425000D03*
X-5000Y-430000D03*
Y-422500D03*
X-26250Y-423600D03*
Y-428720D03*
Y-433840D03*
Y-438960D03*
X0Y-447500D03*
X-10000D03*
X-20000D03*
X-5000Y-405000D03*
X-15000Y-395000D03*
X-5000D03*
X-11400Y-370300D03*
X-5000Y-377500D03*
Y-370000D03*
Y-362500D03*
X-15000Y-390000D03*
X-5000D03*
X-15000Y-385000D03*
X-5000D03*
X-10000Y-326000D03*
X0Y-321000D03*
X-25000Y365000D03*
Y375000D03*
Y385000D03*
X-7500Y365000D03*
Y375000D03*
Y385000D03*
X-25000Y395000D03*
Y405000D03*
Y415000D03*
X-7500Y395000D03*
Y405000D03*
Y415000D03*
X-25000Y425000D03*
X-7500D03*
X5000Y-430000D03*
X25000D03*
X15000D03*
X5000Y-422500D03*
X25000D03*
X15000D03*
Y-440000D03*
X25000D03*
X30000Y-447500D03*
X20000D03*
X10000D03*
X5000Y-405000D03*
X25000D03*
X15000D03*
Y-395000D03*
X5000D03*
X25000D03*
X5000Y-377500D03*
X25000D03*
X15000D03*
X5000Y-370000D03*
X25000D03*
X15000D03*
X5000Y-362500D03*
X25000D03*
X15000D03*
Y-390000D03*
X5000D03*
X25000D03*
X15000Y-385000D03*
X5000D03*
X25000D03*
X10000Y-316000D03*
X20000Y-311000D03*
X30000Y-306000D03*
X15900Y377600D03*
X5000Y367500D03*
Y377500D03*
Y387500D03*
Y397500D03*
Y407500D03*
Y417500D03*
Y427500D03*
X35000Y-430000D03*
X55000D03*
X45000D03*
X35000Y-422500D03*
X55000D03*
X45000D03*
X57500Y-440000D03*
X35000D03*
X45000D03*
X60000Y-447500D03*
X50000D03*
X40000D03*
X35000Y-405000D03*
X55000D03*
X45000D03*
X52500Y-395000D03*
X45000D03*
X35000D03*
Y-377500D03*
X55000D03*
X45000D03*
X35000Y-370000D03*
X55000D03*
X45000D03*
X35000Y-362500D03*
X55000D03*
X45000D03*
Y-390000D03*
X35000D03*
X45000Y-385000D03*
X35000D03*
X40000Y-301000D03*
X50000Y-296000D03*
X60000Y-291000D03*
X33200Y370000D03*
X67500Y-430000D03*
X77500D03*
X87500D03*
X67500Y-422500D03*
X77500D03*
X87500D03*
X77500Y-440000D03*
X87500D03*
X67500D03*
X90000Y-447500D03*
X80000D03*
X70000D03*
X67500Y-405000D03*
X77500D03*
X87500D03*
X62500Y-395000D03*
X82500D03*
X72500D03*
X97500Y-430000D03*
X107500D03*
X117500D03*
X97500Y-422500D03*
X107500D03*
X117500D03*
Y-440000D03*
X97500D03*
X107500D03*
X120000Y-447500D03*
X110000D03*
X100000D03*
X97500Y-405000D03*
X107500D03*
X117500D03*
X92500Y-395000D03*
X112500D03*
X102500D03*
X118790Y-386210D03*
X127500Y-430000D03*
Y-422500D03*
X141290Y-431210D03*
X148360Y-424140D03*
X127500Y-440000D03*
X150000Y-447500D03*
X140000D03*
X130000D03*
X127500Y-405000D03*
X132930Y-372070D03*
X140000Y-365000D03*
X125860Y-379140D03*
X140430Y-372070D03*
X147500Y-365000D03*
X126290Y-386210D03*
X133360Y-379140D03*
X149990Y-340200D03*
X140000Y360000D03*
X130000D03*
X150000D03*
X140000Y370000D03*
X130000D03*
X150000D03*
Y380000D03*
X140000D03*
X150000Y390000D03*
X140000D03*
X150000Y400000D03*
X140000D03*
X156290Y-433710D03*
X163360Y-426640D03*
X180000Y-447500D03*
X170000D03*
X160000D03*
X167500Y-395000D03*
X177500D03*
X155430Y-417070D03*
X162500Y-410000D03*
X170430Y-419570D03*
X177500Y-412500D03*
X167500Y-385000D03*
Y-365000D03*
Y-375000D03*
X177500Y-385000D03*
Y-365000D03*
Y-375000D03*
X176290Y-337200D03*
X161000Y-345500D03*
X154340Y-287320D03*
X160500Y-277990D03*
X166660Y-268660D03*
X172820Y-259330D03*
X178980Y-250000D03*
X155000Y340000D03*
X165000D03*
X175000D03*
X155000Y332500D03*
X165000D03*
X175000D03*
X170000Y360000D03*
X160000D03*
X180000D03*
X170000Y370000D03*
X160000D03*
X180000D03*
Y380000D03*
X170000D03*
X160000D03*
X180000Y390000D03*
X170000D03*
X160000D03*
X180000Y400000D03*
X170000D03*
X160000D03*
X210000Y-440000D03*
Y-430000D03*
X190000D03*
X210000Y-447500D03*
X200000D03*
X190000D03*
Y-420000D03*
Y-400000D03*
Y-410000D03*
X205000Y-400000D03*
X209700Y-366500D03*
X190000Y-390000D03*
Y-370000D03*
Y-380000D03*
X205000Y-390000D03*
Y-370000D03*
Y-380000D03*
X185140Y-240670D03*
X191300Y-231340D03*
X197460Y-222010D03*
X202300Y319700D03*
X185000Y340000D03*
X195000D03*
X205000D03*
X185000Y332500D03*
X195000D03*
X205000D03*
X190000Y360000D03*
X200000D03*
X210000D03*
X190000Y370000D03*
X200000D03*
X210000D03*
X200000Y380000D03*
X210000D03*
X190000D03*
X200000Y390000D03*
X210000D03*
X190000D03*
X200000Y400000D03*
X210000D03*
X190000D03*
X220000Y-440000D03*
X240000D03*
X230000D03*
Y-430000D03*
X240000D03*
X220000D03*
X240000Y-447500D03*
X230000D03*
X220000D03*
X214100Y-379900D03*
X234800Y-362100D03*
Y-364600D03*
X237300Y-362100D03*
Y-364600D03*
X239800Y-362100D03*
Y-364600D03*
X212900Y-352900D03*
X234800Y-352100D03*
Y-354600D03*
Y-357100D03*
Y-359600D03*
X237300Y-352100D03*
Y-354600D03*
Y-357100D03*
Y-359600D03*
X239800Y-352100D03*
Y-354600D03*
Y-357100D03*
Y-359600D03*
X235430Y-309570D03*
X242500Y-302500D03*
X221290Y-323710D03*
X228360Y-316640D03*
X240670Y185140D03*
X231340Y191300D03*
X222010Y197460D03*
X218300Y310800D03*
X215000Y340000D03*
Y332500D03*
X240000Y370000D03*
Y380000D03*
Y360000D03*
X220000Y380000D03*
X240000Y410000D03*
Y400000D03*
Y390000D03*
X220000D03*
Y400000D03*
X240000Y440000D03*
Y430000D03*
Y420000D03*
X250000Y-440000D03*
X270000D03*
X260000D03*
Y-430000D03*
X270000D03*
X250000D03*
X270000Y-447500D03*
X260000D03*
X250000D03*
X252900Y-383600D03*
X255400D03*
X257900D03*
X260400D03*
X262900D03*
X265400D03*
X252900Y-381100D03*
X255400D03*
X257900D03*
X260400D03*
X262900D03*
X265400D03*
X252900Y-378600D03*
X255400D03*
X257900D03*
X260400D03*
X262900D03*
X265400D03*
X260700Y-347900D03*
X254940Y-306900D03*
X259600Y-321300D03*
Y-330800D03*
X259800Y-296600D03*
X268660Y166660D03*
X259330Y172820D03*
X250000Y178980D03*
X267930Y265430D03*
X253790Y251290D03*
X260860Y258360D03*
X265000Y320000D03*
X245000D03*
X255000D03*
X265000Y310000D03*
X245000D03*
X255000D03*
X265000Y340000D03*
X245000D03*
X255000D03*
X265000Y330000D03*
X245000D03*
X255000D03*
X270000Y370000D03*
X260000D03*
X250000D03*
Y380000D03*
X260000D03*
X270000D03*
X250000Y360000D03*
X260000D03*
X270000D03*
X250000Y410000D03*
X260000D03*
X270000D03*
X250000Y400000D03*
X260000D03*
X270000D03*
X250000Y390000D03*
X260000D03*
X270000D03*
Y440000D03*
X260000D03*
X250000D03*
X270000Y430000D03*
X260000D03*
X250000D03*
Y420000D03*
X260000D03*
X270000D03*
X280000Y-440000D03*
X300000D03*
X290000D03*
Y-430000D03*
X300000D03*
X280000D03*
X300000Y-447500D03*
X290000D03*
X280000D03*
X297500Y-400000D03*
X295000D03*
X292500D03*
X290000D03*
X287500D03*
X285000D03*
X297500Y-402500D03*
X295000D03*
X292500D03*
X290000D03*
X287500D03*
X285000D03*
X297500Y-405000D03*
X295000D03*
X292500D03*
X290000D03*
X287500D03*
X285000D03*
X280000Y-380000D03*
X300000D03*
X290000D03*
X280000Y-390000D03*
X300000D03*
X290000D03*
X290100Y-363200D03*
Y-365700D03*
Y-368200D03*
Y-370700D03*
X292600Y-363200D03*
Y-365700D03*
Y-368200D03*
Y-370700D03*
X295100Y-363200D03*
Y-365700D03*
Y-368200D03*
Y-370700D03*
X297800Y-331700D03*
X300300D03*
X290100Y-360700D03*
X292600D03*
X295100D03*
Y-358200D03*
X292600D03*
X290100D03*
X297800Y-305500D03*
X300300D03*
X297800Y-303000D03*
X300300D03*
X297800Y-313900D03*
X300300D03*
X297800Y-311400D03*
X300300D03*
X297800Y-308900D03*
X300300D03*
X297700Y-322800D03*
X300200D03*
X297700Y-320300D03*
X300200D03*
X297700Y-317800D03*
X300200D03*
X297800Y-329200D03*
X300300D03*
X297800Y-326700D03*
X300300D03*
X297800Y-300500D03*
X300300D03*
X300000Y-280000D03*
Y-270000D03*
X301390Y-211300D03*
X277320Y-171660D03*
X277990Y-160500D03*
X278660Y-149340D03*
X279330Y-138180D03*
X280000Y-127020D03*
X280670Y-115860D03*
X281340Y-104700D03*
X282010Y-93540D03*
X301000Y40000D03*
X296000Y50000D03*
X291000Y60000D03*
X287320Y154340D03*
X277990Y160500D03*
X292500Y235000D03*
Y242500D03*
X300000Y262500D03*
Y282500D03*
Y272500D03*
X275000D03*
X292100Y273600D03*
X300000Y320000D03*
Y310000D03*
X275000Y320000D03*
Y310000D03*
X292100Y315500D03*
X300000Y340000D03*
Y330000D03*
X275000Y340000D03*
Y330000D03*
X300000Y370000D03*
X290000D03*
X280000D03*
Y380000D03*
X290000D03*
X300000D03*
X280000Y360000D03*
X290000D03*
X300000D03*
X280000Y410000D03*
X290000D03*
X300000D03*
X280000Y400000D03*
X290000D03*
X300000D03*
X280000Y390000D03*
X290000D03*
X300000D03*
Y440000D03*
X290000D03*
X280000D03*
X300000Y430000D03*
X290000D03*
X280000D03*
Y420000D03*
X290000D03*
X300000D03*
X310000Y-440000D03*
X330000D03*
X320000D03*
X330000Y-447500D03*
X320000D03*
X310000D03*
Y-380000D03*
X330000D03*
X320000D03*
X310000Y-390000D03*
X330000D03*
X320000D03*
X302800Y-331700D03*
X305300D03*
X307800D03*
X310300D03*
X302800Y-305500D03*
X305300D03*
X307800D03*
X310300D03*
X302800Y-303000D03*
X305300D03*
X307800D03*
X310300D03*
X302800Y-313900D03*
X305300D03*
X307800D03*
X310300D03*
X302800Y-311400D03*
X305300D03*
X307800D03*
X310300D03*
X302800Y-308900D03*
X305300D03*
X307800D03*
X310300D03*
X302700Y-322800D03*
X305200D03*
X307700D03*
X310200D03*
X302700Y-320300D03*
X305200D03*
X307700D03*
X310200D03*
X302700Y-317800D03*
X305200D03*
X307700D03*
X310200D03*
X302800Y-329200D03*
X305300D03*
X307800D03*
X310300D03*
X302800Y-326700D03*
X305300D03*
X307800D03*
X310300D03*
X302800Y-300500D03*
X305300D03*
X307800D03*
X310300D03*
X310000Y-280000D03*
X330000D03*
X320000D03*
X310000Y-270000D03*
X330000D03*
X320000D03*
X310000Y-242500D03*
X320000D03*
X330000D03*
X310000Y-235000D03*
X320000D03*
X330000D03*
X309940Y-223180D03*
X320800Y-208170D03*
X326290Y-201210D03*
X331290Y-188710D03*
X326000Y-10000D03*
X316000Y10000D03*
X311000Y20000D03*
X321000Y0D03*
X306000Y30000D03*
X302500Y235000D03*
X322500D03*
X312500D03*
X302500Y242500D03*
X322500D03*
X312500D03*
X310000Y262500D03*
X330000D03*
X320000D03*
X310000Y282500D03*
X330000D03*
X320000D03*
X310000Y272500D03*
X330000D03*
X320000D03*
X310000Y320000D03*
X330000D03*
X320000D03*
X310000Y310000D03*
X330000D03*
X320000D03*
X310000Y340000D03*
X330000D03*
X320000D03*
X310000Y330000D03*
X330000D03*
X320000D03*
X330000Y370000D03*
X320000D03*
X310000D03*
Y380000D03*
X320000D03*
X330000D03*
X310000Y360000D03*
X320000D03*
X330000D03*
X310000Y410000D03*
X320000D03*
X330000D03*
X310000Y400000D03*
X320000D03*
X330000D03*
X310000Y390000D03*
X320000D03*
X330000D03*
Y440000D03*
X320000D03*
X310000D03*
X330000Y430000D03*
X320000D03*
X310000D03*
Y420000D03*
X320000D03*
X330000D03*
X360000Y-447500D03*
X350000D03*
X340000D03*
Y-380000D03*
X360000D03*
X350000D03*
X340000Y-390000D03*
X360000D03*
X350000D03*
X340000Y-280000D03*
X360000D03*
X350000D03*
X340000Y-270000D03*
X360000D03*
X350000D03*
X340000Y-242500D03*
X350000D03*
X360000D03*
X340000Y-235000D03*
X350000D03*
X360000D03*
X340430Y-187070D03*
X347500Y-180000D03*
X333360Y-194140D03*
X338360Y-181640D03*
X345430Y-174570D03*
X352500Y-167500D03*
X345000Y80000D03*
X355000Y85000D03*
X345000Y90000D03*
Y110000D03*
Y100000D03*
X355000Y95000D03*
Y115000D03*
Y105000D03*
X339160Y172600D03*
X360000Y162500D03*
Y172500D03*
X352500Y162500D03*
Y172500D03*
X334200Y153600D03*
X360000Y192500D03*
Y182500D03*
Y202500D03*
X352500Y192500D03*
Y182500D03*
Y202500D03*
X360000Y222500D03*
Y212500D03*
X352500Y222500D03*
Y212500D03*
X332500Y235000D03*
X352500D03*
X342500D03*
X332500Y242500D03*
X352500D03*
X342500D03*
X340000Y262500D03*
X360000D03*
X350000D03*
X340000Y282500D03*
X360000D03*
X350000D03*
X340000Y272500D03*
X360000D03*
X350000D03*
X340000Y320000D03*
X360000D03*
X350000D03*
X340000Y310000D03*
X360000D03*
X350000D03*
X340000Y340000D03*
X360000D03*
X350000D03*
X340000Y330000D03*
X360000D03*
X350000D03*
X360000Y370000D03*
X350000D03*
X340000D03*
Y380000D03*
X350000D03*
X360000D03*
X340000Y360000D03*
X350000D03*
X360000D03*
X340000Y410000D03*
X350000D03*
X360000D03*
X340000Y400000D03*
X350000D03*
X360000D03*
X340000Y390000D03*
X350000D03*
X360000D03*
Y440000D03*
X350000D03*
X340000D03*
X360000Y430000D03*
X350000D03*
X340000D03*
Y420000D03*
X350000D03*
X360000D03*
X390000Y-447500D03*
X380000D03*
X370000D03*
Y-380000D03*
Y-390000D03*
Y-242500D03*
X380000Y-212500D03*
X370000Y-235000D03*
X380000Y-202500D03*
Y-182500D03*
Y-192500D03*
X367500Y-207500D03*
Y-197500D03*
Y-187500D03*
X380000Y-172500D03*
Y-152500D03*
Y-162500D03*
X367500Y-177500D03*
Y-167500D03*
Y-157500D03*
X380000Y-142500D03*
Y-132500D03*
Y-122500D03*
X367500Y-140000D03*
Y-130000D03*
Y-147500D03*
X380000Y-112500D03*
Y-102500D03*
Y-92500D03*
X367500Y-110000D03*
Y-120000D03*
Y-100000D03*
X380000Y-82500D03*
X367500Y-80000D03*
Y-90000D03*
X368800Y-32100D03*
X365980Y-39730D03*
X376500Y-15500D03*
X377500Y10000D03*
Y20000D03*
X365000Y12500D03*
Y2500D03*
Y22500D03*
X377500Y40000D03*
Y30000D03*
Y50000D03*
X365000Y52500D03*
Y42500D03*
Y32500D03*
X377500Y70000D03*
Y60000D03*
X365000Y72500D03*
Y62500D03*
X377500Y150000D03*
Y160000D03*
Y170000D03*
Y180000D03*
Y190000D03*
Y200000D03*
Y210000D03*
X382500Y237500D03*
X375000Y252500D03*
Y242500D03*
Y262500D03*
X382500Y247500D03*
Y267500D03*
Y257500D03*
X375000Y272500D03*
X370000Y320000D03*
X380000D03*
X370000Y310000D03*
X380000D03*
X370000Y340000D03*
X380000D03*
X370000Y330000D03*
X380000D03*
X390000Y370000D03*
X380000D03*
X370000D03*
X390000Y440000D03*
X380000D03*
X370000D03*
X390000Y430000D03*
X380000D03*
X370000D03*
X410000Y-447500D03*
X400000D03*
X420000D03*
X392300Y-320000D03*
X394800D03*
X397300D03*
X399800D03*
X402300D03*
X404800D03*
X392300Y-317500D03*
X394800D03*
X397300D03*
X399800D03*
X402300D03*
X404800D03*
X392300Y-315000D03*
X394800D03*
X397300D03*
X399800D03*
X402300D03*
X404800D03*
X420000Y-250000D03*
X410000D03*
X420000Y-260000D03*
X410000D03*
X420000Y-270000D03*
X410000D03*
X420000Y-220000D03*
X410000D03*
X420000Y-230000D03*
X410000D03*
X420000Y-240000D03*
X410000D03*
X420000Y-190000D03*
X410000D03*
X420000Y-200000D03*
X410000D03*
X420000Y-210000D03*
X410000D03*
X420000Y-170000D03*
X410000D03*
X420000Y-160000D03*
X410000D03*
X420000Y-180000D03*
X410000D03*
X420000Y-130000D03*
X410000D03*
X420000Y-140000D03*
X410000D03*
X420000Y-150000D03*
X410000D03*
X420000Y-100000D03*
X410000D03*
X420000Y-110000D03*
X410000D03*
X420000Y-120000D03*
X410000D03*
X420000Y-70000D03*
X410000D03*
X420000Y-80000D03*
X410000D03*
X420000Y-90000D03*
X410000D03*
Y-40000D03*
X420000D03*
Y-50000D03*
X410000D03*
X420000Y-60000D03*
X410000D03*
Y-30000D03*
X420000D03*
X410000Y-20000D03*
X420000D03*
X410000Y-10000D03*
X420000D03*
X410000Y0D03*
X420000D03*
X410000Y10000D03*
X420000D03*
X410000Y20000D03*
X420000D03*
X410000Y30000D03*
X420000D03*
X410000Y40000D03*
X420000D03*
X410000Y50000D03*
X420000D03*
X410000Y70000D03*
X420000D03*
X410000Y60000D03*
X420000D03*
X410000Y80000D03*
X420000D03*
X410000Y90000D03*
X420000D03*
X410000Y100000D03*
X420000D03*
X410000Y110000D03*
X420000D03*
X410000Y120000D03*
X420000D03*
X410000Y130000D03*
X420000D03*
X410000Y140000D03*
X420000D03*
X410000Y150000D03*
X420000D03*
X410000Y160000D03*
X420000D03*
X410000Y170000D03*
X420000D03*
X410000Y180000D03*
X420000D03*
X410000Y190000D03*
X420000D03*
X410000Y200000D03*
X420000D03*
X410000Y210000D03*
X420000D03*
X410000Y220000D03*
X420000D03*
X410000Y230000D03*
X420000D03*
X397500D03*
X410000Y240000D03*
X420000D03*
X410000Y250000D03*
X420000D03*
X410000Y260000D03*
X420000D03*
X397500Y240000D03*
Y260000D03*
Y250000D03*
X410000Y270000D03*
X420000D03*
X410000Y280000D03*
X420000D03*
Y290000D03*
X410000D03*
Y310000D03*
X420000D03*
X410000Y300000D03*
X420000D03*
X410000Y320000D03*
X420000D03*
X410000Y340000D03*
X420000D03*
X410000Y330000D03*
X420000D03*
X410000Y350000D03*
X420000D03*
X410000Y360000D03*
X420000D03*
X410000Y370000D03*
X400000D03*
X402500Y420000D03*
X410000Y440000D03*
X400000D03*
X410000Y430000D03*
X400000D03*
X422500Y-447500D03*
X435000Y-410000D03*
Y-420000D03*
Y-400000D03*
Y-390000D03*
Y-380000D03*
Y-370000D03*
Y-350000D03*
Y-360000D03*
Y-340000D03*
Y-330000D03*
Y-320000D03*
Y-310000D03*
Y-290000D03*
Y-300000D03*
Y-280000D03*
Y-270000D03*
Y-260000D03*
Y-250000D03*
Y-230000D03*
Y-240000D03*
Y-220000D03*
Y-210000D03*
Y-200000D03*
Y-190000D03*
Y-170000D03*
Y-180000D03*
Y-160000D03*
Y-150000D03*
Y-140000D03*
Y-130000D03*
Y-110000D03*
Y-120000D03*
Y-100000D03*
Y-90000D03*
Y-80000D03*
Y-70000D03*
Y-50000D03*
Y-60000D03*
Y-40000D03*
Y-30000D03*
Y-20000D03*
Y-10000D03*
Y10000D03*
Y0D03*
Y20000D03*
Y30000D03*
Y40000D03*
Y50000D03*
Y70000D03*
Y60000D03*
Y80000D03*
Y90000D03*
Y100000D03*
Y110000D03*
Y130000D03*
Y120000D03*
Y140000D03*
Y150000D03*
Y160000D03*
Y170000D03*
Y190000D03*
Y180000D03*
Y200000D03*
Y210000D03*
Y220000D03*
Y230000D03*
Y250000D03*
Y240000D03*
Y260000D03*
Y270000D03*
Y280000D03*
Y290000D03*
Y310000D03*
Y300000D03*
Y320000D03*
Y330000D03*
Y340000D03*
Y350000D03*
Y370000D03*
Y360000D03*
Y380000D03*
Y390000D03*
Y400000D03*
Y410000D03*
Y420000D03*
Y430000D03*
G54D12*
X-328190Y-143290D03*
X-333190Y-134630D03*
X-338190Y-125970D03*
X-325860Y-107310D03*
X-343190Y-117310D03*
X-335860Y-70000D03*
X-355860D03*
X-335860Y-60000D03*
Y-50000D03*
Y-40000D03*
X-355860Y-60000D03*
Y-50000D03*
Y-40000D03*
X-335860Y-30000D03*
Y-20000D03*
Y-10000D03*
X-355860Y-30000D03*
Y-20000D03*
Y-10000D03*
X-335860Y0D03*
Y10000D03*
Y20000D03*
X-355860Y0D03*
Y10000D03*
Y20000D03*
X-335860Y30000D03*
Y40000D03*
Y50000D03*
X-355860Y30000D03*
Y40000D03*
Y50000D03*
X-335860Y60000D03*
Y70000D03*
X-355860Y60000D03*
Y70000D03*
X-343190Y117310D03*
X-325860Y107310D03*
X-338190Y125970D03*
X-333190Y134630D03*
X-328190Y143290D03*
X-298190Y-195250D03*
X-303190Y-186590D03*
X-295860Y-159270D03*
X-300860Y-150610D03*
X-308190Y-177930D03*
X-313190Y-169270D03*
X-318190Y-160610D03*
X-323190Y-151950D03*
X-305860Y-141950D03*
X-310860Y-133290D03*
X-315860Y-124630D03*
X-320860Y-115970D03*
Y115970D03*
X-315860Y124630D03*
X-310860Y133290D03*
X-305860Y141950D03*
X-300860Y150610D03*
X-323190Y151950D03*
X-318190Y160610D03*
X-313190Y169270D03*
X-308190Y177930D03*
X-295860Y159270D03*
X-303190Y186590D03*
X-298190Y195250D03*
X-265860Y-211230D03*
X-273190Y-238550D03*
X-278190Y-229890D03*
X-283190Y-221230D03*
X-288190Y-212570D03*
X-270860Y-202570D03*
X-275860Y-193910D03*
X-280860Y-185250D03*
X-293190Y-203910D03*
X-285860Y-176590D03*
X-290860Y-167930D03*
Y167930D03*
X-285860Y176590D03*
X-293190Y203910D03*
X-280860Y185250D03*
X-275860Y193910D03*
X-270860Y202570D03*
X-288190Y212570D03*
X-283190Y221230D03*
X-278190Y229890D03*
X-273190Y238550D03*
X-265860Y211230D03*
X-238550Y-273190D03*
X-255860Y-228550D03*
X-260860Y-219890D03*
Y219890D03*
X-255860Y228550D03*
X-238550Y273190D03*
X-212570Y-288190D03*
X-221230Y-283190D03*
X-229890Y-278190D03*
X-211230Y-265860D03*
X-219890Y-260860D03*
X-228550Y-255860D03*
Y255860D03*
X-219890Y260860D03*
X-211230Y265860D03*
X-229890Y278190D03*
X-221230Y283190D03*
X-212570Y288190D03*
X-177930Y-308190D03*
X-186590Y-303190D03*
X-176590Y-285860D03*
X-185250Y-280860D03*
X-193910Y-275860D03*
X-202570Y-270860D03*
X-195250Y-298190D03*
X-203910Y-293190D03*
X-202570Y270860D03*
X-193910Y275860D03*
X-185250Y280860D03*
X-176590Y285860D03*
X-203910Y293190D03*
X-195250Y298190D03*
X-186590Y303190D03*
X-177930Y308190D03*
X-150610Y-300860D03*
X-151950Y-323190D03*
X-160610Y-318190D03*
X-169270Y-313190D03*
X-159270Y-295860D03*
X-167930Y-290860D03*
Y290860D03*
X-159270Y295860D03*
X-150610Y300860D03*
X-169270Y313190D03*
X-160610Y318190D03*
X-151950Y323190D03*
X-117310Y-343190D03*
X-125970Y-338190D03*
X-134630Y-333190D03*
X-115970Y-320860D03*
X-124630Y-315860D03*
X-133290Y-310860D03*
X-141950Y-305860D03*
X-143290Y-328190D03*
X-141950Y305860D03*
X-133290Y310860D03*
X-124630Y315860D03*
X-115970Y320860D03*
X-143290Y328190D03*
X-134630Y333190D03*
X-125970Y338190D03*
X-117310Y343190D03*
X-107310Y-325860D03*
Y325860D03*
X-60000Y-335860D03*
X-70000D03*
X-60000Y-355860D03*
X-70000D03*
Y355860D03*
X-60000D03*
X-70000Y335860D03*
X-60000D03*
X-30000Y-335860D03*
X-40000D03*
X-50000D03*
X-30000Y-355860D03*
X-40000D03*
X-50000D03*
Y355860D03*
X-40000D03*
X-30000D03*
X-50000Y335860D03*
X-40000D03*
X-30000D03*
X0Y-335860D03*
X-10000D03*
X-20000D03*
X0Y-355860D03*
X-10000D03*
X-20000D03*
Y355860D03*
X-10000D03*
X0D03*
X-20000Y335860D03*
X-10000D03*
X0D03*
X30000Y-335860D03*
X20000D03*
X10000D03*
X30000Y-355860D03*
X20000D03*
X10000D03*
Y355860D03*
X20000D03*
X30000D03*
X10000Y335860D03*
X20000D03*
X30000D03*
X60000Y-335860D03*
X50000D03*
X40000D03*
X60000Y-355860D03*
X50000D03*
X40000D03*
Y355860D03*
X50000D03*
X60000D03*
X40000Y335860D03*
X50000D03*
X60000D03*
X70000Y-335860D03*
Y-355860D03*
Y355860D03*
Y335860D03*
X117310Y-343190D03*
X115970Y-320860D03*
X107310Y-325860D03*
Y325860D03*
X115970Y320860D03*
X117310Y343190D03*
X134630Y-333190D03*
X125970Y-338190D03*
X150610Y-300860D03*
X141950Y-305860D03*
X133290Y-310860D03*
X124630Y-315860D03*
X151950Y-323190D03*
X143290Y-328190D03*
X150610Y300860D03*
X124630Y315860D03*
X133290Y310860D03*
X141950Y305860D03*
X143290Y328190D03*
X151950Y323190D03*
X125970Y338190D03*
X134630Y333190D03*
X177930Y-308190D03*
X169270Y-313190D03*
X160610Y-318190D03*
X176590Y-285860D03*
X167930Y-290860D03*
X159270Y-295860D03*
Y295860D03*
X167930Y290860D03*
X176590Y285860D03*
X160610Y318190D03*
X169270Y313190D03*
X177930Y308190D03*
X186590Y-303190D03*
X202570Y-270860D03*
X193910Y-275860D03*
X185250Y-280860D03*
X212570Y-288190D03*
X203910Y-293190D03*
X195250Y-298190D03*
X211230Y-265860D03*
X202570Y270860D03*
X211230Y265860D03*
X185250Y280860D03*
X193910Y275860D03*
X195250Y298190D03*
X203910Y293190D03*
X212570Y288190D03*
X186590Y303190D03*
X238550Y-273190D03*
X229890Y-278190D03*
X221230Y-283190D03*
X228550Y-255860D03*
X219890Y-260860D03*
Y260860D03*
X228550Y255860D03*
X221230Y283190D03*
X229890Y278190D03*
X238550Y273190D03*
X265860Y-211230D03*
X260860Y-219890D03*
X255860Y-228550D03*
X273190Y-238550D03*
X270860Y-202570D03*
Y202570D03*
X255860Y228550D03*
X260860Y219890D03*
X265860Y211230D03*
X273190Y238550D03*
X288190Y-212570D03*
X283190Y-221230D03*
X278190Y-229890D03*
X280860Y-185250D03*
X275860Y-193910D03*
X303190Y-186590D03*
X298190Y-195250D03*
X293190Y-203910D03*
X300860Y-150610D03*
X295860Y-159270D03*
X290860Y-167930D03*
X285860Y-176590D03*
X300860Y150610D03*
X285860Y176590D03*
X290860Y167930D03*
X295860Y159270D03*
X275860Y193910D03*
X280860Y185250D03*
X293190Y203910D03*
X298190Y195250D03*
X303190Y186590D03*
X278190Y229890D03*
X283190Y221230D03*
X288190Y212570D03*
X323190Y-151950D03*
X318190Y-160610D03*
X313190Y-169270D03*
X308190Y-177930D03*
X315860Y-124630D03*
X310860Y-133290D03*
X305860Y-141950D03*
X333190Y-134630D03*
X328190Y-143290D03*
X325860Y-107310D03*
X320860Y-115970D03*
Y115970D03*
X325860Y107310D03*
X305860Y141950D03*
X310860Y133290D03*
X315860Y124630D03*
X328190Y143290D03*
X333190Y134630D03*
X308190Y177930D03*
X313190Y169270D03*
X318190Y160610D03*
X323190Y151950D03*
X338190Y-125970D03*
X343190Y-117310D03*
X335860Y-70000D03*
X355860D03*
X335860Y-40000D03*
Y-50000D03*
Y-60000D03*
X355860Y-40000D03*
Y-50000D03*
Y-60000D03*
X335860Y-10000D03*
Y-20000D03*
Y-30000D03*
X355860Y-10000D03*
Y-20000D03*
Y-30000D03*
X335860Y20000D03*
Y10000D03*
Y0D03*
X355860Y20000D03*
Y10000D03*
Y0D03*
X335860Y50000D03*
Y40000D03*
Y30000D03*
X355860Y50000D03*
Y40000D03*
Y30000D03*
X335860Y70000D03*
Y60000D03*
X355860Y70000D03*
Y60000D03*
X343190Y117310D03*
X338190Y125970D03*
G54D13*
X0Y0D03*
G54D14*
X260000Y-414310D03*
Y-390690D03*
G54D15*
X278500Y-402500D03*
G54D16*
G01X-343190Y-121020D02*
Y-117310D01*
G01D02*
Y-113600D01*
G01X-346900Y-117310D02*
X-343190D01*
G01D02*
X-339480D01*
G01X-335860Y66290D02*
Y70000D01*
G01D02*
Y73710D01*
G01X-339570Y70000D02*
X-335860D01*
G01D02*
X-332150D01*
G01X-355860Y66290D02*
Y70000D01*
G01D02*
Y73710D01*
G01X-359570Y70000D02*
X-355860D01*
G01D02*
X-352150D01*
G01X-325860Y-111020D02*
Y-107310D01*
G01D02*
Y-103600D01*
G01X-329570Y-107310D02*
X-325860D01*
G01D02*
X-322150D01*
G01X-273190Y234840D02*
Y238550D01*
G01D02*
Y242260D01*
G01X-276900Y238550D02*
X-273190D01*
G01D02*
X-269480D01*
G01X-242260Y-273190D02*
X-238550D01*
G01X-255860Y224840D02*
Y228550D01*
G01D02*
Y232260D01*
G01X-259570Y228550D02*
X-255860D01*
G01D02*
X-252150D01*
G01X-238550Y-276900D02*
Y-273190D01*
G01D02*
Y-269480D01*
G01Y-273190D02*
X-234840D01*
G01X-228550Y-259570D02*
Y-255860D01*
G01D02*
Y-252150D01*
G01X-232260Y-255860D02*
X-228550D01*
G01D02*
X-224840D01*
G01X-121020Y343190D02*
X-117310D01*
G01X-107310Y322150D02*
Y325860D01*
G01D02*
Y329570D01*
G01X-111020Y325860D02*
X-107310D01*
G01D02*
X-103600D01*
G01X-117310Y339480D02*
Y343190D01*
G01D02*
Y346900D01*
G01Y343190D02*
X-113600D01*
G01X-70000Y-359570D02*
Y-355860D01*
G01D02*
Y-352150D01*
G01X-73710Y-355860D02*
X-70000D01*
G01D02*
X-66290D01*
G01X-70000Y-339570D02*
Y-335860D01*
G01D02*
Y-332150D01*
G01X-73710Y-335860D02*
X-70000D01*
G01D02*
X-66290D01*
G01X70000Y332150D02*
Y335860D01*
G01D02*
Y339570D01*
G01X66290Y335860D02*
X70000D01*
G01D02*
X73710D01*
G01X70000Y352150D02*
Y355860D01*
G01D02*
Y359570D01*
G01X66290Y355860D02*
X70000D01*
G01D02*
X73710D01*
G01X117310Y-346900D02*
Y-343190D01*
G01D02*
Y-339480D01*
G01X113600Y-343190D02*
X117310D01*
G01D02*
X121020D01*
G01X107310Y-329570D02*
Y-325860D01*
G01D02*
Y-322150D01*
G01X103600Y-325860D02*
X107310D01*
G01D02*
X111020D01*
G01X228550Y252150D02*
Y255860D01*
G01D02*
Y259570D01*
G01X224840Y255860D02*
X228550D01*
G01D02*
X232260D01*
G01X238550Y269480D02*
Y273190D01*
G01D02*
Y276900D01*
G01X234840Y273190D02*
X238550D01*
G01D02*
X242260D01*
G01X260000Y-395340D02*
Y-390690D01*
G01D02*
Y-386040D01*
G01X249440Y-390690D02*
X260000D01*
G01D02*
X270560D01*
G01X269480Y-238550D02*
X273190D01*
G01X255860Y-232260D02*
Y-228550D01*
G01D02*
Y-224840D01*
G01X252150Y-228550D02*
X255860D01*
G01D02*
X259570D01*
G01X273190Y-242260D02*
Y-238550D01*
G01D02*
Y-234840D01*
G01Y-238550D02*
X276900D01*
G01X325860Y103600D02*
Y107310D01*
G01D02*
Y111020D01*
G01X322150Y107310D02*
X325860D01*
G01D02*
X329570D01*
G01X355860Y-73710D02*
Y-70000D01*
G01D02*
Y-66290D01*
G01X352150Y-70000D02*
X355860D01*
G01D02*
X359570D01*
G01X335860Y-73710D02*
Y-70000D01*
G01D02*
Y-66290D01*
G01X332150Y-70000D02*
X335860D01*
G01D02*
X339570D01*
G01X343190Y113600D02*
Y117310D01*
G01D02*
Y121020D01*
G01X339480Y117310D02*
X343190D01*
G01D02*
X346900D01*
G54D17*
G01X-460000Y-480000D02*
G03I-15000J5000D01*
G01X-465000D02*
G03I-10000J5000D01*
G01X-495000Y-475000D02*
X-455000D01*
G01X-485000Y500000D02*
Y460000D01*
G01X-470000Y475000D02*
G03I-15000J5000D01*
G01X-475000D02*
G03I-10000J5000D01*
G01X-505000Y480000D02*
X-465000D01*
G01X-475000Y-455000D02*
Y-495000D01*
G01X-450000Y-450000D02*
X450000D01*
Y450000D01*
X-450000D01*
Y-450000D01*
G01X-376500Y-400000D02*
G03I-23500J0D01*
G01Y399930D02*
G03I-23500J2D01*
G01X275000Y0D02*
G03I-275000J0D01*
G01X-78660Y292500D02*
X-153660Y422400D01*
G01X-136340Y432400D02*
G03X-153660Y422400I-8662J-4997D01*
G01X-136340Y432400D02*
X-61340Y302500D01*
G01D02*
G02X-78660Y292500I-8660J-5000D01*
G01X0Y-9000D02*
Y9000D01*
G01Y-9000D02*
Y9000D01*
G01X-9000Y0D02*
X9000D01*
G01X-9000D02*
X9000D01*
G01X76160Y292500D02*
G02X58840Y302500I-8660J5000D01*
G01D02*
X133840Y432400D01*
G01X151160Y422400D02*
X76160Y292500D01*
G01X151160Y422400D02*
G03X133840Y432400I-8658J5003D01*
G01X423500Y-400000D02*
G03I-23500J0D01*
G01Y399930D02*
G03I-23500J2D01*
G01X480000Y-450000D02*
Y-490000D01*
G01X495000Y-475000D02*
G03I-15000J5000D01*
G01X460000Y-470000D02*
X500000D01*
G01X490000Y-475000D02*
G03I-10000J5000D01*
G01Y455000D02*
G03I-15000J5000D01*
G01X475000Y480000D02*
Y440000D01*
G01X485000Y455000D02*
G03I-10000J5000D01*
G01X455000Y460000D02*
X495000D01*
M02*
