%TF.GenerationSoftware,KiCad,Pcbnew,(6.0.11)*%
%TF.CreationDate,2023-02-05T17:58:31-05:00*%
%TF.ProjectId,arena_06-08,6172656e-615f-4303-962d-30382e6b6963,rev?*%
%TF.SameCoordinates,Original*%
%TF.FileFunction,Legend,Top*%
%TF.FilePolarity,Positive*%
%FSLAX46Y46*%
G04 Gerber Fmt 4.6, Leading zero omitted, Abs format (unit mm)*
G04 Created by KiCad (PCBNEW (6.0.11)) date 2023-02-05 17:58:31*
%MOMM*%
%LPD*%
G01*
G04 APERTURE LIST*
%ADD10C,0.150000*%
%ADD11C,0.120000*%
G04 APERTURE END LIST*
D10*
X69540357Y-49577857D02*
X69254642Y-49435000D01*
X69111785Y-49292142D01*
X68968928Y-49006428D01*
X68968928Y-48863571D01*
X69111785Y-48577857D01*
X69254642Y-48435000D01*
X69540357Y-48292142D01*
X70111785Y-48292142D01*
X70397500Y-48435000D01*
X70540357Y-48577857D01*
X70683214Y-48863571D01*
X70683214Y-49006428D01*
X70540357Y-49292142D01*
X70397500Y-49435000D01*
X70111785Y-49577857D01*
X69540357Y-49577857D01*
X69254642Y-49720714D01*
X69111785Y-49863571D01*
X68968928Y-50149285D01*
X68968928Y-50720714D01*
X69111785Y-51006428D01*
X69254642Y-51149285D01*
X69540357Y-51292142D01*
X70111785Y-51292142D01*
X70397500Y-51149285D01*
X70540357Y-51006428D01*
X70683214Y-50720714D01*
X70683214Y-50149285D01*
X70540357Y-49863571D01*
X70397500Y-49720714D01*
X70111785Y-49577857D01*
X71968928Y-50149285D02*
X74254642Y-50149285D01*
X76111785Y-49577857D02*
X75826071Y-49435000D01*
X75683214Y-49292142D01*
X75540357Y-49006428D01*
X75540357Y-48863571D01*
X75683214Y-48577857D01*
X75826071Y-48435000D01*
X76111785Y-48292142D01*
X76683214Y-48292142D01*
X76968928Y-48435000D01*
X77111785Y-48577857D01*
X77254642Y-48863571D01*
X77254642Y-49006428D01*
X77111785Y-49292142D01*
X76968928Y-49435000D01*
X76683214Y-49577857D01*
X76111785Y-49577857D01*
X75826071Y-49720714D01*
X75683214Y-49863571D01*
X75540357Y-50149285D01*
X75540357Y-50720714D01*
X75683214Y-51006428D01*
X75826071Y-51149285D01*
X76111785Y-51292142D01*
X76683214Y-51292142D01*
X76968928Y-51149285D01*
X77111785Y-51006428D01*
X77254642Y-50720714D01*
X77254642Y-50149285D01*
X77111785Y-49863571D01*
X76968928Y-49720714D01*
X76683214Y-49577857D01*
X82397500Y-48435000D02*
X82111785Y-48292142D01*
X81683214Y-48292142D01*
X81254642Y-48435000D01*
X80968928Y-48720714D01*
X80826071Y-49006428D01*
X80683214Y-49577857D01*
X80683214Y-50006428D01*
X80826071Y-50577857D01*
X80968928Y-50863571D01*
X81254642Y-51149285D01*
X81683214Y-51292142D01*
X81968928Y-51292142D01*
X82397500Y-51149285D01*
X82540357Y-51006428D01*
X82540357Y-50006428D01*
X81968928Y-50006428D01*
X85111785Y-49292142D02*
X85111785Y-51292142D01*
X84397500Y-48149285D02*
X83683214Y-50292142D01*
X85540357Y-50292142D01*
X86683214Y-51006428D02*
X86826071Y-51149285D01*
X86683214Y-51292142D01*
X86540357Y-51149285D01*
X86683214Y-51006428D01*
X86683214Y-51292142D01*
X89540357Y-48292142D02*
X88111785Y-48292142D01*
X87968928Y-49720714D01*
X88111785Y-49577857D01*
X88397500Y-49435000D01*
X89111785Y-49435000D01*
X89397500Y-49577857D01*
X89540357Y-49720714D01*
X89683214Y-50006428D01*
X89683214Y-50720714D01*
X89540357Y-51006428D01*
X89397500Y-51149285D01*
X89111785Y-51292142D01*
X88397500Y-51292142D01*
X88111785Y-51149285D01*
X87968928Y-51006428D01*
X68826071Y-54122142D02*
X69540357Y-56122142D01*
X70254642Y-54122142D01*
X71968928Y-53122142D02*
X72254642Y-53122142D01*
X72540357Y-53265000D01*
X72683214Y-53407857D01*
X72826071Y-53693571D01*
X72968928Y-54265000D01*
X72968928Y-54979285D01*
X72826071Y-55550714D01*
X72683214Y-55836428D01*
X72540357Y-55979285D01*
X72254642Y-56122142D01*
X71968928Y-56122142D01*
X71683214Y-55979285D01*
X71540357Y-55836428D01*
X71397500Y-55550714D01*
X71254642Y-54979285D01*
X71254642Y-54265000D01*
X71397500Y-53693571D01*
X71540357Y-53407857D01*
X71683214Y-53265000D01*
X71968928Y-53122142D01*
X74254642Y-55836428D02*
X74397500Y-55979285D01*
X74254642Y-56122142D01*
X74111785Y-55979285D01*
X74254642Y-55836428D01*
X74254642Y-56122142D01*
X77254642Y-56122142D02*
X75540357Y-56122142D01*
X76397500Y-56122142D02*
X76397500Y-53122142D01*
X76111785Y-53550714D01*
X75826071Y-53836428D01*
X75540357Y-53979285D01*
X80683214Y-53407857D02*
X80826071Y-53265000D01*
X81111785Y-53122142D01*
X81826071Y-53122142D01*
X82111785Y-53265000D01*
X82254642Y-53407857D01*
X82397500Y-53693571D01*
X82397500Y-53979285D01*
X82254642Y-54407857D01*
X80540357Y-56122142D01*
X82397500Y-56122142D01*
X84254642Y-53122142D02*
X84540357Y-53122142D01*
X84826071Y-53265000D01*
X84968928Y-53407857D01*
X85111785Y-53693571D01*
X85254642Y-54265000D01*
X85254642Y-54979285D01*
X85111785Y-55550714D01*
X84968928Y-55836428D01*
X84826071Y-55979285D01*
X84540357Y-56122142D01*
X84254642Y-56122142D01*
X83968928Y-55979285D01*
X83826071Y-55836428D01*
X83683214Y-55550714D01*
X83540357Y-54979285D01*
X83540357Y-54265000D01*
X83683214Y-53693571D01*
X83826071Y-53407857D01*
X83968928Y-53265000D01*
X84254642Y-53122142D01*
X86397500Y-53407857D02*
X86540357Y-53265000D01*
X86826071Y-53122142D01*
X87540357Y-53122142D01*
X87826071Y-53265000D01*
X87968928Y-53407857D01*
X88111785Y-53693571D01*
X88111785Y-53979285D01*
X87968928Y-54407857D01*
X86254642Y-56122142D01*
X88111785Y-56122142D01*
X89111785Y-53122142D02*
X90968928Y-53122142D01*
X89968928Y-54265000D01*
X90397500Y-54265000D01*
X90683214Y-54407857D01*
X90826071Y-54550714D01*
X90968928Y-54836428D01*
X90968928Y-55550714D01*
X90826071Y-55836428D01*
X90683214Y-55979285D01*
X90397500Y-56122142D01*
X89540357Y-56122142D01*
X89254642Y-55979285D01*
X89111785Y-55836428D01*
X92254642Y-54979285D02*
X94540357Y-54979285D01*
X96540357Y-53122142D02*
X96826071Y-53122142D01*
X97111785Y-53265000D01*
X97254642Y-53407857D01*
X97397500Y-53693571D01*
X97540357Y-54265000D01*
X97540357Y-54979285D01*
X97397500Y-55550714D01*
X97254642Y-55836428D01*
X97111785Y-55979285D01*
X96826071Y-56122142D01*
X96540357Y-56122142D01*
X96254642Y-55979285D01*
X96111785Y-55836428D01*
X95968928Y-55550714D01*
X95826071Y-54979285D01*
X95826071Y-54265000D01*
X95968928Y-53693571D01*
X96111785Y-53407857D01*
X96254642Y-53265000D01*
X96540357Y-53122142D01*
X98683214Y-53407857D02*
X98826071Y-53265000D01*
X99111785Y-53122142D01*
X99826071Y-53122142D01*
X100111785Y-53265000D01*
X100254642Y-53407857D01*
X100397500Y-53693571D01*
X100397500Y-53979285D01*
X100254642Y-54407857D01*
X98540357Y-56122142D01*
X100397500Y-56122142D01*
%TO.C,R9*%
X87352380Y-114416666D02*
X86876190Y-114750000D01*
X87352380Y-114988095D02*
X86352380Y-114988095D01*
X86352380Y-114607142D01*
X86400000Y-114511904D01*
X86447619Y-114464285D01*
X86542857Y-114416666D01*
X86685714Y-114416666D01*
X86780952Y-114464285D01*
X86828571Y-114511904D01*
X86876190Y-114607142D01*
X86876190Y-114988095D01*
X87352380Y-113940476D02*
X87352380Y-113750000D01*
X87304761Y-113654761D01*
X87257142Y-113607142D01*
X87114285Y-113511904D01*
X86923809Y-113464285D01*
X86542857Y-113464285D01*
X86447619Y-113511904D01*
X86400000Y-113559523D01*
X86352380Y-113654761D01*
X86352380Y-113845238D01*
X86400000Y-113940476D01*
X86447619Y-113988095D01*
X86542857Y-114035714D01*
X86780952Y-114035714D01*
X86876190Y-113988095D01*
X86923809Y-113940476D01*
X86971428Y-113845238D01*
X86971428Y-113654761D01*
X86923809Y-113559523D01*
X86876190Y-113511904D01*
X86780952Y-113464285D01*
%TO.C,J3*%
X209516666Y-120002380D02*
X209516666Y-120716666D01*
X209469047Y-120859523D01*
X209373809Y-120954761D01*
X209230952Y-121002380D01*
X209135714Y-121002380D01*
X209897619Y-120002380D02*
X210516666Y-120002380D01*
X210183333Y-120383333D01*
X210326190Y-120383333D01*
X210421428Y-120430952D01*
X210469047Y-120478571D01*
X210516666Y-120573809D01*
X210516666Y-120811904D01*
X210469047Y-120907142D01*
X210421428Y-120954761D01*
X210326190Y-121002380D01*
X210040476Y-121002380D01*
X209945238Y-120954761D01*
X209897619Y-120907142D01*
%TO.C,R8*%
X96777856Y-41705196D02*
X96205436Y-41604181D01*
X96373795Y-42109257D02*
X95666688Y-41402151D01*
X95936062Y-41132776D01*
X96037077Y-41099105D01*
X96104421Y-41099105D01*
X96205436Y-41132776D01*
X96306451Y-41233792D01*
X96340123Y-41334807D01*
X96340123Y-41402151D01*
X96306451Y-41503166D01*
X96037077Y-41772540D01*
X96777856Y-40897074D02*
X96676841Y-40930746D01*
X96609497Y-40930746D01*
X96508482Y-40897074D01*
X96474810Y-40863402D01*
X96441138Y-40762387D01*
X96441138Y-40695044D01*
X96474810Y-40594028D01*
X96609497Y-40459341D01*
X96710513Y-40425670D01*
X96777856Y-40425670D01*
X96878871Y-40459341D01*
X96912543Y-40493013D01*
X96946215Y-40594028D01*
X96946215Y-40661372D01*
X96912543Y-40762387D01*
X96777856Y-40897074D01*
X96744184Y-40998089D01*
X96744184Y-41065433D01*
X96777856Y-41166448D01*
X96912543Y-41301135D01*
X97013558Y-41334807D01*
X97080902Y-41334807D01*
X97181917Y-41301135D01*
X97316604Y-41166448D01*
X97350276Y-41065433D01*
X97350276Y-40998089D01*
X97316604Y-40897074D01*
X97181917Y-40762387D01*
X97080902Y-40728715D01*
X97013558Y-40728715D01*
X96912543Y-40762387D01*
%TO.C,C2*%
X74583333Y-135207142D02*
X74535714Y-135254761D01*
X74392857Y-135302380D01*
X74297619Y-135302380D01*
X74154761Y-135254761D01*
X74059523Y-135159523D01*
X74011904Y-135064285D01*
X73964285Y-134873809D01*
X73964285Y-134730952D01*
X74011904Y-134540476D01*
X74059523Y-134445238D01*
X74154761Y-134350000D01*
X74297619Y-134302380D01*
X74392857Y-134302380D01*
X74535714Y-134350000D01*
X74583333Y-134397619D01*
X74964285Y-134397619D02*
X75011904Y-134350000D01*
X75107142Y-134302380D01*
X75345238Y-134302380D01*
X75440476Y-134350000D01*
X75488095Y-134397619D01*
X75535714Y-134492857D01*
X75535714Y-134588095D01*
X75488095Y-134730952D01*
X74916666Y-135302380D01*
X75535714Y-135302380D01*
%TO.C,J6*%
X122059163Y-43771541D02*
X122564239Y-43266465D01*
X122698926Y-43199121D01*
X122833613Y-43199121D01*
X122968300Y-43266465D01*
X123035643Y-43333808D01*
X121419399Y-43131778D02*
X121554086Y-43266465D01*
X121655102Y-43300136D01*
X121722445Y-43300136D01*
X121890804Y-43266465D01*
X122059163Y-43165449D01*
X122328537Y-42896075D01*
X122362208Y-42795060D01*
X122362208Y-42727717D01*
X122328537Y-42626701D01*
X122193850Y-42492014D01*
X122092834Y-42458343D01*
X122025491Y-42458343D01*
X121924476Y-42492014D01*
X121756117Y-42660373D01*
X121722445Y-42761388D01*
X121722445Y-42828732D01*
X121756117Y-42929747D01*
X121890804Y-43064434D01*
X121991819Y-43098106D01*
X122059163Y-43098106D01*
X122160178Y-43064434D01*
%TO.C,H4*%
X226638095Y-161952380D02*
X226638095Y-160952380D01*
X226638095Y-161428571D02*
X227209523Y-161428571D01*
X227209523Y-161952380D02*
X227209523Y-160952380D01*
X228114285Y-161285714D02*
X228114285Y-161952380D01*
X227876190Y-160904761D02*
X227638095Y-161619047D01*
X228257142Y-161619047D01*
%TO.C,R7*%
X106475196Y-145538143D02*
X106374181Y-146110563D01*
X106879257Y-145942204D02*
X106172151Y-146649311D01*
X105902776Y-146379937D01*
X105869105Y-146278922D01*
X105869105Y-146211578D01*
X105902776Y-146110563D01*
X106003792Y-146009548D01*
X106104807Y-145975876D01*
X106172151Y-145975876D01*
X106273166Y-146009548D01*
X106542540Y-146278922D01*
X105532387Y-146009548D02*
X105060983Y-145538143D01*
X106071135Y-145134082D01*
%TO.C,H2*%
X82138095Y-35802380D02*
X82138095Y-34802380D01*
X82138095Y-35278571D02*
X82709523Y-35278571D01*
X82709523Y-35802380D02*
X82709523Y-34802380D01*
X83138095Y-34897619D02*
X83185714Y-34850000D01*
X83280952Y-34802380D01*
X83519047Y-34802380D01*
X83614285Y-34850000D01*
X83661904Y-34897619D01*
X83709523Y-34992857D01*
X83709523Y-35088095D01*
X83661904Y-35230952D01*
X83090476Y-35802380D01*
X83709523Y-35802380D01*
%TO.C,H1*%
X220188095Y-36302380D02*
X220188095Y-35302380D01*
X220188095Y-35778571D02*
X220759523Y-35778571D01*
X220759523Y-36302380D02*
X220759523Y-35302380D01*
X221759523Y-36302380D02*
X221188095Y-36302380D01*
X221473809Y-36302380D02*
X221473809Y-35302380D01*
X221378571Y-35445238D01*
X221283333Y-35540476D01*
X221188095Y-35588095D01*
%TO.C,R10*%
X87402380Y-102492857D02*
X86926190Y-102826190D01*
X87402380Y-103064285D02*
X86402380Y-103064285D01*
X86402380Y-102683333D01*
X86450000Y-102588095D01*
X86497619Y-102540476D01*
X86592857Y-102492857D01*
X86735714Y-102492857D01*
X86830952Y-102540476D01*
X86878571Y-102588095D01*
X86926190Y-102683333D01*
X86926190Y-103064285D01*
X87402380Y-101540476D02*
X87402380Y-102111904D01*
X87402380Y-101826190D02*
X86402380Y-101826190D01*
X86545238Y-101921428D01*
X86640476Y-102016666D01*
X86688095Y-102111904D01*
X86402380Y-100921428D02*
X86402380Y-100826190D01*
X86450000Y-100730952D01*
X86497619Y-100683333D01*
X86592857Y-100635714D01*
X86783333Y-100588095D01*
X87021428Y-100588095D01*
X87211904Y-100635714D01*
X87307142Y-100683333D01*
X87354761Y-100730952D01*
X87402380Y-100826190D01*
X87402380Y-100921428D01*
X87354761Y-101016666D01*
X87307142Y-101064285D01*
X87211904Y-101111904D01*
X87021428Y-101159523D01*
X86783333Y-101159523D01*
X86592857Y-101111904D01*
X86497619Y-101064285D01*
X86450000Y-101016666D01*
X86402380Y-100921428D01*
%TO.C,C4*%
X214484477Y-147733142D02*
X214436858Y-147780761D01*
X214294001Y-147828380D01*
X214198763Y-147828380D01*
X214055905Y-147780761D01*
X213960667Y-147685523D01*
X213913048Y-147590285D01*
X213865429Y-147399809D01*
X213865429Y-147256952D01*
X213913048Y-147066476D01*
X213960667Y-146971238D01*
X214055905Y-146876000D01*
X214198763Y-146828380D01*
X214294001Y-146828380D01*
X214436858Y-146876000D01*
X214484477Y-146923619D01*
X215341620Y-147161714D02*
X215341620Y-147828380D01*
X215103524Y-146780761D02*
X214865429Y-147495047D01*
X215484477Y-147495047D01*
%TO.C,J5*%
X92525686Y-127637791D02*
X93030762Y-128142867D01*
X93098106Y-128277554D01*
X93098106Y-128412241D01*
X93030762Y-128546928D01*
X92963419Y-128614271D01*
X93199121Y-126964356D02*
X92862404Y-127301073D01*
X93165449Y-127671462D01*
X93165449Y-127604119D01*
X93199121Y-127503104D01*
X93367480Y-127334745D01*
X93468495Y-127301073D01*
X93535839Y-127301073D01*
X93636854Y-127334745D01*
X93805213Y-127503104D01*
X93838884Y-127604119D01*
X93838884Y-127671462D01*
X93805213Y-127772478D01*
X93636854Y-127940836D01*
X93535839Y-127974508D01*
X93468495Y-127974508D01*
%TO.C,H3*%
X74238095Y-161952380D02*
X74238095Y-160952380D01*
X74238095Y-161428571D02*
X74809523Y-161428571D01*
X74809523Y-161952380D02*
X74809523Y-160952380D01*
X75190476Y-160952380D02*
X75809523Y-160952380D01*
X75476190Y-161333333D01*
X75619047Y-161333333D01*
X75714285Y-161380952D01*
X75761904Y-161428571D01*
X75809523Y-161523809D01*
X75809523Y-161761904D01*
X75761904Y-161857142D01*
X75714285Y-161904761D01*
X75619047Y-161952380D01*
X75333333Y-161952380D01*
X75238095Y-161904761D01*
X75190476Y-161857142D01*
%TO.C,R11*%
X144157142Y-37252380D02*
X143823809Y-36776190D01*
X143585714Y-37252380D02*
X143585714Y-36252380D01*
X143966666Y-36252380D01*
X144061904Y-36300000D01*
X144109523Y-36347619D01*
X144157142Y-36442857D01*
X144157142Y-36585714D01*
X144109523Y-36680952D01*
X144061904Y-36728571D01*
X143966666Y-36776190D01*
X143585714Y-36776190D01*
X145109523Y-37252380D02*
X144538095Y-37252380D01*
X144823809Y-37252380D02*
X144823809Y-36252380D01*
X144728571Y-36395238D01*
X144633333Y-36490476D01*
X144538095Y-36538095D01*
X146061904Y-37252380D02*
X145490476Y-37252380D01*
X145776190Y-37252380D02*
X145776190Y-36252380D01*
X145680952Y-36395238D01*
X145585714Y-36490476D01*
X145490476Y-36538095D01*
%TO.C,J11*%
X88000380Y-151558523D02*
X88714666Y-151558523D01*
X88857523Y-151606142D01*
X88952761Y-151701380D01*
X89000380Y-151844238D01*
X89000380Y-151939476D01*
X89000380Y-150558523D02*
X89000380Y-151129952D01*
X89000380Y-150844238D02*
X88000380Y-150844238D01*
X88143238Y-150939476D01*
X88238476Y-151034714D01*
X88286095Y-151129952D01*
X89000380Y-149606142D02*
X89000380Y-150177571D01*
X89000380Y-149891857D02*
X88000380Y-149891857D01*
X88143238Y-149987095D01*
X88238476Y-150082333D01*
X88286095Y-150177571D01*
%TO.C,R1*%
X191248268Y-41823795D02*
X191147253Y-42396215D01*
X191652329Y-42227856D02*
X190945223Y-42934963D01*
X190675848Y-42665589D01*
X190642177Y-42564574D01*
X190642177Y-42497230D01*
X190675848Y-42396215D01*
X190776864Y-42295200D01*
X190877879Y-42261528D01*
X190945223Y-42261528D01*
X191046238Y-42295200D01*
X191315612Y-42564574D01*
X190574833Y-41150360D02*
X190978894Y-41554421D01*
X190776864Y-41352390D02*
X190069757Y-42059497D01*
X190238116Y-42025825D01*
X190372803Y-42025825D01*
X190473818Y-42059497D01*
%TO.C,J1*%
X206228758Y-72059163D02*
X206733834Y-72564239D01*
X206801178Y-72698926D01*
X206801178Y-72833613D01*
X206733834Y-72968300D01*
X206666491Y-73035643D01*
X207642972Y-72059163D02*
X207238911Y-72463224D01*
X207440941Y-72261193D02*
X206733834Y-71554086D01*
X206767506Y-71722445D01*
X206767506Y-71857132D01*
X206733834Y-71958147D01*
%TO.C,C1*%
X231433333Y-68907142D02*
X231385714Y-68954761D01*
X231242857Y-69002380D01*
X231147619Y-69002380D01*
X231004761Y-68954761D01*
X230909523Y-68859523D01*
X230861904Y-68764285D01*
X230814285Y-68573809D01*
X230814285Y-68430952D01*
X230861904Y-68240476D01*
X230909523Y-68145238D01*
X231004761Y-68050000D01*
X231147619Y-68002380D01*
X231242857Y-68002380D01*
X231385714Y-68050000D01*
X231433333Y-68097619D01*
X232385714Y-69002380D02*
X231814285Y-69002380D01*
X232100000Y-69002380D02*
X232100000Y-68002380D01*
X232004761Y-68145238D01*
X231909523Y-68240476D01*
X231814285Y-68288095D01*
%TO.C,C3*%
X214484477Y-155861142D02*
X214436858Y-155908761D01*
X214294001Y-155956380D01*
X214198763Y-155956380D01*
X214055905Y-155908761D01*
X213960667Y-155813523D01*
X213913048Y-155718285D01*
X213865429Y-155527809D01*
X213865429Y-155384952D01*
X213913048Y-155194476D01*
X213960667Y-155099238D01*
X214055905Y-155004000D01*
X214198763Y-154956380D01*
X214294001Y-154956380D01*
X214436858Y-155004000D01*
X214484477Y-155051619D01*
X214817810Y-154956380D02*
X215436858Y-154956380D01*
X215103524Y-155337333D01*
X215246382Y-155337333D01*
X215341620Y-155384952D01*
X215389239Y-155432571D01*
X215436858Y-155527809D01*
X215436858Y-155765904D01*
X215389239Y-155861142D01*
X215341620Y-155908761D01*
X215246382Y-155956380D01*
X214960667Y-155956380D01*
X214865429Y-155908761D01*
X214817810Y-155861142D01*
%TO.C,R5*%
X156596333Y-165410380D02*
X156263000Y-164934190D01*
X156024904Y-165410380D02*
X156024904Y-164410380D01*
X156405857Y-164410380D01*
X156501095Y-164458000D01*
X156548714Y-164505619D01*
X156596333Y-164600857D01*
X156596333Y-164743714D01*
X156548714Y-164838952D01*
X156501095Y-164886571D01*
X156405857Y-164934190D01*
X156024904Y-164934190D01*
X157501095Y-164410380D02*
X157024904Y-164410380D01*
X156977285Y-164886571D01*
X157024904Y-164838952D01*
X157120142Y-164791333D01*
X157358238Y-164791333D01*
X157453476Y-164838952D01*
X157501095Y-164886571D01*
X157548714Y-164981809D01*
X157548714Y-165219904D01*
X157501095Y-165315142D01*
X157453476Y-165362761D01*
X157358238Y-165410380D01*
X157120142Y-165410380D01*
X157024904Y-165362761D01*
X156977285Y-165315142D01*
%TO.C,J2*%
X177637791Y-157474613D02*
X178142867Y-156969537D01*
X178277554Y-156902193D01*
X178412241Y-156902193D01*
X178546928Y-156969537D01*
X178614271Y-157036880D01*
X177402088Y-157104224D02*
X177334745Y-157104224D01*
X177233730Y-157070552D01*
X177065371Y-156902193D01*
X177031699Y-156801178D01*
X177031699Y-156733834D01*
X177065371Y-156632819D01*
X177132714Y-156565476D01*
X177267401Y-156498132D01*
X178075523Y-156498132D01*
X177637791Y-156060399D01*
%TO.C,C6*%
X205137142Y-52510666D02*
X205184761Y-52558285D01*
X205232380Y-52701142D01*
X205232380Y-52796380D01*
X205184761Y-52939238D01*
X205089523Y-53034476D01*
X204994285Y-53082095D01*
X204803809Y-53129714D01*
X204660952Y-53129714D01*
X204470476Y-53082095D01*
X204375238Y-53034476D01*
X204280000Y-52939238D01*
X204232380Y-52796380D01*
X204232380Y-52701142D01*
X204280000Y-52558285D01*
X204327619Y-52510666D01*
X204232380Y-51653523D02*
X204232380Y-51844000D01*
X204280000Y-51939238D01*
X204327619Y-51986857D01*
X204470476Y-52082095D01*
X204660952Y-52129714D01*
X205041904Y-52129714D01*
X205137142Y-52082095D01*
X205184761Y-52034476D01*
X205232380Y-51939238D01*
X205232380Y-51748761D01*
X205184761Y-51653523D01*
X205137142Y-51605904D01*
X205041904Y-51558285D01*
X204803809Y-51558285D01*
X204708571Y-51605904D01*
X204660952Y-51653523D01*
X204613333Y-51748761D01*
X204613333Y-51939238D01*
X204660952Y-52034476D01*
X204708571Y-52082095D01*
X204803809Y-52129714D01*
%TO.C,J7*%
X89816666Y-78902380D02*
X89816666Y-79616666D01*
X89769047Y-79759523D01*
X89673809Y-79854761D01*
X89530952Y-79902380D01*
X89435714Y-79902380D01*
X90197619Y-78902380D02*
X90864285Y-78902380D01*
X90435714Y-79902380D01*
%TO.C,C5*%
X97837142Y-151530666D02*
X97884761Y-151578285D01*
X97932380Y-151721142D01*
X97932380Y-151816380D01*
X97884761Y-151959238D01*
X97789523Y-152054476D01*
X97694285Y-152102095D01*
X97503809Y-152149714D01*
X97360952Y-152149714D01*
X97170476Y-152102095D01*
X97075238Y-152054476D01*
X96980000Y-151959238D01*
X96932380Y-151816380D01*
X96932380Y-151721142D01*
X96980000Y-151578285D01*
X97027619Y-151530666D01*
X96932380Y-150625904D02*
X96932380Y-151102095D01*
X97408571Y-151149714D01*
X97360952Y-151102095D01*
X97313333Y-151006857D01*
X97313333Y-150768761D01*
X97360952Y-150673523D01*
X97408571Y-150625904D01*
X97503809Y-150578285D01*
X97741904Y-150578285D01*
X97837142Y-150625904D01*
X97884761Y-150673523D01*
X97932380Y-150768761D01*
X97932380Y-151006857D01*
X97884761Y-151102095D01*
X97837142Y-151149714D01*
%TO.C,R3*%
X214002380Y-90266666D02*
X213526190Y-90600000D01*
X214002380Y-90838095D02*
X213002380Y-90838095D01*
X213002380Y-90457142D01*
X213050000Y-90361904D01*
X213097619Y-90314285D01*
X213192857Y-90266666D01*
X213335714Y-90266666D01*
X213430952Y-90314285D01*
X213478571Y-90361904D01*
X213526190Y-90457142D01*
X213526190Y-90838095D01*
X213002380Y-89933333D02*
X213002380Y-89314285D01*
X213383333Y-89647619D01*
X213383333Y-89504761D01*
X213430952Y-89409523D01*
X213478571Y-89361904D01*
X213573809Y-89314285D01*
X213811904Y-89314285D01*
X213907142Y-89361904D01*
X213954761Y-89409523D01*
X214002380Y-89504761D01*
X214002380Y-89790476D01*
X213954761Y-89885714D01*
X213907142Y-89933333D01*
%TO.C,J10*%
X212636380Y-56181523D02*
X213350666Y-56181523D01*
X213493523Y-56229142D01*
X213588761Y-56324380D01*
X213636380Y-56467238D01*
X213636380Y-56562476D01*
X213636380Y-55181523D02*
X213636380Y-55752952D01*
X213636380Y-55467238D02*
X212636380Y-55467238D01*
X212779238Y-55562476D01*
X212874476Y-55657714D01*
X212922095Y-55752952D01*
X212636380Y-54562476D02*
X212636380Y-54467238D01*
X212684000Y-54372000D01*
X212731619Y-54324380D01*
X212826857Y-54276761D01*
X213017333Y-54229142D01*
X213255428Y-54229142D01*
X213445904Y-54276761D01*
X213541142Y-54324380D01*
X213588761Y-54372000D01*
X213636380Y-54467238D01*
X213636380Y-54562476D01*
X213588761Y-54657714D01*
X213541142Y-54705333D01*
X213445904Y-54752952D01*
X213255428Y-54800571D01*
X213017333Y-54800571D01*
X212826857Y-54752952D01*
X212731619Y-54705333D01*
X212684000Y-54657714D01*
X212636380Y-54562476D01*
%TO.C,U2*%
X65492380Y-99313904D02*
X66301904Y-99313904D01*
X66397142Y-99266285D01*
X66444761Y-99218666D01*
X66492380Y-99123428D01*
X66492380Y-98932952D01*
X66444761Y-98837714D01*
X66397142Y-98790095D01*
X66301904Y-98742476D01*
X65492380Y-98742476D01*
X65587619Y-98313904D02*
X65540000Y-98266285D01*
X65492380Y-98171047D01*
X65492380Y-97932952D01*
X65540000Y-97837714D01*
X65587619Y-97790095D01*
X65682857Y-97742476D01*
X65778095Y-97742476D01*
X65920952Y-97790095D01*
X66492380Y-98361523D01*
X66492380Y-97742476D01*
%TO.C,J8*%
X170002380Y-40483333D02*
X170716666Y-40483333D01*
X170859523Y-40530952D01*
X170954761Y-40626190D01*
X171002380Y-40769047D01*
X171002380Y-40864285D01*
X170430952Y-39864285D02*
X170383333Y-39959523D01*
X170335714Y-40007142D01*
X170240476Y-40054761D01*
X170192857Y-40054761D01*
X170097619Y-40007142D01*
X170050000Y-39959523D01*
X170002380Y-39864285D01*
X170002380Y-39673809D01*
X170050000Y-39578571D01*
X170097619Y-39530952D01*
X170192857Y-39483333D01*
X170240476Y-39483333D01*
X170335714Y-39530952D01*
X170383333Y-39578571D01*
X170430952Y-39673809D01*
X170430952Y-39864285D01*
X170478571Y-39959523D01*
X170526190Y-40007142D01*
X170621428Y-40054761D01*
X170811904Y-40054761D01*
X170907142Y-40007142D01*
X170954761Y-39959523D01*
X171002380Y-39864285D01*
X171002380Y-39673809D01*
X170954761Y-39578571D01*
X170907142Y-39530952D01*
X170811904Y-39483333D01*
X170621428Y-39483333D01*
X170526190Y-39530952D01*
X170478571Y-39578571D01*
X170430952Y-39673809D01*
%TO.C,R2*%
X202076204Y-149924268D02*
X201503784Y-149823253D01*
X201672143Y-150328329D02*
X200965036Y-149621223D01*
X201234410Y-149351848D01*
X201335425Y-149318177D01*
X201402769Y-149318177D01*
X201503784Y-149351848D01*
X201604799Y-149452864D01*
X201638471Y-149553879D01*
X201638471Y-149621223D01*
X201604799Y-149722238D01*
X201335425Y-149991612D01*
X201705815Y-149015131D02*
X201705815Y-148947787D01*
X201739486Y-148846772D01*
X201907845Y-148678413D01*
X202008861Y-148644742D01*
X202076204Y-148644742D01*
X202177219Y-148678413D01*
X202244563Y-148745757D01*
X202311906Y-148880444D01*
X202311906Y-149688566D01*
X202749639Y-149250833D01*
%TO.C,R6*%
X148378333Y-169250380D02*
X148045000Y-168774190D01*
X147806904Y-169250380D02*
X147806904Y-168250380D01*
X148187857Y-168250380D01*
X148283095Y-168298000D01*
X148330714Y-168345619D01*
X148378333Y-168440857D01*
X148378333Y-168583714D01*
X148330714Y-168678952D01*
X148283095Y-168726571D01*
X148187857Y-168774190D01*
X147806904Y-168774190D01*
X149235476Y-168250380D02*
X149045000Y-168250380D01*
X148949761Y-168298000D01*
X148902142Y-168345619D01*
X148806904Y-168488476D01*
X148759285Y-168678952D01*
X148759285Y-169059904D01*
X148806904Y-169155142D01*
X148854523Y-169202761D01*
X148949761Y-169250380D01*
X149140238Y-169250380D01*
X149235476Y-169202761D01*
X149283095Y-169155142D01*
X149330714Y-169059904D01*
X149330714Y-168821809D01*
X149283095Y-168726571D01*
X149235476Y-168678952D01*
X149140238Y-168631333D01*
X148949761Y-168631333D01*
X148854523Y-168678952D01*
X148806904Y-168726571D01*
X148759285Y-168821809D01*
%TO.C,R4*%
X213852380Y-106716666D02*
X213376190Y-107050000D01*
X213852380Y-107288095D02*
X212852380Y-107288095D01*
X212852380Y-106907142D01*
X212900000Y-106811904D01*
X212947619Y-106764285D01*
X213042857Y-106716666D01*
X213185714Y-106716666D01*
X213280952Y-106764285D01*
X213328571Y-106811904D01*
X213376190Y-106907142D01*
X213376190Y-107288095D01*
X213185714Y-105859523D02*
X213852380Y-105859523D01*
X212804761Y-106097619D02*
X213519047Y-106335714D01*
X213519047Y-105716666D01*
%TO.C,U1*%
X234402380Y-108330904D02*
X235211904Y-108330904D01*
X235307142Y-108283285D01*
X235354761Y-108235666D01*
X235402380Y-108140428D01*
X235402380Y-107949952D01*
X235354761Y-107854714D01*
X235307142Y-107807095D01*
X235211904Y-107759476D01*
X234402380Y-107759476D01*
X235402380Y-106759476D02*
X235402380Y-107330904D01*
X235402380Y-107045190D02*
X234402380Y-107045190D01*
X234545238Y-107140428D01*
X234640476Y-107235666D01*
X234688095Y-107330904D01*
X225209457Y-95432571D02*
X225542790Y-95432571D01*
X225685647Y-95956380D02*
X225209457Y-95956380D01*
X225209457Y-94956380D01*
X225685647Y-94956380D01*
X225971361Y-95289714D02*
X226352314Y-95289714D01*
X226114219Y-94956380D02*
X226114219Y-95813523D01*
X226161838Y-95908761D01*
X226257076Y-95956380D01*
X226352314Y-95956380D01*
X226685647Y-95956380D02*
X226685647Y-94956380D01*
X227114219Y-95956380D02*
X227114219Y-95432571D01*
X227066600Y-95337333D01*
X226971361Y-95289714D01*
X226828504Y-95289714D01*
X226733266Y-95337333D01*
X226685647Y-95384952D01*
X227971361Y-95908761D02*
X227876123Y-95956380D01*
X227685647Y-95956380D01*
X227590409Y-95908761D01*
X227542790Y-95813523D01*
X227542790Y-95432571D01*
X227590409Y-95337333D01*
X227685647Y-95289714D01*
X227876123Y-95289714D01*
X227971361Y-95337333D01*
X228018980Y-95432571D01*
X228018980Y-95527809D01*
X227542790Y-95623047D01*
X228447552Y-95956380D02*
X228447552Y-95289714D01*
X228447552Y-95480190D02*
X228495171Y-95384952D01*
X228542790Y-95337333D01*
X228638028Y-95289714D01*
X228733266Y-95289714D01*
X229066600Y-95289714D02*
X229066600Y-95956380D01*
X229066600Y-95384952D02*
X229114219Y-95337333D01*
X229209457Y-95289714D01*
X229352314Y-95289714D01*
X229447552Y-95337333D01*
X229495171Y-95432571D01*
X229495171Y-95956380D01*
X230352314Y-95908761D02*
X230257076Y-95956380D01*
X230066600Y-95956380D01*
X229971361Y-95908761D01*
X229923742Y-95813523D01*
X229923742Y-95432571D01*
X229971361Y-95337333D01*
X230066600Y-95289714D01*
X230257076Y-95289714D01*
X230352314Y-95337333D01*
X230399933Y-95432571D01*
X230399933Y-95527809D01*
X229923742Y-95623047D01*
X230685647Y-95289714D02*
X231066600Y-95289714D01*
X230828504Y-94956380D02*
X230828504Y-95813523D01*
X230876123Y-95908761D01*
X230971361Y-95956380D01*
X231066600Y-95956380D01*
%TO.C,R12*%
X158157142Y-37252380D02*
X157823809Y-36776190D01*
X157585714Y-37252380D02*
X157585714Y-36252380D01*
X157966666Y-36252380D01*
X158061904Y-36300000D01*
X158109523Y-36347619D01*
X158157142Y-36442857D01*
X158157142Y-36585714D01*
X158109523Y-36680952D01*
X158061904Y-36728571D01*
X157966666Y-36776190D01*
X157585714Y-36776190D01*
X159109523Y-37252380D02*
X158538095Y-37252380D01*
X158823809Y-37252380D02*
X158823809Y-36252380D01*
X158728571Y-36395238D01*
X158633333Y-36490476D01*
X158538095Y-36538095D01*
X159490476Y-36347619D02*
X159538095Y-36300000D01*
X159633333Y-36252380D01*
X159871428Y-36252380D01*
X159966666Y-36300000D01*
X160014285Y-36347619D01*
X160061904Y-36442857D01*
X160061904Y-36538095D01*
X160014285Y-36680952D01*
X159442857Y-37252380D01*
X160061904Y-37252380D01*
%TO.C,J4*%
X128902380Y-160183333D02*
X129616666Y-160183333D01*
X129759523Y-160230952D01*
X129854761Y-160326190D01*
X129902380Y-160469047D01*
X129902380Y-160564285D01*
X129235714Y-159278571D02*
X129902380Y-159278571D01*
X128854761Y-159516666D02*
X129569047Y-159754761D01*
X129569047Y-159135714D01*
%TO.C,J9*%
X196814380Y-162793333D02*
X197528666Y-162793333D01*
X197671523Y-162840952D01*
X197766761Y-162936190D01*
X197814380Y-163079047D01*
X197814380Y-163174285D01*
X197814380Y-162269523D02*
X197814380Y-162079047D01*
X197766761Y-161983809D01*
X197719142Y-161936190D01*
X197576285Y-161840952D01*
X197385809Y-161793333D01*
X197004857Y-161793333D01*
X196909619Y-161840952D01*
X196862000Y-161888571D01*
X196814380Y-161983809D01*
X196814380Y-162174285D01*
X196862000Y-162269523D01*
X196909619Y-162317142D01*
X197004857Y-162364761D01*
X197242952Y-162364761D01*
X197338190Y-162317142D01*
X197385809Y-162269523D01*
X197433428Y-162174285D01*
X197433428Y-161983809D01*
X197385809Y-161888571D01*
X197338190Y-161840952D01*
X197242952Y-161793333D01*
D11*
%TO.C,R9*%
X87568000Y-110907133D02*
G75*
G03*
X86118641Y-110810095I-700000J417133D01*
G01*
%TO.C,J3*%
X211180000Y-116510000D02*
X211180000Y-80890000D01*
X208520000Y-116510000D02*
X208520000Y-80890000D01*
X209850000Y-119110000D02*
X208520000Y-119110000D01*
X208520000Y-119110000D02*
X208520000Y-117780000D01*
X211180000Y-80890000D02*
X208520000Y-80890000D01*
X211180000Y-116510000D02*
X208520000Y-116510000D01*
%TO.C,R8*%
X96089949Y-40027999D02*
G75*
G03*
X95133714Y-38934533I-200017J789931D01*
G01*
%TO.C,C2*%
X68709576Y-131761000D02*
X69159576Y-131761000D01*
X68934576Y-131536000D02*
X68934576Y-131986000D01*
X69127123Y-134156000D02*
G75*
G03*
X69127123Y-132036000I2119741J1060000D01*
G01*
%TO.C,J6*%
X118413522Y-45064874D02*
X93226379Y-70252017D01*
X122132904Y-45107300D02*
X121192452Y-46047752D01*
X121192452Y-44166848D02*
X122132904Y-45107300D01*
X118413522Y-45064874D02*
X120294426Y-46945778D01*
X93226379Y-70252017D02*
X95107283Y-72132921D01*
X120294426Y-46945778D02*
X95107283Y-72132921D01*
%TO.C,R7*%
X104797999Y-146226051D02*
G75*
G03*
X103704533Y-147182286I-789931J-200017D01*
G01*
%TO.C,R10*%
X86168000Y-98785867D02*
G75*
G03*
X87617359Y-98882905I700000J-417133D01*
G01*
%TO.C,C4*%
X212113856Y-149541000D02*
X212563856Y-149541000D01*
X212338856Y-149316000D02*
X212338856Y-149766000D01*
X212531403Y-151936000D02*
G75*
G03*
X212531403Y-149816000I2119741J1060000D01*
G01*
%TO.C,J5*%
X95064874Y-131586478D02*
X96945778Y-129705574D01*
X95064874Y-131586478D02*
X120252017Y-156773621D01*
X94166848Y-128807548D02*
X95107300Y-127867096D01*
X95107300Y-127867096D02*
X96047752Y-128807548D01*
X120252017Y-156773621D02*
X122132921Y-154892717D01*
X96945778Y-129705574D02*
X122132921Y-154892717D01*
%TO.C,R11*%
X148680867Y-37530000D02*
G75*
G03*
X148777905Y-36080641I417133J700000D01*
G01*
%TO.C,J11*%
X65728000Y-158724000D02*
X65728000Y-142774000D01*
X78168000Y-158724000D02*
X65728000Y-158724000D01*
X87648000Y-158724000D02*
X81368000Y-158724000D01*
X87648000Y-142774000D02*
X87648000Y-158724000D01*
X65728000Y-142774000D02*
X78168000Y-142774000D01*
X81368000Y-142774000D02*
X87648000Y-142774000D01*
X84058000Y-142574000D02*
X82058000Y-142574000D01*
%TO.C,R1*%
X192050001Y-41539949D02*
G75*
G03*
X193143467Y-40583714I789931J200017D01*
G01*
%TO.C,J1*%
X204893000Y-72132904D02*
X203952548Y-71192452D01*
X204935426Y-68413522D02*
X203054522Y-70294426D01*
X179748283Y-43226379D02*
X177867379Y-45107283D01*
X203054522Y-70294426D02*
X177867379Y-45107283D01*
X205833452Y-71192452D02*
X204893000Y-72132904D01*
X204935426Y-68413522D02*
X179748283Y-43226379D01*
%TO.C,C1*%
X229062712Y-70715000D02*
X229512712Y-70715000D01*
X229287712Y-70490000D02*
X229287712Y-70940000D01*
X229480259Y-73110000D02*
G75*
G03*
X229480259Y-70990000I2119741J1060000D01*
G01*
%TO.C,C3*%
X212113856Y-157669000D02*
X212563856Y-157669000D01*
X212338856Y-157444000D02*
X212338856Y-157894000D01*
X212531403Y-160064000D02*
G75*
G03*
X212531403Y-157944000I2119741J1060000D01*
G01*
%TO.C,R5*%
X156230133Y-166178000D02*
G75*
G03*
X156133095Y-167627359I-417133J-700000D01*
G01*
%TO.C,J2*%
X178807548Y-155833452D02*
X177867096Y-154893000D01*
X177867096Y-154893000D02*
X178807548Y-153952548D01*
X181586478Y-154935426D02*
X206773621Y-129748283D01*
X179705574Y-153054522D02*
X204892717Y-127867379D01*
X206773621Y-129748283D02*
X204892717Y-127867379D01*
X181586478Y-154935426D02*
X179705574Y-153054522D01*
%TO.C,C6*%
X206945000Y-54881288D02*
X206945000Y-54431288D01*
X206720000Y-54656288D02*
X207170000Y-54656288D01*
X209340000Y-54463741D02*
G75*
G03*
X207220000Y-54463741I-1060000J2119741D01*
G01*
%TO.C,J7*%
X88820000Y-83490000D02*
X88820000Y-119110000D01*
X88820000Y-119110000D02*
X91480000Y-119110000D01*
X91480000Y-83490000D02*
X91480000Y-119110000D01*
X90150000Y-80890000D02*
X91480000Y-80890000D01*
X88820000Y-83490000D02*
X91480000Y-83490000D01*
X91480000Y-80890000D02*
X91480000Y-82220000D01*
%TO.C,C5*%
X95540000Y-149051712D02*
X95090000Y-149051712D01*
X95315000Y-148826712D02*
X95315000Y-149276712D01*
X92920000Y-149244259D02*
G75*
G03*
X95040000Y-149244259I1060000J-2119741D01*
G01*
%TO.C,R3*%
X212914000Y-93705867D02*
G75*
G03*
X214363359Y-93802905I700000J-417133D01*
G01*
%TO.C,J10*%
X214084000Y-47397000D02*
X220364000Y-47397000D01*
X236004000Y-63347000D02*
X223564000Y-63347000D01*
X223564000Y-47397000D02*
X236004000Y-47397000D01*
X220364000Y-63347000D02*
X214084000Y-63347000D01*
X236004000Y-47397000D02*
X236004000Y-63347000D01*
X217674000Y-63547000D02*
X219674000Y-63547000D01*
X214084000Y-63347000D02*
X214084000Y-47397000D01*
D10*
%TO.C,U2*%
X80010000Y-130302000D02*
X72390000Y-130302000D01*
X80010000Y-129032000D02*
X80010000Y-130302000D01*
X85090000Y-68072000D02*
X85090000Y-129032000D01*
X85090000Y-129032000D02*
X67310000Y-129032000D01*
X67310000Y-68072000D02*
X85090000Y-68072000D01*
X67310000Y-129032000D02*
X67310000Y-68072000D01*
X72390000Y-130302000D02*
X72390000Y-129032000D01*
D11*
%TO.C,J8*%
X130890000Y-38820000D02*
X130890000Y-41480000D01*
X166510000Y-41480000D02*
X130890000Y-41480000D01*
X169110000Y-40150000D02*
X169110000Y-41480000D01*
X169110000Y-41480000D02*
X167780000Y-41480000D01*
X166510000Y-38820000D02*
X130890000Y-38820000D01*
X166510000Y-38820000D02*
X166510000Y-41480000D01*
%TO.C,R2*%
X202360051Y-150726001D02*
G75*
G03*
X203316286Y-151819467I200017J-789931D01*
G01*
%TO.C,R6*%
X149077867Y-167578000D02*
G75*
G03*
X149174905Y-166128641I417133J700000D01*
G01*
%TO.C,R4*%
X212660000Y-104119867D02*
G75*
G03*
X214109359Y-104216905I700000J-417133D01*
G01*
D10*
%TO.C,U1*%
X224891600Y-94319000D02*
X231141600Y-94319000D01*
X231141600Y-94319000D02*
X231141600Y-90319000D01*
X215900000Y-77089000D02*
X233680000Y-77089000D01*
X220980000Y-77089000D02*
X220980000Y-75819000D01*
X233680000Y-138049000D02*
X215900000Y-138049000D01*
X230891600Y-90319000D02*
X224891600Y-90319000D01*
X228600000Y-75819000D02*
X228600000Y-77089000D01*
X233680000Y-77089000D02*
X233680000Y-138049000D01*
X220980000Y-75819000D02*
X228600000Y-75819000D01*
X224891600Y-90319000D02*
X224891600Y-94319000D01*
X231141600Y-90319000D02*
X230891600Y-90319000D01*
X215900000Y-138049000D02*
X215900000Y-77089000D01*
D11*
%TO.C,R12*%
X154960133Y-36130000D02*
G75*
G03*
X154863095Y-37579359I-417133J-700000D01*
G01*
%TO.C,J4*%
X169110000Y-161180000D02*
X169110000Y-158520000D01*
X133490000Y-158520000D02*
X169110000Y-158520000D01*
X133490000Y-161180000D02*
X133490000Y-158520000D01*
X130890000Y-158520000D02*
X132220000Y-158520000D01*
X130890000Y-159850000D02*
X130890000Y-158520000D01*
X133490000Y-161180000D02*
X169110000Y-161180000D01*
%TO.C,J9*%
X198742000Y-161740000D02*
X198742000Y-176480000D01*
X198742000Y-176480000D02*
X207982000Y-176480000D01*
X200412000Y-161740000D02*
X198742000Y-161740000D01*
X207982000Y-161740000D02*
X206312000Y-161740000D01*
X207982000Y-176480000D02*
X207982000Y-168360000D01*
X207982000Y-162960000D02*
X207982000Y-161740000D01*
%TD*%
M02*
