M48
; DRILL file {KiCad (6.0.11)} date Sun 05 Feb 2023 05:58:21 PM EST
; FORMAT={2:4/ absolute / inch / keep zeros}
; #@! TF.CreationDate,2023-02-05T17:58:21-05:00
; #@! TF.GenerationSoftware,Kicad,Pcbnew,(6.0.11)
; #@! TF.FileFunction,MixedPlating,1,2
FMAT,2
INCH
; #@! TA.AperFunction,Plated,PTH,ComponentDrill
T1C0.0236
; #@! TA.AperFunction,Plated,PTH,ComponentDrill
T2C0.0276
; #@! TA.AperFunction,Plated,PTH,ComponentDrill
T3C0.0315
; #@! TA.AperFunction,Plated,PTH,ComponentDrill
T4C0.0350
; #@! TA.AperFunction,Plated,PTH,ComponentDrill
T5C0.0354
; #@! TA.AperFunction,Plated,PTH,ComponentDrill
T6C0.0394
; #@! TA.AperFunction,Plated,PTH,ComponentDrill
T7C0.0433
; #@! TA.AperFunction,Plated,PTH,ComponentDrill
T8C0.0630
; #@! TA.AperFunction,Plated,PTH,ComponentDrill
T9C0.1772
; #@! TA.AperFunction,NonPlated,NPTH,ComponentDrill
T10C0.1280
%
G90
G05
T1
X028199Y-015748
X028199Y-065748
X028588Y-014808
X028588Y-016688
X028588Y-064808
X028588Y-066688
X029528Y-014419
X029528Y-017077
X029528Y-064419
X029528Y-067077
X030467Y-014808
X030467Y-016688
X030467Y-064808
X030467Y-066688
X030856Y-015748
X030856Y-065748
X088199Y-015748
X088199Y-065748
X088588Y-014808
X088588Y-016688
X088588Y-064808
X088588Y-066688
X089528Y-014419
X089528Y-017077
X089528Y-064419
X089528Y-067077
X090467Y-014808
X090467Y-016688
X090467Y-064808
X090467Y-066688
X090856Y-015748
X090856Y-065748
T2
X034200Y-038308
X034200Y-039056
X034200Y-043500
X034200Y-044248
X037223Y-015977
X037752Y-015448
X040948Y-057648
X041477Y-058177
X057952Y-014500
X058108Y-065700
X058700Y-014500
X058856Y-065700
X060844Y-014500
X061344Y-065700
X061592Y-014500
X062092Y-065700
X075392Y-015747
X075921Y-016276
X079748Y-059652
X080277Y-059123
X084000Y-040408
X084000Y-041156
X084100Y-036308
X084100Y-037056
T3
X027558Y-052400
X027960Y-044406
X027960Y-045194
X028542Y-052400
X028747Y-044406
X028747Y-045194
X029535Y-044406
X029535Y-045194
X037000Y-059100
X037000Y-060084
X082000Y-020116
X082000Y-021100
X084016Y-059400
X084016Y-062600
X085000Y-059400
X085000Y-062600
X088965Y-035956
X088965Y-036744
X089753Y-035956
X089753Y-036744
X090540Y-035956
X090540Y-036744
X090689Y-028366
X091673Y-028366
T4
X028275Y-056860
X028275Y-060840
X028873Y-057860
X028873Y-061840
X089919Y-019310
X089919Y-023290
X090517Y-020310
X090517Y-024290
T5
X032700Y-057600
X032700Y-058600
X032700Y-059600
X032700Y-060600
X033700Y-058100
X033700Y-059100
X033700Y-060100
X033700Y-061100
X085092Y-020050
X085092Y-021050
X085092Y-022050
X085092Y-023050
X086092Y-020550
X086092Y-021550
X086092Y-022550
X086092Y-023550
T6
X035492Y-032370
X035492Y-033370
X035492Y-034370
X035492Y-035370
X035492Y-036370
X035492Y-037370
X035492Y-038370
X035492Y-039370
X035492Y-040370
X035492Y-041370
X035492Y-042370
X035492Y-043370
X035492Y-044370
X035492Y-045370
X035492Y-046370
X037444Y-027658
X037444Y-051082
X038151Y-026951
X038151Y-051789
X038858Y-026244
X038858Y-052496
X039565Y-025537
X039565Y-053203
X040272Y-024830
X040272Y-053910
X040979Y-024123
X040979Y-054617
X041686Y-023416
X041686Y-055325
X042394Y-022709
X042394Y-056032
X043101Y-022001
X043101Y-056739
X043808Y-021294
X043808Y-057446
X044515Y-020587
X044515Y-058153
X045222Y-019880
X045222Y-058860
X045929Y-019173
X045929Y-059567
X046636Y-018466
X046636Y-060274
X047343Y-017759
X047343Y-060981
X052055Y-015807
X052055Y-062933
X053055Y-015807
X053055Y-062933
X054055Y-015807
X054055Y-062933
X055055Y-015807
X055055Y-062933
X056055Y-015807
X056055Y-062933
X057055Y-015807
X057055Y-062933
X058055Y-015807
X058055Y-062933
X059055Y-015807
X059055Y-062933
X060055Y-015807
X060055Y-062933
X061055Y-015807
X061055Y-062933
X062055Y-015807
X062055Y-062933
X063055Y-015807
X063055Y-062933
X064055Y-015807
X064055Y-062933
X065055Y-015807
X065055Y-062933
X066055Y-015807
X066055Y-062933
X070767Y-060981
X070767Y-017759
X071474Y-060274
X071474Y-018466
X072181Y-059567
X072181Y-019173
X072888Y-058860
X072888Y-019880
X073595Y-058153
X073595Y-020587
X074302Y-057446
X074303Y-021294
X075010Y-056739
X075010Y-022001
X075717Y-056032
X075717Y-022709
X076424Y-055325
X076424Y-023416
X077131Y-054618
X077131Y-024123
X077838Y-053910
X077838Y-024830
X078545Y-053203
X078545Y-025537
X079252Y-052496
X079252Y-026244
X079959Y-051789
X079959Y-026951
X080666Y-051082
X080667Y-027658
X082618Y-032370
X082618Y-033370
X082618Y-034370
X082618Y-035370
X082618Y-036370
X082618Y-037370
X082618Y-038370
X082618Y-039370
X082618Y-040370
X082618Y-041370
X082618Y-042370
X082618Y-043370
X082618Y-044370
X082618Y-045370
X082618Y-046370
T7
X027000Y-029300
X027000Y-030300
X027000Y-031300
X027000Y-032300
X027000Y-033300
X027000Y-037300
X027000Y-049300
X027000Y-050300
X033000Y-032300
X033000Y-033300
X033000Y-037300
X033000Y-038300
X033000Y-039300
X033000Y-040300
X033000Y-041300
X033000Y-042300
X085500Y-038850
X085500Y-039850
X085500Y-040850
X085500Y-041850
X085500Y-042850
X085500Y-047850
X085500Y-048850
X091500Y-030850
X091500Y-031850
X091500Y-043850
X091500Y-048850
X091500Y-049850
X091500Y-050850
X091500Y-051850
T8
X031405Y-056289
X031405Y-062411
X087387Y-018739
X087387Y-024861
T9
X029528Y-015748
X029528Y-065748
X089528Y-015748
X089528Y-065748
T10
X030204Y-057100
X030204Y-061600
X088588Y-019550
X088588Y-024050
T6
G00X079572Y-063961
M15
G01X080556Y-063961
M16
G05
G00X079670Y-066402
M15
G01X080457Y-066402
M16
G05
G00X081914Y-065614
M15
G01X081914Y-064827
M16
G05
T0
M30
