G04 ================== begin FILE IDENTIFICATION RECORD ==================*
G04 Layout Name:  LED_12inArena V2-1.brd*
G04 Film Name:    BOTTOM*
G04 File Format:  Gerber RS274X*
G04 File Origin:  Cadence Allegro 17.2-P019*
G04 Origin Date:  Mon Oct 05 13:51:21 2020*
G04 *
G04 Layer:  VIA KEEPOUT/ALL*
G04 Layer:  VIA KEEPOUT/BOTTOM*
G04 Layer:  VIA KEEPOUT/MISO*
G04 Layer:  VIA KEEPOUT/GND3*
G04 Layer:  VIA KEEPOUT/SIG*
G04 Layer:  VIA KEEPOUT/PWR*
G04 Layer:  VIA KEEPOUT/TOP*
G04 Layer:  VIA CLASS/FILMMASKBOTTOM*
G04 Layer:  VIA CLASS/BOTTOM*
G04 Layer:  ROUTE KEEPOUT/ALL*
G04 Layer:  ROUTE KEEPOUT/BOTTOM*
G04 Layer:  ROUTE KEEPOUT/MISO*
G04 Layer:  ROUTE KEEPOUT/GND3*
G04 Layer:  ROUTE KEEPOUT/SIG*
G04 Layer:  ROUTE KEEPOUT/PWR*
G04 Layer:  ROUTE KEEPOUT/TOP*
G04 Layer:  ROUTE KEEPIN/ALL*
G04 Layer:  PIN/FILMMASKBOTTOM*
G04 Layer:  PIN/BOTTOM*
G04 Layer:  PACKAGE KEEPOUT/ALL*
G04 Layer:  PACKAGE KEEPOUT/TOP*
G04 Layer:  PACKAGE KEEPOUT/BOTTOM*
G04 Layer:  PACKAGE KEEPIN/ALL*
G04 Layer:  ETCH/BOTTOM*
G04 Layer:  BOARD GEOMETRY/OUTLINE*
G04 *
G04 Offset:    (0.0 0.0)*
G04 Mirror:    No*
G04 Mode:      Positive*
G04 Rotation:  0*
G04 FullContactRelief:  No*
G04 UndefLineWidth:     0.1*
G04 ================== end FILE IDENTIFICATION RECORD ====================*
%FSLAX25Y25*MOIN*%
%IR0*IPPOS*OFA0.00000B0.00000*MIA0B0*SFA1.00000B1.00000*%
%ADD10C,.2*%
%AMMACRO16*
21,1,.0433,.0551,0.0,0.0,120.*%
%ADD16MACRO16*%
%ADD35R,.063X.126*%
%AMMACRO22*
21,1,.0433,.0551,0.0,0.0,150.*%
%ADD22MACRO22*%
%ADD32R,.125X.065*%
%ADD29R,.126X.063*%
%ADD33R,.065X.125*%
%ADD13R,.061X.0098*%
%ADD27R,.0287X.1618*%
%ADD30R,.1969X.0787*%
%ADD28R,.0787X.1969*%
%ADD34R,.35X.42*%
%AMMACRO25*
21,1,.0433,.0551,0.0,0.0,30.*%
%ADD25MACRO25*%
%ADD18C,.06*%
%AMMACRO17*
21,1,.06,.06,0.0,0.0,30.*%
%ADD17MACRO17*%
%ADD11C,.024*%
%ADD31R,.09X.042*%
%ADD20C,5.7*%
%ADD14R,.065X.013*%
%ADD24R,.04X.048*%
%AMMACRO21*
21,1,.06,.06,0.0,0.0,60.*%
%ADD21MACRO21*%
%AMMACRO19*
21,1,.0433,.0551,0.0,0.0,60.*%
%ADD19MACRO19*%
%ADD12R,.0551X.0433*%
%ADD23R,.0433X.0551*%
%ADD15R,.06X.06*%
%ADD26C,.0787*%
%ADD36C,.1*%
%ADD37C,.005*%
%ADD38C,.008*%
%ADD39C,.01*%
%ADD40C,.0001*%
%ADD41C,.015*%
%ADD42C,.025*%
%ADD58R,.1002X.0522*%
%ADD43C,.2104*%
%ADD51R,.0732X.1362*%
%ADD50R,.1362X.0732*%
%ADD53R,.0752X.1352*%
%ADD49R,.1352X.0752*%
%ADD55R,.089X.2072*%
%ADD54R,.2072X.089*%
%ADD45R,.0712X.02*%
%ADD52R,.3602X.4302*%
%ADD48R,.0702X.0702*%
%ADD47C,.0704*%
%ADD46C,.0344*%
%ADD57R,.0502X.0582*%
%ADD56R,.0536X.0654*%
%ADD44R,.0654X.0536*%
G75*
%LPD*%
G75*
G36*
G01X-448000Y-448000D02*
Y448000D01*
X448000D01*
Y-448000D01*
X64620D01*
X64580Y-447840D01*
G03X64340Y-447260I-1682J-356D01*
G01X64310Y-447210D01*
Y-446920D01*
X66170D01*
Y-441560D01*
X59630D01*
Y-446920D01*
X61490D01*
Y-447210D01*
X61460Y-447260D01*
G03X61220Y-447840I1442J-936D01*
G01X61180Y-448000D01*
X56360D01*
X56320Y-447850D01*
G03X56090Y-447310I-1673J-394D01*
G01X56060Y-447260D01*
Y-446970D01*
X57920D01*
Y-441610D01*
X51380D01*
Y-446970D01*
X53240D01*
Y-447260D01*
X53210Y-447310D01*
G03X52980Y-447850I1443J-934D01*
G01X52940Y-448000D01*
X48220D01*
X48190Y-447840D01*
G03X47940Y-447210I-1692J-307D01*
G01X47910Y-447160D01*
Y-446870D01*
X49770D01*
Y-441510D01*
X43230D01*
Y-446870D01*
X45090D01*
Y-447160D01*
X45060Y-447210D01*
G03X44810Y-447840I1442J-937D01*
G01X44780Y-448000D01*
X40060D01*
X40020Y-447850D01*
G03X39790Y-447310I-1673J-394D01*
G01X39760Y-447260D01*
Y-446970D01*
X41620D01*
Y-441610D01*
X35080D01*
Y-446970D01*
X36940D01*
Y-447260D01*
X36910Y-447310D01*
G03X36680Y-447850I1443J-934D01*
G01X36640Y-448000D01*
X31850D01*
X31810Y-447850D01*
G03X31590Y-447360I-1660J-451D01*
G01X31560Y-447310D01*
Y-447020D01*
X33420D01*
Y-441660D01*
X26880D01*
Y-447020D01*
X28740D01*
Y-447310D01*
X28710Y-447360D01*
G03X28490Y-447850I1440J-941D01*
G01X28450Y-448000D01*
X23720D01*
X23680Y-447840D01*
G03X23440Y-447260I-1682J-356D01*
G01X23410Y-447210D01*
Y-446920D01*
X25270D01*
Y-441560D01*
X18730D01*
Y-446920D01*
X20590D01*
Y-447210D01*
X20560Y-447260D01*
G03X20320Y-447840I1442J-936D01*
G01X20280Y-448000D01*
X15570D01*
X15540Y-447840D01*
G03X15290Y-447210I-1692J-307D01*
G01X15260Y-447160D01*
Y-446870D01*
X17120D01*
Y-441510D01*
X10580D01*
Y-446870D01*
X12440D01*
Y-447160D01*
X12410Y-447210D01*
G03X12160Y-447840I1442J-937D01*
G01X12130Y-448000D01*
X7530D01*
X7500Y-447830D01*
G03X7240Y-447160I-1698J-274D01*
G01X7210Y-447110D01*
Y-446820D01*
X9070D01*
Y-441460D01*
X2530D01*
Y-446820D01*
X4390D01*
Y-447110D01*
X4360Y-447160D01*
G03X4100Y-447830I1438J-944D01*
G01X4070Y-448000D01*
X-570D01*
X-590Y-447830D01*
G03X-860Y-447110I-1706J-229D01*
G01X-890Y-447060D01*
Y-446770D01*
X970D01*
Y-441410D01*
X-5570D01*
Y-446770D01*
X-3710D01*
Y-447060D01*
X-3740Y-447110D01*
G03X-4010Y-447830I1436J-949D01*
G01X-4030Y-448000D01*
X-8620D01*
X-8640Y-447820D01*
G03X-8910Y-447060I-1710J-180D01*
G01X-8940Y-447010D01*
Y-446720D01*
X-7080D01*
Y-441360D01*
X-13620D01*
Y-446720D01*
X-11760D01*
Y-447010D01*
X-11790Y-447060D01*
G03X-12060Y-447820I1440J-940D01*
G01X-12080Y-448000D01*
X-16670D01*
X-16690Y-447820D01*
G03X-16960Y-447060I-1710J-180D01*
G01X-16990Y-447010D01*
Y-446720D01*
X-15130D01*
Y-441360D01*
X-21670D01*
Y-446720D01*
X-19810D01*
Y-447010D01*
X-19840Y-447060D01*
G03X-20110Y-447820I1440J-940D01*
G01X-20130Y-448000D01*
X-24770D01*
X-24790Y-447820D01*
G03X-25060Y-447010I-1714J-121D01*
G01X-25090Y-446960D01*
Y-446670D01*
X-23230D01*
Y-441310D01*
X-29770D01*
Y-446670D01*
X-27910D01*
Y-446960D01*
X-27940Y-447010D01*
G03X-28210Y-447810I1443J-933D01*
G01X-28220Y-448000D01*
X-32930D01*
X-32940Y-447810D01*
G03X-33210Y-447010I-1713J-133D01*
G01X-33240Y-446960D01*
Y-446670D01*
X-31380D01*
Y-441310D01*
X-37920D01*
Y-446670D01*
X-36060D01*
Y-446960D01*
X-36090Y-447010D01*
G03X-36360Y-447810I1443J-933D01*
G01X-36370Y-448000D01*
X-41030D01*
X-41040Y-447810D01*
G03X-41310Y-447010I-1713J-133D01*
G01X-41340Y-446960D01*
Y-446670D01*
X-39480D01*
Y-441310D01*
X-46020D01*
Y-446670D01*
X-44160D01*
Y-446960D01*
X-44190Y-447010D01*
G03X-44460Y-447820I1444J-931D01*
G01X-44480Y-448000D01*
X-49070D01*
X-49080Y-447810D01*
G03X-49360Y-446960I-1718J-95D01*
G01X-49390Y-446910D01*
Y-446620D01*
X-47530D01*
Y-441260D01*
X-54070D01*
Y-446620D01*
X-52210D01*
Y-446910D01*
X-52240Y-446960D01*
G03X-52520Y-447810I1438J-945D01*
G01X-52530Y-448000D01*
X-57170D01*
X-57180Y-447810D01*
G03X-57460Y-446910I-1720J-41D01*
G01X-57490Y-446860D01*
Y-446570D01*
X-55630D01*
Y-441210D01*
X-62170D01*
Y-446570D01*
X-60310D01*
Y-446860D01*
X-60340Y-446910D01*
G03X-60620Y-447810I1440J-941D01*
G01X-60630Y-448000D01*
X-448000D01*
G37*
%LPC*%
G75*
G36*
G01X57920Y-439090D02*
X51380D01*
Y-433860D01*
X40140Y-422610D01*
Y-421640D01*
X39600D01*
Y-404440D01*
X43500D01*
Y-421640D01*
X43400Y-421880D01*
X52550Y-431040D01*
X53670D01*
G02X54630Y-430730I985J-1409D01*
G03X54910Y-430050I-2J398D01*
G01X46510Y-421640D01*
X44600D01*
Y-404440D01*
X47840D01*
G03X48240Y-404030I1J400D01*
G02Y-403860I4450J85D01*
G03X47840Y-403450I-399J10D01*
G01X44600D01*
Y-386250D01*
X45290D01*
Y-385510D01*
X45240Y-385460D01*
G02X45400Y-383060I1309J1118D01*
G01X45470Y-383000D01*
Y-382710D01*
X45170D01*
X43240Y-384640D01*
X43230Y-384700D01*
G02X42860Y-385460I-1685J350D01*
G01X42810Y-385510D01*
Y-386250D01*
X43500D01*
Y-403450D01*
X39600D01*
Y-386250D01*
X40290D01*
Y-385510D01*
X40240Y-385460D01*
G02X41190Y-382660I1308J1117D01*
G01X41250Y-382650D01*
X42700Y-381190D01*
G03X42420Y-380510I-282J281D01*
G01X40270D01*
X37960Y-382820D01*
Y-383350D01*
X37990Y-383400D01*
G02X37860Y-385460I-1440J-943D01*
G01X37810Y-385510D01*
Y-386250D01*
X38500D01*
Y-403450D01*
X34600D01*
Y-386250D01*
X35290D01*
Y-385510D01*
X35240Y-385460D01*
G02X35140Y-383360I1310J1115D01*
G01Y-381660D01*
X36450Y-380340D01*
G03X36170Y-379660I-282J281D01*
G01X33730D01*
X32960Y-380430D01*
Y-383360D01*
G02X32860Y-385460I-1410J-985D01*
G01X32810Y-385510D01*
Y-386250D01*
X33500D01*
Y-403450D01*
X29600D01*
Y-386250D01*
X30290D01*
Y-385510D01*
X30240Y-385460D01*
G02X30140Y-383360I1310J1115D01*
G01Y-379270D01*
X32570Y-376840D01*
X35820D01*
X36160Y-376500D01*
G03X35870Y-375820I-284J281D01*
G01X34780D01*
Y-370460D01*
X41320D01*
Y-375820D01*
X39460D01*
Y-376790D01*
X39410Y-376840D01*
Y-377230D01*
X39300Y-377350D01*
G03X39440Y-377690I140J-141D01*
G01X42680D01*
X43870Y-376500D01*
G03X43580Y-375820I-284J281D01*
G01X42880D01*
Y-370460D01*
X49420D01*
Y-375820D01*
X47560D01*
Y-376790D01*
X45150Y-379210D01*
G03X45430Y-379890I282J-281D01*
G01X51660D01*
X52940Y-378610D01*
Y-375870D01*
X51080D01*
Y-370510D01*
X57620D01*
Y-375870D01*
X55760D01*
Y-379770D01*
X53290Y-382250D01*
G03X53570Y-382930I282J-281D01*
G01X59080D01*
X61190Y-380820D01*
Y-375870D01*
X59330D01*
Y-370510D01*
X65870D01*
Y-375870D01*
X64010D01*
Y-381980D01*
X60240Y-385750D01*
X47810D01*
Y-386250D01*
X48500D01*
Y-400920D01*
G03X49210Y-401170I399J0D01*
G02Y-406710I3480J-2770D01*
G03X48500Y-406960I-311J-250D01*
G01Y-419640D01*
X59840Y-430990D01*
X61920D01*
G02X64340Y-433340I979J-1413D01*
G01X64310Y-433390D01*
Y-433680D01*
X66170D01*
Y-439040D01*
X59630D01*
Y-433810D01*
X58680D01*
X57050Y-432190D01*
G03X56370Y-432470I-282J-282D01*
G02X56090Y-433390I-1720J21D01*
G01X56060Y-433440D01*
Y-433730D01*
X57920D01*
Y-439090D01*
G37*
G36*
G01X180870Y-362640D02*
X174330D01*
Y-357280D01*
X176190D01*
Y-356620D01*
X176140Y-356570D01*
Y-356010D01*
X174130D01*
G02X171470Y-354230I-981J1412D01*
G03X171030Y-353750I-389J85D01*
G02Y-350330I-220J1710D01*
G03X171470Y-349850I51J395D01*
G02Y-349110I1680J370D01*
G03X171030Y-348630I-389J85D01*
G02Y-345210I-220J1710D01*
G03X171470Y-344730I51J395D01*
G02Y-343990I1680J370D01*
G03X171030Y-343510I-389J85D01*
G02Y-340090I-220J1710D01*
G03X171470Y-339610I50J396D01*
G02Y-338880I1680J365D01*
G03X171030Y-338400I-389J85D01*
G02Y-334980I-220J1710D01*
G03X171470Y-334500I51J395D01*
G02Y-333760I1680J370D01*
G03X171030Y-333280I-389J85D01*
G02X171790Y-330160I-220J1706D01*
G01X173990D01*
Y-328010D01*
X181110D01*
Y-330010D01*
X178410D01*
X178310Y-330380D01*
G02X178540Y-330570I-778J-1175D01*
G01X181110D01*
Y-332570D01*
X178540D01*
G02X178410Y-332690I-1019J973D01*
G03Y-333010I117J-160D01*
G02X178540Y-333130I-889J-1093D01*
G01X181110D01*
Y-335130D01*
X178540D01*
G02X178410Y-335250I-1019J973D01*
G03Y-335570I117J-160D01*
G02X178540Y-335690I-889J-1093D01*
G01X181110D01*
Y-337690D01*
X178540D01*
G02X178410Y-337810I-1019J973D01*
G03Y-338130I117J-160D01*
G02X178540Y-338250I-889J-1093D01*
G01X181110D01*
Y-340250D01*
X178540D01*
G02X178410Y-340370I-1019J973D01*
G03Y-340680I124J-155D01*
G02X178540Y-340800I-889J-1093D01*
G01X181110D01*
Y-342800D01*
X178540D01*
G02X178410Y-342920I-1019J973D01*
G03Y-343240I117J-160D01*
G02X178540Y-343360I-889J-1093D01*
G01X181110D01*
Y-345360D01*
X178540D01*
G02X178410Y-345480I-1019J973D01*
G03Y-345800I117J-160D01*
G02X178540Y-345920I-889J-1093D01*
G01X181110D01*
Y-347920D01*
X178540D01*
G02X178410Y-348040I-1019J973D01*
G03Y-348360I117J-160D01*
G02X178540Y-348480I-889J-1093D01*
G01X181110D01*
Y-350480D01*
X178540D01*
G02X178410Y-350600I-1019J973D01*
G03Y-350920I117J-160D01*
G02X178540Y-351040I-889J-1093D01*
G01X181110D01*
Y-353040D01*
X178960D01*
Y-353600D01*
X181110D01*
Y-355600D01*
X179010D01*
Y-357280D01*
X180870D01*
Y-362640D01*
G37*
G36*
G01X275610Y-426860D02*
X238690D01*
Y-390260D01*
X232690D01*
Y-385720D01*
X227630D01*
Y-379180D01*
X232690D01*
Y-375740D01*
X275590D01*
Y-345860D01*
X275440D01*
Y-325960D01*
X260840D01*
Y-304090D01*
X281690D01*
Y-290090D01*
X294260D01*
Y-293780D01*
X299770D01*
Y-300320D01*
X294260D01*
Y-304090D01*
X300110D01*
Y-345190D01*
X340760D01*
Y-350640D01*
X342030D01*
Y-344980D01*
X348570D01*
Y-350640D01*
X350930D01*
Y-345030D01*
X357470D01*
Y-350640D01*
X363260D01*
Y-365560D01*
X306610D01*
Y-386110D01*
X294260D01*
Y-390140D01*
X306460D01*
Y-426810D01*
X275610D01*
Y-426860D01*
G37*
G36*
G01X-422430Y-37090D02*
X-428970D01*
Y-31730D01*
X-427110D01*
Y-26500D01*
X-429210D01*
Y-24500D01*
X-427160D01*
Y-23940D01*
X-429210D01*
Y-21940D01*
X-426780D01*
G02X-426650Y-21810I1130J-1000D01*
G03Y-21510I-134J150D01*
G02X-426780Y-21380I1000J1130D01*
G01X-429210D01*
Y-19380D01*
X-426780D01*
G02X-426650Y-19250I1130J-1000D01*
G03Y-18950I-134J150D01*
G02X-426780Y-18820I1000J1130D01*
G01X-429210D01*
Y-16770D01*
X-431440D01*
G02Y-13750I-820J1510D01*
G01X-429210D01*
Y-11700D01*
X-426780D01*
G02X-426660Y-11570I1169J-959D01*
G03Y-11280I-130J145D01*
G02X-426780Y-11150I1049J1089D01*
G01X-429210D01*
Y-9150D01*
X-426780D01*
G02X-426650Y-9020I1130J-1000D01*
G03Y-8720I-134J150D01*
G02X-426780Y-8590I1000J1130D01*
G01X-429210D01*
Y-6590D01*
X-426780D01*
G02X-426570Y-6390I1142J-989D01*
G01X-426690Y-6030D01*
X-429210D01*
Y-4030D01*
X-422090D01*
Y-6080D01*
X-414450D01*
G02Y-9100I820J-1510D01*
G01X-416530D01*
G03X-416910Y-9620I0J-399D01*
G02Y-10670I-1639J-525D01*
G03X-416530Y-11190I381J-120D01*
G01X-414450D01*
G02Y-14210I820J-1510D01*
G01X-422090D01*
Y-16310D01*
X-414450D01*
G02Y-19330I820J-1510D01*
G01X-416530D01*
G03X-416910Y-19850I0J-399D01*
G02X-419370Y-21890I-1637J-529D01*
G01X-422090D01*
Y-23460D01*
G03X-421580Y-23850I400J-5D01*
G02X-422080Y-26910I482J-1650D01*
G01X-424240D01*
Y-27470D01*
X-424290Y-27520D01*
Y-31730D01*
X-422430D01*
Y-37090D01*
G37*
G36*
G01X-400330Y-37390D02*
X-406870D01*
Y-32030D01*
X-405010D01*
Y-26500D01*
X-407160D01*
Y-24500D01*
X-404590D01*
G02X-404460Y-24380I1019J-973D01*
G03Y-24060I-117J160D01*
G02X-404590Y-23940I889J1093D01*
G01X-407160D01*
Y-21940D01*
X-404590D01*
G02X-404360Y-21750I1008J-985D01*
G01X-404460Y-21380D01*
X-407160D01*
Y-19380D01*
X-404460D01*
X-404360Y-19010D01*
G02X-404590Y-18820I778J1175D01*
G01X-407160D01*
Y-16820D01*
X-404590D01*
G02X-404460Y-16700I1019J-973D01*
G03Y-16380I-117J160D01*
G02X-404590Y-16260I889J1093D01*
G01X-407160D01*
Y-14260D01*
X-404590D01*
G02X-404460Y-14140I1019J-973D01*
G03Y-13820I-117J160D01*
G02X-404590Y-13700I889J1093D01*
G01X-407160D01*
Y-11700D01*
X-404590D01*
G02X-404460Y-11580I1019J-973D01*
G03Y-11270I-124J155D01*
G02X-404590Y-11150I889J1093D01*
G01X-407160D01*
Y-9150D01*
X-404590D01*
G02X-404460Y-9030I1019J-973D01*
G03Y-8710I-117J160D01*
G02X-404590Y-8590I889J1093D01*
G01X-407160D01*
Y-6590D01*
X-404590D01*
G02X-404460Y-6470I1019J-973D01*
G03Y-6150I-117J160D01*
G02X-404590Y-6030I889J1093D01*
G01X-407160D01*
Y-4030D01*
X-404590D01*
G02X-404460Y-3910I1019J-973D01*
G03Y-3590I-117J160D01*
G02X-404590Y-3470I889J1093D01*
G01X-407160D01*
Y-1470D01*
X-404590D01*
G02X-404460Y-1350I1019J-973D01*
G03Y-1030I-117J160D01*
G02X-404590Y-910I889J1093D01*
G01X-407160D01*
Y1090D01*
X-404590D01*
G02X-404360Y1280I1008J-985D01*
G01X-404460Y1650D01*
X-407160D01*
Y3650D01*
X-400040D01*
Y1500D01*
X-399070D01*
X-398890Y1320D01*
X-393050D01*
G02X-392260Y1080I0J-1420D01*
G01X-389280D01*
Y-19180D01*
X-392260D01*
G02X-393050Y-19420I-790J1180D01*
G01X-397780D01*
X-397970Y-19230D01*
X-400040D01*
Y-20910D01*
G03X-399530Y-21290I399J4D01*
G02X-397760Y-24090I491J-1649D01*
G03Y-24360I146J-135D01*
G02X-400030Y-26910I-1290J-1137D01*
G01X-402190D01*
Y-32030D01*
X-400330D01*
Y-37390D01*
G37*
G36*
G01X369660Y-267770D02*
X362540D01*
Y-265770D01*
X365060D01*
X365180Y-265410D01*
G02X364970Y-265210I932J1189D01*
G01X362540D01*
Y-263160D01*
X360280D01*
X357050Y-266390D01*
X357040Y-266430D01*
G02X354870Y-264260I-1640J530D01*
G01X354910Y-264250D01*
X359020Y-260140D01*
X362540D01*
Y-258050D01*
X357410D01*
X354090Y-254730D01*
Y-250720D01*
G02X357110I1510J820D01*
G01Y-253470D01*
X358670Y-255030D01*
X359730D01*
G03X360010Y-254350I-3J399D01*
G01X358690Y-253030D01*
Y-224570D01*
X362570Y-220690D01*
X369180D01*
G02Y-223710I820J-1510D01*
G01X363830D01*
X361710Y-225830D01*
Y-251770D01*
X361860Y-251920D01*
G03X362540Y-251640I281J283D01*
G01Y-250420D01*
X364970D01*
G02X365170Y-250230I1136J-995D01*
G03Y-249920I-127J155D01*
G02X365110Y-249860I965J1025D01*
G01X362540D01*
Y-247860D01*
X364690D01*
Y-247300D01*
X362540D01*
Y-245300D01*
X364640D01*
Y-243120D01*
X362780D01*
Y-237760D01*
X369320D01*
Y-243120D01*
X367460D01*
Y-244280D01*
X367510Y-244330D01*
Y-244890D01*
X370620D01*
G02X372880Y-247450I979J-1413D01*
G03Y-247710I151J-130D01*
G02X373240Y-249390I-1279J-1153D01*
G03X373620Y-249910I380J-121D01*
G01X377300D01*
G02Y-252930I820J-1510D01*
G01X369660D01*
Y-254980D01*
X367230D01*
G02X367100Y-255110I-1130J1000D01*
G03Y-255410I134J-150D01*
G02X367230Y-255540I-1000J-1130D01*
G01X369660D01*
Y-257590D01*
X373100D01*
G02Y-260610I820J-1510D01*
G01X369660D01*
Y-262700D01*
X373100D01*
G02Y-265720I820J-1510D01*
G01X369660D01*
Y-267770D01*
G37*
G36*
G01X347610Y-275450D02*
X340490D01*
Y-273300D01*
X339520D01*
X339490Y-273270D01*
X328700D01*
G02X327910Y-273030I0J1420D01*
G01X324930D01*
Y-252770D01*
X327910D01*
G02X328700Y-252530I790J-1180D01*
G01X340490D01*
Y-250270D01*
X339530D01*
G02X337270Y-247710I-979J1413D01*
G03Y-247450I-151J130D01*
G02X339530Y-244890I1281J1147D01*
G01X342640D01*
Y-243890D01*
X342540Y-243790D01*
Y-242820D01*
X340680D01*
Y-237460D01*
X347220D01*
Y-242820D01*
X345460D01*
Y-245300D01*
X347610D01*
Y-247300D01*
X345460D01*
Y-247860D01*
X347610D01*
Y-249860D01*
X345040D01*
G02X344810Y-250050I-1008J985D01*
G01X344910Y-250420D01*
X347610D01*
Y-252420D01*
X344910D01*
X344810Y-252790D01*
G02X345040Y-252980I-778J-1175D01*
G01X347610D01*
Y-254980D01*
X345040D01*
G02X344910Y-255100I-1019J973D01*
G03Y-255420I117J-160D01*
G02X345040Y-255540I-889J-1093D01*
G01X347610D01*
Y-257540D01*
X345040D01*
G02X344910Y-257660I-1019J973D01*
G03Y-257980I117J-160D01*
G02X345040Y-258100I-889J-1093D01*
G01X347610D01*
Y-260100D01*
X345040D01*
G02X344910Y-260220I-1019J973D01*
G03Y-260530I124J-155D01*
G02X345040Y-260650I-889J-1093D01*
G01X347610D01*
Y-262650D01*
X345040D01*
G02X344910Y-262770I-1019J973D01*
G03Y-263090I117J-160D01*
G02X345040Y-263210I-889J-1093D01*
G01X347610D01*
Y-265210D01*
X345040D01*
G02X344910Y-265330I-1019J973D01*
G03Y-265650I117J-160D01*
G02X345040Y-265770I-889J-1093D01*
G01X347610D01*
Y-267770D01*
X345040D01*
G02X344910Y-267890I-1019J973D01*
G03Y-268210I117J-160D01*
G02X345040Y-268330I-889J-1093D01*
G01X347610D01*
Y-270330D01*
X345040D01*
G02X344910Y-270450I-1019J973D01*
G03Y-270770I117J-160D01*
G02X345040Y-270890I-889J-1093D01*
G01X347610D01*
Y-272890D01*
X345040D01*
G02X344810Y-273080I-1008J985D01*
G01X344910Y-273450D01*
X347610D01*
Y-275450D01*
G37*
G36*
G01X-198130Y-305170D02*
Y-305220D01*
G02X-200790Y-303690I-1718J90D01*
G01X-200750Y-303660D01*
X-199100Y-300800D01*
X-200110Y-300220D01*
X-196840Y-294560D01*
X-193940Y-296240D01*
X-193440Y-296110D01*
Y-295940D01*
X-191490Y-295410D01*
G03X-191390Y-294680I-104J386D01*
G01X-195660Y-292220D01*
X-192390Y-286560D01*
X-191890Y-286860D01*
G03X-191290Y-286510I199J348D01*
G01Y-284910D01*
X-188530Y-282140D01*
X-188570Y-282030D01*
G02X-186530Y-284140I3321J1169D01*
G01X-188470Y-286070D01*
Y-287940D01*
X-188860Y-288610D01*
X-187760Y-289240D01*
X-190810Y-294530D01*
G03X-190360Y-295110I347J-196D01*
G01X-187840Y-294440D01*
X-185570Y-290500D01*
X-180940Y-293180D01*
X-184210Y-298840D01*
X-187110Y-297160D01*
X-190620Y-298100D01*
Y-298270D01*
X-193210Y-298970D01*
X-195480Y-302900D01*
X-196480Y-302310D01*
X-198130Y-305170D01*
G37*
G36*
G01X202920Y-362790D02*
X196380D01*
Y-357430D01*
X198240D01*
Y-356620D01*
X198190Y-356570D01*
Y-355600D01*
X196040D01*
Y-353450D01*
X195230D01*
X195180Y-353480D01*
G02Y-350600I-940J1440D01*
G01X195230Y-350630D01*
X196040D01*
Y-348480D01*
X198740D01*
X198840Y-348110D01*
G02X198610Y-347920I778J1175D01*
G01X196040D01*
Y-345920D01*
X198610D01*
G02X198740Y-345800I1019J-973D01*
G03Y-345480I-117J160D01*
G02X198610Y-345360I889J1093D01*
G01X196040D01*
Y-343360D01*
X198610D01*
G02X198740Y-343240I1019J-973D01*
G03Y-342920I-117J160D01*
G02X198610Y-342800I889J1093D01*
G01X196040D01*
Y-340800D01*
X198610D01*
G02X198740Y-340680I1019J-973D01*
G03Y-340370I-124J155D01*
G02X198610Y-340250I889J1093D01*
G01X196040D01*
Y-338250D01*
X198610D01*
G02X198740Y-338130I1019J-973D01*
G03Y-337810I-117J160D01*
G02X198610Y-337690I889J1093D01*
G01X196040D01*
Y-335690D01*
X198610D01*
G02X198740Y-335570I1019J-973D01*
G03Y-335250I-117J160D01*
G02X198610Y-335130I889J1093D01*
G01X196040D01*
Y-333130D01*
X198610D01*
G02X198740Y-333010I1019J-973D01*
G03Y-332690I-117J160D01*
G02X198610Y-332570I889J1093D01*
G01X196040D01*
Y-330570D01*
X198610D01*
G02X198740Y-330450I1019J-973D01*
G03Y-330130I-117J160D01*
G02X198610Y-330010I889J1093D01*
G01X196040D01*
Y-328010D01*
X198610D01*
G02X198840Y-327820I1008J-985D01*
G01X198740Y-327450D01*
X196040D01*
Y-325450D01*
X203160D01*
Y-327600D01*
X207900D01*
X207920Y-327580D01*
X212650D01*
G02X213440Y-327820I0J-1420D01*
G01X216420D01*
Y-348080D01*
X213440D01*
G02X212650Y-348320I-790J1180D01*
G01X209080D01*
X209070Y-348330D01*
X203160D01*
Y-350480D01*
X200460D01*
X200360Y-350850D01*
G02X200590Y-351040I-778J-1175D01*
G01X203160D01*
Y-353190D01*
X203510D01*
X203560Y-353160D01*
G02X203520Y-356010I941J-1438D01*
G01X201060D01*
Y-357430D01*
X202920D01*
Y-362790D01*
G37*
G36*
G01X150810Y-399920D02*
X143690D01*
Y-397920D01*
X146390D01*
X146490Y-397550D01*
G02X146260Y-397360I778J1175D01*
G01X143690D01*
Y-395360D01*
X146260D01*
G02X146390Y-395240I1019J-973D01*
G03Y-394920I-117J160D01*
G02X146260Y-394800I889J1093D01*
G01X143690D01*
Y-392800D01*
X145840D01*
Y-391830D01*
X145890Y-391780D01*
Y-390370D01*
X144030D01*
Y-385010D01*
X150570D01*
Y-390370D01*
X148710D01*
Y-392390D01*
X150670D01*
G02X152930Y-394950I979J-1413D01*
G03Y-395210I151J-130D01*
G02X151290Y-398040I-1280J-1149D01*
G03X150810Y-398430I-80J-393D01*
G01Y-399920D01*
G37*
G36*
G01X172860Y-420390D02*
X165740D01*
Y-418390D01*
X168440D01*
X168540Y-418020D01*
G02X168310Y-417830I778J1175D01*
G01X165740D01*
Y-415830D01*
X168310D01*
G02X168440Y-415710I1019J-973D01*
G03Y-415390I-117J160D01*
G02X168310Y-415270I889J1093D01*
G01X165740D01*
Y-413270D01*
X168310D01*
G02X168440Y-413150I1019J-973D01*
G03Y-412830I-117J160D01*
G02X168310Y-412710I889J1093D01*
G01X165740D01*
Y-410660D01*
X164970D01*
X164930Y-410680D01*
G02Y-407620I-780J1530D01*
G01X164970Y-407640D01*
X165740D01*
Y-405600D01*
X172860D01*
Y-407600D01*
X170350D01*
X170230Y-407960D01*
G02X170430Y-408150I-936J-1185D01*
G01X172860D01*
Y-410300D01*
X175060D01*
G02X175820Y-413420I980J-1414D01*
G03X175380Y-413900I-51J-395D01*
G02Y-414640I-1680J-370D01*
G03X175820Y-415120I389J-85D01*
G02X175060Y-418240I220J-1706D01*
G01X172860D01*
Y-420390D01*
G37*
G36*
G01X150810Y-422950D02*
X143690D01*
Y-420800D01*
X142720D01*
X142440Y-420520D01*
X135250D01*
G02X134460Y-420280I0J1420D01*
G01X131480D01*
Y-400020D01*
X139020D01*
Y-410020D01*
X143690D01*
Y-408150D01*
X150810D01*
Y-410150D01*
X148110D01*
X148010Y-410520D01*
G02X148240Y-410710I-778J-1175D01*
G01X150810D01*
Y-412710D01*
X148240D01*
G02X148110Y-412830I-1019J973D01*
G03Y-413150I117J-160D01*
G02X148240Y-413270I-889J-1093D01*
G01X150810D01*
Y-415270D01*
X148240D01*
G02X148110Y-415390I-1019J973D01*
G03Y-415710I117J-160D01*
G02X148240Y-415830I-889J-1093D01*
G01X150810D01*
Y-417830D01*
X148240D01*
G02X148110Y-417950I-1019J973D01*
G03Y-418270I117J-160D01*
G02X148240Y-418390I-889J-1093D01*
G01X150810D01*
Y-420390D01*
X148240D01*
G02X148010Y-420580I-1008J985D01*
G01X148110Y-420950D01*
X150810D01*
Y-422950D01*
G37*
G36*
G01X-199140Y-430440D02*
X-206260D01*
Y-428290D01*
X-207130D01*
X-207180Y-428320D01*
G02Y-425440I-940J1440D01*
G01X-207130Y-425470D01*
X-206260D01*
Y-423170D01*
X-207130D01*
X-207180Y-423200D01*
G02Y-420320I-940J1440D01*
G01X-207130Y-420350D01*
X-206260D01*
Y-418060D01*
X-207130D01*
X-207180Y-418090D01*
G02Y-415210I-940J1440D01*
G01X-207130Y-415240D01*
X-206260D01*
Y-412940D01*
X-207130D01*
X-207180Y-412970D01*
G02Y-410090I-940J1440D01*
G01X-207130Y-410120D01*
X-206260D01*
Y-407670D01*
X-207730D01*
G02X-210180Y-405260I-1171J1260D01*
G03Y-405000I-151J130D01*
G02X-207730Y-402590I1279J1150D01*
G01X-204110D01*
Y-400670D01*
X-205970D01*
Y-395310D01*
X-199430D01*
Y-400670D01*
X-201290D01*
Y-402850D01*
X-199140D01*
Y-404850D01*
X-201710D01*
G02X-201940Y-405040I-1008J985D01*
G01X-201840Y-405410D01*
X-199140D01*
Y-407460D01*
X-190850D01*
G02Y-410480I820J-1510D01*
G01X-199140D01*
Y-412580D01*
X-187910D01*
G02Y-415600I820J-1510D01*
G01X-199140D01*
Y-417690D01*
X-188020D01*
G02Y-420710I820J-1510D01*
G01X-199140D01*
Y-422810D01*
X-188140D01*
G02Y-425830I820J-1510D01*
G01X-199140D01*
Y-427880D01*
X-201710D01*
G02X-201940Y-428070I-1008J985D01*
G01X-201840Y-428440D01*
X-199140D01*
Y-430440D01*
G37*
G36*
G01X-221190Y-433000D02*
X-228310D01*
Y-430920D01*
X-234850D01*
G02X-235640Y-430680I0J1420D01*
G01X-238620D01*
Y-410420D01*
X-235640D01*
G02X-234850Y-410180I790J-1180D01*
G01X-229340D01*
X-229280Y-410120D01*
X-228310D01*
Y-407670D01*
X-229780D01*
G02X-232230Y-405260I-1171J1260D01*
G03Y-405000I-151J130D01*
G02X-229780Y-402590I1279J1150D01*
G01X-226160D01*
Y-400320D01*
X-228020D01*
Y-394960D01*
X-221480D01*
Y-400320D01*
X-223340D01*
Y-402850D01*
X-221190D01*
Y-404850D01*
X-223340D01*
Y-405410D01*
X-221190D01*
Y-407410D01*
X-223760D01*
G02X-223990Y-407600I-1008J985D01*
G01X-223890Y-407970D01*
X-221190D01*
Y-409970D01*
X-223890D01*
X-223990Y-410340D01*
G02X-223760Y-410530I-778J-1175D01*
G01X-221190D01*
Y-412530D01*
X-223760D01*
G02X-223890Y-412650I-1019J973D01*
G03Y-412970I117J-160D01*
G02X-223760Y-413090I-889J-1093D01*
G01X-221190D01*
Y-415090D01*
X-223760D01*
G02X-223890Y-415210I-1019J973D01*
G03Y-415530I117J-160D01*
G02X-223760Y-415650I-889J-1093D01*
G01X-221190D01*
Y-417650D01*
X-223760D01*
G02X-223890Y-417770I-1019J973D01*
G03Y-418080I124J-155D01*
G02X-223760Y-418200I-889J-1093D01*
G01X-221190D01*
Y-420200D01*
X-223760D01*
G02X-223890Y-420320I-1019J973D01*
G03Y-420640I117J-160D01*
G02X-223760Y-420760I-889J-1093D01*
G01X-221190D01*
Y-422760D01*
X-223760D01*
G02X-223890Y-422880I-1019J973D01*
G03Y-423200I117J-160D01*
G02X-223760Y-423320I-889J-1093D01*
G01X-221190D01*
Y-425320D01*
X-223760D01*
G02X-223890Y-425440I-1019J973D01*
G03Y-425760I117J-160D01*
G02X-223760Y-425880I-889J-1093D01*
G01X-221190D01*
Y-427880D01*
X-223760D01*
G02X-223890Y-428000I-1019J973D01*
G03Y-428320I117J-160D01*
G02X-223760Y-428440I-889J-1093D01*
G01X-221190D01*
Y-430440D01*
X-223760D01*
G02X-223990Y-430630I-1008J985D01*
G01X-223890Y-431000D01*
X-221190D01*
Y-433000D01*
G37*
G36*
G01X285520Y0D02*
G02I-285520J0D01*
G37*
G36*
G01X424630Y-433250D02*
X424640Y-433140D01*
X416910Y-425410D01*
X345710D01*
Y-426160D01*
X338190D01*
Y-424090D01*
G02Y-414710I3760J4690D01*
G01Y-412640D01*
X345710D01*
Y-413390D01*
X421890D01*
X433140Y-424640D01*
X433250Y-424630D01*
G02X424630Y-433250I1750J-10370D01*
G37*
G36*
G01X28470Y-432860D02*
X28460Y-432800D01*
X25140Y-429480D01*
Y-421640D01*
X24600D01*
Y-404440D01*
X28500D01*
Y-421640D01*
X27960D01*
Y-428320D01*
X30450Y-430810D01*
X30510Y-430820D01*
G02X31590Y-433440I-360J-1681D01*
G01X31560Y-433490D01*
Y-433780D01*
X33420D01*
Y-439140D01*
X26880D01*
Y-433780D01*
X28740D01*
Y-433490D01*
X28710Y-433440D01*
G02X28470Y-432860I1442J936D01*
G37*
G36*
G01X36670Y-432810D02*
X36660Y-432750D01*
X30140Y-426230D01*
Y-421640D01*
X29600D01*
Y-404440D01*
X33500D01*
Y-421640D01*
X32960D01*
Y-425070D01*
X38650Y-430760D01*
X38710Y-430770D01*
G02X39790Y-433390I-360J-1681D01*
G01X39760Y-433440D01*
Y-433730D01*
X41620D01*
Y-439090D01*
X35080D01*
Y-433730D01*
X36940D01*
Y-433440D01*
X36910Y-433390D01*
G02X36670Y-432810I1442J936D01*
G37*
G36*
G01X18730Y-433680D02*
X20590D01*
Y-433390D01*
X20560Y-433340D01*
G02X20590Y-431420I1441J938D01*
G01Y-421640D01*
X19600D01*
Y-404440D01*
X23500D01*
Y-421640D01*
X23410D01*
Y-431420D01*
G02X23440Y-433340I-1411J-982D01*
G01X23410Y-433390D01*
Y-433680D01*
X25270D01*
Y-439040D01*
X18730D01*
Y-433680D01*
G37*
G36*
G01X12170Y-432710D02*
X12160Y-432650D01*
X10140Y-430630D01*
Y-421640D01*
X9600D01*
Y-404440D01*
X13500D01*
Y-421640D01*
X12960D01*
Y-429470D01*
X14150Y-430660D01*
X14210Y-430670D01*
G02X15290Y-433290I-360J-1681D01*
G01X15260Y-433340D01*
Y-433630D01*
X17120D01*
Y-438990D01*
X10580D01*
Y-433630D01*
X12440D01*
Y-433340D01*
X12410Y-433290D01*
G02X12170Y-432710I1442J936D01*
G37*
G36*
G01X44820D02*
X44810Y-432650D01*
X35140Y-422980D01*
Y-421640D01*
X34600D01*
Y-404440D01*
X38500D01*
Y-421640D01*
X38270D01*
G03X38130Y-421980I0J-199D01*
G01X46800Y-430660D01*
X46860Y-430670D01*
G02X47940Y-433290I-360J-1681D01*
G01X47910Y-433340D01*
Y-433630D01*
X49770D01*
Y-438990D01*
X43230D01*
Y-433630D01*
X45090D01*
Y-433340D01*
X45060Y-433290D01*
G02X44820Y-432710I1442J936D01*
G37*
G36*
G01X4120Y-432660D02*
X4110Y-432600D01*
X140Y-428630D01*
Y-421640D01*
X-400D01*
Y-404440D01*
X3500D01*
Y-421640D01*
X2960D01*
Y-427470D01*
X6100Y-430610D01*
X6160Y-430620D01*
G02X7240Y-433240I-360J-1681D01*
G01X7210Y-433290D01*
Y-433580D01*
X9070D01*
Y-438940D01*
X2530D01*
Y-433580D01*
X4390D01*
Y-433290D01*
X4360Y-433240D01*
G02X4120Y-432660I1442J936D01*
G37*
G36*
G01X-3980Y-432610D02*
X-3990Y-432550D01*
X-5200Y-431340D01*
Y-421640D01*
X-5400D01*
Y-404440D01*
X-1500D01*
Y-421640D01*
X-2380D01*
Y-430180D01*
X-2000Y-430560D01*
X-1940Y-430570D01*
G02X-860Y-433190I-360J-1681D01*
G01X-890Y-433240D01*
Y-433530D01*
X970D01*
Y-438890D01*
X-5570D01*
Y-433530D01*
X-3710D01*
Y-433240D01*
X-3740Y-433190D01*
G02X-3980Y-432610I1442J936D01*
G37*
G36*
G01X-12040Y-421640D02*
Y-427830D01*
X-16710Y-432500D01*
X-16720Y-432560D01*
G02X-16960Y-433140I-1682J356D01*
G01X-16990Y-433190D01*
Y-433480D01*
X-15130D01*
Y-438840D01*
X-21670D01*
Y-433480D01*
X-19810D01*
Y-433190D01*
X-19840Y-433140D01*
G02X-18760Y-430520I1440J939D01*
G01X-18700Y-430510D01*
X-14860Y-426670D01*
Y-421640D01*
X-15400D01*
Y-404440D01*
X-11500D01*
Y-421640D01*
X-12040D01*
G37*
G36*
G01X-7040D02*
Y-430880D01*
X-8660Y-432500D01*
X-8670Y-432560D01*
G02X-8910Y-433140I-1682J356D01*
G01X-8940Y-433190D01*
Y-433480D01*
X-7080D01*
Y-438840D01*
X-13620D01*
Y-433480D01*
X-11760D01*
Y-433190D01*
X-11790Y-433140D01*
G02X-10710Y-430520I1440J939D01*
G01X-10650Y-430510D01*
X-9860Y-429720D01*
Y-421640D01*
X-10400D01*
Y-404440D01*
X-6500D01*
Y-421640D01*
X-7040D01*
G37*
G36*
G01X-26860Y-430470D02*
X-26800Y-430460D01*
X-19860Y-423520D01*
Y-421640D01*
X-20400D01*
Y-404440D01*
X-16500D01*
Y-421640D01*
X-17040D01*
Y-424680D01*
X-24810Y-432450D01*
X-24820Y-432510D01*
G02X-25060Y-433090I-1682J356D01*
G01X-25090Y-433140D01*
Y-433430D01*
X-23230D01*
Y-438790D01*
X-29770D01*
Y-433430D01*
X-27910D01*
Y-433140D01*
X-27940Y-433090D01*
G02X-26860Y-430470I1440J939D01*
G37*
G36*
G01X-239730Y-321240D02*
X-146160D01*
X-136690Y-311770D01*
X-136720Y-311660D01*
G02X-134090Y-314290I3430J800D01*
G01X-134200Y-314260D01*
X-144700Y-324760D01*
X-238270D01*
X-242240Y-328730D01*
Y-427730D01*
X-245780Y-431270D01*
X-262450D01*
G02X-263350Y-431020I4J1759D01*
G01X-271580D01*
G02Y-428000I-820J1510D01*
G01X-270670D01*
G03X-270290Y-427480I0J399D01*
G02Y-426420I1640J530D01*
G03X-270670Y-425900I-380J121D01*
G01X-271580D01*
G02Y-422880I-820J1510D01*
G01X-270670D01*
G03X-270290Y-422360I0J399D01*
G02Y-421300I1640J530D01*
G03X-270670Y-420780I-380J121D01*
G01X-271580D01*
G02Y-417760I-820J1510D01*
G01X-270670D01*
G03X-270290Y-417240I0J399D01*
G02Y-416180I1640J530D01*
G03X-270670Y-415660I-380J121D01*
G01X-271580D01*
G02Y-412640I-820J1510D01*
G01X-270670D01*
G03X-270290Y-412120I0J399D01*
G02X-267670Y-410180I1637J528D01*
G01X-262450D01*
G02X-261660Y-410420I0J-1420D01*
G01X-258680D01*
Y-425190D01*
X-254270D01*
X-254010Y-425080D01*
G02X-253640Y-424960I724J-1602D01*
G01X-253060Y-424850D01*
X-252340D01*
X-250760Y-423270D01*
Y-321270D01*
X-243730Y-314240D01*
X-152820D01*
X-145350Y-306770D01*
X-145380Y-306660D01*
G02X-142750Y-309290I3430J800D01*
G01X-142860Y-309260D01*
X-151360Y-317760D01*
X-242270D01*
X-247240Y-322730D01*
Y-424730D01*
X-249580Y-427070D01*
G03X-249290Y-427750I285J-280D01*
G01X-247240D01*
X-245760Y-426270D01*
Y-327270D01*
X-239730Y-321240D01*
G37*
G36*
G01X5240Y-422430D02*
X5290Y-422380D01*
Y-421640D01*
X4600D01*
Y-404440D01*
X8500D01*
Y-421640D01*
X7810D01*
Y-422380D01*
X7860Y-422430D01*
G02X5240I-1310J-1120D01*
G37*
G36*
G01X15240D02*
X15290Y-422380D01*
Y-421640D01*
X14600D01*
Y-414190D01*
G02X14290Y-413040I1952J1143D01*
G01Y-394850D01*
G02X14600Y-393700I2262J7D01*
G01Y-386250D01*
X15290D01*
Y-385510D01*
X15240Y-385460D01*
G02X17860I1310J1120D01*
G01X17810Y-385510D01*
Y-386250D01*
X18500D01*
Y-393700D01*
G02X18810Y-394850I-1952J-1143D01*
G01Y-413040D01*
G02X18500Y-414190I-2262J-7D01*
G01Y-421640D01*
X17810D01*
Y-422380D01*
X17860Y-422430D01*
G02X15240I-1310J-1120D01*
G37*
G36*
G01X107650Y-420520D02*
X101780D01*
G02X100900Y-417390I-981J1413D01*
G03X101310Y-416910I19J399D01*
G02Y-416190I1680J360D01*
G03X100900Y-415710I-391J81D01*
G02X101780Y-412580I-101J1717D01*
G01X103880D01*
Y-400020D01*
X111420D01*
Y-409920D01*
X113660D01*
G02X115530Y-412640I1339J-1083D01*
G01X115490Y-412650D01*
X115200Y-412940D01*
X111420D01*
Y-420280D01*
X108440D01*
G02X107650Y-420520I-790J1180D01*
G37*
G36*
G01X-41500Y-386250D02*
Y-403450D01*
X-45400D01*
Y-386250D01*
X-44710D01*
Y-385510D01*
X-44760Y-385460D01*
G02X-42140I1310J1120D01*
G01X-42190Y-385510D01*
Y-386250D01*
X-41500D01*
G37*
G36*
G01X-39710D02*
Y-385510D01*
X-39760Y-385460D01*
G02X-37140I1310J1120D01*
G01X-37190Y-385510D01*
Y-386250D01*
X-36500D01*
Y-403450D01*
X-40400D01*
Y-386250D01*
X-39710D01*
G37*
G36*
G01X-34710D02*
Y-385510D01*
X-34760Y-385460D01*
G02X-32140I1310J1120D01*
G01X-32190Y-385510D01*
Y-386250D01*
X-31500D01*
Y-403450D01*
X-35400D01*
Y-386250D01*
X-34710D01*
G37*
G36*
G01X-29710D02*
Y-385510D01*
X-29760Y-385460D01*
G02X-27140I1310J1120D01*
G01X-27190Y-385510D01*
Y-386250D01*
X-26500D01*
Y-403450D01*
X-30400D01*
Y-386250D01*
X-29710D01*
G37*
G36*
G01X-24710D02*
Y-385510D01*
X-24760Y-385460D01*
G02X-22140I1310J1120D01*
G01X-22190Y-385510D01*
Y-386250D01*
X-21500D01*
Y-403450D01*
X-25400D01*
Y-386250D01*
X-24710D01*
G37*
G36*
G01X-19710D02*
Y-385510D01*
X-19760Y-385460D01*
G02X-17140I1310J1120D01*
G01X-17190Y-385510D01*
Y-386250D01*
X-16500D01*
Y-403450D01*
X-20400D01*
Y-386250D01*
X-19710D01*
G37*
G36*
G01X-14710D02*
Y-385510D01*
X-14760Y-385460D01*
G02X-12140I1310J1120D01*
G01X-12190Y-385510D01*
Y-386250D01*
X-11500D01*
Y-403450D01*
X-15400D01*
Y-386250D01*
X-14710D01*
G37*
G36*
G01X-9710D02*
Y-385510D01*
X-9760Y-385460D01*
G02X-7140I1310J1120D01*
G01X-7190Y-385510D01*
Y-386250D01*
X-6500D01*
Y-403450D01*
X-10400D01*
Y-386250D01*
X-9710D01*
G37*
G36*
G01X-4710D02*
Y-385510D01*
X-4760Y-385460D01*
G02X-2140I1310J1120D01*
G01X-2190Y-385510D01*
Y-386250D01*
X-1500D01*
Y-403450D01*
X-5400D01*
Y-386250D01*
X-4710D01*
G37*
G36*
G01X290D02*
Y-385510D01*
X240Y-385460D01*
G02X2860I1310J1120D01*
G01X2810Y-385510D01*
Y-386250D01*
X3500D01*
Y-403450D01*
X-400D01*
Y-386250D01*
X290D01*
G37*
G36*
G01X5290D02*
Y-385510D01*
X5240Y-385460D01*
G02X7860I1310J1120D01*
G01X7810Y-385510D01*
Y-386250D01*
X8500D01*
Y-403450D01*
X4600D01*
Y-386250D01*
X5290D01*
G37*
G36*
G01X10290D02*
Y-385510D01*
X10240Y-385460D01*
G02X12860I1310J1120D01*
G01X12810Y-385510D01*
Y-386250D01*
X13500D01*
Y-403450D01*
X9600D01*
Y-386250D01*
X10290D01*
G37*
G36*
G01X20290D02*
Y-385510D01*
X20240Y-385460D01*
G02X20140Y-383360I1310J1115D01*
G01Y-375870D01*
X18330D01*
Y-370510D01*
X24870D01*
Y-375870D01*
X23010D01*
Y-376840D01*
X22960Y-376890D01*
Y-383360D01*
G02X22860Y-385460I-1410J-985D01*
G01X22810Y-385510D01*
Y-386250D01*
X23500D01*
Y-403450D01*
X19600D01*
Y-386250D01*
X20290D01*
G37*
G36*
G01X25290D02*
Y-385510D01*
X25240Y-385460D01*
G02X25140Y-383360I1310J1115D01*
G01Y-379080D01*
X27670Y-376550D01*
G03X27380Y-375870I-284J281D01*
G01X26680D01*
Y-370510D01*
X33220D01*
Y-375870D01*
X31360D01*
Y-376840D01*
X27960Y-380240D01*
Y-383360D01*
G02X27860Y-385460I-1410J-985D01*
G01X27810Y-385510D01*
Y-386250D01*
X28500D01*
Y-403450D01*
X24600D01*
Y-386250D01*
X25290D01*
G37*
G36*
G01X172860Y-399920D02*
X165740D01*
Y-397920D01*
X168440D01*
X168540Y-397550D01*
G02X168310Y-397360I778J1175D01*
G01X165740D01*
Y-395870D01*
G03X165260Y-395480I-400J-3D01*
G02X165880Y-392390I-362J1680D01*
G01X167840D01*
Y-390370D01*
X165980D01*
Y-385010D01*
X172520D01*
Y-390370D01*
X170660D01*
Y-391780D01*
X170710Y-391830D01*
Y-392800D01*
X172860D01*
Y-394240D01*
G03X173260Y-394640I400J0D01*
G02Y-398080I-20J-1720D01*
G03X172860Y-398480I0J-400D01*
G01Y-399920D01*
G37*
G36*
G01X-166180Y-380080D02*
Y-385440D01*
X-172720D01*
Y-380080D01*
X-170860D01*
Y-375720D01*
X-172120D01*
Y-373860D01*
X-173090D01*
X-173190Y-373760D01*
X-176640D01*
Y-375260D01*
X-181660D01*
Y-369440D01*
X-176640D01*
Y-370940D01*
X-172120D01*
Y-369180D01*
X-166760D01*
Y-375720D01*
X-168030D01*
Y-376690D01*
X-168040Y-376700D01*
Y-380080D01*
X-166180D01*
G37*
G36*
G01X-185240Y-375260D02*
Y-376680D01*
G02X-188060I-1410J-980D01*
G01Y-375260D01*
X-189160D01*
Y-373760D01*
X-190130D01*
X-190230Y-373660D01*
X-193880D01*
Y-375520D01*
X-199240D01*
Y-368980D01*
X-198070D01*
Y-367760D01*
G02X-195050I1510J820D01*
G01Y-368980D01*
X-193880D01*
Y-370840D01*
X-189160D01*
Y-369440D01*
X-184140D01*
Y-375260D01*
X-185240D01*
G37*
G36*
G01X-201760Y-368980D02*
Y-375520D01*
X-207120D01*
Y-373660D01*
X-208770D01*
G02Y-370840I-980J1410D01*
G01X-207120D01*
Y-368980D01*
X-205850D01*
Y-359540D01*
G02X-203030I1410J980D01*
G01Y-368980D01*
X-201760D01*
G37*
G36*
G01X-10650Y-367220D02*
G02X-13670I-1510J-820D01*
G01Y-364020D01*
X-14940D01*
Y-357480D01*
X-13570D01*
Y-355370D01*
X-14840D01*
Y-348830D01*
X-9480D01*
Y-355370D01*
X-10750D01*
Y-357480D01*
X-9580D01*
Y-364020D01*
X-10650D01*
Y-367220D01*
G37*
G36*
G01X20190Y-362630D02*
Y-361180D01*
G02X23010I1410J980D01*
G01Y-362630D01*
X24870D01*
Y-367990D01*
X18330D01*
Y-362630D01*
X20190D01*
G37*
G36*
G01X28540D02*
Y-361180D01*
G02X31360I1410J980D01*
G01Y-362630D01*
X33220D01*
Y-367990D01*
X26680D01*
Y-362630D01*
X28540D01*
G37*
G36*
G01X34780Y-362580D02*
X36640D01*
Y-361130D01*
G02X39460I1410J980D01*
G01Y-362580D01*
X41320D01*
Y-367940D01*
X34780D01*
Y-362580D01*
G37*
G36*
G01X44740D02*
Y-361130D01*
G02X47560I1410J980D01*
G01Y-362580D01*
X49420D01*
Y-367940D01*
X42880D01*
Y-362580D01*
X44740D01*
G37*
G36*
G01X-48590Y-339090D02*
Y-360170D01*
X-46600Y-362150D01*
G02X-48600Y-364150I-1000J-1000D01*
G01X-51410Y-361330D01*
Y-339090D01*
G02X-48590I1410J3230D01*
G37*
G36*
G01X-17460Y-357480D02*
Y-364020D01*
X-22820D01*
Y-362510D01*
X-24610D01*
G02Y-358990I0J1760D01*
G01X-22820D01*
Y-357480D01*
X-17460D01*
G37*
G36*
G01X-66640Y-356440D02*
Y-363460D01*
X-73660D01*
Y-361710D01*
X-74620D01*
G02Y-358190I0J1760D01*
G01X-73660D01*
Y-356440D01*
X-66640D01*
G37*
G36*
G01X-21450Y-348830D02*
Y-339070D01*
G02X-18590Y-339090I1453J3209D01*
G01Y-340340D01*
X-18630Y-340380D01*
Y-348830D01*
X-17360D01*
Y-355370D01*
X-22720D01*
Y-348830D01*
X-21450D01*
G37*
G36*
G01X121250Y-343500D02*
X124770Y-349580D01*
X118690Y-353100D01*
X117810Y-351580D01*
X116980Y-352060D01*
G02X115220Y-349000I-880J1530D01*
G01X116050Y-348530D01*
X115170Y-347020D01*
X121250Y-343500D01*
G37*
G36*
G01X-67310Y-345080D02*
Y-351620D01*
X-72670D01*
Y-350110D01*
X-74460D01*
G02Y-346590I0J1760D01*
G01X-72670D01*
Y-345080D01*
X-67310D01*
G37*
G36*
G01X246330Y-344720D02*
G03X246770Y-345200I389J-85D01*
G02X246170Y-348420I219J-1707D01*
G01X240250D01*
G02X239290Y-348080I-5J1512D01*
G01X236480D01*
Y-327820D01*
X239290D01*
G02X240250Y-327480I955J-1172D01*
G01X243830D01*
G02X246330Y-329360I821J-1511D01*
G03X246770Y-329840I389J-85D01*
G02Y-333260I220J-1710D01*
G03X246330Y-333740I-51J-395D01*
G02Y-334480I-1680J-370D01*
G03X246770Y-334960I389J-85D01*
G02Y-338380I220J-1710D01*
G03X246330Y-338860I-51J-395D01*
G02Y-339600I-1680J-370D01*
G03X246770Y-340080I389J-85D01*
G02Y-343500I220J-1710D01*
G03X246330Y-343980I-51J-395D01*
G02Y-344720I-1680J-370D01*
G37*
G36*
G01X114770Y-333000D02*
X118040Y-338660D01*
X113410Y-341340D01*
X112650Y-340030D01*
X111100Y-340930D01*
G02X109340Y-337870I-880J1530D01*
G01X110890Y-336980D01*
X110140Y-335680D01*
X114770Y-333000D01*
G37*
G36*
G01X162520Y-315200D02*
X165790Y-320860D01*
X161160Y-323540D01*
X160400Y-322230D01*
X158850Y-323130D01*
G02X157090Y-320070I-880J1530D01*
G01X158640Y-319180D01*
X157890Y-317880D01*
X162520Y-315200D01*
G37*
G36*
G01X160260Y-306140D02*
X164890Y-303460D01*
X168160Y-309120D01*
X167060Y-309750D01*
X168290Y-311870D01*
X169340Y-311260D01*
X172610Y-316920D01*
X171640Y-317480D01*
X173260Y-320270D01*
X173300Y-320300D01*
G02X170640Y-321830I-942J-1440D01*
G01Y-321780D01*
X169030Y-318990D01*
X167980Y-319600D01*
X164710Y-313940D01*
X165850Y-313280D01*
X164620Y-311160D01*
X163530Y-311800D01*
X160260Y-306140D01*
G37*
G36*
G01X356460Y-315410D02*
Y-319850D01*
G02X351940I-2260J0D01*
G01Y-315410D01*
X347440D01*
Y-307890D01*
X360960D01*
Y-315410D01*
X356460D01*
G37*
G36*
G01X157570Y-307700D02*
X158070Y-307400D01*
X161340Y-313060D01*
X156710Y-315740D01*
X153440Y-310080D01*
X154540Y-309450D01*
X154150Y-308780D01*
Y-306390D01*
X151890Y-304140D01*
G02X153930Y-302030I-1281J3279D01*
G01X153890Y-302140D01*
X156970Y-305230D01*
Y-307350D01*
G03X157570Y-307700I401J-2D01*
G37*
G36*
G01X-187900Y-305530D02*
X-188660Y-306840D01*
X-193290Y-304160D01*
X-190020Y-298500D01*
X-185390Y-301180D01*
X-186140Y-302490D01*
X-184590Y-303390D01*
G02X-186350Y-306430I-880J-1520D01*
G01X-187900Y-305530D01*
G37*
G36*
G01X-244720Y-274990D02*
X-243890Y-275470D01*
X-243010Y-273950D01*
X-236930Y-277470D01*
X-240450Y-283550D01*
X-246530Y-280030D01*
X-245650Y-278520D01*
X-246480Y-278030D01*
G02X-244720Y-274990I880J1520D01*
G37*
G36*
G01X310110Y-263030D02*
X310050Y-263040D01*
X308950Y-264150D01*
G03X309240Y-264830I281J-282D01*
G02X308320Y-267960I62J-1718D01*
G01X306020D01*
X305830Y-268150D01*
X304870D01*
Y-273030D01*
X297330D01*
Y-262880D01*
X292320D01*
G02Y-260360I-1170J1260D01*
G01X292980D01*
G03X293340Y-259790I-1J399D01*
G02Y-258330I1560J730D01*
G03X292980Y-257760I-361J171D01*
G01X292320D01*
G02Y-255240I-1170J1260D01*
G01X292980D01*
G03X293340Y-254670I-1J399D01*
G02X296070Y-252680I1558J730D01*
G01X301100D01*
G02X301540Y-252760I0J-1250D01*
G01X301570Y-252770D01*
X304870D01*
Y-262770D01*
X306340D01*
X308060Y-261050D01*
X308070Y-260990D01*
G02X310110Y-263030I1680J-360D01*
G37*
G36*
G01X-238400Y-264520D02*
X-236850Y-265420D01*
X-236090Y-264110D01*
X-231460Y-266790D01*
X-234730Y-272450D01*
X-239360Y-269770D01*
X-238610Y-268460D01*
X-240160Y-267560D01*
G02X-238400Y-264520I880J1520D01*
G37*
G36*
G01X275720Y-236130D02*
X281800Y-239650D01*
X278280Y-245730D01*
X276770Y-244850D01*
X276280Y-245680D01*
G02X273240Y-243920I-1520J880D01*
G01X273720Y-243090D01*
X272200Y-242210D01*
X275720Y-236130D01*
G37*
G36*
G01X265240Y-231260D02*
X270900Y-234530D01*
X268220Y-239160D01*
X266910Y-238410D01*
X266010Y-239960D01*
G02X262970Y-238200I-1520J880D01*
G01X263870Y-236650D01*
X262560Y-235890D01*
X265240Y-231260D01*
G37*
G36*
G01X298740Y-192610D02*
X304400Y-195880D01*
X301720Y-200510D01*
X300410Y-199760D01*
X299510Y-201310D01*
G02X296470Y-199550I-1520J880D01*
G01X297370Y-198000D01*
X296060Y-197240D01*
X298740Y-192610D01*
G37*
G36*
G01X290260Y-189110D02*
X290890Y-188010D01*
X296550Y-191280D01*
X293870Y-195910D01*
X288210Y-192640D01*
X288510Y-192140D01*
G03X288160Y-191540I-348J199D01*
G01X285160D01*
X282140Y-188530D01*
X282030Y-188570D01*
G02X284140Y-186530I-1169J3321D01*
G01X286320Y-188720D01*
X289590D01*
X290260Y-189110D01*
G37*
G36*
G01X298440Y-187990D02*
X297810Y-189090D01*
X292150Y-185820D01*
X294830Y-181190D01*
X300490Y-184460D01*
X299850Y-185550D01*
X302080Y-186830D01*
X302680Y-185790D01*
X308340Y-189060D01*
X307760Y-190060D01*
X310610Y-191700D01*
X310660D01*
G02X309130Y-194360I-90J-1718D01*
G01X309100Y-194320D01*
X306250Y-192670D01*
X305660Y-193690D01*
X300000Y-190420D01*
X300670Y-189280D01*
X298440Y-187990D01*
G37*
G36*
G01X-306340Y-159960D02*
X-303660Y-164590D01*
X-309320Y-167860D01*
X-309950Y-166760D01*
X-312480Y-168220D01*
X-311910Y-169190D01*
X-317570Y-172460D01*
X-318150Y-171450D01*
X-321010Y-173110D01*
X-321040Y-173150D01*
G02X-322570Y-170490I-1440J942D01*
G01X-322520D01*
X-319660Y-168840D01*
X-320250Y-167830D01*
X-314590Y-164560D01*
X-313890Y-165780D01*
X-311360Y-164320D01*
X-312000Y-163230D01*
X-306340Y-159960D01*
G37*
G36*
G01X-319830Y-158490D02*
X-318530Y-157740D01*
X-315850Y-162370D01*
X-321510Y-165640D01*
X-324190Y-161010D01*
X-322880Y-160250D01*
X-323780Y-158700D01*
G02X-320720Y-156940I1530J880D01*
G01X-319830Y-158490D01*
G37*
G36*
G01X-307600Y-157770D02*
X-313260Y-161040D01*
X-315940Y-156410D01*
X-310280Y-153140D01*
X-309650Y-154240D01*
X-308980Y-153850D01*
X-306090D01*
X-304140Y-151890D01*
X-304180Y-151780D01*
G02X-302030Y-153930I3320J1170D01*
G01X-302140Y-153890D01*
X-304930Y-156670D01*
X-307550D01*
G03X-307900Y-157270I-2J-401D01*
G01X-307600Y-157770D01*
G37*
G36*
G01X-347230Y-117000D02*
X-345720Y-116120D01*
X-342200Y-122200D01*
X-348280Y-125720D01*
X-351800Y-119640D01*
X-350280Y-118760D01*
X-350760Y-117930D01*
G02X-347700Y-116170I1530J880D01*
G01X-347230Y-117000D01*
G37*
G36*
G01X-332350Y-114920D02*
X-338010Y-118190D01*
X-340690Y-113560D01*
X-339380Y-112800D01*
X-340280Y-111250D01*
G02X-337220Y-109490I1530J880D01*
G01X-336330Y-111040D01*
X-335030Y-110290D01*
X-332350Y-114920D01*
G37*
G36*
G01X360810Y-73660D02*
Y-74620D01*
G02X357290I-1760J0D01*
G01Y-73660D01*
X355540D01*
Y-66640D01*
X362560D01*
Y-73660D01*
X360810D01*
G37*
G36*
G01X349210Y-72670D02*
Y-74460D01*
G02X345690I-1760J0D01*
G01Y-72670D01*
X344180D01*
Y-67310D01*
X350720D01*
Y-72670D01*
X349210D01*
G37*
G36*
G01X340340Y-21410D02*
X339090D01*
G02X339060Y-18530I-3229J1407D01*
G01X348230D01*
Y-17260D01*
X354770D01*
Y-22620D01*
X348230D01*
Y-21350D01*
X340400D01*
X340340Y-21410D01*
G37*
G36*
G01X363670Y-21450D02*
Y-22620D01*
X357130D01*
Y-17260D01*
X363670D01*
Y-18430D01*
X369120D01*
G02Y-21450I820J-1510D01*
G01X363670D01*
G37*
G36*
G01X-357330Y-16710D02*
G03X-357690Y-17280I1J-399D01*
G02X-360420Y-19270I-1558J-730D01*
G01X-365450D01*
G02X-365890Y-19190I0J1250D01*
G01X-365920Y-19180D01*
X-369220D01*
Y1080D01*
X-365920D01*
X-365890Y1090D01*
G02X-365450Y1170I440J-1170D01*
G01X-356670D01*
G02Y-1350I1170J-1260D01*
G01X-357330D01*
G03X-357690Y-1920I1J-399D01*
G02Y-3380I-1560J-730D01*
G03X-357330Y-3950I361J-171D01*
G01X-356670D01*
G02Y-6470I1170J-1260D01*
G01X-357330D01*
G03X-357690Y-7040I1J-399D01*
G02Y-8500I-1560J-730D01*
G03X-357330Y-9070I361J-171D01*
G01X-356670D01*
G02Y-11590I1170J-1260D01*
G01X-357330D01*
G03X-357690Y-12160I1J-399D01*
G02Y-13620I-1560J-730D01*
G03X-357330Y-14190I361J-171D01*
G01X-356670D01*
G02Y-16710I1170J-1260D01*
G01X-357330D01*
G37*
G36*
G01X354770Y-13470D02*
Y-14740D01*
X348230D01*
Y-9380D01*
X354770D01*
Y-10650D01*
X357130D01*
Y-9380D01*
X363670D01*
Y-10550D01*
X366970D01*
G02Y-13570I820J-1510D01*
G01X363670D01*
Y-14740D01*
X357130D01*
Y-13470D01*
X354770D01*
G37*
G36*
G01X-359380Y10850D02*
Y9430D01*
X-365920D01*
Y10600D01*
X-369220D01*
G02Y13620I-820J1510D01*
G01X-365920D01*
Y14790D01*
X-359380D01*
Y13670D01*
X-356420D01*
Y14940D01*
X-349880D01*
Y9580D01*
X-356420D01*
Y10850D01*
X-359380D01*
G37*
G36*
G01X-339320Y21550D02*
X-339170Y21410D01*
X-339010Y21570D01*
X-339000Y21600D01*
G02X-339090Y18590I3138J-1600D01*
G01X-340340D01*
X-340480Y18730D01*
X-349880D01*
Y17460D01*
X-356420D01*
Y22820D01*
X-349880D01*
Y21550D01*
X-339320D01*
G37*
G36*
G01X-359380Y22670D02*
Y17310D01*
X-365920D01*
Y22670D01*
X-364410D01*
Y24460D01*
G02X-360890I1760J0D01*
G01Y22670D01*
X-359380D01*
G37*
G36*
G01X-356640Y73560D02*
Y66540D01*
X-363660D01*
Y73560D01*
X-361910D01*
Y74520D01*
G02X-358390I1760J0D01*
G01Y73560D01*
X-356640D01*
G37*
G36*
G01X-346230Y72520D02*
Y67160D01*
X-352770D01*
Y72520D01*
X-351260D01*
Y74310D01*
G02X-347740I1760J0D01*
G01Y72520D01*
X-346230D01*
G37*
G36*
G01X331400Y115270D02*
X337060Y118540D01*
X339740Y113910D01*
X338430Y113150D01*
X339330Y111600D01*
G02X336270Y109840I-1530J-880D01*
G01X335380Y111390D01*
X334080Y110640D01*
X331400Y115270D01*
G37*
G36*
G01X341100Y123000D02*
X347180Y126520D01*
X350700Y120440D01*
X349180Y119560D01*
X349660Y118730D01*
G02X346600Y116970I-1530J-880D01*
G01X346130Y117800D01*
X344620Y116920D01*
X341100Y123000D01*
G37*
G36*
G01X312510Y161740D02*
X315190Y157110D01*
X309530Y153840D01*
X308900Y154940D01*
X308230Y154550D01*
X306790D01*
X304140Y151890D01*
X304180Y151780D01*
G02X302030Y153930I-3320J-1170D01*
G01X302140Y153890D01*
X305630Y157370D01*
X306800D01*
G03X307150Y157970I2J401D01*
G01X306850Y158470D01*
X312510Y161740D01*
G37*
G36*
G01X318930Y158890D02*
X317630Y158140D01*
X314950Y162770D01*
X320610Y166040D01*
X323290Y161410D01*
X321980Y160650D01*
X322880Y159100D01*
G02X319820Y157340I-1530J-880D01*
G01X318930Y158890D01*
G37*
G36*
G01X318760Y169240D02*
X319350Y168230D01*
X313690Y164960D01*
X312890Y166340D01*
X310610Y165020D01*
X311250Y163930D01*
X305590Y160660D01*
X302910Y165290D01*
X308570Y168560D01*
X309200Y167460D01*
X311480Y168780D01*
X311010Y169590D01*
X316670Y172860D01*
X317250Y171850D01*
X320110Y173510D01*
X320140Y173550D01*
G02X321670Y170890I1440J-942D01*
G01X321620D01*
X318760Y169240D01*
G37*
G36*
G01X-306840Y192030D02*
X-306260Y193040D01*
X-300600Y189770D01*
X-301240Y188680D01*
X-299100Y187440D01*
Y187040D01*
X-298490Y186690D01*
X-297860Y187790D01*
X-292200Y184520D01*
X-294880Y179890D01*
X-300540Y183160D01*
X-299900Y184250D01*
X-301920Y185420D01*
Y185820D01*
X-302650Y186240D01*
X-303280Y185140D01*
X-308940Y188410D01*
X-308350Y189410D01*
X-311210Y191060D01*
X-311260D01*
G02X-309730Y193720I90J1718D01*
G01X-309700Y193680D01*
X-306840Y192030D01*
G37*
G36*
G01X-293920Y194610D02*
X-292320Y193680D01*
X-287270Y202460D01*
X-274820D01*
X-274580Y202220D01*
X-274380Y202430D01*
Y202510D01*
G02X-270500Y199070I3519J61D01*
G03X-270740Y198390I41J-397D01*
G01X-267690Y195330D01*
Y190070D01*
X-272070Y185690D01*
X-273760D01*
X-276730Y184900D01*
X-277380Y184720D01*
X-277400Y184600D01*
G02X-278190Y187540I-3459J647D01*
G01X-278110Y187450D01*
X-277450Y187620D01*
X-274140Y188510D01*
X-273230D01*
X-270510Y191230D01*
Y194170D01*
X-275980Y199640D01*
X-285630D01*
X-289870Y192270D01*
X-288260Y191340D01*
X-290940Y186710D01*
X-296600Y189980D01*
X-293920Y194610D01*
G37*
G36*
G01X-296660Y196590D02*
X-299340Y191960D01*
X-305000Y195230D01*
X-302320Y199860D01*
X-301010Y199110D01*
X-300110Y200660D01*
G02X-297070Y198900I1520J-880D01*
G01X-297970Y197350D01*
X-296660Y196590D01*
G37*
G36*
G01X-267870Y238710D02*
X-266560Y237960D01*
X-265660Y239510D01*
G02X-262620Y237750I1520J-880D01*
G01X-263520Y236200D01*
X-262210Y235440D01*
X-264890Y230810D01*
X-270550Y234080D01*
X-267870Y238710D01*
G37*
G36*
G01X-273420Y242990D02*
X-271900Y242110D01*
X-275420Y236030D01*
X-281500Y239550D01*
X-277980Y245630D01*
X-276470Y244750D01*
X-275980Y245580D01*
G02X-272940Y243820I1520J-880D01*
G01X-273420Y242990D01*
G37*
G36*
G01X230810Y265840D02*
X234080Y271500D01*
X238710Y268820D01*
X237960Y267510D01*
X239510Y266610D01*
G02X237750Y263570I-880J-1520D01*
G01X236200Y264470D01*
X235440Y263160D01*
X230810Y265840D01*
G37*
G36*
G01X242260Y273800D02*
X236180Y277320D01*
X239700Y283400D01*
X245780Y279880D01*
X244900Y278370D01*
X245730Y277880D01*
G02X243970Y274840I-880J-1520D01*
G01X243140Y275320D01*
X242260Y273800D01*
G37*
G36*
G01X191110Y295340D02*
X195740Y292660D01*
X192470Y287000D01*
X191970Y287300D01*
G03X191370Y286950I-199J-348D01*
G01Y284990D01*
X188530Y282140D01*
X188570Y282030D01*
G02X186420Y284180I-3320J-1170D01*
G01X186530Y284140D01*
X188550Y286150D01*
Y288380D01*
X188940Y289050D01*
X187840Y289680D01*
X191110Y295340D01*
G37*
G36*
G01X197930Y291400D02*
X199020Y290760D01*
X200440Y293220D01*
X199360Y293840D01*
X202630Y299500D01*
X203630Y298910D01*
X205280Y301770D01*
Y301820D01*
G02X207940Y300290I1718J-90D01*
G01X207900Y300260D01*
X206250Y297400D01*
X207260Y296820D01*
X203990Y291160D01*
X202880Y291810D01*
X201460Y289350D01*
X202560Y288720D01*
X199290Y283060D01*
X194660Y285740D01*
X197930Y291400D01*
G37*
G36*
G01X195070Y302160D02*
X195810Y303440D01*
X200440Y300760D01*
X197170Y295100D01*
X192540Y297780D01*
X193310Y299120D01*
X191290Y300290D01*
G02X193050Y303330I880J1520D01*
G01X195070Y302160D01*
G37*
G36*
G01X-157770Y306600D02*
X-161040Y312260D01*
X-156410Y314940D01*
X-153140Y309280D01*
X-154240Y308650D01*
X-153850Y307980D01*
Y306090D01*
X-151890Y304140D01*
X-151780Y304180D01*
G02X-153930Y302030I1170J-3320D01*
G01X-153890Y302140D01*
X-156670Y304930D01*
Y306550D01*
G03X-157270Y306900I-401J2D01*
G01X-157770Y306600D01*
G37*
G36*
G01X-168990Y318440D02*
X-168030Y319000D01*
X-164760Y313340D01*
X-165720Y312790D01*
X-164320Y310360D01*
X-163230Y311000D01*
X-159960Y305340D01*
X-164590Y302660D01*
X-167860Y308320D01*
X-166760Y308950D01*
X-168160Y311380D01*
X-169390Y310660D01*
X-172660Y316320D01*
X-171610Y316930D01*
X-173250Y319760D01*
X-173290Y319790D01*
G02X-170630Y321320I942J1440D01*
G01Y321270D01*
X-168990Y318440D01*
G37*
G36*
G01X-157940Y317280D02*
X-162570Y314600D01*
X-165840Y320260D01*
X-161210Y322940D01*
X-160450Y321630D01*
X-158900Y322530D01*
G02X-157140Y319470I880J-1530D01*
G01X-158690Y318580D01*
X-157940Y317280D01*
G37*
G36*
G01X-109190Y336770D02*
X-110740Y335880D01*
X-109990Y334580D01*
X-114620Y331900D01*
X-117890Y337560D01*
X-113260Y340240D01*
X-112500Y338930D01*
X-110950Y339830D01*
G02X-109190Y336770I880J-1530D01*
G37*
G36*
G01X18430Y339010D02*
X18590Y339170D01*
X18430Y339340D01*
Y345480D01*
X17160D01*
Y352020D01*
X22520D01*
Y345480D01*
X21250D01*
Y340500D01*
X21410Y340340D01*
Y339090D01*
G02X18400Y339000I-1410J-3228D01*
G01X18430Y339010D01*
G37*
G36*
G01X-118840Y351050D02*
X-117960Y349530D01*
X-117130Y350010D01*
G02X-115370Y346950I880J-1530D01*
G01X-116200Y346480D01*
X-115320Y344970D01*
X-121400Y341450D01*
X-124920Y347530D01*
X-118840Y351050D01*
G37*
G36*
G01X10450Y361670D02*
Y364970D01*
G02X13470I1510J820D01*
G01Y361670D01*
X14640D01*
Y355130D01*
X13370D01*
Y352020D01*
X14640D01*
Y345480D01*
X9280D01*
Y352020D01*
X10550D01*
Y355130D01*
X9280D01*
Y361670D01*
X10450D01*
G37*
G36*
G01X72520Y348090D02*
Y346580D01*
X67160D01*
Y353120D01*
X72520D01*
Y351610D01*
X74310D01*
G02Y348090I0J-1760D01*
G01X72520D01*
G37*
G36*
G01X22520Y356640D02*
Y355130D01*
X17160D01*
Y361670D01*
X22520D01*
Y360160D01*
X24310D01*
G02Y356640I0J-1760D01*
G01X22520D01*
G37*
G36*
G01X73560Y359190D02*
Y357440D01*
X66540D01*
Y364460D01*
X73560D01*
Y362710D01*
X74520D01*
G02Y359190I0J-1760D01*
G01X73560D01*
G37*
G36*
G01X-328410Y-121740D02*
X-334070Y-125010D01*
X-336750Y-120380D01*
X-331090Y-117110D01*
X-328410Y-121740D01*
G37*
G36*
G01X-335700Y-133460D02*
X-341780Y-136980D01*
X-345300Y-130900D01*
X-339220Y-127380D01*
X-335700Y-133460D01*
G37*
G36*
G01X-321060Y-108590D02*
X-327140Y-112110D01*
X-330660Y-106030D01*
X-324580Y-102510D01*
X-321060Y-108590D01*
G37*
G36*
G01X-278400Y230850D02*
X-281920Y224770D01*
X-288000Y228290D01*
X-284480Y234370D01*
X-278400Y230850D01*
G37*
G36*
G01X-266150Y228620D02*
X-268830Y223990D01*
X-274490Y227260D01*
X-271810Y231890D01*
X-266150Y228620D01*
G37*
G36*
G01X-251060Y229830D02*
X-254580Y223750D01*
X-260660Y227270D01*
X-257140Y233350D01*
X-251060Y229830D01*
G37*
G36*
G01X-224640Y-270730D02*
X-227910Y-276390D01*
X-232540Y-273710D01*
X-229270Y-268050D01*
X-224640Y-270730D01*
G37*
G36*
G01X-225670Y-283970D02*
X-229190Y-290050D01*
X-235270Y-286530D01*
X-231750Y-280450D01*
X-225670Y-283970D01*
G37*
G36*
G01X-223750Y-254580D02*
X-227270Y-260660D01*
X-233350Y-257140D01*
X-229830Y-251060D01*
X-223750Y-254580D01*
G37*
G36*
G01X-116810Y330640D02*
X-121440Y327960D01*
X-124710Y333620D01*
X-120080Y336300D01*
X-116810Y330640D01*
G37*
G36*
G01X-126580Y338470D02*
X-132660Y334950D01*
X-136180Y341030D01*
X-130100Y344550D01*
X-126580Y338470D01*
G37*
G36*
G01X-102510Y324580D02*
X-108590Y321060D01*
X-112110Y327140D01*
X-106030Y330660D01*
X-102510Y324580D01*
G37*
G36*
G01X124860Y-334720D02*
X120230Y-337400D01*
X116960Y-331740D01*
X121590Y-329060D01*
X124860Y-334720D01*
G37*
G36*
G01X112110Y-327140D02*
X106030Y-330660D01*
X102510Y-324580D01*
X108590Y-321060D01*
X112110Y-327140D01*
G37*
G36*
G01X136030Y-343080D02*
X129950Y-346600D01*
X126430Y-340520D01*
X132510Y-337000D01*
X136030Y-343080D01*
G37*
G36*
G01X233350Y257140D02*
X229830Y251060D01*
X223750Y254580D01*
X227270Y260660D01*
X233350Y257140D01*
G37*
G36*
G01X231890Y272760D02*
X228620Y267100D01*
X223990Y269780D01*
X227260Y275440D01*
X231890Y272760D01*
G37*
G36*
G01X234520Y286380D02*
X231000Y280300D01*
X224920Y283820D01*
X228440Y289900D01*
X234520Y286380D01*
G37*
G36*
G01X260660Y-227270D02*
X257140Y-233350D01*
X251060Y-229830D01*
X254580Y-223750D01*
X260660Y-227270D01*
G37*
G36*
G01X274840Y-227710D02*
X272160Y-232340D01*
X266500Y-229070D01*
X269180Y-224440D01*
X274840Y-227710D01*
G37*
G36*
G01X288300Y-228390D02*
X284780Y-234470D01*
X278700Y-230950D01*
X282220Y-224870D01*
X288300Y-228390D01*
G37*
G36*
G01X330660Y106030D02*
X324580Y102510D01*
X321060Y108590D01*
X327140Y112110D01*
X330660Y106030D01*
G37*
G36*
G01X335800Y120730D02*
X330140Y117460D01*
X327460Y122090D01*
X333120Y125360D01*
X335800Y120730D01*
G37*
G36*
G01X344200Y131700D02*
X338120Y128180D01*
X334600Y134260D01*
X340680Y137780D01*
X344200Y131700D01*
G37*
G36*
G01X61190Y-362630D02*
Y-361180D01*
G02X64010I1410J980D01*
G01Y-362630D01*
X65870D01*
Y-367990D01*
X59330D01*
Y-362630D01*
X61190D01*
G37*
G36*
G01X52940D02*
Y-361180D01*
G02X55760I1410J980D01*
G01Y-362630D01*
X57620D01*
Y-367990D01*
X51080D01*
Y-362630D01*
X52940D01*
G37*
G36*
G01X-168230Y-355170D02*
Y-359230D01*
X-166220Y-361240D01*
X-131420D01*
X-126920Y-365740D01*
X-109470D01*
X-101590Y-373620D01*
Y-426070D01*
G02X-104410I-1410J-980D01*
G01Y-374780D01*
X-110630Y-368560D01*
X-128080D01*
X-132580Y-364060D01*
X-167380D01*
X-171050Y-360390D01*
Y-355170D01*
X-172320D01*
Y-353410D01*
X-176640D01*
Y-354910D01*
X-181660D01*
Y-349090D01*
X-176640D01*
Y-350590D01*
X-173390D01*
X-173290Y-350490D01*
X-172320D01*
Y-348630D01*
X-166960D01*
Y-355170D01*
X-168230D01*
G37*
G36*
G01X-135290Y-430400D02*
X-142410D01*
Y-428400D01*
X-139890D01*
X-139770Y-428040D01*
G02X-139980Y-427840I932J1189D01*
G01X-142410D01*
Y-425840D01*
X-140360D01*
Y-425280D01*
X-142410D01*
Y-423280D01*
X-140360D01*
Y-422720D01*
X-142410D01*
Y-420720D01*
X-140360D01*
Y-420160D01*
X-142410D01*
Y-418160D01*
X-140360D01*
Y-417600D01*
X-142410D01*
Y-415600D01*
X-140360D01*
Y-415050D01*
X-142410D01*
Y-413050D01*
X-140360D01*
Y-412490D01*
X-142410D01*
Y-410490D01*
X-140360D01*
Y-409930D01*
X-142410D01*
Y-407930D01*
X-139980D01*
G02X-139770Y-407730I1142J-989D01*
G01X-139890Y-407370D01*
X-142410D01*
Y-405890D01*
G03X-142880Y-405500I-400J-4D01*
G02X-144480Y-402660I-321J1690D01*
G03Y-402400I-151J130D01*
G02X-142220Y-399840I1281J1147D01*
G01X-140260D01*
Y-397570D01*
X-142120D01*
Y-392210D01*
X-135580D01*
Y-397570D01*
X-137440D01*
Y-400250D01*
X-135290D01*
Y-402250D01*
X-137860D01*
G02X-137990Y-402370I-1019J973D01*
G03Y-402690I117J-160D01*
G02X-137860Y-402810I-889J-1093D01*
G01X-135290D01*
Y-404810D01*
X-137860D01*
G02X-138090Y-405000I-1008J985D01*
G01X-137990Y-405370D01*
X-135290D01*
Y-407420D01*
X-132060D01*
X-130510Y-405870D01*
Y-404320D01*
G02X-127490I1510J820D01*
G01Y-407130D01*
X-130800Y-410440D01*
X-135290D01*
Y-412490D01*
X-137340D01*
Y-413050D01*
X-135290D01*
Y-415050D01*
X-137340D01*
Y-415600D01*
X-135290D01*
Y-417600D01*
X-137340D01*
Y-418160D01*
X-135290D01*
Y-420160D01*
X-137340D01*
Y-420720D01*
X-135290D01*
Y-422720D01*
X-137340D01*
Y-423280D01*
X-135290D01*
Y-425330D01*
X-134480D01*
X-134440Y-425310D01*
G02Y-428370I780J-1530D01*
G01X-134480Y-428350D01*
X-135290D01*
Y-430400D01*
G37*
G36*
G01X-113240Y-427840D02*
X-120360D01*
Y-425840D01*
X-117840D01*
X-117720Y-425480D01*
G02X-117930Y-425280I932J1189D01*
G01X-120360D01*
Y-423280D01*
X-118310D01*
Y-422720D01*
X-120360D01*
Y-420720D01*
X-118210D01*
Y-420160D01*
X-120360D01*
Y-418160D01*
X-118210D01*
Y-417600D01*
X-120360D01*
Y-415600D01*
X-118210D01*
Y-415050D01*
X-120360D01*
Y-413050D01*
X-118210D01*
Y-412490D01*
X-120360D01*
Y-410490D01*
X-118210D01*
Y-409930D01*
X-120360D01*
Y-407930D01*
X-118210D01*
Y-407370D01*
X-120360D01*
Y-405370D01*
X-117790D01*
G02X-117660Y-405250I1019J-973D01*
G03Y-404930I-117J160D01*
G02X-117790Y-404810I889J1093D01*
G01X-120360D01*
Y-402810D01*
X-117790D01*
G02X-117660Y-402690I1019J-973D01*
G03Y-402370I-117J160D01*
G02X-117790Y-402250I889J1093D01*
G01X-120360D01*
Y-400250D01*
X-118210D01*
Y-397570D01*
X-120070D01*
Y-392210D01*
X-113530D01*
Y-397570D01*
X-115390D01*
Y-399840D01*
X-113430D01*
G02X-111170Y-402400I979J-1413D01*
G03Y-402660I151J-130D01*
G02X-112770Y-405500I-1279J-1150D01*
G03X-113240Y-405890I-70J-394D01*
G01Y-406850D01*
G03X-112770Y-407240I400J4D01*
G02Y-410620I320J-1690D01*
G03X-113240Y-411010I-70J-394D01*
G01Y-412490D01*
X-115390D01*
Y-413050D01*
X-113240D01*
Y-415050D01*
X-115390D01*
Y-415600D01*
X-113240D01*
Y-417600D01*
X-115390D01*
Y-418160D01*
X-113240D01*
Y-420160D01*
X-115390D01*
Y-420720D01*
X-113240D01*
Y-422720D01*
X-115290D01*
Y-423280D01*
X-113240D01*
Y-425280D01*
X-115670D01*
G02X-115880Y-425480I-1142J989D01*
G01X-115760Y-425840D01*
X-113240D01*
Y-427840D01*
G37*
G36*
G01X-39480Y-438790D02*
X-46020D01*
Y-433430D01*
X-44160D01*
Y-433140D01*
X-44190Y-433090D01*
G02X-44160Y-431170I1441J938D01*
G01Y-427770D01*
X-43690Y-427290D01*
G03X-43970Y-426610I-282J281D01*
G01X-48770D01*
X-49390Y-427230D01*
Y-431120D01*
G02X-49360Y-433040I-1411J-982D01*
G01X-49390Y-433090D01*
Y-433380D01*
X-47530D01*
Y-438740D01*
X-54070D01*
Y-433380D01*
X-52210D01*
Y-433090D01*
X-52240Y-433040D01*
G02X-52210Y-431120I1441J938D01*
G01Y-426070D01*
X-51540Y-425390D01*
G03X-51820Y-424710I-282J281D01*
G01X-55120D01*
X-57490Y-427080D01*
Y-431070D01*
G02X-57460Y-432990I-1411J-982D01*
G01X-57490Y-433040D01*
Y-433330D01*
X-55630D01*
Y-438690D01*
X-62170D01*
Y-433330D01*
X-60310D01*
Y-433040D01*
X-60340Y-432990D01*
G02X-60310Y-431070I1441J938D01*
G01Y-425920D01*
X-56280Y-421890D01*
X-50400D01*
Y-414300D01*
X-57790D01*
G02Y-411780I-1170J1260D01*
G01X-50400D01*
Y-407060D01*
G03X-51100Y-406800I-398J1D01*
G02Y-401080I-3410J2860D01*
G03X-50400Y-400820I302J259D01*
G01Y-396360D01*
X-73220D01*
X-77490Y-400630D01*
Y-435630D01*
X-80370Y-438510D01*
X-163630D01*
X-170960Y-431180D01*
Y-393320D01*
X-172720D01*
Y-387960D01*
X-166180D01*
Y-393320D01*
X-167940D01*
Y-429920D01*
X-162370Y-435490D01*
X-81630D01*
X-80510Y-434370D01*
Y-399370D01*
X-74480Y-393340D01*
X-50400D01*
Y-386250D01*
X-46500D01*
Y-403450D01*
X-49660D01*
G03X-50060Y-403860I-1J-400D01*
G02Y-404030I-4450J-85D01*
G03X-49660Y-404440I399J-10D01*
G01X-46500D01*
Y-410780D01*
X-45400D01*
Y-404440D01*
X-41500D01*
Y-411890D01*
G02Y-414190I-1950J-1150D01*
G01Y-421890D01*
X-40400D01*
Y-404440D01*
X-36500D01*
Y-421640D01*
X-37040D01*
Y-422780D01*
X-37700Y-423450D01*
G03X-37560Y-423790I140J-141D01*
G01X-37200D01*
X-35300Y-421880D01*
X-35400Y-421640D01*
Y-404440D01*
X-31500D01*
Y-421640D01*
X-32040D01*
Y-422610D01*
X-34180Y-424760D01*
G03X-33900Y-425440I282J-281D01*
G01X-32780D01*
X-29860Y-422520D01*
Y-421640D01*
X-30400D01*
Y-404440D01*
X-26500D01*
Y-421640D01*
X-27040D01*
Y-423680D01*
X-30160Y-426810D01*
G03X-29880Y-427490I282J-281D01*
G01X-28730D01*
X-24860Y-423620D01*
Y-421640D01*
X-25400D01*
Y-404440D01*
X-21500D01*
Y-421640D01*
X-22040D01*
Y-424780D01*
X-27570Y-430310D01*
X-33240D01*
Y-431160D01*
X-33210Y-431210D01*
G02Y-433090I-1440J-940D01*
G01X-33240Y-433140D01*
Y-433430D01*
X-31380D01*
Y-438790D01*
X-37920D01*
Y-433430D01*
X-36060D01*
Y-433140D01*
X-36090Y-433090D01*
G02X-36060Y-431170I1441J938D01*
G01Y-429120D01*
X-35890Y-428940D01*
G03X-36170Y-428260I-282J281D01*
G01X-40670D01*
X-41340Y-428930D01*
Y-431170D01*
G02X-41310Y-433090I-1411J-982D01*
G01X-41340Y-433140D01*
Y-433430D01*
X-39480D01*
Y-438790D01*
G37*
G54D43*
X435000Y435000D03*
X400000Y400000D03*
Y-400000D03*
X-400000Y400000D03*
Y-400000D03*
X-435000Y435000D03*
Y-435000D03*
G54D51*
X327700Y-335810D03*
G54D50*
X308940Y-314100D03*
X230360Y-398700D03*
G54D53*
X316450Y-419400D03*
G54D49*
X354200Y-337150D03*
G54D55*
X233600Y-427950D03*
G54D54*
X252100Y-439760D03*
G54D45*
X366100Y-269330D03*
Y-271890D03*
Y-274450D03*
X177550Y-326450D03*
X169300Y-401480D03*
Y-404040D03*
Y-421950D03*
X147250Y-406600D03*
Y-404040D03*
Y-401480D03*
X-116800Y-429400D03*
X-202700Y-432000D03*
X-425650Y-2470D03*
Y90D03*
Y2650D03*
G54D52*
X328250Y-388450D03*
G54D48*
X359050Y-57150D03*
X335860Y-70000D03*
X70000Y335860D03*
X57050Y360950D03*
X-70000Y-335860D03*
X-57150Y-359950D03*
X-335860Y70000D03*
X-360150Y57050D03*
G54D47*
X335860Y60000D03*
Y70000D03*
Y30000D03*
Y40000D03*
Y50000D03*
Y0D03*
Y10000D03*
Y20000D03*
Y-30000D03*
Y-10000D03*
Y-60000D03*
Y-50000D03*
Y-40000D03*
X315860Y124630D03*
X310860Y133290D03*
X305860Y141950D03*
X320860Y115970D03*
Y-115970D03*
X325860Y-107310D03*
X305860Y-141950D03*
X310860Y-133290D03*
X315860Y-124630D03*
X280860Y185250D03*
X275860Y193910D03*
X295860Y159270D03*
X290860Y167930D03*
X285860Y176590D03*
Y-176590D03*
X290860Y-167930D03*
X295860Y-159270D03*
X300860Y-150610D03*
X275860Y-193910D03*
X265860Y211230D03*
X260860Y219890D03*
X255860Y228550D03*
X270860Y202570D03*
Y-202570D03*
X260860Y-219890D03*
X265860Y-211230D03*
X219890Y260860D03*
Y-260860D03*
X228550Y-255860D03*
X193910Y275860D03*
X211230Y265860D03*
X202570Y270860D03*
X211230Y-265860D03*
X185250Y-280860D03*
X193910Y-275860D03*
X202570Y-270860D03*
X176590Y285860D03*
X167930Y290860D03*
X159270Y295860D03*
Y-295860D03*
X167930Y-290860D03*
X176590Y-285860D03*
X141950Y305860D03*
X133290Y310860D03*
X124630Y315860D03*
X150610Y300860D03*
X124630Y-315860D03*
X133290Y-310860D03*
X141950Y-305860D03*
X115970Y320860D03*
X107310Y325860D03*
X115970Y-320860D03*
X70000Y-335860D03*
X60000Y335860D03*
X50000D03*
X40000D03*
Y-335860D03*
X50000D03*
X60000D03*
X30000Y335860D03*
X10000D03*
Y-335860D03*
X20000D03*
X30000D03*
X0Y335860D03*
X-10000D03*
X-20000D03*
X-10000Y-335860D03*
X0D03*
X-30000Y335860D03*
X-40000D03*
X-50000D03*
X-40000Y-335860D03*
X-30000D03*
X-60000Y335860D03*
X-70000D03*
X-60000Y-335860D03*
X-107310Y-325860D03*
X-115970Y320860D03*
X-124630Y315860D03*
X-133290Y310860D03*
X-141950Y305860D03*
X-124630Y-315860D03*
X-115970Y-320860D03*
X-159270Y295860D03*
X-167930Y290860D03*
Y-290860D03*
X-159270Y-295860D03*
X-150610Y-300860D03*
X-176590Y285860D03*
X-185250Y280860D03*
X-193910Y275860D03*
X-202570Y270860D03*
Y-270860D03*
X-193910Y-275860D03*
X-176590Y-285860D03*
X-211230Y265860D03*
X-219890Y260860D03*
X-228550Y255860D03*
X-219890Y-260860D03*
X-211230Y-265860D03*
X-260860Y219890D03*
Y-219890D03*
X-255860Y-228550D03*
X-265860Y211230D03*
X-275860Y193910D03*
X-285860Y176590D03*
X-290860Y167930D03*
Y-167930D03*
X-285860Y-176590D03*
X-280860Y-185250D03*
X-275860Y-193910D03*
X-270860Y-202570D03*
X-265860Y-211230D03*
X-295860Y159270D03*
X-300860Y150610D03*
X-305860Y141950D03*
X-310860Y133290D03*
X-315860Y124630D03*
X-320860Y115970D03*
Y-115970D03*
X-315860Y-124630D03*
X-310860Y-133290D03*
X-305860Y-141950D03*
X-295860Y-159270D03*
X-325860Y107310D03*
X-335860Y60000D03*
Y50000D03*
Y40000D03*
Y30000D03*
Y10000D03*
Y0D03*
Y-10000D03*
Y-20000D03*
Y-30000D03*
Y-40000D03*
Y-50000D03*
Y-60000D03*
Y-70000D03*
G54D46*
X343800Y62400D03*
X261950Y-263700D03*
X146100Y-349700D03*
X-85660Y-333350D03*
X-89490Y-329920D03*
X-90080Y-334140D03*
G54D57*
X-186650Y-352000D03*
X-182900Y-343000D03*
Y-363350D03*
G54D56*
X61960Y349850D03*
X-62110Y-348350D03*
X-161760Y-351900D03*
X-161560Y-372450D03*
G54D44*
X366050Y-232560D03*
X347450Y-62110D03*
X343950Y-232260D03*
X199650Y-367990D03*
X177600Y-367840D03*
X169250Y-379810D03*
X147300D03*
X-202700Y-390110D03*
X-224750Y-389760D03*
X-349500Y61960D03*
X-403600Y-42590D03*
X-425700Y-42290D03*
X-138850Y-387010D03*
X-116800D03*
%LPD*%
G75*
G36*
G01X-46500Y-421890D02*
Y-415300D01*
X-45400D01*
Y-421890D01*
X-46500D01*
G37*
G36*
G01X274600Y-425850D02*
X239700D01*
Y-389250D01*
X233700D01*
Y-376750D01*
X274550D01*
Y-378500D01*
X274600D01*
Y-391150D01*
X305450D01*
Y-425800D01*
X274600D01*
Y-425850D01*
G37*
G36*
G01X293250Y-305100D02*
X299100D01*
Y-344850D01*
X276450D01*
Y-324950D01*
X261850D01*
Y-305100D01*
X282700D01*
Y-291100D01*
X293250D01*
Y-305100D01*
G37*
G36*
G01X275610Y-390140D02*
Y-386110D01*
X284240D01*
Y-390140D01*
X275610D01*
G37*
G36*
G01X276600Y-385100D02*
Y-346200D01*
X339750D01*
Y-351650D01*
X362250D01*
Y-364550D01*
X305600D01*
Y-385100D01*
X276600D01*
G37*
%LPC*%
G75*
G54D58*
X289250Y-395050D03*
Y-401750D03*
Y-381650D03*
Y-374950D03*
G54D51*
X327700Y-355500D03*
G54D50*
X250050Y-398700D03*
X289250Y-314100D03*
G54D49*
X289200Y-337100D03*
Y-362600D03*
G54D54*
X252100Y-416140D03*
G54D56*
X238190Y-382450D03*
X277090Y-313950D03*
X289210Y-297050D03*
X269210Y-313950D03*
G54D44*
X345300Y-355540D03*
X354200Y-355590D03*
%LPD*%
G75*
G54D10*
X-435000Y-435000D03*
Y435000D03*
X-400000Y-400000D03*
Y400000D03*
X400000Y-400000D03*
Y400000D03*
X435000Y-435000D03*
Y435000D03*
G54D20*
X0Y0D03*
G54D11*
X-440000Y-410000D03*
Y-420000D03*
Y-400000D03*
Y-370000D03*
Y-390000D03*
Y-380000D03*
Y-340000D03*
Y-350000D03*
Y-360000D03*
Y-310000D03*
Y-330000D03*
Y-320000D03*
Y-280000D03*
Y-300000D03*
Y-290000D03*
Y-250000D03*
Y-270000D03*
Y-260000D03*
Y-220000D03*
Y-230000D03*
Y-240000D03*
Y-200000D03*
Y-190000D03*
Y-210000D03*
Y-160000D03*
Y-170000D03*
Y-180000D03*
Y-130000D03*
Y-140000D03*
Y-150000D03*
Y-100000D03*
Y-110000D03*
Y-120000D03*
Y-80000D03*
Y-70000D03*
Y-90000D03*
Y-40000D03*
Y-50000D03*
Y-60000D03*
X-425700Y-47300D03*
X-421100Y-25500D03*
X-440000Y-10000D03*
Y-20000D03*
Y-30000D03*
X-430660Y-2470D03*
Y-5030D03*
X-418550Y-20380D03*
X-432260Y-15260D03*
X-418550Y-10150D03*
X-440000Y20000D03*
Y10000D03*
Y0D03*
X-430660Y2650D03*
Y90D03*
X-440000Y40000D03*
Y50000D03*
Y30000D03*
Y80000D03*
Y70000D03*
Y60000D03*
Y100000D03*
Y90000D03*
Y110000D03*
Y120000D03*
Y140000D03*
Y130000D03*
Y160000D03*
Y150000D03*
Y170000D03*
Y200000D03*
Y190000D03*
Y180000D03*
Y230000D03*
Y220000D03*
Y210000D03*
Y240000D03*
Y260000D03*
Y250000D03*
Y280000D03*
Y270000D03*
Y290000D03*
Y320000D03*
Y310000D03*
Y300000D03*
Y350000D03*
Y340000D03*
Y330000D03*
Y380000D03*
Y360000D03*
Y370000D03*
Y400000D03*
Y390000D03*
Y410000D03*
X-420000Y440000D03*
X-440000Y420000D03*
X-403600Y-47600D03*
X-407730Y-20380D03*
X-399040Y-22940D03*
X-399050Y-25500D03*
X-413630Y-17820D03*
Y-12700D03*
Y-7590D03*
X-400000Y440000D03*
X-390000D03*
X-410000D03*
X-359250Y-18010D03*
Y-12890D03*
Y-7770D03*
Y-2650D03*
X-362650Y24460D03*
X-370040Y12110D03*
X-360150Y52580D03*
Y74520D03*
X-380000Y440000D03*
X-360000D03*
X-370000D03*
X-330350Y-124930D03*
X-338270Y-136050D03*
X-338750Y-110370D03*
X-349230Y-117050D03*
X-355500Y-15450D03*
Y-10330D03*
Y-5210D03*
Y-90D03*
X-349500Y57490D03*
Y74310D03*
X-350000Y440000D03*
X-340000D03*
X-330000D03*
X-322250Y-157820D03*
X-322480Y-172210D03*
X-298590Y199780D03*
X-311170Y192780D03*
X-320000Y440000D03*
X-310000D03*
X-300000D03*
X-268650Y-426950D03*
X-272400Y-429510D03*
Y-424390D03*
X-268650Y-421830D03*
Y-411590D03*
X-272400Y-414150D03*
X-268650Y-416710D03*
X-272400Y-419270D03*
X-272560Y224070D03*
X-285440Y225700D03*
X-274460Y244700D03*
X-280000Y440000D03*
X-270000D03*
X-290000D03*
X-245600Y-276510D03*
X-239280Y-266040D03*
X-264140Y238630D03*
X-240000Y440000D03*
X-260000D03*
X-250000D03*
X-218550Y-432000D03*
X-208900D03*
X-208120Y-426880D03*
Y-421760D03*
X-230950Y-403850D03*
Y-406410D03*
X-218550Y-408970D03*
X-208900Y-403850D03*
Y-406410D03*
X-208120Y-411530D03*
Y-416650D03*
X-209750Y-372250D03*
X-224750Y-384450D03*
X-224720Y-274460D03*
X-226600Y-287490D03*
X-230000Y440000D03*
X-220000D03*
X-210000D03*
X-187320Y-424320D03*
X-190030Y-408970D03*
X-187090Y-414090D03*
X-187200Y-419200D03*
X-202700Y-385300D03*
X-196560Y-366940D03*
X-186650Y-377660D03*
X-204440Y-358560D03*
X-185470Y-304910D03*
X-199850Y-305130D03*
X-200000Y440000D03*
X-190000D03*
X-180000D03*
X-156250Y-372450D03*
X-177590Y-363350D03*
X-156450Y-351900D03*
X-177590Y-343000D03*
X-158020Y321000D03*
X-172350Y321230D03*
X-160000Y440000D03*
X-150000D03*
X-170000D03*
X-143200Y-429400D03*
X-121150D03*
Y-426840D03*
X-133660D03*
X-143200Y-403810D03*
Y-401250D03*
X-134500Y-406370D03*
X-129000Y-403500D03*
X-124630Y329900D03*
X-135250Y337520D03*
X-120000Y440000D03*
X-140000D03*
X-130000D03*
X-103000Y-427050D03*
X-112450Y-403810D03*
Y-401250D03*
Y-408930D03*
X-90080Y-334140D03*
X-89490Y-329920D03*
X-110070Y338300D03*
X-116250Y348480D03*
X-100000Y440000D03*
X-90000D03*
X-110000D03*
X-58900Y-447850D03*
Y-432050D03*
X-58960Y-413040D03*
X-74460Y-348350D03*
X-85660Y-333350D03*
X-74620Y-359950D03*
X-80000Y440000D03*
X-70000D03*
X-60000D03*
X-34650Y-447950D03*
X-42750D03*
X-50800Y-447900D03*
Y-432100D03*
X-42750Y-432150D03*
X-34650D03*
X-28450Y-384340D03*
X-33450D03*
X-38450D03*
X-43450D03*
X-57640Y-348350D03*
X-52680Y-359950D03*
X-40000Y440000D03*
X-50000D03*
X-30000D03*
X-2300Y-448050D03*
X-10350Y-448000D03*
X-18400D03*
X-26500Y-447950D03*
Y-432150D03*
X-18400Y-432200D03*
X-10350D03*
X-2300Y-432250D03*
X1550Y-384340D03*
X-3450D03*
X-8450D03*
X-13450D03*
X-18450D03*
X-23450D03*
X-12160Y-368040D03*
X-24610Y-360750D03*
X-20000Y440000D03*
X-10000D03*
X0D03*
X13850Y-448150D03*
X22000Y-448200D03*
X30150Y-448300D03*
X5800Y-448100D03*
Y-432300D03*
X30150Y-432500D03*
X22000Y-432400D03*
X16550Y-423550D03*
X6550D03*
X13850Y-432350D03*
X11550Y-384340D03*
X6550D03*
X31550D03*
X21550D03*
X16550D03*
X26550D03*
X21600Y-360200D03*
X29950D03*
X24310Y358400D03*
X11960Y365790D03*
X10000Y440000D03*
X20000D03*
X30000D03*
X38350Y-448250D03*
X46500Y-448150D03*
X54650Y-448250D03*
Y-432450D03*
X46500Y-432350D03*
X38350Y-432450D03*
X36550Y-384340D03*
X46550D03*
X41550D03*
X38050Y-360150D03*
X46150D03*
X54350Y-360200D03*
X57490Y349850D03*
X52580Y360950D03*
X40000Y440000D03*
X50000D03*
X60000D03*
X62900Y-448200D03*
Y-432400D03*
X62600Y-360200D03*
X74310Y349850D03*
X74520Y360950D03*
X80000Y440000D03*
X70000D03*
X90000D03*
X115000Y-411000D03*
X102990Y-416550D03*
X100800Y-419110D03*
Y-413990D03*
X116100Y-350530D03*
X110220Y-339400D03*
X100000Y440000D03*
X110000D03*
X120000D03*
X142850Y-421950D03*
X151650Y-396360D03*
Y-393800D03*
X142850Y-398920D03*
X147300Y-375900D03*
X146100Y-349700D03*
X135100Y-339570D03*
X124780Y-331000D03*
X130000Y440000D03*
X140000D03*
X150000D03*
X164900Y-421950D03*
Y-419390D03*
Y-393800D03*
X173240Y-396360D03*
X164150Y-409150D03*
X176040Y-411710D03*
X173700Y-414270D03*
X176040Y-416830D03*
X169250Y-375900D03*
X177600Y-375850D03*
X170810Y-352040D03*
X173150Y-354600D03*
Y-344360D03*
X170810Y-341800D03*
Y-336690D03*
X173150Y-334130D03*
X170810Y-331570D03*
X173150Y-349480D03*
X170810Y-346920D03*
X173150Y-339250D03*
X157970Y-321600D03*
X173150Y-329010D03*
X170810Y-326450D03*
X172360Y-321740D03*
X160000Y440000D03*
X170000D03*
X180000D03*
X199650Y-376000D03*
X194240Y-352040D03*
X204500Y-354600D03*
X192170Y301810D03*
X207000Y301730D03*
X200000Y440000D03*
X190000D03*
X210000D03*
X238630Y265090D03*
X224070Y273510D03*
X225850Y287340D03*
X220000Y440000D03*
X230000D03*
X240000D03*
X266150Y-423300D03*
X268650D03*
X271150D03*
X266150Y-410800D03*
Y-413300D03*
Y-415800D03*
Y-418300D03*
Y-420800D03*
X268650Y-410800D03*
Y-413300D03*
Y-415800D03*
Y-418300D03*
Y-420800D03*
X271150Y-410800D03*
Y-413300D03*
Y-415800D03*
Y-418300D03*
Y-420800D03*
X271350Y-391750D03*
X268850D03*
X266350D03*
X263850D03*
X261350D03*
X258850D03*
X271350Y-394250D03*
X268850D03*
X266350D03*
X263850D03*
X261350D03*
X258850D03*
X271350Y-396750D03*
X268850D03*
X266350D03*
X263850D03*
X261350D03*
X258850D03*
X258700Y-405950D03*
X261200D03*
X263700D03*
X266200D03*
X268700D03*
X271200D03*
X258700Y-403450D03*
X261200D03*
X263700D03*
X266200D03*
X268700D03*
X271200D03*
X258700Y-400950D03*
X261200D03*
X263700D03*
X266200D03*
X268700D03*
X271200D03*
X271500Y-382850D03*
X269000D03*
X266500D03*
X264000D03*
X261500D03*
X259000D03*
X271500Y-385350D03*
X269000D03*
X266500D03*
X264000D03*
X261500D03*
X259000D03*
X271500Y-387850D03*
X269000D03*
X266500D03*
X264000D03*
X261500D03*
X259000D03*
X246990Y-331550D03*
Y-346910D03*
X244650Y-344350D03*
X246990Y-341790D03*
X244650Y-339230D03*
X246990Y-336670D03*
X244650Y-334110D03*
X269210Y-313950D03*
X244650Y-328990D03*
X261950Y-263700D03*
X264490Y-239080D03*
X244850Y276360D03*
X250000Y440000D03*
X270000D03*
X260000D03*
X295900Y-421450D03*
X293400D03*
X290900D03*
X288400D03*
X285900D03*
X283400D03*
X295900Y-416450D03*
X293400D03*
X290900D03*
X288400D03*
X285900D03*
X283400D03*
X295900Y-418950D03*
X293400D03*
X290900D03*
X288400D03*
X285900D03*
X283400D03*
X295700Y-408000D03*
X293200D03*
X290700D03*
X288200D03*
X285700D03*
X283200D03*
X295700Y-410500D03*
X293200D03*
X290700D03*
X288200D03*
X285700D03*
X283200D03*
X295700Y-413000D03*
X293200D03*
X290700D03*
X288200D03*
X285700D03*
X283200D03*
X282750Y-327700D03*
X285250D03*
X287750D03*
X290250D03*
X292750D03*
X295250D03*
X282750Y-325200D03*
X285250D03*
X287750D03*
X290250D03*
X292750D03*
X295250D03*
X282750Y-322700D03*
X285250D03*
X287750D03*
X290250D03*
X292750D03*
X295250D03*
X274760Y-244800D03*
X294900Y-253940D03*
X291150Y-256500D03*
X294900Y-259060D03*
X291150Y-261620D03*
X272910Y-224520D03*
X285740Y-225800D03*
X297990Y-200430D03*
X280000Y440000D03*
X300000D03*
X290000D03*
X330650Y-399250D03*
Y-401750D03*
Y-404250D03*
X330700Y-393000D03*
Y-395500D03*
X330800Y-373200D03*
Y-381600D03*
Y-384100D03*
Y-386600D03*
Y-375700D03*
Y-378200D03*
X330700Y-390500D03*
X306900Y-338000D03*
Y-340500D03*
X309400Y-338000D03*
Y-340500D03*
X311900Y-338000D03*
Y-340500D03*
X306900Y-333000D03*
Y-335500D03*
X309400Y-333000D03*
Y-335500D03*
X311900Y-333000D03*
Y-335500D03*
X306900Y-328000D03*
Y-330500D03*
X309400Y-328000D03*
Y-330500D03*
X311900Y-328000D03*
Y-330500D03*
X329700Y-321800D03*
X332200D03*
X318300Y-321700D03*
X320800D03*
X323300D03*
X327200Y-321800D03*
X329700Y-311800D03*
X332200D03*
X329700Y-309300D03*
X332200D03*
X329700Y-314300D03*
Y-316800D03*
X332200Y-314300D03*
Y-316800D03*
X329700Y-319300D03*
X332200D03*
X318300Y-309200D03*
Y-311700D03*
X320800Y-309200D03*
Y-311700D03*
X323300Y-309200D03*
Y-311700D03*
X327200Y-311800D03*
Y-309300D03*
X318300Y-314200D03*
Y-316700D03*
X320800Y-314200D03*
Y-316700D03*
X323300Y-314200D03*
Y-316700D03*
X318300Y-319200D03*
X320800D03*
X323300D03*
X327200Y-314300D03*
Y-316800D03*
Y-319300D03*
X309750Y-261350D03*
X309300Y-266550D03*
X310570Y-193420D03*
X329400Y125280D03*
X321350Y158220D03*
X321580Y172610D03*
X310000Y440000D03*
X330000D03*
X320000D03*
X340650Y-399250D03*
Y-401750D03*
Y-404250D03*
X340700Y-393000D03*
Y-395500D03*
X343150Y-399250D03*
Y-401750D03*
Y-404250D03*
X343200Y-393000D03*
Y-395500D03*
X338150Y-399250D03*
X335650D03*
X338150Y-401750D03*
X335650D03*
X338150Y-404250D03*
X335650D03*
X333150Y-399250D03*
Y-401750D03*
Y-404250D03*
X338200Y-393000D03*
X335700D03*
X338200Y-395500D03*
X335700D03*
X333200Y-393000D03*
Y-395500D03*
X343300Y-373200D03*
X340800D03*
X343300Y-381600D03*
X340800D03*
X343300Y-384100D03*
X340800D03*
X343300Y-386600D03*
X340800D03*
X343300Y-375700D03*
X340800D03*
X343300Y-378200D03*
X340800D03*
X340700Y-390500D03*
X343200D03*
X338300Y-373200D03*
X335800D03*
X338300Y-381600D03*
X335800D03*
X338300Y-384100D03*
X335800D03*
X338300Y-386600D03*
X335800D03*
X338300Y-375700D03*
X335800D03*
X338300Y-378200D03*
X335800D03*
X333300Y-373200D03*
Y-381600D03*
Y-384100D03*
Y-386600D03*
Y-375700D03*
Y-378200D03*
X338200Y-390500D03*
X335700D03*
X333200D03*
X335950Y-321850D03*
X338450D03*
X340950D03*
X335950Y-311850D03*
X338450D03*
X340950D03*
X335950Y-309350D03*
X338450D03*
X340950D03*
X335950Y-314350D03*
Y-316850D03*
X338450Y-314350D03*
Y-316850D03*
X340950Y-314350D03*
Y-316850D03*
X335950Y-319350D03*
X338450D03*
X340950D03*
X354200Y-319850D03*
X349550Y-251420D03*
X338550Y-246300D03*
Y-248860D03*
X355400Y-265900D03*
X355600Y-249900D03*
X350010Y-232260D03*
X347450Y-74460D03*
X359050Y-74620D03*
X347450Y-57640D03*
X359050Y-52680D03*
X343800Y62400D03*
X337800Y110720D03*
X348130Y117850D03*
X337170Y136850D03*
X340000Y440000D03*
X350000D03*
X360000D03*
X371600Y-271890D03*
Y-274450D03*
Y-246300D03*
Y-248860D03*
Y-266770D03*
Y-269330D03*
X373920Y-264210D03*
X378120Y-251420D03*
X373920Y-259100D03*
X366050Y-227000D03*
X370000Y-222200D03*
X369940Y-19940D03*
X367790Y-12060D03*
X370000Y440000D03*
X390000D03*
X380000D03*
X410000D03*
X420000D03*
X400000D03*
X440000Y-400000D03*
Y-420000D03*
Y-410000D03*
Y-380000D03*
Y-390000D03*
Y-370000D03*
Y-360000D03*
Y-350000D03*
Y-340000D03*
Y-320000D03*
Y-330000D03*
Y-310000D03*
Y-290000D03*
Y-300000D03*
Y-280000D03*
Y-260000D03*
Y-270000D03*
Y-250000D03*
Y-240000D03*
Y-230000D03*
Y-220000D03*
Y-210000D03*
Y-190000D03*
Y-200000D03*
Y-180000D03*
Y-170000D03*
Y-160000D03*
Y-150000D03*
Y-140000D03*
Y-130000D03*
Y-120000D03*
Y-110000D03*
Y-100000D03*
Y-90000D03*
Y-70000D03*
Y-80000D03*
Y-60000D03*
Y-50000D03*
Y-40000D03*
Y-30000D03*
Y-20000D03*
Y-10000D03*
Y0D03*
Y10000D03*
Y20000D03*
Y30000D03*
Y50000D03*
Y40000D03*
Y60000D03*
Y70000D03*
Y80000D03*
Y90000D03*
Y100000D03*
Y110000D03*
Y130000D03*
Y140000D03*
Y120000D03*
Y170000D03*
Y150000D03*
Y160000D03*
Y180000D03*
Y190000D03*
Y200000D03*
Y210000D03*
Y220000D03*
Y230000D03*
Y250000D03*
Y260000D03*
Y240000D03*
Y290000D03*
Y270000D03*
Y280000D03*
Y300000D03*
Y310000D03*
Y320000D03*
Y330000D03*
Y340000D03*
Y350000D03*
Y370000D03*
Y360000D03*
Y380000D03*
Y410000D03*
Y390000D03*
Y400000D03*
Y420000D03*
G54D12*
X-425700Y-42290D03*
Y-34410D03*
X-403600Y-42590D03*
Y-34710D03*
X-362650Y19990D03*
Y12110D03*
X-353150Y20140D03*
Y12260D03*
X-349500Y61960D03*
Y69840D03*
X-224750Y-397640D03*
Y-389760D03*
X-202700Y-397990D03*
Y-390110D03*
X-169450Y-382760D03*
Y-390640D03*
X-138850Y-394890D03*
Y-387010D03*
X-116800Y-394890D03*
Y-387010D03*
X-58900Y-443890D03*
Y-436010D03*
X-34650Y-443990D03*
Y-436110D03*
X-42750Y-443990D03*
Y-436110D03*
X-50800Y-443940D03*
Y-436060D03*
X-10350Y-444040D03*
Y-436160D03*
X-18400Y-444040D03*
Y-436160D03*
X-2300Y-444090D03*
Y-436210D03*
X-26500Y-443990D03*
Y-436110D03*
X13850Y-444190D03*
Y-436310D03*
X30150Y-444340D03*
Y-436460D03*
X22000Y-444240D03*
Y-436360D03*
X5800Y-444140D03*
Y-436260D03*
X21600Y-365310D03*
Y-373190D03*
X29950Y-365310D03*
Y-373190D03*
X46500Y-444190D03*
Y-436310D03*
X38350Y-444290D03*
Y-436410D03*
X54650Y-444290D03*
Y-436410D03*
X38050Y-365260D03*
Y-373140D03*
X46150Y-365260D03*
Y-373140D03*
X54350Y-365310D03*
Y-373190D03*
X62600Y-365310D03*
Y-373190D03*
X62900Y-444240D03*
Y-436360D03*
X147300Y-379810D03*
Y-387690D03*
X169250Y-379810D03*
Y-387690D03*
X177600Y-367840D03*
Y-359960D03*
X199650Y-367990D03*
Y-360110D03*
X354200Y-347710D03*
Y-355590D03*
X345300Y-347660D03*
Y-355540D03*
X343950Y-232260D03*
Y-240140D03*
X347450Y-62110D03*
Y-69990D03*
X351500Y-19940D03*
Y-12060D03*
X360400Y-19940D03*
Y-12060D03*
X366050Y-232560D03*
Y-240440D03*
G54D21*
X-276700Y240830D03*
X-283200Y229570D03*
X-241730Y-278750D03*
X-255860Y228550D03*
X-230470Y-285250D03*
X-228550Y-255860D03*
X228550Y255860D03*
X240980Y278600D03*
X229720Y285100D03*
X255860Y-228550D03*
X277000Y-240930D03*
X283500Y-229670D03*
G54D30*
X252100Y-439760D03*
Y-416140D03*
G54D40*
G01X-460000Y-480000D02*
G03I-15000J5000D01*
G01X-465000D02*
G03I-10000J5000D01*
G01X-495000Y-475000D02*
X-455000D01*
G01X-485000Y500000D02*
Y460000D01*
G01X-470000Y475000D02*
G03I-15000J5000D01*
G01X-475000D02*
G03I-10000J5000D01*
G01X-505000Y480000D02*
X-465000D01*
G01X-475000Y-455000D02*
Y-495000D01*
G01X-450000Y-450000D02*
X450000D01*
Y450000D01*
X-450000D01*
Y-450000D01*
G01X-376500Y-400000D02*
G03I-23500J0D01*
G01Y399930D02*
G03I-23500J2D01*
G01X275000Y0D02*
G03I-275000J0D01*
G01X0Y-9000D02*
Y9000D01*
G01Y-9000D02*
Y9000D01*
G01X-9000Y0D02*
X9000D01*
G01X-9000D02*
X9000D01*
G01X423500Y-400000D02*
G03I-23500J0D01*
G01Y399930D02*
G03I-23500J2D01*
G01X480000Y-450000D02*
Y-490000D01*
G01X495000Y-475000D02*
G03I-15000J5000D01*
G01X460000Y-470000D02*
X500000D01*
G01X490000Y-475000D02*
G03I-10000J5000D01*
G01Y455000D02*
G03I-15000J5000D01*
G01X475000Y480000D02*
Y440000D01*
G01X485000Y455000D02*
G03I-10000J5000D01*
G01X455000Y460000D02*
X495000D01*
G54D31*
X289250Y-395050D03*
Y-401750D03*
Y-374950D03*
Y-381650D03*
Y-388350D03*
G54D13*
X-425650Y-5030D03*
Y-7590D03*
Y-10150D03*
Y-12700D03*
Y-15260D03*
Y-17820D03*
Y-20380D03*
Y-22940D03*
Y-25500D03*
Y2650D03*
Y90D03*
Y-2470D03*
X-403600Y-25500D03*
Y-22940D03*
Y-20380D03*
Y-17820D03*
Y-15260D03*
Y-12700D03*
Y-10150D03*
Y-7590D03*
Y-5030D03*
Y-2470D03*
Y90D03*
Y2650D03*
X-224750Y-424320D03*
Y-426880D03*
Y-429440D03*
Y-432000D03*
Y-403850D03*
Y-406410D03*
Y-408970D03*
Y-411530D03*
Y-414090D03*
Y-416650D03*
Y-419200D03*
Y-421760D03*
X-202700Y-432000D03*
Y-429440D03*
Y-426880D03*
Y-424320D03*
Y-421760D03*
Y-419200D03*
Y-416650D03*
Y-414090D03*
Y-411530D03*
Y-408970D03*
Y-406410D03*
Y-403850D03*
X-138850Y-424280D03*
Y-426840D03*
Y-429400D03*
Y-401250D03*
Y-403810D03*
Y-406370D03*
Y-408930D03*
Y-411490D03*
Y-414050D03*
Y-416600D03*
Y-419160D03*
Y-421720D03*
X-116800Y-429400D03*
Y-426840D03*
Y-424280D03*
Y-421720D03*
Y-419160D03*
Y-416600D03*
Y-414050D03*
Y-411490D03*
Y-408930D03*
Y-406370D03*
Y-403810D03*
Y-401250D03*
X147250Y-393800D03*
Y-396360D03*
Y-398920D03*
Y-401480D03*
Y-404040D03*
Y-406600D03*
Y-409150D03*
Y-411710D03*
Y-414270D03*
Y-416830D03*
Y-419390D03*
Y-421950D03*
X169300D03*
Y-419390D03*
Y-416830D03*
Y-414270D03*
Y-411710D03*
Y-409150D03*
Y-406600D03*
Y-404040D03*
Y-401480D03*
Y-398920D03*
Y-396360D03*
Y-393800D03*
X177550Y-334130D03*
Y-336690D03*
Y-339250D03*
Y-341800D03*
Y-344360D03*
Y-346920D03*
Y-349480D03*
Y-352040D03*
Y-354600D03*
Y-326450D03*
Y-329010D03*
Y-331570D03*
X199600Y-354600D03*
Y-352040D03*
Y-349480D03*
Y-346920D03*
Y-344360D03*
Y-341800D03*
Y-339250D03*
Y-336690D03*
Y-334130D03*
Y-331570D03*
Y-329010D03*
Y-326450D03*
X344050Y-274450D03*
Y-246300D03*
Y-248860D03*
Y-251420D03*
Y-253980D03*
Y-256540D03*
Y-259100D03*
Y-261650D03*
Y-264210D03*
Y-266770D03*
Y-269330D03*
Y-271890D03*
X366100Y-274450D03*
Y-271890D03*
Y-269330D03*
Y-266770D03*
Y-264210D03*
Y-261650D03*
Y-259100D03*
Y-256540D03*
Y-253980D03*
Y-251420D03*
Y-248860D03*
Y-246300D03*
G54D22*
X-228590Y-272220D03*
X-235410Y-268280D03*
X-189340Y-302670D03*
X-191710Y-290730D03*
X-184890Y-294670D03*
X-196160Y-298730D03*
X191790Y291170D03*
X198610Y287230D03*
X196490Y299270D03*
X203310Y295330D03*
X234760Y267330D03*
X227940Y271270D03*
G54D41*
G01X-362650Y19990D02*
Y24460D01*
G01X-360150Y57050D02*
Y52580D01*
G01Y70050D02*
Y74520D01*
G01X-332580Y-121060D02*
X-330350Y-124930D01*
G01X-340500Y-132180D02*
X-338270Y-136050D01*
G01X-336520Y-114240D02*
X-338750Y-110370D01*
G01X-347000Y-120920D02*
X-349230Y-117050D01*
G01X-349500Y61960D02*
Y57490D01*
G01Y69840D02*
Y74310D01*
G01X-320020Y-161690D02*
X-322250Y-157820D01*
G01X-300830Y195910D02*
X-298590Y199780D01*
G01X-270320Y227940D02*
X-272560Y224070D01*
G01X-283200Y229570D02*
X-285440Y225700D01*
G01X-276700Y240830D02*
X-274460Y244700D01*
G01X-141950Y-305860D02*
X-152090Y-316000D01*
X-243000D01*
X-249000Y-322000D01*
Y-424000D01*
X-251610Y-426610D01*
X-252890D01*
X-253310Y-426690D01*
X-253700Y-426860D01*
X-253840Y-426950D01*
X-262450D01*
G01X-133290Y-310860D02*
X-145430Y-323000D01*
X-239000D01*
X-244000Y-328000D01*
Y-427000D01*
X-246510Y-429510D01*
X-262450D01*
G01X-241730Y-278750D02*
X-245600Y-276510D01*
G01X-235410Y-268280D02*
X-239280Y-266040D01*
G01X-266380Y234760D02*
X-264140Y238630D01*
G01X-228590Y-272220D02*
X-224720Y-274460D01*
G01X-230470Y-285250D02*
X-226600Y-287490D01*
G01X-189340Y-302670D02*
X-185470Y-304910D01*
G01X-161890Y318770D02*
X-158020Y321000D01*
G01X-120120Y346250D02*
X-116250Y348480D01*
G01X-120760Y332130D02*
X-124630Y329900D01*
G01X-131380Y339750D02*
X-135250Y337520D01*
G01X-113940Y336070D02*
X-110070Y338300D01*
G01X-69990Y-348350D02*
X-74460D01*
G01X-70150Y-359950D02*
X-74620D01*
G01X-62110Y-348350D02*
X-57640D01*
G01X-57150Y-359950D02*
X-52680D01*
G01X-20140Y-360750D02*
X-24610D01*
G01X19840Y358400D02*
X24310D01*
G01X61960Y349850D02*
X57490D01*
G01X57050Y360950D02*
X52580D01*
G01X69840Y349850D02*
X74310D01*
G01X70050Y360950D02*
X74520D01*
G01X119970Y-348300D02*
X116100Y-350530D01*
G01X114090Y-337170D02*
X110220Y-339400D01*
G01X120910Y-333230D02*
X124780Y-331000D01*
G01X131230Y-341800D02*
X135100Y-339570D01*
G01X161840Y-319370D02*
X157970Y-321600D01*
G01X196040Y299570D02*
X192170Y301810D01*
G01X234760Y267330D02*
X238630Y265090D01*
G01X240980Y278600D02*
X244850Y276360D01*
G01X227940Y271270D02*
X224070Y273510D01*
G01X229720Y285100D02*
X225850Y287340D01*
G01X266730Y-235210D02*
X264490Y-239080D01*
G01X270670Y-228390D02*
X272910Y-224520D01*
G01X277000Y-240930D02*
X274760Y-244800D01*
G01X283500Y-229670D02*
X285740Y-225800D01*
G01X300230Y-196560D02*
X297990Y-200430D01*
G01X331630Y121410D02*
X329400Y125280D01*
G01X319120Y162090D02*
X321350Y158220D01*
G01X347450Y-69990D02*
Y-74460D01*
G01X359050Y-70150D02*
Y-74620D01*
G01X347450Y-62110D02*
Y-57640D01*
G01X359050Y-57150D02*
Y-52680D01*
G01X335570Y114590D02*
X337800Y110720D01*
G01X345900Y121720D02*
X348130Y117850D01*
G01X339400Y132980D02*
X337170Y136850D01*
G54D23*
X-196560Y-372250D03*
X-204440D03*
X-169440Y-372450D03*
X-161560D03*
X-169640Y-351900D03*
X-161760D03*
X-62110Y-348350D03*
X-69990D03*
X-20140Y-360750D03*
X-12260D03*
X-20040Y-352100D03*
X-12160D03*
X19840Y348750D03*
X11960D03*
X19840Y358400D03*
X11960D03*
X61960Y349850D03*
X69840D03*
X230310Y-382450D03*
X238190D03*
X269210Y-313950D03*
X277090D03*
X297090Y-297050D03*
X289210D03*
G54D14*
X-393050Y-2650D03*
Y-5210D03*
Y-7770D03*
Y-10330D03*
Y-12890D03*
Y-15450D03*
Y-18010D03*
Y-90D03*
X-365450Y-18010D03*
Y-15450D03*
Y-12890D03*
Y-10330D03*
Y-7770D03*
Y-5210D03*
Y-2650D03*
Y-90D03*
X-262450Y-424390D03*
Y-426950D03*
Y-429510D03*
Y-411590D03*
Y-414150D03*
Y-416710D03*
Y-419270D03*
Y-421830D03*
X-234850Y-429510D03*
Y-426950D03*
Y-424390D03*
Y-421830D03*
Y-419270D03*
Y-416710D03*
Y-414150D03*
Y-411590D03*
X107650Y-401190D03*
Y-403750D03*
Y-406310D03*
Y-408870D03*
Y-411430D03*
Y-413990D03*
Y-416550D03*
Y-419110D03*
X135250D03*
Y-416550D03*
Y-413990D03*
Y-411430D03*
Y-408870D03*
Y-406310D03*
Y-403750D03*
Y-401190D03*
X212650Y-334110D03*
Y-336670D03*
Y-339230D03*
Y-341790D03*
Y-344350D03*
Y-346910D03*
Y-328990D03*
Y-331550D03*
X240250Y-346910D03*
Y-344350D03*
Y-341790D03*
Y-339230D03*
Y-336670D03*
Y-334110D03*
Y-331550D03*
Y-328990D03*
X301100Y-253940D03*
Y-256500D03*
Y-259060D03*
Y-261620D03*
Y-264180D03*
Y-266740D03*
Y-269300D03*
Y-271860D03*
X328700D03*
Y-269300D03*
Y-266740D03*
Y-264180D03*
Y-261620D03*
Y-259060D03*
Y-256500D03*
Y-253940D03*
G54D32*
X289200Y-362600D03*
Y-337100D03*
X354200Y-337150D03*
Y-311650D03*
G54D42*
G01X-48450Y-413040D02*
X-43450D01*
G01X16550D02*
Y-394850D01*
G01X252250Y-423500D02*
X252100Y-423350D01*
G01D02*
Y-416140D01*
G01D02*
Y-410440D01*
G01X268350Y-415850D02*
X268060Y-416140D01*
G01X252100Y-410440D02*
X251500Y-409840D01*
Y-390240D01*
X251440Y-390180D01*
Y-385000D01*
G01X268060Y-416140D02*
X252100D01*
G01X308890Y-388350D02*
X289250D01*
G01X328250Y-388450D02*
X308990D01*
G01D02*
X308890Y-388350D01*
G01X354200Y-319850D02*
Y-311650D01*
G54D15*
X-360150Y57050D03*
Y70050D03*
X-335860Y70000D03*
X-70150Y-359950D03*
X-57150D03*
X-70000Y-335860D03*
X57050Y360950D03*
X70000Y335860D03*
X70050Y360950D03*
X335860Y-70000D03*
X359050Y-70150D03*
Y-57150D03*
G54D24*
X-182900Y-363350D03*
X-179150Y-372350D03*
X-186650D03*
X-182900Y-343000D03*
X-179150Y-352000D03*
X-186650D03*
G54D33*
X316450Y-419400D03*
X341950D03*
G54D25*
X-157090Y310770D03*
X-163910Y306830D03*
X-161890Y318770D03*
X-168710Y314830D03*
X-120760Y332130D03*
X-113940Y336070D03*
X120910Y-333230D03*
X114090Y-337170D03*
X157390Y-311570D03*
X164210Y-307630D03*
X161840Y-319370D03*
X168660Y-315430D03*
G54D34*
X328250Y-388450D03*
G54D16*
X-332580Y-121060D03*
X-336520Y-114240D03*
X-311770Y-157090D03*
X-307830Y-163910D03*
X-320020Y-161690D03*
X-316080Y-168510D03*
X331630Y121410D03*
X311020Y157790D03*
X307080Y164610D03*
X319120Y162090D03*
X315180Y168910D03*
X335570Y114590D03*
G54D26*
X-54510Y-403940D03*
X52690D03*
G54D17*
X-347000Y-120920D03*
X-340500Y-132180D03*
X-325860Y-107310D03*
X-120120Y346250D03*
X-131380Y339750D03*
X-107310Y325860D03*
X119970Y-348300D03*
X107310Y-325860D03*
X131230Y-341800D03*
X325860Y107310D03*
X345900Y121720D03*
X339400Y132980D03*
G54D35*
X327700Y-335810D03*
Y-355500D03*
G54D36*
G01X341950Y-419400D02*
X419400D01*
X435000Y-435000D01*
G54D18*
X-335860Y-70000D03*
Y-60000D03*
Y-50000D03*
Y-40000D03*
Y-30000D03*
Y-20000D03*
Y-10000D03*
Y0D03*
Y10000D03*
Y20000D03*
Y30000D03*
Y40000D03*
Y50000D03*
Y60000D03*
X-325860Y107310D03*
X-295860Y-159270D03*
X-300860Y-150610D03*
X-305860Y-141950D03*
X-310860Y-133290D03*
X-315860Y-124630D03*
X-320860Y-115970D03*
Y115970D03*
X-315860Y124630D03*
X-310860Y133290D03*
X-305860Y141950D03*
X-300860Y150610D03*
X-295860Y159270D03*
X-265860Y-211230D03*
X-270860Y-202570D03*
X-275860Y-193910D03*
X-280860Y-185250D03*
X-285860Y-176590D03*
X-290860Y-167930D03*
Y167930D03*
X-285860Y176590D03*
X-280860Y185250D03*
X-275860Y193910D03*
X-270860Y202570D03*
X-265860Y211230D03*
X-255860Y-228550D03*
X-260860Y-219890D03*
Y219890D03*
X-211230Y-265860D03*
X-219890Y-260860D03*
X-228550Y255860D03*
X-219890Y260860D03*
X-211230Y265860D03*
X-176590Y-285860D03*
X-185250Y-280860D03*
X-193910Y-275860D03*
X-202570Y-270860D03*
Y270860D03*
X-193910Y275860D03*
X-185250Y280860D03*
X-176590Y285860D03*
X-150610Y-300860D03*
X-159270Y-295860D03*
X-167930Y-290860D03*
Y290860D03*
X-159270Y295860D03*
X-150610Y300860D03*
X-115970Y-320860D03*
X-124630Y-315860D03*
X-133290Y-310860D03*
X-141950Y-305860D03*
Y305860D03*
X-133290Y310860D03*
X-124630Y315860D03*
X-115970Y320860D03*
X-107310Y-325860D03*
X-60000Y-335860D03*
X-70000Y335860D03*
X-60000D03*
X-30000Y-335860D03*
X-40000D03*
X-50000D03*
Y335860D03*
X-40000D03*
X-30000D03*
X0Y-335860D03*
X-10000D03*
X-20000D03*
Y335860D03*
X-10000D03*
X0D03*
X30000Y-335860D03*
X20000D03*
X10000D03*
Y335860D03*
X20000D03*
X30000D03*
X60000Y-335860D03*
X50000D03*
X40000D03*
Y335860D03*
X50000D03*
X60000D03*
X70000Y-335860D03*
X115970Y-320860D03*
X107310Y325860D03*
X115970Y320860D03*
X150610Y-300860D03*
X141950Y-305860D03*
X133290Y-310860D03*
X124630Y-315860D03*
X150610Y300860D03*
X124630Y315860D03*
X133290Y310860D03*
X141950Y305860D03*
X176590Y-285860D03*
X167930Y-290860D03*
X159270Y-295860D03*
Y295860D03*
X167930Y290860D03*
X176590Y285860D03*
X202570Y-270860D03*
X193910Y-275860D03*
X185250Y-280860D03*
X211230Y-265860D03*
X202570Y270860D03*
X211230Y265860D03*
X185250Y280860D03*
X193910Y275860D03*
X228550Y-255860D03*
X219890Y-260860D03*
Y260860D03*
X265860Y-211230D03*
X260860Y-219890D03*
X270860Y-202570D03*
Y202570D03*
X255860Y228550D03*
X260860Y219890D03*
X265860Y211230D03*
X280860Y-185250D03*
X275860Y-193910D03*
X300860Y-150610D03*
X295860Y-159270D03*
X290860Y-167930D03*
X285860Y-176590D03*
X300860Y150610D03*
X285860Y176590D03*
X290860Y167930D03*
X295860Y159270D03*
X275860Y193910D03*
X280860Y185250D03*
X315860Y-124630D03*
X310860Y-133290D03*
X305860Y-141950D03*
X325860Y-107310D03*
X320860Y-115970D03*
Y115970D03*
X305860Y141950D03*
X310860Y133290D03*
X315860Y124630D03*
X335860Y-40000D03*
Y-50000D03*
Y-60000D03*
Y-10000D03*
Y-20000D03*
Y-30000D03*
Y20000D03*
Y10000D03*
Y0D03*
Y50000D03*
Y40000D03*
Y30000D03*
Y70000D03*
Y60000D03*
G54D27*
X-48450Y-413040D03*
X-43450D03*
X-38450D03*
X-33450D03*
Y-394850D03*
X-38450D03*
X-43450D03*
X-48450D03*
X-28450Y-413040D03*
X-23450D03*
X-18450D03*
X-13450D03*
X-8450D03*
X-3450D03*
Y-394850D03*
X-8450D03*
X-13450D03*
X-18450D03*
X-23450D03*
X-28450D03*
X1550Y-413040D03*
X6550D03*
X11550D03*
X16550D03*
X21550D03*
X26550D03*
Y-394850D03*
X21550D03*
X16550D03*
X11550D03*
X6550D03*
X1550D03*
X31550Y-413040D03*
X36550D03*
X41550D03*
X46550D03*
Y-394850D03*
X41550D03*
X36550D03*
X31550D03*
G54D37*
G01X-425700Y-42290D02*
Y-39410D01*
G01X-429170Y-42290D02*
X-425700D01*
G01D02*
X-422230D01*
G01X-425650Y-3670D02*
Y-2470D01*
G01Y-5030D02*
Y-3830D01*
G01Y-5030D02*
X-421890D01*
G01X-425650Y-2470D02*
Y-1270D01*
G01Y-2470D02*
X-421890D01*
G01X-425650Y-1110D02*
Y90D01*
G01D02*
Y1290D01*
G01Y90D02*
X-421890D01*
G01X-425650Y1450D02*
Y2650D01*
G01D02*
Y3850D01*
G01Y2650D02*
X-421890D01*
G01X-400000Y-410710D02*
Y-400000D01*
G01D02*
Y-389290D01*
G01X-410710Y-400000D02*
X-400000D01*
G01D02*
X-389290D01*
G01X-403600Y-42590D02*
Y-39710D01*
G01X-407070Y-42590D02*
X-403600D01*
G01D02*
X-400130D01*
G01X-403600Y2650D02*
Y3850D01*
G01X-407360Y2650D02*
X-403600D01*
G01D02*
X-399840D01*
G01X-400000Y389290D02*
Y400000D01*
G01D02*
Y410710D01*
G01X-410710Y400000D02*
X-400000D01*
G01D02*
X-389290D01*
G01X-365450Y-18010D02*
X-359250D01*
G01X-365450Y-15450D02*
X-355500D01*
G01X-365450Y-12890D02*
X-359250D01*
G01X-365450Y-10330D02*
X-355500D01*
G01X-365450Y-7770D02*
X-359250D01*
G01X-365450Y-5210D02*
X-355500D01*
G01X-365450Y-90D02*
X-355500D01*
G01X-365450Y-2650D02*
X-359250D01*
G01X-360150Y57050D02*
Y60760D01*
G01X-363860Y57050D02*
X-360150D01*
G01D02*
X-356440D01*
G01X-342350Y-128970D02*
X-340500Y-132180D01*
G01D02*
X-338650Y-135390D01*
G01X-343710Y-134030D02*
X-340500Y-132180D01*
G01D02*
X-337290Y-130330D01*
G01X-332580Y-121060D02*
X-331140Y-123550D01*
G01X-335590Y-122790D02*
X-332580Y-121060D01*
G01X-334020Y-118570D02*
X-332580Y-121060D01*
G01D02*
X-329570Y-119330D01*
G01X-335860Y56290D02*
Y60000D01*
G01X-349500Y61960D02*
Y64840D01*
G01X-352970Y61960D02*
X-349500D01*
G01D02*
X-346030D01*
G01X-335860Y60000D02*
Y63710D01*
G01X-339570Y60000D02*
X-335860D01*
G01D02*
X-332150D01*
G01X-320860Y-119680D02*
Y-115970D01*
G01D02*
Y-112260D01*
G01X-324570Y-115970D02*
X-320860D01*
G01D02*
X-317150D01*
G01X-285710Y0D02*
X0D01*
G01X-273330Y229680D02*
X-270320Y227940D01*
G01D02*
X-267310Y226200D01*
G01X-271760Y225450D02*
X-270320Y227940D01*
G01D02*
X-268880Y230430D01*
G01X-286410Y231430D02*
X-283200Y229570D01*
G01D02*
X-279990Y227710D01*
G01X-285060Y226360D02*
X-283200Y229570D01*
G01D02*
X-281340Y232780D01*
G01X-260860Y216180D02*
Y219890D01*
G01D02*
Y223600D01*
G01X-264570Y219890D02*
X-260860D01*
G01D02*
X-257150D01*
G01X-224750Y-432000D02*
X-218550D01*
G01X-224750Y-433200D02*
Y-432000D01*
G01X-228510D02*
X-224750D01*
G01Y-403850D02*
X-230950D01*
G01X-224750Y-406410D02*
X-230950D01*
G01X-224750Y-408970D02*
X-218550D01*
G01X-224750Y-392640D02*
Y-389760D01*
G01X-228220D02*
X-224750D01*
G01D02*
X-221280D01*
G01X-233680Y-283390D02*
X-230470Y-285250D01*
G01D02*
X-227260Y-287110D01*
G01X-232330Y-288460D02*
X-230470Y-285250D01*
G01D02*
X-228610Y-282040D01*
G01X-228590Y-272220D02*
X-226100Y-273660D01*
G01X-230330Y-275230D02*
X-228590Y-272220D01*
G01X-219890Y-264570D02*
Y-260860D01*
G01D02*
Y-257150D01*
G01X-223600Y-260860D02*
X-219890D01*
G01D02*
X-216180D01*
G01X-231080Y-270780D02*
X-228590Y-272220D01*
G01D02*
X-226850Y-269210D01*
G01X-202700Y-429440D02*
X-196500D01*
G01X-202700Y-432000D02*
X-208900D01*
G01X-202700Y-433200D02*
Y-432000D01*
G01D02*
X-198940D01*
G01X-202700Y-392990D02*
Y-390110D01*
G01Y-403850D02*
X-208900D01*
G01X-202700Y-406410D02*
X-208900D01*
G01X-182900Y-366460D02*
Y-363350D01*
G01D02*
Y-360240D01*
G01X-185610Y-363350D02*
X-182900D01*
G01X-206170Y-390110D02*
X-202700D01*
G01D02*
X-199230D01*
G01X-182900Y-346110D02*
Y-343000D01*
G01D02*
Y-339890D01*
G01X-185610Y-343000D02*
X-182900D01*
G01X-161560Y-375920D02*
Y-372450D01*
G01D02*
Y-368980D01*
G01X-164440Y-372450D02*
X-161560D01*
G01X-161760Y-355370D02*
Y-351900D01*
G01D02*
Y-348430D01*
G01X-164640Y-351900D02*
X-161760D01*
G01X-138850Y-430600D02*
Y-429400D01*
G01D02*
X-135090D01*
G01X-120270Y-387010D02*
X-116800D01*
G01X-138850Y-389890D02*
Y-387010D01*
G01D02*
Y-384130D01*
G01X-142320Y-387010D02*
X-138850D01*
G01D02*
X-135380D01*
G01X-133230Y342960D02*
X-131380Y339750D01*
G01D02*
X-129530Y336540D01*
G01X-134590Y337900D02*
X-131380Y339750D01*
G01D02*
X-128170Y341600D01*
G01X-122490Y335140D02*
X-120760Y332130D01*
G01D02*
X-119030Y329120D01*
G01X-123250Y330690D02*
X-120760Y332130D01*
G01D02*
X-118270Y333570D01*
G01X-116800Y-430600D02*
Y-429400D01*
G01D02*
Y-428200D01*
G01Y-429400D02*
X-113040D01*
G01X-116800Y-428040D02*
Y-426840D01*
G01D02*
X-113040D01*
G01X-116800Y-389890D02*
Y-387010D01*
G01D02*
Y-384130D01*
G01Y-387010D02*
X-113330D01*
G01X-115970Y317150D02*
Y320860D01*
G01D02*
Y324570D01*
G01X-119680Y320860D02*
X-115970D01*
G01D02*
X-112260D01*
G01X-62110Y-351820D02*
Y-348350D01*
G01D02*
Y-344880D01*
G01X-64990Y-348350D02*
X-62110D01*
G01X-60000Y-339570D02*
Y-335860D01*
G01D02*
Y-332150D01*
G01X-63710Y-335860D02*
X-60000D01*
G01D02*
X-56290D01*
G01X-60860Y-359950D02*
X-57150D01*
G01X-33450Y-394850D02*
Y-384340D01*
G01X-38450Y-394850D02*
Y-384340D01*
G01X-43450Y-394850D02*
Y-384340D01*
G01X-48450Y-413040D02*
X-58960D01*
G01X-57150Y-363660D02*
Y-359950D01*
G01D02*
Y-356240D01*
G01X-3450Y-394850D02*
Y-384340D01*
G01X-8450Y-394850D02*
Y-384340D01*
G01X-13450Y-394850D02*
Y-384340D01*
G01X-18450Y-394850D02*
Y-384340D01*
G01X-23450Y-394850D02*
Y-384340D01*
G01X-28450Y-394850D02*
Y-384340D01*
G01X0Y-285710D02*
Y0D01*
G01D02*
Y285710D01*
G01Y0D02*
X285710D01*
G01X16550Y-413040D02*
Y-423550D01*
G01X6550Y-413040D02*
Y-423550D01*
G01X11550Y-394850D02*
Y-384340D01*
G01X6550Y-394850D02*
Y-384340D01*
G01X1550Y-394850D02*
Y-384340D01*
G01X21550Y-394850D02*
Y-384340D01*
G01X16550Y-394850D02*
Y-384340D01*
G01X26550Y-394850D02*
Y-384340D01*
G01X36550Y-394850D02*
Y-384340D01*
G01X31550Y-394850D02*
Y-384340D01*
G01X46550Y-394850D02*
Y-384340D01*
G01X41550Y-394850D02*
Y-384340D01*
G01X60000Y332150D02*
Y335860D01*
G01D02*
Y339570D01*
G01X56290Y335860D02*
X60000D01*
G01D02*
X63710D01*
G01X57050Y357240D02*
Y360950D01*
G01D02*
Y364660D01*
G01Y360950D02*
X60760D01*
G01X61960Y346380D02*
Y349850D01*
G01D02*
Y353320D01*
G01Y349850D02*
X64840D01*
G01X118420Y-334670D02*
X120910Y-333230D01*
G01X115970Y-324570D02*
Y-320860D01*
G01D02*
Y-317150D01*
G01X112260Y-320860D02*
X115970D01*
G01D02*
X119680D01*
G01X119180Y-330220D02*
X120910Y-333230D01*
G01X147250Y-423150D02*
Y-421950D01*
G01D02*
X151010D01*
G01X147250Y-400120D02*
Y-398920D01*
G01D02*
X151010D01*
G01X147300Y-382690D02*
Y-379810D01*
G01X143830D02*
X147300D01*
G01D02*
X150770D01*
G01X129380Y-338590D02*
X131230Y-341800D01*
G01D02*
X133080Y-345010D01*
G01X128020Y-343650D02*
X131230Y-341800D01*
G01D02*
X134440Y-339950D01*
G01X120910Y-333230D02*
X122640Y-336240D01*
G01X120910Y-333230D02*
X123400Y-331790D01*
G01X169300Y-423150D02*
Y-421950D01*
G01Y-420590D02*
Y-419390D01*
G01D02*
X173060D01*
G01X169300Y-421950D02*
Y-420750D01*
G01Y-421950D02*
X173060D01*
G01X177600Y-367840D02*
Y-364960D01*
G01X174130Y-367840D02*
X177600D01*
G01D02*
X181070D01*
G01X169250Y-382690D02*
Y-379810D01*
G01X165780D02*
X169250D01*
G01D02*
X172720D01*
G01X177550Y-327650D02*
Y-326450D01*
G01D02*
Y-325250D01*
G01Y-326450D02*
X181310D01*
G01X177550Y-329010D02*
Y-327810D01*
G01Y-329010D02*
X181310D01*
G01X199650Y-367990D02*
Y-365110D01*
G01X196180Y-367990D02*
X199650D01*
G01D02*
X203120D01*
G01X195840Y-349480D02*
X199600D01*
G01D02*
X203360D01*
G01X199600Y-326450D02*
Y-325250D01*
G01X195840Y-326450D02*
X199600D01*
G01D02*
X203360D01*
G01X233600Y-438510D02*
Y-427950D01*
G01D02*
Y-417390D01*
G01X228950Y-427950D02*
X233600D01*
G01D02*
X238250D01*
G01X230360Y-402560D02*
Y-398700D01*
G01D02*
Y-394840D01*
G01X223350Y-398700D02*
X230360D01*
G01D02*
X237370D01*
G01X238190Y-385920D02*
Y-382450D01*
G01D02*
Y-378980D01*
G01X235310Y-382450D02*
X238190D01*
G01D02*
X241070D01*
G01X230310Y-385920D02*
Y-382450D01*
G01D02*
Y-378980D01*
G01X227430Y-382450D02*
X230310D01*
G01X219890Y257150D02*
Y260860D01*
G01D02*
Y264570D01*
G01X216180Y260860D02*
X219890D01*
G01D02*
X223600D01*
G01X226510Y286960D02*
X229720Y285100D01*
G01D02*
X232930Y283240D01*
G01X227860Y281890D02*
X229720Y285100D01*
G01D02*
X231580Y288310D01*
G01X225450Y272710D02*
X227940Y271270D01*
G01D02*
X230430Y269830D01*
G01X226200Y268260D02*
X227940Y271270D01*
G01D02*
X229680Y274280D01*
G01X252100Y-444410D02*
Y-439760D01*
G01D02*
Y-435110D01*
G01X241540Y-439760D02*
X252100D01*
G01D02*
X262660D01*
G01X250050Y-402560D02*
Y-398700D01*
G01D02*
Y-394840D01*
G01X243040Y-398700D02*
X250050D01*
G01D02*
X257060D01*
G01X267660Y-226650D02*
X270670Y-228390D01*
G01X269230Y-230880D02*
X270670Y-228390D01*
G01X260860Y-223600D02*
Y-219890D01*
G01D02*
Y-216180D01*
G01X257150Y-219890D02*
X260860D01*
G01D02*
X264570D01*
G01X289250Y-404560D02*
Y-401750D01*
G01D02*
Y-398940D01*
G01X284040Y-401750D02*
X289250D01*
G01D02*
X294460D01*
G01X289250Y-397860D02*
Y-395050D01*
G01D02*
Y-392240D01*
G01X284040Y-395050D02*
X289250D01*
G01D02*
X294460D01*
G01X289200Y-366560D02*
Y-362600D01*
G01X289250Y-384460D02*
Y-381650D01*
G01D02*
Y-378840D01*
G01X284040Y-381650D02*
X289250D01*
G01D02*
X294460D01*
G01X289250Y-377760D02*
Y-374950D01*
G01D02*
Y-372140D01*
G01X284040Y-374950D02*
X289250D01*
G01D02*
X294460D01*
G01X289200Y-341060D02*
Y-337100D01*
G01D02*
Y-333140D01*
G01X282240Y-337100D02*
X289200D01*
G01D02*
X296160D01*
G01X289200Y-362600D02*
Y-358640D01*
G01X282240Y-362600D02*
X289200D01*
G01D02*
X296160D01*
G01X289250Y-317960D02*
Y-314100D01*
G01D02*
Y-310240D01*
G01X282240Y-314100D02*
X289250D01*
G01D02*
X296260D01*
G01X277090Y-317420D02*
Y-313950D01*
G01D02*
Y-310480D01*
G01X274210Y-313950D02*
X277090D01*
G01D02*
X279970D01*
G01X297090Y-300520D02*
Y-297050D01*
G01D02*
Y-293580D01*
G01Y-297050D02*
X299970D01*
G01X289210Y-300520D02*
Y-297050D01*
G01D02*
Y-293580D01*
G01X286330Y-297050D02*
X289210D01*
G01D02*
X292090D01*
G01X301100Y-253940D02*
X294900D01*
G01X301100Y-256500D02*
X291150D01*
G01X301100Y-259060D02*
X294900D01*
G01X301100Y-261620D02*
X291150D01*
G01X280290Y-227810D02*
X283500Y-229670D01*
G01D02*
X286710Y-231530D01*
G01X281640Y-232880D02*
X283500Y-229670D01*
G01D02*
X285360Y-226460D01*
G01X270670Y-228390D02*
X273680Y-230130D01*
G01X270670Y-228390D02*
X272110Y-225900D01*
G01X316450Y-426360D02*
Y-419400D01*
G01X328250Y-410160D02*
Y-388450D01*
G01X316450Y-419400D02*
Y-412440D01*
G01X312490Y-419400D02*
X316450D01*
G01D02*
X320410D01*
G01X328250Y-388450D02*
Y-366740D01*
G01Y-388450D02*
X346460D01*
G01X327700Y-342820D02*
Y-335810D01*
G01D02*
Y-328800D01*
G01X323840Y-335810D02*
X327700D01*
G01D02*
X331560D01*
G01X327700Y-362510D02*
Y-355500D01*
G01D02*
Y-348490D01*
G01X323840Y-355500D02*
X327700D01*
G01D02*
X331560D01*
G01X308940Y-317960D02*
Y-314100D01*
G01D02*
Y-310240D01*
G01X301930Y-314100D02*
X308940D01*
G01D02*
X315950D01*
G01X320860Y112260D02*
Y115970D01*
G01D02*
Y119680D01*
G01X317150Y115970D02*
X320860D01*
G01D02*
X324570D01*
G01X330190Y123900D02*
X331630Y121410D01*
G01X328620Y119680D02*
X331630Y121410D01*
G01X345300Y-347660D02*
Y-344780D01*
G01X341830Y-347660D02*
X345300D01*
G01D02*
X348770D01*
G01X354200Y-347710D02*
Y-344830D01*
G01X350730Y-347710D02*
X354200D01*
G01D02*
X357670D01*
G01X354200Y-341110D02*
Y-337150D01*
G01D02*
Y-333190D01*
G01X347240Y-337150D02*
X354200D01*
G01D02*
X361160D01*
G01X345300Y-358420D02*
Y-355540D01*
G01D02*
Y-352660D01*
G01X341830Y-355540D02*
X345300D01*
G01D02*
X348770D01*
G01X354200Y-358470D02*
Y-355590D01*
G01D02*
Y-352710D01*
G01X350730Y-355590D02*
X354200D01*
G01D02*
X357670D01*
G01X344050Y-275650D02*
Y-274450D01*
G01X340290D02*
X344050D01*
G01D02*
X347810D01*
G01X343950Y-235140D02*
Y-232260D01*
G01D02*
Y-229380D01*
G01X340480Y-232260D02*
X343950D01*
G01X335860Y-63710D02*
Y-60000D01*
G01X347450Y-64990D02*
Y-62110D01*
G01X359050Y-60860D02*
Y-57150D01*
G01X355340D02*
X359050D01*
G01D02*
X362760D01*
G01X335860Y-60000D02*
Y-56290D01*
G01X332150Y-60000D02*
X335860D01*
G01D02*
X339570D01*
G01X343980Y-62110D02*
X347450D01*
G01D02*
X350920D01*
G01X337550Y136190D02*
X339400Y132980D01*
G01D02*
X341250Y129770D01*
G01X336190Y131130D02*
X339400Y132980D01*
G01D02*
X342610Y134830D01*
G01X331630Y121410D02*
X333070Y118920D01*
G01X331630Y121410D02*
X334640Y123140D01*
G01X389290Y-400000D02*
X400000D01*
G01X366100Y-273090D02*
Y-271890D01*
G01Y-275650D02*
Y-274450D01*
G01D02*
Y-273250D01*
G01X362340Y-274450D02*
X366100D01*
G01Y-267970D02*
Y-266770D01*
G01X362340D02*
X366100D01*
G01Y-270530D02*
Y-269330D01*
G01D02*
Y-268130D01*
G01X362340Y-269330D02*
X366100D01*
G01Y-271890D02*
Y-270690D01*
G01X362340Y-271890D02*
X366100D01*
G01X366050Y-235440D02*
Y-232560D01*
G01X362580D02*
X366050D01*
G01D02*
X369520D01*
G01X389290Y400000D02*
X400000D01*
G01Y-410710D02*
Y-400000D01*
G01D02*
Y-389290D01*
G01Y-400000D02*
X410710D01*
G01X400000Y389290D02*
Y400000D01*
G01D02*
Y410710D01*
G01Y400000D02*
X410710D01*
G54D19*
X-300830Y195910D03*
X-304770Y189090D03*
X-292430Y190660D03*
X-296370Y183840D03*
X-270320Y227940D03*
X-266380Y234760D03*
X270670Y-228390D03*
X266730Y-235210D03*
X292380Y-191960D03*
X296320Y-185140D03*
X300230Y-196560D03*
X304170Y-189740D03*
G54D28*
X233600Y-427950D03*
G54D38*
G01X-425700Y-34410D02*
Y-26940D01*
X-425650Y-26890D01*
Y-25500D01*
G01X-425700Y-42290D02*
Y-47300D01*
G01X-425650Y-25500D02*
X-421100D01*
G01X-425650Y-5030D02*
X-430660D01*
G01X-425650Y2650D02*
X-430660D01*
G01X-425650Y90D02*
X-430660D01*
G01X-425650Y-2470D02*
X-430660D01*
G01X-403600Y-42590D02*
Y-47600D01*
G01Y-34710D02*
Y-25500D01*
G01X-393050Y-5210D02*
X-399470D01*
X-399650Y-5030D01*
X-403600D01*
G01Y-2470D02*
X-397380D01*
X-397200Y-2650D01*
X-393050D01*
G01X-403600Y-20380D02*
X-407730D01*
G01X-403600Y-22940D02*
X-399040D01*
G01X-403600Y-25500D02*
X-399050D01*
G01X-403600Y-7590D02*
X-397380D01*
X-397200Y-7770D01*
X-393050D01*
G01X-403600Y-10150D02*
X-397380D01*
X-397200Y-10330D01*
X-393050D01*
G01X-403600Y-17820D02*
X-397390D01*
X-397200Y-18010D01*
X-393050D01*
G01X-403600Y-15260D02*
X-397390D01*
X-397200Y-15450D01*
X-393050D01*
G01X-403600Y-12700D02*
X-397390D01*
X-397200Y-12890D01*
X-393050D01*
G01Y-90D02*
X-399470D01*
X-399650Y90D01*
X-403600D01*
G01X-362650Y12110D02*
X-362200D01*
X-362050Y12260D01*
X-353150D01*
G01Y20140D02*
X-339900D01*
X-339760Y20000D01*
X-335860D01*
G01X-316080Y-168510D02*
X-315690D01*
X-315540Y-168360D01*
X-307830Y-163910D01*
G01X-311770Y-157090D02*
X-308600Y-155260D01*
X-305510D01*
X-300860Y-150610D01*
G01X-304770Y189090D02*
X-300510Y186630D01*
Y186230D01*
X-296370Y183840D01*
G01X-292430Y190660D02*
X-286450Y201050D01*
X-275400D01*
X-269100Y194750D01*
Y190650D01*
X-272650Y187100D01*
X-273950D01*
X-277090Y186260D01*
X-280860Y185250D01*
G01X-268650Y-411590D02*
X-262450D01*
G01X-234850Y-429510D02*
X-228770D01*
X-228700Y-429440D01*
X-224750D01*
G01X-234850Y-424390D02*
X-228770D01*
X-228700Y-424320D01*
X-224750D01*
G01X-234850Y-426950D02*
X-228770D01*
X-228700Y-426880D01*
X-224750D01*
G01Y-406410D02*
Y-403850D01*
G01D02*
Y-397640D01*
G01X-234850Y-421830D02*
X-228770D01*
X-228700Y-421760D01*
X-224750D01*
G01X-234850Y-411590D02*
X-228760D01*
X-228700Y-411530D01*
X-224750D01*
G01X-234850Y-414150D02*
X-228760D01*
X-228700Y-414090D01*
X-224750D01*
G01X-234850Y-419270D02*
X-228770D01*
X-228700Y-419200D01*
X-224750D01*
G01X-234850Y-416710D02*
X-228760D01*
X-228700Y-416650D01*
X-224750D01*
G01X-204440Y-372250D02*
X-209750D01*
G01X-224750Y-389760D02*
Y-384450D01*
G01X-202700Y-429440D02*
Y-432000D01*
G01Y-426880D02*
X-208120D01*
G01X-202700Y-403850D02*
Y-397990D01*
G01Y-411530D02*
X-208120D01*
G01X-202700Y-416650D02*
X-208120D01*
G01X-202700Y-421760D02*
X-208120D01*
G01X-204440Y-372250D02*
Y-358560D01*
G01X-182900Y-363350D02*
X-177590D01*
G01X-202700Y-390110D02*
Y-385300D01*
G01X-196560Y-372250D02*
X-189650D01*
X-189550Y-372350D01*
X-186650D01*
G01D02*
Y-377660D01*
G01X-182900Y-343000D02*
X-177590D01*
G01X-191710Y-290730D02*
X-189880Y-287560D01*
Y-285490D01*
X-185250Y-280860D01*
G01X-196160Y-298730D02*
X-195870Y-298220D01*
X-192030Y-297190D01*
Y-297020D01*
X-185180Y-295180D01*
X-184890Y-294670D01*
G01X-161560Y-372450D02*
X-156250D01*
G01X-103000Y-427050D02*
Y-374200D01*
X-110050Y-367150D01*
X-127500D01*
X-132000Y-362650D01*
X-166800D01*
X-169640Y-359810D01*
Y-351900D01*
G01X-179150Y-372350D02*
X-172610D01*
X-172510Y-372450D01*
X-169440D01*
G01X-169450Y-382760D02*
Y-376120D01*
X-169440Y-376110D01*
Y-372450D01*
G01X-161760Y-351900D02*
X-156450D01*
G01X-179150Y-352000D02*
X-172810D01*
X-172710Y-351900D01*
X-169640D01*
G01X-157090Y310770D02*
X-155260Y307600D01*
Y305510D01*
X-150610Y300860D01*
G01X-168710Y314830D02*
X-168650D01*
G01D02*
X-168360Y314540D01*
X-163910Y306830D01*
G01X-138850Y-429400D02*
X-143200D01*
G01X-116800D02*
X-121150D01*
G01X-116800Y-426840D02*
X-121150D01*
G01X-138850Y-403810D02*
X-143200D01*
G01X-138850Y-401250D02*
Y-394890D01*
G01Y-401250D02*
X-143200D01*
G01X-138850Y-406370D02*
X-134500D01*
G01X-116800Y-403810D02*
X-112450D01*
G01X-116800Y-401250D02*
Y-394890D01*
G01Y-401250D02*
X-112450D01*
G01X-116800Y-419160D02*
Y-421720D01*
G01Y-416600D02*
Y-419160D01*
G01Y-414050D02*
Y-416600D01*
G01Y-411490D02*
Y-414050D01*
G01Y-408930D02*
Y-411490D01*
G01Y-408930D02*
X-112450D01*
G01X-116800Y-406370D02*
Y-408930D01*
G01X-58900Y-443890D02*
Y-447850D01*
G01X-34650Y-443990D02*
Y-447950D01*
G01X-42750Y-443990D02*
Y-447950D01*
G01X-50800Y-443940D02*
Y-447900D01*
G01Y-432100D02*
Y-426650D01*
X-49350Y-425200D01*
X-36620D01*
X-33450Y-422030D01*
Y-413040D01*
G01X-50800Y-436060D02*
Y-432100D01*
G01X-42750Y-432150D02*
Y-428350D01*
X-41250Y-426850D01*
X-32200D01*
X-28450Y-423100D01*
Y-413040D01*
G01X-42750Y-436110D02*
Y-432150D01*
G01X-34650D02*
Y-429700D01*
X-33850Y-428900D01*
X-28150D01*
X-23450Y-424200D01*
Y-413040D01*
G01X-34650Y-436110D02*
Y-432150D01*
G01X-38450Y-413040D02*
Y-422200D01*
X-39550Y-423300D01*
X-55700D01*
X-58900Y-426500D01*
Y-432050D01*
G01Y-436010D02*
Y-432050D01*
G01X-47600Y-363150D02*
X-50000Y-360750D01*
Y-335860D01*
G01X-2300Y-444090D02*
Y-448050D01*
G01X-10350Y-444040D02*
Y-448000D01*
G01X-18400Y-444040D02*
Y-448000D01*
G01X-26500Y-443990D02*
Y-447950D01*
G01Y-436110D02*
Y-432150D01*
G01X-18450Y-413040D02*
Y-424100D01*
X-26500Y-432150D01*
G01X-18400Y-436160D02*
Y-432200D01*
G01X-13450Y-413040D02*
Y-427250D01*
X-18400Y-432200D01*
G01X-10350Y-436160D02*
Y-432200D01*
G01X-8450Y-413040D02*
Y-430300D01*
X-10350Y-432200D01*
G01X-3450Y-413040D02*
X-3790Y-413380D01*
Y-430760D01*
X-2300Y-432250D01*
G01Y-436210D02*
Y-432250D01*
G01X-20040Y-352100D02*
Y-339800D01*
X-20000Y-339760D01*
Y-335860D01*
G01X-12160Y-352100D02*
Y-360650D01*
G01D02*
X-12260Y-360750D01*
G01X13850Y-444190D02*
Y-448150D01*
G01X22000Y-444240D02*
Y-448200D01*
G01X30150Y-444340D02*
Y-448300D01*
G01X5800Y-444140D02*
Y-448100D01*
G01Y-436260D02*
Y-432300D01*
G01X1550Y-413040D02*
Y-428050D01*
X5800Y-432300D01*
G01X30150Y-436460D02*
Y-432500D01*
G01X26550Y-413040D02*
Y-428900D01*
X30150Y-432500D01*
G01X22000Y-436360D02*
Y-432400D01*
G01X21550Y-413040D02*
X22000Y-413490D01*
Y-432400D01*
G01X11550Y-413040D02*
Y-430050D01*
X13850Y-432350D01*
G01Y-436310D02*
Y-432350D01*
G01X21600Y-365310D02*
Y-360200D01*
G01X29950Y-365310D02*
Y-360200D01*
G01X21550Y-384340D02*
Y-376310D01*
X21600Y-376260D01*
Y-373190D01*
G01X26550Y-384340D02*
Y-379660D01*
X29950Y-376260D01*
Y-373190D01*
G01X19840Y348750D02*
Y339920D01*
X20000Y339760D01*
Y335860D01*
G01X11960Y358400D02*
Y348750D01*
G01X38350Y-444290D02*
Y-448250D01*
G01X46500Y-444190D02*
Y-448150D01*
G01X54650Y-444290D02*
Y-448250D01*
G01X46550Y-413040D02*
Y-419690D01*
X59260Y-432400D01*
X62900D01*
G01X54650Y-432450D02*
X51970D01*
X41550Y-422030D01*
Y-413040D01*
G01X54650Y-436410D02*
Y-432450D01*
G01X46500Y-436310D02*
Y-432350D01*
G01X36550Y-413040D02*
Y-422400D01*
X46500Y-432350D01*
G01X38350Y-436410D02*
Y-432450D01*
G01X31550Y-413040D02*
Y-425650D01*
X38350Y-432450D01*
G01X38050Y-365260D02*
Y-360150D01*
G01X46150Y-365260D02*
Y-360150D01*
G01X54350Y-365310D02*
Y-360200D01*
G01X36550Y-384340D02*
Y-382240D01*
X39690Y-379100D01*
X43260D01*
X46150Y-376210D01*
Y-373140D01*
G01X38050D02*
Y-376210D01*
X38000Y-376260D01*
Y-376650D01*
X36400Y-378250D01*
X33150D01*
X31550Y-379850D01*
Y-384340D01*
G01X62600Y-373190D02*
Y-381400D01*
X59660Y-384340D01*
X46550D01*
G01X41550D02*
X44590Y-381300D01*
X52240D01*
X54350Y-379190D01*
Y-373190D01*
G01X62900Y-444240D02*
Y-448200D01*
G01Y-436360D02*
Y-432400D01*
G01X62600Y-365310D02*
Y-360200D01*
G01X107650Y-416550D02*
X102990D01*
G01X107650Y-419110D02*
X100800D01*
G01X107650Y-413990D02*
X100800D01*
G01X147250Y-396360D02*
X151650D01*
G01X147300Y-387690D02*
Y-392360D01*
X147250Y-392410D01*
Y-393800D01*
G01D02*
X151650D01*
G01X147250Y-398920D02*
X142850D01*
G01X147250Y-421950D02*
X142850D01*
G01X135250Y-411430D02*
X143020D01*
X143300Y-411710D01*
X147250D01*
G01X135250Y-413990D02*
X143020D01*
X143300Y-414270D01*
X147250D01*
G01X135250Y-419110D02*
X143020D01*
X143300Y-419390D01*
X147250D01*
G01X135250Y-416550D02*
X143020D01*
X143300Y-416830D01*
X147250D01*
G01X147300Y-379810D02*
Y-375900D01*
G01X157390Y-311570D02*
X155560Y-308400D01*
Y-305810D01*
X150610Y-300860D01*
G01X169300Y-419390D02*
X164900D01*
G01X169300Y-421950D02*
X164900D01*
G01X169300Y-393800D02*
X164900D01*
G01X169250Y-387690D02*
Y-392360D01*
X169300Y-392410D01*
Y-393800D01*
G01Y-396360D02*
X173240D01*
G01X169300Y-411710D02*
X176040D01*
G01X169300Y-414270D02*
X173700D01*
G01X169300Y-416830D02*
X176040D01*
G01X169250Y-379810D02*
Y-375900D01*
G01X177600Y-367840D02*
Y-375850D01*
G01X177550Y-352040D02*
X170810D01*
G01X177550Y-354600D02*
Y-352040D01*
G01Y-354600D02*
X173150D01*
G01X177600Y-359960D02*
Y-356040D01*
X177550Y-355990D01*
Y-354600D01*
G01Y-344360D02*
X173150D01*
G01X177550Y-341800D02*
X170810D01*
G01X177550Y-336690D02*
X170810D01*
G01X177550Y-334130D02*
X173150D01*
G01X177550Y-349480D02*
X173150D01*
G01X177550Y-346920D02*
X170810D01*
G01X177550Y-339250D02*
X173150D01*
G01X177550Y-329010D02*
X173150D01*
G01X177550Y-326450D02*
X170810D01*
G01X177550Y-331570D02*
X170810D01*
G01X168660Y-315430D02*
Y-315340D01*
G01D02*
X164210Y-307630D01*
G01X199650Y-367990D02*
Y-376000D01*
G01X199600Y-336690D02*
X208480D01*
X208500Y-336670D01*
X212650D01*
G01X199600Y-334130D02*
X208480D01*
X208500Y-334110D01*
X212650D01*
G01X199600Y-344360D02*
X208490D01*
X208500Y-344350D01*
X212650D01*
G01X199600Y-354600D02*
X204500D01*
G01X199600Y-352040D02*
X194240D01*
G01X199650Y-360110D02*
Y-356040D01*
X199600Y-355990D01*
Y-354600D01*
G01D02*
Y-352040D01*
G01Y-346920D02*
X208490D01*
X208500Y-346910D01*
X212650D01*
G01X199600Y-339250D02*
X208480D01*
X208500Y-339230D01*
X212650D01*
G01X199600Y-341800D02*
X208490D01*
X208500Y-341790D01*
X212650D01*
G01X199600Y-331570D02*
X208480D01*
X208500Y-331550D01*
X212650D01*
G01X199600Y-329010D02*
X208480D01*
X208500Y-328990D01*
X212650D01*
G01X191790Y291170D02*
X189960Y288000D01*
Y285570D01*
X185250Y280860D01*
G01X203310Y295330D02*
Y295190D01*
X203060Y294940D01*
X198610Y287230D01*
G01X196490Y299270D02*
X196340D01*
X196040Y299570D01*
G01X292380Y-191960D02*
X289210Y-190130D01*
X285740D01*
X280860Y-185250D01*
G01X304170Y-189730D02*
X304030Y-189590D01*
X296320Y-185140D01*
G01X309750Y-261350D02*
X306920Y-264180D01*
X301100D01*
G01X309300Y-266550D02*
X305440D01*
X305250Y-266740D01*
X301100D01*
G01X328700D02*
X340070D01*
X340100Y-266770D01*
X344050D01*
G01X328700Y-256500D02*
X340060D01*
X340100Y-256540D01*
X344050D01*
G01X328700Y-269300D02*
X340070D01*
X340100Y-269330D01*
X344050D01*
G01X328700Y-259060D02*
X340060D01*
X340100Y-259100D01*
X344050D01*
G01X328700Y-261620D02*
X340070D01*
X340100Y-261650D01*
X344050D01*
G01X328700Y-271860D02*
X340070D01*
X340100Y-271890D01*
X344050D01*
G01X328700Y-253940D02*
X340060D01*
X340100Y-253980D01*
X344050D01*
G01X328700Y-264180D02*
X340070D01*
X340100Y-264210D01*
X344050D01*
G01X304170Y-189740D02*
Y-189730D01*
G01X311020Y157790D02*
X307850Y155960D01*
X306210D01*
X300860Y150610D01*
G01X315180Y168910D02*
X314940D01*
X314790Y169060D01*
X307080Y164610D01*
G01X344050Y-251420D02*
X349550D01*
G01X344050Y-246300D02*
Y-243310D01*
X343950Y-243210D01*
Y-240140D01*
G01X344050Y-246300D02*
X338550D01*
G01X344050Y-248860D02*
Y-246300D01*
G01Y-248860D02*
X338550D01*
G01X343950Y-232260D02*
X350010D01*
G01X351500Y-19940D02*
X339820D01*
X339760Y-20000D01*
X335860D01*
G01X351500Y-12060D02*
X360400D01*
G01X366100Y-274450D02*
X371600D01*
G01X366100Y-246300D02*
Y-248860D01*
G01X366050Y-240440D02*
Y-244860D01*
X366100Y-244910D01*
Y-246300D01*
G01D02*
X371600D01*
G01X366100Y-248860D02*
X371600D01*
G01X366100Y-266770D02*
X371600D01*
G01X366100Y-269330D02*
X371600D01*
G01X366100Y-271890D02*
X371600D01*
G01X366050Y-232560D02*
Y-227000D01*
G54D29*
X230360Y-398700D03*
X250050D03*
X289250Y-314100D03*
X308940D03*
G54D39*
G01X-425650Y-25500D02*
Y-22940D01*
G01Y-20380D02*
X-418550D01*
G01X-425650Y-17820D02*
X-413630D01*
G01X-425650Y-15260D02*
X-432260D01*
G01X-425650Y-12700D02*
X-413630D01*
G01X-425650Y-10150D02*
X-418550D01*
G01X-425650Y-7590D02*
X-413630D01*
G01X-362650Y12110D02*
X-370040D01*
G01X-316080Y-168510D02*
X-322480Y-172210D01*
G01X-304770Y189090D02*
X-311170Y192780D01*
G01X-262450Y-429510D02*
X-272400D01*
G01X-262450Y-424390D02*
X-272400D01*
G01X-262450Y-414150D02*
X-272400D01*
G01X-262450Y-419270D02*
X-272400D01*
G01X-262450Y-426950D02*
X-268650D01*
G01X-262450Y-416710D02*
X-268650D01*
G01X-262450Y-421830D02*
X-268650D01*
G01X-202700Y-424320D02*
X-187320D01*
G01X-202700Y-408970D02*
X-190030D01*
G01X-202700Y-414090D02*
X-187090D01*
G01X-202700Y-419200D02*
X-187200D01*
G01X-196560Y-372250D02*
Y-366940D01*
G01X-196160Y-298730D02*
X-199850Y-305130D01*
G01X-48450Y-394850D02*
X-73850D01*
X-79000Y-400000D01*
Y-435000D01*
X-81000Y-437000D01*
X-163000D01*
X-169450Y-430550D01*
Y-390640D01*
G01X-168650Y314830D02*
X-172350Y321230D01*
G01X-138850Y-424280D02*
Y-426840D01*
G01Y-421720D02*
Y-424280D01*
G01Y-426840D02*
X-133660D01*
G01X-129000Y-403500D02*
Y-406500D01*
X-131430Y-408930D01*
X-138850D01*
G01Y-419160D02*
Y-421720D01*
G01Y-416600D02*
Y-419160D01*
G01Y-414050D02*
Y-416600D01*
G01Y-411490D02*
Y-414050D01*
G01Y-408930D02*
Y-411490D01*
G01X-116800Y-421720D02*
Y-424280D01*
G01X-12160Y-360650D02*
Y-368040D01*
G01X11960Y358400D02*
Y365790D01*
G01X107650Y-411430D02*
X114570D01*
X115000Y-411000D01*
G01X169300Y-409150D02*
X164150D01*
G01X168660Y-315340D02*
X172360Y-321740D01*
G01X203310Y295330D02*
X207000Y301730D01*
G01X240250Y-346910D02*
X246990D01*
G01X240250Y-344350D02*
X244650D01*
G01X240250Y-341790D02*
X246990D01*
G01X240250Y-339230D02*
X244650D01*
G01X240250Y-336670D02*
X246990D01*
G01X240250Y-334110D02*
X244650D01*
G01X240250Y-331550D02*
X246990D01*
G01X240250Y-328990D02*
X244650D01*
G01X304170Y-189730D02*
X310570Y-193420D01*
G01X315180Y168910D02*
X321580Y172610D01*
G01X366100Y-261650D02*
X359650D01*
X355400Y-265900D01*
G01X370000Y-222200D02*
X363200D01*
X360200Y-225200D01*
Y-252400D01*
X361780Y-253980D01*
X366100D01*
G01X355600Y-249900D02*
Y-254100D01*
X358040Y-256540D01*
X366100D01*
G01X360400Y-19940D02*
X369940D01*
G01X360400Y-12060D02*
X367790D01*
G01X366100Y-264210D02*
X373920D01*
G01X366100Y-251420D02*
X378120D01*
G01X366100Y-259100D02*
X373920D01*
M02*
