G04 ================== begin FILE IDENTIFICATION RECORD ==================*
G04 Layout Name:  LED_12inArena V2-1.brd*
G04 Film Name:    GND3*
G04 File Format:  Gerber RS274X*
G04 File Origin:  Cadence Allegro 17.2-P019*
G04 Origin Date:  Mon Oct 05 13:51:22 2020*
G04 *
G04 Layer:  VIA KEEPOUT/ALL*
G04 Layer:  VIA KEEPOUT/BOTTOM*
G04 Layer:  VIA KEEPOUT/MISO*
G04 Layer:  VIA KEEPOUT/GND3*
G04 Layer:  VIA KEEPOUT/SIG*
G04 Layer:  VIA KEEPOUT/PWR*
G04 Layer:  VIA KEEPOUT/TOP*
G04 Layer:  VIA CLASS/FILMMASKBOTTOM*
G04 Layer:  VIA CLASS/GND3*
G04 Layer:  ROUTE KEEPOUT/ALL*
G04 Layer:  ROUTE KEEPOUT/BOTTOM*
G04 Layer:  ROUTE KEEPOUT/MISO*
G04 Layer:  ROUTE KEEPOUT/GND3*
G04 Layer:  ROUTE KEEPOUT/SIG*
G04 Layer:  ROUTE KEEPOUT/PWR*
G04 Layer:  ROUTE KEEPOUT/TOP*
G04 Layer:  ROUTE KEEPIN/ALL*
G04 Layer:  PIN/FILMMASKBOTTOM*
G04 Layer:  PIN/GND3*
G04 Layer:  PACKAGE KEEPOUT/ALL*
G04 Layer:  PACKAGE KEEPOUT/TOP*
G04 Layer:  PACKAGE KEEPOUT/BOTTOM*
G04 Layer:  PACKAGE KEEPIN/ALL*
G04 Layer:  ETCH/GND3*
G04 Layer:  BOARD GEOMETRY/OUTLINE*
G04 *
G04 Offset:    (0.0 0.0)*
G04 Mirror:    No*
G04 Mode:      Positive*
G04 Rotation:  0*
G04 FullContactRelief:  No*
G04 UndefLineWidth:     0.1*
G04 ================== end FILE IDENTIFICATION RECORD ====================*
%FSLAX25Y25*MOIN*%
%IR0*IPPOS*OFA0.00000B0.00000*MIA0B0*SFA1.00000B1.00000*%
%ADD10C,.2*%
%ADD16R,.1969X.0787*%
%ADD15R,.0787X.1969*%
%ADD12C,.06*%
%ADD11C,.024*%
%ADD13C,5.7*%
%ADD14C,.0787*%
%ADD17C,.005*%
%ADD18C,.01*%
%ADD19C,.0001*%
%ADD20C,.025*%
%ADD22C,.2104*%
%ADD25R,.2072X.089*%
%ADD24R,.089X.2072*%
%ADD26C,.0704*%
%ADD21C,.0344*%
%ADD23C,.089*%
G75*
%LPD*%
G75*
G36*
G01X-43920Y-449210D02*
G02X-44200Y-449900I-275J-290D01*
G01X-49410D01*
G02X-49670Y-449200I2J399D01*
G03X-51930I-1130J1300D01*
G02X-52190Y-449900I-262J-301D01*
G01X-57570D01*
G02X-57820Y-449190I1J399D01*
G03X-59980I-1080J1340D01*
G02X-60230Y-449900I-251J-311D01*
G01X-444400D01*
Y-441180D01*
G02X-443670Y-440960I399J-4D01*
G03Y-429040I8670J5960D01*
G02X-444400Y-428820I-331J224D01*
G01Y428820D01*
G02X-443670Y429040I399J-4D01*
G03X-428840Y443530I8668J5962D01*
G02X-428610Y444250I237J321D01*
G01X428610D01*
G02X428840Y443530I-7J-399D01*
G03X441160I6160J-8530D01*
G02X441390Y444250I237J321D01*
G01X449900D01*
Y-449900D01*
X64570D01*
G02X64260Y-449260I6J398D01*
G03X61540I-1360J1060D01*
G02X61230Y-449900I-316J-242D01*
G01X56360D01*
G02X56040Y-449260I1J400D01*
G03X53260I-1390J1010D01*
G02X52940Y-449900I-321J-240D01*
G01X48130D01*
G02X47830Y-449250I7J398D01*
G03X45170I-1330J1100D01*
G02X44870Y-449900I-307J-252D01*
G01X40060D01*
G02X39740Y-449260I1J400D01*
G03X36960I-1390J1010D01*
G02X36640Y-449900I-321J-240D01*
G01X31890D01*
G02X31570Y-449270I7J400D01*
G03X28730I-1420J970D01*
G02X28410Y-449900I-327J-230D01*
G01X23670D01*
G02X23360Y-449260I6J398D01*
G03X20640I-1360J1060D01*
G02X20330Y-449900I-316J-242D01*
G01X15480D01*
G02X15180Y-449250I7J398D01*
G03X12520I-1330J1100D01*
G02X12220Y-449900I-307J-252D01*
G01X7390D01*
G02X7090Y-449240I2J399D01*
G03X4510I-1290J1140D01*
G02X4210Y-449900I-302J-261D01*
G01X-750D01*
G02X-1050Y-449230I-5J400D01*
G03X-3550I-1250J1180D01*
G02X-3850Y-449900I-295J-270D01*
G01X-8850D01*
G02X-9130Y-449220I1J398D01*
G03X-11570I-1220J1220D01*
G02X-11850Y-449900I-281J-282D01*
G01X-16900D01*
G02X-17180Y-449220I1J398D01*
G03X-19620I-1220J1220D01*
G02X-19900Y-449900I-281J-282D01*
G01X-25050D01*
G02X-25330Y-449210I-5J400D01*
G03X-27670I-1170J1260D01*
G02X-27950Y-449900I-275J-290D01*
G01X-33200D01*
G02X-33480Y-449210I-5J400D01*
G03X-35820I-1170J1260D01*
G02X-36100Y-449900I-275J-290D01*
G01X-41300D01*
G02X-41580Y-449210I-5J400D01*
G03X-43920I-1170J1260D01*
G37*
G36*
G01X-444400Y441180D02*
Y444250D01*
X-441400D01*
G02X-441160Y443530I3J-399D01*
G03X-443670Y440960I6161J-8528D01*
G02X-444400Y441180I-331J224D01*
G37*
%LPC*%
G75*
G36*
G01X43060Y-383520D02*
G02X40040I-1510J-820D01*
G01Y-372370D01*
X42920Y-369490D01*
X45520D01*
Y-364250D01*
X47280Y-362490D01*
X49150D01*
G02X50220Y-362930I0J-1521D01*
G01X51530Y-364240D01*
X53280Y-362490D01*
X55150D01*
G02X56220Y-362930I0J-1521D01*
G01X57530Y-364240D01*
X59280Y-362490D01*
X61150D01*
G02X62220Y-362930I0J-1521D01*
G01X63530Y-364240D01*
X65280Y-362490D01*
X67150D01*
G02X68220Y-362930I0J-1521D01*
G01X69530Y-364240D01*
X71280Y-362490D01*
X73150D01*
G02X74220Y-362930I0J-1521D01*
G01X75530Y-364240D01*
X77280Y-362490D01*
X79150D01*
G02X80220Y-362930I0J-1521D01*
G01X81530Y-364240D01*
X83280Y-362490D01*
X85150D01*
G02X86220Y-362930I0J-1521D01*
G01X87530Y-364240D01*
X89280Y-362490D01*
X91150D01*
G02X92220Y-362930I0J-1521D01*
G01X93530Y-364240D01*
X95280Y-362490D01*
X97150D01*
G02X98220Y-362930I0J-1521D01*
G01X99530Y-364240D01*
X101280Y-362490D01*
X103150D01*
G02X104220Y-362930I0J-1521D01*
G01X105530Y-364240D01*
X107280Y-362490D01*
X109150D01*
G02X110220Y-362930I0J-1521D01*
G01X111540Y-364250D01*
Y-369490D01*
X113370D01*
X122490Y-360370D01*
Y-349370D01*
X126450Y-345410D01*
X138700D01*
Y-340250D01*
X140460Y-338490D01*
X142330D01*
G02X143400Y-338930I0J-1521D01*
G01X144710Y-340240D01*
X146460Y-338490D01*
X148330D01*
G02X149400Y-338930I0J-1521D01*
G01X150710Y-340240D01*
X152460Y-338490D01*
X154330D01*
G02X155400Y-338930I0J-1521D01*
G01X156720Y-340250D01*
Y-345410D01*
X169990D01*
G02X171030Y-345210I829J-1508D01*
G03X171470Y-344730I51J395D01*
G02Y-343990I1680J370D01*
G03X171030Y-343510I-389J85D01*
G02Y-340090I-220J1710D01*
G03X171470Y-339610I50J396D01*
G02Y-338880I1680J365D01*
G03X171030Y-338400I-389J85D01*
G02Y-334980I-220J1710D01*
G03X171470Y-334500I51J395D01*
G02Y-333760I1680J370D01*
G03X171030Y-333280I-389J85D01*
G02Y-329860I-220J1710D01*
G03X171470Y-329380I51J395D01*
G02Y-328640I1680J370D01*
G03X171030Y-328160I-389J85D01*
G02X172490Y-326820I-222J1707D01*
G03X172930Y-327300I389J-85D01*
G02Y-330720I220J-1710D01*
G03X172490Y-331200I-51J-395D01*
G02Y-331940I-1680J-370D01*
G03X172930Y-332420I389J-85D01*
G02Y-335840I220J-1710D01*
G03X172490Y-336320I-51J-395D01*
G02Y-337060I-1680J-370D01*
G03X172930Y-337540I389J-85D01*
G02Y-340960I220J-1710D01*
G03X172490Y-341440I-50J-396D01*
G02Y-342170I-1680J-365D01*
G03X172930Y-342650I389J-85D01*
G02Y-346070I220J-1710D01*
G03X172490Y-346550I-51J-395D01*
G02Y-347290I-1680J-370D01*
G03X172930Y-347770I389J-85D01*
G02Y-351190I220J-1710D01*
G03X172490Y-351670I-51J-395D01*
G02Y-352410I-1680J-370D01*
G03X172930Y-352890I389J-85D01*
G02X171470Y-354230I222J-1707D01*
G03X171030Y-353750I-389J85D01*
G02X169170Y-351510I-222J1708D01*
G03X168790Y-350990I-380J121D01*
G01X166150D01*
X164510Y-352630D01*
Y-359630D01*
X158630Y-365510D01*
X151630D01*
Y-370750D01*
X149870Y-372510D01*
X148000D01*
G02X146930Y-372070I0J1521D01*
G01X145620Y-370760D01*
X143870Y-372510D01*
X142000D01*
G02X140930Y-372070I0J1521D01*
G01X139610Y-370750D01*
Y-365510D01*
X138630D01*
X136510Y-367630D01*
Y-370200D01*
X135510Y-371200D01*
Y-371940D01*
X136510Y-372940D01*
Y-379630D01*
X130290Y-385850D01*
X120180D01*
X118430Y-384100D01*
X116680Y-385850D01*
X114810D01*
G02X113740Y-385410I0J1521D01*
G01X112430Y-384100D01*
X110680Y-385850D01*
X108810D01*
G02X107740Y-385410I0J1521D01*
G01X106430Y-384100D01*
X104680Y-385850D01*
X102810D01*
G02X101740Y-385410I0J1521D01*
G01X100430Y-384100D01*
X98680Y-385850D01*
X96810D01*
G02X95740Y-385410I0J1521D01*
G01X94430Y-384100D01*
X92680Y-385850D01*
X90810D01*
G02X89740Y-385410I0J1521D01*
G01X88430Y-384100D01*
X86680Y-385850D01*
X84810D01*
G02X83740Y-385410I0J1521D01*
G01X82430Y-384100D01*
X80680Y-385850D01*
X78810D01*
G02X77740Y-385410I0J1521D01*
G01X76430Y-384100D01*
X74680Y-385850D01*
X72810D01*
G02X71740Y-385410I0J1521D01*
G01X70430Y-384100D01*
X68680Y-385850D01*
X66810D01*
G02X65740Y-385410I0J1521D01*
G01X64430Y-384100D01*
X62680Y-385850D01*
X60810D01*
G02X59740Y-385410I0J1521D01*
G01X58430Y-384100D01*
X56680Y-385850D01*
X54810D01*
G02X53740Y-385410I0J1521D01*
G01X52430Y-384100D01*
X50680Y-385850D01*
X47370D01*
G02Y-382830I-820J1510D01*
G01X49420D01*
Y-377250D01*
X50740Y-375930D01*
G02X51810Y-375490I1070J-1081D01*
G01X53680D01*
X55430Y-377240D01*
X56740Y-375930D01*
G02X57810Y-375490I1070J-1081D01*
G01X59680D01*
X61430Y-377240D01*
X62740Y-375930D01*
G02X63810Y-375490I1070J-1081D01*
G01X65680D01*
X67430Y-377240D01*
X68740Y-375930D01*
G02X69810Y-375490I1070J-1081D01*
G01X71680D01*
X73430Y-377240D01*
X74740Y-375930D01*
G02X75810Y-375490I1070J-1081D01*
G01X77680D01*
X79430Y-377240D01*
X80740Y-375930D01*
G02X81810Y-375490I1070J-1081D01*
G01X83680D01*
X85430Y-377240D01*
X86740Y-375930D01*
G02X87810Y-375490I1070J-1081D01*
G01X89680D01*
X91430Y-377240D01*
X92740Y-375930D01*
G02X93810Y-375490I1070J-1081D01*
G01X95680D01*
X97430Y-377240D01*
X98740Y-375930D01*
G02X99810Y-375490I1070J-1081D01*
G01X101680D01*
X103430Y-377240D01*
X104740Y-375930D01*
G02X105810Y-375490I1070J-1081D01*
G01X107680D01*
X109430Y-377240D01*
X110740Y-375930D01*
G02X111810Y-375490I1070J-1081D01*
G01X113680D01*
X115430Y-377240D01*
X116740Y-375930D01*
G02X117810Y-375490I1070J-1081D01*
G01X119680D01*
X121440Y-377250D01*
Y-382830D01*
X129030D01*
X133490Y-378370D01*
Y-374200D01*
X132490Y-373200D01*
Y-369940D01*
X133490Y-368940D01*
Y-366370D01*
X137370Y-362490D01*
X140870D01*
X142620Y-364240D01*
X143930Y-362930D01*
G02X145000Y-362490I1070J-1081D01*
G01X146870D01*
X148620Y-364240D01*
X150370Y-362490D01*
X157370D01*
X161490Y-358370D01*
Y-351370D01*
X163750Y-349110D01*
G03X163470Y-348430I-283J281D01*
G01X155460D01*
X153710Y-346680D01*
X152400Y-347990D01*
G02X151330Y-348430I-1070J1081D01*
G01X149460D01*
X147710Y-346680D01*
X146830Y-347560D01*
G03X146920Y-348190I284J-281D01*
G02X144530Y-348990I-823J-1511D01*
G03X144170Y-348430I-365J161D01*
G01X143460D01*
X141710Y-346680D01*
X139960Y-348430D01*
X127710D01*
X125510Y-350630D01*
Y-361630D01*
X114630Y-372510D01*
X110280D01*
X108530Y-370760D01*
X107220Y-372070D01*
G02X106150Y-372510I-1070J1081D01*
G01X104280D01*
X102530Y-370760D01*
X101220Y-372070D01*
G02X100150Y-372510I-1070J1081D01*
G01X98280D01*
X96530Y-370760D01*
X95220Y-372070D01*
G02X94150Y-372510I-1070J1081D01*
G01X92280D01*
X90530Y-370760D01*
X89220Y-372070D01*
G02X88150Y-372510I-1070J1081D01*
G01X86280D01*
X84530Y-370760D01*
X83220Y-372070D01*
G02X82150Y-372510I-1070J1081D01*
G01X80280D01*
X78530Y-370760D01*
X77220Y-372070D01*
G02X76150Y-372510I-1070J1081D01*
G01X74280D01*
X72530Y-370760D01*
X71220Y-372070D01*
G02X70150Y-372510I-1070J1081D01*
G01X68280D01*
X66530Y-370760D01*
X65220Y-372070D01*
G02X64150Y-372510I-1070J1081D01*
G01X62280D01*
X60530Y-370760D01*
X59220Y-372070D01*
G02X58150Y-372510I-1070J1081D01*
G01X56280D01*
X54530Y-370760D01*
X53220Y-372070D01*
G02X52150Y-372510I-1070J1081D01*
G01X50280D01*
X48530Y-370760D01*
X46780Y-372510D01*
X44180D01*
X43060Y-373630D01*
Y-383520D01*
G37*
G36*
G01X-429380Y-3620D02*
G03Y-3880I151J-130D01*
G02X-431940I-1280J-1150D01*
G03Y-3620I-151J130D01*
G02Y-1320I1280J1150D01*
G03Y-1060I-151J130D01*
G02Y1240I1280J1150D01*
G03Y1500I-151J130D01*
G02X-429380I1280J1150D01*
G03Y1240I151J-130D01*
G02Y-1060I-1280J-1150D01*
G03Y-1320I151J-130D01*
G02Y-3620I-1280J-1150D01*
G37*
G36*
G01X-397760Y-24090D02*
G03Y-24360I146J-135D01*
G02X-400330Y-24350I-1289J-1139D01*
G03Y-24080I-146J135D01*
G02X-397760Y-24090I1289J1139D01*
G37*
G36*
G01X372880Y-247450D02*
G03Y-247710I151J-130D01*
G02X370320I-1280J-1150D01*
G03Y-247450I-151J130D01*
G02X372880I1280J1150D01*
G37*
G36*
G01X339830D02*
G03Y-247710I151J-130D01*
G02X337270I-1280J-1150D01*
G03Y-247450I-151J130D01*
G02X339830I1280J1150D01*
G37*
G36*
G01X319680Y-323010D02*
G03X319420I-130J-147D01*
G02X316990Y-320580I-1120J1310D01*
G03Y-320320I-147J130D01*
G02Y-318080I1310J1120D01*
G03Y-317820I-147J130D01*
G02Y-315580I1310J1120D01*
G03Y-315320I-147J130D01*
G02Y-313080I1310J1120D01*
G03Y-312820I-147J130D01*
G02Y-310580I1310J1120D01*
G03Y-310320I-147J130D01*
G02X319420Y-307890I1310J1120D01*
G03X319680I130J147D01*
G02X321920I1120J-1310D01*
G03X322180I130J147D01*
G02X324610Y-310320I1120J-1310D01*
G03Y-310580I147J-130D01*
G02Y-312820I-1310J-1120D01*
G03Y-313080I147J-130D01*
G02Y-315320I-1310J-1120D01*
G03Y-315580I147J-130D01*
G02Y-317820I-1310J-1120D01*
G03Y-318080I147J-130D01*
G02Y-320320I-1310J-1120D01*
G03Y-320580I147J-130D01*
G02X322180Y-323010I-1310J-1120D01*
G03X321920I-130J-147D01*
G02X319680I-1120J1310D01*
G37*
G36*
G01X284130Y-329010D02*
G03X283870I-130J-147D01*
G02X281440Y-326580I-1120J1310D01*
G03Y-326320I-147J130D01*
G02Y-324080I1310J1120D01*
G03Y-323820I-147J130D01*
G02X283870Y-321390I1310J1120D01*
G03X284130I130J147D01*
G02X286370I1120J-1310D01*
G03X286630I130J147D01*
G02X288870I1120J-1310D01*
G03X289130I130J147D01*
G02X291370I1120J-1310D01*
G03X291630I130J147D01*
G02X293870I1120J-1310D01*
G03X294130I130J147D01*
G02X296560Y-323820I1120J-1310D01*
G03Y-324080I147J-130D01*
G02Y-326320I-1310J-1120D01*
G03Y-326580I147J-130D01*
G02X294130Y-329010I-1310J-1120D01*
G03X293870I-130J-147D01*
G02X291630I-1120J1310D01*
G03X291370I-130J-147D01*
G02X289130I-1120J1310D01*
G03X288870I-130J-147D01*
G02X286630I-1120J1310D01*
G03X286370I-130J-147D01*
G02X284130I-1120J1310D01*
G37*
G36*
G01X308280Y-341810D02*
G03X308020I-130J-147D01*
G02X305590Y-339380I-1120J1310D01*
G03Y-339120I-147J130D01*
G02Y-336880I1310J1120D01*
G03Y-336620I-147J130D01*
G02Y-334380I1310J1120D01*
G03Y-334120I-147J130D01*
G02Y-331880I1310J1120D01*
G03Y-331620I-147J130D01*
G02Y-329380I1310J1120D01*
G03Y-329120I-147J130D01*
G02X308020Y-326690I1310J1120D01*
G03X308280I130J147D01*
G02X310520I1120J-1310D01*
G03X310780I130J147D01*
G02X313210Y-329120I1120J-1310D01*
G03Y-329380I147J-130D01*
G02Y-331620I-1310J-1120D01*
G03Y-331880I147J-130D01*
G02Y-334120I-1310J-1120D01*
G03Y-334380I147J-130D01*
G02Y-336620I-1310J-1120D01*
G03Y-336880I147J-130D01*
G02Y-339120I-1310J-1120D01*
G03Y-339380I147J-130D01*
G02X310780Y-341810I-1310J-1120D01*
G03X310520I-130J-147D01*
G02X308280I-1120J1310D01*
G37*
G36*
G01X332180Y-387910D02*
G03X331920I-130J-147D01*
G02X329490Y-385480I-1120J1310D01*
G03Y-385220I-147J130D01*
G02Y-382980I1310J1120D01*
G03Y-382720I-147J130D01*
G02X329770Y-380220I1309J1119D01*
G03Y-379580I-236J320D01*
G02X329490Y-377080I1029J1381D01*
G03Y-376820I-147J130D01*
G02Y-374580I1310J1120D01*
G03Y-374320I-147J130D01*
G02X331920Y-371890I1310J1120D01*
G03X332180I130J147D01*
G02X334420I1120J-1310D01*
G03X334680I130J147D01*
G02X336920I1120J-1310D01*
G03X337180I130J147D01*
G02X339420I1120J-1310D01*
G03X339680I130J147D01*
G02X341920I1120J-1310D01*
G03X342180I130J147D01*
G02X344610Y-374320I1120J-1310D01*
G03Y-374580I147J-130D01*
G02Y-376820I-1310J-1120D01*
G03Y-377080I147J-130D01*
G02X344330Y-379580I-1309J-1119D01*
G03Y-380220I236J-320D01*
G02X344610Y-382720I-1029J-1381D01*
G03Y-382980I147J-130D01*
G02Y-385220I-1310J-1120D01*
G03Y-385480I147J-130D01*
G02X342180Y-387910I-1310J-1120D01*
G03X341920I-130J-147D01*
G02X339680I-1120J1310D01*
G03X339420I-130J-147D01*
G02X337180I-1120J1310D01*
G03X336920I-130J-147D01*
G02X334680I-1120J1310D01*
G03X334420I-130J-147D01*
G02X332180I-1120J1310D01*
G37*
G36*
G01X260380Y-389160D02*
G03X260120I-130J-147D01*
G02X257690Y-386730I-1120J1310D01*
G03Y-386470I-147J130D01*
G02Y-384230I1310J1120D01*
G03Y-383970I-147J130D01*
G02X260120Y-381540I1310J1120D01*
G03X260380I130J147D01*
G02X262620I1120J-1310D01*
G03X262880I130J147D01*
G02X265120I1120J-1310D01*
G03X265380I130J147D01*
G02X267620I1120J-1310D01*
G03X267880I130J147D01*
G02X270120I1120J-1310D01*
G03X270380I130J147D01*
G02X272810Y-383970I1120J-1310D01*
G03Y-384230I147J-130D01*
G02Y-386470I-1310J-1120D01*
G03Y-386730I147J-130D01*
G02X270380Y-389160I-1310J-1120D01*
G03X270120I-130J-147D01*
G02X267880I-1120J1310D01*
G03X267620I-130J-147D01*
G02X265380I-1120J1310D01*
G03X265120I-130J-147D01*
G02X262880I-1120J1310D01*
G03X262620I-130J-147D01*
G02X260380I-1120J1310D01*
G37*
G36*
G01X152930Y-394950D02*
G03Y-395210I151J-130D01*
G02X150370I-1280J-1150D01*
G03Y-394950I-151J130D01*
G02X152930I1280J1150D01*
G37*
G36*
G01X260230Y-398060D02*
G03X259970I-130J-147D01*
G02X257540Y-395630I-1120J1310D01*
G03Y-395370I-147J130D01*
G02Y-393130I1310J1120D01*
G03Y-392870I-147J130D01*
G02X259970Y-390440I1310J1120D01*
G03X260230I130J147D01*
G02X262470I1120J-1310D01*
G03X262730I130J147D01*
G02X264970I1120J-1310D01*
G03X265230I130J147D01*
G02X267470I1120J-1310D01*
G03X267730I130J147D01*
G02X269970I1120J-1310D01*
G03X270230I130J147D01*
G02X272660Y-392870I1120J-1310D01*
G03Y-393130I147J-130D01*
G02Y-395370I-1310J-1120D01*
G03Y-395630I147J-130D01*
G02X270230Y-398060I-1310J-1120D01*
G03X269970I-130J-147D01*
G02X267730I-1120J1310D01*
G03X267470I-130J-147D01*
G02X265230I-1120J1310D01*
G03X264970I-130J-147D01*
G02X262730I-1120J1310D01*
G03X262470I-130J-147D01*
G02X260230I-1120J1310D01*
G37*
G36*
G01X-111170Y-402400D02*
G03Y-402660I151J-130D01*
G02X-113730I-1280J-1150D01*
G03Y-402400I-151J130D01*
G02X-111170I1280J1150D01*
G37*
G36*
G01X-141920D02*
G03Y-402660I151J-130D01*
G02X-144480I-1280J-1150D01*
G03Y-402400I-151J130D01*
G02X-141920I1280J1150D01*
G37*
G36*
G01X260080Y-407260D02*
G03X259820I-130J-147D01*
G02X257390Y-404830I-1120J1310D01*
G03Y-404570I-147J130D01*
G02Y-402330I1310J1120D01*
G03Y-402070I-147J130D01*
G02X259820Y-399640I1310J1120D01*
G03X260080I130J147D01*
G02X262320I1120J-1310D01*
G03X262580I130J147D01*
G02X264820I1120J-1310D01*
G03X265080I130J147D01*
G02X267320I1120J-1310D01*
G03X267580I130J147D01*
G02X269820I1120J-1310D01*
G03X270080I130J147D01*
G02X272510Y-402070I1120J-1310D01*
G03Y-402330I147J-130D01*
G02Y-404570I-1310J-1120D01*
G03Y-404830I147J-130D01*
G02X270080Y-407260I-1310J-1120D01*
G03X269820I-130J-147D01*
G02X267580I-1120J1310D01*
G03X267320I-130J-147D01*
G02X265080I-1120J1310D01*
G03X264820I-130J-147D01*
G02X262580I-1120J1310D01*
G03X262320I-130J-147D01*
G02X260080I-1120J1310D01*
G37*
G36*
G01X-207620Y-405000D02*
G03Y-405260I151J-130D01*
G02X-210180I-1280J-1150D01*
G03Y-405000I-151J130D01*
G02X-207620I1280J1150D01*
G37*
G36*
G01X-229670D02*
G03Y-405260I151J-130D01*
G02X-232230I-1280J-1150D01*
G03Y-405000I-151J130D01*
G02X-229670I1280J1150D01*
G37*
G36*
G01X102890Y-418270D02*
G03X102480Y-418750I-19J-399D01*
G02X100900Y-417390I-1683J-357D01*
G03X101310Y-416910I19J399D01*
G02Y-416190I1680J360D01*
G03X100900Y-415710I-391J81D01*
G02X102480Y-414350I-103J1717D01*
G03X102890Y-414830I391J-81D01*
G02Y-418270I100J-1720D01*
G37*
G36*
G01X166180Y-420540D02*
G03Y-420800I151J-130D01*
G02X163620I-1280J-1150D01*
G03Y-420540I-151J130D01*
G02X166180I1280J1150D01*
G37*
G36*
G01X267530Y-424610D02*
G03X267270I-130J-147D01*
G02X264840Y-422180I-1120J1310D01*
G03Y-421920I-147J130D01*
G02Y-419680I1310J1120D01*
G03Y-419420I-147J130D01*
G02Y-417180I1310J1120D01*
G03Y-416920I-147J130D01*
G02Y-414680I1310J1120D01*
G03Y-414420I-147J130D01*
G02Y-412180I1310J1120D01*
G03Y-411920I-147J130D01*
G02X267270Y-409490I1310J1120D01*
G03X267530I130J147D01*
G02X269770I1120J-1310D01*
G03X270030I130J147D01*
G02X272460Y-411920I1120J-1310D01*
G03Y-412180I147J-130D01*
G02Y-414420I-1310J-1120D01*
G03Y-414680I147J-130D01*
G02Y-416920I-1310J-1120D01*
G03Y-417180I147J-130D01*
G02Y-419420I-1310J-1120D01*
G03Y-419680I147J-130D01*
G02Y-421920I-1310J-1120D01*
G03Y-422180I147J-130D01*
G02X270030Y-424610I-1310J-1120D01*
G03X269770I-130J-147D01*
G02X267530I-1120J1310D01*
G37*
G36*
G01X16550Y-425810D02*
X-49390D01*
X-60560Y-414640D01*
G02X-57360Y-411440I1600J1600D01*
G01X-47510Y-421290D01*
X14290D01*
Y-384340D01*
G02X18810I2260J0D01*
G01Y-391040D01*
X130210D01*
X136910Y-384340D01*
X243460D01*
X260910Y-366890D01*
X321460D01*
X349690Y-338660D01*
Y-321160D01*
X352600Y-318250D01*
G02X355800Y-321450I1600J-1600D01*
G01X354210Y-323040D01*
Y-340540D01*
X323340Y-371410D01*
X262790D01*
X245340Y-388860D01*
X138790D01*
X132090Y-395560D01*
X18810D01*
Y-423550D01*
G02X16550Y-425810I-2260J0D01*
G37*
G36*
G01X-119870Y-427990D02*
G03Y-428250I151J-130D01*
G02X-122430I-1280J-1150D01*
G03Y-427990I-151J130D01*
G02X-119870I1280J1150D01*
G37*
G36*
G01X372880Y-273300D02*
G02X370320I-1280J-1150D01*
G03Y-273040I-151J130D01*
G02Y-270740I1280J1150D01*
G03Y-270480I-151J130D01*
G02Y-268180I1280J1150D01*
G03Y-267920I-151J130D01*
G02X371800Y-265060I1279J1151D01*
G03X372240Y-264580I50J396D01*
G02X373720Y-265920I1681J369D01*
G03X373280Y-266400I-50J-396D01*
G02X372880Y-267920I-1680J-371D01*
G03Y-268180I151J-130D01*
G02Y-270480I-1280J-1150D01*
G03Y-270740I151J-130D01*
G02Y-273040I-1280J-1150D01*
G03Y-273300I151J-130D01*
G37*
G36*
G01X337070Y-323160D02*
G02X334420Y-322630I-1116J1309D01*
G03X333710Y-322620I-358J-182D01*
G02X331080Y-323110I-1513J819D01*
G03X330820I-130J-147D01*
G02X328580I-1120J1310D01*
G03X328320I-130J-147D01*
G02X325890Y-320680I-1120J1310D01*
G03Y-320420I-147J130D01*
G02Y-318180I1310J1120D01*
G03Y-317920I-147J130D01*
G02Y-315680I1310J1120D01*
G03Y-315420I-147J130D01*
G02Y-313180I1310J1120D01*
G03Y-312920I-147J130D01*
G02Y-310680I1310J1120D01*
G03Y-310420I-147J130D01*
G02X328320Y-307990I1310J1120D01*
G03X328580I130J147D01*
G02X330820I1120J-1310D01*
G03X331080I130J147D01*
G02X333730Y-308520I1116J-1309D01*
G03X334440Y-308530I358J182D01*
G02X337070Y-308040I1513J-819D01*
G03X337330I130J147D01*
G02X339570I1120J-1310D01*
G03X339830I130J147D01*
G02X342260Y-310470I1120J-1310D01*
G03Y-310730I147J-130D01*
G02Y-312970I-1310J-1120D01*
G03Y-313230I147J-130D01*
G02Y-315470I-1310J-1120D01*
G03Y-315730I147J-130D01*
G02Y-317970I-1310J-1120D01*
G03Y-318230I147J-130D01*
G02Y-320470I-1310J-1120D01*
G03Y-320730I147J-130D01*
G02X339830Y-323160I-1310J-1120D01*
G03X339570I-130J-147D01*
G02X337330I-1120J1310D01*
G03X337070I-130J-147D01*
G37*
G36*
G01X246770Y-345200D02*
G02X245310Y-346540I222J-1707D01*
G03X244870Y-346060I-389J85D01*
G02Y-342640I-220J1710D01*
G03X245310Y-342160I51J395D01*
G02Y-341420I1680J370D01*
G03X244870Y-340940I-389J85D01*
G02Y-337520I-220J1710D01*
G03X245310Y-337040I51J395D01*
G02Y-336300I1680J370D01*
G03X244870Y-335820I-389J85D01*
G02Y-332400I-220J1710D01*
G03X245310Y-331920I51J395D01*
G02Y-331180I1680J370D01*
G03X244870Y-330700I-389J85D01*
G02X246330Y-329360I-222J1707D01*
G03X246770Y-329840I389J-85D01*
G02Y-333260I220J-1710D01*
G03X246330Y-333740I-51J-395D01*
G02Y-334480I-1680J-370D01*
G03X246770Y-334960I389J-85D01*
G02Y-338380I220J-1710D01*
G03X246330Y-338860I-51J-395D01*
G02Y-339600I-1680J-370D01*
G03X246770Y-340080I389J-85D01*
G02Y-343500I220J-1710D01*
G03X246330Y-343980I-51J-395D01*
G02Y-344720I-1680J-370D01*
G03X246770Y-345200I389J-85D01*
G37*
G36*
G01X-22890Y-360720D02*
G02X-26310Y-360480I-1720J-27D01*
G03X-26670Y-360020I-396J61D01*
G02X-360500Y-19190I26669J360023D01*
G02X-360610Y-16960I1251J1179D01*
G02X-360750Y-13730I360598J17248D01*
G02X-360810Y-12160I1500J843D01*
G02X-360920Y-8190I360815J11984D01*
G02X-360930Y-7420I1671J407D01*
G02X357400Y-50910I360931J7420D01*
G03X358030Y-51290I395J-57D01*
G02X357680Y-53720I1019J-1387D01*
G03X356960Y-53900I-323J-238D01*
G02X47160Y-357920I-356964J53896D01*
G03X47010Y-358660I50J-395D01*
G02X44940Y-358920I-864J-1489D01*
G03X44610Y-358240I-280J284D01*
G02X39900Y-358800I-44976J358196D01*
G03X39590Y-359380I44J-396D01*
G02X36390Y-359710I-1538J-770D01*
G03X35960Y-359220I-388J93D01*
G02X32020Y-359590I-35723J359242D01*
G03X31660Y-360030I37J-398D01*
G02X28230Y-360310I-1713J-170D01*
G03X27800Y-359940I-397J-27D01*
G02X23320Y-360260I-27961J359929D01*
G02X19900Y-360460I-1719J59D01*
G02X-22470Y-360310I-19909J360460D01*
G03X-22890Y-360720I-20J-399D01*
G37*
G36*
G01X331770Y-405560D02*
G02X329340Y-403130I-1120J1310D01*
G03Y-402870I-147J130D01*
G02Y-400630I1310J1120D01*
G03Y-400370I-147J130D01*
G02X329870Y-397720I1309J1116D01*
G03X329880Y-397010I-182J358D01*
G02X329390Y-394380I819J1513D01*
G03Y-394120I-147J130D01*
G02Y-391880I1310J1120D01*
G03Y-391620I-147J130D01*
G02X331820Y-389190I1310J1120D01*
G03X332080I130J147D01*
G02X334320I1120J-1310D01*
G03X334580I130J147D01*
G02X336820I1120J-1310D01*
G03X337080I130J147D01*
G02X339320I1120J-1310D01*
G03X339580I130J147D01*
G02X341820I1120J-1310D01*
G03X342080I130J147D01*
G02X344510Y-391620I1120J-1310D01*
G03Y-391880I147J-130D01*
G02Y-394120I-1310J-1120D01*
G03Y-394380I147J-130D01*
G02X343980Y-397030I-1309J-1116D01*
G03X343970Y-397740I182J-358D01*
G02X344460Y-400370I-819J-1513D01*
G03Y-400630I147J-130D01*
G02Y-402870I-1310J-1120D01*
G03Y-403130I147J-130D01*
G02X342030Y-405560I-1310J-1120D01*
G03X341770I-130J-147D01*
G02X339530I-1120J1310D01*
G03X339270I-130J-147D01*
G02X337030I-1120J1310D01*
G03X336770I-130J-147D01*
G02X334530I-1120J1310D01*
G03X334270I-130J-147D01*
G02X332030I-1120J1310D01*
G03X331770I-130J-147D01*
G37*
G36*
G01X284520Y-422760D02*
G02X282090Y-420330I-1120J1310D01*
G03Y-420070I-147J130D01*
G02Y-417830I1310J1120D01*
G03Y-417570I-147J130D01*
G02X282320Y-415110I1309J1118D01*
G03X282290Y-414460I-246J314D01*
G02X281890Y-411880I909J1462D01*
G03Y-411620I-147J130D01*
G02Y-409380I1310J1120D01*
G03Y-409120I-147J130D01*
G02X284320Y-406690I1310J1120D01*
G03X284580I130J147D01*
G02X286820I1120J-1310D01*
G03X287080I130J147D01*
G02X289320I1120J-1310D01*
G03X289580I130J147D01*
G02X291820I1120J-1310D01*
G03X292080I130J147D01*
G02X294320I1120J-1310D01*
G03X294580I130J147D01*
G02X297010Y-409120I1120J-1310D01*
G03Y-409380I147J-130D01*
G02Y-411620I-1310J-1120D01*
G03Y-411880I147J-130D01*
G02X296780Y-414340I-1309J-1118D01*
G03X296810Y-414990I246J-314D01*
G02X297210Y-417570I-909J-1462D01*
G03Y-417830I147J-130D01*
G02Y-420070I-1310J-1120D01*
G03Y-420330I147J-130D01*
G02X294780Y-422760I-1310J-1120D01*
G03X294520I-130J-147D01*
G02X292280I-1120J1310D01*
G03X292020I-130J-147D01*
G02X289780I-1120J1310D01*
G03X289520I-130J-147D01*
G02X287280I-1120J1310D01*
G03X287020I-130J-147D01*
G02X284780I-1120J1310D01*
G03X284520I-130J-147D01*
G37*
G36*
G01X183010Y-439010D02*
X-49010D01*
Y-433700D01*
G03X-49670Y-433400I-399J-2D01*
G02Y-430800I-1130J1300D01*
G03X-49010Y-430500I261J302D01*
G01Y-426990D01*
X168990D01*
Y-402990D01*
X183010D01*
Y-439010D01*
G37*
G54D22*
X-400000Y-400000D03*
Y400000D03*
X400000Y-400000D03*
Y400000D03*
X435000Y-435000D03*
G54D25*
X252100Y-439760D03*
Y-416140D03*
G54D24*
X233600Y-427950D03*
G54D21*
X-440000Y-410000D03*
Y-420000D03*
Y-400000D03*
Y-370000D03*
Y-390000D03*
Y-380000D03*
Y-340000D03*
Y-350000D03*
Y-360000D03*
Y-310000D03*
Y-330000D03*
Y-320000D03*
Y-280000D03*
Y-300000D03*
Y-290000D03*
Y-250000D03*
Y-270000D03*
Y-260000D03*
Y-220000D03*
Y-230000D03*
Y-240000D03*
Y-200000D03*
Y-190000D03*
Y-210000D03*
Y-160000D03*
Y-170000D03*
Y-180000D03*
Y-130000D03*
Y-140000D03*
Y-150000D03*
Y-100000D03*
Y-110000D03*
Y-120000D03*
Y-80000D03*
Y-70000D03*
Y-90000D03*
Y-40000D03*
Y-50000D03*
Y-60000D03*
X-425700Y-47300D03*
X-421100Y-25500D03*
X-440000Y-10000D03*
Y-20000D03*
Y-30000D03*
X-418550Y-20380D03*
X-432260Y-15260D03*
X-418550Y-10150D03*
X-440000Y20000D03*
Y10000D03*
Y0D03*
Y40000D03*
Y50000D03*
Y30000D03*
Y80000D03*
Y70000D03*
Y60000D03*
Y100000D03*
Y90000D03*
Y110000D03*
Y120000D03*
Y140000D03*
Y130000D03*
Y160000D03*
Y150000D03*
Y170000D03*
Y200000D03*
Y190000D03*
Y180000D03*
Y230000D03*
Y220000D03*
Y210000D03*
Y240000D03*
Y260000D03*
Y250000D03*
Y280000D03*
Y270000D03*
Y290000D03*
Y320000D03*
Y310000D03*
Y300000D03*
Y350000D03*
Y340000D03*
Y330000D03*
Y380000D03*
Y360000D03*
Y370000D03*
Y400000D03*
Y390000D03*
Y410000D03*
X-420000Y440000D03*
X-440000Y420000D03*
X-403600Y-47600D03*
X-407730Y-20380D03*
X-413630Y-17820D03*
Y-12700D03*
Y-7590D03*
X-400000Y440000D03*
X-390000D03*
X-410000D03*
X-362650Y24460D03*
X-370040Y12110D03*
X-360150Y52580D03*
Y74520D03*
X-380000Y440000D03*
X-360000D03*
X-370000D03*
X-338270Y-136050D03*
X-349230Y-117050D03*
X-350000Y440000D03*
X-340000D03*
X-330000D03*
X-322480Y-172210D03*
X-311170Y192780D03*
X-320000Y440000D03*
X-310000D03*
X-300000D03*
X-268650Y-426950D03*
X-272400Y-429510D03*
Y-424390D03*
X-268650Y-421830D03*
Y-411590D03*
X-272400Y-414150D03*
X-268650Y-416710D03*
X-272400Y-419270D03*
X-285440Y225700D03*
X-274460Y244700D03*
X-280000Y440000D03*
X-270000D03*
X-290000D03*
X-245600Y-276510D03*
X-240000Y440000D03*
X-260000D03*
X-250000D03*
X-208120Y-426880D03*
X-218550Y-432000D03*
X-208900D03*
X-208120Y-421760D03*
X-218550Y-408970D03*
X-208120Y-411530D03*
Y-416650D03*
X-209750Y-372250D03*
X-224750Y-384450D03*
X-226600Y-287490D03*
X-230000Y440000D03*
X-220000D03*
X-210000D03*
X-187320Y-424320D03*
X-187200Y-419200D03*
X-187090Y-414090D03*
X-190030Y-408970D03*
X-202700Y-385300D03*
X-196560Y-366940D03*
X-186650Y-377660D03*
X-204440Y-358560D03*
X-199850Y-305130D03*
X-200000Y440000D03*
X-190000D03*
X-180000D03*
X-156250Y-372450D03*
X-177590Y-363350D03*
X-156450Y-351900D03*
X-177590Y-343000D03*
X-172350Y321230D03*
X-160000Y440000D03*
X-150000D03*
X-170000D03*
X-143200Y-429400D03*
X-133660Y-426840D03*
X-134500Y-406370D03*
X-129000Y-403500D03*
X-135250Y337520D03*
X-120000Y440000D03*
X-140000D03*
X-130000D03*
X-103000Y-427050D03*
X-112450Y-408930D03*
X-116250Y348480D03*
X-100000Y440000D03*
X-90000D03*
X-110000D03*
X-58900Y-432050D03*
X-74620Y-359950D03*
X-80000Y440000D03*
X-70000D03*
X-60000D03*
X-28450Y-384340D03*
X-33450D03*
X-38450D03*
X-43450D03*
X-52680Y-359950D03*
X-40000Y440000D03*
X-50000D03*
X-30000D03*
X1550Y-384340D03*
X-3450D03*
X-8450D03*
X-13450D03*
X-18450D03*
X-23450D03*
X-12160Y-368040D03*
X-20000Y440000D03*
X-10000D03*
X0D03*
X11550Y-384340D03*
X6550D03*
X31550D03*
X21550D03*
X26550D03*
X11960Y365790D03*
X10000Y440000D03*
X20000D03*
X30000D03*
X36550Y-384340D03*
X54350Y-360200D03*
X52580Y360950D03*
X40000Y440000D03*
X50000D03*
X60000D03*
X62600Y-360200D03*
X74520Y360950D03*
X80000Y440000D03*
X70000D03*
X90000D03*
X115000Y-411000D03*
X116100Y-350530D03*
X100000Y440000D03*
X110000D03*
X120000D03*
X142850Y-421950D03*
Y-398920D03*
X147300Y-375900D03*
X135100Y-339570D03*
X130000Y440000D03*
X140000D03*
X150000D03*
X164900Y-393800D03*
X173240Y-396360D03*
X164150Y-409150D03*
X169250Y-375900D03*
X177600Y-375850D03*
X172360Y-321740D03*
X160000Y440000D03*
X170000D03*
X180000D03*
X199650Y-376000D03*
X194240Y-352040D03*
X204500Y-354600D03*
X207000Y301730D03*
X200000Y440000D03*
X190000D03*
X210000D03*
X225850Y287340D03*
X220000Y440000D03*
X230000D03*
X240000D03*
X269210Y-313950D03*
X261950Y-263700D03*
X244850Y276360D03*
X250000Y440000D03*
X270000D03*
X260000D03*
X274760Y-244800D03*
X294900Y-253940D03*
X291150Y-256500D03*
X294900Y-259060D03*
X291150Y-261620D03*
X285740Y-225800D03*
X280000Y440000D03*
X300000D03*
X290000D03*
X309750Y-261350D03*
X309300Y-266550D03*
X310570Y-193420D03*
X321580Y172610D03*
X310000Y440000D03*
X330000D03*
X320000D03*
X349550Y-251420D03*
X355400Y-265900D03*
X355600Y-249900D03*
X350010Y-232260D03*
X359050Y-74620D03*
X348130Y117850D03*
X337170Y136850D03*
X340000Y440000D03*
X350000D03*
X360000D03*
X378120Y-251420D03*
X373920Y-259100D03*
X366050Y-227000D03*
X370000Y-222200D03*
X369940Y-19940D03*
X367790Y-12060D03*
X370000Y440000D03*
X390000D03*
X380000D03*
X410000D03*
X420000D03*
X400000D03*
X440000Y-400000D03*
Y-420000D03*
Y-410000D03*
Y-380000D03*
Y-390000D03*
Y-370000D03*
Y-360000D03*
Y-350000D03*
Y-340000D03*
Y-320000D03*
Y-330000D03*
Y-310000D03*
Y-290000D03*
Y-300000D03*
Y-280000D03*
Y-260000D03*
Y-270000D03*
Y-250000D03*
Y-240000D03*
Y-230000D03*
Y-220000D03*
Y-210000D03*
Y-190000D03*
Y-200000D03*
Y-180000D03*
Y-170000D03*
Y-160000D03*
Y-150000D03*
Y-140000D03*
Y-130000D03*
Y-120000D03*
Y-110000D03*
Y-100000D03*
Y-90000D03*
Y-70000D03*
Y-80000D03*
Y-60000D03*
Y-50000D03*
Y-40000D03*
Y-30000D03*
Y-20000D03*
Y-10000D03*
Y0D03*
Y10000D03*
Y20000D03*
Y30000D03*
Y50000D03*
Y40000D03*
Y60000D03*
Y70000D03*
Y80000D03*
Y90000D03*
Y100000D03*
Y110000D03*
Y130000D03*
Y140000D03*
Y120000D03*
Y170000D03*
Y150000D03*
Y160000D03*
Y180000D03*
Y190000D03*
Y200000D03*
Y210000D03*
Y220000D03*
Y230000D03*
Y250000D03*
Y260000D03*
Y240000D03*
Y290000D03*
Y270000D03*
Y280000D03*
Y300000D03*
Y310000D03*
Y320000D03*
Y330000D03*
Y340000D03*
Y350000D03*
Y370000D03*
Y360000D03*
Y380000D03*
Y410000D03*
Y390000D03*
Y400000D03*
Y420000D03*
G54D23*
X-54510Y-403940D03*
X52690D03*
%LPD*%
G75*
G36*
G01X20060Y-359440D02*
G02X-23850Y-359210I-20073J359440D01*
G03X-25160Y-359120I-764J-1540D01*
G02X-322440Y-160110I25157J359121D01*
G02X-322110Y-159530I361J179D01*
G03X-323520Y-156660I-139J1713D01*
G02X-324170Y-156560I-291J272D01*
G02X-359440Y-20140I324165J156579D01*
G02X-359080Y-19720I401J21D01*
G03X-359250Y-16290I-170J1711D01*
G02X-359650Y-15910I0J400D01*
G02X-359690Y-15030I359610J16787D01*
G02X-359280Y-14610I400J19D01*
G03X-359400Y-11180I40J1718D01*
G02X-359840Y-10790I-39J400D01*
G02X-359860Y-9890I359892J8448D01*
G02X-359420Y-9480I399J13D01*
G03X-359500Y-6070I174J1710D01*
G02X-359960Y-5680I-58J398D01*
G02X-359970Y-4750I359976J4336D01*
G02X-359510Y-4350I400J4D01*
G03X-359530Y-950I257J1702D01*
G02X-360000Y-560I-71J392D01*
G02X-300360Y198450I359999J556D01*
G02X-299760Y198520I330J-224D01*
G03X-297870Y201340I1172J1258D01*
G02X-298030Y201930I168J362D01*
G02X22280Y359310I298033J-201929D01*
G02X22640Y358810I-27J-399D01*
G03X26020Y358590I1670J-410D01*
G02X26450Y359030I398J41D01*
G02X322270Y160440I-26454J-359027D01*
G02X321810Y159880I-358J-175D01*
G03X322940Y157570I-461J-1657D01*
G02X323670Y157600I372J-149D01*
G02X299870Y-199200I-323670J-157604D01*
G02X299240Y-199250I-335J222D01*
G03X297370Y-202030I-1252J-1177D01*
G02X297560Y-202630I-143J-375D01*
G02X160230Y-322380I-297563J202626D01*
G02X159660Y-321940I-179J357D01*
G03X157210Y-323140I-1686J342D01*
G02Y-323860I-176J-360D01*
G02X30760Y-358680I-157200J323863D01*
G03X28900Y-358840I-806J-1520D01*
G02X23040Y-359260I-28665J358857D01*
G03X20060Y-359440I-1439J-941D01*
G37*
G36*
G01X-48000Y-438000D02*
Y-428000D01*
X170000D01*
Y-404000D01*
X182000D01*
Y-438000D01*
X-48000D01*
G37*
%LPC*%
G75*
G36*
G01X285520Y0D02*
G02I-285520J0D01*
G37*
G36*
G01X175820Y-415120D02*
G02X174360Y-416460I222J-1707D01*
G03X173920Y-415980I-389J85D01*
G02X175380Y-414640I-222J1707D01*
G03X175820Y-415120I389J-85D01*
G37*
G54D26*
X-325860Y-107310D03*
X-335860Y-70000D03*
Y-60000D03*
Y-50000D03*
Y-40000D03*
Y-30000D03*
Y-20000D03*
Y-10000D03*
Y0D03*
Y10000D03*
Y20000D03*
Y30000D03*
Y40000D03*
Y50000D03*
Y60000D03*
Y70000D03*
X-325860Y107310D03*
X-295860Y-159270D03*
X-300860Y-150610D03*
X-305860Y-141950D03*
X-310860Y-133290D03*
X-315860Y-124630D03*
X-320860Y-115970D03*
Y115970D03*
X-315860Y124630D03*
X-310860Y133290D03*
X-305860Y141950D03*
X-300860Y150610D03*
X-295860Y159270D03*
X-265860Y-211230D03*
X-270860Y-202570D03*
X-275860Y-193910D03*
X-280860Y-185250D03*
X-285860Y-176590D03*
X-290860Y-167930D03*
Y167930D03*
X-285860Y176590D03*
X-280860Y185250D03*
X-275860Y193910D03*
X-270860Y202570D03*
X-265860Y211230D03*
X-255860Y-228550D03*
X-260860Y-219890D03*
Y219890D03*
X-255860Y228550D03*
X-211230Y-265860D03*
X-219890Y-260860D03*
X-228550Y-255860D03*
Y255860D03*
X-219890Y260860D03*
X-211230Y265860D03*
X-176590Y-285860D03*
X-185250Y-280860D03*
X-193910Y-275860D03*
X-202570Y-270860D03*
Y270860D03*
X-193910Y275860D03*
X-185250Y280860D03*
X-176590Y285860D03*
X-150610Y-300860D03*
X-159270Y-295860D03*
X-167930Y-290860D03*
Y290860D03*
X-159270Y295860D03*
X-150610Y300860D03*
X-115970Y-320860D03*
X-124630Y-315860D03*
X-133290Y-310860D03*
X-141950Y-305860D03*
Y305860D03*
X-133290Y310860D03*
X-124630Y315860D03*
X-115970Y320860D03*
X-107310Y-325860D03*
Y325860D03*
X-60000Y-335860D03*
X-70000D03*
Y335860D03*
X-60000D03*
X-30000Y-335860D03*
X-40000D03*
X-50000D03*
Y335860D03*
X-40000D03*
X-30000D03*
X0Y-335860D03*
X-10000D03*
X-20000D03*
Y335860D03*
X-10000D03*
X0D03*
X30000Y-335860D03*
X20000D03*
X10000D03*
Y335860D03*
X20000D03*
X30000D03*
X60000Y-335860D03*
X50000D03*
X40000D03*
Y335860D03*
X50000D03*
X60000D03*
X70000Y-335860D03*
Y335860D03*
X115970Y-320860D03*
X107310Y-325860D03*
Y325860D03*
X115970Y320860D03*
X150610Y-300860D03*
X141950Y-305860D03*
X133290Y-310860D03*
X124630Y-315860D03*
X150610Y300860D03*
X124630Y315860D03*
X133290Y310860D03*
X141950Y305860D03*
X176590Y-285860D03*
X167930Y-290860D03*
X159270Y-295860D03*
Y295860D03*
X167930Y290860D03*
X176590Y285860D03*
X202570Y-270860D03*
X193910Y-275860D03*
X185250Y-280860D03*
X211230Y-265860D03*
X202570Y270860D03*
X211230Y265860D03*
X185250Y280860D03*
X193910Y275860D03*
X228550Y-255860D03*
X219890Y-260860D03*
Y260860D03*
X228550Y255860D03*
X265860Y-211230D03*
X260860Y-219890D03*
X255860Y-228550D03*
X270860Y-202570D03*
Y202570D03*
X255860Y228550D03*
X260860Y219890D03*
X265860Y211230D03*
X280860Y-185250D03*
X275860Y-193910D03*
X300860Y-150610D03*
X295860Y-159270D03*
X290860Y-167930D03*
X285860Y-176590D03*
X300860Y150610D03*
X285860Y176590D03*
X290860Y167930D03*
X295860Y159270D03*
X275860Y193910D03*
X280860Y185250D03*
X315860Y-124630D03*
X310860Y-133290D03*
X305860Y-141950D03*
X325860Y-107310D03*
X320860Y-115970D03*
Y115970D03*
X325860Y107310D03*
X305860Y141950D03*
X310860Y133290D03*
X315860Y124630D03*
X335860Y-70000D03*
Y-40000D03*
Y-50000D03*
Y-60000D03*
Y-10000D03*
Y-20000D03*
Y-30000D03*
Y20000D03*
Y10000D03*
Y0D03*
Y50000D03*
Y40000D03*
Y30000D03*
Y70000D03*
Y60000D03*
G54D21*
X-330350Y-124930D03*
X-338750Y-110370D03*
X-355500Y-5210D03*
Y-10330D03*
Y-15450D03*
Y-90D03*
X-349500Y57490D03*
Y74310D03*
X-272560Y224070D03*
X-239280Y-266040D03*
X-264140Y238630D03*
X-224720Y-274460D03*
X-185470Y-304910D03*
X-158020Y321000D03*
X-124630Y329900D03*
X-90080Y-334140D03*
X-89490Y-329920D03*
X-110070Y338300D03*
X-57640Y-348350D03*
X-74460D03*
X-85660Y-333350D03*
X57490Y349850D03*
X74310D03*
X110220Y-339400D03*
X124780Y-331000D03*
X192170Y301810D03*
X238630Y265090D03*
X224070Y273510D03*
X272910Y-224520D03*
X264490Y-239080D03*
X329400Y125280D03*
X347450Y-74460D03*
Y-57640D03*
X343800Y62400D03*
X337800Y110720D03*
X-34650Y-432150D03*
X-26500D03*
X-18400Y-432200D03*
X-10350D03*
X-2300Y-432250D03*
X30150Y-432500D03*
X22000Y-432400D03*
X5800Y-432300D03*
X13850Y-432350D03*
X38350Y-432450D03*
X54650D03*
X46500Y-432350D03*
X62900Y-432400D03*
%LPD*%
G75*
G54D10*
X-435000Y-435000D03*
Y435000D03*
X-400000Y-400000D03*
Y400000D03*
X400000Y-400000D03*
Y400000D03*
X435000Y-435000D03*
Y435000D03*
G54D20*
G01X6550Y-423550D02*
X-48450D01*
X-58960Y-413040D01*
G01X6550Y-423550D02*
X16550D01*
G01Y-393300D02*
Y-423550D01*
G01X354200Y-319850D02*
X351950Y-322100D01*
Y-339600D01*
X322400Y-369150D01*
X261850D01*
X244400Y-386600D01*
X137850D01*
X131150Y-393300D01*
X16550D01*
G01Y-384340D02*
Y-393300D01*
G54D11*
X-440000Y-410000D03*
Y-420000D03*
Y-400000D03*
Y-370000D03*
Y-390000D03*
Y-380000D03*
Y-340000D03*
Y-350000D03*
Y-360000D03*
Y-310000D03*
Y-330000D03*
Y-320000D03*
Y-280000D03*
Y-300000D03*
Y-290000D03*
Y-250000D03*
Y-270000D03*
Y-260000D03*
Y-220000D03*
Y-230000D03*
Y-240000D03*
Y-200000D03*
Y-190000D03*
Y-210000D03*
Y-160000D03*
Y-170000D03*
Y-180000D03*
Y-130000D03*
Y-140000D03*
Y-150000D03*
Y-100000D03*
Y-110000D03*
Y-120000D03*
Y-80000D03*
Y-70000D03*
Y-90000D03*
Y-40000D03*
Y-50000D03*
Y-60000D03*
X-425700Y-47300D03*
X-421100Y-25500D03*
X-440000Y-10000D03*
Y-20000D03*
Y-30000D03*
X-430660Y-2470D03*
Y-5030D03*
X-418550Y-20380D03*
X-432260Y-15260D03*
X-418550Y-10150D03*
X-440000Y20000D03*
Y10000D03*
Y0D03*
X-430660Y2650D03*
Y90D03*
X-440000Y40000D03*
Y50000D03*
Y30000D03*
Y80000D03*
Y70000D03*
Y60000D03*
Y100000D03*
Y90000D03*
Y110000D03*
Y120000D03*
Y140000D03*
Y130000D03*
Y160000D03*
Y150000D03*
Y170000D03*
Y200000D03*
Y190000D03*
Y180000D03*
Y230000D03*
Y220000D03*
Y210000D03*
Y240000D03*
Y260000D03*
Y250000D03*
Y280000D03*
Y270000D03*
Y290000D03*
Y320000D03*
Y310000D03*
Y300000D03*
Y350000D03*
Y340000D03*
Y330000D03*
Y380000D03*
Y360000D03*
Y370000D03*
Y400000D03*
Y390000D03*
Y410000D03*
X-420000Y440000D03*
X-440000Y420000D03*
X-403600Y-47600D03*
X-407730Y-20380D03*
X-399040Y-22940D03*
X-399050Y-25500D03*
X-413630Y-17820D03*
Y-12700D03*
Y-7590D03*
X-400000Y440000D03*
X-390000D03*
X-410000D03*
X-359250Y-18010D03*
Y-12890D03*
Y-7770D03*
Y-2650D03*
X-362650Y24460D03*
X-370040Y12110D03*
X-360150Y52580D03*
Y74520D03*
X-380000Y440000D03*
X-360000D03*
X-370000D03*
X-330350Y-124930D03*
X-338270Y-136050D03*
X-338750Y-110370D03*
X-349230Y-117050D03*
X-355500Y-15450D03*
Y-10330D03*
Y-5210D03*
Y-90D03*
X-349500Y57490D03*
Y74310D03*
X-350000Y440000D03*
X-340000D03*
X-330000D03*
X-322250Y-157820D03*
X-322480Y-172210D03*
X-298590Y199780D03*
X-311170Y192780D03*
X-320000Y440000D03*
X-310000D03*
X-300000D03*
X-268650Y-426950D03*
X-272400Y-429510D03*
Y-424390D03*
X-268650Y-421830D03*
Y-411590D03*
X-272400Y-414150D03*
X-268650Y-416710D03*
X-272400Y-419270D03*
X-272560Y224070D03*
X-285440Y225700D03*
X-274460Y244700D03*
X-280000Y440000D03*
X-270000D03*
X-290000D03*
X-245600Y-276510D03*
X-239280Y-266040D03*
X-264140Y238630D03*
X-240000Y440000D03*
X-260000D03*
X-250000D03*
X-218550Y-432000D03*
X-208900D03*
X-208120Y-426880D03*
Y-421760D03*
X-230950Y-403850D03*
Y-406410D03*
X-218550Y-408970D03*
X-208900Y-403850D03*
Y-406410D03*
X-208120Y-411530D03*
Y-416650D03*
X-209750Y-372250D03*
X-224750Y-384450D03*
X-224720Y-274460D03*
X-226600Y-287490D03*
X-230000Y440000D03*
X-220000D03*
X-210000D03*
X-187320Y-424320D03*
X-190030Y-408970D03*
X-187090Y-414090D03*
X-187200Y-419200D03*
X-202700Y-385300D03*
X-196560Y-366940D03*
X-186650Y-377660D03*
X-204440Y-358560D03*
X-185470Y-304910D03*
X-199850Y-305130D03*
X-200000Y440000D03*
X-190000D03*
X-180000D03*
X-156250Y-372450D03*
X-177590Y-363350D03*
X-156450Y-351900D03*
X-177590Y-343000D03*
X-158020Y321000D03*
X-172350Y321230D03*
X-160000Y440000D03*
X-150000D03*
X-170000D03*
X-143200Y-429400D03*
X-121150D03*
Y-426840D03*
X-133660D03*
X-143200Y-403810D03*
Y-401250D03*
X-134500Y-406370D03*
X-129000Y-403500D03*
X-124630Y329900D03*
X-135250Y337520D03*
X-120000Y440000D03*
X-140000D03*
X-130000D03*
X-103000Y-427050D03*
X-112450Y-403810D03*
Y-401250D03*
Y-408930D03*
X-90080Y-334140D03*
X-89490Y-329920D03*
X-110070Y338300D03*
X-116250Y348480D03*
X-100000Y440000D03*
X-90000D03*
X-110000D03*
X-58900Y-447850D03*
Y-432050D03*
X-58960Y-413040D03*
X-74460Y-348350D03*
X-85660Y-333350D03*
X-74620Y-359950D03*
X-80000Y440000D03*
X-70000D03*
X-60000D03*
X-34650Y-447950D03*
X-42750D03*
X-50800Y-447900D03*
Y-432100D03*
X-42750Y-432150D03*
X-34650D03*
X-28450Y-384340D03*
X-33450D03*
X-38450D03*
X-43450D03*
X-57640Y-348350D03*
X-52680Y-359950D03*
X-40000Y440000D03*
X-50000D03*
X-30000D03*
X-2300Y-448050D03*
X-10350Y-448000D03*
X-18400D03*
X-26500Y-447950D03*
Y-432150D03*
X-18400Y-432200D03*
X-10350D03*
X-2300Y-432250D03*
X1550Y-384340D03*
X-3450D03*
X-8450D03*
X-13450D03*
X-18450D03*
X-23450D03*
X-12160Y-368040D03*
X-24610Y-360750D03*
X-20000Y440000D03*
X-10000D03*
X0D03*
X13850Y-448150D03*
X22000Y-448200D03*
X30150Y-448300D03*
X5800Y-448100D03*
Y-432300D03*
X30150Y-432500D03*
X22000Y-432400D03*
X16550Y-423550D03*
X6550D03*
X13850Y-432350D03*
X11550Y-384340D03*
X6550D03*
X31550D03*
X21550D03*
X16550D03*
X26550D03*
X21600Y-360200D03*
X29950D03*
X24310Y358400D03*
X11960Y365790D03*
X10000Y440000D03*
X20000D03*
X30000D03*
X38350Y-448250D03*
X46500Y-448150D03*
X54650Y-448250D03*
Y-432450D03*
X46500Y-432350D03*
X38350Y-432450D03*
X36550Y-384340D03*
X46550D03*
X41550D03*
X38050Y-360150D03*
X46150D03*
X54350Y-360200D03*
X57490Y349850D03*
X52580Y360950D03*
X40000Y440000D03*
X50000D03*
X60000D03*
X62900Y-448200D03*
Y-432400D03*
X62600Y-360200D03*
X74310Y349850D03*
X74520Y360950D03*
X80000Y440000D03*
X70000D03*
X90000D03*
X115000Y-411000D03*
X102990Y-416550D03*
X100800Y-419110D03*
Y-413990D03*
X116100Y-350530D03*
X110220Y-339400D03*
X100000Y440000D03*
X110000D03*
X120000D03*
X142850Y-421950D03*
X151650Y-396360D03*
Y-393800D03*
X142850Y-398920D03*
X147300Y-375900D03*
X146100Y-349700D03*
X135100Y-339570D03*
X124780Y-331000D03*
X130000Y440000D03*
X140000D03*
X150000D03*
X164900Y-421950D03*
Y-419390D03*
Y-393800D03*
X173240Y-396360D03*
X164150Y-409150D03*
X176040Y-411710D03*
X173700Y-414270D03*
X176040Y-416830D03*
X169250Y-375900D03*
X177600Y-375850D03*
X170810Y-352040D03*
X173150Y-354600D03*
Y-344360D03*
X170810Y-341800D03*
Y-336690D03*
X173150Y-334130D03*
X170810Y-331570D03*
X173150Y-349480D03*
X170810Y-346920D03*
X173150Y-339250D03*
X157970Y-321600D03*
X173150Y-329010D03*
X170810Y-326450D03*
X172360Y-321740D03*
X160000Y440000D03*
X170000D03*
X180000D03*
X199650Y-376000D03*
X194240Y-352040D03*
X204500Y-354600D03*
X192170Y301810D03*
X207000Y301730D03*
X200000Y440000D03*
X190000D03*
X210000D03*
X238630Y265090D03*
X224070Y273510D03*
X225850Y287340D03*
X220000Y440000D03*
X230000D03*
X240000D03*
X266150Y-423300D03*
X268650D03*
X271150D03*
X266150Y-410800D03*
Y-413300D03*
Y-415800D03*
Y-418300D03*
Y-420800D03*
X268650Y-410800D03*
Y-413300D03*
Y-415800D03*
Y-418300D03*
Y-420800D03*
X271150Y-410800D03*
Y-413300D03*
Y-415800D03*
Y-418300D03*
Y-420800D03*
X271350Y-391750D03*
X268850D03*
X266350D03*
X263850D03*
X261350D03*
X258850D03*
X271350Y-394250D03*
X268850D03*
X266350D03*
X263850D03*
X261350D03*
X258850D03*
X271350Y-396750D03*
X268850D03*
X266350D03*
X263850D03*
X261350D03*
X258850D03*
X258700Y-405950D03*
X261200D03*
X263700D03*
X266200D03*
X268700D03*
X271200D03*
X258700Y-403450D03*
X261200D03*
X263700D03*
X266200D03*
X268700D03*
X271200D03*
X258700Y-400950D03*
X261200D03*
X263700D03*
X266200D03*
X268700D03*
X271200D03*
X271500Y-382850D03*
X269000D03*
X266500D03*
X264000D03*
X261500D03*
X259000D03*
X271500Y-385350D03*
X269000D03*
X266500D03*
X264000D03*
X261500D03*
X259000D03*
X271500Y-387850D03*
X269000D03*
X266500D03*
X264000D03*
X261500D03*
X259000D03*
X246990Y-331550D03*
Y-346910D03*
X244650Y-344350D03*
X246990Y-341790D03*
X244650Y-339230D03*
X246990Y-336670D03*
X244650Y-334110D03*
X269210Y-313950D03*
X244650Y-328990D03*
X261950Y-263700D03*
X264490Y-239080D03*
X244850Y276360D03*
X250000Y440000D03*
X270000D03*
X260000D03*
X295900Y-421450D03*
X293400D03*
X290900D03*
X288400D03*
X285900D03*
X283400D03*
X295900Y-416450D03*
X293400D03*
X290900D03*
X288400D03*
X285900D03*
X283400D03*
X295900Y-418950D03*
X293400D03*
X290900D03*
X288400D03*
X285900D03*
X283400D03*
X295700Y-408000D03*
X293200D03*
X290700D03*
X288200D03*
X285700D03*
X283200D03*
X295700Y-410500D03*
X293200D03*
X290700D03*
X288200D03*
X285700D03*
X283200D03*
X295700Y-413000D03*
X293200D03*
X290700D03*
X288200D03*
X285700D03*
X283200D03*
X282750Y-327700D03*
X285250D03*
X287750D03*
X290250D03*
X292750D03*
X295250D03*
X282750Y-325200D03*
X285250D03*
X287750D03*
X290250D03*
X292750D03*
X295250D03*
X282750Y-322700D03*
X285250D03*
X287750D03*
X290250D03*
X292750D03*
X295250D03*
X274760Y-244800D03*
X294900Y-253940D03*
X291150Y-256500D03*
X294900Y-259060D03*
X291150Y-261620D03*
X272910Y-224520D03*
X285740Y-225800D03*
X297990Y-200430D03*
X280000Y440000D03*
X300000D03*
X290000D03*
X330650Y-399250D03*
Y-401750D03*
Y-404250D03*
X330700Y-393000D03*
Y-395500D03*
X330800Y-373200D03*
Y-381600D03*
Y-384100D03*
Y-386600D03*
Y-375700D03*
Y-378200D03*
X330700Y-390500D03*
X306900Y-338000D03*
Y-340500D03*
X309400Y-338000D03*
Y-340500D03*
X311900Y-338000D03*
Y-340500D03*
X306900Y-333000D03*
Y-335500D03*
X309400Y-333000D03*
Y-335500D03*
X311900Y-333000D03*
Y-335500D03*
X306900Y-328000D03*
Y-330500D03*
X309400Y-328000D03*
Y-330500D03*
X311900Y-328000D03*
Y-330500D03*
X329700Y-321800D03*
X332200D03*
X318300Y-321700D03*
X320800D03*
X323300D03*
X327200Y-321800D03*
X329700Y-311800D03*
X332200D03*
X329700Y-309300D03*
X332200D03*
X329700Y-314300D03*
Y-316800D03*
X332200Y-314300D03*
Y-316800D03*
X329700Y-319300D03*
X332200D03*
X318300Y-309200D03*
Y-311700D03*
X320800Y-309200D03*
Y-311700D03*
X323300Y-309200D03*
Y-311700D03*
X327200Y-311800D03*
Y-309300D03*
X318300Y-314200D03*
Y-316700D03*
X320800Y-314200D03*
Y-316700D03*
X323300Y-314200D03*
Y-316700D03*
X318300Y-319200D03*
X320800D03*
X323300D03*
X327200Y-314300D03*
Y-316800D03*
Y-319300D03*
X309750Y-261350D03*
X309300Y-266550D03*
X310570Y-193420D03*
X329400Y125280D03*
X321350Y158220D03*
X321580Y172610D03*
X310000Y440000D03*
X330000D03*
X320000D03*
X340650Y-399250D03*
Y-401750D03*
Y-404250D03*
X340700Y-393000D03*
Y-395500D03*
X343150Y-399250D03*
Y-401750D03*
Y-404250D03*
X343200Y-393000D03*
Y-395500D03*
X338150Y-399250D03*
X335650D03*
X338150Y-401750D03*
X335650D03*
X338150Y-404250D03*
X335650D03*
X333150Y-399250D03*
Y-401750D03*
Y-404250D03*
X338200Y-393000D03*
X335700D03*
X338200Y-395500D03*
X335700D03*
X333200Y-393000D03*
Y-395500D03*
X343300Y-373200D03*
X340800D03*
X343300Y-381600D03*
X340800D03*
X343300Y-384100D03*
X340800D03*
X343300Y-386600D03*
X340800D03*
X343300Y-375700D03*
X340800D03*
X343300Y-378200D03*
X340800D03*
X340700Y-390500D03*
X343200D03*
X338300Y-373200D03*
X335800D03*
X338300Y-381600D03*
X335800D03*
X338300Y-384100D03*
X335800D03*
X338300Y-386600D03*
X335800D03*
X338300Y-375700D03*
X335800D03*
X338300Y-378200D03*
X335800D03*
X333300Y-373200D03*
Y-381600D03*
Y-384100D03*
Y-386600D03*
Y-375700D03*
Y-378200D03*
X338200Y-390500D03*
X335700D03*
X333200D03*
X335950Y-321850D03*
X338450D03*
X340950D03*
X335950Y-311850D03*
X338450D03*
X340950D03*
X335950Y-309350D03*
X338450D03*
X340950D03*
X335950Y-314350D03*
Y-316850D03*
X338450Y-314350D03*
Y-316850D03*
X340950Y-314350D03*
Y-316850D03*
X335950Y-319350D03*
X338450D03*
X340950D03*
X354200Y-319850D03*
X349550Y-251420D03*
X338550Y-246300D03*
Y-248860D03*
X355400Y-265900D03*
X355600Y-249900D03*
X350010Y-232260D03*
X347450Y-74460D03*
X359050Y-74620D03*
X347450Y-57640D03*
X359050Y-52680D03*
X343800Y62400D03*
X337800Y110720D03*
X348130Y117850D03*
X337170Y136850D03*
X340000Y440000D03*
X350000D03*
X360000D03*
X371600Y-271890D03*
Y-274450D03*
Y-246300D03*
Y-248860D03*
Y-266770D03*
Y-269330D03*
X373920Y-264210D03*
X378120Y-251420D03*
X373920Y-259100D03*
X366050Y-227000D03*
X370000Y-222200D03*
X369940Y-19940D03*
X367790Y-12060D03*
X370000Y440000D03*
X390000D03*
X380000D03*
X410000D03*
X420000D03*
X400000D03*
X440000Y-400000D03*
Y-420000D03*
Y-410000D03*
Y-380000D03*
Y-390000D03*
Y-370000D03*
Y-360000D03*
Y-350000D03*
Y-340000D03*
Y-320000D03*
Y-330000D03*
Y-310000D03*
Y-290000D03*
Y-300000D03*
Y-280000D03*
Y-260000D03*
Y-270000D03*
Y-250000D03*
Y-240000D03*
Y-230000D03*
Y-220000D03*
Y-210000D03*
Y-190000D03*
Y-200000D03*
Y-180000D03*
Y-170000D03*
Y-160000D03*
Y-150000D03*
Y-140000D03*
Y-130000D03*
Y-120000D03*
Y-110000D03*
Y-100000D03*
Y-90000D03*
Y-70000D03*
Y-80000D03*
Y-60000D03*
Y-50000D03*
Y-40000D03*
Y-30000D03*
Y-20000D03*
Y-10000D03*
Y0D03*
Y10000D03*
Y20000D03*
Y30000D03*
Y50000D03*
Y40000D03*
Y60000D03*
Y70000D03*
Y80000D03*
Y90000D03*
Y100000D03*
Y110000D03*
Y130000D03*
Y140000D03*
Y120000D03*
Y170000D03*
Y150000D03*
Y160000D03*
Y180000D03*
Y190000D03*
Y200000D03*
Y210000D03*
Y220000D03*
Y230000D03*
Y250000D03*
Y260000D03*
Y240000D03*
Y290000D03*
Y270000D03*
Y280000D03*
Y300000D03*
Y310000D03*
Y320000D03*
Y330000D03*
Y340000D03*
Y350000D03*
Y370000D03*
Y360000D03*
Y380000D03*
Y410000D03*
Y390000D03*
Y400000D03*
Y420000D03*
G54D12*
X-325860Y-107310D03*
X-335860Y-70000D03*
Y-60000D03*
Y-50000D03*
Y-40000D03*
Y-30000D03*
Y-20000D03*
Y-10000D03*
Y0D03*
Y10000D03*
Y20000D03*
Y30000D03*
Y40000D03*
Y50000D03*
Y60000D03*
Y70000D03*
X-325860Y107310D03*
X-295860Y-159270D03*
X-300860Y-150610D03*
X-305860Y-141950D03*
X-310860Y-133290D03*
X-315860Y-124630D03*
X-320860Y-115970D03*
Y115970D03*
X-315860Y124630D03*
X-310860Y133290D03*
X-305860Y141950D03*
X-300860Y150610D03*
X-295860Y159270D03*
X-265860Y-211230D03*
X-270860Y-202570D03*
X-275860Y-193910D03*
X-280860Y-185250D03*
X-285860Y-176590D03*
X-290860Y-167930D03*
Y167930D03*
X-285860Y176590D03*
X-280860Y185250D03*
X-275860Y193910D03*
X-270860Y202570D03*
X-265860Y211230D03*
X-255860Y-228550D03*
X-260860Y-219890D03*
Y219890D03*
X-255860Y228550D03*
X-211230Y-265860D03*
X-219890Y-260860D03*
X-228550Y-255860D03*
Y255860D03*
X-219890Y260860D03*
X-211230Y265860D03*
X-176590Y-285860D03*
X-185250Y-280860D03*
X-193910Y-275860D03*
X-202570Y-270860D03*
Y270860D03*
X-193910Y275860D03*
X-185250Y280860D03*
X-176590Y285860D03*
X-150610Y-300860D03*
X-159270Y-295860D03*
X-167930Y-290860D03*
Y290860D03*
X-159270Y295860D03*
X-150610Y300860D03*
X-115970Y-320860D03*
X-124630Y-315860D03*
X-133290Y-310860D03*
X-141950Y-305860D03*
Y305860D03*
X-133290Y310860D03*
X-124630Y315860D03*
X-115970Y320860D03*
X-107310Y-325860D03*
Y325860D03*
X-60000Y-335860D03*
X-70000D03*
Y335860D03*
X-60000D03*
X-30000Y-335860D03*
X-40000D03*
X-50000D03*
Y335860D03*
X-40000D03*
X-30000D03*
X0Y-335860D03*
X-10000D03*
X-20000D03*
Y335860D03*
X-10000D03*
X0D03*
X30000Y-335860D03*
X20000D03*
X10000D03*
Y335860D03*
X20000D03*
X30000D03*
X60000Y-335860D03*
X50000D03*
X40000D03*
Y335860D03*
X50000D03*
X60000D03*
X70000Y-335860D03*
Y335860D03*
X115970Y-320860D03*
X107310Y-325860D03*
Y325860D03*
X115970Y320860D03*
X150610Y-300860D03*
X141950Y-305860D03*
X133290Y-310860D03*
X124630Y-315860D03*
X150610Y300860D03*
X124630Y315860D03*
X133290Y310860D03*
X141950Y305860D03*
X176590Y-285860D03*
X167930Y-290860D03*
X159270Y-295860D03*
Y295860D03*
X167930Y290860D03*
X176590Y285860D03*
X202570Y-270860D03*
X193910Y-275860D03*
X185250Y-280860D03*
X211230Y-265860D03*
X202570Y270860D03*
X211230Y265860D03*
X185250Y280860D03*
X193910Y275860D03*
X228550Y-255860D03*
X219890Y-260860D03*
Y260860D03*
X228550Y255860D03*
X265860Y-211230D03*
X260860Y-219890D03*
X255860Y-228550D03*
X270860Y-202570D03*
Y202570D03*
X255860Y228550D03*
X260860Y219890D03*
X265860Y211230D03*
X280860Y-185250D03*
X275860Y-193910D03*
X300860Y-150610D03*
X295860Y-159270D03*
X290860Y-167930D03*
X285860Y-176590D03*
X300860Y150610D03*
X285860Y176590D03*
X290860Y167930D03*
X295860Y159270D03*
X275860Y193910D03*
X280860Y185250D03*
X315860Y-124630D03*
X310860Y-133290D03*
X305860Y-141950D03*
X325860Y-107310D03*
X320860Y-115970D03*
Y115970D03*
X325860Y107310D03*
X305860Y141950D03*
X310860Y133290D03*
X315860Y124630D03*
X335860Y-70000D03*
Y-40000D03*
Y-50000D03*
Y-60000D03*
Y-10000D03*
Y-20000D03*
Y-30000D03*
Y20000D03*
Y10000D03*
Y0D03*
Y50000D03*
Y40000D03*
Y30000D03*
Y70000D03*
Y60000D03*
G54D13*
X0Y0D03*
G54D14*
X-54510Y-403940D03*
X52690D03*
G54D15*
X233600Y-427950D03*
G54D16*
X252100Y-439760D03*
Y-416140D03*
G54D17*
G01X-435000Y-445710D02*
Y-435000D01*
G01D02*
Y-424290D01*
G01Y-435000D02*
X-424290D01*
G01X-435000Y424290D02*
Y435000D01*
G01D02*
X-424290D01*
G01X-335860Y-3710D02*
Y0D01*
G01D02*
Y3710D01*
G01X-339570Y0D02*
X-335860D01*
G01D02*
X-332150D01*
G01X-290860Y-171640D02*
Y-167930D01*
G01D02*
Y-164220D01*
G01X-294570Y-167930D02*
X-290860D01*
G01D02*
X-287150D01*
G01X-290860Y164220D02*
Y167930D01*
G01D02*
Y171640D01*
G01X-294570Y167930D02*
X-290860D01*
G01D02*
X-287150D01*
G01X-167930Y-294570D02*
Y-290860D01*
G01D02*
Y-287150D01*
G01X-171640Y-290860D02*
X-167930D01*
G01D02*
X-164220D01*
G01X-167930Y287150D02*
Y290860D01*
G01D02*
Y294570D01*
G01X-171640Y290860D02*
X-167930D01*
G01D02*
X-164220D01*
G01X0Y-339570D02*
Y-335860D01*
G01D02*
Y-332150D01*
G01X-3710Y-335860D02*
X0D01*
G01D02*
X3710D01*
G01X0Y332150D02*
Y335860D01*
G01D02*
Y339570D01*
G01X-3710Y335860D02*
X0D01*
G01D02*
X3710D01*
G01X167930Y-294570D02*
Y-290860D01*
G01D02*
Y-287150D01*
G01X164220Y-290860D02*
X167930D01*
G01D02*
X171640D01*
G01X167930Y287150D02*
Y290860D01*
G01D02*
Y294570D01*
G01X164220Y290860D02*
X167930D01*
G01D02*
X171640D01*
G01X290860Y-171640D02*
Y-167930D01*
G01D02*
Y-164220D01*
G01X287150Y-167930D02*
X290860D01*
G01D02*
X294570D01*
G01X290860Y164220D02*
Y167930D01*
G01D02*
Y171640D01*
G01X287150Y167930D02*
X290860D01*
G01D02*
X294570D01*
G01X335860Y-3710D02*
Y0D01*
G01D02*
Y3710D01*
G01X332150Y0D02*
X335860D01*
G01D02*
X339570D01*
G01X435000Y-445710D02*
Y-435000D01*
G01D02*
Y-424290D01*
G01X424290Y-435000D02*
X435000D01*
G01D02*
X445710D01*
G01X435000Y424290D02*
Y435000D01*
G01X424290D02*
X435000D01*
G01D02*
X445710D01*
G54D18*
G01X46550Y-384340D02*
X50050D01*
X50930Y-383460D01*
Y-377880D01*
X51810Y-377000D01*
X53050D01*
X53930Y-377880D01*
Y-383460D01*
X54810Y-384340D01*
X56050D01*
X56930Y-383460D01*
Y-377880D01*
X57810Y-377000D01*
X59050D01*
X59930Y-377880D01*
Y-383460D01*
X60810Y-384340D01*
X62050D01*
X62930Y-383460D01*
Y-377880D01*
X63810Y-377000D01*
X65050D01*
X65930Y-377880D01*
Y-383460D01*
X66810Y-384340D01*
X68050D01*
X68930Y-383460D01*
Y-377880D01*
X69810Y-377000D01*
X71050D01*
X71930Y-377880D01*
Y-383460D01*
X72810Y-384340D01*
X74050D01*
X74930Y-383460D01*
Y-377880D01*
X75810Y-377000D01*
X77050D01*
X77930Y-377880D01*
Y-383460D01*
X78810Y-384340D01*
X80050D01*
X80930Y-383460D01*
Y-377880D01*
X81810Y-377000D01*
X83050D01*
X83930Y-377880D01*
Y-383460D01*
X84810Y-384340D01*
X86050D01*
X86930Y-383460D01*
Y-377880D01*
X87810Y-377000D01*
X89050D01*
X89930Y-377880D01*
Y-383460D01*
X90810Y-384340D01*
X92050D01*
X92930Y-383460D01*
Y-377880D01*
X93810Y-377000D01*
X95050D01*
X95930Y-377880D01*
Y-383460D01*
X96810Y-384340D01*
X98050D01*
X98930Y-383460D01*
Y-377880D01*
X99810Y-377000D01*
X101050D01*
X101930Y-377880D01*
Y-383460D01*
X102810Y-384340D01*
X104050D01*
X104930Y-383460D01*
Y-377880D01*
X105810Y-377000D01*
X107050D01*
X107930Y-377880D01*
Y-383460D01*
X108810Y-384340D01*
X110050D01*
X110930Y-383460D01*
Y-377880D01*
X111810Y-377000D01*
X113050D01*
X113930Y-377880D01*
Y-383460D01*
X114810Y-384340D01*
X116050D01*
X116930Y-383460D01*
Y-377880D01*
X117810Y-377000D01*
X119050D01*
X119930Y-377880D01*
Y-383460D01*
X120810Y-384340D01*
X129660D01*
X135000Y-379000D01*
Y-373570D01*
X134000Y-372570D01*
Y-370570D01*
X135000Y-369570D01*
Y-367000D01*
X138000Y-364000D01*
X140240D01*
X141120Y-364880D01*
Y-370120D01*
X142000Y-371000D01*
X143240D01*
X144120Y-370120D01*
Y-364880D01*
X145000Y-364000D01*
X146240D01*
X147120Y-364880D01*
Y-370120D01*
X148000Y-371000D01*
X149240D01*
X150120Y-370120D01*
Y-364880D01*
X151000Y-364000D01*
X158000D01*
X163000Y-359000D01*
Y-352000D01*
X165520Y-349480D01*
X173150D01*
G01X170810Y-346920D02*
X156090D01*
X155210Y-346040D01*
Y-340880D01*
X154330Y-340000D01*
X153090D01*
X152210Y-340880D01*
Y-346040D01*
X151330Y-346920D01*
X150090D01*
X149210Y-346040D01*
Y-340880D01*
X148330Y-340000D01*
X147090D01*
X146210Y-340880D01*
Y-346040D01*
X145330Y-346920D01*
X144090D01*
X143210Y-346040D01*
Y-340880D01*
X142330Y-340000D01*
X141090D01*
X140210Y-340880D01*
Y-346040D01*
X139330Y-346920D01*
X127080D01*
X124000Y-350000D01*
Y-361000D01*
X114000Y-371000D01*
X110910D01*
X110030Y-370120D01*
Y-364880D01*
X109150Y-364000D01*
X107910D01*
X107030Y-364880D01*
Y-370120D01*
X106150Y-371000D01*
X104910D01*
X104030Y-370120D01*
Y-364880D01*
X103150Y-364000D01*
X101910D01*
X101030Y-364880D01*
Y-370120D01*
X100150Y-371000D01*
X98910D01*
X98030Y-370120D01*
Y-364880D01*
X97150Y-364000D01*
X95910D01*
X95030Y-364880D01*
Y-370120D01*
X94150Y-371000D01*
X92910D01*
X92030Y-370120D01*
Y-364880D01*
X91150Y-364000D01*
X89910D01*
X89030Y-364880D01*
Y-370120D01*
X88150Y-371000D01*
X86910D01*
X86030Y-370120D01*
Y-364880D01*
X85150Y-364000D01*
X83910D01*
X83030Y-364880D01*
Y-370120D01*
X82150Y-371000D01*
X80910D01*
X80030Y-370120D01*
Y-364880D01*
X79150Y-364000D01*
X77910D01*
X77030Y-364880D01*
Y-370120D01*
X76150Y-371000D01*
X74910D01*
X74030Y-370120D01*
Y-364880D01*
X73150Y-364000D01*
X71910D01*
X71030Y-364880D01*
Y-370120D01*
X70150Y-371000D01*
X68910D01*
X68030Y-370120D01*
Y-364880D01*
X67150Y-364000D01*
X65910D01*
X65030Y-364880D01*
Y-370120D01*
X64150Y-371000D01*
X62910D01*
X62030Y-370120D01*
Y-364880D01*
X61150Y-364000D01*
X59910D01*
X59030Y-364880D01*
Y-370120D01*
X58150Y-371000D01*
X56910D01*
X56030Y-370120D01*
Y-364880D01*
X55150Y-364000D01*
X53910D01*
X53030Y-364880D01*
Y-370120D01*
X52150Y-371000D01*
X50910D01*
X50030Y-370120D01*
Y-364880D01*
X49150Y-364000D01*
X47910D01*
X47030Y-364880D01*
Y-370120D01*
X46150Y-371000D01*
X43550D01*
X41550Y-373000D01*
Y-384340D01*
G54D19*
G01X-460000Y-480000D02*
G03I-15000J5000D01*
G01X-465000D02*
G03I-10000J5000D01*
G01X-495000Y-475000D02*
X-455000D01*
G01X-485000Y500000D02*
Y460000D01*
G01X-470000Y475000D02*
G03I-15000J5000D01*
G01X-475000D02*
G03I-10000J5000D01*
G01X-505000Y480000D02*
X-465000D01*
G01X-475000Y-455000D02*
Y-495000D01*
G01X-450000Y-450000D02*
X450000D01*
Y450000D01*
X-450000D01*
Y-450000D01*
G01X-376500Y-400000D02*
G03I-23500J0D01*
G01Y399930D02*
G03I-23500J2D01*
G01X275000Y0D02*
G03I-275000J0D01*
G01X0Y-9000D02*
Y9000D01*
G01Y-9000D02*
Y9000D01*
G01X-9000Y0D02*
X9000D01*
G01X-9000D02*
X9000D01*
G01X423500Y-400000D02*
G03I-23500J0D01*
G01Y399930D02*
G03I-23500J2D01*
G01X480000Y-450000D02*
Y-490000D01*
G01X495000Y-475000D02*
G03I-15000J5000D01*
G01X460000Y-470000D02*
X500000D01*
G01X490000Y-475000D02*
G03I-10000J5000D01*
G01Y455000D02*
G03I-15000J5000D01*
G01X475000Y480000D02*
Y440000D01*
G01X485000Y455000D02*
G03I-10000J5000D01*
G01X455000Y460000D02*
X495000D01*
M02*
