G04 ================== begin FILE IDENTIFICATION RECORD ==================*
G04 Layout Name:  J:/LED_Arena/Arena Bottom V2.brd*
G04 Film Name:    Layer_4*
G04 File Format:  Gerber RS274X*
G04 File Origin:  Cadence Allegro 16.6-P004*
G04 Origin Date:  Thu Feb 23 23:36:14 2017*
G04 *
G04 Layer:  VIA CLASS/LAYER 4*
G04 Layer:  PIN/LAYER 4*
G04 Layer:  ETCH/LAYER 4*
G04 Layer:  BOARD GEOMETRY/OUTLINE*
G04 *
G04 Offset:    (0.0000 0.0000)*
G04 Mirror:    No*
G04 Mode:      Positive*
G04 Rotation:  0*
G04 FullContactRelief:  No*
G04 UndefLineWidth:     0.1000*
G04 ================== end FILE IDENTIFICATION RECORD ====================*
%FSLAX35Y35*MOMM*%
%IR0*IPPOS*OFA0.00000B0.00000*MIA0B0*SFA1.00000B1.00000*%
%ADD15C,.2*%
%ADD10C,.5*%
%ADD14R,5.X2.*%
%ADD12R,2.X5.*%
%ADD11C,8.*%
%ADD13C,1.524*%
%ADD16C,.127*%
%ADD17C,.1*%
%ADD20C,.7544*%
%ADD23C,.6568*%
%ADD19C,8.2544*%
%ADD21R,2.2544X5.2544*%
%ADD18R,5.2544X2.2544*%
%ADD22C,1.7784*%
G75*
%LPD*%
G75*
G36*
G01X28077280Y3221490D02*
X28349690Y2949080D01*
X28528050D01*
X28663480Y3084510D01*
X28665820Y3084330D01*
G03X28631170Y3118980I2950J37600D01*
G01X28631350Y3116640D01*
X28610450Y3095750D01*
G02X28593120Y3102420I-7184J7182D01*
G03X28557300Y3138220I-37671J-1872D01*
G02X28550620Y3155560I500J10149D01*
G01X28571520Y3176460D01*
X28573860Y3176280D01*
G03X28578680Y3251550I2959J37600D01*
G02X28572000Y3268880I503J10146D01*
G01X28572650Y3269540D01*
X28572720Y3269610D01*
Y3434410D01*
X28445320Y3561810D01*
Y4283190D01*
X29749310Y5587180D01*
G02X29765730Y5584240I7187J-7181D01*
G03X29837680Y5601710I34269J15761D01*
G02X29848290Y5612320I10150J460D01*
G03X29865760Y5684270I1709J37681D01*
G02X29862740Y5700600I4243J9229D01*
G01X30604320Y6442190D01*
Y7712190D01*
X31595200Y8703070D01*
G02X31612430Y8696700I7107J-7263D01*
G03X31653300Y8737570I37570J3300D01*
G02X31646930Y8754800I893J10123D01*
G01X31747320Y8855190D01*
Y11979390D01*
X31997720Y12229790D01*
Y15272810D01*
X31740170Y15530360D01*
X31740350Y15532700D01*
G03X31705700Y15498050I-37600J2950D01*
G01X31708040Y15498230D01*
X31952280Y15253990D01*
Y15215780D01*
G02X31934940Y15208590I-10160J-2D01*
G01X31740170Y15403360D01*
X31740350Y15405700D01*
G03X31705700Y15371050I-37600J2950D01*
G01X31708040Y15371230D01*
X31902280Y15176990D01*
Y15138780D01*
G02X31884940Y15131590I-10160J-2D01*
G01X31740170Y15276360D01*
X31740350Y15278700D01*
G03X31705700Y15244050I-37600J2950D01*
G01X31708040Y15244230D01*
X31852280Y15099990D01*
Y15061780D01*
G02X31834940Y15054590I-10160J-2D01*
G01X31740170Y15149360D01*
X31740350Y15151700D01*
G03X31705700Y15117050I-37600J2950D01*
G01X31708040Y15117230D01*
X31802280Y15022990D01*
Y14984780D01*
G02X31784940Y14977590I-10160J-2D01*
G01X31740170Y15022360D01*
X31740350Y15024700D01*
G03X31705700Y14990050I-37600J2950D01*
G01X31708040Y14990230D01*
X31752280Y14945990D01*
Y12429610D01*
X31501990Y12179320D01*
G02X31493320Y12182910I-3590J3594D01*
G01Y12195290D01*
X31725470Y12427440D01*
Y14870540D01*
G03X31680030I-22720J30110D01*
G01Y12446260D01*
X31447880Y12214110D01*
Y9039110D01*
X30304880Y7896110D01*
Y6613410D01*
X28082380Y4390910D01*
Y4389510D01*
X27977280Y4284410D01*
Y3460310D01*
X26659980Y2143010D01*
Y1852390D01*
X26732390Y1779980D01*
X26732210Y1777640D01*
G03X26767930Y1737020I37602J-2950D01*
G02X26774610Y1719690I-508J-10148D01*
G01X26634580Y1579660D01*
Y1222490D01*
X26762190Y1094880D01*
X26767040D01*
G02X26774030Y1077350I-6J-10161D01*
G03X26825970I25970J-27350D01*
G02X26832960Y1094880I6996J7369D01*
G01X27220350D01*
G02X27227540Y1077540I2J-10160D01*
G01X26000000Y-150000D01*
G02X25100000Y-600000I-1058333J991667D01*
G01X11500000D01*
G02X10700000Y-250000I8333J1108333D01*
G01X3700000Y6750000D01*
G02X3450000Y7250000I325000J475000D01*
G01Y14662010D01*
X3454480Y14662550D01*
G03Y14737450I-4480J37450D01*
G01X3450000Y14737990D01*
Y14912010D01*
X3454480Y14912550D01*
G03Y14987450I-4480J37450D01*
G01X3450000Y14987990D01*
Y15012010D01*
X3454480Y15012550D01*
G03Y15087450I-4480J37450D01*
G01X3450000Y15087990D01*
Y18700000D01*
G02X3674270Y19415920I1175001J25005D01*
G02X3692420Y19407790I8222J-5970D01*
G03X4055990Y19731050I403329J-87541D01*
G02X4050040Y19750020I-975J10112D01*
G02X4600000Y19900000I574964J-1025019D01*
G01X7900000D01*
G02X8400000Y19200000I75000J-475000D01*
G03X7318660Y16787070I9900011J-5885393D01*
G02X7300060Y16785250I-9689J3065D01*
G03X7283820Y16733350I-33071J-18143D01*
G02X7298060Y16721260I4534J-9091D01*
G03X6792670Y12835570I11001941J-3406673D01*
G02X6775620Y12827690I-10150J-424D01*
G03X6777980Y12774700I-25619J-27689D01*
G02X6795660Y12768370I7533J-6814D01*
G03X28200000Y19200000I11504338J546215D01*
G02X28700000Y19900000I471667J191667D01*
G01X31950000D01*
G02X32599460Y19743780I72913J-1125000D01*
G02X32592290Y19725080I-5192J-8734D01*
G03X32905760Y19443910I-80286J-404834D01*
G02X32923570Y19453060I9694J3039D01*
G02X33150000Y18750000I-900653J-678060D01*
G01Y16906820D01*
G02X33132660Y16899640I-10159J7D01*
G01X33080580Y16951720D01*
X32837890D01*
G03Y16913580I-32540J-19070D01*
G01X33064780D01*
X33105930Y16872430D01*
Y7107900D01*
X31042100Y5044070D01*
X30632900D01*
X30516560Y5160410D01*
Y5186870D01*
X30556220Y5226520D01*
X30558860Y5226030D01*
G03X30568050Y5225450I6953J37071D01*
G02X30575830Y5208120I597J-10143D01*
G01X30562530Y5194820D01*
Y5135500D01*
X30642100Y5055930D01*
X31032900D01*
X33094070Y7117100D01*
Y16758620D01*
X33027970Y16824720D01*
X32837890D01*
G03Y16786580I-32540J-19070D01*
G01X33012170D01*
X33055930Y16742820D01*
Y7132900D01*
X31017100Y5094070D01*
X30657900D01*
X30600670Y5151300D01*
Y5179020D01*
X30602810Y5181160D01*
G02X30620140Y5173380I7187J-7182D01*
G03X30664760Y5134070I37652J-2240D01*
G01X30667400Y5134570D01*
X30696030Y5105930D01*
X31007900D01*
X33044070Y7142100D01*
Y16629010D01*
X32975360Y16697720D01*
X32837890D01*
G03Y16659580I-32540J-19070D01*
G01X32959560D01*
X33005930Y16613210D01*
Y7157900D01*
X30992100Y5144070D01*
X30711830D01*
X30694360Y5161530D01*
X30694860Y5164170D01*
G03X30655550Y5208790I-37070J6968D01*
G02X30647770Y5226120I-598J10143D01*
G01X30669540Y5247900D01*
X30672180Y5247400D01*
G03X30642080Y5277500I6970J37070D01*
G01X30642580Y5274860D01*
X30620810Y5253100D01*
G02X30603480Y5260880I-7187J7183D01*
G03X30528680Y5256570I-37652J2227D01*
G01X30528750Y5256220D01*
X30529250Y5253500D01*
X30478420Y5202670D01*
Y5144610D01*
X30617100Y5005930D01*
X31057900D01*
X33067130Y7015160D01*
G02X33083580Y7003820I7179J-7187D01*
G02X32900000Y6750000I-701442J314032D01*
G01X29161160Y3011160D01*
G02X29143820Y3018350I-7180J7188D01*
G01Y3527310D01*
X28877120Y3794010D01*
Y4029190D01*
X30985320Y6137390D01*
Y7445490D01*
X32115620Y8575790D01*
Y10592950D01*
G02X32135160Y10596850I10160J-4D01*
G03Y10914190I381000J158670D01*
G02X32115620Y10918090I-9380J3904D01*
G01Y11708490D01*
X32322720Y11915590D01*
Y14385890D01*
X32800060Y14863230D01*
X32802400Y14863050D01*
G03X32767750Y14897700I2950J37600D01*
G01X32767930Y14895360D01*
X32290060Y14417490D01*
G02X32272720Y14424680I-7180J7188D01*
G01Y14462890D01*
X32800060Y14990230D01*
X32802400Y14990050D01*
G03X32767750Y15024700I2950J37600D01*
G01X32767930Y15022360D01*
X32475860Y14730290D01*
G02X32458520Y14737480I-7180J7188D01*
G01Y14775690D01*
X32800060Y15117230D01*
X32802400Y15117050D01*
G03X32767750Y15151700I2950J37600D01*
G01X32767930Y15149360D01*
X32413080Y14794510D01*
Y14745210D01*
X32181390Y14513520D01*
G02X32172720Y14517110I-3590J3594D01*
G01Y14525690D01*
X32382320Y14735290D01*
Y14826490D01*
X32800060Y15244230D01*
X32802400Y15244050D01*
G03X32767750Y15278700I2950J37600D01*
G01X32767930Y15276360D01*
X32336880Y14845310D01*
Y14754110D01*
X32140060Y14557290D01*
G02X32122720Y14564480I-7180J7188D01*
G01Y14693890D01*
X32800060Y15371230D01*
X32802400Y15371050D01*
G03X32767750Y15405700I2950J37600D01*
G01X32767930Y15403360D01*
X32090060Y14725490D01*
G02X32072720Y14732680I-7180J7188D01*
G01Y14770890D01*
X32800060Y15498230D01*
X32802400Y15498050D01*
G03X32767750Y15532700I2950J37600D01*
G01X32767930Y15530360D01*
X32027280Y14789710D01*
Y12133110D01*
X31760880Y11866710D01*
Y8742510D01*
X30647780Y7629410D01*
Y6359410D01*
X28509680Y4221310D01*
Y3563790D01*
X28763680Y3309790D01*
Y3027510D01*
X27219390Y1483220D01*
X27093410D01*
X27083100Y1493530D01*
X27083280Y1495870D01*
G03X27047520Y1536490I-37601J2948D01*
G02X27040840Y1553830I500J10149D01*
G01X27061750Y1574740D01*
X27064090Y1574560D01*
G03X27029440Y1609210I2950J37600D01*
G01X27029620Y1606870D01*
X27008720Y1585970D01*
G02X26991390Y1592650I-7182J7188D01*
G03X26955560Y1628450I-37674J-1875D01*
G02X26948870Y1645780I492J10146D01*
G01X26969790Y1666700D01*
X26972130Y1666520D01*
G03X26937480Y1701170I2950J37600D01*
G01X26937660Y1698830D01*
X26916770Y1677940D01*
G02X26899440Y1684620I-7182J7188D01*
G03X26863610Y1720410I-37674J-1886D01*
G02X26856920Y1737740I492J10146D01*
G01X26877830Y1758650D01*
X26880170Y1758470D01*
G03X26845520Y1793120I2950J37600D01*
G01X26845700Y1790780D01*
X26824810Y1769890D01*
G02X26807480Y1776570I-7182J7188D01*
G03X26766860Y1812290I-37670J-1882D01*
G01X26764520Y1812110D01*
X26705420Y1871210D01*
Y2124190D01*
X26712490Y2131260D01*
G02X26729830Y2124070I7180J-7188D01*
G01Y1917240D01*
X26753750Y1893320D01*
X26753570Y1890980D01*
G03X26788220Y1925630I37600J-2950D01*
G01X26785880Y1925450D01*
X26775270Y1936060D01*
Y2117840D01*
X28059940Y3402510D01*
G02X28077280Y3395320I7180J-7188D01*
G01Y3221490D01*
G37*
G36*
G01X26895310Y1267320D02*
X26819720Y1342910D01*
Y1516630D01*
X26898710Y1595620D01*
G02X26916040Y1588930I7184J-7182D01*
G03X26916120Y1587810I37659J2127D01*
G01X26916300Y1585480D01*
X26850480Y1519660D01*
Y1374890D01*
X26939990Y1285380D01*
X27237890D01*
G02X27241480Y1276710I-4J-5080D01*
G01X27232090Y1267320D01*
X26895310D01*
G37*
G36*
G01X26819110Y1203820D02*
X26743520Y1279410D01*
Y1532350D01*
X26856480Y1645310D01*
X26858810Y1645130D01*
G03X26859880Y1645060I2997J37599D01*
G02X26866560Y1627730I-508J-10148D01*
G01X26774280Y1535450D01*
Y1324090D01*
X26876490Y1221880D01*
X27250910D01*
X29004120Y2975090D01*
Y3463810D01*
X28737420Y3730510D01*
Y4092690D01*
X30858320Y6213590D01*
Y7521690D01*
X31988620Y8651990D01*
Y11763490D01*
X32209940Y11984810D01*
G02X32227280Y11977620I7180J-7188D01*
G01Y11964810D01*
X32006680Y11744210D01*
Y8632710D01*
X30876380Y7502410D01*
Y6194310D01*
X28755480Y4073410D01*
Y3762490D01*
X29034880Y3483090D01*
Y2981210D01*
X27257490Y1203820D01*
X26819110D01*
G37*
G36*
G01X26781010Y1140320D02*
X26680020Y1241310D01*
Y1560840D01*
X26806760Y1687580D01*
G02X26824090Y1680890I7184J-7182D01*
G03X26824170Y1679770I37659J2127D01*
G01X26824350Y1677440D01*
X26698080Y1551170D01*
Y1260590D01*
X26800290Y1158380D01*
X27276310D01*
X29080320Y2962390D01*
Y3501910D01*
X28800920Y3781310D01*
Y4054590D01*
X30921820Y6175490D01*
Y7483590D01*
X32052120Y8613890D01*
Y11725390D01*
X32268610Y11941880D01*
G02X32277280Y11938290I3590J-3594D01*
G01Y11934410D01*
X32070180Y11727310D01*
Y8594610D01*
X30939880Y7464310D01*
Y6156210D01*
X28831680Y4048010D01*
Y3775190D01*
X29098380Y3508490D01*
Y2955810D01*
X27282890Y1140320D01*
X26781010D01*
G37*
G36*
G01X27035010Y1394320D02*
X26984820Y1444510D01*
Y1497810D01*
X26990670Y1503660D01*
G02X27008010Y1496980I7191J-7180D01*
G03X27048640Y1461220I37672J1841D01*
G01X27050970Y1461400D01*
X27074590Y1437780D01*
X27225620D01*
G02X27232810Y1420440I2J-10160D01*
G01X27206690Y1394320D01*
X27035010D01*
G37*
G36*
G01X26958810Y1330820D02*
X26895920Y1393710D01*
Y1500840D01*
X26948430Y1553350D01*
X26950760Y1553170D01*
G03X26951840Y1553100I2979J37600D01*
G02X26958520Y1535770I-508J-10148D01*
G01X26939380Y1516630D01*
Y1425690D01*
X27016190Y1348880D01*
X27225190D01*
G02X27228780Y1340210I-4J-5080D01*
G01X27219390Y1330820D01*
X26958810D01*
G37*
G36*
G01X28368510Y2994520D02*
X28122720Y3240310D01*
Y3252690D01*
G02X28131390Y3256280I5080J-4D01*
G01X28384480Y3003190D01*
G02X28380890Y2994520I-3594J-3590D01*
G01X28368510D01*
G37*
G36*
G01X28489770Y3250920D02*
X28468780Y3229930D01*
X28466440Y3230110D01*
G03X28461620Y3154840I-2959J-37600D01*
G02X28468300Y3137510I-503J-10146D01*
G01X28465020Y3134220D01*
X28419310D01*
X28222720Y3330810D01*
Y3565590D01*
X28381820Y3724690D01*
Y4308590D01*
X30550210Y6476980D01*
G02X30558880Y6473390I3590J-3594D01*
G01Y6461010D01*
X28399880Y4302010D01*
Y3542990D01*
X28527280Y3415590D01*
Y3341210D01*
G02X28510270Y3333710I-10161J7D01*
G03X28483000Y3268170I-25414J-27869D01*
G02X28489770Y3250920I-499J-10149D01*
G37*
G36*
G01X28406610Y3045320D02*
X28172720Y3279210D01*
Y3292020D01*
G02X28190060Y3299210I10160J2D01*
G01X28400490Y3088780D01*
X28483840D01*
X28500440Y3105380D01*
G02X28517780Y3098700I7191J-7180D01*
G03X28517850Y3097590I37673J1819D01*
G01X28518030Y3095260D01*
X28468090Y3045320D01*
X28406610D01*
G37*
G36*
G01X28172720Y3604380D02*
Y4188390D01*
X30499410Y6515080D01*
G02X30508080Y6511490I3590J-3594D01*
G01Y6499110D01*
X28336380Y4327410D01*
Y3743510D01*
X28190060Y3597190D01*
G02X28172720Y3604380I-7180J7188D01*
G37*
G36*
G01X28801640Y3336090D02*
X28555120Y3582610D01*
Y3608120D01*
G02X28572460Y3615310I10160J2D01*
G01X28818980Y3368790D01*
Y3343280D01*
G02X28801640Y3336090I-10160J-2D01*
G37*
G36*
G01X28864420Y3000380D02*
Y3387610D01*
X28610420Y3641610D01*
Y4168890D01*
X30732040Y6290510D01*
G02X30749380Y6283320I7180J-7188D01*
G01Y6270510D01*
X28628480Y4149610D01*
Y3660890D01*
X28895180Y3394190D01*
Y3006610D01*
X28881760Y2993190D01*
G02X28864420Y3000380I-7180J7188D01*
G37*
G36*
G01X28940620Y2988110D02*
Y3413010D01*
X28673920Y3679710D01*
Y4130790D01*
X30794820Y6251690D01*
Y7547090D01*
X31925120Y8677390D01*
Y11788890D01*
X32168610Y12032380D01*
G02X32177280Y12028790I3590J-3594D01*
G01Y12016410D01*
X31943180Y11782310D01*
Y8670810D01*
X30812880Y7540510D01*
Y6232410D01*
X28691980Y4111510D01*
Y3711690D01*
X28958680Y3444990D01*
Y2993910D01*
X28949290Y2984520D01*
G02X28940620Y2988110I-3590J3594D01*
G37*
G36*
G01X28555120Y4190110D02*
Y4202490D01*
X30686310Y6333680D01*
G02X30694980Y6330090I3590J-3594D01*
G01Y6317710D01*
X28563790Y4186520D01*
G02X28555120Y4190110I-3590J3594D01*
G37*
G36*
G01X30401120Y7839510D02*
Y7851890D01*
X31540810Y8991580D01*
G02X31549480Y8987990I3590J-3594D01*
G01Y8975610D01*
X30409790Y7835920D01*
G02X30401120Y7839510I-3590J3594D01*
G37*
G36*
G01X30451920Y7801410D02*
Y7813790D01*
X31591610Y8953480D01*
G02X31600280Y8949890I3590J-3594D01*
G01Y8937510D01*
X30460590Y7797820D01*
G02X30451920Y7801410I-3590J3594D01*
G37*
G36*
G01X30502720Y7763310D02*
Y7775690D01*
X31642410Y8915380D01*
G02X31651080Y8911790I3590J-3594D01*
G01Y8899410D01*
X30511390Y7759720D01*
G02X30502720Y7763310I-3590J3594D01*
G37*
G36*
G01X30740420Y7569210D02*
Y7581590D01*
X31861620Y8702790D01*
Y11814290D01*
X32118610Y12071280D01*
G02X32127280Y12067690I3590J-3594D01*
G01Y12055310D01*
X31879680Y11807710D01*
Y8696210D01*
X30749090Y7565620D01*
G02X30740420Y7569210I-3590J3594D01*
G37*
G36*
G01X31544120Y12144380D02*
Y12157190D01*
X31784940Y12398010D01*
G02X31802280Y12390820I7180J-7188D01*
G01Y12378010D01*
X31561460Y12137190D01*
G02X31544120Y12144380I-7180J7188D01*
G37*
G36*
G01X31594920Y12094010D02*
Y12106390D01*
X31843610Y12355080D01*
G02X31852280Y12351490I3590J-3594D01*
G01Y12339110D01*
X31603590Y12090420D01*
G02X31594920Y12094010I-3590J3594D01*
G37*
G36*
G01X31645720Y12055480D02*
Y12068290D01*
X31884940Y12307510D01*
G02X31902280Y12300320I7180J-7188D01*
G01Y12287510D01*
X31663060Y12048290D01*
G02X31645720Y12055480I-7180J7188D01*
G37*
G36*
G01X31696520Y12005110D02*
Y12017490D01*
X31943610Y12264580D01*
G02X31952280Y12260990I3590J-3594D01*
G01Y12248610D01*
X31705190Y12001520D01*
G02X31696520Y12005110I-3590J3594D01*
G37*
G36*
G01X31806320Y11835510D02*
Y11847890D01*
X32068610Y12110180D01*
G02X32077280Y12106590I3590J-3594D01*
G01Y12094210D01*
X31814990Y11831920D01*
G02X31806320Y11835510I-3590J3594D01*
G37*
%LPC*%
G75*
G36*
G01X30787680Y4798290D02*
G03X30798290Y4787680I10150J-460D01*
G02X30762320Y4751710I1710J-37680D01*
G03X30751710Y4762320I-10150J460D01*
G02X30712330Y4801850I-1707J37679D01*
G03X30701710Y4812320I-10157J319D01*
G02X30662330Y4851850I-1707J37679D01*
G03X30651710Y4862320I-10158J317D01*
G02X30640980Y4863370I-1729J37679D01*
G03X30628690Y4851080I-2427J-9863D01*
G02X30601080Y4878690I-36630J-9020D01*
G03X30613370Y4890980I2427J9863D01*
G02X30612290Y4899290I36634J8986D01*
G02X30612330Y4901850I37710J691D01*
G03X30601710Y4912320I-10157J319D01*
G02X30562330Y4951850I-1707J37679D01*
G03X30551710Y4962320I-10157J319D01*
G02X30512330Y5001850I-1707J37679D01*
G03X30501710Y5012320I-10157J319D01*
G02X30462330Y5051850I-1707J37679D01*
G03X30451710Y5062320I-10157J319D01*
G02X30412330Y5101850I-1707J37679D01*
G03X30401710Y5112320I-10157J319D01*
G02X30362330Y5151850I-1707J37679D01*
G03X30351710Y5162320I-10157J319D01*
G02X30312330Y5201850I-1707J37679D01*
G03X30301710Y5212320I-10157J319D01*
G02X30337680Y5248290I-1710J37680D01*
G03X30348150Y5237670I10151J-463D01*
G02X30387680Y5198290I1851J-37673D01*
G03X30398150Y5187670I10151J-463D01*
G02X30437680Y5148290I1851J-37673D01*
G03X30448150Y5137670I10151J-463D01*
G02X30487680Y5098290I1851J-37673D01*
G03X30498150Y5087670I10151J-463D01*
G02X30537680Y5048290I1851J-37673D01*
G03X30548150Y5037670I10151J-463D01*
G02X30587680Y4998290I1851J-37673D01*
G03X30598150Y4987670I10151J-463D01*
G02X30637680Y4948290I1851J-37673D01*
G03X30648150Y4937670I10151J-463D01*
G02X30687680Y4898290I1851J-37673D01*
G03X30698150Y4887670I10151J-463D01*
G02X30737680Y4848290I1851J-37673D01*
G03X30748150Y4837670I10151J-463D01*
G02X30787680Y4798290I1851J-37673D01*
G37*
G36*
G01X31115690Y16087460D02*
G02X31083560Y16119590I-76850J-44720D01*
G01X31177280Y16213310D01*
Y18840590D01*
X31115590Y18902280D01*
X31005110D01*
G02Y18947720I-30110J22720D01*
G01X31134410D01*
X31222720Y18859410D01*
Y16194490D01*
X31115690Y16087460D01*
G37*
G36*
G01X30419290Y10570960D02*
G03X30434030Y10562670I10132J766D01*
G02X30391840Y10516450I40378J-79223D01*
G03X30382250Y10530370I-9435J3763D01*
G02X30419290Y10570960I-572J37717D01*
G37*
G36*
G01X28862590Y7424020D02*
G03X28866590Y7408760I8193J-6007D01*
G02X28820620Y7396730I-15568J-34359D01*
G03X28816620Y7411990I-8193J6007D01*
G02X28862590Y7424020I15568J34359D01*
G37*
G36*
G01X23113310Y2683150D02*
G02X23115570Y2684640I13615J-18192D01*
G01X25453840Y4034640D01*
G03X26375430Y4811550I-1713071J2967148D01*
G01X28111620Y6880670D01*
X28174770Y6943830D01*
G03X28722130Y7803000I-1664066J1664084D01*
G01X29651760Y10357130D01*
X30304850Y10277710D01*
X30306380Y10281130D01*
G02X30300030Y10228920I81149J-36361D01*
G01X30299370Y10232600D01*
X29682120Y10307670D01*
X28764830Y7787460D01*
G02X28206910Y6911690I-2254141J820428D01*
G01X28145160Y6849950D01*
X28059690Y6748090D01*
G03X28061400Y6733420I7786J-6527D01*
G01X28559320Y6361590D01*
X28562350Y6363800D01*
G02X28530880Y6321650I52327J-71892D01*
G01X28532130Y6325180D01*
X28023530Y6704990D01*
X26410310Y4782430D01*
X26410300Y4782420D01*
G02X25476560Y3995280I-2669553J2219349D01*
G01X25274150Y3878420D01*
X25578540Y3270870D01*
X25582230Y3271480D01*
G02X25535210Y3247920I14541J-87721D01*
G01X25537910Y3250520D01*
X25239550Y3846020D01*
G03X25225390Y3850270I-9083J-4548D01*
G01X23139460Y2645960D01*
X23139220Y2645780D01*
G02X21795230Y2064190I-1892660J2530026D01*
G01X21579750Y2026190D01*
G03X21571560Y2014120I1759J-10007D01*
G01X21702550Y1384130D01*
X21706280Y1383780D01*
G02X21654780Y1373070I-8455J-88518D01*
G01X21658060Y1374880D01*
X21524660Y2016480D01*
X19136030Y1595290D01*
G02X17576140Y1596150I-777219J4944765D01*
G01X17571400Y1596900D01*
X17428440Y933480D01*
X17431700Y931650D01*
G02X17380290Y942730I-43602J-77499D01*
G01X17384020Y943060D01*
X17524260Y1593880D01*
G03X17516040Y1606040I-9930J2146D01*
G02X17489620Y1610630I843564J4933880D01*
G01X14830640Y2079480D01*
G02X14829010Y2079830I3951J22371D01*
G02X13740010Y2522340I1052975J4152578D01*
G01X13617910Y2592840D01*
X13250950Y1976000D01*
X13253460Y1973220D01*
G02X13208260Y2000110I-66030J-59558D01*
G01X13211900Y1999230D01*
X13578560Y2615560D01*
X11401670Y3872380D01*
G02X10334500Y4774280I2077651J3540686D01*
G01X10273860Y4846530D01*
X9684100Y4381430D01*
X9685440Y4377940D01*
G02X9652870Y4419240I-82982J-31948D01*
G01X9655960Y4417110D01*
X10236420Y4874870D01*
G03X10237910Y4889380I-6293J7978D01*
G01X8603080Y6837690D01*
X8601740Y6838150D01*
G02X7913030Y7512280I358747J1055373D01*
G01X7719630Y8043650D01*
X7154470Y7862420D01*
X7154510Y7858680D01*
G02X7138450Y7908760I-88918J-900D01*
G01X7140590Y7905690D01*
X7694020Y8083160D01*
G03X7700460Y8096310I-3106J9673D01*
G01X6990050Y10048150D01*
X6989910Y10048430D01*
G02X6577750Y11769820I3388621J1721390D01*
G01Y11978070D01*
X5968010Y11999670D01*
X5966780Y11996130D01*
G02X5968640Y12048690I-83960J29284D01*
G01X5969620Y12045080D01*
X6567230Y12023910D01*
G03X6577750Y12034060I360J10154D01*
G01Y14468190D01*
G02X6718770Y15829250I2782900J399498D01*
G01X6823360Y16116610D01*
G03X6816830Y16129790I-9545J3479D01*
G01X6272230Y16299040D01*
X6270110Y16295950D01*
G02X6285720Y16346170I-73309J50323D01*
G01Y16342430D01*
X6863250Y16162950D01*
G02X6877860Y16133480I-6740J-21698D01*
G01X6761470Y15813710D01*
G03X6622960Y14473060I2599181J-946016D01*
G02X6623190Y14469820I-22491J-3225D01*
G01Y11769820D01*
G03X7031180Y10067520I3755339J0D01*
G02X7032280Y10064990I-20247J-10307D01*
G01X7955730Y7527820D01*
G03X8623530Y6878760I1004760J365699D01*
G02X8633770Y6871800I-7167J-21557D01*
G01X10369300Y4803480D01*
G03X11424530Y3911660I3109976J2609623D01*
G01X13762730Y2561700D01*
G03X14839360Y2124080I2119290J3670695D01*
G01X17497520Y1655370D01*
G03X17557400Y1645190I861236J4884695D01*
G03X19128550Y1640110I801410J4894865D01*
G01X21787330Y2108930D01*
G03X23113310Y2683150I-540792J3066865D01*
G37*
G36*
G01X17159790Y812060D02*
G03X17152680Y798920I2500J-9846D01*
G02X17088190Y811030I-35680J-12239D01*
G03X17086330Y825860I-7757J6559D01*
G02X17159790Y812060I51627J72400D01*
G37*
G36*
G01X6698910Y6429830D02*
G03X6524000Y6980790I-6695340J-1822286D01*
G01X5036220Y11068460D01*
G02X5191020Y11544770I382179J139102D01*
G01Y15881560D01*
X5191000Y15881760D01*
G02X5228650Y16157770I655335J51180D01*
G01X6360910Y19268630D01*
X6499440Y19407160D01*
X6675700D01*
X6676810Y19410740D01*
G02Y19358140I84940J-26300D01*
G01X6675700Y19361720D01*
X6518260D01*
X6400170Y19243630D01*
X5271350Y16142230D01*
G03X5236390Y15884270I574988J-209274D01*
G02X5236460Y15882460I-22651J-1782D01*
G01Y15096320D01*
X5288540D01*
X5289650Y15099900D01*
G02Y15047300I84940J-26300D01*
G01X5288540Y15050880D01*
X5246750D01*
X5236460Y15040590D01*
Y11532460D01*
G02X5225850Y11513240I-22714J0D01*
G03X5078920Y11084000I192549J-305677D01*
G01X5282390Y10524970D01*
G03X5299120Y10521260I9547J3474D01*
G01X5348880Y10571020D01*
X5459430D01*
X5460540Y10574600D01*
G02Y10522000I84940J-26300D01*
G01X5459430Y10525580D01*
X5367700D01*
X5304990Y10462870D01*
X6566700Y6996330D01*
G02X6741150Y6447660I-6563121J-2388817D01*
G01X6741440Y6446580D01*
X6934810Y6216130D01*
G03X6949780Y6215480I7783J6532D01*
G01X7111370Y6377070D01*
X7167750D01*
X7168860Y6380650D01*
G02Y6328050I84940J-26300D01*
G01X7167750Y6331630D01*
X7130190D01*
X6971260Y6172700D01*
X9534360Y3118110D01*
G03X9680490Y2956660I2226301J1868190D01*
G01X10117570Y2704310D01*
X10270800Y2857540D01*
Y2911560D01*
X10267220Y2912670D01*
G02X10319820I26300J84940D01*
G01X10316240Y2911560D01*
Y2838720D01*
X10167670Y2690150D01*
G03X10169780Y2674170I7188J-7180D01*
G01X13444990Y783230D01*
G03X13742630Y641790I1030928J1785548D01*
G01X14210560Y559290D01*
X14275270Y624000D01*
Y796900D01*
X14271690Y798010D01*
G02X14324290I26300J84940D01*
G01X14320710Y796900D01*
Y605180D01*
X14278990Y563460D01*
G03X14284410Y546270I7181J-7185D01*
G01X18024440Y-113210D01*
G03X18260010Y-93140I79990J453653D01*
G02X18263730Y-92150I7681J-21379D01*
G01X18760000Y-4640D01*
G03X18762710Y3960I-879J5004D01*
G01X18761490Y5180D01*
Y179390D01*
X18757910Y180500D01*
G02X18810510I26300J84940D01*
G01X18806930Y179390D01*
Y24000D01*
X18824240Y6690D01*
X22547650Y663220D01*
G03X22693750Y779560I-33946J192535D01*
G02X22703310Y790380I20924J-8854D01*
G01X23241540Y1101120D01*
Y1121350D01*
X23234440Y1133650D01*
X23230790Y1132820D01*
G02X23276340Y1159120I-19698J86711D01*
G01X23273790Y1156370D01*
X23289650Y1128900D01*
X26467930Y2963880D01*
X26494350Y2990300D01*
X26641200D01*
X27111320Y3550580D01*
X27100810Y3561090D01*
X27097300Y3558510D01*
G02X27128800Y3601390I-52629J71672D01*
G01X27127770Y3598390D01*
X27132800Y3593360D01*
G03X27147770Y3594010I7187J7181D01*
G01X29431150Y6315230D01*
X29754270Y6638350D01*
Y6644330D01*
X29932290Y7133430D01*
X29910030Y7155690D01*
G03X29894610Y7154460I-7186J-7182D01*
G02X29910330Y7221000I-72028J52144D01*
G01X29910590Y7219390D01*
X29938160Y7191820D01*
G03X29954890Y7195530I7183J7184D01*
G01X31200540Y10617910D01*
Y10767330D01*
X31090590Y10877280D01*
X30790590D01*
X30678780Y10989090D01*
Y11431570D01*
X30675200Y11432680D01*
G02X30617030Y11489850I26301J84940D01*
G01X30615860Y11493400D01*
X30020210Y11483020D01*
X29838730Y11664500D01*
Y15420860D01*
X30309670Y15891800D01*
X30475150D01*
X30476260Y15895380D01*
G02Y15842780I84940J-26300D01*
G01X30475150Y15846360D01*
X30328490D01*
X29884170Y15402040D01*
Y11683320D01*
X30038710Y11528780D01*
X30615070Y11538840D01*
X30616110Y11542430D01*
G02X30727800Y11432680I85389J-24809D01*
G01X30724220Y11431570D01*
Y11007910D01*
X30809410Y10922720D01*
X31109410D01*
X31245980Y10786150D01*
Y10609890D01*
X31115800Y10252230D01*
G03X31126050Y10238620I9547J-3475D01*
G02X31102480Y10173850I2622J-37628D01*
G03X31085880Y10170010I-7053J-7313D01*
G01X29799710Y6636310D01*
Y6619530D01*
X29464690Y6284510D01*
X26662380Y2944860D01*
X26513170D01*
X26495830Y2927520D01*
X25739870Y2491060D01*
G03X25739930Y2473430I5078J-8798D01*
G02X25683600Y2440900I-18611J-32810D01*
G03X25668360Y2449780I-10160J81D01*
G01X22732450Y754730D01*
X22731770Y753290D01*
G02X22555550Y618480I-218065J102469D01*
G01X18273510Y-136560D01*
X18273110Y-136700D01*
G02X18016540Y-157950I-168684J477146D01*
G01X13732620Y597420D01*
G02X13728510Y598550I3941J22374D01*
G02X13422270Y743870I747346J1970257D01*
G01X9655060Y2918870D01*
G02X9650170Y2922670I11367J19674D01*
G02X9499560Y3088910I2110604J2063508D01*
G01X6703430Y6421200D01*
G02X6698910Y6429830I17396J14610D01*
G37*
G36*
G01X28866510Y7226080D02*
G02X28828700Y7226360I-19147J-32500D01*
G03X28828840Y7243940I-5023J8831D01*
G02X28866650Y7243660I19147J32500D01*
G03X28866510Y7226080I5023J-8831D01*
G37*
G36*
G01X26096290Y3897300D02*
G02X26094990Y3852270I29591J-23388D01*
G03X26078690Y3852740I-8325J-5827D01*
G02X26079990Y3897770I-29591J23388D01*
G03X26096290Y3897300I8325J5827D01*
G37*
G36*
G01X29348290Y3312320D02*
G03X29337680Y3301710I-460J-10150D01*
G02X29262330Y3301850I-37678J-1710D01*
G03X29251850Y3312330I-10158J322D01*
G02X29251710Y3387680I-1850J37672D01*
G03X29262330Y3398150I463J10151D01*
G02X29337680Y3398290I37672J1850D01*
G03X29348290Y3387680I10150J-460D01*
G02Y3312320I1710J-37680D01*
G37*
G36*
G01X30803650Y5173450D02*
G02Y5211590I-32540J19070D01*
G01X30984620D01*
X32254920Y6481890D01*
G03X32246570Y6499170I-7180J7188D01*
G02X32279710Y6532310I-4330J37470D01*
G03X32296990Y6523960I10092J-1170D01*
G01X32955930Y7182900D01*
Y16483600D01*
X32906950Y16532580D01*
X32837890D01*
G02Y16570720I-32540J19070D01*
G01X32922750D01*
X32994070Y16499400D01*
Y7167100D01*
X31000420Y5173450D01*
X30803650D01*
G37*
G54D20*
X31500000Y14750000D03*
X33000010Y17049990D03*
X27400000Y1800000D03*
X3650000Y14700000D03*
X3550000D03*
X3650000Y14950000D03*
X3550000D03*
X3650000Y15050000D03*
X3550000D03*
X3604760Y15190910D03*
X3700000Y15350000D03*
X3600000D03*
X3500000D03*
Y16300000D03*
X3600000D03*
Y16200000D03*
X3500000D03*
X3600000Y16100000D03*
X3500000D03*
Y16000000D03*
X3600000D03*
X3700000D03*
Y16100000D03*
X3700040Y16277000D03*
X3900000Y14750000D03*
X4050000D03*
X4150000D03*
X4250000D03*
X4350000D03*
X4250000Y14850000D03*
X4350000D03*
Y14950000D03*
X4250000D03*
X4150000D03*
X4050000D03*
X3950000D03*
X3850000D03*
X3750000Y14700000D03*
Y14950000D03*
Y15050000D03*
X4000000Y16000000D03*
Y16100000D03*
X3800000Y16000000D03*
X3900000D03*
Y16100000D03*
X3800000D03*
X5050000Y12500000D03*
X6010720Y8042820D03*
X5573200Y12279980D03*
X5699210Y17058950D03*
X6765720Y7905160D03*
X6703370Y9897360D03*
X6571240Y10114180D03*
X6439780Y10329170D03*
X6283640Y10611970D03*
X6450000Y13050000D03*
X6400000Y13300000D03*
X6350000Y13550000D03*
X6300000Y13800000D03*
X6250000Y14050000D03*
X6200000Y14300000D03*
X6100310Y14850000D03*
X6150000Y14550000D03*
X7242710Y9000280D03*
X7107510Y9225570D03*
X6972680Y9449820D03*
X6834260Y9683920D03*
X7106160Y17242580D03*
X7147260Y17501690D03*
X7177100Y17729860D03*
X7206050Y17955610D03*
X7220850Y18142460D03*
X7263340Y18405380D03*
X7297890Y18646510D03*
X7349840Y18935420D03*
X8140360Y6494050D03*
X7960590Y6630510D03*
X7587360Y8787540D03*
X8500460Y4117430D03*
X8930910Y5863060D03*
X8737820Y6015390D03*
X8539030Y6174510D03*
X8348210Y6324130D03*
X9270320Y4400310D03*
X9698310Y5382620D03*
X9336160Y5535660D03*
X9140730Y5690790D03*
X11349630Y3333220D03*
X11103480Y3417610D03*
X10854550Y3503590D03*
X12079090Y3085280D03*
X11835720Y3168050D03*
X11593240Y3250310D03*
X12262560Y1291230D03*
X12855060Y2908950D03*
X12558220Y2924120D03*
X12332950Y2996450D03*
X12886870Y1900410D03*
X14939660Y1588140D03*
X14668090Y1585250D03*
X15701680Y1606090D03*
X15466830Y1596720D03*
X15193660Y1594120D03*
X16608330Y1655500D03*
X16486670Y1619980D03*
X16232420Y1614040D03*
X15953600Y1612440D03*
X16737290Y-63570D03*
X18899940Y1026430D03*
X19631440Y1307730D03*
X19371590Y1211140D03*
X19151790Y1121610D03*
X20098560Y1491630D03*
X19858610Y1398560D03*
X20342560Y1585430D03*
X21059140Y1326580D03*
X20570340Y1676370D03*
X21416200Y169010D03*
X21554790Y601740D03*
X23129550Y1996890D03*
X23252990Y2125890D03*
X23469000Y2308340D03*
X24247330Y2988650D03*
X24038540Y2810370D03*
X23860490Y2649850D03*
X23648220Y2469540D03*
X24432930Y3153540D03*
X25574510Y734860D03*
X25666470Y642910D03*
X25779800Y664280D03*
X25758430Y550950D03*
X25687840Y756240D03*
X25871760Y572320D03*
X25850390Y458990D03*
X25963710Y480370D03*
X26049450Y3750710D03*
X26223400Y4464280D03*
X26124510Y4000600D03*
X26950000Y1000000D03*
X27253970Y2230410D03*
X27367300Y2251780D03*
X27345930Y2138450D03*
X27162010Y2322360D03*
X27275340Y2343740D03*
X26788220Y4506250D03*
X26696820Y4319540D03*
X27186030Y5213700D03*
X27052530Y4976820D03*
X26920820Y4742070D03*
X27296120Y5422690D03*
X27459260Y2159820D03*
X27437890Y2046490D03*
X27551210Y2067870D03*
X27545040Y5874920D03*
X27407650Y5633390D03*
X28550000Y2900000D03*
X28878570Y5447990D03*
X28598050Y5978250D03*
X29200000Y3250000D03*
X29500000Y7450000D03*
X29315910Y8188520D03*
X29289220Y7968990D03*
X29257180Y7649300D03*
X29440090Y8968270D03*
X29401750Y8716760D03*
X29364690Y8468720D03*
X29515180Y9466960D03*
X29477600Y9217520D03*
X29483390Y17357650D03*
X29620290Y17127700D03*
X29351330Y17574290D03*
X30100000Y4150000D03*
X29950000Y4200000D03*
X30323650Y5388750D03*
X29922880Y8099740D03*
X29796820Y7899570D03*
X29663540Y7679590D03*
X30350000Y12800000D03*
X30400000Y12550000D03*
X30200000Y13550000D03*
X30250000Y13300000D03*
X30300000Y13050000D03*
X30000000Y13800000D03*
X30150000D03*
X29872910Y16726040D03*
X30009370Y16497310D03*
X30145390Y16269770D03*
X30285910Y16029880D03*
X29751170Y16914340D03*
X29928750Y18618480D03*
X30650000Y4750000D03*
X30700000Y5750000D03*
X30850000Y5900000D03*
X30986020Y9491430D03*
X30483650Y9932810D03*
X31050000Y11100000D03*
X31150000Y11050000D03*
X30500000Y12000000D03*
X30550000Y11750000D03*
X30450000Y12300000D03*
X31000000Y14300000D03*
X30525000Y18700000D03*
X30565370Y18578810D03*
X31000000Y19575000D03*
X30575000Y19375000D03*
X30500000Y19075000D03*
X31853040Y6791130D03*
X31300000Y11200000D03*
X31400000Y11150000D03*
X31250000Y11000000D03*
X31350000Y10950000D03*
X31550000Y14050000D03*
X31702750Y15916650D03*
Y15789650D03*
Y15662650D03*
Y16678650D03*
Y16551650D03*
Y16424650D03*
Y16297650D03*
Y16170650D03*
Y16043650D03*
Y17186650D03*
Y17059650D03*
Y16932650D03*
Y16805650D03*
X31350000Y17850000D03*
Y17500000D03*
X31550000D03*
X31650000D03*
X31450000Y17850000D03*
X31550000D03*
X31650000D03*
X31850000D03*
X31750000D03*
X31850000Y17550000D03*
X31750000D03*
X31850000Y17650000D03*
Y17750000D03*
X31750000D03*
X31737100Y17662900D03*
X32128910Y6515260D03*
X32150280Y6628590D03*
X32036950Y6607220D03*
X32058320Y6720550D03*
X31944990Y6699180D03*
X31966360Y6812510D03*
X32200000Y7937710D03*
X32157020Y8142980D03*
X32412950Y7985500D03*
X32542990D03*
X32477970Y7890250D03*
X32347920D03*
X32200000Y8500000D03*
X32509710Y9858750D03*
X32379670D03*
X32574740Y9954000D03*
X32444690D03*
X32400000Y12000000D03*
X32673040Y11668500D03*
X32608010Y11573250D03*
X32542990Y11668500D03*
X32477960Y11573250D03*
X32412940Y11668500D03*
X32347920Y11573250D03*
X32400000Y12200000D03*
X32639760Y13573500D03*
X32574740Y13668750D03*
X32509710Y13573500D03*
X32444690Y13668750D03*
X32379670Y13573500D03*
X31950000Y17550000D03*
Y17650000D03*
Y17750000D03*
X32803080Y11668500D03*
X32738060Y11573250D03*
X32834830Y13668750D03*
X32769810Y13573500D03*
X32704790Y13668750D03*
X32805350Y15916650D03*
Y16424650D03*
Y16297650D03*
Y16170650D03*
Y16043650D03*
Y17313650D03*
Y17186650D03*
X32900000Y15700000D03*
X32805350Y15789650D03*
Y15662650D03*
X28279580Y3376420D03*
X28371540Y3284460D03*
X28392900Y3397790D03*
G54D23*
X32254050Y14744650D03*
Y17467650D03*
G54D19*
X4068160Y18375520D03*
Y10755520D03*
X11688160Y341520D03*
X24896160D03*
X32516160Y18375520D03*
G54D21*
X5118000Y19352000D03*
G54D18*
X5588000Y19652000D03*
Y19052000D03*
G54D22*
X6066710Y9116210D03*
X5806100Y9832260D03*
X5892970Y9593570D03*
X5979840Y9354890D03*
X5632350Y10309620D03*
X5719220Y10070940D03*
X6023120Y10721960D03*
X5882820Y11771420D03*
Y11517420D03*
X5374590Y12025600D03*
Y11771600D03*
Y11517600D03*
X5882820Y12787420D03*
Y12533420D03*
Y12279420D03*
X5374590Y12787600D03*
Y12533600D03*
Y12279600D03*
X5882820Y13549420D03*
Y13295420D03*
Y13041420D03*
X5374590Y13549600D03*
Y13295600D03*
Y13041600D03*
X5882820Y14311420D03*
Y14057420D03*
Y13803420D03*
X5374590Y14311600D03*
Y14057600D03*
Y13803600D03*
X5882820Y15073420D03*
Y14819420D03*
Y14565420D03*
X5374590Y14819600D03*
Y14565600D03*
X6023050Y15868900D03*
X5806150Y16758940D03*
X5719280Y16520260D03*
X5632400Y16281580D03*
X5545530Y16042890D03*
X6066770Y17474990D03*
X5979900Y17236300D03*
X5893020Y16997620D03*
X6674830Y7445440D03*
X6761700Y7206750D03*
X6327330Y8400160D03*
X6414210Y8161480D03*
X6501080Y7922800D03*
X6587950Y7684120D03*
X6631230Y9051190D03*
X6718100Y8812510D03*
X6804970Y8573820D03*
X6153590Y8877530D03*
X6240460Y8638850D03*
X6370610Y9767230D03*
X6457480Y9528550D03*
X6544350Y9289870D03*
X6109990Y10483280D03*
X6196860Y10244600D03*
X6283740Y10005920D03*
X6283670Y16584950D03*
X6109920Y16107590D03*
X6631160Y17539680D03*
X6544290Y17301000D03*
X6457420Y17062310D03*
X6370540Y16823630D03*
X6804910Y18017040D03*
X6718040Y17778360D03*
X6327390Y18191030D03*
X6240520Y17952350D03*
X6153640Y17713670D03*
X6588010Y18907080D03*
X6501130Y18668400D03*
X6414260Y18429710D03*
X6674880Y19145760D03*
X7580340Y5965200D03*
X7417070Y6159770D03*
X7152470Y7619100D03*
X7239340Y7380410D03*
X6891850Y8335140D03*
X6978720Y8096460D03*
X6891780Y18255720D03*
X7152400Y18971770D03*
X7065530Y18733090D03*
X6978650Y18494410D03*
X7239270Y19210450D03*
X8070140Y5381470D03*
X8233410Y5186900D03*
X8133050Y6097170D03*
X8296310Y5902600D03*
X7743610Y5770620D03*
X7906870Y5576050D03*
X7643240Y6680900D03*
X7806510Y6486320D03*
X7969780Y6291750D03*
X8723210Y4603170D03*
X8886480Y4408600D03*
X9049750Y4214020D03*
X8786120Y5318870D03*
X8949390Y5124300D03*
X9112650Y4929720D03*
X8396680Y4992320D03*
X8559950Y4797750D03*
X8459580Y5708020D03*
X8622850Y5513450D03*
X9376290Y3824870D03*
X9539550Y3630290D03*
X9439190Y4540570D03*
X9765730Y4151420D03*
X9213020Y4019440D03*
X9275920Y4735150D03*
X10513490Y2870610D03*
X10547790Y3437660D03*
X9928990Y3956840D03*
X11207700Y3056660D03*
X11427670Y2929660D03*
X10733460Y2743610D03*
X10953430Y2616610D03*
X11173400Y2489610D03*
X11393370Y2362610D03*
X10767760Y3310660D03*
X10987730Y3183660D03*
X11613340Y2235610D03*
X11833310Y2108610D03*
X12053280Y1981610D03*
X11647640Y2802660D03*
X11867610Y2675660D03*
X12087580Y2548660D03*
X12933160Y1473610D03*
X12527520Y2294660D03*
X12747490Y2167660D03*
X12273250Y1854610D03*
X12493220Y1727610D03*
X12713190Y1600610D03*
X12307550Y2421660D03*
X13153130Y1346610D03*
X13373100Y1219610D03*
X12967460Y2040660D03*
X13407400Y1786660D03*
X13627370Y1659660D03*
X14386410Y1383430D03*
X15048410Y750630D03*
X14636550Y1339330D03*
X14886690Y1295220D03*
X15136830Y1251110D03*
X14548130Y838850D03*
X14798270Y794740D03*
X15298550Y706530D03*
X15548690Y662420D03*
X15798830Y618310D03*
X15386970Y1207010D03*
X15637110Y1162900D03*
X15887250Y1118790D03*
X16048980Y574210D03*
X16299120Y530100D03*
X16549260Y485990D03*
X16137400Y1074690D03*
X16387540Y1030580D03*
X16637680Y986470D03*
X16799400Y441890D03*
X17049540Y397780D03*
X17299680Y353670D03*
X16887820Y942370D03*
X17888380Y765940D03*
X17549820Y309570D03*
X17799960Y265460D03*
X17638240Y810050D03*
X18696130Y765980D03*
X18946270Y810080D03*
X19034350Y309540D03*
X19284490Y353650D03*
X19534630Y397760D03*
X19784770Y441860D03*
X19196410Y854190D03*
X19446550Y898300D03*
X19696690Y942400D03*
X20034910Y485970D03*
X20285050Y530080D03*
X20535200Y574180D03*
X19946830Y986510D03*
X20196970Y1030620D03*
X20447120Y1074720D03*
X20785340Y618290D03*
X21035480Y662400D03*
X21285620Y706500D03*
X20697260Y1118830D03*
X20947400Y1162940D03*
X21197540Y1207040D03*
X21535760Y750610D03*
X21447680Y1251150D03*
X21947960Y1339360D03*
X21785900Y794720D03*
X22036040Y838820D03*
X22198100Y1383470D03*
X22286180Y882930D03*
X23431060Y1346530D03*
X22957130Y1659760D03*
X23177100Y1786760D03*
X23397070Y1913760D03*
X23617040Y2040760D03*
X23651030Y1473530D03*
X23837010Y2167760D03*
X24056980Y2294760D03*
X23871000Y1600530D03*
X24090970Y1727530D03*
X24310940Y1854530D03*
X24276950Y2421760D03*
X24530910Y1981530D03*
X24750880Y2108530D03*
X24970850Y2235530D03*
X24496920Y2548760D03*
X24716890Y2675760D03*
X24936860Y2802760D03*
X25156830Y2929760D03*
X25376800Y3056760D03*
X25190820Y2362530D03*
X25410790Y2489530D03*
X25630760Y2616530D03*
X25850730Y2743530D03*
X25816740Y3310760D03*
X26070700Y2870530D03*
X26290670Y2997530D03*
X26036710Y3437760D03*
X26655450Y3956990D03*
X27207940Y3824760D03*
X27371210Y4019330D03*
X26818720Y4151570D03*
X26981990Y4346140D03*
X27145260Y4540720D03*
X27308520Y4735290D03*
X27534480Y4213910D03*
X27697740Y4408480D03*
X27861010Y4603060D03*
X28024280Y4797630D03*
X28187550Y4992210D03*
X27471790Y4929870D03*
X27635060Y5124440D03*
X27798330Y5319020D03*
X27961600Y5513590D03*
X28124860Y5708170D03*
X28350820Y5186780D03*
X28514080Y5381360D03*
X28677350Y5575930D03*
X28840620Y5770510D03*
X28288130Y5902740D03*
X28451400Y6097320D03*
X28777940Y6486470D03*
X28941200Y6681050D03*
X29003890Y5965090D03*
X29167160Y6159660D03*
X29330420Y6354240D03*
X29345060Y7380590D03*
X29431930Y7619270D03*
X29518800Y7857950D03*
X29605680Y8096630D03*
X29692550Y8335320D03*
X29692470Y18255900D03*
X29605600Y18494580D03*
X29518730Y18733260D03*
X29431850Y18971940D03*
X29344980Y19210630D03*
X29909450Y7445280D03*
X29996320Y7683960D03*
X30083200Y7922640D03*
X30170070Y8161330D03*
X30256940Y8400010D03*
X29779420Y8574000D03*
X29866290Y8812680D03*
X29953170Y9051360D03*
X30343810Y8638690D03*
X30430690Y8877370D03*
X30040040Y9290040D03*
X30126910Y9528730D03*
X30213790Y9767410D03*
X30300660Y10006090D03*
X30387460Y16346440D03*
X30300580Y16585120D03*
X30213710Y16823810D03*
X30126840Y17062490D03*
X30039970Y17301170D03*
X29953090Y17539850D03*
X29866220Y17778530D03*
X29779350Y18017220D03*
X30430730Y17713510D03*
X30343860Y17952190D03*
X30256990Y18190880D03*
X30170110Y18429560D03*
X30083240Y18668240D03*
X29996370Y18906920D03*
X29909490Y19145600D03*
X29822620Y19384290D03*
X30517560Y9116050D03*
X30604430Y9354740D03*
X30691310Y9593420D03*
X30778180Y9832100D03*
X30865050Y10070780D03*
X30951930Y10309460D03*
X31038800Y10548150D03*
X30561280Y10722140D03*
X30701500Y11771620D03*
Y12025620D03*
X31209730Y11517440D03*
Y11771440D03*
Y12025440D03*
X30701500Y12279620D03*
Y12533620D03*
Y12787620D03*
X31209730Y12279440D03*
Y12533440D03*
Y12787440D03*
X30701500Y13041620D03*
Y13295620D03*
Y13549620D03*
X31209730Y13041440D03*
Y13295440D03*
Y13549440D03*
X30701500Y13803620D03*
Y14057620D03*
Y14311620D03*
X31209730Y13803440D03*
Y14057440D03*
Y14311440D03*
X30701500Y14565620D03*
Y14819620D03*
Y15073620D03*
X31209730Y14565440D03*
Y14819440D03*
Y15073440D03*
X30474330Y16107760D03*
X30951970Y16281420D03*
X30865100Y16520100D03*
X30778220Y16758780D03*
X30691350Y16997470D03*
X30604480Y17236150D03*
X30517610Y17474830D03*
%LPD*%
G75*
G54D10*
X3450000Y15050000D03*
X3550000D03*
X3450000Y14950000D03*
X3550000D03*
X3450000Y14700000D03*
X3550000D03*
X3500000Y15350000D03*
Y16000000D03*
Y16100000D03*
Y16200000D03*
Y16300000D03*
X3850000Y14950000D03*
X3950000D03*
X4050000D03*
X4150000D03*
X4250000D03*
Y14850000D03*
Y14750000D03*
X4150000D03*
X4050000D03*
X3900000D03*
X3750000Y15050000D03*
Y14950000D03*
Y14700000D03*
X3604760Y15190910D03*
X3650000Y15050000D03*
Y14950000D03*
Y14700000D03*
X3600000Y15350000D03*
X3700000D03*
X4000000Y16100000D03*
Y16000000D03*
X3800000Y16100000D03*
X3900000D03*
Y16000000D03*
X3800000D03*
X3700040Y16277000D03*
X3700000Y16100000D03*
Y16000000D03*
X3600000D03*
Y16100000D03*
Y16200000D03*
Y16300000D03*
X4040400Y16550000D03*
X4200000D03*
X4300000D03*
X3900000D03*
X3800000D03*
Y16650000D03*
X3900000D03*
X4200000D03*
X4300000D03*
X3700000Y16550000D03*
Y16650000D03*
X3800000Y16750000D03*
X3900000D03*
X4200000D03*
X4300000D03*
X3700000D03*
X3800000Y17400000D03*
X3900000D03*
X4200000D03*
X4300000D03*
X4040400Y17200000D03*
X4200000D03*
X4300000D03*
X3900000D03*
X3800000D03*
Y17300000D03*
X3900000D03*
X4200000D03*
X4300000D03*
X3700000Y17400000D03*
Y17200000D03*
Y17300000D03*
X3800000Y17100000D03*
X3900000D03*
X4200000D03*
X4300000D03*
X4040400Y16900000D03*
X4200000D03*
X4300000D03*
X3900000D03*
X3800000D03*
Y17000000D03*
X3900000D03*
X4200000D03*
X4300000D03*
X3700000Y17100000D03*
Y16900000D03*
Y17000000D03*
X4300000Y17900000D03*
X4200000D03*
X3900000D03*
X3800000D03*
Y17800000D03*
X3900000D03*
X4300000D03*
X4200000D03*
X4040400D03*
X4300000Y18000000D03*
X3800000D03*
X3700000Y17900000D03*
Y17800000D03*
Y18000000D03*
X3800000Y17700000D03*
X3900000D03*
X4200000D03*
X4300000D03*
X4040400Y17500000D03*
X4200000D03*
X4300000D03*
X3900000D03*
X3800000D03*
Y17600000D03*
X3900000D03*
X4200000D03*
X4300000D03*
X3700000Y17700000D03*
Y17500000D03*
Y17600000D03*
X5050000Y12500000D03*
X4650000Y15150000D03*
X4850000D03*
X4750000D03*
X4350000Y14950000D03*
Y14850000D03*
Y14750000D03*
X4650000Y15550000D03*
Y15650000D03*
X4850000D03*
Y15550000D03*
X4750000D03*
Y15650000D03*
X4650000Y15450000D03*
X4850000D03*
X4750000D03*
X4650000Y15250000D03*
Y15350000D03*
X4850000D03*
Y15250000D03*
X4750000D03*
Y15350000D03*
X4700000Y16700000D03*
X4800000D03*
X4600000D03*
X4400000Y16550000D03*
Y16650000D03*
X4700000Y16900000D03*
Y16800000D03*
X4800000D03*
Y16900000D03*
X4600000D03*
Y16800000D03*
X4700000Y17000000D03*
X4800000D03*
X4600000D03*
X4700000Y17200000D03*
Y17100000D03*
X4800000D03*
Y17200000D03*
X4600000D03*
Y17100000D03*
X4700000Y17300000D03*
X4800000D03*
X4600000D03*
X4700000Y17400000D03*
X4800000D03*
X4600000D03*
X4400000Y16750000D03*
Y17400000D03*
Y17200000D03*
Y17300000D03*
Y17100000D03*
Y16900000D03*
Y17000000D03*
X4700000Y17500000D03*
X4800000D03*
X4600000D03*
X4700000Y17600000D03*
X4800000D03*
X4600000D03*
X4700000Y17800000D03*
Y17700000D03*
X4800000D03*
Y17800000D03*
X4600000D03*
Y17700000D03*
X4700000Y17950000D03*
X4800000D03*
X4600000D03*
X4700000Y18150000D03*
Y18050000D03*
X4800000D03*
Y18150000D03*
X4600000D03*
Y18050000D03*
X4400000Y17900000D03*
Y17800000D03*
Y18000000D03*
Y17700000D03*
Y17500000D03*
Y17600000D03*
X4700000Y18900000D03*
X4800000D03*
X4600000D03*
X4700000Y18300000D03*
X4800000D03*
X4600000D03*
X4700000Y18800000D03*
Y18500000D03*
Y18400000D03*
X4800000D03*
Y18500000D03*
Y18800000D03*
Y18640400D03*
X4600000Y18800000D03*
Y18500000D03*
Y18400000D03*
Y19000000D03*
X4800000D03*
X4700000D03*
X5573200Y12279980D03*
X5699210Y17058950D03*
X5350000Y19450000D03*
Y19350000D03*
X5550000Y19450000D03*
X5450000D03*
Y19350000D03*
X5550000D03*
X5690400D03*
X6010720Y8042820D03*
X6439780Y10329170D03*
X6283640Y10611970D03*
X6450000Y13050000D03*
X6350000Y13550000D03*
X6400000Y13300000D03*
X6300000Y13800000D03*
X6250000Y14050000D03*
X6200000Y14300000D03*
X6150000Y14550000D03*
X6100310Y14850000D03*
X6050000Y19450000D03*
Y19350000D03*
Y19550000D03*
X5950000Y19450000D03*
X5850000D03*
X5950000Y19350000D03*
X5850000D03*
X5950000Y19550000D03*
X6765720Y7905160D03*
X7242710Y9000280D03*
X7107510Y9225570D03*
X6972680Y9449820D03*
X6834260Y9683920D03*
X6703370Y9897360D03*
X6571240Y10114180D03*
X6750000Y12800000D03*
X7106160Y17242580D03*
X7177100Y17729860D03*
X7206050Y17955610D03*
X7220850Y18142460D03*
X7147260Y17501690D03*
X7960590Y6630510D03*
X7587360Y8787540D03*
X7266990Y16767110D03*
X7263340Y18405380D03*
X7297890Y18646510D03*
X7349840Y18935420D03*
X8500460Y4117430D03*
X8539030Y6174510D03*
X8348210Y6324130D03*
X8140360Y6494050D03*
X9270320Y4400310D03*
X9336160Y5535660D03*
X9140730Y5690790D03*
X8930910Y5863060D03*
X8737820Y6015390D03*
X9698310Y5382620D03*
X10854550Y3503590D03*
X11593240Y3250310D03*
X11349630Y3333220D03*
X11103480Y3417610D03*
X12262560Y1291230D03*
X12079090Y3085280D03*
X11835720Y3168050D03*
X12332950Y2996450D03*
X12886870Y1900410D03*
X12558220Y2924120D03*
X12855060Y2908950D03*
X15193660Y1594120D03*
X14939660Y1588140D03*
X14668090Y1585250D03*
X15953600Y1612440D03*
X15701680Y1606090D03*
X15466830Y1596720D03*
X16737290Y-63570D03*
X16486670Y1619980D03*
X16232420Y1614040D03*
X16608330Y1655500D03*
X17117000Y786680D03*
X18899940Y1026430D03*
X19631440Y1307730D03*
X19371590Y1211140D03*
X19151790Y1121610D03*
X20098560Y1491630D03*
X19858610Y1398560D03*
X20342560Y1585430D03*
X20570340Y1676370D03*
X21059140Y1326580D03*
X21416200Y169010D03*
X21554790Y601740D03*
X23129550Y1996890D03*
X23252990Y2125890D03*
X23860490Y2649850D03*
X23648220Y2469540D03*
X23469000Y2308340D03*
X24038540Y2810370D03*
X24432930Y3153540D03*
X24247330Y2988650D03*
X25574510Y734860D03*
X25963710Y480370D03*
X25850390Y458990D03*
X25871760Y572320D03*
X25758430Y550950D03*
X25779800Y664280D03*
X25666470Y642910D03*
X25687840Y756240D03*
X25721320Y2440620D03*
X26124510Y4000600D03*
X26049100Y3876130D03*
X26125880Y3873910D03*
X26049450Y3750710D03*
X26223400Y4464280D03*
X26800000Y1050000D03*
X26950000Y1000000D03*
X27045680Y1498820D03*
X26953720Y1590770D03*
X26975080Y1704120D03*
X26861770Y1682730D03*
X26883120Y1796070D03*
X26769810Y1774690D03*
X26791170Y1888030D03*
X26920820Y4742070D03*
X26788220Y4506250D03*
X26696820Y4319540D03*
X27400000Y1800000D03*
X27067040Y1612160D03*
X27437890Y2046490D03*
X27658580Y2541420D03*
X27587870Y2612130D03*
X27517160Y2682840D03*
X27729290Y2612130D03*
X27658580Y2682840D03*
X27587870Y2753550D03*
X27729290D03*
Y2470710D03*
X27367300Y2251780D03*
X27253970Y2230410D03*
X27275340Y2343740D03*
X27162010Y2322360D03*
X27551210Y2067870D03*
X27459260Y2159820D03*
X27345930Y2138450D03*
X27658580Y2824260D03*
X27052530Y4976820D03*
X27296120Y5422690D03*
X27186030Y5213700D03*
X27407650Y5633390D03*
X27545040Y5874920D03*
X27800000Y2682840D03*
Y2400000D03*
X27870710Y2470710D03*
X27800000Y2541420D03*
X27941420D03*
X27870710Y2612130D03*
X28463490Y3192510D03*
X28484860Y3305840D03*
X28371540Y3284460D03*
X28392900Y3397790D03*
X28279580Y3376420D03*
X28550000Y2900000D03*
X29200000Y3250000D03*
X28668770Y3121930D03*
X28555450Y3100550D03*
X28576810Y3213880D03*
X29217160Y4232840D03*
X28878570Y5447990D03*
X28598050Y5978250D03*
X28832190Y7446350D03*
X28847990Y7276440D03*
X28847360Y7193580D03*
X28851020Y7374400D03*
X29350000Y3350000D03*
X29300000Y3400000D03*
Y3300000D03*
X29250000Y3350000D03*
X29950000Y4200000D03*
X29358580Y4091420D03*
X29287870Y4162130D03*
X29429290D03*
X29358580Y4232840D03*
X29500000D03*
Y3950000D03*
X29429290Y4020710D03*
X29570710D03*
X29500000Y4091420D03*
X29641420D03*
X29570710Y4162130D03*
X29287870Y4303550D03*
X29429290D03*
X29358580Y4374260D03*
X29937870Y4762130D03*
X29867160Y4832840D03*
X29937870Y4903550D03*
X29800000Y5600000D03*
X29850000Y5650000D03*
X29257180Y7649300D03*
X29500000Y7450000D03*
X29796820Y7899570D03*
X29663540Y7679590D03*
X29364690Y8468720D03*
X29315910Y8188520D03*
X29289220Y7968990D03*
X29922880Y8099740D03*
X29440090Y8968270D03*
X29401750Y8716760D03*
X29477600Y9217520D03*
X29515180Y9466960D03*
X29620290Y17127700D03*
X29751170Y16914340D03*
X29872910Y16726040D03*
X29483390Y17357650D03*
X29351330Y17574290D03*
X29928750Y18618480D03*
X30100000Y4150000D03*
X30008580Y4691420D03*
X30079290Y4762130D03*
X30008580Y4832840D03*
X30150000D03*
X30079290Y4903550D03*
X30008580Y4974260D03*
X30079290Y4620710D03*
X30220710D03*
X30150000Y4691420D03*
X30291420D03*
X30220710Y4762130D03*
X30150000Y4550000D03*
X30700000Y4850000D03*
X30650000Y4900000D03*
X30600000Y4950000D03*
X30650000Y4750000D03*
X30592060Y4842060D03*
X30550000Y5000000D03*
X30500000Y5050000D03*
X30450000Y5100000D03*
X30400000Y5150000D03*
X30350000Y5200000D03*
X30300000Y5250000D03*
X30565830Y5263100D03*
X30679150Y5284470D03*
X30657790Y5171140D03*
X30323650Y5388750D03*
X30700000Y5750000D03*
X30483650Y9932810D03*
X30381680Y10568090D03*
X30450000Y12300000D03*
X30500000Y12000000D03*
X30550000Y11750000D03*
X30350000Y12800000D03*
X30400000Y12550000D03*
X30200000Y13550000D03*
X30300000Y13050000D03*
X30250000Y13300000D03*
X30000000Y13800000D03*
X30150000D03*
X30009370Y16497310D03*
X30145390Y16269770D03*
X30285910Y16029880D03*
X30525000Y18700000D03*
X30565370Y18578810D03*
X30500000Y19075000D03*
X30575000Y19375000D03*
X30650000Y19800000D03*
X30250000Y19700000D03*
X30800000Y4750000D03*
X30750000Y4800000D03*
X30858580Y5591420D03*
X30787870Y5662130D03*
X30929290D03*
X31000000Y5450000D03*
X30929290Y5520710D03*
X31070710D03*
X31000000Y5591420D03*
X31141420D03*
X31070710Y5662130D03*
X30771110Y5192520D03*
X30850000Y5900000D03*
X30858580Y5732840D03*
X30787870Y5803550D03*
X31000000Y5732840D03*
X30929290Y5803550D03*
X30986020Y9491430D03*
X31128670Y10200990D03*
X31300000Y11200000D03*
X31400000Y11150000D03*
X31050000Y11100000D03*
X31150000Y11050000D03*
X31250000Y11000000D03*
X31350000Y10950000D03*
X31000000Y14300000D03*
X31350000Y17500000D03*
Y17850000D03*
X31000000Y19375000D03*
X30875000Y19175000D03*
X31000000Y19575000D03*
X30975000Y18925000D03*
X32036950Y6607220D03*
X32128910Y6515260D03*
X32150280Y6628590D03*
X31853040Y6791130D03*
X31944990Y6699180D03*
X31966360Y6812510D03*
X32058320Y6720550D03*
X32157020Y8142980D03*
X31650000Y8700000D03*
X31550000Y14050000D03*
X31500000Y14750000D03*
X31702750Y15154650D03*
Y14900650D03*
Y15027650D03*
Y15789650D03*
Y15916650D03*
Y15281650D03*
Y15535650D03*
Y15662650D03*
Y15408650D03*
Y16043650D03*
Y16170650D03*
Y16297650D03*
Y16424650D03*
Y16551650D03*
Y16678650D03*
Y16805650D03*
Y16932650D03*
Y17059650D03*
Y17186650D03*
X31950000Y17750000D03*
Y17650000D03*
Y17550000D03*
X31737100Y17662900D03*
X31750000Y17750000D03*
X31850000D03*
Y17650000D03*
X31750000Y17550000D03*
X31850000D03*
X31750000Y17850000D03*
X31850000D03*
X31650000D03*
X31550000D03*
X31450000D03*
X31650000Y17500000D03*
X31550000D03*
X32242240Y6536640D03*
X32347920Y7890250D03*
X32477970D03*
X32200000Y7937710D03*
X32700000Y8400000D03*
Y8500000D03*
X32900000Y8400000D03*
X32800000D03*
X32900000Y8500000D03*
X32800000D03*
X32600000Y8400000D03*
X32500000D03*
X32600000Y8500000D03*
X32500000D03*
X32700000Y8300000D03*
X32900000D03*
X32800000D03*
X32600000D03*
X32500000D03*
X32200000Y8500000D03*
X32412950Y7985500D03*
X32542990D03*
X32800000Y9300000D03*
X32700000D03*
X32600000D03*
X32500000D03*
X32400000D03*
X32800000Y9400000D03*
X32700000D03*
X32800000Y9500000D03*
X32700000D03*
X32600000Y9400000D03*
X32500000D03*
X32400000D03*
X32600000Y9500000D03*
X32500000D03*
X32400000D03*
X32379670Y9858750D03*
X32444690Y9954000D03*
X32509710Y9858750D03*
X32574740Y9954000D03*
X32347920Y11573250D03*
X32477960D03*
X32608010D03*
X32738060D03*
X32400000Y12000000D03*
X32800000D03*
X32700000D03*
X32600000D03*
X32500000D03*
X32800000Y12100000D03*
X32700000D03*
X32600000D03*
X32500000D03*
X32400000D03*
X32800000Y12200000D03*
X32700000D03*
X32600000D03*
X32500000D03*
X32400000D03*
X32412940Y11668500D03*
X32542990D03*
X32673040D03*
X32803080D03*
X32800000Y12950000D03*
X32700000D03*
X32600000D03*
X32500000D03*
X32400000D03*
X32800000Y13050000D03*
X32700000D03*
X32800000Y13150000D03*
X32700000D03*
X32600000Y13050000D03*
X32500000D03*
X32400000D03*
X32600000Y13150000D03*
X32500000D03*
X32400000D03*
X32379670Y13573500D03*
X32444690Y13668750D03*
X32509710Y13573500D03*
X32574740Y13668750D03*
X32639760Y13573500D03*
X32704790Y13668750D03*
X32769810Y13573500D03*
X32834830Y13668750D03*
X32805350Y15154650D03*
Y15027650D03*
Y14900650D03*
X32900000Y15700000D03*
X32805350Y15662650D03*
Y15916650D03*
Y15535650D03*
Y15408650D03*
Y15281650D03*
Y15789650D03*
Y16678650D03*
Y16551650D03*
Y16424650D03*
Y16297650D03*
Y16170650D03*
Y16043650D03*
Y16932650D03*
Y16805650D03*
Y17186650D03*
Y17313650D03*
X33000010Y17049990D03*
G54D11*
X4068160Y10755520D03*
Y18375520D03*
X4095750Y19320250D03*
X11688160Y341520D03*
X24896160D03*
X32516160Y10755520D03*
Y18375520D03*
X32512000Y19320250D03*
G54D12*
X5118000Y19352000D03*
G54D13*
X5719220Y10070940D03*
X5806100Y9832260D03*
X5545480Y10548300D03*
X5632350Y10309620D03*
X5374590Y11517600D03*
Y12279600D03*
Y12025600D03*
Y11771600D03*
Y13041600D03*
Y12787600D03*
Y12533600D03*
Y13803600D03*
Y13549600D03*
Y13295600D03*
Y14311600D03*
Y14057600D03*
Y15073600D03*
Y14819600D03*
Y14565600D03*
X5545530Y16042890D03*
X5806150Y16758940D03*
X5719280Y16520260D03*
X5632400Y16281580D03*
X6501080Y7922800D03*
X6587950Y7684120D03*
X6240460Y8638850D03*
X6327330Y8400160D03*
X6414210Y8161480D03*
X6544350Y9289870D03*
X5979840Y9354890D03*
X6066710Y9116210D03*
X6153590Y8877530D03*
X6283740Y10005920D03*
X6370610Y9767230D03*
X6457480Y9528550D03*
X5892970Y9593570D03*
X6023120Y10721960D03*
X6109990Y10483280D03*
X6196860Y10244600D03*
X5882820Y11517420D03*
Y12279420D03*
Y12025420D03*
Y11771420D03*
Y13041420D03*
Y12787420D03*
Y12533420D03*
Y13803420D03*
Y13549420D03*
Y13295420D03*
Y14311420D03*
Y14057420D03*
Y15073420D03*
Y14819420D03*
Y14565420D03*
X6023050Y15868900D03*
X6283670Y16584950D03*
X6196800Y16346270D03*
X6109920Y16107590D03*
X6544290Y17301000D03*
X6457420Y17062310D03*
X6370540Y16823630D03*
X6066770Y17474990D03*
X5979900Y17236300D03*
X5893020Y16997620D03*
X6327390Y18191030D03*
X6240520Y17952350D03*
X6153640Y17713670D03*
X6588010Y18907080D03*
X6501130Y18668400D03*
X6414260Y18429710D03*
X7253800Y6354350D03*
X6761700Y7206750D03*
X7065590Y7857780D03*
X7152470Y7619100D03*
X7239340Y7380410D03*
X6674830Y7445440D03*
X6804970Y8573820D03*
X6891850Y8335140D03*
X6978720Y8096460D03*
X6631230Y9051190D03*
X6718100Y8812510D03*
X6804910Y18017040D03*
X6718040Y17778360D03*
X6631160Y17539680D03*
X7152400Y18971770D03*
X7065530Y18733090D03*
X6978650Y18494410D03*
X6891780Y18255720D03*
X7239270Y19210450D03*
X6761750Y19384440D03*
X6674880Y19145760D03*
X7743610Y5770620D03*
X7906870Y5576050D03*
X7806510Y6486320D03*
X7969780Y6291750D03*
X7417070Y6159770D03*
X7580340Y5965200D03*
X7643240Y6680900D03*
X8396680Y4992320D03*
X8559950Y4797750D03*
X8723210Y4603170D03*
X8459580Y5708020D03*
X8622850Y5513450D03*
X8786120Y5318870D03*
X8070140Y5381470D03*
X8233410Y5186900D03*
X8133050Y6097170D03*
X8296310Y5902600D03*
X9049750Y4214020D03*
X9213020Y4019440D03*
X9376290Y3824870D03*
X9112650Y4929720D03*
X9275920Y4735150D03*
X9439190Y4540570D03*
X8886480Y4408600D03*
X8949390Y5124300D03*
X9765730Y4151420D03*
X9928990Y3956840D03*
X9539550Y3630290D03*
X9602460Y4345990D03*
X10733460Y2743610D03*
X10953430Y2616610D03*
X10547790Y3437660D03*
X10767760Y3310660D03*
X10987730Y3183660D03*
X10293520Y2997610D03*
X10513490Y2870610D03*
X11647640Y2802660D03*
X11173400Y2489610D03*
X11393370Y2362610D03*
X11613340Y2235610D03*
X11207700Y3056660D03*
X11427670Y2929660D03*
X11833310Y2108610D03*
X12053280Y1981610D03*
X12273250Y1854610D03*
X11867610Y2675660D03*
X12087580Y2548660D03*
X12307550Y2421660D03*
X13153130Y1346610D03*
X12967460Y2040660D03*
X13187430Y1913660D03*
X12493220Y1727610D03*
X12713190Y1600610D03*
X12933160Y1473610D03*
X12527520Y2294660D03*
X12747490Y2167660D03*
X13373100Y1219610D03*
X13407400Y1786660D03*
X13627370Y1659660D03*
X14636550Y1339330D03*
X14297990Y882950D03*
X14548130Y838850D03*
X14386410Y1383430D03*
X14886690Y1295220D03*
X15136830Y1251110D03*
X14798270Y794740D03*
X15048410Y750630D03*
X15298550Y706530D03*
X15798830Y618310D03*
X16048980Y574210D03*
X15386970Y1207010D03*
X15637110Y1162900D03*
X15887250Y1118790D03*
X15548690Y662420D03*
X16299120Y530100D03*
X16549260Y485990D03*
X16799400Y441890D03*
X16137400Y1074690D03*
X16387540Y1030580D03*
X16637680Y986470D03*
X17049540Y397780D03*
X17299680Y353670D03*
X17549820Y309570D03*
X16887820Y942370D03*
X17137960Y898260D03*
X17388100Y854150D03*
X17799960Y265460D03*
X17638240Y810050D03*
X17888380Y765940D03*
X18784210Y265440D03*
X19034350Y309540D03*
X18696130Y765980D03*
X18946270Y810080D03*
X19284490Y353650D03*
X19534630Y397760D03*
X19196410Y854190D03*
X19446550Y898300D03*
X19696690Y942400D03*
X19784770Y441860D03*
X20034910Y485970D03*
X20285050Y530080D03*
X19946830Y986510D03*
X20196970Y1030620D03*
X20447120Y1074720D03*
X20535200Y574180D03*
X20785340Y618290D03*
X20697260Y1118830D03*
X20947400Y1162940D03*
X21197540Y1207040D03*
X21035480Y662400D03*
X21447680Y1251150D03*
X21697820Y1295260D03*
X21947960Y1339360D03*
X21285620Y706500D03*
X21535760Y750610D03*
X21785900Y794720D03*
X22036040Y838820D03*
X22286180Y882930D03*
X22198100Y1383470D03*
X23211090Y1219530D03*
X23431060Y1346530D03*
X22957130Y1659760D03*
X23177100Y1786760D03*
X23397070Y1913760D03*
X23617040Y2040760D03*
X23651030Y1473530D03*
X23871000Y1600530D03*
X24090970Y1727530D03*
X23837010Y2167760D03*
X24056980Y2294760D03*
X24310940Y1854530D03*
X24530910Y1981530D03*
X24750880Y2108530D03*
X24276950Y2421760D03*
X24496920Y2548760D03*
X24716890Y2675760D03*
X24936860Y2802760D03*
X24970850Y2235530D03*
X25190820Y2362530D03*
X25410790Y2489530D03*
X25630760Y2616530D03*
X25156830Y2929760D03*
X25376800Y3056760D03*
X25596770Y3183760D03*
X25850730Y2743530D03*
X25816740Y3310760D03*
X26036710Y3437760D03*
X26070700Y2870530D03*
X26290670Y2997530D03*
X27044670Y3630180D03*
X26655450Y3956990D03*
X26818720Y4151570D03*
X26981990Y4346140D03*
X27207940Y3824760D03*
X27371210Y4019330D03*
X27534480Y4213910D03*
X27697740Y4408480D03*
X27145260Y4540720D03*
X27308520Y4735290D03*
X27471790Y4929870D03*
X27635060Y5124440D03*
X27798330Y5319020D03*
X27861010Y4603060D03*
X28024280Y4797630D03*
X28187550Y4992210D03*
X28350820Y5186780D03*
X28514080Y5381360D03*
X27961600Y5513590D03*
X28124860Y5708170D03*
X28288130Y5902740D03*
X28451400Y6097320D03*
X28677350Y5575930D03*
X28840620Y5770510D03*
X29003890Y5965090D03*
X29167160Y6159660D03*
X28614670Y6291900D03*
X28777940Y6486470D03*
X28941200Y6681050D03*
X29330420Y6354240D03*
X29822580Y7206600D03*
X29345060Y7380590D03*
X29431930Y7619270D03*
X29518800Y7857950D03*
X29909450Y7445280D03*
X29996320Y7683960D03*
X29605680Y8096630D03*
X29692550Y8335320D03*
X29779420Y8574000D03*
X29866290Y8812680D03*
X29953170Y9051360D03*
X29953090Y17539850D03*
X29866220Y17778530D03*
X29779350Y18017220D03*
X29692470Y18255900D03*
X29605600Y18494580D03*
X29518730Y18733260D03*
X29431850Y18971940D03*
X29996370Y18906920D03*
X29344980Y19210630D03*
X29909490Y19145600D03*
X29822620Y19384290D03*
X30083200Y7922640D03*
X30170070Y8161330D03*
X30256940Y8400010D03*
X30343810Y8638690D03*
X30040040Y9290040D03*
X30430690Y8877370D03*
X30517560Y9116050D03*
X30604430Y9354740D03*
X30126910Y9528730D03*
X30213790Y9767410D03*
X30300660Y10006090D03*
X30691310Y9593420D03*
X30387530Y10244770D03*
X30474410Y10483450D03*
X30561280Y10722140D03*
X30701500Y11517620D03*
Y11771620D03*
Y12025620D03*
Y12279620D03*
Y12533620D03*
Y12787620D03*
Y13041620D03*
Y13295620D03*
Y13549620D03*
Y13803620D03*
Y14057620D03*
Y14311620D03*
Y14565620D03*
Y14819620D03*
Y15073620D03*
X30561200Y15869080D03*
X30474330Y16107760D03*
X30387460Y16346440D03*
X30300580Y16585120D03*
X30213710Y16823810D03*
X30126840Y17062490D03*
X30039970Y17301170D03*
X30691350Y16997470D03*
X30604480Y17236150D03*
X30517610Y17474830D03*
X30430730Y17713510D03*
X30343860Y17952190D03*
X30256990Y18190880D03*
X30170110Y18429560D03*
X30083240Y18668240D03*
X30778180Y9832100D03*
X30865050Y10070780D03*
X30951930Y10309460D03*
X31038800Y10548150D03*
X31209730Y11517440D03*
Y11771440D03*
Y12025440D03*
Y12279440D03*
Y12533440D03*
Y12787440D03*
Y13041440D03*
Y13295440D03*
Y13549440D03*
Y13803440D03*
Y14057440D03*
Y14311440D03*
Y14565440D03*
Y14819440D03*
Y15073440D03*
X31038840Y16042740D03*
X30951970Y16281420D03*
X30865100Y16520100D03*
X30778220Y16758780D03*
G54D14*
X5588000Y19652000D03*
Y19052000D03*
G54D15*
G01X5213740Y15050000D02*
Y11532460D01*
G03X5057570Y11076230I204659J-324900D01*
G01X5278690Y10468700D01*
G01D02*
X6545350Y6988560D01*
G02X6720830Y6435800I-6541786J-2380999D01*
G01X6940470Y6174040D01*
G01X5545480Y10548300D02*
X5358290D01*
X5278690Y10468700D01*
G01X6761750Y19384440D02*
X6508850D01*
X6380540Y19256130D01*
X5250000Y16150000D01*
G03X5213740Y15882460I596337J-217049D01*
G01Y15050000D01*
G01X5374590Y15073600D02*
X5237340D01*
X5213740Y15050000D01*
G01X5882820Y12025420D02*
X6600470Y12000000D01*
G01X6196800Y16346270D02*
X6856510Y16141250D01*
X6740120Y15821480D01*
G03X6600470Y14469820I2620530J-953791D01*
G01Y12000000D01*
G01X6940470Y6174040D02*
X9516960Y3103510D01*
G03X9666420Y2938550I2243752J1882736D01*
G01X10121310Y2675920D01*
G01X7253800Y6354350D02*
X7120780D01*
X6940470Y6174040D01*
G01X7065590Y7857780D02*
X7733500Y8071960D01*
G01X6600470Y12000000D02*
Y11769820D01*
G03X7010930Y10057220I3778049J0D01*
G01X7733500Y8071960D01*
G01D02*
X7934380Y7520050D01*
G03X8616370Y6857200I1026108J373471D01*
G01X10277100Y4878020D01*
G01X10121310Y2675920D02*
X13433630Y763550D01*
G03X13736570Y619790I1042257J1805243D01*
G01X14218260Y534860D01*
G01X10293520Y2997610D02*
Y2848130D01*
X10121310Y2675920D01*
G01X9602460Y4345990D02*
X10277100Y4878020D01*
G01D02*
X10351900Y4788880D01*
G03X11413100Y3892020I3127399J2624204D01*
G01X13609850Y2623730D01*
G01X13187430Y1913660D02*
X13609850Y2623730D01*
G01D02*
X13751370Y2542020D01*
G03X14834590Y2101850I2130640J3690378D01*
G01X17493570Y1633000D01*
G03X17553730Y1622770I865374J4907033D01*
G01X14218260Y534860D02*
X18020490Y-135580D01*
G03X18267680Y-114520I83936J476025D01*
G01X18816540Y-17740D01*
G01X14297990Y882950D02*
Y614590D01*
X14218260Y534860D01*
G01X17388100Y854150D02*
X17553730Y1622770D01*
G01D02*
G03X19132290Y1617700I805081J4917285D01*
G01X21542420Y2042680D01*
G01X18816540Y-17740D02*
X22551600Y640850D01*
G03X22714670Y770700I-37894J214908D01*
G01X23264260Y1088000D01*
G01X18784210Y265440D02*
Y14590D01*
X18816540Y-17740D01*
G01X21697820Y1295260D02*
X21542420Y2042680D01*
G01D02*
X21791280Y2086560D01*
G03X23126930Y2664960I-544726J3089242D01*
G01X25244240Y3887390D01*
G01X23264260Y1088000D02*
X26481880Y2945700D01*
X26503760Y2967580D01*
X26651790D01*
X27142110Y3551920D01*
G01X23211090Y1219530D02*
X23264260Y1127440D01*
Y1088000D01*
G01X25596770Y3183760D02*
X25244240Y3887390D01*
G01X28019920Y6736040D02*
X26392870Y4796990D01*
G02X25465200Y4014960I-2652110J2204790D01*
G01X25244240Y3887390D01*
G01X26975080Y1704120D02*
X26797000Y1526040D01*
Y1333500D01*
X26885900Y1244600D01*
X27241500D01*
X28981400Y2984500D01*
Y3454400D01*
X28714700Y3721100D01*
Y4102100D01*
X30835600Y6223000D01*
Y7531100D01*
X31965900Y8661400D01*
Y11772900D01*
X32200000Y12007000D01*
Y14500000D01*
X32435800Y14735800D01*
Y14785100D01*
X32805350Y15154650D01*
G01Y15027650D02*
X32250000Y14472300D01*
Y11955400D01*
X32029400Y11734800D01*
Y8623300D01*
X30899100Y7493000D01*
Y6184900D01*
X28778200Y4064000D01*
Y3771900D01*
X29057600Y3492500D01*
Y2971800D01*
X27266900Y1181100D01*
X26809700D01*
X26720800Y1270000D01*
Y1541760D01*
X26861770Y1682730D01*
G01X26883120Y1796070D02*
X26657300Y1570250D01*
Y1231900D01*
X26771600Y1117600D01*
X27292300D01*
X29121100Y2946400D01*
Y3517900D01*
X28854400Y3784600D01*
Y4038600D01*
X30962600Y6146800D01*
Y7454900D01*
X32092900Y8585200D01*
Y11717900D01*
X32300000Y11925000D01*
Y14395300D01*
X32805350Y14900650D01*
G01Y15408650D02*
X32100000Y14703300D01*
Y12084800D01*
X31838900Y11823700D01*
Y8712200D01*
X30717700Y7591000D01*
Y6308300D01*
X28587700Y4178300D01*
Y3632200D01*
X28841700Y3378200D01*
Y2997200D01*
X27216100Y1371600D01*
X27025600D01*
X26962100Y1435100D01*
Y1507220D01*
X27067040Y1612160D01*
G01X32805350Y15281650D02*
X32359600Y14835900D01*
Y14744700D01*
X32150000Y14535100D01*
Y12045900D01*
X31902400Y11798300D01*
Y8686800D01*
X30772100Y7556500D01*
Y6261100D01*
X28651200Y4140200D01*
Y3670300D01*
X28917900Y3403600D01*
Y2997200D01*
X27228800Y1308100D01*
X26949400D01*
X26873200Y1384300D01*
Y1510250D01*
X26953720Y1590770D01*
G01X31702750Y14900650D02*
Y12436850D01*
X31470600Y12204700D01*
Y9029700D01*
X30327600Y7886700D01*
Y6604000D01*
X28105100Y4381500D01*
Y4380100D01*
X28000000Y4275000D01*
Y3450900D01*
X26682700Y2133600D01*
Y1861800D01*
X26769810Y1774690D01*
G01X31702750Y15027650D02*
X31775000Y14955400D01*
Y12420200D01*
X31521400Y12166600D01*
Y9004300D01*
X30378400Y7861300D01*
Y6578600D01*
X28050000Y4250200D01*
Y3424700D01*
X26752550Y2127250D01*
Y1926650D01*
X26791170Y1888030D01*
G01X32805350Y15535650D02*
X32050000Y14780300D01*
Y12123700D01*
X31783600Y11857300D01*
Y8733100D01*
X30670500Y7620000D01*
Y6350000D01*
X28532400Y4211900D01*
Y3573200D01*
X28786400Y3319200D01*
Y3018100D01*
X27228800Y1460500D01*
X27084000D01*
X27045680Y1498820D01*
G01X27044670Y3630180D02*
X27063850D01*
X27142110Y3551920D01*
G01X29958590Y7139260D02*
X29776990Y6640320D01*
Y6628940D01*
X29447920Y6299870D01*
X27142110Y3551920D01*
G01X31702750Y15154650D02*
X31825000Y15032400D01*
Y12368600D01*
X31572200Y12115800D01*
Y8966200D01*
X30429200Y7823200D01*
Y6553200D01*
X28100000Y4224000D01*
Y3230900D01*
X28359100Y2971800D01*
X28518640D01*
X28668770Y3121930D01*
G01X31702750Y15281650D02*
X31875000Y15109400D01*
Y12329700D01*
X31623000Y12077700D01*
Y8928100D01*
X30480000Y7785100D01*
Y6527800D01*
X28150000Y4197800D01*
Y3269800D01*
X28397200Y3022600D01*
X28477500D01*
X28555450Y3100550D01*
G01X28463490Y3192510D02*
X28550000Y3279020D01*
Y3425000D01*
X28422600Y3552400D01*
Y4292600D01*
X30581600Y6451600D01*
Y7721600D01*
X31724600Y8864600D01*
Y11988800D01*
X31975000Y12239200D01*
Y15263400D01*
X31702750Y15535650D01*
G01Y15408650D02*
X31925000Y15186400D01*
Y12278100D01*
X31673800Y12026900D01*
Y8890000D01*
X30530800Y7747000D01*
Y6489700D01*
X28359100Y4318000D01*
Y3734100D01*
X28200000Y3575000D01*
Y3321400D01*
X28409900Y3111500D01*
X28474430D01*
X28576810Y3213880D01*
G01X28614670Y6291900D02*
X28019920Y6736040D01*
G01X30387530Y10244770D02*
X29666940Y10332400D01*
X28743480Y7795230D01*
G02X28190840Y6927760I-2232783J812671D01*
G01X28128390Y6865310D01*
X28019920Y6736040D01*
G01X29822580Y7206600D02*
X29891250D01*
X29958590Y7139260D01*
G01X30561200Y15869080D02*
X30319080D01*
X29861450Y15411450D01*
Y11673910D01*
X30029460Y11505900D01*
X30701500Y11517620D01*
G01D02*
Y10998500D01*
X30800000Y10900000D01*
X31100000D01*
X31223260Y10776740D01*
Y10613900D01*
X29958590Y7139260D01*
G01X31038840Y16042740D02*
X31200000Y16203900D01*
Y18850000D01*
X31125000Y18925000D01*
X30975000D01*
X32254050Y14744650D03*
Y17467650D03*
G54D16*
G01X4068160Y10337720D02*
Y10755520D01*
G01D02*
Y11173320D01*
G01X3650360Y10755520D02*
X4068160D01*
G01D02*
X4485960D01*
G01X4068160Y17957720D02*
Y18375520D01*
G01D02*
Y18793320D01*
G01X3650360Y18375520D02*
X4068160D01*
G01D02*
X4485960D01*
G01X5000200Y19352000D02*
X5118000D01*
G01X5374590Y11677600D02*
Y11771600D01*
G01D02*
Y11865600D01*
G01X5280590Y11771600D02*
X5374590D01*
G01D02*
X5468590D01*
G01X5632400Y16187580D02*
Y16281580D01*
G01D02*
Y16375580D01*
G01X5538400Y16281580D02*
X5632400D01*
G01D02*
X5726400D01*
G01X5118000Y19084200D02*
Y19352000D01*
G01D02*
Y19619800D01*
G01Y19352000D02*
X5235800D01*
G01X5588000Y19534200D02*
Y19652000D01*
G01D02*
Y19769800D01*
G01X5320200Y19652000D02*
X5588000D01*
G01D02*
X5855800D01*
G01X5882820Y11677420D02*
Y11771420D01*
G01D02*
Y11865420D01*
G01X5788820Y11771420D02*
X5882820D01*
G01D02*
X5976820D01*
G01X6109920Y16013590D02*
Y16107590D01*
G01D02*
Y16201590D01*
G01X6015920Y16107590D02*
X6109920D01*
G01D02*
X6203920D01*
G01X7152470Y7525100D02*
Y7619100D01*
G01D02*
Y7713100D01*
G01X7058470Y7619100D02*
X7152470D01*
G01D02*
X7246470D01*
G01X6674830Y7351440D02*
Y7445440D01*
G01D02*
Y7539440D01*
G01X6580830Y7445440D02*
X6674830D01*
G01D02*
X6768830D01*
G01X9376290Y3730870D02*
Y3824870D01*
G01D02*
Y3918870D01*
G01X9282290Y3824870D02*
X9376290D01*
G01D02*
X9470290D01*
G01X9765730Y4057420D02*
Y4151420D01*
G01D02*
Y4245420D01*
G01X9671730Y4151420D02*
X9765730D01*
G01D02*
X9859730D01*
G01X11270360Y341520D02*
X11688160D01*
G01Y-76280D02*
Y341520D01*
G01D02*
Y759320D01*
G01Y341520D02*
X12105960D01*
G01X13059130Y1346610D02*
X13153130D01*
G01Y1252610D02*
Y1346610D01*
G01X13407400Y1692660D02*
Y1786660D01*
G01D02*
Y1880660D01*
G01X13313400Y1786660D02*
X13407400D01*
G01D02*
X13501400D01*
G01X13153130Y1346610D02*
Y1440610D01*
G01Y1346610D02*
X13247130D01*
G01X17455820Y309570D02*
X17549820D01*
G01Y215570D02*
Y309570D01*
G01D02*
Y403570D01*
G01Y309570D02*
X17643820D01*
G01X17638240Y716050D02*
Y810050D01*
G01D02*
Y904050D01*
G01X17544240Y810050D02*
X17638240D01*
G01D02*
X17732240D01*
G01X21853960Y1339360D02*
X21947960D01*
G01X22036040Y744820D02*
Y838820D01*
G01D02*
Y932820D01*
G01X21942040Y838820D02*
X22036040D01*
G01D02*
X22130040D01*
G01X21947960Y1245360D02*
Y1339360D01*
G01D02*
Y1433360D01*
G01Y1339360D02*
X22041960D01*
G01X24478360Y341520D02*
X24896160D01*
G01Y-76280D02*
Y341520D01*
G01D02*
Y759320D01*
G01Y341520D02*
X25313960D01*
G01X26070700Y2776530D02*
Y2870530D01*
G01D02*
Y2964530D01*
G01X25976700Y2870530D02*
X26070700D01*
G01D02*
X26164700D01*
G01X25816740Y3216760D02*
Y3310760D01*
G01D02*
Y3404760D01*
G01X25722740Y3310760D02*
X25816740D01*
G01D02*
X25910740D01*
G01X29167160Y6065660D02*
Y6159660D01*
G01D02*
Y6253660D01*
G01X29073160Y6159660D02*
X29167160D01*
G01D02*
X29261160D01*
G01X28777940Y6392470D02*
Y6486470D01*
G01D02*
Y6580470D01*
G01X28683940Y6486470D02*
X28777940D01*
G01D02*
X28871940D01*
G01X29431850Y18877940D02*
Y18971940D01*
G01X29909490Y19051600D02*
Y19145600D01*
G01D02*
Y19239600D01*
G01X29815490Y19145600D02*
X29909490D01*
G01D02*
X30003490D01*
G01X29431850Y18971940D02*
Y19065940D01*
G01X29337850Y18971940D02*
X29431850D01*
G01D02*
X29525850D01*
G01X30565830Y5263100D02*
X30497490Y5194770D01*
Y5152510D01*
X30625000Y5025000D01*
X31050000D01*
X33125000Y7100000D01*
Y16880330D01*
X33072680Y16932650D01*
X32805350D01*
G01Y16805650D02*
X33020070D01*
X33075000Y16750720D01*
Y7125000D01*
X31025000Y5075000D01*
X30650000D01*
X30581600Y5143400D01*
Y5186920D01*
X30679150Y5284470D01*
G01X30657790Y5171140D02*
X30703930Y5125000D01*
X31000000D01*
X33025000Y7150000D01*
Y16621110D01*
X32967460Y16678650D01*
X32805350D01*
G01X30474410Y10389450D02*
Y10483450D01*
G01D02*
Y10577450D01*
G01X30380410Y10483450D02*
X30474410D01*
G01D02*
X30568410D01*
G01X30607500Y14819620D02*
X30701500D01*
G01X30771110Y5192520D02*
X30992520D01*
X32975000Y7175000D01*
Y16491500D01*
X32914850Y16551650D01*
X32805350D01*
G01X30951930Y10215460D02*
Y10309460D01*
G01D02*
Y10403460D01*
G01X30857930Y10309460D02*
X30951930D01*
G01D02*
X31045930D01*
G01X31209730Y14725440D02*
Y14819440D01*
G01D02*
Y14913440D01*
G01X31115730Y14819440D02*
X31209730D01*
G01D02*
X31303730D01*
G01X30701500Y14725620D02*
Y14819620D01*
G01D02*
Y14913620D01*
G01Y14819620D02*
X30795500D01*
G01X32098360Y18375520D02*
X32516160D01*
G01Y10337720D02*
Y10755520D01*
G01D02*
Y11173320D01*
G01Y10755520D02*
X32933960D01*
G01X32516160Y17957720D02*
Y18375520D01*
G01D02*
Y18793320D01*
G01Y18375520D02*
X32933960D01*
G54D17*
G01X3369660Y7471570D02*
G03X3741640Y6573550I1269998J10D01*
G01X3369660Y18693020D02*
Y7471570D01*
G01X4639660Y19963020D02*
G03X3369660Y18693020I0J-1270000D01*
G01X3741640Y6573550D02*
X10617690Y-302510D01*
G01X7878160Y19963020D02*
X4639660D01*
G01X8513160Y19212950D02*
G03X28071160I9779000J-5917432D01*
G01X8513160Y19328020D02*
G03X7878160Y19963020I-635000J0D01*
G01X8513160Y19212960D02*
Y19328020D01*
G01X10617690Y-302510D02*
G03X11515710Y-674480I898021J898030D01*
G01D02*
X25068610D01*
G01D02*
G03X25966640Y-302510I8J1270002D01*
G01D02*
X32842690Y6573550D01*
G01X28706160Y19963020D02*
G03X28071160Y19328020I0J-635000D01*
G01D02*
Y19212960D01*
G01X31944660Y19963020D02*
X28706160D01*
G01X33214660Y18693020D02*
G03X31944660Y19963020I-1270000J0D01*
G01X32842690Y6573550D02*
G03X33214660Y7471570I-898029J898021D01*
G01D02*
Y18693020D01*
M02*
