G04 ================== begin FILE IDENTIFICATION RECORD ==================*
G04 Layout Name:  LED_12inArena, vC 7-42019 V4.brd*
G04 Film Name:    LAYER_2*
G04 File Format:  Gerber RS274X*
G04 File Origin:  Cadence Allegro 17.2-P019*
G04 Origin Date:  Mon Oct 05 13:41:40 2020*
G04 *
G04 Layer:  VIA KEEPOUT/ALL*
G04 Layer:  VIA KEEPOUT/BOTTOM*
G04 Layer:  VIA KEEPOUT/LAYER 2*
G04 Layer:  VIA KEEPOUT/GND2*
G04 Layer:  VIA KEEPOUT/LAYER 1*
G04 Layer:  VIA KEEPOUT/PWR*
G04 Layer:  VIA KEEPOUT/TOP*
G04 Layer:  VIA CLASS/FILMMASKBOTTOM*
G04 Layer:  VIA CLASS/LAYER 2*
G04 Layer:  ROUTE KEEPOUT/ALL*
G04 Layer:  ROUTE KEEPOUT/BOTTOM*
G04 Layer:  ROUTE KEEPOUT/LAYER 2*
G04 Layer:  ROUTE KEEPOUT/GND2*
G04 Layer:  ROUTE KEEPOUT/LAYER 1*
G04 Layer:  ROUTE KEEPOUT/PWR*
G04 Layer:  ROUTE KEEPOUT/TOP*
G04 Layer:  ROUTE KEEPIN/ALL*
G04 Layer:  PIN/FILMMASKBOTTOM*
G04 Layer:  PIN/LAYER 2*
G04 Layer:  PACKAGE KEEPOUT/ALL*
G04 Layer:  PACKAGE KEEPOUT/TOP*
G04 Layer:  PACKAGE KEEPOUT/BOTTOM*
G04 Layer:  PACKAGE KEEPIN/ALL*
G04 Layer:  ETCH/LAYER 2*
G04 Layer:  BOARD GEOMETRY/OUTLINE*
G04 *
G04 Offset:    (0.0 0.0)*
G04 Mirror:    No*
G04 Mode:      Positive*
G04 Rotation:  0*
G04 FullContactRelief:  No*
G04 UndefLineWidth:     0.1*
G04 ================== end FILE IDENTIFICATION RECORD ====================*
%FSLAX25Y25*MOIN*%
%IR0*IPPOS*OFA0.00000B0.00000*MIA0B0*SFA1.00000B1.00000*%
%ADD10C,.35*%
%ADD12C,.06*%
%ADD14C,5.7*%
%ADD11C,.026*%
%ADD13C,.0394*%
%ADD15C,.005*%
%ADD16C,.01*%
%ADD17C,.0001*%
%ADD18C,.3604*%
%ADD21C,.0704*%
%ADD19C,.0364*%
%ADD20C,.0498*%
G75*
%LPD*%
G75*
G36*
G01X-447500Y-557500D02*
Y-448890D01*
G02X-446840Y-448590I398J0D01*
G03Y-421410I11840J13590D01*
G02X-447500Y-421110I-262J300D01*
G01Y421110D01*
G02X-446840Y421410I398J0D01*
G03X-421410Y446840I11840J13590D01*
G02X-421110Y447500I300J262D01*
G01X-354330D01*
X-354310Y447320D01*
G03X-350690I1810J180D01*
G01X-350670Y447500D01*
X-349330D01*
X-349310Y447320D01*
G03X-345690I1810J180D01*
G01X-345670Y447500D01*
X-344330D01*
X-344310Y447320D01*
G03X-340690I1810J180D01*
G01X-340670Y447500D01*
X-339330D01*
X-339310Y447320D01*
G03X-335690I1810J180D01*
G01X-335670Y447500D01*
X-121390D01*
G02X-121090Y446840I0J-398D01*
G03X-93910I13590J-11840D01*
G02X-93610Y447500I300J262D01*
G01X421110D01*
G02X421410Y446840I0J-398D01*
G03X446840Y421410I13590J-11840D01*
G02X447500Y421110I262J-300D01*
G01Y-421110D01*
G02X446840Y-421410I-398J0D01*
G03Y-448590I-11840J-13590D01*
G02X447500Y-448890I262J-300D01*
G01Y-557500D01*
X-447500D01*
G37*
%LPC*%
G75*
G36*
G01X67920Y-456010D02*
X-124820D01*
X-137380Y-443450D01*
X-208010Y-433450D01*
X-264190Y-370490D01*
X-265700Y-368980D01*
X-266250Y-366960D01*
X-340230Y-282210D01*
X-340330D01*
G02X-342270Y-280140I-140J1813D01*
G01X-342260Y-280040D01*
X-343790Y-278510D01*
X-392920D01*
X-403510Y-267920D01*
Y-75420D01*
X-407920Y-71010D01*
X-433490D01*
G02X-436510I-1510J1010D01*
G01X-440420D01*
X-443510Y-67920D01*
Y48680D01*
X-438680Y53510D01*
X-430420D01*
X-421010Y62920D01*
Y155490D01*
X-419760Y156740D01*
X-419770Y156840D01*
G02X-418980Y158610I1800J258D01*
G01Y289950D01*
X-364350Y344580D01*
X-282500D01*
X-281600Y344340D01*
X-281520Y344400D01*
G02X-279110Y341690I1120J-1430D01*
G03X-278820Y341010I287J-279D01*
G01X-278540D01*
X-276610Y342940D01*
X-276620Y343040D01*
G02X-275080Y341500I1800J260D01*
G01X-275180Y341510D01*
X-277700Y338990D01*
X-357080D01*
X-412290Y283780D01*
Y161690D01*
G02Y158670I-1010J-1510D01*
G01Y141280D01*
X-416490Y137080D01*
Y60340D01*
X-436490Y40340D01*
Y-59580D01*
X-432860Y-63210D01*
X-432760Y-63200D01*
G02X-430990Y-63990I258J-1800D01*
G01X-399580D01*
X-391490Y-72080D01*
Y-135420D01*
X-396490Y-140420D01*
Y-262080D01*
X-389580Y-268990D01*
X-345200D01*
X-341160Y-273030D01*
X-341060Y-273020D01*
G02X-339310Y-273780I258J-1800D01*
G01X-339250Y-273860D01*
X-334540Y-274000D01*
X-264070Y-352770D01*
X-262810Y-354020D01*
X-258790Y-356760D01*
Y-358060D01*
X-202190Y-418150D01*
X-198380Y-418790D01*
X-196960D01*
X-195710Y-417540D01*
X-161880Y-410140D01*
X-161840Y-410050D01*
G02X-158380Y-411060I1659J-749D01*
G01X-158390Y-411160D01*
X-120560Y-448990D01*
X62080D01*
X66490Y-444580D01*
Y-434010D01*
G02X67760Y-430700I1014J1510D01*
G01X67860Y-430710D01*
X69580Y-428990D01*
X78070D01*
G03X78410Y-428390I-5J399D01*
G02Y-426610I1590J890D01*
G03X78070Y-426010I-345J201D01*
G01X67920D01*
X64290Y-429640D01*
X64300Y-429740D01*
G02X63510Y-431510I-1800J-258D01*
G01Y-437920D01*
X60420Y-441010D01*
X-122920D01*
X-155420Y-408510D01*
X-161180D01*
X-162450Y-407770D01*
X-162550Y-407810D01*
G02X-164670Y-407290I-714J1672D01*
G01X-164740Y-407210D01*
X-197890Y-408530D01*
X-265720Y-343210D01*
X-332980Y-270970D01*
X-339720Y-270380D01*
X-339780Y-270450D01*
G02X-342940Y-268980I-1359J1210D01*
G01X-342930Y-268880D01*
X-348300Y-263510D01*
X-387920D01*
X-396010Y-255420D01*
Y-169580D01*
X-390200Y-163770D01*
Y-68730D01*
X-397920Y-61010D01*
X-428490D01*
G02X-431010Y-58490I-1510J1010D01*
G01Y-57920D01*
X-433510Y-55420D01*
Y35420D01*
X-416010Y52920D01*
Y135420D01*
X-409650Y141780D01*
Y161750D01*
G02Y164770I1010J1510D01*
G01Y279280D01*
X-352920Y336010D01*
X-278300D01*
X-271030Y343280D01*
X-271040Y343380D01*
G02X-269500Y341840I1800J260D01*
G01X-269600Y341850D01*
X-277460Y333990D01*
X-352080D01*
X-407630Y278440D01*
Y164770D01*
G02Y161750I-1010J-1510D01*
G01Y140940D01*
X-413990Y134580D01*
Y52080D01*
X-431490Y34580D01*
Y-54580D01*
X-428990Y-57080D01*
Y-58490D01*
G02X-428490Y-58990I-1010J-1510D01*
G01X-397080D01*
X-388180Y-67890D01*
Y-164610D01*
X-393990Y-170420D01*
Y-254580D01*
X-387080Y-261490D01*
X-347460D01*
X-341500Y-267450D01*
X-341400Y-267440D01*
G02X-339590Y-268280I264J-1801D01*
G01X-339540Y-268370D01*
X-332020Y-269030D01*
X-264280Y-341790D01*
X-197110Y-406470D01*
X-164820Y-405190D01*
X-164760Y-405110D01*
G02X-161450Y-405930I1502J-1030D01*
G01X-161440Y-406030D01*
X-160640Y-406490D01*
X-154580D01*
X-122080Y-438990D01*
X59580D01*
X61490Y-437080D01*
Y-431510D01*
G02X62760Y-428200I1014J1510D01*
G01X62860Y-428210D01*
X67080Y-423990D01*
X264580D01*
X268230Y-420340D01*
Y-349480D01*
G02X269500Y-346170I1014J1510D01*
G01X269600Y-346180D01*
X291790Y-323990D01*
X394580D01*
X405130Y-313440D01*
Y-164770D01*
G02Y-161750I1010J1510D01*
G01Y-150940D01*
X421490Y-134580D01*
Y-62080D01*
X427080Y-56490D01*
X437080D01*
X438990Y-54580D01*
Y47080D01*
X436490Y49580D01*
Y53490D01*
G02X435700Y55260I1010J1512D01*
G01X435710Y55360D01*
X434580Y56490D01*
X429580D01*
X423990Y62080D01*
Y145420D01*
X428990Y150420D01*
Y257080D01*
X424580Y261490D01*
X409580D01*
X405340Y265730D01*
X342650D01*
G02X339340Y267000I-1510J1014D01*
G01X339350Y267100D01*
X337460Y268990D01*
X329580D01*
X323990Y274580D01*
Y399580D01*
X317080Y406490D01*
X243680D01*
X241380Y404190D01*
X238620D01*
X236320Y406490D01*
X172920D01*
X169060Y402630D01*
X164770D01*
G02X161750I-1510J1010D01*
G01X150940D01*
X137080Y416490D01*
X74580D01*
X52080Y438990D01*
X-57080D01*
X-58210Y437860D01*
X-58200Y437760D01*
G02X-59740Y439300I-1800J-260D01*
G01X-59640Y439290D01*
X-57920Y441010D01*
X52920D01*
X75420Y418510D01*
X137920D01*
X151780Y404650D01*
X161750D01*
G02X164770I1510J-1010D01*
G01X168220D01*
X172080Y408510D01*
X237160D01*
X239460Y406210D01*
X240540D01*
X242840Y408510D01*
X317920D01*
X326010Y400420D01*
Y275420D01*
X330420Y271010D01*
X334100D01*
G03X334380Y271690I-5J400D01*
G01X331490Y274580D01*
Y407080D01*
X327080Y411490D01*
X164800D01*
X161970Y408660D01*
X161980Y408560D01*
G02X158670Y407290I-1800J-256D01*
G01X151280D01*
X139580Y418990D01*
X77080D01*
X54580Y441490D01*
X-62080D01*
X-63210Y440360D01*
X-63200Y440260D01*
G02X-64740Y441800I-1800J-260D01*
G01X-64640Y441790D01*
X-62920Y443510D01*
X55420D01*
X77920Y421010D01*
X140420D01*
X152120Y409310D01*
X158670D01*
G02X160440Y410100I1512J-1010D01*
G01X160540Y410090D01*
X163960Y413510D01*
X327920D01*
X333510Y407920D01*
Y275420D01*
X335600Y273330D01*
X339290D01*
G02X342310I1510J-1010D01*
G01X408100D01*
X412920Y268510D01*
X427920D01*
X433510Y262920D01*
Y147080D01*
X430810Y144380D01*
Y65620D01*
X433790Y62640D01*
X441290D01*
X442140Y61790D01*
X442240Y61800D01*
G02X444300Y59740I260J-1800D01*
G01X444290Y59640D01*
X446010Y57920D01*
Y-61180D01*
X440980Y-66210D01*
X427720D01*
X426010Y-67920D01*
Y-137920D01*
X411810Y-152120D01*
Y-158670D01*
G02Y-161690I-1010J-1510D01*
G01Y-314620D01*
X395420Y-331010D01*
X292870D01*
X276610Y-347270D01*
X276620Y-347370D01*
G02X275830Y-349140I-1800J-258D01*
G01Y-423100D01*
X270420Y-428510D01*
X87920D01*
X85420Y-431010D01*
X70420D01*
X69290Y-432140D01*
X69300Y-432240D01*
G02X68510Y-434010I-1800J-258D01*
G01Y-445420D01*
X62920Y-451010D01*
X-121400D01*
X-159820Y-412590D01*
X-159920Y-412600D01*
G02X-161370Y-412180I-264J1801D01*
G01X-161450Y-412110D01*
X-194690Y-419380D01*
X-196120Y-420810D01*
X-198540D01*
X-203190Y-420030D01*
X-260810Y-358860D01*
Y-357820D01*
X-264110Y-355580D01*
X-265530Y-354150D01*
X-335460Y-276000D01*
X-339320Y-275880D01*
X-339380Y-275960D01*
G02X-342600Y-274560I-1419J1140D01*
G01X-342590Y-274460D01*
X-346040Y-271010D01*
X-390420D01*
X-398510Y-262920D01*
Y-139580D01*
X-393510Y-134580D01*
Y-72920D01*
X-400420Y-66010D01*
X-430990D01*
G02X-434300Y-64740I-1510J1014D01*
G01X-434290Y-64640D01*
X-438510Y-60420D01*
Y41180D01*
X-418510Y61180D01*
Y137920D01*
X-414310Y142120D01*
Y158670D01*
G02Y161690I1010J1510D01*
G01Y284620D01*
X-357920Y341010D01*
X-281980D01*
G03X-281690Y341690I3J401D01*
G02X-282090Y342300I1290J1282D01*
G01X-282130Y342390D01*
X-282760Y342560D01*
X-363510D01*
X-416960Y289110D01*
Y158610D01*
G02X-418230Y155300I-1014J-1510D01*
G01X-418330Y155310D01*
X-418990Y154650D01*
Y62080D01*
X-429580Y51490D01*
X-437840D01*
X-441490Y47840D01*
Y-67080D01*
X-439580Y-68990D01*
X-436510D01*
G02X-433490I1510J-1010D01*
G01X-407080D01*
X-401490Y-74580D01*
Y-267080D01*
X-392080Y-276490D01*
X-342950D01*
X-340830Y-278610D01*
X-340730Y-278600D01*
G02X-338690Y-280780I260J-1801D01*
G01X-338710Y-280880D01*
X-264430Y-365980D01*
X-263900Y-367940D01*
X-262730Y-369110D01*
X-206990Y-431550D01*
X-140940Y-440910D01*
G03X-140600Y-440230I58J396D01*
G01X-159240Y-421590D01*
X-159340Y-421600D01*
G02X-157800Y-420060I-260J1800D01*
G01X-157810Y-420160D01*
X-123980Y-453990D01*
X67080D01*
X71490Y-449580D01*
Y-436510D01*
G02X74010Y-433990I1010J1510D01*
G01X87080D01*
X92080Y-428990D01*
X274580D01*
X279390Y-424180D01*
Y-348810D01*
G02X280660Y-345500I1014J1510D01*
G01X280760Y-345510D01*
X289780Y-336490D01*
X389580D01*
X394380Y-331690D01*
X396880D01*
X414460Y-314110D01*
Y-158610D01*
G02X416480I1010J1510D01*
G01Y-314950D01*
X397720Y-333710D01*
X395220D01*
X390420Y-338510D01*
X290620D01*
X282190Y-346940D01*
X282200Y-347040D01*
G02X281410Y-348810I-1800J-258D01*
G01Y-425020D01*
X275420Y-431010D01*
X92920D01*
X87920Y-436010D01*
X74010D01*
G02X73510Y-436510I-1510J1010D01*
G01Y-450420D01*
X67920Y-456010D01*
G37*
G36*
G01X341010Y281620D02*
X342200Y280430D01*
X341840Y279100D01*
X341900Y279020D01*
G02X342160Y278570I-1428J-1125D01*
G01X342200Y278480D01*
X342830Y278310D01*
X433120D01*
X436010Y275420D01*
Y72920D01*
X437920Y71010D01*
X442920D01*
X446010Y67920D01*
Y66510D01*
G02X443990I-1010J-1510D01*
G01Y67080D01*
X442080Y68990D01*
X437080D01*
X433990Y72080D01*
Y274580D01*
X432280Y276290D01*
X342570D01*
X341670Y276530D01*
X341590Y276470D01*
G02X339570Y279480I-1130J1424D01*
G03X339660Y280110I-195J349D01*
G01X338990Y280780D01*
Y412080D01*
X329580Y421490D01*
X150970D01*
G03X150690Y420810I5J-400D01*
G01X156740Y414760D01*
X156840Y414770D01*
G02X155300Y413230I260J-1800D01*
G01X155310Y413330D01*
X147150Y421490D01*
X79580D01*
X57080Y443990D01*
X-67080D01*
X-68210Y442860D01*
X-68200Y442760D01*
G02X-69740Y444300I-1800J-260D01*
G01X-69640Y444290D01*
X-67920Y446010D01*
X57920D01*
X80420Y423510D01*
X330420D01*
X341010Y412920D01*
Y281620D01*
G37*
G36*
G01X54420Y-436010D02*
X-122920D01*
X-157050Y-401880D01*
X-163980D01*
X-164610Y-402050D01*
X-164650Y-402140D01*
G02X-167860Y-402480I-1694J669D01*
G01X-167910Y-402390D01*
X-198680Y-400670D01*
X-258210Y-340810D01*
X-261410D01*
X-271010Y-331170D01*
Y-327950D01*
X-332950Y-265670D01*
X-340080Y-264840D01*
X-340150Y-264910D01*
G02X-343270Y-263400I-1320J1252D01*
G01X-343260Y-263300D01*
X-345550Y-261010D01*
X-382920D01*
X-391010Y-252920D01*
Y-169580D01*
X-386010Y-164580D01*
Y-65420D01*
X-395420Y-56010D01*
X-425990D01*
G02X-429300Y-54740I-1510J1014D01*
G01X-429290Y-54640D01*
X-431010Y-52920D01*
Y32920D01*
X-413510Y50420D01*
Y132920D01*
X-404380Y142050D01*
Y163980D01*
X-404550Y164610D01*
X-404640Y164650D01*
G02X-404980Y167850I672J1689D01*
G01Y273950D01*
X-347920Y331010D01*
X-278050D01*
X-265450Y343610D01*
X-265460Y343710D01*
G02X-263920Y342170I1800J260D01*
G01X-264020Y342180D01*
X-277210Y328990D01*
X-347080D01*
X-402960Y273110D01*
Y167850D01*
G02X-402540Y165220I-1012J-1510D01*
G01X-402600Y165140D01*
X-402360Y164240D01*
Y141210D01*
X-411490Y132080D01*
Y49580D01*
X-428990Y32080D01*
Y-52080D01*
X-427860Y-53210D01*
X-427760Y-53200D01*
G02X-425990Y-53990I258J-1800D01*
G01X-394580D01*
X-385170Y-63400D01*
G03X-384490Y-63120I280J285D01*
G01Y-59440D01*
X-390420Y-53510D01*
X-422920D01*
X-428510Y-47920D01*
Y30420D01*
X-414290Y44640D01*
X-414300Y44740D01*
G02X-412240Y46800I1800J260D01*
G01X-412140Y46790D01*
X-411010Y47920D01*
Y127920D01*
X-391010Y147920D01*
Y245420D01*
X-387070Y249360D01*
X-339990D01*
G02X-338220Y250150I1512J-1010D01*
G01X-338120Y250140D01*
X-336010Y252250D01*
Y310420D01*
X-320420Y326010D01*
X-257920D01*
X-253510Y330420D01*
Y362920D01*
X-249620Y366810D01*
G03X-249900Y367490I-285J280D01*
G01X-310010D01*
Y377510D01*
G02Y382490I10J2490D01*
G01Y397510D01*
X-259210D01*
G03X-258960Y398220I-1J400D01*
G02X-259560Y400170I1141J1418D01*
G03X-259920Y400680I-383J112D01*
G02X-261440Y403320I103J1817D01*
G03X-261710Y403890I-359J179D01*
G02X-262750Y406750I419J1771D01*
G03X-262910Y407360I-319J242D01*
G02X-263450Y410360I709J1676D01*
G03X-263500Y410980I-273J290D01*
G02Y414020I1000J1520D01*
G03X-263450Y414640I-223J330D01*
G02X-262910Y417640I1249J1324D01*
G03X-262750Y418250I-159J368D01*
G02X-261710Y421110I1459J1089D01*
G03X-261440Y421680I-89J391D01*
G02X-259920Y424320I1623J823D01*
G03X-259560Y424830I-23J398D01*
G02X-257610Y427170I1741J532D01*
G03X-257170Y427610I45J395D01*
G02X-254830Y429560I1808J209D01*
G03X-254320Y429920I112J383D01*
G02X-251680Y431440I1817J-103D01*
G03X-251110Y431710I179J359D01*
G02X-248250Y432750I1771J-419D01*
G03X-247640Y432910I242J319D01*
G02X-244640Y433450I1676J-709D01*
G03X-244020Y433500I290J273D01*
G02X-240980I1520J-1000D01*
G03X-240360Y433450I330J223D01*
G02X-237360Y432910I1324J-1249D01*
G03X-236750Y432750I368J159D01*
G02X-233890Y431710I1089J-1459D01*
G03X-233320Y431440I391J89D01*
G02X-230680Y429920I823J-1623D01*
G03X-230170Y429560I398J23D01*
G02X-227830Y427610I532J-1741D01*
G03X-227390Y427170I395J-45D01*
G02X-225440Y424830I209J-1808D01*
G03X-225080Y424320I383J-112D01*
G02X-223560Y421680I-103J-1817D01*
G03X-223290Y421110I359J-179D01*
G02X-222250Y418250I-419J-1771D01*
G03X-222090Y417640I319J-242D01*
G02X-221550Y414640I-709J-1676D01*
G03X-221500Y414020I273J-290D01*
G02Y410980I-1000J-1520D01*
G03X-221560Y410350I214J-338D01*
G02X-222080Y407350I-1241J-1330D01*
G03X-222240Y406740I160J-368D01*
G02X-223290Y403890I-1462J-1080D01*
G03X-223550Y403320I95J-388D01*
G02X-225080Y400680I-1627J-820D01*
G03X-225440Y400170I23J-398D01*
G02X-226040Y398220I-1741J-532D01*
G03X-225790Y397510I251J-310D01*
G01X-220010D01*
Y440010D01*
X-157490D01*
Y367490D01*
X-246080D01*
X-251490Y362080D01*
Y329580D01*
X-257080Y323990D01*
X-319580D01*
X-333990Y309580D01*
Y251410D01*
X-336690Y248710D01*
X-336680Y248610D01*
G02X-339990Y247340I-1800J-256D01*
G01X-386230D01*
X-388990Y244580D01*
Y147080D01*
X-408990Y127080D01*
Y47080D01*
X-410710Y45360D01*
X-410700Y45260D01*
G02X-412760Y43200I-1800J-260D01*
G01X-412860Y43210D01*
X-426490Y29580D01*
Y-47080D01*
X-422080Y-51490D01*
X-389580D01*
X-385330Y-55740D01*
G03X-384650Y-55400I284J281D01*
G02X-387330Y-31670I384644J55457D01*
G01Y-31600D01*
X-392920Y-26010D01*
X-420990D01*
G02X-424300Y-24740I-1510J1014D01*
G01X-424290Y-24640D01*
X-426010Y-22920D01*
Y25420D01*
X-408510Y42920D01*
Y60420D01*
X-403510Y65420D01*
Y130420D01*
X-385650Y148280D01*
Y189340D01*
G02Y192360I1010J1510D01*
G01Y228280D01*
X-380420Y233510D01*
X-337920D01*
X-331010Y240420D01*
Y307920D01*
X-315420Y323510D01*
X-252920D01*
X-248510Y327920D01*
Y347920D01*
X-242920Y353510D01*
X-236710D01*
X-235940Y354280D01*
X-235950Y354380D01*
G02X-234410Y352840I1800J260D01*
G01X-234510Y352850D01*
X-235870Y351490D01*
X-242080D01*
X-246490Y347080D01*
Y327080D01*
X-252080Y321490D01*
X-314580D01*
X-328990Y307080D01*
Y239580D01*
X-337080Y231490D01*
X-379580D01*
X-383630Y227440D01*
Y192360D01*
G02Y189340I-1010J-1510D01*
G01Y147440D01*
X-401490Y129580D01*
Y64580D01*
X-406490Y59580D01*
Y42080D01*
X-423990Y24580D01*
Y-22080D01*
X-422860Y-23210D01*
X-422760Y-23200D01*
G02X-420990Y-23990I258J-1800D01*
G01X-392080D01*
X-388330Y-27740D01*
G03X-387650Y-27430I281J285D01*
G02X-387730Y-26270I387658J27318D01*
G01X-387740Y-26190D01*
X-392920Y-21010D01*
X-418490D01*
G02X-421800Y-19740I-1510J1014D01*
G01X-421790Y-19640D01*
X-423510Y-17920D01*
Y9420D01*
X-419420Y13510D01*
X-388390D01*
G02X-388190Y18320I388380J-13740D01*
G02X-388010Y21750I691J1683D01*
G02X-385610Y48310I388017J-21673D01*
G03X-386270Y48660I-395J52D01*
G02X-385970Y50990I-1229J1343D01*
G03X-385240Y51150I335J216D01*
G02X-380200Y80440I385230J-51209D01*
G01Y190860D01*
X-380560Y192200D01*
X-380660Y192240D01*
G02X-380990Y195440I681J1687D01*
G01Y220440D01*
X-375420Y226010D01*
X-332920D01*
X-326010Y232920D01*
Y300420D01*
X-307920Y318510D01*
X-242920D01*
X-236010Y325420D01*
Y348970D01*
X-230360Y354620D01*
X-230370Y354720D01*
G02X-228830Y353180I1800J260D01*
G01X-228930Y353190D01*
X-233990Y348130D01*
Y324580D01*
X-242080Y316490D01*
X-307080D01*
X-323990Y299580D01*
Y232080D01*
X-332080Y223990D01*
X-374580D01*
X-378970Y219600D01*
Y195440D01*
G02X-378550Y192810I-1012J-1510D01*
G01X-378610Y192730D01*
X-378180Y191120D01*
Y92840D01*
G03X-377390Y92740I401J-5D01*
G02X-376020Y98170I377488J-92353D01*
G01X-376010Y98190D01*
Y140420D01*
X-374200Y142230D01*
Y189000D01*
X-375890Y195280D01*
X-375980Y195320D01*
G02X-376320Y198520I672J1689D01*
G01Y217610D01*
X-372920Y221010D01*
X-333120D01*
X-318510Y235620D01*
Y256500D01*
X-318800Y256790D01*
Y300130D01*
X-305420Y313510D01*
X-230420D01*
X-226010Y317920D01*
Y353720D01*
X-224780Y354950D01*
X-224790Y355050D01*
G02X-223250Y353510I1800J260D01*
G01X-223350Y353520D01*
X-223990Y352880D01*
Y317960D01*
G03X-223670Y317800I200J1D01*
G01X-223510Y317910D01*
Y350980D01*
X-219200Y355290D01*
X-219210Y355390D01*
G02X-217670Y353850I1800J260D01*
G01X-217770Y353860D01*
X-221490Y350140D01*
Y320090D01*
G03X-220860Y319760I400J-3D01*
G02X-178470Y345210I220824J-319781D01*
G03X-178330Y345800I-186J356D01*
G02X-175110Y347440I1505J1026D01*
G03X-174560Y347210I377J128D01*
G02X-8410Y388530I174561J-347210D01*
G03X-8140Y389210I-14J399D01*
G01X-11010Y392080D01*
Y420990D01*
G02X-11590Y423390I1009J1514D01*
G03X-11930Y423990I-345J201D01*
G01X-13490D01*
G02X-16590Y425890I-1510J1016D01*
G03X-16930Y426490I-345J201D01*
G01X-18490D01*
G02Y428510I-1510J1010D01*
G01X2920D01*
X6010Y425420D01*
Y397920D01*
X7920Y396010D01*
X16320D01*
X18620Y398310D01*
X21380D01*
X23680Y396010D01*
X46320D01*
X48620Y398310D01*
X51380D01*
X53680Y396010D01*
X56320D01*
X58620Y398310D01*
X61380D01*
X63680Y396010D01*
X122160D01*
X124460Y393710D01*
X127720D01*
X137920Y383510D01*
X170420D01*
X177940Y375990D01*
X192420D01*
G02X195440I1510J-1010D01*
G01X220440D01*
X230900Y365530D01*
Y324950D01*
X231010Y324840D01*
Y322920D01*
X235420Y318510D01*
X245420D01*
X255420Y308510D01*
X297920D01*
X301010Y305420D01*
Y265420D01*
X317920Y248510D01*
X342920D01*
X346010Y245420D01*
Y230340D01*
X347980Y227720D01*
X351120Y227280D01*
X351190Y227350D01*
G02X353990Y227080I1289J-1282D01*
G01X366850D01*
X373510Y220420D01*
Y174580D01*
X368510Y169580D01*
Y123390D01*
X368520Y123360D01*
G02X368870Y122310I-368501J-123417D01*
G01X368920Y122180D01*
X369260D01*
Y168190D01*
X378990Y177920D01*
Y224580D01*
X372930Y230640D01*
X353650D01*
G02X351470Y233340I-1513J1009D01*
G01X351560Y233380D01*
X351730Y234010D01*
Y244340D01*
X344580Y251490D01*
X319580D01*
X306490Y264580D01*
Y304580D01*
X299580Y311490D01*
X264580D01*
X247080Y328990D01*
X242080D01*
X236490Y334580D01*
Y374580D01*
X234580Y376490D01*
X227080D01*
X224940Y378630D01*
X192360D01*
G02X189050Y379900I-1510J1014D01*
G01X189060Y380000D01*
X187570Y381490D01*
X177080D01*
X174580Y383990D01*
X154580D01*
X137080Y401490D01*
X15620D01*
X11490Y405620D01*
Y427080D01*
X7080Y431490D01*
X-22080D01*
X-23210Y430360D01*
X-23200Y430260D01*
G02X-24740Y431800I-1800J-260D01*
G01X-24640Y431790D01*
X-22920Y433510D01*
X7920D01*
X13510Y427920D01*
Y406460D01*
X16460Y403510D01*
X137920D01*
X155420Y386010D01*
X175420D01*
X177920Y383510D01*
X188410D01*
X190490Y381430D01*
X190590Y381440D01*
G02X192360Y380650I258J-1800D01*
G01X225780D01*
X227920Y378510D01*
X235420D01*
X238510Y375420D01*
Y335420D01*
X242920Y331010D01*
X247920D01*
X265420Y313510D01*
X300420D01*
X308510Y305420D01*
Y265420D01*
X320420Y253510D01*
X345420D01*
X353750Y245180D01*
Y233750D01*
X353510Y232850D01*
X353570Y232770D01*
G02X353650Y232660I-1429J-1123D01*
G01X373770D01*
X381010Y225420D01*
Y177080D01*
X371280Y167350D01*
Y133900D01*
G03X371840Y133540I399J5D01*
G02Y130200I730J-1670D01*
G03X371280Y129840I-161J-365D01*
G01Y122650D01*
X377920Y116010D01*
X392920D01*
X398510Y110420D01*
Y60420D01*
X406010Y52920D01*
Y27920D01*
X410420Y23510D01*
X425990D01*
G02X428390Y24090I1514J-1009D01*
G03X428990Y24430I201J345D01*
G01Y38580D01*
X428580Y38990D01*
X422080D01*
X406490Y54580D01*
Y132080D01*
X404580Y133990D01*
X386560D01*
X381490Y139060D01*
Y159710D01*
X378840Y162360D01*
X378740Y162350D01*
G02Y165950I-260J1800D01*
G01X378840Y165940D01*
X383990Y171090D01*
Y254580D01*
X382080Y256490D01*
X322080D01*
X311490Y267080D01*
Y329580D01*
X308600Y332470D01*
X249860D01*
G02X247340Y334990I-1510J1010D01*
G01Y386230D01*
X244380Y389190D01*
X154380D01*
X134580Y408990D01*
X67080D01*
X57080Y418990D01*
X46510D01*
G02Y421010I-1510J1010D01*
G01X57920D01*
X67920Y411010D01*
X135420D01*
X155220Y391210D01*
X245220D01*
X249360Y387070D01*
Y334990D01*
G02X249860Y334490I-1010J-1510D01*
G01X309440D01*
X313510Y330420D01*
Y267920D01*
X322920Y258510D01*
X382920D01*
X386010Y255420D01*
Y170250D01*
X380270Y164510D01*
X380280Y164410D01*
G02Y163890I-1800J-260D01*
G01X380270Y163790D01*
X383510Y160550D01*
Y139900D01*
X387400Y136010D01*
X405420D01*
X408510Y132920D01*
Y55420D01*
X422920Y41010D01*
X429420D01*
X431010Y39420D01*
Y-40420D01*
X427920Y-43510D01*
X418920D01*
X418510Y-43920D01*
Y-45990D01*
G02Y-49010I-1010J-1510D01*
G01Y-130420D01*
X396010Y-152920D01*
Y-310420D01*
X390420Y-316010D01*
X290420D01*
X251010Y-355420D01*
Y-375420D01*
X243840Y-382590D01*
X166250D01*
X165350Y-382350D01*
X165270Y-382410D01*
G02X163890Y-382780I-1123J1430D01*
G01X163790Y-382770D01*
X158510Y-388050D01*
Y-415420D01*
X152920Y-421010D01*
X50420D01*
X42920Y-428510D01*
X39430D01*
G03X39090Y-429110I5J-399D01*
G02X35910I-1590J-890D01*
G03X35570Y-428510I-345J201D01*
G01X31930D01*
G03X31590Y-429110I5J-399D01*
G02X28410I-1590J-890D01*
G03X28070Y-428510I-345J201D01*
G01X24430D01*
G03X24090Y-429110I5J-399D01*
G02X20910I-1590J-890D01*
G03X20570Y-428510I-345J201D01*
G01X16930D01*
G03X16590Y-429110I5J-399D01*
G02X13410I-1590J-890D01*
G03X13070Y-428510I-345J201D01*
G01X9430D01*
G03X9090Y-429110I5J-399D01*
G02X5910I-1590J-890D01*
G03X5570Y-428510I-345J201D01*
G01X2080D01*
X-12920Y-413510D01*
X-43490D01*
G02X-46510I-1510J1010D01*
G01X-137920D01*
X-160420Y-391010D01*
X-200430D01*
X-249360Y-342080D01*
Y-337490D01*
G02X-250160Y-336200I1006J1517D01*
G01X-250170Y-336100D01*
X-250960Y-335640D01*
X-265640Y-320960D01*
X-266030D01*
X-267370Y-322300D01*
X-270130D01*
X-341420Y-251010D01*
X-377920D01*
X-384490Y-244440D01*
Y-170660D01*
G02Y-167640I1010J1510D01*
G01Y-166880D01*
G03X-385170Y-166600I-400J-5D01*
G01X-388990Y-170420D01*
Y-252080D01*
X-382080Y-258990D01*
X-344710D01*
X-341830Y-261870D01*
X-341730Y-261860D01*
G02X-339900Y-262750I256J-1800D01*
G01X-339850Y-262830D01*
X-332010Y-263750D01*
X-268990Y-327110D01*
Y-330330D01*
X-260570Y-338790D01*
X-257370D01*
X-197800Y-398690D01*
X-167800Y-400380D01*
X-167730Y-400300D01*
G02X-165220Y-400040I1390J-1172D01*
G01X-165140Y-400100D01*
X-164240Y-399860D01*
X-156210D01*
X-122080Y-433990D01*
X53580D01*
X56490Y-431080D01*
Y-429010D01*
G02X57760Y-425700I1014J1510D01*
G01X57860Y-425710D01*
X62080Y-421490D01*
X257080D01*
X262650Y-415920D01*
Y-349810D01*
G02X263920Y-346500I1014J1510D01*
G01X264020Y-346510D01*
X289040Y-321490D01*
X389580D01*
X400460Y-310610D01*
Y-167850D01*
G02X400040Y-165220I1012J1510D01*
G01X400100Y-165140D01*
X399860Y-164240D01*
Y-151210D01*
X418990Y-132080D01*
Y-49580D01*
X422080Y-46490D01*
X433990D01*
Y47080D01*
X432860Y48210D01*
X432760Y48200D01*
G02X430990Y48990I-258J1800D01*
G01X420580D01*
X411490Y58080D01*
Y125420D01*
X421490Y135420D01*
Y252080D01*
X419580Y253990D01*
X409580D01*
X403420Y260150D01*
X342980D01*
G02X339960I-1510J1010D01*
G01X325920D01*
X318990Y267080D01*
Y334580D01*
X316490Y337080D01*
Y387080D01*
X307080Y396490D01*
X237080D01*
X235610Y397960D01*
X167850D01*
G02X164830I-1510J1010D01*
G01X150610D01*
X137080Y411490D01*
X69580D01*
X44580Y436490D01*
X-52080D01*
X-53210Y435360D01*
X-53200Y435260D01*
G02X-54740Y436800I-1800J-260D01*
G01X-54640Y436790D01*
X-52920Y438510D01*
X45420D01*
X70420Y413510D01*
X137920D01*
X151450Y399980D01*
X164830D01*
G02X167850I1510J-1010D01*
G01X236450D01*
X237920Y398510D01*
X307920D01*
X318510Y387920D01*
Y337920D01*
X321010Y335420D01*
Y267920D01*
X326760Y262170D01*
X339960D01*
G02X342980I1510J-1010D01*
G01X404260D01*
X410420Y256010D01*
X420420D01*
X423510Y252920D01*
Y134580D01*
X413510Y124580D01*
Y58920D01*
X421420Y51010D01*
X430990D01*
G02X434300Y49740I1510J-1014D01*
G01X434290Y49640D01*
X436010Y47920D01*
Y-48510D01*
X422920D01*
X421010Y-50420D01*
Y-132920D01*
X401880Y-152050D01*
Y-163980D01*
X402050Y-164610D01*
X402140Y-164650D01*
G02X402480Y-167850I-672J-1689D01*
G01Y-311450D01*
X390420Y-323510D01*
X289880D01*
X265450Y-347940D01*
X265460Y-348040D01*
G02X264670Y-349810I-1800J-258D01*
G01Y-416760D01*
X257920Y-423510D01*
X62920D01*
X59290Y-427140D01*
X59300Y-427240D01*
G02X58510Y-429010I-1800J-258D01*
G01Y-431920D01*
X54420Y-436010D01*
G37*
G54D18*
X400000Y400000D03*
Y-400000D03*
X-400000Y400000D03*
Y-400000D03*
G54D19*
X107500Y-500000D03*
Y-530000D03*
X70000Y398740D03*
X52500Y-430000D03*
X45000D03*
X35000Y-530000D03*
X50000D03*
X42500D03*
X25000Y398740D03*
X5000Y-530000D03*
X27500D03*
X20000D03*
X12500D03*
X-22500Y-430000D03*
X-15000D03*
X-7500D03*
X0D03*
X-25000Y-530000D03*
X-2500D03*
X-10000D03*
X-17500D03*
X-45000Y398740D03*
X-52500Y-430000D03*
X-45000D03*
X-37500D03*
X-30000D03*
X-55000Y-530000D03*
X-32500D03*
X-40000D03*
X-47500D03*
X-75000Y-430000D03*
X-67500D03*
X-60000D03*
X-62500Y-530000D03*
X-92500Y-485000D03*
X-134370Y377570D03*
X-141160Y369330D03*
X-155000Y422500D03*
Y417500D03*
Y412500D03*
Y407500D03*
Y402500D03*
X-152500Y387500D03*
X-150000Y382500D03*
X-174370Y352570D03*
X-196870Y340070D03*
X-236870Y317570D03*
X-290000Y415000D03*
X-277500Y407500D03*
X-312500Y392500D03*
X-302500Y410000D03*
X-325000Y387500D03*
X-342500Y437500D03*
Y442500D03*
Y432500D03*
X-337500Y442500D03*
Y437500D03*
Y432500D03*
X-352500Y427500D03*
X-347500D03*
X-342500D03*
X-340000Y410000D03*
X-387500Y60000D03*
X-391240Y70000D03*
Y25000D03*
Y-45000D03*
G54D20*
X-320000Y380000D03*
X-330000D03*
X-340000D03*
%LPD*%
G75*
G36*
G01X-421490Y-17080D02*
Y8580D01*
X-418580Y11490D01*
X-388860D01*
G02X-388460Y11080I-1J-401D01*
G03X-388520Y8710I388462J-11020D01*
G01X-388530Y8510D01*
X-415420D01*
X-418510Y5420D01*
Y-13490D01*
G03X-415990Y-16010I1010J-1510D01*
G01X-388290D01*
G03X-387990Y-22090I388285J16111D01*
G02X-388670Y-22400I-399J-25D01*
G01X-392080Y-18990D01*
X-418490D01*
G03X-420260Y-18200I-1512J-1010D01*
G01X-420360Y-18210D01*
X-421490Y-17080D01*
G37*
G36*
G01X-416490Y-8070D02*
Y4580D01*
X-414580Y6490D01*
X-388570D01*
Y6290D01*
G03X-388530Y-8580I388570J-6390D01*
G02X-388930Y-8990I-398J-12D01*
G01X-413490D01*
G03X-415890Y-8410I-1514J-1009D01*
G02X-416490Y-8070I-201J345D01*
G37*
G36*
G01X-415990Y-13990D02*
G03X-416490Y-13490I-1510J-1010D01*
G01Y-11930D01*
G02X-415890Y-11590I399J-5D01*
G03X-413490Y-11010I886J1589D01*
G01X-388460D01*
Y-11200D01*
G03X-388380Y-13580I388438J11865D01*
G02X-388780Y-13990I-401J-9D01*
G01X-415990D01*
G37*
G36*
G01X-378510Y-88070D02*
Y-132920D01*
X-377050Y-134380D01*
G02X-377370Y-135060I-282J-283D01*
G03X-376620Y-138420I-201J-1809D01*
G02X-376010Y-138760I209J-341D01*
G01Y-227920D01*
X-369370Y-234560D01*
X-357000D01*
X-356370Y-234730D01*
X-356330Y-234820D01*
G03X-354380Y-235950I1691J670D01*
G01X-354280Y-235940D01*
X-346710Y-243510D01*
X-340420D01*
X-265670Y-318260D01*
G02X-265950Y-318940I-285J-280D01*
G01X-266870D01*
X-268210Y-320280D01*
X-269290D01*
X-340580Y-248990D01*
X-377080D01*
X-382470Y-243600D01*
Y-170660D01*
G03Y-167640I-1010J1510D01*
G01Y-73210D01*
G02X-381680Y-73130I399J-1D01*
G03X-378520Y-88040I381686J73104D01*
G01X-378510Y-88070D01*
G37*
G36*
G01X7160Y-418990D02*
X-7840Y-403990D01*
X-134580D01*
X-162890Y-375680D01*
X-169610D01*
X-170400Y-376470D01*
X-192420D01*
G03X-195440I-1510J-1010D01*
G01X-199600D01*
X-296490Y-279580D01*
Y-269580D01*
X-329580Y-236490D01*
X-345630D01*
X-353190Y-228930D01*
X-353180Y-228830D01*
G03X-356490Y-227560I-1800J256D01*
G01X-366010D01*
X-371490Y-222080D01*
Y-145010D01*
G02X-370770Y-144770I400J-1D01*
G03Y-142550I1440J1110D01*
G02X-371490Y-142310I-320J241D01*
G01Y-116740D01*
G02X-370710Y-116620I400J-3D01*
G03X-363520Y-137390I370685J116691D01*
G01X-363510Y-137430D01*
Y-144580D01*
X-368510Y-149580D01*
Y-162920D01*
X-361010Y-170420D01*
Y-218720D01*
X-357100Y-222630D01*
X-357110Y-222730D01*
G03X-355050Y-224790I1800J-260D01*
G01X-354950Y-224780D01*
X-343720Y-236010D01*
X-324480D01*
X-256010Y-304480D01*
Y-315420D01*
X-232920Y-338510D01*
X-227920D01*
X-211010Y-355420D01*
Y-363070D01*
X-199540Y-374540D01*
X-198210Y-374180D01*
X-198130Y-374240D01*
G03X-195500Y-373820I1120J1432D01*
G01X-162610D01*
X-160130Y-376300D01*
X-155130D01*
X-127920Y-403510D01*
X-2920D01*
X1490Y-407920D01*
Y-411180D01*
X8820Y-418510D01*
X13490D01*
G03X13600Y-418660I1519J999D01*
G02X13450Y-418990I-153J-129D01*
G01X7160D01*
G37*
G36*
G01X-298510Y-270420D02*
Y-280420D01*
X-200440Y-378490D01*
X-195440D01*
G03X-192420I1510J1010D01*
G01X-169560D01*
X-168770Y-377700D01*
X-163730D01*
X-135420Y-406010D01*
X-8680D01*
X6320Y-421010D01*
X18490D01*
G03X18600Y-421160I1519J999D01*
G02X18450Y-421490I-153J-129D01*
G01X5420D01*
X-7080Y-408990D01*
X-134580D01*
X-162440Y-381130D01*
X-189340D01*
G03X-192360I-1510J-1010D01*
G01X-199940D01*
X-245040Y-336030D01*
Y-334600D01*
X-246970Y-332670D01*
X-248400D01*
X-339580Y-241490D01*
X-345870D01*
X-352850Y-234510D01*
X-352840Y-234410D01*
G03X-355760Y-232720I-1800J257D01*
G01X-355840Y-232780D01*
X-356740Y-232540D01*
X-368530D01*
X-373990Y-227080D01*
Y-134580D01*
X-376490Y-132080D01*
Y-99460D01*
G02X-375700Y-99360I401J1D01*
G03X-373520Y-107280I375753J99167D01*
G01X-373510Y-107310D01*
Y-222920D01*
X-366850Y-229580D01*
X-356490D01*
G03X-354720Y-230370I1512J1010D01*
G01X-354620Y-230360D01*
X-346470Y-238510D01*
X-330420D01*
X-298510Y-270420D01*
G37*
G36*
G01X-201900Y-368320D02*
G02X-202580Y-368640I-399J-36D01*
G01X-208990Y-362230D01*
Y-354580D01*
X-227080Y-336490D01*
X-232080D01*
X-253990Y-314580D01*
Y-303640D01*
X-323640Y-233990D01*
X-342880D01*
X-353520Y-223350D01*
X-353510Y-223250D01*
G03X-355570Y-221190I-1800J260D01*
G01X-355670Y-221200D01*
X-358990Y-217880D01*
Y-169580D01*
X-366490Y-162080D01*
Y-153670D01*
G02X-365770Y-153430I400J-1D01*
G03Y-151210I1440J1110D01*
G02X-366490Y-150970I-320J241D01*
G01Y-150420D01*
X-361490Y-145420D01*
Y-144740D01*
G02X-360720Y-144600I399J-6D01*
G03X-356680Y-154310I360794J144419D01*
G01X-356660Y-154350D01*
Y-201730D01*
X-357300Y-202370D01*
Y-205130D01*
X-356660Y-205770D01*
Y-215900D01*
G03X-355390Y-219210I1014J-1510D01*
G01X-355290Y-219200D01*
X-348480Y-226010D01*
X-322920D01*
X-314550Y-234380D01*
G02X-314870Y-235060I-282J-283D01*
G03X-313260Y-236670I-200J-1810D01*
G02X-312580Y-236350I397J38D01*
G01X-287960Y-260970D01*
G03X-260970Y-287960I287960J260970D01*
G01X-253510Y-295420D01*
Y-312920D01*
X-230420Y-336010D01*
X-220420D01*
X-201100Y-355330D01*
Y-366640D01*
G03X-201900Y-368320I1010J-1512D01*
G37*
G36*
G01X-383040Y-11010D02*
X-372920D01*
X-356660Y-27270D01*
Y-139130D01*
G02X-357430Y-139280I-399J-2D01*
G02X-361490Y-128380I357410J139333D01*
G01Y-27080D01*
X-374580Y-13990D01*
X-383350D01*
G02X-383440Y-11420I383325J14710D01*
G02X-383040Y-11010I400J10D01*
G37*
G36*
G01X-371490Y-95670D02*
Y-39580D01*
X-382550Y-28520D01*
G02X-383260Y-16430I382549J28531D01*
G02X-382860Y-16010I400J19D01*
G01X-375420D01*
X-363510Y-27920D01*
Y-120080D01*
G02X-364290Y-120210I-400J-3D01*
G02X-371490Y-95670I364290J120208D01*
G37*
G36*
G01X-382100Y-33970D02*
G02X-382210Y-32710I382098J33993D01*
G02X-381530Y-32400I397J29D01*
G01X-373510Y-40420D01*
Y-83910D01*
G02X-374300Y-84000I-400J-3D01*
G02X-376490Y-73570I374293J84036D01*
G01Y-39580D01*
X-382100Y-33970D01*
G37*
G36*
G01X-379310Y-57310D02*
G02X-381700Y-38230I379323J57204D01*
G02X-381020Y-37910I398J38D01*
G01X-378510Y-40420D01*
Y-57250D01*
G02X-379310Y-57310I-402J3D01*
G37*
G36*
G01X368530Y106490D02*
G02X-354640Y-146240I-368535J-106479D01*
G01Y-76380D01*
G02X-353930Y-76130I399J0D01*
G03Y-73870I1430J1130D01*
G02X-354640Y-73620I-311J250D01*
G01Y-46380D01*
G02X-353930Y-46130I399J0D01*
G03Y-43870I1430J1130D01*
G02X-354640Y-43620I-311J250D01*
G01Y-31380D01*
G02X-353930Y-31130I399J0D01*
G03Y-28870I1430J1130D01*
G02X-354640Y-28620I-311J250D01*
G01Y-26430D01*
X-371070Y-10000D01*
X-369640Y-8570D01*
Y102580D01*
G02X-237190Y301490I369639J-102582D01*
G01X-234580D01*
X-226380Y309690D01*
G02X-146300Y354620I226395J-309681D01*
G03X-143020Y355950I1482J1054D01*
G02X226380Y309690I143021J-355951D01*
G01X242080Y293990D01*
X246430D01*
G02X353990Y147810I-246432J-293987D01*
G01Y119580D01*
X367080Y106490D01*
X368530D01*
G37*
G36*
G01X-383500Y-8990D02*
G02X-383560Y6490I383499J9227D01*
G01X-382080D01*
X-373990Y14580D01*
Y85370D01*
G02X-372450Y91860I374002J-85319D01*
G02X-371660Y91770I390J-90D01*
G01Y-7730D01*
X-372920Y-8990D01*
X-383500D01*
G37*
G36*
G01X-383250Y16660D02*
G02X-381000Y44700I383251J-16643D01*
G02X-380200Y44650I399J-36D01*
G01Y18730D01*
X-382570Y16360D01*
G02X-383250Y16660I-280J286D01*
G37*
G36*
G01X-376010Y71870D02*
Y15420D01*
X-382920Y8510D01*
X-383110D01*
G02X-383510Y8920I1J401D01*
G02X-383400Y12670I383497J-9373D01*
G01X-378180Y17890D01*
Y64320D01*
G02X-376800Y71950I378156J-64455D01*
G02X-376010Y71870I391J-81D01*
G37*
G36*
G01X-373210Y108370D02*
G02X-373990Y108480I-382J113D01*
G01Y139580D01*
X-372180Y141390D01*
Y189260D01*
X-373940Y195810D01*
X-373880Y195890D01*
G03X-374300Y198520I-1432J1120D01*
G01Y216770D01*
X-372080Y218990D01*
X-332280D01*
X-332040Y219230D01*
X-331860Y219040D01*
X-331850Y218990D01*
G03X-329410Y221070I1781J382D01*
G02X-329550Y221720I144J371D01*
G01X-316490Y234780D01*
Y238830D01*
G02X-315770Y239070I400J-1D01*
G03Y241290I1440J1110D01*
G02X-316490Y241530I-320J241D01*
G01Y257340D01*
X-316780Y257630D01*
Y299290D01*
X-304580Y311490D01*
X-233580D01*
G02X-233340Y310770I0J-400D01*
G03X-242650Y303550I233472J-310668D01*
G01X-242710Y303510D01*
X-297920D01*
X-303510Y297920D01*
Y242710D01*
X-303550Y242650D01*
G03X-308380Y236500I303201J-243095D01*
G01Y236480D01*
X-328390Y216480D01*
X-369950D01*
X-371660Y214770D01*
Y201600D01*
G03Y198580I1010J-1510D01*
G01Y113550D01*
X-371670Y113520D01*
G03X-373210Y108370I371553J-113910D01*
G37*
G36*
G01X-368860Y122340D02*
G02X-369640Y122470I-380J127D01*
G01Y155410D01*
G02X-368940Y155670I399J-3D01*
G03Y158070I1370J1200D01*
G02X-369640Y158330I-301J263D01*
G01Y198580D01*
G03Y201600I-1010J1510D01*
G01Y213930D01*
X-369110Y214460D01*
X-331360D01*
G02X-331000Y213900I-5J-399D01*
G03X-327800Y214150I1667J-730D01*
G02X-327630Y214460I169J109D01*
G01X-327550D01*
X-319770Y222250D01*
G02X-319150Y221740I285J-285D01*
G03X-368860Y122340I319151J-221738D01*
G37*
G36*
G01X-308130Y-236810D02*
G02X-308730Y-237340I-312J-252D01*
G01X-322080Y-223990D01*
X-347640D01*
X-353860Y-217770D01*
X-353850Y-217670D01*
G03X-354640Y-215900I-1800J258D01*
G01Y-204930D01*
X-355280Y-204290D01*
Y-203210D01*
X-354640Y-202570D01*
Y-175830D01*
G02X-353940Y-175570I399J-3D01*
G03Y-173170I1370J1200D01*
G02X-354640Y-172910I-301J263D01*
G01Y-160780D01*
G02X-353880Y-160620I398J-6D01*
G03X-347210Y-174560I353826J160733D01*
G02X-347440Y-175110I-358J-173D01*
G03X-345800Y-178330I614J-1715D01*
G02X-345210Y-178470I234J-326D01*
G03X-308130Y-236810I345217J178461D01*
G37*
G36*
G01X-301490Y246340D02*
Y297080D01*
X-297080Y301490D01*
X-246340D01*
G02X-246080Y300780I5J-401D01*
G03X-300780Y246080I246080J-300780D01*
G02X-301490Y246340I-309J255D01*
G37*
G36*
G01X-175520Y373180D02*
X-167010Y381690D01*
X-166910Y381680D01*
G03X-168450Y383220I260J1800D01*
G01X-168440Y383120D01*
X-179060Y372500D01*
X-305000D01*
Y392500D01*
X-250700D01*
G03X-248250Y392250I1361J1209D01*
G02X-247640Y392090I242J-319D01*
G03X-244640Y391550I1676J709D01*
G02X-244020Y391500I290J-273D01*
G03X-240980I1520J1000D01*
G02X-240350Y391560I338J-215D01*
G03X-237360Y392090I1320J1251D01*
G02X-236750Y392250I367J-157D01*
G03X-234300Y392500I1089J1459D01*
G01X-215000D01*
Y435000D01*
X-162500D01*
Y372500D01*
X-175240D01*
G02X-175520Y373180I4J399D01*
G37*
G36*
G01X-137080Y-411490D02*
X-159580Y-388990D01*
X-199590D01*
X-247340Y-341240D01*
Y-337490D01*
G03X-247130Y-337330I-994J1523D01*
G02X-246580Y-337350I264J-300D01*
G01X-200780Y-383150D01*
X-192360D01*
G03X-189340I1510J1010D01*
G01X-163280D01*
X-135420Y-411010D01*
X-46550D01*
G02X-46400Y-411340I-3J-201D01*
G03X-46510Y-411490I1409J-1149D01*
G01X-137080D01*
G37*
G36*
G01X11690Y-411880D02*
G02X11010Y-411600I-280J285D01*
G01Y-409580D01*
X420Y-398990D01*
X-124580D01*
X-156210Y-367360D01*
G02X-156100Y-366720I284J281D01*
G03X-158070Y-366440I-770J1650D01*
G02X-158330Y-367140I-263J-301D01*
G01X-198580D01*
G03X-199080Y-366640I-1510J-1010D01*
G01Y-354490D01*
X-219580Y-333990D01*
X-229580D01*
X-251490Y-312080D01*
Y-297140D01*
G02X-250830Y-296830I401J4D01*
G03X-213870Y-324480I250864J296805D01*
G02X-213930Y-325170I-223J-328D01*
G03X-211350Y-326850I758J-1657D01*
G02X-210730Y-326520I401J-6D01*
G03X-51150Y-385240I210741J326517D01*
G02X-50990Y-385970I-56J-395D01*
G03X-48660Y-386270I987J-1529D01*
G02X-48310Y-385610I298J265D01*
G03X-21750Y-388010I48233J385617D01*
G03X-18320Y-388190I1747J511D01*
G03X145180Y-360490I18330J388190D01*
G02X145680Y-361030I142J-370D01*
G03X147930Y-360120I1634J-803D01*
G02X147920Y-359370I136J377D01*
G03X172950Y-348020I-147879J359389D01*
G03X176110Y-346430I1383J1186D01*
G03X360720Y-144600I-176110J346429D01*
G02X361490Y-144740I371J-146D01*
G01Y-194860D01*
X366360Y-199730D01*
X366350Y-199830D01*
G03X367140Y-201600I1800J-258D01*
G01Y-221430D01*
X364580Y-223990D01*
X327080D01*
X316490Y-234580D01*
Y-236330D01*
G02X315770Y-236570I-400J1D01*
G03Y-238790I-1440J-1110D01*
G02X316490Y-239030I320J-241D01*
G01Y-249580D01*
X311490Y-254580D01*
Y-292080D01*
X307080Y-296490D01*
X279580D01*
X239580Y-336490D01*
X222080D01*
X213900Y-344670D01*
Y-354140D01*
G03Y-357160I1010J-1510D01*
G01Y-364670D01*
X209580Y-368990D01*
X154580D01*
X146490Y-377080D01*
Y-397080D01*
X139580Y-403990D01*
X19580D01*
X11690Y-411880D01*
G37*
G36*
G01X8300Y-414340D02*
G02X7650Y-414480I-371J144D01*
G01X3510Y-410340D01*
Y-407080D01*
X-2080Y-401490D01*
X-127080D01*
X-154290Y-374280D01*
X-159290D01*
X-161770Y-371800D01*
X-195500D01*
G03X-198590Y-371910I-1511J-1012D01*
G02X-199220Y-372000I-349J195D01*
G01X-200580Y-370640D01*
G02X-200260Y-369960I284J281D01*
G03X-198580Y-369160I168J1810D01*
G01X-157270D01*
X-125420Y-401010D01*
X-420D01*
X8990Y-410420D01*
Y-413490D01*
G03X8300Y-414340I1003J-1519D01*
G37*
G36*
G01X2920Y-426490D02*
X-12080Y-411490D01*
X-43490D01*
G03X-43600Y-411340I-1519J-999D01*
G02X-43450Y-411010I153J129D01*
G01X-7920D01*
X4580Y-423510D01*
X23490D01*
G03X26510I1510J1010D01*
G01X42920D01*
X47920Y-418510D01*
X150420D01*
X156010Y-412920D01*
Y-385420D01*
X162920Y-378510D01*
X225420D01*
X231010Y-372920D01*
Y-356710D01*
X231290Y-356430D01*
X231390Y-356440D01*
G03X233160Y-355650I258J1800D01*
G01X245790D01*
X290430Y-311010D01*
X327920D01*
X333510Y-305420D01*
Y-245420D01*
X335420Y-243510D01*
X375420D01*
X383150Y-235780D01*
Y-192360D01*
G03X381130I-1010J1510D01*
G01Y-234940D01*
X374580Y-241490D01*
X334580D01*
X331490Y-244580D01*
Y-304580D01*
X327080Y-308990D01*
X289590D01*
X244950Y-353630D01*
X233160D01*
G03X229850Y-354900I-1510J-1014D01*
G01X229860Y-355000D01*
X228990Y-355870D01*
Y-372080D01*
X224580Y-376490D01*
X162080D01*
X153990Y-384580D01*
Y-412080D01*
X149580Y-416490D01*
X47080D01*
X42080Y-421490D01*
X26510D01*
G03X23490I-1510J-1010D01*
G01X21930D01*
G02X21590Y-420890I5J399D01*
G03X21800Y-419740I-1591J885D01*
G01X21790Y-419640D01*
X25420Y-416010D01*
X147920D01*
X153510Y-410420D01*
Y-382920D01*
X160420Y-376010D01*
X220420D01*
X225750Y-370680D01*
Y-360060D01*
X226650Y-356710D01*
X226750Y-356670D01*
G03X227080Y-353470I-681J1687D01*
G01Y-349360D01*
X227930Y-348510D01*
X245420D01*
X287920Y-306010D01*
X322920D01*
X328510Y-300420D01*
Y-245420D01*
X335420Y-238510D01*
X372920D01*
X378490Y-232940D01*
Y-195440D01*
G03X378150Y-192240I-1012J1511D01*
G01X378060Y-192200D01*
X377890Y-191570D01*
Y-166980D01*
X377700Y-166790D01*
Y-148730D01*
X401010Y-125420D01*
Y-65420D01*
X406010Y-60420D01*
Y-40420D01*
X410420Y-36010D01*
X420420D01*
X426010Y-30420D01*
Y15990D01*
G03X423490Y18510I-1010J1510D01*
G01X400420D01*
X399550Y19380D01*
Y41380D01*
X396010Y44920D01*
Y107920D01*
X390420Y113510D01*
X375420D01*
X369960Y118970D01*
X369950Y119010D01*
G03X369450Y120550I-369876J-119238D01*
G02X370110Y120960I379J126D01*
G01X377080Y113990D01*
X392080D01*
X396490Y109580D01*
Y59580D01*
X403990Y52080D01*
Y27080D01*
X409580Y21490D01*
X425990D01*
G03X428390Y20910I1514J1009D01*
G02X428990Y20570I201J-345D01*
G01Y-39580D01*
X427080Y-41490D01*
X418080D01*
X416490Y-43080D01*
Y-45990D01*
G03Y-49010I1010J-1510D01*
G01Y-129580D01*
X393990Y-152080D01*
Y-309580D01*
X389580Y-313990D01*
X336900D01*
G02X336620Y-313310I5J400D01*
G01X339490Y-310440D01*
Y-247360D01*
G03X337470I-1010J1510D01*
G01Y-309600D01*
X333080Y-313990D01*
X289580D01*
X248990Y-354580D01*
Y-374580D01*
X243000Y-380570D01*
X166510D01*
X165880Y-380400D01*
X165840Y-380310D01*
G03X162350Y-381240I-1689J-675D01*
G01X162360Y-381340D01*
X156490Y-387210D01*
Y-414580D01*
X152080Y-418990D01*
X49580D01*
X42080Y-426490D01*
X2920D01*
G37*
G36*
G01X-4660Y388590D02*
X-8990Y392920D01*
Y420990D01*
G03X-8410Y423390I-1009J1514D01*
G02X-8070Y423990I345J201D01*
G01X-5420D01*
X-3510Y422080D01*
Y394580D01*
X1770Y389300D01*
G02X1490Y388620I-283J-281D01*
G03X-4580Y388590I-1114J-388618D01*
G01X-4660D01*
G37*
G36*
G01X365770Y139770D02*
G03X363600Y140330I-1443J-1109D01*
G02X363040Y140690I-161J365D01*
G01Y141610D01*
X366010Y144580D01*
Y174580D01*
X368510Y177080D01*
Y180420D01*
X366010Y182920D01*
Y217920D01*
X362430Y221500D01*
X354320D01*
G03X351300I-1510J-1010D01*
G01X342430D01*
X341010Y222920D01*
Y235420D01*
X337920Y238510D01*
X317920D01*
X296010Y260420D01*
Y297920D01*
X292920Y301010D01*
X261260D01*
G02X260920Y301620I1J401D01*
G03X257820I-1550J950D01*
G02X257480Y301010I-341J-209D01*
G01X245800D01*
X245750Y301060D01*
G03X243780Y302650I-245062J-301615D01*
G01X243770Y302660D01*
X239580Y306850D01*
G02X239920Y307530I281J284D01*
G03X238380Y309070I260J1800D01*
G02X237700Y308730I-396J-59D01*
G01X223510Y322920D01*
Y365410D01*
X217600Y371320D01*
X198520D01*
G03X195500I-1510J-1010D01*
G01X167610D01*
X162920Y376010D01*
X125420D01*
X110420Y391010D01*
X2920D01*
X-1490Y395420D01*
Y396810D01*
G02X-890Y397150I399J-5D01*
G03Y400330I890J1590D01*
G02X-1490Y400670I-201J345D01*
G01Y422920D01*
X-4580Y426010D01*
X-13490D01*
G03X-13600Y426160I-1519J-999D01*
G02X-13450Y426490I153J129D01*
G01X2080D01*
X3990Y424580D01*
Y397080D01*
X7080Y393990D01*
X17160D01*
X17650Y394480D01*
G02X18300Y394340I279J-284D01*
G03X21700I1700J660D01*
G02X22350Y394480I371J-144D01*
G01X22840Y393990D01*
X47160D01*
X47650Y394480D01*
G02X48300Y394340I279J-284D01*
G03X51700I1700J660D01*
G02X52350Y394480I371J-144D01*
G01X52840Y393990D01*
X57160D01*
X57650Y394480D01*
G02X58300Y394340I279J-284D01*
G03X61700I1700J660D01*
G02X62350Y394480I371J-144D01*
G01X62840Y393990D01*
X121320D01*
X123620Y391690D01*
X126880D01*
X137080Y381490D01*
X169580D01*
X177100Y373970D01*
X192420D01*
G03X195440I1510J1010D01*
G01X219600D01*
X228880Y364690D01*
Y324110D01*
X228990Y324000D01*
Y322080D01*
X234580Y316490D01*
X244580D01*
X254580Y306490D01*
X297080D01*
X298990Y304580D01*
Y264580D01*
X317080Y246490D01*
X342080D01*
X343990Y244580D01*
Y229660D01*
X346880Y225840D01*
X350840Y225280D01*
X350890Y225190D01*
G03X353990Y225060I1590J882D01*
G01X366010D01*
X371490Y219580D01*
Y175420D01*
X366490Y170420D01*
Y140010D01*
G02X365770Y139770I-400J1D01*
G37*
G36*
G01X11930Y-416490D02*
G02X11590Y-415890I5J399D01*
G03X11800Y-414740I-1591J885D01*
G01X11790Y-414640D01*
X20420Y-406010D01*
X140420D01*
X148510Y-397920D01*
Y-377920D01*
X155420Y-371010D01*
X210420D01*
X215920Y-365510D01*
Y-357160D01*
G03Y-354140I-1010J1510D01*
G01Y-345510D01*
X222920Y-338510D01*
X240420D01*
X280420Y-298510D01*
X307920D01*
X313510Y-292920D01*
Y-255420D01*
X318510Y-250420D01*
Y-235420D01*
X327920Y-226010D01*
X365420D01*
X369160Y-222270D01*
Y-201600D01*
G03X367890Y-198290I-1014J1510D01*
G01X367790Y-198300D01*
X363510Y-194020D01*
Y-158760D01*
G02X364120Y-158420I401J-1D01*
G03Y-155320I950J1550D01*
G02X363510Y-154980I-209J341D01*
G01Y-140410D01*
X386010Y-117910D01*
Y-44950D01*
G03X388190Y-18280I-386008J44976D01*
G02X388990Y-18290I400J-5D01*
G01Y-119580D01*
X368990Y-139580D01*
Y-194620D01*
X371020Y-196650D01*
X371010Y-196750D01*
G03X371800Y-198520I1800J-258D01*
G01Y-226770D01*
X367080Y-231490D01*
X329580D01*
X321490Y-239580D01*
Y-257080D01*
X316490Y-262080D01*
Y-294580D01*
X309580Y-301490D01*
X282080D01*
X242080Y-341490D01*
X224580D01*
X219480Y-346590D01*
Y-353800D01*
G03Y-356820I1010J-1510D01*
G01Y-366590D01*
X214580Y-371490D01*
X157080D01*
X148990Y-379580D01*
Y-407080D01*
X147080Y-408990D01*
X22080D01*
X15360Y-415710D01*
X15260Y-415700D01*
G03X13490Y-416490I-258J-1800D01*
G01X11930D01*
G37*
G36*
G01X147080Y-413990D02*
X24580D01*
X20360Y-418210D01*
X20260Y-418200D01*
G03X18490Y-418990I-258J-1800D01*
G01X16930D01*
G02X16590Y-418390I5J399D01*
G03X16800Y-417240I-1591J885D01*
G01X16790Y-417140D01*
X22920Y-411010D01*
X147920D01*
X151010Y-407920D01*
Y-380420D01*
X157920Y-373510D01*
X215420D01*
X221500Y-367430D01*
Y-356820D01*
G03Y-353800I-1010J1510D01*
G01Y-347430D01*
X225420Y-343510D01*
X242920D01*
X282920Y-303510D01*
X310420D01*
X318510Y-295420D01*
Y-262920D01*
X323510Y-257920D01*
Y-240420D01*
X330420Y-233510D01*
X367920D01*
X373820Y-227610D01*
Y-198520D01*
G03X372550Y-195210I-1014J1510D01*
G01X372450Y-195220D01*
X371010Y-193780D01*
Y-140420D01*
X391010Y-120420D01*
Y-64430D01*
G02X391610Y-64090I399J-5D01*
G03Y-60910I890J1590D01*
G02X391010Y-60570I-201J345D01*
G01Y-54430D01*
G02X391610Y-54090I399J-5D01*
G03Y-50910I890J1590D01*
G02X391010Y-50570I-201J345D01*
G01Y-24430D01*
G02X391610Y-24090I399J-5D01*
G03Y-20910I890J1590D01*
G02X391010Y-20570I-201J345D01*
G01Y-2920D01*
X392920Y-1010D01*
X394310D01*
G02X394650Y-1610I-5J-399D01*
G03X397830I1590J-890D01*
G02X398170Y-1010I345J201D01*
G01X417920D01*
X423510Y4580D01*
Y10990D01*
G03X423660Y11100I-999J1519D01*
G02X423990Y10950I129J-153D01*
G01Y-29580D01*
X419580Y-33990D01*
X409580D01*
X403990Y-39580D01*
Y-59580D01*
X398990Y-64580D01*
Y-124580D01*
X375680Y-147890D01*
Y-167630D01*
X375870Y-167820D01*
Y-191830D01*
X376110Y-192730D01*
X376050Y-192810D01*
G03X376470Y-195440I1432J-1120D01*
G01Y-232100D01*
X372080Y-236490D01*
X334580D01*
X326490Y-244580D01*
Y-299580D01*
X322080Y-303990D01*
X287080D01*
X244580Y-346490D01*
X227090D01*
X225060Y-348520D01*
Y-353470D01*
G03X224640Y-356100I1012J-1510D01*
G01X224700Y-356180D01*
X223730Y-359800D01*
Y-369840D01*
X219580Y-373990D01*
X159580D01*
X151490Y-382080D01*
Y-409580D01*
X147080Y-413990D01*
G37*
G36*
G01X227580Y316000D02*
G02X227060Y315390I-276J-292D01*
G03X216570Y322680I-226991J-315438D01*
G01X216480Y322740D01*
Y359960D01*
X209780Y366660D01*
X201600D01*
G03X198580I-1510J-1010D01*
G01X128790D01*
X128750Y366670D01*
G03X122730Y368730I-128825J-366644D01*
G01X122680Y368750D01*
X105420Y386010D01*
X44950D01*
G03X18280Y388190I-44976J-386008D01*
G02X18290Y388990I5J400D01*
G01X109580D01*
X124580Y373990D01*
X162080D01*
X166770Y369300D01*
X195500D01*
G03X198520I1510J1010D01*
G01X216760D01*
X221490Y364570D01*
Y326470D01*
G02X220780Y326220I-400J3D01*
G03Y323920I-1410J-1150D01*
G02X221490Y323670I310J-253D01*
G01Y322080D01*
X227580Y316000D01*
G37*
G36*
G01X81930Y-428990D02*
G02X81590Y-428390I5J399D01*
G03Y-426610I-1590J890D01*
G02X81930Y-426010I345J201D01*
G01X265420D01*
X270250Y-421180D01*
Y-349480D01*
G03X271040Y-347710I-1010J1512D01*
G01X271030Y-347610D01*
X292630Y-326010D01*
X395420D01*
X407150Y-314280D01*
Y-164770D01*
G03Y-161750I-1010J1510D01*
G01Y-151780D01*
X423510Y-135420D01*
Y-62920D01*
X427920Y-58510D01*
X437920D01*
X441010Y-55420D01*
Y47920D01*
X438510Y50420D01*
Y53490D01*
G03X437240Y56800I-1014J1510D01*
G01X437140Y56790D01*
X435420Y58510D01*
X430420D01*
X426010Y62920D01*
Y144580D01*
X431010Y149580D01*
Y257920D01*
X425420Y263510D01*
X410420D01*
X406180Y267750D01*
X342650D01*
G03X340880Y268540I-1512J-1010D01*
G01X340780Y268530D01*
X338680Y270630D01*
G02X338960Y271310I285J280D01*
G01X339290D01*
G03X342310I1510J1010D01*
G01X407260D01*
X412080Y266490D01*
X427080D01*
X431490Y262080D01*
Y147920D01*
X428790Y145220D01*
Y64780D01*
X432950Y60620D01*
X440450D01*
X440710Y60360D01*
X440700Y60260D01*
G03X442760Y58200I1800J-260D01*
G01X442860Y58210D01*
X443990Y57080D01*
Y-60340D01*
X440140Y-64190D01*
X426880D01*
X423990Y-67080D01*
Y-137080D01*
X409790Y-151280D01*
Y-158670D01*
G03Y-161690I1010J-1510D01*
G01Y-313780D01*
X394580Y-328990D01*
X292030D01*
X275180Y-345840D01*
X275080Y-345830D01*
G03X273810Y-349140I-256J-1800D01*
G01Y-422260D01*
X269580Y-426490D01*
X87080D01*
X84580Y-428990D01*
X81930D01*
G37*
G36*
G01X116870Y370630D02*
G03X64710Y383200I-116910J-370620D01*
G02X64770Y383990I71J392D01*
G01X104580D01*
X117280Y371290D01*
G02X116870Y370630I-285J-280D01*
G37*
G36*
G01X211990Y325710D02*
G03X136480Y363870I-211997J-325706D01*
G02X136620Y364640I146J371D01*
G01X155410D01*
G02X155670Y363940I-3J-399D01*
G03X158070I1200J-1370D01*
G02X158330Y364640I263J301D01*
G01X198580D01*
G03X201600I1510J1010D01*
G01X208940D01*
X214460Y359120D01*
Y326360D01*
G02X213900Y326000I-399J5D01*
G03X211990Y325710I-724J-1669D01*
G37*
G36*
G01X288290Y260600D02*
G03X254970Y293290I-288330J-260561D01*
G02X255230Y293990I261J301D01*
G01X284580D01*
X288990Y289580D01*
Y260870D01*
G02X288290Y260600I-401J-3D01*
G37*
G36*
G01X361850Y143270D02*
G02X361190Y143410I-284J285D01*
G03X360250Y145750I-361078J-143690D01*
G03X358890Y149090I-917J1574D01*
G03X358530Y149950I-358663J-149633D01*
G01X358510Y149990D01*
Y210980D01*
X354940Y214550D01*
X354950Y214650D01*
G03X352890Y216710I-1800J260D01*
G01X352790Y216700D01*
X350980Y218510D01*
X327920D01*
X314550Y231880D01*
G02X314870Y232560I282J283D01*
G03X313260Y234170I200J1810D01*
G02X312580Y233850I-397J-38D01*
G01X302660Y243770D01*
X302650Y243780D01*
G03X291060Y257510I-302679J-243746D01*
G01X291010Y257560D01*
Y290420D01*
X285420Y296010D01*
X251800D01*
X251740Y296060D01*
G03X249100Y298280I-251431J-296320D01*
G02X249360Y298990I257J308D01*
G01X292080D01*
X293990Y297080D01*
Y259580D01*
X317080Y236490D01*
X337080D01*
X338990Y234580D01*
Y222080D01*
X341590Y219480D01*
X351300D01*
G03X354320I1510J1010D01*
G01X361590D01*
X363990Y217080D01*
Y182080D01*
X366490Y179580D01*
Y177920D01*
X363990Y175420D01*
Y145420D01*
X361850Y143270D01*
G37*
G36*
G01X316000Y227580D02*
X327080Y216490D01*
X350140D01*
X351360Y215270D01*
X351350Y215170D01*
G03X353410Y213110I1800J-260D01*
G01X353510Y213120D01*
X356490Y210140D01*
Y156640D01*
G02X355720Y156480I-401J-2D01*
G03X349720Y169480I-355791J-156327D01*
G02X350080Y170050I360J171D01*
G03X348630Y172990I-13J1821D01*
G02X347960Y173060I-313J246D01*
G03X337850Y192040I-347918J-173141D01*
G02X338090Y192630I348J202D01*
G03X336320Y195690I-517J1743D01*
G02X335700Y195780I-274J293D01*
G03X315390Y227060I-335720J-195749D01*
G02X316000Y227580I318J244D01*
G37*
G36*
G01X366840Y109590D02*
X356010Y120420D01*
Y140790D01*
G02X356780Y140940I400J0D01*
G02X361020Y129700I-356758J-140998D01*
G01Y117550D01*
X367040Y111530D01*
G02X367500Y109990I-367330J-110561D01*
G02X366840Y109590I-381J-115D01*
G37*
G36*
G01X364090Y-135900D02*
G03X383200Y-64710I-364090J135895D01*
G02X383990Y-64770I392J-71D01*
G01Y-117070D01*
X364740Y-136320D01*
G02X364090Y-135900I-275J287D01*
G37*
G36*
G01X388620Y-1490D02*
G03X388500Y9490I-388617J1243D01*
G01Y9570D01*
X390000Y11070D01*
X394580Y6490D01*
X418490D01*
G03X420890Y5910I1514J1009D01*
G02X421490Y5570I201J-345D01*
G01Y5420D01*
X417080Y1010D01*
X392080D01*
X389300Y-1770D01*
G02X388620Y-1490I-281J283D01*
G37*
G36*
G01X388610Y12540D02*
X388410Y12740D01*
Y12810D01*
G03X384100Y59130I-388413J-12781D01*
G03X383750Y61320I-1600J867D01*
G03X383410Y63420I-383792J-61060D01*
G03X382840Y66790I-907J1580D01*
G03X373890Y105980I-382835J-66813D01*
G02X374270Y106490I385J110D01*
G01X384580D01*
X388990Y102080D01*
Y12920D01*
X388610Y12540D01*
G37*
G36*
G01X393990Y107080D02*
Y44080D01*
X395720Y42350D01*
G02X395580Y41700I-284J-279D01*
G03X396970Y38330I660J-1700D01*
G02X397530Y37970I161J-365D01*
G01Y18540D01*
X399580Y16490D01*
X423490D01*
G03X423990Y15990I1510J1010D01*
G01Y14430D01*
G02X423390Y14090I-399J5D01*
G03X420990Y13510I-886J-1589D01*
G01X397920D01*
X393510Y17920D01*
Y105420D01*
X387920Y111010D01*
X372430D01*
X372390Y111150D01*
G03X371750Y113260I-372209J-111746D01*
G02X372420Y113650I384J111D01*
G01X374580Y111490D01*
X389580D01*
X393990Y107080D01*
G37*
G36*
G01X391490Y104580D02*
Y17080D01*
X397080Y11490D01*
X420990D01*
G03X421490Y10990I1510J1010D01*
G01Y9430D01*
G02X420890Y9090I-399J5D01*
G03X418490Y8510I-886J-1589D01*
G01X395420D01*
X391010Y12920D01*
Y102920D01*
X385420Y108510D01*
X373160D01*
X373100Y108730D01*
G02X373290Y108990I191J60D01*
G01X387080D01*
X391490Y104580D01*
G37*
G36*
G01X363820Y121620D02*
G02X365250Y117240I-363942J-121245D01*
G02X364590Y116840I-380J-117D01*
G01X363040Y118390D01*
Y121500D01*
G02X363820Y121620I400J-3D01*
G37*
G36*
G01X366490Y131590D02*
G02X365710Y131450I-401J-8D01*
G03X363930Y136300I-365704J-131466D01*
G02X364310Y136840I376J139D01*
G03X365770Y137550I18J1819D01*
G02X366490Y137310I320J-241D01*
G01Y131590D01*
G37*
%LPC*%
G75*
G36*
G01X285520Y0D02*
G02I-285520J0D01*
G37*
G54D18*
X-192500Y412500D03*
G54D21*
X-325860Y-107310D03*
X-335860Y-70000D03*
Y-60000D03*
Y-50000D03*
Y-40000D03*
Y-10000D03*
Y-30000D03*
Y-20000D03*
Y0D03*
Y10000D03*
Y20000D03*
Y30000D03*
Y40000D03*
Y50000D03*
Y60000D03*
Y70000D03*
X-325860Y107310D03*
X-295860Y-159270D03*
X-300860Y-150610D03*
X-305860Y-141950D03*
X-310860Y-133290D03*
X-315860Y-124630D03*
X-320860Y-115970D03*
Y115970D03*
X-315860Y124630D03*
X-310860Y133290D03*
X-305860Y141950D03*
X-300860Y150610D03*
X-295860Y159270D03*
X-265860Y-211230D03*
X-270860Y-202570D03*
X-275860Y-193910D03*
X-280860Y-185250D03*
X-285860Y-176590D03*
X-290860Y-167930D03*
Y167930D03*
X-285860Y176590D03*
X-280860Y185250D03*
X-275860Y193910D03*
X-270860Y202570D03*
X-265860Y211230D03*
X-255860Y-228550D03*
X-260860Y-219890D03*
Y219890D03*
X-255860Y228550D03*
X-211230Y-265860D03*
X-219890Y-260860D03*
X-228550Y-255860D03*
Y255860D03*
X-219890Y260860D03*
X-211230Y265860D03*
X-176590Y-285860D03*
X-185250Y-280860D03*
X-193910Y-275860D03*
X-202570Y-270860D03*
Y270860D03*
X-176590Y285860D03*
X-193910Y275860D03*
X-185250Y280860D03*
X-150610Y-300860D03*
X-159270Y-295860D03*
X-167930Y-290860D03*
Y290860D03*
X-159270Y295860D03*
X-150610Y300860D03*
X-115970Y-320860D03*
X-124630Y-315860D03*
X-133290Y-310860D03*
X-141950Y-305860D03*
Y305860D03*
X-133290Y310860D03*
X-124630Y315860D03*
X-115970Y320860D03*
X-107310Y-325860D03*
Y325860D03*
X-60000Y-335860D03*
X-70000D03*
Y335860D03*
X-60000D03*
X-30000Y-335860D03*
X-40000D03*
X-50000D03*
Y335860D03*
X-40000D03*
X-30000D03*
X0Y-335860D03*
X-10000D03*
X-20000D03*
X-10000Y335860D03*
X0D03*
X-20000D03*
X10000Y-335860D03*
X30000D03*
X20000D03*
X10000Y335860D03*
X20000D03*
X30000D03*
X60000Y-335860D03*
X50000D03*
X40000D03*
Y335860D03*
X50000D03*
X60000D03*
X70000Y-335860D03*
Y335860D03*
X115970Y-320860D03*
X107310Y-325860D03*
Y325860D03*
X115970Y320860D03*
X150610Y-300860D03*
X141950Y-305860D03*
X133290Y-310860D03*
X124630Y-315860D03*
X150610Y300860D03*
X124630Y315860D03*
X133290Y310860D03*
X141950Y305860D03*
X176590Y-285860D03*
X167930Y-290860D03*
X159270Y-295860D03*
Y295860D03*
X167930Y290860D03*
X176590Y285860D03*
X202570Y-270860D03*
X193910Y-275860D03*
X185250Y-280860D03*
X211230Y-265860D03*
Y265860D03*
X202570Y270860D03*
X185250Y280860D03*
X193910Y275860D03*
X228550Y-255860D03*
X219890Y-260860D03*
Y260860D03*
X228550Y255860D03*
X265860Y-211230D03*
X260860Y-219890D03*
X255860Y-228550D03*
X270860Y-202570D03*
Y202570D03*
X255860Y228550D03*
X260860Y219890D03*
X265860Y211230D03*
X280860Y-185250D03*
X275860Y-193910D03*
X295860Y-159270D03*
X290860Y-167930D03*
X285860Y-176590D03*
X300860Y-150610D03*
Y150610D03*
X285860Y176590D03*
X290860Y167930D03*
X295860Y159270D03*
X275860Y193910D03*
X280860Y185250D03*
X315860Y-124630D03*
X310860Y-133290D03*
X305860Y-141950D03*
X325860Y-107310D03*
X320860Y-115970D03*
Y115970D03*
X325860Y107310D03*
X305860Y141950D03*
X310860Y133290D03*
X315860Y124630D03*
X335860Y-70000D03*
Y-40000D03*
Y-50000D03*
Y-60000D03*
Y-10000D03*
Y-20000D03*
Y-30000D03*
Y10000D03*
Y0D03*
Y20000D03*
Y50000D03*
Y40000D03*
Y30000D03*
Y70000D03*
Y60000D03*
G54D19*
X-391240Y0D03*
X-259370Y-305070D03*
X-329020Y-143480D03*
X-344020Y-117500D03*
X-354350Y25000D03*
X-352500Y0D03*
Y40000D03*
Y70000D03*
X-349020Y111520D03*
X-334020Y137500D03*
X-306520Y-177500D03*
X-320620Y-155930D03*
X-298750Y-86000D03*
X-311250Y-91680D03*
X-302500Y72500D03*
X-317500Y75000D03*
X-311520Y177500D03*
X-326520Y151520D03*
X-281520Y-217500D03*
X-291520Y-203480D03*
X-298120Y200920D03*
X-289020Y214020D03*
X-274020Y240000D03*
X-266520Y-243480D03*
X-240000Y-271520D03*
X-243480Y269020D03*
X-214020Y-286520D03*
X-216500Y-226250D03*
X-223320Y-238750D03*
X-223750Y216490D03*
X-236250Y223320D03*
X-217500Y284020D03*
X-200920Y-295620D03*
X-203480Y291520D03*
X-151520Y-324020D03*
X-177500Y-309020D03*
X-155930Y320620D03*
X-177500Y306520D03*
X-137500Y-331520D03*
X-140980Y329020D03*
X-111520Y-346520D03*
X-91010Y298750D03*
X-94180Y311250D03*
X-115000Y344020D03*
X-70000Y-352500D03*
X-72500Y-305000D03*
X-75000Y-317500D03*
Y360000D03*
X-40000Y-352500D03*
X-30000Y360000D03*
X-45000D03*
X-25000Y-354350D03*
X0Y-352500D03*
Y360000D03*
X30000Y-352500D03*
X25000Y361850D03*
X47500Y-352500D03*
X40000Y360000D03*
X77500Y-352500D03*
X91000Y-301250D03*
X72500Y305000D03*
X75000Y317500D03*
X70000Y360000D03*
X112500Y-341520D03*
X94180Y-313750D03*
X111520Y344020D03*
X138480Y-326520D03*
X137500Y329020D03*
X153430Y-320620D03*
X175000Y-306520D03*
X177500Y306520D03*
X151520Y321520D03*
X200980Y-291520D03*
X200920Y293120D03*
X215000Y-284020D03*
X240980Y-269020D03*
X228750Y-214000D03*
X238750Y-223320D03*
X213990Y228750D03*
X223320Y238750D03*
X214020Y284020D03*
X240000Y269020D03*
X266520Y240980D03*
X274020Y-237500D03*
X298120Y-200920D03*
X289020Y-211520D03*
X301250Y86010D03*
X289020Y200980D03*
X281520Y215000D03*
X303120Y-192260D03*
X309020Y-177500D03*
X324020Y-151520D03*
X302500Y-75000D03*
X317500Y-77500D03*
X313750Y89180D03*
X324020Y138480D03*
X318120Y153430D03*
X304020Y175000D03*
X331520Y-137500D03*
X346520Y-111520D03*
X357500Y-72500D03*
Y-42500D03*
X359350Y-27500D03*
X357500Y-2500D03*
Y27500D03*
Y40000D03*
Y70000D03*
X339020Y112500D03*
X-309330Y248840D03*
X-307570Y259370D03*
X-345070Y196870D03*
X-340070Y-196870D03*
X-165000Y392500D03*
Y410000D03*
Y417500D03*
X-170000Y392500D03*
Y402500D03*
Y417500D03*
Y425000D03*
X-240180Y-311830D03*
X-248840Y-306830D03*
X-235850Y-314330D03*
X-219370Y-327570D03*
X-196870Y-342570D03*
X-60000Y-387500D03*
X-70000Y-391240D03*
X0D03*
X-25000D03*
X47500D03*
X138660Y-366830D03*
X131870Y-375070D03*
X171870Y-352570D03*
X194370Y-340070D03*
X234370Y-317570D03*
X309330Y-246340D03*
X307570Y-256870D03*
X329330Y-213170D03*
X330070Y-219370D03*
X342570Y-196870D03*
X248840Y304330D03*
X396240Y-72500D03*
Y-27500D03*
X196870Y340070D03*
G54D20*
X-290000Y380000D03*
X-280000D03*
X-270000D03*
%LPD*%
G75*
G36*
G01X-309460Y-101380D02*
X-303740Y-98080D01*
X-300540Y-103620D01*
X-306260Y-106920D01*
X-309460Y-101380D01*
G37*
G36*
G01X-320800Y65700D02*
X-314200D01*
Y59300D01*
X-320800D01*
Y65700D01*
G37*
G36*
G01X-243760Y216920D02*
X-238040Y213620D01*
X-241240Y208080D01*
X-246960Y211380D01*
X-243760Y216920D01*
G37*
G36*
G01X-216920Y-246260D02*
X-213620Y-240540D01*
X-208080Y-243740D01*
X-211380Y-249460D01*
X-216920Y-246260D01*
G37*
G36*
G01X-65700Y-320800D02*
Y-314200D01*
X-59300D01*
Y-320800D01*
X-65700D01*
G37*
G36*
G01X65700Y320800D02*
Y314200D01*
X59300D01*
Y320800D01*
X65700D01*
G37*
G36*
G01X103880Y-311960D02*
X100580Y-306240D01*
X106120Y-303040D01*
X109420Y-308760D01*
X103880Y-311960D01*
G37*
G36*
G01X216920Y246260D02*
X213620Y240540D01*
X208080Y243740D01*
X211380Y249460D01*
X216920Y246260D01*
G37*
G36*
G01X246260Y-216920D02*
X240540Y-213620D01*
X243740Y-208080D01*
X249460Y-211380D01*
X246260Y-216920D01*
G37*
G36*
G01X320800Y-68200D02*
X314200D01*
Y-61800D01*
X320800D01*
Y-68200D01*
G37*
G36*
G01X311960Y98880D02*
X306240Y95580D01*
X303040Y101120D01*
X308760Y104420D01*
X311960Y98880D01*
G37*
G54D10*
X-435000Y-435000D03*
Y435000D03*
X-400000Y-400000D03*
Y400000D03*
X-242500Y412500D03*
X-192500D03*
X-107500Y435000D03*
X400000Y-400000D03*
Y400000D03*
X435000Y-435000D03*
Y435000D03*
G54D11*
X-422320Y-340180D03*
D03*
X-427630Y-334870D03*
D03*
X-435000Y-305000D03*
D03*
X-445000D03*
D03*
X-422320Y-327680D03*
D03*
X-427630Y-322370D03*
D03*
X-432930Y-317070D03*
D03*
X-438230Y-311770D03*
D03*
X-422930Y-317070D03*
D03*
X-428230Y-311770D03*
D03*
X-423230Y-306770D03*
D03*
X-432930Y-329570D03*
D03*
X-438230Y-324270D03*
D03*
X-435000Y-297500D03*
D03*
Y-275000D03*
D03*
Y-282500D03*
D03*
Y-290000D03*
D03*
X-440000Y-275000D03*
D03*
Y-282500D03*
D03*
Y-290000D03*
D03*
Y-297500D03*
D03*
X-445000Y-275000D03*
D03*
Y-282500D03*
D03*
Y-290000D03*
D03*
Y-297500D03*
D03*
X-430000Y-275000D03*
D03*
Y-282500D03*
D03*
Y-290000D03*
D03*
Y-297500D03*
D03*
X-435000Y-267500D03*
D03*
Y-245000D03*
D03*
Y-252500D03*
D03*
Y-260000D03*
D03*
X-440000Y-245000D03*
D03*
Y-252500D03*
D03*
Y-260000D03*
D03*
Y-267500D03*
D03*
X-445000Y-245000D03*
D03*
Y-252500D03*
D03*
Y-260000D03*
D03*
Y-267500D03*
D03*
X-430000Y-245000D03*
D03*
Y-252500D03*
D03*
Y-260000D03*
D03*
Y-267500D03*
D03*
X-435000Y-237500D03*
D03*
Y-215000D03*
D03*
Y-222500D03*
D03*
Y-230000D03*
D03*
X-440000Y-215000D03*
D03*
Y-222500D03*
D03*
Y-230000D03*
D03*
Y-237500D03*
D03*
X-445000Y-215000D03*
D03*
Y-222500D03*
D03*
Y-230000D03*
D03*
Y-237500D03*
D03*
X-430000Y-215000D03*
D03*
Y-222500D03*
D03*
Y-230000D03*
D03*
Y-237500D03*
D03*
X-445000Y-200000D03*
D03*
Y-185000D03*
D03*
Y-192500D03*
D03*
Y-207500D03*
D03*
X-440000D03*
D03*
Y-185000D03*
D03*
Y-192500D03*
D03*
Y-200000D03*
D03*
X-435000D03*
D03*
Y-185000D03*
D03*
Y-192500D03*
D03*
Y-207500D03*
D03*
X-430000Y-185000D03*
D03*
Y-192500D03*
D03*
Y-200000D03*
D03*
Y-207500D03*
D03*
X-422500Y-185000D03*
D03*
X-445000Y-170000D03*
D03*
Y-155000D03*
D03*
Y-162500D03*
D03*
Y-177500D03*
D03*
X-440000D03*
D03*
Y-155000D03*
D03*
Y-162500D03*
D03*
Y-170000D03*
D03*
X-435000D03*
D03*
Y-155000D03*
D03*
Y-162500D03*
D03*
Y-177500D03*
D03*
X-427500Y-170000D03*
D03*
X-420000D03*
D03*
X-425000Y-175000D03*
D03*
X-420000D03*
D03*
X-445000Y-140000D03*
D03*
Y-125000D03*
D03*
Y-132500D03*
D03*
Y-147500D03*
D03*
X-440000D03*
D03*
Y-125000D03*
D03*
Y-132500D03*
D03*
Y-140000D03*
D03*
X-435000D03*
D03*
Y-125000D03*
D03*
Y-132500D03*
D03*
Y-147500D03*
D03*
X-445000Y-95000D03*
D03*
Y-102500D03*
D03*
Y-110000D03*
D03*
Y-117500D03*
D03*
X-440000Y-95000D03*
D03*
Y-102500D03*
D03*
Y-110000D03*
D03*
Y-117500D03*
D03*
X-435000Y-110000D03*
D03*
Y-95000D03*
D03*
Y-102500D03*
D03*
Y-117500D03*
D03*
X-432500Y-65000D03*
D03*
X-435000Y-70000D03*
D03*
X-445000Y-87500D03*
D03*
Y-65000D03*
D03*
Y-72500D03*
D03*
Y-80000D03*
D03*
X-440000Y-65000D03*
D03*
Y-72500D03*
D03*
Y-80000D03*
D03*
Y-87500D03*
D03*
X-435000Y-80000D03*
D03*
Y-87500D03*
D03*
X-427500Y-55000D03*
D03*
X-430000Y-60000D03*
D03*
X-445000Y-57500D03*
D03*
Y-35000D03*
D03*
Y-42500D03*
D03*
Y-50000D03*
D03*
X-440000Y-35000D03*
D03*
Y-42500D03*
D03*
Y-50000D03*
D03*
Y-57500D03*
D03*
X-435000D03*
D03*
Y-35000D03*
D03*
Y-42500D03*
D03*
Y-50000D03*
D03*
X-420000Y-20000D03*
D03*
X-422500Y-25000D03*
D03*
X-445000Y-27500D03*
D03*
Y-5000D03*
D03*
Y-12500D03*
D03*
Y-20000D03*
D03*
X-440000Y-5000D03*
D03*
Y-12500D03*
D03*
Y-20000D03*
D03*
Y-27500D03*
D03*
X-435000D03*
D03*
Y-5000D03*
D03*
Y-12500D03*
D03*
Y-20000D03*
D03*
X-445000Y2500D03*
D03*
Y25000D03*
D03*
Y17500D03*
D03*
Y10000D03*
D03*
X-440000Y25000D03*
D03*
Y17500D03*
D03*
Y10000D03*
D03*
Y2500D03*
D03*
X-435000D03*
D03*
Y25000D03*
D03*
Y17500D03*
D03*
Y10000D03*
D03*
X-445000Y55000D03*
D03*
Y47500D03*
D03*
Y40000D03*
D03*
Y32500D03*
D03*
X-440000Y47500D03*
D03*
Y55000D03*
D03*
Y40000D03*
D03*
Y32500D03*
D03*
X-435000D03*
D03*
Y55000D03*
D03*
Y47500D03*
D03*
Y40000D03*
D03*
X-420000Y52500D03*
D03*
X-425000Y47500D03*
D03*
X-445000Y85000D03*
D03*
Y77500D03*
D03*
Y70000D03*
D03*
Y62500D03*
D03*
X-440000Y77500D03*
D03*
Y85000D03*
D03*
Y70000D03*
D03*
Y62500D03*
D03*
X-435000Y85000D03*
D03*
Y77500D03*
D03*
Y70000D03*
D03*
Y62500D03*
D03*
X-445000Y115000D03*
D03*
Y107500D03*
D03*
Y100000D03*
D03*
Y92500D03*
D03*
X-440000Y107500D03*
D03*
Y115000D03*
D03*
Y100000D03*
D03*
Y92500D03*
D03*
X-435000Y115000D03*
D03*
Y107500D03*
D03*
Y100000D03*
D03*
Y92500D03*
D03*
X-445000Y145000D03*
D03*
Y137500D03*
D03*
Y130000D03*
D03*
Y122500D03*
D03*
X-440000Y137500D03*
D03*
Y145000D03*
D03*
Y130000D03*
D03*
Y122500D03*
D03*
X-435000Y145000D03*
D03*
Y137500D03*
D03*
Y130000D03*
D03*
Y122500D03*
D03*
X-445000Y175000D03*
D03*
Y167500D03*
D03*
Y160000D03*
D03*
Y152500D03*
D03*
X-440000Y175000D03*
D03*
Y167500D03*
D03*
Y160000D03*
D03*
Y152500D03*
D03*
X-435000Y175000D03*
D03*
Y167500D03*
D03*
Y160000D03*
D03*
Y152500D03*
D03*
X-445000Y197500D03*
D03*
Y205000D03*
D03*
Y190000D03*
D03*
Y182500D03*
D03*
X-440000Y190000D03*
D03*
Y205000D03*
D03*
Y197500D03*
D03*
Y182500D03*
D03*
X-435000Y205000D03*
D03*
Y197500D03*
D03*
Y190000D03*
D03*
Y182500D03*
D03*
X-445000Y227500D03*
D03*
Y235000D03*
D03*
Y220000D03*
D03*
Y212500D03*
D03*
X-440000Y220000D03*
D03*
Y235000D03*
D03*
Y227500D03*
D03*
Y212500D03*
D03*
X-432500Y237500D03*
D03*
X-425000D03*
D03*
X-435000Y227500D03*
D03*
Y220000D03*
D03*
Y212500D03*
D03*
X-445000Y257500D03*
D03*
Y265000D03*
D03*
Y250000D03*
D03*
Y242500D03*
D03*
X-440000Y250000D03*
D03*
Y265000D03*
D03*
Y257500D03*
D03*
Y242500D03*
D03*
X-432500D03*
D03*
X-425000D03*
D03*
X-445000Y287500D03*
D03*
Y295000D03*
D03*
Y280000D03*
D03*
Y272500D03*
D03*
X-440000Y280000D03*
D03*
Y295000D03*
D03*
Y287500D03*
D03*
Y272500D03*
D03*
X-445000Y317500D03*
D03*
Y310000D03*
D03*
Y302500D03*
D03*
X-440000Y310000D03*
D03*
Y302500D03*
D03*
Y325000D03*
D03*
X-430000D03*
D03*
X-435000Y320000D03*
D03*
X-420460Y334540D03*
D03*
X-420160Y344840D03*
D03*
X-425460Y339540D03*
D03*
X-430000Y335000D03*
D03*
X-435000Y330000D03*
D03*
X-425000D03*
D03*
X-390500Y-372000D03*
D03*
X-395810Y-366690D03*
D03*
X-401110Y-348890D03*
D03*
X-406410Y-343590D03*
D03*
X-411720Y-338280D03*
D03*
X-417020Y-332980D03*
D03*
X-390500Y-359500D03*
D03*
X-395810Y-354190D03*
D03*
X-391110Y-348890D03*
D03*
X-396410Y-343590D03*
D03*
X-401720Y-338280D03*
D03*
X-407020Y-332980D03*
D03*
X-391410Y-338590D03*
D03*
X-396720Y-333280D03*
D03*
X-401110Y-361390D03*
D03*
X-406410Y-356090D03*
D03*
X-411720Y-350780D03*
D03*
X-417020Y-345480D03*
D03*
X-412320Y-327680D03*
D03*
X-417630Y-322370D03*
D03*
X-407320Y-322680D03*
D03*
X-412630Y-317370D03*
D03*
X-417930Y-312070D03*
D03*
X-402020Y-327980D03*
D03*
X-402320Y-317680D03*
D03*
X-407630Y-312370D03*
D03*
X-412930Y-307070D03*
D03*
X-391720Y-328280D03*
D03*
X-397020Y-322980D03*
D03*
X-418230Y-301770D03*
D03*
X-417500Y-182500D03*
D03*
X-412500Y-170000D03*
D03*
X-405000Y-175000D03*
D03*
X-412500Y-180000D03*
D03*
X-392500Y-160000D03*
D03*
X-405000Y-165000D03*
D03*
X-391490Y-143750D03*
D03*
X-397500Y-80000D03*
D03*
X-391240Y-45000D03*
D03*
X-397500Y-50000D03*
D03*
Y-35000D03*
D03*
X-407500Y-42500D03*
D03*
X-417500Y-15000D03*
D03*
X-415000Y-10000D03*
D03*
X-397500Y-5000D03*
D03*
X-391240Y0D03*
D03*
Y25000D03*
D03*
X-397500Y10000D03*
D03*
X-407500Y2500D03*
D03*
Y25000D03*
D03*
X-412500Y45000D03*
D03*
X-397500Y35000D03*
D03*
Y52500D03*
D03*
X-405000Y47500D03*
D03*
X-400000D03*
D03*
X-395000D03*
D03*
X-391240Y70000D03*
D03*
X-397500Y65000D03*
D03*
X-407500Y72500D03*
D03*
X-390490Y129690D03*
D03*
X-403970Y166340D03*
D03*
X-408640Y163260D03*
D03*
X-413300Y160180D03*
D03*
X-417970Y157100D03*
D03*
X-400000Y237500D03*
D03*
X-392500D03*
D03*
X-400000Y242500D03*
D03*
X-392500D03*
D03*
X-409850Y345150D03*
D03*
X-399250Y355750D03*
D03*
X-404550Y350450D03*
D03*
X-415160Y339840D03*
D03*
X-414850Y350150D03*
D03*
X-409550Y355450D03*
D03*
X-388640Y366360D03*
D03*
X-393940Y361060D03*
D03*
X-393640Y371360D03*
D03*
X-398940Y366060D03*
D03*
X-404250Y360750D03*
D03*
X-358680Y-403820D03*
D03*
X-363990Y-398510D03*
D03*
X-369290Y-393210D03*
D03*
X-379900Y-370100D03*
D03*
X-385200Y-364800D03*
D03*
X-358680Y-391320D03*
D03*
X-363990Y-386010D03*
D03*
X-369290Y-380710D03*
D03*
X-374590Y-375410D03*
D03*
X-369900Y-370100D03*
D03*
X-375200Y-364800D03*
D03*
X-359290Y-380710D03*
D03*
X-364590Y-375410D03*
D03*
X-364900Y-365100D03*
D03*
X-359590Y-370410D03*
D03*
X-379900Y-382600D03*
D03*
X-385200Y-377300D03*
D03*
X-374590Y-387910D03*
D03*
X-380500Y-359500D03*
D03*
X-385810Y-354190D03*
D03*
X-386110Y-343890D03*
D03*
X-370200Y-359800D03*
D03*
X-375500Y-354500D03*
D03*
X-380810Y-349190D03*
D03*
X-381110Y-338890D03*
D03*
X-386410Y-333590D03*
D03*
X-359900Y-360100D03*
D03*
X-365200Y-354800D03*
D03*
X-370500Y-349500D03*
D03*
X-375810Y-344190D03*
D03*
X-383480Y-169150D03*
D03*
X-365490Y-170310D03*
D03*
X-366490Y-181250D03*
D03*
X-387500Y-175000D03*
D03*
X-377500D03*
D03*
X-380000Y-160000D03*
D03*
X-364330Y-152320D03*
D03*
X-369330Y-143660D03*
D03*
X-377570Y-136870D03*
D03*
X-380490Y-144330D03*
D03*
X-380000Y-150000D03*
D03*
X-387500Y20000D03*
D03*
Y50000D03*
D03*
Y60000D03*
D03*
X-367570Y156870D03*
D03*
X-375490Y155670D03*
D03*
X-367990Y169690D03*
D03*
X-381490Y166250D03*
D03*
X-375310Y197010D03*
D03*
X-379980Y193930D03*
D03*
X-384640Y190850D03*
D03*
X-370650Y200090D03*
D03*
X-358990Y206250D03*
D03*
X-385000Y237500D03*
D03*
X-377500D03*
D03*
X-370000D03*
D03*
X-362500D03*
D03*
X-377500Y242500D03*
D03*
X-370000D03*
D03*
X-362500D03*
D03*
X-385000D03*
D03*
X-367430Y387570D03*
D03*
X-372730Y382270D03*
D03*
X-378030Y376970D03*
D03*
X-383340Y371660D03*
D03*
X-377730Y387270D03*
D03*
X-383030Y381970D03*
D03*
X-388340Y376660D03*
D03*
X-362120Y392880D03*
D03*
X-372430Y392570D03*
D03*
X-361820Y403180D03*
D03*
X-367120Y397880D03*
D03*
X-342770Y-407230D03*
D03*
X-348080Y-401920D03*
D03*
X-353380Y-396620D03*
D03*
X-332770Y-407230D03*
D03*
X-338080Y-401920D03*
D03*
X-343380Y-396620D03*
D03*
X-333080Y-396920D03*
D03*
X-342770Y-419730D03*
D03*
X-348080Y-414420D03*
D03*
X-353380Y-409120D03*
D03*
X-330000Y-420000D03*
D03*
X-337500Y-412500D03*
D03*
X-348680Y-391320D03*
D03*
X-353990Y-386010D03*
D03*
X-343680Y-386320D03*
D03*
X-348990Y-381010D03*
D03*
X-354290Y-375710D03*
D03*
X-338380Y-391620D03*
D03*
X-338680Y-381320D03*
D03*
X-343990Y-376010D03*
D03*
X-349290Y-370710D03*
D03*
X-354590Y-365410D03*
D03*
X-333380Y-386620D03*
D03*
X-340800Y-274820D03*
D03*
X-340470Y-280400D03*
D03*
X-341470Y-263660D03*
D03*
X-341140Y-269240D03*
D03*
X-328990Y-243750D03*
D03*
X-355310Y-222990D03*
D03*
X-354980Y-228570D03*
D03*
X-354640Y-234150D03*
D03*
X-355650Y-217410D03*
D03*
X-340070Y-196870D03*
D03*
X-350490Y-190490D03*
D03*
X-342990Y-204330D03*
D03*
X-353990Y-203750D03*
D03*
X-352570Y-174370D03*
D03*
X-346830Y-176830D03*
D03*
X-329020Y-143480D03*
D03*
X-341520Y-121830D03*
D03*
X-344020Y-117500D03*
D03*
X-352500Y-75000D03*
D03*
Y-80000D03*
D03*
Y-45000D03*
D03*
Y-50000D03*
D03*
Y-35000D03*
D03*
Y-30000D03*
D03*
Y-5000D03*
D03*
X-354350Y25000D03*
D03*
X-352500Y0D03*
D03*
X-354350Y10000D03*
D03*
X-352500Y40000D03*
D03*
Y35000D03*
D03*
Y70000D03*
D03*
Y65000D03*
D03*
X-349020Y111520D03*
D03*
X-351520Y107190D03*
D03*
X-334020Y137500D03*
D03*
X-329020Y147190D03*
D03*
X-336520Y133170D03*
D03*
X-345070Y196870D03*
D03*
X-352990Y195670D03*
D03*
X-330070Y219370D03*
D03*
X-342990Y209510D03*
D03*
X-330490Y232190D03*
D03*
X-343990Y228750D03*
D03*
X-355000Y237500D03*
D03*
X-347500D03*
D03*
X-340000D03*
D03*
X-329330Y213170D03*
D03*
X-338480Y248350D03*
D03*
X-355000Y242500D03*
D03*
X-347500D03*
D03*
X-340000D03*
D03*
Y410000D03*
D03*
X-346210Y408790D03*
D03*
X-340910Y414090D03*
D03*
X-351520Y403480D03*
D03*
X-356820Y398180D03*
D03*
X-351210Y413790D03*
D03*
X-356520Y408480D03*
D03*
X-340000Y392500D03*
D03*
X-330300Y424700D03*
D03*
X-335610Y419390D03*
D03*
X-330000Y435000D03*
D03*
X-335300Y429700D03*
D03*
X-340610Y424390D03*
D03*
X-345910Y419090D03*
D03*
X-342500Y437500D03*
D03*
Y442500D03*
D03*
Y432500D03*
D03*
X-337500Y442500D03*
D03*
Y437500D03*
D03*
Y432500D03*
D03*
X-342500Y447500D03*
D03*
X-337500D03*
D03*
X-347500D03*
D03*
X-352500D03*
D03*
Y427500D03*
D03*
X-347500D03*
D03*
X-342500D03*
D03*
X-327770Y-402230D03*
D03*
X-322770Y-397230D03*
D03*
X-328080Y-391920D03*
D03*
X-315000Y-397500D03*
D03*
X-307500D03*
D03*
X-300000D03*
D03*
X-312500Y-405000D03*
D03*
X-302500D03*
D03*
X-307500Y-410000D03*
D03*
X-300000D03*
D03*
X-302500Y-415000D03*
D03*
X-320000Y-420000D03*
D03*
X-310000D03*
D03*
X-320000Y-410000D03*
D03*
X-325000Y-415000D03*
D03*
X-315000D03*
D03*
X-317990Y-244330D03*
D03*
X-302990Y-270310D03*
D03*
X-315070Y-236870D03*
D03*
X-327990Y-230310D03*
D03*
X-304020Y-181830D03*
D03*
X-306520Y-177500D03*
D03*
X-320620Y-155930D03*
D03*
X-313120Y-168920D03*
D03*
X-326520Y-147810D03*
D03*
X-298750Y-86000D03*
D03*
X-311250Y-91680D03*
D03*
X-317500Y50000D03*
D03*
X-302500Y57500D03*
D03*
Y72500D03*
D03*
X-317500Y75000D03*
D03*
X-311520Y177500D03*
D03*
X-326520Y151520D03*
D03*
X-314020Y173170D03*
D03*
X-305620Y187930D03*
D03*
X-309330Y248840D03*
D03*
X-307570Y259370D03*
D03*
X-315490Y258170D03*
D03*
X-314330Y240180D03*
D03*
X-321490Y268750D03*
D03*
X-325000Y387500D03*
D03*
X-302500Y390000D03*
D03*
X-312500Y392500D03*
D03*
X-325000Y412500D03*
D03*
X-312500D03*
D03*
X-302500Y410000D03*
D03*
X-325000Y442500D03*
D03*
X-317500D03*
D03*
X-310000D03*
D03*
X-302500D03*
D03*
X-317500Y437500D03*
D03*
X-310000D03*
D03*
X-302500D03*
D03*
X-325000Y430000D03*
D03*
X-280000Y-497500D03*
D03*
X-270000D03*
D03*
X-275000Y-492500D03*
D03*
X-280000D03*
D03*
X-275000Y-487500D03*
D03*
X-280000D03*
D03*
X-270000Y-505000D03*
D03*
X-277500D03*
D03*
X-282500Y-457500D03*
D03*
Y-467500D03*
D03*
Y-427500D03*
D03*
Y-435000D03*
D03*
X-277500Y-427500D03*
D03*
Y-435000D03*
D03*
Y-442500D03*
D03*
X-272500Y-427500D03*
D03*
Y-435000D03*
D03*
Y-442500D03*
D03*
X-282500Y-447500D03*
D03*
X-292500Y-397500D03*
D03*
X-285000D03*
D03*
X-295000Y-405000D03*
D03*
X-287500D03*
D03*
X-292500Y-410000D03*
D03*
X-295000Y-415000D03*
D03*
X-272500Y-420000D03*
D03*
Y-412500D03*
D03*
X-277500Y-407500D03*
D03*
X-287500Y-417500D03*
D03*
X-268750Y-318990D03*
D03*
X-281520Y-217500D03*
D03*
X-279020Y-221830D03*
D03*
X-291520Y-203480D03*
D03*
X-289020Y-207810D03*
D03*
X-297380Y-115700D03*
D03*
X-288660Y-103480D03*
D03*
X-298120Y200920D03*
D03*
X-289020Y214020D03*
D03*
X-291520Y209690D03*
D03*
X-276520Y235670D03*
D03*
X-274020Y240000D03*
D03*
X-270310Y305490D03*
D03*
X-269240Y343640D03*
D03*
X-274820Y343300D03*
D03*
X-280400Y342970D03*
D03*
X-277500Y390000D03*
D03*
X-290000D03*
D03*
X-277500Y407500D03*
D03*
X-290000Y415000D03*
D03*
X-295000Y442500D03*
D03*
X-287500D03*
D03*
X-280000D03*
D03*
X-272500D03*
D03*
X-295000Y437500D03*
D03*
X-287500D03*
D03*
X-280000D03*
D03*
X-272500D03*
D03*
X-255000Y-505000D03*
D03*
X-262500D03*
D03*
X-240000D03*
D03*
X-247500D03*
D03*
Y-497500D03*
D03*
X-262500D03*
D03*
X-255000D03*
D03*
X-240000D03*
D03*
X-247500Y-492500D03*
D03*
X-240000D03*
D03*
Y-487500D03*
D03*
Y-482500D03*
D03*
X-257500Y-462500D03*
D03*
X-252500Y-467500D03*
D03*
X-247500Y-472500D03*
D03*
X-240000Y-477500D03*
D03*
X-267500Y-427500D03*
D03*
Y-435000D03*
D03*
Y-442500D03*
D03*
Y-450000D03*
D03*
X-262500Y-427500D03*
D03*
Y-435000D03*
D03*
Y-442500D03*
D03*
Y-450000D03*
D03*
X-267500Y-397500D03*
D03*
Y-405000D03*
D03*
Y-412500D03*
D03*
Y-420000D03*
D03*
X-262500Y-397500D03*
D03*
Y-405000D03*
D03*
Y-412500D03*
D03*
Y-420000D03*
D03*
X-267500Y-367500D03*
D03*
Y-375000D03*
D03*
Y-382500D03*
D03*
Y-390000D03*
D03*
X-262500Y-367500D03*
D03*
Y-375000D03*
D03*
Y-382500D03*
D03*
Y-390000D03*
D03*
X-242500Y-372500D03*
D03*
X-247500Y-367500D03*
D03*
X-252500Y-362500D03*
D03*
X-240000Y-385000D03*
D03*
X-245000Y-380000D03*
D03*
X-250000Y-375000D03*
D03*
X-255000Y-370000D03*
D03*
X-260000Y-365000D03*
D03*
X-248350Y-335980D03*
D03*
X-267500Y-360000D03*
D03*
X-265000Y-332500D03*
D03*
X-257500Y-357500D03*
D03*
X-262500Y-352500D03*
D03*
X-260000Y-342500D03*
D03*
X-257500Y-337500D03*
D03*
X-248840Y-306830D03*
D03*
X-259370Y-305070D03*
D03*
X-258170Y-312990D03*
D03*
X-240180Y-311830D03*
D03*
X-266520Y-243480D03*
D03*
X-240000Y-271520D03*
D03*
X-264020Y-247810D03*
D03*
X-250120Y199300D03*
D03*
X-247810Y266520D03*
D03*
X-243480Y269020D03*
D03*
X-244330Y320490D03*
D03*
X-263660Y343970D03*
D03*
X-243750Y331490D03*
D03*
X-239030Y392810D03*
D03*
X-242500Y392500D03*
D03*
X-245970Y392800D03*
D03*
X-249340Y393710D03*
D03*
X-252500Y395180D03*
D03*
X-255360Y397180D03*
D03*
X-257820Y399640D03*
D03*
X-259820Y402500D03*
D03*
X-261290Y405660D03*
D03*
X-262200Y409030D03*
D03*
Y415970D03*
D03*
X-262500Y412500D03*
D03*
X-265000Y442500D03*
D03*
X-257500D03*
D03*
X-250000D03*
D03*
X-242500D03*
D03*
X-265000Y437500D03*
D03*
X-257500D03*
D03*
X-250000D03*
D03*
X-242500D03*
D03*
X-239030Y432200D03*
D03*
X-242500Y432500D03*
D03*
X-245970Y432200D03*
D03*
X-249340Y431290D03*
D03*
X-252500Y429820D03*
D03*
X-255360Y427820D03*
D03*
X-257820Y425360D03*
D03*
X-259820Y422500D03*
D03*
X-261290Y419340D03*
D03*
X-225000Y-505000D03*
D03*
X-232500D03*
D03*
X-210000D03*
D03*
X-217500D03*
D03*
Y-497500D03*
D03*
X-232500D03*
D03*
X-225000D03*
D03*
X-210000D03*
D03*
X-217500Y-492500D03*
D03*
X-232500D03*
D03*
X-225000D03*
D03*
X-210000D03*
D03*
X-217500Y-487500D03*
D03*
X-232500D03*
D03*
X-225000D03*
D03*
X-210000D03*
D03*
Y-482500D03*
D03*
X-225000D03*
D03*
X-232500D03*
D03*
X-217500D03*
D03*
X-210000Y-477500D03*
D03*
X-217500D03*
D03*
X-225000D03*
D03*
X-232500D03*
D03*
X-212500Y-402500D03*
D03*
X-217500Y-397500D03*
D03*
X-222500Y-392500D03*
D03*
X-210000Y-415000D03*
D03*
X-215000Y-410000D03*
D03*
X-220000Y-405000D03*
D03*
X-225000Y-400000D03*
D03*
X-230000Y-395000D03*
D03*
X-227500Y-387500D03*
D03*
X-232500Y-382500D03*
D03*
X-237500Y-377500D03*
D03*
X-235000Y-390000D03*
D03*
X-209510Y-340490D03*
D03*
X-228750Y-341490D03*
D03*
X-235850Y-314330D03*
D03*
X-219370Y-327570D03*
D03*
X-232190Y-327990D03*
D03*
X-213170Y-326830D03*
D03*
X-214020Y-286520D03*
D03*
X-209690Y-289020D03*
D03*
X-235670Y-274020D03*
D03*
X-216500Y-226250D03*
D03*
X-223320Y-238750D03*
D03*
X-233840Y199020D03*
D03*
X-223750Y216490D03*
D03*
X-236250Y223320D03*
D03*
X-217500Y284020D03*
D03*
X-221830Y281520D03*
D03*
X-236870Y317570D03*
D03*
X-230310Y327990D03*
D03*
X-222990Y355310D03*
D03*
X-228570Y354980D03*
D03*
X-234150Y354640D03*
D03*
X-217410Y355650D03*
D03*
X-212200Y415970D03*
D03*
X-209820Y402500D03*
D03*
X-211290Y405660D03*
D03*
X-212200Y409030D03*
D03*
X-212500Y412500D03*
D03*
X-222800Y409020D03*
D03*
X-222500Y412500D03*
D03*
X-222800Y415970D03*
D03*
X-223700Y405660D03*
D03*
X-225180Y402500D03*
D03*
X-227180Y399640D03*
D03*
X-229650Y397180D03*
D03*
X-232500Y395180D03*
D03*
X-235660Y393710D03*
D03*
X-209820Y422500D03*
D03*
X-211290Y419340D03*
D03*
X-235000Y442500D03*
D03*
X-227500D03*
D03*
X-220000D03*
D03*
X-212500D03*
D03*
X-235000Y437500D03*
D03*
X-227500D03*
D03*
X-220000D03*
D03*
X-212500D03*
D03*
X-235660Y431290D03*
D03*
X-232500Y429820D03*
D03*
X-229640Y427820D03*
D03*
X-227180Y425360D03*
D03*
X-225180Y422500D03*
D03*
X-223710Y419340D03*
D03*
X-195000Y-505000D03*
D03*
X-202500D03*
D03*
X-180000D03*
D03*
X-187500D03*
D03*
Y-497500D03*
D03*
X-202500D03*
D03*
X-195000D03*
D03*
X-180000D03*
D03*
X-187500Y-492500D03*
D03*
X-202500D03*
D03*
X-195000D03*
D03*
X-180000D03*
D03*
X-187500Y-487500D03*
D03*
X-202500D03*
D03*
X-195000D03*
D03*
X-180000D03*
D03*
Y-482500D03*
D03*
X-195000D03*
D03*
X-202500D03*
D03*
X-187500D03*
D03*
X-180000Y-477500D03*
D03*
X-187500D03*
D03*
X-195000D03*
D03*
X-202500D03*
D03*
X-185000Y-422500D03*
D03*
X-192500D03*
D03*
X-185000Y-427500D03*
D03*
X-192500D03*
D03*
X-200000Y-425000D03*
D03*
X-197500Y-417500D03*
D03*
X-202500Y-412500D03*
D03*
X-207500Y-407500D03*
D03*
X-205000Y-420000D03*
D03*
X-197010Y-372810D03*
D03*
X-193930Y-377480D03*
D03*
X-190850Y-382140D03*
D03*
X-200090Y-368150D03*
D03*
X-196870Y-342570D03*
D03*
X-195670Y-350490D03*
D03*
X-206250Y-356490D03*
D03*
X-187930Y-303120D03*
D03*
X-200920Y-295620D03*
D03*
X-199300Y-252620D03*
D03*
X-199020Y-236340D03*
D03*
X-203480Y291520D03*
D03*
X-207810Y289020D03*
D03*
X-181830Y304020D03*
D03*
X-196870Y340070D03*
D03*
X-190490Y350490D03*
D03*
X-204330Y342990D03*
D03*
X-203750Y353990D03*
D03*
X-181250Y366490D03*
D03*
X-195970Y392800D03*
D03*
X-199340Y393710D03*
D03*
X-202500Y395180D03*
D03*
X-205360Y397180D03*
D03*
X-207820Y399640D03*
D03*
X-192500Y392500D03*
D03*
X-189030Y392800D03*
D03*
X-185660Y393710D03*
D03*
X-182500Y395180D03*
D03*
X-179640Y397180D03*
D03*
X-189030Y432200D03*
D03*
X-185660Y431290D03*
D03*
X-182500Y429820D03*
D03*
X-179640Y427820D03*
D03*
X-192500Y432500D03*
D03*
X-195970Y432200D03*
D03*
X-199340Y431290D03*
D03*
X-202500Y429820D03*
D03*
X-205360Y427820D03*
D03*
X-207820Y425360D03*
D03*
X-205000Y442500D03*
D03*
X-197500D03*
D03*
X-190000D03*
D03*
X-205000Y437500D03*
D03*
X-197500D03*
D03*
X-190000D03*
D03*
X-182500D03*
D03*
Y442500D03*
D03*
X-165000Y-505000D03*
D03*
X-172500D03*
D03*
X-157500D03*
D03*
X-150000D03*
D03*
X-172500Y-497500D03*
D03*
X-165000D03*
D03*
X-157500D03*
D03*
X-150000D03*
D03*
X-172500Y-492500D03*
D03*
X-165000D03*
D03*
X-157500D03*
D03*
X-150000D03*
D03*
X-172500Y-487500D03*
D03*
X-165000D03*
D03*
X-157500D03*
D03*
X-150000D03*
D03*
Y-482500D03*
D03*
X-157500D03*
D03*
X-165000D03*
D03*
X-172500D03*
D03*
X-150000Y-477500D03*
D03*
X-157500D03*
D03*
X-165000D03*
D03*
X-172500D03*
D03*
X-162500Y-422500D03*
D03*
X-170000D03*
D03*
X-177500D03*
D03*
X-162500Y-427500D03*
D03*
X-170000D03*
D03*
X-177500D03*
D03*
X-152500Y-422500D03*
D03*
X-157500Y-427500D03*
D03*
X-166340Y-401470D03*
D03*
X-163260Y-406140D03*
D03*
X-160180Y-410800D03*
D03*
X-159600Y-419800D03*
D03*
X-156870Y-365070D03*
D03*
X-155670Y-372990D03*
D03*
X-169690Y-365490D03*
D03*
X-166250Y-378990D03*
D03*
X-151520Y-324020D03*
D03*
X-177500Y-309020D03*
D03*
X-173170Y-311520D03*
D03*
X-155930Y320620D03*
D03*
X-177500Y306520D03*
D03*
X-168920Y313120D03*
D03*
X-174370Y352570D03*
D03*
X-176830Y346830D03*
D03*
X-152500Y387500D03*
D03*
X-150000Y382500D03*
D03*
X-160000Y387500D03*
D03*
X-166650Y383480D03*
D03*
X-167810Y365490D03*
D03*
X-157500Y375000D03*
D03*
X-152500Y370000D03*
D03*
X-172800Y415970D03*
D03*
X-177180Y399640D03*
D03*
X-175180Y402500D03*
D03*
X-173710Y405660D03*
D03*
X-172800Y409030D03*
D03*
X-172500Y412500D03*
D03*
X-155000Y417500D03*
D03*
Y412500D03*
D03*
Y407500D03*
D03*
Y402500D03*
D03*
X-160000D03*
D03*
Y395000D03*
D03*
X-170000Y417500D03*
D03*
Y402500D03*
D03*
Y392500D03*
D03*
X-165000Y417500D03*
D03*
Y410000D03*
D03*
Y392500D03*
D03*
X-177180Y425360D03*
D03*
X-175180Y422500D03*
D03*
X-173710Y419340D03*
D03*
X-155000Y422500D03*
D03*
X-170000Y425000D03*
D03*
X-142500Y-505000D03*
D03*
X-135000D03*
D03*
X-120000D03*
D03*
X-127500D03*
D03*
X-142500Y-497500D03*
D03*
X-135000D03*
D03*
X-127500D03*
D03*
X-142500Y-492500D03*
D03*
X-135000D03*
D03*
X-127500D03*
D03*
X-142500Y-487500D03*
D03*
X-135000D03*
D03*
X-127500D03*
D03*
Y-482500D03*
D03*
X-135000D03*
D03*
X-142500D03*
D03*
X-120000Y-477500D03*
D03*
X-127500D03*
D03*
X-135000D03*
D03*
X-142500D03*
D03*
X-125000Y-422500D03*
D03*
Y-427500D03*
D03*
X-145000Y-422500D03*
D03*
X-147500Y-427500D03*
D03*
X-140000D03*
D03*
X-129690Y-387990D03*
D03*
X-133170Y-334020D03*
D03*
X-137500Y-331520D03*
D03*
X-147190Y-326520D03*
D03*
X-145310Y326520D03*
D03*
X-140980Y329020D03*
D03*
X-144820Y355670D03*
D03*
X-119330Y341520D03*
D03*
X-141160Y369330D03*
D03*
X-134370Y377570D03*
D03*
X-141830Y380490D03*
D03*
X-141250Y391490D03*
D03*
X-92500Y-485000D03*
D03*
X-112500Y-505000D03*
D03*
X-105000D03*
D03*
X-92500Y-495000D03*
D03*
X-97500Y-477500D03*
D03*
X-105000D03*
D03*
X-112500Y-472500D03*
D03*
X-105000D03*
D03*
X-97500D03*
D03*
X-90000D03*
D03*
Y-477500D03*
D03*
Y-452500D03*
D03*
Y-460000D03*
D03*
Y-445000D03*
D03*
Y-430000D03*
D03*
X-117500Y-422500D03*
D03*
X-95000D03*
D03*
X-102500D03*
D03*
X-110000D03*
D03*
X-117500Y-427500D03*
D03*
X-95000D03*
D03*
X-102500D03*
D03*
X-110000D03*
D03*
X-90000Y-420000D03*
D03*
X-111520Y-346520D03*
D03*
X-107190Y-349020D03*
D03*
X-118200Y297380D03*
D03*
X-108480Y288660D03*
D03*
X-91010Y298750D03*
D03*
X-94180Y311250D03*
D03*
X-115000Y344020D03*
D03*
X-77500Y-525000D03*
D03*
Y-517500D03*
D03*
Y-532500D03*
D03*
X-72500Y-525000D03*
D03*
Y-517500D03*
D03*
X-70000Y-537500D03*
D03*
X-62500D03*
D03*
X-67500Y-532500D03*
D03*
X-62500Y-530000D03*
D03*
X-77500Y-510000D03*
D03*
Y-502500D03*
D03*
X-72500Y-510000D03*
D03*
Y-502500D03*
D03*
X-82500Y-477500D03*
D03*
X-85000Y-452500D03*
D03*
Y-460000D03*
D03*
X-77500Y-470000D03*
D03*
X-67500D03*
D03*
Y-475000D03*
D03*
X-72500Y-462500D03*
D03*
X-85000Y-445000D03*
D03*
X-77500Y-427500D03*
D03*
X-70000D03*
D03*
X-62500D03*
D03*
X-70000Y-422500D03*
D03*
X-60000D03*
D03*
X-75000Y-430000D03*
D03*
X-67500D03*
D03*
X-60000D03*
D03*
X-65000Y-397500D03*
D03*
X-72500Y-407500D03*
D03*
X-75000Y-420000D03*
D03*
X-65000D03*
D03*
Y-415000D03*
D03*
X-75000D03*
D03*
X-60000Y-387500D03*
D03*
X-70000Y-391240D03*
D03*
Y-352500D03*
D03*
X-65000D03*
D03*
X-72500Y-305000D03*
D03*
X-75000Y-317500D03*
D03*
Y360000D03*
D03*
X-80000D03*
D03*
Y405000D03*
D03*
X-60000Y437500D03*
D03*
X-65000Y440000D03*
D03*
X-70000Y442500D03*
D03*
X-45000Y-555000D03*
D03*
X-37500D03*
D03*
X-30000D03*
D03*
X-52500D03*
D03*
X-37500Y-550000D03*
D03*
X-30000D03*
D03*
X-45000D03*
D03*
X-32500Y-545000D03*
D03*
X-40000D03*
D03*
X-32500Y-540000D03*
D03*
X-55000Y-537500D03*
D03*
X-47500D03*
D03*
X-42500D03*
D03*
X-32500Y-530000D03*
D03*
X-55000D03*
D03*
X-40000D03*
D03*
X-47500D03*
D03*
X-50000Y-427500D03*
D03*
X-42500D03*
D03*
X-37500Y-422500D03*
D03*
X-50000D03*
D03*
X-30000Y-430000D03*
D03*
X-52500D03*
D03*
X-45000D03*
D03*
X-37500D03*
D03*
X-45000Y-412500D03*
D03*
X-35000Y-397500D03*
D03*
X-47500Y-420000D03*
D03*
X-52500Y-397500D03*
D03*
X-42500D03*
D03*
X-50000Y-387500D03*
D03*
X-40000Y-352500D03*
D03*
X-35000D03*
D03*
X-47260Y-317500D03*
D03*
X-52320Y-305000D03*
D03*
X-30000Y360000D03*
D03*
X-45000D03*
D03*
X-50000D03*
D03*
X-35000D03*
D03*
X-45000Y398740D03*
D03*
X-50000Y405000D03*
D03*
X-35000D03*
D03*
X-42500Y415000D03*
D03*
X-55000Y435000D03*
D03*
X-15000Y-555000D03*
D03*
X-7500D03*
D03*
X0D03*
D03*
X-22500D03*
D03*
X-7500Y-550000D03*
D03*
X0D03*
D03*
X-15000D03*
D03*
X-22500D03*
D03*
X-2500Y-545000D03*
D03*
X-25000D03*
D03*
X-17500D03*
D03*
X-10000D03*
D03*
X-2500Y-530000D03*
D03*
X-10000D03*
D03*
X-2500Y-540000D03*
D03*
X-10000D03*
D03*
X-17500D03*
D03*
X-25000D03*
D03*
Y-530000D03*
D03*
X-17500D03*
D03*
X-20000Y-500000D03*
D03*
X-10000D03*
D03*
X-20000Y-460000D03*
D03*
X-12500Y-427500D03*
D03*
X-20000D03*
D03*
X-5000D03*
D03*
X-27500D03*
D03*
X0Y-430000D03*
D03*
X-22500D03*
D03*
X-15000D03*
D03*
X-7500D03*
D03*
X-10000Y-397500D03*
D03*
X-2500Y-407500D03*
D03*
X-27500D03*
D03*
X0Y-391240D03*
D03*
X-25000D03*
D03*
X-20000Y-387500D03*
D03*
X-25000Y-354350D03*
D03*
X0Y-352500D03*
D03*
X-10000Y-354350D03*
D03*
X0Y360000D03*
D03*
X-5000D03*
D03*
X0Y398740D03*
D03*
X-5000Y405000D03*
D03*
X-15000Y425000D03*
D03*
X-20000Y427500D03*
D03*
X-25000Y430000D03*
D03*
X-10000Y422500D03*
D03*
X15000Y-555000D03*
D03*
X22500D03*
D03*
X30000D03*
D03*
X7500D03*
D03*
X22500Y-550000D03*
D03*
X30000D03*
D03*
X15000D03*
D03*
X7500D03*
D03*
X5000Y-545000D03*
D03*
X12500D03*
D03*
X20000D03*
D03*
X27500Y-530000D03*
D03*
X20000D03*
D03*
X12500D03*
D03*
X5000D03*
D03*
X12500Y-540000D03*
D03*
X5000D03*
D03*
X25000Y-537500D03*
D03*
X17500D03*
D03*
X25000Y-422500D03*
D03*
X22500Y-430000D03*
D03*
X30000D03*
D03*
X7500D03*
D03*
X15000D03*
D03*
Y-417500D03*
D03*
X20000Y-420000D03*
D03*
X10000Y-415000D03*
D03*
X5000Y-397500D03*
D03*
X30000Y-352500D03*
D03*
X5000D03*
D03*
X25000Y361850D03*
D03*
X10000D03*
D03*
X25000Y398740D03*
D03*
X10000Y405000D03*
D03*
X27500Y415000D03*
D03*
X2500D03*
D03*
X20000Y395000D03*
D03*
X37500Y-555000D03*
D03*
X40000Y-545000D03*
D03*
X45000D03*
D03*
X32500D03*
D03*
X50000Y-530000D03*
D03*
X42500D03*
D03*
X35000D03*
D03*
X60000Y-537500D03*
D03*
X55000Y-532500D03*
D03*
X40000Y-537500D03*
D03*
X32500D03*
D03*
X45000D03*
D03*
Y-497500D03*
D03*
X40000D03*
D03*
X52500Y-487500D03*
D03*
Y-495000D03*
D03*
Y-502500D03*
D03*
Y-510000D03*
D03*
X57500Y-427500D03*
D03*
X52500Y-422500D03*
D03*
Y-430000D03*
D03*
X37500D03*
D03*
X45000D03*
D03*
X52500Y-397500D03*
D03*
X35000D03*
D03*
X45000Y-407500D03*
D03*
X47500Y-391240D03*
D03*
Y-352500D03*
D03*
X52500D03*
D03*
X35000D03*
D03*
X47260Y317500D03*
D03*
X52320Y305000D03*
D03*
X40000Y360000D03*
D03*
X35000D03*
D03*
X60000Y395000D03*
D03*
X35000Y405000D03*
D03*
X50000Y395000D03*
D03*
X45000Y420000D03*
D03*
X90000Y-537500D03*
D03*
X67500D03*
D03*
X75000D03*
D03*
X82500D03*
D03*
X77500Y-532500D03*
D03*
X70000D03*
D03*
X62500D03*
D03*
X85000D03*
D03*
Y-515000D03*
D03*
Y-522500D03*
D03*
Y-460000D03*
D03*
X62500Y-430000D03*
D03*
X67500Y-432500D03*
D03*
X72500Y-435000D03*
D03*
X80000Y-427500D03*
D03*
X70000D03*
D03*
X82500Y-397500D03*
D03*
X77500Y-352500D03*
D03*
X82500D03*
D03*
X91000Y-301250D03*
D03*
X72500Y305000D03*
D03*
X75000Y317500D03*
D03*
X70000Y360000D03*
D03*
X65000D03*
D03*
X70000Y398740D03*
D03*
X65000Y405000D03*
D03*
X72500Y415000D03*
D03*
X82500Y445000D03*
D03*
X75000D03*
D03*
X67500D03*
D03*
X90000D03*
D03*
X82500Y440000D03*
D03*
X75000D03*
D03*
X67500D03*
D03*
X90000D03*
D03*
X85000Y430000D03*
D03*
X107500Y-530000D03*
D03*
Y-520000D03*
D03*
X120000Y-537500D03*
D03*
X97500D03*
D03*
X105000D03*
D03*
X112500D03*
D03*
X107500Y-500000D03*
D03*
Y-490000D03*
D03*
X97500Y-510000D03*
D03*
X105000D03*
D03*
X97500Y-505000D03*
D03*
X105000D03*
D03*
X115000Y-460000D03*
D03*
X107500D03*
D03*
X92500D03*
D03*
X120000Y-455000D03*
D03*
X112500D03*
D03*
X97500D03*
D03*
X105000D03*
D03*
X102500Y-465000D03*
D03*
Y-472500D03*
D03*
X97500Y-465000D03*
D03*
Y-472500D03*
D03*
X105000Y-445000D03*
D03*
X112500D03*
D03*
X120000D03*
D03*
X105000Y-440000D03*
D03*
X112500D03*
D03*
X120000D03*
D03*
X105000Y-435000D03*
D03*
X112500D03*
D03*
X100000D03*
D03*
X92500D03*
D03*
X97500Y-445000D03*
D03*
X112500Y-341520D03*
D03*
X116830Y-339020D03*
D03*
X94180Y-313750D03*
D03*
X118200Y-299880D03*
D03*
X108480Y-291160D03*
D03*
X111520Y344020D03*
D03*
X107190Y346520D03*
D03*
X112500Y445000D03*
D03*
X105000D03*
D03*
X97500D03*
D03*
X120000D03*
D03*
X112500Y440000D03*
D03*
X105000D03*
D03*
X97500D03*
D03*
X120000D03*
D03*
X92500Y430000D03*
D03*
X100000D03*
D03*
X107500D03*
D03*
X115000D03*
D03*
X140000Y-527500D03*
D03*
X147500D03*
D03*
X140000Y-522500D03*
D03*
X147500D03*
D03*
X140000Y-517500D03*
D03*
X147500D03*
D03*
X140000Y-512500D03*
D03*
X147500D03*
D03*
X140000Y-507500D03*
D03*
X147500D03*
D03*
X140000Y-497500D03*
D03*
X147500D03*
D03*
X140000Y-492500D03*
D03*
X147500D03*
D03*
X140000Y-487500D03*
D03*
X147500D03*
D03*
X137500Y-460000D03*
D03*
X145000D03*
D03*
X122500D03*
D03*
X150000Y-455000D03*
D03*
X142500D03*
D03*
X127500D03*
D03*
X135000D03*
D03*
Y-465000D03*
D03*
Y-472500D03*
D03*
Y-480000D03*
D03*
X127500Y-465000D03*
D03*
Y-472500D03*
D03*
Y-480000D03*
D03*
X145000Y-440000D03*
D03*
X137500D03*
D03*
X127500Y-445000D03*
D03*
Y-435000D03*
D03*
X137500Y-432500D03*
D03*
X145000D03*
D03*
X138660Y-366830D03*
D03*
X131870Y-375070D03*
D03*
X139330Y-377990D03*
D03*
X138750Y-388990D03*
D03*
X147320Y-361830D03*
D03*
X138480Y-326520D03*
D03*
X142810Y-324020D03*
D03*
X147190Y324020D03*
D03*
X137500Y329020D03*
D03*
X133170Y331520D03*
D03*
X129690Y385490D03*
D03*
X125000Y395000D03*
D03*
X132500D03*
D03*
X140000D03*
D03*
X142500Y445000D03*
D03*
X135000D03*
D03*
X127500D03*
D03*
X150000D03*
D03*
X142500Y440000D03*
D03*
X135000D03*
D03*
X127500D03*
D03*
X150000D03*
D03*
X122500Y430000D03*
D03*
X130000D03*
D03*
X137500D03*
D03*
X145000D03*
D03*
X170000Y-527500D03*
D03*
X155000D03*
D03*
X162500D03*
D03*
X177500D03*
D03*
X170000Y-522500D03*
D03*
X155000D03*
D03*
X162500D03*
D03*
X177500D03*
D03*
X170000Y-517500D03*
D03*
X155000D03*
D03*
X162500D03*
D03*
X177500D03*
D03*
X170000Y-512500D03*
D03*
X155000D03*
D03*
X162500D03*
D03*
X177500D03*
D03*
X170000Y-507500D03*
D03*
X155000D03*
D03*
X162500D03*
D03*
X177500D03*
D03*
X170000Y-497500D03*
D03*
X155000D03*
D03*
X162500D03*
D03*
X177500D03*
D03*
X170000Y-492500D03*
D03*
X155000D03*
D03*
X162500D03*
D03*
X177500D03*
D03*
X155000Y-487500D03*
D03*
X167500Y-460000D03*
D03*
X160000D03*
D03*
X152500D03*
D03*
X175000D03*
D03*
Y-455000D03*
D03*
X167500D03*
D03*
X157500D03*
D03*
X165000Y-465000D03*
D03*
Y-472500D03*
D03*
Y-480000D03*
D03*
X160000Y-465000D03*
D03*
Y-472500D03*
D03*
Y-480000D03*
D03*
X175000Y-447500D03*
D03*
X167500D03*
D03*
X175000Y-440000D03*
D03*
X167500D03*
D03*
X175000Y-432500D03*
D03*
X167500D03*
D03*
X160000Y-440000D03*
D03*
X152500D03*
D03*
Y-432500D03*
D03*
X160000D03*
D03*
Y-397500D03*
D03*
Y-405000D03*
D03*
Y-412500D03*
D03*
Y-420000D03*
D03*
X164150Y-380980D03*
D03*
X165310Y-362990D03*
D03*
X178750Y-366490D03*
D03*
X160000Y-390000D03*
D03*
X171870Y-352570D03*
D03*
X174330Y-346830D03*
D03*
X153430Y-320620D03*
D03*
X175000Y-306520D03*
D03*
X179330Y-304020D03*
D03*
X166420Y-313120D03*
D03*
X177500Y306520D03*
D03*
X151520Y321520D03*
D03*
X173170Y309020D03*
D03*
X156870Y362570D03*
D03*
X155670Y370490D03*
D03*
X169690Y362990D03*
D03*
X166250Y376490D03*
D03*
X166340Y398970D03*
D03*
X163260Y403640D03*
D03*
X160180Y408300D03*
D03*
X157100Y412970D03*
D03*
X177500Y395000D03*
D03*
X170000D03*
D03*
X172500Y445000D03*
D03*
X165000D03*
D03*
X157500D03*
D03*
X180000D03*
D03*
X172500Y440000D03*
D03*
X165000D03*
D03*
X157500D03*
D03*
X180000D03*
D03*
X157500Y430000D03*
D03*
X165000D03*
D03*
X172500D03*
D03*
X180000D03*
D03*
X152500D03*
D03*
X200000Y-527500D03*
D03*
X185000D03*
D03*
X192500D03*
D03*
X207500D03*
D03*
X200000Y-522500D03*
D03*
X185000D03*
D03*
X192500D03*
D03*
X207500D03*
D03*
X200000Y-517500D03*
D03*
X185000D03*
D03*
X192500D03*
D03*
X207500D03*
D03*
X200000Y-512500D03*
D03*
X185000D03*
D03*
X192500D03*
D03*
X207500D03*
D03*
X200000Y-507500D03*
D03*
X185000D03*
D03*
X192500D03*
D03*
X207500D03*
D03*
X200000Y-497500D03*
D03*
X185000D03*
D03*
X192500D03*
D03*
X207500D03*
D03*
X200000Y-492500D03*
D03*
X185000D03*
D03*
X192500D03*
D03*
X207500D03*
D03*
X205000Y-460000D03*
D03*
X190000D03*
D03*
X197500D03*
D03*
X182500D03*
D03*
Y-455000D03*
D03*
X205000D03*
D03*
X197500D03*
D03*
X190000D03*
D03*
X205000Y-447500D03*
D03*
X197500D03*
D03*
X182500D03*
D03*
X190000D03*
D03*
X205000Y-440000D03*
D03*
X197500D03*
D03*
X182500D03*
D03*
X190000D03*
D03*
X205000Y-432500D03*
D03*
X197500D03*
D03*
X182500D03*
D03*
X190000D03*
D03*
X194370Y-340070D03*
D03*
X201830Y-342990D03*
D03*
X187990Y-350490D03*
D03*
X201250Y-353990D03*
D03*
X200980Y-291520D03*
D03*
X205310Y-289020D03*
D03*
X199300Y252620D03*
D03*
X196520Y238840D03*
D03*
X200920Y293120D03*
D03*
X209690Y286520D03*
D03*
X187930Y300620D03*
D03*
X196870Y340070D03*
D03*
X195670Y347990D03*
D03*
X209510Y337990D03*
D03*
X206250Y353990D03*
D03*
X197010Y370310D03*
D03*
X193930Y374980D03*
D03*
X190850Y379640D03*
D03*
X200090Y365650D03*
D03*
X185000Y387500D03*
D03*
Y380000D03*
D03*
Y395000D03*
D03*
Y402500D03*
D03*
Y417500D03*
D03*
Y410000D03*
D03*
X195000Y445000D03*
D03*
X187500D03*
D03*
X205000D03*
D03*
Y440000D03*
D03*
X195000D03*
D03*
X187500D03*
D03*
X195000Y430000D03*
D03*
X202500D03*
D03*
X210000D03*
D03*
X187500D03*
D03*
X230000Y-527500D03*
D03*
X215000D03*
D03*
X222500D03*
D03*
X237500D03*
D03*
X230000Y-522500D03*
D03*
X215000D03*
D03*
X222500D03*
D03*
X237500D03*
D03*
X230000Y-517500D03*
D03*
X215000D03*
D03*
X222500D03*
D03*
X237500D03*
D03*
X230000Y-512500D03*
D03*
X215000D03*
D03*
X222500D03*
D03*
X237500D03*
D03*
X230000Y-507500D03*
D03*
X215000D03*
D03*
X222500D03*
D03*
X237500D03*
D03*
X230000Y-497500D03*
D03*
X215000D03*
D03*
X222500D03*
D03*
X237500D03*
D03*
X230000Y-492500D03*
D03*
X215000D03*
D03*
X222500D03*
D03*
X237500D03*
D03*
X235000Y-460000D03*
D03*
X220000D03*
D03*
X212500D03*
D03*
X227500D03*
D03*
X235000Y-455000D03*
D03*
X220000D03*
D03*
X227500D03*
D03*
X212500D03*
D03*
X235000Y-447500D03*
D03*
X220000D03*
D03*
X227500D03*
D03*
X235000Y-440000D03*
D03*
X220000D03*
D03*
X227500D03*
D03*
X235000Y-432500D03*
D03*
X220000D03*
D03*
X227500D03*
D03*
X212500Y-447500D03*
D03*
Y-440000D03*
D03*
Y-432500D03*
D03*
X220490Y-355310D03*
D03*
X226070Y-354980D03*
D03*
X231650Y-354640D03*
D03*
X214910Y-355650D03*
D03*
X234370Y-317570D03*
D03*
X227810Y-327990D03*
D03*
X241250Y-331490D03*
D03*
X215000Y-284020D03*
D03*
X219330Y-281520D03*
D03*
X240980Y-269020D03*
D03*
X228750Y-214000D03*
D03*
X238750Y-223320D03*
D03*
X238840Y-196520D03*
D03*
X213990Y228750D03*
D03*
X223320Y238750D03*
D03*
X214020Y284020D03*
D03*
X240000Y269020D03*
D03*
X235670Y271520D03*
D03*
X219370Y325070D03*
D03*
X232190Y325490D03*
D03*
X213170Y324330D03*
D03*
X240180Y309330D03*
D03*
X232500Y340000D03*
D03*
X240000Y355000D03*
D03*
X232500Y350000D03*
D03*
Y357500D03*
D03*
X240000Y362500D03*
D03*
Y370000D03*
D03*
Y377500D03*
D03*
Y385000D03*
D03*
X232500Y365000D03*
D03*
Y372500D03*
D03*
Y387500D03*
D03*
Y380000D03*
D03*
X240000Y392500D03*
D03*
Y400000D03*
D03*
Y407500D03*
D03*
Y415000D03*
D03*
X232500Y395000D03*
D03*
Y402500D03*
D03*
Y417500D03*
D03*
Y410000D03*
D03*
X227500Y445000D03*
D03*
X220000D03*
D03*
X212500D03*
D03*
X235000D03*
D03*
X227500Y440000D03*
D03*
X220000D03*
D03*
X212500D03*
D03*
X235000D03*
D03*
X225000Y430000D03*
D03*
X217500D03*
D03*
X260000Y-527500D03*
D03*
X245000D03*
D03*
X252500D03*
D03*
X267500D03*
D03*
X260000Y-522500D03*
D03*
X245000D03*
D03*
X252500D03*
D03*
X267500D03*
D03*
X260000Y-517500D03*
D03*
X245000D03*
D03*
X252500D03*
D03*
X267500D03*
D03*
X260000Y-512500D03*
D03*
X245000D03*
D03*
X252500D03*
D03*
X267500D03*
D03*
X260000Y-507500D03*
D03*
X245000D03*
D03*
X252500D03*
D03*
X267500D03*
D03*
X260000Y-497500D03*
D03*
X245000D03*
D03*
X252500D03*
D03*
X267500D03*
D03*
X260000Y-492500D03*
D03*
X245000D03*
D03*
X252500D03*
D03*
X267500D03*
D03*
X265000Y-460000D03*
D03*
X257500D03*
D03*
X242500D03*
D03*
X250000D03*
D03*
X265000Y-455000D03*
D03*
X250000D03*
D03*
X242500D03*
D03*
X257500D03*
D03*
X265000Y-447500D03*
D03*
X250000D03*
D03*
X242500D03*
D03*
X257500D03*
D03*
X265000Y-440000D03*
D03*
X250000D03*
D03*
X242500D03*
D03*
X257500D03*
D03*
X265000Y-432500D03*
D03*
X250000D03*
D03*
X242500D03*
D03*
X257500D03*
D03*
X263660Y-348300D03*
D03*
X269240Y-347970D03*
D03*
X267810Y-305490D03*
D03*
X241830Y-320490D03*
D03*
X245310Y-266520D03*
D03*
X252620Y-199300D03*
D03*
X266520Y240980D03*
D03*
X264020Y245310D03*
D03*
X248840Y304330D03*
D03*
X259370Y302570D03*
D03*
X258170Y310490D03*
D03*
X268750Y316490D03*
D03*
X262500Y325000D03*
D03*
X270000D03*
D03*
X248350Y333480D03*
D03*
X260000Y345000D03*
D03*
X267500D03*
D03*
X262500Y330000D03*
D03*
X270000D03*
D03*
X267500Y350000D03*
D03*
X260000D03*
D03*
X245000Y355000D03*
D03*
X252500Y357500D03*
D03*
X255000Y337500D03*
D03*
X247500Y415000D03*
D03*
Y405000D03*
D03*
Y400000D03*
D03*
Y392500D03*
D03*
X257500Y445000D03*
D03*
X250000D03*
D03*
X242500D03*
D03*
X265000D03*
D03*
X257500Y440000D03*
D03*
X250000D03*
D03*
X242500D03*
D03*
X265000D03*
D03*
Y435000D03*
D03*
X250000D03*
D03*
X257500D03*
D03*
X247500Y420000D03*
D03*
X275000Y-527500D03*
D03*
Y-522500D03*
D03*
Y-517500D03*
D03*
Y-512500D03*
D03*
X282500Y-527500D03*
D03*
X290000D03*
D03*
X297500D03*
D03*
X282500Y-522500D03*
D03*
X290000D03*
D03*
X297500D03*
D03*
X282500Y-517500D03*
D03*
X290000D03*
D03*
X297500D03*
D03*
X282500Y-512500D03*
D03*
X290000D03*
D03*
X297500D03*
D03*
X275000Y-507500D03*
D03*
X282500D03*
D03*
X290000D03*
D03*
X297500D03*
D03*
Y-497500D03*
D03*
X290000D03*
D03*
X282500D03*
D03*
X275000D03*
D03*
X297500Y-492500D03*
D03*
X290000D03*
D03*
X282500D03*
D03*
X275000D03*
D03*
X295000Y-460000D03*
D03*
X287500D03*
D03*
X272500D03*
D03*
X280000D03*
D03*
X295000Y-455000D03*
D03*
X287500D03*
D03*
X280000D03*
D03*
X272500D03*
D03*
X295000Y-447500D03*
D03*
X287500D03*
D03*
X280000D03*
D03*
X272500D03*
D03*
X295000Y-440000D03*
D03*
X287500D03*
D03*
X280000D03*
D03*
X272500D03*
D03*
X295000Y-432500D03*
D03*
X287500D03*
D03*
X280000D03*
D03*
X272500D03*
D03*
X274820Y-347630D03*
D03*
X280400Y-347300D03*
D03*
X274020Y-237500D03*
D03*
X276520Y-233170D03*
D03*
X298120Y-200920D03*
D03*
X289020Y-211520D03*
D03*
X291520Y-207190D03*
D03*
X301250Y86010D03*
D03*
X292540Y104120D03*
D03*
X301260Y113840D03*
D03*
X289020Y200980D03*
D03*
X286520Y205310D03*
D03*
X281520Y215000D03*
D03*
X279020Y219330D03*
D03*
X277500Y325000D03*
D03*
X285000D03*
D03*
X300000D03*
D03*
X292500D03*
D03*
X277500Y320000D03*
D03*
X300000D03*
D03*
X292500D03*
D03*
X285000D03*
D03*
X297500Y345000D03*
D03*
X290000D03*
D03*
X282500D03*
D03*
X275000D03*
D03*
X292500Y330000D03*
D03*
X285000D03*
D03*
X277500D03*
D03*
X300000D03*
D03*
X282500Y350000D03*
D03*
X297500D03*
D03*
X290000D03*
D03*
X275000D03*
D03*
X287500Y445000D03*
D03*
X280000D03*
D03*
X272500D03*
D03*
X295000D03*
D03*
X287500Y440000D03*
D03*
X280000D03*
D03*
X272500D03*
D03*
X295000D03*
D03*
Y435000D03*
D03*
X272500D03*
D03*
X280000D03*
D03*
X287500D03*
D03*
X312500Y-527500D03*
D03*
X305000D03*
D03*
X320000D03*
D03*
X327500D03*
D03*
X312500Y-522500D03*
D03*
X305000D03*
D03*
X320000D03*
D03*
X327500D03*
D03*
X312500Y-517500D03*
D03*
X305000D03*
D03*
X320000D03*
D03*
X327500D03*
D03*
X312500Y-512500D03*
D03*
X305000D03*
D03*
X320000D03*
D03*
X327500D03*
D03*
X312500Y-507500D03*
D03*
X305000D03*
D03*
X320000D03*
D03*
X327500D03*
D03*
Y-497500D03*
D03*
X320000D03*
D03*
X305000D03*
D03*
X312500D03*
D03*
X327500Y-492500D03*
D03*
X320000D03*
D03*
X305000D03*
D03*
X312500D03*
D03*
X325000Y-460000D03*
D03*
X317500D03*
D03*
X310000D03*
D03*
X302500D03*
D03*
X325000Y-455000D03*
D03*
X317500D03*
D03*
X302500D03*
D03*
X310000D03*
D03*
X325000Y-447500D03*
D03*
X317500D03*
D03*
X302500D03*
D03*
X310000D03*
D03*
X325000Y-440000D03*
D03*
X317500D03*
D03*
X302500D03*
D03*
X310000D03*
D03*
X325000Y-432500D03*
D03*
X317500D03*
D03*
X302500D03*
D03*
X310000D03*
D03*
X309330Y-246340D03*
D03*
X307570Y-256870D03*
D03*
X315490Y-255670D03*
D03*
X321490Y-266250D03*
D03*
X330000Y-257500D03*
D03*
X325000Y-252500D03*
D03*
Y-245000D03*
D03*
X330070Y-219370D03*
D03*
X330490Y-229690D03*
D03*
X329330Y-213170D03*
D03*
X314330Y-237680D03*
D03*
X303120Y-192260D03*
D03*
X305620Y-187930D03*
D03*
X309020Y-177500D03*
D03*
X311520Y-173170D03*
D03*
X324020Y-151520D03*
D03*
X326520Y-147190D03*
D03*
X302500Y-75000D03*
D03*
X317500Y-77500D03*
D03*
Y-49760D03*
D03*
X302500Y-54820D03*
D03*
X313750Y89180D03*
D03*
X324020Y138480D03*
D03*
X321520Y142810D03*
D03*
X318120Y153430D03*
D03*
X304020Y175000D03*
D03*
X310620Y166420D03*
D03*
X301520Y179330D03*
D03*
X315070Y234370D03*
D03*
X325490Y227810D03*
D03*
X302990Y267810D03*
D03*
X317990Y241830D03*
D03*
X328990Y241250D03*
D03*
X307500Y325000D03*
D03*
X315000D03*
D03*
X330000D03*
D03*
X322500D03*
D03*
X307500Y320000D03*
D03*
X315000D03*
D03*
X330000D03*
D03*
X322500D03*
D03*
X305000Y345000D03*
D03*
X312500D03*
D03*
X320000D03*
D03*
X327500D03*
D03*
X330000Y330000D03*
D03*
X322500D03*
D03*
X315000D03*
D03*
X307500D03*
D03*
X320000Y350000D03*
D03*
X327500D03*
D03*
X312500D03*
D03*
X305000D03*
D03*
X317500Y445000D03*
D03*
X310000D03*
D03*
X302500D03*
D03*
X325000D03*
D03*
X317500Y440000D03*
D03*
X310000D03*
D03*
X302500D03*
D03*
X325000D03*
D03*
Y435000D03*
D03*
X302500D03*
D03*
X310000D03*
D03*
X317500D03*
D03*
X342500Y-527500D03*
D03*
X335000D03*
D03*
Y-522500D03*
D03*
Y-517500D03*
D03*
Y-512500D03*
D03*
X360000Y-482500D03*
D03*
Y-490000D03*
D03*
Y-497500D03*
D03*
X355000Y-490000D03*
D03*
Y-482500D03*
D03*
Y-497500D03*
D03*
X350000Y-490000D03*
D03*
Y-482500D03*
D03*
Y-497500D03*
D03*
X345000Y-490000D03*
D03*
Y-482500D03*
D03*
Y-497500D03*
D03*
X335000Y-507500D03*
D03*
Y-497500D03*
D03*
X360000Y-452500D03*
D03*
Y-460000D03*
D03*
Y-467500D03*
D03*
Y-475000D03*
D03*
X355000Y-460000D03*
D03*
Y-452500D03*
D03*
Y-475000D03*
D03*
Y-467500D03*
D03*
X350000Y-460000D03*
D03*
Y-452500D03*
D03*
Y-475000D03*
D03*
Y-467500D03*
D03*
X345000Y-460000D03*
D03*
Y-452500D03*
D03*
Y-475000D03*
D03*
Y-467500D03*
D03*
X340000Y-460000D03*
D03*
X332500D03*
D03*
Y-455000D03*
D03*
X360000Y-422500D03*
D03*
Y-430000D03*
D03*
Y-437500D03*
D03*
Y-445000D03*
D03*
X355000Y-430000D03*
D03*
Y-422500D03*
D03*
Y-445000D03*
D03*
Y-437500D03*
D03*
X350000Y-430000D03*
D03*
Y-422500D03*
D03*
Y-445000D03*
D03*
Y-437500D03*
D03*
X345000Y-430000D03*
D03*
Y-422500D03*
D03*
Y-445000D03*
D03*
Y-437500D03*
D03*
X332500Y-447500D03*
D03*
Y-440000D03*
D03*
Y-432500D03*
D03*
X360000Y-392500D03*
D03*
Y-400000D03*
D03*
Y-407500D03*
D03*
Y-415000D03*
D03*
X355000Y-400000D03*
D03*
Y-392500D03*
D03*
Y-415000D03*
D03*
Y-407500D03*
D03*
X350000Y-400000D03*
D03*
Y-392500D03*
D03*
Y-415000D03*
D03*
Y-407500D03*
D03*
X345000Y-400000D03*
D03*
Y-392500D03*
D03*
Y-415000D03*
D03*
Y-407500D03*
D03*
X360000Y-362500D03*
D03*
Y-370000D03*
D03*
Y-377500D03*
D03*
Y-385000D03*
D03*
X355000Y-370000D03*
D03*
Y-362500D03*
D03*
Y-385000D03*
D03*
Y-377500D03*
D03*
X350000Y-370000D03*
D03*
Y-362500D03*
D03*
Y-385000D03*
D03*
Y-377500D03*
D03*
X345000Y-370000D03*
D03*
Y-362500D03*
D03*
Y-385000D03*
D03*
Y-377500D03*
D03*
X360000Y-340000D03*
D03*
Y-345000D03*
D03*
Y-350000D03*
D03*
X355000Y-355000D03*
D03*
X350000D03*
D03*
X345000D03*
D03*
Y-347500D03*
D03*
X350000Y-342500D03*
D03*
X360000Y-332500D03*
D03*
X355000D03*
D03*
X360000Y-305000D03*
D03*
Y-312500D03*
D03*
X355000Y-305000D03*
D03*
Y-312500D03*
D03*
Y-320000D03*
D03*
X360000D03*
D03*
Y-297500D03*
D03*
Y-282500D03*
D03*
Y-290000D03*
D03*
X355000D03*
D03*
Y-297500D03*
D03*
X352500Y-272500D03*
D03*
X345000D03*
D03*
X350000Y-277500D03*
D03*
X357500D03*
D03*
X355000Y-282500D03*
D03*
X338480Y-245850D03*
D03*
X342500Y-262500D03*
D03*
X347500Y-267500D03*
D03*
X335000Y-255000D03*
D03*
Y-262500D03*
D03*
X360000Y-247500D03*
D03*
X352500D03*
D03*
X345000D03*
D03*
X360000Y-252500D03*
D03*
X352500D03*
D03*
X345000D03*
D03*
X343990Y-228750D03*
D03*
X342570Y-196870D03*
D03*
X350490Y-195670D03*
D03*
X342990Y-209510D03*
D03*
X356490Y-206250D03*
D03*
X331520Y-137500D03*
D03*
X334020Y-133170D03*
D03*
X346520Y-111520D03*
D03*
X349020Y-107190D03*
D03*
X357500Y-72500D03*
D03*
Y-67500D03*
D03*
Y-42500D03*
D03*
Y-37500D03*
D03*
X359350Y-27500D03*
D03*
X357500Y-2500D03*
D03*
X359350Y-12500D03*
D03*
X357500Y27500D03*
D03*
Y2500D03*
D03*
Y40000D03*
D03*
Y45000D03*
D03*
Y32500D03*
D03*
Y70000D03*
D03*
Y75000D03*
D03*
X339020Y112500D03*
D03*
X336520Y116830D03*
D03*
X359330Y147320D03*
D03*
X350070Y171870D03*
D03*
X360490Y165310D03*
D03*
X344330Y174330D03*
D03*
X337570Y194370D03*
D03*
X340490Y201830D03*
D03*
X347990Y187990D03*
D03*
X351490Y201250D03*
D03*
X345000Y207500D03*
D03*
X360000D03*
D03*
X352500D03*
D03*
X352810Y220490D03*
D03*
X352480Y226070D03*
D03*
X352140Y231650D03*
D03*
X353150Y214910D03*
D03*
X360000Y212500D03*
D03*
X341470Y261160D03*
D03*
X341140Y266740D03*
D03*
X340800Y272320D03*
D03*
X340470Y277900D03*
D03*
X337500Y325000D03*
D03*
X345000D03*
D03*
X352500D03*
D03*
X360000D03*
D03*
X345000Y320000D03*
D03*
X337500D03*
D03*
X352500D03*
D03*
X360000D03*
D03*
Y352500D03*
D03*
X335000Y345000D03*
D03*
X342500D03*
D03*
X350000D03*
D03*
X337500Y330000D03*
D03*
X360000D03*
D03*
X352500D03*
D03*
X345000D03*
D03*
X350000Y350000D03*
D03*
X342500D03*
D03*
X335000D03*
D03*
X360000Y367500D03*
D03*
Y375000D03*
D03*
Y382500D03*
D03*
Y360000D03*
D03*
Y397500D03*
D03*
Y405000D03*
D03*
Y412500D03*
D03*
Y390000D03*
D03*
X340000Y445000D03*
D03*
X332500D03*
D03*
X340000Y440000D03*
D03*
X332500D03*
D03*
X360000Y427500D03*
D03*
Y420000D03*
D03*
X355000Y435000D03*
D03*
X360000Y440000D03*
D03*
X347500Y445000D03*
D03*
Y440000D03*
D03*
X355000Y445000D03*
D03*
X332500Y435000D03*
D03*
X340000D03*
D03*
X347500D03*
D03*
X365000Y-482500D03*
D03*
Y-490000D03*
D03*
Y-497500D03*
D03*
Y-460000D03*
D03*
Y-452500D03*
D03*
Y-467500D03*
D03*
Y-475000D03*
D03*
X370000Y-452500D03*
D03*
X365000Y-430000D03*
D03*
Y-422500D03*
D03*
Y-437500D03*
D03*
Y-445000D03*
D03*
X370000Y-422500D03*
D03*
Y-430000D03*
D03*
Y-437500D03*
D03*
Y-445000D03*
D03*
X365000Y-400000D03*
D03*
Y-392500D03*
D03*
Y-407500D03*
D03*
Y-415000D03*
D03*
X370000Y-400000D03*
D03*
Y-407500D03*
D03*
Y-415000D03*
D03*
X365000Y-370000D03*
D03*
Y-377500D03*
D03*
Y-385000D03*
D03*
X382500Y-360000D03*
D03*
X390000D03*
D03*
X382500Y-355000D03*
D03*
X390000D03*
D03*
X382500Y-350000D03*
D03*
X390000D03*
D03*
X375000Y-345000D03*
D03*
X382500D03*
D03*
X390000D03*
D03*
X382500Y-340000D03*
D03*
X390000D03*
D03*
X375000D03*
D03*
X367500D03*
D03*
Y-345000D03*
D03*
X375000Y-350000D03*
D03*
X367500D03*
D03*
X375000Y-355000D03*
D03*
X367500D03*
D03*
X375000Y-360000D03*
D03*
X362500Y-357500D03*
D03*
X370000Y-360000D03*
D03*
X387500Y-335000D03*
D03*
X380000D03*
D03*
X375000D03*
D03*
X370000D03*
D03*
X365000D03*
D03*
X380000Y-302500D03*
D03*
X387500D03*
D03*
Y-310000D03*
D03*
X365000Y-305000D03*
D03*
Y-312500D03*
D03*
Y-320000D03*
D03*
X370000Y-312500D03*
D03*
Y-305000D03*
D03*
X375000Y-312500D03*
D03*
X370000Y-320000D03*
D03*
X375000D03*
D03*
X372500Y-295000D03*
D03*
X380000D03*
D03*
X387500D03*
D03*
X382500Y-247500D03*
D03*
X375000D03*
D03*
X367500D03*
D03*
X382500Y-252500D03*
D03*
X375000D03*
D03*
X367500D03*
D03*
X390000Y-247500D03*
D03*
Y-252500D03*
D03*
X372810Y-197010D03*
D03*
X377480Y-193930D03*
D03*
X382140Y-190850D03*
D03*
X368150Y-200090D03*
D03*
X365070Y-156870D03*
D03*
X372990Y-155670D03*
D03*
X365490Y-169690D03*
D03*
X378990Y-166250D03*
D03*
X387990Y-129690D03*
D03*
X382500Y50000D03*
D03*
Y55000D03*
D03*
Y60000D03*
D03*
Y65000D03*
D03*
X364330Y138660D03*
D03*
X372570Y131870D03*
D03*
X375490Y139330D03*
D03*
X386490Y138750D03*
D03*
X380000Y145000D03*
D03*
X387500D03*
D03*
X378480Y164150D03*
D03*
X387500Y162500D03*
D03*
X380000Y157500D03*
D03*
X387500D03*
D03*
X380000Y150000D03*
D03*
X387500D03*
D03*
X363990Y178750D03*
D03*
X382500Y207500D03*
D03*
X390000D03*
D03*
X375000D03*
D03*
X367500D03*
D03*
X382500Y212500D03*
D03*
X390000D03*
D03*
X375000D03*
D03*
X367500D03*
D03*
X375000Y325000D03*
D03*
X382500D03*
D03*
X390000D03*
D03*
X367500D03*
D03*
X382500Y320000D03*
D03*
X375000D03*
D03*
X367500D03*
D03*
X387500Y350000D03*
D03*
X380000D03*
D03*
X372500D03*
D03*
Y345000D03*
D03*
X380000D03*
D03*
X387500D03*
D03*
X372500Y340000D03*
D03*
X380000D03*
D03*
X387500D03*
D03*
X365000D03*
D03*
X367500Y352500D03*
D03*
X365000Y345000D03*
D03*
X367500Y330000D03*
D03*
X375000D03*
D03*
X390000D03*
D03*
X382500D03*
D03*
X387500Y355000D03*
D03*
X380000D03*
D03*
X365000Y367500D03*
D03*
Y375000D03*
D03*
Y382500D03*
D03*
Y360000D03*
D03*
X370000D03*
D03*
Y367500D03*
D03*
Y375000D03*
D03*
Y382500D03*
D03*
X365000Y397500D03*
D03*
Y405000D03*
D03*
Y412500D03*
D03*
Y390000D03*
D03*
X370000Y397500D03*
D03*
Y405000D03*
D03*
Y412500D03*
D03*
Y390000D03*
D03*
X365000Y427500D03*
D03*
Y420000D03*
D03*
Y435000D03*
D03*
X370000Y427500D03*
D03*
Y420000D03*
D03*
X405000Y-360000D03*
D03*
X397500D03*
D03*
X412500D03*
D03*
X420000D03*
D03*
X405000Y-355000D03*
D03*
X397500D03*
D03*
X412500D03*
D03*
X420000D03*
D03*
X405000Y-350000D03*
D03*
X397500D03*
D03*
X412500D03*
D03*
X420000D03*
D03*
X397500Y-345000D03*
D03*
X405000D03*
D03*
X412500D03*
D03*
X405000Y-340000D03*
D03*
X397500D03*
D03*
X417500D03*
D03*
X412500Y-335000D03*
D03*
X397500D03*
D03*
X417500Y-330000D03*
D03*
X397500Y-302500D03*
D03*
X420000D03*
D03*
Y-310000D03*
D03*
X415000Y-320000D03*
D03*
X412500Y-325000D03*
D03*
X407500Y-330000D03*
D03*
X397500Y-295000D03*
D03*
X420000D03*
D03*
X397500Y-247500D03*
D03*
Y-252500D03*
D03*
X420000Y-247500D03*
D03*
Y-252500D03*
D03*
X401470Y-166340D03*
D03*
X406140Y-163260D03*
D03*
X410800Y-160180D03*
D03*
X415470Y-157100D03*
D03*
X392500Y-62500D03*
D03*
X396240Y-72500D03*
D03*
X402500Y-67500D03*
D03*
X412500Y-75000D03*
D03*
X417500Y-47500D03*
D03*
X402500Y-37500D03*
D03*
X407500Y-52500D03*
D03*
X415000D03*
D03*
X400000D03*
D03*
X392500D03*
D03*
X396240Y-2500D03*
D03*
Y-27500D03*
D03*
X402500Y-12500D03*
D03*
X412500Y-5000D03*
D03*
Y-30000D03*
D03*
X392500Y-22500D03*
D03*
X420000Y7500D03*
D03*
X402500Y2500D03*
D03*
X396240Y40000D03*
D03*
X402500Y45000D03*
D03*
Y32500D03*
D03*
X412500Y37500D03*
D03*
X402500Y75000D03*
D03*
X410000Y145000D03*
D03*
X402500D03*
D03*
X395000D03*
D03*
X417500D03*
D03*
X410000Y162500D03*
D03*
X402500D03*
D03*
X395000D03*
D03*
X410000Y157500D03*
D03*
X402500D03*
D03*
X395000D03*
D03*
X410000Y150000D03*
D03*
X402500D03*
D03*
X395000D03*
D03*
X417500D03*
D03*
Y157500D03*
D03*
Y162500D03*
D03*
X420000Y205000D03*
D03*
X412500Y207500D03*
D03*
X405000D03*
D03*
X397500D03*
D03*
X420000Y235000D03*
D03*
Y227500D03*
D03*
Y220000D03*
D03*
Y212500D03*
D03*
X412500D03*
D03*
X405000D03*
D03*
X397500D03*
D03*
X415000Y220000D03*
D03*
Y235000D03*
D03*
Y227500D03*
D03*
X420000Y242500D03*
D03*
Y265000D03*
D03*
Y257500D03*
D03*
Y250000D03*
D03*
X415000D03*
D03*
Y242500D03*
D03*
Y257500D03*
D03*
Y265000D03*
D03*
X420000Y280000D03*
D03*
Y295000D03*
D03*
Y287500D03*
D03*
Y272500D03*
D03*
X415000Y287500D03*
D03*
Y280000D03*
D03*
Y272500D03*
D03*
X405000Y325000D03*
D03*
X397500D03*
D03*
X420000Y310000D03*
D03*
Y302500D03*
D03*
X395000Y350000D03*
D03*
X417500D03*
D03*
X410000D03*
D03*
X402500D03*
D03*
Y345000D03*
D03*
X410000D03*
D03*
X417500D03*
D03*
X395000D03*
D03*
X402500Y340000D03*
D03*
X410000D03*
D03*
X417500D03*
D03*
X395000D03*
D03*
X405000Y330000D03*
D03*
X397500D03*
D03*
X395000Y355000D03*
D03*
X417500D03*
D03*
X410000D03*
D03*
X402500D03*
D03*
X442500Y-375000D03*
D03*
Y-367500D03*
D03*
X437500Y-375000D03*
D03*
Y-367500D03*
D03*
X447500D03*
D03*
Y-375000D03*
D03*
X442500Y-352500D03*
D03*
Y-337500D03*
D03*
Y-360000D03*
D03*
X437500Y-345000D03*
D03*
Y-360000D03*
D03*
X447500Y-337500D03*
D03*
Y-345000D03*
D03*
Y-352500D03*
D03*
Y-360000D03*
D03*
X427500D03*
D03*
X422500Y-335000D03*
D03*
X425000Y-345000D03*
D03*
X430000Y-340000D03*
D03*
X435000Y-335000D03*
D03*
X432500Y-350000D03*
D03*
X427500Y-355000D03*
D03*
X442500Y-322500D03*
D03*
Y-315000D03*
D03*
Y-307500D03*
D03*
Y-330000D03*
D03*
X437500Y-322500D03*
D03*
Y-315000D03*
D03*
Y-307500D03*
D03*
Y-330000D03*
D03*
X447500Y-307500D03*
D03*
Y-315000D03*
D03*
Y-322500D03*
D03*
Y-330000D03*
D03*
X432500Y-322500D03*
D03*
Y-315000D03*
D03*
Y-307500D03*
D03*
X427500Y-315000D03*
D03*
Y-307500D03*
D03*
Y-330000D03*
D03*
X422500Y-325000D03*
D03*
X427500Y-320000D03*
D03*
X442500Y-292500D03*
D03*
Y-285000D03*
D03*
Y-277500D03*
D03*
Y-300000D03*
D03*
X437500Y-292500D03*
D03*
Y-285000D03*
D03*
Y-277500D03*
D03*
Y-300000D03*
D03*
X447500Y-277500D03*
D03*
Y-285000D03*
D03*
Y-292500D03*
D03*
Y-300000D03*
D03*
X432500Y-285000D03*
D03*
Y-277500D03*
D03*
Y-292500D03*
D03*
Y-300000D03*
D03*
X427500Y-285000D03*
D03*
Y-277500D03*
D03*
Y-292500D03*
D03*
Y-300000D03*
D03*
X422500Y-277500D03*
D03*
Y-285000D03*
D03*
Y-292500D03*
D03*
X442500Y-262500D03*
D03*
Y-255000D03*
D03*
Y-247500D03*
D03*
Y-270000D03*
D03*
X437500Y-262500D03*
D03*
Y-255000D03*
D03*
Y-247500D03*
D03*
Y-270000D03*
D03*
X447500Y-247500D03*
D03*
Y-255000D03*
D03*
Y-262500D03*
D03*
Y-270000D03*
D03*
X432500Y-262500D03*
D03*
Y-255000D03*
D03*
Y-247500D03*
D03*
Y-270000D03*
D03*
X427500Y-255000D03*
D03*
Y-247500D03*
D03*
Y-262500D03*
D03*
Y-270000D03*
D03*
X422500Y-260000D03*
D03*
Y-270000D03*
D03*
X442500Y-232500D03*
D03*
Y-225000D03*
D03*
Y-217500D03*
D03*
X437500Y-232500D03*
D03*
Y-225000D03*
D03*
Y-217500D03*
D03*
X442500Y-240000D03*
D03*
X437500D03*
D03*
X447500D03*
D03*
Y-217500D03*
D03*
Y-225000D03*
D03*
Y-232500D03*
D03*
X432500D03*
D03*
Y-225000D03*
D03*
Y-217500D03*
D03*
Y-240000D03*
D03*
X427500Y-217500D03*
D03*
Y-225000D03*
D03*
Y-232500D03*
D03*
Y-240000D03*
D03*
X442500Y-210000D03*
D03*
Y-202500D03*
D03*
Y-195000D03*
D03*
Y-187500D03*
D03*
X437500Y-210000D03*
D03*
Y-202500D03*
D03*
Y-195000D03*
D03*
Y-187500D03*
D03*
X447500D03*
D03*
Y-195000D03*
D03*
Y-202500D03*
D03*
Y-210000D03*
D03*
X432500Y-202500D03*
D03*
Y-195000D03*
D03*
Y-187500D03*
D03*
Y-210000D03*
D03*
X427500Y-202500D03*
D03*
Y-187500D03*
D03*
Y-195000D03*
D03*
Y-210000D03*
D03*
X442500Y-180000D03*
D03*
Y-172500D03*
D03*
Y-165000D03*
D03*
Y-157500D03*
D03*
X437500Y-180000D03*
D03*
Y-172500D03*
D03*
Y-165000D03*
D03*
Y-157500D03*
D03*
X447500D03*
D03*
Y-165000D03*
D03*
Y-172500D03*
D03*
Y-180000D03*
D03*
X432500Y-172500D03*
D03*
Y-165000D03*
D03*
Y-157500D03*
D03*
Y-180000D03*
D03*
X427500Y-172500D03*
D03*
Y-157500D03*
D03*
Y-165000D03*
D03*
Y-180000D03*
D03*
X442500Y-150000D03*
D03*
Y-142500D03*
D03*
Y-135000D03*
D03*
Y-127500D03*
D03*
X437500Y-150000D03*
D03*
Y-142500D03*
D03*
Y-135000D03*
D03*
Y-127500D03*
D03*
X447500D03*
D03*
Y-135000D03*
D03*
Y-142500D03*
D03*
Y-150000D03*
D03*
X432500Y-142500D03*
D03*
Y-135000D03*
D03*
Y-127500D03*
D03*
Y-150000D03*
D03*
X427500Y-142500D03*
D03*
Y-127500D03*
D03*
Y-135000D03*
D03*
Y-150000D03*
D03*
X442500Y-120000D03*
D03*
Y-112500D03*
D03*
Y-105000D03*
D03*
Y-97500D03*
D03*
X437500Y-120000D03*
D03*
Y-112500D03*
D03*
Y-105000D03*
D03*
Y-97500D03*
D03*
X447500D03*
D03*
Y-105000D03*
D03*
Y-112500D03*
D03*
Y-120000D03*
D03*
X432500D03*
D03*
Y-112500D03*
D03*
Y-105000D03*
D03*
Y-97500D03*
D03*
X427500Y-112500D03*
D03*
Y-97500D03*
D03*
Y-105000D03*
D03*
Y-120000D03*
D03*
X442500Y-67500D03*
D03*
Y-90000D03*
D03*
Y-82500D03*
D03*
Y-75000D03*
D03*
X437500Y-67500D03*
D03*
Y-90000D03*
D03*
Y-82500D03*
D03*
Y-75000D03*
D03*
X447500Y-67500D03*
D03*
Y-75000D03*
D03*
Y-82500D03*
D03*
Y-90000D03*
D03*
X432500D03*
D03*
Y-82500D03*
D03*
Y-75000D03*
D03*
Y-67500D03*
D03*
X427500Y-82500D03*
D03*
Y-90000D03*
D03*
X442500Y-37500D03*
D03*
Y-60000D03*
D03*
Y-52500D03*
D03*
Y-45000D03*
D03*
X437500Y-37500D03*
D03*
Y-60000D03*
D03*
Y-52500D03*
D03*
Y-45000D03*
D03*
X447500Y-37500D03*
D03*
Y-45000D03*
D03*
Y-52500D03*
D03*
Y-60000D03*
D03*
X432500D03*
D03*
Y-52500D03*
D03*
Y-45000D03*
D03*
Y-37500D03*
D03*
X442500Y-7500D03*
D03*
Y-30000D03*
D03*
Y-22500D03*
D03*
Y-15000D03*
D03*
X437500Y-7500D03*
D03*
Y-30000D03*
D03*
Y-22500D03*
D03*
Y-15000D03*
D03*
X447500Y-7500D03*
D03*
Y-15000D03*
D03*
Y-22500D03*
D03*
Y-30000D03*
D03*
X432500D03*
D03*
Y-22500D03*
D03*
Y-15000D03*
D03*
Y-7500D03*
D03*
X427500D03*
D03*
Y-22500D03*
D03*
Y-15000D03*
D03*
X422500Y-7500D03*
D03*
Y-22500D03*
D03*
Y-15000D03*
D03*
Y12500D03*
D03*
X425000Y17500D03*
D03*
X427500Y22500D03*
D03*
X442500D03*
D03*
Y0D03*
D03*
Y7500D03*
D03*
Y15000D03*
D03*
X437500Y22500D03*
D03*
Y0D03*
D03*
Y7500D03*
D03*
Y15000D03*
D03*
X447500Y22500D03*
D03*
Y15000D03*
D03*
Y7500D03*
D03*
Y0D03*
D03*
X432500Y22500D03*
D03*
Y0D03*
D03*
Y7500D03*
D03*
Y15000D03*
D03*
X427500Y0D03*
D03*
Y7500D03*
D03*
Y15000D03*
D03*
X422500Y0D03*
D03*
X432500Y50000D03*
D03*
X437500Y55000D03*
D03*
X442500Y52500D03*
D03*
Y30000D03*
D03*
Y37500D03*
D03*
Y45000D03*
D03*
X437500Y30000D03*
D03*
Y37500D03*
D03*
Y45000D03*
D03*
X447500D03*
D03*
Y37500D03*
D03*
Y30000D03*
D03*
Y52500D03*
D03*
X432500Y30000D03*
D03*
Y37500D03*
D03*
Y45000D03*
D03*
X427500Y30000D03*
D03*
Y37500D03*
D03*
Y45000D03*
D03*
Y52500D03*
D03*
X422500Y30000D03*
D03*
Y37500D03*
D03*
Y45000D03*
D03*
Y52500D03*
D03*
X442500Y60000D03*
D03*
X445000Y65000D03*
D03*
X442500Y75000D03*
D03*
Y82500D03*
D03*
X437500Y75000D03*
D03*
Y82500D03*
D03*
Y67500D03*
D03*
X447500Y82500D03*
D03*
Y75000D03*
D03*
Y60000D03*
D03*
X432500Y82500D03*
D03*
Y67500D03*
D03*
Y75000D03*
D03*
X427500D03*
D03*
Y82500D03*
D03*
Y67500D03*
D03*
X422500Y75000D03*
D03*
Y82500D03*
D03*
Y67500D03*
D03*
X442500Y105000D03*
D03*
Y112500D03*
D03*
Y90000D03*
D03*
Y97500D03*
D03*
X437500Y105000D03*
D03*
Y112500D03*
D03*
Y90000D03*
D03*
Y97500D03*
D03*
X447500Y112500D03*
D03*
Y105000D03*
D03*
Y97500D03*
D03*
Y90000D03*
D03*
X432500Y112500D03*
D03*
Y90000D03*
D03*
Y97500D03*
D03*
Y105000D03*
D03*
X427500D03*
D03*
Y112500D03*
D03*
Y90000D03*
D03*
Y97500D03*
D03*
X422500Y105000D03*
D03*
Y112500D03*
D03*
Y90000D03*
D03*
Y97500D03*
D03*
X442500Y135000D03*
D03*
Y142500D03*
D03*
Y120000D03*
D03*
Y127500D03*
D03*
X437500Y135000D03*
D03*
Y142500D03*
D03*
Y120000D03*
D03*
Y127500D03*
D03*
X447500Y142500D03*
D03*
Y135000D03*
D03*
Y127500D03*
D03*
Y120000D03*
D03*
X432500D03*
D03*
Y127500D03*
D03*
Y135000D03*
D03*
X427500Y120000D03*
D03*
Y127500D03*
D03*
X422500Y120000D03*
D03*
Y127500D03*
D03*
X442500Y165000D03*
D03*
Y172500D03*
D03*
Y150000D03*
D03*
Y157500D03*
D03*
X437500Y165000D03*
D03*
Y172500D03*
D03*
Y150000D03*
D03*
Y157500D03*
D03*
X447500Y172500D03*
D03*
Y165000D03*
D03*
Y157500D03*
D03*
Y150000D03*
D03*
X425000Y167500D03*
D03*
Y175000D03*
D03*
X442500Y202500D03*
D03*
Y195000D03*
D03*
Y180000D03*
D03*
Y187500D03*
D03*
X437500Y180000D03*
D03*
Y187500D03*
D03*
X447500D03*
D03*
Y180000D03*
D03*
Y195000D03*
D03*
Y202500D03*
D03*
X437500Y195000D03*
D03*
Y202500D03*
D03*
X425000Y205000D03*
D03*
Y197500D03*
D03*
Y190000D03*
D03*
Y182500D03*
D03*
X442500Y232500D03*
D03*
Y225000D03*
D03*
Y217500D03*
D03*
Y210000D03*
D03*
X447500D03*
D03*
Y217500D03*
D03*
Y225000D03*
D03*
Y232500D03*
D03*
X437500Y217500D03*
D03*
Y225000D03*
D03*
Y232500D03*
D03*
Y210000D03*
D03*
X425000Y235000D03*
D03*
Y227500D03*
D03*
Y220000D03*
D03*
Y212500D03*
D03*
X442500Y262500D03*
D03*
Y255000D03*
D03*
Y247500D03*
D03*
Y240000D03*
D03*
X447500D03*
D03*
Y247500D03*
D03*
Y255000D03*
D03*
Y262500D03*
D03*
X437500Y247500D03*
D03*
Y255000D03*
D03*
Y262500D03*
D03*
Y240000D03*
D03*
X425000Y242500D03*
D03*
Y265000D03*
D03*
Y257500D03*
D03*
Y250000D03*
D03*
X442500Y292500D03*
D03*
Y285000D03*
D03*
Y277500D03*
D03*
Y270000D03*
D03*
X447500D03*
D03*
Y277500D03*
D03*
Y285000D03*
D03*
Y292500D03*
D03*
X437500Y277500D03*
D03*
Y285000D03*
D03*
Y292500D03*
D03*
Y270000D03*
D03*
X425000Y280000D03*
D03*
Y295000D03*
D03*
Y287500D03*
D03*
Y272500D03*
D03*
X442500Y322500D03*
D03*
Y315000D03*
D03*
Y307500D03*
D03*
Y300000D03*
D03*
X447500D03*
D03*
Y307500D03*
D03*
Y315000D03*
D03*
Y322500D03*
D03*
X437500Y307500D03*
D03*
Y315000D03*
D03*
Y322500D03*
D03*
Y300000D03*
D03*
X425000Y310000D03*
D03*
Y302500D03*
D03*
X442500Y330000D03*
D03*
X447500D03*
D03*
X437500D03*
D03*
X425000Y350000D03*
D03*
X432500D03*
D03*
Y345000D03*
D03*
X425000D03*
D03*
X432500Y340000D03*
D03*
X425000D03*
D03*
Y355000D03*
D03*
X432500D03*
D03*
G54D12*
X-325860Y-107310D03*
X-335860Y-70000D03*
Y-60000D03*
Y-50000D03*
Y-40000D03*
Y-30000D03*
Y-20000D03*
Y-10000D03*
Y0D03*
Y10000D03*
Y20000D03*
Y30000D03*
Y40000D03*
Y50000D03*
Y60000D03*
Y70000D03*
X-325860Y107310D03*
X-295860Y-159270D03*
X-300860Y-150610D03*
X-305860Y-141950D03*
X-310860Y-133290D03*
X-315860Y-124630D03*
X-320860Y-115970D03*
Y115970D03*
X-315860Y124630D03*
X-310860Y133290D03*
X-305860Y141950D03*
X-300860Y150610D03*
X-295860Y159270D03*
X-265860Y-211230D03*
X-270860Y-202570D03*
X-275860Y-193910D03*
X-280860Y-185250D03*
X-285860Y-176590D03*
X-290860Y-167930D03*
Y167930D03*
X-285860Y176590D03*
X-280860Y185250D03*
X-275860Y193910D03*
X-270860Y202570D03*
X-265860Y211230D03*
X-255860Y-228550D03*
X-260860Y-219890D03*
Y219890D03*
X-255860Y228550D03*
X-211230Y-265860D03*
X-219890Y-260860D03*
X-228550Y-255860D03*
Y255860D03*
X-219890Y260860D03*
X-211230Y265860D03*
X-176590Y-285860D03*
X-185250Y-280860D03*
X-193910Y-275860D03*
X-202570Y-270860D03*
Y270860D03*
X-193910Y275860D03*
X-185250Y280860D03*
X-176590Y285860D03*
X-150610Y-300860D03*
X-159270Y-295860D03*
X-167930Y-290860D03*
Y290860D03*
X-159270Y295860D03*
X-150610Y300860D03*
X-115970Y-320860D03*
X-124630Y-315860D03*
X-133290Y-310860D03*
X-141950Y-305860D03*
Y305860D03*
X-133290Y310860D03*
X-124630Y315860D03*
X-115970Y320860D03*
X-107310Y-325860D03*
Y325860D03*
X-60000Y-335860D03*
X-70000D03*
Y335860D03*
X-60000D03*
X-30000Y-335860D03*
X-40000D03*
X-50000D03*
Y335860D03*
X-40000D03*
X-30000D03*
X0Y-335860D03*
X-10000D03*
X-20000D03*
Y335860D03*
X-10000D03*
X0D03*
X30000Y-335860D03*
X20000D03*
X10000D03*
Y335860D03*
X20000D03*
X30000D03*
X60000Y-335860D03*
X50000D03*
X40000D03*
Y335860D03*
X50000D03*
X60000D03*
X70000Y-335860D03*
Y335860D03*
X115970Y-320860D03*
X107310Y-325860D03*
Y325860D03*
X115970Y320860D03*
X150610Y-300860D03*
X141950Y-305860D03*
X133290Y-310860D03*
X124630Y-315860D03*
X150610Y300860D03*
X124630Y315860D03*
X133290Y310860D03*
X141950Y305860D03*
X176590Y-285860D03*
X167930Y-290860D03*
X159270Y-295860D03*
Y295860D03*
X167930Y290860D03*
X176590Y285860D03*
X202570Y-270860D03*
X193910Y-275860D03*
X185250Y-280860D03*
X211230Y-265860D03*
X202570Y270860D03*
X211230Y265860D03*
X185250Y280860D03*
X193910Y275860D03*
X228550Y-255860D03*
X219890Y-260860D03*
Y260860D03*
X228550Y255860D03*
X265860Y-211230D03*
X260860Y-219890D03*
X255860Y-228550D03*
X270860Y-202570D03*
Y202570D03*
X255860Y228550D03*
X260860Y219890D03*
X265860Y211230D03*
X280860Y-185250D03*
X275860Y-193910D03*
X300860Y-150610D03*
X295860Y-159270D03*
X290860Y-167930D03*
X285860Y-176590D03*
X300860Y150610D03*
X285860Y176590D03*
X290860Y167930D03*
X295860Y159270D03*
X275860Y193910D03*
X280860Y185250D03*
X315860Y-124630D03*
X310860Y-133290D03*
X305860Y-141950D03*
X325860Y-107310D03*
X320860Y-115970D03*
Y115970D03*
X325860Y107310D03*
X305860Y141950D03*
X310860Y133290D03*
X315860Y124630D03*
X335860Y-70000D03*
Y-40000D03*
Y-50000D03*
Y-60000D03*
Y-10000D03*
Y-20000D03*
Y-30000D03*
Y20000D03*
Y10000D03*
Y0D03*
Y50000D03*
Y40000D03*
Y30000D03*
Y70000D03*
Y60000D03*
G54D13*
X-340000Y380000D03*
D03*
X-330000D03*
D03*
X-320000D03*
D03*
X-310000D03*
D03*
X-290000D03*
D03*
X-280000D03*
D03*
X-270000D03*
D03*
G54D14*
X0Y0D03*
G54D15*
G01X-435000Y-453210D02*
Y-435000D01*
G01D02*
Y-416790D01*
G01Y-435000D02*
X-416790D01*
G01X-435000Y416790D02*
Y435000D01*
G01D02*
X-416790D01*
G01X-400000Y-418210D02*
Y-400000D01*
G01D02*
Y-381790D01*
G01X-418210Y-400000D02*
X-400000D01*
G01D02*
X-381790D01*
G01X-400000Y381790D02*
Y400000D01*
G01D02*
Y418210D01*
G01X-418210Y400000D02*
X-400000D01*
G01D02*
X-381790D01*
G01X-335860Y56290D02*
Y60000D01*
G01D02*
Y63710D01*
G01X-339570Y60000D02*
X-335860D01*
G01D02*
X-332150D01*
G01X-330000Y377320D02*
Y380000D01*
G01D02*
Y382680D01*
G01X-332680Y380000D02*
X-330000D01*
G01D02*
X-327320D01*
G01X-320860Y-119680D02*
Y-115970D01*
G01D02*
Y-112260D01*
G01X-324570Y-115970D02*
X-320860D01*
G01D02*
X-317150D01*
G01X-285710Y0D02*
X0D01*
G01X-280000Y377320D02*
Y380000D01*
G01D02*
Y382680D01*
G01X-282680Y380000D02*
X-280000D01*
G01D02*
X-277320D01*
G01X-290000Y377320D02*
Y380000D01*
G01D02*
Y382680D01*
G01X-292680Y380000D02*
X-290000D01*
G01D02*
X-287320D01*
G01X-260860Y216180D02*
Y219890D01*
G01D02*
Y223600D01*
G01X-264570Y219890D02*
X-260860D01*
G01D02*
X-257150D01*
G01X-219890Y-264570D02*
Y-260860D01*
G01D02*
Y-257150D01*
G01X-223600Y-260860D02*
X-219890D01*
G01D02*
X-216180D01*
G01X-210710Y412500D02*
X-192500D01*
G01Y394290D02*
Y412500D01*
G01D02*
Y430710D01*
G01Y412500D02*
X-174290D01*
G01X-115970Y317150D02*
Y320860D01*
G01D02*
Y324570D01*
G01X-119680Y320860D02*
X-115970D01*
G01D02*
X-112260D01*
G01X-60000Y-339570D02*
Y-335860D01*
G01D02*
Y-332150D01*
G01X-63710Y-335860D02*
X-60000D01*
G01D02*
X-56290D01*
G01X0Y-285710D02*
Y0D01*
G01D02*
Y285710D01*
G01Y0D02*
X285710D01*
G01X60000Y332150D02*
Y335860D01*
G01D02*
Y339570D01*
G01X56290Y335860D02*
X60000D01*
G01D02*
X63710D01*
G01X115970Y-324570D02*
Y-320860D01*
G01D02*
Y-317150D01*
G01X112260Y-320860D02*
X115970D01*
G01D02*
X119680D01*
G01X219890Y257150D02*
Y260860D01*
G01D02*
Y264570D01*
G01X216180Y260860D02*
X219890D01*
G01D02*
X223600D01*
G01X260860Y-223600D02*
Y-219890D01*
G01D02*
Y-216180D01*
G01X257150Y-219890D02*
X260860D01*
G01D02*
X264570D01*
G01X320860Y112260D02*
Y115970D01*
G01D02*
Y119680D01*
G01X317150Y115970D02*
X320860D01*
G01D02*
X324570D01*
G01X335860Y-63710D02*
Y-60000D01*
G01D02*
Y-56290D01*
G01X332150Y-60000D02*
X335860D01*
G01D02*
X339570D01*
G01X381790Y-400000D02*
X400000D01*
G01X381790Y400000D02*
X400000D01*
G01X416790Y-435000D02*
X435000D01*
G01X400000Y-418210D02*
Y-400000D01*
G01D02*
Y-381790D01*
G01Y-400000D02*
X418210D01*
G01X400000Y381790D02*
Y400000D01*
G01D02*
Y418210D01*
G01Y400000D02*
X418210D01*
G01X416790Y435000D02*
X435000D01*
G01Y-453210D02*
Y-435000D01*
G01D02*
Y-416790D01*
G01Y416790D02*
Y435000D01*
G54D16*
G01X-432500Y-65000D02*
X-437500Y-60000D01*
Y40760D01*
X-417500Y60760D01*
Y137500D01*
X-413300Y141700D01*
Y160180D01*
G01X-340800Y-274820D02*
X-345620Y-270000D01*
X-390000D01*
X-397500Y-262500D01*
Y-140000D01*
X-392500Y-135000D01*
Y-72500D01*
X-400000Y-65000D01*
X-432500D01*
G01X-417970Y157100D02*
X-420000Y155070D01*
Y62500D01*
X-430000Y52500D01*
X-438260D01*
X-442500Y48260D01*
Y-67500D01*
X-440000Y-70000D01*
X-435000D01*
G01D02*
X-407500D01*
X-402500Y-75000D01*
Y-267500D01*
X-392500Y-277500D01*
X-343370D01*
X-340470Y-280400D01*
G01X-383480Y-169150D02*
Y-59020D01*
X-390000Y-52500D01*
X-422500D01*
X-427500Y-47500D01*
Y30000D01*
X-412500Y45000D01*
G01X-403970Y166340D02*
X-403370Y164110D01*
Y141630D01*
X-412500Y132500D01*
Y50000D01*
X-430000Y32500D01*
Y-52500D01*
X-427500Y-55000D01*
G01X-341470Y-263660D02*
X-345130Y-260000D01*
X-382500D01*
X-390000Y-252500D01*
Y-170000D01*
X-385000Y-165000D01*
Y-65000D01*
X-395000Y-55000D01*
X-427500D01*
G01X-430000Y-60000D02*
Y-57500D01*
X-432500Y-55000D01*
Y35000D01*
X-415000Y52500D01*
Y135000D01*
X-408640Y141360D01*
Y163260D01*
G01X-430000Y-60000D02*
X-397500D01*
X-389190Y-68310D01*
Y-164190D01*
X-395000Y-170000D01*
Y-255000D01*
X-387500Y-262500D01*
X-347880D01*
X-341140Y-269240D01*
G01X-354980Y-228570D02*
X-366430D01*
X-372500Y-222500D01*
Y-40000D01*
X-392500Y-20000D01*
X-420000D01*
G01D02*
X-422500Y-17500D01*
Y9000D01*
X-419000Y12500D01*
X-385000D01*
X-379190Y18310D01*
Y190990D01*
X-379980Y193930D01*
G01X-422500Y-25000D02*
X-392500D01*
X-377500Y-40000D01*
Y-132500D01*
X-375000Y-135000D01*
Y-227500D01*
X-368950Y-233550D01*
X-356870D01*
X-354640Y-234150D01*
G01X-384640Y190850D02*
Y147860D01*
X-402500Y130000D01*
Y65000D01*
X-407500Y60000D01*
Y42500D01*
X-425000Y25000D01*
Y-22500D01*
X-422500Y-25000D01*
G01X-355310Y-222990D02*
X-360000Y-218300D01*
Y-170000D01*
X-367500Y-162500D01*
Y-150000D01*
X-362500Y-145000D01*
Y-27500D01*
X-375000Y-15000D01*
X-417500D01*
G01D02*
Y5000D01*
X-415000Y7500D01*
X-382500D01*
X-375000Y15000D01*
Y140000D01*
X-373190Y141810D01*
Y189130D01*
X-375310Y197010D01*
G01X-415000Y-10000D02*
X-372500D01*
G01X-338480Y248350D02*
X-386650D01*
X-390000Y245000D01*
Y147500D01*
X-410000Y127500D01*
Y47500D01*
X-412500Y45000D01*
G01X-263660Y343970D02*
X-277630Y330000D01*
X-347500D01*
X-403970Y273530D01*
Y166340D01*
G01X-269240Y343640D02*
X-277880Y335000D01*
X-352500D01*
X-408640Y278860D01*
Y163260D01*
G01X-274820Y343300D02*
X-278120Y340000D01*
X-357500D01*
X-413300Y284200D01*
Y160180D01*
G01X-280400Y342970D02*
X-282630Y343570D01*
X-363930D01*
X-417970Y289530D01*
Y157100D01*
G01X-383480Y-169150D02*
Y-244020D01*
X-377500Y-250000D01*
X-341000D01*
X-269710Y-321290D01*
X-267790D01*
X-266450Y-319950D01*
X-265220D01*
X-250340Y-334830D01*
X-248350Y-335980D01*
G01X-372500Y-10000D02*
X-355650Y-26850D01*
Y-202150D01*
X-356290Y-202790D01*
Y-204710D01*
X-355650Y-205350D01*
Y-217410D01*
G01X-370650Y200090D02*
Y-8150D01*
X-372500Y-10000D01*
G01X-375310Y197010D02*
Y217190D01*
X-372500Y220000D01*
X-332700D01*
X-317500Y235200D01*
Y256920D01*
X-317790Y257210D01*
Y299710D01*
X-305000Y312500D01*
X-230000D01*
X-225000Y317500D01*
Y353300D01*
X-222990Y355310D01*
G01X-379980Y193930D02*
Y220020D01*
X-375000Y225000D01*
X-332500D01*
X-325000Y232500D01*
Y300000D01*
X-307500Y317500D01*
X-242500D01*
X-235000Y325000D01*
Y348550D01*
X-228570Y354980D01*
G01X-384640Y190850D02*
Y227860D01*
X-380000Y232500D01*
X-337500D01*
X-330000Y240000D01*
Y307500D01*
X-315000Y322500D01*
X-252500D01*
X-247500Y327500D01*
Y347500D01*
X-242500Y352500D01*
X-236290D01*
X-234150Y354640D01*
G01X-217410Y355650D02*
X-222500Y350560D01*
Y315000D01*
X-235000Y302500D01*
X-297500D01*
X-302500Y297500D01*
Y240940D01*
X-327970Y215470D01*
X-369530D01*
X-370650Y214350D01*
Y200090D01*
G01X-163260Y-406140D02*
X-197500Y-407500D01*
X-265000Y-342500D01*
X-332500Y-270000D01*
X-341140Y-269240D01*
G01X-160180Y-410800D02*
X-195200Y-418460D01*
X-196540Y-419800D01*
X-198460D01*
X-202690Y-419090D01*
X-259800Y-358460D01*
Y-357290D01*
X-263460Y-354800D01*
X-264800Y-353460D01*
X-335000Y-275000D01*
X-340800Y-274820D01*
G01X-340470Y-280400D02*
X-265340Y-366470D01*
X-264800Y-368460D01*
X-263460Y-369800D01*
X-207500Y-432500D01*
X-136900Y-442500D01*
G01X-190850Y-382140D02*
X-200360D01*
X-246050Y-336450D01*
Y-335020D01*
X-247390Y-333680D01*
X-248820D01*
X-340000Y-242500D01*
X-346290D01*
X-354640Y-234150D01*
G01X-166340Y-401470D02*
X-198240Y-399680D01*
X-257790Y-339800D01*
X-260990D01*
X-270000Y-330750D01*
Y-327530D01*
X-332480Y-264710D01*
X-341470Y-263660D01*
G01X-355310Y-222990D02*
X-343300Y-235000D01*
X-324060D01*
X-255000Y-304060D01*
Y-315000D01*
X-232500Y-337500D01*
X-227500D01*
X-210000Y-355000D01*
Y-362650D01*
X-199240Y-373410D01*
X-197010Y-372810D01*
G01X-193930Y-377480D02*
X-200020D01*
X-297500Y-280000D01*
Y-270000D01*
X-330000Y-237500D01*
X-346050D01*
X-354980Y-228570D01*
G01X-200090Y-368150D02*
Y-354910D01*
X-220000Y-335000D01*
X-230000D01*
X-252500Y-312500D01*
Y-295000D01*
X-322500Y-225000D01*
X-348060D01*
X-355650Y-217410D01*
G01X-338480Y248350D02*
X-335000Y251830D01*
Y310000D01*
X-320000Y325000D01*
X-257500D01*
X-252500Y330000D01*
Y362500D01*
X-245000Y370000D01*
X-180130D01*
X-166650Y383480D01*
G01X-248350Y-335980D02*
Y-341660D01*
X-200010Y-390000D01*
X-160000D01*
X-137500Y-412500D01*
X-45000D01*
G01X-197010Y-372810D02*
X-162190D01*
X-159710Y-375290D01*
X-154710D01*
X-127500Y-402500D01*
X-2500D01*
X2500Y-407500D01*
Y-410760D01*
X9240Y-417500D01*
X15000D01*
G01X20000Y-420000D02*
X6740D01*
X-8260Y-405000D01*
X-135000D01*
X-163310Y-376690D01*
X-169190D01*
X-169980Y-377480D01*
X-193930D01*
G01X-190850Y-382140D02*
X-162860D01*
X-135000Y-410000D01*
X-7500D01*
X5000Y-422500D01*
X25000D01*
G01X-200090Y-368150D02*
X-156850D01*
X-125000Y-400000D01*
X0D01*
X10000Y-410000D01*
Y-415000D01*
G01X-136900Y-442500D02*
X-159600Y-419800D01*
G01X-166340Y-401470D02*
X-164110Y-400870D01*
X-156630D01*
X-122500Y-435000D01*
X54000D01*
X57500Y-431500D01*
Y-427500D01*
G01X62500Y-430000D02*
Y-437500D01*
X60000Y-440000D01*
X-122500D01*
X-155000Y-407500D01*
X-160910D01*
X-163260Y-406140D01*
G01X67500Y-432500D02*
Y-445000D01*
X62500Y-450000D01*
X-120980D01*
X-160180Y-410800D01*
G01X72500Y-435000D02*
Y-450000D01*
X67500Y-455000D01*
X-124400D01*
X-136900Y-442500D01*
G01X-60000Y437500D02*
X-57500Y440000D01*
X52500D01*
X75000Y417500D01*
X137500D01*
X151360Y403640D01*
X163260D01*
G01X-65000Y440000D02*
X-62500Y442500D01*
X55000D01*
X77500Y420000D01*
X140000D01*
X151700Y408300D01*
X160180D01*
G01X-70000Y442500D02*
X-67500Y445000D01*
X57500D01*
X80000Y422500D01*
X147570D01*
G01X-45000Y-412500D02*
X-12500D01*
X2500Y-427500D01*
X42500D01*
X50000Y-420000D01*
X152500D01*
X157500Y-415000D01*
Y-387630D01*
X164150Y-380980D01*
G01X-55000Y435000D02*
X-52500Y437500D01*
X45000D01*
X70000Y412500D01*
X137500D01*
X151030Y398970D01*
X166340D01*
G01X-10000Y422500D02*
Y392500D01*
X-2500Y385000D01*
X105000D01*
X124350Y365650D01*
X200090D01*
G01X-15000Y425000D02*
X-5000D01*
X-2500Y422500D01*
Y395000D01*
X2500Y390000D01*
X110000D01*
X125000Y375000D01*
X162500D01*
X167190Y370310D01*
X197010D01*
G01X193930Y374980D02*
X177520D01*
X170000Y382500D01*
X137500D01*
X127300Y392700D01*
X124040D01*
X121740Y395000D01*
X63260D01*
X60960Y397300D01*
X59040D01*
X56740Y395000D01*
X53260D01*
X50960Y397300D01*
X49040D01*
X46740Y395000D01*
X23260D01*
X20960Y397300D01*
X19040D01*
X16740Y395000D01*
X7500D01*
X5000Y397500D01*
Y425000D01*
X2500Y427500D01*
X-20000D01*
G01X-25000Y430000D02*
X-22500Y432500D01*
X7500D01*
X12500Y427500D01*
Y406040D01*
X16040Y402500D01*
X137500D01*
X155000Y385000D01*
X175000D01*
X177500Y382500D01*
X187990D01*
X190850Y379640D01*
G01X15000Y-417500D02*
X22500Y-410000D01*
X147500D01*
X150000Y-407500D01*
Y-380000D01*
X157500Y-372500D01*
X215000D01*
X220490Y-367010D01*
Y-355310D01*
G01X20000Y-420000D02*
X25000Y-415000D01*
X147500D01*
X152500Y-410000D01*
Y-382500D01*
X160000Y-375000D01*
X220000D01*
X224740Y-370260D01*
Y-359930D01*
X226070Y-354980D01*
G01X231650Y-354640D02*
X230000Y-356290D01*
Y-372500D01*
X225000Y-377500D01*
X162500D01*
X155000Y-385000D01*
Y-412500D01*
X150000Y-417500D01*
X47500D01*
X42500Y-422500D01*
X25000D01*
G01X10000Y-415000D02*
X20000Y-405000D01*
X140000D01*
X147500Y-397500D01*
Y-377500D01*
X155000Y-370000D01*
X210000D01*
X214910Y-365090D01*
Y-355650D01*
G01X263660Y-348300D02*
Y-416340D01*
X257500Y-422500D01*
X62500D01*
X57500Y-427500D01*
G01X248350Y333480D02*
Y386650D01*
X244800Y390200D01*
X154800D01*
X135000Y410000D01*
X67500D01*
X57500Y420000D01*
X45000D01*
G01X269240Y-347970D02*
Y-420760D01*
X265000Y-425000D01*
X67500D01*
X62500Y-430000D01*
G01X67500Y-432500D02*
X70000Y-430000D01*
X85000D01*
X87500Y-427500D01*
X270000D01*
X274820Y-422680D01*
Y-347630D01*
G01X72500Y-435000D02*
X87500D01*
X92500Y-430000D01*
X275000D01*
X280400Y-424600D01*
Y-347300D01*
G01X147570Y422500D02*
X157100Y412970D01*
G01X340470Y277900D02*
X341070Y280130D01*
X340000Y281200D01*
Y412500D01*
X330000Y422500D01*
X147570D01*
G01X333500Y-315000D02*
X290000D01*
X250000Y-355000D01*
Y-375000D01*
X243420Y-381580D01*
X166380D01*
X164150Y-380980D01*
G01X166340Y398970D02*
X236030D01*
X237500Y397500D01*
X307500D01*
X317500Y387500D01*
Y337500D01*
X320000Y335000D01*
Y267500D01*
X326340Y261160D01*
X341470D01*
G01X341140Y266740D02*
X337880Y270000D01*
X330000D01*
X325000Y275000D01*
Y400000D01*
X317500Y407500D01*
X243260D01*
X240960Y405200D01*
X239040D01*
X236740Y407500D01*
X172500D01*
X168640Y403640D01*
X163260D01*
G01X340800Y272320D02*
X335180D01*
X332500Y275000D01*
Y407500D01*
X327500Y412500D01*
X164380D01*
X160180Y408300D01*
G01X352810Y220490D02*
X342010D01*
X340000Y222500D01*
Y235000D01*
X337500Y237500D01*
X317500D01*
X295000Y260000D01*
Y297500D01*
X292500Y300000D01*
X245000D01*
X222500Y322500D01*
Y364990D01*
X217180Y370310D01*
X197010D01*
G01X193930Y374980D02*
X220020D01*
X229890Y365110D01*
Y324530D01*
X230000Y324420D01*
Y322500D01*
X235000Y317500D01*
X245000D01*
X255000Y307500D01*
X297500D01*
X300000Y305000D01*
Y265000D01*
X317500Y247500D01*
X342500D01*
X345000Y245000D01*
Y230000D01*
X347430Y226780D01*
X352480Y226070D01*
G01X352140Y231650D02*
X352740Y233880D01*
Y244760D01*
X345000Y252500D01*
X320000D01*
X307500Y265000D01*
Y305000D01*
X300000Y312500D01*
X265000D01*
X247500Y330000D01*
X242500D01*
X237500Y335000D01*
Y375000D01*
X235000Y377500D01*
X227500D01*
X225360Y379640D01*
X190850D01*
G01X200090Y365650D02*
X209360D01*
X215470Y359540D01*
Y322030D01*
X242500Y295000D01*
X285000D01*
X290000Y290000D01*
Y255000D01*
X327500Y217500D01*
X350560D01*
X353150Y214910D01*
G01X372810Y-197010D02*
Y-227190D01*
X367500Y-232500D01*
X330000D01*
X322500Y-240000D01*
Y-257500D01*
X317500Y-262500D01*
Y-295000D01*
X310000Y-302500D01*
X282500D01*
X242500Y-342500D01*
X225000D01*
X220490Y-347010D01*
Y-355310D01*
G01X226070Y-354980D02*
Y-348940D01*
X227510Y-347500D01*
X245000D01*
X287500Y-305000D01*
X322500D01*
X327500Y-300000D01*
Y-245000D01*
X335000Y-237500D01*
X372500D01*
X377480Y-232520D01*
Y-193930D01*
G01X382140Y-190850D02*
Y-235360D01*
X375000Y-242500D01*
X335000D01*
X332500Y-245000D01*
Y-305000D01*
X327500Y-310000D01*
X290010D01*
X245370Y-354640D01*
X231650D01*
G01X214910Y-355650D02*
Y-345090D01*
X222500Y-337500D01*
X240000D01*
X280000Y-297500D01*
X307500D01*
X312500Y-292500D01*
Y-255000D01*
X317500Y-250000D01*
Y-235000D01*
X327500Y-225000D01*
X365000D01*
X368150Y-221850D01*
Y-200090D01*
G01X263660Y-348300D02*
X289460Y-322500D01*
X390000D01*
X401470Y-311030D01*
Y-166340D01*
G01X269240Y-347970D02*
X292210Y-325000D01*
X395000D01*
X406140Y-313860D01*
Y-163260D01*
G01X248350Y333480D02*
X309020D01*
X312500Y330000D01*
Y267500D01*
X322500Y257500D01*
X382500D01*
X385000Y255000D01*
Y170670D01*
X378480Y164150D01*
G01X274820Y-347630D02*
X292450Y-330000D01*
X395000D01*
X410800Y-314200D01*
Y-160180D01*
G01X415470Y-157100D02*
Y-314530D01*
X397300Y-332700D01*
X394800D01*
X390000Y-337500D01*
X290200D01*
X280400Y-347300D01*
G01X338480Y-245850D02*
Y-310020D01*
X333500Y-315000D01*
G01D02*
X390000D01*
X395000Y-310000D01*
Y-152500D01*
X417500Y-130000D01*
Y-47500D01*
G01X353150Y214910D02*
X357500Y210560D01*
Y150000D01*
X355000Y147500D01*
Y120000D01*
X367500Y107500D01*
X385000D01*
X390000Y102500D01*
Y12500D01*
G01X352810Y220490D02*
X362010D01*
X365000Y217500D01*
Y182500D01*
X367500Y180000D01*
Y177500D01*
X365000Y175000D01*
Y145000D01*
X362030Y142030D01*
Y117970D01*
X370000Y110000D01*
X387500D01*
X392500Y105000D01*
Y17500D01*
X397500Y12500D01*
X422500D01*
G01X352480Y226070D02*
X366430D01*
X372500Y220000D01*
Y175000D01*
X367500Y170000D01*
Y120000D01*
X375000Y112500D01*
X390000D01*
X395000Y107500D01*
Y44500D01*
X398540Y40960D01*
Y18960D01*
X400000Y17500D01*
X425000D01*
G01X427500Y22500D02*
X410000D01*
X405000Y27500D01*
Y52500D01*
X397500Y60000D01*
Y110000D01*
X392500Y115000D01*
X377500D01*
X370270Y122230D01*
Y167770D01*
X380000Y177500D01*
Y225000D01*
X373350Y231650D01*
X352140D01*
G01X341470Y261160D02*
X403840D01*
X410000Y255000D01*
X420000D01*
X422500Y252500D01*
Y135000D01*
X412500Y125000D01*
Y58500D01*
X421000Y50000D01*
X432500D01*
G01X437500Y55000D02*
X435000Y57500D01*
X430000D01*
X425000Y62500D01*
Y145000D01*
X430000Y150000D01*
Y257500D01*
X425000Y262500D01*
X410000D01*
X405760Y266740D01*
X341140D01*
G01X442500Y60000D02*
X440870Y61630D01*
X433370D01*
X429800Y65200D01*
Y144800D01*
X432500Y147500D01*
Y262500D01*
X427500Y267500D01*
X412500D01*
X407680Y272320D01*
X340800D01*
G01X340470Y277900D02*
X342700Y277300D01*
X432700D01*
X435000Y275000D01*
Y72500D01*
X437500Y70000D01*
X442500D01*
X445000Y67500D01*
Y65000D01*
G01X372810Y-197010D02*
X370000Y-194200D01*
Y-140000D01*
X390000Y-120000D01*
Y-2500D01*
X392500Y0D01*
X417500D01*
X422500Y5000D01*
Y12500D01*
G01X425000Y17500D02*
Y-30000D01*
X420000Y-35000D01*
X410000D01*
X405000Y-40000D01*
Y-60000D01*
X400000Y-65000D01*
Y-125000D01*
X376690Y-148310D01*
Y-167210D01*
X376880Y-167400D01*
Y-191700D01*
X377480Y-193930D01*
G01X390000Y12500D02*
X385000Y7500D01*
Y-117490D01*
X362500Y-139990D01*
Y-194440D01*
X368150Y-200090D01*
G01X390000Y12500D02*
X395000Y7500D01*
X420000D01*
G01X378480Y164150D02*
X382500Y160130D01*
Y139480D01*
X386980Y135000D01*
X405000D01*
X407500Y132500D01*
Y55000D01*
X422500Y40000D01*
X429000D01*
X430000Y39000D01*
Y-40000D01*
X427500Y-42500D01*
X418500D01*
X417500Y-43500D01*
Y-47500D01*
G01X401470Y-166340D02*
X400870Y-164110D01*
Y-151630D01*
X420000Y-132500D01*
Y-50000D01*
X422500Y-47500D01*
X435000D01*
Y47500D01*
X432500Y50000D01*
G01X406140Y-163260D02*
Y-151360D01*
X422500Y-135000D01*
Y-62500D01*
X427500Y-57500D01*
X437500D01*
X440000Y-55000D01*
Y47500D01*
X437500Y50000D01*
Y55000D01*
G01X410800Y-160180D02*
Y-151700D01*
X425000Y-137500D01*
Y-67500D01*
X427300Y-65200D01*
X440560D01*
X445000Y-60760D01*
Y57500D01*
X442500Y60000D01*
G54D17*
G01X-460000Y-480000D02*
G03I-15000J5000D01*
G01X-465000D02*
G03I-10000J5000D01*
G01X-495000Y-475000D02*
X-455000D01*
G01X-485000Y500000D02*
Y460000D01*
G01X-470000Y475000D02*
G03I-15000J5000D01*
G01X-475000D02*
G03I-10000J5000D01*
G01X-505000Y480000D02*
X-465000D01*
G01X-160000Y447500D02*
X-162500Y450000D01*
X-450000D01*
Y-560000D01*
X450000D01*
Y450000D01*
X-150000D01*
X-45000Y267500D01*
X-55000Y262500D01*
X-160000Y447500D01*
G01X-475000Y-455000D02*
Y-495000D01*
G01X-376500Y-400000D02*
G03I-23500J0D01*
G01Y399930D02*
G03I-23500J2D01*
G01X275000Y0D02*
G03I-275000J0D01*
G01X0Y-9000D02*
Y9000D01*
G01Y-9000D02*
Y9000D01*
G01X-9000Y0D02*
X9000D01*
G01X-9000D02*
X9000D01*
G01X423500Y-400000D02*
G03I-23500J0D01*
G01Y399930D02*
G03I-23500J2D01*
G01X480000Y-450000D02*
Y-490000D01*
G01X495000Y-475000D02*
G03I-15000J5000D01*
G01X460000Y-470000D02*
X500000D01*
G01X490000Y-475000D02*
G03I-10000J5000D01*
G01Y455000D02*
G03I-15000J5000D01*
G01X475000Y480000D02*
Y440000D01*
G01X485000Y455000D02*
G03I-10000J5000D01*
G01X455000Y460000D02*
X495000D01*
M02*
