G04 ================== begin FILE IDENTIFICATION RECORD ==================*
G04 Layout Name:  I:/Project-Micheal G4 Project/G4 Arena 6-21-2017/LED_12inArena.brd*
G04 Film Name:    silk_screen_top*
G04 File Format:  Gerber RS274X*
G04 File Origin:  Cadence Allegro 17.2-P019*
G04 Origin Date:  Mon Oct 05 13:44:51 2020*
G04 *
G04 Layer:  CONSTRAINT REGION/ALL*
G04 Layer:  CONSTRAINT REGION/OUTER_LAYERS*
G04 Layer:  CONSTRAINT REGION/INNER_SIGNAL_LAYERS*
G04 Layer:  CONSTRAINT REGION/INNER_PLANE_LAYERS*
G04 Layer:  CONSTRAINT REGION/BOTTOM*
G04 Layer:  CONSTRAINT REGION/LAYER 2*
G04 Layer:  CONSTRAINT REGION/GND2*
G04 Layer:  CONSTRAINT REGION/LAYER 1*
G04 Layer:  CONSTRAINT REGION/PWR*
G04 Layer:  CONSTRAINT REGION/TOP*
G04 Layer:  VIA KEEPOUT/ALL*
G04 Layer:  VIA KEEPOUT/BOTTOM*
G04 Layer:  VIA KEEPOUT/LAYER 2*
G04 Layer:  VIA KEEPOUT/GND2*
G04 Layer:  VIA KEEPOUT/LAYER 1*
G04 Layer:  VIA KEEPOUT/PWR*
G04 Layer:  VIA KEEPOUT/TOP*
G04 Layer:  USER PART NUMBER/SILKSCREEN_TOP*
G04 Layer:  TOLERANCE/SILKSCREEN_TOP*
G04 Layer:  ROUTE KEEPOUT/ALL*
G04 Layer:  ROUTE KEEPOUT/BOTTOM*
G04 Layer:  ROUTE KEEPOUT/LAYER 2*
G04 Layer:  ROUTE KEEPOUT/GND2*
G04 Layer:  ROUTE KEEPOUT/LAYER 1*
G04 Layer:  ROUTE KEEPOUT/PWR*
G04 Layer:  ROUTE KEEPOUT/TOP*
G04 Layer:  ROUTE KEEPIN/ALL*
G04 Layer:  REF DES/SILKSCREEN_TOP*
G04 Layer:  PACKAGE KEEPOUT/ALL*
G04 Layer:  PACKAGE KEEPOUT/TOP*
G04 Layer:  PACKAGE KEEPOUT/BOTTOM*
G04 Layer:  PACKAGE KEEPIN/ALL*
G04 Layer:  DEVICE TYPE/SILKSCREEN_TOP*
G04 Layer:  COMPONENT VALUE/SILKSCREEN_TOP*
G04 Layer:  BOARD GEOMETRY/OUTLINE*
G04 *
G04 Offset:    (0.0 0.0)*
G04 Mirror:    No*
G04 Mode:      Positive*
G04 Rotation:  0*
G04 FullContactRelief:  No*
G04 UndefLineWidth:     0.1*
G04 ================== end FILE IDENTIFICATION RECORD ====================*
%FSLAX25Y25*MOIN*%
%IR0*IPPOS*OFA0.00000B0.00000*MIA0B0*SFA1.00000B1.00000*%
%ADD10C,.003*%
%ADD11C,.004*%
%ADD12C,.0039*%
%ADD13C,.0001*%
%ADD14C,.0003*%
G75*
%LPD*%
G75*
G54D10*
G01X-414930Y-272610D02*
X-415180Y-272480D01*
X-415470Y-272400D01*
X-415810D01*
X-416180Y-272530D01*
X-416470Y-272730D01*
X-416680Y-272980D01*
X-416850Y-273400D01*
X-416890Y-273780D01*
X-416810Y-274150D01*
X-416680Y-274400D01*
X-416430Y-274650D01*
X-416140Y-274820D01*
X-415850Y-274900D01*
X-415560D01*
X-415270Y-274820D01*
X-415020Y-274690D01*
X-414810Y-274530D01*
G01X-414270Y-274400D02*
X-414020Y-274690D01*
X-413680Y-274860D01*
X-413310Y-274900D01*
X-412970Y-274860D01*
X-412640Y-274650D01*
X-412430Y-274400D01*
X-412390Y-274150D01*
X-412470Y-273860D01*
X-412770Y-273650D01*
X-413060Y-273570D01*
X-413430D01*
G01X-413060D02*
X-412810Y-273440D01*
X-412600Y-273230D01*
X-412520Y-272980D01*
X-412600Y-272730D01*
X-412810Y-272530D01*
X-413180Y-272400D01*
X-413560Y-272440D01*
X-413930Y-272610D01*
G01X-411770Y-274400D02*
X-411520Y-274690D01*
X-411180Y-274860D01*
X-410810Y-274900D01*
X-410470Y-274860D01*
X-410140Y-274650D01*
X-409930Y-274400D01*
X-409890Y-274150D01*
X-409970Y-273860D01*
X-410270Y-273650D01*
X-410560Y-273570D01*
X-410930D01*
G01X-410560D02*
X-410310Y-273440D01*
X-410100Y-273230D01*
X-410020Y-272980D01*
X-410100Y-272730D01*
X-410310Y-272530D01*
X-410680Y-272400D01*
X-411060Y-272440D01*
X-411430Y-272610D01*
G01X-384770Y58310D02*
X-384520Y58180D01*
X-384230Y58100D01*
X-383890D01*
X-383520Y58230D01*
X-383230Y58430D01*
X-383020Y58680D01*
X-382850Y59100D01*
X-382810Y59480D01*
X-382890Y59850D01*
X-383020Y60100D01*
X-383270Y60350D01*
X-383560Y60520D01*
X-383850Y60600D01*
X-384140D01*
X-384430Y60520D01*
X-384680Y60390D01*
X-384890Y60230D01*
G01X-386350Y60600D02*
Y58100D01*
X-385850Y58600D01*
G01Y60600D02*
X-386850D01*
G01X-388060Y58520D02*
X-388310Y58270D01*
X-388600Y58140D01*
X-388930Y58100D01*
X-389350Y58180D01*
X-389640Y58390D01*
X-389730Y58640D01*
X-389680Y58890D01*
X-389520Y59100D01*
X-388680Y59520D01*
X-388310Y59810D01*
X-388060Y60230D01*
X-387970Y60600D01*
X-389730D01*
G01X-383030Y-274610D02*
X-383280Y-274480D01*
X-383570Y-274400D01*
X-383910D01*
X-384280Y-274530D01*
X-384570Y-274730D01*
X-384780Y-274980D01*
X-384950Y-275400D01*
X-384990Y-275780D01*
X-384910Y-276150D01*
X-384780Y-276400D01*
X-384530Y-276650D01*
X-384240Y-276820D01*
X-383950Y-276900D01*
X-383660D01*
X-383370Y-276820D01*
X-383120Y-276690D01*
X-382910Y-276530D01*
G01X-382370Y-276400D02*
X-382120Y-276690D01*
X-381780Y-276860D01*
X-381410Y-276900D01*
X-381070Y-276860D01*
X-380740Y-276650D01*
X-380530Y-276400D01*
X-380490Y-276150D01*
X-380570Y-275860D01*
X-380870Y-275650D01*
X-381160Y-275570D01*
X-381530D01*
G01X-381160D02*
X-380910Y-275440D01*
X-380700Y-275230D01*
X-380620Y-274980D01*
X-380700Y-274730D01*
X-380910Y-274530D01*
X-381280Y-274400D01*
X-381660Y-274440D01*
X-382030Y-274610D01*
G01X-378450Y-276900D02*
Y-274400D01*
X-379990Y-276190D01*
X-377910D01*
G01X-360390Y-98230D02*
X-360520Y-98480D01*
X-360600Y-98770D01*
Y-99110D01*
X-360470Y-99480D01*
X-360270Y-99770D01*
X-360020Y-99980D01*
X-359600Y-100150D01*
X-359220Y-100190D01*
X-358850Y-100110D01*
X-358600Y-99980D01*
X-358350Y-99730D01*
X-358180Y-99440D01*
X-358100Y-99150D01*
Y-98860D01*
X-358180Y-98570D01*
X-358310Y-98320D01*
X-358470Y-98110D01*
G01X-360180Y-97440D02*
X-360430Y-97190D01*
X-360560Y-96900D01*
X-360600Y-96570D01*
X-360520Y-96150D01*
X-360310Y-95860D01*
X-360060Y-95770D01*
X-359810Y-95820D01*
X-359600Y-95980D01*
X-359180Y-96820D01*
X-358890Y-97190D01*
X-358470Y-97440D01*
X-358100Y-97530D01*
Y-95770D01*
G01X-360180Y-94940D02*
X-360430Y-94690D01*
X-360560Y-94400D01*
X-360600Y-94070D01*
X-360520Y-93650D01*
X-360310Y-93360D01*
X-360060Y-93270D01*
X-359810Y-93320D01*
X-359600Y-93480D01*
X-359180Y-94320D01*
X-358890Y-94690D01*
X-358470Y-94940D01*
X-358100Y-95030D01*
Y-93270D01*
G01X-366400Y35280D02*
X-363900D01*
Y34240D01*
X-364030Y33910D01*
X-364190Y33700D01*
X-364530Y33620D01*
X-364860Y33700D01*
X-365070Y33950D01*
X-365190Y34240D01*
Y35280D01*
G01Y34240D02*
X-366400Y33620D01*
G01Y31450D02*
X-363900D01*
X-365690Y32990D01*
Y30910D01*
G01X-373800Y38380D02*
X-371300D01*
Y37340D01*
X-371430Y37010D01*
X-371590Y36800D01*
X-371930Y36720D01*
X-372260Y36800D01*
X-372470Y37050D01*
X-372590Y37340D01*
Y38380D01*
G01Y37340D02*
X-373800Y36720D01*
G01Y34550D02*
X-371300D01*
X-373090Y36090D01*
Y34010D01*
G01X-373800Y32550D02*
X-371300D01*
X-371800Y33050D01*
G01X-373800D02*
Y32050D01*
G01X-358800Y-433020D02*
X-356300D01*
Y-434060D01*
X-356430Y-434390D01*
X-356590Y-434600D01*
X-356930Y-434680D01*
X-357260Y-434600D01*
X-357470Y-434350D01*
X-357590Y-434060D01*
Y-433020D01*
G01Y-434060D02*
X-358800Y-434680D01*
G01X-356720Y-435560D02*
X-356470Y-435810D01*
X-356340Y-436100D01*
X-356300Y-436430D01*
X-356380Y-436850D01*
X-356590Y-437140D01*
X-356840Y-437230D01*
X-357090Y-437180D01*
X-357300Y-437020D01*
X-357720Y-436180D01*
X-358010Y-435810D01*
X-358430Y-435560D01*
X-358800Y-435470D01*
Y-437230D01*
G01X-358300Y-437930D02*
X-358590Y-438180D01*
X-358760Y-438520D01*
X-358800Y-438890D01*
X-358760Y-439230D01*
X-358550Y-439560D01*
X-358300Y-439770D01*
X-358050Y-439810D01*
X-357760Y-439730D01*
X-357550Y-439430D01*
X-357470Y-439140D01*
Y-438770D01*
G01Y-439140D02*
X-357340Y-439390D01*
X-357130Y-439600D01*
X-356880Y-439680D01*
X-356630Y-439600D01*
X-356430Y-439390D01*
X-356300Y-439020D01*
X-356340Y-438640D01*
X-356510Y-438270D01*
G01X-348900Y-434320D02*
X-346400D01*
Y-435360D01*
X-346530Y-435690D01*
X-346690Y-435900D01*
X-347030Y-435980D01*
X-347360Y-435900D01*
X-347570Y-435650D01*
X-347690Y-435360D01*
Y-434320D01*
G01Y-435360D02*
X-348900Y-435980D01*
G01X-346820Y-436860D02*
X-346570Y-437110D01*
X-346440Y-437400D01*
X-346400Y-437730D01*
X-346480Y-438150D01*
X-346690Y-438440D01*
X-346940Y-438530D01*
X-347190Y-438480D01*
X-347400Y-438320D01*
X-347820Y-437480D01*
X-348110Y-437110D01*
X-348530Y-436860D01*
X-348900Y-436770D01*
Y-438530D01*
G01Y-440650D02*
X-346400D01*
X-348190Y-439110D01*
Y-441190D01*
G01X-339100Y-434820D02*
X-336600D01*
Y-435860D01*
X-336730Y-436190D01*
X-336890Y-436400D01*
X-337230Y-436480D01*
X-337560Y-436400D01*
X-337770Y-436150D01*
X-337890Y-435860D01*
Y-434820D01*
G01Y-435860D02*
X-339100Y-436480D01*
G01X-337020Y-437360D02*
X-336770Y-437610D01*
X-336640Y-437900D01*
X-336600Y-438230D01*
X-336680Y-438650D01*
X-336890Y-438940D01*
X-337140Y-439030D01*
X-337390Y-438980D01*
X-337600Y-438820D01*
X-338020Y-437980D01*
X-338310Y-437610D01*
X-338730Y-437360D01*
X-339100Y-437270D01*
Y-439030D01*
G01X-338730Y-439730D02*
X-338930Y-439980D01*
X-339060Y-440270D01*
X-339100Y-440650D01*
X-339020Y-441030D01*
X-338850Y-441320D01*
X-338560Y-441530D01*
X-338230Y-441570D01*
X-337890Y-441480D01*
X-337680Y-441270D01*
X-337520Y-440980D01*
X-337480Y-440690D01*
X-337520Y-440400D01*
X-337680Y-440030D01*
X-336600Y-440150D01*
Y-441270D01*
G01X-341500Y-374980D02*
X-344000D01*
Y-373940D01*
X-343870Y-373610D01*
X-343710Y-373400D01*
X-343370Y-373320D01*
X-343040Y-373400D01*
X-342830Y-373650D01*
X-342710Y-373940D01*
Y-374980D01*
G01Y-373940D02*
X-341500Y-373320D01*
G01X-343580Y-372440D02*
X-343830Y-372190D01*
X-343960Y-371900D01*
X-344000Y-371570D01*
X-343920Y-371150D01*
X-343710Y-370860D01*
X-343460Y-370770D01*
X-343210Y-370820D01*
X-343000Y-370980D01*
X-342580Y-371820D01*
X-342290Y-372190D01*
X-341870Y-372440D01*
X-341500Y-372530D01*
Y-370770D01*
G01Y-369150D02*
X-344000D01*
X-343500Y-369650D01*
G01X-341500D02*
Y-368650D01*
G01X-352000Y-374980D02*
X-354500D01*
Y-373940D01*
X-354370Y-373610D01*
X-354210Y-373400D01*
X-353870Y-373320D01*
X-353540Y-373400D01*
X-353330Y-373650D01*
X-353210Y-373940D01*
Y-374980D01*
G01Y-373940D02*
X-352000Y-373320D01*
G01X-354080Y-372440D02*
X-354330Y-372190D01*
X-354460Y-371900D01*
X-354500Y-371570D01*
X-354420Y-371150D01*
X-354210Y-370860D01*
X-353960Y-370770D01*
X-353710Y-370820D01*
X-353500Y-370980D01*
X-353080Y-371820D01*
X-352790Y-372190D01*
X-352370Y-372440D01*
X-352000Y-372530D01*
Y-370770D01*
G01X-354080Y-369940D02*
X-354330Y-369690D01*
X-354460Y-369400D01*
X-354500Y-369070D01*
X-354420Y-368650D01*
X-354210Y-368360D01*
X-353960Y-368270D01*
X-353710Y-368320D01*
X-353500Y-368480D01*
X-353080Y-369320D01*
X-352790Y-369690D01*
X-352370Y-369940D01*
X-352000Y-370030D01*
Y-368270D01*
G01X-332100Y-375180D02*
X-334600D01*
Y-374140D01*
X-334470Y-373810D01*
X-334310Y-373600D01*
X-333970Y-373520D01*
X-333640Y-373600D01*
X-333430Y-373850D01*
X-333310Y-374140D01*
Y-375180D01*
G01Y-374140D02*
X-332100Y-373520D01*
G01X-332600Y-372770D02*
X-332310Y-372520D01*
X-332140Y-372180D01*
X-332100Y-371810D01*
X-332140Y-371470D01*
X-332350Y-371140D01*
X-332600Y-370930D01*
X-332850Y-370890D01*
X-333140Y-370970D01*
X-333350Y-371270D01*
X-333430Y-371560D01*
Y-371930D01*
G01Y-371560D02*
X-333560Y-371310D01*
X-333770Y-371100D01*
X-334020Y-371020D01*
X-334270Y-371100D01*
X-334470Y-371310D01*
X-334600Y-371680D01*
X-334560Y-372060D01*
X-334390Y-372430D01*
G01X-333140Y-370140D02*
X-333430Y-369850D01*
X-333600Y-369600D01*
X-333680Y-369270D01*
X-333600Y-368970D01*
X-333430Y-368770D01*
X-333180Y-368600D01*
X-332890Y-368560D01*
X-332640Y-368600D01*
X-332390Y-368770D01*
X-332180Y-369020D01*
X-332100Y-369310D01*
X-332180Y-369640D01*
X-332430Y-369930D01*
X-332810Y-370100D01*
X-333220Y-370140D01*
X-333770Y-370060D01*
X-334060Y-369930D01*
X-334350Y-369730D01*
X-334560Y-369430D01*
X-334600Y-369140D01*
X-334520Y-368850D01*
X-334310Y-368640D01*
G01X-345430Y-356110D02*
X-345680Y-355980D01*
X-345970Y-355900D01*
X-346310D01*
X-346680Y-356030D01*
X-346970Y-356230D01*
X-347180Y-356480D01*
X-347350Y-356900D01*
X-347390Y-357280D01*
X-347310Y-357650D01*
X-347180Y-357900D01*
X-346930Y-358150D01*
X-346640Y-358320D01*
X-346350Y-358400D01*
X-346060D01*
X-345770Y-358320D01*
X-345520Y-358190D01*
X-345310Y-358030D01*
G01X-344640Y-356320D02*
X-344390Y-356070D01*
X-344100Y-355940D01*
X-343770Y-355900D01*
X-343350Y-355980D01*
X-343060Y-356190D01*
X-342970Y-356440D01*
X-343020Y-356690D01*
X-343180Y-356900D01*
X-344020Y-357320D01*
X-344390Y-357610D01*
X-344640Y-358030D01*
X-344730Y-358400D01*
X-342970D01*
G01X-341430D02*
X-341350Y-357860D01*
X-341220Y-357400D01*
X-341060Y-356980D01*
X-340850Y-356530D01*
X-340520Y-355900D01*
X-342180D01*
G01X-332130Y-310610D02*
X-332380Y-310480D01*
X-332670Y-310400D01*
X-333010D01*
X-333380Y-310530D01*
X-333670Y-310730D01*
X-333880Y-310980D01*
X-334050Y-311400D01*
X-334090Y-311780D01*
X-334010Y-312150D01*
X-333880Y-312400D01*
X-333630Y-312650D01*
X-333340Y-312820D01*
X-333050Y-312900D01*
X-332760D01*
X-332470Y-312820D01*
X-332220Y-312690D01*
X-332010Y-312530D01*
G01X-331470Y-312400D02*
X-331220Y-312690D01*
X-330880Y-312860D01*
X-330510Y-312900D01*
X-330170Y-312860D01*
X-329840Y-312650D01*
X-329630Y-312400D01*
X-329590Y-312150D01*
X-329670Y-311860D01*
X-329970Y-311650D01*
X-330260Y-311570D01*
X-330630D01*
G01X-330260D02*
X-330010Y-311440D01*
X-329800Y-311230D01*
X-329720Y-310980D01*
X-329800Y-310730D01*
X-330010Y-310530D01*
X-330380Y-310400D01*
X-330760Y-310440D01*
X-331130Y-310610D01*
G01X-328840Y-310820D02*
X-328590Y-310570D01*
X-328300Y-310440D01*
X-327970Y-310400D01*
X-327550Y-310480D01*
X-327260Y-310690D01*
X-327170Y-310940D01*
X-327220Y-311190D01*
X-327380Y-311400D01*
X-328220Y-311820D01*
X-328590Y-312110D01*
X-328840Y-312530D01*
X-328930Y-312900D01*
X-327170D01*
G01X-336290Y-153560D02*
X-334130Y-152310D01*
X-333610Y-153210D01*
X-333550Y-153560D01*
X-333590Y-153830D01*
X-333830Y-154070D01*
X-334160Y-154160D01*
X-334470Y-154050D01*
X-334720Y-153860D01*
X-335250Y-152960D01*
G01X-334720Y-153860D02*
X-335460Y-155000D01*
G01X-334650Y-155410D02*
X-334780Y-155770D01*
X-334760Y-156140D01*
X-334600Y-156490D01*
X-334400Y-156760D01*
X-334050Y-156940D01*
X-333730Y-157000D01*
X-333500Y-156910D01*
X-333290Y-156690D01*
X-333250Y-156330D01*
X-333320Y-156040D01*
X-333510Y-155710D01*
G01X-333320Y-156040D02*
X-333090Y-156190D01*
X-332810Y-156270D01*
X-332550Y-156220D01*
X-332370Y-156020D01*
X-332300Y-155730D01*
X-332380Y-155350D01*
X-332600Y-155040D01*
X-332930Y-154800D01*
G01X-344390Y-157560D02*
X-342230Y-156310D01*
X-341710Y-157210D01*
X-341650Y-157560D01*
X-341690Y-157830D01*
X-341930Y-158070D01*
X-342260Y-158160D01*
X-342570Y-158050D01*
X-342820Y-157860D01*
X-343350Y-156960D01*
G01X-342820Y-157860D02*
X-343560Y-159000D01*
G01X-342470Y-160890D02*
X-340310Y-159640D01*
X-342630Y-159200D01*
X-341590Y-161000D01*
G01X-340070Y-160900D02*
X-339730Y-160990D01*
X-339470Y-161180D01*
X-339270Y-161440D01*
X-339130Y-161850D01*
X-339170Y-162200D01*
X-339340Y-162400D01*
X-339580Y-162490D01*
X-339840Y-162450D01*
X-340620Y-161940D01*
X-341060Y-161760D01*
X-341550Y-161750D01*
X-341910Y-161860D01*
X-341040Y-163380D01*
G01X-328900Y-435220D02*
X-326400D01*
Y-436260D01*
X-326530Y-436590D01*
X-326690Y-436800D01*
X-327030Y-436880D01*
X-327360Y-436800D01*
X-327570Y-436550D01*
X-327690Y-436260D01*
Y-435220D01*
G01Y-436260D02*
X-328900Y-436880D01*
G01X-326820Y-437760D02*
X-326570Y-438010D01*
X-326440Y-438300D01*
X-326400Y-438630D01*
X-326480Y-439050D01*
X-326690Y-439340D01*
X-326940Y-439430D01*
X-327190Y-439380D01*
X-327400Y-439220D01*
X-327820Y-438380D01*
X-328110Y-438010D01*
X-328530Y-437760D01*
X-328900Y-437670D01*
Y-439430D01*
G01X-327860Y-440260D02*
X-327570Y-440550D01*
X-327400Y-440800D01*
X-327320Y-441130D01*
X-327400Y-441430D01*
X-327570Y-441630D01*
X-327820Y-441800D01*
X-328110Y-441840D01*
X-328360Y-441800D01*
X-328610Y-441630D01*
X-328820Y-441380D01*
X-328900Y-441090D01*
X-328820Y-440760D01*
X-328570Y-440470D01*
X-328190Y-440300D01*
X-327780Y-440260D01*
X-327230Y-440340D01*
X-326940Y-440470D01*
X-326650Y-440670D01*
X-326440Y-440970D01*
X-326400Y-441260D01*
X-326480Y-441550D01*
X-326690Y-441760D01*
G01X-318800Y-435220D02*
X-316300D01*
Y-436260D01*
X-316430Y-436590D01*
X-316590Y-436800D01*
X-316930Y-436880D01*
X-317260Y-436800D01*
X-317470Y-436550D01*
X-317590Y-436260D01*
Y-435220D01*
G01Y-436260D02*
X-318800Y-436880D01*
G01X-316720Y-437760D02*
X-316470Y-438010D01*
X-316340Y-438300D01*
X-316300Y-438630D01*
X-316380Y-439050D01*
X-316590Y-439340D01*
X-316840Y-439430D01*
X-317090Y-439380D01*
X-317300Y-439220D01*
X-317720Y-438380D01*
X-318010Y-438010D01*
X-318430Y-437760D01*
X-318800Y-437670D01*
Y-439430D01*
G01Y-440970D02*
X-318260Y-441050D01*
X-317800Y-441180D01*
X-317380Y-441340D01*
X-316930Y-441550D01*
X-316300Y-441880D01*
Y-440220D01*
G01X-308800Y-434320D02*
X-306300D01*
Y-435360D01*
X-306430Y-435690D01*
X-306590Y-435900D01*
X-306930Y-435980D01*
X-307260Y-435900D01*
X-307470Y-435650D01*
X-307590Y-435360D01*
Y-434320D01*
G01Y-435360D02*
X-308800Y-435980D01*
G01X-306720Y-436860D02*
X-306470Y-437110D01*
X-306340Y-437400D01*
X-306300Y-437730D01*
X-306380Y-438150D01*
X-306590Y-438440D01*
X-306840Y-438530D01*
X-307090Y-438480D01*
X-307300Y-438320D01*
X-307720Y-437480D01*
X-308010Y-437110D01*
X-308430Y-436860D01*
X-308800Y-436770D01*
Y-438530D01*
G01Y-440150D02*
X-308760Y-440440D01*
X-308630Y-440770D01*
X-308430Y-440980D01*
X-308130Y-441070D01*
X-307840Y-440980D01*
X-307590Y-440730D01*
X-307470Y-440360D01*
Y-439940D01*
X-307380Y-439690D01*
X-307180Y-439480D01*
X-306880Y-439400D01*
X-306590Y-439530D01*
X-306380Y-439820D01*
X-306300Y-440150D01*
X-306380Y-440480D01*
X-306590Y-440770D01*
X-306880Y-440900D01*
X-307180Y-440820D01*
X-307380Y-440610D01*
X-307470Y-440360D01*
Y-439940D01*
X-307590Y-439570D01*
X-307840Y-439320D01*
X-308130Y-439230D01*
X-308430Y-439320D01*
X-308630Y-439530D01*
X-308760Y-439860D01*
X-308800Y-440150D01*
G01X-302000Y-374780D02*
X-304500D01*
Y-373740D01*
X-304370Y-373410D01*
X-304210Y-373200D01*
X-303870Y-373120D01*
X-303540Y-373200D01*
X-303330Y-373450D01*
X-303210Y-373740D01*
Y-374780D01*
G01Y-373740D02*
X-302000Y-373120D01*
G01X-302500Y-372370D02*
X-302210Y-372120D01*
X-302040Y-371780D01*
X-302000Y-371410D01*
X-302040Y-371070D01*
X-302250Y-370740D01*
X-302500Y-370530D01*
X-302750Y-370490D01*
X-303040Y-370570D01*
X-303250Y-370870D01*
X-303330Y-371160D01*
Y-371530D01*
G01Y-371160D02*
X-303460Y-370910D01*
X-303670Y-370700D01*
X-303920Y-370620D01*
X-304170Y-370700D01*
X-304370Y-370910D01*
X-304500Y-371280D01*
X-304460Y-371660D01*
X-304290Y-372030D01*
G01X-302500Y-369870D02*
X-302210Y-369620D01*
X-302040Y-369280D01*
X-302000Y-368910D01*
X-302040Y-368570D01*
X-302250Y-368240D01*
X-302500Y-368030D01*
X-302750Y-367990D01*
X-303040Y-368070D01*
X-303250Y-368370D01*
X-303330Y-368660D01*
Y-369030D01*
G01Y-368660D02*
X-303460Y-368410D01*
X-303670Y-368200D01*
X-303920Y-368120D01*
X-304170Y-368200D01*
X-304370Y-368410D01*
X-304500Y-368780D01*
X-304460Y-369160D01*
X-304290Y-369530D01*
G01X-312300Y-374980D02*
X-314800D01*
Y-373940D01*
X-314670Y-373610D01*
X-314510Y-373400D01*
X-314170Y-373320D01*
X-313840Y-373400D01*
X-313630Y-373650D01*
X-313510Y-373940D01*
Y-374980D01*
G01Y-373940D02*
X-312300Y-373320D01*
G01X-312800Y-372570D02*
X-312510Y-372320D01*
X-312340Y-371980D01*
X-312300Y-371610D01*
X-312340Y-371270D01*
X-312550Y-370940D01*
X-312800Y-370730D01*
X-313050Y-370690D01*
X-313340Y-370770D01*
X-313550Y-371070D01*
X-313630Y-371360D01*
Y-371730D01*
G01Y-371360D02*
X-313760Y-371110D01*
X-313970Y-370900D01*
X-314220Y-370820D01*
X-314470Y-370900D01*
X-314670Y-371110D01*
X-314800Y-371480D01*
X-314760Y-371860D01*
X-314590Y-372230D01*
G01X-312300Y-368650D02*
X-314800D01*
X-313010Y-370190D01*
Y-368110D01*
G01X-322100Y-374780D02*
X-324600D01*
Y-373740D01*
X-324470Y-373410D01*
X-324310Y-373200D01*
X-323970Y-373120D01*
X-323640Y-373200D01*
X-323430Y-373450D01*
X-323310Y-373740D01*
Y-374780D01*
G01Y-373740D02*
X-322100Y-373120D01*
G01X-322600Y-372370D02*
X-322310Y-372120D01*
X-322140Y-371780D01*
X-322100Y-371410D01*
X-322140Y-371070D01*
X-322350Y-370740D01*
X-322600Y-370530D01*
X-322850Y-370490D01*
X-323140Y-370570D01*
X-323350Y-370870D01*
X-323430Y-371160D01*
Y-371530D01*
G01Y-371160D02*
X-323560Y-370910D01*
X-323770Y-370700D01*
X-324020Y-370620D01*
X-324270Y-370700D01*
X-324470Y-370910D01*
X-324600Y-371280D01*
X-324560Y-371660D01*
X-324390Y-372030D01*
G01X-322470Y-369870D02*
X-322270Y-369620D01*
X-322140Y-369330D01*
X-322100Y-368950D01*
X-322180Y-368570D01*
X-322350Y-368280D01*
X-322640Y-368070D01*
X-322970Y-368030D01*
X-323310Y-368120D01*
X-323520Y-368330D01*
X-323680Y-368620D01*
X-323720Y-368910D01*
X-323680Y-369200D01*
X-323520Y-369570D01*
X-324600Y-369450D01*
Y-368330D01*
G01X-312190Y-302930D02*
X-312320Y-303180D01*
X-312400Y-303470D01*
Y-303810D01*
X-312270Y-304180D01*
X-312070Y-304470D01*
X-311820Y-304680D01*
X-311400Y-304850D01*
X-311020Y-304890D01*
X-310650Y-304810D01*
X-310400Y-304680D01*
X-310150Y-304430D01*
X-309980Y-304140D01*
X-309900Y-303850D01*
Y-303560D01*
X-309980Y-303270D01*
X-310110Y-303020D01*
X-310270Y-302810D01*
G01X-311980Y-302140D02*
X-312230Y-301890D01*
X-312360Y-301600D01*
X-312400Y-301270D01*
X-312320Y-300850D01*
X-312110Y-300560D01*
X-311860Y-300470D01*
X-311610Y-300520D01*
X-311400Y-300680D01*
X-310980Y-301520D01*
X-310690Y-301890D01*
X-310270Y-302140D01*
X-309900Y-302230D01*
Y-300470D01*
G01Y-298850D02*
X-309940Y-298560D01*
X-310070Y-298230D01*
X-310270Y-298020D01*
X-310570Y-297930D01*
X-310860Y-298020D01*
X-311110Y-298270D01*
X-311230Y-298640D01*
Y-299060D01*
X-311320Y-299310D01*
X-311520Y-299520D01*
X-311820Y-299600D01*
X-312110Y-299470D01*
X-312320Y-299180D01*
X-312400Y-298850D01*
X-312320Y-298520D01*
X-312110Y-298230D01*
X-311820Y-298100D01*
X-311520Y-298180D01*
X-311320Y-298390D01*
X-311230Y-298640D01*
Y-299060D01*
X-311110Y-299430D01*
X-310860Y-299680D01*
X-310570Y-299770D01*
X-310270Y-299680D01*
X-310070Y-299470D01*
X-309940Y-299140D01*
X-309900Y-298850D01*
G01X-302410Y218340D02*
X-300240Y217090D01*
X-300760Y216190D01*
X-301040Y215960D01*
X-301290Y215860D01*
X-301620Y215960D01*
X-301860Y216200D01*
X-301920Y216520D01*
X-301880Y216830D01*
X-301360Y217740D01*
G01X-301880Y216830D02*
X-303240Y216900D01*
G01X-303290Y216050D02*
X-303600Y215940D01*
X-303850Y215750D01*
X-304070Y215450D01*
X-304190Y215080D01*
Y214750D01*
X-304040Y214420D01*
X-303780Y214220D01*
X-303450Y214120D01*
X-303160Y214200D01*
X-302870Y214370D01*
X-302690Y214600D01*
X-302580Y214870D01*
X-302540Y215280D01*
X-301660Y214630D01*
X-302220Y213660D01*
G01X-308910Y225940D02*
X-306740Y224690D01*
X-307260Y223790D01*
X-307540Y223560D01*
X-307790Y223460D01*
X-308120Y223560D01*
X-308360Y223800D01*
X-308420Y224120D01*
X-308380Y224430D01*
X-307860Y225340D01*
G01X-308380Y224430D02*
X-309740Y224500D01*
G01X-310830Y222610D02*
X-308660Y221360D01*
X-309440Y223600D01*
X-310480Y221790D01*
G01X-309660Y219630D02*
X-309570Y219960D01*
X-309620Y220280D01*
X-309750Y220550D01*
X-309980Y220820D01*
X-310280Y221050D01*
X-310630Y221200D01*
X-310980Y221260D01*
X-311280Y221240D01*
X-311590Y221120D01*
X-311820Y220880D01*
X-311920Y220550D01*
X-311860Y220230D01*
X-311730Y219960D01*
X-311500Y219680D01*
X-311200Y219460D01*
X-310860Y219310D01*
X-310500Y219250D01*
X-310200Y219270D01*
X-309900Y219380D01*
X-309660Y219630D01*
G01X-305020Y242400D02*
X-304870Y242170D01*
X-304660Y241950D01*
X-304370Y241780D01*
X-303980Y241700D01*
X-303620Y241740D01*
X-303320Y241850D01*
X-302970Y242130D01*
X-302740Y242430D01*
X-302630Y242800D01*
X-302610Y243080D01*
X-302700Y243420D01*
X-302870Y243710D01*
X-303080Y243920D01*
X-303340Y244070D01*
X-303630Y244140D01*
X-303910Y244160D01*
X-304170Y244120D01*
G01X-305180Y245130D02*
X-305520Y244710D01*
X-305860Y244370D01*
X-306210Y244090D01*
X-306620Y243800D01*
X-307220Y243430D01*
X-305780Y242590D01*
G01X-298900Y-434820D02*
X-296400D01*
Y-435860D01*
X-296530Y-436190D01*
X-296690Y-436400D01*
X-297030Y-436480D01*
X-297360Y-436400D01*
X-297570Y-436150D01*
X-297690Y-435860D01*
Y-434820D01*
G01Y-435860D02*
X-298900Y-436480D01*
G01Y-438150D02*
X-296400D01*
X-296900Y-437650D01*
G01X-298900D02*
Y-438650D01*
G01X-298610Y-439940D02*
X-298820Y-440230D01*
X-298900Y-440570D01*
X-298820Y-440900D01*
X-298570Y-441190D01*
X-298190Y-441400D01*
X-297820Y-441480D01*
X-297360D01*
X-296980Y-441400D01*
X-296650Y-441190D01*
X-296480Y-440940D01*
X-296400Y-440650D01*
X-296480Y-440320D01*
X-296650Y-440070D01*
X-296900Y-439900D01*
X-297230Y-439820D01*
X-297520Y-439900D01*
X-297820Y-440110D01*
X-297980Y-440360D01*
X-298030Y-440650D01*
X-297940Y-440980D01*
X-297730Y-441230D01*
X-297360Y-441480D01*
G01X-289300Y-434820D02*
X-286800D01*
Y-435860D01*
X-286930Y-436190D01*
X-287090Y-436400D01*
X-287430Y-436480D01*
X-287760Y-436400D01*
X-287970Y-436150D01*
X-288090Y-435860D01*
Y-434820D01*
G01Y-435860D02*
X-289300Y-436480D01*
G01X-287220Y-437360D02*
X-286970Y-437610D01*
X-286840Y-437900D01*
X-286800Y-438230D01*
X-286880Y-438650D01*
X-287090Y-438940D01*
X-287340Y-439030D01*
X-287590Y-438980D01*
X-287800Y-438820D01*
X-288220Y-437980D01*
X-288510Y-437610D01*
X-288930Y-437360D01*
X-289300Y-437270D01*
Y-439030D01*
G01X-289010Y-439940D02*
X-289220Y-440230D01*
X-289300Y-440570D01*
X-289220Y-440900D01*
X-288970Y-441190D01*
X-288590Y-441400D01*
X-288220Y-441480D01*
X-287760D01*
X-287380Y-441400D01*
X-287050Y-441190D01*
X-286880Y-440940D01*
X-286800Y-440650D01*
X-286880Y-440320D01*
X-287050Y-440070D01*
X-287300Y-439900D01*
X-287630Y-439820D01*
X-287920Y-439900D01*
X-288220Y-440110D01*
X-288380Y-440360D01*
X-288430Y-440650D01*
X-288340Y-440980D01*
X-288130Y-441230D01*
X-287760Y-441480D01*
G01X-279300Y-434320D02*
X-276800D01*
Y-435360D01*
X-276930Y-435690D01*
X-277090Y-435900D01*
X-277430Y-435980D01*
X-277760Y-435900D01*
X-277970Y-435650D01*
X-278090Y-435360D01*
Y-434320D01*
G01Y-435360D02*
X-279300Y-435980D01*
G01X-278800Y-436730D02*
X-279090Y-436980D01*
X-279260Y-437320D01*
X-279300Y-437690D01*
X-279260Y-438030D01*
X-279050Y-438360D01*
X-278800Y-438570D01*
X-278550Y-438610D01*
X-278260Y-438530D01*
X-278050Y-438230D01*
X-277970Y-437940D01*
Y-437570D01*
G01Y-437940D02*
X-277840Y-438190D01*
X-277630Y-438400D01*
X-277380Y-438480D01*
X-277130Y-438400D01*
X-276930Y-438190D01*
X-276800Y-437820D01*
X-276840Y-437440D01*
X-277010Y-437070D01*
G01X-276800Y-440150D02*
X-276880Y-439820D01*
X-277090Y-439570D01*
X-277340Y-439400D01*
X-277680Y-439270D01*
X-278050Y-439230D01*
X-278430Y-439270D01*
X-278760Y-439400D01*
X-279010Y-439570D01*
X-279220Y-439820D01*
X-279300Y-440150D01*
X-279220Y-440480D01*
X-279010Y-440730D01*
X-278760Y-440900D01*
X-278430Y-441030D01*
X-278050Y-441070D01*
X-277680Y-441030D01*
X-277340Y-440900D01*
X-277090Y-440730D01*
X-276880Y-440480D01*
X-276800Y-440150D01*
G01X-294130Y-357810D02*
X-294380Y-357680D01*
X-294670Y-357600D01*
X-295010D01*
X-295380Y-357730D01*
X-295670Y-357930D01*
X-295880Y-358180D01*
X-296050Y-358600D01*
X-296090Y-358980D01*
X-296010Y-359350D01*
X-295880Y-359600D01*
X-295630Y-359850D01*
X-295340Y-360020D01*
X-295050Y-360100D01*
X-294760D01*
X-294470Y-360020D01*
X-294220Y-359890D01*
X-294010Y-359730D01*
G01X-293470Y-359600D02*
X-293220Y-359890D01*
X-292880Y-360060D01*
X-292510Y-360100D01*
X-292170Y-360060D01*
X-291840Y-359850D01*
X-291630Y-359600D01*
X-291590Y-359350D01*
X-291670Y-359060D01*
X-291970Y-358850D01*
X-292260Y-358770D01*
X-292630D01*
G01X-292260D02*
X-292010Y-358640D01*
X-291800Y-358430D01*
X-291720Y-358180D01*
X-291800Y-357930D01*
X-292010Y-357730D01*
X-292380Y-357600D01*
X-292760Y-357640D01*
X-293130Y-357810D01*
G01X-290050Y-360100D02*
Y-357600D01*
X-290550Y-358100D01*
G01Y-360100D02*
X-289550D01*
G01X-268130Y-305410D02*
X-268380Y-305280D01*
X-268670Y-305200D01*
X-269010D01*
X-269380Y-305330D01*
X-269670Y-305530D01*
X-269880Y-305780D01*
X-270050Y-306200D01*
X-270090Y-306580D01*
X-270010Y-306950D01*
X-269880Y-307200D01*
X-269630Y-307450D01*
X-269340Y-307620D01*
X-269050Y-307700D01*
X-268760D01*
X-268470Y-307620D01*
X-268220Y-307490D01*
X-268010Y-307330D01*
G01X-267470Y-307200D02*
X-267220Y-307490D01*
X-266880Y-307660D01*
X-266510Y-307700D01*
X-266170Y-307660D01*
X-265840Y-307450D01*
X-265630Y-307200D01*
X-265590Y-306950D01*
X-265670Y-306660D01*
X-265970Y-306450D01*
X-266260Y-306370D01*
X-266630D01*
G01X-266260D02*
X-266010Y-306240D01*
X-265800Y-306030D01*
X-265720Y-305780D01*
X-265800Y-305530D01*
X-266010Y-305330D01*
X-266380Y-305200D01*
X-266760Y-305240D01*
X-267130Y-305410D01*
G01X-264840Y-306660D02*
X-264550Y-306370D01*
X-264300Y-306200D01*
X-263970Y-306120D01*
X-263670Y-306200D01*
X-263470Y-306370D01*
X-263300Y-306620D01*
X-263260Y-306910D01*
X-263300Y-307160D01*
X-263470Y-307410D01*
X-263720Y-307620D01*
X-264010Y-307700D01*
X-264340Y-307620D01*
X-264630Y-307370D01*
X-264800Y-306990D01*
X-264840Y-306580D01*
X-264760Y-306030D01*
X-264630Y-305740D01*
X-264430Y-305450D01*
X-264130Y-305240D01*
X-263840Y-305200D01*
X-263550Y-305280D01*
X-263340Y-305490D01*
G01X-269130Y-260310D02*
X-269380Y-260180D01*
X-269670Y-260100D01*
X-270010D01*
X-270380Y-260230D01*
X-270670Y-260430D01*
X-270880Y-260680D01*
X-271050Y-261100D01*
X-271090Y-261480D01*
X-271010Y-261850D01*
X-270880Y-262100D01*
X-270630Y-262350D01*
X-270340Y-262520D01*
X-270050Y-262600D01*
X-269760D01*
X-269470Y-262520D01*
X-269220Y-262390D01*
X-269010Y-262230D01*
G01X-267550Y-262600D02*
Y-260100D01*
X-268050Y-260600D01*
G01Y-262600D02*
X-267050D01*
G01X-265840Y-261560D02*
X-265550Y-261270D01*
X-265300Y-261100D01*
X-264970Y-261020D01*
X-264670Y-261100D01*
X-264470Y-261270D01*
X-264300Y-261520D01*
X-264260Y-261810D01*
X-264300Y-262060D01*
X-264470Y-262310D01*
X-264720Y-262520D01*
X-265010Y-262600D01*
X-265340Y-262520D01*
X-265630Y-262270D01*
X-265800Y-261890D01*
X-265840Y-261480D01*
X-265760Y-260930D01*
X-265630Y-260640D01*
X-265430Y-260350D01*
X-265130Y-260140D01*
X-264840Y-260100D01*
X-264550Y-260180D01*
X-264340Y-260390D01*
G01X-268600Y-435020D02*
X-266100D01*
Y-436060D01*
X-266230Y-436390D01*
X-266390Y-436600D01*
X-266730Y-436680D01*
X-267060Y-436600D01*
X-267270Y-436350D01*
X-267390Y-436060D01*
Y-435020D01*
G01Y-436060D02*
X-268600Y-436680D01*
G01X-268100Y-437430D02*
X-268390Y-437680D01*
X-268560Y-438020D01*
X-268600Y-438390D01*
X-268560Y-438730D01*
X-268350Y-439060D01*
X-268100Y-439270D01*
X-267850Y-439310D01*
X-267560Y-439230D01*
X-267350Y-438930D01*
X-267270Y-438640D01*
Y-438270D01*
G01Y-438640D02*
X-267140Y-438890D01*
X-266930Y-439100D01*
X-266680Y-439180D01*
X-266430Y-439100D01*
X-266230Y-438890D01*
X-266100Y-438520D01*
X-266140Y-438140D01*
X-266310Y-437770D01*
G01X-268600Y-440850D02*
X-266100D01*
X-266600Y-440350D01*
G01X-268600D02*
Y-441350D01*
G01X-258500Y-434320D02*
X-256000D01*
Y-435360D01*
X-256130Y-435690D01*
X-256290Y-435900D01*
X-256630Y-435980D01*
X-256960Y-435900D01*
X-257170Y-435650D01*
X-257290Y-435360D01*
Y-434320D01*
G01Y-435360D02*
X-258500Y-435980D01*
G01X-258000Y-436730D02*
X-258290Y-436980D01*
X-258460Y-437320D01*
X-258500Y-437690D01*
X-258460Y-438030D01*
X-258250Y-438360D01*
X-258000Y-438570D01*
X-257750Y-438610D01*
X-257460Y-438530D01*
X-257250Y-438230D01*
X-257170Y-437940D01*
Y-437570D01*
G01Y-437940D02*
X-257040Y-438190D01*
X-256830Y-438400D01*
X-256580Y-438480D01*
X-256330Y-438400D01*
X-256130Y-438190D01*
X-256000Y-437820D01*
X-256040Y-437440D01*
X-256210Y-437070D01*
G01X-256420Y-439360D02*
X-256170Y-439610D01*
X-256040Y-439900D01*
X-256000Y-440230D01*
X-256080Y-440650D01*
X-256290Y-440940D01*
X-256540Y-441030D01*
X-256790Y-440980D01*
X-257000Y-440820D01*
X-257420Y-439980D01*
X-257710Y-439610D01*
X-258130Y-439360D01*
X-258500Y-439270D01*
Y-441030D01*
G01X-248900Y-434320D02*
X-246400D01*
Y-435360D01*
X-246530Y-435690D01*
X-246690Y-435900D01*
X-247030Y-435980D01*
X-247360Y-435900D01*
X-247570Y-435650D01*
X-247690Y-435360D01*
Y-434320D01*
G01Y-435360D02*
X-248900Y-435980D01*
G01X-248530Y-436730D02*
X-248730Y-436980D01*
X-248860Y-437270D01*
X-248900Y-437650D01*
X-248820Y-438030D01*
X-248650Y-438320D01*
X-248360Y-438530D01*
X-248030Y-438570D01*
X-247690Y-438480D01*
X-247480Y-438270D01*
X-247320Y-437980D01*
X-247280Y-437690D01*
X-247320Y-437400D01*
X-247480Y-437030D01*
X-246400Y-437150D01*
Y-438270D01*
G01X-248900Y-440070D02*
X-248360Y-440150D01*
X-247900Y-440280D01*
X-247480Y-440440D01*
X-247030Y-440650D01*
X-246400Y-440980D01*
Y-439320D01*
G01X-239300Y-434120D02*
X-236800D01*
Y-435160D01*
X-236930Y-435490D01*
X-237090Y-435700D01*
X-237430Y-435780D01*
X-237760Y-435700D01*
X-237970Y-435450D01*
X-238090Y-435160D01*
Y-434120D01*
G01Y-435160D02*
X-239300Y-435780D01*
G01X-238930Y-436530D02*
X-239130Y-436780D01*
X-239260Y-437070D01*
X-239300Y-437450D01*
X-239220Y-437830D01*
X-239050Y-438120D01*
X-238760Y-438330D01*
X-238430Y-438370D01*
X-238090Y-438280D01*
X-237880Y-438070D01*
X-237720Y-437780D01*
X-237680Y-437490D01*
X-237720Y-437200D01*
X-237880Y-436830D01*
X-236800Y-436950D01*
Y-438070D01*
G01X-239300Y-439950D02*
X-239260Y-440240D01*
X-239130Y-440570D01*
X-238930Y-440780D01*
X-238630Y-440870D01*
X-238340Y-440780D01*
X-238090Y-440530D01*
X-237970Y-440160D01*
Y-439740D01*
X-237880Y-439490D01*
X-237680Y-439280D01*
X-237380Y-439200D01*
X-237090Y-439330D01*
X-236880Y-439620D01*
X-236800Y-439950D01*
X-236880Y-440280D01*
X-237090Y-440570D01*
X-237380Y-440700D01*
X-237680Y-440620D01*
X-237880Y-440410D01*
X-237970Y-440160D01*
Y-439740D01*
X-238090Y-439370D01*
X-238340Y-439120D01*
X-238630Y-439030D01*
X-238930Y-439120D01*
X-239130Y-439330D01*
X-239260Y-439660D01*
X-239300Y-439950D01*
G01X-246700Y-375180D02*
X-249200D01*
Y-374140D01*
X-249070Y-373810D01*
X-248910Y-373600D01*
X-248570Y-373520D01*
X-248240Y-373600D01*
X-248030Y-373850D01*
X-247910Y-374140D01*
Y-375180D01*
G01Y-374140D02*
X-246700Y-373520D01*
G01Y-371850D02*
X-249200D01*
X-248700Y-372350D01*
G01X-246700D02*
Y-371350D01*
G01Y-369430D02*
X-247240Y-369350D01*
X-247700Y-369220D01*
X-248120Y-369060D01*
X-248570Y-368850D01*
X-249200Y-368520D01*
Y-370180D01*
G01X-248730Y-313010D02*
X-248980Y-312880D01*
X-249270Y-312800D01*
X-249610D01*
X-249980Y-312930D01*
X-250270Y-313130D01*
X-250480Y-313380D01*
X-250650Y-313800D01*
X-250690Y-314180D01*
X-250610Y-314550D01*
X-250480Y-314800D01*
X-250230Y-315050D01*
X-249940Y-315220D01*
X-249650Y-315300D01*
X-249360D01*
X-249070Y-315220D01*
X-248820Y-315090D01*
X-248610Y-314930D01*
G01X-248070Y-314800D02*
X-247820Y-315090D01*
X-247480Y-315260D01*
X-247110Y-315300D01*
X-246770Y-315260D01*
X-246440Y-315050D01*
X-246230Y-314800D01*
X-246190Y-314550D01*
X-246270Y-314260D01*
X-246570Y-314050D01*
X-246860Y-313970D01*
X-247230D01*
G01X-246860D02*
X-246610Y-313840D01*
X-246400Y-313630D01*
X-246320Y-313380D01*
X-246400Y-313130D01*
X-246610Y-312930D01*
X-246980Y-312800D01*
X-247360Y-312840D01*
X-247730Y-313010D01*
G01X-245570Y-314930D02*
X-245320Y-315130D01*
X-245030Y-315260D01*
X-244650Y-315300D01*
X-244270Y-315220D01*
X-243980Y-315050D01*
X-243770Y-314760D01*
X-243730Y-314430D01*
X-243820Y-314090D01*
X-244030Y-313880D01*
X-244320Y-313720D01*
X-244610Y-313680D01*
X-244900Y-313720D01*
X-245270Y-313880D01*
X-245150Y-312800D01*
X-244030D01*
G01X-228800Y-434320D02*
X-226300D01*
Y-435360D01*
X-226430Y-435690D01*
X-226590Y-435900D01*
X-226930Y-435980D01*
X-227260Y-435900D01*
X-227470Y-435650D01*
X-227590Y-435360D01*
Y-434320D01*
G01Y-435360D02*
X-228800Y-435980D01*
G01X-228430Y-436730D02*
X-228630Y-436980D01*
X-228760Y-437270D01*
X-228800Y-437650D01*
X-228720Y-438030D01*
X-228550Y-438320D01*
X-228260Y-438530D01*
X-227930Y-438570D01*
X-227590Y-438480D01*
X-227380Y-438270D01*
X-227220Y-437980D01*
X-227180Y-437690D01*
X-227220Y-437400D01*
X-227380Y-437030D01*
X-226300Y-437150D01*
Y-438270D01*
G01X-228510Y-439440D02*
X-228720Y-439730D01*
X-228800Y-440070D01*
X-228720Y-440400D01*
X-228470Y-440690D01*
X-228090Y-440900D01*
X-227720Y-440980D01*
X-227260D01*
X-226880Y-440900D01*
X-226550Y-440690D01*
X-226380Y-440440D01*
X-226300Y-440150D01*
X-226380Y-439820D01*
X-226550Y-439570D01*
X-226800Y-439400D01*
X-227130Y-439320D01*
X-227420Y-439400D01*
X-227720Y-439610D01*
X-227880Y-439860D01*
X-227930Y-440150D01*
X-227840Y-440480D01*
X-227630Y-440730D01*
X-227260Y-440980D01*
G01X-218800Y-434320D02*
X-216300D01*
Y-435360D01*
X-216430Y-435690D01*
X-216590Y-435900D01*
X-216930Y-435980D01*
X-217260Y-435900D01*
X-217470Y-435650D01*
X-217590Y-435360D01*
Y-434320D01*
G01Y-435360D02*
X-218800Y-435980D01*
G01X-217760Y-436860D02*
X-217470Y-437150D01*
X-217300Y-437400D01*
X-217220Y-437730D01*
X-217300Y-438030D01*
X-217470Y-438230D01*
X-217720Y-438400D01*
X-218010Y-438440D01*
X-218260Y-438400D01*
X-218510Y-438230D01*
X-218720Y-437980D01*
X-218800Y-437690D01*
X-218720Y-437360D01*
X-218470Y-437070D01*
X-218090Y-436900D01*
X-217680Y-436860D01*
X-217130Y-436940D01*
X-216840Y-437070D01*
X-216550Y-437270D01*
X-216340Y-437570D01*
X-216300Y-437860D01*
X-216380Y-438150D01*
X-216590Y-438360D01*
G01X-216300Y-440150D02*
X-216380Y-439820D01*
X-216590Y-439570D01*
X-216840Y-439400D01*
X-217180Y-439270D01*
X-217550Y-439230D01*
X-217930Y-439270D01*
X-218260Y-439400D01*
X-218510Y-439570D01*
X-218720Y-439820D01*
X-218800Y-440150D01*
X-218720Y-440480D01*
X-218510Y-440730D01*
X-218260Y-440900D01*
X-217930Y-441030D01*
X-217550Y-441070D01*
X-217180Y-441030D01*
X-216840Y-440900D01*
X-216590Y-440730D01*
X-216380Y-440480D01*
X-216300Y-440150D01*
G01X-209830Y-405410D02*
X-210080Y-405280D01*
X-210370Y-405200D01*
X-210710D01*
X-211080Y-405330D01*
X-211370Y-405530D01*
X-211580Y-405780D01*
X-211750Y-406200D01*
X-211790Y-406580D01*
X-211710Y-406950D01*
X-211580Y-407200D01*
X-211330Y-407450D01*
X-211040Y-407620D01*
X-210750Y-407700D01*
X-210460D01*
X-210170Y-407620D01*
X-209920Y-407490D01*
X-209710Y-407330D01*
G01X-209040Y-405620D02*
X-208790Y-405370D01*
X-208500Y-405240D01*
X-208170Y-405200D01*
X-207750Y-405280D01*
X-207460Y-405490D01*
X-207370Y-405740D01*
X-207420Y-405990D01*
X-207580Y-406200D01*
X-208420Y-406620D01*
X-208790Y-406910D01*
X-209040Y-407330D01*
X-209130Y-407700D01*
X-207370D01*
G01X-206670Y-407330D02*
X-206420Y-407530D01*
X-206130Y-407660D01*
X-205750Y-407700D01*
X-205370Y-407620D01*
X-205080Y-407450D01*
X-204870Y-407160D01*
X-204830Y-406830D01*
X-204920Y-406490D01*
X-205130Y-406280D01*
X-205420Y-406120D01*
X-205710Y-406080D01*
X-206000Y-406120D01*
X-206370Y-406280D01*
X-206250Y-405200D01*
X-205130D01*
G01X-208300Y-434320D02*
X-205800D01*
Y-435360D01*
X-205930Y-435690D01*
X-206090Y-435900D01*
X-206430Y-435980D01*
X-206760Y-435900D01*
X-206970Y-435650D01*
X-207090Y-435360D01*
Y-434320D01*
G01Y-435360D02*
X-208300Y-435980D01*
G01Y-437650D02*
X-205800D01*
X-206300Y-437150D01*
G01X-208300D02*
Y-438150D01*
G01X-207800Y-439230D02*
X-208090Y-439480D01*
X-208260Y-439820D01*
X-208300Y-440190D01*
X-208260Y-440530D01*
X-208050Y-440860D01*
X-207800Y-441070D01*
X-207550Y-441110D01*
X-207260Y-441030D01*
X-207050Y-440730D01*
X-206970Y-440440D01*
Y-440070D01*
G01Y-440440D02*
X-206840Y-440690D01*
X-206630Y-440900D01*
X-206380Y-440980D01*
X-206130Y-440900D01*
X-205930Y-440690D01*
X-205800Y-440320D01*
X-205840Y-439940D01*
X-206010Y-439570D01*
G01X-184880Y-395900D02*
Y-393400D01*
X-183840D01*
X-183510Y-393530D01*
X-183300Y-393690D01*
X-183220Y-394030D01*
X-183300Y-394360D01*
X-183550Y-394570D01*
X-183840Y-394690D01*
X-184880D01*
G01X-183840D02*
X-183220Y-395900D01*
G01X-182340Y-393820D02*
X-182090Y-393570D01*
X-181800Y-393440D01*
X-181470Y-393400D01*
X-181050Y-393480D01*
X-180760Y-393690D01*
X-180670Y-393940D01*
X-180720Y-394190D01*
X-180880Y-394400D01*
X-181720Y-394820D01*
X-182090Y-395110D01*
X-182340Y-395530D01*
X-182430Y-395900D01*
X-180670D01*
G01X-179050Y-393400D02*
X-179380Y-393480D01*
X-179630Y-393690D01*
X-179800Y-393940D01*
X-179930Y-394280D01*
X-179970Y-394650D01*
X-179930Y-395030D01*
X-179800Y-395360D01*
X-179630Y-395610D01*
X-179380Y-395820D01*
X-179050Y-395900D01*
X-178720Y-395820D01*
X-178470Y-395610D01*
X-178300Y-395360D01*
X-178170Y-395030D01*
X-178130Y-394650D01*
X-178170Y-394280D01*
X-178300Y-393940D01*
X-178470Y-393690D01*
X-178720Y-393480D01*
X-179050Y-393400D01*
G01X-207350Y-366700D02*
X-207680Y-366660D01*
X-207970Y-366490D01*
X-208230Y-366240D01*
X-208390Y-365950D01*
X-208480Y-365620D01*
Y-365280D01*
X-208390Y-364950D01*
X-208230Y-364660D01*
X-207970Y-364410D01*
X-207680Y-364240D01*
X-207350Y-364200D01*
X-207020Y-364240D01*
X-206730Y-364410D01*
X-206470Y-364660D01*
X-206310Y-364950D01*
X-206220Y-365280D01*
Y-365620D01*
X-206310Y-365950D01*
X-206470Y-366240D01*
X-206730Y-366490D01*
X-207020Y-366660D01*
X-207350Y-366700D01*
G01X-207020Y-366030D02*
X-206520Y-366700D01*
G01X-204850D02*
Y-364200D01*
X-205350Y-364700D01*
G01Y-366700D02*
X-204350D01*
G01X-208250Y-386100D02*
X-208580Y-386060D01*
X-208870Y-385890D01*
X-209130Y-385640D01*
X-209290Y-385350D01*
X-209380Y-385020D01*
Y-384680D01*
X-209290Y-384350D01*
X-209130Y-384060D01*
X-208870Y-383810D01*
X-208580Y-383640D01*
X-208250Y-383600D01*
X-207920Y-383640D01*
X-207630Y-383810D01*
X-207370Y-384060D01*
X-207210Y-384350D01*
X-207120Y-384680D01*
Y-385020D01*
X-207210Y-385350D01*
X-207370Y-385640D01*
X-207630Y-385890D01*
X-207920Y-386060D01*
X-208250Y-386100D01*
G01X-207920Y-385430D02*
X-207420Y-386100D01*
G01X-206670Y-385600D02*
X-206420Y-385890D01*
X-206080Y-386060D01*
X-205710Y-386100D01*
X-205370Y-386060D01*
X-205040Y-385850D01*
X-204830Y-385600D01*
X-204790Y-385350D01*
X-204870Y-385060D01*
X-205170Y-384850D01*
X-205460Y-384770D01*
X-205830D01*
G01X-205460D02*
X-205210Y-384640D01*
X-205000Y-384430D01*
X-204920Y-384180D01*
X-205000Y-383930D01*
X-205210Y-383730D01*
X-205580Y-383600D01*
X-205960Y-383640D01*
X-206330Y-383810D01*
G01X-198140Y-310210D02*
X-196890Y-308040D01*
X-195990Y-308560D01*
X-195760Y-308840D01*
X-195660Y-309090D01*
X-195760Y-309420D01*
X-196000Y-309660D01*
X-196320Y-309720D01*
X-196630Y-309680D01*
X-197540Y-309160D01*
G01X-196630Y-309680D02*
X-196700Y-311040D01*
G01X-194890Y-309670D02*
X-194550Y-309580D01*
X-194230Y-309620D01*
X-193930Y-309750D01*
X-193610Y-310030D01*
X-193460Y-310360D01*
X-193510Y-310620D01*
X-193670Y-310810D01*
X-193920Y-310910D01*
X-194850Y-310850D01*
X-195320Y-310920D01*
X-195750Y-311150D01*
X-196010Y-311440D01*
X-194490Y-312310D01*
G01X-202340Y-316110D02*
X-201090Y-313940D01*
X-200190Y-314460D01*
X-199960Y-314740D01*
X-199860Y-314990D01*
X-199960Y-315320D01*
X-200200Y-315560D01*
X-200520Y-315620D01*
X-200830Y-315580D01*
X-201740Y-315060D01*
G01X-200830Y-315580D02*
X-200900Y-316940D01*
G01X-199010Y-318030D02*
X-197760Y-315860D01*
X-200000Y-316640D01*
X-198190Y-317680D01*
G01X-197820Y-318130D02*
X-197750Y-318510D01*
X-197550Y-318820D01*
X-197240Y-319050D01*
X-196930Y-319180D01*
X-196540Y-319160D01*
X-196230Y-319050D01*
X-196070Y-318850D01*
X-196000Y-318560D01*
X-196150Y-318230D01*
X-196360Y-318020D01*
X-196680Y-317830D01*
G01X-196360Y-318020D02*
X-196080Y-318030D01*
X-195790Y-317960D01*
X-195600Y-317780D01*
X-195540Y-317520D01*
X-195620Y-317240D01*
X-195880Y-316940D01*
X-196230Y-316790D01*
X-196640Y-316750D01*
G01X-152830Y-404810D02*
X-153080Y-404680D01*
X-153370Y-404600D01*
X-153710D01*
X-154080Y-404730D01*
X-154370Y-404930D01*
X-154580Y-405180D01*
X-154750Y-405600D01*
X-154790Y-405980D01*
X-154710Y-406350D01*
X-154580Y-406600D01*
X-154330Y-406850D01*
X-154040Y-407020D01*
X-153750Y-407100D01*
X-153460D01*
X-153170Y-407020D01*
X-152920Y-406890D01*
X-152710Y-406730D01*
G01X-152040Y-405020D02*
X-151790Y-404770D01*
X-151500Y-404640D01*
X-151170Y-404600D01*
X-150750Y-404680D01*
X-150460Y-404890D01*
X-150370Y-405140D01*
X-150420Y-405390D01*
X-150580Y-405600D01*
X-151420Y-406020D01*
X-151790Y-406310D01*
X-152040Y-406730D01*
X-152130Y-407100D01*
X-150370D01*
G01X-149540Y-406060D02*
X-149250Y-405770D01*
X-149000Y-405600D01*
X-148670Y-405520D01*
X-148370Y-405600D01*
X-148170Y-405770D01*
X-148000Y-406020D01*
X-147960Y-406310D01*
X-148000Y-406560D01*
X-148170Y-406810D01*
X-148420Y-407020D01*
X-148710Y-407100D01*
X-149040Y-407020D01*
X-149330Y-406770D01*
X-149500Y-406390D01*
X-149540Y-405980D01*
X-149460Y-405430D01*
X-149330Y-405140D01*
X-149130Y-404850D01*
X-148830Y-404640D01*
X-148540Y-404600D01*
X-148250Y-404680D01*
X-148040Y-404890D01*
G01X-173180Y-375000D02*
Y-372500D01*
X-172140D01*
X-171810Y-372630D01*
X-171600Y-372790D01*
X-171520Y-373130D01*
X-171600Y-373460D01*
X-171850Y-373670D01*
X-172140Y-373790D01*
X-173180D01*
G01X-172140D02*
X-171520Y-375000D01*
G01X-169850D02*
Y-372500D01*
X-170350Y-373000D01*
G01Y-375000D02*
X-169350D01*
G01X-166850D02*
Y-372500D01*
X-168390Y-374290D01*
X-166310D01*
G01X-172880Y-366000D02*
Y-363500D01*
X-171840D01*
X-171510Y-363630D01*
X-171300Y-363790D01*
X-171220Y-364130D01*
X-171300Y-364460D01*
X-171550Y-364670D01*
X-171840Y-364790D01*
X-172880D01*
G01X-171840D02*
X-171220Y-366000D01*
G01X-169550D02*
Y-363500D01*
X-170050Y-364000D01*
G01Y-366000D02*
X-169050D01*
G01X-167050D02*
X-166760Y-365960D01*
X-166430Y-365830D01*
X-166220Y-365630D01*
X-166130Y-365330D01*
X-166220Y-365040D01*
X-166470Y-364790D01*
X-166840Y-364670D01*
X-167260D01*
X-167510Y-364580D01*
X-167720Y-364380D01*
X-167800Y-364080D01*
X-167670Y-363790D01*
X-167380Y-363580D01*
X-167050Y-363500D01*
X-166720Y-363580D01*
X-166430Y-363790D01*
X-166300Y-364080D01*
X-166380Y-364380D01*
X-166590Y-364580D01*
X-166840Y-364670D01*
X-167260D01*
X-167630Y-364790D01*
X-167880Y-365040D01*
X-167970Y-365330D01*
X-167880Y-365630D01*
X-167670Y-365830D01*
X-167340Y-365960D01*
X-167050Y-366000D01*
G01X-154340Y336510D02*
X-155590Y338670D01*
X-154690Y339190D01*
X-154340Y339250D01*
X-154070Y339210D01*
X-153830Y338970D01*
X-153740Y338640D01*
X-153850Y338330D01*
X-154040Y338080D01*
X-154940Y337550D01*
G01X-154040Y338080D02*
X-152900Y337340D01*
G01X-152650Y338680D02*
X-152550Y339080D01*
X-152410Y339350D01*
X-152170Y339590D01*
X-151870Y339660D01*
X-151610Y339620D01*
X-151340Y339490D01*
X-151160Y339260D01*
X-151070Y339020D01*
X-151090Y338720D01*
X-151200Y338410D01*
X-151410Y338200D01*
X-151740Y338100D01*
X-152120Y338170D01*
X-152450Y338410D01*
X-152700Y338750D01*
X-152890Y339260D01*
X-152930Y339580D01*
X-152900Y339940D01*
X-152750Y340260D01*
X-152520Y340440D01*
X-152220Y340520D01*
X-151940Y340440D01*
G01X-158940Y342610D02*
X-160190Y344770D01*
X-159290Y345290D01*
X-158940Y345350D01*
X-158670Y345310D01*
X-158430Y345070D01*
X-158340Y344740D01*
X-158450Y344430D01*
X-158640Y344180D01*
X-159540Y343650D01*
G01X-158640Y344180D02*
X-157500Y343440D01*
G01X-157090Y344250D02*
X-156730Y344120D01*
X-156360Y344140D01*
X-156010Y344300D01*
X-155740Y344500D01*
X-155560Y344850D01*
X-155500Y345170D01*
X-155590Y345400D01*
X-155810Y345610D01*
X-156170Y345650D01*
X-156460Y345580D01*
X-156790Y345390D01*
G01X-156460Y345580D02*
X-156310Y345810D01*
X-156230Y346090D01*
X-156280Y346350D01*
X-156480Y346530D01*
X-156770Y346600D01*
X-157150Y346520D01*
X-157460Y346300D01*
X-157700Y345970D01*
G01X-154640Y345420D02*
X-154280Y345390D01*
X-153950Y345480D01*
X-153700Y345720D01*
X-153580Y346080D01*
Y346510D01*
X-153700Y346880D01*
X-153930Y347280D01*
X-154190Y347560D01*
X-154530Y347740D01*
X-154830Y347760D01*
X-155130Y347690D01*
X-155370Y347450D01*
X-155510Y347180D01*
X-155530Y346880D01*
X-155430Y346550D01*
X-155210Y346340D01*
X-154890Y346190D01*
X-154590Y346170D01*
X-154310Y346280D01*
X-154070Y346520D01*
X-153960Y346830D01*
X-153930Y347280D01*
G01X-141470Y362530D02*
X-141450Y362250D01*
X-141380Y361960D01*
X-141210Y361670D01*
X-140920Y361410D01*
X-140590Y361260D01*
X-140270Y361200D01*
X-139820Y361270D01*
X-139480Y361420D01*
X-139200Y361680D01*
X-139040Y361910D01*
X-138950Y362250D01*
Y362590D01*
X-139020Y362880D01*
X-139170Y363140D01*
X-139390Y363350D01*
X-139620Y363500D01*
X-139870Y363600D01*
G01X-140780Y363850D02*
X-141180Y363950D01*
X-141450Y364090D01*
X-141690Y364330D01*
X-141760Y364630D01*
X-141720Y364890D01*
X-141590Y365160D01*
X-141360Y365340D01*
X-141120Y365430D01*
X-140820Y365410D01*
X-140510Y365300D01*
X-140300Y365090D01*
X-140200Y364760D01*
X-140270Y364380D01*
X-140510Y364050D01*
X-140850Y363800D01*
X-141360Y363610D01*
X-141680Y363570D01*
X-142040Y363600D01*
X-142360Y363750D01*
X-142540Y363980D01*
X-142620Y364280D01*
X-142540Y364560D01*
G01X-102330Y-399110D02*
X-102580Y-398980D01*
X-102870Y-398900D01*
X-103210D01*
X-103580Y-399030D01*
X-103870Y-399230D01*
X-104080Y-399480D01*
X-104250Y-399900D01*
X-104290Y-400280D01*
X-104210Y-400650D01*
X-104080Y-400900D01*
X-103830Y-401150D01*
X-103540Y-401320D01*
X-103250Y-401400D01*
X-102960D01*
X-102670Y-401320D01*
X-102420Y-401190D01*
X-102210Y-401030D01*
G01X-101540Y-399320D02*
X-101290Y-399070D01*
X-101000Y-398940D01*
X-100670Y-398900D01*
X-100250Y-398980D01*
X-99960Y-399190D01*
X-99870Y-399440D01*
X-99920Y-399690D01*
X-100080Y-399900D01*
X-100920Y-400320D01*
X-101290Y-400610D01*
X-101540Y-401030D01*
X-101630Y-401400D01*
X-99870D01*
G01X-98960Y-401110D02*
X-98670Y-401320D01*
X-98330Y-401400D01*
X-98000Y-401320D01*
X-97710Y-401070D01*
X-97500Y-400690D01*
X-97420Y-400320D01*
Y-399860D01*
X-97500Y-399480D01*
X-97710Y-399150D01*
X-97960Y-398980D01*
X-98250Y-398900D01*
X-98580Y-398980D01*
X-98830Y-399150D01*
X-99000Y-399400D01*
X-99080Y-399730D01*
X-99000Y-400020D01*
X-98790Y-400320D01*
X-98540Y-400480D01*
X-98250Y-400530D01*
X-97920Y-400440D01*
X-97670Y-400230D01*
X-97420Y-399860D01*
G01X-80330Y-399110D02*
X-80580Y-398980D01*
X-80870Y-398900D01*
X-81210D01*
X-81580Y-399030D01*
X-81870Y-399230D01*
X-82080Y-399480D01*
X-82250Y-399900D01*
X-82290Y-400280D01*
X-82210Y-400650D01*
X-82080Y-400900D01*
X-81830Y-401150D01*
X-81540Y-401320D01*
X-81250Y-401400D01*
X-80960D01*
X-80670Y-401320D01*
X-80420Y-401190D01*
X-80210Y-401030D01*
G01X-79670Y-400900D02*
X-79420Y-401190D01*
X-79080Y-401360D01*
X-78710Y-401400D01*
X-78370Y-401360D01*
X-78040Y-401150D01*
X-77830Y-400900D01*
X-77790Y-400650D01*
X-77870Y-400360D01*
X-78170Y-400150D01*
X-78460Y-400070D01*
X-78830D01*
G01X-78460D02*
X-78210Y-399940D01*
X-78000Y-399730D01*
X-77920Y-399480D01*
X-78000Y-399230D01*
X-78210Y-399030D01*
X-78580Y-398900D01*
X-78960Y-398940D01*
X-79330Y-399110D01*
G01X-76250Y-398900D02*
X-76580Y-398980D01*
X-76830Y-399190D01*
X-77000Y-399440D01*
X-77130Y-399780D01*
X-77170Y-400150D01*
X-77130Y-400530D01*
X-77000Y-400860D01*
X-76830Y-401110D01*
X-76580Y-401320D01*
X-76250Y-401400D01*
X-75920Y-401320D01*
X-75670Y-401110D01*
X-75500Y-400860D01*
X-75370Y-400530D01*
X-75330Y-400150D01*
X-75370Y-399780D01*
X-75500Y-399440D01*
X-75670Y-399190D01*
X-75920Y-398980D01*
X-76250Y-398900D01*
G01X-78730Y-371610D02*
X-78980Y-371480D01*
X-79270Y-371400D01*
X-79610D01*
X-79980Y-371530D01*
X-80270Y-371730D01*
X-80480Y-371980D01*
X-80650Y-372400D01*
X-80690Y-372780D01*
X-80610Y-373150D01*
X-80480Y-373400D01*
X-80230Y-373650D01*
X-79940Y-373820D01*
X-79650Y-373900D01*
X-79360D01*
X-79070Y-373820D01*
X-78820Y-373690D01*
X-78610Y-373530D01*
G01X-77150Y-373900D02*
Y-371400D01*
X-77650Y-371900D01*
G01Y-373900D02*
X-76650D01*
G01X-75360Y-373610D02*
X-75070Y-373820D01*
X-74730Y-373900D01*
X-74400Y-373820D01*
X-74110Y-373570D01*
X-73900Y-373190D01*
X-73820Y-372820D01*
Y-372360D01*
X-73900Y-371980D01*
X-74110Y-371650D01*
X-74360Y-371480D01*
X-74650Y-371400D01*
X-74980Y-371480D01*
X-75230Y-371650D01*
X-75400Y-371900D01*
X-75480Y-372230D01*
X-75400Y-372520D01*
X-75190Y-372820D01*
X-74940Y-372980D01*
X-74650Y-373030D01*
X-74320Y-372940D01*
X-74070Y-372730D01*
X-73820Y-372360D01*
G01X-15680Y-367800D02*
Y-365300D01*
X-14640D01*
X-14310Y-365430D01*
X-14100Y-365590D01*
X-14020Y-365930D01*
X-14100Y-366260D01*
X-14350Y-366470D01*
X-14640Y-366590D01*
X-15680D01*
G01X-14640D02*
X-14020Y-367800D01*
G01X-12350D02*
Y-365300D01*
X-12850Y-365800D01*
G01Y-367800D02*
X-11850D01*
G01X-16480Y-375600D02*
Y-373100D01*
X-15440D01*
X-15110Y-373230D01*
X-14900Y-373390D01*
X-14820Y-373730D01*
X-14900Y-374060D01*
X-15150Y-374270D01*
X-15440Y-374390D01*
X-16480D01*
G01X-15440D02*
X-14820Y-375600D01*
G01X-12650D02*
Y-373100D01*
X-14190Y-374890D01*
X-12110D01*
G01X-10150Y-375600D02*
Y-373100D01*
X-11690Y-374890D01*
X-9610D01*
G01X33520Y368800D02*
Y371300D01*
X34560D01*
X34890Y371170D01*
X35100Y371010D01*
X35180Y370670D01*
X35100Y370340D01*
X34850Y370130D01*
X34560Y370010D01*
X33520D01*
G01X34560D02*
X35180Y368800D01*
G01X36770D02*
X36850Y369340D01*
X36980Y369800D01*
X37140Y370220D01*
X37350Y370670D01*
X37680Y371300D01*
X36020D01*
G01X32220Y376500D02*
Y379000D01*
X33260D01*
X33590Y378870D01*
X33800Y378710D01*
X33880Y378370D01*
X33800Y378040D01*
X33550Y377830D01*
X33260Y377710D01*
X32220D01*
G01X33260D02*
X33880Y376500D01*
G01X34630Y377000D02*
X34880Y376710D01*
X35220Y376540D01*
X35590Y376500D01*
X35930Y376540D01*
X36260Y376750D01*
X36470Y377000D01*
X36510Y377250D01*
X36430Y377540D01*
X36130Y377750D01*
X35840Y377830D01*
X35470D01*
G01X35840D02*
X36090Y377960D01*
X36300Y378170D01*
X36380Y378420D01*
X36300Y378670D01*
X36090Y378870D01*
X35720Y379000D01*
X35340Y378960D01*
X34970Y378790D01*
G01X38050Y376500D02*
X38340Y376540D01*
X38670Y376670D01*
X38880Y376870D01*
X38970Y377170D01*
X38880Y377460D01*
X38630Y377710D01*
X38260Y377830D01*
X37840D01*
X37590Y377920D01*
X37380Y378120D01*
X37300Y378420D01*
X37430Y378710D01*
X37720Y378920D01*
X38050Y379000D01*
X38380Y378920D01*
X38670Y378710D01*
X38800Y378420D01*
X38720Y378120D01*
X38510Y377920D01*
X38260Y377830D01*
X37840D01*
X37470Y377710D01*
X37220Y377460D01*
X37130Y377170D01*
X37220Y376870D01*
X37430Y376670D01*
X37760Y376540D01*
X38050Y376500D01*
G01X57510Y383870D02*
X57380Y383620D01*
X57300Y383330D01*
Y382990D01*
X57430Y382620D01*
X57630Y382330D01*
X57880Y382120D01*
X58300Y381950D01*
X58680Y381910D01*
X59050Y381990D01*
X59300Y382120D01*
X59550Y382370D01*
X59720Y382660D01*
X59800Y382950D01*
Y383240D01*
X59720Y383530D01*
X59590Y383780D01*
X59430Y383990D01*
G01Y384530D02*
X59630Y384780D01*
X59760Y385070D01*
X59800Y385450D01*
X59720Y385830D01*
X59550Y386120D01*
X59260Y386330D01*
X58930Y386370D01*
X58590Y386280D01*
X58380Y386070D01*
X58220Y385780D01*
X58180Y385490D01*
X58220Y385200D01*
X58380Y384830D01*
X57300Y384950D01*
Y386070D01*
G01X136170Y-357210D02*
X135920Y-357080D01*
X135630Y-357000D01*
X135290D01*
X134920Y-357130D01*
X134630Y-357330D01*
X134420Y-357580D01*
X134250Y-358000D01*
X134210Y-358380D01*
X134290Y-358750D01*
X134420Y-359000D01*
X134670Y-359250D01*
X134960Y-359420D01*
X135250Y-359500D01*
X135540D01*
X135830Y-359420D01*
X136080Y-359290D01*
X136290Y-359130D01*
G01X137750Y-359500D02*
Y-357000D01*
X137250Y-357500D01*
G01Y-359500D02*
X138250D01*
G01X140250D02*
X140540Y-359460D01*
X140870Y-359330D01*
X141080Y-359130D01*
X141170Y-358830D01*
X141080Y-358540D01*
X140830Y-358290D01*
X140460Y-358170D01*
X140040D01*
X139790Y-358080D01*
X139580Y-357880D01*
X139500Y-357580D01*
X139630Y-357290D01*
X139920Y-357080D01*
X140250Y-357000D01*
X140580Y-357080D01*
X140870Y-357290D01*
X141000Y-357580D01*
X140920Y-357880D01*
X140710Y-358080D01*
X140460Y-358170D01*
X140040D01*
X139670Y-358290D01*
X139420Y-358540D01*
X139330Y-358830D01*
X139420Y-359130D01*
X139630Y-359330D01*
X139960Y-359460D01*
X140250Y-359500D01*
G01X175860Y-338090D02*
X174610Y-335930D01*
X175510Y-335410D01*
X175860Y-335350D01*
X176130Y-335390D01*
X176370Y-335630D01*
X176460Y-335960D01*
X176350Y-336270D01*
X176160Y-336520D01*
X175260Y-337050D01*
G01X176160Y-336520D02*
X177300Y-337260D01*
G01X179190Y-336170D02*
X177940Y-334010D01*
X177500Y-336330D01*
X179300Y-335290D01*
G01X180160Y-335280D02*
X180520Y-335310D01*
X180850Y-335220D01*
X181100Y-334980D01*
X181220Y-334620D01*
Y-334190D01*
X181100Y-333820D01*
X180870Y-333420D01*
X180610Y-333140D01*
X180270Y-332960D01*
X179970Y-332940D01*
X179670Y-333010D01*
X179430Y-333250D01*
X179290Y-333520D01*
X179270Y-333820D01*
X179370Y-334150D01*
X179590Y-334360D01*
X179910Y-334510D01*
X180210Y-334530D01*
X180490Y-334420D01*
X180730Y-334180D01*
X180840Y-333870D01*
X180870Y-333420D01*
G01X172760Y-331690D02*
X171510Y-329530D01*
X172410Y-329010D01*
X172760Y-328950D01*
X173030Y-328990D01*
X173270Y-329230D01*
X173360Y-329560D01*
X173250Y-329870D01*
X173060Y-330120D01*
X172160Y-330650D01*
G01X173060Y-330120D02*
X174200Y-330860D01*
G01X175650Y-330030D02*
X174400Y-327860D01*
X174220Y-328540D01*
G01X175220Y-330280D02*
X176090Y-329780D01*
G01X176100Y-327370D02*
X176190Y-327030D01*
X176380Y-326770D01*
X176640Y-326570D01*
X177050Y-326430D01*
X177400Y-326470D01*
X177600Y-326640D01*
X177690Y-326880D01*
X177650Y-327140D01*
X177140Y-327920D01*
X176960Y-328360D01*
X176950Y-328850D01*
X177060Y-329210D01*
X178580Y-328340D01*
G01X211970Y-351710D02*
X211720Y-351580D01*
X211430Y-351500D01*
X211090D01*
X210720Y-351630D01*
X210430Y-351830D01*
X210220Y-352080D01*
X210050Y-352500D01*
X210010Y-352880D01*
X210090Y-353250D01*
X210220Y-353500D01*
X210470Y-353750D01*
X210760Y-353920D01*
X211050Y-354000D01*
X211340D01*
X211630Y-353920D01*
X211880Y-353790D01*
X212090Y-353630D01*
G01X214050Y-354000D02*
Y-351500D01*
X212510Y-353290D01*
X214590D01*
G01X216550Y-354000D02*
Y-351500D01*
X215010Y-353290D01*
X217090D01*
G01X233170Y-378810D02*
X232920Y-378680D01*
X232630Y-378600D01*
X232290D01*
X231920Y-378730D01*
X231630Y-378930D01*
X231420Y-379180D01*
X231250Y-379600D01*
X231210Y-379980D01*
X231290Y-380350D01*
X231420Y-380600D01*
X231670Y-380850D01*
X231960Y-381020D01*
X232250Y-381100D01*
X232540D01*
X232830Y-381020D01*
X233080Y-380890D01*
X233290Y-380730D01*
G01X235250Y-381100D02*
Y-378600D01*
X233710Y-380390D01*
X235790D01*
G01X236330Y-380600D02*
X236580Y-380890D01*
X236920Y-381060D01*
X237290Y-381100D01*
X237630Y-381060D01*
X237960Y-380850D01*
X238170Y-380600D01*
X238210Y-380350D01*
X238130Y-380060D01*
X237830Y-379850D01*
X237540Y-379770D01*
X237170D01*
G01X237540D02*
X237790Y-379640D01*
X238000Y-379430D01*
X238080Y-379180D01*
X238000Y-378930D01*
X237790Y-378730D01*
X237420Y-378600D01*
X237040Y-378640D01*
X236670Y-378810D01*
G01X231700Y294820D02*
X231470Y294670D01*
X231250Y294460D01*
X231080Y294170D01*
X231000Y293780D01*
X231040Y293420D01*
X231150Y293120D01*
X231430Y292770D01*
X231730Y292540D01*
X232100Y292430D01*
X232380Y292410D01*
X232720Y292500D01*
X233010Y292670D01*
X233220Y292880D01*
X233370Y293140D01*
X233440Y293430D01*
X233460Y293710D01*
X233420Y293970D01*
G01X233580Y294510D02*
X233960Y294580D01*
X234270Y294780D01*
X234500Y295090D01*
X234630Y295400D01*
X234610Y295790D01*
X234500Y296100D01*
X234300Y296260D01*
X234010Y296330D01*
X233680Y296180D01*
X233470Y295970D01*
X233280Y295650D01*
G01X233470Y295970D02*
X233480Y296250D01*
X233410Y296540D01*
X233230Y296730D01*
X232970Y296790D01*
X232690Y296710D01*
X232390Y296450D01*
X232240Y296100D01*
X232200Y295690D01*
G01X215840Y303510D02*
X214590Y301340D01*
X213690Y301860D01*
X213460Y302140D01*
X213360Y302390D01*
X213460Y302720D01*
X213700Y302960D01*
X214020Y303020D01*
X214330Y302980D01*
X215240Y302460D01*
G01X214330Y302980D02*
X214400Y304340D01*
G01X212950Y305170D02*
X212670Y305280D01*
X212320Y305340D01*
X212040Y305270D01*
X211820Y305060D01*
X211750Y304760D01*
X211840Y304420D01*
X212100Y304120D01*
X212460Y303920D01*
X212640Y303720D01*
X212710Y303430D01*
X212640Y303140D01*
X212380Y302950D01*
X212030Y302920D01*
X211700Y303010D01*
X211450Y303250D01*
X211300Y303580D01*
X211340Y303890D01*
X211560Y304100D01*
X211840Y304180D01*
X212100Y304120D01*
X212460Y303920D01*
X212850Y303840D01*
X213190Y303930D01*
X213410Y304140D01*
X213480Y304430D01*
X213410Y304720D01*
X213180Y304990D01*
X212950Y305170D01*
G01X223440Y310010D02*
X222190Y307840D01*
X221290Y308360D01*
X221060Y308640D01*
X220960Y308890D01*
X221060Y309220D01*
X221300Y309460D01*
X221620Y309520D01*
X221930Y309480D01*
X222840Y308960D01*
G01X221930Y309480D02*
X222000Y310840D01*
G01X221090Y310780D02*
X221020Y311160D01*
X220820Y311470D01*
X220510Y311700D01*
X220200Y311830D01*
X219810Y311810D01*
X219500Y311700D01*
X219340Y311500D01*
X219270Y311210D01*
X219420Y310880D01*
X219630Y310670D01*
X219950Y310480D01*
G01X219630Y310670D02*
X219350Y310680D01*
X219060Y310610D01*
X218870Y310430D01*
X218810Y310170D01*
X218890Y309890D01*
X219150Y309590D01*
X219500Y309440D01*
X219910Y309400D01*
G01X218450Y312880D02*
X218110Y312460D01*
X217770Y312120D01*
X217420Y311840D01*
X217010Y311550D01*
X216410Y311180D01*
X217850Y310340D01*
G01X256570Y-329910D02*
X256320Y-329780D01*
X256030Y-329700D01*
X255690D01*
X255320Y-329830D01*
X255030Y-330030D01*
X254820Y-330280D01*
X254650Y-330700D01*
X254610Y-331080D01*
X254690Y-331450D01*
X254820Y-331700D01*
X255070Y-331950D01*
X255360Y-332120D01*
X255650Y-332200D01*
X255940D01*
X256230Y-332120D01*
X256480Y-331990D01*
X256690Y-331830D01*
G01X258650Y-332200D02*
Y-329700D01*
X257110Y-331490D01*
X259190D01*
G01X260650Y-329700D02*
X260320Y-329780D01*
X260070Y-329990D01*
X259900Y-330240D01*
X259770Y-330580D01*
X259730Y-330950D01*
X259770Y-331330D01*
X259900Y-331660D01*
X260070Y-331910D01*
X260320Y-332120D01*
X260650Y-332200D01*
X260980Y-332120D01*
X261230Y-331910D01*
X261400Y-331660D01*
X261530Y-331330D01*
X261570Y-330950D01*
X261530Y-330580D01*
X261400Y-330240D01*
X261230Y-329990D01*
X260980Y-329780D01*
X260650Y-329700D01*
G01X251470Y-306510D02*
X251220Y-306380D01*
X250930Y-306300D01*
X250590D01*
X250220Y-306430D01*
X249930Y-306630D01*
X249720Y-306880D01*
X249550Y-307300D01*
X249510Y-307680D01*
X249590Y-308050D01*
X249720Y-308300D01*
X249970Y-308550D01*
X250260Y-308720D01*
X250550Y-308800D01*
X250840D01*
X251130Y-308720D01*
X251380Y-308590D01*
X251590Y-308430D01*
G01X252130Y-308300D02*
X252380Y-308590D01*
X252720Y-308760D01*
X253090Y-308800D01*
X253430Y-308760D01*
X253760Y-308550D01*
X253970Y-308300D01*
X254010Y-308050D01*
X253930Y-307760D01*
X253630Y-307550D01*
X253340Y-307470D01*
X252970D01*
G01X253340D02*
X253590Y-307340D01*
X253800Y-307130D01*
X253880Y-306880D01*
X253800Y-306630D01*
X253590Y-306430D01*
X253220Y-306300D01*
X252840Y-306340D01*
X252470Y-306510D01*
G01X255470Y-308800D02*
X255550Y-308260D01*
X255680Y-307800D01*
X255840Y-307380D01*
X256050Y-306930D01*
X256380Y-306300D01*
X254720D01*
G01X257370Y-320310D02*
X257120Y-320180D01*
X256830Y-320100D01*
X256490D01*
X256120Y-320230D01*
X255830Y-320430D01*
X255620Y-320680D01*
X255450Y-321100D01*
X255410Y-321480D01*
X255490Y-321850D01*
X255620Y-322100D01*
X255870Y-322350D01*
X256160Y-322520D01*
X256450Y-322600D01*
X256740D01*
X257030Y-322520D01*
X257280Y-322390D01*
X257490Y-322230D01*
G01X259450Y-322600D02*
Y-320100D01*
X257910Y-321890D01*
X259990D01*
G01X261450Y-322600D02*
Y-320100D01*
X260950Y-320600D01*
G01Y-322600D02*
X261950D01*
G01X300410Y-216040D02*
X298240Y-214790D01*
X298760Y-213890D01*
X299040Y-213660D01*
X299290Y-213560D01*
X299620Y-213660D01*
X299860Y-213900D01*
X299920Y-214220D01*
X299880Y-214530D01*
X299360Y-215440D01*
G01X299880Y-214530D02*
X301240Y-214600D01*
G01X302070Y-213150D02*
X299910Y-211900D01*
X300090Y-212580D01*
G01X301820Y-213580D02*
X302320Y-212710D01*
G01X303320Y-210980D02*
X301160Y-209730D01*
X301340Y-210410D01*
G01X303070Y-211410D02*
X303570Y-210540D01*
G01X297770Y-233960D02*
X297620Y-233730D01*
X297410Y-233510D01*
X297120Y-233340D01*
X296730Y-233260D01*
X296370Y-233300D01*
X296070Y-233410D01*
X295720Y-233690D01*
X295490Y-233990D01*
X295380Y-234360D01*
X295360Y-234640D01*
X295450Y-234980D01*
X295620Y-235270D01*
X295830Y-235480D01*
X296090Y-235630D01*
X296380Y-235700D01*
X296660Y-235720D01*
X296920Y-235680D01*
G01X298000Y-236730D02*
X299250Y-234570D01*
X298570Y-234750D01*
G01X297570Y-236480D02*
X298440Y-236980D01*
G01X300610Y-238240D02*
X301860Y-236070D01*
X299620Y-236850D01*
X301430Y-237890D01*
G01X307210Y-221240D02*
X305040Y-219990D01*
X305560Y-219090D01*
X305840Y-218860D01*
X306090Y-218760D01*
X306420Y-218860D01*
X306660Y-219100D01*
X306720Y-219420D01*
X306680Y-219730D01*
X306160Y-220640D01*
G01X306680Y-219730D02*
X308040Y-219800D01*
G01X308090Y-218950D02*
X308400Y-218840D01*
X308650Y-218650D01*
X308870Y-218350D01*
X308990Y-217980D01*
Y-217650D01*
X308840Y-217320D01*
X308580Y-217120D01*
X308250Y-217020D01*
X307960Y-217100D01*
X307670Y-217270D01*
X307490Y-217500D01*
X307380Y-217770D01*
X307340Y-218180D01*
X306460Y-217530D01*
X307020Y-216560D01*
G01X307960Y-214930D02*
X307870Y-215260D01*
X307920Y-215580D01*
X308050Y-215850D01*
X308280Y-216120D01*
X308580Y-216350D01*
X308930Y-216500D01*
X309280Y-216560D01*
X309580Y-216540D01*
X309890Y-216420D01*
X310120Y-216180D01*
X310220Y-215850D01*
X310160Y-215530D01*
X310030Y-215260D01*
X309800Y-214980D01*
X309500Y-214760D01*
X309160Y-214610D01*
X308800Y-214550D01*
X308500Y-214570D01*
X308200Y-214680D01*
X307960Y-214930D01*
G01X353130Y139670D02*
X352850Y139650D01*
X352560Y139580D01*
X352270Y139410D01*
X352010Y139120D01*
X351860Y138790D01*
X351800Y138470D01*
X351870Y138020D01*
X352020Y137680D01*
X352280Y137400D01*
X352510Y137240D01*
X352850Y137150D01*
X353190D01*
X353480Y137220D01*
X353740Y137370D01*
X353950Y137590D01*
X354100Y137820D01*
X354200Y138070D01*
G01X353930Y139880D02*
X354020Y140220D01*
X354210Y140480D01*
X354470Y140680D01*
X354880Y140820D01*
X355230Y140780D01*
X355430Y140610D01*
X355520Y140370D01*
X355480Y140110D01*
X354970Y139330D01*
X354790Y138890D01*
X354780Y138400D01*
X354890Y138040D01*
X356410Y138910D01*
G01X358260Y139980D02*
X357010Y142140D01*
X356570Y139820D01*
X358370Y140860D01*
G01X335190Y153160D02*
X333030Y151910D01*
X332510Y152810D01*
X332450Y153160D01*
X332490Y153430D01*
X332730Y153670D01*
X333060Y153760D01*
X333370Y153650D01*
X333620Y153460D01*
X334150Y152560D01*
G01X333620Y153460D02*
X334360Y154600D01*
G01X333630Y155290D02*
X333660Y155650D01*
X333570Y155980D01*
X333330Y156230D01*
X332970Y156350D01*
X332540D01*
X332170Y156230D01*
X331770Y156000D01*
X331490Y155740D01*
X331310Y155400D01*
X331290Y155100D01*
X331360Y154800D01*
X331600Y154560D01*
X331870Y154420D01*
X332170Y154400D01*
X332500Y154500D01*
X332710Y154720D01*
X332860Y155040D01*
X332880Y155340D01*
X332770Y155620D01*
X332530Y155860D01*
X332220Y155970D01*
X331770Y156000D01*
G01X344090Y154860D02*
X341930Y153610D01*
X341410Y154510D01*
X341350Y154860D01*
X341390Y155130D01*
X341630Y155370D01*
X341960Y155460D01*
X342270Y155350D01*
X342520Y155160D01*
X343050Y154260D01*
G01X342520Y155160D02*
X343260Y156300D01*
G01X342560Y156770D02*
X342610Y157090D01*
X342580Y157410D01*
X342430Y157750D01*
X342170Y158040D01*
X341880Y158200D01*
X341520Y158240D01*
X341210Y158110D01*
X340960Y157870D01*
X340890Y157590D01*
Y157250D01*
X341000Y156980D01*
X341180Y156740D01*
X341510Y156500D01*
X340510Y156070D01*
X339950Y157040D01*
G01X339770Y158200D02*
X339430Y158290D01*
X339170Y158480D01*
X338970Y158740D01*
X338830Y159150D01*
X338870Y159500D01*
X339040Y159700D01*
X339280Y159790D01*
X339540Y159750D01*
X340320Y159240D01*
X340760Y159060D01*
X341250Y159050D01*
X341610Y159160D01*
X340740Y160680D01*
G01X372270Y-53110D02*
X372020Y-52980D01*
X371730Y-52900D01*
X371390D01*
X371020Y-53030D01*
X370730Y-53230D01*
X370520Y-53480D01*
X370350Y-53900D01*
X370310Y-54280D01*
X370390Y-54650D01*
X370520Y-54900D01*
X370770Y-55150D01*
X371060Y-55320D01*
X371350Y-55400D01*
X371640D01*
X371930Y-55320D01*
X372180Y-55190D01*
X372390Y-55030D01*
G01X373850Y-55400D02*
Y-52900D01*
X373350Y-53400D01*
G01Y-55400D02*
X374350D01*
G01X376350Y-52900D02*
X376020Y-52980D01*
X375770Y-53190D01*
X375600Y-53440D01*
X375470Y-53780D01*
X375430Y-54150D01*
X375470Y-54530D01*
X375600Y-54860D01*
X375770Y-55110D01*
X376020Y-55320D01*
X376350Y-55400D01*
X376680Y-55320D01*
X376930Y-55110D01*
X377100Y-54860D01*
X377230Y-54530D01*
X377270Y-54150D01*
X377230Y-53780D01*
X377100Y-53440D01*
X376930Y-53190D01*
X376680Y-52980D01*
X376350Y-52900D01*
G01X369500Y-16580D02*
X367000D01*
Y-15540D01*
X367130Y-15210D01*
X367290Y-15000D01*
X367630Y-14920D01*
X367960Y-15000D01*
X368170Y-15250D01*
X368290Y-15540D01*
Y-16580D01*
G01Y-15540D02*
X369500Y-14920D01*
G01Y-13250D02*
X367000D01*
X367500Y-13750D01*
G01X369500D02*
Y-12750D01*
G01X367000Y-10750D02*
X367080Y-11080D01*
X367290Y-11330D01*
X367540Y-11500D01*
X367880Y-11630D01*
X368250Y-11670D01*
X368630Y-11630D01*
X368960Y-11500D01*
X369210Y-11330D01*
X369420Y-11080D01*
X369500Y-10750D01*
X369420Y-10420D01*
X369210Y-10170D01*
X368960Y-10000D01*
X368630Y-9870D01*
X368250Y-9830D01*
X367880Y-9870D01*
X367540Y-10000D01*
X367290Y-10170D01*
X367080Y-10420D01*
X367000Y-10750D01*
G01X378000Y-16280D02*
X375500D01*
Y-15240D01*
X375630Y-14910D01*
X375790Y-14700D01*
X376130Y-14620D01*
X376460Y-14700D01*
X376670Y-14950D01*
X376790Y-15240D01*
Y-16280D01*
G01Y-15240D02*
X378000Y-14620D01*
G01X377630Y-13870D02*
X377830Y-13620D01*
X377960Y-13330D01*
X378000Y-12950D01*
X377920Y-12570D01*
X377750Y-12280D01*
X377460Y-12070D01*
X377130Y-12030D01*
X376790Y-12120D01*
X376580Y-12330D01*
X376420Y-12620D01*
X376380Y-12910D01*
X376420Y-13200D01*
X376580Y-13570D01*
X375500Y-13450D01*
Y-12330D01*
G01X378000Y-10450D02*
X375500D01*
X376000Y-10950D01*
G01X378000D02*
Y-9950D01*
G54D11*
G01X-331330Y-95030D02*
X-331470Y-95400D01*
X-331490Y-95760D01*
X-331400Y-96110D01*
X-331110Y-96410D01*
X-330790Y-96570D01*
X-330380Y-96680D01*
X-329980Y-96570D01*
X-328250Y-95570D01*
G01X-329850Y-98800D02*
X-327250Y-97300D01*
X-328070Y-97080D01*
G01X-330150Y-98280D02*
X-329550Y-99320D01*
G01X-325750Y-99900D02*
X-326040Y-99600D01*
X-326410Y-99470D01*
X-326760Y-99440D01*
X-327190Y-99510D01*
X-327600Y-99700D01*
X-327970Y-99960D01*
X-328240Y-100290D01*
X-328400Y-100620D01*
X-328460Y-101000D01*
X-328350Y-101400D01*
X-328060Y-101700D01*
X-327700Y-101830D01*
X-327340Y-101850D01*
X-326920Y-101780D01*
X-326500Y-101600D01*
X-326140Y-101330D01*
X-325860Y-101000D01*
X-325710Y-100680D01*
X-325640Y-100300D01*
X-325750Y-99900D01*
G01X-349030Y-104230D02*
X-349170Y-104600D01*
X-349190Y-104960D01*
X-349100Y-105310D01*
X-348810Y-105610D01*
X-348490Y-105770D01*
X-348080Y-105880D01*
X-347680Y-105770D01*
X-345950Y-104770D01*
G01X-347550Y-108000D02*
X-344950Y-106500D01*
X-345770Y-106280D01*
G01X-347850Y-107480D02*
X-347250Y-108520D01*
G01X-346210Y-109420D02*
X-346280Y-109810D01*
X-346230Y-110180D01*
X-346050Y-110600D01*
X-345740Y-110940D01*
X-345390Y-111140D01*
X-344960Y-111180D01*
X-344590Y-111030D01*
X-344290Y-110740D01*
X-344200Y-110400D01*
Y-110000D01*
X-344340Y-109670D01*
X-344550Y-109390D01*
X-344950Y-109100D01*
X-343750Y-108580D01*
X-343080Y-109750D01*
G01X-335400Y80900D02*
X-335700Y80650D01*
X-335900Y80350D01*
X-336000Y80000D01*
X-335900Y79600D01*
X-335700Y79300D01*
X-335400Y79000D01*
X-335000Y78900D01*
X-333000D01*
G01X-335550Y78000D02*
X-335800Y77700D01*
X-335950Y77350D01*
X-336000Y76900D01*
X-335900Y76450D01*
X-335700Y76100D01*
X-335350Y75850D01*
X-334950Y75800D01*
X-334550Y75900D01*
X-334300Y76150D01*
X-334100Y76500D01*
X-334050Y76850D01*
X-334100Y77200D01*
X-334300Y77650D01*
X-333000Y77500D01*
Y76150D01*
G01X-356400Y83300D02*
X-356700Y83050D01*
X-356900Y82750D01*
X-357000Y82400D01*
X-356900Y82000D01*
X-356700Y81700D01*
X-356400Y81400D01*
X-356000Y81300D01*
X-354000D01*
G01X-357000Y79300D02*
X-354000D01*
X-354600Y79900D01*
G01X-357000D02*
Y78700D01*
G01X-355750Y77250D02*
X-355400Y76900D01*
X-355200Y76600D01*
X-355100Y76200D01*
X-355200Y75850D01*
X-355400Y75600D01*
X-355700Y75400D01*
X-356050Y75350D01*
X-356350Y75400D01*
X-356650Y75600D01*
X-356900Y75900D01*
X-357000Y76250D01*
X-356900Y76650D01*
X-356600Y77000D01*
X-356150Y77200D01*
X-355650Y77250D01*
X-355000Y77150D01*
X-354650Y77000D01*
X-354300Y76750D01*
X-354050Y76400D01*
X-354000Y76050D01*
X-354100Y75700D01*
X-354350Y75450D01*
G01X-267430Y250870D02*
X-267820Y250800D01*
X-268140Y250640D01*
X-268400Y250390D01*
X-268510Y249990D01*
X-268490Y249630D01*
X-268380Y249220D01*
X-268080Y248930D01*
X-266350Y247930D01*
G01X-269950Y247700D02*
X-267350Y246200D01*
X-267570Y247020D01*
G01X-269650Y248220D02*
X-270250Y247180D01*
G01X-268810Y244670D02*
X-268700Y244260D01*
X-268750Y243890D01*
X-268900Y243510D01*
X-269240Y243130D01*
X-269630Y242950D01*
X-269940Y243020D01*
X-270170Y243210D01*
X-270290Y243510D01*
X-270220Y244620D01*
X-270300Y245190D01*
X-270590Y245700D01*
X-270920Y246010D01*
X-271980Y244190D01*
G01X-249770Y-266030D02*
X-249700Y-266420D01*
X-249540Y-266740D01*
X-249290Y-267000D01*
X-248890Y-267110D01*
X-248530Y-267090D01*
X-248120Y-266980D01*
X-247830Y-266680D01*
X-246830Y-264950D01*
G01X-246600Y-268550D02*
X-245100Y-265950D01*
X-245920Y-266170D01*
G01X-247120Y-268250D02*
X-246080Y-268850D01*
G01X-243480Y-270350D02*
X-241980Y-267750D01*
X-244660Y-268690D01*
X-242490Y-269940D01*
G01X-250830Y241270D02*
X-251220Y241200D01*
X-251540Y241040D01*
X-251800Y240790D01*
X-251910Y240390D01*
X-251890Y240030D01*
X-251780Y239620D01*
X-251480Y239330D01*
X-249750Y238330D01*
G01X-253350Y238100D02*
X-250750Y236600D01*
X-250970Y237420D01*
G01X-253050Y238620D02*
X-253650Y237580D01*
G01X-254800Y235590D02*
X-254290Y235180D01*
X-253890Y234770D01*
X-253550Y234350D01*
X-253200Y233860D01*
X-252750Y233130D01*
X-251750Y234870D01*
G01X-237570Y-250930D02*
X-237500Y-251320D01*
X-237340Y-251640D01*
X-237090Y-251900D01*
X-236690Y-252010D01*
X-236330Y-251990D01*
X-235920Y-251880D01*
X-235630Y-251580D01*
X-234630Y-249850D01*
G01X-234400Y-253450D02*
X-232900Y-250850D01*
X-233720Y-251070D01*
G01X-234920Y-253150D02*
X-233880Y-253750D01*
G01X-103970Y327270D02*
X-103600Y327130D01*
X-103240Y327110D01*
X-102890Y327200D01*
X-102590Y327490D01*
X-102430Y327810D01*
X-102320Y328220D01*
X-102430Y328620D01*
X-103430Y330350D01*
G01X-101650Y329360D02*
X-101520Y329840D01*
X-101360Y330160D01*
X-101060Y330450D01*
X-100710Y330530D01*
X-100390Y330490D01*
X-100070Y330330D01*
X-99850Y330050D01*
X-99750Y329760D01*
X-99770Y329400D01*
X-99900Y329040D01*
X-100160Y328780D01*
X-100550Y328660D01*
X-101010Y328750D01*
X-101410Y329040D01*
X-101700Y329440D01*
X-101940Y330060D01*
X-101980Y330440D01*
X-101940Y330860D01*
X-101760Y331250D01*
X-101480Y331470D01*
X-101130Y331560D01*
X-100790Y331470D01*
G01X-113570Y344670D02*
X-113200Y344530D01*
X-112840Y344510D01*
X-112490Y344600D01*
X-112190Y344890D01*
X-112030Y345210D01*
X-111920Y345620D01*
X-112030Y346020D01*
X-113030Y347750D01*
G01X-109800Y346150D02*
X-111300Y348750D01*
X-111520Y347930D01*
G01X-110320Y345850D02*
X-109280Y346450D01*
G01X-107200Y347650D02*
X-106920Y347870D01*
X-106650Y348200D01*
X-106560Y348540D01*
X-106650Y348890D01*
X-106910Y349150D01*
X-107320Y349260D01*
X-107780Y349160D01*
X-108220Y348910D01*
X-108530Y348850D01*
X-108870Y348940D01*
X-109130Y349190D01*
X-109180Y349570D01*
X-109000Y349960D01*
X-108700Y350250D01*
X-108300Y350360D01*
X-107880Y350320D01*
X-107570Y350090D01*
X-107480Y349740D01*
X-107570Y349400D01*
X-107780Y349160D01*
X-108220Y348910D01*
X-108530Y348560D01*
X-108640Y348150D01*
X-108550Y347790D01*
X-108290Y347540D01*
X-107950Y347450D01*
X-107530Y347520D01*
X-107200Y347650D01*
G01X-79800Y-335900D02*
X-79550Y-336200D01*
X-79250Y-336400D01*
X-78900Y-336500D01*
X-78500Y-336400D01*
X-78200Y-336200D01*
X-77900Y-335900D01*
X-77800Y-335500D01*
Y-333500D01*
G01X-75200Y-336500D02*
Y-333500D01*
X-77050Y-335650D01*
X-74550D01*
G01X-83100Y-356200D02*
X-82850Y-356500D01*
X-82550Y-356700D01*
X-82200Y-356800D01*
X-81800Y-356700D01*
X-81500Y-356500D01*
X-81200Y-356200D01*
X-81100Y-355800D01*
Y-353800D01*
G01X-79100Y-356800D02*
Y-353800D01*
X-79700Y-354400D01*
G01Y-356800D02*
X-78500D01*
G01X-77200Y-356200D02*
X-76900Y-356550D01*
X-76500Y-356750D01*
X-76050Y-356800D01*
X-75650Y-356750D01*
X-75250Y-356500D01*
X-75000Y-356200D01*
X-74950Y-355900D01*
X-75050Y-355550D01*
X-75400Y-355300D01*
X-75750Y-355200D01*
X-76200D01*
G01X-75750D02*
X-75450Y-355050D01*
X-75200Y-354800D01*
X-75100Y-354500D01*
X-75200Y-354200D01*
X-75450Y-353950D01*
X-75900Y-353800D01*
X-76350Y-353850D01*
X-76800Y-354050D01*
G01X78400Y355500D02*
X78650Y355200D01*
X78950Y355000D01*
X79300Y354900D01*
X79700Y355000D01*
X80000Y355200D01*
X80300Y355500D01*
X80400Y355900D01*
Y357900D01*
G01X82400Y354900D02*
Y357900D01*
X81800Y357300D01*
G01Y354900D02*
X83000D01*
G01X85400D02*
Y357900D01*
X84800Y357300D01*
G01Y354900D02*
X86000D01*
G01X78000Y335400D02*
X78250Y335100D01*
X78550Y334900D01*
X78900Y334800D01*
X79300Y334900D01*
X79600Y335100D01*
X79900Y335400D01*
X80000Y335800D01*
Y337800D01*
G01X82000Y334800D02*
Y337800D01*
X81400Y337200D01*
G01Y334800D02*
X82600D01*
G01X84150Y335150D02*
X84500Y334900D01*
X84900Y334800D01*
X85300Y334900D01*
X85650Y335200D01*
X85900Y335650D01*
X86000Y336100D01*
Y336650D01*
X85900Y337100D01*
X85650Y337500D01*
X85350Y337700D01*
X85000Y337800D01*
X84600Y337700D01*
X84300Y337500D01*
X84100Y337200D01*
X84000Y336800D01*
X84100Y336450D01*
X84350Y336100D01*
X84650Y335900D01*
X85000Y335850D01*
X85400Y335950D01*
X85700Y336200D01*
X86000Y336650D01*
G01X103530Y-349130D02*
X103900Y-349270D01*
X104260Y-349290D01*
X104610Y-349200D01*
X104910Y-348910D01*
X105070Y-348590D01*
X105180Y-348180D01*
X105070Y-347780D01*
X104070Y-346050D01*
G01X105230Y-345960D02*
X105340Y-345550D01*
X105560Y-345250D01*
X105890Y-345000D01*
X106370Y-344840D01*
X106800Y-344880D01*
X107030Y-345090D01*
X107140Y-345370D01*
X107090Y-345690D01*
X106480Y-346620D01*
X106260Y-347150D01*
X106250Y-347740D01*
X106390Y-348180D01*
X108210Y-347120D01*
G01X110420Y-345850D02*
X108920Y-343250D01*
X108390Y-346040D01*
X110560Y-344790D01*
G01X97430Y-329830D02*
X97800Y-329970D01*
X98160Y-329990D01*
X98510Y-329900D01*
X98810Y-329610D01*
X98970Y-329290D01*
X99080Y-328880D01*
X98970Y-328480D01*
X97970Y-326750D01*
G01X101200Y-328350D02*
X101480Y-328130D01*
X101750Y-327800D01*
X101840Y-327460D01*
X101750Y-327110D01*
X101490Y-326850D01*
X101080Y-326740D01*
X100620Y-326840D01*
X100180Y-327090D01*
X99870Y-327150D01*
X99530Y-327060D01*
X99270Y-326810D01*
X99220Y-326430D01*
X99400Y-326040D01*
X99700Y-325750D01*
X100100Y-325640D01*
X100520Y-325680D01*
X100830Y-325910D01*
X100920Y-326260D01*
X100830Y-326600D01*
X100620Y-326840D01*
X100180Y-327090D01*
X99870Y-327440D01*
X99760Y-327850D01*
X99850Y-328210D01*
X100110Y-328460D01*
X100450Y-328550D01*
X100870Y-328480D01*
X101200Y-328350D01*
G01X239070Y250930D02*
X239000Y251320D01*
X238840Y251640D01*
X238590Y251900D01*
X238190Y252010D01*
X237830Y251990D01*
X237420Y251880D01*
X237130Y251580D01*
X236130Y249850D01*
G01X235990Y253400D02*
X235580Y252890D01*
X235170Y252490D01*
X234750Y252150D01*
X234260Y251800D01*
X233530Y251350D01*
X235270Y250350D01*
G01X266530Y-252170D02*
X266920Y-252100D01*
X267240Y-251940D01*
X267500Y-251690D01*
X267610Y-251290D01*
X267590Y-250930D01*
X267480Y-250520D01*
X267180Y-250230D01*
X265450Y-249230D01*
G01X266410Y-248570D02*
X266300Y-248160D01*
X266350Y-247790D01*
X266500Y-247410D01*
X266840Y-247030D01*
X267230Y-246850D01*
X267540Y-246920D01*
X267770Y-247110D01*
X267890Y-247410D01*
X267820Y-248520D01*
X267900Y-249090D01*
X268190Y-249600D01*
X268520Y-249910D01*
X269580Y-248090D01*
G01X269480Y-247050D02*
X269930Y-246970D01*
X270310Y-246720D01*
X270580Y-246360D01*
X270730Y-245990D01*
X270720Y-245510D01*
X270580Y-245150D01*
X270350Y-244960D01*
X269990Y-244870D01*
X269600Y-245040D01*
X269340Y-245300D01*
X269110Y-245690D01*
G01X269340Y-245300D02*
X269360Y-244960D01*
X269270Y-244620D01*
X269060Y-244380D01*
X268750Y-244320D01*
X268410Y-244410D01*
X268050Y-244730D01*
X267870Y-245140D01*
X267820Y-245630D01*
G01X251230Y-238170D02*
X251620Y-238100D01*
X251940Y-237940D01*
X252200Y-237690D01*
X252310Y-237290D01*
X252290Y-236930D01*
X252180Y-236520D01*
X251880Y-236230D01*
X250150Y-235230D01*
G01X251110Y-234570D02*
X251000Y-234160D01*
X251050Y-233790D01*
X251200Y-233410D01*
X251540Y-233030D01*
X251930Y-232850D01*
X252240Y-232920D01*
X252470Y-233110D01*
X252590Y-233410D01*
X252520Y-234520D01*
X252600Y-235090D01*
X252890Y-235600D01*
X253220Y-235910D01*
X254280Y-234090D01*
G01X251570Y267430D02*
X251500Y267820D01*
X251340Y268140D01*
X251090Y268400D01*
X250690Y268510D01*
X250330Y268490D01*
X249920Y268380D01*
X249630Y268080D01*
X248630Y266350D01*
G01X247970Y267310D02*
X247560Y267200D01*
X247190Y267250D01*
X246810Y267400D01*
X246430Y267740D01*
X246250Y268130D01*
X246320Y268440D01*
X246510Y268670D01*
X246810Y268790D01*
X247920Y268720D01*
X248490Y268800D01*
X249000Y269090D01*
X249310Y269420D01*
X247490Y270480D01*
G01X244300Y268850D02*
X244700Y268740D01*
X245080Y268810D01*
X245410Y268960D01*
X245740Y269240D01*
X246000Y269600D01*
X246190Y270020D01*
X246260Y270440D01*
X246230Y270800D01*
X246100Y271160D01*
X245800Y271450D01*
X245400Y271560D01*
X245020Y271500D01*
X244700Y271340D01*
X244370Y271070D01*
X244100Y270700D01*
X243920Y270290D01*
X243850Y269860D01*
X243870Y269510D01*
X244000Y269140D01*
X244300Y268850D01*
G01X330430Y98930D02*
X330570Y99300D01*
X330590Y99660D01*
X330500Y100010D01*
X330210Y100310D01*
X329890Y100470D01*
X329480Y100580D01*
X329080Y100470D01*
X327350Y99470D01*
G01X328980Y101450D02*
X329130Y101880D01*
X329110Y102330D01*
X328920Y102740D01*
X328680Y103060D01*
X328270Y103290D01*
X327880Y103350D01*
X327600Y103240D01*
X327340Y102980D01*
X327300Y102560D01*
X327390Y102200D01*
X327610Y101810D01*
G01X327390Y102200D02*
X327110Y102390D01*
X326770Y102480D01*
X326460Y102420D01*
X326250Y102180D01*
X326160Y101840D01*
X326250Y101370D01*
X326520Y101010D01*
X326920Y100720D01*
G01X336300Y-79600D02*
X336600Y-79350D01*
X336800Y-79050D01*
X336900Y-78700D01*
X336800Y-78300D01*
X336600Y-78000D01*
X336300Y-77700D01*
X335900Y-77600D01*
X333900D01*
G01X336550Y-76450D02*
X336800Y-76100D01*
X336900Y-75700D01*
X336800Y-75300D01*
X336500Y-74950D01*
X336050Y-74700D01*
X335600Y-74600D01*
X335050D01*
X334600Y-74700D01*
X334200Y-74950D01*
X334000Y-75250D01*
X333900Y-75600D01*
X334000Y-76000D01*
X334200Y-76300D01*
X334500Y-76500D01*
X334900Y-76600D01*
X335250Y-76500D01*
X335600Y-76250D01*
X335800Y-75950D01*
X335850Y-75600D01*
X335750Y-75200D01*
X335500Y-74900D01*
X335050Y-74600D01*
G01X355800Y-83100D02*
X356100Y-82850D01*
X356300Y-82550D01*
X356400Y-82200D01*
X356300Y-81800D01*
X356100Y-81500D01*
X355800Y-81200D01*
X355400Y-81100D01*
X353400D01*
G01X353900Y-80050D02*
X353600Y-79750D01*
X353450Y-79400D01*
X353400Y-79000D01*
X353500Y-78500D01*
X353750Y-78150D01*
X354050Y-78050D01*
X354350Y-78100D01*
X354600Y-78300D01*
X355100Y-79300D01*
X355450Y-79750D01*
X355950Y-80050D01*
X356400Y-80150D01*
Y-78050D01*
G01X353900Y-77050D02*
X353600Y-76750D01*
X353450Y-76400D01*
X353400Y-76000D01*
X353500Y-75500D01*
X353750Y-75150D01*
X354050Y-75050D01*
X354350Y-75100D01*
X354600Y-75300D01*
X355100Y-76300D01*
X355450Y-76750D01*
X355950Y-77050D01*
X356400Y-77150D01*
Y-75050D01*
G01X349730Y106830D02*
X349870Y107200D01*
X349890Y107560D01*
X349800Y107910D01*
X349510Y108210D01*
X349190Y108370D01*
X348780Y108480D01*
X348380Y108370D01*
X346650Y107370D01*
G01X346560Y108530D02*
X346150Y108640D01*
X345850Y108860D01*
X345600Y109190D01*
X345440Y109670D01*
X345480Y110100D01*
X345690Y110330D01*
X345970Y110440D01*
X346290Y110390D01*
X347220Y109780D01*
X347750Y109560D01*
X348340Y109550D01*
X348780Y109690D01*
X347720Y111510D01*
G01X346750Y113200D02*
X344150Y111700D01*
X344970Y111480D01*
G01X347050Y112680D02*
X346450Y113720D01*
G54D12*
G01X260000Y-390690D02*
X242360D01*
Y-449740D01*
X277680D01*
Y-390690D01*
X260000D01*
G54D13*
G01X-460000Y-480000D02*
G03I-15000J5000D01*
G01X-465000D02*
G03I-10000J5000D01*
G01X-495000Y-475000D02*
X-455000D01*
G01X-485000Y500000D02*
Y460000D01*
G01X-470000Y475000D02*
G03I-15000J5000D01*
G01X-475000D02*
G03I-10000J5000D01*
G01X-505000Y480000D02*
X-465000D01*
G01X-475000Y-455000D02*
Y-495000D01*
G01X-450000Y-450000D02*
X450000D01*
Y450000D01*
X-450000D01*
Y-450000D01*
G01X-376500Y-400000D02*
G03I-23500J0D01*
G01Y399930D02*
G03I-23500J2D01*
G01X-381520Y-324700D02*
Y-321600D01*
X-380560D01*
X-380250Y-321760D01*
X-380060Y-321960D01*
X-379980Y-322380D01*
X-380060Y-322790D01*
X-380290Y-323050D01*
X-380560Y-323200D01*
X-381520D01*
G01X-380560D02*
X-379980Y-324700D01*
G01X-378530D02*
Y-321600D01*
X-376770Y-324700D01*
Y-321600D01*
G01X-375390Y-324080D02*
X-375160Y-324440D01*
X-374860Y-324650D01*
X-374510Y-324700D01*
X-374200Y-324650D01*
X-373900Y-324390D01*
X-373710Y-324080D01*
X-373670Y-323770D01*
X-373740Y-323410D01*
X-374010Y-323150D01*
X-374280Y-323050D01*
X-374630D01*
G01X-374280D02*
X-374050Y-322890D01*
X-373860Y-322630D01*
X-373780Y-322320D01*
X-373860Y-322010D01*
X-374050Y-321760D01*
X-374400Y-321600D01*
X-374740Y-321650D01*
X-375090Y-321860D01*
G01X-352320Y-293000D02*
Y-289900D01*
X-351360D01*
X-351050Y-290060D01*
X-350860Y-290260D01*
X-350780Y-290680D01*
X-350860Y-291090D01*
X-351090Y-291350D01*
X-351360Y-291500D01*
X-352320D01*
G01X-351360D02*
X-350780Y-293000D01*
G01X-349330D02*
Y-289900D01*
X-347570Y-293000D01*
Y-289900D01*
G01X-345350Y-293000D02*
Y-289900D01*
X-345810Y-290520D01*
G01Y-293000D02*
X-344890D01*
G01X-300320Y-278900D02*
Y-275800D01*
X-299360D01*
X-299050Y-275960D01*
X-298860Y-276160D01*
X-298780Y-276580D01*
X-298860Y-276990D01*
X-299090Y-277250D01*
X-299360Y-277400D01*
X-300320D01*
G01X-299360D02*
X-298780Y-278900D01*
G01X-297330D02*
Y-275800D01*
X-295570Y-278900D01*
Y-275800D01*
G01X-292890Y-278900D02*
Y-275800D01*
X-294310Y-278020D01*
X-292390D01*
G01X275000Y0D02*
G03I-275000J0D01*
G01X-228900Y-397030D02*
X-229400Y-397350D01*
X-229730Y-397730D01*
X-229900Y-398170D01*
X-229730Y-398680D01*
X-229400Y-399060D01*
X-228900Y-399440D01*
X-228230Y-399570D01*
X-224900D01*
G01X-225730Y-402200D02*
X-225230Y-402580D01*
X-224980Y-403020D01*
X-224900Y-403530D01*
X-225070Y-404160D01*
X-225480Y-404600D01*
X-225980Y-404730D01*
X-226480Y-404670D01*
X-226900Y-404410D01*
X-227730Y-403150D01*
X-228320Y-402580D01*
X-229150Y-402200D01*
X-229900Y-402070D01*
Y-404730D01*
G01X-229150Y-407110D02*
X-229570Y-407490D01*
X-229820Y-407930D01*
X-229900Y-408500D01*
X-229730Y-409070D01*
X-229400Y-409510D01*
X-228820Y-409830D01*
X-228150Y-409890D01*
X-227480Y-409770D01*
X-227070Y-409450D01*
X-226730Y-409010D01*
X-226650Y-408560D01*
X-226730Y-408120D01*
X-227070Y-407550D01*
X-224900Y-407740D01*
Y-409450D01*
G01X-234320Y-330800D02*
Y-327700D01*
X-233360D01*
X-233050Y-327860D01*
X-232860Y-328060D01*
X-232780Y-328480D01*
X-232860Y-328890D01*
X-233090Y-329150D01*
X-233360Y-329300D01*
X-234320D01*
G01X-233360D02*
X-232780Y-330800D01*
G01X-231330D02*
Y-327700D01*
X-229570Y-330800D01*
Y-327700D01*
G01X-228080Y-329510D02*
X-227810Y-329150D01*
X-227580Y-328940D01*
X-227270Y-328840D01*
X-227000Y-328940D01*
X-226810Y-329150D01*
X-226660Y-329460D01*
X-226620Y-329820D01*
X-226660Y-330130D01*
X-226810Y-330440D01*
X-227040Y-330700D01*
X-227310Y-330800D01*
X-227620Y-330700D01*
X-227890Y-330390D01*
X-228040Y-329920D01*
X-228080Y-329410D01*
X-228000Y-328730D01*
X-227890Y-328370D01*
X-227700Y-328010D01*
X-227430Y-327750D01*
X-227160Y-327700D01*
X-226890Y-327800D01*
X-226700Y-328060D01*
G01X-137520Y-416700D02*
Y-413600D01*
X-136560D01*
X-136250Y-413760D01*
X-136060Y-413960D01*
X-135980Y-414380D01*
X-136060Y-414790D01*
X-136290Y-415050D01*
X-136560Y-415200D01*
X-137520D01*
G01X-136560D02*
X-135980Y-416700D01*
G01X-134530D02*
Y-413600D01*
X-132770Y-416700D01*
Y-413600D01*
G01X-131390Y-416240D02*
X-131160Y-416490D01*
X-130900Y-416650D01*
X-130550Y-416700D01*
X-130200Y-416600D01*
X-129940Y-416390D01*
X-129740Y-416030D01*
X-129710Y-415620D01*
X-129780Y-415200D01*
X-129980Y-414940D01*
X-130240Y-414740D01*
X-130510Y-414690D01*
X-130780Y-414740D01*
X-131120Y-414940D01*
X-131010Y-413600D01*
X-129980D01*
G01X-66820Y-418700D02*
Y-415600D01*
X-65860D01*
X-65550Y-415760D01*
X-65360Y-415960D01*
X-65280Y-416380D01*
X-65360Y-416790D01*
X-65590Y-417050D01*
X-65860Y-417200D01*
X-66820D01*
G01X-65860D02*
X-65280Y-418700D01*
G01X-63830D02*
Y-415600D01*
X-62070Y-418700D01*
Y-415600D01*
G01X-60580Y-416120D02*
X-60350Y-415810D01*
X-60080Y-415650D01*
X-59770Y-415600D01*
X-59390Y-415700D01*
X-59120Y-415960D01*
X-59040Y-416270D01*
X-59080Y-416580D01*
X-59240Y-416840D01*
X-60000Y-417360D01*
X-60350Y-417720D01*
X-60580Y-418240D01*
X-60660Y-418700D01*
X-59040D01*
G01X0Y-9000D02*
Y9000D01*
G01Y-9000D02*
Y9000D01*
G01X-9000Y0D02*
X9000D01*
G01X-9000D02*
X9000D01*
G01X228130Y-394500D02*
X228450Y-395000D01*
X228830Y-395330D01*
X229270Y-395500D01*
X229780Y-395330D01*
X230160Y-395000D01*
X230540Y-394500D01*
X230670Y-393830D01*
Y-390500D01*
G01X233300Y-391330D02*
X233680Y-390830D01*
X234120Y-390580D01*
X234630Y-390500D01*
X235260Y-390670D01*
X235700Y-391080D01*
X235830Y-391580D01*
X235770Y-392080D01*
X235510Y-392500D01*
X234250Y-393330D01*
X233680Y-393920D01*
X233300Y-394750D01*
X233170Y-395500D01*
X235830D01*
G01X238400Y-393420D02*
X238840Y-392830D01*
X239220Y-392500D01*
X239730Y-392330D01*
X240170Y-392500D01*
X240490Y-392830D01*
X240740Y-393330D01*
X240800Y-393920D01*
X240740Y-394420D01*
X240490Y-394920D01*
X240110Y-395330D01*
X239660Y-395500D01*
X239160Y-395330D01*
X238710Y-394830D01*
X238460Y-394080D01*
X238400Y-393250D01*
X238520Y-392170D01*
X238710Y-391580D01*
X239030Y-391000D01*
X239470Y-390580D01*
X239920Y-390500D01*
X240360Y-390670D01*
X240680Y-391080D01*
G01X423500Y-400000D02*
G03I-23500J0D01*
G01Y399930D02*
G03I-23500J2D01*
G01X480000Y-450000D02*
Y-490000D01*
G01X495000Y-475000D02*
G03I-15000J5000D01*
G01X460000Y-470000D02*
X500000D01*
G01X490000Y-475000D02*
G03I-10000J5000D01*
G01Y455000D02*
G03I-15000J5000D01*
G01X475000Y480000D02*
Y440000D01*
G01X485000Y455000D02*
G03I-10000J5000D01*
G01X455000Y460000D02*
X495000D01*
G54D14*
G01X-424830Y-425000D02*
Y-422500D01*
X-423750Y-424580D01*
X-422670Y-422500D01*
Y-425000D01*
G01X-422040Y-422920D02*
X-421790Y-422670D01*
X-421500Y-422540D01*
X-421170Y-422500D01*
X-420750Y-422580D01*
X-420460Y-422790D01*
X-420370Y-423040D01*
X-420420Y-423290D01*
X-420580Y-423500D01*
X-421420Y-423920D01*
X-421790Y-424210D01*
X-422040Y-424630D01*
X-422130Y-425000D01*
X-420370D01*
G01X-424830Y445000D02*
Y447500D01*
X-423750Y445420D01*
X-422670Y447500D01*
Y445000D01*
G01X-421330D02*
X-421250Y445540D01*
X-421120Y446000D01*
X-420960Y446420D01*
X-420750Y446870D01*
X-420420Y447500D01*
X-422080D01*
G01X-389830Y-390000D02*
Y-387500D01*
X-388750Y-389580D01*
X-387670Y-387500D01*
Y-390000D01*
G01X-385750D02*
Y-387500D01*
X-387290Y-389290D01*
X-385210D01*
G01X-415670Y-320900D02*
Y-322690D01*
X-415500Y-323070D01*
X-415170Y-323320D01*
X-414750Y-323400D01*
X-414330Y-323320D01*
X-414000Y-323070D01*
X-413830Y-322690D01*
Y-320900D01*
G01X-412250Y-323400D02*
Y-320900D01*
X-412750Y-321400D01*
G01Y-323400D02*
X-411750D01*
G01X-390170Y67910D02*
X-389920Y67780D01*
X-389630Y67700D01*
X-389290D01*
X-388920Y67830D01*
X-388630Y68030D01*
X-388420Y68280D01*
X-388250Y68700D01*
X-388210Y69080D01*
X-388290Y69450D01*
X-388420Y69700D01*
X-388670Y69950D01*
X-388960Y70120D01*
X-389250Y70200D01*
X-389540D01*
X-389830Y70120D01*
X-390080Y69990D01*
X-390290Y69830D01*
G01X-391750Y70200D02*
Y67700D01*
X-391250Y68200D01*
G01Y70200D02*
X-392250D01*
G01X-394250D02*
Y67700D01*
X-393750Y68200D01*
G01Y70200D02*
X-394750D01*
G01X-389830Y410000D02*
Y412500D01*
X-388750Y410420D01*
X-387670Y412500D01*
Y410000D01*
G01X-387040Y411040D02*
X-386750Y411330D01*
X-386500Y411500D01*
X-386170Y411580D01*
X-385870Y411500D01*
X-385670Y411330D01*
X-385500Y411080D01*
X-385460Y410790D01*
X-385500Y410540D01*
X-385670Y410290D01*
X-385920Y410080D01*
X-386210Y410000D01*
X-386540Y410080D01*
X-386830Y410330D01*
X-387000Y410710D01*
X-387040Y411120D01*
X-386960Y411670D01*
X-386830Y411960D01*
X-386630Y412250D01*
X-386330Y412460D01*
X-386040Y412500D01*
X-385750Y412420D01*
X-385540Y412210D01*
G01X-363010Y-132070D02*
X-362880Y-131820D01*
X-362800Y-131530D01*
Y-131190D01*
X-362930Y-130820D01*
X-363130Y-130530D01*
X-363380Y-130320D01*
X-363800Y-130150D01*
X-364180Y-130110D01*
X-364550Y-130190D01*
X-364800Y-130320D01*
X-365050Y-130570D01*
X-365220Y-130860D01*
X-365300Y-131150D01*
Y-131440D01*
X-365220Y-131730D01*
X-365090Y-131980D01*
X-364930Y-132190D01*
G01X-363220Y-132860D02*
X-362970Y-133110D01*
X-362840Y-133400D01*
X-362800Y-133730D01*
X-362880Y-134150D01*
X-363090Y-134440D01*
X-363340Y-134530D01*
X-363590Y-134480D01*
X-363800Y-134320D01*
X-364220Y-133480D01*
X-364510Y-133110D01*
X-364930Y-132860D01*
X-365300Y-132770D01*
Y-134530D01*
G01Y-136150D02*
X-362800D01*
X-363300Y-135650D01*
G01X-365300D02*
Y-136650D01*
G01X-318070Y-354800D02*
Y-356590D01*
X-317900Y-356970D01*
X-317570Y-357220D01*
X-317150Y-357300D01*
X-316730Y-357220D01*
X-316400Y-356970D01*
X-316230Y-356590D01*
Y-354800D01*
G01X-315440Y-355220D02*
X-315190Y-354970D01*
X-314900Y-354840D01*
X-314570Y-354800D01*
X-314150Y-354880D01*
X-313860Y-355090D01*
X-313770Y-355340D01*
X-313820Y-355590D01*
X-313980Y-355800D01*
X-314820Y-356220D01*
X-315190Y-356510D01*
X-315440Y-356930D01*
X-315530Y-357300D01*
X-313770D01*
G01X-305170Y-320700D02*
Y-322490D01*
X-305000Y-322870D01*
X-304670Y-323120D01*
X-304250Y-323200D01*
X-303830Y-323120D01*
X-303500Y-322870D01*
X-303330Y-322490D01*
Y-320700D01*
G01X-301250Y-323200D02*
Y-320700D01*
X-302790Y-322490D01*
X-300710D01*
G01X-304820Y254000D02*
X-304670Y253770D01*
X-304460Y253550D01*
X-304170Y253380D01*
X-303780Y253300D01*
X-303420Y253340D01*
X-303120Y253450D01*
X-302770Y253730D01*
X-302540Y254030D01*
X-302430Y254400D01*
X-302410Y254680D01*
X-302500Y255020D01*
X-302670Y255310D01*
X-302880Y255520D01*
X-303140Y255670D01*
X-303430Y255740D01*
X-303710Y255760D01*
X-303970Y255720D01*
G01X-305050Y256770D02*
X-305330Y256880D01*
X-305680Y256940D01*
X-305960Y256870D01*
X-306180Y256660D01*
X-306250Y256360D01*
X-306160Y256020D01*
X-305900Y255720D01*
X-305540Y255520D01*
X-305360Y255320D01*
X-305290Y255030D01*
X-305360Y254740D01*
X-305620Y254550D01*
X-305970Y254520D01*
X-306300Y254610D01*
X-306550Y254850D01*
X-306700Y255180D01*
X-306660Y255490D01*
X-306440Y255700D01*
X-306160Y255780D01*
X-305900Y255720D01*
X-305540Y255520D01*
X-305150Y255440D01*
X-304810Y255530D01*
X-304590Y255740D01*
X-304520Y256030D01*
X-304590Y256320D01*
X-304820Y256590D01*
X-305050Y256770D01*
G01X-271470Y-355200D02*
Y-356990D01*
X-271300Y-357370D01*
X-270970Y-357620D01*
X-270550Y-357700D01*
X-270130Y-357620D01*
X-269800Y-357370D01*
X-269630Y-356990D01*
Y-355200D01*
G01X-268840Y-356660D02*
X-268550Y-356370D01*
X-268300Y-356200D01*
X-267970Y-356120D01*
X-267670Y-356200D01*
X-267470Y-356370D01*
X-267300Y-356620D01*
X-267260Y-356910D01*
X-267300Y-357160D01*
X-267470Y-357410D01*
X-267720Y-357620D01*
X-268010Y-357700D01*
X-268340Y-357620D01*
X-268630Y-357370D01*
X-268800Y-356990D01*
X-268840Y-356580D01*
X-268760Y-356030D01*
X-268630Y-355740D01*
X-268430Y-355450D01*
X-268130Y-355240D01*
X-267840Y-355200D01*
X-267550Y-355280D01*
X-267340Y-355490D01*
G01X-259230Y-286510D02*
X-259480Y-286380D01*
X-259770Y-286300D01*
X-260110D01*
X-260480Y-286430D01*
X-260770Y-286630D01*
X-260980Y-286880D01*
X-261150Y-287300D01*
X-261190Y-287680D01*
X-261110Y-288050D01*
X-260980Y-288300D01*
X-260730Y-288550D01*
X-260440Y-288720D01*
X-260150Y-288800D01*
X-259860D01*
X-259570Y-288720D01*
X-259320Y-288590D01*
X-259110Y-288430D01*
G01X-257650Y-288800D02*
Y-286300D01*
X-258150Y-286800D01*
G01Y-288800D02*
X-257150D01*
G01X-256070Y-288430D02*
X-255820Y-288630D01*
X-255530Y-288760D01*
X-255150Y-288800D01*
X-254770Y-288720D01*
X-254480Y-288550D01*
X-254270Y-288260D01*
X-254230Y-287930D01*
X-254320Y-287590D01*
X-254530Y-287380D01*
X-254820Y-287220D01*
X-255110Y-287180D01*
X-255400Y-287220D01*
X-255770Y-287380D01*
X-255650Y-286300D01*
X-254530D01*
G01X-179570Y-443000D02*
Y-444790D01*
X-179400Y-445170D01*
X-179070Y-445420D01*
X-178650Y-445500D01*
X-178230Y-445420D01*
X-177900Y-445170D01*
X-177730Y-444790D01*
Y-443000D01*
G01X-177070Y-445130D02*
X-176820Y-445330D01*
X-176530Y-445460D01*
X-176150Y-445500D01*
X-175770Y-445420D01*
X-175480Y-445250D01*
X-175270Y-444960D01*
X-175230Y-444630D01*
X-175320Y-444290D01*
X-175530Y-444080D01*
X-175820Y-443920D01*
X-176110Y-443880D01*
X-176400Y-443920D01*
X-176770Y-444080D01*
X-176650Y-443000D01*
X-175530D01*
G01X-133970Y372830D02*
X-133950Y372550D01*
X-133880Y372260D01*
X-133710Y371970D01*
X-133420Y371710D01*
X-133090Y371560D01*
X-132770Y371500D01*
X-132320Y371570D01*
X-131980Y371720D01*
X-131700Y371980D01*
X-131540Y372210D01*
X-131450Y372550D01*
Y372890D01*
X-131520Y373180D01*
X-131670Y373440D01*
X-131890Y373650D01*
X-132120Y373800D01*
X-132370Y373900D01*
G01X-132770Y375350D02*
X-134940Y374100D01*
X-134260Y373920D01*
G01X-132520Y374920D02*
X-133020Y375790D01*
G01X-112270Y-411600D02*
Y-413390D01*
X-112100Y-413770D01*
X-111770Y-414020D01*
X-111350Y-414100D01*
X-110930Y-414020D01*
X-110600Y-413770D01*
X-110430Y-413390D01*
Y-411600D01*
G01X-109770Y-413600D02*
X-109520Y-413890D01*
X-109180Y-414060D01*
X-108810Y-414100D01*
X-108470Y-414060D01*
X-108140Y-413850D01*
X-107930Y-413600D01*
X-107890Y-413350D01*
X-107970Y-413060D01*
X-108270Y-412850D01*
X-108560Y-412770D01*
X-108930D01*
G01X-108560D02*
X-108310Y-412640D01*
X-108100Y-412430D01*
X-108020Y-412180D01*
X-108100Y-411930D01*
X-108310Y-411730D01*
X-108680Y-411600D01*
X-109060Y-411640D01*
X-109430Y-411810D01*
G01X-79430Y-381010D02*
X-79680Y-380880D01*
X-79970Y-380800D01*
X-80310D01*
X-80680Y-380930D01*
X-80970Y-381130D01*
X-81180Y-381380D01*
X-81350Y-381800D01*
X-81390Y-382180D01*
X-81310Y-382550D01*
X-81180Y-382800D01*
X-80930Y-383050D01*
X-80640Y-383220D01*
X-80350Y-383300D01*
X-80060D01*
X-79770Y-383220D01*
X-79520Y-383090D01*
X-79310Y-382930D01*
G01X-78640Y-381220D02*
X-78390Y-380970D01*
X-78100Y-380840D01*
X-77770Y-380800D01*
X-77350Y-380880D01*
X-77060Y-381090D01*
X-76970Y-381340D01*
X-77020Y-381590D01*
X-77180Y-381800D01*
X-78020Y-382220D01*
X-78390Y-382510D01*
X-78640Y-382930D01*
X-78730Y-383300D01*
X-76970D01*
G01X-75350Y-380800D02*
X-75680Y-380880D01*
X-75930Y-381090D01*
X-76100Y-381340D01*
X-76230Y-381680D01*
X-76270Y-382050D01*
X-76230Y-382430D01*
X-76100Y-382760D01*
X-75930Y-383010D01*
X-75680Y-383220D01*
X-75350Y-383300D01*
X-75020Y-383220D01*
X-74770Y-383010D01*
X-74600Y-382760D01*
X-74470Y-382430D01*
X-74430Y-382050D01*
X-74470Y-381680D01*
X-74600Y-381340D01*
X-74770Y-381090D01*
X-75020Y-380880D01*
X-75350Y-380800D01*
G01X36170Y0D02*
Y2500D01*
X37250Y420D01*
X38330Y2500D01*
Y0D01*
G01X39040Y290D02*
X39330Y80D01*
X39670Y0D01*
X40000Y80D01*
X40290Y330D01*
X40500Y710D01*
X40580Y1080D01*
Y1540D01*
X40500Y1920D01*
X40290Y2250D01*
X40040Y2420D01*
X39750Y2500D01*
X39420Y2420D01*
X39170Y2250D01*
X39000Y2000D01*
X38920Y1670D01*
X39000Y1380D01*
X39210Y1080D01*
X39460Y920D01*
X39750Y870D01*
X40080Y960D01*
X40330Y1170D01*
X40580Y1540D01*
G01X68010Y387870D02*
X67880Y387620D01*
X67800Y387330D01*
Y386990D01*
X67930Y386620D01*
X68130Y386330D01*
X68380Y386120D01*
X68800Y385950D01*
X69180Y385910D01*
X69550Y385990D01*
X69800Y386120D01*
X70050Y386370D01*
X70220Y386660D01*
X70300Y386950D01*
Y387240D01*
X70220Y387530D01*
X70090Y387780D01*
X69930Y387990D01*
G01X68220Y388660D02*
X67970Y388910D01*
X67840Y389200D01*
X67800Y389530D01*
X67880Y389950D01*
X68090Y390240D01*
X68340Y390330D01*
X68590Y390280D01*
X68800Y390120D01*
X69220Y389280D01*
X69510Y388910D01*
X69930Y388660D01*
X70300Y388570D01*
Y390330D01*
G01X130470Y-367210D02*
X130220Y-367080D01*
X129930Y-367000D01*
X129590D01*
X129220Y-367130D01*
X128930Y-367330D01*
X128720Y-367580D01*
X128550Y-368000D01*
X128510Y-368380D01*
X128590Y-368750D01*
X128720Y-369000D01*
X128970Y-369250D01*
X129260Y-369420D01*
X129550Y-369500D01*
X129840D01*
X130130Y-369420D01*
X130380Y-369290D01*
X130590Y-369130D01*
G01X132050Y-369500D02*
Y-367000D01*
X131550Y-367500D01*
G01Y-369500D02*
X132550D01*
G01X134470D02*
X134550Y-368960D01*
X134680Y-368500D01*
X134840Y-368080D01*
X135050Y-367630D01*
X135380Y-367000D01*
X133720D01*
G01X205170Y-365510D02*
X204920Y-365380D01*
X204630Y-365300D01*
X204290D01*
X203920Y-365430D01*
X203630Y-365630D01*
X203420Y-365880D01*
X203250Y-366300D01*
X203210Y-366680D01*
X203290Y-367050D01*
X203420Y-367300D01*
X203670Y-367550D01*
X203960Y-367720D01*
X204250Y-367800D01*
X204540D01*
X204830Y-367720D01*
X205080Y-367590D01*
X205290Y-367430D01*
G01X207250Y-367800D02*
Y-365300D01*
X205710Y-367090D01*
X207790D01*
G01X208460Y-365720D02*
X208710Y-365470D01*
X209000Y-365340D01*
X209330Y-365300D01*
X209750Y-365380D01*
X210040Y-365590D01*
X210130Y-365840D01*
X210080Y-366090D01*
X209920Y-366300D01*
X209080Y-366720D01*
X208710Y-367010D01*
X208460Y-367430D01*
X208370Y-367800D01*
X210130D01*
G01X274430Y-359400D02*
Y-356900D01*
X272770D01*
G01X272020Y-357400D02*
X271770Y-357110D01*
X271430Y-356940D01*
X271060Y-356900D01*
X270720Y-356940D01*
X270390Y-357150D01*
X270180Y-357400D01*
X270140Y-357650D01*
X270220Y-357940D01*
X270520Y-358150D01*
X270810Y-358230D01*
X271180D01*
G01X270810D02*
X270560Y-358360D01*
X270350Y-358570D01*
X270270Y-358820D01*
X270350Y-359070D01*
X270560Y-359270D01*
X270930Y-359400D01*
X271310Y-359360D01*
X271680Y-359190D01*
G01X251470Y-340810D02*
X251220Y-340680D01*
X250930Y-340600D01*
X250590D01*
X250220Y-340730D01*
X249930Y-340930D01*
X249720Y-341180D01*
X249550Y-341600D01*
X249510Y-341980D01*
X249590Y-342350D01*
X249720Y-342600D01*
X249970Y-342850D01*
X250260Y-343020D01*
X250550Y-343100D01*
X250840D01*
X251130Y-343020D01*
X251380Y-342890D01*
X251590Y-342730D01*
G01X252130Y-342600D02*
X252380Y-342890D01*
X252720Y-343060D01*
X253090Y-343100D01*
X253430Y-343060D01*
X253760Y-342850D01*
X253970Y-342600D01*
X254010Y-342350D01*
X253930Y-342060D01*
X253630Y-341850D01*
X253340Y-341770D01*
X252970D01*
G01X253340D02*
X253590Y-341640D01*
X253800Y-341430D01*
X253880Y-341180D01*
X253800Y-340930D01*
X253590Y-340730D01*
X253220Y-340600D01*
X252840Y-340640D01*
X252470Y-340810D01*
G01X254840Y-342810D02*
X255130Y-343020D01*
X255470Y-343100D01*
X255800Y-343020D01*
X256090Y-342770D01*
X256300Y-342390D01*
X256380Y-342020D01*
Y-341560D01*
X256300Y-341180D01*
X256090Y-340850D01*
X255840Y-340680D01*
X255550Y-340600D01*
X255220Y-340680D01*
X254970Y-340850D01*
X254800Y-341100D01*
X254720Y-341430D01*
X254800Y-341720D01*
X255010Y-342020D01*
X255260Y-342180D01*
X255550Y-342230D01*
X255880Y-342140D01*
X256130Y-341930D01*
X256380Y-341560D01*
G01X255470Y-295410D02*
X255220Y-295280D01*
X254930Y-295200D01*
X254590D01*
X254220Y-295330D01*
X253930Y-295530D01*
X253720Y-295780D01*
X253550Y-296200D01*
X253510Y-296580D01*
X253590Y-296950D01*
X253720Y-297200D01*
X253970Y-297450D01*
X254260Y-297620D01*
X254550Y-297700D01*
X254840D01*
X255130Y-297620D01*
X255380Y-297490D01*
X255590Y-297330D01*
G01X256130Y-297200D02*
X256380Y-297490D01*
X256720Y-297660D01*
X257090Y-297700D01*
X257430Y-297660D01*
X257760Y-297450D01*
X257970Y-297200D01*
X258010Y-296950D01*
X257930Y-296660D01*
X257630Y-296450D01*
X257340Y-296370D01*
X256970D01*
G01X257340D02*
X257590Y-296240D01*
X257800Y-296030D01*
X257880Y-295780D01*
X257800Y-295530D01*
X257590Y-295330D01*
X257220Y-295200D01*
X256840Y-295240D01*
X256470Y-295410D01*
G01X259550Y-297700D02*
X259840Y-297660D01*
X260170Y-297530D01*
X260380Y-297330D01*
X260470Y-297030D01*
X260380Y-296740D01*
X260130Y-296490D01*
X259760Y-296370D01*
X259340D01*
X259090Y-296280D01*
X258880Y-296080D01*
X258800Y-295780D01*
X258930Y-295490D01*
X259220Y-295280D01*
X259550Y-295200D01*
X259880Y-295280D01*
X260170Y-295490D01*
X260300Y-295780D01*
X260220Y-296080D01*
X260010Y-296280D01*
X259760Y-296370D01*
X259340D01*
X258970Y-296490D01*
X258720Y-296740D01*
X258630Y-297030D01*
X258720Y-297330D01*
X258930Y-297530D01*
X259260Y-297660D01*
X259550Y-297700D01*
G01X249800Y285120D02*
X249570Y284970D01*
X249350Y284760D01*
X249180Y284470D01*
X249100Y284080D01*
X249140Y283720D01*
X249250Y283420D01*
X249530Y283070D01*
X249830Y282840D01*
X250200Y282730D01*
X250480Y282710D01*
X250820Y282800D01*
X251110Y282970D01*
X251320Y283180D01*
X251470Y283440D01*
X251540Y283730D01*
X251560Y284010D01*
X251520Y284270D01*
G01X252830Y285790D02*
X250660Y287040D01*
X251440Y284800D01*
X252480Y286610D01*
G01X289020Y-253300D02*
X288870Y-253070D01*
X288660Y-252850D01*
X288370Y-252680D01*
X287980Y-252600D01*
X287620Y-252640D01*
X287320Y-252750D01*
X286970Y-253030D01*
X286740Y-253330D01*
X286630Y-253700D01*
X286610Y-253980D01*
X286700Y-254320D01*
X286870Y-254610D01*
X287080Y-254820D01*
X287340Y-254970D01*
X287630Y-255040D01*
X287910Y-255060D01*
X288170Y-255020D01*
G01X289250Y-256070D02*
X290500Y-253910D01*
X289820Y-254090D01*
G01X288820Y-255820D02*
X289690Y-256320D01*
G01X290880Y-256430D02*
X290950Y-256810D01*
X291150Y-257120D01*
X291460Y-257350D01*
X291770Y-257480D01*
X292160Y-257460D01*
X292470Y-257350D01*
X292630Y-257150D01*
X292700Y-256860D01*
X292550Y-256530D01*
X292340Y-256320D01*
X292020Y-256130D01*
G01X292340Y-256320D02*
X292620Y-256330D01*
X292910Y-256260D01*
X293100Y-256080D01*
X293160Y-255820D01*
X293080Y-255540D01*
X292820Y-255240D01*
X292470Y-255090D01*
X292060Y-255050D01*
G01X328820Y-410500D02*
Y-413000D01*
X330480D01*
G01X332150D02*
Y-410500D01*
X331650Y-411000D01*
G01Y-413000D02*
X332650D01*
G01X353630Y-324400D02*
Y-326190D01*
X353800Y-326570D01*
X354130Y-326820D01*
X354550Y-326900D01*
X354970Y-326820D01*
X355300Y-326570D01*
X355470Y-326190D01*
Y-324400D01*
G01X356970Y-326900D02*
X357050Y-326360D01*
X357180Y-325900D01*
X357340Y-325480D01*
X357550Y-325030D01*
X357880Y-324400D01*
X356220D01*
G01X361930Y121070D02*
X361650Y121050D01*
X361360Y120980D01*
X361070Y120810D01*
X360810Y120520D01*
X360660Y120190D01*
X360600Y119870D01*
X360670Y119420D01*
X360820Y119080D01*
X361080Y118800D01*
X361310Y118640D01*
X361650Y118550D01*
X361990D01*
X362280Y118620D01*
X362540Y118770D01*
X362750Y118990D01*
X362900Y119220D01*
X363000Y119470D01*
G01X362730Y121280D02*
X362820Y121620D01*
X363010Y121880D01*
X363270Y122080D01*
X363680Y122220D01*
X364030Y122180D01*
X364230Y122010D01*
X364320Y121770D01*
X364280Y121510D01*
X363770Y120730D01*
X363590Y120290D01*
X363580Y119800D01*
X363690Y119440D01*
X365210Y120310D01*
G01X365580Y121100D02*
X365940Y120970D01*
X366310Y120990D01*
X366660Y121150D01*
X366930Y121350D01*
X367110Y121700D01*
X367170Y122020D01*
X367080Y122250D01*
X366860Y122460D01*
X366500Y122500D01*
X366210Y122430D01*
X365880Y122240D01*
G01X366210Y122430D02*
X366360Y122660D01*
X366440Y122940D01*
X366390Y123200D01*
X366190Y123380D01*
X365900Y123450D01*
X365520Y123370D01*
X365210Y123150D01*
X364970Y122820D01*
G01X370970Y-75410D02*
X370720Y-75280D01*
X370430Y-75200D01*
X370090D01*
X369720Y-75330D01*
X369430Y-75530D01*
X369220Y-75780D01*
X369050Y-76200D01*
X369010Y-76580D01*
X369090Y-76950D01*
X369220Y-77200D01*
X369470Y-77450D01*
X369760Y-77620D01*
X370050Y-77700D01*
X370340D01*
X370630Y-77620D01*
X370880Y-77490D01*
X371090Y-77330D01*
G01X371840Y-77410D02*
X372130Y-77620D01*
X372470Y-77700D01*
X372800Y-77620D01*
X373090Y-77370D01*
X373300Y-76990D01*
X373380Y-76620D01*
Y-76160D01*
X373300Y-75780D01*
X373090Y-75450D01*
X372840Y-75280D01*
X372550Y-75200D01*
X372220Y-75280D01*
X371970Y-75450D01*
X371800Y-75700D01*
X371720Y-76030D01*
X371800Y-76320D01*
X372010Y-76620D01*
X372260Y-76780D01*
X372550Y-76830D01*
X372880Y-76740D01*
X373130Y-76530D01*
X373380Y-76160D01*
G01X397370Y-387900D02*
Y-385400D01*
X398450Y-387480D01*
X399530Y-385400D01*
Y-387900D01*
G01X400030Y-387400D02*
X400280Y-387690D01*
X400620Y-387860D01*
X400990Y-387900D01*
X401330Y-387860D01*
X401660Y-387650D01*
X401870Y-387400D01*
X401910Y-387150D01*
X401830Y-386860D01*
X401530Y-386650D01*
X401240Y-386570D01*
X400870D01*
G01X401240D02*
X401490Y-386440D01*
X401700Y-386230D01*
X401780Y-385980D01*
X401700Y-385730D01*
X401490Y-385530D01*
X401120Y-385400D01*
X400740Y-385440D01*
X400370Y-385610D01*
G01X393920Y-321800D02*
Y-324300D01*
X395580D01*
G01X396460Y-322220D02*
X396710Y-321970D01*
X397000Y-321840D01*
X397330Y-321800D01*
X397750Y-321880D01*
X398040Y-322090D01*
X398130Y-322340D01*
X398080Y-322590D01*
X397920Y-322800D01*
X397080Y-323220D01*
X396710Y-323510D01*
X396460Y-323930D01*
X396370Y-324300D01*
X398130D01*
G01X410170Y410000D02*
Y412500D01*
X411250Y410420D01*
X412330Y412500D01*
Y410000D01*
G01X412830Y410370D02*
X413080Y410170D01*
X413370Y410040D01*
X413750Y410000D01*
X414130Y410080D01*
X414420Y410250D01*
X414630Y410540D01*
X414670Y410870D01*
X414580Y411210D01*
X414370Y411420D01*
X414080Y411580D01*
X413790Y411620D01*
X413500Y411580D01*
X413130Y411420D01*
X413250Y412500D01*
X414370D01*
G01X439770Y-424300D02*
Y-421800D01*
X440850Y-423880D01*
X441930Y-421800D01*
Y-424300D01*
G01X443350D02*
Y-421800D01*
X442850Y-422300D01*
G01Y-424300D02*
X443850D01*
G01X445170Y445000D02*
Y447500D01*
X446250Y445420D01*
X447330Y447500D01*
Y445000D01*
G01X448750D02*
X449040Y445040D01*
X449370Y445170D01*
X449580Y445370D01*
X449670Y445670D01*
X449580Y445960D01*
X449330Y446210D01*
X448960Y446330D01*
X448540D01*
X448290Y446420D01*
X448080Y446620D01*
X448000Y446920D01*
X448130Y447210D01*
X448420Y447420D01*
X448750Y447500D01*
X449080Y447420D01*
X449370Y447210D01*
X449500Y446920D01*
X449420Y446620D01*
X449210Y446420D01*
X448960Y446330D01*
X448540D01*
X448170Y446210D01*
X447920Y445960D01*
X447830Y445670D01*
X447920Y445370D01*
X448130Y445170D01*
X448460Y445040D01*
X448750Y445000D01*
M02*
