G04 ================== begin FILE IDENTIFICATION RECORD ==================*
G04 Layout Name:  I:/Project-LED_Arena/Arena Bottom V1, 6-6-2019.brd*
G04 Film Name:    Layer_1*
G04 File Format:  Gerber RS274X*
G04 File Origin:  Cadence Allegro 17.2-P019*
G04 Origin Date:  Tue Jun 04 22:43:36 2019*
G04 *
G04 Layer:  VIA CLASS/LAYER 1*
G04 Layer:  PIN/LAYER 1*
G04 Layer:  ETCH/LAYER 1*
G04 Layer:  BOARD GEOMETRY/OUTLINE*
G04 *
G04 Offset:    (0.0000 0.0000)*
G04 Mirror:    No*
G04 Mode:      Positive*
G04 Rotation:  0*
G04 FullContactRelief:  No*
G04 UndefLineWidth:     0.1000*
G04 ================== end FILE IDENTIFICATION RECORD ====================*
%FSLAX35Y35*MOMM*%
%IR0*IPPOS*OFA0.00000B0.00000*MIA0B0*SFA1.00000B1.00000*%
%ADD15C,.2*%
%ADD10C,.6*%
%ADD14R,5.X2.*%
%ADD13R,2.X5.*%
%ADD11C,8.*%
%ADD12C,1.524*%
%ADD16C,.127*%
%ADD17C,.1*%
%ADD20C,.8544*%
%ADD21C,.6568*%
%ADD19C,8.2544*%
%ADD23R,2.2544X5.2544*%
%ADD18R,5.2544X2.2544*%
%ADD22C,1.7784*%
G75*
%LPD*%
G75*
G36*
G01X3850000Y6650000D02*
G02X3500000Y7450000I1025000J925000D01*
G01Y14600000D01*
X3400000D01*
Y14665230D01*
G02X3417810Y14671910I10159J-3D01*
G03Y14728090I32190J28090D01*
G02X3400000Y14734770I-7651J6683D01*
G01Y14915230D01*
G02X3417810Y14921910I10159J-3D01*
G03Y14978090I32190J28090D01*
G02X3400000Y14984770I-7651J6683D01*
G01Y15015230D01*
G02X3417810Y15021910I10159J-3D01*
G03Y15078090I32190J28090D01*
G02X3400000Y15084770I-7651J6683D01*
G01Y16000000D01*
X3457030D01*
X3457520Y15995460D01*
G03X3504540Y16042480I42480J4540D01*
G01X3500000Y16042970D01*
Y16057030D01*
X3504540Y16057520D01*
G03Y16142480I-4540J42480D01*
G01X3500000Y16142970D01*
Y16157030D01*
X3504540Y16157520D01*
G03Y16242480I-4540J42480D01*
G01X3500000Y16242970D01*
Y16257030D01*
X3504540Y16257520D01*
G03Y16342480I-4540J42480D01*
G01X3500000Y16342970D01*
Y18700000D01*
G02X3722900Y19540200I1000000J184373D01*
G02X3739440Y19528520I7771J-6546D01*
G03X3914850Y19691210I356315J-208267D01*
G02X3904450Y19708580I-4451J9133D01*
G02X4550000Y19900000I595550J-824205D01*
G01X7850000D01*
G02X8400000Y19200000I-106818J-650000D01*
G03X7318220Y16796740I9899998J-5901389D01*
G02X7300560Y16793530I-9681J3079D01*
G03X7279400Y16726230I-33570J-26422D01*
G02X7292050Y16713500I2948J-9721D01*
G03X6783350Y12847920I11007950J-3414879D01*
G02X6768740Y12838390I-10152J-401D01*
G03X6771980Y12763370I-18741J-38389D01*
G02X6787360Y12755140I5230J-8712D01*
G03X28200000Y19200000I11512643J543474D01*
G02X28650000Y19850000I425000J186538D01*
G01X31900000D01*
G02X32359820Y19722200I-119281J-1320278D01*
G02X32359140Y19703620I-4438J-9140D01*
G03X32906090Y19197650I152860J-383369D01*
G02X32924560Y19199770I9703J-3013D01*
G02X33100000Y18400000I-1143851J-670046D01*
G01Y7400000D01*
G02X32900000Y6800000I-27670000J8890000D01*
G01X30857870Y4757870D01*
G02X30840950Y4762170I-7180J7188D01*
G03X30802270Y4792660I-40950J-12170D01*
G02X30792660Y4802270I535J10145D01*
G03X30752270Y4842660I-42660J-2270D01*
G02X30742660Y4852270I535J10145D01*
G03X30702280Y4892660I-42660J-2269D01*
G02X30692670Y4902270I535J10145D01*
G03X30652270Y4942660I-42659J-2269D01*
G02X30642660Y4952270I535J10145D01*
G03X30602270Y4992660I-42660J-2270D01*
G02X30592660Y5002270I535J10145D01*
G03X30552270Y5042660I-42660J-2270D01*
G02X30542660Y5052270I535J10145D01*
G03X30502270Y5092660I-42660J-2270D01*
G02X30492660Y5102270I535J10145D01*
G03X30452270Y5142660I-42660J-2270D01*
G02X30442660Y5152270I535J10145D01*
G03X30402270Y5192660I-42660J-2270D01*
G02X30392660Y5202270I535J10145D01*
G03X30352270Y5242660I-42660J-2270D01*
G02X30342660Y5252270I535J10145D01*
G03X30297730Y5207340I-42660J-2270D01*
G02X30307340Y5197730I-535J-10145D01*
G03X30347730Y5157340I42660J2270D01*
G02X30357340Y5147730I-535J-10145D01*
G03X30397730Y5107340I42660J2270D01*
G02X30407340Y5097730I-535J-10145D01*
G03X30447730Y5057340I42660J2270D01*
G02X30457340Y5047730I-535J-10145D01*
G03X30497730Y5007340I42660J2270D01*
G02X30507340Y4997730I-535J-10145D01*
G03X30547730Y4957340I42660J2270D01*
G02X30557340Y4947730I-535J-10145D01*
G03X30597730Y4907340I42660J2270D01*
G02X30607340Y4897730I-535J-10145D01*
G03X30607360Y4897430I42632J2691D01*
G03X30607520Y4895510I42639J2587D01*
G02X30596370Y4884560I-10127J-839D01*
G03X30634560Y4846370I-4310J-42500D01*
G02X30645510Y4857520I10111J1023D01*
G03X30647730Y4857340I4561J42475D01*
G02X30657340Y4847730I-535J-10145D01*
G03X30676430Y4814370I42660J2270D01*
G03X30697730Y4807340I23570J35630D01*
G02X30707340Y4797730I-535J-10145D01*
G03X30747730Y4757340I42660J2270D01*
G02X30757340Y4747730I-535J-10145D01*
G03X30787830Y4709050I42660J2270D01*
G02X30792130Y4692130I-2888J-9740D01*
G01X25950000Y-150000D01*
G02X25300000Y-550000I-625000J287500D01*
G01X11500000D01*
G02X10800000Y-300000I-113889J786111D01*
G01X3850000Y6650000D01*
G37*
%LPC*%
G75*
G36*
G01X31729260Y15569150D02*
G02X31676240I-26510J-33500D01*
G03X31669940Y15587280I-6300J7970D01*
G01X31587280D01*
Y15712720D01*
X32859070D01*
X32860350Y15715910D01*
G02X32884090Y15739650I39650J-15910D01*
G01X32887280Y15740930D01*
Y15837280D01*
X32842660D01*
G03X32835490Y15819920I1J-10161D01*
G02X32775210I-30140J-30270D01*
G03X32768040Y15837280I-7171J7199D01*
G01X32687280D01*
Y16012720D01*
X32756720D01*
G03X32766060Y16026870I-2J10159D01*
G02X32844640I39290J16780D01*
G03X32853980Y16012720I9342J-3991D01*
G01X32887280D01*
Y17087280D01*
X32687280D01*
Y17537280D01*
X32062720D01*
Y17387280D01*
X31237280D01*
Y17912720D01*
X32062720D01*
Y17812720D01*
X33012720D01*
Y17090920D01*
X33015910Y17089640D01*
G02Y17010340I-15900J-39650D01*
G01X33012720Y17009060D01*
Y15587280D01*
X32838160D01*
G03X32831860Y15569150I0J-10160D01*
G02X32778840I-26510J-33500D01*
G03X32772540Y15587280I-6300J7970D01*
G01X31735560D01*
G03X31729260Y15569150I0J-10160D01*
G37*
G36*
G01X17164120Y813280D02*
G03X17157480Y800320I2990J-9713D01*
G02X17084230Y814080I-40480J-13643D01*
G03X17082740Y828560I-7797J6514D01*
G02X17164120Y813280I55212J69702D01*
G37*
G36*
G01X26080960Y3904590D02*
G03X26095710Y3904160I7578J6765D01*
G02X26094020Y3845450I30169J-30248D01*
G03X26079270Y3845880I-7578J-6765D01*
G02X26080960Y3904590I-30169J30248D01*
G37*
G36*
G01X28874280Y7242770D02*
G03X28874160Y7226850I6253J-8008D01*
G02X28821070Y7227250I-26797J-33270D01*
G03X28821190Y7243170I-6253J8008D01*
G02X28874280Y7242770I26797J33270D01*
G37*
G36*
G01X28869180Y7424980D02*
G03X28872800Y7411150I8795J-5087D01*
G02X28814030Y7395770I-21780J-36750D01*
G03X28810410Y7409600I-8795J5087D01*
G02X28869180Y7424980I21780J36750D01*
G37*
G36*
G01X30424130Y10572880D02*
G03X30438350Y10564730I10096J1135D01*
G02X30390190Y10511960I36065J-81276D01*
G03X30380780Y10525380I-9624J3261D01*
G02X30424130Y10572880I900J42710D01*
G37*
G36*
G01X29852270Y5607340D02*
G03X29842660Y5597730I535J-10145D01*
G02X29797730Y5642660I-42660J2270D01*
G03X29807340Y5652270I-535J10145D01*
G02X29852270Y5607340I42660J-2270D01*
G37*
G36*
G01X29352270Y3307340D02*
G03X29342660Y3297730I535J-10145D01*
G02X29257340I-42660J2270D01*
G03X29247730Y3307340I-10145J-535D01*
G02Y3392660I2270J42660D01*
G03X29257340Y3402270I-535J10145D01*
G02X29329480Y3430910I42657J-2271D01*
G02X29342660Y3402270I-29477J-30918D01*
G03X29352270Y3392660I10145J535D01*
G02Y3307340I-2270J-42660D01*
G37*
G54D20*
X31500000Y14750000D03*
X27400000Y1800000D03*
X32400000Y12000000D03*
X26950000Y1000000D03*
X28550000Y2900000D03*
X29950000Y4200000D03*
X30850000Y5900000D03*
X31650000Y8700000D03*
X32200000Y7937710D03*
X32805350Y15281650D03*
Y15408650D03*
Y14900650D03*
Y15027650D03*
Y15154650D03*
X32704790Y13668750D03*
X32769810Y13573500D03*
X32834830Y13668750D03*
X32738060Y11573250D03*
X32803080Y11668500D03*
X32379670Y13573500D03*
X32444690Y13668750D03*
X32509710Y13573500D03*
X32574740Y13668750D03*
X32639760Y13573500D03*
X32347920Y11573250D03*
X32412940Y11668500D03*
X32477960Y11573250D03*
X32542990Y11668500D03*
X32608010Y11573250D03*
X32673040Y11668500D03*
X32444690Y9954000D03*
X32574740D03*
X32379670Y9858750D03*
X32509710D03*
X32347920Y7890250D03*
X32477970D03*
X32542990Y7985500D03*
X32412950D03*
X31966360Y6812510D03*
X31944990Y6699180D03*
X32058320Y6720550D03*
X32036950Y6607220D03*
X32150280Y6628590D03*
X32128910Y6515260D03*
X32242240Y6536640D03*
X31702750Y15281650D03*
Y15408650D03*
Y15027650D03*
Y14900650D03*
Y15154650D03*
X31550000Y14050000D03*
X31350000Y10950000D03*
X31250000Y11000000D03*
X31400000Y11150000D03*
X31300000Y11200000D03*
X31853040Y6791130D03*
X30500000Y19075000D03*
X30575000Y19375000D03*
X31000000Y19575000D03*
X30565370Y18578810D03*
X30525000Y18700000D03*
X30975000Y18925000D03*
X31000000Y14300000D03*
X30450000Y12300000D03*
X30550000Y11750000D03*
X30500000Y12000000D03*
X31150000Y11050000D03*
X31050000Y11100000D03*
X30483650Y9932810D03*
X31128670Y10200990D03*
X30986020Y9491430D03*
X30565830Y5263100D03*
X30657790Y5171140D03*
X30679150Y5284470D03*
X30771110Y5192520D03*
X29928750Y18618480D03*
X29751170Y16914340D03*
X30285910Y16029880D03*
X30145390Y16269770D03*
X30009370Y16497310D03*
X29872910Y16726040D03*
X30150000Y13800000D03*
X30000000D03*
X30300000Y13050000D03*
X30250000Y13300000D03*
X30200000Y13550000D03*
X30400000Y12550000D03*
X30350000Y12800000D03*
X29663540Y7679590D03*
X29796820Y7899570D03*
X29922880Y8099740D03*
X30323650Y5388750D03*
X29351330Y17574290D03*
X29620290Y17127700D03*
X29483390Y17357650D03*
X29477600Y9217520D03*
X29515180Y9466960D03*
X29364690Y8468720D03*
X29401750Y8716760D03*
X29440090Y8968270D03*
X29257180Y7649300D03*
X29289220Y7968990D03*
X29315910Y8188520D03*
X29500000Y7450000D03*
X28598050Y5978250D03*
X28878570Y5447990D03*
X28668770Y3121930D03*
X28576810Y3213880D03*
X28555450Y3100550D03*
X28463490Y3192510D03*
X28279580Y3376420D03*
X28371540Y3284460D03*
X28392900Y3397790D03*
X28484860Y3305840D03*
X27407650Y5633390D03*
X27545040Y5874920D03*
X27551210Y2067870D03*
X27437890Y2046490D03*
X27459260Y2159820D03*
X27296120Y5422690D03*
X26920820Y4742070D03*
X27052530Y4976820D03*
X27186030Y5213700D03*
X26696820Y4319540D03*
X26788220Y4506250D03*
X27275340Y2343740D03*
X27162010Y2322360D03*
X27345930Y2138450D03*
X27367300Y2251780D03*
X27253970Y2230410D03*
X26791170Y1888030D03*
X26883120Y1796070D03*
X26975080Y1704120D03*
X27067040Y1612160D03*
X26769810Y1774690D03*
X26953720Y1590770D03*
X26861770Y1682730D03*
X27045680Y1498820D03*
X26124510Y4000600D03*
X26223400Y4464280D03*
X26049450Y3750710D03*
X25963710Y480370D03*
X25850390Y458990D03*
X25871760Y572320D03*
X25721320Y2440620D03*
X25687840Y756240D03*
X25758430Y550950D03*
X25779800Y664280D03*
X25666470Y642910D03*
X25574510Y734860D03*
X24432930Y3153540D03*
X23648220Y2469540D03*
X23860490Y2649850D03*
X24038540Y2810370D03*
X24247330Y2988650D03*
X23469000Y2308340D03*
X23252990Y2125890D03*
X23129550Y1996890D03*
X21554790Y601740D03*
X21416200Y169010D03*
X20570340Y1676370D03*
X21059140Y1326580D03*
X20342560Y1585430D03*
X19858610Y1398560D03*
X20098560Y1491630D03*
X19151790Y1121610D03*
X19371590Y1211140D03*
X19631440Y1307730D03*
X18899940Y1026430D03*
X16737290Y-63570D03*
X15953600Y1612440D03*
X16232420Y1614040D03*
X16486670Y1619980D03*
X16608330Y1655500D03*
X15193660Y1594120D03*
X15466830Y1596720D03*
X15701680Y1606090D03*
X14668090Y1585250D03*
X14939660Y1588140D03*
X12886870Y1900410D03*
X12332950Y2996450D03*
X12558220Y2924120D03*
X12855060Y2908950D03*
X12262560Y1291230D03*
X11593240Y3250310D03*
X11835720Y3168050D03*
X12079090Y3085280D03*
X10854550Y3503590D03*
X11103480Y3417610D03*
X11349630Y3333220D03*
X9140730Y5690790D03*
X9336160Y5535660D03*
X9698310Y5382620D03*
X9270320Y4400310D03*
X8348210Y6324130D03*
X8539030Y6174510D03*
X8737820Y6015390D03*
X8930910Y5863060D03*
X8500460Y4117430D03*
X7587360Y8787540D03*
X7960590Y6630510D03*
X8140360Y6494050D03*
X7349840Y18935420D03*
X7297890Y18646510D03*
X7263340Y18405380D03*
X7220850Y18142460D03*
X7206050Y17955610D03*
X7177100Y17729860D03*
X7147260Y17501690D03*
X7106160Y17242580D03*
X6834260Y9683920D03*
X6972680Y9449820D03*
X7107510Y9225570D03*
X7242710Y9000280D03*
X6150000Y14550000D03*
X6100310Y14850000D03*
X6200000Y14300000D03*
X6250000Y14050000D03*
X6300000Y13800000D03*
X6350000Y13550000D03*
X6400000Y13300000D03*
X6450000Y13050000D03*
X6283640Y10611970D03*
X6439780Y10329170D03*
X6571240Y10114180D03*
X6703370Y9897360D03*
X6765720Y7905160D03*
X5699210Y17058950D03*
X5573200Y12279980D03*
X6010720Y8042820D03*
X5050000Y12500000D03*
X3800000Y16100000D03*
X3900000D03*
Y16000000D03*
X3800000D03*
X4000000Y16100000D03*
Y16000000D03*
X3750000Y15050000D03*
Y14950000D03*
Y14700000D03*
X3850000Y14950000D03*
X3950000D03*
X4050000D03*
X4150000D03*
X4250000D03*
X4350000D03*
Y14850000D03*
X4250000D03*
X4350000Y14750000D03*
X4250000D03*
X4150000D03*
X4050000D03*
X3900000D03*
X3700040Y16277000D03*
X3700000Y16100000D03*
Y16000000D03*
X3600000D03*
Y16100000D03*
Y16200000D03*
Y16300000D03*
X3500000Y15350000D03*
X3600000D03*
X3700000D03*
X3604760Y15190910D03*
X3550000Y15050000D03*
X3650000D03*
X3550000Y14950000D03*
X3650000D03*
X3550000Y14700000D03*
X3650000D03*
X32157020Y8142980D03*
X32200000Y8500000D03*
X30700000Y5750000D03*
X30100000Y4150000D03*
X26800000Y1050000D03*
X31702750Y15916650D03*
Y15789650D03*
Y16678650D03*
Y16551650D03*
Y16424650D03*
Y16297650D03*
Y16170650D03*
Y16043650D03*
Y17186650D03*
Y17059650D03*
Y16932650D03*
Y16805650D03*
X32805350Y16678650D03*
Y16551650D03*
Y16424650D03*
Y16297650D03*
Y16170650D03*
Y16932650D03*
Y16805650D03*
X32400000Y12200000D03*
X30650000Y4750000D03*
X29200000Y3250000D03*
G54D21*
X32254050Y14744650D03*
Y17467650D03*
G54D19*
X4068160Y18375520D03*
X32516160D03*
Y10755520D03*
X24896160Y341520D03*
X11688160D03*
X4068160Y10755520D03*
G54D23*
X5118000Y19352000D03*
G54D18*
X5588000Y19652000D03*
Y19052000D03*
G54D22*
X30517610Y17474830D03*
X30604480Y17236150D03*
X30691350Y16997470D03*
X30778220Y16758780D03*
X30865100Y16520100D03*
X30951970Y16281420D03*
X31038840Y16042740D03*
X30474330Y16107760D03*
X30561200Y15869080D03*
X31209730Y15073440D03*
Y14819440D03*
Y14565440D03*
X30701500Y15073620D03*
Y14819620D03*
Y14565620D03*
X31209730Y14311440D03*
Y14057440D03*
Y13803440D03*
X30701500Y14311620D03*
Y14057620D03*
Y13803620D03*
X31209730Y13549440D03*
Y13295440D03*
Y13041440D03*
X30701500Y13549620D03*
Y13295620D03*
Y13041620D03*
X31209730Y12787440D03*
Y12533440D03*
Y12279440D03*
X30701500Y12787620D03*
Y12533620D03*
Y12279620D03*
X31209730Y12025440D03*
Y11771440D03*
Y11517440D03*
X30701500Y12025620D03*
Y11771620D03*
Y11517620D03*
X30561280Y10722140D03*
X31038800Y10548150D03*
X30951930Y10309460D03*
X30865050Y10070780D03*
X30778180Y9832100D03*
X30691310Y9593420D03*
X30604430Y9354740D03*
X30517560Y9116050D03*
X29822620Y19384290D03*
X29909490Y19145600D03*
X29996370Y18906920D03*
X30083240Y18668240D03*
X30170110Y18429560D03*
X30256990Y18190880D03*
X30343860Y17952190D03*
X30430730Y17713510D03*
X29779350Y18017220D03*
X29866220Y17778530D03*
X29953090Y17539850D03*
X30039970Y17301170D03*
X30126840Y17062490D03*
X30213710Y16823810D03*
X30300580Y16585120D03*
X30387460Y16346440D03*
X30387530Y10244770D03*
X30300660Y10006090D03*
X30213790Y9767410D03*
X30126910Y9528730D03*
X30040040Y9290040D03*
X30430690Y8877370D03*
X30343810Y8638690D03*
X29953170Y9051360D03*
X29866290Y8812680D03*
X29779420Y8574000D03*
X30256940Y8400010D03*
X30170070Y8161330D03*
X30083200Y7922640D03*
X29996320Y7683960D03*
X29909450Y7445280D03*
X29822580Y7206600D03*
X29344980Y19210630D03*
X29431850Y18971940D03*
X29518730Y18733260D03*
X29605600Y18494580D03*
X29692470Y18255900D03*
X29692550Y8335320D03*
X29605680Y8096630D03*
X29518800Y7857950D03*
X29431930Y7619270D03*
X29345060Y7380590D03*
X29330420Y6354240D03*
X29167160Y6159660D03*
X29003890Y5965090D03*
X28941200Y6681050D03*
X28777940Y6486470D03*
X28614670Y6291900D03*
X28451400Y6097320D03*
X28288130Y5902740D03*
X28840620Y5770510D03*
X28677350Y5575930D03*
X28514080Y5381360D03*
X28350820Y5186780D03*
X28124860Y5708170D03*
X27961600Y5513590D03*
X27798330Y5319020D03*
X27635060Y5124440D03*
X27471790Y4929870D03*
X28187550Y4992210D03*
X28024280Y4797630D03*
X27861010Y4603060D03*
X27697740Y4408480D03*
X27534480Y4213910D03*
X27308520Y4735290D03*
X27145260Y4540720D03*
X26981990Y4346140D03*
X26818720Y4151570D03*
X27371210Y4019330D03*
X27207940Y3824760D03*
X27044670Y3630180D03*
X26655450Y3956990D03*
X26036710Y3437760D03*
X26290670Y2997530D03*
X26070700Y2870530D03*
X25816740Y3310760D03*
X25596770Y3183760D03*
X25850730Y2743530D03*
X25630760Y2616530D03*
X25410790Y2489530D03*
X25190820Y2362530D03*
X25376800Y3056760D03*
X25156830Y2929760D03*
X24936860Y2802760D03*
X24716890Y2675760D03*
X24496920Y2548760D03*
X24970850Y2235530D03*
X24750880Y2108530D03*
X24530910Y1981530D03*
X24276950Y2421760D03*
X24310940Y1854530D03*
X24090970Y1727530D03*
X23871000Y1600530D03*
X24056980Y2294760D03*
X23837010Y2167760D03*
X23651030Y1473530D03*
X23617040Y2040760D03*
X23397070Y1913760D03*
X23177100Y1786760D03*
X22957130Y1659760D03*
X23431060Y1346530D03*
X23211090Y1219530D03*
X22286180Y882930D03*
X22198100Y1383470D03*
X22036040Y838820D03*
X21785900Y794720D03*
X21947960Y1339360D03*
X21697820Y1295260D03*
X21447680Y1251150D03*
X21535760Y750610D03*
X21197540Y1207040D03*
X20947400Y1162940D03*
X20697260Y1118830D03*
X21285620Y706500D03*
X21035480Y662400D03*
X20785340Y618290D03*
X20447120Y1074720D03*
X20196970Y1030620D03*
X19946830Y986510D03*
X20535200Y574180D03*
X20285050Y530080D03*
X20034910Y485970D03*
X19696690Y942400D03*
X19446550Y898300D03*
X19196410Y854190D03*
X19784770Y441860D03*
X19534630Y397760D03*
X19284490Y353650D03*
X19034350Y309540D03*
X18946270Y810080D03*
X18784210Y265440D03*
X18696130Y765980D03*
X17638240Y810050D03*
X17799960Y265460D03*
X17549820Y309570D03*
X17888380Y765940D03*
X17388100Y854150D03*
X16887820Y942370D03*
X17299680Y353670D03*
X17049540Y397780D03*
X16799400Y441890D03*
X16637680Y986470D03*
X16387540Y1030580D03*
X16137400Y1074690D03*
X16549260Y485990D03*
X16299120Y530100D03*
X16048980Y574210D03*
X15887250Y1118790D03*
X15637110Y1162900D03*
X15386970Y1207010D03*
X15798830Y618310D03*
X15548690Y662420D03*
X15298550Y706530D03*
X14798270Y794740D03*
X14548130Y838850D03*
X15136830Y1251110D03*
X14886690Y1295220D03*
X14636550Y1339330D03*
X15048410Y750630D03*
X14297990Y882950D03*
X14386410Y1383430D03*
X13627370Y1659660D03*
X13407400Y1786660D03*
X13187430Y1913660D03*
X12967460Y2040660D03*
X13373100Y1219610D03*
X13153130Y1346610D03*
X12307550Y2421660D03*
X12713190Y1600610D03*
X12493220Y1727610D03*
X12273250Y1854610D03*
X12747490Y2167660D03*
X12527520Y2294660D03*
X12933160Y1473610D03*
X12087580Y2548660D03*
X11867610Y2675660D03*
X11647640Y2802660D03*
X12053280Y1981610D03*
X11833310Y2108610D03*
X11613340Y2235610D03*
X10987730Y3183660D03*
X10767760Y3310660D03*
X11393370Y2362610D03*
X11173400Y2489610D03*
X10953430Y2616610D03*
X10733460Y2743610D03*
X11427670Y2929660D03*
X11207700Y3056660D03*
X9928990Y3956840D03*
X10547790Y3437660D03*
X10513490Y2870610D03*
X10293520Y2997610D03*
X9275920Y4735150D03*
X9213020Y4019440D03*
X9765730Y4151420D03*
X9602460Y4345990D03*
X9439190Y4540570D03*
X9539550Y3630290D03*
X9376290Y3824870D03*
X8622850Y5513450D03*
X8459580Y5708020D03*
X8559950Y4797750D03*
X8396680Y4992320D03*
X9112650Y4929720D03*
X8949390Y5124300D03*
X8786120Y5318870D03*
X9049750Y4214020D03*
X8886480Y4408600D03*
X8723210Y4603170D03*
X7969780Y6291750D03*
X7806510Y6486320D03*
X7643240Y6680900D03*
X7906870Y5576050D03*
X7743610Y5770620D03*
X8296310Y5902600D03*
X8133050Y6097170D03*
X8233410Y5186900D03*
X8070140Y5381470D03*
X7239270Y19210450D03*
X6978650Y18494410D03*
X7065530Y18733090D03*
X7152400Y18971770D03*
X6891780Y18255720D03*
X7065590Y7857780D03*
X6978720Y8096460D03*
X6891850Y8335140D03*
X7239340Y7380410D03*
X7152470Y7619100D03*
X7417070Y6159770D03*
X7253800Y6354350D03*
X7580340Y5965200D03*
X6674880Y19145760D03*
X6761750Y19384440D03*
X6414260Y18429710D03*
X6501130Y18668400D03*
X6588010Y18907080D03*
X6153640Y17713670D03*
X6240520Y17952350D03*
X6327390Y18191030D03*
X6718040Y17778360D03*
X6804910Y18017040D03*
X6370540Y16823630D03*
X6457420Y17062310D03*
X6544290Y17301000D03*
X6631160Y17539680D03*
X6109920Y16107590D03*
X6196800Y16346270D03*
X6283670Y16584950D03*
X6283740Y10005920D03*
X6196860Y10244600D03*
X6109990Y10483280D03*
X6544350Y9289870D03*
X6457480Y9528550D03*
X6370610Y9767230D03*
X6240460Y8638850D03*
X6153590Y8877530D03*
X6804970Y8573820D03*
X6718100Y8812510D03*
X6631230Y9051190D03*
X6587950Y7684120D03*
X6501080Y7922800D03*
X6414210Y8161480D03*
X6327330Y8400160D03*
X6761700Y7206750D03*
X6674830Y7445440D03*
X5893020Y16997620D03*
X5979900Y17236300D03*
X6066770Y17474990D03*
X5545530Y16042890D03*
X5632400Y16281580D03*
X5719280Y16520260D03*
X5806150Y16758940D03*
X6023050Y15868900D03*
X5374590Y14565600D03*
Y14819600D03*
Y15073600D03*
X5882820Y14565420D03*
Y14819420D03*
Y15073420D03*
X5374590Y13803600D03*
Y14057600D03*
Y14311600D03*
X5882820Y13803420D03*
Y14057420D03*
Y14311420D03*
X5374590Y13041600D03*
Y13295600D03*
Y13549600D03*
X5882820Y13041420D03*
Y13295420D03*
Y13549420D03*
X5374590Y12279600D03*
Y12533600D03*
Y12787600D03*
X5882820Y12279420D03*
Y12533420D03*
Y12787420D03*
X5374590Y11517600D03*
Y11771600D03*
Y12025600D03*
X5882820Y11517420D03*
Y11771420D03*
Y12025420D03*
X6023120Y10721960D03*
X5719220Y10070940D03*
X5632350Y10309620D03*
X5545480Y10548300D03*
X5979840Y9354890D03*
X5892970Y9593570D03*
X5806100Y9832260D03*
X6066710Y9116210D03*
%LPD*%
G75*
G36*
G01X31600000Y15600000D02*
Y15700000D01*
X32857040D01*
X32857520Y15695460D01*
G03X32904540Y15742480I42480J4540D01*
G01X32900000Y15742960D01*
Y15850000D01*
X32700000D01*
Y16000000D01*
X32900000D01*
Y17100000D01*
X32700000D01*
Y17550000D01*
X32050000D01*
Y17400000D01*
X31250000D01*
Y17900000D01*
X32050000D01*
Y17800000D01*
X33000000D01*
Y17092950D01*
X32995460Y17092470D01*
G03Y17007510I4550J-42480D01*
G01X33000000Y17007030D01*
Y15600000D01*
X31600000D01*
G37*
G54D10*
X3450000Y15050000D03*
X3550000D03*
X3450000Y14950000D03*
X3550000D03*
X3450000Y14700000D03*
X3550000D03*
X3500000Y15350000D03*
Y16000000D03*
Y16100000D03*
Y16200000D03*
Y16300000D03*
X3850000Y14950000D03*
X3950000D03*
X4050000D03*
X4150000D03*
X4250000D03*
Y14850000D03*
Y14750000D03*
X4150000D03*
X4050000D03*
X3900000D03*
X3750000Y15050000D03*
Y14950000D03*
Y14700000D03*
X3650000Y15050000D03*
Y14950000D03*
Y14700000D03*
X3600000Y15350000D03*
X3700000D03*
X3604760Y15190910D03*
X4000000Y16100000D03*
Y16000000D03*
X3800000Y16100000D03*
X3900000D03*
Y16000000D03*
X3800000D03*
X3700040Y16277000D03*
X3700000Y16100000D03*
Y16000000D03*
X3600000D03*
Y16100000D03*
Y16200000D03*
Y16300000D03*
X4040400Y16550000D03*
X4200000D03*
X4300000D03*
X3900000D03*
X3800000D03*
X3700000D03*
X3800000Y16750000D03*
X3900000D03*
X4200000D03*
X4300000D03*
X3700000D03*
X4040400Y17200000D03*
X4200000D03*
X4300000D03*
X3900000D03*
X3800000D03*
Y17300000D03*
X3900000D03*
X4200000D03*
X4300000D03*
X3700000Y17200000D03*
Y17300000D03*
X3800000Y17100000D03*
X3900000D03*
X4200000D03*
X4300000D03*
X4040400Y16900000D03*
X4200000D03*
X4300000D03*
X3900000D03*
X3800000D03*
Y17000000D03*
X3900000D03*
X4200000D03*
X4300000D03*
X3700000Y17100000D03*
Y16900000D03*
Y17000000D03*
X3800000Y16650000D03*
X3900000D03*
X4200000D03*
X4300000D03*
X3700000D03*
X4300000Y17900000D03*
X4200000D03*
X3900000D03*
X3800000D03*
Y17800000D03*
X3900000D03*
X4300000D03*
X4200000D03*
X4040400D03*
X4300000Y18000000D03*
X3800000D03*
X3700000Y17900000D03*
Y17800000D03*
Y18000000D03*
X3800000Y17700000D03*
X3900000D03*
X4200000D03*
X4300000D03*
X4040400Y17500000D03*
X4200000D03*
X4300000D03*
X3900000D03*
X3800000D03*
Y17600000D03*
X3900000D03*
X4200000D03*
X4300000D03*
X3700000Y17700000D03*
Y17500000D03*
Y17600000D03*
X3800000Y17400000D03*
X3900000D03*
X4200000D03*
X4300000D03*
X3700000D03*
X4650000Y15150000D03*
X4850000D03*
X4750000D03*
X4350000Y14950000D03*
Y14850000D03*
Y14750000D03*
X4650000Y15550000D03*
Y15650000D03*
X4850000D03*
Y15550000D03*
X4750000D03*
Y15650000D03*
X4650000Y15450000D03*
X4850000D03*
X4750000D03*
X4650000Y15250000D03*
Y15350000D03*
X4850000D03*
Y15250000D03*
X4750000D03*
Y15350000D03*
X4400000Y16550000D03*
X4700000Y16700000D03*
X4800000D03*
X4600000D03*
X4700000Y16900000D03*
Y16800000D03*
X4800000D03*
Y16900000D03*
X4600000D03*
Y16800000D03*
X4700000Y17000000D03*
X4800000D03*
X4600000D03*
X4700000Y17200000D03*
Y17100000D03*
X4800000D03*
Y17200000D03*
X4600000D03*
Y17100000D03*
X4700000Y17300000D03*
X4800000D03*
X4600000D03*
X4400000Y16750000D03*
Y17200000D03*
Y17300000D03*
Y17100000D03*
Y16900000D03*
Y17000000D03*
Y16650000D03*
X4700000Y17500000D03*
Y17400000D03*
X4800000D03*
Y17500000D03*
X4600000D03*
Y17400000D03*
X4700000Y17600000D03*
X4800000D03*
X4600000D03*
X4700000Y17800000D03*
Y17700000D03*
X4800000D03*
Y17800000D03*
X4600000D03*
Y17700000D03*
X4700000Y17950000D03*
X4800000D03*
X4600000D03*
X4700000Y18050000D03*
X4800000D03*
X4600000D03*
X4400000Y17900000D03*
Y17800000D03*
Y18000000D03*
Y17700000D03*
Y17500000D03*
Y17600000D03*
Y17400000D03*
X4700000Y18150000D03*
X4800000D03*
X4600000D03*
X4700000Y18300000D03*
X4800000D03*
X4600000D03*
X4700000Y18800000D03*
Y18500000D03*
Y18400000D03*
X4800000D03*
Y18500000D03*
Y18800000D03*
Y18640400D03*
X4600000Y18800000D03*
Y18500000D03*
Y18400000D03*
Y19000000D03*
X4800000D03*
X4700000D03*
Y18900000D03*
X4800000D03*
X4600000D03*
X5573200Y12279980D03*
X5050000Y12500000D03*
X5699210Y17058950D03*
X5350000Y19450000D03*
Y19350000D03*
X5550000Y19450000D03*
X5450000D03*
Y19350000D03*
X5550000D03*
X5690400D03*
X6010720Y8042820D03*
X6439780Y10329170D03*
X6283640Y10611970D03*
X6450000Y13050000D03*
X6350000Y13550000D03*
X6400000Y13300000D03*
X6300000Y13800000D03*
X6250000Y14050000D03*
X6200000Y14300000D03*
X6150000Y14550000D03*
X6100310Y14850000D03*
X6050000Y19450000D03*
Y19350000D03*
Y19550000D03*
X5950000Y19450000D03*
X5850000D03*
X5950000Y19350000D03*
X5850000D03*
X5950000Y19550000D03*
X6765720Y7905160D03*
X7107510Y9225570D03*
X6972680Y9449820D03*
X6834260Y9683920D03*
X6703370Y9897360D03*
X6571240Y10114180D03*
X6750000Y12800000D03*
X7106160Y17242580D03*
X7177100Y17729860D03*
X7206050Y17955610D03*
X7147260Y17501690D03*
X7220850Y18142460D03*
X7242710Y9000280D03*
X7587360Y8787540D03*
X7266990Y16767110D03*
X7263340Y18405380D03*
X7297890Y18646510D03*
X7349840Y18935420D03*
X8500460Y4117430D03*
X8539030Y6174510D03*
X8348210Y6324130D03*
X8140360Y6494050D03*
X7960590Y6630510D03*
X9270320Y4400310D03*
X9336160Y5535660D03*
X8930910Y5863060D03*
X8737820Y6015390D03*
X9140730Y5690790D03*
X9698310Y5382620D03*
X10854550Y3503590D03*
X11593240Y3250310D03*
X11349630Y3333220D03*
X11103480Y3417610D03*
X12262560Y1291230D03*
X12079090Y3085280D03*
X11835720Y3168050D03*
X12332950Y2996450D03*
X12886870Y1900410D03*
X12558220Y2924120D03*
X12855060Y2908950D03*
X15193660Y1594120D03*
X14939660Y1588140D03*
X14668090Y1585250D03*
X15953600Y1612440D03*
X15701680Y1606090D03*
X15466830Y1596720D03*
X16486670Y1619980D03*
X16232420Y1614040D03*
X16608330Y1655500D03*
X16737290Y-63570D03*
X17117000Y786680D03*
X18899940Y1026430D03*
X19371590Y1211140D03*
X19151790Y1121610D03*
X19631440Y1307730D03*
X20098560Y1491630D03*
X19858610Y1398560D03*
X20342560Y1585430D03*
X20570340Y1676370D03*
X21059140Y1326580D03*
X21416200Y169010D03*
X21554790Y601740D03*
X23129550Y1996890D03*
X23252990Y2125890D03*
X23860490Y2649850D03*
X23648220Y2469540D03*
X23469000Y2308340D03*
X24432930Y3153540D03*
X24038540Y2810370D03*
X24247330Y2988650D03*
X25963710Y480370D03*
X25850390Y458990D03*
X25871760Y572320D03*
X25758430Y550950D03*
X25779800Y664280D03*
X25574510Y734860D03*
X25666470Y642910D03*
X25687840Y756240D03*
X25721320Y2440620D03*
X26124510Y4000600D03*
X26049100Y3876130D03*
X26125880Y3873910D03*
X26049450Y3750710D03*
X26800000Y1050000D03*
X26861770Y1682730D03*
X26883120Y1796070D03*
X26769810Y1774690D03*
X26791170Y1888030D03*
X26920820Y4742070D03*
X26788220Y4506250D03*
X26696820Y4319540D03*
X26223400Y4464280D03*
X26950000Y1000000D03*
X27400000Y1800000D03*
X27045680Y1498820D03*
X27067040Y1612160D03*
X26953720Y1590770D03*
X26975080Y1704120D03*
X27658580Y2541420D03*
X27587870Y2612130D03*
X27517160Y2682840D03*
X27658580D03*
X27587870Y2753550D03*
X27367300Y2251780D03*
X27253970Y2230410D03*
X27275340Y2343740D03*
X27162010Y2322360D03*
X27551210Y2067870D03*
X27437890Y2046490D03*
X27459260Y2159820D03*
X27345930Y2138450D03*
X27658580Y2824260D03*
X27296120Y5422690D03*
X27186030Y5213700D03*
X27052530Y4976820D03*
X27407650Y5633390D03*
X27545040Y5874920D03*
X27729290Y2612130D03*
X27800000Y2682840D03*
X27729290Y2753550D03*
X27800000Y2400000D03*
X27729290Y2470710D03*
X27870710D03*
X27800000Y2541420D03*
X27941420D03*
X27870710Y2612130D03*
X28371540Y3284460D03*
X28392900Y3397790D03*
X28279580Y3376420D03*
X28550000Y2900000D03*
X28668770Y3121930D03*
X28555450Y3100550D03*
X28463490Y3192510D03*
X28484860Y3305840D03*
X28576810Y3213880D03*
X28878570Y5447990D03*
X28598050Y5978250D03*
X28832190Y7446350D03*
X28847990Y7276440D03*
X28847360Y7193580D03*
X28851020Y7374400D03*
X29350000Y3350000D03*
X29300000Y3400000D03*
Y3300000D03*
X29250000Y3350000D03*
X29200000Y3250000D03*
X29358580Y4091420D03*
X29287870Y4162130D03*
X29429290D03*
X29500000Y3950000D03*
X29429290Y4020710D03*
X29570710D03*
X29500000Y4091420D03*
X29641420D03*
X29570710Y4162130D03*
X29217160Y4232840D03*
X29358580D03*
X29287870Y4303550D03*
X29500000Y4232840D03*
X29429290Y4303550D03*
X29358580Y4374260D03*
X29800000Y5600000D03*
X29850000Y5650000D03*
X29257180Y7649300D03*
X29500000Y7450000D03*
X29663540Y7679590D03*
X29364690Y8468720D03*
X29315910Y8188520D03*
X29289220Y7968990D03*
X29796820Y7899570D03*
X29440090Y8968270D03*
X29401750Y8716760D03*
X29477600Y9217520D03*
X29515180Y9466960D03*
X29620290Y17127700D03*
X29751170Y16914340D03*
X29483390Y17357650D03*
X29351330Y17574290D03*
X30100000Y4150000D03*
X29950000Y4200000D03*
X30008580Y4691420D03*
X29937870Y4762130D03*
X29867160Y4832840D03*
X30079290Y4762130D03*
X30008580Y4832840D03*
X29937870Y4903550D03*
X30150000Y4832840D03*
X30079290Y4903550D03*
Y4620710D03*
X30220710D03*
X30150000Y4691420D03*
X30291420D03*
X30220710Y4762130D03*
X30150000Y4550000D03*
X30008580Y4974260D03*
X30550000Y5000000D03*
X30500000Y5050000D03*
X30450000Y5100000D03*
X30400000Y5150000D03*
X30350000Y5200000D03*
X30300000Y5250000D03*
X30565830Y5263100D03*
X30323650Y5388750D03*
X29922880Y8099740D03*
X30483650Y9932810D03*
X30381680Y10568090D03*
X30500000Y12000000D03*
X30550000Y11750000D03*
X30350000Y12800000D03*
X30400000Y12550000D03*
X30450000Y12300000D03*
X30200000Y13550000D03*
X30300000Y13050000D03*
X30250000Y13300000D03*
X30000000Y13800000D03*
X30150000D03*
X30009370Y16497310D03*
X30145390Y16269770D03*
X30285910Y16029880D03*
X29872910Y16726040D03*
X30525000Y18700000D03*
X30565370Y18578810D03*
X29928750Y18618480D03*
X30500000Y19075000D03*
X30575000Y19375000D03*
X30250000Y19700000D03*
X30800000Y4750000D03*
X30750000Y4800000D03*
X30700000Y4850000D03*
X30650000Y4900000D03*
X30600000Y4950000D03*
X30650000Y4750000D03*
X30592060Y4842060D03*
X30858580Y5591420D03*
X30787870Y5662130D03*
X30929290D03*
X31000000Y5450000D03*
X30929290Y5520710D03*
X31070710D03*
X31000000Y5591420D03*
X31141420D03*
X31070710Y5662130D03*
X30679150Y5284470D03*
X30657790Y5171140D03*
X30771110Y5192520D03*
X30850000Y5900000D03*
X30858580Y5732840D03*
X30787870Y5803550D03*
X31000000Y5732840D03*
X30929290Y5803550D03*
X30700000Y5750000D03*
X30986020Y9491430D03*
X31128670Y10200990D03*
X31300000Y11200000D03*
X31050000Y11100000D03*
X31150000Y11050000D03*
X31250000Y11000000D03*
X31000000Y14300000D03*
Y19375000D03*
X30875000Y19175000D03*
X30975000Y18925000D03*
X30650000Y19800000D03*
X31000000Y19575000D03*
X32036950Y6607220D03*
X31853040Y6791130D03*
X31944990Y6699180D03*
X31966360Y6812510D03*
X31650000Y8700000D03*
X31400000Y11150000D03*
X31350000Y10950000D03*
X31550000Y14050000D03*
X31500000Y14750000D03*
X31702750Y15154650D03*
Y14900650D03*
Y15027650D03*
Y15789650D03*
Y15281650D03*
Y15535650D03*
Y15662650D03*
Y15408650D03*
Y15916650D03*
Y16043650D03*
Y16170650D03*
Y16297650D03*
Y16424650D03*
Y16551650D03*
Y16678650D03*
Y16805650D03*
Y16932650D03*
Y17059650D03*
Y17186650D03*
X31950000Y17750000D03*
Y17650000D03*
Y17550000D03*
X31737100Y17662900D03*
X31750000Y17750000D03*
X31850000D03*
Y17650000D03*
X31750000Y17550000D03*
X31850000D03*
X31750000Y17850000D03*
X31850000D03*
X31650000D03*
X31550000D03*
X31450000D03*
X31650000Y17500000D03*
X31550000D03*
X31350000D03*
Y17850000D03*
X32128910Y6515260D03*
X32242240Y6536640D03*
X32150280Y6628590D03*
X32058320Y6720550D03*
X32200000Y7937710D03*
X32157020Y8142980D03*
X32700000Y8400000D03*
Y8500000D03*
X32600000Y8400000D03*
X32500000D03*
X32600000Y8500000D03*
X32500000D03*
X32700000Y8300000D03*
X32600000D03*
X32500000D03*
X32200000Y8500000D03*
X32347920Y7890250D03*
X32412950Y7985500D03*
X32477970Y7890250D03*
X32542990Y7985500D03*
X32700000Y9300000D03*
X32600000D03*
X32500000D03*
X32400000D03*
X32700000Y9400000D03*
Y9500000D03*
X32600000Y9400000D03*
X32500000D03*
X32400000D03*
X32600000Y9500000D03*
X32500000D03*
X32400000D03*
X32379670Y9858750D03*
X32444690Y9954000D03*
X32509710Y9858750D03*
X32574740Y9954000D03*
X32400000Y12000000D03*
X32700000D03*
X32600000D03*
X32500000D03*
X32700000Y12100000D03*
X32600000D03*
X32500000D03*
X32400000D03*
X32700000Y12200000D03*
X32600000D03*
X32500000D03*
X32400000D03*
X32347920Y11573250D03*
X32412940Y11668500D03*
X32477960Y11573250D03*
X32542990Y11668500D03*
X32608010Y11573250D03*
X32673040Y11668500D03*
X32738060Y11573250D03*
X32700000Y12950000D03*
X32600000D03*
X32500000D03*
X32400000D03*
X32700000Y13050000D03*
Y13150000D03*
X32600000Y13050000D03*
X32500000D03*
X32400000D03*
X32600000Y13150000D03*
X32500000D03*
X32400000D03*
X32379670Y13573500D03*
X32444690Y13668750D03*
X32509710Y13573500D03*
X32574740Y13668750D03*
X32639760Y13573500D03*
X32704790Y13668750D03*
X32769810Y13573500D03*
X32900000Y8400000D03*
X32800000D03*
X32900000Y8500000D03*
X32800000D03*
X32900000Y8300000D03*
X32800000D03*
Y9300000D03*
Y9400000D03*
Y9500000D03*
Y12000000D03*
Y12100000D03*
Y12200000D03*
X32803080Y11668500D03*
X32800000Y12950000D03*
Y13050000D03*
Y13150000D03*
X32834830Y13668750D03*
X32805350Y15154650D03*
Y15027650D03*
Y14900650D03*
X32900000Y15700000D03*
X32805350Y15662650D03*
Y15535650D03*
Y15408650D03*
Y15281650D03*
Y15789650D03*
Y16551650D03*
Y16424650D03*
Y16297650D03*
Y15916650D03*
Y16170650D03*
Y16043650D03*
X33000010Y17049990D03*
X32805350Y16932650D03*
Y16805650D03*
Y16678650D03*
Y17186650D03*
Y17313650D03*
G54D11*
X4068160Y10755520D03*
Y18375520D03*
X4095750Y19320250D03*
X11688160Y341520D03*
X24896160D03*
X32516160Y10755520D03*
Y18375520D03*
X32512000Y19320250D03*
G54D12*
X5719220Y10070940D03*
X5806100Y9832260D03*
X5545480Y10548300D03*
X5632350Y10309620D03*
X5374590Y11517600D03*
Y12279600D03*
Y12025600D03*
Y11771600D03*
Y12787600D03*
Y12533600D03*
Y13549600D03*
Y13295600D03*
Y13041600D03*
Y14311600D03*
Y14057600D03*
Y13803600D03*
Y15073600D03*
Y14819600D03*
Y14565600D03*
X5719280Y16520260D03*
X5632400Y16281580D03*
X5545530Y16042890D03*
X5806150Y16758940D03*
X6501080Y7922800D03*
X6240460Y8638850D03*
X6327330Y8400160D03*
X6414210Y8161480D03*
X6544350Y9289870D03*
X5979840Y9354890D03*
X6066710Y9116210D03*
X6153590Y8877530D03*
X6283740Y10005920D03*
X6370610Y9767230D03*
X6457480Y9528550D03*
X5892970Y9593570D03*
X6023120Y10721960D03*
X6109990Y10483280D03*
X6196860Y10244600D03*
X5882820Y11517420D03*
Y12279420D03*
Y12025420D03*
Y11771420D03*
Y12787420D03*
Y12533420D03*
Y13549420D03*
Y13295420D03*
Y13041420D03*
Y14311420D03*
Y14057420D03*
Y13803420D03*
Y15073420D03*
Y14819420D03*
Y14565420D03*
X6023050Y15868900D03*
X6283670Y16584950D03*
X6196800Y16346270D03*
X6109920Y16107590D03*
X6544290Y17301000D03*
X6457420Y17062310D03*
X6370540Y16823630D03*
X5979900Y17236300D03*
X5893020Y16997620D03*
X6240520Y17952350D03*
X6153640Y17713670D03*
X6066770Y17474990D03*
X6501130Y18668400D03*
X6414260Y18429710D03*
X6327390Y18191030D03*
X7253800Y6354350D03*
X6761700Y7206750D03*
X7065590Y7857780D03*
X7152470Y7619100D03*
X7239340Y7380410D03*
X6587950Y7684120D03*
X6674830Y7445440D03*
X6804970Y8573820D03*
X6891850Y8335140D03*
X6978720Y8096460D03*
X6631230Y9051190D03*
X6718100Y8812510D03*
X6804910Y18017040D03*
X6718040Y17778360D03*
X6631160Y17539680D03*
X7065530Y18733090D03*
X6978650Y18494410D03*
X6891780Y18255720D03*
X7239270Y19210450D03*
X7152400Y18971770D03*
X6761750Y19384440D03*
X6674880Y19145760D03*
X6588010Y18907080D03*
X7906870Y5576050D03*
X7806510Y6486320D03*
X7969780Y6291750D03*
X7417070Y6159770D03*
X7580340Y5965200D03*
X7743610Y5770620D03*
X7643240Y6680900D03*
X8396680Y4992320D03*
X8559950Y4797750D03*
X8723210Y4603170D03*
X8459580Y5708020D03*
X8622850Y5513450D03*
X8070140Y5381470D03*
X8233410Y5186900D03*
X8133050Y6097170D03*
X8296310Y5902600D03*
X9049750Y4214020D03*
X9213020Y4019440D03*
X9376290Y3824870D03*
X9112650Y4929720D03*
X9275920Y4735150D03*
X9439190Y4540570D03*
X8886480Y4408600D03*
X8786120Y5318870D03*
X8949390Y5124300D03*
X9765730Y4151420D03*
X9928990Y3956840D03*
X9539550Y3630290D03*
X9602460Y4345990D03*
X10733460Y2743610D03*
X10547790Y3437660D03*
X10767760Y3310660D03*
X10293520Y2997610D03*
X10513490Y2870610D03*
X11647640Y2802660D03*
X10953430Y2616610D03*
X11173400Y2489610D03*
X11393370Y2362610D03*
X11613340Y2235610D03*
X10987730Y3183660D03*
X11207700Y3056660D03*
X11427670Y2929660D03*
X11833310Y2108610D03*
X12053280Y1981610D03*
X12273250Y1854610D03*
X11867610Y2675660D03*
X12087580Y2548660D03*
X12307550Y2421660D03*
X12967460Y2040660D03*
X12493220Y1727610D03*
X12713190Y1600610D03*
X12933160Y1473610D03*
X12527520Y2294660D03*
X12747490Y2167660D03*
X13153130Y1346610D03*
X13373100Y1219610D03*
X13187430Y1913660D03*
X13407400Y1786660D03*
X13627370Y1659660D03*
X14297990Y882950D03*
X14548130Y838850D03*
X14386410Y1383430D03*
X14636550Y1339330D03*
X14886690Y1295220D03*
X15136830Y1251110D03*
X14798270Y794740D03*
X15048410Y750630D03*
X15298550Y706530D03*
X15798830Y618310D03*
X15386970Y1207010D03*
X15637110Y1162900D03*
X15887250Y1118790D03*
X15548690Y662420D03*
X16048980Y574210D03*
X16299120Y530100D03*
X16549260Y485990D03*
X16137400Y1074690D03*
X16387540Y1030580D03*
X16637680Y986470D03*
X16799400Y441890D03*
X17049540Y397780D03*
X17299680Y353670D03*
X16887820Y942370D03*
X17137960Y898260D03*
X17388100Y854150D03*
X17549820Y309570D03*
X17799960Y265460D03*
X17638240Y810050D03*
X17888380Y765940D03*
X18784210Y265440D03*
X18696130Y765980D03*
X18946270Y810080D03*
X19034350Y309540D03*
X19284490Y353650D03*
X19534630Y397760D03*
X19196410Y854190D03*
X19446550Y898300D03*
X19696690Y942400D03*
X19784770Y441860D03*
X20034910Y485970D03*
X20285050Y530080D03*
X19946830Y986510D03*
X20196970Y1030620D03*
X20535200Y574180D03*
X20785340Y618290D03*
X20447120Y1074720D03*
X20697260Y1118830D03*
X20947400Y1162940D03*
X21035480Y662400D03*
X21197540Y1207040D03*
X21447680Y1251150D03*
X21697820Y1295260D03*
X21285620Y706500D03*
X21535760Y750610D03*
X21785900Y794720D03*
X21947960Y1339360D03*
X22036040Y838820D03*
X22286180Y882930D03*
X22198100Y1383470D03*
X23211090Y1219530D03*
X22957130Y1659760D03*
X23177100Y1786760D03*
X23431060Y1346530D03*
X23397070Y1913760D03*
X23617040Y2040760D03*
X23651030Y1473530D03*
X23871000Y1600530D03*
X24090970Y1727530D03*
X23837010Y2167760D03*
X24056980Y2294760D03*
X24310940Y1854530D03*
X24530910Y1981530D03*
X24750880Y2108530D03*
X24276950Y2421760D03*
X24496920Y2548760D03*
X24716890Y2675760D03*
X24936860Y2802760D03*
X24970850Y2235530D03*
X25190820Y2362530D03*
X25410790Y2489530D03*
X25156830Y2929760D03*
X25376800Y3056760D03*
X25630760Y2616530D03*
X25850730Y2743530D03*
X25596770Y3183760D03*
X25816740Y3310760D03*
X26036710Y3437760D03*
X26070700Y2870530D03*
X26290670Y2997530D03*
X26655450Y3956990D03*
X26818720Y4151570D03*
X26981990Y4346140D03*
X27044670Y3630180D03*
X27207940Y3824760D03*
X27371210Y4019330D03*
X27534480Y4213910D03*
X27697740Y4408480D03*
X27145260Y4540720D03*
X27308520Y4735290D03*
X27471790Y4929870D03*
X27635060Y5124440D03*
X27861010Y4603060D03*
X28024280Y4797630D03*
X28187550Y4992210D03*
X28350820Y5186780D03*
X27798330Y5319020D03*
X27961600Y5513590D03*
X28124860Y5708170D03*
X28288130Y5902740D03*
X28451400Y6097320D03*
X28514080Y5381360D03*
X28677350Y5575930D03*
X28840620Y5770510D03*
X29003890Y5965090D03*
X29167160Y6159660D03*
X28614670Y6291900D03*
X28777940Y6486470D03*
X28941200Y6681050D03*
X29330420Y6354240D03*
X29822580Y7206600D03*
X29345060Y7380590D03*
X29431930Y7619270D03*
X29518800Y7857950D03*
X29909450Y7445280D03*
X29605680Y8096630D03*
X29692550Y8335320D03*
X29779420Y8574000D03*
X29866290Y8812680D03*
X29866220Y17778530D03*
X29779350Y18017220D03*
X29692470Y18255900D03*
X29605600Y18494580D03*
X29518730Y18733260D03*
X29431850Y18971940D03*
X29344980Y19210630D03*
X29909490Y19145600D03*
X29822620Y19384290D03*
X29996320Y7683960D03*
X30083200Y7922640D03*
X30170070Y8161330D03*
X30256940Y8400010D03*
X30343810Y8638690D03*
X29953170Y9051360D03*
X30040040Y9290040D03*
X30430690Y8877370D03*
X30517560Y9116050D03*
X30604430Y9354740D03*
X30126910Y9528730D03*
X30213790Y9767410D03*
X30300660Y10006090D03*
X30387530Y10244770D03*
X30474410Y10483450D03*
X30561280Y10722140D03*
X30561200Y15869080D03*
X30474330Y16107760D03*
X30387460Y16346440D03*
X30300580Y16585120D03*
X30213710Y16823810D03*
X30126840Y17062490D03*
X30039970Y17301170D03*
X30604480Y17236150D03*
X29953090Y17539850D03*
X30517610Y17474830D03*
X30430730Y17713510D03*
X30343860Y17952190D03*
X30256990Y18190880D03*
X30170110Y18429560D03*
X30083240Y18668240D03*
X29996370Y18906920D03*
X30691310Y9593420D03*
X30778180Y9832100D03*
X30865050Y10070780D03*
X30951930Y10309460D03*
X31038800Y10548150D03*
X30701500Y11517620D03*
X31209730Y11517440D03*
X30701500Y11771620D03*
Y12025620D03*
Y12279620D03*
X31209730Y11771440D03*
Y12025440D03*
Y12279440D03*
X30701500Y12533620D03*
Y12787620D03*
X31209730Y12533440D03*
Y12787440D03*
X30701500Y13041620D03*
Y13295620D03*
Y13549620D03*
X31209730Y13041440D03*
Y13295440D03*
Y13549440D03*
X30701500Y13803620D03*
Y14057620D03*
Y14311620D03*
X31209730Y13803440D03*
Y14057440D03*
Y14311440D03*
X30701500Y14565620D03*
Y14819620D03*
Y15073620D03*
X31209730Y14565440D03*
Y14819440D03*
Y15073440D03*
X31038840Y16042740D03*
X30951970Y16281420D03*
X30865100Y16520100D03*
X30778220Y16758780D03*
X30691350Y16997470D03*
G54D13*
X5118000Y19352000D03*
G54D14*
X5588000Y19052000D03*
Y19652000D03*
G54D15*
X32254050Y14744650D03*
Y17467650D03*
G54D16*
G01X4068160Y10337720D02*
Y10755520D01*
G01D02*
Y11173320D01*
G01X3650360Y10755520D02*
X4068160D01*
G01D02*
X4485960D01*
G01X4068160Y17957720D02*
Y18375520D01*
G01D02*
Y18793320D01*
G01X3650360Y18375520D02*
X4068160D01*
G01D02*
X4485960D01*
G01X5000200Y19352000D02*
X5118000D01*
G01X5374590Y11677600D02*
Y11771600D01*
G01D02*
Y11865600D01*
G01X5280590Y11771600D02*
X5374590D01*
G01D02*
X5468590D01*
G01X5632400Y16187580D02*
Y16281580D01*
G01D02*
Y16375580D01*
G01X5538400Y16281580D02*
X5632400D01*
G01D02*
X5726400D01*
G01X5118000Y19084200D02*
Y19352000D01*
G01D02*
Y19619800D01*
G01Y19352000D02*
X5235800D01*
G01X5588000Y19534200D02*
Y19652000D01*
G01D02*
Y19769800D01*
G01X5320200Y19652000D02*
X5588000D01*
G01D02*
X5855800D01*
G01X5882820Y11677420D02*
Y11771420D01*
G01D02*
Y11865420D01*
G01X5788820Y11771420D02*
X5882820D01*
G01D02*
X5976820D01*
G01X6109920Y16013590D02*
Y16107590D01*
G01D02*
Y16201590D01*
G01X6015920Y16107590D02*
X6109920D01*
G01D02*
X6203920D01*
G01X7152470Y7525100D02*
Y7619100D01*
G01D02*
Y7713100D01*
G01X7058470Y7619100D02*
X7152470D01*
G01D02*
X7246470D01*
G01X6674830Y7351440D02*
Y7445440D01*
G01D02*
Y7539440D01*
G01X6580830Y7445440D02*
X6674830D01*
G01D02*
X6768830D01*
G01X9376290Y3730870D02*
Y3824870D01*
G01D02*
Y3918870D01*
G01X9282290Y3824870D02*
X9376290D01*
G01D02*
X9470290D01*
G01X9765730Y4057420D02*
Y4151420D01*
G01D02*
Y4245420D01*
G01X9671730Y4151420D02*
X9765730D01*
G01D02*
X9859730D01*
G01X11270360Y341520D02*
X11688160D01*
G01Y-76280D02*
Y341520D01*
G01D02*
Y759320D01*
G01Y341520D02*
X12105960D01*
G01X13153130Y1252610D02*
Y1346610D01*
G01X13407400Y1692660D02*
Y1786660D01*
G01D02*
Y1880660D01*
G01X13313400Y1786660D02*
X13407400D01*
G01D02*
X13501400D01*
G01X13153130Y1346610D02*
Y1440610D01*
G01X13059130Y1346610D02*
X13153130D01*
G01D02*
X13247130D01*
G01X17549820Y215570D02*
Y309570D01*
G01D02*
Y403570D01*
G01X17455820Y309570D02*
X17549820D01*
G01D02*
X17643820D01*
G01X17638240Y716050D02*
Y810050D01*
G01D02*
Y904050D01*
G01X17544240Y810050D02*
X17638240D01*
G01D02*
X17732240D01*
G01X22036040Y744820D02*
Y838820D01*
G01D02*
Y932820D01*
G01X21942040Y838820D02*
X22036040D01*
G01D02*
X22130040D01*
G01X21947960Y1245360D02*
Y1339360D01*
G01D02*
Y1433360D01*
G01X21853960Y1339360D02*
X21947960D01*
G01D02*
X22041960D01*
G01X24478360Y341520D02*
X24896160D01*
G01Y-76280D02*
Y341520D01*
G01D02*
Y759320D01*
G01Y341520D02*
X25313960D01*
G01X26070700Y2776530D02*
Y2870530D01*
G01D02*
Y2964530D01*
G01X25976700Y2870530D02*
X26070700D01*
G01D02*
X26164700D01*
G01X25816740Y3216760D02*
Y3310760D01*
G01D02*
Y3404760D01*
G01X25722740Y3310760D02*
X25816740D01*
G01D02*
X25910740D01*
G01X29073160Y6159660D02*
X29167160D01*
G01X28777940Y6392470D02*
Y6486470D01*
G01D02*
Y6580470D01*
G01X28683940Y6486470D02*
X28777940D01*
G01D02*
X28871940D01*
G01X29167160Y6065660D02*
Y6159660D01*
G01D02*
Y6253660D01*
G01Y6159660D02*
X29261160D01*
G01X29815490Y19145600D02*
X29909490D01*
G01X29431850Y18877940D02*
Y18971940D01*
G01D02*
Y19065940D01*
G01X29337850Y18971940D02*
X29431850D01*
G01D02*
X29525850D01*
G01X30474410Y10389450D02*
Y10483450D01*
G01D02*
Y10577450D01*
G01X30380410Y10483450D02*
X30474410D01*
G01D02*
X30568410D01*
G01X29909490Y19051600D02*
Y19145600D01*
G01D02*
Y19239600D01*
G01Y19145600D02*
X30003490D01*
G01X30951930Y10215460D02*
Y10309460D01*
G01D02*
Y10403460D01*
G01X30857930Y10309460D02*
X30951930D01*
G01D02*
X31045930D01*
G01X31209730Y14725440D02*
Y14819440D01*
G01D02*
Y14913440D01*
G01X31115730Y14819440D02*
X31209730D01*
G01D02*
X31303730D01*
G01X30701500Y14725620D02*
Y14819620D01*
G01D02*
Y14913620D01*
G01X30607500Y14819620D02*
X30701500D01*
G01D02*
X30795500D01*
G01X32516160Y10337720D02*
Y10755520D01*
G01D02*
Y11173320D01*
G01X32098360Y10755520D02*
X32516160D01*
G01D02*
X32933960D01*
G01X32516160Y17957720D02*
Y18375520D01*
G01D02*
Y18793320D01*
G01X32098360Y18375520D02*
X32516160D01*
G01D02*
X32933960D01*
G54D17*
G01X3369660Y7471570D02*
G03X3741640Y6573550I1269998J10D01*
G01X3369660Y18693020D02*
Y7471570D01*
G01X4639660Y19963020D02*
G03X3369660Y18693020I0J-1270000D01*
G01X3741640Y6573550D02*
X10617690Y-302510D01*
G01X7878160Y19963020D02*
X4639660D01*
G01X8513160Y19212950D02*
G03X28071160I9779000J-5917432D01*
G01X8513160Y19328020D02*
G03X7878160Y19963020I-635000J0D01*
G01X8513160Y19212960D02*
Y19328020D01*
G01X10617690Y-302510D02*
G03X11515710Y-674480I898021J898030D01*
G01D02*
X25068610D01*
G01D02*
G03X25966640Y-302510I8J1270002D01*
G01D02*
X32842690Y6573550D01*
G01X28706160Y19963020D02*
G03X28071160Y19328020I0J-635000D01*
G01D02*
Y19212960D01*
G01X31944660Y19963020D02*
X28706160D01*
G01X33214660Y18693020D02*
G03X31944660Y19963020I-1270000J0D01*
G01X32842690Y6573550D02*
G03X33214660Y7471570I-898029J898021D01*
G01D02*
Y18693020D01*
M02*
