G04 ================== begin FILE IDENTIFICATION RECORD ==================*
G04 Layout Name:  I:/Project-LED_Arena/Arena Bottom V1, 6-6-2019.brd*
G04 Film Name:    SilkScreen_Top*
G04 File Format:  Gerber RS274X*
G04 File Origin:  Cadence Allegro 17.2-P019*
G04 Origin Date:  Tue Jun 04 22:43:36 2019*
G04 *
G04 Layer:  USER PART NUMBER/SILKSCREEN_TOP*
G04 Layer:  TOLERANCE/SILKSCREEN_TOP*
G04 Layer:  REF DES/SILKSCREEN_TOP*
G04 Layer:  PACKAGE GEOMETRY/SILKSCREEN_TOP*
G04 Layer:  DEVICE TYPE/SILKSCREEN_TOP*
G04 Layer:  BOARD GEOMETRY/OUTLINE*
G04 Layer:  BOARD GEOMETRY/SILKSCREEN_TOP*
G04 *
G04 Offset:    (0.0000 0.0000)*
G04 Mirror:    No*
G04 Mode:      Positive*
G04 Rotation:  0*
G04 FullContactRelief:  No*
G04 UndefLineWidth:     0.1000*
G04 ================== end FILE IDENTIFICATION RECORD ====================*
%FSLAX35Y35*MOMM*%
%IR0*IPPOS*OFA0.00000B0.00000*MIA0B0*SFA1.00000B1.00000*%
%ADD10C,.1*%
%ADD11C,.5*%
%ADD12C,.254*%
%ADD13C,.1524*%
%ADD14C,.0508*%
G75*
%LPD*%
G75*
G54D10*
G01X3530000Y16136670D02*
X3450000D01*
Y16083330D01*
G01X3466000Y16059330D02*
X3456670Y16051330D01*
X3451330Y16040670D01*
X3450000Y16028670D01*
X3451330Y16018000D01*
X3458000Y16007330D01*
X3466000Y16000670D01*
X3474000Y15999330D01*
X3483330Y16002000D01*
X3490000Y16011330D01*
X3492670Y16020670D01*
Y16032670D01*
G01Y16020670D02*
X3496670Y16012670D01*
X3503330Y16006000D01*
X3511330Y16003330D01*
X3519330Y16006000D01*
X3526000Y16012670D01*
X3530000Y16024670D01*
X3528670Y16036670D01*
X3523330Y16048670D01*
G01X3605330Y11100000D02*
Y11180000D01*
X3640000Y11113330D01*
X3674670Y11180000D01*
Y11100000D01*
G01X3736000D02*
Y11180000D01*
X3686670Y11122670D01*
X3753330D01*
G01X3673330Y14280670D02*
X3677330Y14288670D01*
X3680000Y14298000D01*
Y14308670D01*
X3676000Y14320670D01*
X3669330Y14330000D01*
X3661330Y14336670D01*
X3648000Y14342000D01*
X3636000Y14343330D01*
X3624000Y14340670D01*
X3616000Y14336670D01*
X3608000Y14328670D01*
X3602670Y14319330D01*
X3600000Y14310000D01*
Y14300670D01*
X3602670Y14291330D01*
X3606670Y14283330D01*
X3612000Y14276670D01*
G01X3600000Y14214000D02*
X3680000D01*
X3622670Y14263330D01*
Y14196670D01*
G01X3666670Y14175330D02*
X3674670Y14167330D01*
X3678670Y14158000D01*
X3680000Y14147330D01*
X3677330Y14134000D01*
X3670670Y14124670D01*
X3662670Y14122000D01*
X3654660Y14123330D01*
X3648000Y14128670D01*
X3634670Y14155330D01*
X3625330Y14167330D01*
X3612000Y14175330D01*
X3600000Y14178000D01*
Y14122000D01*
G01X4223330Y14430670D02*
X4227330Y14438670D01*
X4230000Y14448000D01*
Y14458670D01*
X4226000Y14470670D01*
X4219330Y14480000D01*
X4211330Y14486670D01*
X4198000Y14492000D01*
X4186000Y14493330D01*
X4174000Y14490670D01*
X4166000Y14486670D01*
X4158000Y14478670D01*
X4152670Y14469330D01*
X4150000Y14460000D01*
Y14450670D01*
X4152670Y14441330D01*
X4156670Y14433330D01*
X4162000Y14426670D01*
G01X4150000Y14364000D02*
X4230000D01*
X4172670Y14413330D01*
Y14346670D01*
G01X4166000Y14329330D02*
X4156670Y14321330D01*
X4151330Y14310670D01*
X4150000Y14298670D01*
X4151330Y14288000D01*
X4158000Y14277330D01*
X4166000Y14270670D01*
X4174000Y14269330D01*
X4183330Y14272000D01*
X4190000Y14281330D01*
X4192670Y14290670D01*
Y14302670D01*
G01Y14290670D02*
X4196670Y14282670D01*
X4203330Y14276000D01*
X4211330Y14273330D01*
X4219330Y14276000D01*
X4226000Y14282670D01*
X4230000Y14294670D01*
X4228670Y14306670D01*
X4223330Y14318670D01*
G01X3973330Y14430670D02*
X3977330Y14438670D01*
X3980000Y14448000D01*
Y14458670D01*
X3976000Y14470670D01*
X3969330Y14480000D01*
X3961330Y14486670D01*
X3948000Y14492000D01*
X3936000Y14493330D01*
X3924000Y14490670D01*
X3916000Y14486670D01*
X3908000Y14478670D01*
X3902670Y14469330D01*
X3900000Y14460000D01*
Y14450670D01*
X3902670Y14441330D01*
X3906670Y14433330D01*
X3912000Y14426670D01*
G01X3900000Y14364000D02*
X3980000D01*
X3922670Y14413330D01*
Y14346670D01*
G01X3900000Y14284000D02*
X3980000D01*
X3922670Y14333330D01*
Y14266670D01*
G01X4223330Y15230670D02*
X4227330Y15238670D01*
X4230000Y15248000D01*
Y15258670D01*
X4226000Y15270670D01*
X4219330Y15280000D01*
X4211330Y15286670D01*
X4198000Y15292000D01*
X4186000Y15293330D01*
X4174000Y15290670D01*
X4166000Y15286670D01*
X4158000Y15278670D01*
X4152670Y15269330D01*
X4150000Y15260000D01*
Y15250670D01*
X4152670Y15241330D01*
X4156670Y15233330D01*
X4162000Y15226670D01*
G01X4166000Y15209330D02*
X4156670Y15201330D01*
X4151330Y15190670D01*
X4150000Y15178670D01*
X4151330Y15168000D01*
X4158000Y15157330D01*
X4166000Y15150670D01*
X4174000Y15149330D01*
X4183330Y15152000D01*
X4190000Y15161330D01*
X4192670Y15170670D01*
Y15182670D01*
G01Y15170670D02*
X4196670Y15162670D01*
X4203330Y15156000D01*
X4211330Y15153330D01*
X4219330Y15156000D01*
X4226000Y15162670D01*
X4230000Y15174670D01*
X4228670Y15186670D01*
X4223330Y15198670D01*
G01X4159330Y15122670D02*
X4152670Y15113330D01*
X4150000Y15102670D01*
X4152670Y15092000D01*
X4160660Y15082670D01*
X4172670Y15076000D01*
X4184670Y15073330D01*
X4199330D01*
X4211330Y15076000D01*
X4222000Y15082670D01*
X4227330Y15090670D01*
X4230000Y15100000D01*
X4227330Y15110670D01*
X4222000Y15118670D01*
X4214000Y15124000D01*
X4203330Y15126670D01*
X4194000Y15124000D01*
X4184670Y15117330D01*
X4179330Y15109330D01*
X4178000Y15100000D01*
X4180660Y15089330D01*
X4187330Y15081330D01*
X4199330Y15073330D01*
G01X4023330Y15430670D02*
X4027330Y15438670D01*
X4030000Y15448000D01*
Y15458670D01*
X4026000Y15470670D01*
X4019330Y15480000D01*
X4011330Y15486670D01*
X3998000Y15492000D01*
X3986000Y15493330D01*
X3974000Y15490670D01*
X3966000Y15486670D01*
X3958000Y15478670D01*
X3952670Y15469330D01*
X3950000Y15460000D01*
Y15450670D01*
X3952670Y15441330D01*
X3956670Y15433330D01*
X3962000Y15426670D01*
G01X3950000Y15364000D02*
X4030000D01*
X3972670Y15413330D01*
Y15346670D01*
G01X3950000Y15300000D02*
X4030000D01*
X4014000Y15316000D01*
G01X3950000D02*
Y15284000D01*
G01X4010670Y16230000D02*
Y16172670D01*
X4016000Y16160660D01*
X4026670Y16152670D01*
X4040000Y16150000D01*
X4053330Y16152670D01*
X4064000Y16160660D01*
X4069330Y16172670D01*
Y16230000D01*
G01X4117330Y16150000D02*
X4120000Y16167330D01*
X4124000Y16182000D01*
X4129330Y16195330D01*
X4136000Y16210000D01*
X4146670Y16230000D01*
X4093330D01*
G01X3605330Y18700000D02*
Y18780000D01*
X3640000Y18713330D01*
X3674670Y18780000D01*
Y18700000D01*
G01X3690670Y18712000D02*
X3698670Y18705330D01*
X3708000Y18701330D01*
X3720000Y18700000D01*
X3732000Y18702670D01*
X3741330Y18708000D01*
X3748000Y18717330D01*
X3749330Y18728000D01*
X3746670Y18738670D01*
X3740000Y18745330D01*
X3730670Y18750670D01*
X3721330Y18752000D01*
X3712000Y18750670D01*
X3700000Y18745330D01*
X3704000Y18780000D01*
X3740000D01*
G01X3605330Y19050000D02*
Y19130000D01*
X3640000Y19063330D01*
X3674670Y19130000D01*
Y19050000D01*
G01X3694670Y19116670D02*
X3702670Y19124670D01*
X3712000Y19128670D01*
X3722670Y19130000D01*
X3736000Y19127330D01*
X3745330Y19120670D01*
X3748000Y19112670D01*
X3746670Y19104660D01*
X3741330Y19098000D01*
X3714670Y19084670D01*
X3702670Y19075330D01*
X3694670Y19062000D01*
X3692000Y19050000D01*
X3748000D01*
G01X4523330Y15480670D02*
X4527330Y15488670D01*
X4530000Y15498000D01*
Y15508670D01*
X4526000Y15520670D01*
X4519330Y15530000D01*
X4511330Y15536670D01*
X4498000Y15542000D01*
X4486000Y15543330D01*
X4474000Y15540670D01*
X4466000Y15536670D01*
X4458000Y15528670D01*
X4452670Y15519330D01*
X4450000Y15510000D01*
Y15500670D01*
X4452670Y15491330D01*
X4456670Y15483330D01*
X4462000Y15476670D01*
G01X4450000Y15414000D02*
X4530000D01*
X4472670Y15463330D01*
Y15396670D01*
G01X4530000Y15350000D02*
X4527330Y15360670D01*
X4520670Y15368670D01*
X4512670Y15374000D01*
X4502000Y15378000D01*
X4490000Y15379330D01*
X4478000Y15378000D01*
X4467330Y15374000D01*
X4459330Y15368670D01*
X4452670Y15360670D01*
X4450000Y15350000D01*
X4452670Y15339330D01*
X4459330Y15331330D01*
X4467330Y15326000D01*
X4478000Y15322000D01*
X4490000Y15320670D01*
X4502000Y15322000D01*
X4512670Y15326000D01*
X4520670Y15331330D01*
X4527330Y15339330D01*
X4530000Y15350000D01*
G01X4320000Y18913330D02*
X4400000D01*
Y18966670D01*
G01Y19020000D02*
X4320000D01*
X4336000Y19004000D01*
G01X4400000D02*
Y19036000D01*
G01X5718990Y11467250D02*
X5612320Y11493920D01*
G01Y11520590D02*
X5718990Y11493920D01*
G01X5678990Y11453920D02*
Y11533920D01*
G01X5652320D02*
Y11453920D01*
G01X5692320Y11573920D02*
X5612320D01*
X5628320Y11557920D01*
G01X5692320D02*
Y11589920D01*
G01X5784000Y11213330D02*
X5792000Y11220000D01*
X5797330Y11228000D01*
X5800000Y11237330D01*
X5797330Y11248000D01*
X5792000Y11256000D01*
X5784000Y11264000D01*
X5773330Y11266670D01*
X5720000D01*
G01X5800000Y11320000D02*
X5720000D01*
X5736000Y11304000D01*
G01X5800000D02*
Y11336000D01*
G01X5210760Y11467430D02*
X5104090Y11494100D01*
G01Y11520770D02*
X5210760Y11494100D01*
G01X5170760Y11454100D02*
Y11534100D01*
G01X5144090D02*
Y11454100D01*
G01X5184090Y11574100D02*
X5104090D01*
X5120090Y11558100D01*
G01X5184090D02*
Y11590100D01*
G01X5284000Y11113330D02*
X5292000Y11120000D01*
X5297330Y11128000D01*
X5300000Y11137330D01*
X5297330Y11148000D01*
X5292000Y11156000D01*
X5284000Y11164000D01*
X5273330Y11166670D01*
X5220000D01*
G01X5300000Y11220000D02*
X5220000D01*
X5236000Y11204000D01*
G01X5300000D02*
Y11236000D01*
G01Y11316000D02*
X5220000D01*
X5277330Y11266670D01*
Y11333330D01*
G01X5439530Y15668000D02*
X5449320Y15671530D01*
X5457070Y15677220D01*
X5462770Y15685080D01*
X5463910Y15696020D01*
X5461640Y15705360D01*
X5456860Y15715610D01*
X5447740Y15721770D01*
X5397630Y15740010D01*
G01X5491040Y15762770D02*
X5415860Y15790130D01*
X5425430Y15769620D01*
G01X5485570Y15747730D02*
X5496510Y15777800D01*
G01X5493330Y15815860D02*
X5504840Y15820180D01*
X5513500Y15828380D01*
X5518860Y15839200D01*
X5521250Y15849680D01*
X5518640Y15861980D01*
X5513400Y15870980D01*
X5506340Y15874970D01*
X5496660Y15875660D01*
X5487200Y15869170D01*
X5481500Y15861310D01*
X5477390Y15850030D01*
G01X5481500Y15861310D02*
X5480480Y15870200D01*
X5476490Y15878740D01*
X5469890Y15883980D01*
X5461460Y15884210D01*
X5452910Y15880230D01*
X5445050Y15870320D01*
X5442200Y15858590D01*
X5443110Y15845490D01*
G01X5374420Y16051780D02*
X5283300Y16113320D01*
G01X5292430Y16138380D02*
X5383540Y16076840D01*
G01X5332270Y16052930D02*
X5359630Y16128110D01*
G01X5334580Y16137230D02*
X5307210Y16062050D01*
G01X5385840Y16161140D02*
X5310660Y16188500D01*
X5320230Y16167990D01*
G01X5380370Y16146100D02*
X5391310Y16176170D01*
G01X5380670Y17926670D02*
X5388670Y17922670D01*
X5398000Y17920000D01*
X5408670D01*
X5420670Y17924000D01*
X5430000Y17930670D01*
X5436670Y17938670D01*
X5442000Y17952000D01*
X5443330Y17964000D01*
X5440670Y17976000D01*
X5436670Y17984000D01*
X5428670Y17992000D01*
X5419330Y17997330D01*
X5410000Y18000000D01*
X5400670D01*
X5391330Y17997330D01*
X5383330Y17993330D01*
X5376670Y17988000D01*
G01X5359330Y17984000D02*
X5351330Y17993330D01*
X5340670Y17998670D01*
X5328670Y18000000D01*
X5318000Y17998670D01*
X5307330Y17992000D01*
X5300670Y17984000D01*
X5299330Y17976000D01*
X5302000Y17966670D01*
X5311330Y17960000D01*
X5320670Y17957330D01*
X5332670D01*
G01X5320670D02*
X5312670Y17953330D01*
X5306000Y17946670D01*
X5303330Y17938670D01*
X5306000Y17930670D01*
X5312670Y17924000D01*
X5324670Y17920000D01*
X5336670Y17921330D01*
X5348670Y17926670D01*
G01X5252670Y18000000D02*
X5250000Y17982670D01*
X5246000Y17968000D01*
X5240670Y17954670D01*
X5234000Y17940000D01*
X5223330Y17920000D01*
X5276670D01*
G01X5530670Y18776670D02*
X5538670Y18772670D01*
X5548000Y18770000D01*
X5558670D01*
X5570670Y18774000D01*
X5580000Y18780670D01*
X5586670Y18788670D01*
X5592000Y18802000D01*
X5593330Y18814000D01*
X5590670Y18826000D01*
X5586670Y18834000D01*
X5578670Y18842000D01*
X5569330Y18847330D01*
X5560000Y18850000D01*
X5550670D01*
X5541330Y18847330D01*
X5533330Y18843330D01*
X5526670Y18838000D01*
G01X5509330Y18834000D02*
X5501330Y18843330D01*
X5490670Y18848670D01*
X5478670Y18850000D01*
X5468000Y18848670D01*
X5457330Y18842000D01*
X5450670Y18834000D01*
X5449330Y18826000D01*
X5452000Y18816670D01*
X5461330Y18810000D01*
X5470670Y18807330D01*
X5482670D01*
G01X5470670D02*
X5462670Y18803330D01*
X5456000Y18796670D01*
X5453330Y18788670D01*
X5456000Y18780670D01*
X5462670Y18774000D01*
X5474670Y18770000D01*
X5486670Y18771330D01*
X5498670Y18776670D01*
G01X5400000Y18850000D02*
X5390670Y18848670D01*
X5380000Y18844670D01*
X5373330Y18838000D01*
X5370670Y18828670D01*
X5373330Y18819340D01*
X5381330Y18811330D01*
X5393330Y18807330D01*
X5406670D01*
X5414670Y18804670D01*
X5421330Y18798000D01*
X5424000Y18788670D01*
X5420000Y18779330D01*
X5410670Y18772670D01*
X5400000Y18770000D01*
X5389330Y18772670D01*
X5380000Y18779330D01*
X5376000Y18788670D01*
X5378670Y18798000D01*
X5385330Y18804670D01*
X5393330Y18807330D01*
X5406670D01*
X5418670Y18811330D01*
X5426670Y18819340D01*
X5429330Y18828670D01*
X5426670Y18838000D01*
X5420000Y18844670D01*
X5409330Y18848670D01*
X5400000Y18850000D01*
G01X5363330Y19816000D02*
X5370000Y19808000D01*
X5378000Y19802670D01*
X5387330Y19800000D01*
X5398000Y19802670D01*
X5406000Y19808000D01*
X5414000Y19816000D01*
X5416670Y19826670D01*
Y19880000D01*
G01X5444670Y19866670D02*
X5452670Y19874670D01*
X5462000Y19878670D01*
X5472670Y19880000D01*
X5486000Y19877330D01*
X5495330Y19870670D01*
X5498000Y19862670D01*
X5496670Y19854660D01*
X5491330Y19848000D01*
X5464670Y19834670D01*
X5452670Y19825330D01*
X5444670Y19812000D01*
X5442000Y19800000D01*
X5498000D01*
G01X5524670Y19833330D02*
X5534000Y19842670D01*
X5542000Y19848000D01*
X5552670Y19850670D01*
X5562000Y19848000D01*
X5568670Y19842670D01*
X5574000Y19834670D01*
X5575330Y19825330D01*
X5574000Y19817330D01*
X5568670Y19809330D01*
X5560670Y19802670D01*
X5551330Y19800000D01*
X5540670Y19802670D01*
X5531330Y19810660D01*
X5526000Y19822670D01*
X5524670Y19836000D01*
X5527330Y19853330D01*
X5531330Y19862670D01*
X5538000Y19872000D01*
X5547330Y19878670D01*
X5556670Y19880000D01*
X5566000Y19877330D01*
X5572670Y19870670D01*
G01X5851940Y15877790D02*
X5760820Y15939330D01*
G01X5769950Y15964390D02*
X5861060Y15902850D01*
G01X5809790Y15878940D02*
X5837150Y15954120D01*
G01X5812100Y15963240D02*
X5784730Y15888060D01*
G01X5863360Y15987150D02*
X5788180Y16014510D01*
X5797750Y15994000D01*
G01X5857890Y15972110D02*
X5868830Y16002180D01*
G01X5889530Y15618000D02*
X5899320Y15621530D01*
X5907070Y15627220D01*
X5912770Y15635080D01*
X5913910Y15646020D01*
X5911640Y15655360D01*
X5906860Y15665610D01*
X5897740Y15671770D01*
X5847630Y15690010D01*
G01X5946510Y15727800D02*
X5871340Y15755160D01*
X5908340Y15689200D01*
X5931140Y15751840D01*
G01X6624900Y7103570D02*
X6515540Y7092140D01*
G01X6506420Y7117200D02*
X6615780Y7128630D01*
G01X6591870Y7077360D02*
X6564510Y7152540D01*
G01X6539450Y7143420D02*
X6566810Y7068240D01*
G01X6563360Y7194690D02*
X6488180Y7167320D01*
X6508690Y7157760D01*
G01X6568830Y7179650D02*
X6557890Y7209720D01*
G01X6830410Y6857060D02*
X6835640Y6866060D01*
X6837920Y6875400D01*
X6837230Y6885080D01*
X6831080Y6894190D01*
X6823330Y6899890D01*
X6813080Y6904670D01*
X6802140Y6903530D01*
X6752020Y6885280D01*
G01X6808960Y6962770D02*
X6733780Y6935400D01*
X6754290Y6925840D01*
G01X6814430Y6947730D02*
X6803490Y6977800D01*
G01X6780360Y7006280D02*
X6783890Y7016080D01*
X6784450Y7026210D01*
X6781600Y7037950D01*
X6774990Y7048310D01*
X6766790Y7055260D01*
X6755740Y7058330D01*
X6745260Y7055940D01*
X6736140Y7049780D01*
X6732160Y7041240D01*
X6730340Y7030640D01*
X6732280Y7021420D01*
X6736730Y7013100D01*
X6745840Y7003650D01*
X6711900Y6995550D01*
X6699580Y7029380D01*
G01X7102540Y7277230D02*
X6993180Y7265800D01*
G01X6984060Y7290860D02*
X7093420Y7302290D01*
G01X7069510Y7251020D02*
X7042150Y7326200D01*
G01X7017090Y7317080D02*
X7044450Y7241900D01*
G01X7041000Y7368350D02*
X6965820Y7340980D01*
X6986330Y7331420D01*
G01X7046470Y7353310D02*
X7035530Y7383380D01*
G01X7330410Y7007060D02*
X7335640Y7016060D01*
X7337920Y7025400D01*
X7337230Y7035080D01*
X7331080Y7044190D01*
X7323330Y7049890D01*
X7313080Y7054670D01*
X7302140Y7053530D01*
X7252020Y7035280D01*
G01X7308960Y7112770D02*
X7233780Y7085400D01*
X7254290Y7075840D01*
G01X7314430Y7097730D02*
X7303490Y7127800D01*
G01X7206420Y7160580D02*
X7212580Y7151470D01*
X7221580Y7146240D01*
X7230920Y7143960D01*
X7242310Y7143850D01*
X7254050Y7146700D01*
X7264870Y7152060D01*
X7273520Y7159470D01*
X7279210Y7167220D01*
X7282740Y7177010D01*
X7281600Y7187950D01*
X7275450Y7197060D01*
X7266450Y7202300D01*
X7257100Y7204570D01*
X7245710Y7204680D01*
X7233980Y7201830D01*
X7223160Y7196470D01*
X7214500Y7189070D01*
X7208810Y7181320D01*
X7205280Y7171520D01*
X7206420Y7160580D01*
G01X9446300Y3486550D02*
X9347450Y3438420D01*
G01X9330300Y3458850D02*
X9429160Y3506980D01*
G01X9424230Y3450630D02*
X9372800Y3511910D01*
G01X9352380Y3494770D02*
X9403800Y3433490D01*
G01X9357310Y3551120D02*
X9296030Y3499700D01*
X9318570Y3497730D01*
G01X9367590Y3538860D02*
X9347030Y3563380D01*
G01X9779170Y3349930D02*
X9781020Y3360180D01*
X9779960Y3369730D01*
X9776000Y3378600D01*
X9767100Y3385060D01*
X9757880Y3387760D01*
X9746610Y3388740D01*
X9736720Y3383930D01*
X9695860Y3349650D01*
G01X9722870Y3441920D02*
X9661590Y3390500D01*
X9684130Y3388530D01*
G01X9733150Y3429660D02*
X9712590Y3454180D01*
G01X9662200Y3462370D02*
X9649050Y3463520D01*
X9639820Y3466220D01*
X9630920Y3472680D01*
X9626960Y3481540D01*
X9626760Y3490080D01*
X9629460Y3499300D01*
X9635760Y3506330D01*
X9642740Y3510450D01*
X9652300Y3511500D01*
X9662550Y3509660D01*
X9670590Y3504220D01*
X9675410Y3494340D01*
X9675280Y3482050D01*
X9669510Y3470250D01*
X9660160Y3460650D01*
X9645160Y3451560D01*
X9635440Y3448620D01*
X9624010Y3447730D01*
X9612900Y3450590D01*
X9605880Y3456890D01*
X9601920Y3465750D01*
X9602740Y3475140D01*
G01X9835740Y3813100D02*
X9736890Y3764970D01*
G01X9719740Y3785400D02*
X9818600Y3833530D01*
G01X9813670Y3777180D02*
X9762240Y3838460D01*
G01X9741820Y3821320D02*
X9793240Y3760040D01*
G01X9746750Y3877670D02*
X9685470Y3826250D01*
X9708010Y3824280D01*
G01X9757030Y3865410D02*
X9736470Y3889930D01*
G01X10129170Y3699930D02*
X10131020Y3710180D01*
X10129960Y3719730D01*
X10126000Y3728600D01*
X10117100Y3735060D01*
X10107880Y3737760D01*
X10096610Y3738740D01*
X10086720Y3733930D01*
X10045860Y3699650D01*
G01X10082530Y3761740D02*
X10082500Y3772150D01*
X10079560Y3781870D01*
X10072870Y3791920D01*
X10063110Y3799400D01*
X10053030Y3803120D01*
X10041590Y3802230D01*
X10032570Y3796390D01*
X10026110Y3787500D01*
X10025290Y3778100D01*
X10027200Y3767520D01*
X10032180Y3759520D01*
X10039200Y3753230D01*
X10051000Y3747460D01*
X10021870Y3728240D01*
X9998730Y3755820D01*
G01X11947490Y595520D02*
Y675520D01*
X11982160Y608850D01*
X12016830Y675520D01*
Y595520D01*
G01X12032830Y611520D02*
X12040830Y602190D01*
X12051490Y596850D01*
X12063490Y595520D01*
X12074160Y596850D01*
X12084830Y603520D01*
X12091490Y611520D01*
X12092830Y619520D01*
X12090160Y628850D01*
X12080830Y635520D01*
X12071490Y638190D01*
X12059490D01*
G01X12071490D02*
X12079490Y642190D01*
X12086160Y648850D01*
X12088830Y656850D01*
X12086160Y664850D01*
X12079490Y671520D01*
X12067490Y675520D01*
X12055490Y674190D01*
X12043490Y668850D01*
G01X13334630Y1052640D02*
X13258200Y973600D01*
G01X13235100Y986930D02*
X13311530Y1065970D01*
G01X13326170Y1011330D02*
X13256890Y1051330D01*
G01X13243560Y1028240D02*
X13312840Y988240D01*
G01X13228920Y1082880D02*
X13188920Y1013600D01*
X13210780Y1019450D01*
G01X13242780Y1074880D02*
X13215060Y1090880D01*
G01X13730450Y1042810D02*
X13728680Y1053070D01*
X13724420Y1061690D01*
X13717670Y1068670D01*
X13707100Y1071690D01*
X13697500Y1071070D01*
X13686570Y1068140D01*
X13678930Y1060240D01*
X13652260Y1014050D01*
G01X13646080Y1110000D02*
X13606080Y1040720D01*
X13627940Y1046570D01*
G01X13659940Y1102000D02*
X13632220Y1118000D01*
G01X13579110Y1148670D02*
X13568130Y1134990D01*
X13557340Y1124290D01*
X13546050Y1115410D01*
X13532940Y1106040D01*
X13513700Y1094050D01*
X13559890Y1067380D01*
G01X13588900Y1492700D02*
X13512470Y1413660D01*
G01X13489370Y1426990D02*
X13565800Y1506030D01*
G01X13580440Y1451390D02*
X13511160Y1491390D01*
G01X13497830Y1468300D02*
X13567110Y1428300D01*
G01X13483190Y1522940D02*
X13443190Y1453660D01*
X13465050Y1459510D01*
G01X13497050Y1514940D02*
X13469330Y1530940D01*
G01X13980450Y1492810D02*
X13978680Y1503070D01*
X13974420Y1511690D01*
X13967670Y1518670D01*
X13957100Y1521690D01*
X13947500Y1521070D01*
X13936570Y1518140D01*
X13928930Y1510240D01*
X13902260Y1464050D01*
G01X13896080Y1560000D02*
X13856080Y1490720D01*
X13877940Y1496570D01*
G01X13909940Y1552000D02*
X13882220Y1568000D01*
G01X13815410Y1529600D02*
X13804480Y1526670D01*
X13794390Y1527870D01*
X13784490Y1532050D01*
X13774280Y1541030D01*
X13769530Y1551470D01*
X13771220Y1559730D01*
X13776370Y1565990D01*
X13784320Y1569100D01*
X13814080Y1567310D01*
X13829140Y1569390D01*
X13842740Y1576940D01*
X13851050Y1586000D01*
X13802550Y1614000D01*
G01X17909340Y595890D02*
X17864560Y495470D01*
G01X17838290Y500100D02*
X17883080Y600520D01*
G01X17915520Y554180D02*
X17836740Y568070D01*
G01X17832110Y541810D02*
X17910890Y527920D01*
G01X17799670Y588150D02*
X17785780Y509360D01*
X17804310Y522340D01*
G01X17815420Y585370D02*
X17783910Y590920D01*
G01X17820910Y95410D02*
X17776130Y-5010D01*
G01X17749860Y-380D02*
X17794650Y100040D01*
G01X17827090Y53700D02*
X17748310Y67590D01*
G01X17743680Y41330D02*
X17822460Y27440D01*
G01X17711240Y87670D02*
X17697350Y8880D01*
X17715880Y21860D01*
G01X17726990Y84890D02*
X17695480Y90440D01*
G01X18184090Y236560D02*
X18178910Y245600D01*
X18171960Y252240D01*
X18163230Y256480D01*
X18152270Y255710D01*
X18143460Y251850D01*
X18134190Y245360D01*
X18129720Y235320D01*
X18120450Y182790D01*
G01X18081830Y270840D02*
X18067940Y192050D01*
X18086470Y205030D01*
G01X18097580Y268060D02*
X18066070Y273610D01*
G01X18003050Y284730D02*
X17993630Y285030D01*
X17982430Y282950D01*
X17974700Y277540D01*
X17970460Y268810D01*
X17971460Y259160D01*
X17977950Y249890D01*
X17989070Y243860D01*
X18002200Y241550D01*
X18009620Y237530D01*
X18015030Y229810D01*
X18016030Y220160D01*
X18010470Y211660D01*
X18000120Y206710D01*
X17989160Y205940D01*
X17979120Y210420D01*
X17971080Y218610D01*
X17968760Y228490D01*
X17973010Y237220D01*
X17980730Y242630D01*
X17989070Y243860D01*
X18002200Y241550D01*
X18014720Y243410D01*
X18023980Y249900D01*
X18028230Y258620D01*
X18027230Y268280D01*
X18021820Y276000D01*
X18012010Y281790D01*
X18003050Y284730D01*
G01X18234090Y736560D02*
X18228910Y745600D01*
X18221960Y752240D01*
X18213230Y756480D01*
X18202270Y755710D01*
X18193460Y751850D01*
X18184190Y745360D01*
X18179720Y735320D01*
X18170450Y682790D01*
G01X18150990Y733610D02*
X18140180Y726040D01*
X18131370Y722180D01*
X18120400Y721400D01*
X18111670Y725650D01*
X18106040Y732060D01*
X18102170Y740860D01*
X18102480Y750290D01*
X18105180Y757930D01*
X18111820Y764890D01*
X18120860Y770060D01*
X18130510Y771070D01*
X18140560Y766590D01*
X18148360Y757090D01*
X18151530Y744350D01*
X18150530Y730980D01*
X18144890Y714380D01*
X18139330Y705880D01*
X18131140Y697850D01*
X18120790Y692900D01*
X18111370Y693210D01*
X18102640Y697460D01*
X18097230Y705180D01*
G01X22275960Y1230840D02*
X22268220Y1121160D01*
G01X22241960Y1116530D02*
X22249700Y1226210D01*
G01X22296040Y1193760D02*
X22217250Y1179870D01*
G01X22221880Y1153610D02*
X22300670Y1167500D01*
G01X22175550Y1186050D02*
X22189440Y1107270D01*
X22202420Y1125800D01*
G01X22191300Y1188830D02*
X22159790Y1183280D01*
G01X22364040Y730300D02*
X22356300Y620620D01*
G01X22330040Y615990D02*
X22337780Y725670D01*
G01X22384120Y693220D02*
X22305330Y679330D01*
G01X22309960Y653070D02*
X22388750Y666960D01*
G01X22263630Y685510D02*
X22277520Y606730D01*
X22290500Y625260D01*
G01X22279380Y688290D02*
X22247870Y682740D01*
G01X22689650Y931930D02*
X22681690Y938650D01*
X22672890Y942510D01*
X22663230Y943520D01*
X22653190Y939040D01*
X22646240Y932400D01*
X22639750Y923130D01*
X22638980Y912160D01*
X22648240Y859640D01*
G01X22581830Y929160D02*
X22595720Y850380D01*
X22608700Y868910D01*
G01X22597580Y931940D02*
X22566070Y926390D01*
G01X22526990Y910020D02*
X22516640Y914960D01*
X22505670Y915740D01*
X22495630Y911260D01*
X22487830Y901760D01*
X22483350Y888780D01*
X22482810Y876500D01*
X22485350Y862060D01*
X22490060Y850710D01*
X22498480Y841360D01*
X22507290Y837490D01*
X22516940Y836490D01*
X22526980Y840970D01*
X22533930Y847610D01*
X22537800Y856410D01*
X22538570Y867380D01*
X22534320Y876110D01*
X22526140Y884140D01*
X22517330Y888010D01*
X22507910Y887700D01*
X22497870Y883220D01*
X22491150Y875270D01*
X22485350Y862060D01*
G01X22589650Y1481930D02*
X22581690Y1488650D01*
X22572890Y1492510D01*
X22563230Y1493520D01*
X22553190Y1489040D01*
X22546240Y1482400D01*
X22539750Y1473130D01*
X22538980Y1462160D01*
X22548240Y1409640D01*
G01X22481830Y1479160D02*
X22495720Y1400380D01*
X22508700Y1418910D01*
G01X22497580Y1481940D02*
X22466070Y1476390D01*
G01X22403050Y1465270D02*
X22416940Y1386490D01*
X22429920Y1405020D01*
G01X22418800Y1468050D02*
X22387290Y1462500D01*
G01X24855330Y800000D02*
Y880000D01*
X24890000Y813330D01*
X24924670Y880000D01*
Y800000D01*
G01X24944670Y833330D02*
X24954000Y842670D01*
X24962000Y848000D01*
X24972670Y850670D01*
X24982000Y848000D01*
X24988670Y842670D01*
X24994000Y834670D01*
X24995330Y825330D01*
X24994000Y817330D01*
X24988670Y809330D01*
X24980670Y802670D01*
X24971330Y800000D01*
X24960670Y802670D01*
X24951330Y810660D01*
X24946000Y822670D01*
X24944670Y836000D01*
X24947330Y853330D01*
X24951330Y862670D01*
X24958000Y872000D01*
X24967330Y878670D01*
X24976670Y880000D01*
X24986000Y877330D01*
X24992670Y870670D01*
G01X25809430Y1159430D02*
X25752860Y1216000D01*
X25776430Y1239570D01*
X25786800Y1244280D01*
X25795290Y1245220D01*
X25804710Y1239570D01*
X25810370Y1230140D01*
X25809430Y1219770D01*
X25805660Y1210340D01*
X25782090Y1186770D01*
G01X25805660Y1210340D02*
X25847140Y1197140D01*
G01X25863170Y1213170D02*
X25806600Y1269740D01*
X25906540Y1256540D01*
X25849970Y1313110D01*
G01X25941420Y1291420D02*
X25884850Y1347990D01*
Y1325370D01*
G01X25930110Y1280110D02*
X25952740Y1302740D01*
G01X26162070Y3320960D02*
X26192310Y3215250D01*
G01X26169210Y3201910D02*
X26138980Y3307620D01*
G01X26193620Y3292980D02*
X26124330Y3252980D01*
G01X26137670Y3229890D02*
X26206950Y3269890D01*
G01X26083030Y3244530D02*
X26123030Y3175250D01*
X26128890Y3197100D01*
G01X26096890Y3252530D02*
X26069170Y3236530D01*
G01X26847170Y950880D02*
X26838690Y948050D01*
X26830200Y943340D01*
X26822660Y935800D01*
X26817000Y924480D01*
X26815120Y913170D01*
X26816060Y902800D01*
X26821710Y889600D01*
X26829260Y880170D01*
X26839630Y873570D01*
X26848110Y870740D01*
X26859430D01*
X26869800Y873570D01*
X26878280Y878280D01*
X26884880Y884880D01*
X26889600Y893370D01*
X26892430Y901850D01*
X26893370Y910340D01*
G01X26902800Y925430D02*
X26915060Y924480D01*
X26926370Y928250D01*
X26935800Y935800D01*
X26942400Y944280D01*
X26945230Y956540D01*
X26944280Y966910D01*
X26939570Y973510D01*
X26931080Y978220D01*
X26919770Y976340D01*
X26911280Y971620D01*
X26902800Y963140D01*
G01X26911280Y971620D02*
X26914110Y980110D01*
Y989540D01*
X26910340Y997080D01*
X26902800Y1000850D01*
X26893370D01*
X26882060Y995190D01*
X26874510Y985770D01*
X26869800Y973510D01*
G01X26450970Y1964110D02*
X26491510Y1923570D01*
X26503770Y1918850D01*
X26516970Y1920740D01*
X26528280Y1928280D01*
X26535830Y1939600D01*
X26537710Y1952800D01*
X26533000Y1965050D01*
X26492460Y2005590D01*
G01X26584850Y1984850D02*
X26528280Y2041420D01*
Y2018800D01*
G01X26573540Y1973540D02*
X26596170Y1996170D01*
G01X26416040Y2880740D02*
X26446280Y2775030D01*
G01X26423180Y2761690D02*
X26392950Y2867400D01*
G01X26447590Y2852760D02*
X26378300Y2812760D01*
G01X26391640Y2789670D02*
X26460920Y2829670D01*
G01X26337000Y2804310D02*
X26377000Y2735030D01*
X26382860Y2756880D01*
G01X26350860Y2812310D02*
X26323140Y2796310D01*
G01X26646450Y3179480D02*
X26636680Y3183070D01*
X26627090Y3183690D01*
X26617670Y3181330D01*
X26609760Y3173690D01*
X26605500Y3165070D01*
X26602570Y3154140D01*
X26605600Y3143570D01*
X26632260Y3097380D01*
G01X26601350Y3094930D02*
X26598420Y3084000D01*
X26592340Y3075870D01*
X26583770Y3069380D01*
X26570890Y3065030D01*
X26559470Y3066130D01*
X26553160Y3071730D01*
X26550320Y3079330D01*
X26551600Y3087760D01*
X26568030Y3112640D01*
X26573760Y3126730D01*
X26574020Y3142280D01*
X26570330Y3154000D01*
X26521830Y3126000D01*
G01X26516800Y3030720D02*
X26524700Y3038360D01*
X26528300Y3048130D01*
X26528920Y3057730D01*
X26527050Y3068970D01*
X26522200Y3080030D01*
X26515050Y3089750D01*
X26506250Y3096990D01*
X26497630Y3101250D01*
X26487370Y3103030D01*
X26476800Y3100000D01*
X26468900Y3092360D01*
X26465300Y3082590D01*
X26464680Y3072990D01*
X26466550Y3061750D01*
X26471400Y3050690D01*
X26478550Y3040970D01*
X26487350Y3033730D01*
X26495970Y3029470D01*
X26506230Y3027690D01*
X26516800Y3030720D01*
G01X26396450Y3629480D02*
X26386680Y3633070D01*
X26377090Y3633690D01*
X26367670Y3631330D01*
X26359760Y3623690D01*
X26355500Y3615070D01*
X26352570Y3604140D01*
X26355600Y3593570D01*
X26382260Y3547380D01*
G01X26298390Y3591330D02*
X26304750Y3574990D01*
X26308610Y3560290D01*
X26310660Y3546070D01*
X26312220Y3530040D01*
X26312980Y3507380D01*
X26359170Y3534050D01*
G01X27497170Y1550880D02*
X27488690Y1548050D01*
X27480200Y1543340D01*
X27472660Y1535800D01*
X27467000Y1524480D01*
X27465120Y1513170D01*
X27466060Y1502800D01*
X27471710Y1489600D01*
X27479260Y1480170D01*
X27489630Y1473570D01*
X27498110Y1470740D01*
X27509430D01*
X27519800Y1473570D01*
X27528280Y1478280D01*
X27534880Y1484880D01*
X27539600Y1493370D01*
X27542430Y1501850D01*
X27543370Y1510340D01*
G01X27519800Y1564080D02*
Y1575390D01*
X27523570Y1584820D01*
X27530170Y1593310D01*
X27541480Y1600850D01*
X27552800Y1602740D01*
X27560340Y1598970D01*
X27565060Y1592360D01*
X27566000Y1583880D01*
X27556570Y1555600D01*
X27554680Y1540510D01*
X27558460Y1525420D01*
X27565060Y1515060D01*
X27604650Y1554650D01*
G01X27639540Y1589540D02*
X27629170Y1603680D01*
X27621630Y1616880D01*
X27615970Y1630080D01*
X27610310Y1645160D01*
X27603710Y1666850D01*
X27566000Y1629140D01*
G01X27409430Y2759430D02*
X27352860Y2816000D01*
X27376430Y2839570D01*
X27386800Y2844280D01*
X27395290Y2845220D01*
X27404710Y2839570D01*
X27410370Y2830140D01*
X27409430Y2819770D01*
X27405660Y2810340D01*
X27382090Y2786770D01*
G01X27405660Y2810340D02*
X27447140Y2797140D01*
G01X27463170Y2813170D02*
X27406600Y2869740D01*
X27506540Y2856540D01*
X27449970Y2913110D01*
G01X27552740Y2902740D02*
X27496170Y2959310D01*
X27501830Y2883880D01*
X27548970Y2931020D01*
G01X28397170Y2400880D02*
X28388690Y2398050D01*
X28380200Y2393340D01*
X28372660Y2385800D01*
X28367000Y2374480D01*
X28365120Y2363170D01*
X28366060Y2352800D01*
X28371710Y2339600D01*
X28379260Y2330170D01*
X28389630Y2323570D01*
X28398110Y2320740D01*
X28409430D01*
X28419800Y2323570D01*
X28428280Y2328280D01*
X28434880Y2334880D01*
X28439600Y2343370D01*
X28442430Y2351850D01*
X28443370Y2360340D01*
G01X28419800Y2414080D02*
Y2425390D01*
X28423570Y2434820D01*
X28430170Y2443310D01*
X28441480Y2450850D01*
X28452800Y2452740D01*
X28460340Y2448970D01*
X28465060Y2442360D01*
X28466000Y2433880D01*
X28456570Y2405600D01*
X28454680Y2390510D01*
X28458460Y2375420D01*
X28465060Y2365060D01*
X28504650Y2404650D01*
G01X28552740Y2452740D02*
X28496170Y2509310D01*
X28501830Y2433880D01*
X28548970Y2481020D01*
G01X28000970Y3464110D02*
X28041510Y3423570D01*
X28053770Y3418850D01*
X28066970Y3420740D01*
X28078280Y3428280D01*
X28085830Y3439600D01*
X28087710Y3452800D01*
X28083000Y3465050D01*
X28042460Y3505590D01*
G01X28146170Y3496170D02*
X28089600Y3552740D01*
X28095260Y3477310D01*
X28142400Y3524450D01*
G01X29047170Y3150880D02*
X29038690Y3148050D01*
X29030200Y3143340D01*
X29022660Y3135800D01*
X29017000Y3124480D01*
X29015120Y3113170D01*
X29016060Y3102800D01*
X29021710Y3089600D01*
X29029260Y3080170D01*
X29039630Y3073570D01*
X29048110Y3070740D01*
X29059430D01*
X29069800Y3073570D01*
X29078280Y3078280D01*
X29084880Y3084880D01*
X29089600Y3093370D01*
X29092430Y3101850D01*
X29093370Y3110340D01*
G01X29102800Y3125430D02*
X29115060Y3124480D01*
X29126370Y3128250D01*
X29135800Y3135800D01*
X29142400Y3144280D01*
X29145230Y3156540D01*
X29144280Y3166910D01*
X29139570Y3173510D01*
X29131080Y3178220D01*
X29119770Y3176340D01*
X29111280Y3171620D01*
X29102800Y3163140D01*
G01X29111280Y3171620D02*
X29114110Y3180110D01*
Y3189540D01*
X29110340Y3197080D01*
X29102800Y3200850D01*
X29093370D01*
X29082060Y3195190D01*
X29074510Y3185770D01*
X29069800Y3173510D01*
G01X29162200Y3179170D02*
X29172570Y3180110D01*
X29182000Y3183880D01*
X29191420Y3191420D01*
X29198030Y3201800D01*
X29200850Y3212160D01*
X29198970Y3223480D01*
X29192370Y3231960D01*
X29182940Y3237620D01*
X29173510D01*
X29163140Y3234790D01*
X29155600Y3229140D01*
X29149940Y3221590D01*
X29145230Y3209340D01*
X29123540Y3236680D01*
X29149000Y3262130D01*
G01X29098960Y6614170D02*
X29163530Y6525180D01*
G01X29146390Y6504750D02*
X29081820Y6593740D01*
G01X29138170Y6598670D02*
X29086750Y6537390D01*
G01X29107180Y6520250D02*
X29158600Y6581530D01*
G01X29050830Y6515320D02*
X29112110Y6463900D01*
X29110140Y6486440D01*
G01X29061110Y6527580D02*
X29040550Y6503060D01*
G01X29153690Y6929500D02*
X29143270Y6929540D01*
X29134050Y6926840D01*
X29126000Y6921400D01*
X29121190Y6911520D01*
X29120130Y6901960D01*
X29121120Y6890690D01*
X29127570Y6881790D01*
X29168430Y6847510D01*
G01X29103980Y6870260D02*
X29091690Y6870140D01*
X29080750Y6865390D01*
X29072010Y6857060D01*
X29066180Y6848030D01*
X29064420Y6835570D01*
X29066270Y6825320D01*
X29071540Y6819160D01*
X29080400Y6815200D01*
X29091510Y6818070D01*
X29099550Y6823500D01*
X29107270Y6832700D01*
G01X29099550Y6823500D02*
X29097480Y6814800D01*
X29098300Y6805410D01*
X29102710Y6798230D01*
X29110550Y6795130D01*
X29119950Y6795950D01*
X29130720Y6802570D01*
X29137420Y6812620D01*
X29141040Y6825240D01*
G01X29119590Y19492940D02*
X29114360Y19483940D01*
X29112080Y19474600D01*
X29112770Y19464920D01*
X29118920Y19455810D01*
X29126670Y19450110D01*
X29136920Y19445330D01*
X29147860Y19446470D01*
X29197980Y19464720D01*
G01X29141040Y19387230D02*
X29145490Y19378920D01*
X29152890Y19370260D01*
X29161440Y19366280D01*
X29171120Y19366960D01*
X29178980Y19372660D01*
X29183760Y19382920D01*
X29183420Y19395560D01*
X29178850Y19408090D01*
X29178620Y19416520D01*
X29182610Y19425070D01*
X29190470Y19430760D01*
X29200610Y19430190D01*
X29210060Y19423710D01*
X29216220Y19414600D01*
X29217360Y19403660D01*
X29214290Y19392610D01*
X29206880Y19385660D01*
X29197200Y19384970D01*
X29188660Y19388950D01*
X29183420Y19395560D01*
X29178850Y19408090D01*
X29170990Y19418000D01*
X29160740Y19422780D01*
X29151060Y19422090D01*
X29143190Y19416390D01*
X29139210Y19407850D01*
X29139100Y19396460D01*
X29141040Y19387230D01*
G01X29609430Y3809430D02*
X29552860Y3866000D01*
X29576430Y3889570D01*
X29586800Y3894280D01*
X29595290Y3895220D01*
X29604710Y3889570D01*
X29610370Y3880140D01*
X29609430Y3869770D01*
X29605660Y3860340D01*
X29582090Y3836770D01*
G01X29605660Y3860340D02*
X29647140Y3847140D01*
G01X29663170Y3863170D02*
X29606600Y3919740D01*
X29706540Y3906540D01*
X29649970Y3963110D01*
G01X29676370Y3970650D02*
Y3981960D01*
X29680140Y3991390D01*
X29686740Y3999880D01*
X29698050Y4007420D01*
X29709370Y4009310D01*
X29716910Y4005540D01*
X29721630Y3998930D01*
X29722570Y3990450D01*
X29713140Y3962170D01*
X29711250Y3947080D01*
X29715030Y3931990D01*
X29721630Y3921630D01*
X29761220Y3961220D01*
G01X29650970Y5114110D02*
X29691510Y5073570D01*
X29703770Y5068850D01*
X29716970Y5070740D01*
X29728280Y5078280D01*
X29735830Y5089600D01*
X29737710Y5102800D01*
X29733000Y5115050D01*
X29692460Y5155590D01*
G01X29752800Y5125430D02*
X29765060Y5124480D01*
X29776370Y5128250D01*
X29785800Y5135800D01*
X29792400Y5144280D01*
X29795230Y5156540D01*
X29794280Y5166910D01*
X29789570Y5173510D01*
X29781080Y5178220D01*
X29769770Y5176340D01*
X29761280Y5171620D01*
X29752800Y5163140D01*
G01X29761280Y5171620D02*
X29764110Y5180110D01*
Y5189540D01*
X29760340Y5197080D01*
X29752800Y5200850D01*
X29743370D01*
X29732060Y5195190D01*
X29724510Y5185770D01*
X29719800Y5173510D01*
G01X29890570Y5859430D02*
X29834000Y5802860D01*
X29810430Y5826430D01*
X29805720Y5836800D01*
X29804780Y5845290D01*
X29810430Y5854710D01*
X29819860Y5860370D01*
X29830230Y5859430D01*
X29839660Y5855660D01*
X29863230Y5832090D01*
G01X29839660Y5855660D02*
X29852860Y5897140D01*
G01X29815150Y5934850D02*
X29758580Y5878280D01*
X29781200D01*
G01X29826460Y5923540D02*
X29803830Y5946170D01*
G01X29768010Y5968800D02*
X29766120Y5980110D01*
X29760460Y5989540D01*
X29751030Y5995200D01*
X29738780Y5996140D01*
X29725580Y5992370D01*
X29715210Y5985770D01*
X29704840Y5975400D01*
X29698240Y5965030D01*
X29695410Y5952770D01*
X29697290Y5943340D01*
X29702010Y5934850D01*
X29711440Y5929200D01*
X29720860Y5927310D01*
X29730290Y5929200D01*
X29739720Y5934860D01*
X29744430Y5943340D01*
X29746320Y5954650D01*
X29744430Y5964080D01*
X29738780Y5971630D01*
X29729350Y5977280D01*
X29718980Y5978230D01*
X29704840Y5975400D01*
G01X29488170Y6287350D02*
X29552740Y6198360D01*
G01X29535600Y6177930D02*
X29471030Y6266920D01*
G01X29527380Y6271850D02*
X29475960Y6210570D01*
G01X29496390Y6193430D02*
X29547810Y6254710D01*
G01X29440040Y6188500D02*
X29501320Y6137080D01*
X29499350Y6159620D01*
G01X29450320Y6200760D02*
X29429760Y6176240D01*
G01X29603690Y6679500D02*
X29593270Y6679540D01*
X29584050Y6676840D01*
X29576000Y6671400D01*
X29571190Y6661520D01*
X29570130Y6651960D01*
X29571120Y6640690D01*
X29577570Y6631790D01*
X29618430Y6597510D01*
G01X29590220Y6584630D02*
X29591210Y6573360D01*
X29588270Y6563640D01*
X29582440Y6554610D01*
X29571820Y6546110D01*
X29560720Y6543250D01*
X29552880Y6546350D01*
X29547600Y6552510D01*
X29545930Y6560880D01*
X29552850Y6589880D01*
X29553420Y6605070D01*
X29548340Y6619770D01*
X29540870Y6629530D01*
X29504870Y6586630D01*
G01X29471450Y6546800D02*
X29532730Y6495380D01*
X29530760Y6517920D01*
G01X29481730Y6559060D02*
X29461170Y6534540D01*
G01X29481780Y19313810D02*
X29591140Y19325240D01*
G01X29600260Y19300180D02*
X29490900Y19288750D01*
G01X29514810Y19340020D02*
X29542170Y19264840D01*
G01X29567230Y19273960D02*
X29539870Y19349140D01*
G01X29543320Y19222690D02*
X29618500Y19250060D01*
X29597990Y19259620D01*
G01X29537850Y19237730D02*
X29548790Y19207660D01*
G01X29619590Y19742940D02*
X29614360Y19733940D01*
X29612080Y19724600D01*
X29612770Y19714920D01*
X29618920Y19705810D01*
X29626670Y19700110D01*
X29636920Y19695330D01*
X29647860Y19696470D01*
X29697980Y19714720D01*
G01X29695020Y19683840D02*
X29705270Y19679060D01*
X29712230Y19671660D01*
X29717130Y19662090D01*
X29719180Y19648650D01*
X29716110Y19637600D01*
X29709510Y19632350D01*
X29701530Y19630870D01*
X29693440Y19633600D01*
X29671790Y19654100D01*
X29658920Y19662180D01*
X29643650Y19665140D01*
X29631460Y19663540D01*
X29650620Y19610920D01*
G01X29673870Y19547020D02*
X29749050Y19574380D01*
X29678300Y19601130D01*
X29701100Y19538480D01*
G01X30097170Y4100880D02*
X30088690Y4098050D01*
X30080200Y4093340D01*
X30072660Y4085800D01*
X30067000Y4074480D01*
X30065120Y4063170D01*
X30066060Y4052800D01*
X30071710Y4039600D01*
X30079260Y4030170D01*
X30089630Y4023570D01*
X30098110Y4020740D01*
X30109430D01*
X30119800Y4023570D01*
X30128280Y4028280D01*
X30134880Y4034880D01*
X30139600Y4043370D01*
X30142430Y4051850D01*
X30143370Y4060340D01*
G01X30155630Y4072600D02*
X30166000Y4073540D01*
X30175430Y4077310D01*
X30184850Y4084850D01*
X30191460Y4095230D01*
X30194280Y4105590D01*
X30192400Y4116910D01*
X30185800Y4125390D01*
X30176370Y4131050D01*
X30166940D01*
X30156570Y4128220D01*
X30149030Y4122570D01*
X30143370Y4115020D01*
X30138660Y4102770D01*
X30116970Y4130110D01*
X30142430Y4155560D01*
G01X30497170Y6300880D02*
X30488690Y6298050D01*
X30480200Y6293340D01*
X30472660Y6285800D01*
X30467000Y6274480D01*
X30465120Y6263170D01*
X30466060Y6252800D01*
X30471710Y6239600D01*
X30479260Y6230170D01*
X30489630Y6223570D01*
X30498110Y6220740D01*
X30509430D01*
X30519800Y6223570D01*
X30528280Y6228280D01*
X30534880Y6234880D01*
X30539600Y6243370D01*
X30542430Y6251850D01*
X30543370Y6260340D01*
G01X30584850Y6284850D02*
X30528280Y6341420D01*
Y6318800D01*
G01X30573540Y6273540D02*
X30596170Y6296170D01*
G01X30618800Y6331990D02*
X30630110Y6333880D01*
X30639540Y6339540D01*
X30645200Y6348970D01*
X30646140Y6361220D01*
X30642370Y6374420D01*
X30635770Y6384790D01*
X30625400Y6395160D01*
X30615030Y6401760D01*
X30602770Y6404590D01*
X30593340Y6402710D01*
X30584850Y6397990D01*
X30579200Y6388560D01*
X30577310Y6379140D01*
X30579200Y6369710D01*
X30584860Y6360280D01*
X30593340Y6355570D01*
X30604650Y6353680D01*
X30614080Y6355570D01*
X30621630Y6361220D01*
X30627280Y6370650D01*
X30628230Y6381020D01*
X30625400Y6395160D01*
G01X30197170Y6000880D02*
X30188690Y5998050D01*
X30180200Y5993340D01*
X30172660Y5985800D01*
X30167000Y5974480D01*
X30165120Y5963170D01*
X30166060Y5952800D01*
X30171710Y5939600D01*
X30179260Y5930170D01*
X30189630Y5923570D01*
X30198110Y5920740D01*
X30209430D01*
X30219800Y5923570D01*
X30228280Y5928280D01*
X30234880Y5934880D01*
X30239600Y5943370D01*
X30242430Y5951850D01*
X30243370Y5960340D01*
G01X30219800Y6014080D02*
Y6025390D01*
X30223570Y6034820D01*
X30230170Y6043310D01*
X30241480Y6050850D01*
X30252800Y6052740D01*
X30260340Y6048970D01*
X30265060Y6042360D01*
X30266000Y6033880D01*
X30256570Y6005600D01*
X30254680Y5990510D01*
X30258460Y5975420D01*
X30265060Y5965060D01*
X30304650Y6004650D01*
G01X30312200Y6029170D02*
X30322570Y6030110D01*
X30332000Y6033880D01*
X30341420Y6041420D01*
X30348030Y6051800D01*
X30350850Y6062160D01*
X30348970Y6073480D01*
X30342370Y6081960D01*
X30332940Y6087620D01*
X30323510D01*
X30313140Y6084790D01*
X30305600Y6079140D01*
X30299940Y6071590D01*
X30295230Y6059340D01*
X30273540Y6086680D01*
X30299000Y6112130D01*
G01X30213330Y19200000D02*
Y19280000D01*
X30246670D01*
X30257330Y19276000D01*
X30264000Y19270670D01*
X30266670Y19260000D01*
X30264000Y19249330D01*
X30256000Y19242670D01*
X30246670Y19238670D01*
X30213330D01*
G01X30246670D02*
X30266670Y19200000D01*
G01X30320000D02*
Y19280000D01*
X30304000Y19264000D01*
G01Y19200000D02*
X30336000D01*
G01X30370670Y19216000D02*
X30378670Y19206670D01*
X30389330Y19201330D01*
X30401330Y19200000D01*
X30412000Y19201330D01*
X30422670Y19208000D01*
X30429330Y19216000D01*
X30430670Y19224000D01*
X30428000Y19233330D01*
X30418670Y19240000D01*
X30409330Y19242670D01*
X30397330D01*
G01X30409330D02*
X30417330Y19246670D01*
X30424000Y19253330D01*
X30426670Y19261330D01*
X30424000Y19269330D01*
X30417330Y19276000D01*
X30405330Y19280000D01*
X30393330Y19278670D01*
X30381330Y19273330D01*
G01X30263330Y19050000D02*
Y19130000D01*
X30296670D01*
X30307330Y19126000D01*
X30314000Y19120670D01*
X30316670Y19110000D01*
X30314000Y19099330D01*
X30306000Y19092670D01*
X30296670Y19088670D01*
X30263330D01*
G01X30296670D02*
X30316670Y19050000D01*
G01X30370000D02*
Y19130000D01*
X30354000Y19114000D01*
G01Y19050000D02*
X30386000D01*
G01X30447330D02*
X30450000Y19067330D01*
X30454000Y19082000D01*
X30459330Y19095330D01*
X30466000Y19110000D01*
X30476670Y19130000D01*
X30423330D01*
G01X29959420Y19487470D02*
X30068780Y19498900D01*
G01X30077900Y19473840D02*
X29968540Y19462410D01*
G01X29992450Y19513680D02*
X30019810Y19438500D01*
G01X30044870Y19447620D02*
X30017510Y19522800D01*
G01X30020960Y19396350D02*
X30096140Y19423720D01*
X30075630Y19433280D01*
G01X30015490Y19411390D02*
X30026430Y19381320D01*
G01X30213330Y19700000D02*
Y19780000D01*
X30246670D01*
X30257330Y19776000D01*
X30264000Y19770670D01*
X30266670Y19760000D01*
X30264000Y19749330D01*
X30256000Y19742670D01*
X30246670Y19738670D01*
X30213330D01*
G01X30246670D02*
X30266670Y19700000D01*
G01X30320000D02*
Y19780000D01*
X30304000Y19764000D01*
G01Y19700000D02*
X30336000D01*
G01X30416000D02*
Y19780000D01*
X30366670Y19722670D01*
X30433330D01*
G01X30747170Y4750880D02*
X30738690Y4748050D01*
X30730200Y4743340D01*
X30722660Y4735800D01*
X30717000Y4724480D01*
X30715120Y4713170D01*
X30716060Y4702800D01*
X30721710Y4689600D01*
X30729260Y4680170D01*
X30739630Y4673570D01*
X30748110Y4670740D01*
X30759430D01*
X30769800Y4673570D01*
X30778280Y4678280D01*
X30784880Y4684880D01*
X30789600Y4693370D01*
X30792430Y4701850D01*
X30793370Y4710340D01*
G01X30769800Y4764080D02*
Y4775390D01*
X30773570Y4784820D01*
X30780170Y4793310D01*
X30791480Y4800850D01*
X30802800Y4802740D01*
X30810340Y4798970D01*
X30815060Y4792360D01*
X30816000Y4783880D01*
X30806570Y4755600D01*
X30804680Y4740510D01*
X30808460Y4725420D01*
X30815060Y4715060D01*
X30854650Y4754650D01*
G01X30868800Y4781990D02*
X30880110Y4783880D01*
X30889540Y4789540D01*
X30895200Y4798970D01*
X30896140Y4811220D01*
X30892370Y4824420D01*
X30885770Y4834790D01*
X30875400Y4845160D01*
X30865030Y4851760D01*
X30852770Y4854590D01*
X30843340Y4852710D01*
X30834850Y4847990D01*
X30829200Y4838560D01*
X30827310Y4829140D01*
X30829200Y4819710D01*
X30834860Y4810280D01*
X30843340Y4805570D01*
X30854650Y4803680D01*
X30864080Y4805570D01*
X30871630Y4811220D01*
X30877280Y4820650D01*
X30878230Y4831020D01*
X30875400Y4845160D01*
G01X31200970Y5314110D02*
X31241510Y5273570D01*
X31253770Y5268850D01*
X31266970Y5270740D01*
X31278280Y5278280D01*
X31285830Y5289600D01*
X31287710Y5302800D01*
X31283000Y5315050D01*
X31242460Y5355590D01*
G01X31305630Y5322600D02*
X31316000Y5323540D01*
X31325430Y5327310D01*
X31334850Y5334850D01*
X31341460Y5345230D01*
X31344280Y5355590D01*
X31342400Y5366910D01*
X31335800Y5375390D01*
X31326370Y5381050D01*
X31316940D01*
X31306570Y5378220D01*
X31299030Y5372570D01*
X31293370Y5365020D01*
X31288660Y5352770D01*
X31266970Y5380110D01*
X31292430Y5405560D01*
G01X30732380Y10713250D02*
X30823500Y10651710D01*
G01X30814370Y10626650D02*
X30723260Y10688190D01*
G01X30774530Y10712100D02*
X30747170Y10636920D01*
G01X30772220Y10627800D02*
X30799590Y10702980D01*
G01X30720960Y10603890D02*
X30796140Y10576530D01*
X30786570Y10597040D01*
G01X30726430Y10618930D02*
X30715490Y10588860D01*
G01X31209900Y10539260D02*
X31301020Y10477720D01*
G01X31291890Y10452660D02*
X31200780Y10514200D01*
G01X31252050Y10538110D02*
X31224690Y10462930D01*
G01X31249740Y10453810D02*
X31277110Y10528990D01*
G01X31198480Y10429900D02*
X31273660Y10402540D01*
X31264090Y10423050D01*
G01X31203950Y10444940D02*
X31193010Y10414870D01*
G01X31160470Y10932000D02*
X31150680Y10928470D01*
X31142930Y10922780D01*
X31137230Y10914920D01*
X31136090Y10903980D01*
X31138360Y10894640D01*
X31143140Y10884390D01*
X31152260Y10878230D01*
X31202370Y10859990D01*
G01X31180270Y10838240D02*
X31185050Y10827980D01*
X31185620Y10817840D01*
X31183220Y10807360D01*
X31176160Y10795750D01*
X31166700Y10789260D01*
X31158270Y10789490D01*
X31151210Y10793480D01*
X31146770Y10800770D01*
X31143360Y10830390D01*
X31138690Y10844860D01*
X31128900Y10856940D01*
X31118540Y10863540D01*
X31099380Y10810920D01*
G01X31152910Y10763060D02*
X31157690Y10752800D01*
X31158260Y10742660D01*
X31155860Y10732180D01*
X31148800Y10720570D01*
X31139340Y10714080D01*
X31130910Y10714310D01*
X31123850Y10718300D01*
X31119410Y10725590D01*
X31116000Y10755210D01*
X31111330Y10769680D01*
X31101540Y10781760D01*
X31091180Y10788360D01*
X31072020Y10735740D01*
G01X30660470Y11032000D02*
X30650680Y11028470D01*
X30642930Y11022780D01*
X30637230Y11014920D01*
X30636090Y11003980D01*
X30638360Y10994640D01*
X30643140Y10984390D01*
X30652260Y10978230D01*
X30702370Y10959990D01*
G01X30625480Y10955340D02*
X30616030Y10948850D01*
X30609870Y10939740D01*
X30608730Y10928800D01*
X30613050Y10917300D01*
X30622050Y10906930D01*
X30632410Y10900320D01*
X30646200Y10895300D01*
X30658380Y10893700D01*
X30670690Y10896320D01*
X30678440Y10902010D01*
X30684140Y10909870D01*
X30685280Y10920810D01*
X30683000Y10930150D01*
X30677310Y10937900D01*
X30668200Y10944050D01*
X30658510Y10944740D01*
X30647460Y10941660D01*
X30639710Y10935970D01*
X30635270Y10927660D01*
X30634130Y10916720D01*
X30637660Y10906920D01*
X30646200Y10895300D01*
G01X30865330Y15123790D02*
X30972000Y15097120D01*
G01Y15070450D02*
X30865330Y15097120D01*
G01X30905330Y15137120D02*
Y15057120D01*
G01X30932000D02*
Y15137120D01*
G01X30892000Y15017120D02*
X30972000D01*
X30956000Y15033120D01*
G01X30892000D02*
Y15001120D01*
G01X30666000Y15386670D02*
X30658000Y15380000D01*
X30652670Y15372000D01*
X30650000Y15362670D01*
X30652670Y15352000D01*
X30658000Y15344000D01*
X30666000Y15336000D01*
X30676670Y15333330D01*
X30730000D01*
G01X30716670Y15305330D02*
X30724670Y15297330D01*
X30728670Y15288000D01*
X30730000Y15277330D01*
X30727330Y15264000D01*
X30720670Y15254670D01*
X30712670Y15252000D01*
X30704660Y15253330D01*
X30698000Y15258670D01*
X30684670Y15285330D01*
X30675330Y15297330D01*
X30662000Y15305330D01*
X30650000Y15308000D01*
Y15252000D01*
G01X31166000Y15486670D02*
X31158000Y15480000D01*
X31152670Y15472000D01*
X31150000Y15462670D01*
X31152670Y15452000D01*
X31158000Y15444000D01*
X31166000Y15436000D01*
X31176670Y15433330D01*
X31230000D01*
G01X31216670Y15405330D02*
X31224670Y15397330D01*
X31228670Y15388000D01*
X31230000Y15377330D01*
X31227330Y15364000D01*
X31220670Y15354670D01*
X31212670Y15352000D01*
X31204660Y15353330D01*
X31198000Y15358670D01*
X31184670Y15385330D01*
X31175330Y15397330D01*
X31162000Y15405330D01*
X31150000Y15408000D01*
Y15352000D01*
G01X31166000Y15329330D02*
X31156670Y15321330D01*
X31151330Y15310670D01*
X31150000Y15298670D01*
X31151330Y15288000D01*
X31158000Y15277330D01*
X31166000Y15270670D01*
X31174000Y15269330D01*
X31183330Y15272000D01*
X31190000Y15281330D01*
X31192670Y15290670D01*
Y15302670D01*
G01Y15290670D02*
X31196670Y15282670D01*
X31203330Y15276000D01*
X31211330Y15273330D01*
X31219330Y15276000D01*
X31226000Y15282670D01*
X31230000Y15294670D01*
X31228670Y15306670D01*
X31223330Y15318670D01*
G01X30663330Y18500000D02*
Y18580000D01*
X30696670D01*
X30707330Y18576000D01*
X30714000Y18570670D01*
X30716670Y18560000D01*
X30714000Y18549330D01*
X30706000Y18542670D01*
X30696670Y18538670D01*
X30663330D01*
G01X30696670D02*
X30716670Y18500000D01*
G01X30744670Y18566670D02*
X30752670Y18574670D01*
X30762000Y18578670D01*
X30772670Y18580000D01*
X30786000Y18577330D01*
X30795330Y18570670D01*
X30798000Y18562670D01*
X30796670Y18554660D01*
X30791330Y18548000D01*
X30764670Y18534670D01*
X30752670Y18525330D01*
X30744670Y18512000D01*
X30742000Y18500000D01*
X30798000D01*
G01X30850000Y18580000D02*
X30839330Y18577330D01*
X30831330Y18570670D01*
X30826000Y18562670D01*
X30822000Y18552000D01*
X30820670Y18540000D01*
X30822000Y18528000D01*
X30826000Y18517330D01*
X30831330Y18509330D01*
X30839330Y18502670D01*
X30850000Y18500000D01*
X30860670Y18502670D01*
X30868670Y18509330D01*
X30874000Y18517330D01*
X30878000Y18528000D01*
X30879330Y18540000D01*
X30878000Y18552000D01*
X30874000Y18562670D01*
X30868670Y18570670D01*
X30860670Y18577330D01*
X30850000Y18580000D01*
G01X30963330Y19350000D02*
Y19430000D01*
X30996670D01*
X31007330Y19426000D01*
X31014000Y19420670D01*
X31016670Y19410000D01*
X31014000Y19399330D01*
X31006000Y19392670D01*
X30996670Y19388670D01*
X30963330D01*
G01X30996670D02*
X31016670Y19350000D01*
G01X31070000D02*
Y19430000D01*
X31054000Y19414000D01*
G01Y19350000D02*
X31086000D01*
G01X31150000D02*
X31159330Y19351330D01*
X31170000Y19355330D01*
X31176670Y19362000D01*
X31179330Y19371330D01*
X31176670Y19380660D01*
X31168670Y19388670D01*
X31156670Y19392670D01*
X31143330D01*
X31135330Y19395330D01*
X31128670Y19402000D01*
X31126000Y19411330D01*
X31130000Y19420670D01*
X31139330Y19427330D01*
X31150000Y19430000D01*
X31160670Y19427330D01*
X31170000Y19420670D01*
X31174000Y19411330D01*
X31171330Y19402000D01*
X31164670Y19395330D01*
X31156670Y19392670D01*
X31143330D01*
X31131330Y19388670D01*
X31123330Y19380660D01*
X31120670Y19371330D01*
X31123330Y19362000D01*
X31130000Y19355330D01*
X31140670Y19351330D01*
X31150000Y19350000D01*
G01X31010000Y19050000D02*
X30999330Y19051330D01*
X30990000Y19056670D01*
X30982000Y19064670D01*
X30976670Y19074000D01*
X30974000Y19084670D01*
Y19095330D01*
X30976670Y19106000D01*
X30982000Y19115330D01*
X30990000Y19123330D01*
X30999330Y19128670D01*
X31010000Y19130000D01*
X31020670Y19128670D01*
X31030000Y19123330D01*
X31038000Y19115330D01*
X31043330Y19106000D01*
X31046000Y19095330D01*
Y19084670D01*
X31043330Y19074000D01*
X31038000Y19064670D01*
X31030000Y19056670D01*
X31020670Y19051330D01*
X31010000Y19050000D01*
G01X31020670Y19071330D02*
X31036670Y19050000D01*
G01X31060670Y19066000D02*
X31068670Y19056670D01*
X31079330Y19051330D01*
X31091330Y19050000D01*
X31102000Y19051330D01*
X31112670Y19058000D01*
X31119330Y19066000D01*
X31120670Y19074000D01*
X31118000Y19083330D01*
X31108670Y19090000D01*
X31099330Y19092670D01*
X31087330D01*
G01X31099330D02*
X31107330Y19096670D01*
X31114000Y19103330D01*
X31116670Y19111330D01*
X31114000Y19119330D01*
X31107330Y19126000D01*
X31095330Y19130000D01*
X31083330Y19128670D01*
X31071330Y19123330D01*
G01X30910000Y19800000D02*
X30899330Y19801330D01*
X30890000Y19806670D01*
X30882000Y19814670D01*
X30876670Y19824000D01*
X30874000Y19834670D01*
Y19845330D01*
X30876670Y19856000D01*
X30882000Y19865330D01*
X30890000Y19873330D01*
X30899330Y19878670D01*
X30910000Y19880000D01*
X30920670Y19878670D01*
X30930000Y19873330D01*
X30938000Y19865330D01*
X30943330Y19856000D01*
X30946000Y19845330D01*
Y19834670D01*
X30943330Y19824000D01*
X30938000Y19814670D01*
X30930000Y19806670D01*
X30920670Y19801330D01*
X30910000Y19800000D01*
G01X30920670Y19821330D02*
X30936670Y19800000D01*
G01X30990000D02*
Y19880000D01*
X30974000Y19864000D01*
G01Y19800000D02*
X31006000D01*
G01X31909430Y5909430D02*
X31852860Y5966000D01*
X31876430Y5989570D01*
X31886800Y5994280D01*
X31895290Y5995220D01*
X31904710Y5989570D01*
X31910370Y5980140D01*
X31909430Y5969770D01*
X31905660Y5960340D01*
X31882090Y5936770D01*
G01X31905660Y5960340D02*
X31947140Y5947140D01*
G01X31963170Y5963170D02*
X31906600Y6019740D01*
X32006540Y6006540D01*
X31949970Y6063110D01*
G01X32012200Y6029170D02*
X32022570Y6030110D01*
X32032000Y6033880D01*
X32041420Y6041420D01*
X32048030Y6051800D01*
X32050850Y6062160D01*
X32048970Y6073480D01*
X32042370Y6081960D01*
X32032940Y6087620D01*
X32023510D01*
X32013140Y6084790D01*
X32005600Y6079140D01*
X31999940Y6071590D01*
X31995230Y6059340D01*
X31973540Y6086680D01*
X31999000Y6112130D01*
G01X31976670Y9069330D02*
X31972670Y9061330D01*
X31970000Y9052000D01*
Y9041330D01*
X31974000Y9029330D01*
X31980670Y9020000D01*
X31988670Y9013330D01*
X32002000Y9008000D01*
X32014000Y9006670D01*
X32026000Y9009330D01*
X32034000Y9013330D01*
X32042000Y9021330D01*
X32047330Y9030670D01*
X32050000Y9040000D01*
Y9049330D01*
X32047330Y9058670D01*
X32043330Y9066670D01*
X32038000Y9073330D01*
G01X32034000Y9090670D02*
X32043330Y9098670D01*
X32048670Y9109330D01*
X32050000Y9121330D01*
X32048670Y9132000D01*
X32042000Y9142670D01*
X32034000Y9149330D01*
X32026000Y9150670D01*
X32016670Y9148000D01*
X32010000Y9138670D01*
X32007330Y9129330D01*
Y9117330D01*
G01Y9129330D02*
X32003330Y9137330D01*
X31996670Y9144000D01*
X31988670Y9146670D01*
X31980670Y9144000D01*
X31974000Y9137330D01*
X31970000Y9125330D01*
X31971330Y9113330D01*
X31976670Y9101330D01*
G01X32034000Y9170670D02*
X32043330Y9178670D01*
X32048670Y9189330D01*
X32050000Y9201330D01*
X32048670Y9212000D01*
X32042000Y9222670D01*
X32034000Y9229330D01*
X32026000Y9230670D01*
X32016670Y9228000D01*
X32010000Y9218670D01*
X32007330Y9209330D01*
Y9197330D01*
G01Y9209330D02*
X32003330Y9217330D01*
X31996670Y9224000D01*
X31988670Y9226670D01*
X31980670Y9224000D01*
X31974000Y9217330D01*
X31970000Y9205330D01*
X31971330Y9193330D01*
X31976670Y9181330D01*
G01Y11669330D02*
X31972670Y11661330D01*
X31970000Y11652000D01*
Y11641330D01*
X31974000Y11629330D01*
X31980670Y11620000D01*
X31988670Y11613330D01*
X32002000Y11608000D01*
X32014000Y11606670D01*
X32026000Y11609330D01*
X32034000Y11613330D01*
X32042000Y11621330D01*
X32047330Y11630670D01*
X32050000Y11640000D01*
Y11649330D01*
X32047330Y11658670D01*
X32043330Y11666670D01*
X32038000Y11673330D01*
G01X32016670Y11694670D02*
X32007330Y11704000D01*
X32002000Y11712000D01*
X31999330Y11722670D01*
X32002000Y11732000D01*
X32007330Y11738670D01*
X32015330Y11744000D01*
X32024670Y11745330D01*
X32032670Y11744000D01*
X32040670Y11738670D01*
X32047330Y11730670D01*
X32050000Y11721330D01*
X32047330Y11710670D01*
X32039340Y11701330D01*
X32027330Y11696000D01*
X32014000Y11694670D01*
X31996670Y11697330D01*
X31987330Y11701330D01*
X31978000Y11708000D01*
X31971330Y11717330D01*
X31970000Y11726670D01*
X31972670Y11736000D01*
X31979330Y11742670D01*
G01X31976670Y12569330D02*
X31972670Y12561330D01*
X31970000Y12552000D01*
Y12541330D01*
X31974000Y12529330D01*
X31980670Y12520000D01*
X31988670Y12513330D01*
X32002000Y12508000D01*
X32014000Y12506670D01*
X32026000Y12509330D01*
X32034000Y12513330D01*
X32042000Y12521330D01*
X32047330Y12530670D01*
X32050000Y12540000D01*
Y12549330D01*
X32047330Y12558670D01*
X32043330Y12566670D01*
X32038000Y12573330D01*
G01X32034000Y12590670D02*
X32043330Y12598670D01*
X32048670Y12609330D01*
X32050000Y12621330D01*
X32048670Y12632000D01*
X32042000Y12642670D01*
X32034000Y12649330D01*
X32026000Y12650670D01*
X32016670Y12648000D01*
X32010000Y12638670D01*
X32007330Y12629330D01*
Y12617330D01*
G01Y12629330D02*
X32003330Y12637330D01*
X31996670Y12644000D01*
X31988670Y12646670D01*
X31980670Y12644000D01*
X31974000Y12637330D01*
X31970000Y12625330D01*
X31971330Y12613330D01*
X31976670Y12601330D01*
G01X32050000Y12700000D02*
X31970000D01*
X31986000Y12684000D01*
G01X32050000D02*
Y12716000D01*
G01X31373560Y15123610D02*
X31480230Y15096940D01*
G01Y15070270D02*
X31373560Y15096940D01*
G01X31413560Y15136940D02*
Y15056940D01*
G01X31440230D02*
Y15136940D01*
G01X31400230Y15016940D02*
X31480230D01*
X31464230Y15032940D01*
G01X31400230D02*
Y15000940D01*
G01X32005330Y18700000D02*
Y18780000D01*
X32040000Y18713330D01*
X32074670Y18780000D01*
Y18700000D01*
G01X32117330D02*
X32120000Y18717330D01*
X32124000Y18732000D01*
X32129330Y18745330D01*
X32136000Y18760000D01*
X32146670Y18780000D01*
X32093330D01*
G01X31313330Y18580000D02*
Y18500000D01*
X31366670D01*
G01X31394670Y18566670D02*
X31402670Y18574670D01*
X31412000Y18578670D01*
X31422670Y18580000D01*
X31436000Y18577330D01*
X31445330Y18570670D01*
X31448000Y18562670D01*
X31446670Y18554660D01*
X31441330Y18548000D01*
X31414670Y18534670D01*
X31402670Y18525330D01*
X31394670Y18512000D01*
X31392000Y18500000D01*
X31448000D01*
G01X31955330Y19650000D02*
Y19730000D01*
X31990000Y19663330D01*
X32024670Y19730000D01*
Y19650000D01*
G01X32070000D02*
Y19730000D01*
X32054000Y19714000D01*
G01Y19650000D02*
X32086000D01*
G01X31313330Y19830000D02*
Y19750000D01*
X31366670D01*
G01X31436000D02*
Y19830000D01*
X31386670Y19772670D01*
X31453330D01*
G01X32126670Y7469330D02*
X32122670Y7461330D01*
X32120000Y7452000D01*
Y7441330D01*
X32124000Y7429330D01*
X32130670Y7420000D01*
X32138670Y7413330D01*
X32152000Y7408000D01*
X32164000Y7406670D01*
X32176000Y7409330D01*
X32184000Y7413330D01*
X32192000Y7421330D01*
X32197330Y7430670D01*
X32200000Y7440000D01*
Y7449330D01*
X32197330Y7458670D01*
X32193330Y7466670D01*
X32188000Y7473330D01*
G01X32200000Y7517330D02*
X32182670Y7520000D01*
X32168000Y7524000D01*
X32154670Y7529330D01*
X32140000Y7536000D01*
X32120000Y7546670D01*
Y7493330D01*
G01X32450000Y7413330D02*
X32370000D01*
Y7446670D01*
X32374000Y7457330D01*
X32379330Y7464000D01*
X32390000Y7466670D01*
X32400670Y7464000D01*
X32407330Y7456000D01*
X32411330Y7446670D01*
Y7413330D01*
G01Y7446670D02*
X32450000Y7466670D01*
G01X32438000Y7490670D02*
X32444670Y7498670D01*
X32448670Y7508000D01*
X32450000Y7520000D01*
X32447330Y7532000D01*
X32442000Y7541330D01*
X32432670Y7548000D01*
X32422000Y7549330D01*
X32411330Y7546670D01*
X32404670Y7540000D01*
X32399330Y7530670D01*
X32398000Y7521330D01*
X32399330Y7512000D01*
X32404670Y7500000D01*
X32370000Y7504000D01*
Y7540000D01*
G01X32450000Y7600000D02*
X32370000D01*
X32386000Y7584000D01*
G01X32450000D02*
Y7616000D01*
G01X32350000Y13363330D02*
X32270000D01*
Y13396670D01*
X32274000Y13407330D01*
X32279330Y13414000D01*
X32290000Y13416670D01*
X32300670Y13414000D01*
X32307330Y13406000D01*
X32311330Y13396670D01*
Y13363330D01*
G01Y13396670D02*
X32350000Y13416670D01*
G01Y13439330D02*
X32270000D01*
X32350000Y13500670D01*
X32270000D01*
G01X32334000Y13520670D02*
X32343330Y13528670D01*
X32348670Y13539330D01*
X32350000Y13551330D01*
X32348670Y13562000D01*
X32342000Y13572670D01*
X32334000Y13579330D01*
X32326000Y13580670D01*
X32316670Y13578000D01*
X32310000Y13568670D01*
X32307330Y13559330D01*
Y13547330D01*
G01Y13559330D02*
X32303330Y13567330D01*
X32296670Y13574000D01*
X32288670Y13576670D01*
X32280670Y13574000D01*
X32274000Y13567330D01*
X32270000Y13555330D01*
X32271330Y13543330D01*
X32276670Y13531330D01*
G01X32213330Y17566000D02*
X32220000Y17558000D01*
X32228000Y17552670D01*
X32237330Y17550000D01*
X32248000Y17552670D01*
X32256000Y17558000D01*
X32264000Y17566000D01*
X32266670Y17576670D01*
Y17630000D01*
G01X32294670Y17616670D02*
X32302670Y17624670D01*
X32312000Y17628670D01*
X32322670Y17630000D01*
X32336000Y17627330D01*
X32345330Y17620670D01*
X32348000Y17612670D01*
X32346670Y17604660D01*
X32341330Y17598000D01*
X32314670Y17584670D01*
X32302670Y17575330D01*
X32294670Y17562000D01*
X32292000Y17550000D01*
X32348000D01*
G01X32370670Y17562000D02*
X32378670Y17555330D01*
X32388000Y17551330D01*
X32400000Y17550000D01*
X32412000Y17552670D01*
X32421330Y17558000D01*
X32428000Y17567330D01*
X32429330Y17578000D01*
X32426670Y17588670D01*
X32420000Y17595330D01*
X32410670Y17600670D01*
X32401330Y17602000D01*
X32392000Y17600670D01*
X32380000Y17595330D01*
X32384000Y17630000D01*
X32420000D01*
G01X33020000Y8360670D02*
X33077330D01*
X33089340Y8366000D01*
X33097330Y8376670D01*
X33100000Y8390000D01*
X33097330Y8403330D01*
X33089340Y8414000D01*
X33077330Y8419330D01*
X33020000D01*
G01X33066670Y8444670D02*
X33057330Y8454000D01*
X33052000Y8462000D01*
X33049330Y8472670D01*
X33052000Y8482000D01*
X33057330Y8488670D01*
X33065330Y8494000D01*
X33074670Y8495330D01*
X33082670Y8494000D01*
X33090670Y8488670D01*
X33097330Y8480670D01*
X33100000Y8471330D01*
X33097330Y8460670D01*
X33089340Y8451330D01*
X33077330Y8446000D01*
X33064000Y8444670D01*
X33046670Y8447330D01*
X33037330Y8451330D01*
X33028000Y8458000D01*
X33021330Y8467330D01*
X33020000Y8476670D01*
X33022670Y8486000D01*
X33029330Y8492670D01*
G01X33050000Y9263330D02*
X32970000D01*
Y9296670D01*
X32974000Y9307330D01*
X32979330Y9314000D01*
X32990000Y9316670D01*
X33000670Y9314000D01*
X33007330Y9306000D01*
X33011330Y9296670D01*
Y9263330D01*
G01Y9296670D02*
X33050000Y9316670D01*
G01Y9339330D02*
X32970000D01*
X33050000Y9400670D01*
X32970000D01*
G01X33016670Y9424670D02*
X33007330Y9434000D01*
X33002000Y9442000D01*
X32999330Y9452670D01*
X33002000Y9462000D01*
X33007330Y9468670D01*
X33015330Y9474000D01*
X33024670Y9475330D01*
X33032670Y9474000D01*
X33040670Y9468670D01*
X33047330Y9460670D01*
X33050000Y9451330D01*
X33047330Y9440670D01*
X33039340Y9431330D01*
X33027330Y9426000D01*
X33014000Y9424670D01*
X32996670Y9427330D01*
X32987330Y9431330D01*
X32978000Y9438000D01*
X32971330Y9447330D01*
X32970000Y9456670D01*
X32972670Y9466000D01*
X32979330Y9472670D01*
G01X32775490Y11009520D02*
Y11089520D01*
X32810160Y11022850D01*
X32844830Y11089520D01*
Y11009520D01*
G01X32890160D02*
X32899490Y11010850D01*
X32910160Y11014850D01*
X32916830Y11021520D01*
X32919490Y11030850D01*
X32916830Y11040180D01*
X32908830Y11048190D01*
X32896830Y11052190D01*
X32883490D01*
X32875490Y11054850D01*
X32868830Y11061520D01*
X32866160Y11070850D01*
X32870160Y11080190D01*
X32879490Y11086850D01*
X32890160Y11089520D01*
X32900830Y11086850D01*
X32910160Y11080190D01*
X32914160Y11070850D01*
X32911490Y11061520D01*
X32904830Y11054850D01*
X32896830Y11052190D01*
X32883490D01*
X32871490Y11048190D01*
X32863490Y11040180D01*
X32860830Y11030850D01*
X32863490Y11021520D01*
X32870160Y11014850D01*
X32880830Y11010850D01*
X32890160Y11009520D01*
G01X33020000Y12010670D02*
X33077330D01*
X33089340Y12016000D01*
X33097330Y12026670D01*
X33100000Y12040000D01*
X33097330Y12053330D01*
X33089340Y12064000D01*
X33077330Y12069330D01*
X33020000D01*
G01X33033330Y12094670D02*
X33025330Y12102670D01*
X33021330Y12112000D01*
X33020000Y12122670D01*
X33022670Y12136000D01*
X33029330Y12145330D01*
X33037330Y12148000D01*
X33045340Y12146670D01*
X33052000Y12141330D01*
X33065330Y12114670D01*
X33074670Y12102670D01*
X33088000Y12094670D01*
X33100000Y12092000D01*
Y12148000D01*
G01X3369660Y7471570D02*
G03X3741640Y6573550I1269998J10D01*
G01X3369660Y18693020D02*
Y7471570D01*
G01X3477760Y14533420D02*
Y14355620D01*
X3731760D01*
Y14406420D01*
Y14533420D01*
G01Y14812820D02*
Y14990620D01*
X3477760D01*
Y14812820D01*
G01X4573800Y16277000D02*
Y17712100D01*
X3506990D01*
X3507000Y16277000D01*
X4573800D01*
G01X4639660Y19963020D02*
G03X3369660Y18693020I0J-1270000D01*
G01X3741640Y6573550D02*
X10617690Y-302510D01*
G01X4335200Y15813260D02*
Y15991060D01*
X4081200D01*
Y15813260D01*
G01Y15533860D02*
Y15356060D01*
X4335200D01*
Y15406860D01*
Y15533860D01*
G01X5148340Y18706600D02*
X4970540D01*
Y18452600D01*
X5021340D01*
X5148340D01*
G01X7878160Y19963020D02*
X4639660D01*
G01X5427740Y18452600D02*
X5605540D01*
Y18706600D01*
X5427740D01*
G01X8513160Y19212950D02*
G03X28071160I9779000J-5917432D01*
G01X8513160Y19328020D02*
G03X7878160Y19963020I-635000J0D01*
G01X8513160Y19212960D02*
Y19328020D01*
G01X10617690Y-302510D02*
G03X11515710Y-674480I898021J898030D01*
G01D02*
X25068610D01*
G01D02*
G03X25966640Y-302510I8J1270002D01*
G01D02*
X32842690Y6573550D01*
G01X26215880Y605370D02*
X25766870Y1054380D01*
X26108120Y1395630D01*
X26557130Y946620D01*
X26215880Y605370D01*
G01X25900030Y1000500D02*
G03I-25398J0D01*
G01X26725800Y2057570D02*
X27282580Y1500790D01*
X26995210Y1213430D01*
X26438430Y1770200D01*
X26725800Y2057570D01*
G01X27227150Y1509780D02*
G03I-25400J-4D01*
G01X27803380Y2192870D02*
X27354370Y2641880D01*
X27695620Y2983130D01*
X28144630Y2534120D01*
X27803380Y2192870D01*
G01X27487530Y2588000D02*
G03I-25398J0D01*
G01X28281550Y3613320D02*
X28838330Y3056540D01*
X28550960Y2769180D01*
X27994180Y3325950D01*
X28281550Y3613320D01*
G01X28706160Y19963020D02*
G03X28071160Y19328020I0J-635000D01*
G01D02*
Y19212960D01*
G01X28782900Y3065530D02*
G03I-25400J-4D01*
G01X29390880Y3812120D02*
X28941870Y4261130D01*
X29283120Y4602380D01*
X29732130Y4153370D01*
X29390880Y3812120D01*
G01X29075030Y4207250D02*
G03I-25398J0D01*
G01X31944660Y19963020D02*
X28706160D01*
G01X29900800Y5232570D02*
X30457580Y4675790D01*
X30170210Y4388430D01*
X29613430Y4945200D01*
X29900800Y5232570D01*
G01X31059200Y5245680D02*
X30502420Y5802460D01*
X30789790Y6089820D01*
X31346570Y5533050D01*
X31059200Y5245680D01*
G01X30608650Y5793470D02*
G03I-25400J4D01*
G01X31600870Y6666130D02*
X32049880Y6217120D01*
X31708630Y5875870D01*
X31259620Y6324880D01*
X31600870Y6666130D01*
G01X30851200Y19126200D02*
X30927400D01*
Y19024600D01*
G01X30698800Y19126200D02*
X30622600D01*
Y19024600D01*
G01X30851200Y19776200D02*
X30927400D01*
Y19674600D01*
G01X30698800Y19776200D02*
X30622600D01*
Y19674600D01*
G01X31967520Y6271000D02*
G03I-25402J0D01*
G01X31968550Y14682650D02*
X32539550D01*
Y17531650D01*
X31968550D01*
Y14682650D01*
G01X33214660Y18693020D02*
G03X31944660Y19963020I-1270000J0D01*
G01X32969200Y8226800D02*
X32181800D01*
Y8633200D01*
X32969200D01*
Y8226800D01*
G01X32270700Y8277600D02*
G03I-25400J0D01*
G01X32289750Y9592050D02*
X32924750D01*
Y9109450D01*
X32289750D01*
Y9592050D01*
G01X32969200Y11909800D02*
X32181800D01*
Y12316200D01*
X32969200D01*
Y11909800D01*
G01X32270700Y11960600D02*
G03I-25400J0D01*
G01X32289750Y13306800D02*
X32924750D01*
Y12824200D01*
X32289750D01*
Y13306800D01*
G01X32842690Y6573550D02*
G03X33214660Y7471570I-898029J898021D01*
G01D02*
Y18693020D01*
G01X32835850Y9553950D02*
G03I-25400J0D01*
G01Y13268700D02*
G03I-25400J0D01*
G54D11*
G01X4474460Y6447540D02*
X4975320Y6653780D01*
X4769100Y6152900D01*
G01X4839790Y6329690D02*
X4651230Y6518250D01*
G01X4892830Y6029170D02*
X5128530Y6264860D01*
G01X5081400Y6217730D02*
X5134420Y6211840D01*
X5181560Y6200050D01*
X5228700Y6164690D01*
X5252270Y6129340D01*
X5269950Y6076310D01*
G01X5399590Y5840610D02*
X5588150Y5652040D01*
X5611720Y5710980D01*
X5605830Y5764000D01*
X5576360Y5817030D01*
X5529220Y5852390D01*
X5476190Y5870070D01*
X5411370Y5852390D01*
X5364220Y5828820D01*
X5328870Y5793480D01*
X5305310Y5746320D01*
X5299400Y5681510D01*
X5311200Y5622590D01*
X5346560Y5575440D01*
X5399590Y5545980D01*
X5476190Y5540070D01*
G01X5582250Y5339750D02*
X5817940Y5575450D01*
G01X5759020Y5516520D02*
X5812060Y5522410D01*
X5870990Y5510620D01*
X5924020Y5469370D01*
X5959370Y5422240D01*
X5971160Y5363320D01*
X5947590Y5304380D01*
X5782610Y5139390D01*
G01X6142050Y4779950D02*
X6377740Y5015650D01*
G01X6336500Y4974410D02*
X6336490Y5021550D01*
X6312920Y5068690D01*
X6277570Y5115820D01*
X6224540Y5145290D01*
X6165610Y5157080D01*
X6106680Y5145300D01*
X6047750Y5109940D01*
X6012400Y5051020D01*
X6000610Y4992080D01*
X6012410Y4933160D01*
X6041870Y4880130D01*
X6089000Y4844780D01*
X6142040Y4827090D01*
X6189180Y4827080D01*
G01X6949310Y4679800D02*
X6743070Y4178930D01*
X7243950Y4385160D01*
G01X7096620Y3825380D02*
X7450170Y4178930D01*
X7308760D01*
G01X7025910Y3896090D02*
X7167330Y3754670D01*
G01X7986390Y3524860D02*
X8057100Y3524850D01*
X8116040Y3501290D01*
X8169070Y3460040D01*
X8216210Y3389330D01*
X8227990Y3318620D01*
X8204430Y3271480D01*
X8163170Y3242010D01*
X8110130Y3236130D01*
X7933360Y3295050D01*
X7839080Y3306830D01*
X7744790Y3283260D01*
X7679980Y3242020D01*
X7927470Y2994530D01*
G01X8510820Y3118280D02*
X8451900Y3153640D01*
X8387090Y3159520D01*
X8328160Y3147750D01*
X8263340Y3118270D01*
X8204410Y3071130D01*
X8157270Y3012210D01*
X8127800Y2947390D01*
X8116020Y2888460D01*
X8121910Y2823650D01*
X8157270Y2764730D01*
X8216200Y2729370D01*
X8281010Y2723470D01*
X8339940Y2735250D01*
X8404760Y2764720D01*
X8463680Y2811860D01*
X8510820Y2870780D01*
X8540300Y2935610D01*
X8552070Y2994530D01*
X8546180Y3059360D01*
X8510820Y3118280D01*
G01Y2411180D02*
X8864370Y2764730D01*
X8722960D01*
G01X8440110Y2481890D02*
X8581530Y2340470D01*
G01X8805440Y2199040D02*
X8817230Y2128340D01*
X8852590Y2069410D01*
X8911510Y2034050D01*
X8988110Y2028150D01*
X9070620Y2051730D01*
X9135440Y2092980D01*
X9200250Y2157790D01*
X9241500Y2222610D01*
X9259170Y2299220D01*
X9247390Y2358150D01*
X9217920Y2411180D01*
X9159000Y2446540D01*
X9100080Y2458310D01*
X9041150Y2446540D01*
X8982220Y2411170D01*
X8952760Y2358150D01*
X8940980Y2287430D01*
X8952760Y2228500D01*
X8988110Y2181370D01*
X9047030Y2146010D01*
X9111860Y2140120D01*
X9200250Y2157790D01*
G54D12*
G01X5903940Y9192110D02*
X5382700Y10624200D01*
X5621380Y10711070D01*
X6142620Y9278980D01*
G01X5247590Y12914600D02*
Y11390600D01*
G01X5501590D02*
Y12914600D01*
G01X5247590Y11390600D02*
X5501590D01*
G01X5247590Y11644600D02*
X5501590D01*
G01Y12914600D02*
Y13676600D01*
G01X5247590Y12914600D02*
Y13676600D01*
G01D02*
Y15200600D01*
X5501590D01*
Y13676600D01*
G01X5621430Y15880110D02*
X6142670Y17312200D01*
G01X5382750Y15966990D02*
X5621430Y15880110D01*
G01X5469620Y16205670D02*
X5708300Y16118790D01*
G01X5903990Y17399080D02*
X5382750Y15966990D01*
G01X6164550Y8476060D02*
X6685790Y7043970D01*
G01X6403240Y8562940D02*
X6142620Y9278980D01*
G01X6164550Y8476060D02*
X5903940Y9192110D01*
G01X6924480Y7130850D02*
X6403240Y8562940D01*
G01X6642190Y8649720D02*
X6381580Y9365770D01*
G01D02*
X5860340Y10797860D01*
X6099020Y10884730D01*
X6620260Y9452640D01*
G01X5755820Y12914420D02*
Y11390420D01*
G01X6009820D02*
Y12914420D01*
G01X5755820Y11390420D02*
X6009820D01*
G01X5755820Y11644420D02*
X6009820D01*
G01Y12914420D02*
Y13676420D01*
G01X5755820Y12914420D02*
Y13676420D01*
G01D02*
Y15200420D01*
X6009820D01*
Y13676420D01*
G01X6381510Y17225090D02*
X5860270Y15793000D01*
G01X6098950Y15706120D02*
X6620190Y17138210D01*
G01X5860270Y15793000D02*
X6098950Y15706120D01*
G01X5947140Y16031680D02*
X6185820Y15944800D01*
G01X6381510Y17225090D02*
X6642130Y17941130D01*
G01X6142670Y17312200D02*
X6403290Y18028250D01*
G01X5903990Y17399080D02*
X6164610Y18115120D01*
G01D02*
X6685850Y19547210D01*
X6924530Y19460340D01*
X6403290Y18028250D01*
G01X8054490Y5202550D02*
X7074880Y6370000D01*
X7269450Y6533270D01*
X8249060Y5365820D01*
G01X6685790Y7043970D02*
X6924480Y7130850D01*
G01X7076560Y7456310D02*
X7315240Y7543190D01*
G01X6642190Y8649720D02*
X7163430Y7217630D01*
G01X7402120Y7304500D02*
X6880880Y8736600D01*
G01X7163430Y7217630D02*
X7402120Y7304500D01*
G01X6598920Y7282650D02*
X6837600Y7369530D01*
G01X6880880Y8736600D02*
X6620260Y9452640D01*
G01X6620190Y17138210D02*
X6880810Y17854260D01*
G01X6642130Y17941130D02*
X7163370Y19373220D01*
X7402050Y19286350D01*
X6880810Y17854260D01*
G01X8443930Y5529100D02*
X7464320Y6696550D01*
X7658890Y6859820D01*
X8638500Y5692370D01*
G01X8738870Y4782090D02*
X8249060Y5365820D01*
G01X8544290Y4618830D02*
X8054490Y5202550D01*
G01X8544290Y4618830D02*
X9523900Y3451370D01*
G01X9128300Y5108640D02*
X8638500Y5692370D01*
G01X8933730Y4945380D02*
X8443930Y5529100D01*
G01X9360630Y3645950D02*
X9555210Y3809220D01*
G01X9718470Y3614640D02*
X8738870Y4782090D01*
G01X8933730Y4945380D02*
X9913340Y3777920D01*
G01X10107910Y3941190D02*
X9128300Y5108640D01*
G01X9523900Y3451370D02*
X9718470Y3614640D01*
G01X11439850Y2189130D02*
X10120030Y2951130D01*
X10247030Y3171100D01*
X11566850Y2409100D01*
G01X9750070Y3972500D02*
X9944650Y4135770D01*
G01X9913340Y3777920D02*
X10107910Y3941190D01*
G01X11694120Y2629180D02*
X10374300Y3391180D01*
X10501300Y3611150D01*
X11821120Y2849150D01*
G01X12226760Y2028100D02*
X11566850Y2409100D01*
G01X12099760Y1808130D02*
X11439850Y2189130D01*
G01X12099760Y1808130D02*
X13419590Y1046130D01*
G01X13546590Y1266100D02*
X12226760Y2028100D01*
G01X12481030Y2468150D02*
X11821120Y2849150D01*
G01X12354030Y2248180D02*
X11694120Y2629180D01*
G01X12354030Y2248180D02*
X13673850Y1486180D01*
G01X13800850Y1706150D02*
X12481030Y2468150D01*
G01X13199610Y1173130D02*
X13326610Y1393100D01*
G01X13419590Y1046130D02*
X13546590Y1266100D01*
G01X13453880Y1613180D02*
X13580880Y1833150D01*
G01X13673850Y1486180D02*
X13800850Y1706150D01*
G01X15740130Y1015770D02*
X14239290Y1280410D01*
X14283390Y1530560D01*
X15784240Y1265920D01*
G01X15651710Y515300D02*
X14150860Y779940D01*
X14194970Y1030080D01*
X15695810Y765440D01*
G01X16402130Y382980D02*
X15651710Y515300D01*
G01X16534660Y1133600D02*
X15784240Y1265920D01*
G01X16490560Y883460D02*
X15740130Y1015770D01*
G01X16446240Y633120D02*
X15695810Y765440D01*
G01X16402130Y382980D02*
X17902980Y118340D01*
G01X16490560Y883460D02*
X17991400Y618820D01*
G01X18035510Y868960D02*
X16534660Y1133600D01*
G01X17947080Y368480D02*
X16446240Y633120D01*
G01X17652840Y162440D02*
X17696940Y412580D01*
G01X17902980Y118340D02*
X17947080Y368480D01*
G01X17741260Y662920D02*
X17785370Y913060D01*
G01X17991400Y618820D02*
X18035510Y868960D01*
G01X20182040Y382950D02*
X18681190Y118310D01*
X18637090Y368450D01*
X20137930Y633090D01*
G01X20093960Y883490D02*
X18593110Y618850D01*
X18549010Y868990D01*
X20049850Y1133630D01*
G01X20932460Y515270D02*
X20182040Y382950D01*
G01X20800280Y1265950D02*
X20049850Y1133630D01*
G01X20844380Y1015810D02*
X20093960Y883490D01*
G01X20888360Y765410D02*
X20137930Y633090D01*
G01X20932460Y515270D02*
X22433310Y779910D01*
G01X20844380Y1015810D02*
X22345230Y1280450D01*
G01X22301120Y1530590D02*
X20800280Y1265950D01*
G01X22389200Y1030050D02*
X20888360Y765410D01*
G01X22095090Y1236340D02*
X22050980Y1486480D01*
G01X22345230Y1280450D02*
X22301120Y1530590D01*
G01X22183170Y735800D02*
X22139060Y985940D01*
G01X22433310Y779910D02*
X22389200Y1030050D01*
G01X24484420Y1808050D02*
X23164600Y1046050D01*
X23037600Y1266020D01*
X24357420Y2028020D01*
G01X24230460Y2248280D02*
X22910640Y1486280D01*
X22783640Y1706250D01*
X24103460Y2468250D01*
G01X25144340Y2189050D02*
X24484420Y1808050D01*
G01X24763370Y2849250D02*
X24103460Y2468250D01*
G01X24890370Y2629280D02*
X24230460Y2248280D01*
G01X25017340Y2409020D02*
X24357420Y2028020D01*
G01X24890370Y2629280D02*
X26210200Y3391280D01*
G01X25144340Y2189050D02*
X26464160Y2951050D01*
G01X26337160Y3171020D02*
X25017340Y2409020D01*
G01X26083200Y3611250D02*
X24763370Y2849250D01*
G01X25990230Y3264280D02*
X25863230Y3484250D01*
G01X26210200Y3391280D02*
X26083200Y3611250D01*
G01X26244190Y2824050D02*
X26117190Y3044020D01*
G01X26464160Y2951050D02*
X26337160Y3171020D01*
G01X28039930Y4618710D02*
X27060320Y3451260D01*
X26865750Y3614520D01*
X27845360Y4781980D01*
G01X27650720Y4945530D02*
X26671110Y3778070D01*
X26476530Y3941340D01*
X27456140Y5108790D01*
G01X27945950Y5692520D02*
X27456140Y5108790D01*
G01X28140520Y5529250D02*
X27650720Y4945530D01*
G01X28335160Y5365700D02*
X27845360Y4781980D01*
G01X28529740Y5202430D02*
X28039930Y4618710D01*
G01X29314770Y6533150D02*
X28335160Y5365700D01*
G01X28140520Y5529250D02*
X29120130Y6696700D01*
G01X28925560Y6859970D02*
X27945950Y5692520D01*
G01X28529740Y5202430D02*
X29509340Y6369880D01*
G01X28956860Y6502130D02*
X28762290Y6665400D01*
G01X29120130Y6696700D02*
X28925560Y6859970D01*
G01X29346080Y6175310D02*
X29151500Y6338580D01*
G01X29509340Y6369880D02*
X29314770Y6533150D01*
G01X30419710Y8475920D02*
X29898480Y7043830D01*
X29659790Y7130700D01*
X30181030Y8562790D01*
G01X29942190Y8649910D02*
X29420960Y7217820D01*
X29182270Y7304690D01*
X29703510Y8736780D01*
G01X29964130Y9452830D02*
X29703510Y8736780D01*
G01X29703450Y17854440D02*
X29964060Y17138400D01*
G01X29182210Y19286540D02*
X29703450Y17854440D01*
G01X29942130Y17941320D02*
X29420890Y19373410D01*
G01X29507760Y19134730D02*
X29269080Y19047850D01*
G01X29420890Y19373410D02*
X29182210Y19286540D01*
G01X29985400Y19308390D02*
X29746720Y19221510D01*
G01X29659850Y19460190D02*
X30181090Y18028100D01*
G01X29898530Y19547070D02*
X29659850Y19460190D01*
G01X30441650Y9278840D02*
X30181030Y8562790D01*
G01X30680330Y9191960D02*
X30419710Y8475920D01*
G01X30202810Y9365950D02*
X29942190Y8649910D01*
G01X30962890Y10710930D02*
X30441650Y9278840D01*
G01X30202810Y9365950D02*
X30724050Y10798040D01*
G01X30485370Y10884920D02*
X29964130Y9452830D01*
G01X30637180Y10559360D02*
X30398500Y10646240D01*
G01X30724050Y10798040D02*
X30485370Y10884920D01*
G01X30202750Y17225270D02*
X30723990Y15793180D01*
X30485300Y15706310D01*
X29964060Y17138400D01*
G01X29942130Y17941320D02*
X30202750Y17225270D01*
G01X30181090Y18028100D02*
X30441700Y17312060D01*
G01X30680390Y17398930D02*
X31201630Y15966840D01*
X30962940Y15879970D01*
X30441700Y17312060D01*
G01X30419770Y18114980D02*
X30680390Y17398930D01*
G01X30419770Y18114980D02*
X29898530Y19547070D01*
G01X30680330Y9191960D02*
X31201570Y10624050D01*
G01X31114700Y10385370D02*
X30876020Y10472250D01*
G01X31201570Y10624050D02*
X30962890Y10710930D01*
G01X30828500Y12914620D02*
Y11390620D01*
X30574500D01*
Y12914620D01*
G01X31336730Y12914440D02*
Y11390440D01*
X31082730D01*
Y12914440D01*
G01X30574500Y13676620D02*
Y12914620D01*
G01X30828500Y13676620D02*
Y12914620D01*
G01X31082730Y13676440D02*
Y12914440D01*
G01X30828500Y13676620D02*
Y15200620D01*
G01X30574500D02*
Y13676620D01*
G01X31082730Y15200440D02*
Y13676440D01*
G01X30828500Y14946620D02*
X30574500D01*
G01X31336730Y14946440D02*
X31082730D01*
G01X30828500Y15200620D02*
X30574500D01*
G01X31336730Y15200440D02*
X31082730D01*
G01X31336730Y13676440D02*
Y12914440D01*
G01Y13676440D02*
Y15200440D01*
G54D13*
G01X3814310Y15057560D02*
X3395210D01*
G01D02*
Y15273460D01*
G01Y15971960D02*
Y15756060D01*
G01X3814310Y15971960D02*
X3395210D01*
G01X3814310Y15273460D02*
Y15057560D01*
G01Y15756060D02*
Y15971960D01*
G01X4489450Y19088100D02*
Y18872200D01*
G01D02*
X4908550D01*
G01D02*
Y19088100D01*
G01X4489450Y19570700D02*
Y19786600D01*
G01D02*
X4908550D01*
G01D02*
Y19570700D01*
G01X31286450Y17745450D02*
Y17529550D01*
G01D02*
X31705550D01*
G01X31286450Y18228050D02*
Y18443950D01*
G01D02*
X31705550D01*
G01X31286450Y19011900D02*
Y18796000D01*
G01D02*
X31705550D01*
G01X31286450Y19494500D02*
Y19710400D01*
G01D02*
X31705550D01*
G01Y17529550D02*
Y17745450D01*
G01Y18443950D02*
Y18228050D01*
G01Y18796000D02*
Y19011900D01*
G01Y19710400D02*
Y19494500D01*
G54D14*
G01X4236760Y14894120D02*
Y14576620D01*
X4084360D01*
Y14899200D01*
X4234220D01*
X4236760Y14896660D01*
Y14899200D01*
G01X3982680Y14894120D02*
Y14576620D01*
X3830280D01*
Y14899200D01*
X3980140D01*
X3982680Y14896660D01*
Y14899200D01*
G01X4046200Y15894560D02*
Y15577060D01*
X3893800D01*
Y15899640D01*
X4043660D01*
X4046200Y15897100D01*
Y15899640D01*
G01X4554360Y15894560D02*
Y15577060D01*
X4401960D01*
Y15899640D01*
X4551820D01*
X4554360Y15897100D01*
Y15899640D01*
G01X5509040Y18058760D02*
X5191540D01*
Y18211160D01*
X5514120D01*
Y18061300D01*
X5511580Y18058760D01*
X5514120D01*
G01X26934760Y1042530D02*
X27159270Y1267030D01*
X27267030Y1159270D01*
X27038930Y931170D01*
X26932970Y1037140D01*
Y1040730D01*
X26931170Y1038930D01*
G01X27515240Y1407470D02*
X27290730Y1182970D01*
X27182970Y1290730D01*
G01X27517030Y1412860D02*
Y1409270D01*
X27518830Y1411070D01*
G01X28484760Y2592530D02*
X28709270Y2817030D01*
X28817030Y2709270D01*
X28588930Y2481170D01*
X28482970Y2587140D01*
Y2590730D01*
X28481170Y2588930D01*
G01X29065240Y2957470D02*
X28840730Y2732970D01*
X28732970Y2840730D01*
X28961070Y3068830D01*
X29067030Y2962860D01*
Y2959270D01*
X29068830Y2961070D01*
G01X30134760Y4242530D02*
X30359270Y4467030D01*
X30467030Y4359270D01*
X30238930Y4131170D01*
X30132970Y4237140D01*
Y4240730D01*
X30131170Y4238930D01*
G01X30715240Y4607470D02*
X30490730Y4382970D01*
X30382970Y4490730D01*
G01X30092970Y5511660D02*
X29868470Y5736170D01*
X29976230Y5843930D01*
X30204320Y5615830D01*
X30098360Y5509860D01*
X30094770Y5509870D01*
X30096570Y5508070D01*
G01X30803990Y6264970D02*
X30579480Y6040470D01*
X30471720Y6148230D01*
X30699820Y6376330D01*
X30805780Y6270360D01*
Y6266770D01*
X30807580Y6268570D01*
G01X30187760Y5864280D02*
X30412270Y6088780D01*
X30520030Y5981020D01*
X30291930Y5752920D01*
X30185970Y5858890D01*
Y5862480D01*
X30184170Y5860680D01*
G01X30192520Y19451200D02*
X30510020D01*
Y19298800D01*
X30187440D01*
Y19448660D01*
X30189980Y19451200D01*
X30187430D01*
G01X30192520Y19651200D02*
X30510010D01*
X30510030Y19498810D01*
X30187440D01*
Y19648660D01*
X30189970Y19651190D01*
X30187430Y19651200D01*
G01X30242520Y19026200D02*
X30560020D01*
Y18873800D01*
X30237440D01*
Y19023660D01*
X30239980Y19026200D01*
X30237440D01*
G01X30717030Y4612860D02*
Y4609270D01*
X30718830Y4611070D01*
G01X30617520Y18776200D02*
X30935020D01*
Y18623800D01*
X30612440D01*
Y18773660D01*
X30614980Y18776200D01*
X30612440D01*
G01X30932480Y19298800D02*
X30614980D01*
Y19451200D01*
X30937560D01*
Y19301340D01*
X30935020Y19298800D01*
X30937560D01*
G01X31923800Y8642520D02*
Y8960020D01*
X32076200D01*
Y8637440D01*
X31926340D01*
X31923800Y8639980D01*
Y8637440D01*
G01X31953200Y11780520D02*
Y12098020D01*
X32105600D01*
Y11775440D01*
X31955740D01*
X31953200Y11777980D01*
Y11775440D01*
G01X32105600Y12451080D02*
Y12133580D01*
X31953200D01*
Y12456160D01*
X32103060D01*
X32105600Y12453620D01*
Y12456160D01*
G01X32273660Y7589980D02*
X32121260D01*
Y7910020D01*
X32276200D01*
Y7589980D01*
X32268580D01*
G01X32438100Y7828740D02*
Y7668720D01*
X32361900D01*
Y7831280D01*
X32438100D01*
Y7826200D01*
M02*
