G04 ================== begin FILE IDENTIFICATION RECORD ==================*
G04 Layout Name:  J:/LED_Arena/Interconnector.brd*
G04 Film Name:    Soilkscreen_Top*
G04 File Format:  Gerber RS274X*
G04 File Origin:  Cadence Allegro 16.6-P004*
G04 Origin Date:  Wed Feb 22 22:24:16 2017*
G04 *
G04 Layer:  VIA KEEPOUT/ALL*
G04 Layer:  VIA KEEPOUT/BOTTOM*
G04 Layer:  VIA KEEPOUT/TOP*
G04 Layer:  ROUTE KEEPOUT/ALL*
G04 Layer:  ROUTE KEEPOUT/BOTTOM*
G04 Layer:  ROUTE KEEPOUT/TOP*
G04 Layer:  ROUTE KEEPIN/ALL*
G04 Layer:  PACKAGE KEEPOUT/ALL*
G04 Layer:  PACKAGE KEEPOUT/TOP*
G04 Layer:  PACKAGE KEEPOUT/BOTTOM*
G04 Layer:  PACKAGE KEEPIN/ALL*
G04 Layer:  PACKAGE GEOMETRY/SILKSCREEN_TOP*
G04 Layer:  ANALYSIS/LOW_ISOCONTOUR*
G04 Layer:  ANALYSIS/MEDIUM1_ISOCONTOUR*
G04 Layer:  ANALYSIS/MEDIUM2_ISOCONTOUR*
G04 Layer:  ANALYSIS/MEDIUM3_ISOCONTOUR*
G04 Layer:  ANALYSIS/HIGH_ISOCONTOUR*
G04 Layer:  ANALYSIS/PCB_TEMPERATURE*
G04 Layer:  BOARD GEOMETRY/OUTLINE*
G04 *
G04 Offset:    (0.000 0.000)*
G04 Mirror:    No*
G04 Mode:      Positive*
G04 Rotation:  0*
G04 FullContactRelief:  No*
G04 UndefLineWidth:     0.100*
G04 ================== end FILE IDENTIFICATION RECORD ====================*
%FSLAX25Y25*MOMM*%
%IR0*IPPOS*OFA0.00000B0.00000*MIA0B0*SFA1.00000B1.00000*%
%ADD10C,.1*%
G75*
%LPD*%
G75*
G54D10*
G01X361300Y-2498200D02*
X356300Y-2495700D01*
X350500Y-2494000D01*
X343800D01*
X336300Y-2496500D01*
X330500Y-2500700D01*
X326300Y-2505700D01*
X323000Y-2514000D01*
X322200Y-2521500D01*
X323800Y-2529000D01*
X326300Y-2534000D01*
X331300Y-2539000D01*
X337200Y-2542300D01*
X343000Y-2544000D01*
X348800D01*
X354700Y-2542300D01*
X359700Y-2539800D01*
X363800Y-2536500D01*
G01X375500Y-2537300D02*
X382200Y-2541500D01*
X389700Y-2544000D01*
X396300D01*
X403000Y-2541500D01*
X408000Y-2537300D01*
X410500Y-2531500D01*
X408800Y-2525700D01*
X404700Y-2520700D01*
X397200Y-2517300D01*
X387200Y-2515700D01*
X381300Y-2512300D01*
X378800Y-2506500D01*
X380500Y-2500700D01*
X384700Y-2496500D01*
X390500Y-2494000D01*
X396300D01*
X402200Y-2495700D01*
X407200Y-2499800D01*
G01X418000Y-2560700D02*
X468000D01*
G01X493000Y-2494000D02*
X486300Y-2495700D01*
X481300Y-2499800D01*
X478000Y-2504800D01*
X475500Y-2511500D01*
X474700Y-2519000D01*
X475500Y-2526500D01*
X478000Y-2533200D01*
X481300Y-2538200D01*
X486300Y-2542300D01*
X493000Y-2544000D01*
X499700Y-2542300D01*
X504700Y-2538200D01*
X508000Y-2533200D01*
X510500Y-2526500D01*
X511300Y-2519000D01*
X510500Y-2511500D01*
X508000Y-2504800D01*
X504700Y-2499800D01*
X499700Y-2495700D01*
X493000Y-2494000D01*
G01X326300Y-2671200D02*
Y-2621200D01*
X347200D01*
X353800Y-2623700D01*
X358000Y-2627000D01*
X359700Y-2633700D01*
X358000Y-2640400D01*
X353000Y-2644500D01*
X347200Y-2647000D01*
X326300D01*
G01X347200D02*
X359700Y-2671200D01*
G01X409700D02*
X376300D01*
Y-2621200D01*
X409700D01*
G01X396300Y-2645400D02*
X376300D01*
G01X425500Y-2664500D02*
X432200Y-2668700D01*
X439700Y-2671200D01*
X446300D01*
X453000Y-2668700D01*
X458000Y-2664500D01*
X460500Y-2658700D01*
X458800Y-2652900D01*
X454700Y-2647900D01*
X447200Y-2644500D01*
X437200Y-2642900D01*
X431300Y-2639500D01*
X428800Y-2633700D01*
X430500Y-2627900D01*
X434700Y-2623700D01*
X440500Y-2621200D01*
X446300D01*
X452200Y-2622900D01*
X457200Y-2627000D01*
G01X509700Y-2671200D02*
X476300D01*
Y-2621200D01*
X509700D01*
G01X496300Y-2645400D02*
X476300D01*
G01X543000Y-2621200D02*
Y-2671200D01*
G01X523800Y-2621200D02*
X562200D01*
G01X348000Y-2773400D02*
X364700D01*
Y-2788400D01*
X359700Y-2793400D01*
X353800Y-2796700D01*
X345500Y-2798400D01*
X337200Y-2796700D01*
X331300Y-2793400D01*
X326300Y-2788400D01*
X323000Y-2782600D01*
X321300Y-2775900D01*
Y-2770100D01*
X323000Y-2765100D01*
X326300Y-2759200D01*
X331300Y-2754200D01*
X336300Y-2750900D01*
X343000Y-2748400D01*
X348800D01*
X355500Y-2750100D01*
X360500Y-2753400D01*
G01X373800Y-2798400D02*
Y-2748400D01*
X412200Y-2798400D01*
Y-2748400D01*
G01X424700Y-2798400D02*
Y-2748400D01*
X441300D01*
X448000Y-2750900D01*
X453000Y-2754200D01*
X457200Y-2759200D01*
X460500Y-2765100D01*
X461300Y-2773400D01*
X460500Y-2781700D01*
X457200Y-2787600D01*
X453000Y-2792600D01*
X448000Y-2795900D01*
X441300Y-2798400D01*
X424700D01*
G01X348000Y-2900600D02*
X364700D01*
Y-2915600D01*
X359700Y-2920600D01*
X353800Y-2923900D01*
X345500Y-2925600D01*
X337200Y-2923900D01*
X331300Y-2920600D01*
X326300Y-2915600D01*
X323000Y-2909800D01*
X321300Y-2903100D01*
Y-2897300D01*
X323000Y-2892300D01*
X326300Y-2886400D01*
X331300Y-2881400D01*
X336300Y-2878100D01*
X343000Y-2875600D01*
X348800D01*
X355500Y-2877300D01*
X360500Y-2880600D01*
G01X373800Y-2925600D02*
Y-2875600D01*
X412200Y-2925600D01*
Y-2875600D01*
G01X424700Y-2925600D02*
Y-2875600D01*
X441300D01*
X448000Y-2878100D01*
X453000Y-2881400D01*
X457200Y-2886400D01*
X460500Y-2892300D01*
X461300Y-2900600D01*
X460500Y-2908900D01*
X457200Y-2914800D01*
X453000Y-2919800D01*
X448000Y-2923100D01*
X441300Y-2925600D01*
X424700D01*
G01X361300Y-1735000D02*
X356300Y-1732500D01*
X350500Y-1730800D01*
X343800D01*
X336300Y-1733300D01*
X330500Y-1737500D01*
X326300Y-1742500D01*
X323000Y-1750800D01*
X322200Y-1758300D01*
X323800Y-1765800D01*
X326300Y-1770800D01*
X331300Y-1775800D01*
X337200Y-1779100D01*
X343000Y-1780800D01*
X348800D01*
X354700Y-1779100D01*
X359700Y-1776600D01*
X363800Y-1773300D01*
G01X375500Y-1774100D02*
X382200Y-1778300D01*
X389700Y-1780800D01*
X396300D01*
X403000Y-1778300D01*
X408000Y-1774100D01*
X410500Y-1768300D01*
X408800Y-1762500D01*
X404700Y-1757500D01*
X397200Y-1754100D01*
X387200Y-1752500D01*
X381300Y-1749100D01*
X378800Y-1743300D01*
X380500Y-1737500D01*
X384700Y-1733300D01*
X390500Y-1730800D01*
X396300D01*
X402200Y-1732500D01*
X407200Y-1736600D01*
G01X418000Y-1797500D02*
X468000D01*
G01X477200Y-1760000D02*
X483000Y-1754100D01*
X488000Y-1750800D01*
X494700Y-1749100D01*
X500500Y-1750800D01*
X504700Y-1754100D01*
X508000Y-1759100D01*
X508800Y-1765000D01*
X508000Y-1770000D01*
X504700Y-1775000D01*
X499700Y-1779100D01*
X493800Y-1780800D01*
X487200Y-1779100D01*
X481300Y-1774100D01*
X478000Y-1766600D01*
X477200Y-1758300D01*
X478800Y-1747500D01*
X481300Y-1741600D01*
X485500Y-1735800D01*
X491300Y-1731600D01*
X497200Y-1730800D01*
X503000Y-1732500D01*
X507200Y-1736600D01*
G01X361300Y-1862200D02*
X356300Y-1859700D01*
X350500Y-1858000D01*
X343800D01*
X336300Y-1860500D01*
X330500Y-1864700D01*
X326300Y-1869700D01*
X323000Y-1878000D01*
X322200Y-1885500D01*
X323800Y-1893000D01*
X326300Y-1898000D01*
X331300Y-1903000D01*
X337200Y-1906300D01*
X343000Y-1908000D01*
X348800D01*
X354700Y-1906300D01*
X359700Y-1903800D01*
X363800Y-1900500D01*
G01X375500Y-1901300D02*
X382200Y-1905500D01*
X389700Y-1908000D01*
X396300D01*
X403000Y-1905500D01*
X408000Y-1901300D01*
X410500Y-1895500D01*
X408800Y-1889700D01*
X404700Y-1884700D01*
X397200Y-1881300D01*
X387200Y-1879700D01*
X381300Y-1876300D01*
X378800Y-1870500D01*
X380500Y-1864700D01*
X384700Y-1860500D01*
X390500Y-1858000D01*
X396300D01*
X402200Y-1859700D01*
X407200Y-1863800D01*
G01X418000Y-1924700D02*
X468000D01*
G01X474700Y-1900500D02*
X479700Y-1904700D01*
X485500Y-1907200D01*
X493000Y-1908000D01*
X500500Y-1906300D01*
X506300Y-1903000D01*
X510500Y-1897200D01*
X511300Y-1890500D01*
X509700Y-1883800D01*
X505500Y-1879700D01*
X499700Y-1876300D01*
X493800Y-1875500D01*
X488000Y-1876300D01*
X480500Y-1879700D01*
X483000Y-1858000D01*
X505500D01*
G01X361300Y-1989400D02*
X356300Y-1986900D01*
X350500Y-1985200D01*
X343800D01*
X336300Y-1987700D01*
X330500Y-1991900D01*
X326300Y-1996900D01*
X323000Y-2005200D01*
X322200Y-2012700D01*
X323800Y-2020200D01*
X326300Y-2025200D01*
X331300Y-2030200D01*
X337200Y-2033500D01*
X343000Y-2035200D01*
X348800D01*
X354700Y-2033500D01*
X359700Y-2031000D01*
X363800Y-2027700D01*
G01X375500Y-2028500D02*
X382200Y-2032700D01*
X389700Y-2035200D01*
X396300D01*
X403000Y-2032700D01*
X408000Y-2028500D01*
X410500Y-2022700D01*
X408800Y-2016900D01*
X404700Y-2011900D01*
X397200Y-2008500D01*
X387200Y-2006900D01*
X381300Y-2003500D01*
X378800Y-1997700D01*
X380500Y-1991900D01*
X384700Y-1987700D01*
X390500Y-1985200D01*
X396300D01*
X402200Y-1986900D01*
X407200Y-1991000D01*
G01X418000Y-2051900D02*
X468000D01*
G01X503000Y-2035200D02*
Y-1985200D01*
X472200Y-2021000D01*
X513800D01*
G01X361300Y-2116600D02*
X356300Y-2114100D01*
X350500Y-2112400D01*
X343800D01*
X336300Y-2114900D01*
X330500Y-2119100D01*
X326300Y-2124100D01*
X323000Y-2132400D01*
X322200Y-2139900D01*
X323800Y-2147400D01*
X326300Y-2152400D01*
X331300Y-2157400D01*
X337200Y-2160700D01*
X343000Y-2162400D01*
X348800D01*
X354700Y-2160700D01*
X359700Y-2158200D01*
X363800Y-2154900D01*
G01X375500Y-2155700D02*
X382200Y-2159900D01*
X389700Y-2162400D01*
X396300D01*
X403000Y-2159900D01*
X408000Y-2155700D01*
X410500Y-2149900D01*
X408800Y-2144100D01*
X404700Y-2139100D01*
X397200Y-2135700D01*
X387200Y-2134100D01*
X381300Y-2130700D01*
X378800Y-2124900D01*
X380500Y-2119100D01*
X384700Y-2114900D01*
X390500Y-2112400D01*
X396300D01*
X402200Y-2114100D01*
X407200Y-2118200D01*
G01X418000Y-2179100D02*
X468000D01*
G01X474700Y-2152400D02*
X479700Y-2158200D01*
X486300Y-2161600D01*
X493800Y-2162400D01*
X500500Y-2161600D01*
X507200Y-2157400D01*
X511300Y-2152400D01*
X512200Y-2147400D01*
X510500Y-2141600D01*
X504700Y-2137400D01*
X498800Y-2135700D01*
X491300D01*
G01X498800D02*
X503800Y-2133200D01*
X508000Y-2129100D01*
X509700Y-2124100D01*
X508000Y-2119100D01*
X503800Y-2114900D01*
X496300Y-2112400D01*
X488800Y-2113200D01*
X481300Y-2116600D01*
G01X361300Y-2243800D02*
X356300Y-2241300D01*
X350500Y-2239600D01*
X343800D01*
X336300Y-2242100D01*
X330500Y-2246300D01*
X326300Y-2251300D01*
X323000Y-2259600D01*
X322200Y-2267100D01*
X323800Y-2274600D01*
X326300Y-2279600D01*
X331300Y-2284600D01*
X337200Y-2287900D01*
X343000Y-2289600D01*
X348800D01*
X354700Y-2287900D01*
X359700Y-2285400D01*
X363800Y-2282100D01*
G01X375500Y-2282900D02*
X382200Y-2287100D01*
X389700Y-2289600D01*
X396300D01*
X403000Y-2287100D01*
X408000Y-2282900D01*
X410500Y-2277100D01*
X408800Y-2271300D01*
X404700Y-2266300D01*
X397200Y-2262900D01*
X387200Y-2261300D01*
X381300Y-2257900D01*
X378800Y-2252100D01*
X380500Y-2246300D01*
X384700Y-2242100D01*
X390500Y-2239600D01*
X396300D01*
X402200Y-2241300D01*
X407200Y-2245400D01*
G01X418000Y-2306300D02*
X468000D01*
G01X477200Y-2247900D02*
X482200Y-2242900D01*
X488000Y-2240400D01*
X494700Y-2239600D01*
X503000Y-2241300D01*
X508800Y-2245400D01*
X510500Y-2250400D01*
X509700Y-2255400D01*
X506300Y-2259600D01*
X489700Y-2267900D01*
X482200Y-2273800D01*
X477200Y-2282100D01*
X475500Y-2289600D01*
X510500D01*
G01X361300Y-2371000D02*
X356300Y-2368500D01*
X350500Y-2366800D01*
X343800D01*
X336300Y-2369300D01*
X330500Y-2373500D01*
X326300Y-2378500D01*
X323000Y-2386800D01*
X322200Y-2394300D01*
X323800Y-2401800D01*
X326300Y-2406800D01*
X331300Y-2411800D01*
X337200Y-2415100D01*
X343000Y-2416800D01*
X348800D01*
X354700Y-2415100D01*
X359700Y-2412600D01*
X363800Y-2409300D01*
G01X375500Y-2410100D02*
X382200Y-2414300D01*
X389700Y-2416800D01*
X396300D01*
X403000Y-2414300D01*
X408000Y-2410100D01*
X410500Y-2404300D01*
X408800Y-2398500D01*
X404700Y-2393500D01*
X397200Y-2390100D01*
X387200Y-2388500D01*
X381300Y-2385100D01*
X378800Y-2379300D01*
X380500Y-2373500D01*
X384700Y-2369300D01*
X390500Y-2366800D01*
X396300D01*
X402200Y-2368500D01*
X407200Y-2372600D01*
G01X418000Y-2433500D02*
X468000D01*
G01X493000Y-2416800D02*
Y-2366800D01*
X483000Y-2376800D01*
G01Y-2416800D02*
X503000D01*
G01X321300Y-1017600D02*
Y-967600D01*
X343000Y-1009300D01*
X364700Y-967600D01*
Y-1017600D01*
G01X393000D02*
X386300Y-1016800D01*
X380500Y-1013400D01*
X375500Y-1008400D01*
X372200Y-1002600D01*
X370500Y-995900D01*
Y-989300D01*
X372200Y-982600D01*
X375500Y-976800D01*
X380500Y-971800D01*
X386300Y-968400D01*
X393000Y-967600D01*
X399700Y-968400D01*
X405500Y-971800D01*
X410500Y-976800D01*
X413800Y-982600D01*
X415500Y-989300D01*
Y-995900D01*
X413800Y-1002600D01*
X410500Y-1008400D01*
X405500Y-1013400D01*
X399700Y-1016800D01*
X393000Y-1017600D01*
G01X425500Y-1010900D02*
X432200Y-1015100D01*
X439700Y-1017600D01*
X446300D01*
X453000Y-1015100D01*
X458000Y-1010900D01*
X460500Y-1005100D01*
X458800Y-999300D01*
X454700Y-994300D01*
X447200Y-990900D01*
X437200Y-989300D01*
X431300Y-985900D01*
X428800Y-980100D01*
X430500Y-974300D01*
X434700Y-970100D01*
X440500Y-967600D01*
X446300D01*
X452200Y-969300D01*
X457200Y-973400D01*
G01X483000Y-967600D02*
X503000D01*
G01X493000D02*
Y-1017600D01*
G01X483000D02*
X503000D01*
G01X518000Y-1034300D02*
X568000D01*
G01X593000Y-1017600D02*
Y-967600D01*
X583000Y-977600D01*
G01Y-1017600D02*
X603000D01*
G01X321300Y-1144800D02*
Y-1094800D01*
X343000Y-1136500D01*
X364700Y-1094800D01*
Y-1144800D01*
G01X393000D02*
X386300Y-1144000D01*
X380500Y-1140600D01*
X375500Y-1135600D01*
X372200Y-1129800D01*
X370500Y-1123100D01*
Y-1116500D01*
X372200Y-1109800D01*
X375500Y-1104000D01*
X380500Y-1099000D01*
X386300Y-1095600D01*
X393000Y-1094800D01*
X399700Y-1095600D01*
X405500Y-1099000D01*
X410500Y-1104000D01*
X413800Y-1109800D01*
X415500Y-1116500D01*
Y-1123100D01*
X413800Y-1129800D01*
X410500Y-1135600D01*
X405500Y-1140600D01*
X399700Y-1144000D01*
X393000Y-1144800D01*
G01X425500Y-1138100D02*
X432200Y-1142300D01*
X439700Y-1144800D01*
X446300D01*
X453000Y-1142300D01*
X458000Y-1138100D01*
X460500Y-1132300D01*
X458800Y-1126500D01*
X454700Y-1121500D01*
X447200Y-1118100D01*
X437200Y-1116500D01*
X431300Y-1113100D01*
X428800Y-1107300D01*
X430500Y-1101500D01*
X434700Y-1097300D01*
X440500Y-1094800D01*
X446300D01*
X452200Y-1096500D01*
X457200Y-1100600D01*
G01X483000Y-1094800D02*
X503000D01*
G01X493000D02*
Y-1144800D01*
G01X483000D02*
X503000D01*
G01X518000Y-1161500D02*
X568000D01*
G01X593000Y-1094800D02*
X586300Y-1096500D01*
X581300Y-1100600D01*
X578000Y-1105600D01*
X575500Y-1112300D01*
X574700Y-1119800D01*
X575500Y-1127300D01*
X578000Y-1134000D01*
X581300Y-1139000D01*
X586300Y-1143100D01*
X593000Y-1144800D01*
X599700Y-1143100D01*
X604700Y-1139000D01*
X608000Y-1134000D01*
X610500Y-1127300D01*
X611300Y-1119800D01*
X610500Y-1112300D01*
X608000Y-1105600D01*
X604700Y-1100600D01*
X599700Y-1096500D01*
X593000Y-1094800D01*
G01X348000Y-1247000D02*
X364700D01*
Y-1262000D01*
X359700Y-1267000D01*
X353800Y-1270300D01*
X345500Y-1272000D01*
X337200Y-1270300D01*
X331300Y-1267000D01*
X326300Y-1262000D01*
X323000Y-1256200D01*
X321300Y-1249500D01*
Y-1243700D01*
X323000Y-1238700D01*
X326300Y-1232800D01*
X331300Y-1227800D01*
X336300Y-1224500D01*
X343000Y-1222000D01*
X348800D01*
X355500Y-1223700D01*
X360500Y-1227000D01*
G01X373800Y-1272000D02*
Y-1222000D01*
X412200Y-1272000D01*
Y-1222000D01*
G01X424700Y-1272000D02*
Y-1222000D01*
X441300D01*
X448000Y-1224500D01*
X453000Y-1227800D01*
X457200Y-1232800D01*
X460500Y-1238700D01*
X461300Y-1247000D01*
X460500Y-1255300D01*
X457200Y-1261200D01*
X453000Y-1266200D01*
X448000Y-1269500D01*
X441300Y-1272000D01*
X424700D01*
G01X325500Y-1392500D02*
X332200Y-1396700D01*
X339700Y-1399200D01*
X346300D01*
X353000Y-1396700D01*
X358000Y-1392500D01*
X360500Y-1386700D01*
X358800Y-1380900D01*
X354700Y-1375900D01*
X347200Y-1372500D01*
X337200Y-1370900D01*
X331300Y-1367500D01*
X328800Y-1361700D01*
X330500Y-1355900D01*
X334700Y-1351700D01*
X340500Y-1349200D01*
X346300D01*
X352200Y-1350900D01*
X357200Y-1355000D01*
G01X411300Y-1353400D02*
X406300Y-1350900D01*
X400500Y-1349200D01*
X393800D01*
X386300Y-1351700D01*
X380500Y-1355900D01*
X376300Y-1360900D01*
X373000Y-1369200D01*
X372200Y-1376700D01*
X373800Y-1384200D01*
X376300Y-1389200D01*
X381300Y-1394200D01*
X387200Y-1397500D01*
X393000Y-1399200D01*
X398800D01*
X404700Y-1397500D01*
X409700Y-1395000D01*
X413800Y-1391700D01*
G01X424700Y-1399200D02*
Y-1349200D01*
G01X456300D02*
X424700Y-1380000D01*
G01X461300Y-1399200D02*
X438800Y-1365900D01*
G01X348000Y-1501400D02*
X364700D01*
Y-1516400D01*
X359700Y-1521400D01*
X353800Y-1524700D01*
X345500Y-1526400D01*
X337200Y-1524700D01*
X331300Y-1521400D01*
X326300Y-1516400D01*
X323000Y-1510600D01*
X321300Y-1503900D01*
Y-1498100D01*
X323000Y-1493100D01*
X326300Y-1487200D01*
X331300Y-1482200D01*
X336300Y-1478900D01*
X343000Y-1476400D01*
X348800D01*
X355500Y-1478100D01*
X360500Y-1481400D01*
G01X373800Y-1526400D02*
Y-1476400D01*
X412200Y-1526400D01*
Y-1476400D01*
G01X424700Y-1526400D02*
Y-1476400D01*
X441300D01*
X448000Y-1478900D01*
X453000Y-1482200D01*
X457200Y-1487200D01*
X460500Y-1493100D01*
X461300Y-1501400D01*
X460500Y-1509700D01*
X457200Y-1515600D01*
X453000Y-1520600D01*
X448000Y-1523900D01*
X441300Y-1526400D01*
X424700D01*
G01X361300Y-1607800D02*
X356300Y-1605300D01*
X350500Y-1603600D01*
X343800D01*
X336300Y-1606100D01*
X330500Y-1610300D01*
X326300Y-1615300D01*
X323000Y-1623600D01*
X322200Y-1631100D01*
X323800Y-1638600D01*
X326300Y-1643600D01*
X331300Y-1648600D01*
X337200Y-1651900D01*
X343000Y-1653600D01*
X348800D01*
X354700Y-1651900D01*
X359700Y-1649400D01*
X363800Y-1646100D01*
G01X375500Y-1646900D02*
X382200Y-1651100D01*
X389700Y-1653600D01*
X396300D01*
X403000Y-1651100D01*
X408000Y-1646900D01*
X410500Y-1641100D01*
X408800Y-1635300D01*
X404700Y-1630300D01*
X397200Y-1626900D01*
X387200Y-1625300D01*
X381300Y-1621900D01*
X378800Y-1616100D01*
X380500Y-1610300D01*
X384700Y-1606100D01*
X390500Y-1603600D01*
X396300D01*
X402200Y-1605300D01*
X407200Y-1609400D01*
G01X418000Y-1670300D02*
X468000D01*
G01X491300Y-1653600D02*
X493000Y-1642800D01*
X495500Y-1633600D01*
X498800Y-1625300D01*
X503000Y-1616100D01*
X509700Y-1603600D01*
X476300D01*
G01X321300Y-508800D02*
Y-458800D01*
X343000Y-500500D01*
X364700Y-458800D01*
Y-508800D01*
G01X393000D02*
X386300Y-508000D01*
X380500Y-504600D01*
X375500Y-499600D01*
X372200Y-493800D01*
X370500Y-487100D01*
Y-480500D01*
X372200Y-473800D01*
X375500Y-468000D01*
X380500Y-463000D01*
X386300Y-459600D01*
X393000Y-458800D01*
X399700Y-459600D01*
X405500Y-463000D01*
X410500Y-468000D01*
X413800Y-473800D01*
X415500Y-480500D01*
Y-487100D01*
X413800Y-493800D01*
X410500Y-499600D01*
X405500Y-504600D01*
X399700Y-508000D01*
X393000Y-508800D01*
G01X425500Y-502100D02*
X432200Y-506300D01*
X439700Y-508800D01*
X446300D01*
X453000Y-506300D01*
X458000Y-502100D01*
X460500Y-496300D01*
X458800Y-490500D01*
X454700Y-485500D01*
X447200Y-482100D01*
X437200Y-480500D01*
X431300Y-477100D01*
X428800Y-471300D01*
X430500Y-465500D01*
X434700Y-461300D01*
X440500Y-458800D01*
X446300D01*
X452200Y-460500D01*
X457200Y-464600D01*
G01X483000Y-458800D02*
X503000D01*
G01X493000D02*
Y-508800D01*
G01X483000D02*
X503000D01*
G01X518000Y-525500D02*
X568000D01*
G01X574700Y-501300D02*
X579700Y-505500D01*
X585500Y-508000D01*
X593000Y-508800D01*
X600500Y-507100D01*
X606300Y-503800D01*
X610500Y-498000D01*
X611300Y-491300D01*
X609700Y-484600D01*
X605500Y-480500D01*
X599700Y-477100D01*
X593800Y-476300D01*
X588000Y-477100D01*
X580500Y-480500D01*
X583000Y-458800D01*
X605500D01*
G01X321300Y-636000D02*
Y-586000D01*
X343000Y-627700D01*
X364700Y-586000D01*
Y-636000D01*
G01X393000D02*
X386300Y-635200D01*
X380500Y-631800D01*
X375500Y-626800D01*
X372200Y-621000D01*
X370500Y-614300D01*
Y-607700D01*
X372200Y-601000D01*
X375500Y-595200D01*
X380500Y-590200D01*
X386300Y-586800D01*
X393000Y-586000D01*
X399700Y-586800D01*
X405500Y-590200D01*
X410500Y-595200D01*
X413800Y-601000D01*
X415500Y-607700D01*
Y-614300D01*
X413800Y-621000D01*
X410500Y-626800D01*
X405500Y-631800D01*
X399700Y-635200D01*
X393000Y-636000D01*
G01X425500Y-629300D02*
X432200Y-633500D01*
X439700Y-636000D01*
X446300D01*
X453000Y-633500D01*
X458000Y-629300D01*
X460500Y-623500D01*
X458800Y-617700D01*
X454700Y-612700D01*
X447200Y-609300D01*
X437200Y-607700D01*
X431300Y-604300D01*
X428800Y-598500D01*
X430500Y-592700D01*
X434700Y-588500D01*
X440500Y-586000D01*
X446300D01*
X452200Y-587700D01*
X457200Y-591800D01*
G01X483000Y-586000D02*
X503000D01*
G01X493000D02*
Y-636000D01*
G01X483000D02*
X503000D01*
G01X518000Y-652700D02*
X568000D01*
G01X603000Y-636000D02*
Y-586000D01*
X572200Y-621800D01*
X613800D01*
G01X321300Y-763200D02*
Y-713200D01*
X343000Y-754900D01*
X364700Y-713200D01*
Y-763200D01*
G01X393000D02*
X386300Y-762400D01*
X380500Y-759000D01*
X375500Y-754000D01*
X372200Y-748200D01*
X370500Y-741500D01*
Y-734900D01*
X372200Y-728200D01*
X375500Y-722400D01*
X380500Y-717400D01*
X386300Y-714000D01*
X393000Y-713200D01*
X399700Y-714000D01*
X405500Y-717400D01*
X410500Y-722400D01*
X413800Y-728200D01*
X415500Y-734900D01*
Y-741500D01*
X413800Y-748200D01*
X410500Y-754000D01*
X405500Y-759000D01*
X399700Y-762400D01*
X393000Y-763200D01*
G01X425500Y-756500D02*
X432200Y-760700D01*
X439700Y-763200D01*
X446300D01*
X453000Y-760700D01*
X458000Y-756500D01*
X460500Y-750700D01*
X458800Y-744900D01*
X454700Y-739900D01*
X447200Y-736500D01*
X437200Y-734900D01*
X431300Y-731500D01*
X428800Y-725700D01*
X430500Y-719900D01*
X434700Y-715700D01*
X440500Y-713200D01*
X446300D01*
X452200Y-714900D01*
X457200Y-719000D01*
G01X483000Y-713200D02*
X503000D01*
G01X493000D02*
Y-763200D01*
G01X483000D02*
X503000D01*
G01X518000Y-779900D02*
X568000D01*
G01X574700Y-753200D02*
X579700Y-759000D01*
X586300Y-762400D01*
X593800Y-763200D01*
X600500Y-762400D01*
X607200Y-758200D01*
X611300Y-753200D01*
X612200Y-748200D01*
X610500Y-742400D01*
X604700Y-738200D01*
X598800Y-736500D01*
X591300D01*
G01X598800D02*
X603800Y-734000D01*
X608000Y-729900D01*
X609700Y-724900D01*
X608000Y-719900D01*
X603800Y-715700D01*
X596300Y-713200D01*
X588800Y-714000D01*
X581300Y-717400D01*
G01X321300Y-890400D02*
Y-840400D01*
X343000Y-882100D01*
X364700Y-840400D01*
Y-890400D01*
G01X393000D02*
X386300Y-889600D01*
X380500Y-886200D01*
X375500Y-881200D01*
X372200Y-875400D01*
X370500Y-868700D01*
Y-862100D01*
X372200Y-855400D01*
X375500Y-849600D01*
X380500Y-844600D01*
X386300Y-841200D01*
X393000Y-840400D01*
X399700Y-841200D01*
X405500Y-844600D01*
X410500Y-849600D01*
X413800Y-855400D01*
X415500Y-862100D01*
Y-868700D01*
X413800Y-875400D01*
X410500Y-881200D01*
X405500Y-886200D01*
X399700Y-889600D01*
X393000Y-890400D01*
G01X425500Y-883700D02*
X432200Y-887900D01*
X439700Y-890400D01*
X446300D01*
X453000Y-887900D01*
X458000Y-883700D01*
X460500Y-877900D01*
X458800Y-872100D01*
X454700Y-867100D01*
X447200Y-863700D01*
X437200Y-862100D01*
X431300Y-858700D01*
X428800Y-852900D01*
X430500Y-847100D01*
X434700Y-842900D01*
X440500Y-840400D01*
X446300D01*
X452200Y-842100D01*
X457200Y-846200D01*
G01X483000Y-840400D02*
X503000D01*
G01X493000D02*
Y-890400D01*
G01X483000D02*
X503000D01*
G01X518000Y-907100D02*
X568000D01*
G01X577200Y-848700D02*
X582200Y-843700D01*
X588000Y-841200D01*
X594700Y-840400D01*
X603000Y-842100D01*
X608800Y-846200D01*
X610500Y-851200D01*
X609700Y-856200D01*
X606300Y-860400D01*
X589700Y-868700D01*
X582200Y-874600D01*
X577200Y-882900D01*
X575500Y-890400D01*
X610500D01*
G01X2108700Y-2925600D02*
X2075300D01*
Y-2875600D01*
X2108700D01*
G01X2095300Y-2899800D02*
X2075300D01*
G01X2124500Y-2925600D02*
X2159500Y-2875600D01*
G01X2124500D02*
X2159500Y-2925600D01*
G01X2192000Y-2875600D02*
Y-2925600D01*
G01X2172800Y-2875600D02*
X2211200D01*
G01X2217000Y-2942300D02*
X2267000D01*
G01X2282000Y-2875600D02*
X2302000D01*
G01X2292000D02*
Y-2925600D01*
G01X2282000D02*
X2302000D01*
G01X2322800D02*
Y-2875600D01*
X2361200Y-2925600D01*
Y-2875600D01*
G01X2392000D02*
Y-2925600D01*
G01X2372800Y-2875600D02*
X2411200D01*
G01X2070300Y-2798400D02*
Y-2748400D01*
X2092000Y-2790100D01*
X2113700Y-2748400D01*
Y-2798400D01*
G01X2132000Y-2748400D02*
X2152000D01*
G01X2142000D02*
Y-2798400D01*
G01X2132000D02*
X2152000D01*
G01X2174500Y-2791700D02*
X2181200Y-2795900D01*
X2188700Y-2798400D01*
X2195300D01*
X2202000Y-2795900D01*
X2207000Y-2791700D01*
X2209500Y-2785900D01*
X2207800Y-2780100D01*
X2203700Y-2775100D01*
X2196200Y-2771700D01*
X2186200Y-2770100D01*
X2180300Y-2766700D01*
X2177800Y-2760900D01*
X2179500Y-2755100D01*
X2183700Y-2750900D01*
X2189500Y-2748400D01*
X2195300D01*
X2201200Y-2750100D01*
X2206200Y-2754200D01*
G01X2242000Y-2798400D02*
X2235300Y-2797600D01*
X2229500Y-2794200D01*
X2224500Y-2789200D01*
X2221200Y-2783400D01*
X2219500Y-2776700D01*
Y-2770100D01*
X2221200Y-2763400D01*
X2224500Y-2757600D01*
X2229500Y-2752600D01*
X2235300Y-2749200D01*
X2242000Y-2748400D01*
X2248700Y-2749200D01*
X2254500Y-2752600D01*
X2259500Y-2757600D01*
X2262800Y-2763400D01*
X2264500Y-2770100D01*
Y-2776700D01*
X2262800Y-2783400D01*
X2259500Y-2789200D01*
X2254500Y-2794200D01*
X2248700Y-2797600D01*
X2242000Y-2798400D01*
G01X2267000Y-2815100D02*
X2317000D01*
G01X2342000Y-2798400D02*
Y-2748400D01*
X2332000Y-2758400D01*
G01Y-2798400D02*
X2352000D01*
G01X2392000D02*
Y-2748400D01*
X2382000Y-2758400D01*
G01Y-2798400D02*
X2402000D01*
G01X2070300Y-2671200D02*
Y-2621200D01*
X2092000Y-2662900D01*
X2113700Y-2621200D01*
Y-2671200D01*
G01X2132000Y-2621200D02*
X2152000D01*
G01X2142000D02*
Y-2671200D01*
G01X2132000D02*
X2152000D01*
G01X2174500Y-2664500D02*
X2181200Y-2668700D01*
X2188700Y-2671200D01*
X2195300D01*
X2202000Y-2668700D01*
X2207000Y-2664500D01*
X2209500Y-2658700D01*
X2207800Y-2652900D01*
X2203700Y-2647900D01*
X2196200Y-2644500D01*
X2186200Y-2642900D01*
X2180300Y-2639500D01*
X2177800Y-2633700D01*
X2179500Y-2627900D01*
X2183700Y-2623700D01*
X2189500Y-2621200D01*
X2195300D01*
X2201200Y-2622900D01*
X2206200Y-2627000D01*
G01X2242000Y-2671200D02*
X2235300Y-2670400D01*
X2229500Y-2667000D01*
X2224500Y-2662000D01*
X2221200Y-2656200D01*
X2219500Y-2649500D01*
Y-2642900D01*
X2221200Y-2636200D01*
X2224500Y-2630400D01*
X2229500Y-2625400D01*
X2235300Y-2622000D01*
X2242000Y-2621200D01*
X2248700Y-2622000D01*
X2254500Y-2625400D01*
X2259500Y-2630400D01*
X2262800Y-2636200D01*
X2264500Y-2642900D01*
Y-2649500D01*
X2262800Y-2656200D01*
X2259500Y-2662000D01*
X2254500Y-2667000D01*
X2248700Y-2670400D01*
X2242000Y-2671200D01*
G01X2267000Y-2687900D02*
X2317000D01*
G01X2342000Y-2671200D02*
Y-2621200D01*
X2332000Y-2631200D01*
G01Y-2671200D02*
X2352000D01*
G01X2392000Y-2621200D02*
X2385300Y-2622900D01*
X2380300Y-2627000D01*
X2377000Y-2632000D01*
X2374500Y-2638700D01*
X2373700Y-2646200D01*
X2374500Y-2653700D01*
X2377000Y-2660400D01*
X2380300Y-2665400D01*
X2385300Y-2669500D01*
X2392000Y-2671200D01*
X2398700Y-2669500D01*
X2403700Y-2665400D01*
X2407000Y-2660400D01*
X2409500Y-2653700D01*
X2410300Y-2646200D01*
X2409500Y-2638700D01*
X2407000Y-2632000D01*
X2403700Y-2627000D01*
X2398700Y-2622900D01*
X2392000Y-2621200D01*
G01X2070300Y-2544000D02*
Y-2494000D01*
X2092000Y-2535700D01*
X2113700Y-2494000D01*
Y-2544000D01*
G01X2132000Y-2494000D02*
X2152000D01*
G01X2142000D02*
Y-2544000D01*
G01X2132000D02*
X2152000D01*
G01X2174500Y-2537300D02*
X2181200Y-2541500D01*
X2188700Y-2544000D01*
X2195300D01*
X2202000Y-2541500D01*
X2207000Y-2537300D01*
X2209500Y-2531500D01*
X2207800Y-2525700D01*
X2203700Y-2520700D01*
X2196200Y-2517300D01*
X2186200Y-2515700D01*
X2180300Y-2512300D01*
X2177800Y-2506500D01*
X2179500Y-2500700D01*
X2183700Y-2496500D01*
X2189500Y-2494000D01*
X2195300D01*
X2201200Y-2495700D01*
X2206200Y-2499800D01*
G01X2242000Y-2544000D02*
X2235300Y-2543200D01*
X2229500Y-2539800D01*
X2224500Y-2534800D01*
X2221200Y-2529000D01*
X2219500Y-2522300D01*
Y-2515700D01*
X2221200Y-2509000D01*
X2224500Y-2503200D01*
X2229500Y-2498200D01*
X2235300Y-2494800D01*
X2242000Y-2494000D01*
X2248700Y-2494800D01*
X2254500Y-2498200D01*
X2259500Y-2503200D01*
X2262800Y-2509000D01*
X2264500Y-2515700D01*
Y-2522300D01*
X2262800Y-2529000D01*
X2259500Y-2534800D01*
X2254500Y-2539800D01*
X2248700Y-2543200D01*
X2242000Y-2544000D01*
G01X2267000Y-2560700D02*
X2317000D01*
G01X2327800Y-2538200D02*
X2333700Y-2542300D01*
X2340300Y-2544000D01*
X2347000Y-2542300D01*
X2352800Y-2537300D01*
X2357000Y-2529800D01*
X2358700Y-2522300D01*
Y-2513200D01*
X2357000Y-2505700D01*
X2352800Y-2499000D01*
X2347800Y-2495700D01*
X2342000Y-2494000D01*
X2335300Y-2495700D01*
X2330300Y-2499000D01*
X2327000Y-2504000D01*
X2325300Y-2510700D01*
X2327000Y-2516500D01*
X2331200Y-2522300D01*
X2336200Y-2525700D01*
X2342000Y-2526500D01*
X2348700Y-2524800D01*
X2353700Y-2520700D01*
X2358700Y-2513200D01*
G01X1948100Y-3116400D02*
Y-3066400D01*
X1968100D01*
X1974800Y-3068900D01*
X1979800Y-3074700D01*
X1981500Y-3081400D01*
X1979800Y-3088100D01*
X1975600Y-3093100D01*
X1968100Y-3095600D01*
X1948100D01*
G01X2014800Y-3083100D02*
Y-3116400D01*
G01Y-3069700D02*
X2013100Y-3068900D01*
Y-3067200D01*
X2014800Y-3066400D01*
X2016500Y-3067200D01*
Y-3068900D01*
X2014800Y-3069700D01*
G01X2050600Y-3116400D02*
Y-3083100D01*
G01Y-3091400D02*
X2054000Y-3087200D01*
X2059000Y-3083900D01*
X2065600Y-3083100D01*
X2071500Y-3083900D01*
X2076500Y-3087200D01*
X2079000Y-3093100D01*
Y-3116400D01*
G01X2089800Y-3133100D02*
X2139800D01*
G01X2164800Y-3116400D02*
Y-3066400D01*
X2154800Y-3076400D01*
G01Y-3116400D02*
X2174800D01*
G01X2070300Y-2416800D02*
Y-2366800D01*
X2092000Y-2408500D01*
X2113700Y-2366800D01*
Y-2416800D01*
G01X2132000Y-2366800D02*
X2152000D01*
G01X2142000D02*
Y-2416800D01*
G01X2132000D02*
X2152000D01*
G01X2174500Y-2410100D02*
X2181200Y-2414300D01*
X2188700Y-2416800D01*
X2195300D01*
X2202000Y-2414300D01*
X2207000Y-2410100D01*
X2209500Y-2404300D01*
X2207800Y-2398500D01*
X2203700Y-2393500D01*
X2196200Y-2390100D01*
X2186200Y-2388500D01*
X2180300Y-2385100D01*
X2177800Y-2379300D01*
X2179500Y-2373500D01*
X2183700Y-2369300D01*
X2189500Y-2366800D01*
X2195300D01*
X2201200Y-2368500D01*
X2206200Y-2372600D01*
G01X2242000Y-2416800D02*
X2235300Y-2416000D01*
X2229500Y-2412600D01*
X2224500Y-2407600D01*
X2221200Y-2401800D01*
X2219500Y-2395100D01*
Y-2388500D01*
X2221200Y-2381800D01*
X2224500Y-2376000D01*
X2229500Y-2371000D01*
X2235300Y-2367600D01*
X2242000Y-2366800D01*
X2248700Y-2367600D01*
X2254500Y-2371000D01*
X2259500Y-2376000D01*
X2262800Y-2381800D01*
X2264500Y-2388500D01*
Y-2395100D01*
X2262800Y-2401800D01*
X2259500Y-2407600D01*
X2254500Y-2412600D01*
X2248700Y-2416000D01*
X2242000Y-2416800D01*
G01X2267000Y-2433500D02*
X2317000D01*
G01X2342000Y-2416800D02*
X2347800Y-2416000D01*
X2354500Y-2413500D01*
X2358700Y-2409300D01*
X2360300Y-2403500D01*
X2358700Y-2397600D01*
X2353700Y-2392600D01*
X2346200Y-2390100D01*
X2337800D01*
X2332800Y-2388500D01*
X2328700Y-2384300D01*
X2327000Y-2378500D01*
X2329500Y-2372600D01*
X2335300Y-2368500D01*
X2342000Y-2366800D01*
X2348700Y-2368500D01*
X2354500Y-2372600D01*
X2357000Y-2378500D01*
X2355300Y-2384300D01*
X2351200Y-2388500D01*
X2346200Y-2390100D01*
X2337800D01*
X2330300Y-2392600D01*
X2325300Y-2397600D01*
X2323700Y-2403500D01*
X2325300Y-2409300D01*
X2329500Y-2413500D01*
X2336200Y-2416000D01*
X2342000Y-2416800D01*
G01X2070300Y-2289600D02*
Y-2239600D01*
X2092000Y-2281300D01*
X2113700Y-2239600D01*
Y-2289600D01*
G01X2132000Y-2239600D02*
X2152000D01*
G01X2142000D02*
Y-2289600D01*
G01X2132000D02*
X2152000D01*
G01X2174500Y-2282900D02*
X2181200Y-2287100D01*
X2188700Y-2289600D01*
X2195300D01*
X2202000Y-2287100D01*
X2207000Y-2282900D01*
X2209500Y-2277100D01*
X2207800Y-2271300D01*
X2203700Y-2266300D01*
X2196200Y-2262900D01*
X2186200Y-2261300D01*
X2180300Y-2257900D01*
X2177800Y-2252100D01*
X2179500Y-2246300D01*
X2183700Y-2242100D01*
X2189500Y-2239600D01*
X2195300D01*
X2201200Y-2241300D01*
X2206200Y-2245400D01*
G01X2242000Y-2289600D02*
X2235300Y-2288800D01*
X2229500Y-2285400D01*
X2224500Y-2280400D01*
X2221200Y-2274600D01*
X2219500Y-2267900D01*
Y-2261300D01*
X2221200Y-2254600D01*
X2224500Y-2248800D01*
X2229500Y-2243800D01*
X2235300Y-2240400D01*
X2242000Y-2239600D01*
X2248700Y-2240400D01*
X2254500Y-2243800D01*
X2259500Y-2248800D01*
X2262800Y-2254600D01*
X2264500Y-2261300D01*
Y-2267900D01*
X2262800Y-2274600D01*
X2259500Y-2280400D01*
X2254500Y-2285400D01*
X2248700Y-2288800D01*
X2242000Y-2289600D01*
G01X2267000Y-2306300D02*
X2317000D01*
G01X2340300Y-2289600D02*
X2342000Y-2278800D01*
X2344500Y-2269600D01*
X2347800Y-2261300D01*
X2352000Y-2252100D01*
X2358700Y-2239600D01*
X2325300D01*
G01X2070300Y-2162400D02*
Y-2112400D01*
X2092000Y-2154100D01*
X2113700Y-2112400D01*
Y-2162400D01*
G01X2132000Y-2112400D02*
X2152000D01*
G01X2142000D02*
Y-2162400D01*
G01X2132000D02*
X2152000D01*
G01X2174500Y-2155700D02*
X2181200Y-2159900D01*
X2188700Y-2162400D01*
X2195300D01*
X2202000Y-2159900D01*
X2207000Y-2155700D01*
X2209500Y-2149900D01*
X2207800Y-2144100D01*
X2203700Y-2139100D01*
X2196200Y-2135700D01*
X2186200Y-2134100D01*
X2180300Y-2130700D01*
X2177800Y-2124900D01*
X2179500Y-2119100D01*
X2183700Y-2114900D01*
X2189500Y-2112400D01*
X2195300D01*
X2201200Y-2114100D01*
X2206200Y-2118200D01*
G01X2242000Y-2162400D02*
X2235300Y-2161600D01*
X2229500Y-2158200D01*
X2224500Y-2153200D01*
X2221200Y-2147400D01*
X2219500Y-2140700D01*
Y-2134100D01*
X2221200Y-2127400D01*
X2224500Y-2121600D01*
X2229500Y-2116600D01*
X2235300Y-2113200D01*
X2242000Y-2112400D01*
X2248700Y-2113200D01*
X2254500Y-2116600D01*
X2259500Y-2121600D01*
X2262800Y-2127400D01*
X2264500Y-2134100D01*
Y-2140700D01*
X2262800Y-2147400D01*
X2259500Y-2153200D01*
X2254500Y-2158200D01*
X2248700Y-2161600D01*
X2242000Y-2162400D01*
G01X2267000Y-2179100D02*
X2317000D01*
G01X2326200Y-2141600D02*
X2332000Y-2135700D01*
X2337000Y-2132400D01*
X2343700Y-2130700D01*
X2349500Y-2132400D01*
X2353700Y-2135700D01*
X2357000Y-2140700D01*
X2357800Y-2146600D01*
X2357000Y-2151600D01*
X2353700Y-2156600D01*
X2348700Y-2160700D01*
X2342800Y-2162400D01*
X2336200Y-2160700D01*
X2330300Y-2155700D01*
X2327000Y-2148200D01*
X2326200Y-2139900D01*
X2327800Y-2129100D01*
X2330300Y-2123200D01*
X2334500Y-2117400D01*
X2340300Y-2113200D01*
X2346200Y-2112400D01*
X2352000Y-2114100D01*
X2356200Y-2118200D01*
G01X2070300Y-2035200D02*
Y-1985200D01*
X2092000Y-2026900D01*
X2113700Y-1985200D01*
Y-2035200D01*
G01X2132000Y-1985200D02*
X2152000D01*
G01X2142000D02*
Y-2035200D01*
G01X2132000D02*
X2152000D01*
G01X2174500Y-2028500D02*
X2181200Y-2032700D01*
X2188700Y-2035200D01*
X2195300D01*
X2202000Y-2032700D01*
X2207000Y-2028500D01*
X2209500Y-2022700D01*
X2207800Y-2016900D01*
X2203700Y-2011900D01*
X2196200Y-2008500D01*
X2186200Y-2006900D01*
X2180300Y-2003500D01*
X2177800Y-1997700D01*
X2179500Y-1991900D01*
X2183700Y-1987700D01*
X2189500Y-1985200D01*
X2195300D01*
X2201200Y-1986900D01*
X2206200Y-1991000D01*
G01X2242000Y-2035200D02*
X2235300Y-2034400D01*
X2229500Y-2031000D01*
X2224500Y-2026000D01*
X2221200Y-2020200D01*
X2219500Y-2013500D01*
Y-2006900D01*
X2221200Y-2000200D01*
X2224500Y-1994400D01*
X2229500Y-1989400D01*
X2235300Y-1986000D01*
X2242000Y-1985200D01*
X2248700Y-1986000D01*
X2254500Y-1989400D01*
X2259500Y-1994400D01*
X2262800Y-2000200D01*
X2264500Y-2006900D01*
Y-2013500D01*
X2262800Y-2020200D01*
X2259500Y-2026000D01*
X2254500Y-2031000D01*
X2248700Y-2034400D01*
X2242000Y-2035200D01*
G01X2267000Y-2051900D02*
X2317000D01*
G01X2323700Y-2027700D02*
X2328700Y-2031900D01*
X2334500Y-2034400D01*
X2342000Y-2035200D01*
X2349500Y-2033500D01*
X2355300Y-2030200D01*
X2359500Y-2024400D01*
X2360300Y-2017700D01*
X2358700Y-2011000D01*
X2354500Y-2006900D01*
X2348700Y-2003500D01*
X2342800Y-2002700D01*
X2337000Y-2003500D01*
X2329500Y-2006900D01*
X2332000Y-1985200D01*
X2354500D01*
G01X2070300Y-1908000D02*
Y-1858000D01*
X2092000Y-1899700D01*
X2113700Y-1858000D01*
Y-1908000D01*
G01X2132000Y-1858000D02*
X2152000D01*
G01X2142000D02*
Y-1908000D01*
G01X2132000D02*
X2152000D01*
G01X2174500Y-1901300D02*
X2181200Y-1905500D01*
X2188700Y-1908000D01*
X2195300D01*
X2202000Y-1905500D01*
X2207000Y-1901300D01*
X2209500Y-1895500D01*
X2207800Y-1889700D01*
X2203700Y-1884700D01*
X2196200Y-1881300D01*
X2186200Y-1879700D01*
X2180300Y-1876300D01*
X2177800Y-1870500D01*
X2179500Y-1864700D01*
X2183700Y-1860500D01*
X2189500Y-1858000D01*
X2195300D01*
X2201200Y-1859700D01*
X2206200Y-1863800D01*
G01X2242000Y-1908000D02*
X2235300Y-1907200D01*
X2229500Y-1903800D01*
X2224500Y-1898800D01*
X2221200Y-1893000D01*
X2219500Y-1886300D01*
Y-1879700D01*
X2221200Y-1873000D01*
X2224500Y-1867200D01*
X2229500Y-1862200D01*
X2235300Y-1858800D01*
X2242000Y-1858000D01*
X2248700Y-1858800D01*
X2254500Y-1862200D01*
X2259500Y-1867200D01*
X2262800Y-1873000D01*
X2264500Y-1879700D01*
Y-1886300D01*
X2262800Y-1893000D01*
X2259500Y-1898800D01*
X2254500Y-1903800D01*
X2248700Y-1907200D01*
X2242000Y-1908000D01*
G01X2267000Y-1924700D02*
X2317000D01*
G01X2352000Y-1908000D02*
Y-1858000D01*
X2321200Y-1893800D01*
X2362800D01*
G01X2070300Y-1780800D02*
Y-1730800D01*
X2092000Y-1772500D01*
X2113700Y-1730800D01*
Y-1780800D01*
G01X2132000Y-1730800D02*
X2152000D01*
G01X2142000D02*
Y-1780800D01*
G01X2132000D02*
X2152000D01*
G01X2174500Y-1774100D02*
X2181200Y-1778300D01*
X2188700Y-1780800D01*
X2195300D01*
X2202000Y-1778300D01*
X2207000Y-1774100D01*
X2209500Y-1768300D01*
X2207800Y-1762500D01*
X2203700Y-1757500D01*
X2196200Y-1754100D01*
X2186200Y-1752500D01*
X2180300Y-1749100D01*
X2177800Y-1743300D01*
X2179500Y-1737500D01*
X2183700Y-1733300D01*
X2189500Y-1730800D01*
X2195300D01*
X2201200Y-1732500D01*
X2206200Y-1736600D01*
G01X2242000Y-1780800D02*
X2235300Y-1780000D01*
X2229500Y-1776600D01*
X2224500Y-1771600D01*
X2221200Y-1765800D01*
X2219500Y-1759100D01*
Y-1752500D01*
X2221200Y-1745800D01*
X2224500Y-1740000D01*
X2229500Y-1735000D01*
X2235300Y-1731600D01*
X2242000Y-1730800D01*
X2248700Y-1731600D01*
X2254500Y-1735000D01*
X2259500Y-1740000D01*
X2262800Y-1745800D01*
X2264500Y-1752500D01*
Y-1759100D01*
X2262800Y-1765800D01*
X2259500Y-1771600D01*
X2254500Y-1776600D01*
X2248700Y-1780000D01*
X2242000Y-1780800D01*
G01X2267000Y-1797500D02*
X2317000D01*
G01X2323700Y-1770800D02*
X2328700Y-1776600D01*
X2335300Y-1780000D01*
X2342800Y-1780800D01*
X2349500Y-1780000D01*
X2356200Y-1775800D01*
X2360300Y-1770800D01*
X2361200Y-1765800D01*
X2359500Y-1760000D01*
X2353700Y-1755800D01*
X2347800Y-1754100D01*
X2340300D01*
G01X2347800D02*
X2352800Y-1751600D01*
X2357000Y-1747500D01*
X2358700Y-1742500D01*
X2357000Y-1737500D01*
X2352800Y-1733300D01*
X2345300Y-1730800D01*
X2337800Y-1731600D01*
X2330300Y-1735000D01*
G01X2070300Y-1653600D02*
Y-1603600D01*
X2092000Y-1645300D01*
X2113700Y-1603600D01*
Y-1653600D01*
G01X2132000Y-1603600D02*
X2152000D01*
G01X2142000D02*
Y-1653600D01*
G01X2132000D02*
X2152000D01*
G01X2174500Y-1646900D02*
X2181200Y-1651100D01*
X2188700Y-1653600D01*
X2195300D01*
X2202000Y-1651100D01*
X2207000Y-1646900D01*
X2209500Y-1641100D01*
X2207800Y-1635300D01*
X2203700Y-1630300D01*
X2196200Y-1626900D01*
X2186200Y-1625300D01*
X2180300Y-1621900D01*
X2177800Y-1616100D01*
X2179500Y-1610300D01*
X2183700Y-1606100D01*
X2189500Y-1603600D01*
X2195300D01*
X2201200Y-1605300D01*
X2206200Y-1609400D01*
G01X2242000Y-1653600D02*
X2235300Y-1652800D01*
X2229500Y-1649400D01*
X2224500Y-1644400D01*
X2221200Y-1638600D01*
X2219500Y-1631900D01*
Y-1625300D01*
X2221200Y-1618600D01*
X2224500Y-1612800D01*
X2229500Y-1607800D01*
X2235300Y-1604400D01*
X2242000Y-1603600D01*
X2248700Y-1604400D01*
X2254500Y-1607800D01*
X2259500Y-1612800D01*
X2262800Y-1618600D01*
X2264500Y-1625300D01*
Y-1631900D01*
X2262800Y-1638600D01*
X2259500Y-1644400D01*
X2254500Y-1649400D01*
X2248700Y-1652800D01*
X2242000Y-1653600D01*
G01X2267000Y-1670300D02*
X2317000D01*
G01X2326200Y-1611900D02*
X2331200Y-1606900D01*
X2337000Y-1604400D01*
X2343700Y-1603600D01*
X2352000Y-1605300D01*
X2357800Y-1609400D01*
X2359500Y-1614400D01*
X2358700Y-1619400D01*
X2355300Y-1623600D01*
X2338700Y-1631900D01*
X2331200Y-1637800D01*
X2326200Y-1646100D01*
X2324500Y-1653600D01*
X2359500D01*
G01X2070300Y-1526400D02*
Y-1476400D01*
X2092000Y-1518100D01*
X2113700Y-1476400D01*
Y-1526400D01*
G01X2132000Y-1476400D02*
X2152000D01*
G01X2142000D02*
Y-1526400D01*
G01X2132000D02*
X2152000D01*
G01X2174500Y-1519700D02*
X2181200Y-1523900D01*
X2188700Y-1526400D01*
X2195300D01*
X2202000Y-1523900D01*
X2207000Y-1519700D01*
X2209500Y-1513900D01*
X2207800Y-1508100D01*
X2203700Y-1503100D01*
X2196200Y-1499700D01*
X2186200Y-1498100D01*
X2180300Y-1494700D01*
X2177800Y-1488900D01*
X2179500Y-1483100D01*
X2183700Y-1478900D01*
X2189500Y-1476400D01*
X2195300D01*
X2201200Y-1478100D01*
X2206200Y-1482200D01*
G01X2242000Y-1526400D02*
X2235300Y-1525600D01*
X2229500Y-1522200D01*
X2224500Y-1517200D01*
X2221200Y-1511400D01*
X2219500Y-1504700D01*
Y-1498100D01*
X2221200Y-1491400D01*
X2224500Y-1485600D01*
X2229500Y-1480600D01*
X2235300Y-1477200D01*
X2242000Y-1476400D01*
X2248700Y-1477200D01*
X2254500Y-1480600D01*
X2259500Y-1485600D01*
X2262800Y-1491400D01*
X2264500Y-1498100D01*
Y-1504700D01*
X2262800Y-1511400D01*
X2259500Y-1517200D01*
X2254500Y-1522200D01*
X2248700Y-1525600D01*
X2242000Y-1526400D01*
G01X2267000Y-1543100D02*
X2317000D01*
G01X2342000Y-1526400D02*
Y-1476400D01*
X2332000Y-1486400D01*
G01Y-1526400D02*
X2352000D01*
G01X2070300Y-1399200D02*
Y-1349200D01*
X2092000Y-1390900D01*
X2113700Y-1349200D01*
Y-1399200D01*
G01X2132000Y-1349200D02*
X2152000D01*
G01X2142000D02*
Y-1399200D01*
G01X2132000D02*
X2152000D01*
G01X2174500Y-1392500D02*
X2181200Y-1396700D01*
X2188700Y-1399200D01*
X2195300D01*
X2202000Y-1396700D01*
X2207000Y-1392500D01*
X2209500Y-1386700D01*
X2207800Y-1380900D01*
X2203700Y-1375900D01*
X2196200Y-1372500D01*
X2186200Y-1370900D01*
X2180300Y-1367500D01*
X2177800Y-1361700D01*
X2179500Y-1355900D01*
X2183700Y-1351700D01*
X2189500Y-1349200D01*
X2195300D01*
X2201200Y-1350900D01*
X2206200Y-1355000D01*
G01X2242000Y-1399200D02*
X2235300Y-1398400D01*
X2229500Y-1395000D01*
X2224500Y-1390000D01*
X2221200Y-1384200D01*
X2219500Y-1377500D01*
Y-1370900D01*
X2221200Y-1364200D01*
X2224500Y-1358400D01*
X2229500Y-1353400D01*
X2235300Y-1350000D01*
X2242000Y-1349200D01*
X2248700Y-1350000D01*
X2254500Y-1353400D01*
X2259500Y-1358400D01*
X2262800Y-1364200D01*
X2264500Y-1370900D01*
Y-1377500D01*
X2262800Y-1384200D01*
X2259500Y-1390000D01*
X2254500Y-1395000D01*
X2248700Y-1398400D01*
X2242000Y-1399200D01*
G01X2267000Y-1415900D02*
X2317000D01*
G01X2342000Y-1349200D02*
X2335300Y-1350900D01*
X2330300Y-1355000D01*
X2327000Y-1360000D01*
X2324500Y-1366700D01*
X2323700Y-1374200D01*
X2324500Y-1381700D01*
X2327000Y-1388400D01*
X2330300Y-1393400D01*
X2335300Y-1397500D01*
X2342000Y-1399200D01*
X2348700Y-1397500D01*
X2353700Y-1393400D01*
X2357000Y-1388400D01*
X2359500Y-1381700D01*
X2360300Y-1374200D01*
X2359500Y-1366700D01*
X2357000Y-1360000D01*
X2353700Y-1355000D01*
X2348700Y-1350900D01*
X2342000Y-1349200D01*
G01X2097000Y-1247000D02*
X2113700D01*
Y-1262000D01*
X2108700Y-1267000D01*
X2102800Y-1270300D01*
X2094500Y-1272000D01*
X2086200Y-1270300D01*
X2080300Y-1267000D01*
X2075300Y-1262000D01*
X2072000Y-1256200D01*
X2070300Y-1249500D01*
Y-1243700D01*
X2072000Y-1238700D01*
X2075300Y-1232800D01*
X2080300Y-1227800D01*
X2085300Y-1224500D01*
X2092000Y-1222000D01*
X2097800D01*
X2104500Y-1223700D01*
X2109500Y-1227000D01*
G01X2122800Y-1272000D02*
Y-1222000D01*
X2161200Y-1272000D01*
Y-1222000D01*
G01X2173700Y-1272000D02*
Y-1222000D01*
X2190300D01*
X2197000Y-1224500D01*
X2202000Y-1227800D01*
X2206200Y-1232800D01*
X2209500Y-1238700D01*
X2210300Y-1247000D01*
X2209500Y-1255300D01*
X2206200Y-1261200D01*
X2202000Y-1266200D01*
X2197000Y-1269500D01*
X2190300Y-1272000D01*
X2173700D01*
G01X2070300Y-1017600D02*
Y-967600D01*
X2092000Y-1009300D01*
X2113700Y-967600D01*
Y-1017600D01*
G01X2142000D02*
X2135300Y-1016800D01*
X2129500Y-1013400D01*
X2124500Y-1008400D01*
X2121200Y-1002600D01*
X2119500Y-995900D01*
Y-989300D01*
X2121200Y-982600D01*
X2124500Y-976800D01*
X2129500Y-971800D01*
X2135300Y-968400D01*
X2142000Y-967600D01*
X2148700Y-968400D01*
X2154500Y-971800D01*
X2159500Y-976800D01*
X2162800Y-982600D01*
X2164500Y-989300D01*
Y-995900D01*
X2162800Y-1002600D01*
X2159500Y-1008400D01*
X2154500Y-1013400D01*
X2148700Y-1016800D01*
X2142000Y-1017600D01*
G01X2174500Y-1010900D02*
X2181200Y-1015100D01*
X2188700Y-1017600D01*
X2195300D01*
X2202000Y-1015100D01*
X2207000Y-1010900D01*
X2209500Y-1005100D01*
X2207800Y-999300D01*
X2203700Y-994300D01*
X2196200Y-990900D01*
X2186200Y-989300D01*
X2180300Y-985900D01*
X2177800Y-980100D01*
X2179500Y-974300D01*
X2183700Y-970100D01*
X2189500Y-967600D01*
X2195300D01*
X2201200Y-969300D01*
X2206200Y-973400D01*
G01X2232000Y-967600D02*
X2252000D01*
G01X2242000D02*
Y-1017600D01*
G01X2232000D02*
X2252000D01*
G01X2267000Y-1034300D02*
X2317000D01*
G01X2342000Y-1017600D02*
Y-967600D01*
X2332000Y-977600D01*
G01Y-1017600D02*
X2352000D01*
G01X2392000Y-967600D02*
X2385300Y-969300D01*
X2380300Y-973400D01*
X2377000Y-978400D01*
X2374500Y-985100D01*
X2373700Y-992600D01*
X2374500Y-1000100D01*
X2377000Y-1006800D01*
X2380300Y-1011800D01*
X2385300Y-1015900D01*
X2392000Y-1017600D01*
X2398700Y-1015900D01*
X2403700Y-1011800D01*
X2407000Y-1006800D01*
X2409500Y-1000100D01*
X2410300Y-992600D01*
X2409500Y-985100D01*
X2407000Y-978400D01*
X2403700Y-973400D01*
X2398700Y-969300D01*
X2392000Y-967600D01*
G01X2070300Y-1144800D02*
Y-1094800D01*
X2092000Y-1136500D01*
X2113700Y-1094800D01*
Y-1144800D01*
G01X2142000D02*
X2135300Y-1144000D01*
X2129500Y-1140600D01*
X2124500Y-1135600D01*
X2121200Y-1129800D01*
X2119500Y-1123100D01*
Y-1116500D01*
X2121200Y-1109800D01*
X2124500Y-1104000D01*
X2129500Y-1099000D01*
X2135300Y-1095600D01*
X2142000Y-1094800D01*
X2148700Y-1095600D01*
X2154500Y-1099000D01*
X2159500Y-1104000D01*
X2162800Y-1109800D01*
X2164500Y-1116500D01*
Y-1123100D01*
X2162800Y-1129800D01*
X2159500Y-1135600D01*
X2154500Y-1140600D01*
X2148700Y-1144000D01*
X2142000Y-1144800D01*
G01X2174500Y-1138100D02*
X2181200Y-1142300D01*
X2188700Y-1144800D01*
X2195300D01*
X2202000Y-1142300D01*
X2207000Y-1138100D01*
X2209500Y-1132300D01*
X2207800Y-1126500D01*
X2203700Y-1121500D01*
X2196200Y-1118100D01*
X2186200Y-1116500D01*
X2180300Y-1113100D01*
X2177800Y-1107300D01*
X2179500Y-1101500D01*
X2183700Y-1097300D01*
X2189500Y-1094800D01*
X2195300D01*
X2201200Y-1096500D01*
X2206200Y-1100600D01*
G01X2232000Y-1094800D02*
X2252000D01*
G01X2242000D02*
Y-1144800D01*
G01X2232000D02*
X2252000D01*
G01X2267000Y-1161500D02*
X2317000D01*
G01X2342000Y-1144800D02*
Y-1094800D01*
X2332000Y-1104800D01*
G01Y-1144800D02*
X2352000D01*
G01X2392000D02*
Y-1094800D01*
X2382000Y-1104800D01*
G01Y-1144800D02*
X2402000D01*
G01X2070300Y-890400D02*
Y-840400D01*
X2092000Y-882100D01*
X2113700Y-840400D01*
Y-890400D01*
G01X2142000D02*
X2135300Y-889600D01*
X2129500Y-886200D01*
X2124500Y-881200D01*
X2121200Y-875400D01*
X2119500Y-868700D01*
Y-862100D01*
X2121200Y-855400D01*
X2124500Y-849600D01*
X2129500Y-844600D01*
X2135300Y-841200D01*
X2142000Y-840400D01*
X2148700Y-841200D01*
X2154500Y-844600D01*
X2159500Y-849600D01*
X2162800Y-855400D01*
X2164500Y-862100D01*
Y-868700D01*
X2162800Y-875400D01*
X2159500Y-881200D01*
X2154500Y-886200D01*
X2148700Y-889600D01*
X2142000Y-890400D01*
G01X2174500Y-883700D02*
X2181200Y-887900D01*
X2188700Y-890400D01*
X2195300D01*
X2202000Y-887900D01*
X2207000Y-883700D01*
X2209500Y-877900D01*
X2207800Y-872100D01*
X2203700Y-867100D01*
X2196200Y-863700D01*
X2186200Y-862100D01*
X2180300Y-858700D01*
X2177800Y-852900D01*
X2179500Y-847100D01*
X2183700Y-842900D01*
X2189500Y-840400D01*
X2195300D01*
X2201200Y-842100D01*
X2206200Y-846200D01*
G01X2232000Y-840400D02*
X2252000D01*
G01X2242000D02*
Y-890400D01*
G01X2232000D02*
X2252000D01*
G01X2267000Y-907100D02*
X2317000D01*
G01X2327800Y-884600D02*
X2333700Y-888700D01*
X2340300Y-890400D01*
X2347000Y-888700D01*
X2352800Y-883700D01*
X2357000Y-876200D01*
X2358700Y-868700D01*
Y-859600D01*
X2357000Y-852100D01*
X2352800Y-845400D01*
X2347800Y-842100D01*
X2342000Y-840400D01*
X2335300Y-842100D01*
X2330300Y-845400D01*
X2327000Y-850400D01*
X2325300Y-857100D01*
X2327000Y-862900D01*
X2331200Y-868700D01*
X2336200Y-872100D01*
X2342000Y-872900D01*
X2348700Y-871200D01*
X2353700Y-867100D01*
X2358700Y-859600D01*
G01X2070300Y-763200D02*
Y-713200D01*
X2092000Y-754900D01*
X2113700Y-713200D01*
Y-763200D01*
G01X2142000D02*
X2135300Y-762400D01*
X2129500Y-759000D01*
X2124500Y-754000D01*
X2121200Y-748200D01*
X2119500Y-741500D01*
Y-734900D01*
X2121200Y-728200D01*
X2124500Y-722400D01*
X2129500Y-717400D01*
X2135300Y-714000D01*
X2142000Y-713200D01*
X2148700Y-714000D01*
X2154500Y-717400D01*
X2159500Y-722400D01*
X2162800Y-728200D01*
X2164500Y-734900D01*
Y-741500D01*
X2162800Y-748200D01*
X2159500Y-754000D01*
X2154500Y-759000D01*
X2148700Y-762400D01*
X2142000Y-763200D01*
G01X2174500Y-756500D02*
X2181200Y-760700D01*
X2188700Y-763200D01*
X2195300D01*
X2202000Y-760700D01*
X2207000Y-756500D01*
X2209500Y-750700D01*
X2207800Y-744900D01*
X2203700Y-739900D01*
X2196200Y-736500D01*
X2186200Y-734900D01*
X2180300Y-731500D01*
X2177800Y-725700D01*
X2179500Y-719900D01*
X2183700Y-715700D01*
X2189500Y-713200D01*
X2195300D01*
X2201200Y-714900D01*
X2206200Y-719000D01*
G01X2232000Y-713200D02*
X2252000D01*
G01X2242000D02*
Y-763200D01*
G01X2232000D02*
X2252000D01*
G01X2267000Y-779900D02*
X2317000D01*
G01X2342000Y-763200D02*
X2347800Y-762400D01*
X2354500Y-759900D01*
X2358700Y-755700D01*
X2360300Y-749900D01*
X2358700Y-744000D01*
X2353700Y-739000D01*
X2346200Y-736500D01*
X2337800D01*
X2332800Y-734900D01*
X2328700Y-730700D01*
X2327000Y-724900D01*
X2329500Y-719000D01*
X2335300Y-714900D01*
X2342000Y-713200D01*
X2348700Y-714900D01*
X2354500Y-719000D01*
X2357000Y-724900D01*
X2355300Y-730700D01*
X2351200Y-734900D01*
X2346200Y-736500D01*
X2337800D01*
X2330300Y-739000D01*
X2325300Y-744000D01*
X2323700Y-749900D01*
X2325300Y-755700D01*
X2329500Y-759900D01*
X2336200Y-762400D01*
X2342000Y-763200D01*
G01X2070300Y-636000D02*
Y-586000D01*
X2092000Y-627700D01*
X2113700Y-586000D01*
Y-636000D01*
G01X2142000D02*
X2135300Y-635200D01*
X2129500Y-631800D01*
X2124500Y-626800D01*
X2121200Y-621000D01*
X2119500Y-614300D01*
Y-607700D01*
X2121200Y-601000D01*
X2124500Y-595200D01*
X2129500Y-590200D01*
X2135300Y-586800D01*
X2142000Y-586000D01*
X2148700Y-586800D01*
X2154500Y-590200D01*
X2159500Y-595200D01*
X2162800Y-601000D01*
X2164500Y-607700D01*
Y-614300D01*
X2162800Y-621000D01*
X2159500Y-626800D01*
X2154500Y-631800D01*
X2148700Y-635200D01*
X2142000Y-636000D01*
G01X2174500Y-629300D02*
X2181200Y-633500D01*
X2188700Y-636000D01*
X2195300D01*
X2202000Y-633500D01*
X2207000Y-629300D01*
X2209500Y-623500D01*
X2207800Y-617700D01*
X2203700Y-612700D01*
X2196200Y-609300D01*
X2186200Y-607700D01*
X2180300Y-604300D01*
X2177800Y-598500D01*
X2179500Y-592700D01*
X2183700Y-588500D01*
X2189500Y-586000D01*
X2195300D01*
X2201200Y-587700D01*
X2206200Y-591800D01*
G01X2232000Y-586000D02*
X2252000D01*
G01X2242000D02*
Y-636000D01*
G01X2232000D02*
X2252000D01*
G01X2267000Y-652700D02*
X2317000D01*
G01X2340300Y-636000D02*
X2342000Y-625200D01*
X2344500Y-616000D01*
X2347800Y-607700D01*
X2352000Y-598500D01*
X2358700Y-586000D01*
X2325300D01*
G01X2070300Y-508800D02*
Y-458800D01*
X2092000Y-500500D01*
X2113700Y-458800D01*
Y-508800D01*
G01X2142000D02*
X2135300Y-508000D01*
X2129500Y-504600D01*
X2124500Y-499600D01*
X2121200Y-493800D01*
X2119500Y-487100D01*
Y-480500D01*
X2121200Y-473800D01*
X2124500Y-468000D01*
X2129500Y-463000D01*
X2135300Y-459600D01*
X2142000Y-458800D01*
X2148700Y-459600D01*
X2154500Y-463000D01*
X2159500Y-468000D01*
X2162800Y-473800D01*
X2164500Y-480500D01*
Y-487100D01*
X2162800Y-493800D01*
X2159500Y-499600D01*
X2154500Y-504600D01*
X2148700Y-508000D01*
X2142000Y-508800D01*
G01X2174500Y-502100D02*
X2181200Y-506300D01*
X2188700Y-508800D01*
X2195300D01*
X2202000Y-506300D01*
X2207000Y-502100D01*
X2209500Y-496300D01*
X2207800Y-490500D01*
X2203700Y-485500D01*
X2196200Y-482100D01*
X2186200Y-480500D01*
X2180300Y-477100D01*
X2177800Y-471300D01*
X2179500Y-465500D01*
X2183700Y-461300D01*
X2189500Y-458800D01*
X2195300D01*
X2201200Y-460500D01*
X2206200Y-464600D01*
G01X2232000Y-458800D02*
X2252000D01*
G01X2242000D02*
Y-508800D01*
G01X2232000D02*
X2252000D01*
G01X2267000Y-525500D02*
X2317000D01*
G01X2326200Y-488000D02*
X2332000Y-482100D01*
X2337000Y-478800D01*
X2343700Y-477100D01*
X2349500Y-478800D01*
X2353700Y-482100D01*
X2357000Y-487100D01*
X2357800Y-493000D01*
X2357000Y-498000D01*
X2353700Y-503000D01*
X2348700Y-507100D01*
X2342800Y-508800D01*
X2336200Y-507100D01*
X2330300Y-502100D01*
X2327000Y-494600D01*
X2326200Y-486300D01*
X2327800Y-475500D01*
X2330300Y-469600D01*
X2334500Y-463800D01*
X2340300Y-459600D01*
X2346200Y-458800D01*
X2352000Y-460500D01*
X2356200Y-464600D01*
G01X-2286000Y-6096000D02*
Y2286000D01*
X2540000D01*
Y-6096000D01*
X-2286000D01*
G01X1642000Y-290000D02*
X1071000D01*
Y-3139000D01*
X1642000D01*
Y-290000D01*
M02*
