G04 ================== begin FILE IDENTIFICATION RECORD ==================*
G04 Layout Name:  J:/LED_Arena/Interconnector.brd*
G04 Film Name:    TOP*
G04 File Format:  Gerber RS274X*
G04 File Origin:  Cadence Allegro 16.6-P004*
G04 Origin Date:  Wed Feb 22 22:24:16 2017*
G04 *
G04 Layer:  VIA KEEPOUT/ALL*
G04 Layer:  VIA KEEPOUT/BOTTOM*
G04 Layer:  VIA KEEPOUT/TOP*
G04 Layer:  VIA CLASS/TOP*
G04 Layer:  ROUTE KEEPOUT/ALL*
G04 Layer:  ROUTE KEEPOUT/BOTTOM*
G04 Layer:  ROUTE KEEPOUT/TOP*
G04 Layer:  ROUTE KEEPIN/ALL*
G04 Layer:  PIN/TOP*
G04 Layer:  PACKAGE KEEPOUT/ALL*
G04 Layer:  PACKAGE KEEPOUT/TOP*
G04 Layer:  PACKAGE KEEPOUT/BOTTOM*
G04 Layer:  PACKAGE KEEPIN/ALL*
G04 Layer:  ANALYSIS/LOW_ISOCONTOUR*
G04 Layer:  ANALYSIS/MEDIUM1_ISOCONTOUR*
G04 Layer:  ANALYSIS/MEDIUM2_ISOCONTOUR*
G04 Layer:  ANALYSIS/MEDIUM3_ISOCONTOUR*
G04 Layer:  ANALYSIS/HIGH_ISOCONTOUR*
G04 Layer:  ANALYSIS/PCB_TEMPERATURE*
G04 Layer:  ETCH/TOP*
G04 Layer:  BOARD GEOMETRY/OUTLINE*
G04 *
G04 Offset:    (0.000 0.000)*
G04 Mirror:    No*
G04 Mode:      Positive*
G04 Rotation:  0*
G04 FullContactRelief:  No*
G04 UndefLineWidth:     0.100*
G04 ================== end FILE IDENTIFICATION RECORD ====================*
%FSLAX25Y25*MOMM*%
%IR0*IPPOS*OFA0.00000B0.00000*MIA0B0*SFA1.00000B1.00000*%
%ADD11R,16.X3.*%
%ADD12C,1.5*%
%ADD15R,4.11X.73*%
%ADD10C,5.08*%
%ADD14C,.2*%
%ADD13C,.61*%
%ADD16C,.1*%
%ADD17C,.127*%
%ADD18C,5.338*%
%ADD20C,1.758*%
%ADD19R,16.258X3.258*%
%ADD22R,4.368X.988*%
%ADD21C,.61*%
G75*
%LPD*%
G75*
G36*
G01X-2257800Y-6042000D02*
Y2257800D01*
X2512200D01*
Y-6042000D01*
X-2257800D01*
G37*
%LPC*%
G75*
G36*
G01X1343900Y-458600D02*
Y-557400D01*
X907100D01*
Y-527300D01*
X800900D01*
G02Y-488700I-38900J19300D01*
G01X907100D01*
Y-458600D01*
X1343900D01*
G37*
G36*
G01Y-585600D02*
Y-684400D01*
X907100D01*
Y-654300D01*
X800900D01*
G02Y-615700I-38900J19300D01*
G01X907100D01*
Y-585600D01*
X1343900D01*
G37*
G36*
G01Y-712600D02*
Y-811400D01*
X907100D01*
Y-781300D01*
X800900D01*
G02Y-742700I-38900J19300D01*
G01X907100D01*
Y-712600D01*
X1343900D01*
G37*
G36*
G01Y-839600D02*
Y-938400D01*
X907100D01*
Y-908300D01*
X800900D01*
G02Y-869700I-38900J19300D01*
G01X907100D01*
Y-839600D01*
X1343900D01*
G37*
G36*
G01Y-1093600D02*
Y-1192400D01*
X907100D01*
Y-1162300D01*
X800900D01*
G02Y-1123700I-38900J19300D01*
G01X907100D01*
Y-1093600D01*
X1343900D01*
G37*
G36*
G01X1805900Y-1416300D02*
Y-1446400D01*
X1369100D01*
Y-1347600D01*
X1805900D01*
Y-1377700D01*
X2407500D01*
G02Y-1416300I38900J-19300D01*
G01X1805900D01*
G37*
G36*
G01X1343900Y-1347600D02*
Y-1446400D01*
X907100D01*
Y-1416300D01*
X800900D01*
G02X723100I-38900J19300D01*
G01X-122300D01*
G02Y-1377700I-38900J19300D01*
G01X723100D01*
G02X800900I38900J-19300D01*
G01X907100D01*
Y-1347600D01*
X1343900D01*
G37*
G36*
G01X1805900Y-1543300D02*
Y-1573400D01*
X1369100D01*
Y-1474600D01*
X1805900D01*
Y-1504700D01*
X2343700D01*
G02Y-1543300I38900J-19300D01*
G01X1805900D01*
G37*
G36*
G01Y-1670300D02*
Y-1700400D01*
X1369100D01*
Y-1601600D01*
X1805900D01*
Y-1631700D01*
X2279900D01*
G02Y-1670300I38900J-19300D01*
G01X1805900D01*
G37*
G36*
G01X1343900Y-1601600D02*
Y-1700400D01*
X907100D01*
Y-1670300D01*
X800900D01*
G02Y-1631700I-38900J19300D01*
G01X907100D01*
Y-1601600D01*
X1343900D01*
G37*
G36*
G01X1805900Y-1797300D02*
Y-1827400D01*
X1369100D01*
Y-1728600D01*
X1805900D01*
Y-1758700D01*
X2216100D01*
G02Y-1797300I38900J-19300D01*
G01X1805900D01*
G37*
G36*
G01X1343900Y-1728600D02*
Y-1827400D01*
X907100D01*
Y-1797300D01*
X800900D01*
G02Y-1758700I-38900J19300D01*
G01X907100D01*
Y-1728600D01*
X1343900D01*
G37*
G36*
G01X-1192400Y-1797300D02*
X-1311200D01*
X-1312200Y-1801100D01*
G02Y-1754900I-84800J23100D01*
G01X-1311200Y-1758700D01*
X-1208400D01*
X-1205800Y-1756100D01*
G03X-1212300Y-1738700I-7197J7225D01*
G02X-1119200Y-1640900I5791J87700D01*
G03X-1101800Y-1646900I10135J1162D01*
G01X-1089100Y-1634200D01*
G03X-1083500Y-1616900I-1609J10077D01*
G01X-1129400Y-1571000D01*
Y-1569100D01*
X-1155200Y-1543300D01*
X-1311200D01*
X-1312200Y-1547100D01*
G02Y-1500900I-84800J23100D01*
G01X-1311200Y-1504700D01*
X-1139200D01*
X-1121000Y-1522900D01*
G03X-1103600Y-1516600I7245J7168D01*
G02X-930500Y-1544300I87587J-7373D01*
G03X-913300Y-1553800I9932J-2339D01*
G01X-877900Y-1518400D01*
Y389600D01*
X-389600Y877900D01*
X2075000D01*
X2467900Y485000D01*
Y-993800D01*
X2299400Y-1162300D01*
X1805900D01*
Y-1192400D01*
X1369100D01*
Y-1093600D01*
X1805900D01*
Y-1123700D01*
X2283400D01*
X2429300Y-977800D01*
Y469000D01*
X2059000Y839300D01*
X-373600D01*
X-839300Y373600D01*
Y-1534400D01*
X-921800Y-1616900D01*
G03X-914600Y-1634300I7214J-7204D01*
G01X-866600D01*
X-814300Y-1582000D01*
Y357800D01*
X-357800Y814300D01*
X2043200D01*
X2404300Y453200D01*
Y-866600D01*
X2235600Y-1035300D01*
X1805900D01*
Y-1065400D01*
X1369100D01*
Y-966600D01*
X1805900D01*
Y-996700D01*
X2219600D01*
X2365700Y-850600D01*
Y437200D01*
X2027200Y775700D01*
X-341800D01*
X-775700Y341800D01*
Y-1598000D01*
X-850600Y-1672900D01*
X-1073200D01*
X-1093100Y-1692800D01*
Y-1698000D01*
X-1192400Y-1797300D01*
G37*
G36*
G01X1805900Y-1924300D02*
Y-1954400D01*
X1369100D01*
Y-1855600D01*
X1805900D01*
Y-1885700D01*
X2152300D01*
G02Y-1924300I38900J-19300D01*
G01X1805900D01*
G37*
G36*
G01X1343900Y-1855600D02*
Y-1954400D01*
X907100D01*
Y-1924300D01*
X800900D01*
G02Y-1885700I-38900J19300D01*
G01X907100D01*
Y-1855600D01*
X1343900D01*
G37*
G36*
G01X1805900Y-2051300D02*
Y-2081400D01*
X1369100D01*
Y-1982600D01*
X1805900D01*
Y-2012700D01*
X2088500D01*
G02Y-2051300I38900J-19300D01*
G01X1805900D01*
G37*
G36*
G01X1343900Y-1982600D02*
Y-2081400D01*
X907100D01*
Y-2051300D01*
X800900D01*
G02Y-2012700I-38900J19300D01*
G01X907100D01*
Y-1982600D01*
X1343900D01*
G37*
G36*
G01X1805900Y-2178300D02*
Y-2208400D01*
X1369100D01*
Y-2109600D01*
X1805900D01*
Y-2139700D01*
X2024700D01*
G02Y-2178300I38900J-19300D01*
G01X1805900D01*
G37*
G36*
G01X1343900Y-2109600D02*
Y-2208400D01*
X907100D01*
Y-2178300D01*
X800900D01*
G02Y-2139700I-38900J19300D01*
G01X907100D01*
Y-2109600D01*
X1343900D01*
G37*
G36*
G01X1805900Y-2305300D02*
Y-2335400D01*
X1369100D01*
Y-2236600D01*
X1805900D01*
Y-2266700D01*
X1960900D01*
G02Y-2305300I38900J-19300D01*
G01X1805900D01*
G37*
G36*
G01X1343900Y-2236600D02*
Y-2335400D01*
X907100D01*
Y-2305300D01*
X800900D01*
G02Y-2266700I-38900J19300D01*
G01X907100D01*
Y-2236600D01*
X1343900D01*
G37*
G36*
G01X1805900Y-2432300D02*
Y-2462400D01*
X1369100D01*
Y-2363600D01*
X1805900D01*
Y-2393700D01*
X1897100D01*
G02Y-2432300I38900J-19300D01*
G01X1805900D01*
G37*
G36*
G01X1343900Y-2363600D02*
Y-2462400D01*
X907100D01*
Y-2432300D01*
X800900D01*
G02Y-2393700I-38900J19300D01*
G01X907100D01*
Y-2363600D01*
X1343900D01*
G37*
G36*
G01X1805900Y-2559300D02*
Y-2589400D01*
X1369100D01*
Y-2490600D01*
X1805900D01*
Y-2520700D01*
X1865100D01*
G02Y-2559300I38900J-19300D01*
G01X1805900D01*
G37*
G36*
G01X1343900Y-2490600D02*
Y-2589400D01*
X907100D01*
Y-2559300D01*
X800900D01*
G02Y-2520700I-38900J19300D01*
G01X907100D01*
Y-2490600D01*
X1343900D01*
G37*
G36*
G01X1805900Y-2714900D02*
Y-2716400D01*
X1369100D01*
Y-2617600D01*
X1805900D01*
Y-2619100D01*
G03X1820700Y-2628200I10189J-14D01*
G02Y-2705800I19500J-38800D01*
G03X1805900Y-2714900I-4611J-9086D01*
G37*
G36*
G01X1010500Y-3199300D02*
X356900D01*
G02Y-3160700I-38900J19300D01*
G01X1010500D01*
G02Y-3199300I38900J-19300D01*
G37*
G36*
G01X941700Y-3321300D02*
X420500D01*
G02Y-3282700I-38900J19300D01*
G01X941700D01*
G02Y-3321300I38900J-19300D01*
G37*
G36*
G01X877900Y-3448300D02*
X484100D01*
G02Y-3409700I-38900J19300D01*
G01X877900D01*
G02Y-3448300I38900J-19300D01*
G37*
G36*
G01X840400Y-3575300D02*
X547700D01*
G02Y-3536700I-38900J19300D01*
G01X805100D01*
G03X815300Y-3527100I16J10202D01*
G02X847500Y-3571800I43322J-2740D01*
G01X844700Y-3571000D01*
X840400Y-3575300D01*
G37*
G36*
G01X-1120700Y-3663700D02*
X-574500D01*
X-496300Y-3585500D01*
Y-1073200D01*
X-419800Y-996700D01*
X723100D01*
G02X800900I38900J-19300D01*
G01X907100D01*
Y-966600D01*
X1343900D01*
Y-1065400D01*
X907100D01*
Y-1035300D01*
X800900D01*
G02X723100I-38900J19300D01*
G01X-403800D01*
X-457700Y-1089200D01*
Y-3601500D01*
X-558500Y-3702300D01*
X-1120700D01*
X-1121700Y-3706100D01*
G02Y-3659900I-84800J23100D01*
G01X-1120700Y-3663700D01*
G37*
G36*
G01X723100Y-2686300D02*
X139400D01*
X19300Y-2806400D01*
Y-3824000D01*
X-113000Y-3956300D01*
X-1120700D01*
X-1121700Y-3960100D01*
G02Y-3913900I-84800J23100D01*
G01X-1120700Y-3917700D01*
X-129000D01*
X-19300Y-3808000D01*
Y-2790400D01*
X123400Y-2647700D01*
X723100D01*
G02X800900I38900J-19300D01*
G01X907100D01*
Y-2617600D01*
X1343900D01*
Y-2716400D01*
X907100D01*
Y-2686300D01*
X800900D01*
G02X723100I-38900J19300D01*
G37*
G36*
G01X-1454800Y-4146500D02*
X1454800D01*
X1888700Y-3712600D01*
Y-3080500D01*
X1778600Y-2970400D01*
X1369100D01*
Y-2871600D01*
X1805900D01*
Y-2943100D01*
X1927300Y-3064500D01*
Y-3728600D01*
X1470800Y-4185100D01*
X-1470800D01*
X-1606800Y-4049100D01*
Y-4022800D01*
X-1610600Y-4021800D01*
G02X-1564400I23100J84800D01*
G01X-1568200Y-4022800D01*
Y-4033100D01*
X-1454800Y-4146500D01*
G37*
G36*
G01X2054500Y-3824000D02*
X1534400Y-4344100D01*
X-1820600D01*
X-1990900Y-4173800D01*
Y-1772700D01*
X-1849900Y-1631700D01*
X-1673300D01*
X-1672300Y-1627900D01*
G02Y-1674100I84800J-23100D01*
G01X-1673300Y-1670300D01*
X-1833900D01*
X-1952300Y-1788700D01*
Y-4157800D01*
X-1804600Y-4305500D01*
X1518400D01*
X2015900Y-3808000D01*
Y-2965400D01*
X1863800Y-2813300D01*
X1805900D01*
Y-2843400D01*
X1369100D01*
Y-2744600D01*
X1805900D01*
Y-2774700D01*
X1879800D01*
X2054500Y-2949400D01*
Y-3824000D01*
G37*
G36*
G01X-1312200Y-2563300D02*
X-1313300Y-2566800D01*
G02X-1312200Y-2516900I-83704J26807D01*
G01X-1311200Y-2520700D01*
X-1294900D01*
X-1290900Y-2524700D01*
X-1184600D01*
X-1175200Y-2515300D01*
G03X-1184900Y-2498200I-7209J7212D01*
G02X-1121300Y-2434600I-21600J85200D01*
G03X-1104200Y-2444300I9888J-2491D01*
G01X-1044500Y-2384600D01*
G03X-1048000Y-2367900I-7196J7209D01*
G02X-1103000Y-2298200I32051J81841D01*
G03X-1120400Y-2292400I-10137J-1412D01*
G01X-1133200Y-2305300D01*
X-1311200D01*
X-1312200Y-2309100D01*
G02Y-2262900I-84800J23100D01*
G01X-1311200Y-2266700D01*
X-1149200D01*
X-1129400Y-2246900D01*
Y-2239000D01*
X-1026200Y-2135800D01*
G03X-1031600Y-2118500I-7164J7257D01*
G02X-1103100Y-2043900I15591J86508D01*
G03X-1120400Y-2038100I-10095J-1409D01*
G01X-1133600Y-2051300D01*
X-1311200D01*
X-1312200Y-2055100D01*
G02Y-2008900I-84800J23100D01*
G01X-1311200Y-2012700D01*
X-1149600D01*
X-1129400Y-1992500D01*
Y-1985000D01*
X-1063000Y-1918600D01*
X-832900D01*
X-750700Y-1836400D01*
Y294200D01*
X-294200Y750700D01*
X2011400D01*
X2340700Y421400D01*
Y-707600D01*
X2140000Y-908300D01*
X1805900D01*
Y-938400D01*
X1369100D01*
Y-839600D01*
X1805900D01*
Y-869700D01*
X2124000D01*
X2302100Y-691600D01*
Y405400D01*
X1995400Y712100D01*
X-278200D01*
X-712100Y278200D01*
Y-1852400D01*
X-816900Y-1957200D01*
X-942200D01*
G03X-949900Y-1974100I4J-10206D01*
G02X-953600Y-2093900I-66108J-57915D01*
G03X-946400Y-2111300I7222J-7201D01*
G01X-834800D01*
X-687100Y-1963600D01*
Y230600D01*
X-230600Y687100D01*
X1979600D01*
X2277100Y389600D01*
Y-612200D01*
X2108000Y-781300D01*
X1805900D01*
Y-811400D01*
X1369100D01*
Y-712600D01*
X1805900D01*
Y-742700D01*
X2092000D01*
X2238500Y-596200D01*
Y373600D01*
X1963600Y648500D01*
X-214600D01*
X-648500Y214600D01*
Y-1979600D01*
X-818800Y-2149900D01*
X-985700D01*
X-1016700Y-2180900D01*
G03X-1010200Y-2198300I7197J-7225D01*
G02X-954000Y-2348300I-5805J-87703D01*
G03X-946800Y-2365700I7223J-7201D01*
G01X-803000D01*
X-623500Y-2186200D01*
Y167000D01*
X-167000Y623500D01*
X1916000D01*
X2213500Y326000D01*
Y-516800D01*
X2076000Y-654300D01*
X1805900D01*
Y-684400D01*
X1369100D01*
Y-585600D01*
X1805900D01*
Y-615700D01*
X2060000D01*
X2174900Y-500800D01*
Y310000D01*
X1900000Y584900D01*
X-151000D01*
X-584900Y151000D01*
Y-2202200D01*
X-787000Y-2404300D01*
X-1009600D01*
X-1041800Y-2436500D01*
G03X-1032600Y-2453700I7238J-7189D01*
G02X-1102300Y-2523400I16600J-86300D01*
G03X-1119500Y-2514200I-10011J1962D01*
G01X-1168600Y-2563300D01*
X-1312200D01*
G37*
G36*
G01X-1312300Y-2817700D02*
X-1313400Y-2821200D01*
G02X-1312200Y-2770900I-83600J27159D01*
G01X-1311200Y-2774700D01*
X-1294900D01*
X-1290500Y-2779100D01*
X-1184600D01*
X-1174700Y-2769200D01*
G03X-1184400Y-2752100I-7179J7229D01*
G02X-1121400Y-2689100I-22100J85100D01*
G03X-1104300Y-2698800I9871J-2521D01*
G01X-1057400Y-2651900D01*
X-739400D01*
X-559900Y-2472400D01*
Y103400D01*
X-103400Y559900D01*
X1884200D01*
X2149900Y294200D01*
Y-453200D01*
X2075800Y-527300D01*
X1805900D01*
Y-557400D01*
X1369100D01*
Y-458600D01*
X1805900D01*
Y-488700D01*
X2059800D01*
X2111300Y-437200D01*
Y278200D01*
X1868200Y521300D01*
X-87400D01*
X-521300Y87400D01*
Y-2488400D01*
X-723400Y-2690500D01*
X-1041400D01*
X-1059100Y-2708200D01*
X-1053100Y-2714200D01*
X-1049900Y-2712900D01*
G02X-1102400Y-2777800I33895J-81104D01*
G03X-1119600Y-2768700I-10022J1862D01*
G01X-1168600Y-2817700D01*
X-1312300D01*
G37*
G54D18*
X-1778000Y-5588000D03*
Y1778000D03*
X2035200Y-5596800D03*
X2067000Y1812600D03*
G54D20*
X-1587500Y-3683000D03*
Y-3429000D03*
Y-3175000D03*
Y-2921000D03*
Y-2667000D03*
Y-2413000D03*
Y-2159000D03*
Y-1905000D03*
Y-1397000D03*
Y-1143000D03*
Y-889000D03*
Y-635000D03*
Y-381000D03*
Y-127000D03*
Y127000D03*
X-1397000Y-3810000D03*
Y-3556000D03*
Y-3302000D03*
X-1016000Y-3810000D03*
Y-3556000D03*
X-1206500Y-3429000D03*
X-1016000Y-3302000D03*
X-1397000Y-3048000D03*
X-1206500Y-3175000D03*
X-1016000Y-3048000D03*
X-1206500Y-2921000D03*
Y-2159000D03*
Y-1905000D03*
X-1016000Y-1778000D03*
X-1397000Y-1270000D03*
Y-1016000D03*
X-1206500Y-1397000D03*
X-1016000Y-1270000D03*
X-1206500Y-1143000D03*
X-1016000Y-1016000D03*
Y-762000D03*
X-1206500Y-635000D03*
X-1016000Y-508000D03*
X-1206500Y-381000D03*
X-1016000Y-254000D03*
X-1397000Y-762000D03*
Y-508000D03*
Y-254000D03*
X-1206500Y-889000D03*
Y-127000D03*
X-1397000Y0D03*
Y254000D03*
X-1016000Y0D03*
X-1206500Y127000D03*
X-1016000Y254000D03*
G54D19*
X-1397000Y-4736000D03*
Y1054000D03*
G54D22*
X1125500Y-2921000D03*
Y-2794000D03*
Y-1524000D03*
Y-1270000D03*
X1587500D03*
G54D21*
X1356500Y-3075000D03*
Y-352000D03*
%LPD*%
G75*
G54D10*
X-1778000Y-5588000D03*
Y1778000D03*
X2035200Y-5596800D03*
X2067000Y1812600D03*
G54D11*
X-1397000Y-4736000D03*
Y1054000D03*
G54D12*
X-1587500Y-3937000D03*
Y-3683000D03*
Y-3429000D03*
Y-3175000D03*
Y-2921000D03*
Y-2667000D03*
Y-2413000D03*
Y-2159000D03*
Y-1905000D03*
Y-1651000D03*
Y-1397000D03*
Y-1143000D03*
Y-889000D03*
Y-635000D03*
Y-381000D03*
Y-127000D03*
Y127000D03*
X-1397000Y-3810000D03*
Y-3556000D03*
Y-3302000D03*
X-1206500Y-3937000D03*
X-1016000Y-3810000D03*
X-1206500Y-3683000D03*
X-1016000Y-3556000D03*
X-1206500Y-3429000D03*
X-1016000Y-3302000D03*
X-1397000Y-3048000D03*
Y-2794000D03*
Y-2540000D03*
X-1206500Y-3175000D03*
X-1016000Y-3048000D03*
X-1206500Y-2921000D03*
X-1016000Y-2794000D03*
X-1206500Y-2667000D03*
X-1016000Y-2540000D03*
X-1397000Y-2286000D03*
Y-2032000D03*
Y-1778000D03*
X-1206500Y-2413000D03*
X-1016000Y-2286000D03*
X-1206500Y-2159000D03*
X-1016000Y-2032000D03*
X-1206500Y-1905000D03*
X-1016000Y-1778000D03*
X-1397000Y-1524000D03*
Y-1270000D03*
Y-1016000D03*
X-1206500Y-1651000D03*
X-1016000Y-1524000D03*
X-1206500Y-1397000D03*
X-1016000Y-1270000D03*
X-1206500Y-1143000D03*
X-1016000Y-1016000D03*
X-1397000Y-762000D03*
Y-508000D03*
Y-254000D03*
X-1206500Y-889000D03*
X-1016000Y-762000D03*
X-1206500Y-635000D03*
X-1016000Y-508000D03*
X-1206500Y-381000D03*
X-1016000Y-254000D03*
X-1397000Y0D03*
Y254000D03*
X-1206500Y-127000D03*
X-1016000Y0D03*
X-1206500Y127000D03*
X-1016000Y254000D03*
G54D13*
X-161200Y-1397000D03*
X445200Y-3429000D03*
X508800Y-3556000D03*
X381600Y-3302000D03*
X577000Y-2921000D03*
X576800Y-2794000D03*
X318000Y-3180000D03*
X916800Y-3429000D03*
X858600Y-3529800D03*
X980600Y-3302000D03*
X762000Y-2540000D03*
Y-2667000D03*
X1049400Y-3180000D03*
X762000Y-2159000D03*
Y-1778000D03*
Y-2413000D03*
Y-2286000D03*
Y-2032000D03*
Y-1905000D03*
Y-1651000D03*
Y-1524000D03*
Y-1270000D03*
Y-1143000D03*
Y-1397000D03*
Y-1016000D03*
Y-762000D03*
Y-889000D03*
Y-635000D03*
Y-508000D03*
X1904000Y-2540000D03*
X1840200Y-2667000D03*
X1999800Y-2286000D03*
X2063600Y-2159000D03*
X1936000Y-2413000D03*
X2127400Y-2032000D03*
X2191200Y-1905000D03*
X2255000Y-1778000D03*
X1951000Y-1270000D03*
X2382600Y-1524000D03*
X2446400Y-1397000D03*
X2318800Y-1651000D03*
G54D14*
G01X1125500Y-2921000D02*
Y-2794000D01*
X1356500Y-3075000D03*
Y-352000D03*
G54D15*
X1125500Y-2921000D03*
Y-2794000D03*
Y-2667000D03*
Y-2540000D03*
X1587500D03*
Y-2667000D03*
Y-2794000D03*
Y-2921000D03*
X1125500Y-2413000D03*
Y-2286000D03*
Y-2159000D03*
Y-2032000D03*
Y-1905000D03*
Y-1778000D03*
X1587500D03*
Y-1905000D03*
Y-2032000D03*
Y-2159000D03*
Y-2286000D03*
Y-2413000D03*
X1125500Y-1651000D03*
Y-1524000D03*
Y-1397000D03*
Y-1270000D03*
Y-1143000D03*
Y-1016000D03*
X1587500D03*
Y-1143000D03*
Y-1270000D03*
Y-1397000D03*
Y-1524000D03*
Y-1651000D03*
X1125500Y-889000D03*
Y-762000D03*
Y-635000D03*
Y-508000D03*
X1587500D03*
Y-635000D03*
Y-762000D03*
Y-889000D03*
G54D16*
G01X-2286000Y-6096000D02*
Y2286000D01*
X2540000D01*
Y-6096000D01*
X-2286000D01*
G54D17*
G01X-1778000Y-5860000D02*
Y-5588000D01*
G01D02*
Y-5316000D01*
G01X-2050000Y-5588000D02*
X-1778000D01*
G01D02*
X-1506000D01*
G01X-2215000Y-4736000D02*
X-1397000D01*
G01X1587500Y-2794000D02*
X1871800D01*
X2035200Y-2957400D01*
Y-3816000D01*
X1526400Y-4324800D01*
X-1812600D01*
X-1971600Y-4165800D01*
Y-1780700D01*
X-1841900Y-1651000D01*
X-1587500D01*
G01X-2215000Y1054000D02*
X-1397000D01*
G01X-1778000Y1506000D02*
Y1778000D01*
G01D02*
Y2050000D01*
G01X-2050000Y1778000D02*
X-1778000D01*
G01D02*
X-1506000D01*
G01X-1397000Y-4904000D02*
Y-4736000D01*
G01D02*
Y-4568000D01*
G01Y-4736000D02*
X-579000D01*
G01X-1587500Y-3937000D02*
Y-4041100D01*
X-1462800Y-4165800D01*
X1462800D01*
X1908000Y-3720600D01*
Y-3072500D01*
X1756500Y-2921000D01*
X1587500D01*
G01X-1206500Y-3937000D02*
X-121000D01*
X0Y-3816000D01*
Y-2798400D01*
X131400Y-2667000D01*
X762000D01*
G01X-1206500Y-3683000D02*
X-566500D01*
X-477000Y-3593500D01*
Y-1081200D01*
X-411800Y-1016000D01*
X762000D01*
G01X1587500Y-635000D02*
X2068000D01*
X2194200Y-508800D01*
Y318000D01*
X1908000Y604200D01*
X-159000D01*
X-604200Y159000D01*
Y-2194200D01*
X-795000Y-2385000D01*
X-1017600D01*
X-1176600Y-2544000D01*
X-1298900D01*
X-1302900Y-2540000D01*
X-1397000D01*
G01X1587500Y-508000D02*
X2067800D01*
X2130600Y-445200D01*
Y286200D01*
X1876200Y540600D01*
X-95400D01*
X-540600Y95400D01*
Y-2480400D01*
X-731400Y-2671200D01*
X-1049400D01*
X-1176600Y-2798400D01*
X-1298500D01*
X-1302900Y-2794000D01*
X-1397000D01*
G01X1587500Y-1016000D02*
X2227600D01*
X2385000Y-858600D01*
Y445200D01*
X2035200Y795000D01*
X-349800D01*
X-795000Y349800D01*
Y-1590000D01*
X-858600Y-1653600D01*
X-1081200D01*
X-1112400Y-1684800D01*
Y-1690000D01*
X-1200400Y-1778000D01*
X-1397000D01*
G01X1587500Y-889000D02*
X2132000D01*
X2321400Y-699600D01*
Y413400D01*
X2003400Y731400D01*
X-286200D01*
X-731400Y286200D01*
Y-1844400D01*
X-824900Y-1937900D01*
X-1055000D01*
X-1110100Y-1993000D01*
Y-2000500D01*
X-1141600Y-2032000D01*
X-1397000D01*
G01X1587500Y-762000D02*
X2100000D01*
X2257800Y-604200D01*
Y381600D01*
X1971600Y667800D01*
X-222600D01*
X-667800Y222600D01*
Y-1971600D01*
X-826800Y-2130600D01*
X-993700D01*
X-1110100Y-2247000D01*
Y-2254900D01*
X-1141200Y-2286000D01*
X-1397000D01*
G01X1587500Y-1143000D02*
X2291400D01*
X2448600Y-985800D01*
Y477000D01*
X2067000Y858600D01*
X-381600D01*
X-858600Y381600D01*
Y-1526400D01*
X-959400Y-1627200D01*
X-1044000D01*
X-1053100Y-1618100D01*
X-1055000D01*
X-1110100Y-1563000D01*
Y-1561100D01*
X-1147200Y-1524000D01*
X-1397000D01*
G01X-1016000Y161000D02*
Y254000D01*
G01D02*
Y347000D01*
G01X-1109000Y254000D02*
X-1016000D01*
G01D02*
X-923000D01*
G01X-1206500Y34000D02*
Y127000D01*
G01D02*
Y220000D01*
G01X-1299500Y127000D02*
X-1206500D01*
G01D02*
X-1113500D01*
G01X-1016000Y-93000D02*
Y0D01*
G01D02*
Y93000D01*
G01X-1109000Y0D02*
X-1016000D01*
G01D02*
X-923000D01*
G01X-1397000Y886000D02*
Y1054000D01*
G01D02*
Y1222000D01*
G01Y1054000D02*
X-579000D01*
G01X-161200Y-1397000D02*
X762000D01*
G01X445200Y-3429000D02*
X916800D01*
G01X508800Y-3556000D02*
X832400D01*
X858600Y-3529800D01*
G01X381600Y-3302000D02*
X980600D01*
G01X576800Y-2794000D02*
X572400Y-2798400D01*
G01X576800Y-2794000D02*
X1125500D01*
G01X577000Y-2921000D02*
X1125500D01*
G01X318000Y-3180000D02*
X1049400D01*
G01X1125500Y-2540000D02*
X762000D01*
G01X1125500Y-2667000D02*
X762000D01*
G01X1125500Y-2794000D02*
Y-2739500D01*
G01Y-2794000D02*
X1349000D01*
G01X1125500Y-2975500D02*
Y-2921000D01*
G01D02*
X1349000D01*
G01X1125500Y-2159000D02*
X762000D01*
G01X1125500Y-1778000D02*
X762000D01*
G01X1125500Y-2413000D02*
X762000D01*
G01X1125500Y-2286000D02*
X762000D01*
G01X1125500Y-2032000D02*
X762000D01*
G01X1125500Y-1905000D02*
X762000D01*
G01X1125500Y-1651000D02*
X762000D01*
G01X1125500Y-1524000D02*
X762000D01*
G01X1125500Y-1270000D02*
X762000D01*
G01X1364000D02*
X1587500D01*
G01X1125500Y-1324500D02*
Y-1270000D01*
G01D02*
Y-1215500D01*
G01Y-1270000D02*
X1349000D01*
G01X1125500Y-1578500D02*
Y-1524000D01*
G01D02*
Y-1469500D01*
G01Y-1524000D02*
X1349000D01*
G01X1125500Y-1143000D02*
X762000D01*
G01X1125500Y-1397000D02*
X762000D01*
G01X1125500Y-1016000D02*
X762000D01*
G01X1125500Y-762000D02*
X762000D01*
G01X1125500Y-889000D02*
X762000D01*
G01X1125500Y-635000D02*
X762000D01*
G01X1125500Y-508000D02*
X762000D01*
G01X2035200Y-5868800D02*
Y-5596800D01*
G01D02*
Y-5324800D01*
G01X1763200Y-5596800D02*
X2035200D01*
G01D02*
X2307200D01*
G01X1587500Y-2540000D02*
X1904000D01*
G01X1587500Y-2667000D02*
X1840200D01*
G01X1587500Y-2286000D02*
X1999800D01*
G01X1587500Y-2159000D02*
X2063600D01*
G01X1587500Y-2413000D02*
X1936000D01*
G01X1587500Y-2032000D02*
X2127400D01*
G01X1587500Y-1905000D02*
X2191200D01*
G01X1587500Y-1778000D02*
X2255000D01*
G01X1587500Y-1270000D02*
X1951000D01*
G01X1587500Y-1324500D02*
Y-1270000D01*
G01D02*
Y-1215500D01*
G01Y-1524000D02*
X2382600D01*
G01X1587500Y-1397000D02*
X2446400D01*
G01X1587500Y-1651000D02*
X2318800D01*
G01X2067000Y1540600D02*
Y1812600D01*
G01D02*
Y2084600D01*
G01X1795000Y1812600D02*
X2067000D01*
G01D02*
X2339000D01*
M02*
