G04 ================== begin FILE IDENTIFICATION RECORD ==================*
G04 Layout Name:  I:/Project-LED_Arena/Arena Bottom V1, 6-6-2019.brd*
G04 Film Name:    Layer_5*
G04 File Format:  Gerber RS274X*
G04 File Origin:  Cadence Allegro 17.2-P019*
G04 Origin Date:  Tue Jun 04 22:43:36 2019*
G04 *
G04 Layer:  VIA CLASS/LAYER 5*
G04 Layer:  PIN/LAYER 5*
G04 Layer:  ETCH/LAYER 5*
G04 Layer:  BOARD GEOMETRY/OUTLINE*
G04 *
G04 Offset:    (0.0000 0.0000)*
G04 Mirror:    No*
G04 Mode:      Positive*
G04 Rotation:  0*
G04 FullContactRelief:  No*
G04 UndefLineWidth:     0.1000*
G04 ================== end FILE IDENTIFICATION RECORD ====================*
%FSLAX35Y35*MOMM*%
%IR0*IPPOS*OFA0.00000B0.00000*MIA0B0*SFA1.00000B1.00000*%
%ADD15C,.2*%
%ADD10C,.5*%
%ADD14R,5.X2.*%
%ADD13R,2.X5.*%
%ADD11C,8.*%
%ADD12C,1.524*%
%ADD16C,.127*%
%ADD17C,.1*%
%ADD19C,.7544*%
%ADD21C,.6568*%
%ADD20C,8.2544*%
%ADD23R,2.2544X5.2544*%
%ADD18R,5.2544X2.2544*%
%ADD22C,1.7784*%
G75*
%LPD*%
G75*
G36*
G01X3672830Y19409120D02*
G02X3691050Y19401210I8258J-5917D01*
G03X4055990Y19731050I404701J-80960D01*
G02X4049950Y19749970I-976J10112D01*
G02X4500000Y19900000I596349J-1038858D01*
G01X7900000D01*
G02X8400000Y19200000I-205000J-675000D01*
G03X7318890Y16786640I9910229J-5888305D01*
G02X7300250Y16784910I-9685J3065D01*
G03X7284170Y16733530I-33258J-17798D01*
G02X7298500Y16721480I4626J-9045D01*
G03X6792500Y12835720I11011733J-3409763D01*
G02X6775480Y12827810I-10153J-420D01*
G03X6777840Y12774550I-25481J-27811D01*
G02X6795490Y12768170I7500J-6856D01*
G03X28250000Y19150000I11514744J543526D01*
G02X28750000Y19900000I425000J258333D01*
G01X32000000D01*
G02X32577420Y19747540I24998J-1075000D01*
G02X32570760Y19728770I-5219J-8715D01*
G03X32919470Y19385860I-58763J-408516D01*
G02X32938130Y19392840I10030J1617D01*
G02X33100000Y18800000I-913130J-567841D01*
G01Y7400000D01*
G02X32800000Y6700000I-1585000J265000D01*
G01X30950000Y4850000D01*
X30676390Y5123610D01*
G02X30678100Y5139360I7182J7188D01*
G03X30626010Y5191450I-20310J31780D01*
G02X30610260Y5189740I-8562J5472D01*
G01X30584430Y5215570D01*
G02X30586140Y5231320I7182J7188D01*
G03X30534050Y5283410I-20310J31780D01*
G02X30518300Y5281700I-8562J5472D01*
G01X30250000Y5550000D01*
X32050000Y7350000D01*
Y8350000D01*
X32300000D01*
Y8650000D01*
X32050000D01*
Y12150000D01*
X32450000D01*
Y12400000D01*
X32100000D01*
Y15450000D01*
X32769030D01*
G02X32776730Y15433220I-7J-10160D01*
G03X32833970I28620J-24570D01*
G02X32841670Y15450000I7707J6620D01*
G01X33000000D01*
Y15750000D01*
X32843070D01*
G02X32835070Y15766420I1J10159D01*
G03X32775630I-29720J23230D01*
G02X32767630Y15750000I-8001J-6261D01*
G01X31900000D01*
Y14900000D01*
X31740740D01*
X31740270Y14904550D01*
G03X31665230I-37520J-3900D01*
G01X31664760Y14900000D01*
X31350000D01*
Y14600000D01*
X31550000D01*
Y14087990D01*
X31545520Y14087450D01*
G03Y14012550I4480J-37450D01*
G01X31550000Y14012010D01*
Y7150000D01*
X29800000Y5400000D01*
X30650000Y4550000D01*
X30000000Y3900000D01*
X26100000Y-50000D01*
G02X25150000Y-600000I-1194231J967308D01*
G01X11600000D01*
G02X10750000Y-300000I-165909J884091D01*
G01X7700000Y2750000D01*
X4050000Y6450000D01*
G02X3450000Y7350000I1100000J1383333D01*
G01Y14550000D01*
X4500000D01*
Y6800000D01*
X4950000D01*
X5000000Y6850000D01*
Y14450000D01*
X4900000Y14550000D01*
Y15050000D01*
X4500000D01*
Y15500000D01*
X3450000D01*
Y18650000D01*
G02X3672830Y19409120I1196296J61107D01*
G37*
G36*
G01X4850000Y14600000D02*
X3400000D01*
Y15450000D01*
X4450000D01*
Y15000000D01*
X4850000D01*
Y14600000D01*
G37*
G36*
G01X30200000Y5550000D02*
X30310650Y5439350D01*
G02X30307750Y5422950I-7184J-7186D01*
G03X30357850Y5372850I15900J-34200D01*
G02X30374250Y5375750I9214J-4284D01*
G01X30950000Y4800000D01*
X30700000Y4550000D01*
X29850000Y5400000D01*
X31600000Y7150000D01*
Y14650000D01*
X31400000D01*
Y14850000D01*
X31950000D01*
Y15700000D01*
X32765940D01*
G02X32774300Y15684070I-1J-10159D01*
G03X32836400I31050J-21420D01*
G02X32844760Y15700000I8361J5771D01*
G01X32950000D01*
Y15500000D01*
X32845880D01*
G02X32837280Y15515570I0J10160D01*
G03X32773420I-31930J20080D01*
G02X32764820Y15500000I-8600J-5410D01*
G01X32000000D01*
Y14850000D01*
X32050000D01*
Y12350000D01*
X32400000D01*
Y12200000D01*
X32000000D01*
Y8600000D01*
X32250000D01*
Y8400000D01*
X32000000D01*
Y7350000D01*
X30200000Y5550000D01*
G37*
%LPC*%
G75*
G36*
G01X4262500Y17995970D02*
G03X4247970Y18004030I-10103J-1087D01*
G02X4319710Y18048320I-179806J371493D01*
G03X4320410Y18031720I6194J-8054D01*
G02X4262500Y17995970I-20408J-31721D01*
G37*
G36*
G01X26096290Y3897300D02*
G02X26094990Y3852270I29591J-23388D01*
G03X26078690Y3852740I-8325J-5827D01*
G02X26079990Y3897770I-29591J23388D01*
G03X26096290Y3897300I8325J5827D01*
G37*
G36*
G01X28866510Y7226080D02*
G02X28828700Y7226360I-19147J-32500D01*
G03X28828840Y7243940I-5023J8831D01*
G02X28866650Y7243660I19147J32500D01*
G03X28866510Y7226080I5023J-8831D01*
G37*
G36*
G01X17159790Y812060D02*
G03X17152680Y798920I2500J-9846D01*
G02X17088190Y811030I-35680J-12239D01*
G03X17086330Y825860I-7757J6559D01*
G02X17159790Y812060I51627J72400D01*
G37*
G36*
G01X29348290Y3312320D02*
G03X29337680Y3301710I-460J-10150D01*
G02X29262320I-37680J-1710D01*
G03X29251710Y3312320I-10150J460D01*
G02Y3387680I-1710J37680D01*
G03X29262320Y3398290I460J10150D01*
G02X29337680I37680J1710D01*
G03X29348290Y3387680I10150J-460D01*
G02Y3312320I1710J-37680D01*
G37*
G36*
G01X29848290Y5612320D02*
G03X29837680Y5601710I-460J-10150D01*
G02X29801710Y5637680I-37680J-1710D01*
G03X29812320Y5648290I460J10150D01*
G02X29848290Y5612320I37680J1710D01*
G37*
G36*
G01X28862590Y7424020D02*
G03X28866590Y7408760I8193J-6007D01*
G02X28820620Y7396730I-15568J-34359D01*
G03X28816620Y7411990I-8193J6007D01*
G02X28862590Y7424020I15568J34359D01*
G37*
G36*
G01X30419290Y10570960D02*
G03X30434030Y10562670I10132J766D01*
G02X30391840Y10516450I40378J-79223D01*
G03X30382250Y10530370I-9435J3763D01*
G02X30419290Y10570960I-572J37717D01*
G37*
G54D19*
X32805350Y16805650D03*
Y16932650D03*
Y17186650D03*
Y17313650D03*
X33000010Y17049990D03*
X32805350Y16043650D03*
Y16170650D03*
Y16297650D03*
Y16424650D03*
Y16551650D03*
Y16678650D03*
Y15281650D03*
Y15916650D03*
Y14900650D03*
Y15027650D03*
Y15154650D03*
X32704790Y13668750D03*
X32769810Y13573500D03*
X32834830Y13668750D03*
X32800000Y12950000D03*
X32700000D03*
X32800000Y13050000D03*
X32700000D03*
X32800000Y13150000D03*
X32700000D03*
Y12200000D03*
X32800000D03*
X32738060Y11573250D03*
X32803080Y11668500D03*
X32700000Y12100000D03*
X32800000D03*
X32700000Y12000000D03*
X32800000D03*
Y9300000D03*
X32700000D03*
X32800000Y9400000D03*
X32700000D03*
X32800000Y9500000D03*
X32700000D03*
Y8400000D03*
Y8500000D03*
X32900000Y8400000D03*
X32800000D03*
X32900000Y8500000D03*
X32800000D03*
X32700000Y8300000D03*
X32900000D03*
X32800000D03*
X31950000Y17750000D03*
Y17650000D03*
Y17550000D03*
X32379670Y13573500D03*
X32444690Y13668750D03*
X32509710Y13573500D03*
X32574740Y13668750D03*
X32639760Y13573500D03*
X32600000Y12950000D03*
X32500000D03*
X32400000D03*
X32600000Y13050000D03*
X32500000D03*
X32400000D03*
X32600000Y13150000D03*
X32500000D03*
X32400000D03*
X32500000Y12200000D03*
X32600000D03*
X32347920Y11573250D03*
X32412940Y11668500D03*
X32477960Y11573250D03*
X32542990Y11668500D03*
X32608010Y11573250D03*
X32673040Y11668500D03*
X32400000Y12100000D03*
X32500000D03*
X32600000D03*
X32500000Y12000000D03*
X32600000D03*
X32444690Y9954000D03*
X32574740D03*
X32379670Y9858750D03*
X32509710D03*
X32600000Y9300000D03*
X32500000D03*
X32400000D03*
X32600000Y9400000D03*
X32500000D03*
X32400000D03*
X32600000Y9500000D03*
X32500000D03*
X32400000D03*
X32600000Y8400000D03*
X32500000D03*
X32600000Y8500000D03*
X32500000D03*
X32347920Y7890250D03*
X32477970D03*
X32542990Y7985500D03*
X32412950D03*
X32600000Y8300000D03*
X32500000D03*
X31966360Y6812510D03*
X31944990Y6699180D03*
X32058320Y6720550D03*
X32036950Y6607220D03*
X32150280Y6628590D03*
X32128910Y6515260D03*
X32242240Y6536640D03*
X31737100Y17662900D03*
X31750000Y17750000D03*
X31850000D03*
Y17650000D03*
X31750000Y17550000D03*
X31850000D03*
X31750000Y17850000D03*
X31850000D03*
X31650000D03*
X31550000D03*
X31450000D03*
X31650000Y17500000D03*
X31550000D03*
X31350000D03*
Y17850000D03*
X31702750Y16805650D03*
Y16932650D03*
Y17059650D03*
Y17186650D03*
Y16043650D03*
Y16170650D03*
Y16297650D03*
Y16424650D03*
Y16551650D03*
Y16678650D03*
Y15281650D03*
Y15535650D03*
Y15408650D03*
Y15662650D03*
Y15789650D03*
Y15916650D03*
Y15027650D03*
Y15154650D03*
X31350000Y10950000D03*
X31250000Y11000000D03*
X31400000Y11150000D03*
X31300000Y11200000D03*
X31853040Y6791130D03*
X30650000Y19800000D03*
X31000000Y19375000D03*
X30875000Y19175000D03*
X30500000Y19075000D03*
X30575000Y19375000D03*
X31000000Y19575000D03*
X30565370Y18578810D03*
X30975000Y18925000D03*
X31000000Y14300000D03*
X30450000Y12300000D03*
X30550000Y11750000D03*
X30500000Y12000000D03*
X31150000Y11050000D03*
X31050000Y11100000D03*
X30483650Y9932810D03*
X31128670Y10200990D03*
X30986020Y9491430D03*
X30858580Y5591420D03*
X30787870Y5662130D03*
X30929290D03*
X30858580Y5732840D03*
X30787870Y5803550D03*
X31000000Y5732840D03*
X30929290Y5803550D03*
X31000000Y5450000D03*
X30929290Y5520710D03*
X31070710D03*
X31000000Y5591420D03*
X31141420D03*
X31070710Y5662130D03*
X30700000Y5750000D03*
X30679150Y5284470D03*
X30771110Y5192520D03*
X30250000Y19700000D03*
X29928750Y18618480D03*
X29751170Y16914340D03*
X30285910Y16029880D03*
X30145390Y16269770D03*
X30009370Y16497310D03*
X29872910Y16726040D03*
X30150000Y13800000D03*
X30000000D03*
X30300000Y13050000D03*
X30250000Y13300000D03*
X30200000Y13550000D03*
X30400000Y12550000D03*
X30350000Y12800000D03*
X29663540Y7679590D03*
X29796820Y7899570D03*
X29922880Y8099740D03*
X30008580Y4691420D03*
X29937870Y4762130D03*
X29867160Y4832840D03*
X30079290Y4762130D03*
X30008580Y4832840D03*
X29937870Y4903550D03*
X30150000Y4832840D03*
X30079290Y4903550D03*
X30008580Y4974260D03*
X30079290Y4620710D03*
X30220710D03*
X30150000Y4691420D03*
X30291420D03*
X30220710Y4762130D03*
X30150000Y4550000D03*
X29351330Y17574290D03*
X29620290Y17127700D03*
X29483390Y17357650D03*
X29477600Y9217520D03*
X29515180Y9466960D03*
X29364690Y8468720D03*
X29401750Y8716760D03*
X29440090Y8968270D03*
X29257180Y7649300D03*
X29289220Y7968990D03*
X29315910Y8188520D03*
X29500000Y7450000D03*
X29358580Y4091420D03*
X29287870Y4162130D03*
X29217160Y4232840D03*
X29429290Y4162130D03*
X29358580Y4232840D03*
X29287870Y4303550D03*
X29500000Y4232840D03*
X29429290Y4303550D03*
X29358580Y4374260D03*
X29500000Y3950000D03*
X29429290Y4020710D03*
X29570710D03*
X29500000Y4091420D03*
X29641420D03*
X29570710Y4162130D03*
X29200000Y3250000D03*
X28598050Y5978250D03*
X28878570Y5447990D03*
X28668770Y3121930D03*
X28576810Y3213880D03*
X28555450Y3100550D03*
X28463490Y3192510D03*
X28279580Y3376420D03*
X28371540Y3284460D03*
X28392900Y3397790D03*
X28484860Y3305840D03*
X27407650Y5633390D03*
X27545040Y5874920D03*
X27658580Y2541420D03*
X27587870Y2612130D03*
X27517160Y2682840D03*
X27729290Y2612130D03*
X27658580Y2682840D03*
X27587870Y2753550D03*
X27800000Y2682840D03*
X27729290Y2753550D03*
X27658580Y2824260D03*
X27800000Y2400000D03*
X27729290Y2470710D03*
X27870710D03*
X27800000Y2541420D03*
X27941420D03*
X27870710Y2612130D03*
X27551210Y2067870D03*
X27437890Y2046490D03*
X27459260Y2159820D03*
X27400000Y1800000D03*
X27296120Y5422690D03*
X26920820Y4742070D03*
X27052530Y4976820D03*
X27186030Y5213700D03*
X26696820Y4319540D03*
X26788220Y4506250D03*
X27275340Y2343740D03*
X27162010Y2322360D03*
X27345930Y2138450D03*
X27367300Y2251780D03*
X27253970Y2230410D03*
X26791170Y1888030D03*
X26883120Y1796070D03*
X26975080Y1704120D03*
X27067040Y1612160D03*
X26769810Y1774690D03*
X26953720Y1590770D03*
X26861770Y1682730D03*
X27045680Y1498820D03*
X26124510Y4000600D03*
X26223400Y4464280D03*
X26049450Y3750710D03*
X25963710Y480370D03*
X25850390Y458990D03*
X25871760Y572320D03*
X25721320Y2440620D03*
X25687840Y756240D03*
X25758430Y550950D03*
X25779800Y664280D03*
X25666470Y642910D03*
X25574510Y734860D03*
X24432930Y3153540D03*
X23648220Y2469540D03*
X23860490Y2649850D03*
X24038540Y2810370D03*
X24247330Y2988650D03*
X23469000Y2308340D03*
X23252990Y2125890D03*
X23129550Y1996890D03*
X21554790Y601740D03*
X21416200Y169010D03*
X20570340Y1676370D03*
X21059140Y1326580D03*
X20342560Y1585430D03*
X19858610Y1398560D03*
X20098560Y1491630D03*
X19151790Y1121610D03*
X19371590Y1211140D03*
X19631440Y1307730D03*
X18899940Y1026430D03*
X16737290Y-63570D03*
X15953600Y1612440D03*
X16232420Y1614040D03*
X16486670Y1619980D03*
X16608330Y1655500D03*
X15193660Y1594120D03*
X15466830Y1596720D03*
X15701680Y1606090D03*
X14668090Y1585250D03*
X14939660Y1588140D03*
X12886870Y1900410D03*
X12332950Y2996450D03*
X12558220Y2924120D03*
X12855060Y2908950D03*
X12262560Y1291230D03*
X11593240Y3250310D03*
X11835720Y3168050D03*
X12079090Y3085280D03*
X10854550Y3503590D03*
X11103480Y3417610D03*
X11349630Y3333220D03*
X9140730Y5690790D03*
X9336160Y5535660D03*
X9698310Y5382620D03*
X9270320Y4400310D03*
X8348210Y6324130D03*
X8539030Y6174510D03*
X8737820Y6015390D03*
X8930910Y5863060D03*
X8500460Y4117430D03*
X7587360Y8787540D03*
X7960590Y6630510D03*
X8140360Y6494050D03*
X7349840Y18935420D03*
X7297890Y18646510D03*
X7263340Y18405380D03*
X7220850Y18142460D03*
X7206050Y17955610D03*
X7177100Y17729860D03*
X7147260Y17501690D03*
X7106160Y17242580D03*
X6834260Y9683920D03*
X6972680Y9449820D03*
X7107510Y9225570D03*
X7242710Y9000280D03*
X6050000Y19450000D03*
Y19350000D03*
Y19550000D03*
X6150000Y14550000D03*
X6100310Y14850000D03*
X6200000Y14300000D03*
X6250000Y14050000D03*
X6300000Y13800000D03*
X6350000Y13550000D03*
X6400000Y13300000D03*
X6450000Y13050000D03*
X6283640Y10611970D03*
X6439780Y10329170D03*
X6571240Y10114180D03*
X6703370Y9897360D03*
X6765720Y7905160D03*
X5350000Y19450000D03*
Y19350000D03*
X5950000Y19450000D03*
X5850000D03*
X5550000D03*
X5450000D03*
Y19350000D03*
X5550000D03*
X5950000D03*
X5850000D03*
X5690400D03*
X5950000Y19550000D03*
X5699210Y17058950D03*
X5573200Y12279980D03*
X6010720Y8042820D03*
X4700000Y18300000D03*
X4800000D03*
X4600000D03*
X4700000Y19000000D03*
Y18900000D03*
Y18800000D03*
Y18500000D03*
Y18400000D03*
X4800000D03*
Y18500000D03*
Y19000000D03*
Y18900000D03*
Y18800000D03*
Y18640400D03*
X4600000Y19000000D03*
Y18900000D03*
Y18800000D03*
Y18500000D03*
Y18400000D03*
Y18050000D03*
Y18150000D03*
X4800000D03*
Y18050000D03*
X4700000D03*
Y18150000D03*
X4600000Y17950000D03*
X4800000D03*
X4700000D03*
X4600000Y17700000D03*
Y17800000D03*
X4800000D03*
Y17700000D03*
X4700000D03*
Y17800000D03*
X4600000Y17600000D03*
X4800000D03*
X4700000D03*
X4600000Y17500000D03*
X4800000D03*
X4700000D03*
X4600000Y17400000D03*
X4800000D03*
X4700000D03*
X4600000Y17300000D03*
X4800000D03*
X4700000D03*
X4600000Y17100000D03*
Y17200000D03*
X4800000D03*
Y17100000D03*
X4700000D03*
Y17200000D03*
X4600000Y17000000D03*
X4800000D03*
X4700000D03*
X4600000Y16800000D03*
Y16900000D03*
X4800000D03*
Y16800000D03*
X4700000D03*
Y16900000D03*
X4600000Y16700000D03*
X4800000D03*
X4700000D03*
X4650000Y15550000D03*
Y15650000D03*
X4850000D03*
Y15550000D03*
X4750000D03*
Y15650000D03*
X4650000Y15450000D03*
X4850000D03*
X4750000D03*
X4650000Y15250000D03*
Y15350000D03*
X4850000D03*
Y15250000D03*
X4750000D03*
Y15350000D03*
X4650000Y15150000D03*
X4850000D03*
X4750000D03*
X5050000Y12500000D03*
X4400000Y17600000D03*
X4300000D03*
X4200000D03*
X3900000D03*
X3800000D03*
Y17500000D03*
X3900000D03*
X4400000D03*
X4300000D03*
X4200000D03*
X4040400D03*
X4400000Y17700000D03*
X4300000D03*
X4200000D03*
X3900000D03*
X3800000D03*
X4400000Y17900000D03*
X4300000D03*
X4200000D03*
X3900000D03*
X3800000D03*
Y17800000D03*
X3900000D03*
X4400000D03*
X4300000D03*
X4200000D03*
X4040400D03*
X4400000Y18000000D03*
X3800000D03*
Y16750000D03*
X3900000D03*
X4200000D03*
X4300000D03*
X4400000D03*
Y17000000D03*
X4300000D03*
X4200000D03*
X3900000D03*
X3800000D03*
Y16900000D03*
X3900000D03*
X4400000D03*
X4300000D03*
X4200000D03*
X4040400D03*
X4400000Y17100000D03*
X4300000D03*
X4200000D03*
X3900000D03*
X3800000D03*
X4400000Y17300000D03*
X4300000D03*
X4200000D03*
X3900000D03*
X3800000D03*
Y17200000D03*
X3900000D03*
X4400000D03*
X4300000D03*
X4200000D03*
X4040400D03*
X4400000Y17400000D03*
X4300000D03*
X4200000D03*
X3900000D03*
X3800000D03*
X4040400Y16550000D03*
X4200000D03*
X4300000D03*
X4400000D03*
X3900000D03*
X3800000D03*
Y16650000D03*
X3900000D03*
X4200000D03*
X4300000D03*
X4400000D03*
X3700000Y17600000D03*
Y17500000D03*
Y17700000D03*
Y17900000D03*
Y17800000D03*
Y18000000D03*
Y16750000D03*
Y17000000D03*
Y16900000D03*
Y17100000D03*
Y17300000D03*
Y17200000D03*
Y17400000D03*
Y16550000D03*
Y16650000D03*
G54D21*
X32254050Y17467650D03*
Y14744650D03*
G54D20*
X32516160Y18375520D03*
Y10755520D03*
X24896160Y341520D03*
X11688160D03*
X4068160Y10755520D03*
G54D23*
X5118000Y19352000D03*
G54D18*
X5588000Y19652000D03*
Y19052000D03*
G54D22*
X30517610Y17474830D03*
X30604480Y17236150D03*
X30691350Y16997470D03*
X30778220Y16758780D03*
X30865100Y16520100D03*
X30951970Y16281420D03*
X31038840Y16042740D03*
X30474330Y16107760D03*
X30561200Y15869080D03*
X31209730Y15073440D03*
Y14819440D03*
Y14565440D03*
X30701500Y15073620D03*
Y14819620D03*
Y14565620D03*
X31209730Y14311440D03*
Y14057440D03*
Y13803440D03*
X30701500Y14311620D03*
Y14057620D03*
Y13803620D03*
X31209730Y13549440D03*
Y13295440D03*
Y13041440D03*
X30701500Y13549620D03*
Y13295620D03*
Y13041620D03*
X31209730Y12787440D03*
Y12533440D03*
Y12279440D03*
X30701500Y12787620D03*
Y12533620D03*
Y12279620D03*
X31209730Y12025440D03*
Y11771440D03*
Y11517440D03*
X30701500Y12025620D03*
Y11771620D03*
Y11517620D03*
X30561280Y10722140D03*
X31038800Y10548150D03*
X30951930Y10309460D03*
X30865050Y10070780D03*
X30778180Y9832100D03*
X30691310Y9593420D03*
X30604430Y9354740D03*
X30517560Y9116050D03*
X29822620Y19384290D03*
X29909490Y19145600D03*
X29996370Y18906920D03*
X30083240Y18668240D03*
X30170110Y18429560D03*
X30256990Y18190880D03*
X30343860Y17952190D03*
X30430730Y17713510D03*
X29779350Y18017220D03*
X29866220Y17778530D03*
X29953090Y17539850D03*
X30039970Y17301170D03*
X30126840Y17062490D03*
X30213710Y16823810D03*
X30300580Y16585120D03*
X30387460Y16346440D03*
X30387530Y10244770D03*
X30300660Y10006090D03*
X30213790Y9767410D03*
X30126910Y9528730D03*
X30040040Y9290040D03*
X30430690Y8877370D03*
X30343810Y8638690D03*
X29953170Y9051360D03*
X29866290Y8812680D03*
X29779420Y8574000D03*
X30256940Y8400010D03*
X30170070Y8161330D03*
X30083200Y7922640D03*
X29996320Y7683960D03*
X29909450Y7445280D03*
X29822580Y7206600D03*
X29344980Y19210630D03*
X29431850Y18971940D03*
X29518730Y18733260D03*
X29605600Y18494580D03*
X29692470Y18255900D03*
X29692550Y8335320D03*
X29605680Y8096630D03*
X29518800Y7857950D03*
X29431930Y7619270D03*
X29345060Y7380590D03*
X29330420Y6354240D03*
X29167160Y6159660D03*
X29003890Y5965090D03*
X28941200Y6681050D03*
X28777940Y6486470D03*
X28614670Y6291900D03*
X28451400Y6097320D03*
X28288130Y5902740D03*
X28840620Y5770510D03*
X28677350Y5575930D03*
X28514080Y5381360D03*
X28350820Y5186780D03*
X28124860Y5708170D03*
X27961600Y5513590D03*
X27798330Y5319020D03*
X27635060Y5124440D03*
X27471790Y4929870D03*
X28187550Y4992210D03*
X28024280Y4797630D03*
X27861010Y4603060D03*
X27697740Y4408480D03*
X27534480Y4213910D03*
X27308520Y4735290D03*
X27145260Y4540720D03*
X26981990Y4346140D03*
X26818720Y4151570D03*
X27371210Y4019330D03*
X27207940Y3824760D03*
X27044670Y3630180D03*
X26655450Y3956990D03*
X26036710Y3437760D03*
X26290670Y2997530D03*
X26070700Y2870530D03*
X25816740Y3310760D03*
X25596770Y3183760D03*
X25850730Y2743530D03*
X25630760Y2616530D03*
X25410790Y2489530D03*
X25190820Y2362530D03*
X25376800Y3056760D03*
X25156830Y2929760D03*
X24936860Y2802760D03*
X24716890Y2675760D03*
X24496920Y2548760D03*
X24970850Y2235530D03*
X24750880Y2108530D03*
X24530910Y1981530D03*
X24276950Y2421760D03*
X24310940Y1854530D03*
X24090970Y1727530D03*
X23871000Y1600530D03*
X24056980Y2294760D03*
X23837010Y2167760D03*
X23651030Y1473530D03*
X23617040Y2040760D03*
X23397070Y1913760D03*
X23177100Y1786760D03*
X22957130Y1659760D03*
X23431060Y1346530D03*
X23211090Y1219530D03*
X22286180Y882930D03*
X22198100Y1383470D03*
X22036040Y838820D03*
X21785900Y794720D03*
X21947960Y1339360D03*
X21697820Y1295260D03*
X21447680Y1251150D03*
X21535760Y750610D03*
X21197540Y1207040D03*
X20947400Y1162940D03*
X20697260Y1118830D03*
X21285620Y706500D03*
X21035480Y662400D03*
X20785340Y618290D03*
X20447120Y1074720D03*
X20196970Y1030620D03*
X19946830Y986510D03*
X20535200Y574180D03*
X20285050Y530080D03*
X20034910Y485970D03*
X19696690Y942400D03*
X19446550Y898300D03*
X19196410Y854190D03*
X19784770Y441860D03*
X19534630Y397760D03*
X19284490Y353650D03*
X19034350Y309540D03*
X18946270Y810080D03*
X18784210Y265440D03*
X18696130Y765980D03*
X17638240Y810050D03*
X17799960Y265460D03*
X17549820Y309570D03*
X17888380Y765940D03*
X17388100Y854150D03*
X16887820Y942370D03*
X17299680Y353670D03*
X17049540Y397780D03*
X16799400Y441890D03*
X16637680Y986470D03*
X16387540Y1030580D03*
X16137400Y1074690D03*
X16549260Y485990D03*
X16299120Y530100D03*
X16048980Y574210D03*
X15887250Y1118790D03*
X15637110Y1162900D03*
X15386970Y1207010D03*
X15798830Y618310D03*
X15548690Y662420D03*
X15298550Y706530D03*
X14798270Y794740D03*
X14548130Y838850D03*
X15136830Y1251110D03*
X14886690Y1295220D03*
X14636550Y1339330D03*
X15048410Y750630D03*
X14297990Y882950D03*
X14386410Y1383430D03*
X13627370Y1659660D03*
X13407400Y1786660D03*
X13187430Y1913660D03*
X12967460Y2040660D03*
X13373100Y1219610D03*
X13153130Y1346610D03*
X12307550Y2421660D03*
X12713190Y1600610D03*
X12493220Y1727610D03*
X12273250Y1854610D03*
X12747490Y2167660D03*
X12527520Y2294660D03*
X12933160Y1473610D03*
X12087580Y2548660D03*
X11867610Y2675660D03*
X11647640Y2802660D03*
X12053280Y1981610D03*
X11833310Y2108610D03*
X11613340Y2235610D03*
X10987730Y3183660D03*
X10767760Y3310660D03*
X11393370Y2362610D03*
X11173400Y2489610D03*
X10953430Y2616610D03*
X10733460Y2743610D03*
X11427670Y2929660D03*
X11207700Y3056660D03*
X9928990Y3956840D03*
X10547790Y3437660D03*
X10513490Y2870610D03*
X10293520Y2997610D03*
X9275920Y4735150D03*
X9213020Y4019440D03*
X9765730Y4151420D03*
X9602460Y4345990D03*
X9439190Y4540570D03*
X9539550Y3630290D03*
X9376290Y3824870D03*
X8622850Y5513450D03*
X8459580Y5708020D03*
X8559950Y4797750D03*
X8396680Y4992320D03*
X9112650Y4929720D03*
X8949390Y5124300D03*
X8786120Y5318870D03*
X9049750Y4214020D03*
X8886480Y4408600D03*
X8723210Y4603170D03*
X7969780Y6291750D03*
X7806510Y6486320D03*
X7643240Y6680900D03*
X7906870Y5576050D03*
X7743610Y5770620D03*
X8296310Y5902600D03*
X8133050Y6097170D03*
X8233410Y5186900D03*
X8070140Y5381470D03*
X7239270Y19210450D03*
X6978650Y18494410D03*
X7065530Y18733090D03*
X7152400Y18971770D03*
X6891780Y18255720D03*
X7065590Y7857780D03*
X6978720Y8096460D03*
X6891850Y8335140D03*
X7239340Y7380410D03*
X7152470Y7619100D03*
X7417070Y6159770D03*
X7253800Y6354350D03*
X7580340Y5965200D03*
X6674880Y19145760D03*
X6761750Y19384440D03*
X6414260Y18429710D03*
X6501130Y18668400D03*
X6588010Y18907080D03*
X6153640Y17713670D03*
X6240520Y17952350D03*
X6327390Y18191030D03*
X6718040Y17778360D03*
X6804910Y18017040D03*
X6370540Y16823630D03*
X6457420Y17062310D03*
X6544290Y17301000D03*
X6631160Y17539680D03*
X6109920Y16107590D03*
X6196800Y16346270D03*
X6283670Y16584950D03*
X6283740Y10005920D03*
X6196860Y10244600D03*
X6109990Y10483280D03*
X6544350Y9289870D03*
X6457480Y9528550D03*
X6370610Y9767230D03*
X6240460Y8638850D03*
X6153590Y8877530D03*
X6804970Y8573820D03*
X6718100Y8812510D03*
X6631230Y9051190D03*
X6587950Y7684120D03*
X6501080Y7922800D03*
X6414210Y8161480D03*
X6327330Y8400160D03*
X6761700Y7206750D03*
X6674830Y7445440D03*
X5893020Y16997620D03*
X5979900Y17236300D03*
X6066770Y17474990D03*
X5545530Y16042890D03*
X5632400Y16281580D03*
X5719280Y16520260D03*
X5806150Y16758940D03*
X6023050Y15868900D03*
X5374590Y14565600D03*
Y14819600D03*
Y15073600D03*
X5882820Y14565420D03*
Y14819420D03*
Y15073420D03*
X5374590Y13803600D03*
Y14057600D03*
Y14311600D03*
X5882820Y13803420D03*
Y14057420D03*
Y14311420D03*
X5374590Y13041600D03*
Y13295600D03*
Y13549600D03*
X5882820Y13041420D03*
Y13295420D03*
Y13549420D03*
X5374590Y12279600D03*
Y12533600D03*
Y12787600D03*
X5882820Y12279420D03*
Y12533420D03*
Y12787420D03*
X5374590Y11517600D03*
Y11771600D03*
Y12025600D03*
X5882820Y11517420D03*
Y11771420D03*
Y12025420D03*
X6023120Y10721960D03*
X5719220Y10070940D03*
X5632350Y10309620D03*
X5545480Y10548300D03*
X5979840Y9354890D03*
X5892970Y9593570D03*
X5806100Y9832260D03*
X6066710Y9116210D03*
%LPD*%
G75*
G54D10*
X3450000Y15050000D03*
X3550000D03*
X3450000Y14950000D03*
X3550000D03*
X3450000Y14700000D03*
X3550000D03*
X3500000Y15350000D03*
Y16000000D03*
Y16100000D03*
Y16200000D03*
Y16300000D03*
X3850000Y14950000D03*
X3950000D03*
X4050000D03*
X4150000D03*
X4250000D03*
Y14850000D03*
Y14750000D03*
X4150000D03*
X4050000D03*
X3900000D03*
X3750000Y15050000D03*
Y14950000D03*
Y14700000D03*
X3650000Y15050000D03*
Y14950000D03*
Y14700000D03*
X3600000Y15350000D03*
X3700000D03*
X3604760Y15190910D03*
X4000000Y16100000D03*
Y16000000D03*
X3800000Y16100000D03*
X3900000D03*
Y16000000D03*
X3800000D03*
X3700040Y16277000D03*
X3700000Y16100000D03*
Y16000000D03*
X3600000D03*
Y16100000D03*
Y16200000D03*
Y16300000D03*
X4040400Y16550000D03*
X4200000D03*
X4300000D03*
X3900000D03*
X3800000D03*
X3700000D03*
X3800000Y16750000D03*
X3900000D03*
X4200000D03*
X4300000D03*
X3700000D03*
X4040400Y17200000D03*
X4200000D03*
X4300000D03*
X3900000D03*
X3800000D03*
Y17300000D03*
X3900000D03*
X4200000D03*
X4300000D03*
X3700000Y17200000D03*
Y17300000D03*
X3800000Y17100000D03*
X3900000D03*
X4200000D03*
X4300000D03*
X4040400Y16900000D03*
X4200000D03*
X4300000D03*
X3900000D03*
X3800000D03*
Y17000000D03*
X3900000D03*
X4200000D03*
X4300000D03*
X3700000Y17100000D03*
Y16900000D03*
Y17000000D03*
X3800000Y16650000D03*
X3900000D03*
X4200000D03*
X4300000D03*
X3700000D03*
X4300000Y17900000D03*
X4200000D03*
X3900000D03*
X3800000D03*
Y17800000D03*
X3900000D03*
X4300000D03*
X4200000D03*
X4040400D03*
X4300000Y18000000D03*
X3800000D03*
X3700000Y17900000D03*
Y17800000D03*
Y18000000D03*
X3800000Y17700000D03*
X3900000D03*
X4200000D03*
X4300000D03*
X4040400Y17500000D03*
X4200000D03*
X4300000D03*
X3900000D03*
X3800000D03*
Y17600000D03*
X3900000D03*
X4200000D03*
X4300000D03*
X3700000Y17700000D03*
Y17500000D03*
Y17600000D03*
X3800000Y17400000D03*
X3900000D03*
X4200000D03*
X4300000D03*
X3700000D03*
X4650000Y15150000D03*
X4850000D03*
X4750000D03*
X4350000Y14950000D03*
Y14850000D03*
Y14750000D03*
X4650000Y15550000D03*
Y15650000D03*
X4850000D03*
Y15550000D03*
X4750000D03*
Y15650000D03*
X4650000Y15450000D03*
X4850000D03*
X4750000D03*
X4650000Y15250000D03*
Y15350000D03*
X4850000D03*
Y15250000D03*
X4750000D03*
Y15350000D03*
X4400000Y16550000D03*
X4700000Y16700000D03*
X4800000D03*
X4600000D03*
X4700000Y16900000D03*
Y16800000D03*
X4800000D03*
Y16900000D03*
X4600000D03*
Y16800000D03*
X4700000Y17000000D03*
X4800000D03*
X4600000D03*
X4700000Y17200000D03*
Y17100000D03*
X4800000D03*
Y17200000D03*
X4600000D03*
Y17100000D03*
X4700000Y17300000D03*
X4800000D03*
X4600000D03*
X4400000Y16750000D03*
Y17200000D03*
Y17300000D03*
Y17100000D03*
Y16900000D03*
Y17000000D03*
Y16650000D03*
X4700000Y17500000D03*
Y17400000D03*
X4800000D03*
Y17500000D03*
X4600000D03*
Y17400000D03*
X4700000Y17600000D03*
X4800000D03*
X4600000D03*
X4700000Y17800000D03*
Y17700000D03*
X4800000D03*
Y17800000D03*
X4600000D03*
Y17700000D03*
X4700000Y17950000D03*
X4800000D03*
X4600000D03*
X4700000Y18050000D03*
X4800000D03*
X4600000D03*
X4400000Y17900000D03*
Y17800000D03*
Y18000000D03*
Y17700000D03*
Y17500000D03*
Y17600000D03*
Y17400000D03*
X4700000Y18150000D03*
X4800000D03*
X4600000D03*
X4700000Y18300000D03*
X4800000D03*
X4600000D03*
X4700000Y18800000D03*
Y18500000D03*
Y18400000D03*
X4800000D03*
Y18500000D03*
Y18800000D03*
Y18640400D03*
X4600000Y18800000D03*
Y18500000D03*
Y18400000D03*
Y19000000D03*
X4800000D03*
X4700000D03*
Y18900000D03*
X4800000D03*
X4600000D03*
X5573200Y12279980D03*
X5050000Y12500000D03*
X5699210Y17058950D03*
X5350000Y19450000D03*
Y19350000D03*
X5550000Y19450000D03*
X5450000D03*
Y19350000D03*
X5550000D03*
X5690400D03*
X6010720Y8042820D03*
X6439780Y10329170D03*
X6283640Y10611970D03*
X6450000Y13050000D03*
X6350000Y13550000D03*
X6400000Y13300000D03*
X6300000Y13800000D03*
X6250000Y14050000D03*
X6200000Y14300000D03*
X6150000Y14550000D03*
X6100310Y14850000D03*
X6050000Y19450000D03*
Y19350000D03*
Y19550000D03*
X5950000Y19450000D03*
X5850000D03*
X5950000Y19350000D03*
X5850000D03*
X5950000Y19550000D03*
X6765720Y7905160D03*
X7107510Y9225570D03*
X6972680Y9449820D03*
X6834260Y9683920D03*
X6703370Y9897360D03*
X6571240Y10114180D03*
X6750000Y12800000D03*
X7106160Y17242580D03*
X7177100Y17729860D03*
X7206050Y17955610D03*
X7147260Y17501690D03*
X7220850Y18142460D03*
X7242710Y9000280D03*
X7587360Y8787540D03*
X7266990Y16767110D03*
X7263340Y18405380D03*
X7297890Y18646510D03*
X7349840Y18935420D03*
X8500460Y4117430D03*
X8539030Y6174510D03*
X8348210Y6324130D03*
X8140360Y6494050D03*
X7960590Y6630510D03*
X9270320Y4400310D03*
X9336160Y5535660D03*
X8930910Y5863060D03*
X8737820Y6015390D03*
X9140730Y5690790D03*
X9698310Y5382620D03*
X10854550Y3503590D03*
X11593240Y3250310D03*
X11349630Y3333220D03*
X11103480Y3417610D03*
X12262560Y1291230D03*
X12079090Y3085280D03*
X11835720Y3168050D03*
X12332950Y2996450D03*
X12886870Y1900410D03*
X12558220Y2924120D03*
X12855060Y2908950D03*
X15193660Y1594120D03*
X14939660Y1588140D03*
X14668090Y1585250D03*
X15953600Y1612440D03*
X15701680Y1606090D03*
X15466830Y1596720D03*
X16486670Y1619980D03*
X16232420Y1614040D03*
X16608330Y1655500D03*
X16737290Y-63570D03*
X17117000Y786680D03*
X18899940Y1026430D03*
X19371590Y1211140D03*
X19151790Y1121610D03*
X19631440Y1307730D03*
X20098560Y1491630D03*
X19858610Y1398560D03*
X20342560Y1585430D03*
X20570340Y1676370D03*
X21059140Y1326580D03*
X21416200Y169010D03*
X21554790Y601740D03*
X23129550Y1996890D03*
X23252990Y2125890D03*
X23860490Y2649850D03*
X23648220Y2469540D03*
X23469000Y2308340D03*
X24432930Y3153540D03*
X24038540Y2810370D03*
X24247330Y2988650D03*
X25963710Y480370D03*
X25850390Y458990D03*
X25871760Y572320D03*
X25758430Y550950D03*
X25779800Y664280D03*
X25574510Y734860D03*
X25666470Y642910D03*
X25687840Y756240D03*
X25721320Y2440620D03*
X26124510Y4000600D03*
X26049100Y3876130D03*
X26125880Y3873910D03*
X26049450Y3750710D03*
X26800000Y1050000D03*
X26861770Y1682730D03*
X26883120Y1796070D03*
X26769810Y1774690D03*
X26791170Y1888030D03*
X26920820Y4742070D03*
X26788220Y4506250D03*
X26696820Y4319540D03*
X26223400Y4464280D03*
X26950000Y1000000D03*
X27400000Y1800000D03*
X27045680Y1498820D03*
X27067040Y1612160D03*
X26953720Y1590770D03*
X26975080Y1704120D03*
X27658580Y2541420D03*
X27587870Y2612130D03*
X27517160Y2682840D03*
X27658580D03*
X27587870Y2753550D03*
X27367300Y2251780D03*
X27253970Y2230410D03*
X27275340Y2343740D03*
X27162010Y2322360D03*
X27551210Y2067870D03*
X27437890Y2046490D03*
X27459260Y2159820D03*
X27345930Y2138450D03*
X27658580Y2824260D03*
X27296120Y5422690D03*
X27186030Y5213700D03*
X27052530Y4976820D03*
X27407650Y5633390D03*
X27545040Y5874920D03*
X27729290Y2612130D03*
X27800000Y2682840D03*
X27729290Y2753550D03*
X27800000Y2400000D03*
X27729290Y2470710D03*
X27870710D03*
X27800000Y2541420D03*
X27941420D03*
X27870710Y2612130D03*
X28371540Y3284460D03*
X28392900Y3397790D03*
X28279580Y3376420D03*
X28550000Y2900000D03*
X28668770Y3121930D03*
X28555450Y3100550D03*
X28463490Y3192510D03*
X28484860Y3305840D03*
X28576810Y3213880D03*
X28878570Y5447990D03*
X28598050Y5978250D03*
X28832190Y7446350D03*
X28847990Y7276440D03*
X28847360Y7193580D03*
X28851020Y7374400D03*
X29350000Y3350000D03*
X29300000Y3400000D03*
Y3300000D03*
X29250000Y3350000D03*
X29200000Y3250000D03*
X29358580Y4091420D03*
X29287870Y4162130D03*
X29429290D03*
X29500000Y3950000D03*
X29429290Y4020710D03*
X29570710D03*
X29500000Y4091420D03*
X29641420D03*
X29570710Y4162130D03*
X29217160Y4232840D03*
X29358580D03*
X29287870Y4303550D03*
X29500000Y4232840D03*
X29429290Y4303550D03*
X29358580Y4374260D03*
X29800000Y5600000D03*
X29850000Y5650000D03*
X29257180Y7649300D03*
X29500000Y7450000D03*
X29663540Y7679590D03*
X29364690Y8468720D03*
X29315910Y8188520D03*
X29289220Y7968990D03*
X29796820Y7899570D03*
X29440090Y8968270D03*
X29401750Y8716760D03*
X29477600Y9217520D03*
X29515180Y9466960D03*
X29620290Y17127700D03*
X29751170Y16914340D03*
X29483390Y17357650D03*
X29351330Y17574290D03*
X30100000Y4150000D03*
X29950000Y4200000D03*
X30008580Y4691420D03*
X29937870Y4762130D03*
X29867160Y4832840D03*
X30079290Y4762130D03*
X30008580Y4832840D03*
X29937870Y4903550D03*
X30150000Y4832840D03*
X30079290Y4903550D03*
Y4620710D03*
X30220710D03*
X30150000Y4691420D03*
X30291420D03*
X30220710Y4762130D03*
X30150000Y4550000D03*
X30008580Y4974260D03*
X30550000Y5000000D03*
X30500000Y5050000D03*
X30450000Y5100000D03*
X30400000Y5150000D03*
X30350000Y5200000D03*
X30300000Y5250000D03*
X30565830Y5263100D03*
X30323650Y5388750D03*
X29922880Y8099740D03*
X30483650Y9932810D03*
X30381680Y10568090D03*
X30500000Y12000000D03*
X30550000Y11750000D03*
X30350000Y12800000D03*
X30400000Y12550000D03*
X30450000Y12300000D03*
X30200000Y13550000D03*
X30300000Y13050000D03*
X30250000Y13300000D03*
X30000000Y13800000D03*
X30150000D03*
X30009370Y16497310D03*
X30145390Y16269770D03*
X30285910Y16029880D03*
X29872910Y16726040D03*
X30525000Y18700000D03*
X30565370Y18578810D03*
X29928750Y18618480D03*
X30500000Y19075000D03*
X30575000Y19375000D03*
X30250000Y19700000D03*
X30800000Y4750000D03*
X30750000Y4800000D03*
X30700000Y4850000D03*
X30650000Y4900000D03*
X30600000Y4950000D03*
X30650000Y4750000D03*
X30592060Y4842060D03*
X30858580Y5591420D03*
X30787870Y5662130D03*
X30929290D03*
X31000000Y5450000D03*
X30929290Y5520710D03*
X31070710D03*
X31000000Y5591420D03*
X31141420D03*
X31070710Y5662130D03*
X30679150Y5284470D03*
X30657790Y5171140D03*
X30771110Y5192520D03*
X30850000Y5900000D03*
X30858580Y5732840D03*
X30787870Y5803550D03*
X31000000Y5732840D03*
X30929290Y5803550D03*
X30700000Y5750000D03*
X30986020Y9491430D03*
X31128670Y10200990D03*
X31300000Y11200000D03*
X31050000Y11100000D03*
X31150000Y11050000D03*
X31250000Y11000000D03*
X31000000Y14300000D03*
Y19375000D03*
X30875000Y19175000D03*
X30975000Y18925000D03*
X30650000Y19800000D03*
X31000000Y19575000D03*
X32036950Y6607220D03*
X31853040Y6791130D03*
X31944990Y6699180D03*
X31966360Y6812510D03*
X31650000Y8700000D03*
X31400000Y11150000D03*
X31350000Y10950000D03*
X31550000Y14050000D03*
X31500000Y14750000D03*
X31702750Y15154650D03*
Y14900650D03*
Y15027650D03*
Y15789650D03*
Y15281650D03*
Y15535650D03*
Y15662650D03*
Y15408650D03*
Y15916650D03*
Y16043650D03*
Y16170650D03*
Y16297650D03*
Y16424650D03*
Y16551650D03*
Y16678650D03*
Y16805650D03*
Y16932650D03*
Y17059650D03*
Y17186650D03*
X31950000Y17750000D03*
Y17650000D03*
Y17550000D03*
X31737100Y17662900D03*
X31750000Y17750000D03*
X31850000D03*
Y17650000D03*
X31750000Y17550000D03*
X31850000D03*
X31750000Y17850000D03*
X31850000D03*
X31650000D03*
X31550000D03*
X31450000D03*
X31650000Y17500000D03*
X31550000D03*
X31350000D03*
Y17850000D03*
X32128910Y6515260D03*
X32242240Y6536640D03*
X32150280Y6628590D03*
X32058320Y6720550D03*
X32200000Y7937710D03*
X32157020Y8142980D03*
X32700000Y8400000D03*
Y8500000D03*
X32600000Y8400000D03*
X32500000D03*
X32600000Y8500000D03*
X32500000D03*
X32700000Y8300000D03*
X32600000D03*
X32500000D03*
X32200000Y8500000D03*
X32347920Y7890250D03*
X32412950Y7985500D03*
X32477970Y7890250D03*
X32542990Y7985500D03*
X32700000Y9300000D03*
X32600000D03*
X32500000D03*
X32400000D03*
X32700000Y9400000D03*
Y9500000D03*
X32600000Y9400000D03*
X32500000D03*
X32400000D03*
X32600000Y9500000D03*
X32500000D03*
X32400000D03*
X32379670Y9858750D03*
X32444690Y9954000D03*
X32509710Y9858750D03*
X32574740Y9954000D03*
X32400000Y12000000D03*
X32700000D03*
X32600000D03*
X32500000D03*
X32700000Y12100000D03*
X32600000D03*
X32500000D03*
X32400000D03*
X32700000Y12200000D03*
X32600000D03*
X32500000D03*
X32400000D03*
X32347920Y11573250D03*
X32412940Y11668500D03*
X32477960Y11573250D03*
X32542990Y11668500D03*
X32608010Y11573250D03*
X32673040Y11668500D03*
X32738060Y11573250D03*
X32700000Y12950000D03*
X32600000D03*
X32500000D03*
X32400000D03*
X32700000Y13050000D03*
Y13150000D03*
X32600000Y13050000D03*
X32500000D03*
X32400000D03*
X32600000Y13150000D03*
X32500000D03*
X32400000D03*
X32379670Y13573500D03*
X32444690Y13668750D03*
X32509710Y13573500D03*
X32574740Y13668750D03*
X32639760Y13573500D03*
X32704790Y13668750D03*
X32769810Y13573500D03*
X32900000Y8400000D03*
X32800000D03*
X32900000Y8500000D03*
X32800000D03*
X32900000Y8300000D03*
X32800000D03*
Y9300000D03*
Y9400000D03*
Y9500000D03*
Y12000000D03*
Y12100000D03*
Y12200000D03*
X32803080Y11668500D03*
X32800000Y12950000D03*
Y13050000D03*
Y13150000D03*
X32834830Y13668750D03*
X32805350Y15154650D03*
Y15027650D03*
Y14900650D03*
X32900000Y15700000D03*
X32805350Y15662650D03*
Y15535650D03*
Y15408650D03*
Y15281650D03*
Y15789650D03*
Y16551650D03*
Y16424650D03*
Y16297650D03*
Y15916650D03*
Y16170650D03*
Y16043650D03*
X33000010Y17049990D03*
X32805350Y16932650D03*
Y16805650D03*
Y16678650D03*
Y17186650D03*
Y17313650D03*
G54D11*
X4068160Y10755520D03*
Y18375520D03*
X4095750Y19320250D03*
X11688160Y341520D03*
X24896160D03*
X32516160Y10755520D03*
Y18375520D03*
X32512000Y19320250D03*
G54D12*
X5719220Y10070940D03*
X5806100Y9832260D03*
X5545480Y10548300D03*
X5632350Y10309620D03*
X5374590Y11517600D03*
Y12279600D03*
Y12025600D03*
Y11771600D03*
Y12787600D03*
Y12533600D03*
Y13549600D03*
Y13295600D03*
Y13041600D03*
Y14311600D03*
Y14057600D03*
Y13803600D03*
Y15073600D03*
Y14819600D03*
Y14565600D03*
X5719280Y16520260D03*
X5632400Y16281580D03*
X5545530Y16042890D03*
X5806150Y16758940D03*
X6501080Y7922800D03*
X6240460Y8638850D03*
X6327330Y8400160D03*
X6414210Y8161480D03*
X6544350Y9289870D03*
X5979840Y9354890D03*
X6066710Y9116210D03*
X6153590Y8877530D03*
X6283740Y10005920D03*
X6370610Y9767230D03*
X6457480Y9528550D03*
X5892970Y9593570D03*
X6023120Y10721960D03*
X6109990Y10483280D03*
X6196860Y10244600D03*
X5882820Y11517420D03*
Y12279420D03*
Y12025420D03*
Y11771420D03*
Y12787420D03*
Y12533420D03*
Y13549420D03*
Y13295420D03*
Y13041420D03*
Y14311420D03*
Y14057420D03*
Y13803420D03*
Y15073420D03*
Y14819420D03*
Y14565420D03*
X6023050Y15868900D03*
X6283670Y16584950D03*
X6196800Y16346270D03*
X6109920Y16107590D03*
X6544290Y17301000D03*
X6457420Y17062310D03*
X6370540Y16823630D03*
X5979900Y17236300D03*
X5893020Y16997620D03*
X6240520Y17952350D03*
X6153640Y17713670D03*
X6066770Y17474990D03*
X6501130Y18668400D03*
X6414260Y18429710D03*
X6327390Y18191030D03*
X7253800Y6354350D03*
X6761700Y7206750D03*
X7065590Y7857780D03*
X7152470Y7619100D03*
X7239340Y7380410D03*
X6587950Y7684120D03*
X6674830Y7445440D03*
X6804970Y8573820D03*
X6891850Y8335140D03*
X6978720Y8096460D03*
X6631230Y9051190D03*
X6718100Y8812510D03*
X6804910Y18017040D03*
X6718040Y17778360D03*
X6631160Y17539680D03*
X7065530Y18733090D03*
X6978650Y18494410D03*
X6891780Y18255720D03*
X7239270Y19210450D03*
X7152400Y18971770D03*
X6761750Y19384440D03*
X6674880Y19145760D03*
X6588010Y18907080D03*
X7906870Y5576050D03*
X7806510Y6486320D03*
X7969780Y6291750D03*
X7417070Y6159770D03*
X7580340Y5965200D03*
X7743610Y5770620D03*
X7643240Y6680900D03*
X8396680Y4992320D03*
X8559950Y4797750D03*
X8723210Y4603170D03*
X8459580Y5708020D03*
X8622850Y5513450D03*
X8070140Y5381470D03*
X8233410Y5186900D03*
X8133050Y6097170D03*
X8296310Y5902600D03*
X9049750Y4214020D03*
X9213020Y4019440D03*
X9376290Y3824870D03*
X9112650Y4929720D03*
X9275920Y4735150D03*
X9439190Y4540570D03*
X8886480Y4408600D03*
X8786120Y5318870D03*
X8949390Y5124300D03*
X9765730Y4151420D03*
X9928990Y3956840D03*
X9539550Y3630290D03*
X9602460Y4345990D03*
X10733460Y2743610D03*
X10547790Y3437660D03*
X10767760Y3310660D03*
X10293520Y2997610D03*
X10513490Y2870610D03*
X11647640Y2802660D03*
X10953430Y2616610D03*
X11173400Y2489610D03*
X11393370Y2362610D03*
X11613340Y2235610D03*
X10987730Y3183660D03*
X11207700Y3056660D03*
X11427670Y2929660D03*
X11833310Y2108610D03*
X12053280Y1981610D03*
X12273250Y1854610D03*
X11867610Y2675660D03*
X12087580Y2548660D03*
X12307550Y2421660D03*
X12967460Y2040660D03*
X12493220Y1727610D03*
X12713190Y1600610D03*
X12933160Y1473610D03*
X12527520Y2294660D03*
X12747490Y2167660D03*
X13153130Y1346610D03*
X13373100Y1219610D03*
X13187430Y1913660D03*
X13407400Y1786660D03*
X13627370Y1659660D03*
X14297990Y882950D03*
X14548130Y838850D03*
X14386410Y1383430D03*
X14636550Y1339330D03*
X14886690Y1295220D03*
X15136830Y1251110D03*
X14798270Y794740D03*
X15048410Y750630D03*
X15298550Y706530D03*
X15798830Y618310D03*
X15386970Y1207010D03*
X15637110Y1162900D03*
X15887250Y1118790D03*
X15548690Y662420D03*
X16048980Y574210D03*
X16299120Y530100D03*
X16549260Y485990D03*
X16137400Y1074690D03*
X16387540Y1030580D03*
X16637680Y986470D03*
X16799400Y441890D03*
X17049540Y397780D03*
X17299680Y353670D03*
X16887820Y942370D03*
X17137960Y898260D03*
X17388100Y854150D03*
X17549820Y309570D03*
X17799960Y265460D03*
X17638240Y810050D03*
X17888380Y765940D03*
X18784210Y265440D03*
X18696130Y765980D03*
X18946270Y810080D03*
X19034350Y309540D03*
X19284490Y353650D03*
X19534630Y397760D03*
X19196410Y854190D03*
X19446550Y898300D03*
X19696690Y942400D03*
X19784770Y441860D03*
X20034910Y485970D03*
X20285050Y530080D03*
X19946830Y986510D03*
X20196970Y1030620D03*
X20535200Y574180D03*
X20785340Y618290D03*
X20447120Y1074720D03*
X20697260Y1118830D03*
X20947400Y1162940D03*
X21035480Y662400D03*
X21197540Y1207040D03*
X21447680Y1251150D03*
X21697820Y1295260D03*
X21285620Y706500D03*
X21535760Y750610D03*
X21785900Y794720D03*
X21947960Y1339360D03*
X22036040Y838820D03*
X22286180Y882930D03*
X22198100Y1383470D03*
X23211090Y1219530D03*
X22957130Y1659760D03*
X23177100Y1786760D03*
X23431060Y1346530D03*
X23397070Y1913760D03*
X23617040Y2040760D03*
X23651030Y1473530D03*
X23871000Y1600530D03*
X24090970Y1727530D03*
X23837010Y2167760D03*
X24056980Y2294760D03*
X24310940Y1854530D03*
X24530910Y1981530D03*
X24750880Y2108530D03*
X24276950Y2421760D03*
X24496920Y2548760D03*
X24716890Y2675760D03*
X24936860Y2802760D03*
X24970850Y2235530D03*
X25190820Y2362530D03*
X25410790Y2489530D03*
X25156830Y2929760D03*
X25376800Y3056760D03*
X25630760Y2616530D03*
X25850730Y2743530D03*
X25596770Y3183760D03*
X25816740Y3310760D03*
X26036710Y3437760D03*
X26070700Y2870530D03*
X26290670Y2997530D03*
X26655450Y3956990D03*
X26818720Y4151570D03*
X26981990Y4346140D03*
X27044670Y3630180D03*
X27207940Y3824760D03*
X27371210Y4019330D03*
X27534480Y4213910D03*
X27697740Y4408480D03*
X27145260Y4540720D03*
X27308520Y4735290D03*
X27471790Y4929870D03*
X27635060Y5124440D03*
X27861010Y4603060D03*
X28024280Y4797630D03*
X28187550Y4992210D03*
X28350820Y5186780D03*
X27798330Y5319020D03*
X27961600Y5513590D03*
X28124860Y5708170D03*
X28288130Y5902740D03*
X28451400Y6097320D03*
X28514080Y5381360D03*
X28677350Y5575930D03*
X28840620Y5770510D03*
X29003890Y5965090D03*
X29167160Y6159660D03*
X28614670Y6291900D03*
X28777940Y6486470D03*
X28941200Y6681050D03*
X29330420Y6354240D03*
X29822580Y7206600D03*
X29345060Y7380590D03*
X29431930Y7619270D03*
X29518800Y7857950D03*
X29909450Y7445280D03*
X29605680Y8096630D03*
X29692550Y8335320D03*
X29779420Y8574000D03*
X29866290Y8812680D03*
X29866220Y17778530D03*
X29779350Y18017220D03*
X29692470Y18255900D03*
X29605600Y18494580D03*
X29518730Y18733260D03*
X29431850Y18971940D03*
X29344980Y19210630D03*
X29909490Y19145600D03*
X29822620Y19384290D03*
X29996320Y7683960D03*
X30083200Y7922640D03*
X30170070Y8161330D03*
X30256940Y8400010D03*
X30343810Y8638690D03*
X29953170Y9051360D03*
X30040040Y9290040D03*
X30430690Y8877370D03*
X30517560Y9116050D03*
X30604430Y9354740D03*
X30126910Y9528730D03*
X30213790Y9767410D03*
X30300660Y10006090D03*
X30387530Y10244770D03*
X30474410Y10483450D03*
X30561280Y10722140D03*
X30561200Y15869080D03*
X30474330Y16107760D03*
X30387460Y16346440D03*
X30300580Y16585120D03*
X30213710Y16823810D03*
X30126840Y17062490D03*
X30039970Y17301170D03*
X30604480Y17236150D03*
X29953090Y17539850D03*
X30517610Y17474830D03*
X30430730Y17713510D03*
X30343860Y17952190D03*
X30256990Y18190880D03*
X30170110Y18429560D03*
X30083240Y18668240D03*
X29996370Y18906920D03*
X30691310Y9593420D03*
X30778180Y9832100D03*
X30865050Y10070780D03*
X30951930Y10309460D03*
X31038800Y10548150D03*
X30701500Y11517620D03*
X31209730Y11517440D03*
X30701500Y11771620D03*
Y12025620D03*
Y12279620D03*
X31209730Y11771440D03*
Y12025440D03*
Y12279440D03*
X30701500Y12533620D03*
Y12787620D03*
X31209730Y12533440D03*
Y12787440D03*
X30701500Y13041620D03*
Y13295620D03*
Y13549620D03*
X31209730Y13041440D03*
Y13295440D03*
Y13549440D03*
X30701500Y13803620D03*
Y14057620D03*
Y14311620D03*
X31209730Y13803440D03*
Y14057440D03*
Y14311440D03*
X30701500Y14565620D03*
Y14819620D03*
Y15073620D03*
X31209730Y14565440D03*
Y14819440D03*
Y15073440D03*
X31038840Y16042740D03*
X30951970Y16281420D03*
X30865100Y16520100D03*
X30778220Y16758780D03*
X30691350Y16997470D03*
G54D13*
X5118000Y19352000D03*
G54D14*
X5588000Y19052000D03*
Y19652000D03*
G54D15*
X32254050Y14744650D03*
Y17467650D03*
G54D16*
G01X5374590Y11423600D02*
Y11517600D01*
G01D02*
Y11611600D01*
G01X5280590Y11517600D02*
X5374590D01*
G01D02*
X5468590D01*
G01X5545530Y15948890D02*
Y16042890D01*
G01D02*
Y16136890D01*
G01X5451530Y16042890D02*
X5545530D01*
G01D02*
X5639530D01*
G01X5588000Y18934200D02*
Y19052000D01*
G01D02*
Y19169800D01*
G01X5320200Y19052000D02*
X5588000D01*
G01D02*
X5855800D01*
G01X5882820Y11423420D02*
Y11517420D01*
G01D02*
Y11611420D01*
G01X5788820Y11517420D02*
X5882820D01*
G01D02*
X5976820D01*
G01X6023050Y15774900D02*
Y15868900D01*
G01D02*
Y15962900D01*
G01X5929050Y15868900D02*
X6023050D01*
G01D02*
X6117050D01*
G01X6761700Y7112750D02*
Y7206750D01*
G01X7145340Y7380410D02*
X7239340D01*
G01X6761700Y7206750D02*
Y7300750D01*
G01X6667700Y7206750D02*
X6761700D01*
G01D02*
X6855700D01*
G01X7239340Y7286410D02*
Y7380410D01*
G01D02*
Y7474410D01*
G01Y7380410D02*
X7333340D01*
G01X9928990Y3862840D02*
Y3956840D01*
G01D02*
Y4050840D01*
G01X9834990Y3956840D02*
X9928990D01*
G01D02*
X10022990D01*
G01X9539550Y3536290D02*
Y3630290D01*
G01D02*
Y3724290D01*
G01X9445550Y3630290D02*
X9539550D01*
G01D02*
X9633550D01*
G01X13373100Y1125610D02*
Y1219610D01*
G01D02*
Y1313610D01*
G01X13279100Y1219610D02*
X13373100D01*
G01D02*
X13467100D01*
G01X13627370Y1565660D02*
Y1659660D01*
G01D02*
Y1753660D01*
G01X13533370Y1659660D02*
X13627370D01*
G01D02*
X13721370D01*
G01X17799960Y171460D02*
Y265460D01*
G01D02*
Y359460D01*
G01X17705960Y265460D02*
X17799960D01*
G01D02*
X17893960D01*
G01X17888380Y671940D02*
Y765940D01*
G01D02*
Y859940D01*
G01X17794380Y765940D02*
X17888380D01*
G01D02*
X17982380D01*
G01X22286180Y788930D02*
Y882930D01*
G01D02*
Y976930D01*
G01X22192180Y882930D02*
X22286180D01*
G01D02*
X22380180D01*
G01X22198100Y1289470D02*
Y1383470D01*
G01D02*
Y1477470D01*
G01X22104100Y1383470D02*
X22198100D01*
G01D02*
X22292100D01*
G01X26036710Y3343760D02*
Y3437760D01*
G01D02*
Y3531760D01*
G01X25942710Y3437760D02*
X26036710D01*
G01D02*
X26130710D01*
G01X26290670Y2903530D02*
Y2997530D01*
G01D02*
Y3091530D01*
G01X26196670Y2997530D02*
X26290670D01*
G01D02*
X26384670D01*
G01X28941200Y6587050D02*
Y6681050D01*
G01D02*
Y6775050D01*
G01X28847200Y6681050D02*
X28941200D01*
G01D02*
X29035200D01*
G01X29330420Y6260240D02*
Y6354240D01*
G01D02*
Y6448240D01*
G01X29236420Y6354240D02*
X29330420D01*
G01D02*
X29424420D01*
G01X29822620Y19290290D02*
Y19384290D01*
G01D02*
Y19478290D01*
G01X29728620Y19384290D02*
X29822620D01*
G01D02*
X29916620D01*
G01X29344980Y19116630D02*
Y19210630D01*
G01D02*
Y19304630D01*
G01X29250980Y19210630D02*
X29344980D01*
G01D02*
X29438980D01*
G01X30561280Y10628140D02*
Y10722140D01*
G01D02*
Y10816140D01*
G01X30467280Y10722140D02*
X30561280D01*
G01D02*
X30655280D01*
G01X31038800Y10454150D02*
Y10548150D01*
G01D02*
Y10642150D01*
G01X30944800Y10548150D02*
X31038800D01*
G01D02*
X31132800D01*
G01X31209730Y14979440D02*
Y15073440D01*
G01D02*
Y15167440D01*
G01X31115730Y15073440D02*
X31209730D01*
G01D02*
X31303730D01*
G01X30701500Y14979620D02*
Y15073620D01*
G01D02*
Y15167620D01*
G01X30607500Y15073620D02*
X30701500D01*
G01D02*
X30795500D01*
G54D17*
G01X3369660Y7471570D02*
G03X3741640Y6573550I1269998J10D01*
G01X3369660Y18693020D02*
Y7471570D01*
G01X4639660Y19963020D02*
G03X3369660Y18693020I0J-1270000D01*
G01X3741640Y6573550D02*
X10617690Y-302510D01*
G01X7878160Y19963020D02*
X4639660D01*
G01X8513160Y19212950D02*
G03X28071160I9779000J-5917432D01*
G01X8513160Y19328020D02*
G03X7878160Y19963020I-635000J0D01*
G01X8513160Y19212960D02*
Y19328020D01*
G01X10617690Y-302510D02*
G03X11515710Y-674480I898021J898030D01*
G01D02*
X25068610D01*
G01D02*
G03X25966640Y-302510I8J1270002D01*
G01D02*
X32842690Y6573550D01*
G01X28706160Y19963020D02*
G03X28071160Y19328020I0J-635000D01*
G01D02*
Y19212960D01*
G01X31944660Y19963020D02*
X28706160D01*
G01X33214660Y18693020D02*
G03X31944660Y19963020I-1270000J0D01*
G01X32842690Y6573550D02*
G03X33214660Y7471570I-898029J898021D01*
G01D02*
Y18693020D01*
M02*
