G04 ================== begin FILE IDENTIFICATION RECORD ==================*
G04 Layout Name:  J:/LED_Arena/Arena Bottom V2.brd*
G04 Film Name:    BOTTOM*
G04 File Format:  Gerber RS274X*
G04 File Origin:  Cadence Allegro 16.6-P004*
G04 Origin Date:  Thu Feb 23 23:36:14 2017*
G04 *
G04 Layer:  VIA CLASS/BOTTOM*
G04 Layer:  PIN/BOTTOM*
G04 Layer:  ETCH/BOTTOM*
G04 Layer:  BOARD GEOMETRY/OUTLINE*
G04 *
G04 Offset:    (0.0000 0.0000)*
G04 Mirror:    No*
G04 Mode:      Positive*
G04 Rotation:  0*
G04 FullContactRelief:  No*
G04 UndefLineWidth:     0.1000*
G04 ================== end FILE IDENTIFICATION RECORD ====================*
%FSLAX35Y35*MOMM*%
%IR0*IPPOS*OFA0.00000B0.00000*MIA0B0*SFA1.00000B1.00000*%
%AMMACRO40*
21,1,.5001,.65,0.0,0.0,100.*%
%ADD40MACRO40*%
%AMMACRO24*
21,1,.5001,.65,0.0,0.0,110.*%
%ADD24MACRO24*%
%AMMACRO46*
21,1,.5001,.65,0.0,0.0,120.*%
%ADD46MACRO46*%
%AMMACRO30*
21,1,.5001,.65,0.0,0.0,130.*%
%ADD30MACRO30*%
%AMMACRO51*
21,1,.5001,.65,0.0,0.0,140.*%
%ADD51MACRO51*%
%AMMACRO32*
21,1,.5001,.65,0.0,0.0,150.*%
%ADD32MACRO32*%
%ADD55C,.2*%
%ADD10C,.5*%
%AMMACRO53*
21,1,1.1001,1.4,0.0,0.0,109.368*%
%ADD53MACRO53*%
%AMMACRO42*
21,1,1.1001,1.4,0.0,0.0,10.*%
%ADD42MACRO42*%
%AMMACRO23*
21,1,1.1001,1.4,0.0,0.0,20.*%
%ADD23MACRO23*%
%AMMACRO45*
21,1,1.1001,1.4,0.0,0.0,30.*%
%ADD45MACRO45*%
%AMMACRO28*
21,1,1.1001,1.4,0.0,0.0,40.*%
%ADD28MACRO28*%
%AMMACRO49*
21,1,1.1001,1.4,0.0,0.0,50.*%
%ADD49MACRO49*%
%AMMACRO31*
21,1,1.1001,1.4,0.0,0.0,60.*%
%ADD31MACRO31*%
%AMMACRO20*
21,1,1.1001,1.4,0.0,0.0,70.*%
%ADD20MACRO20*%
%AMMACRO35*
21,1,1.1001,1.4,0.0,0.0,80.*%
%ADD35MACRO35*%
%ADD17R,5.X2.*%
%ADD15R,1.4X1.1001*%
%ADD12R,2.X5.*%
%ADD18R,1.1001X1.4*%
%AMMACRO25*
21,1,.5001,.65,0.0,0.0,70.*%
%ADD25MACRO25*%
%AMMACRO36*
21,1,.5001,.65,0.0,0.0,80.*%
%ADD36MACRO36*%
%ADD19R,.65X.5001*%
%ADD11C,8.*%
%ADD54R,.5001X.65*%
%AMMACRO41*
21,1,1.524,1.524,0.0,0.0,10.*%
%ADD41MACRO41*%
%AMMACRO21*
21,1,1.524,1.524,0.0,0.0,20.*%
%ADD21MACRO21*%
%AMMACRO44*
21,1,1.524,1.524,0.0,0.0,30.*%
%ADD44MACRO44*%
%ADD13C,1.524*%
%AMMACRO27*
21,1,1.524,1.524,0.0,0.0,40.*%
%ADD27MACRO27*%
%AMMACRO50*
21,1,1.524,1.524,0.0,0.0,50.*%
%ADD50MACRO50*%
%AMMACRO33*
21,1,1.524,1.524,0.0,0.0,60.*%
%ADD33MACRO33*%
%AMMACRO16*
21,1,1.524,1.524,0.0,0.0,70.*%
%ADD16MACRO16*%
%AMMACRO37*
21,1,1.524,1.524,0.0,0.0,80.*%
%ADD37MACRO37*%
%ADD14R,1.524X1.524*%
%AMMACRO48*
21,1,1.524,1.524,0.0,0.0,50.541*%
%ADD48MACRO48*%
%AMMACRO52*
21,1,1.524,1.524,0.0,0.0,19.55*%
%ADD52MACRO52*%
%AMMACRO39*
21,1,1.1001,1.4,0.0,0.0,100.*%
%ADD39MACRO39*%
%AMMACRO22*
21,1,1.1001,1.4,0.0,0.0,110.*%
%ADD22MACRO22*%
%AMMACRO43*
21,1,1.1001,1.4,0.0,0.0,120.*%
%ADD43MACRO43*%
%AMMACRO29*
21,1,1.1001,1.4,0.0,0.0,130.*%
%ADD29MACRO29*%
%AMMACRO47*
21,1,1.1001,1.4,0.0,0.0,140.*%
%ADD47MACRO47*%
%AMMACRO34*
21,1,1.1001,1.4,0.0,0.0,150.*%
%ADD34MACRO34*%
%AMMACRO26*
21,1,1.1001,1.4,0.0,0.0,160.*%
%ADD26MACRO26*%
%AMMACRO38*
21,1,1.1001,1.4,0.0,0.0,170.*%
%ADD38MACRO38*%
%ADD56C,.4*%
%ADD57C,.127*%
%ADD58C,1.*%
%ADD59C,.1*%
%ADD60C,.7544*%
%ADD62C,.6568*%
%ADD61C,8.2544*%
%ADD64R,2.2544X5.2544*%
%ADD63R,5.2544X2.2544*%
G75*
%LPD*%
G75*
G36*
G01X30113280Y4541360D02*
G03X30158640Y4586720I36720J8640D01*
G02X30153790Y4603790I2334J9887D01*
G01X30166920Y4616920D01*
G02X30183990Y4612070I7183J-7184D01*
G03X30229350Y4657430I36720J8640D01*
G02X30224500Y4674500I2334J9887D01*
G01X30237630Y4687630D01*
G02X30254700Y4682780I7183J-7184D01*
G03X30300060Y4728140I36720J8640D01*
G02X30295210Y4745210I2334J9887D01*
G01X30350000Y4800000D01*
X29550000Y5600000D01*
X29800000Y5850000D01*
X30200000Y5450000D01*
X30600000Y5850000D01*
X30700000D01*
Y5700000D01*
X30378620Y5378620D01*
G02X30361300Y5386430I-7180J7187D01*
G03X30325970Y5351100I-37650J2320D01*
G02X30333780Y5333780I623J-10140D01*
G01X30325000Y5325000D01*
X30600000Y5050000D01*
X30723710Y5173710D01*
G02X30739430Y5172050I7190J-7179D01*
G03X30791580Y5224200I31680J20470D01*
G02X30789920Y5239920I5519J8530D01*
G01X30973140Y5423140D01*
X30976680Y5420350D01*
G03X31029650Y5473320I23323J29647D01*
G01X31026860Y5476860D01*
X31043850Y5493850D01*
X31047390Y5491060D01*
G03X31100360Y5544030I23317J29653D01*
G01X31097570Y5547570D01*
X31114560Y5564560D01*
X31118100Y5561770D01*
G03X31171070Y5614740I23321J29649D01*
G01X31168280Y5618280D01*
X31450000Y5900000D01*
X31750000Y5600000D01*
X28650000Y2450000D01*
X25800000Y-350000D01*
G02X25150000Y-600000I-600000J590000D01*
G01X11600000D01*
G02X10750000Y-350000I182143J2189286D01*
G01X3900000Y6500000D01*
G02X3450000Y7500000I719444J925000D01*
G01Y14450000D01*
X3400000D01*
Y15450000D01*
X4500000D01*
Y14450000D01*
X3650000D01*
Y7850000D01*
X4000000Y6750000D01*
X10550000Y250000D01*
X11950000Y-350000D01*
X24500000D01*
X25550000Y0D01*
X27020450Y1470450D01*
X27023950Y1467990D01*
G03X27076510Y1520550I21730J30830D01*
G01X27074050Y1524050D01*
X28643550Y3093550D01*
X28647050Y3091090D01*
G03X28699610Y3143650I21720J30840D01*
G01X28697150Y3147150D01*
X29473140Y3923140D01*
X29476680Y3920350D01*
G03X29529650Y3973320I23317J29653D01*
G01X29526860Y3976860D01*
X29543850Y3993850D01*
X29547390Y3991060D01*
G03X29600360Y4044030I23320J29650D01*
G01X29597570Y4047570D01*
X29614560Y4064560D01*
X29618100Y4061770D01*
G03X29671070Y4114740I23320J29650D01*
G01X29668280Y4118280D01*
X30096210Y4546210D01*
G02X30113280Y4541360I7183J-7184D01*
G37*
G36*
G01X7282010Y16732510D02*
G02X7295740Y16720120I4044J-9321D01*
G03X6762270Y12848170I11013252J-3490110D01*
G02X6751670Y12837680I-10154J-341D01*
G03X6717460Y12819070I-1669J-37681D01*
G01X6367720D01*
Y12882720D01*
X6232280D01*
Y12717280D01*
X6277280D01*
Y12687740D01*
X6254780D01*
Y12612280D01*
X6345220D01*
Y12687740D01*
X6322720D01*
Y12717280D01*
X6367720D01*
Y12780930D01*
X6717460D01*
G03X6754470Y12762550I32540J19072D01*
G02X6765820Y12752880I1197J-10090D01*
G03X28200000Y19200000I11543175J477147D01*
G02X28700000Y19850000I528571J110714D01*
G01X32050000D01*
G02X32558560Y19750130I72618J-975000D01*
G02X32553020Y19730930I-4530J-9092D01*
G03X32913540Y19415640I-41026J-410675D01*
G02X32931840Y19423690I9885J2354D01*
G02X33100000Y18850000I-809221J-548689D01*
G01Y12150000D01*
X33200000D01*
Y9450000D01*
X33100000D01*
Y7550000D01*
G02X32900000Y6800000I-1653571J39286D01*
G01X31775060Y5675060D01*
X31450120Y6000000D01*
X31450000D01*
X30733770Y5283770D01*
G02X30716520Y5289580I-7183J7186D01*
G03X30674040Y5247100I-37370J-5110D01*
G02X30679850Y5229850I-1376J-10067D01*
G01X30658900Y5208900D01*
X30656870Y5208850D01*
G03X30620080Y5172060I920J-37710D01*
G01X30620030Y5170030D01*
X30558990Y5108990D01*
X30342990Y5325000D01*
X30712720Y5694730D01*
Y5714340D01*
X30715690Y5715700D01*
G03Y5784300I-15690J34300D01*
G01X30712720Y5785660D01*
Y5862720D01*
X30594730D01*
X30200000Y5467990D01*
X29800000Y5867990D01*
X29532010Y5600000D01*
X30291010Y4841010D01*
X30242890Y4792890D01*
X30239520Y4794830D01*
G03X30188020Y4743330I-18802J-32698D01*
G01X30189960Y4739960D01*
X30172170Y4722170D01*
X30168800Y4724110D01*
G03X30119390Y4669390I-18799J-32693D01*
G01X30101320Y4651320D01*
G03X30046600Y4601910I-22030J-30607D01*
G01X30048540Y4598540D01*
X28579720Y3129720D01*
X28576260Y3132010D01*
G03X28523990Y3079740I-20810J-31460D01*
G01X28526280Y3076280D01*
X27555420Y2105420D01*
X27553170Y2105540D01*
G03X27513540Y2065910I-1960J-37670D01*
G01X27513660Y2063660D01*
X27492820Y2042820D01*
G02X27475510Y2049260I-7179J7189D01*
G03X27435120Y2008870I-37620J-2770D01*
G02X27441560Y1991560I-749J-10131D01*
G01X27091320Y1641320D01*
X27087860Y1643610D01*
G03X27035590Y1591340I-20820J-31450D01*
G01X27037880Y1587880D01*
X25967920Y517920D01*
X25965670Y518040D01*
G03X25926040Y478410I-1960J-37670D01*
G01X25926160Y476160D01*
X25905320Y455320D01*
G02X25888010Y461760I-7179J7189D01*
G03X25847620Y421370I-37620J-2770D01*
G02X25854060Y404060I-749J-10131D01*
G01X25500080Y50080D01*
X24500000Y-250000D01*
X11950000D01*
X10600000Y300000D01*
X4025060Y6874940D01*
X3700000Y7900000D01*
Y10530440D01*
G02X3718760Y10535840I10159J-6D01*
G03Y10975200I349400J219680D01*
G02X3700000Y10980600I-8601J5406D01*
G01Y14400000D01*
X4550000D01*
Y15500000D01*
X3450000D01*
Y18750000D01*
G02X3666790Y19370030I1253873J-90495D01*
G02X3685270Y19363230I8377J-5746D01*
G03X4086900Y19732880I410479J-42978D01*
G02X4081660Y19751860I-209J10156D01*
G02X4500000Y19900000I622216J-1092352D01*
G01X7900000D01*
G02X8300000Y19000000I-70000J-570000D01*
G03X7317690Y16788650I10008994J-5769976D01*
G02X7299320Y16786550I-9663J3132D01*
G03X7244600Y16797470I-32329J-19438D01*
G01X7242440Y16795880D01*
X6919970Y16908430D01*
X6914130Y16910560D01*
X6935900Y16970370D01*
X6808620Y17016690D01*
X6752040Y16861230D01*
X6803200Y16842610D01*
G02X6803610Y16833230I-1737J-4775D01*
G01X6792300Y16827960D01*
X6737510Y16847910D01*
X6711700Y16777010D01*
X6796690Y16746070D01*
X6811510Y16786780D01*
X6847090Y16803370D01*
X6848850Y16813320D01*
G02X6862330Y16821090I10003J-1776D01*
G01X6879320Y16814910D01*
X6901090Y16874720D01*
X6907170Y16872510D01*
X7229870Y16759870D01*
X7230570Y16757280D01*
G03X7282010Y16732510I36417J9830D01*
G37*
%LPC*%
G75*
G36*
G01X30231160Y13571260D02*
X30232670Y13569040D01*
X30543490D01*
X30543610Y13568920D01*
X30614610D01*
X30615620Y13572680D01*
G02X30764530Y13612340I85878J-23060D01*
G01X31096630D01*
X31096810Y13612160D01*
X31146710D01*
G02Y13486720I63020J-62720D01*
G01X31044850D01*
X31044670Y13486900D01*
X30764530D01*
G02X30615620Y13526560I-63032J62720D01*
G01X30614610Y13530320D01*
X30527630D01*
X30527270Y13530680D01*
X30232400D01*
G02X30231160Y13571260I-32399J19319D01*
G37*
G36*
G01X29875770Y19498260D02*
X29936590Y19331140D01*
X29769470Y19270320D01*
X29760510Y19294940D01*
X29737750Y19286650D01*
X29713530Y19277830D01*
X29606420Y19238950D01*
X29617340Y19207880D01*
X29461260Y19153010D01*
X29459610Y19157720D01*
X29335310Y19112490D01*
X29318330Y19076070D01*
Y18207830D01*
X29387390Y18138770D01*
X29412490Y18147910D01*
X29438300Y18077010D01*
X29353310Y18046070D01*
X29333710Y18099900D01*
X29252890Y18180730D01*
Y19090570D01*
X29276010Y19140140D01*
X29231010Y19263780D01*
X29398130Y19324600D01*
X29407090Y19299980D01*
X29429850Y19308270D01*
X29454070Y19317090D01*
X29551500Y19352460D01*
X29531200Y19409620D01*
X29698790Y19469130D01*
X29709880Y19437880D01*
X29875770Y19498260D01*
G37*
G36*
G01X33032730Y16004780D02*
Y15640820D01*
X33037730Y15635820D01*
Y15595220D01*
X33037740D01*
Y15504780D01*
X33037730D01*
Y15445220D01*
X33037740D01*
Y15254780D01*
X33037730D01*
Y15195220D01*
X33037740D01*
Y15004780D01*
X33037730D01*
Y14945220D01*
X33037740D01*
Y14854780D01*
X32962280D01*
Y14945220D01*
X32962290D01*
Y15004780D01*
X32962280D01*
Y15195220D01*
X32962290D01*
Y15254780D01*
X32962280D01*
Y15445220D01*
X32962290D01*
Y15504780D01*
X32962280D01*
Y15595220D01*
X32962290D01*
Y15604580D01*
X32904590Y15662280D01*
X32900000D01*
G02Y15737720I0J37720D01*
G01X32935830D01*
X32949950Y15723610D01*
G03X32967290Y15730790I7182J7184D01*
G01Y16004780D01*
X32962280D01*
Y16095220D01*
X32962290D01*
Y16154780D01*
X32962280D01*
Y16345220D01*
X32962290D01*
Y16404780D01*
X32962280D01*
Y16595220D01*
X32962290D01*
Y16654780D01*
X32962280D01*
Y16845220D01*
X32962290D01*
Y16904780D01*
X32962280D01*
Y16995220D01*
X32962290D01*
Y17049990D01*
G02X33037730I37720J0D01*
G01Y16995220D01*
X33037740D01*
Y16904780D01*
X33037730D01*
Y16845220D01*
X33037740D01*
Y16654780D01*
X33037730D01*
Y16595220D01*
X33037740D01*
Y16404780D01*
X33037730D01*
Y16345220D01*
X33037740D01*
Y16154780D01*
X33037730D01*
Y16095220D01*
X33037740D01*
Y16004780D01*
X33032730D01*
G37*
G36*
G01X26014460Y4087100D02*
X25818250Y3933380D01*
X25878850Y3753150D01*
G03X25893560Y3747590I9629J3236D01*
G01X25895300Y3748590D01*
X25933020Y3683250D01*
X25854700Y3638030D01*
X25816980Y3703370D01*
X25842660Y3718200D01*
X25784890Y3890030D01*
G03X25768990Y3894790I-9632J-3238D01*
G01X24837830Y3165290D01*
X24831170Y3161440D01*
X24855500Y3119310D01*
X24712220Y3036590D01*
X24644500Y3153890D01*
X24787780Y3236610D01*
X24806610Y3204000D01*
G03X24821670Y3201080I8797J5077D01*
G01X25771290Y3945050D01*
X25771800Y3946300D01*
G02X25789510Y3960170I21029J-8609D01*
G01X25790840Y3960360D01*
X25985540Y4112900D01*
X26190130Y4446510D01*
G02X26225270Y4426610I33269J17772D01*
G01X26222590Y4426480D01*
X26014460Y4087100D01*
G37*
G36*
G01X28831810Y6811000D02*
X28840430Y6803770D01*
X28881010Y6761210D01*
X28887690Y6755610D01*
X28930240Y6806320D01*
X29066470Y6692010D01*
X29049630Y6671940D01*
X29087930Y6639800D01*
X29170610Y6570320D01*
X29217790Y6627630D01*
X29355090Y6514610D01*
X29323450Y6476170D01*
X29455690Y6365200D01*
X29341380Y6228970D01*
X29205150Y6343280D01*
X29221990Y6363350D01*
X29183690Y6395490D01*
X29154720Y6419830D01*
X29100160Y6465670D01*
X29084110Y6446550D01*
X28952900Y6556650D01*
X28952160Y6555780D01*
X28815930Y6670090D01*
X28858480Y6720800D01*
X28849870Y6728030D01*
X28809290Y6770590D01*
X28802600Y6776200D01*
X28788140Y6758960D01*
X28730340Y6807460D01*
X28788480Y6876740D01*
X28846280Y6828240D01*
X28831810Y6811000D01*
G37*
G36*
G01X22303440Y1146760D02*
X22359720Y1156680D01*
X22390600Y981540D01*
X22360030Y976150D01*
X22389190Y810800D01*
X22214050Y779920D01*
X22183170Y955060D01*
X22208970Y959610D01*
X22203450Y990920D01*
X22200290Y1008850D01*
X22195770Y1034610D01*
X22179030Y1129940D01*
X22146150Y1124140D01*
X22117420Y1287060D01*
X22124580Y1288330D01*
X22095090Y1455600D01*
X22160290Y1467100D01*
X22158950Y1474660D01*
X22158700Y1476100D01*
X22153370Y1497120D01*
X22144530Y1531960D01*
X22079510Y1788360D01*
X21892930Y1974940D01*
X20900310Y1736590D01*
X20889790Y1734730D01*
X20892400Y1719950D01*
X20803340Y1704250D01*
X20790240Y1778550D01*
X20879300Y1794250D01*
X20881900Y1779480D01*
X20891050Y1781090D01*
X21894170Y2021970D01*
X21894220Y2021980D01*
G02X21895170Y2022210I5822J-21969D01*
G01X21895220Y2022220D01*
X21907070Y2025060D01*
X21915680Y2016450D01*
X21915720Y2016410D01*
G02X21916070Y2016070I-15659J-16470D01*
G01X22120490Y1811640D01*
X22194960Y1517980D01*
X22203160Y1485640D01*
X22205040Y1474990D01*
X22270230Y1486480D01*
X22301110Y1311340D01*
X22275310Y1306790D01*
X22280830Y1275480D01*
X22283990Y1257550D01*
X22291830Y1212910D01*
X22303440Y1146760D01*
G37*
G36*
G01X12937340Y2425810D02*
X12945590Y2421050D01*
X13722720Y2013740D01*
Y1800290D01*
G02Y1799710I-22720J-290D01*
G01Y1795380D01*
X13721090Y1791540D01*
X13715850Y1779170D01*
X13697190Y1735160D01*
X13691510Y1725310D01*
X13748840Y1692210D01*
X13659920Y1538190D01*
X13637230Y1551290D01*
X13612220Y1507990D01*
X13555120Y1409250D01*
X13614450Y1375000D01*
X13525530Y1220980D01*
X13488810Y1242180D01*
X13405650Y1098140D01*
X13251630Y1187060D01*
X13340550Y1341080D01*
X13363240Y1327980D01*
X13388250Y1371280D01*
X13444360Y1468300D01*
X13411590Y1487220D01*
X13494310Y1630500D01*
X13504470Y1624630D01*
X13594820Y1781130D01*
X13652150Y1748030D01*
X13656450Y1755460D01*
X13667820Y1782300D01*
X13670050Y1787560D01*
X13677280Y1804620D01*
Y1986260D01*
X12923670Y2381230D01*
X12914620Y2386460D01*
X12903370Y2366970D01*
X12838030Y2404690D01*
X12883250Y2483010D01*
X12948590Y2445290D01*
X12937340Y2425810D01*
G37*
G36*
G01X30417720Y13882720D02*
Y13717280D01*
X30282280D01*
Y13780930D01*
X30182540D01*
G02Y13819070I-32540J19070D01*
G01X30282280D01*
Y13882720D01*
X30327280D01*
Y13912260D01*
X30304780D01*
Y13987720D01*
X30395220D01*
Y13912260D01*
X30372720D01*
Y13882720D01*
X30417720D01*
G37*
G36*
G01X31148160Y14629600D02*
G02X31254450Y14642290I61563J-64161D01*
G01X31427280Y14815120D01*
Y17540590D01*
X30677280Y18290590D01*
Y18920620D01*
G03X30659940Y18927810I-10160J2D01*
G01X30616330Y18884200D01*
X30082420D01*
X30081310Y18880620D01*
G02X29960400Y18825600I-84941J26300D01*
G01X29958530Y18826430D01*
X29599430Y18695860D01*
X29598530Y18694030D01*
G02X29554700Y18814580I-79799J39229D01*
G01X29556570Y18813750D01*
X29915670Y18944320D01*
X29916570Y18946150D01*
G02X30081310Y18933220I79798J-39230D01*
G01X30082420Y18929640D01*
X30597510D01*
X30677280Y19009410D01*
Y19409410D01*
X30865590Y19597720D01*
X30969890D01*
G02Y19552280I30110J-22720D01*
G01X30884410D01*
X30722720Y19390590D01*
Y18309410D01*
X31472720Y17559410D01*
Y14796300D01*
X31286580Y14610160D01*
G02Y14520720I-76850J-44720D01*
G01X31384580Y14422720D01*
X31509410D01*
X31722720Y14209410D01*
Y11540590D01*
X31509410Y11327280D01*
X30459410D01*
X30322720Y11190590D01*
Y10341710D01*
X30342810Y10321620D01*
G02X30467360Y10283950I44728J-76852D01*
G01X30468260Y10282110D01*
X30827270Y10151300D01*
X30829140Y10152130D01*
G02X30785220Y10031600I35907J-81351D01*
G01X30784320Y10033440D01*
X30425310Y10164250D01*
X30423440Y10163420D01*
G02X30310680Y10289490I-35906J81347D01*
G01X30277280Y10322890D01*
Y11209410D01*
X30440590Y11372720D01*
X31490590D01*
X31677280Y11559410D01*
Y14190590D01*
X31490590Y14377280D01*
X31365760D01*
X31254510Y14488530D01*
X31251200Y14486780D01*
G02X31148120Y14501330I-41464J78660D01*
G01X31146640Y14502740D01*
X30764540Y14502880D01*
X30763070Y14501460D01*
G02X30763110Y14629730I-61570J64154D01*
G01X30764590Y14628320D01*
X31146690Y14628180D01*
X31148160Y14629600D01*
G37*
G36*
G01X31526670Y14723330D02*
G02X31473330Y14776670I-26670J26670D01*
G01X31512270Y14815610D01*
Y14854780D01*
X31512260D01*
Y14945220D01*
X31512270D01*
Y15004780D01*
X31512260D01*
Y15095220D01*
X31512270D01*
Y15109860D01*
X31512260D01*
Y15195220D01*
X31512270D01*
Y15254780D01*
X31512260D01*
Y15345220D01*
X31512270D01*
Y15404780D01*
X31512260D01*
Y15495220D01*
X31512270D01*
Y15509860D01*
X31512260D01*
Y15595220D01*
X31587720D01*
Y15504780D01*
X31587710D01*
Y15490140D01*
X31587720D01*
Y15404780D01*
X31587710D01*
Y15345220D01*
X31587720D01*
Y15254780D01*
X31587710D01*
Y15195220D01*
X31587720D01*
Y15104780D01*
X31587710D01*
Y15090140D01*
X31587720D01*
Y15004780D01*
X31587710D01*
Y14945220D01*
X31587720D01*
Y14854780D01*
X31587710D01*
Y14784370D01*
X31526670Y14723330D01*
G37*
G36*
G01X32812320Y15064720D02*
X32814960Y15064220D01*
X32828610Y15077880D01*
X32862260D01*
Y15135580D01*
X32837890D01*
G02Y15173720I-32540J19070D01*
G01X32862260D01*
Y15195220D01*
X32937720D01*
Y15004780D01*
X32862260D01*
Y15039740D01*
X32853190D01*
G03X32843040Y15029170I1J-10159D01*
G02X32812320Y15064720I-37689J-1521D01*
G37*
G36*
G01Y15318720D02*
X32814960Y15318220D01*
X32828610Y15331880D01*
X32862260D01*
Y15389580D01*
X32837890D01*
G02Y15427720I-32540J19070D01*
G01X32862260D01*
Y15445220D01*
X32937720D01*
Y15254780D01*
X32862260D01*
Y15293740D01*
X32853190D01*
G03X32843040Y15283170I1J-10159D01*
G02X32812320Y15318720I-37689J-1521D01*
G37*
G36*
G01X32862260Y15516580D02*
X32837890D01*
G02Y15554720I-32540J19070D01*
G01X32862260D01*
Y15595220D01*
X32937720D01*
Y15504780D01*
X32862260D01*
Y15516580D01*
G37*
G36*
G01X31672750Y15004780D02*
X31612280D01*
Y15195220D01*
X31687740D01*
Y15191200D01*
X31693420D01*
X31694000Y15191340D01*
G02X31698920Y15117120I8746J-36693D01*
G03X31687740Y15107020I-1024J-10105D01*
G01Y15075280D01*
G03X31698920Y15065180I10156J5D01*
G02X31672750Y15004780I3828J-37528D01*
G37*
G36*
G01X31665850Y15400760D02*
X31665000Y15404780D01*
X31612280D01*
Y15595220D01*
X31687740D01*
Y15583280D01*
G03X31698920Y15573180I10156J5D01*
G02Y15498120I3820J-37530D01*
G03X31687740Y15488020I-1023J-10105D01*
G01Y15456280D01*
G03X31698920Y15446180I10156J5D01*
G02X31665850Y15400760I3822J-37532D01*
G37*
G36*
G01X32937720Y16095220D02*
Y16004780D01*
X32862260D01*
Y16024580D01*
X32837890D01*
G02Y16062720I-32540J19070D01*
G01X32862260D01*
Y16095220D01*
X32937720D01*
G37*
G36*
G01X5436190Y12597720D02*
X5436200Y12597710D01*
X5437690Y12596300D01*
X5819940D01*
G02X5821220Y12469300I62880J-62873D01*
G01X5821210Y12469310D01*
X5819720Y12470720D01*
X5437470D01*
G02X5291460Y12502030I-62879J62877D01*
G01X5290070Y12505680D01*
X5084440Y12484390D01*
X5083170Y12482030D01*
G02X5078780Y12524380I-33169J17964D01*
G01X5080520Y12522330D01*
X5286150Y12543620D01*
X5286760Y12547480D01*
G02X5436190Y12597720I87828J-13882D01*
G37*
G36*
G01X6450180Y8242800D02*
X6452050Y8241970D01*
X6811150Y8372540D01*
X6812050Y8374370D01*
G02X6855880Y8253820I79799J-39229D01*
G01X6854010Y8254650D01*
X6494910Y8124080D01*
X6494010Y8122250D01*
G02X6338210Y8115320I-79799J39230D01*
G01X6336180Y8118660D01*
X6047430Y8033740D01*
X6046600Y8031190D01*
G02X6034590Y8072030I-35881J11634D01*
G01X6036670Y8070330D01*
X6325420Y8155250D01*
X6325320Y8159150D01*
G02X6450180Y8242800I88890J2330D01*
G37*
G36*
G01X6102680Y9197530D02*
X6104550Y9196700D01*
X6463650Y9327270D01*
X6464550Y9329100D01*
G02X6616860Y9341330I79796J-39232D01*
G01X6619120Y9338150D01*
X6935420Y9456260D01*
X6936060Y9458860D01*
G02X6950950Y9418990I36620J-9039D01*
G01X6948760Y9420530D01*
X6632470Y9302420D01*
X6632850Y9298530D01*
G02X6508380Y9208550I-88498J-8660D01*
G01X6506510Y9209380D01*
X6147410Y9078810D01*
X6146510Y9076980D01*
G02X6102680Y9197530I-79799J39229D01*
G37*
G36*
G01X5842070Y9913580D02*
X5843940Y9912750D01*
X6203040Y10043320D01*
X6203940Y10045150D01*
G02X6356110Y10057580I79797J-39231D01*
G01X6358380Y10054400D01*
X6533970Y10120520D01*
X6534600Y10123130D01*
G02X6549600Y10083290I36641J-8948D01*
G01X6547400Y10084830D01*
X6371820Y10018710D01*
X6372210Y10014820D01*
G02X6247770Y9924600I-88472J-8900D01*
G01X6245900Y9925430D01*
X5886800Y9794860D01*
X5885900Y9793030D01*
G02X5842070Y9913580I-79799J39229D01*
G37*
G36*
G01X5928940Y9674890D02*
X5930810Y9674060D01*
X6289910Y9804630D01*
X6290810Y9806460D01*
G02X6444550Y9816620I79798J-39230D01*
G01X6666010Y9903230D01*
X6666620Y9905840D01*
Y9905850D01*
G02X6682120Y9866200I36751J-8488D01*
G01X6679900Y9867710D01*
X6458520Y9781130D01*
X6458960Y9777250D01*
G02X6334640Y9685910I-88352J-10020D01*
G01X6332770Y9686740D01*
X5973670Y9556170D01*
X5972770Y9554340D01*
G02X5928940Y9674890I-79799J39229D01*
G37*
G36*
G01X6015810Y9436210D02*
X6017680Y9435380D01*
X6376780Y9565950D01*
X6377680Y9567780D01*
G02X6528220Y9582430I79800J-39229D01*
G01X6530590Y9579320D01*
X6796810Y9689100D01*
X6797360Y9691720D01*
G02X6813580Y9652370I36903J-7807D01*
G01X6811340Y9653840D01*
X6545120Y9544060D01*
X6545630Y9540190D01*
G02X6421510Y9447230I-88153J-11640D01*
G01X6419640Y9448060D01*
X6060540Y9317490D01*
X6059640Y9315660D01*
G02X6015810Y9436210I-79799J39229D01*
G37*
G36*
G01X5581450Y10629620D02*
X5583320Y10628790D01*
X5942420Y10759360D01*
X5943320Y10761190D01*
G02X5987150Y10640640I79799J-39229D01*
G01X5985280Y10641470D01*
X5626180Y10510900D01*
X5625280Y10509070D01*
G02X5581450Y10629620I-79799J39229D01*
G37*
G36*
G01X5668320Y10390940D02*
X5670190Y10390110D01*
X6029290Y10520680D01*
X6030190Y10522510D01*
G02X6165430Y10552800I79799J-39230D01*
G01X6168480Y10550370D01*
X6246050Y10607850D01*
X6245950Y10610530D01*
G02X6271290Y10576330I37691J1439D01*
G01X6268760Y10577210D01*
X6191190Y10519720D01*
X6192630Y10516090D01*
G02X6074020Y10401960I-82644J-32810D01*
G01X6072150Y10402790D01*
X5713050Y10272220D01*
X5712150Y10270390D01*
G02X5668320Y10390940I-79799J39229D01*
G37*
G36*
G01X5755190Y10152260D02*
X5757060Y10151430D01*
X6116160Y10282000D01*
X6117060Y10283830D01*
G02X6270510Y10294430I79801J-39228D01*
G01X6272700Y10291190D01*
X6402670Y10336440D01*
X6403370Y10339030D01*
G02X6417370Y10298830I36409J-9858D01*
G01X6415210Y10300420D01*
X6285240Y10255170D01*
X6285530Y10251270D01*
G02X6160890Y10163280I-88670J-6670D01*
G01X6159020Y10164110D01*
X5799920Y10033540D01*
X5799020Y10031710D01*
G02X5755190Y10152260I-79799J39229D01*
G37*
G36*
G01X5436190Y12089720D02*
X5436200Y12089710D01*
X5437690Y12088300D01*
X5819940D01*
G02X5821220Y11961300I62880J-62873D01*
G01X5821210Y11961310D01*
X5819720Y11962720D01*
X5437470D01*
G02X5436190Y12089720I-62880J62873D01*
G37*
G36*
G01X5443000Y11828400D02*
G03X5460980Y11834890I7819J6489D01*
G01Y11899920D01*
X5638820D01*
Y11813620D01*
X5804550D01*
G02X5826960Y11702230I78269J-42203D01*
G03X5810420Y11694330I-6382J-7903D01*
G01Y11678180D01*
X5644980D01*
Y11722080D01*
X5460980D01*
Y11729500D01*
X5452970D01*
X5451510Y11726970D01*
G02X5443000Y11828400I-76918J44619D01*
G37*
G36*
G01X5436190Y12851720D02*
X5436200Y12851710D01*
X5437690Y12850300D01*
X5819940D01*
G02X5965060Y12821240I62879J-62877D01*
G01X5966480Y12817780D01*
X6021270Y12822720D01*
X6032280D01*
Y12882720D01*
X6167720D01*
Y12717280D01*
X6032280D01*
Y12777280D01*
X6023310D01*
X5970560Y12772520D01*
X5969780Y12768860D01*
G02X5821220Y12723300I-86959J18563D01*
G01X5821210Y12723310D01*
X5819720Y12724720D01*
X5437470D01*
G02X5436190Y12851720I-62880J62873D01*
G37*
G36*
G01Y12343720D02*
X5436200Y12343710D01*
X5437690Y12342300D01*
X5819940D01*
G02X5821220Y12215300I62880J-62873D01*
G01X5821210Y12215310D01*
X5819720Y12216720D01*
X5437470D01*
G02X5436190Y12343720I-62880J62873D01*
G37*
G36*
G01Y13613720D02*
X5436200Y13613710D01*
X5437690Y13612300D01*
X5819940D01*
G02X5968610Y13572810I62878J-62877D01*
G01X5969630Y13569070D01*
X6317460D01*
G02Y13530930I32540J-19070D01*
G01X5969890D01*
X5968900Y13527120D01*
G02X5821220Y13485300I-86077J22302D01*
G01X5821210Y13485310D01*
X5819720Y13486720D01*
X5437470D01*
G02X5436190Y13613720I-62880J62873D01*
G37*
G36*
G01Y13359720D02*
X5436200Y13359710D01*
X5437690Y13358300D01*
X5819940D01*
G02X5968540Y13319070I62879J-62877D01*
G01X6367460D01*
G02Y13280930I32540J-19070D01*
G01X5970550D01*
G02X5821220Y13231300I-87729J14493D01*
G01X5821210Y13231310D01*
X5819720Y13232720D01*
X5437470D01*
G02X5436190Y13359720I-62880J62873D01*
G37*
G36*
G01Y13105720D02*
X5436200Y13105710D01*
X5437690Y13104300D01*
X5819940D01*
G02X5967330Y13069070I62876J-62878D01*
G01X6417460D01*
G02Y13030930I32540J-19070D01*
G01X5971120D01*
G02X5821220Y12977300I-88297J10492D01*
G01X5821210Y12977310D01*
X5819720Y12978720D01*
X5437470D01*
G02X5436190Y13105720I-62880J62873D01*
G37*
G36*
G01Y14375720D02*
X5436200Y14375710D01*
X5437690Y14374300D01*
X5819940D01*
G02X5970920Y14323460I62877J-62877D01*
G01X5971520Y14319070D01*
X6167460D01*
G02Y14280930I32540J-19070D01*
G01X5966350D01*
G02X5821220Y14247300I-83527J30492D01*
G01X5821210Y14247310D01*
X5819720Y14248720D01*
X5437470D01*
G02X5436190Y14375720I-62880J62873D01*
G37*
G36*
G01Y14121720D02*
X5436200Y14121710D01*
X5437690Y14120300D01*
X5819940D01*
G02X5970320Y14073250I62878J-62877D01*
G01X5971080Y14069070D01*
X6217460D01*
G02Y14030930I32540J-19070D01*
G01X5967700D01*
G02X5821220Y13993300I-84879J26493D01*
G01X5821210Y13993310D01*
X5819720Y13994720D01*
X5437470D01*
G02X5436190Y14121720I-62880J62873D01*
G37*
G36*
G01Y13867720D02*
X5436200Y13867710D01*
X5437690Y13866300D01*
X5819940D01*
G02X5969550Y13823030I62877J-62877D01*
G01X5970450Y13819070D01*
X6267460D01*
G02Y13780930I32540J-19070D01*
G01X5968930D01*
X5967830Y13777340D01*
G02X5821220Y13739300I-85007J26082D01*
G01X5821210Y13739310D01*
X5819720Y13740720D01*
X5437470D01*
G02X5436190Y13867720I-62880J62873D01*
G37*
G36*
G01Y15137720D02*
X5436200Y15137710D01*
X5437690Y15136300D01*
X5819940D01*
G02X5821220Y15009300I62880J-62873D01*
G01X5821210Y15009310D01*
X5819720Y15010720D01*
X5437470D01*
G02X5436190Y15137720I-62880J62873D01*
G37*
G36*
G01Y14883720D02*
X5436200Y14883710D01*
X5437690Y14882300D01*
X5819940D01*
G02X5965050Y14853260I62878J-62877D01*
G03X5981630Y14849940I9396J3863D01*
G01X6000760Y14869070D01*
X6067770D01*
G02Y14830930I32540J-19070D01*
G01X6016560D01*
X5985980Y14800350D01*
X5969760D01*
X5968760Y14796580D01*
G02X5821220Y14755300I-85936J22842D01*
G01X5821210Y14755310D01*
X5819720Y14756720D01*
X5437470D01*
G02X5436190Y14883720I-62880J62873D01*
G37*
G36*
G01Y14629720D02*
X5436200Y14629710D01*
X5437690Y14628300D01*
X5819940D01*
G02X5971360Y14573680I62881J-62876D01*
G01X5971790Y14569070D01*
X6117460D01*
G02Y14530930I32540J-19070D01*
G01X5964780D01*
G02X5821220Y14501300I-81957J34492D01*
G01X5821210Y14501310D01*
X5819720Y14502720D01*
X5437470D01*
G02X5436190Y14629720I-62880J62873D01*
G37*
G36*
G01X6706610Y7528490D02*
G03X6719790Y7541450I3632J9488D01*
G01X6704560Y7583290D01*
X6871680Y7644110D01*
X6894630Y7581040D01*
X7045370Y7635900D01*
X7045740Y7634890D01*
G03X7065250Y7636390I9545J3479D01*
G02X7096770Y7549790I87221J-17290D01*
G03X7080860Y7538390I-6364J-7920D01*
G01X7091690Y7508620D01*
X6936230Y7452040D01*
X6927770Y7475270D01*
X6757820Y7413410D01*
X6756960Y7411350D01*
G02X6706610Y7528490I-82128J34090D01*
G37*
G36*
G01X6769000Y8492500D02*
X6767130Y8493330D01*
X6408030Y8362760D01*
X6407130Y8360930D01*
G02X6363300Y8481480I-79799J39229D01*
G01X6365170Y8480650D01*
X6724270Y8611220D01*
X6725170Y8613050D01*
G02X6886160Y8610070I79796J-39231D01*
G01X6887690Y8606650D01*
X6927700Y8611460D01*
X6934620Y8613980D01*
X6914100Y8670370D01*
X7041380Y8716690D01*
X7097960Y8561230D01*
X6970680Y8514910D01*
X6950160Y8571280D01*
X6938320Y8566980D01*
X6893120Y8561540D01*
X6892440Y8557850D01*
G02X6769000Y8492500I-87473J15970D01*
G37*
G36*
G01X6737590Y7930290D02*
X6739370Y7932290D01*
X6738370Y7936360D01*
G03X6731700Y7939910I-4931J-1224D01*
G01X6581780Y7885400D01*
X6580880Y7883570D01*
G02X6537050Y8004120I-79799J39229D01*
G01X6538920Y8003290D01*
X6898020Y8133860D01*
X6898920Y8135690D01*
G02X6942750Y8015140I79799J-39229D01*
G01X6940880Y8015970D01*
X6773060Y7954950D01*
X6776430Y7941330D01*
G02X6737590Y7930290I-10708J-36169D01*
G37*
G36*
G01X6623920Y7765440D02*
X6625790Y7764610D01*
X6984890Y7895180D01*
X6985790Y7897010D01*
G02X7029620Y7776460I79799J-39229D01*
G01X7027750Y7777290D01*
X6668650Y7646720D01*
X6667750Y7644890D01*
G02X6623920Y7765440I-79799J39229D01*
G37*
G36*
G01X6189560Y8958850D02*
X6191430Y8958020D01*
X6550530Y9088590D01*
X6551430Y9090420D01*
G02X6706230Y9098960I79800J-39229D01*
G01X7070290Y9232250D01*
X7070950Y9234850D01*
G02X7085580Y9194880I36560J-9281D01*
G01X7083400Y9196440D01*
X6719430Y9063170D01*
X6719780Y9059280D01*
G02X6595260Y8969870I-88551J-8090D01*
G01X6593390Y8970700D01*
X6234290Y8840130D01*
X6233390Y8838300D01*
G02X6189560Y8958850I-79799J39229D01*
G37*
G36*
G01X6276430Y8720170D02*
X6278300Y8719340D01*
X6637400Y8849910D01*
X6638300Y8851740D01*
G02X6791310Y8862980I79800J-39229D01*
G01X6793530Y8859760D01*
X7205540Y9007230D01*
X7206220Y9009820D01*
G02X7220560Y8969750I36492J-9542D01*
G01X7218390Y8971320D01*
X6806380Y8823850D01*
X6806710Y8819960D01*
G02X6682130Y8731190I-88608J-7450D01*
G01X6680260Y8732020D01*
X6321160Y8601450D01*
X6320260Y8599620D01*
G02X6276430Y8720170I-79799J39229D01*
G37*
G36*
G01X7586330Y6053920D02*
X7588370Y6053780D01*
X7881160Y6299290D01*
X7881380Y6301320D01*
G02X8007700Y6372170I88399J-9574D01*
G01X8011240Y6370510D01*
X8104730Y6481380D01*
X8104010Y6483960D01*
G02X8136560Y6456520I36347J10090D01*
G01X8133890Y6456790D01*
X8040400Y6345920D01*
X8042640Y6342720D01*
G02X7961770Y6203190I-72861J-50971D01*
G01X7668960Y5957660D01*
X7668740Y5955630D01*
G02X7586330Y6053920I-88403J9573D01*
G37*
G36*
G01X7637250Y6592180D02*
X7635210Y6592320D01*
X7342420Y6346810D01*
X7342200Y6344780D01*
G02X7259790Y6443070I-88403J9573D01*
G01X7261830Y6442930D01*
X7554620Y6688440D01*
X7554840Y6690470D01*
G02X7637250Y6592180I88403J-9573D01*
G37*
G36*
G01X7423060Y6248490D02*
X7425100Y6248350D01*
X7717890Y6493860D01*
X7718110Y6495890D01*
G02X7853650Y6561720I88404J-9568D01*
G01X7856960Y6559650D01*
X7923720Y6622120D01*
X7923310Y6624770D01*
G02X7952400Y6593690I37280J5740D01*
G01X7949780Y6594270D01*
X7883020Y6531800D01*
X7884870Y6528360D01*
G02X7800520Y6397600I-78357J-42040D01*
G01X7798480Y6397740D01*
X7505690Y6152230D01*
X7505470Y6150200D01*
G02X7423060Y6248490I-88403J9573D01*
G37*
G36*
G01X8239400Y5275620D02*
X8241440Y5275480D01*
X8534230Y5520990D01*
X8534450Y5523020D01*
G02X8662520Y5593030I88402J-9570D01*
G01X8666020Y5591290D01*
X8895010Y5851170D01*
X8894350Y5853770D01*
G02X8926290Y5825620I36561J9288D01*
G01X8923630Y5825950D01*
X8694630Y5566070D01*
X8696800Y5562820D01*
G02X8614840Y5424890I-73953J-49372D01*
G01X8322030Y5179360D01*
X8321810Y5177330D01*
G02X8239400Y5275620I-88403J9573D01*
G37*
G36*
G01X7749600Y5859340D02*
X7751640Y5859200D01*
X8044430Y6104710D01*
X8044650Y6106740D01*
G02X8178960Y6173320I88402J-9571D01*
G01X8311900Y6313550D01*
X8311340Y6316180D01*
G02X8342230Y6286890I36871J7951D01*
G01X8339580Y6287310D01*
X8206700Y6147140D01*
X8208750Y6143820D01*
G02X8125040Y6008610I-75700J-46651D01*
G01X7832230Y5763080D01*
X7832010Y5761050D01*
G02X7749600Y5859340I-88403J9573D01*
G37*
G36*
G01X7912860Y5664770D02*
X7914900Y5664630D01*
X8207690Y5910140D01*
X8207910Y5912170D01*
G02X8336490Y5981920I88401J-9572D01*
G01X8339980Y5980160D01*
X8503050Y6162840D01*
X8502410Y6165450D01*
G02X8531580Y6137530I36618J9060D01*
G01X8368430Y5954760D01*
X8370580Y5951500D01*
G02X8290320Y5813880I-74268J-48901D01*
G01X8288280Y5814020D01*
X7995490Y5568510D01*
X7995270Y5566480D01*
G02X7912860Y5664770I-88403J9573D01*
G37*
G36*
G01X8076130Y5470190D02*
X8078170Y5470050D01*
X8370960Y5715560D01*
X8371180Y5717590D01*
G02X8500320Y5787060I88403J-9569D01*
G01X8503790Y5785270D01*
X8701770Y6003980D01*
X8701140Y6006590D01*
G02X8732700Y5978020I36679J8801D01*
G01X8730040Y5978380D01*
X8532060Y5759680D01*
X8534190Y5756400D01*
G02X8453590Y5619300I-74608J-48380D01*
G01X8451550Y5619440D01*
X8158760Y5373930D01*
X8158540Y5371900D01*
G02X8076130Y5470190I-88403J9573D01*
G37*
G36*
G01X8729200Y4691890D02*
X8731240Y4691750D01*
X9024030Y4937260D01*
X9024250Y4939290D01*
G02X9174220Y4993870I88401J-9573D01*
G01X9176920Y4991280D01*
X9200950Y5004580D01*
X9206910Y5009590D01*
X9168350Y5055550D01*
X9272110Y5142620D01*
X9378450Y5015890D01*
X9274690Y4928820D01*
X9236120Y4974780D01*
X9226790Y4966960D01*
X9198940Y4951530D01*
X9199700Y4947860D01*
G02X9104640Y4841160I-87050J-18141D01*
G01X8811830Y4595630D01*
X8811610Y4593600D01*
G02X8729200Y4691890I-88403J9573D01*
G37*
G36*
G01X9055740Y4302740D02*
X9057780Y4302600D01*
X9350570Y4548110D01*
X9350790Y4550140D01*
G02X9433200Y4451850I88403J-9573D01*
G01X9431160Y4451990D01*
X9138370Y4206480D01*
X9138150Y4204450D01*
G02X9055740Y4302740I-88403J9573D01*
G37*
G36*
G01X8894490Y4497160D02*
X9187300Y4742690D01*
X9187520Y4744720D01*
G02X9269930Y4646430I88403J-9573D01*
G01X9267890Y4646570D01*
X8975100Y4401060D01*
X8974880Y4399030D01*
G02X8831630Y4338610I-88403J9569D01*
G01X8828560Y4341020D01*
X8538010Y4121870D01*
X8538140Y4119190D01*
G02X8512510Y4153180I-37682J-1756D01*
G01X8515050Y4152320D01*
X8805590Y4371470D01*
X8804120Y4375090D01*
G02X8894490Y4497160I82362J33512D01*
G37*
G36*
G01X8402670Y5081040D02*
X8404710Y5080900D01*
X8697500Y5326410D01*
X8697720Y5328440D01*
G02X8828890Y5396830I88403J-9569D01*
G01X8832310Y5394950D01*
X9104400Y5680330D01*
X9103840Y5682950D01*
G02X9134640Y5653560I36897J7834D01*
G01X9131990Y5653990D01*
X8859910Y5368620D01*
X8861950Y5365290D01*
G02X8778110Y5230310I-75836J-46424D01*
G01X8485300Y4984780D01*
X8485080Y4982750D01*
G02X8402670Y5081040I-88403J9573D01*
G37*
G36*
G01X8565940Y4886470D02*
X8567980Y4886330D01*
X8860770Y5131840D01*
X8860990Y5133870D01*
G02X8991610Y5202560I88403J-9569D01*
G01X8995050Y5200700D01*
X9299900Y5524930D01*
X9299320Y5527550D01*
G02X9330330Y5498390I36840J8109D01*
G01X9327680Y5498800D01*
X9022840Y5174580D01*
X9024900Y5171260D01*
G02X8943400Y5035580I-75509J-46961D01*
G01X8941360Y5035720D01*
X8648570Y4790210D01*
X8648350Y4788180D01*
G02X8565940Y4886470I-88403J9573D01*
G37*
G36*
G01X9462860Y3845190D02*
G02X9411340Y3906590I-86567J-20323D01*
G03X9423120Y3922460I3998J9339D01*
G01X9368610Y3987430D01*
X9504840Y4101740D01*
X9562710Y4032770D01*
X9679240Y4130550D01*
X9678630Y4133520D01*
G02X9760800Y4062640I87098J17902D01*
G03X9752460Y4045960I-560J-10145D01*
G01X9767620Y4027890D01*
X9640890Y3921550D01*
X9610260Y3958050D01*
X9482920Y3851200D01*
X9480530Y3854040D01*
G03X9462860Y3845190I-7781J-6530D01*
G37*
G36*
G01X9219010Y4108160D02*
X9221050Y4108020D01*
X9513840Y4353530D01*
X9514060Y4355560D01*
G02X9596470Y4257270I88403J-9573D01*
G01X9594430Y4257410D01*
X9301640Y4011900D01*
X9301420Y4009870D01*
G02X9219010Y4108160I-88403J9573D01*
G37*
G36*
G01X10572510Y3352240D02*
X10570540Y3351680D01*
X10379380Y3020840D01*
X10379870Y3018850D01*
G02X10268800Y3083030I-86350J-21238D01*
G01X10270770Y3083590D01*
X10461930Y3414430D01*
X10461440Y3416420D01*
G02X10572510Y3352240I86350J21238D01*
G37*
G36*
G01X10488770Y2956030D02*
X10490740Y2956590D01*
X10681900Y3287430D01*
X10681410Y3289420D01*
G02X10782180Y3398400I86347J21237D01*
G01X10786040Y3397770D01*
X10823760Y3481630D01*
X10822360Y3483920D01*
G02X10861180Y3466460I32184J19672D01*
G01X10858540Y3465990D01*
X10820820Y3382120D01*
X10823850Y3379660D01*
G02X10792480Y3225240I-56088J-69002D01*
G01X10790510Y3224680D01*
X10599350Y2893840D01*
X10599840Y2891850D01*
G02X10488770Y2956030I-86350J-21238D01*
G37*
G36*
G01X10708740Y2829030D02*
X10710710Y2829590D01*
X10901870Y3160430D01*
X10901380Y3162420D01*
G02X11005360Y3270810I86347J21236D01*
G01X11009190Y3270040D01*
X11071910Y3396800D01*
X11070590Y3399140D01*
G02X11108750Y3380260I32889J18470D01*
G01X11106090Y3379890D01*
X11043380Y3253130D01*
X11046310Y3250550D01*
G02X11012450Y3098240I-58581J-66896D01*
G01X11010480Y3097680D01*
X10819320Y2766840D01*
X10819810Y2764850D01*
G02X10708740Y2829030I-86350J-21238D01*
G37*
G36*
G01X10928710Y2702030D02*
X10930680Y2702590D01*
X11121840Y3033430D01*
X11121350Y3035420D01*
G02X11226610Y3143550I86348J21242D01*
G01X11230430Y3142710D01*
X11317750Y3312870D01*
X11316480Y3315230D01*
Y3315240D01*
G02X11354350Y3295800I33155J17980D01*
G01X11351690Y3295460D01*
X11264360Y3125300D01*
X11267260Y3122680D01*
G02X11232420Y2971240I-59561J-66025D01*
G01X11230450Y2970680D01*
X11039290Y2639840D01*
X11039780Y2637850D01*
G02X10928710Y2702030I-86350J-21238D01*
G37*
G36*
G01X11148680Y2575030D02*
X11150650Y2575590D01*
X11341810Y2906430D01*
X11341320Y2908420D01*
G02X11446800Y3016500I86348J21241D01*
G01X11450610Y3015660D01*
X11561310Y3230040D01*
X11560040Y3232400D01*
G02X11597860Y3212870I33200J17908D01*
G01X11595200Y3212540D01*
X11484500Y2998170D01*
X11487400Y2995540D01*
G02X11452390Y2844240I-59726J-65880D01*
G01X11450420Y2843680D01*
X11259260Y2512840D01*
X11259750Y2510850D01*
G02X11148680Y2575030I-86350J-21238D01*
G37*
G36*
G01X11368650Y2448030D02*
X11370620Y2448590D01*
X11561780Y2779430D01*
X11561290Y2781420D01*
G02X11666650Y2889520I86347J21237D01*
G01X11670470Y2888690D01*
X11803820Y3147740D01*
X11802540Y3150100D01*
G02X11840390Y3130620I33176J17951D01*
G01X11837730Y3130290D01*
X11704380Y2871230D01*
X11707280Y2868610D01*
G02X11672360Y2717240I-59640J-65954D01*
G01X11670390Y2716680D01*
X11479230Y2385840D01*
X11479720Y2383850D01*
G02X11368650Y2448030I-86350J-21238D01*
G37*
G36*
G01X11588620Y2321030D02*
X11590590Y2321590D01*
X11781750Y2652430D01*
X11781260Y2654420D01*
G02X11886730Y2762500I86348J21239D01*
G01X11890550Y2761660D01*
X12047160Y3065010D01*
X12045890Y3067370D01*
G02X12083720Y3047840I33201J17908D01*
G01X12081050Y3047520D01*
X11924440Y2744160D01*
X11927330Y2741540D01*
G02X11892330Y2590240I-59719J-65883D01*
G01X11890360Y2589680D01*
X11699200Y2258840D01*
X11699690Y2256850D01*
G02X11588620Y2321030I-86350J-21238D01*
G37*
G36*
G01X11808590Y2194030D02*
X11810560Y2194590D01*
X12001720Y2525430D01*
X12001230Y2527420D01*
G02X12108840Y2635000I86347J21239D01*
G01X12112630Y2634070D01*
X12300530Y2976980D01*
X12299320Y2979370D01*
G02X12334030Y2958740I33635J17076D01*
G01X12146080Y2615740D01*
X12148910Y2613040D01*
G02X12112300Y2463240I-61331J-64385D01*
G01X12110330Y2462680D01*
X11919170Y2131840D01*
X11919660Y2129850D01*
G02X11808590Y2194030I-86350J-21238D01*
G37*
G36*
G01X12028560Y2067030D02*
X12030530Y2067590D01*
X12221690Y2398430D01*
X12221200Y2400420D01*
G02X12325470Y2508760I86348J21242D01*
G01X12329300Y2507970D01*
X12526580Y2903410D01*
X12525270Y2905750D01*
G02X12563360Y2886750I32947J18370D01*
G01X12560710Y2886380D01*
X12363430Y2490940D01*
X12366360Y2488350D01*
G02X12332270Y2336240I-58810J-66695D01*
G01X12330300Y2335680D01*
X12139140Y2004840D01*
X12139630Y2002850D01*
G02X12028560Y2067030I-86350J-21238D01*
G37*
G36*
G01X12908440Y1559030D02*
X12910410Y1559590D01*
X13101570Y1890430D01*
X13101080Y1892420D01*
G02X13212150Y1828240I86350J21238D01*
G01X13210180Y1827680D01*
X13019020Y1496840D01*
X13019510Y1494850D01*
G02X12908440Y1559030I-86350J-21238D01*
G37*
G36*
G01X12468500Y1813030D02*
X12470470Y1813590D01*
X12661630Y2144430D01*
X12661140Y2146420D01*
G02X12772210Y2082240I86350J21238D01*
G01X12770240Y2081680D01*
X12579080Y1750840D01*
X12579570Y1748850D01*
G02X12473260Y1640960I-86347J-21239D01*
G01X12469450Y1641840D01*
X12294680Y1311190D01*
X12295930Y1308820D01*
G02X12258300Y1328710I-33369J-17590D01*
G01X12260960Y1329010D01*
X12435730Y1659660D01*
X12432860Y1662310D01*
G02X12468500Y1813030I60357J65301D01*
G37*
G36*
G01X12615540Y2307250D02*
G02X12552240Y2209240I-88024J-12596D01*
G01X12550270Y2208680D01*
X12359110Y1877840D01*
X12359600Y1875850D01*
G02X12248530Y1940030I-86350J-21238D01*
G01X12250500Y1940590D01*
X12441660Y2271430D01*
X12441170Y2273420D01*
G02X12494410Y2377190I86348J21241D01*
G03X12495710Y2395410I-3786J9427D01*
G01X12494500Y2396110D01*
X12562220Y2513410D01*
X12705500Y2430690D01*
X12637780Y2313390D01*
X12630680Y2317480D01*
G03X12615540Y2307250I-5082J-8797D01*
G37*
G36*
G01X12688470Y1686030D02*
X12690440Y1686590D01*
X12881600Y2017430D01*
X12881110Y2019420D01*
G02X12992180Y1955240I86350J21238D01*
G01X12990210Y1954680D01*
X12799050Y1623840D01*
X12799540Y1621850D01*
G02X12688470Y1686030I-86350J-21238D01*
G37*
G36*
G01X13126750Y1431530D02*
G03X13128810Y1450030I-3017J9701D01*
G01X13085550Y1475000D01*
X13174470Y1629020D01*
X13240510Y1590890D01*
X13321110Y1730500D01*
X13330060Y1725330D01*
G03X13336640Y1732810I2541J4399D01*
G02X13414430Y1698020I70758J53851D01*
G03X13410150Y1679090I798J-10129D01*
G01X13438410Y1662780D01*
X13355690Y1519500D01*
X13326370Y1536430D01*
X13235770Y1379510D01*
X13236590Y1377280D01*
G02X13126750Y1431530I-83464J-30668D01*
G37*
G36*
G01X14438850Y1311620D02*
X14437200Y1310410D01*
X14370730Y934130D01*
X14371870Y932430D01*
G02X14245550Y954760I-73880J-49480D01*
G01X14247200Y955970D01*
X14313670Y1332250D01*
X14312530Y1333950D01*
G02X14438850Y1311620I73880J49480D01*
G37*
G36*
G01X15128340Y1339620D02*
X15132230Y1340000D01*
X15169510Y1565020D01*
X15167570Y1566880D01*
G02X15209570Y1559920I26091J27240D01*
G01X15207140Y1558790D01*
X15169850Y1333770D01*
X15173410Y1332160D01*
G02X15189270Y1179300I-36580J-81048D01*
G01X15187620Y1178090D01*
X15121150Y801810D01*
X15122290Y800110D01*
G02X14995970Y822440I-73880J-49480D01*
G01X14997620Y823650D01*
X15064090Y1199930D01*
X15062950Y1201630D01*
G02X15128340Y1339620I73881J49478D01*
G37*
G36*
G01X14628680Y1427900D02*
X14645020Y1555290D01*
X14643020Y1557070D01*
G02X14685240Y1551650I25075J28179D01*
G01X14682850Y1550430D01*
X14666520Y1423140D01*
X14670140Y1421660D01*
G02X14688990Y1267520I-33591J-82330D01*
G01X14687340Y1266310D01*
X14620870Y890030D01*
X14622010Y888330D01*
G02X14495690Y910660I-73880J-49480D01*
G01X14497340Y911870D01*
X14563810Y1288150D01*
X14562670Y1289850D01*
G02X14628680Y1427900I73881J49480D01*
G37*
G36*
G01X14879500Y1383850D02*
X14883390Y1384170D01*
X14915080Y1559400D01*
X14913170Y1561280D01*
G02X14955060Y1553710I26483J26861D01*
G01X14952610Y1552610D01*
X14920930Y1377380D01*
X14924470Y1375720D01*
G02X14939130Y1223410I-37779J-80497D01*
G01X14937480Y1222200D01*
X14871010Y845920D01*
X14872150Y844220D01*
G02X14745830Y866550I-73880J-49480D01*
G01X14747480Y867760D01*
X14813950Y1244040D01*
X14812810Y1245740D01*
G02X14879500Y1383850I73881J49481D01*
G37*
G36*
G01X15381840Y1295780D02*
X15385740Y1296010D01*
X15441590Y1568560D01*
X15439730Y1570490D01*
G02X15478980Y1561010I27105J26230D01*
G01X15423100Y1288350D01*
X15426600Y1286610D01*
G02X15439410Y1135200I-39630J-79600D01*
G01X15437760Y1133990D01*
X15371290Y757710D01*
X15372430Y756010D01*
G02X15246110Y778340I-73880J-49480D01*
G01X15247760Y779550D01*
X15314230Y1155830D01*
X15313090Y1157530D01*
G02X15381840Y1295780I73881J49479D01*
G37*
G36*
G01X15630760Y1251590D02*
X15678100Y1576530D01*
X15676130Y1578340D01*
G02X15718250Y1572210I25545J27752D01*
G01X15715840Y1571030D01*
X15668510Y1246180D01*
X15672110Y1244640D01*
G02X15689550Y1091090I-35001J-81741D01*
G01X15687900Y1089880D01*
X15621430Y713600D01*
X15622570Y711900D01*
G02X15496250Y734230I-73880J-49480D01*
G01X15497900Y735440D01*
X15564370Y1111720D01*
X15563230Y1113420D01*
G02X15630760Y1251590I73881J49479D01*
G37*
G36*
G01X15876060Y1207000D02*
X15879930Y1207490D01*
X15930350Y1582620D01*
X15928360Y1584410D01*
G02X15968160Y1577640I25244J28029D01*
G01X15917730Y1202420D01*
X15921340Y1200920D01*
G02X15939690Y1046980I-34089J-82127D01*
G01X15938040Y1045770D01*
X15871570Y669490D01*
X15872710Y667790D01*
G02X15746390Y690120I-73880J-49480D01*
G01X15748040Y691330D01*
X15814510Y1067610D01*
X15813370Y1069310D01*
G02X15876060Y1207000I73881J49479D01*
G37*
G36*
G01X16129810Y1163290D02*
X16133700Y1163620D01*
X16207970Y1585190D01*
X16206050Y1587070D01*
G02X16245560Y1578680I26373J26969D01*
G01X16171260Y1157000D01*
X16174810Y1155360D01*
G02X16189840Y1002880I-37410J-80668D01*
G01X16188190Y1001670D01*
X16121720Y625390D01*
X16122860Y623690D01*
G02X15996540Y646020I-73880J-49480D01*
G01X15998190Y647230D01*
X16064660Y1023510D01*
X16063520Y1025210D01*
G02X16129810Y1163290I73881J49484D01*
G37*
G36*
G01X16379260Y1119110D02*
X16383150Y1119480D01*
X16462450Y1590940D01*
X16460520Y1592800D01*
G02X16500080Y1584730I26148J27182D01*
G01X16420770Y1113150D01*
X16424330Y1111540D01*
G02X16439980Y958770I-36788J-80955D01*
G01X16438330Y957560D01*
X16371860Y581280D01*
X16373000Y579580D01*
G02X16246680Y601910I-73880J-49480D01*
G01X16248330Y603120D01*
X16314800Y979400D01*
X16313660Y981100D01*
G02X16379260Y1119110I73881J49478D01*
G37*
G36*
G01X16690120Y914660D02*
X16688470Y913450D01*
X16622000Y537170D01*
X16623140Y535470D01*
G02X16496820Y557800I-73880J-49480D01*
G01X16498470Y559010D01*
X16564940Y935290D01*
X16563800Y936990D01*
G02X16577540Y1051970I73880J49482D01*
G01X16580300Y1054500D01*
X16556800Y1104080D01*
X16594990Y1130820D01*
X16612940Y1232580D01*
X16775860Y1203850D01*
X16752340Y1070460D01*
X16621070Y1093610D01*
X16614300Y1088860D01*
X16621360Y1073960D01*
X16625070Y1074490D01*
G02X16690120Y914660I12609J-88021D01*
G37*
G36*
G01X16719960Y-30060D02*
X16722340Y-28830D01*
X16769870Y357930D01*
X16766250Y359380D01*
G02X16746960Y513700I33150J82509D01*
G01X16748610Y514910D01*
X16815080Y891190D01*
X16813940Y892890D01*
G02X16940260Y870560I73880J49480D01*
G01X16938610Y869350D01*
X16872140Y493070D01*
X16873280Y491370D01*
G02X16811590Y353810I-73881J-49480D01*
G01X16807720Y353270D01*
X16760200Y-33480D01*
X16762210Y-35260D01*
G02X16719960Y-30060I-24929J-28309D01*
G37*
G36*
G01X17190400Y826450D02*
X17188750Y825240D01*
X17122280Y448960D01*
X17123420Y447260D01*
G02X16997100Y469590I-73880J-49480D01*
G01X16998750Y470800D01*
X17065220Y847080D01*
X17064080Y848780D01*
G02X17190400Y826450I73880J49480D01*
G37*
G36*
G01X17247240Y425480D02*
X17248890Y426690D01*
X17315360Y802970D01*
X17314220Y804670D01*
G02X17440540Y782340I73880J49480D01*
G01X17438890Y781130D01*
X17372420Y404850D01*
X17373560Y403150D01*
G02X17247240Y425480I-73880J-49480D01*
G37*
G36*
G01X17494130Y378890D02*
G03X17489540Y396820I-6358J7925D01*
G01X17434400Y406540D01*
X17465280Y581680D01*
X17544590Y567700D01*
X17576100Y746400D01*
X17574300Y748260D01*
G02X17684590Y734170I63939J61791D01*
G03X17688130Y715490I5298J-8671D01*
G01X17707580Y712060D01*
X17678850Y549140D01*
X17641290Y555760D01*
X17609520Y375530D01*
X17611470Y373650D01*
G02X17494130Y378890I-61649J-64080D01*
G37*
G36*
G01X18905940Y889330D02*
X18909420Y891100D01*
X18888130Y990500D01*
X18885650Y991520D01*
G02X18927270Y1000440I14284J34909D01*
G01X18925420Y998490D01*
X18946710Y899080D01*
X18950610Y898890D01*
G02X19020110Y760540I-4341J-88812D01*
G01X19018970Y758840D01*
X19085190Y382520D01*
X19086840Y381310D01*
G02X18960510Y359080I-52491J-71771D01*
G01X18961650Y360780D01*
X18895430Y737100D01*
X18893780Y738310D01*
G02X18905940Y889330I52491J71773D01*
G37*
G36*
G01X18710370Y314980D02*
X18711510Y316680D01*
X18645290Y693000D01*
X18643640Y694210D01*
G02X18769970Y716440I52491J71771D01*
G01X18768830Y714740D01*
X18835050Y338420D01*
X18836700Y337210D01*
G02X18710370Y314980I-52491J-71771D01*
G37*
G36*
G01X19659090Y1022980D02*
X19662630Y1024630D01*
X19618410Y1272230D01*
X19615960Y1273330D01*
G02X19657870Y1280820I15477J34399D01*
G01X19655950Y1278940D01*
X19700200Y1031250D01*
G02X19770530Y892860I-3511J-88850D01*
G01X19769390Y891160D01*
X19835610Y514840D01*
X19837260Y513630D01*
G02X19710930Y491400I-52491J-71771D01*
G01X19712070Y493100D01*
X19645850Y869420D01*
X19644200Y870630D01*
G02X19659090Y1022980I52491J71772D01*
G37*
G36*
G01X19404310Y976550D02*
X19407750Y978410D01*
X19360650Y1174950D01*
X19358140Y1175900D01*
G02X19399540Y1185810I13451J35240D01*
G01X19397740Y1183830D01*
X19444840Y987290D01*
X19448750Y987190D01*
G02X19520390Y848760I-2201J-88891D01*
G01X19519250Y847060D01*
X19585470Y470740D01*
X19587120Y469530D01*
G02X19460790Y447300I-52491J-71771D01*
G01X19461930Y449000D01*
X19395710Y825320D01*
X19394060Y826530D01*
G02X19404310Y976550I52490J71774D01*
G37*
G36*
G01X19163300Y936720D02*
X19138350Y1086260D01*
X19135920Y1087390D01*
G02X19177910Y1094400I15867J34220D01*
G01X19175970Y1092540D01*
X19200910Y943080D01*
X19204800Y942710D01*
G02X19270250Y804650I-8391J-88522D01*
G01X19269110Y802950D01*
X19335330Y426630D01*
X19336980Y425420D01*
G02X19210650Y403190I-52491J-71771D01*
G01X19211790Y404890D01*
X19145570Y781210D01*
X19143920Y782420D01*
G02X19163300Y936720I52490J71774D01*
G37*
G36*
G01X20407500Y1154330D02*
X20411000Y1156070D01*
X20330430Y1549610D01*
X20327960Y1550650D01*
G02X20369660Y1559190I14602J34780D01*
G01X20367790Y1557260D01*
X20448360Y1163720D01*
X20452260Y1163490D01*
G02X20520960Y1025180I-5141J-88770D01*
G01X20519820Y1023480D01*
X20586040Y647160D01*
X20587690Y645950D01*
G02X20461360Y623720I-52491J-71771D01*
G01X20462500Y625420D01*
X20396280Y1001740D01*
X20394630Y1002950D01*
G02X20407500Y1154330I52490J71774D01*
G37*
G36*
G01X20156690Y1109890D02*
X20160170Y1111660D01*
X20086710Y1455820D01*
G02X20125880Y1465620I11852J35810D01*
G01X20124030Y1463680D01*
X20197470Y1119620D01*
X20201370Y1119430D01*
G02X20270810Y981080I-4401J-88810D01*
G01X20269670Y979380D01*
X20335890Y603060D01*
X20337540Y601850D01*
G02X20211210Y579620I-52491J-71771D01*
G01X20212350Y581320D01*
X20146130Y957640D01*
X20144480Y958850D01*
G02X20156690Y1109890I52492J71770D01*
G37*
G36*
G01X19906500Y1065760D02*
X19909980Y1067530D01*
X19846800Y1362630D01*
X19844320Y1363650D01*
G02X19885940Y1372560I14290J34909D01*
G01X19884090Y1370620D01*
X19947280Y1075510D01*
X19951180Y1075320D01*
G02X20020670Y936970I-4351J-88812D01*
G01X20019530Y935270D01*
X20085750Y558950D01*
X20087400Y557740D01*
G02X19961070Y535510I-52491J-71771D01*
G01X19962210Y537210D01*
X19895990Y913530D01*
X19894340Y914740D01*
G02X19906500Y1065760I52491J71773D01*
G37*
G36*
G01X21021240Y1113400D02*
X21020100Y1111700D01*
X21086320Y735380D01*
X21087970Y734170D01*
G02X20961640Y711940I-52491J-71771D01*
G01X20962780Y713640D01*
X20896560Y1089960D01*
X20894910Y1091170D01*
G02X20908970Y1243130I52491J71774D01*
G01X20912350Y1244750D01*
X20908420Y1271360D01*
X20906740Y1280880D01*
X20847660Y1270460D01*
X20824140Y1403850D01*
X20987060Y1432580D01*
X21010580Y1299190D01*
X20951490Y1288770D01*
X20953280Y1278620D01*
X20957300Y1251390D01*
X20961000Y1250810D01*
G02X21021240Y1113400I-13601J-87872D01*
G37*
G36*
G01X20655910Y1197550D02*
X20659370Y1199370D01*
X20558990Y1640300D01*
X20556500Y1641280D01*
G02X20598000Y1650730I13836J35090D01*
G01X20596180Y1648760D01*
X20696560Y1207830D01*
X20700460Y1207690D01*
G02X20771100Y1069290I-3201J-88861D01*
G01X20769960Y1067590D01*
X20836180Y691270D01*
X20837830Y690060D01*
G02X20711500Y667830I-52491J-71771D01*
G01X20712640Y669530D01*
X20646420Y1045850D01*
X20644770Y1047060D01*
G02X20655910Y1197550I52491J71772D01*
G37*
G36*
G01X21328110Y628390D02*
X21324680Y626520D01*
X21427020Y205250D01*
X21429530Y204300D01*
G02X21388170Y194250I-13326J-35289D01*
G01X21389960Y196240D01*
X21287610Y617520D01*
X21283710Y617600D01*
G02X21211780Y756040I1911J88899D01*
G01X21212920Y757740D01*
X21146700Y1134060D01*
X21145050Y1135270D01*
G02X21271380Y1157500I52491J71771D01*
G01X21270240Y1155800D01*
X21336460Y779480D01*
X21338110Y778270D01*
G02X21328110Y628390I-52492J-71771D01*
G37*
G36*
G01X21461920Y800150D02*
X21463060Y801850D01*
X21396840Y1178170D01*
X21395190Y1179380D01*
G02X21521520Y1201610I52491J71771D01*
G01X21520380Y1199910D01*
X21586600Y823590D01*
X21588250Y822380D01*
G02X21569320Y668260I-52490J-71775D01*
G01X21565700Y666790D01*
X21569570Y636550D01*
X21571960Y635330D01*
G02X21529730Y629930I-17165J-33589D01*
G01X21531730Y631710D01*
X21527870Y661950D01*
X21524000Y662470D01*
G02X21461920Y800150I11761J88139D01*
G37*
G36*
G01X21712060Y844260D02*
X21713200Y845960D01*
X21646980Y1222280D01*
X21645330Y1223490D01*
G02X21771660Y1245720I52491J71771D01*
G01X21770520Y1244020D01*
X21836740Y867700D01*
X21838390Y866490D01*
G02X21712060Y844260I-52491J-71771D01*
G37*
G36*
G01X21962320Y888540D02*
G03X21952130Y904230I-8423J5684D01*
G01X21890280Y893320D01*
X21859400Y1068460D01*
X21950060Y1084440D01*
X21920010Y1254900D01*
X21917270Y1255910D01*
G02X22020280Y1287630I30691J83452D01*
G03X22030310Y1271710I8264J-5913D01*
G01X22053850Y1275860D01*
X22082580Y1112940D01*
X22033660Y1104310D01*
X22065680Y922700D01*
X22068350Y921660D01*
G02X21962320Y888540I-32311J-82841D01*
G37*
G36*
G01X23344730Y1367830D02*
X23345220Y1369820D01*
X23154280Y1700790D01*
X23152320Y1701360D01*
G02X23135850Y1865530I24780J85397D01*
G01X23139310Y1867350D01*
X23118160Y1960830D01*
X23115660Y1961820D01*
G02X23157180Y1971210I13891J35070D01*
G01X23155360Y1969250D01*
X23176510Y1875770D01*
X23180410Y1875620D01*
G02X23263430Y1765460I-3311J-88858D01*
G01X23262940Y1763470D01*
X23453880Y1432500D01*
X23455840Y1431930D01*
G02X23344730Y1367830I-24778J-85398D01*
G37*
G36*
G01X23124760Y1240830D02*
X23125250Y1242820D01*
X22934310Y1573790D01*
X22932350Y1574360D01*
G02X23043460Y1638460I24778J85398D01*
G01X23042970Y1636470D01*
X23233910Y1305500D01*
X23235870Y1304930D01*
G02X23124760Y1240830I-24778J-85398D01*
G37*
G36*
G01X23784670Y1621830D02*
X23785160Y1623820D01*
X23594220Y1954790D01*
X23592260Y1955360D01*
G02X23555450Y2104900I24778J85400D01*
G01X23558270Y2107610D01*
X23468070Y2270630D01*
G02X23502700Y2291390I931J37710D01*
G01X23501490Y2288990D01*
X23591680Y2125980D01*
G02X23703370Y2019460I25360J-85224D01*
G01X23702880Y2017470D01*
X23893820Y1686500D01*
X23895780Y1685930D01*
G02X23784670Y1621830I-24778J-85398D01*
G37*
G36*
G01X23564700Y1494830D02*
X23565190Y1496820D01*
X23374250Y1827790D01*
X23372290Y1828360D01*
G02X23329890Y1972010I24781J85397D01*
G01X23332450Y1974960D01*
X23255560Y2088160D01*
X23252880Y2088170D01*
G02X23288090Y2112090I106J37718D01*
G01X23287110Y2109590D01*
X23364000Y1996390D01*
X23367690Y1997680D01*
G02X23483400Y1892460I29380J-83924D01*
G01X23482910Y1890470D01*
X23673850Y1559500D01*
X23675810Y1558930D01*
G02X23564700Y1494830I-24778J-85398D01*
G37*
G36*
G01X24224610Y1875830D02*
X24225100Y1877820D01*
X24034160Y2208790D01*
X24032200Y2209360D01*
G02X23995380Y2358890I24778J85400D01*
G01X23998200Y2361600D01*
X23859610Y2612050D01*
X23856940Y2612300D01*
G02X23894190Y2632910I3550J37551D01*
G01X23892990Y2630510D01*
X24031610Y2379980D01*
G02X24143310Y2273460I25370J-85222D01*
G01X24142820Y2271470D01*
X24333760Y1940500D01*
X24335720Y1939930D01*
G02X24224610Y1875830I-24778J-85398D01*
G37*
G36*
G01X24004640Y1748830D02*
X24005130Y1750820D01*
X23814190Y2081790D01*
X23812230Y2082360D01*
G02X23772060Y2228490I24780J85398D01*
G01X23774730Y2231350D01*
X23649310Y2431830D01*
G02X23682780Y2454430I-1095J37706D01*
G01X23681710Y2451970D01*
X23807070Y2251580D01*
X23810800Y2252730D01*
G02X23923340Y2146460I26209J-84969D01*
G01X23922850Y2144470D01*
X24113790Y1813500D01*
X24115750Y1812930D01*
G02X24004640Y1748830I-24778J-85398D01*
G37*
G36*
G01X24664550Y2129830D02*
X24665040Y2131820D01*
X24474100Y2462790D01*
X24472140Y2463360D01*
G02X24434640Y2612230I24778J85400D01*
G01X24437430Y2614960D01*
X24246860Y2950840D01*
X24244190Y2951060D01*
G02X24281210Y2972070I3139J37589D01*
G01X24280030Y2969660D01*
X24470640Y2633710D01*
G02X24583250Y2527460I26279J-84948D01*
G01X24582760Y2525470D01*
X24773700Y2194500D01*
X24775660Y2193930D01*
G02X24664550Y2129830I-24778J-85398D01*
G37*
G36*
G01X24444580Y2002830D02*
X24445070Y2004820D01*
X24254130Y2335790D01*
X24252170Y2336360D01*
G02X24212540Y2483060I24781J85397D01*
G01X24215230Y2485890D01*
X24039360Y2772560D01*
X24036680Y2772700D01*
G02X24072970Y2794960I1864J37673D01*
G01X24071870Y2792510D01*
X24247740Y2505840D01*
X24251480Y2506960D01*
G02X24363280Y2400460I25468J-85196D01*
G01X24362790Y2398470D01*
X24553730Y2067500D01*
X24555690Y2066930D01*
G02X24444580Y2002830I-24778J-85398D01*
G37*
G36*
G01X24884520Y2256830D02*
X24885010Y2258820D01*
X24694070Y2589790D01*
X24692110Y2590360D01*
G02X24653350Y2737960I24781J85397D01*
G01X24656080Y2740750D01*
X24433220Y3115730D01*
X24430540Y3115900D01*
G02X24467140Y3137640I2397J37644D01*
G01X24466010Y3135210D01*
X24688870Y2760240D01*
X24692630Y2761300D01*
G02X24803220Y2654460I24260J-85544D01*
G01X24802730Y2652470D01*
X24993670Y2321500D01*
X24995630Y2320930D01*
G02X24884520Y2256830I-24778J-85398D01*
G37*
G36*
G01X25104490Y2383830D02*
X25104980Y2385820D01*
X24914040Y2716790D01*
X24912080Y2717360D01*
G02X24877340Y2868820I24780J85398D01*
G01X24868900Y2885220D01*
X24864180Y2893390D01*
X24812220Y2863390D01*
X24744500Y2980690D01*
X24887780Y3063410D01*
X24955500Y2946110D01*
X24903530Y2916110D01*
X24908800Y2906980D01*
X24917710Y2889670D01*
X24921400Y2890320D01*
G02X25023190Y2781460I15460J-87563D01*
G01X25022700Y2779470D01*
X25213640Y2448500D01*
X25215600Y2447930D01*
G02X25104490Y2383830I-24778J-85398D01*
G37*
G36*
G01X25764400Y2764830D02*
X25764890Y2766820D01*
X25573950Y3097790D01*
X25571990Y3098360D01*
G02X25683100Y3162460I24778J85398D01*
G01X25682610Y3160470D01*
X25873550Y2829500D01*
X25875510Y2828930D01*
G02X25764400Y2764830I-24778J-85398D01*
G37*
G36*
G01X25544430Y2637830D02*
X25544920Y2639820D01*
X25353980Y2970790D01*
X25352020Y2971360D01*
G02X25463130Y3035460I24778J85398D01*
G01X25462640Y3033470D01*
X25653580Y2702500D01*
X25655540Y2701930D01*
G02X25687470Y2548040I-24779J-85399D01*
G01X25723330Y2478380D01*
X25725990Y2478050D01*
G02X25688140Y2458570I-4674J-37431D01*
G01X25689420Y2460930D01*
X25653600Y2530500D01*
X25649780Y2529670D01*
G02X25544430Y2637830I-19020J86861D01*
G37*
G36*
G01X25324460Y2510830D02*
X25324950Y2512820D01*
X25134010Y2843790D01*
X25132050Y2844360D01*
G02X25243160Y2908460I24778J85398D01*
G01X25242670Y2906470D01*
X25433610Y2575500D01*
X25435570Y2574930D01*
G02X25324460Y2510830I-24778J-85398D01*
G37*
G36*
G01X25983060Y2885580D02*
G03X25967970Y2896100I-10013J1719D01*
G01X25924470Y2870980D01*
X25835550Y3025000D01*
X25918990Y3073170D01*
X25838390Y3212780D01*
X25842890Y3215370D01*
G03X25839080Y3224690I-2535J4403D01*
G01X25839070D01*
G02X25894000Y3266740I-22329J86071D01*
G03X25907910Y3252910I8827J-5033D01*
G01X25955690Y3280500D01*
X26038410Y3137220D01*
X25991690Y3110250D01*
X26078970Y2959070D01*
G02X25983060Y2885580I-8270J-88537D01*
G37*
G36*
G01X27278620Y2306160D02*
G03X27269360Y2295460I882J-10120D01*
G01X27271150Y2264100D01*
X27273450Y2262710D01*
G02X27233080Y2261810I-19475J-32301D01*
G01X27231290Y2293090D01*
X27215610Y2313670D01*
G03X27197870Y2310660I-8080J-6158D01*
G02X27126080Y2333850I-35861J11700D01*
G01X27126900Y2336400D01*
X26054470Y3713230D01*
X26051800Y3713060D01*
G02X26085380Y3739220I-2350J37649D01*
G01X26084560Y3736670D01*
X27157050Y2359770D01*
G02X27160250Y2360040I4769J-37421D01*
G03X27167860Y2376340I-475J10148D01*
G01X26053650Y3838690D01*
G02X26079990Y3897770I-4553J37441D01*
G03X26096290Y3897300I8325J5827D01*
G02X26161600Y3861800I29587J-23394D01*
G01X26160740Y3859260D01*
X27270970Y2381300D01*
X27273660Y2381420D01*
G02X27275100Y2381460I1767J-37678D01*
G03X27279170Y2389540I-28J5079D01*
G01X26128320Y3963070D01*
G02X26159110Y3985590I-3816J37526D01*
G01X27367670Y2333140D01*
X27378350Y2287940D01*
X27380850Y2286980D01*
G02X27339430Y2277190I-13547J-35201D01*
G01X27341230Y2279170D01*
X27332330Y2316860D01*
X27325350Y2326400D01*
G03X27308280Y2325360I-8201J-5996D01*
G02X27278620Y2306160I-32941J18378D01*
G37*
G36*
G01X27119530Y3815250D02*
X27119310Y3817280D01*
X26826660Y4063010D01*
G02X26749760Y4207700I-7937J88562D01*
G01X26752220Y4210730D01*
X26700500Y4282000D01*
G02X26732340Y4306840I-3678J37541D01*
G01X26731430Y4304310D01*
X26783090Y4233140D01*
X26786730Y4234540D01*
G02X26907130Y4161080I31989J-82968D01*
G01X26907350Y4159050D01*
X27200000Y3913320D01*
G02X27119530Y3815250I7939J-88563D01*
G37*
G36*
G01X26743860Y3966500D02*
X26744080Y3964470D01*
X27036730Y3718740D01*
G02X26956260Y3620670I7939J-88563D01*
G01X26956040Y3622700D01*
X26663390Y3868430D01*
G02X26743860Y3966500I-7939J88563D01*
G37*
G36*
G01X27446070Y4204400D02*
X27445850Y4206430D01*
X27153200Y4452160D01*
G02X27066040Y4581100I-7939J88563D01*
G01X27067810Y4584580D01*
X26932390Y4706070D01*
X26929790Y4705430D01*
G02X26958210Y4737120I-8974J36636D01*
G01X26957860Y4734460D01*
X27093280Y4612970D01*
X27096550Y4615110D01*
G02X27233670Y4550230I48711J-74391D01*
G01X27233890Y4548200D01*
X27526540Y4302470D01*
G02X27446070Y4204400I7939J-88563D01*
G37*
G36*
G01X27282800Y4009820D02*
X27282580Y4011850D01*
X26989930Y4257580D01*
G02X26902890Y4386760I-7940J88563D01*
G01X26801250Y4470750D01*
X26798670Y4470010D01*
G02X26825450Y4500220I-10452J36240D01*
G01X26927190Y4416160D01*
G02X27070400Y4355650I54802J-70023D01*
G01X27070620Y4353620D01*
X27363270Y4107890D01*
G02X27282800Y4009820I7939J-88563D01*
G37*
G36*
G01X27772600Y4593550D02*
X27772380Y4595580D01*
X27479730Y4841310D01*
G02X27394720Y4974220I-7940J88563D01*
G01X27396670Y4977610D01*
X27195760Y5177160D01*
X27193130Y5176650D01*
G02X27223120Y5206860I-7106J37045D01*
G01X27222640Y5204220D01*
X27423550Y5004670D01*
X27426920Y5006640D01*
G02X27560200Y4939380I44870J-76769D01*
G01X27560420Y4937350D01*
X27853070Y4691620D01*
G02X27772600Y4593550I7939J-88563D01*
G37*
G36*
G01X27609330Y4398970D02*
X27609110Y4401000D01*
X27316460Y4646730D01*
G02X27230340Y4777650I-7939J88563D01*
G01X27232200Y4781080D01*
X27063110Y4940620D01*
G02X27089290Y4968360I-10576J36205D01*
G01X27258430Y4808760D01*
G02X27396930Y4744800I50090J-73470D01*
G01X27397150Y4742770D01*
X27689800Y4497040D01*
G02X27609330Y4398970I7939J-88563D01*
G37*
G36*
G01X27935870Y4788120D02*
X27935650Y4790150D01*
X27643000Y5035880D01*
G02X27555450Y5164060I-7943J88564D01*
G01X27557190Y5167560D01*
X27307950Y5386880D01*
G02X27333560Y5418100I-11827J35816D01*
G01X27333230Y5415430D01*
X27582390Y5196190D01*
X27585640Y5198360D01*
G02X27723470Y5133950I49421J-73921D01*
G01X27723690Y5131920D01*
X28016340Y4886190D01*
G02X27935870Y4788120I7939J-88563D01*
G37*
G36*
G01X28099140Y4982700D02*
X28098920Y4984730D01*
X27806270Y5230460D01*
G02X27717060Y5355100I-7940J88563D01*
G01X27718640Y5358670D01*
X27421140Y5598060D01*
X27418570Y5597290D01*
G02X27445260Y5630450I-10915J36106D01*
G01X27445050Y5627780D01*
X27742620Y5388320D01*
G02X27886740Y5328530I55711J-69302D01*
G01X27886960Y5326500D01*
X28179610Y5080770D01*
G02X28099140Y4982700I7939J-88563D01*
G37*
G36*
G01X28425670Y5371850D02*
X28425450Y5373880D01*
X28132800Y5619610D01*
G02X28043610Y5744290I-7938J88562D01*
G01X28045130Y5747720D01*
X28021350Y5768510D01*
X28013880Y5774780D01*
X27975310Y5728820D01*
X27871550Y5815890D01*
X27977890Y5942620D01*
X28081650Y5855550D01*
X28043090Y5809590D01*
X28050910Y5803030D01*
X28075040Y5781920D01*
X28078230Y5783880D01*
G02X28213270Y5717680I46631J-75711D01*
G01X28213490Y5715650D01*
X28506140Y5469920D01*
G02X28425670Y5371850I7939J-88563D01*
G37*
G36*
G01X28262410Y5177270D02*
X28262190Y5179300D01*
X27969540Y5425030D01*
G02X27883490Y5556100I-7945J88566D01*
G01X27557210Y5839120D01*
X27554620Y5838440D01*
G02X27582510Y5870590I-9579J36482D01*
G01X27582200Y5867930D01*
X27908420Y5584960D01*
X27911650Y5587160D01*
G02X28050010Y5523100I49948J-73568D01*
G01X28050230Y5521070D01*
X28342880Y5275340D01*
G02X28262410Y5177270I7939J-88563D01*
G37*
G36*
G01X28915480Y5955580D02*
X28915260Y5957610D01*
X28622610Y6203340D01*
G02X28703080Y6301410I-7939J88563D01*
G01X28703300Y6299380D01*
X28995950Y6053650D01*
G02X28915480Y5955580I7939J-88563D01*
G37*
G36*
G01X28752210Y5761000D02*
X28751990Y5763030D01*
X28459340Y6008760D01*
G02X28539810Y6106830I-7939J88563D01*
G01X28540030Y6104800D01*
X28832680Y5859070D01*
G02X28752210Y5761000I7939J-88563D01*
G37*
G36*
G01X28588940Y5566420D02*
X28588720Y5568450D01*
X28296070Y5814180D01*
G02X28376540Y5912250I-7939J88563D01*
G01X28376760Y5910220D01*
X28669410Y5664490D01*
G02X28762130Y5549100I7943J-88564D01*
G01X28760950Y5545380D01*
X28861240Y5481600D01*
X28863710Y5482660D01*
G02X28840870Y5449360I14857J-34673D01*
G01X28740480Y5513190D01*
X28737610Y5510540D01*
G02X28588940Y5566420I-60259J65389D01*
G37*
G36*
G01X29078620Y6151410D02*
G03X29060660Y6156930I-10116J-937D01*
G01X29032210Y6122370D01*
X28894910Y6235390D01*
X28947900Y6299770D01*
X28828820Y6399690D01*
X28835670Y6407860D01*
X28828930Y6413520D01*
X28825780Y6411520D01*
G02X28865850Y6473130I-47841J74950D01*
G03X28883680Y6465070I10045J-1530D01*
G01X28915890Y6503450D01*
X29042620Y6397110D01*
X29016330Y6365780D01*
X29145230Y6259670D01*
X29137450Y6250220D01*
X29143380Y6245340D01*
G02X29078620Y6151410I23777J-85683D01*
G37*
G36*
G01X29829620Y7406100D02*
X29828720Y7407940D01*
X29469680Y7538760D01*
G02X29343110Y7615190I-37745J80509D01*
G01X29286140Y7624980D01*
X29284270Y7623050D01*
G02X29291480Y7665000I-27089J26250D01*
G01X29292600Y7662560D01*
X29349570Y7652770D01*
G02X29511760Y7658450I82368J-33500D01*
G01X29512660Y7656610D01*
X29871700Y7525790D01*
G02X29829620Y7406100I37747J-80513D01*
G37*
G36*
G01X30090240Y8122150D02*
X30089340Y8123990D01*
X29730300Y8254810D01*
G02X29604340Y8346540I-37750J80510D01*
G01X29604830Y8350420D01*
X29387750Y8438750D01*
X29385510Y8437270D01*
G02X29401560Y8476700I-20818J31455D01*
G01X29402130Y8474080D01*
X29619210Y8385750D01*
X29621560Y8388870D01*
G02X29772380Y8374500I70993J-53547D01*
G01X29773280Y8372660D01*
X30132320Y8241840D01*
G02X30090240Y8122150I37747J-80513D01*
G37*
G36*
G01X30003370Y7883460D02*
X30002470Y7885300D01*
X29643430Y8016120D01*
G02X29517130Y8104700I-37748J80509D01*
G01X29341270Y8160470D01*
X29339160Y8158820D01*
G02X29352030Y8199400I-23248J29704D01*
G01X29352800Y8196830D01*
X29528570Y8141090D01*
X29530670Y8144380D01*
G02X29685510Y8135810I75014J-47748D01*
G01X29686410Y8133970D01*
X30045450Y8003150D01*
G02X30003370Y7883460I37747J-80513D01*
G37*
G36*
G01X29916490Y7644780D02*
X29915590Y7646620D01*
X29556550Y7777440D01*
G02X29431490Y7874800I-37751J80510D01*
G01X29432230Y7878640D01*
X29310310Y7937600D01*
X29307980Y7936270D01*
G02X29326520Y7974590I-18760J32722D01*
G01X29326920Y7971940D01*
X29448920Y7912930D01*
G02X29598630Y7897130I69886J-54980D01*
G01X29599530Y7895290D01*
X29958570Y7764470D01*
G02X29916490Y7644780I37747J-80513D01*
G37*
G36*
G01X30263980Y8599510D02*
X30263080Y8601350D01*
X29904040Y8732170D01*
G02X29778160Y8824550I-37754J80510D01*
G01X29464220Y8939160D01*
X29462040Y8937600D01*
G02X29476640Y8977590I-21950J30674D01*
G01X29477300Y8974990D01*
X29791250Y8860380D01*
G02X29946120Y8851860I75045J-47699D01*
G01X29947020Y8850020D01*
X30306060Y8719200D01*
G02X30263980Y8599510I37747J-80513D01*
G37*
G36*
G01X30177110Y8360830D02*
X30176210Y8362670D01*
X29817170Y8493490D01*
G02X29690960Y8583010I-37748J80509D01*
G01X29691360Y8586900D01*
X29425550Y8687380D01*
X29423350Y8685840D01*
G02X29438940Y8723090I-21597J30926D01*
G01X29704840Y8622580D01*
X29707110Y8625760D01*
G02X29859250Y8613180I72311J-51756D01*
G01X29860150Y8611340D01*
X30219190Y8480520D01*
G02X30177110Y8360830I37747J-80513D01*
G37*
G36*
G01X30350860Y8838190D02*
X30349960Y8840030D01*
X29990920Y8970850D01*
G02X29864510Y9058140I-37749J80509D01*
G01X29864810Y9062030D01*
X29502030Y9188790D01*
G02X29514610Y9224790I-24430J28735D01*
G01X29877390Y9098040D01*
X29879580Y9101270D01*
G02X30033000Y9090540I73595J-49909D01*
G01X30033900Y9088700D01*
X30392940Y8957880D01*
G02X30350860Y8838190I37747J-80513D01*
G37*
G36*
G01X29700180Y7688540D02*
X29700820Y7685930D01*
X30039580Y7558380D01*
X31468590D01*
X31985430Y7041540D01*
Y6845050D01*
G02X31947290I-19070J-32540D01*
G01Y7025740D01*
X31452790Y7520240D01*
X30032640D01*
X29687380Y7650240D01*
X29685180Y7648700D01*
G02X29700180Y7688540I-21641J30892D01*
G37*
G36*
G01X31952710Y6736100D02*
X31955340Y6735550D01*
X32030930Y6808130D01*
Y7042100D01*
X31292100Y7780930D01*
X30017230D01*
X29818940Y7868900D01*
X29816660Y7867490D01*
G02X29834310Y7903800I-19835J32087D01*
G01X30025310Y7819070D01*
X31307900D01*
X32069070Y7057900D01*
Y6791870D01*
X32052280Y6775750D01*
G03X32059100Y6758260I7032J-7332D01*
G02X32065290Y6757620I-771J-37711D01*
G01X32067930Y6757120D01*
X32130930Y6820130D01*
Y7042100D01*
X31192100Y7980930D01*
X30237760D01*
X29948330Y8071770D01*
X29946220Y8070110D01*
G02X29958970Y8110730I-23337J29636D01*
G01X29959750Y8108160D01*
X30243600Y8019070D01*
X31207900D01*
X32169070Y7057900D01*
Y6804330D01*
X32094890Y6730160D01*
X32095390Y6727520D01*
G02X32020610Y6721300I-37069J-6975D01*
G03X32003410Y6728840I-10160J211D01*
G01X31981750Y6708040D01*
X31982190Y6705390D01*
G02X31952710Y6736100I-37203J-6209D01*
G37*
G36*
G01X30293620Y9806590D02*
X30294520Y9804750D01*
X30653560Y9673930D01*
G02X30779990Y9586900I37749J-80509D01*
G01X30779700Y9583010D01*
X30961400Y9520130D01*
X30963550Y9521730D01*
G02X30949630Y9481500I22470J-30298D01*
G01X30948920Y9484090D01*
X30767230Y9546970D01*
X30765050Y9543730D01*
G02X30611480Y9554240I-73744J49688D01*
G01X30610580Y9556080D01*
X30251540Y9686900D01*
G02X30293620Y9806590I-37747J80513D01*
G37*
G36*
G01X30698350Y9792920D02*
X30697450Y9794760D01*
X30338410Y9925580D01*
G02X30380490Y10045270I-37747J80513D01*
G01X30381390Y10043430D01*
X30740430Y9912610D01*
G02X30698350Y9792920I37747J-80513D01*
G37*
G36*
G01X31907900Y10980930D02*
X31384110D01*
G03X31380060Y10972780I-1J-5081D01*
G02X31382540Y10969070I-30062J-22779D01*
G01X31942100D01*
X32242100Y11269070D01*
X32692100D01*
X32784010Y11360980D01*
Y11541450D01*
G03X32766260Y11548190I-10158J-8D01*
G02X32718990Y11605790I-28195J25058D01*
G01Y11636700D01*
G03X32701240Y11643440I-10158J-8D01*
G02X32653970Y11701040I-28195J25058D01*
G01Y11780940D01*
X32692100Y11819070D01*
X32907900D01*
X32969070Y11757900D01*
Y10392100D01*
X32857900Y10280930D01*
X31235580D01*
X31165240Y10210600D01*
X31165740Y10207960D01*
G02X31135640Y10238060I-37070J-6970D01*
G01X31138280Y10237560D01*
X31219780Y10319070D01*
X32842100D01*
X32930930Y10407900D01*
Y10632570D01*
G03X32911050Y10635520I-10160J-5D01*
G02Y10875520I-394890J120000D01*
G03X32930930Y10878470I9720J2955D01*
G01Y11742100D01*
X32892100Y11780930D01*
X32707900D01*
X32692110Y11765140D01*
Y11701040D01*
G02X32709060Y11679700I-19066J-32546D01*
G01X32710170Y11676130D01*
X32718990D01*
Y11695200D01*
X32768820Y11745030D01*
X32881940D01*
X32919070Y11707900D01*
Y11342100D01*
X32757900Y11180930D01*
X32307910D01*
X31957910Y10830930D01*
X30579970D01*
G03X30576510Y10811220I12J-10161D01*
G01X30675250Y10775290D01*
X30666290Y10750660D01*
X30713270Y10733560D01*
X30811450Y10697750D01*
X30828320Y10744110D01*
X30995440Y10683290D01*
X30987490Y10661450D01*
X31152770Y10601300D01*
X31091950Y10434180D01*
X30924830Y10495000D01*
X30932780Y10516840D01*
X30772230Y10575270D01*
X30763770Y10552040D01*
X30608310Y10608620D01*
X30608880Y10610190D01*
X30447310Y10668990D01*
X30489630Y10785270D01*
G03X30472900Y10795930I-9546J3477D01*
G01X30400750Y10723780D01*
Y10600630D01*
G02X30419290Y10570960I-19069J-32543D01*
G03X30434030Y10562670I10132J766D01*
G02X30556460Y10517720I40381J-79221D01*
G03X30575380Y10518160I9374J3914D01*
G01X30586230Y10547960D01*
X30741690Y10491380D01*
X30720120Y10432110D01*
X30887750Y10371090D01*
X30890040Y10373310D01*
G02X30867940Y10280270I61891J-63846D01*
G03X30848800Y10280400I-9593J-3342D01*
G01X30821680Y10205890D01*
X30654560Y10266710D01*
X30690630Y10365820D01*
X30538110Y10421330D01*
X30535830Y10419150D01*
G02X30391840Y10516450I-61420J64299D01*
G03X30382250Y10530370I-9435J3763D01*
G02X30362610Y10600630I-569J37716D01*
G01Y10739580D01*
X30492100Y10869070D01*
X31942110D01*
X32292110Y11219070D01*
X32742100D01*
X32880930Y11357900D01*
Y11692100D01*
X32866140Y11706890D01*
X32841750D01*
G03X32833550Y11690740I4J-10159D01*
G02X32822150Y11635960I-30469J-22235D01*
G01Y11345180D01*
X32707900Y11230930D01*
X32257900D01*
X31957900Y10930930D01*
X31382540D01*
G02X31316010Y10966360I-32540J19077D01*
G03X31306860Y10980930I-9151J4411D01*
G01X31282540D01*
G02X31216010Y11016360I-32540J19077D01*
G03X31206860Y11030930I-9151J4411D01*
G01X31182540D01*
G02X31116010Y11066360I-32540J19077D01*
G03X31106860Y11080930I-9151J4411D01*
G01X31082540D01*
G02Y11119070I-32540J19070D01*
G01X31356860D01*
G03X31366010Y11133640I-1J10159D01*
G02Y11166360I33990J16360D01*
G03X31356860Y11180930I-9151J4411D01*
G01X31332540D01*
G02Y11219070I-32540J19070D01*
G01X31592100D01*
X31780930Y11407900D01*
Y11607900D01*
X31942100Y11769070D01*
X32445200D01*
X32481770Y11732500D01*
Y11636070D01*
X32473910Y11628210D01*
G03X32480430Y11610890I7185J-7183D01*
G02X32499240Y11542110I-2472J-37638D01*
G01X32497030Y11540600D01*
Y11536260D01*
G03X32505700Y11532670I5080J4D01*
G01X32530930Y11557900D01*
Y11592100D01*
X32523920Y11599110D01*
Y11635960D01*
G02X32562060I19070J32540D01*
G01Y11614910D01*
X32569070Y11607900D01*
Y11599430D01*
X32578170Y11596320D01*
G02X32627080Y11540710I29843J-23066D01*
G01Y11350110D01*
X32557900Y11280930D01*
X32207900D01*
X31907900Y10980930D01*
G37*
G36*
G01X30383190Y12817910D02*
X30615280Y12809740D01*
X30616420Y12813480D01*
G02X30763100Y12851740I85076J-25862D01*
G01X30763110Y12851730D01*
X30764600Y12850320D01*
X31146850D01*
G02X31148130Y12723320I62880J-62873D01*
G01X31148120Y12723330D01*
X31146630Y12724740D01*
X30764380D01*
G02X30614030Y12771620I-62878J62877D01*
G01X30381850Y12779790D01*
G02X30383190Y12817910I-31851J20203D01*
G37*
G36*
G01X30432250Y12569560D02*
X30433640Y12567270D01*
X30615720Y12557380D01*
X30616930Y12561090D01*
G02X30763100Y12597740I84568J-27472D01*
G01X30763110Y12597730D01*
X30764600Y12596320D01*
X31146850D01*
G02X31148130Y12469320I62880J-62873D01*
G01X31148120Y12469330D01*
X31146630Y12470740D01*
X30764380D01*
G02X30614450Y12515470I-62879J62877D01*
G01X30613650Y12519290D01*
X30431460Y12529200D01*
G02X30432250Y12569560I-31461J20804D01*
G37*
G36*
G01X30281350Y13320980D02*
X30282840Y13318750D01*
X30614750Y13315530D01*
X30615790Y13319300D01*
G02X30763100Y13359740I85707J-23682D01*
G01X30763110Y13359730D01*
X30764600Y13358320D01*
X31146850D01*
G02X31148130Y13231320I62880J-62873D01*
G01X31148120Y13231330D01*
X31146630Y13232740D01*
X30764380D01*
G02X30615350Y13273610I-62876J62878D01*
G01X30614380Y13277390D01*
X30282460Y13280610D01*
X30280920Y13278410D01*
G02X30281350Y13320980I-30921J21600D01*
G37*
G36*
G01X30331580Y13070630D02*
X30333050Y13068380D01*
X30614980Y13062500D01*
X30616060Y13066250D01*
G02X30763100Y13105740I85438J-24632D01*
G01X30763110Y13105730D01*
X30764600Y13104320D01*
X31146850D01*
G02X31148130Y12977320I62880J-62873D01*
G01X31148120Y12977330D01*
X31146630Y12978740D01*
X30764380D01*
G02X30615110Y13020570I-62876J62878D01*
G01X30614180Y13024370D01*
X30332140Y13030250D01*
G02X30331580Y13070630I-32139J19748D01*
G37*
G36*
G01X30763100Y12089740D02*
X30763110Y12089730D01*
X30764600Y12088320D01*
X31146850D01*
G02X31148130Y11961320I62880J-62873D01*
G01X31148120Y11961330D01*
X31146630Y11962740D01*
X30764380D01*
G02X30617750Y11995750I-62875J62878D01*
G01X30534690Y11985190D01*
G02X30528210Y12025040I-34690J14811D01*
G01X30529990Y12023040D01*
X30612850Y12033570D01*
X30613370Y12037440D01*
G02X30763100Y12089740I88129J-11823D01*
G37*
G36*
G01Y11835740D02*
X30763110Y11835730D01*
X30764600Y11834320D01*
X31146850D01*
G02X31148130Y11707320I62880J-62873D01*
G01X31148120Y11707330D01*
X31146630Y11708740D01*
X30764380D01*
G02X30619650Y11736860I-62880J62877D01*
G01X30618120Y11740460D01*
X30585020Y11735730D01*
X30583840Y11733330D01*
G02X30579520Y11773470I-33840J16661D01*
G01X30612830Y11778230D01*
G02X30763100Y11835740I88671J-6613D01*
G37*
G36*
G01Y11581740D02*
X30763110Y11581730D01*
X30764600Y11580320D01*
X31146850D01*
G02X31148130Y11453320I62880J-62873D01*
G01X31148120Y11453330D01*
X31146630Y11454740D01*
X30764380D01*
G02X30763100Y11581740I-62880J62873D01*
G37*
G36*
G01X30483980Y12316380D02*
X30616390Y12305650D01*
X30617690Y12309330D01*
G02X30763100Y12343740I83807J-29712D01*
G01X30763110Y12343730D01*
X30764600Y12342320D01*
X31146850D01*
G02X31148130Y12215320I62880J-62873D01*
G01X31148120Y12215330D01*
X31146630Y12216740D01*
X30764380D01*
G02X30614000Y12263790I-62878J62877D01*
G01X30613310Y12267630D01*
X30480890Y12278360D01*
G02X30483980Y12316380I-30890J21646D01*
G37*
G36*
G01X30763100Y14375740D02*
X30763110Y14375730D01*
X30764600Y14374320D01*
X31146850D01*
G02X31148130Y14247320I62880J-62873D01*
G01X31148120Y14247330D01*
X31146630Y14248740D01*
X30764380D01*
G02X30763100Y14375740I-62880J62873D01*
G37*
G36*
G01Y14121740D02*
X30763110Y14121730D01*
X30764600Y14120320D01*
X31146850D01*
G02X31296140Y14078400I62875J-62878D01*
G01X31297060Y14074600D01*
X31517770Y14069780D01*
X31519330Y14071960D01*
G02X31518400Y14029400I30669J-21960D01*
G01X31516930Y14031650D01*
X31296240Y14036470D01*
X31295150Y14032720D01*
G02X31148130Y13993320I-85415J24721D01*
G01X31148120Y13993330D01*
X31146630Y13994740D01*
X30764380D01*
G02X30763100Y14121740I-62880J62873D01*
G37*
G36*
G01Y13867740D02*
X30763110Y13867730D01*
X30764600Y13866320D01*
X31146850D01*
G02X31148130Y13739320I62880J-62873D01*
G01X31148120Y13739330D01*
X31146630Y13740740D01*
X30764380D01*
G02X30635430Y13744110I-62876J62879D01*
G03X30617720Y13737310I-7548J-6803D01*
G01Y13717280D01*
X30482280D01*
Y13882720D01*
X30585600D01*
X30621270Y13918390D01*
X30657670Y13881080D01*
X30661010Y13882780D01*
G02X30763100Y13867740I40491J-79162D01*
G37*
G36*
G01X30773850Y14871310D02*
G03X30792280Y14877210I8270J5903D01*
G01Y14917720D01*
X30957720D01*
Y14873820D01*
X31139380D01*
G02X31155300Y14749130I70351J-54379D01*
G03X31138920Y14741100I-6219J-8035D01*
G01Y14695980D01*
X30961080D01*
Y14782280D01*
X30782200D01*
G02X30773850Y14871310I-80700J37338D01*
G37*
G36*
G01X29479260Y19047170D02*
G03X29494260Y19059130I5413J8597D01*
G01X29482660Y19092120D01*
X29638740Y19146990D01*
X29654230Y19102910D01*
X29809290Y19157970D01*
X29812820Y19148010D01*
X29820660Y19150790D01*
X29820970Y19154020D01*
G02X29859230Y19072250I88520J-8418D01*
G03X29843910Y19060470I-5745J-8381D01*
G01X29868800Y18990380D01*
X29701210Y18930870D01*
X29671380Y19014880D01*
X29520240Y18961750D01*
X29519780Y18958730D01*
G02X29479260Y19047170I-87932J13215D01*
G37*
G36*
G01X6032620Y16063650D02*
G03X6014240Y16062100I-8832J-5020D01*
G01X6006970Y16042140D01*
X5851510Y16098720D01*
X5867620Y16142990D01*
X5695600Y16205590D01*
X5697650Y16211230D01*
X5690190Y16213940D01*
X5687970Y16212160D01*
G02X5715630Y16312880I-55570J69419D01*
G03X5734690Y16312980I9512J3574D01*
G01X5756420Y16372710D01*
X5923540Y16311890D01*
X5892930Y16227790D01*
X6047900Y16171380D01*
X6050170Y16173440D01*
G02X6032620Y16063650I59752J-65849D01*
G37*
G36*
G01X32280930Y14784270D02*
Y16073500D01*
X31712360Y16642080D01*
X31709720Y16641580D01*
G02X31739820Y16671680I-6970J37070D01*
G01X31739320Y16669040D01*
X32319070Y16089300D01*
Y14032900D01*
X32357900Y13994070D01*
X32743500D01*
X32853900Y13883670D01*
Y13701290D01*
G02X32863140Y13693670I-19073J-32540D01*
G03X32880930Y13700380I7629J6712D01*
G01Y13892100D01*
X32767100Y14005930D01*
X32442100D01*
X32330930Y14117100D01*
Y16150500D01*
X31712360Y16769080D01*
X31709720Y16768580D01*
G02X31739820Y16798680I-6970J37070D01*
G01X31739320Y16796040D01*
X32369070Y16166300D01*
Y14132900D01*
X32457900Y14044070D01*
X32782900D01*
X32919070Y13907900D01*
Y11957900D01*
X33019070Y11857900D01*
Y10342100D01*
X32907900Y10230930D01*
X32532900D01*
X32398740Y10096770D01*
Y9985800D01*
G03X32416490Y9979060I10158J8D01*
G02X32425620Y9986540I28176J-25080D01*
G01Y10102590D01*
X32542100Y10219070D01*
X32942100D01*
X33030930Y10307900D01*
Y11867100D01*
X32930930Y11967100D01*
Y13917100D01*
X32792100Y14055930D01*
X32467100D01*
X32380930Y14142100D01*
Y16227500D01*
X31712360Y16896080D01*
X31709720Y16895580D01*
G02X31739820Y16925680I-6970J37070D01*
G01X31739320Y16923040D01*
X32419070Y16243300D01*
Y14157900D01*
X32482900Y14094070D01*
X32807900D01*
X32969070Y13932900D01*
Y11982900D01*
X33069070Y11882900D01*
Y10292100D01*
X32957900Y10180930D01*
X32557900D01*
X32463760Y10086790D01*
Y9986540D01*
G02X32472890Y9979060I-19046J-32560D01*
G03X32490640Y9985800I7592J6748D01*
G01Y10092610D01*
X32567100Y10169070D01*
X32967100D01*
X33080930Y10282900D01*
Y11917100D01*
X32980930Y12017100D01*
Y13942100D01*
X32817100Y14105930D01*
X32542100D01*
X32455930Y14192100D01*
Y16517100D01*
X31932450Y17040580D01*
X31735290D01*
G02Y17078720I-32540J19070D01*
G01X31948250D01*
X32494070Y16532900D01*
Y14207900D01*
X32557900Y14144070D01*
X32832900D01*
X33019070Y13957900D01*
Y12032900D01*
X33119070Y11932900D01*
Y10267100D01*
X32982900Y10130930D01*
X32582900D01*
X32528780Y10076810D01*
Y9985790D01*
G03X32546540Y9979050I10160J3D01*
G02X32555670Y9986540I28193J-25057D01*
G01Y10057640D01*
X32617100Y10119070D01*
X32992110D01*
X33130930Y10257890D01*
Y11942100D01*
X33030930Y12042100D01*
Y13992110D01*
X32867110Y14155930D01*
X32592100D01*
X32505930Y14242100D01*
Y16646710D01*
X31985060Y17167580D01*
X31735290D01*
G02Y17205720I-32540J19070D01*
G01X32000860D01*
X32544070Y16662510D01*
Y14257900D01*
X32607900Y14194070D01*
X32882910D01*
X33069070Y14007910D01*
Y12057900D01*
X33169070Y11957900D01*
Y10242090D01*
X33007910Y10080930D01*
X32632900D01*
X32593810Y10041840D01*
Y9986540D01*
G02X32546540Y9928950I-19067J-32544D01*
G03X32528780Y9922210I-7600J-6743D01*
G01Y9891290D01*
G02X32490640I-19070J-32540D01*
G01Y9922200D01*
G03X32472890Y9928940I-10158J-8D01*
G02X32416490I-28200J25060D01*
G03X32398740Y9922200I-7592J-6748D01*
G01Y9891290D01*
G02X32360600I-19070J-32540D01*
G01Y10112570D01*
X32517100Y10269070D01*
X32892100D01*
X32980930Y10357900D01*
Y11842100D01*
X32880930Y11942100D01*
Y13637120D01*
G03X32863140Y13643830I-10161J-2D01*
G02X32806630Y13643690I-28317J24920D01*
G03X32788880Y13636950I-7592J-6748D01*
G01Y13606040D01*
G02X32750740I-19070J-32540D01*
G01Y13636950D01*
G03X32732990Y13643690I-10158J-8D01*
G02X32676590Y13643700I-28196J25059D01*
G03X32658830Y13636960I-7600J-6743D01*
G01Y13606040D01*
G02X32620690I-19070J-32540D01*
G01Y13636950D01*
G03X32602940Y13643690I-10158J-8D01*
G02X32546540Y13643700I-28196J25059D01*
G03X32528780Y13636960I-7600J-6743D01*
G01Y13606040D01*
G02X32490640I-19070J-32540D01*
G01Y13636950D01*
G03X32472890Y13643690I-10158J-8D01*
G02X32412150Y13649680I-28194J25059D01*
G01X32073350D01*
X31905930Y13817100D01*
Y15686500D01*
X31712360Y15880080D01*
X31709720Y15879580D01*
G02X31739820Y15909680I-6970J37070D01*
G01X31739320Y15907040D01*
X31944070Y15702300D01*
Y13832900D01*
X32089150Y13687820D01*
X32412150D01*
G02X32413550Y13690040I32586J-18998D01*
G03X32405160Y13705930I-8388J5731D01*
G01X32117100D01*
X31955930Y13867100D01*
Y15763500D01*
X31712360Y16007080D01*
X31709720Y16006580D01*
G02X31739820Y16036680I-6970J37070D01*
G01X31739320Y16034040D01*
X31994070Y15779300D01*
Y13882900D01*
X32132900Y13744070D01*
X32482900D01*
X32528780Y13698190D01*
Y13676340D01*
X32537600D01*
X32538710Y13679920D01*
G02X32555670Y13701290I36026J-11176D01*
G01Y13717370D01*
X32517110Y13755930D01*
X32167100D01*
X32005930Y13917100D01*
Y15840500D01*
X31712360Y16134080D01*
X31709720Y16133580D01*
G02X31739820Y16163680I-6970J37070D01*
G01X31739320Y16161040D01*
X32044070Y15856300D01*
Y13932900D01*
X32182900Y13794070D01*
X32532910D01*
X32593810Y13733170D01*
Y13701290D01*
G02X32602940Y13693810I-19046J-32560D01*
G03X32620690Y13700550I7592J6748D01*
G01Y13758140D01*
X32572900Y13805930D01*
X32217100D01*
X32055930Y13967100D01*
Y15917500D01*
X31712360Y16261080D01*
X31709720Y16260580D01*
G02X31739820Y16290680I-6970J37070D01*
G01X31739320Y16288040D01*
X32094070Y15933300D01*
Y13982900D01*
X32232900Y13844070D01*
X32588700D01*
X32658830Y13773940D01*
Y13700540D01*
G03X32676590Y13693800I10160J3D01*
G02X32685720Y13701290I28193J-25057D01*
G01Y13807410D01*
X32637200Y13855930D01*
X32242100D01*
X32105930Y13992100D01*
Y15994500D01*
X31712360Y16388080D01*
X31709720Y16387580D01*
G02X31739820Y16417680I-6970J37070D01*
G01X31739320Y16415040D01*
X32144070Y16010300D01*
Y14007900D01*
X32257900Y13894070D01*
X32653000D01*
X32723860Y13823210D01*
Y13701290D01*
G02X32732990Y13693810I-19046J-32560D01*
G03X32750740Y13700550I7592J6748D01*
G01Y13831290D01*
X32676100Y13905930D01*
X32267100D01*
X32155930Y14017100D01*
Y16071500D01*
X31712360Y16515080D01*
X31709720Y16514580D01*
G02X31739820Y16544680I-6970J37070D01*
G01X31739320Y16542040D01*
X32194070Y16087300D01*
Y14032900D01*
X32282900Y13944070D01*
X32691900D01*
X32788880Y13847090D01*
Y13700550D01*
G03X32806630Y13693810I10158J8D01*
G02X32815760Y13701290I28176J-25080D01*
G01Y13867870D01*
X32727700Y13955930D01*
X32342100D01*
X32280930Y14017100D01*
Y14705030D01*
G03X32266820Y14714390I-10158J2D01*
G02Y14774910I-12770J30260D01*
G03X32280930Y14784270I3952J9358D01*
G37*
G36*
G01X32347130Y13554430D02*
X32068600D01*
X31830930Y13792100D01*
Y15634500D01*
X31712360Y15753080D01*
X31709720Y15752580D01*
G02X31739820Y15782680I-6970J37070D01*
G01X31739320Y15780040D01*
X31869070Y15650300D01*
Y13807900D01*
X32084400Y13592570D01*
X32347130D01*
G02Y13554430I32540J-19070D01*
G37*
G36*
G01X30597170Y15950400D02*
X30599040Y15949570D01*
X30958140Y16080140D01*
X30959040Y16081970D01*
G02X31002870Y15961420I79799J-39229D01*
G01X31001000Y15962250D01*
X30641900Y15831680D01*
X30641000Y15829850D01*
G02X30597170Y15950400I-79799J39229D01*
G37*
G36*
G01X30510300Y16189080D02*
X30512170Y16188250D01*
X30871270Y16318820D01*
X30872170Y16320650D01*
G02X30916000Y16200100I79799J-39229D01*
G01X30914130Y16200930D01*
X30555030Y16070360D01*
X30554130Y16068530D01*
G02X30403640Y16053820I-79799J39230D01*
G01X30401270Y16056930D01*
X30323370Y16024730D01*
X30322820Y16022110D01*
G02X30306560Y16061450I-36911J7774D01*
G01X30308800Y16059980D01*
X30386700Y16092170D01*
X30386180Y16096050D01*
G02X30510300Y16189080I88147J11710D01*
G37*
G36*
G01X30423430Y16427760D02*
X30425300Y16426930D01*
X30784400Y16557500D01*
X30785300Y16559330D01*
G02X30829130Y16438780I79799J-39229D01*
G01X30827260Y16439610D01*
X30468160Y16309040D01*
X30467260Y16307210D01*
G02X30312430Y16298710I-79802J39228D01*
G01X30310340Y16302010D01*
X30182280Y16261450D01*
X30181500Y16258880D01*
G02X30168650Y16299460I-36111J10890D01*
G01X30170760Y16297810D01*
X30298820Y16338370D01*
X30298640Y16342270D01*
G02X30423430Y16427760I88821J4170D01*
G37*
G36*
G01X6116970Y16307090D02*
X6116070Y16308930D01*
X5757060Y16439740D01*
X5755190Y16438910D01*
G02X5799110Y16559440I-35907J81351D01*
G01X5800010Y16557600D01*
X6159020Y16426790D01*
X6160890Y16427620D01*
G02X6116970Y16307090I35907J-81351D01*
G37*
G36*
G01X30336550Y16666440D02*
X30338420Y16665610D01*
X30697520Y16796180D01*
X30698420Y16798010D01*
G02X30742250Y16677460I79799J-39229D01*
G01X30740380Y16678290D01*
X30381280Y16547720D01*
X30380380Y16545890D01*
G02X30224900Y16538440I-79798J39230D01*
G01X30222850Y16541760D01*
X30046140Y16488480D01*
X30045330Y16485920D01*
G02X30033040Y16526680I-35960J11390D01*
G01X30035130Y16525000D01*
X30211840Y16578280D01*
X30211710Y16582180D01*
G02X30336550Y16666440I88871J2940D01*
G37*
G36*
G01X30249680Y16905130D02*
X30251550Y16904300D01*
X30610650Y17034870D01*
X30611550Y17036700D01*
G02X30655380Y16916150I79799J-39229D01*
G01X30653510Y16916980D01*
X30294410Y16786410D01*
X30293510Y16784580D01*
G02X30137410Y16778150I-79798J39230D01*
G01X30135400Y16781510D01*
X29909560Y16716710D01*
X29908710Y16714170D01*
G02X29896980Y16755090I-35802J11878D01*
G01X29899040Y16753380D01*
X30124880Y16818170D01*
X30124810Y16822070D01*
G02X30249680Y16905130I88902J1740D01*
G37*
G36*
G01X6290710Y16784450D02*
X6289810Y16786290D01*
X5930800Y16917100D01*
X5928930Y16916270D01*
G02X5804200Y17001770I-35907J81348D01*
G01X5804380Y17005670D01*
X5724590Y17030920D01*
X5722480Y17029260D01*
G02X5735320Y17069850I-23271J29687D01*
G01X5736100Y17067280D01*
X5815890Y17042030D01*
X5817980Y17045330D01*
G02X5972850Y17036800I75042J-47707D01*
G01X5973750Y17034960D01*
X6332760Y16904150D01*
X6334630Y16904980D01*
G02X6290710Y16784450I35907J-81351D01*
G37*
G36*
G01X30162810Y17143810D02*
X30164680Y17142980D01*
X30523780Y17273550D01*
X30524680Y17275380D01*
G02X30568510Y17154830I79799J-39229D01*
G01X30566640Y17155660D01*
X30207540Y17025090D01*
X30206640Y17023260D01*
G02X30055280Y17009710I-79798J39230D01*
G01X30052960Y17012850D01*
X29788540Y16908580D01*
X29787950Y16905970D01*
G02X29772330Y16945560I-36779J8365D01*
G01X29774550Y16944060D01*
X30038970Y17048340D01*
X30038520Y17052220D01*
G02X30162810Y17143810I88323J10270D01*
G37*
G36*
G01X6377590Y17023130D02*
X6376690Y17024970D01*
X6017680Y17155780D01*
X6015810Y17154950D01*
G02X6059730Y17275480I-35907J81351D01*
G01X6060630Y17273640D01*
X6419640Y17142830D01*
X6421510Y17143660D01*
G02X6545990Y17054400I35911J-81348D01*
G01X6545650Y17050670D01*
X6591210Y17031970D01*
X6600160Y17028720D01*
X6620680Y17085090D01*
X6747960Y17038770D01*
X6691380Y16883310D01*
X6564100Y16929630D01*
X6584620Y16986020D01*
X6574810Y16989590D01*
X6528410Y17008630D01*
X6526020Y17005740D01*
G02X6377590Y17023130I-68606J56570D01*
G37*
G36*
G01X30075940Y17382490D02*
X30077810Y17381660D01*
X30436910Y17512230D01*
X30437810Y17514060D01*
G02X30481640Y17393510I79799J-39229D01*
G01X30479770Y17394340D01*
X30120670Y17263770D01*
X30119770Y17261940D01*
G02X29969280Y17247230I-79799J39230D01*
G01X29966910Y17250340D01*
X29657750Y17122550D01*
X29657200Y17119930D01*
G02X29640940Y17159270I-36911J7774D01*
G01X29643180Y17157800D01*
X29952340Y17285580D01*
X29951830Y17289460D01*
G02X30075940Y17382490I88144J11710D01*
G37*
G36*
G01X6464460Y17261820D02*
X6463560Y17263660D01*
X6104550Y17394470D01*
X6102680Y17393640D01*
G02X6146600Y17514170I-35907J81351D01*
G01X6147500Y17512330D01*
X6506510Y17381520D01*
X6508380Y17382350D01*
G02X6630230Y17323840I35911J-81348D01*
G01X6631230Y17320070D01*
X7055640D01*
X7096550Y17279150D01*
X7099190Y17279650D01*
G02X7069090Y17249550I6970J-37070D01*
G01X7069590Y17252190D01*
X7039840Y17281930D01*
X6631230D01*
X6630230Y17278160D01*
G02X6464460Y17261820I-85941J22835D01*
G37*
G36*
G01X29989060Y17621170D02*
X29990930Y17620340D01*
X30350030Y17750910D01*
X30350930Y17752740D01*
G02X30394760Y17632190I79799J-39229D01*
G01X30392890Y17633020D01*
X30033790Y17502450D01*
X30032890Y17500620D01*
G02X29881230Y17487470I-79801J39228D01*
G01X29878930Y17490630D01*
X29520730Y17351680D01*
X29520120Y17349070D01*
G02X29504730Y17388760I-36731J8586D01*
G01X29506940Y17387240D01*
X29865140Y17526190D01*
X29864710Y17530070D01*
G02X29989060Y17621170I88380J9780D01*
G37*
G36*
G01X6551330Y17500500D02*
X6550430Y17502340D01*
X6191420Y17633150D01*
X6189550Y17632320D01*
G02X6233470Y17752850I-35907J81351D01*
G01X6234370Y17751010D01*
X6593380Y17620200D01*
X6595250Y17621030D01*
G02X6717100Y17562520I35911J-81348D01*
G01X6718100Y17558750D01*
X7117170D01*
X7137650Y17538260D01*
X7140290Y17538760D01*
G02X7110190Y17508660I6970J-37070D01*
G01X7110690Y17511300D01*
X7101370Y17520610D01*
X6718100D01*
X6717100Y17516840D01*
G02X6551330Y17500500I-85941J22835D01*
G37*
G36*
G01X29372430Y17605560D02*
X29374650Y17604060D01*
X29778380Y17764200D01*
X29777920Y17768080D01*
G02X29902190Y17859850I88303J10450D01*
G01X29904060Y17859020D01*
X30263160Y17989590D01*
X30264060Y17991420D01*
G02X30307890Y17870870I79799J-39229D01*
G01X30306020Y17871700D01*
X29946920Y17741130D01*
X29946020Y17739300D01*
G02X29794760Y17725610I-79800J39229D01*
G01X29792440Y17728750D01*
X29388720Y17568600D01*
X29388130Y17565990D01*
G02X29372430Y17605560I-36798J8299D01*
G37*
G36*
G01X6638210Y17739180D02*
X6637310Y17741020D01*
X6278300Y17871830D01*
X6276430Y17871000D01*
G02X6320350Y17991530I-35907J81351D01*
G01X6321250Y17989690D01*
X6680260Y17858880D01*
X6682130Y17859710D01*
G02X6803980Y17801200I35911J-81348D01*
G01X6804980Y17797430D01*
X7136500D01*
X7167490Y17766430D01*
X7170130Y17766930D01*
G02X7140030Y17736830I6970J-37070D01*
G01X7140530Y17739470D01*
X7120700Y17759290D01*
X6804980D01*
X6803980Y17755520D01*
G02X6638210Y17739180I-85941J22835D01*
G37*
G36*
G01X29815320Y18098540D02*
X29817190Y18097710D01*
X30176290Y18228280D01*
X30177190Y18230110D01*
G02X30221020Y18109560I79799J-39229D01*
G01X30219150Y18110390D01*
X29860050Y17979820D01*
X29859150Y17977990D01*
G02X29732660Y17941540I-79801J39228D01*
G03X29717780Y17929420I-5334J-8646D01*
G01X29735900Y17879630D01*
X29608620Y17833310D01*
X29552040Y17988770D01*
X29649130Y18024110D01*
X29668470Y18065580D01*
X29700430Y18058350D01*
X29702300Y18061600D01*
G02X29815320Y18098540I77052J-44380D01*
G37*
G36*
G01X6725080Y17977860D02*
X6724180Y17979700D01*
X6365170Y18110510D01*
X6363300Y18109680D01*
G02X6407220Y18230210I-35907J81351D01*
G01X6408120Y18228370D01*
X6767130Y18097560D01*
X6769000Y18098390D01*
G02X6890850Y18039880I35911J-81348D01*
G01X6891850Y18036110D01*
X7152520D01*
X7196440Y17992180D01*
X7199080Y17992680D01*
G02X7168980Y17962580I6970J-37070D01*
G01X7169480Y17965220D01*
X7136720Y17997970D01*
X6891850D01*
X6890850Y17994200D01*
G02X6725080Y17977860I-85941J22835D01*
G37*
G36*
G01X6811950Y18216540D02*
X6811050Y18218380D01*
X6452040Y18349190D01*
X6450170Y18348360D01*
G02X6494090Y18468890I-35907J81351D01*
G01X6494990Y18467050D01*
X6854000Y18336240D01*
X6855870Y18337070D01*
G02X6977720Y18278560I35911J-81348D01*
G01X6978720Y18274790D01*
X7115490D01*
X7211240Y18179030D01*
X7213880Y18179530D01*
G02X7183780Y18149430I6970J-37070D01*
G01X7184280Y18152070D01*
X7099690Y18236650D01*
X6978720D01*
X6977720Y18232880D01*
G02X6811950Y18216540I-85941J22835D01*
G37*
G36*
G01X29728440Y18337220D02*
X29730310Y18336390D01*
X30089410Y18466960D01*
X30090310Y18468790D01*
G02X30242430Y18481290I79797J-39231D01*
G01X30244710Y18478110D01*
X30528080Y18585120D01*
X30528720Y18587720D01*
G02X30543750Y18547900I36651J-8913D01*
G01X30541560Y18549430D01*
X30258180Y18442430D01*
X30258570Y18438550D01*
G02X30134140Y18348240I-88463J-8990D01*
G01X30132270Y18349070D01*
X29773170Y18218500D01*
X29772270Y18216670D01*
G02X29728440Y18337220I-79799J39229D01*
G37*
G36*
G01X6898820Y18455230D02*
X6897920Y18457070D01*
X6538910Y18587880D01*
X6537040Y18587050D01*
G02X6580960Y18707580I-35907J81351D01*
G01X6581860Y18705740D01*
X6940870Y18574930D01*
X6942740Y18575760D01*
G02X7064590Y18517250I35911J-81348D01*
G01X7065590Y18513480D01*
X7182210D01*
X7253730Y18441950D01*
X7256370Y18442450D01*
G02X7226270Y18412350I6970J-37070D01*
G01X7226770Y18414990D01*
X7166410Y18475340D01*
X7065590D01*
X7064590Y18471570D01*
G02X6898820Y18455230I-85941J22835D01*
G37*
G36*
G01X29641570Y18575900D02*
X29643440Y18575070D01*
X30002540Y18705640D01*
X30003440Y18707470D01*
G02X30047270Y18586920I79799J-39229D01*
G01X30045400Y18587750D01*
X29686300Y18457180D01*
X29685400Y18455350D01*
G02X29641570Y18575900I-79799J39229D01*
G37*
G36*
G01X6985700Y18693910D02*
X6984800Y18695750D01*
X6625790Y18826560D01*
X6623920Y18825730D01*
G02X6667840Y18946260I-35907J81351D01*
G01X6668740Y18944420D01*
X7027750Y18813610D01*
X7029620Y18814440D01*
G02X7151470Y18755930I35911J-81348D01*
G01X7152470Y18752160D01*
X7219210D01*
X7288280Y18683080D01*
X7290920Y18683580D01*
G02X7260820Y18653480I6970J-37070D01*
G01X7261320Y18656120D01*
X7203410Y18714020D01*
X7152470D01*
X7151470Y18710250D01*
G02X6985700Y18693910I-85941J22835D01*
G37*
G36*
G01X7072570Y18932590D02*
X7071670Y18934430D01*
X6712660Y19065240D01*
X6710790Y19064410D01*
G02X6754710Y19184940I-35907J81351D01*
G01X6755610Y19183100D01*
X7114620Y19052290D01*
X7116490Y19053120D01*
G02X7238340Y18994610I35911J-81348D01*
G01X7239340Y18990840D01*
X7321390D01*
X7340230Y18971990D01*
X7342870Y18972490D01*
G02X7312770Y18942390I6970J-37070D01*
G01X7313270Y18945030D01*
X7305590Y18952700D01*
X7239340D01*
X7238340Y18948930D01*
G02X7072570Y18932590I-85941J22835D01*
G37*
G36*
G01X30471970Y19100240D02*
X30472820Y19101180D01*
X30538690Y19364690D01*
X30538390Y19365920D01*
G02X30603030Y19349760I36610J9080D01*
G01X30602180Y19348820D01*
X30536310Y19085310D01*
X30536610Y19084080D01*
G02X30471970Y19100240I-36610J-9080D01*
G37*
G36*
G01X7159440Y19171270D02*
X7158540Y19173110D01*
X6799530Y19303920D01*
X6797660Y19303090D01*
G02X6841580Y19423620I-35907J81351D01*
G01X6842480Y19421780D01*
X7201490Y19290970D01*
X7203360Y19291800D01*
G02X7159440Y19171270I35907J-81351D01*
G37*
G36*
G01X32862260Y16405580D02*
X32837890D01*
G02Y16443720I-32540J19070D01*
G01X32862260D01*
Y16532580D01*
X32837890D01*
G02Y16570720I-32540J19070D01*
G01X32862260D01*
Y16595220D01*
X32937720D01*
Y16404780D01*
X32862260D01*
Y16405580D01*
G37*
G36*
G01X32812320Y16207720D02*
X32814960Y16207220D01*
X32828610Y16220880D01*
X32862260D01*
Y16278580D01*
X32837890D01*
G02Y16316720I-32540J19070D01*
G01X32845670D01*
X32848020Y16319070D01*
X32862260D01*
Y16345220D01*
X32937720D01*
Y16154780D01*
X32862260D01*
Y16182740D01*
X32853190D01*
G03X32843040Y16172170I1J-10159D01*
G02X32812320Y16207720I-37689J-1521D01*
G37*
G36*
G01Y16969720D02*
X32814960Y16969220D01*
X32828610Y16982880D01*
X32862260D01*
Y16995220D01*
X32937720D01*
Y16904780D01*
X32862260D01*
Y16944740D01*
X32853190D01*
G03X32843040Y16934170I1J-10159D01*
G02X32812320Y16969720I-37689J-1521D01*
G37*
G36*
G01Y16715720D02*
X32814960Y16715220D01*
X32828610Y16728880D01*
X32862260D01*
Y16786580D01*
X32837890D01*
G02Y16824720I-32540J19070D01*
G01X32862260D01*
Y16845220D01*
X32937720D01*
Y16654780D01*
X32862260D01*
Y16690740D01*
X32853190D01*
G03X32843040Y16680170I1J-10159D01*
G02X32812320Y16715720I-37689J-1521D01*
G37*
G36*
G01X31698920Y14863120D02*
G03X31687890Y14854780I-1027J-10106D01*
G01X31612280D01*
Y14945220D01*
X31688210D01*
G03X31698920Y14938180I9684J3065D01*
G02Y14863120I3830J-37530D01*
G37*
G36*
G01X31687740Y15329280D02*
G03X31698920Y15319180I10156J5D01*
G02X31676280Y15254780I3830J-37526D01*
G01X31612280D01*
Y15345220D01*
X31687740D01*
Y15329280D01*
G37*
G36*
G01X32937720Y14945220D02*
Y14854780D01*
X32862260D01*
Y14881580D01*
X32837890D01*
G02Y14919720I-32540J19070D01*
G01X32862260D01*
Y14945220D01*
X32937720D01*
G37*
G36*
G01X20909660Y1622010D02*
X20952340Y1629540D01*
X20971180Y1522700D01*
X21078210Y1447770D01*
Y1359120D01*
G02X21040070I-19070J-32540D01*
G01Y1427910D01*
X20949300Y1491460D01*
X20812940Y1467420D01*
X20789420Y1600810D01*
X20820600Y1606310D01*
X20807600Y1680050D01*
X20896660Y1695750D01*
X20909660Y1622010D01*
G37*
G36*
G01X16627400Y1383710D02*
X16639210Y1381630D01*
X16647660Y1429540D01*
X16706740Y1419120D01*
X16708280Y1427850D01*
X16710470Y1456600D01*
X16712400Y1467540D01*
X16690240Y1471450D01*
X16703340Y1545750D01*
X16792400Y1530050D01*
X16779300Y1455750D01*
X16757150Y1459650D01*
X16755610Y1450920D01*
X16753420Y1422170D01*
X16751490Y1411230D01*
X16810580Y1400810D01*
X16787060Y1267420D01*
X16624140Y1296150D01*
X16632590Y1344070D01*
X16589260Y1351710D01*
Y1622960D01*
G02X16627400I19070J32540D01*
G01Y1383710D01*
G37*
G36*
G01X12800930Y2530550D02*
X12861970Y2495310D01*
X12816750Y2416990D01*
X12751410Y2454710D01*
X12762660Y2474190D01*
X12738630Y2488060D01*
X12737780Y2486590D01*
X12594500Y2569310D01*
X12662220Y2686610D01*
X12717340Y2654790D01*
X12720060Y2659500D01*
X12824140Y2887180D01*
X12822760Y2889480D01*
G02X12861470Y2871780I32304J19470D01*
G01X12858830Y2871330D01*
X12754000Y2642000D01*
X12750370Y2635720D01*
X12805500Y2603890D01*
X12783000Y2564920D01*
X12808090Y2550430D01*
X12800930Y2530550D01*
G37*
G36*
G01X7251090Y8725280D02*
X7258060Y8727820D01*
X7551150Y8798430D01*
X7552100Y8800940D01*
G02X7562070Y8759550I35260J-13402D01*
G01X7560080Y8761350D01*
X7274710Y8692600D01*
G03X7267820Y8679310I2657J-9808D01*
G01X7285900Y8629630D01*
X7243610Y8614240D01*
X7247830Y8602660D01*
X7248320Y8599260D01*
G03X7255090Y8595220I5026J731D01*
G01X7262490Y8597910D01*
X7288300Y8527010D01*
X7203310Y8496070D01*
X7177500Y8566970D01*
X7205590Y8577200D01*
X7203530Y8591520D01*
X7200910Y8598700D01*
X7158620Y8583310D01*
X7102040Y8738770D01*
X7229320Y8785090D01*
X7251090Y8725280D01*
G37*
G36*
G01X9530840Y5126370D02*
X9552500Y5112930D01*
X9548890Y5071670D01*
X9576740Y5038480D01*
X9507460Y4980340D01*
X9458960Y5038140D01*
X9503630Y5075620D01*
X9504800Y5089050D01*
X9482270Y5103020D01*
X9427890Y5057380D01*
X9321550Y5184110D01*
X9425310Y5271180D01*
X9466220Y5222420D01*
X9471280Y5226660D01*
X9660970Y5377320D01*
G02X9687160Y5346590I37342J5300D01*
G01X9684600Y5347380D01*
X9495400Y5197120D01*
X9490740Y5193200D01*
X9531650Y5144450D01*
X9529660Y5142780D01*
G03X9530840Y5126370I6535J-7777D01*
G37*
G36*
G01X6325660Y15857790D02*
X6430470Y15962610D01*
X6695270Y16666070D01*
X6698650Y16675330D01*
X6677500Y16683030D01*
X6703310Y16753930D01*
X6788300Y16722990D01*
X6762490Y16652090D01*
X6741340Y16659790D01*
X6737890Y16650290D01*
X6471450Y15942500D01*
X6471440Y15942450D01*
G02X6471090Y15941540I-21382J7701D01*
G01X6471070Y15941490D01*
X6469530Y15937400D01*
X6466450Y15934320D01*
X6466410Y15934280D01*
G02X6466070Y15933930I-16470J15659D01*
G01X6344480Y15812350D01*
X6111980D01*
X6098840Y15817130D01*
X6076200Y15754930D01*
X5909080Y15815750D01*
X5918040Y15840380D01*
X5871060Y15857480D01*
X5771380Y15893840D01*
X5749780Y15834490D01*
X5582660Y15895310D01*
X5595330Y15930140D01*
X5431560Y15989740D01*
X5492380Y16156860D01*
X5659500Y16096040D01*
X5650540Y16071410D01*
X5697520Y16054310D01*
X5819190Y16009930D01*
X5829430Y16038060D01*
X5984890Y15981480D01*
X5983590Y15977890D01*
X6137020Y15922050D01*
X6114380Y15859840D01*
X6120000Y15857790D01*
X6325660D01*
G37*
G36*
G01X6322720Y12512260D02*
Y12501020D01*
X6222590Y11597570D01*
G02X6222570Y11597430I-22488J3141D01*
G01Y11597420D01*
X6221050Y11583670D01*
X6208110Y11578780D01*
X6208100Y11578770D01*
G02X6208040Y11578750I-7209J21527D01*
G01X5985870Y11494700D01*
X5971740D01*
Y11428500D01*
X5793900D01*
Y11454700D01*
X5638820D01*
Y11391880D01*
X5460980D01*
Y11428680D01*
X5285670D01*
Y11606520D01*
X5463510D01*
Y11580320D01*
X5644980D01*
Y11613620D01*
X5810420D01*
Y11606340D01*
X5971740D01*
Y11552640D01*
G03X5985490Y11543140I10159J3D01*
G01X6178950Y11616330D01*
X6277280Y12503540D01*
Y12512260D01*
X6254780D01*
Y12587720D01*
X6345220D01*
Y12512260D01*
X6322720D01*
G37*
G36*
G01X7310140Y7445880D02*
G03X7327230Y7442550I9547J3476D01*
G01X7474860Y7606050D01*
X7261730Y8401340D01*
X7258660Y8409790D01*
X7237510Y8402090D01*
X7211700Y8472990D01*
X7296690Y8503930D01*
X7322500Y8433030D01*
X7301350Y8425330D01*
X7305110Y8415020D01*
X7521910Y7606000D01*
X7521920Y7605980D01*
G02X7521970Y7605780I-22016J-5610D01*
G01X7521980Y7605770D01*
X7525140Y7593950D01*
X7516940Y7584860D01*
Y7584850D01*
G02X7516860Y7584770I-16085J16005D01*
G01X7345360Y7394820D01*
X7330670Y7389470D01*
X7353310Y7327260D01*
X7186190Y7266440D01*
X7177230Y7291060D01*
X7130250Y7273950D01*
X7020860Y7234240D01*
X7045440Y7166710D01*
X6878320Y7105890D01*
X6862680Y7148880D01*
X6708550Y7092780D01*
X6647730Y7259900D01*
X6814850Y7320720D01*
X6823810Y7296100D01*
X6870790Y7313210D01*
X6973220Y7350390D01*
X6958310Y7391380D01*
X7113770Y7447960D01*
X7119760Y7431510D01*
X7292490Y7494380D01*
X7310140Y7445880D01*
G37*
G36*
G01X9623800Y4947400D02*
X9630490Y4939430D01*
X10117640Y4314330D01*
X10117670Y4314290D01*
G02X10118180Y4313640I-17621J-14351D01*
G01X10118200Y4313600D01*
X10125460Y4304290D01*
X10121650Y4293110D01*
X10121640Y4293070D01*
G02X10121510Y4292670I-21675J6823D01*
G01X10041260Y4057110D01*
X10024210Y4007080D01*
X10011710Y3996590D01*
X10054260Y3945880D01*
X9918030Y3831570D01*
X9901190Y3851640D01*
X9862890Y3819500D01*
X9791710Y3759860D01*
X9831390Y3712570D01*
X9695160Y3598260D01*
X9672250Y3625560D01*
X9528590Y3505020D01*
X9414280Y3641250D01*
X9550510Y3755560D01*
X9567350Y3735490D01*
X9605650Y3767630D01*
X9702180Y3848510D01*
X9682380Y3872110D01*
X9809110Y3978450D01*
X9812130Y3974860D01*
X9939950Y4082110D01*
X9972330Y4043520D01*
G03X9989730Y4046780I7782J6531D01*
G01X10074530Y4295720D01*
X9595150Y4910850D01*
X9589000Y4918190D01*
X9571760Y4903720D01*
X9523260Y4961520D01*
X9592540Y5019660D01*
X9641040Y4961860D01*
X9623800Y4947400D01*
G37*
G36*
G01X16807150Y1613770D02*
X16817060Y1612020D01*
X17853550Y1422450D01*
X17853610Y1422440D01*
G02X17854570Y1422260I-3707J-22422D01*
G01X17854620Y1422250D01*
X17861060Y1421070D01*
X17865680Y1416450D01*
X17865720Y1416410D01*
G02X17866070Y1416070I-15659J-16470D01*
G01X17973700Y1308430D01*
X17953570Y1110700D01*
X17931510Y894030D01*
X17928070Y860210D01*
X17927920Y859350D01*
X17926190Y849570D01*
X17991390Y838070D01*
X17960510Y662930D01*
X17934710Y667480D01*
X17930410Y643130D01*
X17926020Y618240D01*
X17905790Y504000D01*
X17965600Y493460D01*
X17934720Y318320D01*
X17900630Y324330D01*
X17872090Y162450D01*
X17696950Y193330D01*
X17727830Y368470D01*
X17753630Y363920D01*
X17757930Y388270D01*
X17762320Y413160D01*
X17778630Y505290D01*
X17783140Y530760D01*
X17742420Y537940D01*
X17771150Y700860D01*
X17786150Y698220D01*
X17816250Y868950D01*
X17881440Y857460D01*
X17883030Y866470D01*
X17891980Y954370D01*
X17897560Y1009170D01*
X17926300Y1291570D01*
X17917690Y1300180D01*
X17838930Y1378930D01*
X16809020Y1567300D01*
X16799260Y1569020D01*
X16796660Y1554250D01*
X16707600Y1569950D01*
X16720700Y1644250D01*
X16809760Y1628550D01*
X16807150Y1613770D01*
G37*
G36*
G01X25963530Y3585380D02*
X25967290Y3578880D01*
X26005690Y3536920D01*
X26011930Y3526130D01*
X26069260Y3559230D01*
X26158180Y3405210D01*
X26135490Y3392110D01*
X26160490Y3348810D01*
X26219390Y3246610D01*
X26275530Y3279020D01*
X26364450Y3125000D01*
X26330920Y3105650D01*
X26412140Y2964980D01*
X26258120Y2876060D01*
X26169200Y3030080D01*
X26191890Y3043180D01*
X26166890Y3086480D01*
X26144030Y3126150D01*
X26112870Y3180220D01*
X26094310Y3169500D01*
X26008210Y3318630D01*
X26004160Y3316290D01*
X25915240Y3470310D01*
X25972570Y3503410D01*
X25968830Y3509900D01*
X25930410Y3551860D01*
X25924180Y3562660D01*
X25904700Y3551410D01*
X25866980Y3616750D01*
X25945300Y3661970D01*
X25983020Y3596630D01*
X25963530Y3585380D01*
G37*
G36*
G01X30789370Y6680880D02*
X28875610Y7345670D01*
X28873450Y7344080D01*
G02X28820620Y7396730I-22428J30326D01*
G03X28816620Y7411990I-8193J6007D01*
G02X28868640Y7456070I15572J34358D01*
G01X28869330Y7453480D01*
X29259280Y7315990D01*
G03X29271110Y7331220I3381J9583D01*
G02X29424890Y7419770I73957J49368D01*
G01X29425790Y7417930D01*
X29784830Y7287110D01*
G02X29807290Y7294200I37762J-80505D01*
G03X29809110Y7313720I-1747J10008D01*
G01X29523880Y7420680D01*
X29521690Y7419140D01*
G02X29536630Y7458990I-21691J30858D01*
G01X29537270Y7456390D01*
X29905770Y7318200D01*
X29974020Y7300420D01*
X31626550D01*
X31919070Y7007900D01*
Y6830190D01*
X31889610Y6800740D01*
X31890110Y6798100D01*
G02X31860010Y6828200I-37070J-6970D01*
G01X31862650Y6827700D01*
X31880930Y6845990D01*
Y6992100D01*
X31610750Y7262280D01*
X29969140D01*
X29894230Y7281800D01*
X29875210Y7288930D01*
X29872080Y7280570D01*
X29875180Y7278290D01*
G02X29856300Y7124320I-52601J-71693D01*
G03X29856770Y7105340I3851J-9400D01*
G01X31795830Y6421690D01*
X31999820Y6600080D01*
X31999500Y6602740D01*
G02X32074340Y6612210I37452J4480D01*
G03X32090730Y6605600I10069J1341D01*
G01X32112850Y6623190D01*
X32112660Y6625870D01*
G02X32139160Y6592550I37620J2722D01*
G01X32136590Y6593340D01*
X31816750Y6338960D01*
G03X31819910Y6321350I6323J-7954D01*
G01X31894500Y6296870D01*
X32092580Y6504770D01*
X32092020Y6507390D01*
G02X32166600Y6513700I36891J7867D01*
G03X32183870Y6506030I10151J-422D01*
G01X32205660Y6527440D01*
G02X32277570Y6549860I36580J9204D01*
G03X32294270Y6546240I9514J3561D01*
G01X32328850Y6580820D01*
Y7857710D01*
G02X32344250Y7927790I19073J32541D01*
G03X32350440Y7945090I-990J10111D01*
G01X32280930Y8014600D01*
Y8542100D01*
X31892100Y8930930D01*
X30646780D01*
X29493740Y9331990D01*
G02X29485940Y9337120I6259J18012D01*
G02X29379930Y9870040I386107J353809D01*
G01X29902700Y11306350D01*
G03X29980930Y11750000I-1218913J443656D01*
G01Y13767460D01*
G02X30016360Y13833990I19077J32540D01*
G03X30030930Y13843140I4411J9151D01*
G01Y15048350D01*
G03X29832080Y15793480I-4308880J-750796D01*
G01X29137950Y17700580D01*
X29192460Y17795280D01*
X29380130Y17858470D01*
X29385870Y17860560D01*
X29364100Y17920370D01*
X29447200Y17950620D01*
G03X29448020Y17969370I-3476J9545D01*
G01X29442300Y17972040D01*
X29387510Y17952090D01*
X29361700Y18022990D01*
X29446690Y18053930D01*
X29461510Y18013220D01*
X29487490Y18001100D01*
X29522590Y17979860D01*
X29502370Y17936500D01*
X29547960Y17811230D01*
X29420680Y17764910D01*
X29398910Y17824720D01*
X29392730Y17822470D01*
X29218320Y17763740D01*
X29179870Y17696940D01*
X29867920Y15806520D01*
G02X30068790Y15053270I-4145863J-1508990D01*
G02X30069070Y15050030I-18791J-3256D01*
G01Y11750000D01*
G02X29986040Y11279140I-1376712J15D01*
G01X29700030Y10493330D01*
G03X29762980Y9815460I748321J-272366D01*
G01X30803510Y9419070D01*
X31907900D01*
X32469070Y8857900D01*
Y8086390D01*
X32533380Y8022070D01*
X32536020Y8022570D01*
G02X32505920Y7992470I6970J-37070D01*
G01X32506420Y7995110D01*
X32449360Y8052160D01*
G03X32432020Y8044980I-7181J-7187D01*
G01Y8018040D01*
G02X32422240Y7948940I-19071J-32543D01*
G03X32417560Y7931910I2503J-9846D01*
G01X32440150Y7909320D01*
X32445320D01*
X32446830Y7911530D01*
G02X32445430Y7871180I31141J-21280D01*
G01X32424350D01*
X32402760Y7892770D01*
G03X32385460Y7886580I-7189J-7180D01*
G02X32366990Y7857710I-37539J3673D01*
G01Y6565020D01*
X31928360Y6126390D01*
X30364680Y6614110D01*
X29914140Y6163570D01*
X29809460D01*
X28992100Y6980930D01*
X28856050D01*
X28769570Y6894450D01*
X28769660Y6892540D01*
X28711520Y6823260D01*
X28705150Y6828610D01*
G02X28703310Y6828190I-6063J22321D01*
G01X27894720Y6019600D01*
X27891180Y6015390D01*
X27928450Y5984110D01*
X27822110Y5857380D01*
X27718350Y5944450D01*
X27824690Y6071180D01*
X27861970Y6039900D01*
X27866580Y6045400D01*
X28667210Y6846030D01*
G03X28666550Y6860990I-7188J7177D01*
G01X28653720Y6871760D01*
X28711860Y6941040D01*
X28739240Y6918060D01*
X28840250Y7019070D01*
X29007900D01*
X29825260Y6201710D01*
X29898340D01*
X30354020Y6657390D01*
X31917700Y6169670D01*
X32242440Y6494410D01*
X32237700Y6499150D01*
X32236090Y6499420D01*
G02X32234950Y6499630I6263J37198D01*
G01X32232310Y6500150D01*
X31930200Y6203370D01*
X28872790Y7165590D01*
X28870680Y7163930D01*
G02X28828700Y7226360I-23317J29650D01*
G03X28828840Y7243940I-5023J8831D01*
G02X28884220Y7286950I19152J32498D01*
G01X28884970Y7284380D01*
X30782860Y6661630D01*
G03X30789370Y6680880I3171J9653D01*
G37*
G36*
G01X30792280Y14984700D02*
X30658850D01*
X30382720Y14708570D01*
Y14087740D01*
X30395220D01*
Y14012280D01*
X30304780D01*
Y14087740D01*
X30317280D01*
Y14735670D01*
X30612580Y15030970D01*
Y15162540D01*
X30790420D01*
Y15117720D01*
X30961080D01*
Y15204020D01*
X31138920D01*
Y15162360D01*
X31298650D01*
Y14984520D01*
X31120810D01*
Y15026180D01*
X31014420D01*
X31000520Y15012280D01*
X30957720D01*
Y14982280D01*
X30792280D01*
Y14984700D01*
G37*
G36*
G01X6245920Y16665460D02*
G02X6203840Y16545770I37747J-80513D01*
G01X6202940Y16547610D01*
X5843900Y16678430D01*
G02X5885980Y16798120I-37747J80513D01*
G01X5886880Y16796280D01*
X6245920Y16665460D01*
G37*
G54D60*
X26800000Y1050000D03*
X26950000Y1000000D03*
X28550000Y2900000D03*
X30100000Y4150000D03*
X29950000Y4200000D03*
X32805350Y15662650D03*
Y15789650D03*
X31650000Y8700000D03*
X30850000Y5900000D03*
X30565830Y5263100D03*
X28576810Y3213880D03*
X28463490Y3192510D03*
X28279580Y3376420D03*
X28371540Y3284460D03*
X28392900Y3397790D03*
X28484860Y3305840D03*
X27459260Y2159820D03*
X27345930Y2138450D03*
X26791170Y1888030D03*
X26883120Y1796070D03*
X26975080Y1704120D03*
X26769810Y1774690D03*
X26953720Y1590770D03*
X26861770Y1682730D03*
X25871760Y572320D03*
X25687840Y756240D03*
X25758430Y550950D03*
X25779800Y664280D03*
X25666470Y642910D03*
X25574510Y734860D03*
X32805350Y17186650D03*
Y17313650D03*
Y15916650D03*
X31950000Y17750000D03*
Y17650000D03*
Y17550000D03*
X32400000Y12200000D03*
Y12000000D03*
X32200000Y8500000D03*
X32157020Y8142980D03*
X32200000Y7937710D03*
X31737100Y17662900D03*
X31750000Y17750000D03*
X31850000D03*
Y17650000D03*
X31750000Y17550000D03*
X31850000D03*
X31750000Y17850000D03*
X31850000D03*
X31650000D03*
X31550000D03*
X31450000D03*
X31650000Y17500000D03*
X31550000D03*
X31350000D03*
Y17850000D03*
X31702750Y15662650D03*
X30525000Y18700000D03*
X30975000Y18925000D03*
X3800000Y16100000D03*
X3900000D03*
Y16000000D03*
X3800000D03*
X4000000Y16100000D03*
Y16000000D03*
X3700040Y16277000D03*
X3700000Y16100000D03*
Y16000000D03*
X3600000D03*
X3500000D03*
Y16100000D03*
X3600000D03*
X3500000Y16200000D03*
X3600000D03*
Y16300000D03*
X3500000D03*
G54D62*
X32254050Y17467650D03*
G54D61*
X24896160Y341520D03*
X11688160D03*
X32516160Y18375520D03*
X4068160D03*
G54D64*
X5118000Y19352000D03*
G54D63*
X5588000Y19052000D03*
Y19652000D03*
%LPD*%
G75*
G36*
G01X30459620Y6706170D02*
X28884230Y7201970D01*
X28883450Y7204530D01*
G03X28866510Y7226080I-36097J-10942D01*
G02X28866650Y7243660I5163J8749D01*
G03X28870940Y7246510I-18678J32769D01*
G01X28873070Y7248140D01*
X30465840Y6725510D01*
G02X30459620Y6706170I-3166J-9652D01*
G37*
G36*
G01X29497720Y7169940D02*
X28888120Y7381700D01*
X28887420Y7384290D01*
G03X28885710Y7389200I-36390J-9921D01*
G02X28898440Y7402770I9345J3990D01*
G01X29504430Y7189120D01*
G02X29497720Y7169940I-3378J-9582D01*
G37*
G36*
G01X29744720Y7163660D02*
G02X29732440Y7149170I-8899J-4907D01*
G01X29371360Y7276480D01*
G02X29371690Y7295750I3379J9580D01*
G03X29380970Y7299240I-26612J84846D01*
G01X29382840Y7300070D01*
X29741850Y7169260D01*
X29742750Y7167420D01*
G03X29744720Y7163660I79727J39376D01*
G37*
G36*
G01X30030930Y13765890D02*
Y11750000D01*
G02X29950200Y11292180I-1338572J10D01*
G01X29664190Y10506370D01*
G03X29733670Y9790160I784162J-285403D01*
G03X29743210Y9782180I16336J9836D01*
G01X30586470Y9460940D01*
G02X30585070Y9441530I-3614J-9495D01*
G03X30568520Y9436090I19359J-86789D01*
G01X30566650Y9435260D01*
X30207640Y9566070D01*
X30206740Y9567910D01*
G03X30044850Y9562980I-79827J-39177D01*
G01X30043410Y9559520D01*
X30022040Y9561560D01*
X30015380Y9563980D01*
X30035900Y9620370D01*
X29908620Y9666690D01*
X29852040Y9511230D01*
X29893460Y9496160D01*
G02X29889990Y9476450I-3474J-9549D01*
G01X29807900D01*
X29744640Y9539710D01*
Y9543070D01*
G02X29751460Y9547840I5082J-5D01*
G01X29791380Y9533310D01*
X29847960Y9688770D01*
X29720680Y9735090D01*
X29664100Y9579630D01*
X29709820Y9562990D01*
X29706500Y9553870D01*
Y9523910D01*
X29792100Y9438310D01*
X29981020D01*
X30722920Y9166280D01*
X31906750D01*
X32393880Y8679150D01*
Y8018040D01*
G03X32376390Y7994790I19066J-32546D01*
G02X32359360Y7990110I-9846J2503D01*
G01X32319070Y8030400D01*
Y8557900D01*
X31907900Y8969070D01*
X30653220D01*
X30536080Y9009820D01*
G02X30537180Y9029320I3341J9593D01*
G03X30481650Y9197400I-19628J86728D01*
G01X30479780Y9196570D01*
X30120770Y9327380D01*
X30119870Y9329220D01*
G03X29965900Y9339140I-79829J-39176D01*
G01X29963750Y9335880D01*
X29552220Y9474600D01*
X29551490Y9477180D01*
G03X29537890Y9436840I-36310J-10221D01*
G01X29540030Y9438460D01*
X29951560Y9299740D01*
X29951310Y9295840D01*
G03X30075950Y9208690I88731J-5802D01*
G01X30077820Y9209520D01*
X30436830Y9078710D01*
X30437730Y9076870D01*
G03X30448360Y9060210I79814J39205D01*
G02X30437110Y9044240I-7910J-6375D01*
G01X29510860Y9366410D01*
G02X29415770Y9857000I361186J324519D01*
G01X29938540Y11293310D01*
G03X30019070Y11750000I-1254753J456701D01*
G01Y13767460D01*
G03X30022780Y13769940I-19069J32542D01*
G02X30030930Y13765890I3069J-4049D01*
G37*
G36*
G01X30527670Y9278500D02*
X30138360Y9421240D01*
G02X30140320Y9440830I3489J9544D01*
G03X30162820Y9447380I-13387J87907D01*
G01X30164690Y9448210D01*
X30523700Y9317400D01*
X30524600Y9315560D01*
G03X30538680Y9294870I79824J39186D01*
G02X30527670Y9278500I-7515J-6833D01*
G37*
G36*
G01X32430930Y8720570D02*
G02X32413590Y8713380I-10159J-3D01*
G01X31922550Y9204420D01*
X30729700D01*
X30613710Y9246950D01*
G02X30615900Y9266560I3499J9537D01*
G03X30676630Y9406650I-11468J88180D01*
G02X30688490Y9422070I8250J5926D01*
G01X30796490Y9380930D01*
X31892100D01*
X32430930Y8842100D01*
Y8720570D01*
G37*
G36*
G01X31282540Y11019070D02*
G03X31280060Y11022780I-32542J-19069D01*
G02X31284110Y11030930I4049J3069D01*
G01X31807900D01*
X32157900Y11380930D01*
X32457900D01*
X32519070Y11442100D01*
Y11492100D01*
X32569070Y11542100D01*
Y11552150D01*
X32576640D01*
X32578170Y11550180D01*
G03X32588940Y11540710I29837J23074D01*
G01Y11365910D01*
X32542100Y11319070D01*
X32192100D01*
X31892100Y11019070D01*
X31282540D01*
G37*
G36*
G01X31182540Y11069070D02*
G03X31180060Y11072780I-32542J-19069D01*
G02X31184110Y11080930I4049J3069D01*
G01X31757900D01*
X32157900Y11480930D01*
X32457900D01*
X32463590Y11486620D01*
G02X32480930Y11479430I7181J-7187D01*
G01Y11457900D01*
X32442100Y11419070D01*
X32142100D01*
X31792100Y11069070D01*
X31182540D01*
G37*
G36*
G01X31919800Y6246630D02*
X31911810Y6249140D01*
G02X31909660Y6257490I1527J4845D01*
G01X32120190Y6478460D01*
X32122840Y6478030D01*
G03X32129800Y6477550I6064J37230D01*
G02X32137160Y6460150I238J-10156D01*
G01X31919800Y6246630D01*
G37*
G36*
G01X31430060Y11127220D02*
G03X31432540Y11130930I-30062J22779D01*
G01X31657900D01*
X31869070Y11342100D01*
Y11542100D01*
X31976400Y11649430D01*
X32380400D01*
G03X32402620Y11632220I32544J19068D01*
G02X32407020Y11615260I-2780J-9772D01*
G01X32390290Y11598530D01*
G02X32375640Y11598830I-7181J7187D01*
G03X32380460Y11554180I-27721J-25578D01*
G01X32399880D01*
X32423000Y11577300D01*
G02X32440320Y11570780I7183J-7185D01*
G03X32452890Y11545070I37638J2474D01*
G02X32453320Y11530290I-6751J-7593D01*
G01X32442100Y11519070D01*
X32142100D01*
X31742100Y11119070D01*
X31434110D01*
G02X31430060Y11127220I-1J5081D01*
G37*
G36*
G01X31960600Y11687570D02*
X31830930Y11557900D01*
Y11357900D01*
X31642100Y11169070D01*
X31432540D01*
G03X31430060Y11172780I-32542J-19069D01*
G02X31434110Y11180930I4049J3069D01*
G01X31607900D01*
X31819070Y11392100D01*
Y11592100D01*
X31957900Y11730930D01*
X32429400D01*
X32443630Y11716700D01*
Y11711750D01*
G02X32429110Y11702580I-10159J6D01*
G03X32380400Y11687570I-16166J-34079D01*
G01X31960600D01*
G37*
G54D10*
G01X30875000Y15050000D02*
X30984900D01*
X31050000Y15115100D01*
G01X30701500Y15073620D02*
X30851380D01*
X30875000Y15050000D01*
G01X31209730Y15073440D02*
X31091660D01*
X31050000Y15115100D01*
G01X31549990Y15050000D02*
Y14900000D01*
G01Y15150000D02*
Y15050000D01*
G01Y15300000D02*
Y15150000D01*
G01Y14900000D02*
Y14799990D01*
X31500000Y14750000D01*
G01X31549990Y15450000D02*
Y15300000D01*
G01Y15550000D02*
Y15450000D01*
G01X33000010Y15150000D02*
Y15300000D01*
G01Y15050000D02*
Y15150000D01*
G01Y14900000D02*
Y15050000D01*
G01Y15400000D02*
Y15550000D01*
G01Y15300000D02*
Y15400000D01*
G01Y15550000D02*
Y15620200D01*
G01D02*
X32920210Y15700000D01*
X32900000D01*
G01X33000010Y16200000D02*
Y16050000D01*
G01Y16300000D02*
Y16200000D01*
G01Y16450000D02*
Y16300000D01*
G01Y16550000D02*
Y16450000D01*
G01Y16700000D02*
Y16550000D01*
G01Y16800000D02*
Y16700000D01*
G01Y16950000D02*
Y16800000D01*
G01Y16950000D02*
Y17049990D01*
X3450000Y15050000D03*
X3550000D03*
X3450000Y14950000D03*
X3550000D03*
X3450000Y14700000D03*
X3550000D03*
X3500000Y15350000D03*
Y16000000D03*
Y16100000D03*
Y16200000D03*
Y16300000D03*
X3850000Y14950000D03*
X3950000D03*
X4050000D03*
X4150000D03*
X4250000D03*
Y14850000D03*
Y14750000D03*
X4150000D03*
X4050000D03*
X3900000D03*
X3750000Y15050000D03*
Y14950000D03*
Y14700000D03*
X3604760Y15190910D03*
X3650000Y15050000D03*
Y14950000D03*
Y14700000D03*
X3600000Y15350000D03*
X3700000D03*
X4000000Y16100000D03*
Y16000000D03*
X3800000Y16100000D03*
X3900000D03*
Y16000000D03*
X3800000D03*
X3700040Y16277000D03*
X3700000Y16100000D03*
Y16000000D03*
X3600000D03*
Y16100000D03*
Y16200000D03*
Y16300000D03*
X4040400Y16550000D03*
X4200000D03*
X4300000D03*
X3900000D03*
X3800000D03*
Y16650000D03*
X3900000D03*
X4200000D03*
X4300000D03*
X3700000Y16550000D03*
Y16650000D03*
X3800000Y16750000D03*
X3900000D03*
X4200000D03*
X4300000D03*
X3700000D03*
X3800000Y17400000D03*
X3900000D03*
X4200000D03*
X4300000D03*
X4040400Y17200000D03*
X4200000D03*
X4300000D03*
X3900000D03*
X3800000D03*
Y17300000D03*
X3900000D03*
X4200000D03*
X4300000D03*
X3700000Y17400000D03*
Y17200000D03*
Y17300000D03*
X3800000Y17100000D03*
X3900000D03*
X4200000D03*
X4300000D03*
X4040400Y16900000D03*
X4200000D03*
X4300000D03*
X3900000D03*
X3800000D03*
Y17000000D03*
X3900000D03*
X4200000D03*
X4300000D03*
X3700000Y17100000D03*
Y16900000D03*
Y17000000D03*
X4300000Y17900000D03*
X4200000D03*
X3900000D03*
X3800000D03*
Y17800000D03*
X3900000D03*
X4300000D03*
X4200000D03*
X4040400D03*
X4300000Y18000000D03*
X3800000D03*
X3700000Y17900000D03*
Y17800000D03*
Y18000000D03*
X3800000Y17700000D03*
X3900000D03*
X4200000D03*
X4300000D03*
X4040400Y17500000D03*
X4200000D03*
X4300000D03*
X3900000D03*
X3800000D03*
Y17600000D03*
X3900000D03*
X4200000D03*
X4300000D03*
X3700000Y17700000D03*
Y17500000D03*
Y17600000D03*
X5050000Y12500000D03*
X4650000Y15150000D03*
X4850000D03*
X4750000D03*
X4350000Y14950000D03*
Y14850000D03*
Y14750000D03*
X4650000Y15550000D03*
Y15650000D03*
X4850000D03*
Y15550000D03*
X4750000D03*
Y15650000D03*
X4650000Y15450000D03*
X4850000D03*
X4750000D03*
X4650000Y15250000D03*
Y15350000D03*
X4850000D03*
Y15250000D03*
X4750000D03*
Y15350000D03*
X4700000Y16700000D03*
X4800000D03*
X4600000D03*
X4400000Y16550000D03*
Y16650000D03*
X4700000Y16900000D03*
Y16800000D03*
X4800000D03*
Y16900000D03*
X4600000D03*
Y16800000D03*
X4700000Y17000000D03*
X4800000D03*
X4600000D03*
X4700000Y17200000D03*
Y17100000D03*
X4800000D03*
Y17200000D03*
X4600000D03*
Y17100000D03*
X4700000Y17300000D03*
X4800000D03*
X4600000D03*
X4700000Y17400000D03*
X4800000D03*
X4600000D03*
X4400000Y16750000D03*
Y17400000D03*
Y17200000D03*
Y17300000D03*
Y17100000D03*
Y16900000D03*
Y17000000D03*
X4700000Y17500000D03*
X4800000D03*
X4600000D03*
X4700000Y17600000D03*
X4800000D03*
X4600000D03*
X4700000Y17800000D03*
Y17700000D03*
X4800000D03*
Y17800000D03*
X4600000D03*
Y17700000D03*
X4700000Y17950000D03*
X4800000D03*
X4600000D03*
X4700000Y18150000D03*
Y18050000D03*
X4800000D03*
Y18150000D03*
X4600000D03*
Y18050000D03*
X4400000Y17900000D03*
Y17800000D03*
Y18000000D03*
Y17700000D03*
Y17500000D03*
Y17600000D03*
X4700000Y18900000D03*
X4800000D03*
X4600000D03*
X4700000Y18300000D03*
X4800000D03*
X4600000D03*
X4700000Y18800000D03*
Y18500000D03*
Y18400000D03*
X4800000D03*
Y18500000D03*
Y18800000D03*
Y18640400D03*
X4600000Y18800000D03*
Y18500000D03*
Y18400000D03*
Y19000000D03*
X4800000D03*
X4700000D03*
X5573200Y12279980D03*
X5699210Y17058950D03*
X5350000Y19450000D03*
Y19350000D03*
X5550000Y19450000D03*
X5450000D03*
Y19350000D03*
X5550000D03*
X5690400D03*
X6010720Y8042820D03*
X6439780Y10329170D03*
X6283640Y10611970D03*
X6450000Y13050000D03*
X6350000Y13550000D03*
X6400000Y13300000D03*
X6300000Y13800000D03*
X6250000Y14050000D03*
X6200000Y14300000D03*
X6150000Y14550000D03*
X6100310Y14850000D03*
X6050000Y19450000D03*
Y19350000D03*
Y19550000D03*
X5950000Y19450000D03*
X5850000D03*
X5950000Y19350000D03*
X5850000D03*
X5950000Y19550000D03*
X6765720Y7905160D03*
X7242710Y9000280D03*
X7107510Y9225570D03*
X6972680Y9449820D03*
X6834260Y9683920D03*
X6703370Y9897360D03*
X6571240Y10114180D03*
X6750000Y12800000D03*
X7106160Y17242580D03*
X7177100Y17729860D03*
X7206050Y17955610D03*
X7220850Y18142460D03*
X7147260Y17501690D03*
X7960590Y6630510D03*
X7587360Y8787540D03*
X7266990Y16767110D03*
X7263340Y18405380D03*
X7297890Y18646510D03*
X7349840Y18935420D03*
X8500460Y4117430D03*
X8539030Y6174510D03*
X8348210Y6324130D03*
X8140360Y6494050D03*
X9270320Y4400310D03*
X9336160Y5535660D03*
X9140730Y5690790D03*
X8930910Y5863060D03*
X8737820Y6015390D03*
X9698310Y5382620D03*
X10854550Y3503590D03*
X11593240Y3250310D03*
X11349630Y3333220D03*
X11103480Y3417610D03*
X12262560Y1291230D03*
X12079090Y3085280D03*
X11835720Y3168050D03*
X12332950Y2996450D03*
X12886870Y1900410D03*
X12558220Y2924120D03*
X12855060Y2908950D03*
X15193660Y1594120D03*
X14939660Y1588140D03*
X14668090Y1585250D03*
X15953600Y1612440D03*
X15701680Y1606090D03*
X15466830Y1596720D03*
X16737290Y-63570D03*
X16486670Y1619980D03*
X16232420Y1614040D03*
X16608330Y1655500D03*
X17117000Y786680D03*
X18899940Y1026430D03*
X19631440Y1307730D03*
X19371590Y1211140D03*
X19151790Y1121610D03*
X20098560Y1491630D03*
X19858610Y1398560D03*
X20342560Y1585430D03*
X20570340Y1676370D03*
X21059140Y1326580D03*
X21416200Y169010D03*
X21554790Y601740D03*
X23129550Y1996890D03*
X23252990Y2125890D03*
X23860490Y2649850D03*
X23648220Y2469540D03*
X23469000Y2308340D03*
X24038540Y2810370D03*
X24432930Y3153540D03*
X24247330Y2988650D03*
X25574510Y734860D03*
X25963710Y480370D03*
X25850390Y458990D03*
X25871760Y572320D03*
X25758430Y550950D03*
X25779800Y664280D03*
X25666470Y642910D03*
X25687840Y756240D03*
X25721320Y2440620D03*
X26124510Y4000600D03*
X26049100Y3876130D03*
X26125880Y3873910D03*
X26049450Y3750710D03*
X26223400Y4464280D03*
X26800000Y1050000D03*
X26950000Y1000000D03*
X27045680Y1498820D03*
X26953720Y1590770D03*
X26975080Y1704120D03*
X26861770Y1682730D03*
X26883120Y1796070D03*
X26769810Y1774690D03*
X26791170Y1888030D03*
X26920820Y4742070D03*
X26788220Y4506250D03*
X26696820Y4319540D03*
X27400000Y1800000D03*
X27067040Y1612160D03*
X27437890Y2046490D03*
X27658580Y2541420D03*
X27587870Y2612130D03*
X27517160Y2682840D03*
X27729290Y2612130D03*
X27658580Y2682840D03*
X27587870Y2753550D03*
X27729290D03*
Y2470710D03*
X27367300Y2251780D03*
X27253970Y2230410D03*
X27275340Y2343740D03*
X27162010Y2322360D03*
X27551210Y2067870D03*
X27459260Y2159820D03*
X27345930Y2138450D03*
X27658580Y2824260D03*
X27052530Y4976820D03*
X27296120Y5422690D03*
X27186030Y5213700D03*
X27407650Y5633390D03*
X27545040Y5874920D03*
X27800000Y2682840D03*
Y2400000D03*
X27870710Y2470710D03*
X27800000Y2541420D03*
X27941420D03*
X27870710Y2612130D03*
X28463490Y3192510D03*
X28484860Y3305840D03*
X28371540Y3284460D03*
X28392900Y3397790D03*
X28279580Y3376420D03*
X28550000Y2900000D03*
X29200000Y3250000D03*
X28668770Y3121930D03*
X28555450Y3100550D03*
X28576810Y3213880D03*
X29217160Y4232840D03*
X28878570Y5447990D03*
X28598050Y5978250D03*
X28832190Y7446350D03*
X28847990Y7276440D03*
X28847360Y7193580D03*
X28851020Y7374400D03*
X29350000Y3350000D03*
X29300000Y3400000D03*
Y3300000D03*
X29250000Y3350000D03*
X29950000Y4200000D03*
X29358580Y4091420D03*
X29287870Y4162130D03*
X29429290D03*
X29358580Y4232840D03*
X29500000D03*
Y3950000D03*
X29429290Y4020710D03*
X29570710D03*
X29500000Y4091420D03*
X29641420D03*
X29570710Y4162130D03*
X29287870Y4303550D03*
X29429290D03*
X29358580Y4374260D03*
X29937870Y4762130D03*
X29867160Y4832840D03*
X29937870Y4903550D03*
X29800000Y5600000D03*
X29850000Y5650000D03*
X29257180Y7649300D03*
X29500000Y7450000D03*
X29796820Y7899570D03*
X29663540Y7679590D03*
X29364690Y8468720D03*
X29315910Y8188520D03*
X29289220Y7968990D03*
X29922880Y8099740D03*
X29440090Y8968270D03*
X29401750Y8716760D03*
X29477600Y9217520D03*
X29515180Y9466960D03*
X29620290Y17127700D03*
X29751170Y16914340D03*
X29872910Y16726040D03*
X29483390Y17357650D03*
X29351330Y17574290D03*
X29928750Y18618480D03*
X30100000Y4150000D03*
X30008580Y4691420D03*
X30079290Y4762130D03*
X30008580Y4832840D03*
X30150000D03*
X30079290Y4903550D03*
X30008580Y4974260D03*
X30079290Y4620710D03*
X30220710D03*
X30150000Y4691420D03*
X30291420D03*
X30220710Y4762130D03*
X30150000Y4550000D03*
X30700000Y4850000D03*
X30650000Y4900000D03*
X30600000Y4950000D03*
X30650000Y4750000D03*
X30592060Y4842060D03*
X30550000Y5000000D03*
X30500000Y5050000D03*
X30450000Y5100000D03*
X30400000Y5150000D03*
X30350000Y5200000D03*
X30300000Y5250000D03*
X30565830Y5263100D03*
X30679150Y5284470D03*
X30657790Y5171140D03*
X30323650Y5388750D03*
X30700000Y5750000D03*
X30483650Y9932810D03*
X30381680Y10568090D03*
X30450000Y12300000D03*
X30500000Y12000000D03*
X30550000Y11750000D03*
X30350000Y12800000D03*
X30400000Y12550000D03*
X30200000Y13550000D03*
X30300000Y13050000D03*
X30250000Y13300000D03*
X30000000Y13800000D03*
X30150000D03*
X30009370Y16497310D03*
X30145390Y16269770D03*
X30285910Y16029880D03*
X30525000Y18700000D03*
X30565370Y18578810D03*
X30500000Y19075000D03*
X30575000Y19375000D03*
X30650000Y19800000D03*
X30250000Y19700000D03*
X30800000Y4750000D03*
X30750000Y4800000D03*
X30858580Y5591420D03*
X30787870Y5662130D03*
X30929290D03*
X31000000Y5450000D03*
X30929290Y5520710D03*
X31070710D03*
X31000000Y5591420D03*
X31141420D03*
X31070710Y5662130D03*
X30771110Y5192520D03*
X30850000Y5900000D03*
X30858580Y5732840D03*
X30787870Y5803550D03*
X31000000Y5732840D03*
X30929290Y5803550D03*
X30986020Y9491430D03*
X31128670Y10200990D03*
X31300000Y11200000D03*
X31400000Y11150000D03*
X31050000Y11100000D03*
X31150000Y11050000D03*
X31250000Y11000000D03*
X31350000Y10950000D03*
X31000000Y14300000D03*
X31350000Y17500000D03*
Y17850000D03*
X31000000Y19375000D03*
X30875000Y19175000D03*
X31000000Y19575000D03*
X30975000Y18925000D03*
X32036950Y6607220D03*
X32128910Y6515260D03*
X32150280Y6628590D03*
X31853040Y6791130D03*
X31944990Y6699180D03*
X31966360Y6812510D03*
X32058320Y6720550D03*
X32157020Y8142980D03*
X31650000Y8700000D03*
X31550000Y14050000D03*
X31500000Y14750000D03*
X31702750Y15154650D03*
Y14900650D03*
Y15027650D03*
Y15789650D03*
Y15916650D03*
Y15281650D03*
Y15535650D03*
Y15662650D03*
Y15408650D03*
Y16043650D03*
Y16170650D03*
Y16297650D03*
Y16424650D03*
Y16551650D03*
Y16678650D03*
Y16805650D03*
Y16932650D03*
Y17059650D03*
Y17186650D03*
X31950000Y17750000D03*
Y17650000D03*
Y17550000D03*
X31737100Y17662900D03*
X31750000Y17750000D03*
X31850000D03*
Y17650000D03*
X31750000Y17550000D03*
X31850000D03*
X31750000Y17850000D03*
X31850000D03*
X31650000D03*
X31550000D03*
X31450000D03*
X31650000Y17500000D03*
X31550000D03*
X32242240Y6536640D03*
X32347920Y7890250D03*
X32477970D03*
X32200000Y7937710D03*
X32700000Y8400000D03*
Y8500000D03*
X32900000Y8400000D03*
X32800000D03*
X32900000Y8500000D03*
X32800000D03*
X32600000Y8400000D03*
X32500000D03*
X32600000Y8500000D03*
X32500000D03*
X32700000Y8300000D03*
X32900000D03*
X32800000D03*
X32600000D03*
X32500000D03*
X32200000Y8500000D03*
X32412950Y7985500D03*
X32542990D03*
X32800000Y9300000D03*
X32700000D03*
X32600000D03*
X32500000D03*
X32400000D03*
X32800000Y9400000D03*
X32700000D03*
X32800000Y9500000D03*
X32700000D03*
X32600000Y9400000D03*
X32500000D03*
X32400000D03*
X32600000Y9500000D03*
X32500000D03*
X32400000D03*
X32379670Y9858750D03*
X32444690Y9954000D03*
X32509710Y9858750D03*
X32574740Y9954000D03*
X32347920Y11573250D03*
X32477960D03*
X32608010D03*
X32738060D03*
X32400000Y12000000D03*
X32800000D03*
X32700000D03*
X32600000D03*
X32500000D03*
X32800000Y12100000D03*
X32700000D03*
X32600000D03*
X32500000D03*
X32400000D03*
X32800000Y12200000D03*
X32700000D03*
X32600000D03*
X32500000D03*
X32400000D03*
X32412940Y11668500D03*
X32542990D03*
X32673040D03*
X32803080D03*
X32800000Y12950000D03*
X32700000D03*
X32600000D03*
X32500000D03*
X32400000D03*
X32800000Y13050000D03*
X32700000D03*
X32800000Y13150000D03*
X32700000D03*
X32600000Y13050000D03*
X32500000D03*
X32400000D03*
X32600000Y13150000D03*
X32500000D03*
X32400000D03*
X32379670Y13573500D03*
X32444690Y13668750D03*
X32509710Y13573500D03*
X32574740Y13668750D03*
X32639760Y13573500D03*
X32704790Y13668750D03*
X32769810Y13573500D03*
X32834830Y13668750D03*
X32805350Y15154650D03*
Y15027650D03*
Y14900650D03*
X32900000Y15700000D03*
X32805350Y15662650D03*
Y15916650D03*
Y15535650D03*
Y15408650D03*
Y15281650D03*
Y15789650D03*
Y16678650D03*
Y16551650D03*
Y16424650D03*
Y16297650D03*
Y16170650D03*
Y16043650D03*
Y16932650D03*
Y16805650D03*
Y17186650D03*
Y17313650D03*
X33000010Y17049990D03*
G54D11*
X4068160Y10755520D03*
Y18375520D03*
X4095750Y19320250D03*
X11688160Y341520D03*
X24896160D03*
X32516160Y10755520D03*
Y18375520D03*
X32512000Y19320250D03*
G54D20*
X5884000Y15946130D03*
X5952400Y16134070D03*
X30640800Y10456030D03*
X30709200Y10643970D03*
G54D21*
X6931470Y7219860D03*
X6761700Y7206750D03*
X6818530Y7530140D03*
X7239340Y7380410D03*
X29344980Y19210630D03*
X29822620Y19384290D03*
G54D12*
X5118000Y19352000D03*
G54D30*
X9582150Y4961690D03*
X9517850Y5038310D03*
G54D22*
X6990800Y7543970D03*
X7059200Y7356030D03*
G54D13*
X5719220Y10070940D03*
X5806100Y9832260D03*
X5545480Y10548300D03*
X5632350Y10309620D03*
X5374590Y12279600D03*
Y12025600D03*
Y11771600D03*
Y13041600D03*
Y12787600D03*
Y12533600D03*
Y13803600D03*
Y13549600D03*
Y13295600D03*
Y14311600D03*
Y14057600D03*
Y15073600D03*
Y14819600D03*
Y14565600D03*
X5806150Y16758940D03*
X5719280Y16520260D03*
X5632400Y16281580D03*
X6501080Y7922800D03*
X6587950Y7684120D03*
X6240460Y8638850D03*
X6327330Y8400160D03*
X6414210Y8161480D03*
X6544350Y9289870D03*
X5979840Y9354890D03*
X6066710Y9116210D03*
X6153590Y8877530D03*
X6283740Y10005920D03*
X6370610Y9767230D03*
X6457480Y9528550D03*
X5892970Y9593570D03*
X6023120Y10721960D03*
X6109990Y10483280D03*
X6196860Y10244600D03*
X5882820Y12279420D03*
Y12025420D03*
Y11771420D03*
Y13041420D03*
Y12787420D03*
Y12533420D03*
Y13803420D03*
Y13549420D03*
Y13295420D03*
Y14311420D03*
Y14057420D03*
Y15073420D03*
Y14819420D03*
Y14565420D03*
X6283670Y16584950D03*
X6196800Y16346270D03*
X6109920Y16107590D03*
X6544290Y17301000D03*
X6457420Y17062310D03*
X6370540Y16823630D03*
X6066770Y17474990D03*
X5979900Y17236300D03*
X5893020Y16997620D03*
X6327390Y18191030D03*
X6240520Y17952350D03*
X6153640Y17713670D03*
X6588010Y18907080D03*
X6501130Y18668400D03*
X6414260Y18429710D03*
X7253800Y6354350D03*
X7065590Y7857780D03*
X7152470Y7619100D03*
X6674830Y7445440D03*
X6804970Y8573820D03*
X6891850Y8335140D03*
X6978720Y8096460D03*
X6631230Y9051190D03*
X6718100Y8812510D03*
X6804910Y18017040D03*
X6718040Y17778360D03*
X6631160Y17539680D03*
X7152400Y18971770D03*
X7065530Y18733090D03*
X6978650Y18494410D03*
X6891780Y18255720D03*
X7239270Y19210450D03*
X6761750Y19384440D03*
X6674880Y19145760D03*
X7743610Y5770620D03*
X7906870Y5576050D03*
X7806510Y6486320D03*
X7969780Y6291750D03*
X7417070Y6159770D03*
X7580340Y5965200D03*
X7643240Y6680900D03*
X8396680Y4992320D03*
X8559950Y4797750D03*
X8723210Y4603170D03*
X8459580Y5708020D03*
X8622850Y5513450D03*
X8786120Y5318870D03*
X8070140Y5381470D03*
X8233410Y5186900D03*
X8133050Y6097170D03*
X8296310Y5902600D03*
X9049750Y4214020D03*
X9213020Y4019440D03*
X9376290Y3824870D03*
X9112650Y4929720D03*
X9275920Y4735150D03*
X9439190Y4540570D03*
X8886480Y4408600D03*
X8949390Y5124300D03*
X9765730Y4151420D03*
X9602460Y4345990D03*
X10733460Y2743610D03*
X10953430Y2616610D03*
X10547790Y3437660D03*
X10767760Y3310660D03*
X10987730Y3183660D03*
X10293520Y2997610D03*
X10513490Y2870610D03*
X11647640Y2802660D03*
X11173400Y2489610D03*
X11393370Y2362610D03*
X11613340Y2235610D03*
X11207700Y3056660D03*
X11427670Y2929660D03*
X11833310Y2108610D03*
X12053280Y1981610D03*
X12273250Y1854610D03*
X11867610Y2675660D03*
X12087580Y2548660D03*
X12307550Y2421660D03*
X13153130Y1346610D03*
X12967460Y2040660D03*
X13187430Y1913660D03*
X12493220Y1727610D03*
X12713190Y1600610D03*
X12933160Y1473610D03*
X12527520Y2294660D03*
X12747490Y2167660D03*
X13407400Y1786660D03*
X14636550Y1339330D03*
X14297990Y882950D03*
X14548130Y838850D03*
X14386410Y1383430D03*
X14886690Y1295220D03*
X15136830Y1251110D03*
X14798270Y794740D03*
X15048410Y750630D03*
X15298550Y706530D03*
X15798830Y618310D03*
X16048980Y574210D03*
X15386970Y1207010D03*
X15637110Y1162900D03*
X15887250Y1118790D03*
X15548690Y662420D03*
X16299120Y530100D03*
X16549260Y485990D03*
X16799400Y441890D03*
X16137400Y1074690D03*
X16387540Y1030580D03*
X16637680Y986470D03*
X17049540Y397780D03*
X17299680Y353670D03*
X17549820Y309570D03*
X16887820Y942370D03*
X17137960Y898260D03*
X17388100Y854150D03*
X17638240Y810050D03*
X18784210Y265440D03*
X19034350Y309540D03*
X18696130Y765980D03*
X18946270Y810080D03*
X19284490Y353650D03*
X19534630Y397760D03*
X19196410Y854190D03*
X19446550Y898300D03*
X19696690Y942400D03*
X19784770Y441860D03*
X20034910Y485970D03*
X20285050Y530080D03*
X19946830Y986510D03*
X20196970Y1030620D03*
X20447120Y1074720D03*
X20535200Y574180D03*
X20785340Y618290D03*
X20697260Y1118830D03*
X20947400Y1162940D03*
X21197540Y1207040D03*
X21035480Y662400D03*
X21447680Y1251150D03*
X21697820Y1295260D03*
X21947960Y1339360D03*
X21285620Y706500D03*
X21535760Y750610D03*
X21785900Y794720D03*
X22036040Y838820D03*
X23211090Y1219530D03*
X23431060Y1346530D03*
X22957130Y1659760D03*
X23177100Y1786760D03*
X23397070Y1913760D03*
X23617040Y2040760D03*
X23651030Y1473530D03*
X23871000Y1600530D03*
X24090970Y1727530D03*
X23837010Y2167760D03*
X24056980Y2294760D03*
X24310940Y1854530D03*
X24530910Y1981530D03*
X24750880Y2108530D03*
X24276950Y2421760D03*
X24496920Y2548760D03*
X24716890Y2675760D03*
X24936860Y2802760D03*
X24970850Y2235530D03*
X25190820Y2362530D03*
X25410790Y2489530D03*
X25630760Y2616530D03*
X25156830Y2929760D03*
X25376800Y3056760D03*
X25596770Y3183760D03*
X25850730Y2743530D03*
X25816740Y3310760D03*
X26070700Y2870530D03*
X27044670Y3630180D03*
X26655450Y3956990D03*
X26818720Y4151570D03*
X26981990Y4346140D03*
X27207940Y3824760D03*
X27371210Y4019330D03*
X27534480Y4213910D03*
X27697740Y4408480D03*
X27145260Y4540720D03*
X27308520Y4735290D03*
X27471790Y4929870D03*
X27635060Y5124440D03*
X27798330Y5319020D03*
X27861010Y4603060D03*
X28024280Y4797630D03*
X28187550Y4992210D03*
X28350820Y5186780D03*
X28514080Y5381360D03*
X27961600Y5513590D03*
X28124860Y5708170D03*
X28288130Y5902740D03*
X28451400Y6097320D03*
X28677350Y5575930D03*
X28840620Y5770510D03*
X29003890Y5965090D03*
X29167160Y6159660D03*
X28614670Y6291900D03*
X28777940Y6486470D03*
X29822580Y7206600D03*
X29345060Y7380590D03*
X29431930Y7619270D03*
X29518800Y7857950D03*
X29909450Y7445280D03*
X29996320Y7683960D03*
X29605680Y8096630D03*
X29692550Y8335320D03*
X29779420Y8574000D03*
X29866290Y8812680D03*
X29953170Y9051360D03*
X29953090Y17539850D03*
X29866220Y17778530D03*
X29779350Y18017220D03*
X29692470Y18255900D03*
X29605600Y18494580D03*
X29518730Y18733260D03*
X29431850Y18971940D03*
X29996370Y18906920D03*
X29909490Y19145600D03*
X30083200Y7922640D03*
X30170070Y8161330D03*
X30256940Y8400010D03*
X30343810Y8638690D03*
X30040040Y9290040D03*
X30430690Y8877370D03*
X30517560Y9116050D03*
X30604430Y9354740D03*
X30126910Y9528730D03*
X30213790Y9767410D03*
X30300660Y10006090D03*
X30691310Y9593420D03*
X30387530Y10244770D03*
X30474410Y10483450D03*
X30701500Y11517620D03*
Y11771620D03*
Y12025620D03*
Y12279620D03*
Y12533620D03*
Y12787620D03*
Y13041620D03*
Y13295620D03*
Y13549620D03*
Y13803620D03*
Y14057620D03*
Y14311620D03*
Y14565620D03*
Y14819620D03*
X30561200Y15869080D03*
X30474330Y16107760D03*
X30387460Y16346440D03*
X30300580Y16585120D03*
X30213710Y16823810D03*
X30126840Y17062490D03*
X30039970Y17301170D03*
X30691350Y16997470D03*
X30604480Y17236150D03*
X30517610Y17474830D03*
X30430730Y17713510D03*
X30343860Y17952190D03*
X30256990Y18190880D03*
X30170110Y18429560D03*
X30083240Y18668240D03*
X30778180Y9832100D03*
X30865050Y10070780D03*
X30951930Y10309460D03*
X31209730Y11517440D03*
Y11771440D03*
Y12025440D03*
Y12279440D03*
Y12533440D03*
Y12787440D03*
Y13041440D03*
Y13295440D03*
Y13549440D03*
Y13803440D03*
Y14057440D03*
Y14311440D03*
Y14565440D03*
Y14819440D03*
X31038840Y16042740D03*
X30951970Y16281420D03*
X30865100Y16520100D03*
X30778220Y16758780D03*
G54D31*
X12600000Y2413400D03*
X12700000Y2586600D03*
G54D40*
X20841320Y1749250D03*
X20858680Y1650750D03*
G54D14*
X5549900Y11480800D03*
X5374590Y11517600D03*
X5549900Y11811000D03*
X5882820Y11517420D03*
X30701500Y15073620D03*
X31050000Y15115100D03*
Y14784900D03*
X31209730Y15073440D03*
G54D50*
X28941200Y6681050D03*
X29330420Y6354240D03*
G54D41*
X21962410Y996330D03*
X22287590Y1053670D03*
X22286180Y882930D03*
X22198100Y1383470D03*
G54D23*
X7006030Y8615800D03*
X7193970Y8684200D03*
X29643970Y17934200D03*
X29456030Y17865800D03*
G54D32*
X12893310Y2424990D03*
X12806690Y2475010D03*
G54D33*
X13492980Y1342450D03*
X13373100Y1219610D03*
X13207020Y1507550D03*
X13627370Y1659660D03*
G54D15*
X5727700Y11545900D03*
Y11745900D03*
X30875000Y14850000D03*
Y15050000D03*
G54D42*
X22001520Y1182640D03*
X22198480Y1217360D03*
G54D51*
X28788310Y6817850D03*
X28711690Y6882150D03*
G54D24*
X7232900Y8546990D03*
X7267100Y8453010D03*
X29382900Y18096990D03*
X29417100Y18003010D03*
G54D34*
X13338400Y1625000D03*
X13511600Y1525000D03*
G54D43*
X24850000Y2963400D03*
X24750000Y3136600D03*
G54D52*
X29644750Y19355580D03*
X29755250Y19044420D03*
G54D16*
X5696630Y15948460D03*
X5545530Y16042890D03*
X5809570Y16258740D03*
X6023050Y15868900D03*
X30768530Y10319860D03*
X30561280Y10722140D03*
X30881470Y10630140D03*
X31038800Y10548150D03*
G54D25*
X6732900Y16703010D03*
X6767100Y16796990D03*
G54D26*
X6656030Y16984200D03*
X6843970Y16915800D03*
X29943970Y9565800D03*
X29756030Y9634200D03*
G54D44*
X26242980Y3157550D03*
X25957020Y2992450D03*
X26036710Y3437760D03*
X26290670Y2997530D03*
G54D17*
X5588000Y19652000D03*
Y19052000D03*
G54D35*
X16682640Y1151520D03*
X16717360Y1348480D03*
G54D53*
X29583160Y19055660D03*
X29516840Y19244340D03*
G54D27*
X9493880Y3976470D03*
X9706120Y3723530D03*
X9928990Y3956840D03*
X9539550Y3630290D03*
G54D54*
X31549990Y15050000D03*
X31650010D03*
X31549990Y14900000D03*
X31650010D03*
X31549990Y15150000D03*
X31650010D03*
X31549990Y15550000D03*
X31650010D03*
X31549990Y15450000D03*
X31650010D03*
X31549990Y15300000D03*
X31650010D03*
X33000010Y14900000D03*
X32899990D03*
X33000010Y15050000D03*
X32899990D03*
X33000010Y15150000D03*
X32899990D03*
X33000010Y15300000D03*
X32899990D03*
X33000010Y15400000D03*
X32899990D03*
X33000010Y15550000D03*
X32899990D03*
X33000010Y16050000D03*
X32899990D03*
X33000010Y16200000D03*
X32899990D03*
X33000010Y16300000D03*
X32899990D03*
X33000010Y16450000D03*
X32899990D03*
X33000010Y16550000D03*
X32899990D03*
X33000010Y16700000D03*
X32899990D03*
X33000010Y16800000D03*
X32899990D03*
X33000010Y16950000D03*
X32899990D03*
G54D36*
X16758680Y1599250D03*
X16741320Y1500750D03*
G54D18*
X6100000Y12800000D03*
X6300000D03*
X30550000Y13800000D03*
X30350000D03*
G54D45*
X25938400Y3175000D03*
X26111600Y3275000D03*
G54D37*
X17537410Y478670D03*
X17862590Y421330D03*
X17799960Y265460D03*
X17888380Y765940D03*
G54D19*
X6300000Y12549990D03*
Y12650010D03*
X30350000Y14050010D03*
Y13949990D03*
G54D28*
X9273400Y5035720D03*
X9426600Y5164280D03*
G54D55*
G01X6300000Y12549990D02*
Y12502280D01*
X6200000Y11600000D01*
X5981720Y11517420D01*
X5882820D01*
G01Y12787420D02*
X6022290Y12800000D01*
X6100000D01*
G01X6300000Y12650010D02*
Y12800000D01*
G01X6732900Y16703010D02*
X6716580Y16658180D01*
X6450000Y15950000D01*
X6335070Y15835070D01*
X6115990D01*
X6023050Y15868900D01*
G01X6457420Y17062310D02*
X6583010Y17010780D01*
X6656030Y16984200D01*
G01X7193970Y8684200D02*
X7225680Y8597090D01*
X7232900Y8546990D01*
G01X6804970Y8573820D02*
X6933010Y8589220D01*
X7006030Y8615800D01*
G01X6767100Y16796990D02*
X6774140Y16794430D01*
X6826780Y16818970D01*
X6843970Y16915800D01*
G01X7267100Y8453010D02*
X7283420Y8408180D01*
X7500000Y7600000D01*
X7332280Y7414240D01*
X7239340Y7380410D01*
G01X9112650Y4929720D02*
X9213870Y4985770D01*
X9273400Y5035720D01*
G01X9517850Y5038310D02*
X9523590Y5043120D01*
X9528650Y5100990D01*
X9426600Y5164280D01*
G01X9582150Y4961690D02*
X9612820Y4925140D01*
X10100000Y4300000D01*
X10004750Y4020410D01*
X9928990Y3956840D01*
G01X12893310Y2424990D02*
X12934630Y2401140D01*
X13700000Y2000000D01*
Y1800000D01*
X13676820Y1745310D01*
X13627370Y1659660D01*
G01X12527520Y2294660D02*
X12600000Y2413400D01*
G01X12806690Y2475010D02*
X12765370Y2498860D01*
X12780280Y2540250D01*
X12700000Y2586600D01*
G01X16637680Y986470D02*
X16585550Y1096470D01*
X16667880Y1154120D01*
X16682640Y1151520D01*
G01X16758680Y1599250D02*
X16813040Y1589660D01*
X17850000Y1400000D01*
X17950000Y1300000D01*
X17905550Y863340D01*
X17888380Y765940D01*
G01X16741320Y1500750D02*
X16733040Y1453760D01*
X16730850Y1425010D01*
X16717360Y1348480D01*
G01X20947400Y1162940D02*
X20930850Y1274990D01*
X20917360Y1351520D01*
G01X20841320Y1749250D02*
X20895680Y1758840D01*
X21900000Y2000000D01*
X22100000Y1800000D01*
X22180930Y1480870D01*
X22198100Y1383470D01*
G01X20858680Y1650750D02*
X20882640Y1548480D01*
G01X24936860Y2802760D02*
X24888850Y2896100D01*
X24850000Y2963400D01*
G01X26036710Y3437760D02*
X25987260Y3523410D01*
X25948850Y3565370D01*
X25925000Y3606690D01*
G01X25875000Y3693310D02*
X25792830Y3937690D01*
G01X28124860Y5708170D02*
X28036130Y5785770D01*
X27976600Y5835720D01*
G01X28788310Y6817850D02*
X28824860Y6787180D01*
X28865440Y6744620D01*
X28941200Y6681050D01*
G01X28711690Y6882150D02*
X28699080Y6850930D01*
G01X30126910Y9528730D02*
X30016990Y9539220D01*
X29943970Y9565800D01*
G01X29779350Y18017220D02*
X29681320Y18039380D01*
X29638840Y17948290D01*
X29643970Y17934200D01*
G01X29417100Y18003010D02*
X29424140Y18005570D01*
X29476780Y17981030D01*
X29493380Y17970980D01*
X29450900Y17879890D01*
X29456030Y17865800D01*
G01X31209730Y14565440D02*
X31375170Y14400000D01*
X31500000D01*
X31700000Y14200000D01*
Y11550000D01*
X31500000Y11350000D01*
X30450000D01*
X30300000Y11200000D01*
Y10332300D01*
X30387530Y10244770D01*
G01X30701500Y13803620D02*
X30621070Y13886060D01*
X30550000Y13814990D01*
Y13800000D01*
G01X30350000Y13949990D02*
Y13800000D01*
G01X30700000Y19000000D02*
X30606920Y18906920D01*
X29996370D01*
G01X31209730Y14565440D02*
X31450000Y14805710D01*
Y17550000D01*
X30700000Y18300000D01*
Y19000000D01*
G01X31000000Y19575000D02*
X30875000D01*
X30700000Y19400000D01*
Y19000000D01*
X32254050Y14744650D03*
Y17467650D03*
G54D46*
X25925000Y3606690D03*
X25875000Y3693310D03*
G54D56*
G01X5756180Y11517420D02*
X5727700Y11545900D01*
G01X5513100Y11517600D02*
X5549900Y11480800D01*
G01X5545530Y16042890D02*
X5602200D01*
X5696630Y15948460D01*
G01X6023050Y15868900D02*
X5961230D01*
X5884000Y15946130D01*
G01X7239340Y7380410D02*
X7083580D01*
X7059200Y7356030D01*
G01X6761700Y7206750D02*
X6918360D01*
X6931470Y7219860D01*
G01X9539550Y3630290D02*
X9612880D01*
X9706120Y3723530D01*
G01X9928990Y3956840D02*
X9872720D01*
X9789280Y3873400D01*
G01X13373100Y1219610D02*
Y1222570D01*
X13492980Y1342450D01*
G01X13627370Y1659660D02*
Y1640770D01*
X13511600Y1525000D01*
G01X17799960Y265460D02*
X17862590Y421330D01*
G01X17888380Y765940D02*
X17823480Y607640D01*
G01X22286180Y882930D02*
X22287590Y1053670D01*
G01X22198100Y1383470D02*
X22198480Y1217360D01*
G01X26036710Y3437760D02*
X26111600Y3275000D01*
G01X26290670Y2997530D02*
X26242980Y3157550D01*
G01X28941200Y6681050D02*
X29064280Y6551600D01*
G01X29330420Y6354240D02*
X29229930Y6502470D01*
G01X29382900Y18096990D02*
X29285610Y18194280D01*
Y19083320D01*
X29344980Y19210630D01*
G01D02*
X29516840Y19244340D01*
G01X29822620Y19384290D02*
X29644750Y19355580D01*
G01X30561280Y10722140D02*
X30709200Y10643970D01*
G01X30350000Y14050010D02*
Y14722120D01*
X30701500Y15073620D01*
G01X30575000Y19375000D02*
X30500000Y19075000D01*
G01X31038800Y10548150D02*
X30881470Y10630140D01*
G01X33000010Y16050000D02*
Y15620200D01*
G54D38*
X17823480Y607640D03*
X17626520Y642360D03*
G54D47*
X27823400Y5964280D03*
X27976600Y5835720D03*
G54D29*
X9660720Y4026600D03*
X9789280Y3873400D03*
G54D57*
G01X4068160Y10337720D02*
Y10755520D01*
G01D02*
Y11173320D01*
G01Y10755520D02*
X4485960D01*
G01X4068160Y17957720D02*
Y18375520D01*
G01D02*
Y18793320D01*
G01X3650360Y18375520D02*
X4068160D01*
G01D02*
X4485960D01*
G01X5000200Y19352000D02*
X5118000D01*
G01X5374590Y11677600D02*
Y11771600D01*
G01D02*
Y11865600D01*
G01X5280590Y11771600D02*
X5374590D01*
G01X5549900Y11717000D02*
Y11811000D01*
G01D02*
Y11905000D01*
G01X5727700Y11673090D02*
Y11745900D01*
G01D02*
Y11818710D01*
G01X5374590Y12279600D02*
X5573200Y12279980D01*
G01X5050000Y12500000D02*
X5374590Y12533600D01*
G01X5632400Y16187580D02*
Y16281580D01*
G01D02*
Y16375580D01*
G01X5538400Y16281580D02*
X5632400D01*
G01X5699210Y17058950D02*
X5893020Y16997620D01*
G01X5118000Y19084200D02*
Y19352000D01*
G01D02*
Y19619800D01*
G01Y19352000D02*
X5235800D01*
G01X5588000Y19534200D02*
Y19652000D01*
G01D02*
Y19769800D01*
G01X5320200Y19652000D02*
X5588000D01*
G01D02*
X5855800D01*
G01X6010720Y8042820D02*
X6414210Y8161480D01*
G01X6457480Y9528550D02*
X6834260Y9683920D01*
G01X6370610Y9767230D02*
X6703370Y9897360D01*
G01X6283740Y10005920D02*
X6571240Y10114180D01*
G01X6196860Y10244600D02*
X6439780Y10329170D01*
G01X6109990Y10483280D02*
X6283640Y10611970D01*
G01X5882820Y11677420D02*
Y11771420D01*
G01D02*
Y11865420D01*
G01Y11771420D02*
X5976820D01*
G01X6750000Y12800000D02*
X6300000D01*
G01X5882820Y13041420D02*
X5891400Y13050000D01*
X6450000D01*
G01X5882820Y13549420D02*
X5883400Y13550000D01*
X6350000D01*
G01X5882820Y13295420D02*
X5887400Y13300000D01*
X6400000D01*
G01X5882820Y13803420D02*
X5886240Y13800000D01*
X6300000D01*
G01X5882820Y14057420D02*
X5890240Y14050000D01*
X6250000D01*
G01X5882820Y14311420D02*
X5894240Y14300000D01*
X6200000D01*
G01X5882820Y14565420D02*
X5898240Y14550000D01*
X6150000D01*
G01X6100310Y14850000D02*
X6008660D01*
X5978080Y14819420D01*
X5882820D01*
G01X6109920Y16013590D02*
Y16107590D01*
G01D02*
Y16201590D01*
G01Y16107590D02*
X6203920D01*
G01X5927500Y16065650D02*
X5952400Y16134070D01*
G01D02*
X5977300Y16202490D01*
G01X5809570Y16258740D02*
X5897900Y16226590D01*
G01X5777420Y16170410D02*
X5809570Y16258740D01*
G01D02*
X5841720Y16347070D01*
G01X7152470Y7525100D02*
Y7619100D01*
G01D02*
Y7713100D01*
G01Y7619100D02*
X7246470D01*
G01X6965900Y7612390D02*
X6990800Y7543970D01*
G01D02*
X7015700Y7475550D01*
G01X6674830Y7351440D02*
Y7445440D01*
G01D02*
Y7539440D01*
G01X6580830Y7445440D02*
X6674830D01*
G01X6786380Y7618470D02*
X6818530Y7530140D01*
G01D02*
X6850680Y7441810D01*
G01X6765720Y7905160D02*
X6739900Y8009630D01*
G01X6718100Y8812510D02*
X7242710Y9000280D01*
G01X6544350Y9289870D02*
X6972680Y9449820D01*
G01X6631230Y9051190D02*
X7107510Y9225570D01*
G01X7587360Y8787540D02*
X7263570Y8709530D01*
X7193970Y8684200D01*
G01X6544290Y17301000D02*
X7047740D01*
X7106160Y17242580D01*
G01X7266990Y16767110D02*
X6913570Y16890470D01*
X6843970Y16915800D01*
G01X6718040Y17778360D02*
X7128600D01*
X7177100Y17729860D01*
G01X6804910Y18017040D02*
X7144620D01*
X7206050Y17955610D01*
G01X6891780Y18255720D02*
X7107590D01*
X7220850Y18142460D01*
G01X6631160Y17539680D02*
X7109270D01*
X7147260Y17501690D01*
G01X6978650Y18494410D02*
X7174310D01*
X7263340Y18405380D01*
G01X7065530Y18733090D02*
X7211310D01*
X7297890Y18646510D01*
G01X7152400Y18971770D02*
X7313490D01*
X7349840Y18935420D01*
G01X7806510Y6486320D02*
X7960590Y6630510D01*
G01X8500460Y4117430D02*
X8886480Y4408600D01*
G01X8622850Y5513450D02*
X8930910Y5863060D01*
G01X8459580Y5708020D02*
X8737820Y6015390D01*
G01X8296310Y5902600D02*
X8539030Y6174510D01*
G01X8133050Y6097170D02*
X8348210Y6324130D01*
G01X7969780Y6291750D02*
X8140360Y6494050D01*
G01X9421870Y3916050D02*
X9493880Y3976470D01*
G01X9376290Y3730870D02*
Y3824870D01*
G01D02*
Y3918870D01*
G01X9282290Y3824870D02*
X9376290D01*
G01D02*
X9470290D01*
G01X9270320Y4400310D02*
X9439190Y4540570D01*
G01X8949390Y5124300D02*
X9336160Y5535660D01*
G01X8786120Y5318870D02*
X9140730Y5690790D01*
G01X9698310Y5382620D02*
X9483340Y5211890D01*
X9426600Y5164280D01*
G01X9765730Y4057420D02*
Y4151420D01*
G01D02*
Y4245420D01*
G01X9671730Y4151420D02*
X9765730D01*
G01D02*
X9859730D01*
G01X9433460Y4048480D02*
X9493880Y3976470D01*
G01D02*
X9554300Y3904460D01*
G01X9493880Y3976470D02*
X9565890Y4036890D01*
G01X9613920Y4082380D02*
X9660720Y4026600D01*
G01D02*
X9707520Y3970820D01*
G01X10767760Y3310660D02*
X10854550Y3503590D01*
G01X11270360Y341520D02*
X11688160D01*
G01X11427670Y2929660D02*
X11593240Y3250310D01*
G01X11207700Y3056660D02*
X11349630Y3333220D01*
G01X10987730Y3183660D02*
X11103480Y3417610D01*
G01X11688160Y-76280D02*
Y341520D01*
G01D02*
Y759320D01*
G01Y341520D02*
X12105960D01*
G01X12262560Y1291230D02*
X12493220Y1727610D01*
G01X12558220Y2924120D02*
X12307550Y2421660D01*
G01X11867610Y2675660D02*
X12079090Y3085280D01*
G01X12087580Y2548660D02*
X12332950Y2996450D01*
G01X11647640Y2802660D02*
X11835720Y3168050D01*
G01X13059130Y1346610D02*
X13153130D01*
G01X12886870Y1900410D02*
X12713190Y1600610D01*
G01X12855060Y2908950D02*
X12737030Y2650750D01*
X12700000Y2586600D01*
G01X13153130Y1252610D02*
Y1346610D01*
G01X13407400Y1692660D02*
Y1786660D01*
G01D02*
Y1880660D01*
G01X13313400Y1786660D02*
X13407400D01*
G01D02*
X13501400D01*
G01X13275340Y1661410D02*
X13338400Y1625000D01*
G01D02*
X13401460Y1588590D01*
G01X13153130Y1346610D02*
X13247130D01*
G01X13125610Y1554550D02*
X13207020Y1507550D01*
G01D02*
X13288430Y1460550D01*
G01X15193660Y1594120D02*
X15136830Y1251110D01*
G01X14939660Y1588140D02*
X14886690Y1295220D01*
G01X14668090Y1585250D02*
X14636550Y1339330D01*
G01X15953600Y1612440D02*
X15887250Y1118790D01*
G01X15701680Y1606090D02*
X15637110Y1162900D01*
G01X15466830Y1596720D02*
X15386970Y1207010D01*
G01X16737290Y-63570D02*
X16799400Y441890D01*
G01X16486670Y1619980D02*
X16387540Y1030580D01*
G01X16232420Y1614040D02*
X16137400Y1074690D01*
G01X16608330Y1655500D02*
Y1367710D01*
X16717360Y1348480D01*
G01X17455820Y309570D02*
X17549820D01*
G01X17444840Y494990D02*
X17537410Y478670D01*
G01X17117000Y786680D02*
X17049540Y397780D01*
G01X17549820Y215570D02*
Y309570D01*
G01D02*
X17643820D01*
G01X17537410Y478670D02*
X17629980Y462350D01*
G01X17638240Y810050D02*
Y904050D01*
G01X17544240Y810050D02*
X17638240D01*
G01D02*
X17732240D01*
G01X17554820Y655000D02*
X17626520Y642360D01*
G01D02*
X17698220Y629720D01*
G01X18899940Y1026430D02*
X18946270Y810080D01*
G01X19631440Y1307730D02*
X19696690Y942400D01*
G01X19371590Y1211140D02*
X19446550Y898300D01*
G01X19151790Y1121610D02*
X19196410Y854190D01*
G01X20098560Y1491630D02*
X20196970Y1030620D01*
G01X19858610Y1398560D02*
X19946830Y986510D01*
G01X20342560Y1585430D02*
X20447120Y1074720D01*
G01X20570340Y1676370D02*
X20697260Y1118830D01*
G01X21059140Y1326580D02*
Y1437840D01*
X20897400Y1551080D01*
X20882640Y1548480D01*
G01X21416200Y169010D02*
X21285620Y706500D01*
G01X21869840Y980010D02*
X21962410Y996330D01*
G01X21554790Y601740D02*
X21535760Y750610D01*
G01X21853960Y1339360D02*
X21947960D01*
G01X22036040Y744820D02*
Y838820D01*
G01X21942040D02*
X22036040D01*
G01D02*
X22130040D01*
G01X21929820Y1170000D02*
X22001520Y1182640D01*
G01D02*
X22073220Y1195280D01*
G01X21946090Y1088900D02*
X21962410Y996330D01*
G01D02*
X22054980Y1012650D01*
G01X21947960Y1339360D02*
Y1433360D01*
G01Y1339360D02*
X22041960D01*
G01X23252990Y2125890D02*
X23397070Y1913760D01*
G01X23129550Y1996890D02*
X23177100Y1786760D01*
G01X24038540Y2810370D02*
X24276950Y2421760D01*
G01X23860490Y2649850D02*
X24056980Y2294760D01*
G01X23648220Y2469540D02*
X23837010Y2167760D01*
G01X23469000Y2308340D02*
X23617040Y2040760D01*
G01X24478360Y341520D02*
X24896160D01*
G01X24432930Y3153540D02*
X24716890Y2675760D01*
G01X24247330Y2988650D02*
X24496920Y2548760D01*
G01X25792830Y3937690D02*
X24827130Y3181130D01*
X24750000Y3136600D01*
G01X24896160Y-76280D02*
Y341520D01*
G01D02*
Y759320D01*
G01Y341520D02*
X25313960D01*
G01X25721320Y2440620D02*
X25630760Y2616530D01*
G01X25875340Y3138600D02*
X25938400Y3175000D01*
G01D02*
X26001460Y3211400D01*
G01X26070700Y2776530D02*
Y2870530D01*
G01X25976700D02*
X26070700D01*
G01D02*
X26164700D01*
G01X25910020Y3073860D02*
X25957020Y2992450D01*
G01X25875610Y2945450D02*
X25957020Y2992450D01*
G01D02*
X26038430Y3039450D01*
G01X25816740Y3216760D02*
Y3310760D01*
G01D02*
Y3404760D01*
G01X25722740Y3310760D02*
X25816740D01*
G01D02*
X25910740D01*
G01X26049450Y3750710D02*
X27162010Y2322360D01*
G01X27367300Y2251780D02*
X27350000Y2325000D01*
X26124510Y4000600D01*
G01X27253970Y2230410D02*
X27250000Y2300000D01*
X26049100Y3876130D01*
G01X26125880Y3873910D02*
X27275340Y2343740D01*
G01X26223400Y4464280D02*
X26000000Y4100000D01*
X25792830Y3937690D01*
G01X26696820Y4319540D02*
X26818720Y4151570D01*
G01X26920820Y4742070D02*
X27145260Y4540720D01*
G01X26788220Y4506250D02*
X26981990Y4346140D01*
G01X27186030Y5213700D02*
X27471790Y4929870D01*
G01X27052530Y4976820D02*
X27308520Y4735290D01*
G01X27296120Y5422690D02*
X27635060Y5124440D01*
G01X27407650Y5633390D02*
X27798330Y5319020D01*
G01X27545040Y5874920D02*
X27961600Y5513590D01*
G01X28598050Y5978250D02*
X28451400Y6097320D01*
G01X28699080Y6850930D02*
X27880650Y6032500D01*
X27823400Y5964280D01*
G01X28878570Y5447990D02*
X28677350Y5575930D01*
G01X29167160Y6065660D02*
Y6159660D01*
G01D02*
Y6253660D01*
G01Y6159660D02*
X29261160D01*
G01X28960330Y6174950D02*
X29020070Y6247530D01*
G01D02*
X29079810Y6320110D01*
G01X28777940Y6392470D02*
Y6486470D01*
G01X28888920Y6342620D02*
X28935720Y6398400D01*
G01D02*
X28982520Y6454180D01*
G01X28777940Y6486470D02*
Y6580470D01*
G01X28683940Y6486470D02*
X28777940D01*
G01D02*
X28871940D01*
G01X32128910Y6515260D02*
X31900000Y6275000D01*
X28847990Y7276440D01*
G01X32242240Y6536640D02*
X31925000Y6225000D01*
X28847360Y7193580D01*
G01X32347920Y7890250D02*
Y6572920D01*
X31923030Y6148030D01*
X30359350Y6635750D01*
X29906240Y6182640D01*
X29817360D01*
X29000000Y7000000D01*
X28848150D01*
X28699080Y6850930D01*
G01X32036950Y6607220D02*
X31800000Y6400000D01*
X28832190Y7446350D01*
G01X32150280Y6628590D02*
X31800000Y6350000D01*
X28851020Y7374400D01*
G01X32542990Y7985500D02*
X32450000Y8078490D01*
Y8850000D01*
X31900000Y9400000D01*
X30800000D01*
X29750000Y9800000D01*
G02X29682110Y10499850I698351J420962D01*
G01X29968120Y11285660D01*
G03X30050000Y11750000I-1275762J464352D01*
G01Y15050000D01*
G03X29850000Y15800000I-4327948J-752453D01*
G01X29158910Y17698760D01*
X29205390Y17779510D01*
X29386430Y17840470D01*
X29456030Y17865800D01*
G01X29289220Y7968990D02*
X29518800Y7857950D01*
G01X29257180Y7649300D02*
X29431930Y7619270D01*
G01X31853040Y6791130D02*
X31900000Y6838090D01*
Y7000000D01*
X31618650Y7281350D01*
X29971580D01*
X29900000Y7300000D01*
X29500000Y7450000D01*
G01X29796820Y7899570D02*
X30021270Y7800000D01*
X31300000D01*
X32050000Y7050000D01*
Y6800000D01*
X31944990Y6699180D01*
G01X31966360Y6812510D02*
Y7033640D01*
X31460690Y7539310D01*
X30036110D01*
X29663540Y7679590D01*
G01X29401750Y8716760D02*
X29779420Y8574000D01*
G01X29364690Y8468720D02*
X29692550Y8335320D01*
G01X29315910Y8188520D02*
X29605680Y8096630D01*
G01X32058320Y6720550D02*
X32150000Y6812230D01*
Y7050000D01*
X31200000Y8000000D01*
X30240680D01*
X29922880Y8099740D01*
G01X29515180Y9466960D02*
X30040040Y9290040D01*
G01X29440090Y8968270D02*
X29866290Y8812680D01*
G01X29477600Y9217520D02*
X29953170Y9051360D01*
G01X32477970Y7890250D02*
X32432250D01*
X32300000Y8022500D01*
Y8550000D01*
X31900000Y8950000D01*
X30650000D01*
X29500000Y9350000D01*
G02X29397850Y9863520I372047J340928D01*
G01X29920620Y11299830D01*
G03X30000000Y11750000I-1236833J450179D01*
G01Y13800000D01*
G01X32412950Y7985500D02*
Y8687050D01*
X31914650Y9185350D01*
X30726310D01*
X29984410Y9457380D01*
X29800000D01*
X29725570Y9531810D01*
Y9550510D01*
X29756030Y9634200D01*
G01X29620290Y17127700D02*
X30039970Y17301170D01*
G01X29751170Y16914340D02*
X30126840Y17062490D01*
G01X29872910Y16726040D02*
X30213710Y16823810D01*
G01X29483390Y17357650D02*
X29953090Y17539850D01*
G01X29351330Y17574290D02*
X29866220Y17778530D01*
G01X29431850Y18877940D02*
Y18971940D01*
G01X29928750Y18618480D02*
X30083240Y18668240D01*
G01X29909490Y19051600D02*
Y19145600D01*
G01D02*
Y19239600D01*
G01Y19145600D02*
X30003490D01*
G01X29723790Y19133000D02*
X29755250Y19044420D01*
G01D02*
X29786710Y18955840D01*
G01X29666670Y19012960D02*
X29755250Y19044420D01*
G01X29431850Y18971940D02*
Y19065940D01*
G01X29337850Y18971940D02*
X29431850D01*
G01X29559010Y19124350D02*
X29583160Y19055660D01*
G01D02*
X29607310Y18986970D01*
G01X30483650Y9932810D02*
X30778180Y9832100D01*
G01X30474410Y10389450D02*
Y10483450D01*
G01D02*
Y10577450D01*
G01X30380410Y10483450D02*
X30474410D01*
G01X30615900Y10387610D02*
X30640800Y10456030D01*
G01D02*
X30665700Y10524450D01*
G01X30680200Y10352010D02*
X30768530Y10319860D01*
G01X30381680Y10568090D02*
Y10731680D01*
X30500000Y10850000D01*
X31950010D01*
X32300010Y11200000D01*
X32750000D01*
X32900000Y11350000D01*
Y11700000D01*
X32874040Y11725960D01*
X32776720D01*
X32738060Y11687300D01*
Y11573250D01*
G01X30450000Y12300000D02*
X30701500Y12279620D01*
G01X30500000Y12000000D02*
X30701500Y12025620D01*
G01X30550000Y11750000D02*
X30701500Y11771620D01*
G01X30350000Y12800000D02*
X30701500Y12787620D01*
G01X30400000Y12550000D02*
X30701500Y12533620D01*
G01Y13549620D02*
X30535620D01*
X30535490Y13549750D01*
X30200000Y13550000D01*
G01X30300000Y13050000D02*
X30701500Y13041620D01*
G01X30250000Y13300000D02*
X30701500Y13295620D01*
G01X30150000Y13800000D02*
X30350000D01*
G01X30607500Y14819620D02*
X30701500D01*
G01X30009370Y16497310D02*
X30300580Y16585120D01*
G01X30145390Y16269770D02*
X30387460Y16346440D01*
G01X30285910Y16029880D02*
X30474330Y16107760D01*
G01X30565370Y18578810D02*
X30170110Y18429560D01*
G01X30986020Y9491430D02*
X30691310Y9593420D01*
G01X30951930Y10215460D02*
Y10309460D01*
G01D02*
Y10403460D01*
G01Y10309460D02*
X31045930D01*
G01X30736380Y10231530D02*
X30768530Y10319860D01*
G01D02*
X30800680Y10408190D01*
G01X31128670Y10200990D02*
X31227680Y10300000D01*
X32850000D01*
X32950000Y10400000D01*
Y11750000D01*
X32900000Y11800000D01*
X32700000D01*
X32673040Y11773040D01*
Y11668500D01*
G01X31300000Y11200000D02*
X31600000D01*
X31800000Y11400000D01*
Y11600000D01*
X31950000Y11750000D01*
X32437300D01*
X32462700Y11724600D01*
Y11643970D01*
X32391980Y11573250D01*
X32347920D01*
G01X32412940Y11668500D02*
X31968500D01*
X31850000Y11550000D01*
Y11350000D01*
X31650000Y11150000D01*
X31400000D01*
G01X31050000Y11100000D02*
X31750000D01*
X32150000Y11500000D01*
X32450000D01*
X32477960Y11527960D01*
Y11573250D01*
G01X32542990Y11668500D02*
Y11607010D01*
X32550000Y11600000D01*
Y11550000D01*
X32500000Y11500000D01*
Y11450000D01*
X32450000Y11400000D01*
X32150000D01*
X31800000Y11050000D01*
X31150000D01*
G01X32608010Y11573250D02*
Y11358010D01*
X32550000Y11300000D01*
X32200000D01*
X31900000Y11000000D01*
X31250000D01*
G01X32803080Y11668500D02*
Y11353080D01*
X32700000Y11250000D01*
X32250000D01*
X31950000Y10950000D01*
X31350000D01*
G01X31000000Y14300000D02*
X31209730Y14311440D01*
G01X31550000Y14050000D02*
X31209730Y14057440D01*
G01Y14725440D02*
Y14819440D01*
G01D02*
Y14913440D01*
G01Y14819440D02*
X31303730D01*
G01X30701500Y14725620D02*
Y14819620D01*
G01D02*
Y14913620D01*
G01X31050000Y14690900D02*
Y14784900D01*
G01D02*
Y14878900D01*
G01X30875000Y14777190D02*
Y14850000D01*
G01D02*
Y14922810D01*
G01X32098360Y10755520D02*
X32516160D01*
G01X32379670Y13573500D02*
X32076500D01*
X31850000Y13800000D01*
Y15642400D01*
X31702750Y15789650D01*
G01X32444690Y13668750D02*
X32081250D01*
X31925000Y13825000D01*
Y15694400D01*
X31702750Y15916650D01*
G01X32509710Y13573500D02*
Y13690290D01*
X32475000Y13725000D01*
X32125000D01*
X31975000Y13875000D01*
Y15771400D01*
X31702750Y16043650D01*
G01X32574740Y13668750D02*
Y13725270D01*
X32525010Y13775000D01*
X32175000D01*
X32025000Y13925000D01*
Y15848400D01*
X31702750Y16170650D01*
G01Y16297650D02*
X32075000Y15925400D01*
Y13975000D01*
X32225000Y13825000D01*
X32580800D01*
X32639760Y13766040D01*
Y13573500D01*
G01X31702750Y16424650D02*
X32125000Y16002400D01*
Y14000000D01*
X32250000Y13875000D01*
X32645100D01*
X32704790Y13815310D01*
Y13668750D01*
G01X31650010Y15150000D02*
X31654660Y15154650D01*
X31702750D01*
G01X31650010Y14900000D02*
X31650660Y14900650D01*
X31702750D01*
G01X31650010Y15050000D02*
X31658820Y15058810D01*
X31671590D01*
X31702750Y15027650D01*
G01X31650010Y15300000D02*
X31684400D01*
X31702750Y15281650D01*
G01X31650010Y15550000D02*
X31688400D01*
X31702750Y15535650D01*
G01X31650010Y15450000D02*
X31661400D01*
X31702750Y15408650D01*
G01Y16551650D02*
X32175000Y16079400D01*
Y14025000D01*
X32275000Y13925000D01*
X32684000D01*
X32769810Y13839190D01*
Y13573500D01*
G01X31702750Y16678650D02*
X32300000Y16081400D01*
Y14025000D01*
X32350000Y13975000D01*
X32735600D01*
X32834830Y13875770D01*
Y13668750D01*
G01X31702750Y16805650D02*
X32350000Y16158400D01*
Y14125000D01*
X32450000Y14025000D01*
X32775000D01*
X32900000Y13900000D01*
Y11950000D01*
X33000000Y11850000D01*
Y10350000D01*
X32900000Y10250000D01*
X32525000D01*
X32379670Y10104670D01*
Y9858750D01*
G01X32444690Y9954000D02*
Y10094690D01*
X32550000Y10200000D01*
X32950000D01*
X33050000Y10300000D01*
Y11875000D01*
X32950000Y11975000D01*
Y13925000D01*
X32800000Y14075000D01*
X32475000D01*
X32400000Y14150000D01*
Y16235400D01*
X31702750Y16932650D01*
G01X32509710Y9858750D02*
Y10084710D01*
X32575000Y10150000D01*
X32975000D01*
X33100000Y10275000D01*
Y11925000D01*
X33000000Y12025000D01*
Y13950000D01*
X32825000Y14125000D01*
X32550000D01*
X32475000Y14200000D01*
Y16525000D01*
X31940350Y17059650D01*
X31702750D01*
G01Y17186650D02*
X31992960D01*
X32525000Y16654610D01*
Y14250000D01*
X32600000Y14175000D01*
X32875000Y14175010D01*
X33050000Y14000010D01*
Y12050000D01*
X33150000Y11950000D01*
Y10249990D01*
X33000010Y10100000D01*
X32625000D01*
X32574740Y10049740D01*
Y9954000D01*
G01X32098360Y18375520D02*
X32516160D01*
G01Y10337720D02*
Y10755520D01*
G01D02*
Y11173320D01*
G01X32899990Y15150000D02*
X32895340Y15154650D01*
X32805350D01*
G01X32899990Y15050000D02*
X32891180Y15058810D01*
X32836510D01*
X32805350Y15027650D01*
G01X32899990Y14900000D02*
X32899340Y14900650D01*
X32805350D01*
G01X32899990Y15550000D02*
X32885640Y15535650D01*
X32805350D01*
G01X32899990Y15400000D02*
X32891340Y15408650D01*
X32805350D01*
G01X32899990Y15300000D02*
X32887180Y15312810D01*
X32836510D01*
X32805350Y15281650D01*
G01X32899990Y16700000D02*
X32890180Y16709810D01*
X32836510D01*
X32805350Y16678650D01*
G01X32899990Y16550000D02*
X32898340Y16551650D01*
X32805350D01*
G01Y16424650D02*
X32874640D01*
X32899990Y16450000D01*
G01X32805350Y16297650D02*
X32853570D01*
X32855920Y16300000D01*
X32899990D01*
G01Y16200000D02*
X32898180Y16201810D01*
X32836510D01*
X32805350Y16170650D01*
G01X32899990Y16050000D02*
X32893640Y16043650D01*
X32805350D01*
G01X32899990Y16950000D02*
X32886180Y16963810D01*
X32836510D01*
X32805350Y16932650D01*
G01X32899990Y16800000D02*
X32894340Y16805650D01*
X32805350D01*
G01X32516160Y17957720D02*
Y18375520D01*
G01D02*
Y18793320D01*
G01Y18375520D02*
X32933960D01*
G54D39*
X20917360Y1351520D03*
X20882640Y1548480D03*
G54D48*
X29229930Y6502470D03*
X29020070Y6247530D03*
G54D58*
G01X5806100Y9832260D02*
X6283740Y10005920D01*
G01X5719220Y10070940D02*
X6196860Y10244600D01*
G01X5632350Y10309620D02*
X6109990Y10483280D01*
G01X5545480Y10548300D02*
X6023120Y10721960D01*
G01X5374590Y11517600D02*
X5513100D01*
G01D02*
X5513490D01*
X5743920Y11517420D01*
X5756180D01*
G01D02*
X5882820D01*
G01Y11771420D02*
X5374590Y11771600D01*
G01Y12025600D02*
X5882820Y12025420D01*
G01X5374590Y12279600D02*
X5882820Y12279420D01*
G01Y13041420D02*
X5374590Y13041600D01*
G01Y12787600D02*
X5882820Y12787420D01*
G01Y12533420D02*
X5374590Y12533600D01*
G01X5882820Y13549420D02*
X5374590Y13549600D01*
G01Y13295600D02*
X5882820Y13295420D01*
G01X5374590Y13803600D02*
X5882820Y13803420D01*
G01X5374590Y14057600D02*
X5882820Y14057420D01*
G01Y14311420D02*
X5374590Y14311600D01*
G01Y14565600D02*
X5882820Y14565420D01*
G01Y14819420D02*
X5374590Y14819600D01*
G01Y15073600D02*
X5882820Y15073420D01*
G01X5545530Y16042890D02*
X5676050Y15995380D01*
X5892530Y15916410D01*
X6023050Y15868900D01*
G01X5632400Y16281580D02*
X6109920Y16107590D01*
G01X5719280Y16520260D02*
X6196800Y16346270D01*
G01X5806150Y16758940D02*
X6283670Y16584950D01*
G01X6501080Y7922800D02*
X6739900Y8009630D01*
G01X6240460Y8638850D02*
X6718100Y8812510D01*
G01X6414210Y8161480D02*
X6891850Y8335140D01*
G01X6327330Y8400160D02*
X6804970Y8573820D01*
G01X6066710Y9116210D02*
X6544350Y9289870D01*
G01X5979840Y9354890D02*
X6457480Y9528550D01*
G01X6153590Y8877530D02*
X6631230Y9051190D01*
G01X5892970Y9593570D02*
X6370610Y9767230D01*
G01X6066770Y17474990D02*
X6544290Y17301000D01*
G01X5979900Y17236300D02*
X6457420Y17062310D01*
G01X5893020Y16997620D02*
X6370540Y16823630D01*
G01X6240520Y17952350D02*
X6718040Y17778360D01*
G01X6327390Y18191030D02*
X6804910Y18017040D01*
G01X6153640Y17713670D02*
X6631160Y17539680D01*
G01X6414260Y18429710D02*
X6891780Y18255720D01*
G01X6501130Y18668400D02*
X6978650Y18494410D01*
G01X7253800Y6354350D02*
X7643240Y6680900D01*
G01X6761700Y7206750D02*
X6892220Y7254260D01*
X7108820Y7332900D01*
X7239340Y7380410D01*
G01X6674830Y7445440D02*
X7152470Y7619100D01*
G01X6587950Y7684120D02*
X7065590Y7857780D01*
G01X6739900Y8009630D02*
X6978720Y8096460D01*
G01X6588010Y18907080D02*
X7065530Y18733090D01*
G01X6674880Y19145760D02*
X7152400Y18971770D01*
G01X6761750Y19384440D02*
X7239270Y19210450D01*
G01X7906870Y5576050D02*
X8296310Y5902600D01*
G01X7743610Y5770620D02*
X8133050Y6097170D01*
G01X7580340Y5965200D02*
X7969780Y6291750D01*
G01X7417070Y6159770D02*
X7806510Y6486320D01*
G01X8559950Y4797750D02*
X8949390Y5124300D01*
G01X8396680Y4992320D02*
X8786120Y5318870D01*
G01X8723210Y4603170D02*
X9112650Y4929720D01*
G01X8233410Y5186900D02*
X8622850Y5513450D01*
G01X8070140Y5381470D02*
X8459580Y5708020D01*
G01X9376290Y3824870D02*
X9765730Y4151420D01*
G01X9213020Y4019440D02*
X9602460Y4345990D01*
G01X9439190Y4540570D02*
X9049750Y4214020D01*
G01X8886480Y4408600D02*
X9275920Y4735150D01*
G01X9539550Y3630290D02*
X9645950Y3719570D01*
X9822590Y3867560D01*
X9928990Y3956840D01*
G01X10953430Y2616610D02*
X11207700Y3056660D01*
G01X10733460Y2743610D02*
X10987730Y3183660D01*
G01X10513490Y2870610D02*
X10767760Y3310660D01*
G01X10293520Y2997610D02*
X10547790Y3437660D01*
G01X11613340Y2235610D02*
X11867610Y2675660D01*
G01X11393370Y2362610D02*
X11647640Y2802660D01*
G01X11173400Y2489610D02*
X11427670Y2929660D01*
G01X12053280Y1981610D02*
X12307550Y2421660D01*
G01X12273250Y1854610D02*
X12527520Y2294660D01*
G01X11833310Y2108610D02*
X12087580Y2548660D01*
G01X13153130Y1346610D02*
X13407400Y1786660D01*
G01X12933160Y1473610D02*
X13187430Y1913660D01*
G01X12493220Y1727610D02*
X12747490Y2167660D01*
G01X12967460Y2040660D02*
X12713190Y1600610D01*
G01X13373100Y1219610D02*
X13442550Y1339900D01*
X13557920Y1539370D01*
X13627370Y1659660D01*
G01X14548130Y838850D02*
X14636550Y1339330D01*
G01X14297990Y882950D02*
X14386410Y1383430D01*
G01X15298550Y706530D02*
X15386970Y1207010D01*
G01X15048410Y750630D02*
X15136830Y1251110D01*
G01X14798270Y794740D02*
X14886690Y1295220D01*
G01X16048980Y574210D02*
X16137400Y1074690D01*
G01X15798830Y618310D02*
X15887250Y1118790D01*
G01X15548690Y662420D02*
X15637110Y1162900D01*
G01X16299120Y530100D02*
X16387540Y1030580D01*
G01X16549260Y485990D02*
X16637680Y986470D01*
G01X16799400Y441890D02*
X16887820Y942370D01*
G01X17299680Y353670D02*
X17388100Y854150D01*
G01X17137960Y898260D02*
X17049540Y397780D01*
G01X17799960Y265460D02*
X17824080Y402250D01*
X17864260Y629150D01*
X17888380Y765940D01*
G01X17549820Y309570D02*
X17638240Y810050D01*
G01X19034350Y309540D02*
X18946270Y810080D01*
G01X18784210Y265440D02*
X18696130Y765980D01*
G01X19534630Y397760D02*
X19446550Y898300D01*
G01X19284490Y353650D02*
X19196410Y854190D01*
G01X19784770Y441860D02*
X19696690Y942400D01*
G01X20285050Y530080D02*
X20196970Y1030620D01*
G01X20034910Y485970D02*
X19946830Y986510D01*
G01X20535200Y574180D02*
X20447120Y1074720D01*
G01X20785340Y618290D02*
X20697260Y1118830D01*
G01X21035480Y662400D02*
X20947400Y1162940D01*
G01X21285620Y706500D02*
X21197540Y1207040D01*
G01X21785900Y794720D02*
X21697820Y1295260D01*
G01X21535760Y750610D02*
X21447680Y1251150D01*
G01X22286180Y882930D02*
X22262060Y1019720D01*
X22222220Y1246680D01*
X22198100Y1383470D01*
G01X21947960Y1339360D02*
X22036040Y838820D01*
G01X23211090Y1219530D02*
X22957130Y1659760D01*
G01X23651030Y1473530D02*
X23397070Y1913760D01*
G01X23431060Y1346530D02*
X23177100Y1786760D01*
G01X24090970Y1727530D02*
X23837010Y2167760D01*
G01X23871000Y1600530D02*
X23617040Y2040760D01*
G01X24056980Y2294760D02*
X24310940Y1854530D01*
G01X24276950Y2421760D02*
X24530910Y1981530D01*
G01X24716890Y2675760D02*
X24970850Y2235530D01*
G01X24496920Y2548760D02*
X24750880Y2108530D01*
G01X25190820Y2362530D02*
X24936860Y2802760D01*
G01X25156830Y2929760D02*
X25410790Y2489530D01*
G01X25630760Y2616530D02*
X25376800Y3056760D01*
G01X25596770Y3183760D02*
X25850730Y2743530D01*
G01X26290670Y2997530D02*
X26221220Y3117820D01*
X26106160Y3317470D01*
X26036710Y3437760D01*
G01X26070700Y2870530D02*
X25816740Y3310760D01*
G01X26818720Y4151570D02*
X27207940Y3824760D01*
G01X26655450Y3956990D02*
X27044670Y3630180D01*
G01X26981990Y4346140D02*
X27371210Y4019330D01*
G01X27145260Y4540720D02*
X27534480Y4213910D01*
G01X27471790Y4929870D02*
X27861010Y4603060D01*
G01X27308520Y4735290D02*
X27697740Y4408480D01*
G01X27635060Y5124440D02*
X28024280Y4797630D01*
G01X28187550Y4992210D02*
X27798330Y5319020D01*
G01X27961600Y5513590D02*
X28350820Y5186780D01*
G01X28514080Y5381360D02*
X28124860Y5708170D01*
G01X28288130Y5902740D02*
X28677350Y5575930D01*
G01X28451400Y6097320D02*
X28840620Y5770510D01*
G01X28941200Y6681050D02*
X29047600Y6591770D01*
X29224020Y6443520D01*
X29330420Y6354240D01*
G01X28777940Y6486470D02*
X29167160Y6159660D01*
G01X28614670Y6291900D02*
X29003890Y5965090D01*
G01X29345060Y7380590D02*
X29822580Y7206600D01*
G01X29518800Y7857950D02*
X29996320Y7683960D01*
G01X29431930Y7619270D02*
X29909450Y7445280D01*
G01X29779420Y8574000D02*
X30256940Y8400010D01*
G01X29692550Y8335320D02*
X30170070Y8161330D01*
G01X29605680Y8096630D02*
X30083200Y7922640D01*
G01X29866290Y8812680D02*
X30343810Y8638690D01*
G01X29953170Y9051360D02*
X30430690Y8877370D01*
G01X29866220Y17778530D02*
X30343860Y17952190D01*
G01X29953090Y17539850D02*
X30430730Y17713510D01*
G01X29779350Y18017220D02*
X30256990Y18190880D01*
G01X29518730Y18733260D02*
X29996370Y18906920D01*
G01X29692470Y18255900D02*
X30170110Y18429560D01*
G01X29605600Y18494580D02*
X30083240Y18668240D01*
G01X29344980Y19210630D02*
X29475500Y19258140D01*
X29692100Y19336780D01*
X29822620Y19384290D01*
G01X29431850Y18971940D02*
X29909490Y19145600D01*
G01X30040040Y9290040D02*
X30517560Y9116050D01*
G01X30126910Y9528730D02*
X30604430Y9354740D01*
G01X30213790Y9767410D02*
X30691310Y9593420D01*
G01X30778180Y9832100D02*
X30300660Y10006090D01*
G01X30561280Y10722140D02*
X30691800Y10674630D01*
X30908280Y10595660D01*
X31038800Y10548150D01*
G01X30474410Y10483450D02*
X30951930Y10309460D01*
G01X30387530Y10244770D02*
X30865050Y10070780D01*
G01X31209730Y11517440D02*
X30701500Y11517620D01*
G01X31209730Y12279440D02*
X30701500Y12279620D01*
G01X31209730Y12025440D02*
X30701500Y12025620D01*
G01X31209730Y11771440D02*
X30701500Y11771620D01*
G01X31209730Y13041440D02*
X30701500Y13041620D01*
G01X31209730Y12787440D02*
X30701500Y12787620D01*
G01X31209730Y12533440D02*
X30701500Y12533620D01*
G01X31209730Y13549440D02*
X31070830D01*
X31070650Y13549620D01*
X30701500D01*
G01X31209730Y13295440D02*
X30701500Y13295620D01*
G01X31209730Y13803440D02*
X30701500Y13803620D01*
G01X31209730Y14311440D02*
X30701500Y14311620D01*
G01X31209730Y14057440D02*
X30701500Y14057620D01*
G01X31209730Y14819440D02*
X30701500Y14819620D01*
G01X31209730Y14565440D02*
X30701500Y14565620D01*
G01X30561200Y15869080D02*
X31038840Y16042740D01*
G01X30300580Y16585120D02*
X30778220Y16758780D01*
G01X30387460Y16346440D02*
X30865100Y16520100D01*
G01X30474330Y16107760D02*
X30951970Y16281420D01*
G01X30039970Y17301170D02*
X30517610Y17474830D01*
G01X30126840Y17062490D02*
X30604480Y17236150D01*
G01X30213710Y16823810D02*
X30691350Y16997470D01*
G54D49*
X28935720Y6398400D03*
X29064280Y6551600D03*
G54D59*
G01X3369660Y7471570D02*
G03X3741640Y6573550I1269998J10D01*
G01X3369660Y18693020D02*
Y7471570D01*
G01X4639660Y19963020D02*
G03X3369660Y18693020I0J-1270000D01*
G01X3741640Y6573550D02*
X10617690Y-302510D01*
G01X7878160Y19963020D02*
X4639660D01*
G01X8513160Y19212950D02*
G03X28071160I9779000J-5917432D01*
G01X8513160Y19328020D02*
G03X7878160Y19963020I-635000J0D01*
G01X8513160Y19212960D02*
Y19328020D01*
G01X10617690Y-302510D02*
G03X11515710Y-674480I898021J898030D01*
G01D02*
X25068610D01*
G01D02*
G03X25966640Y-302510I8J1270002D01*
G01D02*
X32842690Y6573550D01*
G01X28706160Y19963020D02*
G03X28071160Y19328020I0J-635000D01*
G01D02*
Y19212960D01*
G01X31944660Y19963020D02*
X28706160D01*
G01X33214660Y18693020D02*
G03X31944660Y19963020I-1270000J0D01*
G01X32842690Y6573550D02*
G03X33214660Y7471570I-898029J898021D01*
G01D02*
Y18693020D01*
M02*
