G04 ================== begin FILE IDENTIFICATION RECORD ==================*
G04 Layout Name:  C:/Users/labadmin/Downloads/ww10-exchange/Interconnector V0.brd*
G04 Film Name:    BOTTOM*
G04 File Format:  Gerber RS274X*
G04 File Origin:  Cadence Allegro 17.4-S007*
G04 Origin Date:  Wed Aug 26 17:57:21 2020*
G04 *
G04 Layer:  VIA KEEPOUT/ALL*
G04 Layer:  VIA KEEPOUT/BOTTOM*
G04 Layer:  VIA KEEPOUT/TOP*
G04 Layer:  VIA CLASS/BOTTOM*
G04 Layer:  ROUTE KEEPOUT/ALL*
G04 Layer:  ROUTE KEEPOUT/BOTTOM*
G04 Layer:  ROUTE KEEPOUT/TOP*
G04 Layer:  ROUTE KEEPIN/ALL*
G04 Layer:  PIN/BOTTOM*
G04 Layer:  PACKAGE KEEPOUT/ALL*
G04 Layer:  PACKAGE KEEPOUT/TOP*
G04 Layer:  PACKAGE KEEPOUT/BOTTOM*
G04 Layer:  PACKAGE KEEPIN/ALL*
G04 Layer:  ANALYSIS/LOW_ISOCONTOUR*
G04 Layer:  ANALYSIS/MEDIUM1_ISOCONTOUR*
G04 Layer:  ANALYSIS/MEDIUM2_ISOCONTOUR*
G04 Layer:  ANALYSIS/MEDIUM3_ISOCONTOUR*
G04 Layer:  ANALYSIS/HIGH_ISOCONTOUR*
G04 Layer:  ANALYSIS/PCB_TEMPERATURE*
G04 Layer:  ETCH/BOTTOM*
G04 Layer:  BOARD GEOMETRY/OUTLINE*
G04 *
G04 Offset:    (0.000 0.000)*
G04 Mirror:    No*
G04 Mode:      Positive*
G04 Rotation:  0*
G04 FullContactRelief:  No*
G04 UndefLineWidth:     0.100*
G04 ================== end FILE IDENTIFICATION RECORD ====================*
%FSLAX25Y25*MOMM*%
%IR0*IPPOS*OFA0.00000B0.00000*MIA0B0*SFA1.00000B1.00000*%
%ADD11R,16.X3.*%
%ADD12C,1.5*%
%ADD10C,5.08*%
%ADD14C,.2*%
%ADD13C,.61*%
%ADD15C,.1*%
%ADD16C,.127*%
%ADD17C,5.338*%
%ADD20C,1.758*%
%ADD19C,.61*%
%ADD18C,.868*%
G75*
%LPD*%
G75*
G36*
G01X-584100Y-4586000D02*
G03X-597000Y-4573100I-12900J0D01*
G01X-2194200D01*
Y891100D01*
X-597000D01*
G03X-584100Y904000I0J12900D01*
G01Y1204000D01*
G03X-597000Y1216900I-12900J0D01*
G01X-2194200D01*
Y3180000D01*
X2480400D01*
Y-1349000D01*
G02X2465700Y-1358100I-10189J35D01*
G03X2407500Y-1377700I-19300J-38900D01*
G01X1234400D01*
X1125500Y-1486600D01*
Y-3839800D01*
X1041400Y-3923900D01*
X-1041400D01*
X-1174600Y-3790700D01*
X-1311200D01*
X-1312200Y-3786900D01*
G03Y-3833100I-84800J-23100D01*
G01X-1311200Y-3829300D01*
X-1190600D01*
X-1187500Y-3832400D01*
G02X-1195900Y-3849700I-7211J-7188D01*
G03X-1266100Y-4001600I-10607J-87269D01*
G02X-1273000Y-4019300I-6910J-7501D01*
G01X-1327600D01*
X-1568200Y-3778700D01*
Y-3768800D01*
X-1564400Y-3767800D01*
G03X-1610600I-23100J84800D01*
G01X-1606800Y-3768800D01*
Y-3794700D01*
X-1569200Y-3832300D01*
G02X-1577500Y-3849700I-7175J-7257D01*
G03X-1500200Y-3927000I-10000J-87300D01*
G02X-1482800Y-3918700I10143J1125D01*
G01X-1367800Y-4033700D01*
G02X-1375000Y-4051100I-7214J-7204D01*
G01X-1645600D01*
X-1697900Y-3998800D01*
Y-3633200D01*
X-1640000Y-3575300D01*
X-1482800D01*
X-1481800Y-3579100D01*
G03Y-3532900I84800J23100D01*
G01X-1482800Y-3536700D01*
X-1656000D01*
X-1736500Y-3617200D01*
Y-4014800D01*
X-1661600Y-4089700D01*
X1184500D01*
X1291300Y-3982900D01*
Y-1757000D01*
X1378000Y-1670300D01*
X2279900D01*
G03Y-1631700I38900J19300D01*
G01X1362000D01*
X1252700Y-1741000D01*
Y-3966900D01*
X1168500Y-4051100D01*
X-946400D01*
G02X-953600Y-4033700I14J10196D01*
G01X-946000Y-4026100D01*
X1136200D01*
X1227700Y-3934600D01*
Y-1597900D01*
X1282300Y-1543300D01*
X2343700D01*
G03Y-1504700I38900J19300D01*
G01X1266300D01*
X1189100Y-1581900D01*
Y-3918600D01*
X1120200Y-3987500D01*
X-962000D01*
X-993800Y-4019300D01*
X-1140000D01*
G02X-1146900Y-4001600I10J10199D01*
G03X-1119200Y-3926400I-59576J64647D01*
G02X-1101900Y-3918000I10112J1189D01*
G01X-1057400Y-3962500D01*
X1057400D01*
X1164100Y-3855800D01*
Y-1502600D01*
X1250400Y-1416300D01*
X2407500D01*
G03X2465700Y-1435900I38900J19300D01*
G02X2480400Y-1445000I4511J-9135D01*
G01Y-5851200D01*
X2166100D01*
G02X2161300Y-5832000I26J10206D01*
G03X1909100I-126100J235200D01*
G02X1904300Y-5851200I-4826J-8994D01*
G01X-1665000D01*
G02X-1669100Y-5831700I36J10189D01*
G03X-1886900I-108900J243700D01*
G02X-1891000Y-5851200I-4136J-9311D01*
G01X-2194200D01*
Y-4898900D01*
X-597000D01*
G03X-584100Y-4886000I0J12900D01*
G01Y-4586000D01*
G37*
%LPC*%
G75*
G36*
G01X-931200Y-3833100D02*
G02Y-3786900I-84800J23100D01*
G01X-930200Y-3790700D01*
X474900D01*
X616700Y-3648900D01*
Y-2917600D01*
X807500Y-2726800D01*
Y-2707300D01*
G03X790600Y-2699700I-10183J-53D01*
G02Y-2634300I-28600J32700D01*
G03X807500Y-2626700I6717J7653D01*
G01Y-2580300D01*
G03X790600Y-2572700I-10183J-53D01*
G02X723100Y-2559300I-28593J32680D01*
G01X429000D01*
X203300Y-2333600D01*
Y119200D01*
X-39800Y362300D01*
X-1261400D01*
X-1322700Y301100D01*
X-1320700Y297700D01*
G02X-1353300Y330300I-76300J-43700D01*
G01X-1349900Y328300D01*
X-1301600Y376700D01*
G03X-1308800Y394100I-7214J7204D01*
G01X-1518400D01*
X-1570700Y341800D01*
Y231600D01*
X-1568200Y229100D01*
Y212800D01*
X-1564400Y211800D01*
G02X-1612900Y211100I-23031J-84809D01*
G01X-1609300Y212200D01*
Y357800D01*
X-1534400Y432700D01*
X-19600D01*
X267300Y145800D01*
Y-2307000D01*
X354000Y-2393700D01*
X723100D01*
G02X790600Y-2380300I38907J-19280D01*
G03X807500Y-2372700I6717J7653D01*
G01Y-2326300D01*
G03X790600Y-2318700I-10183J-53D01*
G02X723100Y-2305300I-28593J32680D01*
G01X497200D01*
X330500Y-2138600D01*
Y151000D01*
X17400Y464100D01*
X-1671000D01*
X-1736100Y399000D01*
Y46200D01*
X-1709200Y19300D01*
X-1482800D01*
X-1481800Y23100D01*
G02Y-23100I84800J-23100D01*
G01X-1482800Y-19300D01*
X-1725200D01*
X-1744100Y-400D01*
G03X-1761500Y-7600I-7204J-7214D01*
G01Y-55400D01*
X-1709200Y-107700D01*
X-1673300D01*
X-1672300Y-103900D01*
G02Y-150100I84800J-23100D01*
G01X-1673300Y-146300D01*
X-1725200D01*
X-1800100Y-71400D01*
Y425600D01*
X-1697600Y528100D01*
X44000D01*
X394600Y177500D01*
Y148500D01*
X394500Y-2084400D01*
X449800Y-2139700D01*
X723100D01*
G02X790600Y-2126300I38907J-19280D01*
G03X807500Y-2118700I6717J7653D01*
G01Y-2072300D01*
G03X790600Y-2064700I-10183J-53D01*
G02X723100Y-2051300I-28593J32680D01*
G01X561200D01*
X425900Y-1916000D01*
Y182800D01*
X49200Y559500D01*
X-1702800D01*
X-1825100Y437200D01*
Y-151000D01*
X-1741000Y-235100D01*
X-1499500D01*
X-1499100Y-234700D01*
X-1482800D01*
X-1481800Y-230900D01*
G02X-1481700Y-277400I84806J-23068D01*
G01X-1482800Y-273700D01*
X-1757000D01*
X-1839500Y-191200D01*
G03X-1856900Y-198400I-7204J-7214D01*
G01Y-278300D01*
X-1773500Y-361700D01*
X-1673300D01*
X-1672300Y-357900D01*
G02Y-404100I84800J-23100D01*
G01X-1673300Y-400300D01*
X-1789500D01*
X-1895500Y-294300D01*
Y457400D01*
X-1729200Y623700D01*
X-1674800Y623500D01*
X75800D01*
X490000Y209300D01*
Y180300D01*
X489900Y-1798200D01*
X577400Y-1885700D01*
X723100D01*
G02X790600Y-1872300I38907J-19280D01*
G03X807500Y-1864700I6717J7653D01*
G01Y-1818300D01*
G03X790600Y-1810700I-10183J-53D01*
G02X723100Y-1797300I-28593J32680D01*
G01X593400D01*
X521300Y-1725200D01*
Y214600D01*
X87400Y648500D01*
X-1772800D01*
X-1920500Y500800D01*
Y-437200D01*
X-1868200Y-489500D01*
X-1499900D01*
X-1499100Y-488700D01*
X-1482800D01*
X-1481800Y-484900D01*
G02X-1481600Y-531800I84804J-23089D01*
G01X-1482700Y-528100D01*
X-1884200D01*
X-1928500Y-483800D01*
G03X-1945900Y-491000I-7204J-7214D01*
G01Y-507200D01*
X-1837400Y-615700D01*
X-1673300D01*
X-1672300Y-611900D01*
G02Y-658100I84800J-23100D01*
G01X-1673300Y-654300D01*
X-1853400D01*
X-1984500Y-523200D01*
Y527400D01*
X-1799400Y712500D01*
X76800D01*
X76900Y712600D01*
X113900D01*
X585300Y241200D01*
Y-1607400D01*
X609600Y-1631700D01*
X723100D01*
G02X790600Y-1618300I38907J-19280D01*
G03X807500Y-1610700I6717J7653D01*
G01Y-1437300D01*
G03X790600Y-1429700I-10183J-53D01*
G02Y-1364300I-28600J32700D01*
G03X807500Y-1356700I6717J7653D01*
G01Y-1215800D01*
X775900Y-1184200D01*
X773100Y-1185000D01*
G02X804000Y-1154100I-11100J42000D01*
G01X803200Y-1156900D01*
X846100Y-1199800D01*
Y-2742800D01*
X655300Y-2933600D01*
Y-3664900D01*
X490900Y-3829300D01*
X-930200D01*
X-931200Y-3833100D01*
G37*
G36*
G01X-175100Y-1355800D02*
X-172300Y-1355000D01*
G02X-203200Y-1385900I11100J-42000D01*
G01X-202400Y-1383100D01*
X-241900Y-1343600D01*
Y-1216400D01*
X-326000Y-1132300D01*
X-675800D01*
X-930200Y-877900D01*
X-1089200D01*
X-1102800Y-864300D01*
G03X-1120000Y-873400I-7172J-7248D01*
G02X-1190900Y-802500I-86500J-15600D01*
G03X-1181800Y-785300I1852J10028D01*
G01X-1185800Y-781300D01*
X-1311200D01*
X-1312200Y-785100D01*
G02Y-738900I-84800J23100D01*
G01X-1311200Y-742700D01*
X-1169800D01*
X-1118000Y-794500D01*
G03X-1100900Y-784700I7238J7188D01*
G02X-951900Y-822100I84896J22718D01*
G03X-944400Y-839300I7436J-6993D01*
G01X-914200D01*
X-659800Y-1093700D01*
X-310000D01*
X-203300Y-1200400D01*
Y-1327600D01*
X-175100Y-1355800D01*
G37*
G36*
G01X-1119400Y-3163200D02*
G02X-1194700Y-3087900I-87100J-11800D01*
G03X-1186100Y-3070600I1376J10104D01*
G01X-1189400Y-3067300D01*
X-1311200D01*
X-1312200Y-3071100D01*
G02Y-3024900I-84800J23100D01*
G01X-1311200Y-3028700D01*
X-1173400D01*
X-1116500Y-3085600D01*
G03X-1099600Y-3075300I7205J7193D01*
G02X-1043300Y-3131600I83600J27300D01*
G03X-1053600Y-3148500I-3107J-9695D01*
G01X-1041400Y-3160700D01*
X279100D01*
G02Y-3199300I38900J-19300D01*
G01X-1057400D01*
X-1102100Y-3154600D01*
G03X-1119400Y-3163200I-7196J-7224D01*
G37*
G36*
G01X1800100Y-4778000D02*
X1693400Y-4884700D01*
X-166900D01*
X-516700Y-4534900D01*
X-2011400D01*
X-2181700Y-4364600D01*
Y-2345100D01*
X-1976300Y-2139700D01*
X-1673300D01*
X-1672300Y-2135900D01*
G02Y-2182100I84800J-23100D01*
G01X-1673300Y-2178300D01*
X-1960300D01*
X-2143100Y-2361100D01*
Y-4348600D01*
X-1995400Y-4496300D01*
X-500700D01*
X-150900Y-4846100D01*
X1677400D01*
X1761500Y-4762000D01*
Y-2567800D01*
X1808600Y-2520700D01*
X1865100D01*
G02Y-2559300I38900J-19300D01*
G01X1824600D01*
X1800100Y-2583800D01*
Y-2622500D01*
G03X1816000Y-2631000I10204J-33D01*
G02Y-2703000I24200J-36000D01*
G03X1800100Y-2711500I-5696J-8467D01*
G01Y-4778000D01*
G37*
G36*
G01X1736500Y-4714400D02*
X1629800Y-4821100D01*
X-135200D01*
X-485000Y-4471300D01*
X-1979600D01*
X-2118100Y-4332800D01*
Y-2567900D01*
X-1943900Y-2393700D01*
X-1673300D01*
X-1672300Y-2389900D01*
G02Y-2436100I84800J-23100D01*
G01X-1673300Y-2432300D01*
X-1927900D01*
X-2079500Y-2583900D01*
Y-4316800D01*
X-1963600Y-4432700D01*
X-469000D01*
X-119200Y-4782500D01*
X1613800D01*
X1697900Y-4698400D01*
Y-2504200D01*
X1808400Y-2393700D01*
X1897100D01*
G02Y-2432300I38900J-19300D01*
G01X1824400D01*
X1736500Y-2520200D01*
Y-4714400D01*
G37*
G36*
G01X1672900Y-4650800D02*
X1566200Y-4757500D01*
X-103300D01*
X-453100Y-4407700D01*
X-1947800D01*
X-2054500Y-4301000D01*
Y-2790400D01*
X-1911800Y-2647700D01*
X-1673300D01*
X-1672300Y-2643900D01*
G02Y-2690100I84800J-23100D01*
G01X-1673300Y-2686300D01*
X-1895800D01*
X-2015900Y-2806400D01*
Y-4285000D01*
X-1931800Y-4369100D01*
X-437100D01*
X-87300Y-4718900D01*
X1550200D01*
X1634300Y-4634800D01*
Y-2377000D01*
X1744600Y-2266700D01*
X1960900D01*
G02Y-2305300I38900J-19300D01*
G01X1760600D01*
X1672900Y-2393000D01*
Y-4650800D01*
G37*
G36*
G01X1633200Y-2178300D02*
X1577500Y-2234000D01*
Y-2631400D01*
X1609300Y-2663200D01*
Y-4587200D01*
X1502600Y-4693900D01*
X-71600D01*
X-421400Y-4344100D01*
X-1884200D01*
X-1990900Y-4237400D01*
Y-3076600D01*
X-1816000Y-2901700D01*
X-1673300D01*
X-1672300Y-2897900D01*
G02Y-2944100I84800J-23100D01*
G01X-1673300Y-2940300D01*
X-1800000D01*
X-1952300Y-3092600D01*
Y-4221400D01*
X-1868200Y-4305500D01*
X-405400D01*
X-55600Y-4655300D01*
X1486600D01*
X1570700Y-4571200D01*
Y-2679200D01*
X1538900Y-2647400D01*
Y-2218000D01*
X1617200Y-2139700D01*
X2024700D01*
G02Y-2178300I38900J-19300D01*
G01X1633200D01*
G37*
G36*
G01X1475300Y-2090800D02*
X1553400Y-2012700D01*
X2088500D01*
G02Y-2051300I38900J-19300D01*
G01X1569400D01*
X1513900Y-2106800D01*
Y-2695000D01*
X1545700Y-2726800D01*
Y-4555500D01*
X1470900Y-4630300D01*
X-39700D01*
X-389500Y-4280500D01*
X-1820600D01*
X-1927400Y-4173700D01*
X-1927100Y-3975000D01*
Y-3306700D01*
X-1776100Y-3155700D01*
X-1673300D01*
X-1672300Y-3151900D01*
G02Y-3198100I84800J-23100D01*
G01X-1673300Y-3194300D01*
X-1760100D01*
X-1888500Y-3322700D01*
Y-3975000D01*
X-1888800Y-4157700D01*
X-1804600Y-4241900D01*
X-373500D01*
X-23700Y-4591700D01*
X1454900D01*
X1507100Y-4539500D01*
Y-2742800D01*
X1475300Y-2711000D01*
Y-2090800D01*
G37*
G36*
G01X1534100Y-1959400D02*
X1450300Y-2043200D01*
Y-2726800D01*
X1482100Y-2758600D01*
Y-4491900D01*
X1407300Y-4566700D01*
X-7900D01*
X-357700Y-4216900D01*
X-1756900D01*
X-1870100Y-4103700D01*
Y-3441400D01*
X-1711400Y-3282700D01*
X-1482800D01*
X-1481800Y-3278900D01*
G02Y-3325100I84800J-23100D01*
G01X-1482800Y-3321300D01*
X-1695400D01*
X-1831500Y-3457400D01*
Y-4087700D01*
X-1740900Y-4178300D01*
X-341700D01*
X8100Y-4528100D01*
X1391300D01*
X1443500Y-4475900D01*
Y-2774600D01*
X1411700Y-2742800D01*
Y-2027200D01*
X1518100Y-1920800D01*
X2137900D01*
G03X2148000Y-1909500I-25J10186D01*
G02X2180100Y-1947000I43193J4484D01*
G01X2177300Y-1946200D01*
X2164100Y-1959400D01*
X1534100D01*
G37*
G36*
G01X1470800Y-1831900D02*
X1386700Y-1916000D01*
Y-2758600D01*
X1418500Y-2790400D01*
Y-4046500D01*
X1311700Y-4153300D01*
X-1693400D01*
X-1800100Y-4046600D01*
Y-3489900D01*
X-1719900Y-3409700D01*
X-1673300D01*
X-1672300Y-3405900D01*
G02Y-3452100I84800J-23100D01*
G01X-1673300Y-3448300D01*
X-1703900D01*
X-1761500Y-3505900D01*
Y-4030600D01*
X-1677400Y-4114700D01*
X1295700D01*
X1379900Y-4030500D01*
Y-3113500D01*
G03X1366400Y-3103900I-10181J-24D01*
G02Y-3046100I-9900J28900D01*
G03X1379900Y-3036500I3319J9624D01*
G01Y-2806400D01*
X1348100Y-2774600D01*
Y-1900000D01*
X1454800Y-1793300D01*
X1692900D01*
X1693400Y-1793800D01*
X2201700D01*
G03X2211800Y-1782500I-25J10186D01*
G02X2243900Y-1820000I43193J4484D01*
G01X2241100Y-1819200D01*
X2227900Y-1832400D01*
X1677400D01*
X1676900Y-1831900D01*
X1470800D01*
G37*
G36*
G01X469900Y-3575300D02*
X-930200D01*
X-931200Y-3579100D01*
G02Y-3532900I-84800J23100D01*
G01X-930200Y-3536700D01*
X469900D01*
G02Y-3575300I38900J-19300D01*
G37*
G36*
G01X782500Y-3426400D02*
X844700Y-3488600D01*
X847500Y-3487800D01*
G02X816600Y-3518700I11100J-42000D01*
G01X817400Y-3515900D01*
X743900Y-3442400D01*
Y-2917600D01*
X871100Y-2790400D01*
Y-1025400D01*
X775900Y-930200D01*
X773100Y-931000D01*
G02X804000Y-900100I-11100J42000D01*
G01X803200Y-902900D01*
X909700Y-1009400D01*
Y-2806400D01*
X782500Y-2933600D01*
Y-3426400D01*
G37*
G36*
G01X406300Y-3448300D02*
X-1120700D01*
X-1121700Y-3452100D01*
G02Y-3405900I-84800J23100D01*
G01X-1120700Y-3409700D01*
X406300D01*
G02Y-3448300I38900J-19300D01*
G37*
G36*
G01X934700Y-962000D02*
X775900Y-803200D01*
X773100Y-804000D01*
G02X804000Y-773100I-11100J42000D01*
G01X803200Y-775900D01*
X973300Y-946000D01*
Y-2933700D01*
X877900Y-3029100D01*
Y-3362800D01*
X902900Y-3387800D01*
X905700Y-3387000D01*
G02X874800Y-3417900I11100J-42000D01*
G01X875600Y-3415100D01*
X839300Y-3378800D01*
Y-3013100D01*
X934700Y-2917700D01*
Y-962000D01*
G37*
G36*
G01X342700Y-3321300D02*
X-930200D01*
X-931200Y-3325100D01*
G02Y-3278900I-84800J23100D01*
G01X-930200Y-3282700D01*
X342700D01*
G02Y-3321300I38900J-19300D01*
G37*
G36*
G01X994500Y-3260800D02*
X998300Y-3257000D01*
Y-3226300D01*
X980500Y-3208500D01*
Y-3094300D01*
X998300Y-3076500D01*
Y-771200D01*
X882400Y-655300D01*
X800400D01*
G02X800900Y-615700I-38389J20288D01*
G01X819600D01*
X820600Y-616700D01*
X898400D01*
X1036900Y-755200D01*
Y-3092500D01*
X1019100Y-3110300D01*
Y-3130300D01*
G03X1033100Y-3139800I10204J-28D01*
G02X1053900Y-3136800I16412J-40182D01*
G03X1065200Y-3126700I1114J10125D01*
G01Y-647300D01*
X945200Y-527300D01*
X800900D01*
G02Y-488700I-38900J19300D01*
G01X961200D01*
X1103800Y-631300D01*
Y-3152900D01*
X1090600Y-3166100D01*
X1091400Y-3168900D01*
G02X1047500Y-3223400I-41982J-11115D01*
G03X1036900Y-3233500I-417J-10175D01*
G01Y-3273000D01*
X1021800Y-3288100D01*
X1022600Y-3290900D01*
G02X991700Y-3260000I-42000J-11100D01*
G01X994500Y-3260800D01*
G37*
G54D17*
X2035200Y2800000D03*
X-1778000D03*
G54D20*
X-1016000Y254000D03*
X-1206500Y127000D03*
X-1016000Y0D03*
X-1206500Y-127000D03*
X-1016000Y-254000D03*
X-1206500Y-381000D03*
X-1016000Y-508000D03*
X-1206500Y-635000D03*
X-1016000Y-1016000D03*
X-1206500Y-1143000D03*
X-1016000Y-1270000D03*
X-1206500Y-1397000D03*
X-1016000Y-1524000D03*
X-1206500Y-1651000D03*
X-1397000Y-1016000D03*
Y-1270000D03*
Y-1524000D03*
X-1016000Y-1778000D03*
X-1206500Y-1905000D03*
X-1016000Y-2032000D03*
X-1206500Y-2159000D03*
X-1016000Y-2286000D03*
X-1206500Y-2413000D03*
X-1397000Y-1778000D03*
Y-2032000D03*
Y-2286000D03*
X-1016000Y-2540000D03*
X-1206500Y-2667000D03*
X-1016000Y-2794000D03*
X-1206500Y-2921000D03*
X-1397000Y-2540000D03*
Y-2794000D03*
X-1206500Y-3683000D03*
X-1587500Y-889000D03*
Y-1143000D03*
Y-1397000D03*
Y-1651000D03*
Y-1905000D03*
G54D19*
X1356500Y-352000D03*
G54D18*
X1871600Y-2921000D03*
X762000Y-1016000D03*
%LPD*%
G75*
G36*
G01X445000Y-2520700D02*
X374000Y-2449700D01*
G02X381200Y-2432300I7214J7204D01*
G01X723100D01*
G03X790600Y-2445700I38907J19280D01*
G02X807500Y-2453300I6717J-7653D01*
G01Y-2499700D01*
G02X790600Y-2507300I-10183J53D01*
G03X723100Y-2520700I-28593J-32680D01*
G01X445000D01*
G37*
G36*
G01X609400Y-1758700D02*
X559900Y-1709200D01*
Y-1661200D01*
G02X577300Y-1654000I10196J-14D01*
G01X593600Y-1670300D01*
X723100D01*
G03X790600Y-1683700I38907J19280D01*
G02X807500Y-1691300I6717J-7653D01*
G01Y-1737700D01*
G02X790600Y-1745300I-10183J53D01*
G03X723100Y-1758700I-28593J-32680D01*
G01X609400D01*
G37*
G36*
G01X577200Y-2012700D02*
X464500Y-1900000D01*
Y-1852000D01*
G02X481900Y-1844800I10196J-14D01*
G01X561400Y-1924300D01*
X723100D01*
G03X790600Y-1937700I38907J19280D01*
G02X807500Y-1945300I6717J-7653D01*
G01Y-1991700D01*
G02X790600Y-1999300I-10183J53D01*
G03X723100Y-2012700I-28593J-32680D01*
G01X577200D01*
G37*
G36*
G01X513200Y-2266700D02*
X442200Y-2195700D01*
G02X449400Y-2178300I7214J7204D01*
G01X723100D01*
G03X790600Y-2191700I38907J19280D01*
G02X807500Y-2199300I6717J-7653D01*
G01Y-2245700D01*
G02X790600Y-2253300I-10183J53D01*
G03X723100Y-2266700I-28593J-32680D01*
G01X513200D01*
G37*
G54D10*
X-1778000Y-5588000D03*
Y2800000D03*
X2035200Y-5596800D03*
Y2800000D03*
G54D11*
X-1397000Y-4736000D03*
Y1054000D03*
G54D12*
X-1587500Y-3937000D03*
Y-3683000D03*
Y-3429000D03*
Y-3175000D03*
Y-2921000D03*
Y-2667000D03*
Y-2413000D03*
Y-2159000D03*
Y-1905000D03*
Y-1651000D03*
Y-1397000D03*
Y-1143000D03*
Y-889000D03*
Y-635000D03*
Y-381000D03*
Y-127000D03*
Y127000D03*
X-1397000Y-3810000D03*
Y-3556000D03*
Y-3302000D03*
X-1206500Y-3937000D03*
X-1016000Y-3810000D03*
X-1206500Y-3683000D03*
X-1016000Y-3556000D03*
X-1206500Y-3429000D03*
X-1016000Y-3302000D03*
X-1397000Y-3048000D03*
Y-2794000D03*
Y-2540000D03*
X-1206500Y-3175000D03*
X-1016000Y-3048000D03*
X-1206500Y-2921000D03*
X-1016000Y-2794000D03*
X-1206500Y-2667000D03*
X-1016000Y-2540000D03*
X-1397000Y-2286000D03*
Y-2032000D03*
Y-1778000D03*
X-1206500Y-2413000D03*
X-1016000Y-2286000D03*
X-1206500Y-2159000D03*
X-1016000Y-2032000D03*
X-1206500Y-1905000D03*
X-1016000Y-1778000D03*
X-1397000Y-1524000D03*
Y-1270000D03*
Y-1016000D03*
X-1206500Y-1651000D03*
X-1016000Y-1524000D03*
X-1206500Y-1397000D03*
X-1016000Y-1270000D03*
X-1206500Y-1143000D03*
X-1016000Y-1016000D03*
X-1397000Y-762000D03*
Y-508000D03*
Y-254000D03*
X-1206500Y-889000D03*
X-1016000Y-762000D03*
X-1206500Y-635000D03*
X-1016000Y-508000D03*
X-1206500Y-381000D03*
X-1016000Y-254000D03*
X-1397000Y0D03*
Y254000D03*
X-1206500Y-127000D03*
X-1016000Y0D03*
X-1206500Y127000D03*
X-1016000Y254000D03*
G54D13*
X-161200Y-1397000D03*
X445200Y-3429000D03*
X508800Y-3556000D03*
X381600Y-3302000D03*
X577000Y-2921000D03*
X576800Y-2794000D03*
X318000Y-3180000D03*
X916800Y-3429000D03*
X858600Y-3529800D03*
X980600Y-3302000D03*
X762000Y-2540000D03*
Y-2667000D03*
X1049400Y-3180000D03*
X762000Y-2159000D03*
Y-1778000D03*
Y-2413000D03*
Y-2286000D03*
Y-2032000D03*
Y-1905000D03*
Y-1651000D03*
Y-1270000D03*
Y-1524000D03*
Y-1143000D03*
Y-1397000D03*
Y-1016000D03*
Y-762000D03*
Y-889000D03*
Y-635000D03*
Y-508000D03*
X1904000Y-2540000D03*
X1871600Y-2921000D03*
X1840200Y-2667000D03*
X1999800Y-2286000D03*
X2063600Y-2159000D03*
X1936000Y-2413000D03*
X2127400Y-2032000D03*
X2191200Y-1905000D03*
X2255000Y-1778000D03*
X1951000Y-1270000D03*
X2382600Y-1524000D03*
X2446400Y-1397000D03*
X2318800Y-1651000D03*
G54D14*
X1356500Y-3075000D03*
Y-352000D03*
G54D15*
G01X-2226000Y-5914800D02*
Y3211800D01*
X2544000D01*
Y-5914800D01*
X-2226000D01*
G54D16*
G01X-1778000Y-5588000D02*
Y-5316000D01*
G01X-2050000Y-5588000D02*
X-1778000D01*
G01D02*
X-1506000D01*
G01X1999800Y-2286000D02*
X1752600D01*
X1653600Y-2385000D01*
Y-4642800D01*
X1558200Y-4738200D01*
X-95300D01*
X-445100Y-4388400D01*
X-1939800D01*
X-2035200Y-4293000D01*
Y-2798400D01*
X-1903800Y-2667000D01*
X-1587500D01*
G01X2063600Y-2159000D02*
X1625200D01*
X1558200Y-2226000D01*
Y-2639400D01*
X1590000Y-2671200D01*
Y-4579200D01*
X1494600Y-4674600D01*
X-63600D01*
X-413400Y-4324800D01*
X-1876200D01*
X-1971600Y-4229400D01*
Y-3084600D01*
X-1808000Y-2921000D01*
X-1587500D01*
G01X1904000Y-2540000D02*
X1816600D01*
X1780800Y-2575800D01*
Y-4770000D01*
X1685400Y-4865400D01*
X-158900D01*
X-508700Y-4515600D01*
X-2003400D01*
X-2162400Y-4356600D01*
Y-2353100D01*
X-1968300Y-2159000D01*
X-1587500D01*
G01X-1397000Y-3556000D02*
X-1648000D01*
X-1717200Y-3625200D01*
Y-4006800D01*
X-1653600Y-4070400D01*
X1176500D01*
X1272000Y-3974900D01*
Y-1749000D01*
X1370000Y-1651000D01*
X2318800D01*
G01X-1587500Y-2413000D02*
X-1935900D01*
X-2098800Y-2575900D01*
Y-4324800D01*
X-1971600Y-4452000D01*
X-477000D01*
X-127200Y-4801800D01*
X1621800D01*
X1717200Y-4706400D01*
Y-2512200D01*
X1816400Y-2413000D01*
X1936000D01*
G01X2127400Y-2032000D02*
X1561400D01*
X1494600Y-2098800D01*
Y-2703000D01*
X1526400Y-2734800D01*
Y-4547500D01*
X1462900Y-4611000D01*
X-31700D01*
X-381500Y-4261200D01*
X-1812600D01*
X-1908100Y-4165700D01*
X-1907800Y-3975000D01*
Y-3314700D01*
X-1768100Y-3175000D01*
X-1587500D01*
G01X2191200Y-1905000D02*
X2156100Y-1940100D01*
X1526100D01*
X1431000Y-2035200D01*
Y-2734800D01*
X1462800Y-2766600D01*
Y-4483900D01*
X1399300Y-4547400D01*
X100D01*
X-349700Y-4197600D01*
X-1748900D01*
X-1850800Y-4095700D01*
Y-3449400D01*
X-1703400Y-3302000D01*
X-1397000D01*
G01X-1587500Y-3429000D02*
X-1711900D01*
X-1780800Y-3497900D01*
Y-4038600D01*
X-1685400Y-4134000D01*
X1303700D01*
X1399200Y-4038500D01*
Y-2798400D01*
X1367400Y-2766600D01*
Y-1908000D01*
X1462800Y-1812600D01*
X1684900D01*
X1685400Y-1813100D01*
X2219900D01*
X2255000Y-1778000D01*
G01X762000D02*
X601400D01*
X540600Y-1717200D01*
Y222600D01*
X95400Y667800D01*
X-1780800D01*
X-1939800Y508800D01*
Y-445200D01*
X-1876200Y-508800D01*
X-1491900D01*
X-1491100Y-508000D01*
X-1397000D01*
G01X-1587500Y-635000D02*
X-1845400D01*
X-1965200Y-515200D01*
Y519400D01*
X-1791400Y693200D01*
X84800D01*
X84900Y693300D01*
X105900D01*
X566000Y233200D01*
Y-1615400D01*
X601600Y-1651000D01*
X762000D01*
G01Y-2032000D02*
X569200D01*
X445200Y-1908000D01*
Y190800D01*
X57200Y578800D01*
X-1710800D01*
X-1844400Y445200D01*
Y-159000D01*
X-1749000Y-254400D01*
X-1491500D01*
X-1491100Y-254000D01*
X-1397000D01*
G01X-1587500Y-381000D02*
X-1781500D01*
X-1876200Y-286300D01*
Y449400D01*
X-1721200Y604400D01*
X-1674800Y604200D01*
X67800D01*
X470700Y201300D01*
Y180300D01*
X470600Y-1806200D01*
X569400Y-1905000D01*
X762000D01*
G01Y-2159000D02*
X441800D01*
X375200Y-2092400D01*
X375300Y148500D01*
Y169500D01*
X36000Y508800D01*
X-1689600D01*
X-1780800Y417600D01*
Y-63400D01*
X-1717200Y-127000D01*
X-1587500D01*
G01X762000Y-2413000D02*
X346000D01*
X248000Y-2315000D01*
Y137800D01*
X-27600Y413400D01*
X-1526400D01*
X-1590000Y349800D01*
Y223600D01*
X-1587500Y221100D01*
Y127000D01*
G01X-1397000Y0D02*
X-1717200D01*
X-1755400Y38200D01*
Y407000D01*
X-1679000Y483400D01*
X25400D01*
X349800Y159000D01*
Y-2130600D01*
X505200Y-2286000D01*
X762000D01*
G01X-1778000Y2528000D02*
Y2800000D01*
G01D02*
Y3072000D01*
G01X-2050000Y2800000D02*
X-1778000D01*
G01D02*
X-1506000D01*
G01X-1397000Y-4904000D02*
Y-4736000D01*
G01D02*
Y-4568000D01*
G01Y-4736000D02*
X-579000D01*
G01X-1587500Y-3683000D02*
Y-3786700D01*
X-1335600Y-4038600D01*
X-985800D01*
X-954000Y-4006800D01*
X1128200D01*
X1208400Y-3926600D01*
Y-1589900D01*
X1274300Y-1524000D01*
X2382600D01*
G01X-1206500Y-3429000D02*
X445200D01*
G01X762000Y-1143000D02*
X826800Y-1207800D01*
Y-2734800D01*
X636000Y-2925600D01*
Y-3656900D01*
X482900Y-3810000D01*
X-1016000D01*
G01Y-3556000D02*
X508800D01*
G01X2446400Y-1397000D02*
X1242400D01*
X1144800Y-1494600D01*
Y-3847800D01*
X1049400Y-3943200D01*
X-1049400D01*
X-1182600Y-3810000D01*
X-1397000D01*
G01X-1016000Y-3302000D02*
X381600D01*
G01X318000Y-3180000D02*
X-1049400D01*
X-1181400Y-3048000D01*
X-1397000D01*
G01X-161200Y-1397000D02*
X-222600Y-1335600D01*
Y-1208400D01*
X-318000Y-1113000D01*
X-667800D01*
X-922200Y-858600D01*
X-1081200D01*
X-1177800Y-762000D01*
X-1397000D01*
G01X762000Y-2540000D02*
X437000D01*
X222600Y-2325600D01*
Y127200D01*
X-31800Y381600D01*
X-1269400D01*
X-1397000Y254000D01*
G01X-1016000Y161000D02*
Y254000D01*
G01D02*
Y347000D01*
G01X-1109000Y254000D02*
X-1016000D01*
G01D02*
X-923000D01*
G01X-1206500Y34000D02*
Y127000D01*
G01D02*
Y220000D01*
G01X-1299500Y127000D02*
X-1206500D01*
G01D02*
X-1113500D01*
G01X-1016000Y-93000D02*
Y0D01*
G01D02*
Y93000D01*
G01X-1109000Y0D02*
X-1016000D01*
G01D02*
X-923000D01*
G01X-1397000Y886000D02*
Y1054000D01*
G01D02*
Y1222000D01*
G01Y1054000D02*
X-579000D01*
G01X577000Y-2921000D02*
X572400Y-2925600D01*
G01X762000Y-762000D02*
X954000Y-954000D01*
Y-2925700D01*
X858600Y-3021100D01*
Y-3370800D01*
X916800Y-3429000D01*
G01X762000Y-889000D02*
X890400Y-1017400D01*
Y-2798400D01*
X763200Y-2925600D01*
Y-3434400D01*
X858600Y-3529800D01*
G01X762000Y-635000D02*
X811600D01*
X812600Y-636000D01*
X890400D01*
X1017600Y-763200D01*
Y-3084500D01*
X999800Y-3102300D01*
Y-3200500D01*
X1017600Y-3218300D01*
Y-3265000D01*
X980600Y-3302000D01*
G01X1049400Y-3180000D02*
X1084500Y-3144900D01*
Y-639300D01*
X953200Y-508000D01*
X762000D01*
G01X2035200Y-5596800D02*
Y-5324800D01*
G01X1763200Y-5596800D02*
X2035200D01*
G01D02*
X2307200D01*
G01X2035200Y2528000D02*
Y2800000D01*
G01D02*
Y3072000D01*
G01X1763200Y2800000D02*
X2035200D01*
G01D02*
X2307200D01*
M02*
