G04 ================== begin FILE IDENTIFICATION RECORD ==================*
G04 Layout Name:  LED_12inArena V2-1.brd*
G04 Film Name:    LAYER_2*
G04 File Format:  Gerber RS274X*
G04 File Origin:  Cadence Allegro 17.2-P019*
G04 Origin Date:  Mon Oct 05 13:48:45 2020*
G04 *
G04 Layer:  VIA KEEPOUT/ALL*
G04 Layer:  VIA KEEPOUT/BOTTOM*
G04 Layer:  VIA KEEPOUT/LAYER 2*
G04 Layer:  VIA KEEPOUT/GND2*
G04 Layer:  VIA KEEPOUT/LAYER 1*
G04 Layer:  VIA KEEPOUT/PWR*
G04 Layer:  VIA KEEPOUT/TOP*
G04 Layer:  VIA CLASS/FILMMASKBOTTOM*
G04 Layer:  VIA CLASS/LAYER 2*
G04 Layer:  ROUTE KEEPOUT/ALL*
G04 Layer:  ROUTE KEEPOUT/BOTTOM*
G04 Layer:  ROUTE KEEPOUT/LAYER 2*
G04 Layer:  ROUTE KEEPOUT/GND2*
G04 Layer:  ROUTE KEEPOUT/LAYER 1*
G04 Layer:  ROUTE KEEPOUT/PWR*
G04 Layer:  ROUTE KEEPOUT/TOP*
G04 Layer:  ROUTE KEEPIN/ALL*
G04 Layer:  PIN/FILMMASKBOTTOM*
G04 Layer:  PIN/LAYER 2*
G04 Layer:  PACKAGE KEEPOUT/ALL*
G04 Layer:  PACKAGE KEEPOUT/TOP*
G04 Layer:  PACKAGE KEEPOUT/BOTTOM*
G04 Layer:  PACKAGE KEEPIN/ALL*
G04 Layer:  ETCH/LAYER 2*
G04 Layer:  BOARD GEOMETRY/OUTLINE*
G04 *
G04 Offset:    (0.0 0.0)*
G04 Mirror:    No*
G04 Mode:      Positive*
G04 Rotation:  0*
G04 FullContactRelief:  No*
G04 UndefLineWidth:     0.1*
G04 ================== end FILE IDENTIFICATION RECORD ====================*
%FSLAX25Y25*MOIN*%
%IR0*IPPOS*OFA0.00000B0.00000*MIA0B0*SFA1.00000B1.00000*%
%ADD10C,.2*%
%ADD16R,.1969X.0787*%
%ADD15R,.0787X.1969*%
%ADD12C,.06*%
%ADD11C,.024*%
%ADD13C,5.7*%
%ADD14C,.0787*%
%ADD17C,.005*%
%ADD18C,.008*%
%ADD19C,.0001*%
%ADD20C,.2104*%
%ADD25R,.2072X.089*%
%ADD24R,.089X.2072*%
%ADD22C,.0704*%
%ADD21C,.0344*%
%ADD23C,.089*%
G75*
%LPD*%
G75*
G36*
G01X-448900Y-448650D02*
Y448550D01*
X448950D01*
Y-448650D01*
X65020D01*
G02X64620Y-448240I-1J400D01*
G03X61180I-1720J40D01*
G02X60780Y-448650I-399J-10D01*
G01X56770D01*
G02X56370Y-448250I0J400D01*
G03X52930I-1720J0D01*
G02X52530Y-448650I-400J0D01*
G01X48620D01*
G02X48220Y-448230I-1J399D01*
G03X44780I-1720J80D01*
G02X44380Y-448650I-399J-21D01*
G01X40470D01*
G02X40070Y-448250I0J400D01*
G03X36630I-1720J0D01*
G02X36230Y-448650I-400J0D01*
G01X32270D01*
G02X31870Y-448260I-1J400D01*
G03X28430I-1720J-40D01*
G02X28030Y-448650I-399J10D01*
G01X24120D01*
G02X23720Y-448240I-1J400D01*
G03X20280I-1720J40D01*
G02X19880Y-448650I-399J-10D01*
G01X15970D01*
G02X15570Y-448230I-1J399D01*
G03X12130I-1720J80D01*
G02X11730Y-448650I-399J-21D01*
G01X7910D01*
G02X7520Y-448220I7J398D01*
G03X4080I-1720J120D01*
G02X3690Y-448650I-397J-32D01*
G01X-190D01*
G02X-590Y-448210I-1J401D01*
G03X-4010I-1710J160D01*
G02X-4410Y-448650I-399J-39D01*
G01X-8250D01*
G02X-8640Y-448200I6J399D01*
G03X-12060I-1710J200D01*
G02X-12450Y-448650I-396J-51D01*
G01X-16300D01*
G02X-16690Y-448200I6J399D01*
G03X-20110I-1710J200D01*
G02X-20500Y-448650I-396J-51D01*
G01X-24400D01*
G02X-24800Y-448190I-4J401D01*
G03X-28200I-1700J240D01*
G02X-28600Y-448650I-396J-59D01*
G01X-32550D01*
G02X-32950Y-448190I-4J401D01*
G03X-36350I-1700J240D01*
G02X-36750Y-448650I-396J-59D01*
G01X-40650D01*
G02X-41050Y-448190I-4J401D01*
G03X-44450I-1700J240D01*
G02X-44850Y-448650I-396J-59D01*
G01X-48710D01*
G02X-49100Y-448180I2J399D01*
G03X-52500I-1700J280D01*
G02X-52890Y-448650I-392J-71D01*
G01X-56820D01*
G02X-57210Y-448170I2J400D01*
G03X-60590I-1690J320D01*
G02X-60980Y-448650I-392J-80D01*
G01X-448900D01*
G37*
%LPC*%
G75*
G36*
G01X-406460Y168090D02*
X-433740D01*
G02Y169910I-1460J910D01*
G01X-406460D01*
G02Y168090I1460J-910D01*
G37*
G36*
G01X-397760Y-24090D02*
G03Y-24360I146J-135D01*
G02X-400330Y-24350I-1289J-1139D01*
G03Y-24080I-146J135D01*
G02X-397760Y-24090I1289J1139D01*
G37*
G36*
G01X-419810D02*
G03Y-24360I146J-135D01*
G02X-422380Y-24350I-1289J-1139D01*
G03Y-24080I-146J135D01*
G02X-419810Y-24090I1289J1139D01*
G37*
G36*
G01X372880Y-247450D02*
G03Y-247710I151J-130D01*
G02X370320I-1280J-1150D01*
G03Y-247450I-151J130D01*
G02X372880I1280J1150D01*
G37*
G36*
G01X339830D02*
G03Y-247710I151J-130D01*
G02X337270I-1280J-1150D01*
G03Y-247450I-151J130D01*
G02X339830I1280J1150D01*
G37*
G36*
G01X284130Y-329010D02*
G03X283870I-130J-147D01*
G02X281440Y-326580I-1120J1310D01*
G03Y-326320I-147J130D01*
G02Y-324080I1310J1120D01*
G03Y-323820I-147J130D01*
G02X283870Y-321390I1310J1120D01*
G03X284130I130J147D01*
G02X286370I1120J-1310D01*
G03X286630I130J147D01*
G02X288870I1120J-1310D01*
G03X289130I130J147D01*
G02X291370I1120J-1310D01*
G03X291630I130J147D01*
G02X293870I1120J-1310D01*
G03X294130I130J147D01*
G02X296560Y-323820I1120J-1310D01*
G03Y-324080I147J-130D01*
G02Y-326320I-1310J-1120D01*
G03Y-326580I147J-130D01*
G02X294130Y-329010I-1310J-1120D01*
G03X293870I-130J-147D01*
G02X291630I-1120J1310D01*
G03X291370I-130J-147D01*
G02X289130I-1120J1310D01*
G03X288870I-130J-147D01*
G02X286630I-1120J1310D01*
G03X286370I-130J-147D01*
G02X284130I-1120J1310D01*
G37*
G36*
G01X260380Y-389160D02*
G03X260120I-130J-147D01*
G02X257690Y-386730I-1120J1310D01*
G03Y-386470I-147J130D01*
G02Y-384230I1310J1120D01*
G03Y-383970I-147J130D01*
G02X260120Y-381540I1310J1120D01*
G03X260380I130J147D01*
G02X262620I1120J-1310D01*
G03X262880I130J147D01*
G02X265120I1120J-1310D01*
G03X265380I130J147D01*
G02X267620I1120J-1310D01*
G03X267880I130J147D01*
G02X270120I1120J-1310D01*
G03X270380I130J147D01*
G02X272810Y-383970I1120J-1310D01*
G03Y-384230I147J-130D01*
G02Y-386470I-1310J-1120D01*
G03Y-386730I147J-130D01*
G02X270380Y-389160I-1310J-1120D01*
G03X270120I-130J-147D01*
G02X267880I-1120J1310D01*
G03X267620I-130J-147D01*
G02X265380I-1120J1310D01*
G03X265120I-130J-147D01*
G02X262880I-1120J1310D01*
G03X262620I-130J-147D01*
G02X260380I-1120J1310D01*
G37*
G36*
G01X152930Y-394950D02*
G03Y-395210I151J-130D01*
G02X150370I-1280J-1150D01*
G03Y-394950I-151J130D01*
G02X152930I1280J1150D01*
G37*
G36*
G01X260230Y-398060D02*
G03X259970I-130J-147D01*
G02X257540Y-395630I-1120J1310D01*
G03Y-395370I-147J130D01*
G02Y-393130I1310J1120D01*
G03Y-392870I-147J130D01*
G02X259970Y-390440I1310J1120D01*
G03X260230I130J147D01*
G02X262470I1120J-1310D01*
G03X262730I130J147D01*
G02X264970I1120J-1310D01*
G03X265230I130J147D01*
G02X267470I1120J-1310D01*
G03X267730I130J147D01*
G02X269970I1120J-1310D01*
G03X270230I130J147D01*
G02X272660Y-392870I1120J-1310D01*
G03Y-393130I147J-130D01*
G02Y-395370I-1310J-1120D01*
G03Y-395630I147J-130D01*
G02X270230Y-398060I-1310J-1120D01*
G03X269970I-130J-147D01*
G02X267730I-1120J1310D01*
G03X267470I-130J-147D01*
G02X265230I-1120J1310D01*
G03X264970I-130J-147D01*
G02X262730I-1120J1310D01*
G03X262470I-130J-147D01*
G02X260230I-1120J1310D01*
G37*
G36*
G01X-111170Y-402400D02*
G03Y-402660I151J-130D01*
G02X-113730I-1280J-1150D01*
G03Y-402400I-151J130D01*
G02X-111170I1280J1150D01*
G37*
G36*
G01X-141920D02*
G03Y-402660I151J-130D01*
G02X-144480I-1280J-1150D01*
G03Y-402400I-151J130D01*
G02X-141920I1280J1150D01*
G37*
G36*
G01X260080Y-407260D02*
G03X259820I-130J-147D01*
G02X257390Y-404830I-1120J1310D01*
G03Y-404570I-147J130D01*
G02Y-402330I1310J1120D01*
G03Y-402070I-147J130D01*
G02X259820Y-399640I1310J1120D01*
G03X260080I130J147D01*
G02X262320I1120J-1310D01*
G03X262580I130J147D01*
G02X264820I1120J-1310D01*
G03X265080I130J147D01*
G02X267320I1120J-1310D01*
G03X267580I130J147D01*
G02X269820I1120J-1310D01*
G03X270080I130J147D01*
G02X272510Y-402070I1120J-1310D01*
G03Y-402330I147J-130D01*
G02Y-404570I-1310J-1120D01*
G03Y-404830I147J-130D01*
G02X270080Y-407260I-1310J-1120D01*
G03X269820I-130J-147D01*
G02X267580I-1120J1310D01*
G03X267320I-130J-147D01*
G02X265080I-1120J1310D01*
G03X264820I-130J-147D01*
G02X262580I-1120J1310D01*
G03X262320I-130J-147D01*
G02X260080I-1120J1310D01*
G37*
G36*
G01X-229670Y-405000D02*
G03Y-405260I151J-130D01*
G02X-232230I-1280J-1150D01*
G03Y-405000I-151J130D01*
G02X-229670I1280J1150D01*
G37*
G36*
G01X102890Y-418270D02*
G03X102480Y-418750I-19J-399D01*
G02X100900Y-417390I-1683J-357D01*
G03X101310Y-416910I19J399D01*
G02Y-416190I1680J360D01*
G03X100900Y-415710I-391J81D01*
G02Y-412270I-100J1720D01*
G03X101310Y-411790I19J399D01*
G02Y-411070I1680J360D01*
G03X100900Y-410590I-391J81D01*
G02Y-407150I-100J1720D01*
G03X101310Y-406670I19J399D01*
G02Y-405950I1680J360D01*
G03X100900Y-405470I-391J81D01*
G02Y-402030I-100J1720D01*
G03X101310Y-401550I19J399D01*
G02X102890Y-402910I1683J357D01*
G03X102480Y-403390I-19J-399D01*
G02Y-404110I-1680J-360D01*
G03X102890Y-404590I391J-81D01*
G02Y-408030I100J-1720D01*
G03X102480Y-408510I-19J-399D01*
G02Y-409230I-1680J-360D01*
G03X102890Y-409710I391J-81D01*
G02Y-413150I100J-1720D01*
G03X102480Y-413630I-19J-399D01*
G02Y-414350I-1680J-360D01*
G03X102890Y-414830I391J-81D01*
G02Y-418270I100J-1720D01*
G37*
G36*
G01X267530Y-424610D02*
G03X267270I-130J-147D01*
G02X264840Y-422180I-1120J1310D01*
G03Y-421920I-147J130D01*
G02Y-419680I1310J1120D01*
G03Y-419420I-147J130D01*
G02Y-417180I1310J1120D01*
G03Y-416920I-147J130D01*
G02Y-414680I1310J1120D01*
G03Y-414420I-147J130D01*
G02Y-412180I1310J1120D01*
G03Y-411920I-147J130D01*
G02X267270Y-409490I1310J1120D01*
G03X267530I130J147D01*
G02X269770I1120J-1310D01*
G03X270030I130J147D01*
G02X272460Y-411920I1120J-1310D01*
G03Y-412180I147J-130D01*
G02Y-414420I-1310J-1120D01*
G03Y-414680I147J-130D01*
G02Y-416920I-1310J-1120D01*
G03Y-417180I147J-130D01*
G02Y-419420I-1310J-1120D01*
G03Y-419680I147J-130D01*
G02Y-421920I-1310J-1120D01*
G03Y-422180I147J-130D01*
G02X270030Y-424610I-1310J-1120D01*
G03X269770I-130J-147D01*
G02X267530I-1120J1310D01*
G37*
G36*
G01X285520Y0D02*
G02I-285520J0D01*
G37*
G36*
G01X246770Y-345200D02*
G02X245310Y-346540I222J-1707D01*
G03X244870Y-346060I-389J85D01*
G02Y-342640I-220J1710D01*
G03X245310Y-342160I51J395D01*
G02Y-341420I1680J370D01*
G03X244870Y-340940I-389J85D01*
G02Y-337520I-220J1710D01*
G03X245310Y-337040I51J395D01*
G02Y-336300I1680J370D01*
G03X244870Y-335820I-389J85D01*
G02Y-332400I-220J1710D01*
G03X245310Y-331920I51J395D01*
G02Y-331180I1680J370D01*
G03X244870Y-330700I-389J85D01*
G02X246330Y-329360I-222J1707D01*
G03X246770Y-329840I389J-85D01*
G02Y-333260I220J-1710D01*
G03X246330Y-333740I-51J-395D01*
G02Y-334480I-1680J-370D01*
G03X246770Y-334960I389J-85D01*
G02Y-338380I220J-1710D01*
G03X246330Y-338860I-51J-395D01*
G02Y-339600I-1680J-370D01*
G03X246770Y-340080I389J-85D01*
G02Y-343500I220J-1710D01*
G03X246330Y-343980I-51J-395D01*
G02Y-344720I-1680J-370D01*
G03X246770Y-345200I389J-85D01*
G37*
G36*
G01X172930Y-352890D02*
G02X171470Y-354230I222J-1707D01*
G03X171030Y-353750I-389J85D01*
G02Y-350330I-220J1710D01*
G03X171470Y-349850I51J395D01*
G02Y-349110I1680J370D01*
G03X171030Y-348630I-389J85D01*
G02Y-345210I-220J1710D01*
G03X171470Y-344730I51J395D01*
G02Y-343990I1680J370D01*
G03X171030Y-343510I-389J85D01*
G02Y-340090I-220J1710D01*
G03X171470Y-339610I50J396D01*
G02Y-338880I1680J365D01*
G03X171030Y-338400I-389J85D01*
G02Y-334980I-220J1710D01*
G03X171470Y-334500I51J395D01*
G02Y-333760I1680J370D01*
G03X171030Y-333280I-389J85D01*
G02X172490Y-331940I-222J1707D01*
G03X172930Y-332420I389J-85D01*
G02Y-335840I220J-1710D01*
G03X172490Y-336320I-51J-395D01*
G02Y-337060I-1680J-370D01*
G03X172930Y-337540I389J-85D01*
G02Y-340960I220J-1710D01*
G03X172490Y-341440I-50J-396D01*
G02Y-342170I-1680J-365D01*
G03X172930Y-342650I389J-85D01*
G02Y-346070I220J-1710D01*
G03X172490Y-346550I-51J-395D01*
G02Y-347290I-1680J-370D01*
G03X172930Y-347770I389J-85D01*
G02Y-351190I220J-1710D01*
G03X172490Y-351670I-51J-395D01*
G02Y-352410I-1680J-370D01*
G03X172930Y-352890I389J-85D01*
G37*
G36*
G01X175420Y-397310D02*
G02X174380Y-398450I615J-1605D01*
G03X173850Y-397970I-386J106D01*
G02X174890Y-396830I-615J1605D01*
G03X175420Y-397310I386J-106D01*
G37*
G36*
G01X-209700Y-408580D02*
G02X-211040Y-407280I-1678J-389D01*
G03X-210580Y-406800I73J390D01*
G02X-210180Y-405260I1678J386D01*
G03Y-405000I-151J130D01*
G02X-207620I1280J1150D01*
G03Y-405260I151J-130D01*
G02X-209240Y-408100I-1279J-1153D01*
G03X-209700Y-408580I-73J-390D01*
G37*
G36*
G01X175820Y-415120D02*
G02X174360Y-416460I222J-1707D01*
G03X173920Y-415980I-389J85D01*
G02Y-412560I-220J1710D01*
G03X174360Y-412080I51J395D01*
G02Y-411340I1680J370D01*
G03X173920Y-410860I-389J85D01*
G02X175380Y-409520I-222J1707D01*
G03X175820Y-410000I389J-85D01*
G02Y-413420I220J-1710D01*
G03X175380Y-413900I-51J-395D01*
G02Y-414640I-1680J-370D01*
G03X175820Y-415120I389J-85D01*
G37*
G36*
G01X284520Y-422760D02*
G02X282090Y-420330I-1120J1310D01*
G03Y-420070I-147J130D01*
G02Y-417830I1310J1120D01*
G03Y-417570I-147J130D01*
G02X282320Y-415110I1309J1118D01*
G03X282290Y-414460I-246J314D01*
G02X281890Y-411880I909J1462D01*
G03Y-411620I-147J130D01*
G02Y-409380I1310J1120D01*
G03Y-409120I-147J130D01*
G02X284320Y-406690I1310J1120D01*
G03X284580I130J147D01*
G02X286820I1120J-1310D01*
G03X287080I130J147D01*
G02X289320I1120J-1310D01*
G03X289580I130J147D01*
G02X291820I1120J-1310D01*
G03X292080I130J147D01*
G02X294320I1120J-1310D01*
G03X294580I130J147D01*
G02X297010Y-409120I1120J-1310D01*
G03Y-409380I147J-130D01*
G02Y-411620I-1310J-1120D01*
G03Y-411880I147J-130D01*
G02X296780Y-414340I-1309J-1118D01*
G03X296810Y-414990I246J-314D01*
G02X297210Y-417570I-909J-1462D01*
G03Y-417830I147J-130D01*
G02Y-420070I-1310J-1120D01*
G03Y-420330I147J-130D01*
G02X294780Y-422760I-1310J-1120D01*
G03X294520I-130J-147D01*
G02X292280I-1120J1310D01*
G03X292020I-130J-147D01*
G02X289780I-1120J1310D01*
G03X289520I-130J-147D01*
G02X287280I-1120J1310D01*
G03X287020I-130J-147D01*
G02X284780I-1120J1310D01*
G03X284520I-130J-147D01*
G37*
G54D20*
X-435000Y-435000D03*
Y435000D03*
X-400000Y-400000D03*
Y400000D03*
X400000Y-400000D03*
Y400000D03*
X435000Y-435000D03*
Y435000D03*
G54D25*
X252100Y-439760D03*
Y-416140D03*
G54D24*
X233600Y-427950D03*
G54D22*
X-325860Y-107310D03*
X-335860Y-70000D03*
Y-60000D03*
Y-50000D03*
Y-40000D03*
Y-30000D03*
Y-20000D03*
Y-10000D03*
Y0D03*
Y10000D03*
Y20000D03*
Y30000D03*
Y40000D03*
Y50000D03*
Y60000D03*
Y70000D03*
X-325860Y107310D03*
X-295860Y-159270D03*
X-300860Y-150610D03*
X-305860Y-141950D03*
X-310860Y-133290D03*
X-315860Y-124630D03*
X-320860Y-115970D03*
Y115970D03*
X-315860Y124630D03*
X-310860Y133290D03*
X-305860Y141950D03*
X-300860Y150610D03*
X-295860Y159270D03*
X-265860Y-211230D03*
X-270860Y-202570D03*
X-275860Y-193910D03*
X-280860Y-185250D03*
X-285860Y-176590D03*
X-290860Y-167930D03*
Y167930D03*
X-285860Y176590D03*
X-280860Y185250D03*
X-275860Y193910D03*
X-270860Y202570D03*
X-265860Y211230D03*
X-255860Y-228550D03*
X-260860Y-219890D03*
Y219890D03*
X-255860Y228550D03*
X-211230Y-265860D03*
X-219890Y-260860D03*
X-228550Y-255860D03*
Y255860D03*
X-219890Y260860D03*
X-211230Y265860D03*
X-176590Y-285860D03*
X-185250Y-280860D03*
X-193910Y-275860D03*
X-202570Y-270860D03*
Y270860D03*
X-193910Y275860D03*
X-185250Y280860D03*
X-176590Y285860D03*
X-150610Y-300860D03*
X-159270Y-295860D03*
X-167930Y-290860D03*
Y290860D03*
X-159270Y295860D03*
X-150610Y300860D03*
X-115970Y-320860D03*
X-124630Y-315860D03*
X-133290Y-310860D03*
X-141950Y-305860D03*
Y305860D03*
X-133290Y310860D03*
X-124630Y315860D03*
X-115970Y320860D03*
X-107310Y-325860D03*
Y325860D03*
X-60000Y-335860D03*
X-70000D03*
Y335860D03*
X-60000D03*
X-30000Y-335860D03*
X-40000D03*
X-50000D03*
Y335860D03*
X-40000D03*
X-30000D03*
X0Y-335860D03*
X-10000D03*
X-20000D03*
Y335860D03*
X-10000D03*
X0D03*
X30000Y-335860D03*
X20000D03*
X10000D03*
Y335860D03*
X20000D03*
X30000D03*
X60000Y-335860D03*
X50000D03*
X40000D03*
Y335860D03*
X50000D03*
X60000D03*
X70000Y-335860D03*
Y335860D03*
X115970Y-320860D03*
X107310Y-325860D03*
Y325860D03*
X115970Y320860D03*
X150610Y-300860D03*
X141950Y-305860D03*
X133290Y-310860D03*
X124630Y-315860D03*
X150610Y300860D03*
X124630Y315860D03*
X133290Y310860D03*
X141950Y305860D03*
X176590Y-285860D03*
X167930Y-290860D03*
X159270Y-295860D03*
Y295860D03*
X167930Y290860D03*
X176590Y285860D03*
X202570Y-270860D03*
X193910Y-275860D03*
X185250Y-280860D03*
X211230Y-265860D03*
X202570Y270860D03*
X211230Y265860D03*
X185250Y280860D03*
X193910Y275860D03*
X228550Y-255860D03*
X219890Y-260860D03*
Y260860D03*
X228550Y255860D03*
X265860Y-211230D03*
X260860Y-219890D03*
X255860Y-228550D03*
X270860Y-202570D03*
Y202570D03*
X255860Y228550D03*
X260860Y219890D03*
X265860Y211230D03*
X280860Y-185250D03*
X275860Y-193910D03*
X300860Y-150610D03*
X295860Y-159270D03*
X290860Y-167930D03*
X285860Y-176590D03*
X300860Y150610D03*
X285860Y176590D03*
X290860Y167930D03*
X295860Y159270D03*
X275860Y193910D03*
X280860Y185250D03*
X315860Y-124630D03*
X310860Y-133290D03*
X305860Y-141950D03*
X325860Y-107310D03*
X320860Y-115970D03*
Y115970D03*
X325860Y107310D03*
X305860Y141950D03*
X310860Y133290D03*
X315860Y124630D03*
X335860Y-70000D03*
Y-40000D03*
Y-50000D03*
Y-60000D03*
Y-10000D03*
Y-20000D03*
Y-30000D03*
Y20000D03*
Y10000D03*
Y0D03*
Y50000D03*
Y40000D03*
Y30000D03*
Y70000D03*
Y60000D03*
G54D21*
X-442400Y27750D03*
X-405200D03*
X-359250Y-18010D03*
Y-12890D03*
Y-7770D03*
Y-2650D03*
X-362650Y24460D03*
X-360150Y74520D03*
X-338750Y-110370D03*
X-349230Y-117050D03*
X-344600Y-62250D03*
X-355500Y-15450D03*
Y-10330D03*
Y-5210D03*
Y-90D03*
X-349500Y74310D03*
X-344600Y100250D03*
X-338950Y161650D03*
X-329200Y273700D03*
X-322250Y-157820D03*
X-301000Y-40000D03*
X-316000Y-10000D03*
X-311000Y-20000D03*
X-306000Y-30000D03*
X-326000Y10000D03*
X-321000Y0D03*
X-298590Y199780D03*
X-268650Y-426950D03*
X-272400Y-429510D03*
Y-424390D03*
X-268650Y-421830D03*
Y-411590D03*
X-272400Y-414150D03*
X-268650Y-416710D03*
X-272400Y-419270D03*
X-287320Y-154340D03*
X-268660Y-166660D03*
X-277990Y-160500D03*
X-296000Y-50000D03*
X-291000Y-60000D03*
X-280670Y115860D03*
X-281340Y104700D03*
X-282010Y93540D03*
X-278660Y149340D03*
X-279330Y138180D03*
X-280000Y127020D03*
X-277320Y171660D03*
X-277990Y160500D03*
X-274460Y244700D03*
X-245600Y-276510D03*
X-239280Y-266040D03*
X-240670Y-185140D03*
X-259330Y-172820D03*
X-250000Y-178980D03*
X-264140Y238630D03*
X-211380Y-424320D03*
X-208120Y-426880D03*
Y-421760D03*
Y-411530D03*
X-211380Y-414090D03*
X-208120Y-416650D03*
X-211380Y-419200D03*
X-209750Y-372250D03*
X-218150Y-302950D03*
Y-287050D03*
X-231340Y-191300D03*
X-222010Y-197460D03*
X-237550Y341750D03*
X-187400Y-426960D03*
Y-421840D03*
X-183650Y-424400D03*
X-187400Y-411600D03*
X-183650Y-414160D03*
X-187400Y-416720D03*
X-183650Y-419280D03*
Y-409040D03*
X-186650Y-377660D03*
X-196560Y-366940D03*
X-204440Y-358560D03*
X-191960Y-352000D03*
X-185470Y-304910D03*
X-186650Y-321850D03*
X-191300Y231340D03*
X-197460Y222010D03*
X-178980Y250000D03*
X-185140Y240670D03*
X-164140Y-390640D03*
X-171660Y-277320D03*
X-149340Y-278660D03*
X-160500Y-277990D03*
X-166660Y268660D03*
X-172820Y259330D03*
X-154340Y287320D03*
X-160500Y277990D03*
X-158020Y321000D03*
X-138180Y-279330D03*
X-127020Y-280000D03*
X-103000Y-427050D03*
X-107830Y-424280D03*
X-105300Y-431350D03*
X-99700Y-434150D03*
X-106300Y-438000D03*
X-112450Y-408930D03*
X-105910Y-390640D03*
X-90080Y-334140D03*
X-89490Y-329920D03*
X-115860Y-280670D03*
X-104700Y-281340D03*
X-93540Y-282010D03*
X-116250Y348480D03*
X-110070Y338300D03*
X-58900Y-432050D03*
X-81600Y-431350D03*
X-78500Y-434150D03*
X-76550Y-438000D03*
X-66200Y-408100D03*
X-78500Y-415100D03*
X-74150Y-411500D03*
X-58960Y-413040D03*
X-64110Y-390640D03*
X-85660Y-333350D03*
X-74460Y-348350D03*
X-74620Y-359950D03*
X-60000Y291000D03*
X-65200Y344810D03*
X-50800Y-432100D03*
X-42750Y-432150D03*
X-34650D03*
X-48450Y-384340D03*
X-47600Y-363150D03*
X-28450Y-384340D03*
X-33450D03*
X-38450D03*
X-43450D03*
X-50000Y296000D03*
X-30000Y306000D03*
X-40000Y301000D03*
X-26500Y-432150D03*
X-18400Y-432200D03*
X-10350D03*
X-2300Y-432250D03*
X-24610Y-360750D03*
X1550Y-384340D03*
X-3450D03*
X-8450D03*
X-13450D03*
X-18450D03*
X-23450D03*
X-10000Y-326000D03*
X0Y-321000D03*
X-10000Y316000D03*
X-20000Y311000D03*
X0Y321000D03*
X5800Y-432300D03*
X22000Y-432400D03*
X30150Y-432500D03*
X16550Y-423550D03*
X6550D03*
X13850Y-432350D03*
X11550Y-384340D03*
X6550D03*
X31550D03*
X21550D03*
X16550D03*
X26550D03*
X21600Y-360200D03*
X29950D03*
X10000Y-316000D03*
X20000Y-311000D03*
X30000Y-306000D03*
X10000Y326000D03*
X24310Y358400D03*
X38350Y-432450D03*
X46500Y-432350D03*
X54650Y-432450D03*
X36550Y-384340D03*
X46550D03*
X41550D03*
X38050Y-360150D03*
X46150D03*
X54350Y-360200D03*
X40000Y-301000D03*
X50000Y-296000D03*
X60000Y-291000D03*
X84150Y-433800D03*
X77100Y-436650D03*
X62900Y-432400D03*
X62600Y-360200D03*
X74310Y349850D03*
X74520Y360950D03*
X110220Y-339400D03*
X116100Y-350530D03*
X115860Y280670D03*
X104700Y281340D03*
X93540Y282010D03*
X146100Y-349700D03*
X149340Y278660D03*
X138180Y279330D03*
X127020Y280000D03*
X164900Y-393800D03*
X157970Y-321600D03*
X154340Y-287320D03*
X160500Y-277990D03*
X166660Y-268660D03*
X172820Y-259330D03*
X178980Y-250000D03*
X171660Y277320D03*
X160500Y277990D03*
X158650Y318100D03*
X194240Y-352040D03*
X204500Y-354600D03*
X185140Y-240670D03*
X191300Y-231340D03*
X197460Y-222010D03*
X192170Y301810D03*
X240670Y185140D03*
X231340Y191300D03*
X222010Y197460D03*
X238630Y265090D03*
X261950Y-263700D03*
X264490Y-239080D03*
X268660Y166660D03*
X259330Y172820D03*
X250000Y178980D03*
X244850Y276360D03*
X274760Y-244800D03*
X294900Y-253940D03*
X291150Y-256500D03*
X294900Y-259060D03*
X291150Y-261620D03*
X297990Y-200430D03*
X277320Y-171660D03*
X277990Y-160500D03*
X278660Y-149340D03*
X279330Y-138180D03*
X280000Y-127020D03*
X280670Y-115860D03*
X281340Y-104700D03*
X282010Y-93540D03*
X301000Y40000D03*
X296000Y50000D03*
X291000Y60000D03*
X287320Y154340D03*
X277990Y160500D03*
X309750Y-261350D03*
X309300Y-266550D03*
X325600Y-126300D03*
X326000Y-10000D03*
X316000Y10000D03*
X311000Y20000D03*
X321000Y0D03*
X306000Y30000D03*
X321350Y158220D03*
X315180Y168910D03*
X354200Y-319850D03*
X359050Y-74620D03*
X347450Y-74460D03*
X360400Y-24410D03*
X348130Y117850D03*
X337800Y110720D03*
X343800Y225300D03*
X395850Y-39450D03*
X397850Y143100D03*
X430150Y-39450D03*
X436950Y143100D03*
G54D23*
X-54510Y-403940D03*
X52690D03*
%LPD*%
G75*
G54D10*
X-435000Y-435000D03*
Y435000D03*
X-400000Y-400000D03*
Y400000D03*
X400000Y-400000D03*
Y400000D03*
X435000Y-435000D03*
Y435000D03*
G54D11*
X-425700Y-47300D03*
X-421100Y-25500D03*
X-421090Y-22940D03*
X-430660Y-2470D03*
Y-5030D03*
Y2650D03*
Y90D03*
X-442400Y27750D03*
X-435200Y169000D03*
X-403600Y-47600D03*
X-407730Y-20380D03*
X-399040Y-22940D03*
X-399050Y-25500D03*
X-405200Y27750D03*
X-405000Y169000D03*
X-359250Y-18010D03*
Y-12890D03*
Y-7770D03*
Y-2650D03*
X-362650Y24460D03*
X-360150Y52580D03*
Y74520D03*
X-330350Y-124930D03*
X-338270Y-136050D03*
X-338750Y-110370D03*
X-349230Y-117050D03*
X-344600Y-62250D03*
X-355500Y-15450D03*
Y-10330D03*
Y-5210D03*
Y-90D03*
X-349500Y57490D03*
Y74310D03*
X-344600Y100250D03*
X-338950Y161650D03*
X-329200Y273700D03*
X-322250Y-157820D03*
X-301000Y-40000D03*
X-316000Y-10000D03*
X-311000Y-20000D03*
X-306000Y-30000D03*
X-326000Y10000D03*
X-321000Y0D03*
X-298590Y199780D03*
X-268650Y-426950D03*
X-272400Y-429510D03*
Y-424390D03*
X-268650Y-421830D03*
Y-411590D03*
X-272400Y-414150D03*
X-268650Y-416710D03*
X-272400Y-419270D03*
X-287320Y-154340D03*
X-268660Y-166660D03*
X-277990Y-160500D03*
X-296000Y-50000D03*
X-291000Y-60000D03*
X-280670Y115860D03*
X-281340Y104700D03*
X-282010Y93540D03*
X-278660Y149340D03*
X-279330Y138180D03*
X-280000Y127020D03*
X-277320Y171660D03*
X-277990Y160500D03*
X-272560Y224070D03*
X-285440Y225700D03*
X-274460Y244700D03*
X-245600Y-276510D03*
X-239280Y-266040D03*
X-240670Y-185140D03*
X-259330Y-172820D03*
X-250000Y-178980D03*
X-264140Y238630D03*
X-218550Y-432000D03*
X-208900D03*
X-211380Y-424320D03*
X-208120Y-426880D03*
Y-421760D03*
X-230950Y-403850D03*
Y-406410D03*
X-218550Y-408970D03*
X-208900Y-403850D03*
Y-406410D03*
X-211380Y-408970D03*
X-208120Y-411530D03*
X-211380Y-414090D03*
X-208120Y-416650D03*
X-211380Y-419200D03*
X-209750Y-372250D03*
X-224750Y-384450D03*
X-218150Y-302950D03*
X-224720Y-274460D03*
X-226600Y-287490D03*
X-218150Y-287050D03*
X-231340Y-191300D03*
X-222010Y-197460D03*
X-237550Y341750D03*
X-196500Y-429440D03*
X-187400Y-426960D03*
Y-421840D03*
X-183650Y-424400D03*
X-187400Y-411600D03*
X-183650Y-414160D03*
X-187400Y-416720D03*
X-183650Y-419280D03*
Y-409040D03*
X-202700Y-385300D03*
X-186650Y-377660D03*
X-196560Y-366940D03*
X-204440Y-358560D03*
X-191960Y-352000D03*
X-185470Y-304910D03*
X-186650Y-321850D03*
X-191300Y231340D03*
X-197460Y222010D03*
X-178980Y250000D03*
X-185140Y240670D03*
X-164140Y-390640D03*
X-156250Y-372450D03*
X-177590Y-363350D03*
X-156450Y-351900D03*
X-177590Y-343000D03*
X-171660Y-277320D03*
X-149340Y-278660D03*
X-160500Y-277990D03*
X-166660Y268660D03*
X-172820Y259330D03*
X-154340Y287320D03*
X-160500Y277990D03*
X-158020Y321000D03*
X-143200Y-429400D03*
X-121150D03*
Y-426840D03*
X-143200Y-403810D03*
Y-401250D03*
X-134500Y-406370D03*
X-138180Y-279330D03*
X-127020Y-280000D03*
X-124630Y329900D03*
X-135250Y337520D03*
X-103000Y-427050D03*
X-107830Y-424280D03*
X-105300Y-431350D03*
X-99700Y-434150D03*
X-106300Y-438000D03*
X-112450Y-403810D03*
Y-401250D03*
Y-408930D03*
X-105910Y-390640D03*
X-90080Y-334140D03*
X-89490Y-329920D03*
X-115860Y-280670D03*
X-104700Y-281340D03*
X-93540Y-282010D03*
X-116250Y348480D03*
X-110070Y338300D03*
X-58900Y-447850D03*
Y-432050D03*
X-81600Y-431350D03*
X-78500Y-434150D03*
X-76550Y-438000D03*
X-66200Y-408100D03*
X-78500Y-415100D03*
X-74150Y-411500D03*
X-58960Y-413040D03*
X-64110Y-390640D03*
X-85660Y-333350D03*
X-74460Y-348350D03*
X-74620Y-359950D03*
X-57640Y-348350D03*
X-60000Y291000D03*
X-65200Y344810D03*
X-34650Y-447950D03*
X-42750D03*
X-50800Y-447900D03*
Y-432100D03*
X-42750Y-432150D03*
X-34650D03*
X-48450Y-384340D03*
X-47600Y-363150D03*
X-28450Y-384340D03*
X-33450D03*
X-38450D03*
X-43450D03*
X-52680Y-359950D03*
X-50000Y296000D03*
X-30000Y306000D03*
X-40000Y301000D03*
X-2300Y-448050D03*
X-10350Y-448000D03*
X-18400D03*
X-26500Y-447950D03*
Y-432150D03*
X-18400Y-432200D03*
X-10350D03*
X-2300Y-432250D03*
X-24610Y-360750D03*
X1550Y-384340D03*
X-3450D03*
X-8450D03*
X-13450D03*
X-18450D03*
X-23450D03*
X-10000Y-326000D03*
X0Y-321000D03*
X-10000Y316000D03*
X-20000Y311000D03*
X0Y321000D03*
X13850Y-448150D03*
X22000Y-448200D03*
X30150Y-448300D03*
X5800Y-448100D03*
Y-432300D03*
X22000Y-432400D03*
X30150Y-432500D03*
X16550Y-423550D03*
X6550D03*
X13850Y-432350D03*
X11550Y-384340D03*
X6550D03*
X31550D03*
X21550D03*
X16550D03*
X26550D03*
X21600Y-360200D03*
X29950D03*
X10000Y-316000D03*
X20000Y-311000D03*
X30000Y-306000D03*
X10000Y326000D03*
X24310Y358400D03*
X38350Y-448250D03*
X46500Y-448150D03*
X54650Y-448250D03*
X38350Y-432450D03*
X46500Y-432350D03*
X54650Y-432450D03*
X36550Y-384340D03*
X46550D03*
X41550D03*
X38050Y-360150D03*
X46150D03*
X54350Y-360200D03*
X40000Y-301000D03*
X50000Y-296000D03*
X60000Y-291000D03*
X57490Y349850D03*
X52580Y360950D03*
X62900Y-448200D03*
X84150Y-433800D03*
X77100Y-436650D03*
X62900Y-432400D03*
X62600Y-360200D03*
X74310Y349850D03*
X74520Y360950D03*
X102990Y-416550D03*
X100800Y-419110D03*
Y-413990D03*
X102990Y-401190D03*
Y-406310D03*
X100800Y-403750D03*
Y-408870D03*
X102990Y-411430D03*
X110220Y-339400D03*
X116100Y-350530D03*
X115860Y280670D03*
X104700Y281340D03*
X93540Y282010D03*
X142850Y-421950D03*
X151650Y-396360D03*
Y-393800D03*
X142850Y-398920D03*
X147300Y-375900D03*
X124780Y-331000D03*
X135100Y-339570D03*
X146100Y-349700D03*
X149340Y278660D03*
X138180Y279330D03*
X127020Y280000D03*
X164900Y-421950D03*
Y-419390D03*
Y-393800D03*
X173240Y-396360D03*
X176040Y-411710D03*
X173700Y-414270D03*
X176040Y-416830D03*
X173700Y-409150D03*
X176030Y-398920D03*
X169250Y-375900D03*
X177600Y-375850D03*
X170810Y-352040D03*
X173150Y-354600D03*
Y-344360D03*
X170810Y-341800D03*
Y-336690D03*
X173150Y-334130D03*
X170810Y-331570D03*
X173150Y-349480D03*
X170810Y-346920D03*
X173150Y-339250D03*
X157970Y-321600D03*
X173150Y-329010D03*
X170810Y-326450D03*
X154340Y-287320D03*
X160500Y-277990D03*
X166660Y-268660D03*
X172820Y-259330D03*
X178980Y-250000D03*
X171660Y277320D03*
X160500Y277990D03*
X158650Y318100D03*
X199650Y-376000D03*
X194240Y-352040D03*
X204500Y-354600D03*
X185140Y-240670D03*
X191300Y-231340D03*
X197460Y-222010D03*
X192170Y301810D03*
X240670Y185140D03*
X231340Y191300D03*
X222010Y197460D03*
X238630Y265090D03*
X224070Y273510D03*
X225850Y287340D03*
X266150Y-423300D03*
X268650D03*
X271150D03*
X266150Y-410800D03*
Y-413300D03*
Y-415800D03*
Y-418300D03*
Y-420800D03*
X268650Y-410800D03*
Y-413300D03*
Y-415800D03*
Y-418300D03*
Y-420800D03*
X271150Y-410800D03*
Y-413300D03*
Y-415800D03*
Y-418300D03*
Y-420800D03*
X271350Y-391750D03*
X268850D03*
X266350D03*
X263850D03*
X261350D03*
X258850D03*
X271350Y-394250D03*
X268850D03*
X266350D03*
X263850D03*
X261350D03*
X258850D03*
X271350Y-396750D03*
X268850D03*
X266350D03*
X263850D03*
X261350D03*
X258850D03*
X258700Y-405950D03*
X261200D03*
X263700D03*
X266200D03*
X268700D03*
X271200D03*
X258700Y-403450D03*
X261200D03*
X263700D03*
X266200D03*
X268700D03*
X271200D03*
X258700Y-400950D03*
X261200D03*
X263700D03*
X266200D03*
X268700D03*
X271200D03*
X271500Y-382850D03*
X269000D03*
X266500D03*
X264000D03*
X261500D03*
X259000D03*
X271500Y-385350D03*
X269000D03*
X266500D03*
X264000D03*
X261500D03*
X259000D03*
X271500Y-387850D03*
X269000D03*
X266500D03*
X264000D03*
X261500D03*
X259000D03*
X246990Y-331550D03*
Y-346910D03*
X244650Y-344350D03*
X246990Y-341790D03*
X244650Y-339230D03*
X246990Y-336670D03*
X244650Y-334110D03*
X269210Y-313950D03*
X244650Y-328990D03*
X261950Y-263700D03*
X264490Y-239080D03*
X272910Y-224520D03*
X268660Y166660D03*
X259330Y172820D03*
X250000Y178980D03*
X244850Y276360D03*
X295900Y-421450D03*
X293400D03*
X290900D03*
X288400D03*
X285900D03*
X283400D03*
X295900Y-416450D03*
X293400D03*
X290900D03*
X288400D03*
X285900D03*
X283400D03*
X295900Y-418950D03*
X293400D03*
X290900D03*
X288400D03*
X285900D03*
X283400D03*
X295700Y-408000D03*
X293200D03*
X290700D03*
X288200D03*
X285700D03*
X283200D03*
X295700Y-410500D03*
X293200D03*
X290700D03*
X288200D03*
X285700D03*
X283200D03*
X295700Y-413000D03*
X293200D03*
X290700D03*
X288200D03*
X285700D03*
X283200D03*
X282750Y-327700D03*
X285250D03*
X287750D03*
X290250D03*
X292750D03*
X295250D03*
X282750Y-325200D03*
X285250D03*
X287750D03*
X290250D03*
X292750D03*
X295250D03*
X282750Y-322700D03*
X285250D03*
X287750D03*
X290250D03*
X292750D03*
X295250D03*
X274760Y-244800D03*
X294900Y-253940D03*
X291150Y-256500D03*
X294900Y-259060D03*
X291150Y-261620D03*
X285740Y-225800D03*
X297990Y-200430D03*
X277320Y-171660D03*
X277990Y-160500D03*
X278660Y-149340D03*
X279330Y-138180D03*
X280000Y-127020D03*
X280670Y-115860D03*
X281340Y-104700D03*
X282010Y-93540D03*
X301000Y40000D03*
X296000Y50000D03*
X291000Y60000D03*
X287320Y154340D03*
X277990Y160500D03*
X330650Y-399250D03*
Y-401750D03*
Y-404250D03*
X330700Y-393000D03*
Y-395500D03*
X330800Y-373200D03*
Y-381600D03*
Y-384100D03*
Y-386600D03*
Y-375700D03*
Y-378200D03*
X330700Y-390500D03*
X306900Y-338000D03*
Y-340500D03*
X309400Y-338000D03*
Y-340500D03*
X311900Y-338000D03*
Y-340500D03*
X306900Y-333000D03*
Y-335500D03*
X309400Y-333000D03*
Y-335500D03*
X311900Y-333000D03*
Y-335500D03*
X306900Y-328000D03*
Y-330500D03*
X309400Y-328000D03*
Y-330500D03*
X311900Y-328000D03*
Y-330500D03*
X329700Y-321800D03*
X332200D03*
X318300Y-321700D03*
X320800D03*
X323300D03*
X327200Y-321800D03*
X329700Y-311800D03*
X332200D03*
X329700Y-309300D03*
X332200D03*
X329700Y-314300D03*
Y-316800D03*
X332200Y-314300D03*
Y-316800D03*
X329700Y-319300D03*
X332200D03*
X318300Y-309200D03*
Y-311700D03*
X320800Y-309200D03*
Y-311700D03*
X323300Y-309200D03*
Y-311700D03*
X327200Y-311800D03*
Y-309300D03*
X318300Y-314200D03*
Y-316700D03*
X320800Y-314200D03*
Y-316700D03*
X323300Y-314200D03*
Y-316700D03*
X318300Y-319200D03*
X320800D03*
X323300D03*
X327200Y-314300D03*
Y-316800D03*
Y-319300D03*
X309750Y-261350D03*
X309300Y-266550D03*
X325600Y-126300D03*
X326000Y-10000D03*
X316000Y10000D03*
X311000Y20000D03*
X321000Y0D03*
X306000Y30000D03*
X329400Y125280D03*
X321350Y158220D03*
X315180Y168910D03*
X340650Y-399250D03*
Y-401750D03*
Y-404250D03*
X340700Y-393000D03*
Y-395500D03*
X343150Y-399250D03*
Y-401750D03*
Y-404250D03*
X343200Y-393000D03*
Y-395500D03*
X338150Y-399250D03*
X335650D03*
X338150Y-401750D03*
X335650D03*
X338150Y-404250D03*
X335650D03*
X333150Y-399250D03*
Y-401750D03*
Y-404250D03*
X338200Y-393000D03*
X335700D03*
X338200Y-395500D03*
X335700D03*
X333200Y-393000D03*
Y-395500D03*
X343300Y-373200D03*
X340800D03*
X343300Y-381600D03*
X340800D03*
X343300Y-384100D03*
X340800D03*
X343300Y-386600D03*
X340800D03*
X343300Y-375700D03*
X340800D03*
X343300Y-378200D03*
X340800D03*
X340700Y-390500D03*
X343200D03*
X338300Y-373200D03*
X335800D03*
X338300Y-381600D03*
X335800D03*
X338300Y-384100D03*
X335800D03*
X338300Y-386600D03*
X335800D03*
X338300Y-375700D03*
X335800D03*
X338300Y-378200D03*
X335800D03*
X333300Y-373200D03*
Y-381600D03*
Y-384100D03*
Y-386600D03*
Y-375700D03*
Y-378200D03*
X338200Y-390500D03*
X335700D03*
X333200D03*
X335950Y-321850D03*
X338450D03*
X340950D03*
X335950Y-311850D03*
X338450D03*
X340950D03*
X335950Y-309350D03*
X338450D03*
X340950D03*
X335950Y-314350D03*
Y-316850D03*
X338450Y-314350D03*
Y-316850D03*
X340950Y-314350D03*
Y-316850D03*
X335950Y-319350D03*
X338450D03*
X340950D03*
X354200Y-319850D03*
X349550Y-251420D03*
X338550Y-246300D03*
Y-248860D03*
X350010Y-232260D03*
X359050Y-74620D03*
X347450Y-74460D03*
X359050Y-52680D03*
X347450Y-57640D03*
X360400Y-24410D03*
X343800Y62400D03*
X348130Y117850D03*
X337800Y110720D03*
X337170Y136850D03*
X343800Y225300D03*
X371600Y-271890D03*
Y-274450D03*
Y-246300D03*
Y-248860D03*
Y-266770D03*
Y-269330D03*
X366050Y-227000D03*
X395850Y-39450D03*
X397850Y143100D03*
X430150Y-39450D03*
X436950Y143100D03*
G54D12*
X-325860Y-107310D03*
X-335860Y-70000D03*
Y-60000D03*
Y-50000D03*
Y-40000D03*
Y-30000D03*
Y-20000D03*
Y-10000D03*
Y0D03*
Y10000D03*
Y20000D03*
Y30000D03*
Y40000D03*
Y50000D03*
Y60000D03*
Y70000D03*
X-325860Y107310D03*
X-295860Y-159270D03*
X-300860Y-150610D03*
X-305860Y-141950D03*
X-310860Y-133290D03*
X-315860Y-124630D03*
X-320860Y-115970D03*
Y115970D03*
X-315860Y124630D03*
X-310860Y133290D03*
X-305860Y141950D03*
X-300860Y150610D03*
X-295860Y159270D03*
X-265860Y-211230D03*
X-270860Y-202570D03*
X-275860Y-193910D03*
X-280860Y-185250D03*
X-285860Y-176590D03*
X-290860Y-167930D03*
Y167930D03*
X-285860Y176590D03*
X-280860Y185250D03*
X-275860Y193910D03*
X-270860Y202570D03*
X-265860Y211230D03*
X-255860Y-228550D03*
X-260860Y-219890D03*
Y219890D03*
X-255860Y228550D03*
X-211230Y-265860D03*
X-219890Y-260860D03*
X-228550Y-255860D03*
Y255860D03*
X-219890Y260860D03*
X-211230Y265860D03*
X-176590Y-285860D03*
X-185250Y-280860D03*
X-193910Y-275860D03*
X-202570Y-270860D03*
Y270860D03*
X-193910Y275860D03*
X-185250Y280860D03*
X-176590Y285860D03*
X-150610Y-300860D03*
X-159270Y-295860D03*
X-167930Y-290860D03*
Y290860D03*
X-159270Y295860D03*
X-150610Y300860D03*
X-115970Y-320860D03*
X-124630Y-315860D03*
X-133290Y-310860D03*
X-141950Y-305860D03*
Y305860D03*
X-133290Y310860D03*
X-124630Y315860D03*
X-115970Y320860D03*
X-107310Y-325860D03*
Y325860D03*
X-60000Y-335860D03*
X-70000D03*
Y335860D03*
X-60000D03*
X-30000Y-335860D03*
X-40000D03*
X-50000D03*
Y335860D03*
X-40000D03*
X-30000D03*
X0Y-335860D03*
X-10000D03*
X-20000D03*
Y335860D03*
X-10000D03*
X0D03*
X30000Y-335860D03*
X20000D03*
X10000D03*
Y335860D03*
X20000D03*
X30000D03*
X60000Y-335860D03*
X50000D03*
X40000D03*
Y335860D03*
X50000D03*
X60000D03*
X70000Y-335860D03*
Y335860D03*
X115970Y-320860D03*
X107310Y-325860D03*
Y325860D03*
X115970Y320860D03*
X150610Y-300860D03*
X141950Y-305860D03*
X133290Y-310860D03*
X124630Y-315860D03*
X150610Y300860D03*
X124630Y315860D03*
X133290Y310860D03*
X141950Y305860D03*
X176590Y-285860D03*
X167930Y-290860D03*
X159270Y-295860D03*
Y295860D03*
X167930Y290860D03*
X176590Y285860D03*
X202570Y-270860D03*
X193910Y-275860D03*
X185250Y-280860D03*
X211230Y-265860D03*
X202570Y270860D03*
X211230Y265860D03*
X185250Y280860D03*
X193910Y275860D03*
X228550Y-255860D03*
X219890Y-260860D03*
Y260860D03*
X228550Y255860D03*
X265860Y-211230D03*
X260860Y-219890D03*
X255860Y-228550D03*
X270860Y-202570D03*
Y202570D03*
X255860Y228550D03*
X260860Y219890D03*
X265860Y211230D03*
X280860Y-185250D03*
X275860Y-193910D03*
X300860Y-150610D03*
X295860Y-159270D03*
X290860Y-167930D03*
X285860Y-176590D03*
X300860Y150610D03*
X285860Y176590D03*
X290860Y167930D03*
X295860Y159270D03*
X275860Y193910D03*
X280860Y185250D03*
X315860Y-124630D03*
X310860Y-133290D03*
X305860Y-141950D03*
X325860Y-107310D03*
X320860Y-115970D03*
Y115970D03*
X325860Y107310D03*
X305860Y141950D03*
X310860Y133290D03*
X315860Y124630D03*
X335860Y-70000D03*
Y-40000D03*
Y-50000D03*
Y-60000D03*
Y-10000D03*
Y-20000D03*
Y-30000D03*
Y20000D03*
Y10000D03*
Y0D03*
Y50000D03*
Y40000D03*
Y30000D03*
Y70000D03*
Y60000D03*
G54D13*
X0Y0D03*
G54D14*
X-54510Y-403940D03*
X52690D03*
G54D15*
X233600Y-427950D03*
G54D16*
X252100Y-439760D03*
Y-416140D03*
G54D17*
G01X-400000Y-410710D02*
Y-400000D01*
G01D02*
Y-389290D01*
G01X-410710Y-400000D02*
X-400000D01*
G01D02*
X-389290D01*
G01X-400000Y389290D02*
Y400000D01*
G01D02*
Y410710D01*
G01X-410710Y400000D02*
X-400000D01*
G01D02*
X-389290D01*
G01X-335860Y56290D02*
Y60000D01*
G01D02*
Y63710D01*
G01X-339570Y60000D02*
X-335860D01*
G01D02*
X-332150D01*
G01X-320860Y-119680D02*
Y-115970D01*
G01D02*
Y-112260D01*
G01X-324570Y-115970D02*
X-320860D01*
G01D02*
X-317150D01*
G01X-285710Y0D02*
X0D01*
G01X-260860Y216180D02*
Y219890D01*
G01D02*
Y223600D01*
G01X-264570Y219890D02*
X-260860D01*
G01D02*
X-257150D01*
G01X-219890Y-264570D02*
Y-260860D01*
G01D02*
Y-257150D01*
G01X-223600Y-260860D02*
X-219890D01*
G01D02*
X-216180D01*
G01X-115970Y317150D02*
Y320860D01*
G01D02*
Y324570D01*
G01X-119680Y320860D02*
X-115970D01*
G01D02*
X-112260D01*
G01X-60000Y-339570D02*
Y-335860D01*
G01D02*
Y-332150D01*
G01X-63710Y-335860D02*
X-60000D01*
G01D02*
X-56290D01*
G01X0Y-285710D02*
Y0D01*
G01D02*
Y285710D01*
G01Y0D02*
X285710D01*
G01X60000Y332150D02*
Y335860D01*
G01D02*
Y339570D01*
G01X56290Y335860D02*
X60000D01*
G01D02*
X63710D01*
G01X115970Y-324570D02*
Y-320860D01*
G01D02*
Y-317150D01*
G01X112260Y-320860D02*
X115970D01*
G01D02*
X119680D01*
G01X233600Y-438510D02*
Y-427950D01*
G01D02*
Y-417390D01*
G01X228950Y-427950D02*
X233600D01*
G01D02*
X238250D01*
G01X219890Y257150D02*
Y260860D01*
G01D02*
Y264570D01*
G01X216180Y260860D02*
X219890D01*
G01D02*
X223600D01*
G01X252100Y-444410D02*
Y-439760D01*
G01D02*
Y-435110D01*
G01X241540Y-439760D02*
X252100D01*
G01D02*
X262660D01*
G01X260860Y-223600D02*
Y-219890D01*
G01D02*
Y-216180D01*
G01X257150Y-219890D02*
X260860D01*
G01D02*
X264570D01*
G01X320860Y112260D02*
Y115970D01*
G01D02*
Y119680D01*
G01X317150Y115970D02*
X320860D01*
G01D02*
X324570D01*
G01X335860Y-63710D02*
Y-60000D01*
G01D02*
Y-56290D01*
G01X332150Y-60000D02*
X335860D01*
G01D02*
X339570D01*
G01X389290Y-400000D02*
X400000D01*
G01X389290Y400000D02*
X400000D01*
G01Y-410710D02*
Y-400000D01*
G01D02*
Y-389290D01*
G01Y-400000D02*
X410710D01*
G01X400000Y389290D02*
Y400000D01*
G01D02*
Y410710D01*
G01Y400000D02*
X410710D01*
G54D18*
G01X-435200Y169000D02*
X-405000D01*
G54D19*
G01X-460000Y-480000D02*
G03I-15000J5000D01*
G01X-465000D02*
G03I-10000J5000D01*
G01X-495000Y-475000D02*
X-455000D01*
G01X-485000Y500000D02*
Y460000D01*
G01X-470000Y475000D02*
G03I-15000J5000D01*
G01X-475000D02*
G03I-10000J5000D01*
G01X-505000Y480000D02*
X-465000D01*
G01X-475000Y-455000D02*
Y-495000D01*
G01X-450000Y-450000D02*
X450000D01*
Y450000D01*
X-450000D01*
Y-450000D01*
G01X-376500Y-400000D02*
G03I-23500J0D01*
G01Y399930D02*
G03I-23500J2D01*
G01X275000Y0D02*
G03I-275000J0D01*
G01X0Y-9000D02*
Y9000D01*
G01Y-9000D02*
Y9000D01*
G01X-9000Y0D02*
X9000D01*
G01X-9000D02*
X9000D01*
G01X423500Y-400000D02*
G03I-23500J0D01*
G01Y399930D02*
G03I-23500J2D01*
G01X480000Y-450000D02*
Y-490000D01*
G01X495000Y-475000D02*
G03I-15000J5000D01*
G01X460000Y-470000D02*
X500000D01*
G01X490000Y-475000D02*
G03I-10000J5000D01*
G01Y455000D02*
G03I-15000J5000D01*
G01X475000Y480000D02*
Y440000D01*
G01X485000Y455000D02*
G03I-10000J5000D01*
G01X455000Y460000D02*
X495000D01*
M02*
