<?xml version="1.0" encoding="UTF-8" standalone="no"?>
<!-- Created with Inkscape (http://www.inkscape.org/) -->

<svg
   width="0.69999999in"
   height="1.15in"
   viewBox="0 0 17.78 29.209998"
   version="1.1"
   id="svg54016"
   inkscape:version="1.1.2 (0a00cf5339, 2022-02-04)"
   sodipodi:docname="tethered_fly_icon.svg"
   inkscape:export-filename="/home/wbd/work/images/fruitfly/tethered_fly_icon.bmp"
   inkscape:export-xdpi="96"
   inkscape:export-ydpi="96"
   xmlns:inkscape="http://www.inkscape.org/namespaces/inkscape"
   xmlns:sodipodi="http://sodipodi.sourceforge.net/DTD/sodipodi-0.dtd"
   xmlns="http://www.w3.org/2000/svg"
   xmlns:svg="http://www.w3.org/2000/svg">
  <sodipodi:namedview
     id="namedview54018"
     pagecolor="#ffffff"
     bordercolor="#666666"
     borderopacity="1.0"
     inkscape:pageshadow="2"
     inkscape:pageopacity="0.0"
     inkscape:pagecheckerboard="0"
     inkscape:document-units="mm"
     showgrid="false"
     units="in"
     inkscape:zoom="4.6777596"
     inkscape:cx="24.370641"
     inkscape:cy="44.145065"
     inkscape:window-width="1920"
     inkscape:window-height="1127"
     inkscape:window-x="0"
     inkscape:window-y="0"
     inkscape:window-maximized="1"
     inkscape:current-layer="layer1" />
  <defs
     id="defs54013" />
  <g
     inkscape:label="Layer 1"
     inkscape:groupmode="layer"
     id="layer1">
    <g
       id="g58331"
       transform="matrix(1.943227,0,0,1.943227,-2.773713,-0.37800667)">
      <path
         style="color:#000000;fill:none;fill-opacity:1;stroke:#000000;stroke-width:0.264583;stroke-miterlimit:6.30864;stroke-dasharray:none;stroke-opacity:1"
         d="m 6.2438422,12.895663 -1.4599154,-1.378712 -2.0681507,-0.648922 -0.030129,0.02306 c -0.4969038,0.221851 -0.7973189,0.511729 -0.7973189,0.828448 0,0.698497 1.459751,1.264413 3.2605933,1.264413 0.3847404,0 0.7543319,-0.02585 1.0969122,-0.07329"
         id="path55848" />
      <path
         style="color:#000000;fill:none;fill-opacity:1;stroke:#000000;stroke-width:0.264583;stroke-miterlimit:6.30864;stroke-dasharray:none;stroke-opacity:1"
         d="m 6.6896866,12.814436 -1.0540898,-1.41923 0.081034,-0.85167 -0.00299,-0.07214 c 1.5514865,0.09734 2.6958278,0.619112 2.6958278,1.248269 0,0.500857 -0.6296492,0.852661 -1.7191513,1.057217"
         id="path55854" />
      <path
         style="color:#000000;fill:none;fill-opacity:1;stroke:#000000;stroke-width:0.264583;stroke-miterlimit:6.30864;stroke-dasharray:none;stroke-opacity:1"
         d="m 6.0685672,7.6259985 3.0643004,-6.84408991 0.855199,0.36463961 -3.0643,6.8440899 z"
         id="path55860" />
      <path
         style="color:#000000;fill:none;fill-opacity:1;stroke:#000000;stroke-width:0.264583;stroke-miterlimit:6.30864;stroke-dasharray:none;stroke-opacity:1"
         d="M 5.9806529,7.6593782 6.041738,7.6854237 6.9580182,8.0761069 10.076297,1.1114568 9.0989314,0.69472807 Z M 6.156298,7.5920346 9.1668297,0.8680366 9.8998536,1.1805831 6.8893221,7.9045812 Z"
         id="path55862" />
      <path
         style="color:#000000;fill:none;fill-opacity:1;stroke:#000000;stroke-width:0.264583;stroke-miterlimit:6.30864;stroke-dasharray:none;stroke-opacity:1"
         d="M 5.1964157,10.813844 6.4250585,7.92265 6.4461765,7.93162 5.2175337,10.822814 Z"
         id="path55866" />
      <path
         style="fill:none;fill-opacity:1;stroke:#000000;stroke-width:0.264583;stroke-linecap:butt;stroke-linejoin:miter;stroke-miterlimit:6.30864;stroke-dasharray:none;stroke-opacity:1"
         d="m 2.7157759,10.868029 -0.2209979,0.111475 -0.207789,0.124613 -0.1597673,0.114266 -0.136516,0.139156 -0.067805,0.145162 -0.038424,0.228016 0.020452,0.175143 0.1263211,0.205023 0.2204949,0.214886 0.2580071,0.159469 0.6104612,0.235735 0.879411,0.20391 0.6080331,0.05281 0.8146613,5.83e-4 L 6.245834,12.910646 6.0611244,12.722592 5.6820295,12.348851 4.7839267,11.516939 Z"
         id="path55940" />
      <path
         style="fill:none;fill-opacity:1;stroke:#000000;stroke-width:0.264583;stroke-linecap:butt;stroke-linejoin:miter;stroke-miterlimit:6.30864;stroke-dasharray:none;stroke-opacity:1"
         d="m 5.6355967,11.395206 0.078044,-0.92381 0.2342523,0.01574 0.216036,0.02775 0.4332928,0.06982 0.4051596,0.08582 0.45871,0.148003 0.3238764,0.147227 0.2815815,0.180254 0.1931363,0.171297 0.134261,0.228685 0.034363,0.234064 -0.093602,0.233053 -0.1470274,0.178824 -0.2865228,0.209018 -0.2726071,0.121988 -0.3475815,0.114749 -0.5906519,0.139191 -0.2531692,-0.33513 -0.3084584,-0.387069 z"
         id="path55975" />
      <path
         style="fill:none;fill-opacity:1;stroke:#000000;stroke-width:0.264583;stroke-linecap:butt;stroke-linejoin:miter;stroke-miterlimit:6.30864;stroke-dasharray:none;stroke-opacity:1"
         d="m 4.0663887,11.25417 -0.051813,-0.180481 0.031739,-0.185314 0.052187,-0.146928 0.083109,-0.121155 0.09914,-0.10168 0.1579221,-0.100374 0.117515,-0.04638 0.1509853,-0.01823 0.1529736,0.03139 0.1514843,0.07644 0.089536,0.10041 0.041437,0.146073 v 0.173114 h 0.013158"
         id="path56108" />
      <path
         style="fill:none;fill-opacity:1;stroke:#000000;stroke-width:0.264583;stroke-linecap:butt;stroke-linejoin:miter;stroke-miterlimit:6.30864;stroke-dasharray:none;stroke-opacity:1"
         d="m 4.3319845,11.376813 0.031635,-0.09223 0.069102,-0.097 0.079654,-0.0751 0.1276292,-0.07534 0.1278599,-0.059 0.1806649,-0.02965 0.167963,0.0045 0.1789713,0.05225 0.1730301,0.113273 0.094314,0.08113 0.061313,0.06175 0.021294,0.01356"
         id="path56143" />
      <path
         style="fill:none;fill-opacity:1;stroke:#000000;stroke-width:0.264583;stroke-linecap:butt;stroke-linejoin:miter;stroke-miterlimit:6.30864;stroke-dasharray:none;stroke-opacity:1"
         d="m 5.9154859,11.767022 0.016285,0.134718 -0.00346,0.178814 -0.017923,0.109894"
         id="path56291" />
      <path
         style="fill:none;fill-opacity:1;stroke:#000000;stroke-width:0.264583;stroke-linecap:butt;stroke-linejoin:miter;stroke-miterlimit:6.30864;stroke-dasharray:none;stroke-opacity:1"
         d="m 5.4238435,12.115878 0.099415,-0.0189 c 0,0 0.082347,0.0052 0.092462,0.0075 0.010115,0.0023 0.1593178,0.04138 0.1593178,0.04138 l 0.045023,0.01784 0.090326,0.02675 0.1445659,0.110324 0.1396328,0.109902 0.1228416,0.131627 0.1082958,0.123977 0.094223,0.160842 0.057222,0.09896 0.078189,0.152038 0.0558,0.116269 0.057778,0.163058 0.046927,0.184702 0.028502,0.188823 0.00558,0.151532 -0.028715,0.172943 -0.041872,0.172246 -0.098286,0.179228 -0.1121259,0.136239 -0.093285,0.09092 -0.077039,0.01379 -0.1673503,-0.02229 -0.1829414,-0.05856 -0.158179,-0.07206 L 5.7386916,14.41587 5.5510152,14.29282 5.3899078,14.148797 5.2730675,13.994025 5.170071,13.813101 5.0783598,13.668821 5.012667,13.508724 4.9314989,13.331195 4.9063264,13.183162 4.8573118,13.043297 4.8348143,12.974782 v 0"
         id="path56326" />
      <path
         style="fill:none;fill-opacity:1;stroke:#000000;stroke-width:0.264583;stroke-linecap:butt;stroke-linejoin:miter;stroke-miterlimit:6.30864;stroke-dasharray:none;stroke-opacity:1"
         d="M 5.2175338,10.822819 5.4262771,10.317363 6.4901487,7.8179469"
         id="path56474" />
    </g>
  </g>
</svg>
