M48
METRIC,LZ
T01C.33
T02C.8
T03C4.305
T04C.2
;LEADER: 12 
;HEADER: 
;CODE  : ASCII 
;FILE  : Interconnector V0-1-2.drl for  ... layers TOP and BOTTOM
;DESIGN: Interconnector V0.brd
;T01 Holesize 1. = 0.330000 Tolerance = +0.000000/-0.000000 PLATED MM Quantity = 42
;T02 Holesize 2. = 0.800000 Tolerance = +0.000000/-0.000000 PLATED MM Quantity = 68
;T03 Holesize 3. = 4.305000 Tolerance = +0.000000/-0.000000 PLATED MM Quantity = 4
;T04 Holesize 4. = 0.200000 Tolerance = +0.000000/-0.000000 NON_PLATED MM Quantity = 2
%
G90
T01
X00762Y-01016
X018402Y-02667
X018716Y-02921
X00762Y-00508
X010494Y-0318
X00318Y-0318
X009806Y-03302
X00762Y-00635
X003816Y-03302
X01936Y-02413
X-001612Y-01397
X00762Y-01397
X008586Y-035298
X00762Y-00889
X005088Y-03556
X00762Y-01143
X01904Y-0254
X009168Y-03429
X00762Y-00762
X004452Y-03429
X00762Y-01905
X005768Y-02794
X00577Y-02921
X00762Y-01524
X00762Y-0127
X00762Y-02667
X00762Y-02032
X00762Y-02286
X00762Y-01651
X00762Y-0254
X00762Y-02413
X00762Y-01778
X00762Y-02159
X02255Y-01778
X021912Y-01905
X021274Y-02032
X023188Y-01651
X024464Y-01397
X020636Y-02159
X019998Y-02286
X023826Y-01524
X01951Y-0127
T02
X-01016Y00254
X-012065Y00127
X-01016Y0
X-012065Y-00127
X-01016Y-00254
X-012065Y-00381
X-01016Y-00508
X-012065Y-00635
X-01016Y-00762
X-012065Y-00889
X-01016Y-01016
X-012065Y-01143
X-01016Y-0127
X-012065Y-01397
X-01016Y-01524
X-012065Y-01651
X-01016Y-01778
X-012065Y-01905
X-01016Y-02032
X-012065Y-02159
X-01016Y-02286
X-012065Y-02413
X-01016Y-0254
X-012065Y-02667
X-01016Y-02794
X-012065Y-02921
X-01016Y-03048
X-012065Y-03175
X-01016Y-03302
X-012065Y-03429
X-01016Y-03556
X-012065Y-03683
X-01016Y-0381
X-012065Y-03937
X-01397Y00254
X-015875Y00127
X-01397Y0
X-015875Y-00127
X-01397Y-00254
X-015875Y-00381
X-01397Y-00508
X-015875Y-00635
X-01397Y-00762
X-015875Y-00889
X-01397Y-01016
X-015875Y-01143
X-01397Y-0127
X-015875Y-01397
X-01397Y-01524
X-015875Y-01651
X-01397Y-01778
X-015875Y-01905
X-01397Y-02032
X-015875Y-02159
X-01397Y-02286
X-015875Y-02413
X-01397Y-0254
X-015875Y-02667
X-01397Y-02794
X-015875Y-02921
X-01397Y-03048
X-015875Y-03175
X-01397Y-03302
X-015875Y-03429
X-01397Y-03556
X-015875Y-03683
X-01397Y-0381
X-015875Y-03937
T03
X-01778Y-05588
X-01778Y028
X020352Y028
X020352Y-055968
T04
X013565Y-03075
X013565Y-00352
M30
