%TF.GenerationSoftware,KiCad,Pcbnew,7.0.10-7.0.10~ubuntu22.04.1*%
%TF.CreationDate,2024-09-27T12:23:01-07:00*%
%TF.ProjectId,teensy_arena_12-12,7465656e-7379-45f6-9172-656e615f3132,rev?*%
%TF.SameCoordinates,Original*%
%TF.FileFunction,Copper,L1,Top*%
%TF.FilePolarity,Positive*%
%FSLAX46Y46*%
G04 Gerber Fmt 4.6, Leading zero omitted, Abs format (unit mm)*
G04 Created by KiCad (PCBNEW 7.0.10-7.0.10~ubuntu22.04.1) date 2024-09-27 12:23:01*
%MOMM*%
%LPD*%
G01*
G04 APERTURE LIST*
G04 Aperture macros list*
%AMRoundRect*
0 Rectangle with rounded corners*
0 $1 Rounding radius*
0 $2 $3 $4 $5 $6 $7 $8 $9 X,Y pos of 4 corners*
0 Add a 4 corners polygon primitive as box body*
4,1,4,$2,$3,$4,$5,$6,$7,$8,$9,$2,$3,0*
0 Add four circle primitives for the rounded corners*
1,1,$1+$1,$2,$3*
1,1,$1+$1,$4,$5*
1,1,$1+$1,$6,$7*
1,1,$1+$1,$8,$9*
0 Add four rect primitives between the rounded corners*
20,1,$1+$1,$2,$3,$4,$5,0*
20,1,$1+$1,$4,$5,$6,$7,0*
20,1,$1+$1,$6,$7,$8,$9,0*
20,1,$1+$1,$8,$9,$2,$3,0*%
%AMRotRect*
0 Rectangle, with rotation*
0 The origin of the aperture is its center*
0 $1 length*
0 $2 width*
0 $3 Rotation angle, in degrees counterclockwise*
0 Add horizontal line*
21,1,$1,$2,0,0,$3*%
G04 Aperture macros list end*
%TA.AperFunction,SMDPad,CuDef*%
%ADD10RoundRect,0.587500X0.587500X1.162500X-0.587500X1.162500X-0.587500X-1.162500X0.587500X-1.162500X0*%
%TD*%
%TA.AperFunction,SMDPad,CuDef*%
%ADD11RoundRect,0.150000X-0.150000X0.512500X-0.150000X-0.512500X0.150000X-0.512500X0.150000X0.512500X0*%
%TD*%
%TA.AperFunction,SMDPad,CuDef*%
%ADD12RoundRect,0.225000X0.250000X-0.225000X0.250000X0.225000X-0.250000X0.225000X-0.250000X-0.225000X0*%
%TD*%
%TA.AperFunction,SMDPad,CuDef*%
%ADD13RoundRect,0.225000X0.329006X-0.069856X0.104006X0.319856X-0.329006X0.069856X-0.104006X-0.319856X0*%
%TD*%
%TA.AperFunction,ComponentPad*%
%ADD14C,9.000000*%
%TD*%
%TA.AperFunction,ComponentPad*%
%ADD15R,1.600000X1.600000*%
%TD*%
%TA.AperFunction,ComponentPad*%
%ADD16C,1.600000*%
%TD*%
%TA.AperFunction,SMDPad,CuDef*%
%ADD17RoundRect,0.225000X0.225000X0.250000X-0.225000X0.250000X-0.225000X-0.250000X0.225000X-0.250000X0*%
%TD*%
%TA.AperFunction,SMDPad,CuDef*%
%ADD18RoundRect,0.225000X-0.250000X0.225000X-0.250000X-0.225000X0.250000X-0.225000X0.250000X0.225000X0*%
%TD*%
%TA.AperFunction,SMDPad,CuDef*%
%ADD19RoundRect,0.200000X-0.200000X-0.275000X0.200000X-0.275000X0.200000X0.275000X-0.200000X0.275000X0*%
%TD*%
%TA.AperFunction,ComponentPad*%
%ADD20RotRect,1.600000X1.600000X240.000000*%
%TD*%
%TA.AperFunction,SMDPad,CuDef*%
%ADD21RoundRect,0.200000X0.200000X0.275000X-0.200000X0.275000X-0.200000X-0.275000X0.200000X-0.275000X0*%
%TD*%
%TA.AperFunction,SMDPad,CuDef*%
%ADD22RoundRect,0.225000X-0.104006X0.319856X-0.329006X-0.069856X0.104006X-0.319856X0.329006X0.069856X0*%
%TD*%
%TA.AperFunction,SMDPad,CuDef*%
%ADD23RoundRect,0.225000X-0.329006X0.069856X-0.104006X-0.319856X0.329006X-0.069856X0.104006X0.319856X0*%
%TD*%
%TA.AperFunction,SMDPad,CuDef*%
%ADD24RoundRect,0.225000X-0.225000X-0.250000X0.225000X-0.250000X0.225000X0.250000X-0.225000X0.250000X0*%
%TD*%
%TA.AperFunction,SMDPad,CuDef*%
%ADD25RoundRect,0.150000X-0.368838X-0.386154X0.518838X0.126346X0.368838X0.386154X-0.518838X-0.126346X0*%
%TD*%
%TA.AperFunction,ComponentPad*%
%ADD26C,2.540000*%
%TD*%
%TA.AperFunction,SMDPad,CuDef*%
%ADD27RoundRect,0.100000X0.637500X0.100000X-0.637500X0.100000X-0.637500X-0.100000X0.637500X-0.100000X0*%
%TD*%
%TA.AperFunction,SMDPad,CuDef*%
%ADD28RoundRect,0.225000X0.069856X0.329006X-0.319856X0.104006X-0.069856X-0.329006X0.319856X-0.104006X0*%
%TD*%
%TA.AperFunction,SMDPad,CuDef*%
%ADD29RoundRect,0.200000X-0.035705X-0.338157X0.310705X-0.138157X0.035705X0.338157X-0.310705X0.138157X0*%
%TD*%
%TA.AperFunction,SMDPad,CuDef*%
%ADD30RoundRect,0.100000X-0.100000X0.637500X-0.100000X-0.637500X0.100000X-0.637500X0.100000X0.637500X0*%
%TD*%
%TA.AperFunction,SMDPad,CuDef*%
%ADD31RoundRect,0.200000X0.338157X-0.035705X0.138157X0.310705X-0.338157X0.035705X-0.138157X-0.310705X0*%
%TD*%
%TA.AperFunction,SMDPad,CuDef*%
%ADD32RoundRect,0.200000X0.035705X0.338157X-0.310705X0.138157X-0.035705X-0.338157X0.310705X-0.138157X0*%
%TD*%
%TA.AperFunction,SMDPad,CuDef*%
%ADD33RoundRect,0.150000X-0.518838X0.126346X0.368838X-0.386154X0.518838X-0.126346X-0.368838X0.386154X0*%
%TD*%
%TA.AperFunction,ComponentPad*%
%ADD34RotRect,1.600000X1.600000X150.000000*%
%TD*%
%TA.AperFunction,ComponentPad*%
%ADD35RotRect,1.600000X1.600000X210.000000*%
%TD*%
%TA.AperFunction,SMDPad,CuDef*%
%ADD36RoundRect,0.587500X-1.300505X-0.072460X-0.713005X-1.090040X1.300505X0.072460X0.713005X1.090040X0*%
%TD*%
%TA.AperFunction,SMDPad,CuDef*%
%ADD37RoundRect,0.150000X0.625000X-0.150000X0.625000X0.150000X-0.625000X0.150000X-0.625000X-0.150000X0*%
%TD*%
%TA.AperFunction,SMDPad,CuDef*%
%ADD38RoundRect,0.250000X0.650000X-0.350000X0.650000X0.350000X-0.650000X0.350000X-0.650000X-0.350000X0*%
%TD*%
%TA.AperFunction,SMDPad,CuDef*%
%ADD39RoundRect,0.200000X-0.338157X0.035705X-0.138157X-0.310705X0.338157X-0.035705X0.138157X0.310705X0*%
%TD*%
%TA.AperFunction,SMDPad,CuDef*%
%ADD40RoundRect,0.200000X-0.138157X0.310705X-0.338157X-0.035705X0.138157X-0.310705X0.338157X0.035705X0*%
%TD*%
%TA.AperFunction,SMDPad,CuDef*%
%ADD41RoundRect,0.225000X-0.069856X-0.329006X0.319856X-0.104006X0.069856X0.329006X-0.319856X0.104006X0*%
%TD*%
%TA.AperFunction,SMDPad,CuDef*%
%ADD42RoundRect,0.200000X-0.310705X-0.138157X0.035705X-0.338157X0.310705X0.138157X-0.035705X0.338157X0*%
%TD*%
%TA.AperFunction,SMDPad,CuDef*%
%ADD43RoundRect,0.200000X0.275000X-0.200000X0.275000X0.200000X-0.275000X0.200000X-0.275000X-0.200000X0*%
%TD*%
%TA.AperFunction,SMDPad,CuDef*%
%ADD44RoundRect,0.225000X0.104006X-0.319856X0.329006X0.069856X-0.104006X0.319856X-0.329006X-0.069856X0*%
%TD*%
%TA.AperFunction,SMDPad,CuDef*%
%ADD45RoundRect,0.200000X0.138157X-0.310705X0.338157X0.035705X-0.138157X0.310705X-0.338157X-0.035705X0*%
%TD*%
%TA.AperFunction,SMDPad,CuDef*%
%ADD46RoundRect,0.587500X1.300505X0.072460X0.713005X1.090040X-1.300505X-0.072460X-0.713005X-1.090040X0*%
%TD*%
%TA.AperFunction,SMDPad,CuDef*%
%ADD47RoundRect,0.150000X0.512500X0.150000X-0.512500X0.150000X-0.512500X-0.150000X0.512500X-0.150000X0*%
%TD*%
%TA.AperFunction,SMDPad,CuDef*%
%ADD48RoundRect,0.587500X1.162500X-0.587500X1.162500X0.587500X-1.162500X0.587500X-1.162500X-0.587500X0*%
%TD*%
%TA.AperFunction,SMDPad,CuDef*%
%ADD49RoundRect,0.225000X-0.319856X-0.104006X0.069856X-0.329006X0.319856X0.104006X-0.069856X0.329006X0*%
%TD*%
%TA.AperFunction,SMDPad,CuDef*%
%ADD50RoundRect,0.150000X0.126346X0.518838X-0.386154X-0.368838X-0.126346X-0.518838X0.386154X0.368838X0*%
%TD*%
%TA.AperFunction,ComponentPad*%
%ADD51C,3.556000*%
%TD*%
%TA.AperFunction,ComponentPad*%
%ADD52C,1.930400*%
%TD*%
%TA.AperFunction,ComponentPad*%
%ADD53C,4.064000*%
%TD*%
%TA.AperFunction,SMDPad,CuDef*%
%ADD54RoundRect,0.225000X0.319856X0.104006X-0.069856X0.329006X-0.319856X-0.104006X0.069856X-0.329006X0*%
%TD*%
%TA.AperFunction,ComponentPad*%
%ADD55RotRect,1.600000X1.600000X30.000000*%
%TD*%
%TA.AperFunction,SMDPad,CuDef*%
%ADD56RoundRect,0.587500X-0.587500X-1.162500X0.587500X-1.162500X0.587500X1.162500X-0.587500X1.162500X0*%
%TD*%
%TA.AperFunction,SMDPad,CuDef*%
%ADD57RoundRect,0.250000X-0.262500X-0.450000X0.262500X-0.450000X0.262500X0.450000X-0.262500X0.450000X0*%
%TD*%
%TA.AperFunction,ComponentPad*%
%ADD58RotRect,1.600000X1.600000X200.000000*%
%TD*%
%TA.AperFunction,ComponentPad*%
%ADD59RotRect,1.300000X1.300000X200.000000*%
%TD*%
%TA.AperFunction,ComponentPad*%
%ADD60C,1.300000*%
%TD*%
%TA.AperFunction,SMDPad,CuDef*%
%ADD61RoundRect,0.150000X0.518838X-0.126346X-0.368838X0.386154X-0.518838X0.126346X0.368838X-0.386154X0*%
%TD*%
%TA.AperFunction,ComponentPad*%
%ADD62RotRect,1.600000X1.600000X60.000000*%
%TD*%
%TA.AperFunction,SMDPad,CuDef*%
%ADD63RoundRect,0.587500X0.713005X-1.090040X1.300505X-0.072460X-0.713005X1.090040X-1.300505X0.072460X0*%
%TD*%
%TA.AperFunction,ComponentPad*%
%ADD64RotRect,1.600000X1.600000X120.000000*%
%TD*%
%TA.AperFunction,SMDPad,CuDef*%
%ADD65RoundRect,0.150000X0.368838X0.386154X-0.518838X-0.126346X-0.368838X-0.386154X0.518838X0.126346X0*%
%TD*%
%TA.AperFunction,SMDPad,CuDef*%
%ADD66RoundRect,0.150000X0.150000X-0.512500X0.150000X0.512500X-0.150000X0.512500X-0.150000X-0.512500X0*%
%TD*%
%TA.AperFunction,SMDPad,CuDef*%
%ADD67RoundRect,0.587500X-0.713005X1.090040X-1.300505X0.072460X0.713005X-1.090040X1.300505X-0.072460X0*%
%TD*%
%TA.AperFunction,SMDPad,CuDef*%
%ADD68RoundRect,0.150000X-0.386154X0.368838X0.126346X-0.518838X0.386154X-0.368838X-0.126346X0.518838X0*%
%TD*%
%TA.AperFunction,SMDPad,CuDef*%
%ADD69RoundRect,0.587500X-1.090040X-0.713005X-0.072460X-1.300505X1.090040X0.713005X0.072460X1.300505X0*%
%TD*%
%TA.AperFunction,SMDPad,CuDef*%
%ADD70RoundRect,0.150000X-0.512500X-0.150000X0.512500X-0.150000X0.512500X0.150000X-0.512500X0.150000X0*%
%TD*%
%TA.AperFunction,SMDPad,CuDef*%
%ADD71RoundRect,0.200000X0.310705X0.138157X-0.035705X0.338157X-0.310705X-0.138157X0.035705X-0.338157X0*%
%TD*%
%TA.AperFunction,SMDPad,CuDef*%
%ADD72RoundRect,0.587500X-0.072460X1.300505X-1.090040X0.713005X0.072460X-1.300505X1.090040X-0.713005X0*%
%TD*%
%TA.AperFunction,SMDPad,CuDef*%
%ADD73RoundRect,0.200000X-0.275000X0.200000X-0.275000X-0.200000X0.275000X-0.200000X0.275000X0.200000X0*%
%TD*%
%TA.AperFunction,SMDPad,CuDef*%
%ADD74RoundRect,0.587500X0.072460X-1.300505X1.090040X-0.713005X-0.072460X1.300505X-1.090040X0.713005X0*%
%TD*%
%TA.AperFunction,SMDPad,CuDef*%
%ADD75RoundRect,0.150000X-0.126346X-0.518838X0.386154X0.368838X0.126346X0.518838X-0.386154X-0.368838X0*%
%TD*%
%TA.AperFunction,SMDPad,CuDef*%
%ADD76RoundRect,0.587500X1.090040X0.713005X0.072460X1.300505X-1.090040X-0.713005X-0.072460X-1.300505X0*%
%TD*%
%TA.AperFunction,ComponentPad*%
%ADD77RotRect,1.600000X1.600000X300.000000*%
%TD*%
%TA.AperFunction,SMDPad,CuDef*%
%ADD78RoundRect,0.587500X-1.162500X0.587500X-1.162500X-0.587500X1.162500X-0.587500X1.162500X0.587500X0*%
%TD*%
%TA.AperFunction,ComponentPad*%
%ADD79RotRect,1.600000X1.600000X330.000000*%
%TD*%
%TA.AperFunction,SMDPad,CuDef*%
%ADD80RoundRect,0.250000X-0.450000X0.262500X-0.450000X-0.262500X0.450000X-0.262500X0.450000X0.262500X0*%
%TD*%
%TA.AperFunction,SMDPad,CuDef*%
%ADD81RoundRect,0.150000X0.386154X-0.368838X-0.126346X0.518838X-0.386154X0.368838X0.126346X-0.518838X0*%
%TD*%
%TA.AperFunction,ViaPad*%
%ADD82C,0.600000*%
%TD*%
%TA.AperFunction,ViaPad*%
%ADD83C,1.000000*%
%TD*%
%TA.AperFunction,ViaPad*%
%ADD84C,0.800000*%
%TD*%
%TA.AperFunction,Conductor*%
%ADD85C,0.300000*%
%TD*%
%TA.AperFunction,Conductor*%
%ADD86C,0.400000*%
%TD*%
%TA.AperFunction,Conductor*%
%ADD87C,3.000000*%
%TD*%
%TA.AperFunction,Conductor*%
%ADD88C,0.600000*%
%TD*%
%TA.AperFunction,Conductor*%
%ADD89C,1.000000*%
%TD*%
G04 APERTURE END LIST*
D10*
%TO.P,L1,1*%
%TO.N,Net-(U6-SW)*%
X277583600Y-158546800D03*
%TO.P,L1,2*%
%TO.N,/Panel Headers/POW.5V_HDR_1*%
X271933600Y-158546800D03*
%TD*%
D11*
%TO.P,U15,1,GND*%
%TO.N,GND*%
X198003200Y-280511900D03*
%TO.P,U15,2,SW*%
%TO.N,Net-(U15-SW)*%
X197053200Y-280511900D03*
%TO.P,U15,3,VIN*%
%TO.N,VCC*%
X196103200Y-280511900D03*
%TO.P,U15,4,VFB*%
%TO.N,Net-(U15-VFB)*%
X196103200Y-282786900D03*
%TO.P,U15,5,EN*%
%TO.N,VCC*%
X197053200Y-282786900D03*
%TO.P,U15,6,VBST*%
%TO.N,Net-(U15-VBST)*%
X198003200Y-282786900D03*
%TD*%
D12*
%TO.P,C3,1*%
%TO.N,+3.3V*%
X286385000Y-227055000D03*
%TO.P,C3,2*%
%TO.N,GND*%
X286385000Y-225505000D03*
%TD*%
D13*
%TO.P,C23,1*%
%TO.N,VCC*%
X112872100Y-96634370D03*
%TO.P,C23,2*%
%TO.N,GND*%
X112097100Y-95292030D03*
%TD*%
D14*
%TO.P,H1,1,1*%
%TO.N,GND*%
X76200000Y-76200000D03*
%TD*%
D15*
%TO.P,P10,1*%
%TO.N,/Panel Headers/POW.5V_HDR_10*%
X195580000Y-266474000D03*
D16*
%TO.P,P10,2*%
%TO.N,GND*%
X193040000Y-266474000D03*
%TO.P,P10,3*%
%TO.N,/Panel Headers/RESET*%
X190500000Y-266474000D03*
%TO.P,P10,4*%
%TO.N,/Level Shifters/PAN5V.SCK_1*%
X187960000Y-266474000D03*
%TO.P,P10,5*%
%TO.N,/Level Shifters/PAN5V.MOSI_1*%
X185420000Y-266474000D03*
%TO.P,P10,6*%
%TO.N,/Level Shifters/PAN5V.MISO_1*%
X182880000Y-266474000D03*
%TO.P,P10,7*%
%TO.N,/Level Shifters/PAN5V.CS_15*%
X180340000Y-266474000D03*
%TO.P,P10,8*%
%TO.N,/Level Shifters/PAN5V.CS_16*%
X177800000Y-266474000D03*
%TO.P,P10,9*%
%TO.N,/Level Shifters/PAN5V.CS_17*%
X175260000Y-266474000D03*
%TO.P,P10,10*%
%TO.N,/Level Shifters/PAN5V.CS_18*%
X172720000Y-266474000D03*
%TO.P,P10,11*%
%TO.N,/Level Shifters/PAN5V.CS_19*%
X170180000Y-266474000D03*
%TO.P,P10,12*%
%TO.N,unconnected-(P10-Pad12)*%
X167640000Y-266474000D03*
%TO.P,P10,13*%
%TO.N,unconnected-(P10-Pad13)*%
X165100000Y-266474000D03*
%TO.P,P10,14*%
%TO.N,unconnected-(P10-Pad14)*%
X162560000Y-266474000D03*
%TO.P,P10,15*%
%TO.N,/Level Shifters/PAN5V.EXT_INT*%
X160020000Y-266474000D03*
%TD*%
D17*
%TO.P,C6,1*%
%TO.N,+5V*%
X208899000Y-286268000D03*
%TO.P,C6,2*%
%TO.N,GND*%
X207349000Y-286268000D03*
%TD*%
D18*
%TO.P,C22,1*%
%TO.N,GND*%
X152323800Y-82040200D03*
%TO.P,C22,2*%
%TO.N,/Panel Headers/POW.5V_HDR_4*%
X152323800Y-83590200D03*
%TD*%
D19*
%TO.P,R22,1*%
%TO.N,Net-(U15-VFB)*%
X201498200Y-275464200D03*
%TO.P,R22,2*%
%TO.N,GND*%
X203148200Y-275464200D03*
%TD*%
D20*
%TO.P,P12,1*%
%TO.N,/Panel Headers/POW.5V_HDR_12*%
X263484000Y-206739068D03*
D16*
%TO.P,P12,2*%
%TO.N,GND*%
X262214000Y-208938773D03*
%TO.P,P12,3*%
%TO.N,/Panel Headers/RESET*%
X260944000Y-211138477D03*
%TO.P,P12,4*%
%TO.N,/Level Shifters/PAN5V.SCK_1*%
X259674000Y-213338182D03*
%TO.P,P12,5*%
%TO.N,/Level Shifters/PAN5V.MOSI_1*%
X258404000Y-215537886D03*
%TO.P,P12,6*%
%TO.N,/Level Shifters/PAN5V.MISO_1*%
X257134000Y-217737591D03*
%TO.P,P12,7*%
%TO.N,/Level Shifters/PAN5V.CS_25*%
X255864000Y-219937295D03*
%TO.P,P12,8*%
%TO.N,/Level Shifters/PAN5V.CS_26*%
X254594000Y-222137000D03*
%TO.P,P12,9*%
%TO.N,/Level Shifters/PAN5V.CS_27*%
X253324000Y-224336705D03*
%TO.P,P12,10*%
%TO.N,/Level Shifters/PAN5V.CS_28*%
X252054000Y-226536409D03*
%TO.P,P12,11*%
%TO.N,/Level Shifters/PAN5V.CS_29*%
X250784000Y-228736114D03*
%TO.P,P12,12*%
%TO.N,unconnected-(P12-Pad12)*%
X249514000Y-230935818D03*
%TO.P,P12,13*%
%TO.N,unconnected-(P12-Pad13)*%
X248244000Y-233135523D03*
%TO.P,P12,14*%
%TO.N,unconnected-(P12-Pad14)*%
X246974000Y-235335227D03*
%TO.P,P12,15*%
%TO.N,/Level Shifters/PAN5V.EXT_INT*%
X245704000Y-237534932D03*
%TD*%
D21*
%TO.P,R10,1*%
%TO.N,Net-(U9-VFB)*%
X154101800Y-80135800D03*
%TO.P,R10,2*%
%TO.N,GND*%
X152451800Y-80135800D03*
%TD*%
D15*
%TO.P,P7,1*%
%TO.N,/Panel Headers/POW.5V_HDR_7*%
X89126000Y-195580000D03*
D16*
%TO.P,P7,2*%
%TO.N,GND*%
X89126000Y-193040000D03*
%TO.P,P7,3*%
%TO.N,/Panel Headers/RESET*%
X89126000Y-190500000D03*
%TO.P,P7,4*%
%TO.N,/Level Shifters/PAN5V.SCK_1*%
X89126000Y-187960000D03*
%TO.P,P7,5*%
%TO.N,/Level Shifters/PAN5V.MOSI_1*%
X89126000Y-185420000D03*
%TO.P,P7,6*%
%TO.N,/Level Shifters/PAN5V.MISO_1*%
X89126000Y-182880000D03*
%TO.P,P7,7*%
%TO.N,/Level Shifters/PAN5V.CS_00*%
X89126000Y-180340000D03*
%TO.P,P7,8*%
%TO.N,/Level Shifters/PAN5V.CS_01*%
X89126000Y-177800000D03*
%TO.P,P7,9*%
%TO.N,/Level Shifters/PAN5V.CS_02*%
X89126000Y-175260000D03*
%TO.P,P7,10*%
%TO.N,/Level Shifters/PAN5V.CS_03*%
X89126000Y-172720000D03*
%TO.P,P7,11*%
%TO.N,/Level Shifters/PAN5V.CS_04*%
X89126000Y-170180000D03*
%TO.P,P7,12*%
%TO.N,unconnected-(P7-Pad12)*%
X89126000Y-167640000D03*
%TO.P,P7,13*%
%TO.N,unconnected-(P7-Pad13)*%
X89126000Y-165100000D03*
%TO.P,P7,14*%
%TO.N,unconnected-(P7-Pad14)*%
X89126000Y-162560000D03*
%TO.P,P7,15*%
%TO.N,/Level Shifters/PAN5V.EXT_INT*%
X89126000Y-160020000D03*
%TD*%
D22*
%TO.P,C18,1*%
%TO.N,Net-(U8-VBST)*%
X211323300Y-75540030D03*
%TO.P,C18,2*%
%TO.N,Net-(U8-SW)*%
X210548300Y-76882370D03*
%TD*%
D23*
%TO.P,C24,1*%
%TO.N,Net-(U10-VBST)*%
X106001900Y-97638030D03*
%TO.P,C24,2*%
%TO.N,Net-(U10-SW)*%
X106776900Y-98980370D03*
%TD*%
D24*
%TO.P,C30,1*%
%TO.N,Net-(U12-VBST)*%
X72478600Y-199898000D03*
%TO.P,C30,2*%
%TO.N,Net-(U12-SW)*%
X74028600Y-199898000D03*
%TD*%
D25*
%TO.P,U7,1,GND*%
%TO.N,GND*%
X256649496Y-108947526D03*
%TO.P,U7,2,SW*%
%TO.N,Net-(U7-SW)*%
X257124496Y-109770250D03*
%TO.P,U7,3,VIN*%
%TO.N,VCC*%
X257599496Y-110592974D03*
%TO.P,U7,4,VFB*%
%TO.N,Net-(U7-VFB)*%
X259569704Y-109455474D03*
%TO.P,U7,5,EN*%
%TO.N,VCC*%
X259094704Y-108632750D03*
%TO.P,U7,6,VBST*%
%TO.N,Net-(U7-VBST)*%
X258619704Y-107810026D03*
%TD*%
D24*
%TO.P,C31,1*%
%TO.N,GND*%
X82040200Y-203276200D03*
%TO.P,C31,2*%
%TO.N,/Panel Headers/POW.5V_HDR_7*%
X83590200Y-203276200D03*
%TD*%
D26*
%TO.P,SW1,1,A*%
%TO.N,/Power & Voltage Regulators/SW_VCC*%
X284480000Y-117752500D03*
%TO.P,SW1,2,B*%
%TO.N,VCC*%
X284480000Y-113002700D03*
%TO.P,SW1,3,C*%
%TO.N,GND*%
X284480000Y-108252900D03*
%TD*%
D27*
%TO.P,U3,1,A1*%
%TO.N,/Level Shifters/PAN3V.CS_08*%
X217171100Y-286926600D03*
%TO.P,U3,2,VCCA*%
%TO.N,+3.3V*%
X217171100Y-286276600D03*
%TO.P,U3,3,A2*%
%TO.N,/Level Shifters/PAN3V.CS_09*%
X217171100Y-285626600D03*
%TO.P,U3,4,A3*%
%TO.N,/Level Shifters/PAN3V.CS_10*%
X217171100Y-284976600D03*
%TO.P,U3,5,A4*%
%TO.N,/Level Shifters/PAN3V.CS_11*%
X217171100Y-284326600D03*
%TO.P,U3,6,A5*%
%TO.N,/Level Shifters/PAN3V.CS_12*%
X217171100Y-283676600D03*
%TO.P,U3,7,A6*%
%TO.N,/Level Shifters/PAN3V.CS_13*%
X217171100Y-283026600D03*
%TO.P,U3,8,A7*%
%TO.N,/Level Shifters/PAN3V.CS_14*%
X217171100Y-282376600D03*
%TO.P,U3,9,A8*%
%TO.N,/Level Shifters/PAN3V.CS_15*%
X217171100Y-281726600D03*
%TO.P,U3,10,OE*%
%TO.N,+3.3V*%
X217171100Y-281076600D03*
%TO.P,U3,11,GND*%
%TO.N,GND*%
X211446100Y-281076600D03*
%TO.P,U3,12,B8*%
%TO.N,/Level Shifters/PAN5V.CS_15*%
X211446100Y-281726600D03*
%TO.P,U3,13,B7*%
%TO.N,/Level Shifters/PAN5V.CS_14*%
X211446100Y-282376600D03*
%TO.P,U3,14,B6*%
%TO.N,/Level Shifters/PAN5V.CS_13*%
X211446100Y-283026600D03*
%TO.P,U3,15,B5*%
%TO.N,/Level Shifters/PAN5V.CS_12*%
X211446100Y-283676600D03*
%TO.P,U3,16,B4*%
%TO.N,/Level Shifters/PAN5V.CS_11*%
X211446100Y-284326600D03*
%TO.P,U3,17,B3*%
%TO.N,/Level Shifters/PAN5V.CS_10*%
X211446100Y-284976600D03*
%TO.P,U3,18,B2*%
%TO.N,/Level Shifters/PAN5V.CS_09*%
X211446100Y-285626600D03*
%TO.P,U3,19,VCCB*%
%TO.N,+5V*%
X211446100Y-286276600D03*
%TO.P,U3,20,B1*%
%TO.N,/Level Shifters/PAN5V.CS_08*%
X211446100Y-286926600D03*
%TD*%
D28*
%TO.P,C32,1*%
%TO.N,VCC*%
X96634370Y-242727900D03*
%TO.P,C32,2*%
%TO.N,GND*%
X95292030Y-243502900D03*
%TD*%
D29*
%TO.P,R24,1*%
%TO.N,Net-(U16-VFB)*%
X247155329Y-250530600D03*
%TO.P,R24,2*%
%TO.N,GND*%
X248584271Y-249705600D03*
%TD*%
D17*
%TO.P,C8,1*%
%TO.N,+5V*%
X161254400Y-286491200D03*
%TO.P,C8,2*%
%TO.N,GND*%
X159704400Y-286491200D03*
%TD*%
D30*
%TO.P,U2,1,A1*%
%TO.N,/Level Shifters/PAN3V.CS_00*%
X287050200Y-229613400D03*
%TO.P,U2,2,VCCA*%
%TO.N,+3.3V*%
X286400200Y-229613400D03*
%TO.P,U2,3,A2*%
%TO.N,/Level Shifters/PAN3V.CS_01*%
X285750200Y-229613400D03*
%TO.P,U2,4,A3*%
%TO.N,/Level Shifters/PAN3V.CS_02*%
X285100200Y-229613400D03*
%TO.P,U2,5,A4*%
%TO.N,/Level Shifters/PAN3V.CS_03*%
X284450200Y-229613400D03*
%TO.P,U2,6,A5*%
%TO.N,/Level Shifters/PAN3V.CS_04*%
X283800200Y-229613400D03*
%TO.P,U2,7,A6*%
%TO.N,/Level Shifters/PAN3V.CS_05*%
X283150200Y-229613400D03*
%TO.P,U2,8,A7*%
%TO.N,/Level Shifters/PAN3V.CS_06*%
X282500200Y-229613400D03*
%TO.P,U2,9,A8*%
%TO.N,/Level Shifters/PAN3V.CS_07*%
X281850200Y-229613400D03*
%TO.P,U2,10,OE*%
%TO.N,+3.3V*%
X281200200Y-229613400D03*
%TO.P,U2,11,GND*%
%TO.N,GND*%
X281200200Y-235338400D03*
%TO.P,U2,12,B8*%
%TO.N,/Level Shifters/PAN5V.CS_07*%
X281850200Y-235338400D03*
%TO.P,U2,13,B7*%
%TO.N,/Level Shifters/PAN5V.CS_06*%
X282500200Y-235338400D03*
%TO.P,U2,14,B6*%
%TO.N,/Level Shifters/PAN5V.CS_05*%
X283150200Y-235338400D03*
%TO.P,U2,15,B5*%
%TO.N,/Level Shifters/PAN5V.CS_04*%
X283800200Y-235338400D03*
%TO.P,U2,16,B4*%
%TO.N,/Level Shifters/PAN5V.CS_03*%
X284450200Y-235338400D03*
%TO.P,U2,17,B3*%
%TO.N,/Level Shifters/PAN5V.CS_02*%
X285100200Y-235338400D03*
%TO.P,U2,18,B2*%
%TO.N,/Level Shifters/PAN5V.CS_01*%
X285750200Y-235338400D03*
%TO.P,U2,19,VCCB*%
%TO.N,+5V*%
X286400200Y-235338400D03*
%TO.P,U2,20,B1*%
%TO.N,/Level Shifters/PAN5V.CS_00*%
X287050200Y-235338400D03*
%TD*%
D31*
%TO.P,R11,1*%
%TO.N,/Panel Headers/POW.5V_HDR_5*%
X110168700Y-108106271D03*
%TO.P,R11,2*%
%TO.N,Net-(U10-VFB)*%
X109343700Y-106677329D03*
%TD*%
D32*
%TO.P,R17,1*%
%TO.N,/Panel Headers/POW.5V_HDR_8*%
X108106271Y-245431300D03*
%TO.P,R17,2*%
%TO.N,Net-(U13-VFB)*%
X106677329Y-246256300D03*
%TD*%
D33*
%TO.P,U17,1,GND*%
%TO.N,GND*%
X276852696Y-211659426D03*
%TO.P,U17,2,SW*%
%TO.N,Net-(U17-SW)*%
X276377696Y-212482150D03*
%TO.P,U17,3,VIN*%
%TO.N,VCC*%
X275902696Y-213304874D03*
%TO.P,U17,4,VFB*%
%TO.N,Net-(U17-VFB)*%
X277872904Y-214442374D03*
%TO.P,U17,5,EN*%
%TO.N,VCC*%
X278347904Y-213619650D03*
%TO.P,U17,6,VBST*%
%TO.N,Net-(U17-VBST)*%
X278822904Y-212796926D03*
%TD*%
D34*
%TO.P,P9,1*%
%TO.N,/Panel Headers/POW.5V_HDR_9*%
X148860932Y-263484000D03*
D16*
%TO.P,P9,2*%
%TO.N,GND*%
X146661227Y-262214000D03*
%TO.P,P9,3*%
%TO.N,/Panel Headers/RESET*%
X144461523Y-260944000D03*
%TO.P,P9,4*%
%TO.N,/Level Shifters/PAN5V.SCK_1*%
X142261818Y-259674000D03*
%TO.P,P9,5*%
%TO.N,/Level Shifters/PAN5V.MOSI_1*%
X140062114Y-258404000D03*
%TO.P,P9,6*%
%TO.N,/Level Shifters/PAN5V.MISO_1*%
X137862409Y-257134000D03*
%TO.P,P9,7*%
%TO.N,/Level Shifters/PAN5V.CS_10*%
X135662705Y-255864000D03*
%TO.P,P9,8*%
%TO.N,/Level Shifters/PAN5V.CS_11*%
X133463000Y-254594000D03*
%TO.P,P9,9*%
%TO.N,/Level Shifters/PAN5V.CS_12*%
X131263295Y-253324000D03*
%TO.P,P9,10*%
%TO.N,/Level Shifters/PAN5V.CS_13*%
X129063591Y-252054000D03*
%TO.P,P9,11*%
%TO.N,/Level Shifters/PAN5V.CS_14*%
X126863886Y-250784000D03*
%TO.P,P9,12*%
%TO.N,unconnected-(P9-Pad12)*%
X124664182Y-249514000D03*
%TO.P,P9,13*%
%TO.N,unconnected-(P9-Pad13)*%
X122464477Y-248244000D03*
%TO.P,P9,14*%
%TO.N,unconnected-(P9-Pad14)*%
X120264773Y-246974000D03*
%TO.P,P9,15*%
%TO.N,/Level Shifters/PAN5V.EXT_INT*%
X118065068Y-245704000D03*
%TD*%
D35*
%TO.P,P11,1*%
%TO.N,/Panel Headers/POW.5V_HDR_11*%
X237534932Y-245704000D03*
D16*
%TO.P,P11,2*%
%TO.N,GND*%
X235335227Y-246974000D03*
%TO.P,P11,3*%
%TO.N,/Panel Headers/RESET*%
X233135523Y-248244000D03*
%TO.P,P11,4*%
%TO.N,/Level Shifters/PAN5V.SCK_1*%
X230935818Y-249514000D03*
%TO.P,P11,5*%
%TO.N,/Level Shifters/PAN5V.MOSI_1*%
X228736114Y-250784000D03*
%TO.P,P11,6*%
%TO.N,/Level Shifters/PAN5V.MISO_1*%
X226536409Y-252054000D03*
%TO.P,P11,7*%
%TO.N,/Level Shifters/PAN5V.CS_20*%
X224336705Y-253324000D03*
%TO.P,P11,8*%
%TO.N,/Level Shifters/PAN5V.CS_21*%
X222137000Y-254594000D03*
%TO.P,P11,9*%
%TO.N,/Level Shifters/PAN5V.CS_22*%
X219937295Y-255864000D03*
%TO.P,P11,10*%
%TO.N,/Level Shifters/PAN5V.CS_23*%
X217737591Y-257134000D03*
%TO.P,P11,11*%
%TO.N,/Level Shifters/PAN5V.CS_24*%
X215537886Y-258404000D03*
%TO.P,P11,12*%
%TO.N,unconnected-(P11-Pad12)*%
X213338182Y-259674000D03*
%TO.P,P11,13*%
%TO.N,unconnected-(P11-Pad13)*%
X211138477Y-260944000D03*
%TO.P,P11,14*%
%TO.N,unconnected-(P11-Pad14)*%
X208938773Y-262214000D03*
%TO.P,P11,15*%
%TO.N,/Level Shifters/PAN5V.EXT_INT*%
X206739068Y-263484000D03*
%TD*%
D18*
%TO.P,C21,1*%
%TO.N,Net-(U9-VBST)*%
X155702000Y-72478600D03*
%TO.P,C21,2*%
%TO.N,Net-(U9-SW)*%
X155702000Y-74028600D03*
%TD*%
D36*
%TO.P,L5,1*%
%TO.N,Net-(U10-SW)*%
X111234400Y-101011428D03*
%TO.P,L5,2*%
%TO.N,/Panel Headers/POW.5V_HDR_5*%
X114059400Y-105904471D03*
%TD*%
D24*
%TO.P,C9,1*%
%TO.N,+3.3V*%
X124332400Y-285699200D03*
%TO.P,C9,2*%
%TO.N,GND*%
X125882400Y-285699200D03*
%TD*%
D37*
%TO.P,J3,1,Pin_1*%
%TO.N,GND*%
X286675600Y-134951600D03*
%TO.P,J3,2,Pin_2*%
%TO.N,+3.3V*%
X286675600Y-133951600D03*
%TO.P,J3,3,Pin_3*%
%TO.N,/Teensy/A0*%
X286675600Y-132951600D03*
%TO.P,J3,4,Pin_4*%
%TO.N,/Teensy/A1*%
X286675600Y-131951600D03*
D38*
%TO.P,J3,MP*%
%TO.N,N/C*%
X290550600Y-136251600D03*
X290550600Y-130651600D03*
%TD*%
D39*
%TO.P,R18,1*%
%TO.N,Net-(U13-VFB)*%
X105069400Y-247155329D03*
%TO.P,R18,2*%
%TO.N,GND*%
X105894400Y-248584271D03*
%TD*%
D40*
%TO.P,R14,1*%
%TO.N,Net-(U11-VFB)*%
X81371200Y-149491129D03*
%TO.P,R14,2*%
%TO.N,GND*%
X80546200Y-150920071D03*
%TD*%
D18*
%TO.P,C2,1*%
%TO.N,+5V*%
X287528000Y-187553000D03*
%TO.P,C2,2*%
%TO.N,GND*%
X287528000Y-189103000D03*
%TD*%
D41*
%TO.P,C33,1*%
%TO.N,Net-(U13-VBST)*%
X97638030Y-249598100D03*
%TO.P,C33,2*%
%TO.N,Net-(U13-SW)*%
X98980370Y-248823100D03*
%TD*%
D24*
%TO.P,C5,1*%
%TO.N,+3.3V*%
X219684000Y-286258000D03*
%TO.P,C5,2*%
%TO.N,GND*%
X221234000Y-286258000D03*
%TD*%
D42*
%TO.P,R25,1*%
%TO.N,/Panel Headers/POW.5V_HDR_12*%
X271217329Y-204340900D03*
%TO.P,R25,2*%
%TO.N,Net-(U17-VFB)*%
X272646271Y-205165900D03*
%TD*%
D17*
%TO.P,C29,1*%
%TO.N,VCC*%
X75044600Y-193446400D03*
%TO.P,C29,2*%
%TO.N,GND*%
X73494600Y-193446400D03*
%TD*%
%TO.P,C10,1*%
%TO.N,+5V*%
X113732400Y-285659200D03*
%TO.P,C10,2*%
%TO.N,GND*%
X112182400Y-285659200D03*
%TD*%
D43*
%TO.P,R4,1*%
%TO.N,Net-(U6-VFB)*%
X275464200Y-154101800D03*
%TO.P,R4,2*%
%TO.N,GND*%
X275464200Y-152451800D03*
%TD*%
D29*
%TO.P,R5,1*%
%TO.N,/Panel Headers/POW.5V_HDR_2*%
X247493729Y-110168700D03*
%TO.P,R5,2*%
%TO.N,Net-(U7-VFB)*%
X248922671Y-109343700D03*
%TD*%
D31*
%TO.P,R6,1*%
%TO.N,Net-(U7-VFB)*%
X250530600Y-108444671D03*
%TO.P,R6,2*%
%TO.N,GND*%
X249705600Y-107015729D03*
%TD*%
D44*
%TO.P,C37,1*%
%TO.N,GND*%
X151983100Y-273468470D03*
%TO.P,C37,2*%
%TO.N,/Panel Headers/POW.5V_HDR_9*%
X152758100Y-272126130D03*
%TD*%
D12*
%TO.P,C39,1*%
%TO.N,Net-(U15-VBST)*%
X199898000Y-283121400D03*
%TO.P,C39,2*%
%TO.N,Net-(U15-SW)*%
X199898000Y-281571400D03*
%TD*%
D41*
%TO.P,C14,1*%
%TO.N,VCC*%
X258965630Y-112872100D03*
%TO.P,C14,2*%
%TO.N,GND*%
X260307970Y-112097100D03*
%TD*%
D45*
%TO.P,R7,1*%
%TO.N,/Panel Headers/POW.5V_HDR_3*%
X204340900Y-84382671D03*
%TO.P,R7,2*%
%TO.N,Net-(U8-VFB)*%
X205165900Y-82953729D03*
%TD*%
D14*
%TO.P,H3,1,1*%
%TO.N,GND*%
X279400000Y-279400000D03*
%TD*%
D30*
%TO.P,U1,1,A1*%
%TO.N,/Level Shifters/PAN3V.RESET*%
X288126000Y-179047000D03*
%TO.P,U1,2,VCCA*%
%TO.N,+3.3V*%
X287476000Y-179047000D03*
%TO.P,U1,3,A2*%
%TO.N,/Level Shifters/PAN3V.SCK_0*%
X286826000Y-179047000D03*
%TO.P,U1,4,A3*%
%TO.N,/Level Shifters/PAN3V.MOSI_0*%
X286176000Y-179047000D03*
%TO.P,U1,5,A4*%
%TO.N,/Level Shifters/PAN3V.MISO_0*%
X285526000Y-179047000D03*
%TO.P,U1,6,A5*%
%TO.N,unconnected-(U1-A5-Pad6)*%
X284876000Y-179047000D03*
%TO.P,U1,7,A6*%
%TO.N,/Level Shifters/PAN3V.SCK_1*%
X284226000Y-179047000D03*
%TO.P,U1,8,A7*%
%TO.N,/Level Shifters/PAN3V.MOSI_1*%
X283576000Y-179047000D03*
%TO.P,U1,9,A8*%
%TO.N,/Level Shifters/PAN3V.MISO_1*%
X282926000Y-179047000D03*
%TO.P,U1,10,OE*%
%TO.N,+3.3V*%
X282276000Y-179047000D03*
%TO.P,U1,11,GND*%
%TO.N,GND*%
X282276000Y-184772000D03*
%TO.P,U1,12,B8*%
%TO.N,/Level Shifters/PAN5V.MISO_1*%
X282926000Y-184772000D03*
%TO.P,U1,13,B7*%
%TO.N,/Level Shifters/PAN5V.MOSI_1*%
X283576000Y-184772000D03*
%TO.P,U1,14,B6*%
%TO.N,/Level Shifters/PAN5V.SCK_1*%
X284226000Y-184772000D03*
%TO.P,U1,15,B5*%
%TO.N,unconnected-(U1-B5-Pad15)*%
X284876000Y-184772000D03*
%TO.P,U1,16,B4*%
%TO.N,/Level Shifters/PAN5V.MISO_0*%
X285526000Y-184772000D03*
%TO.P,U1,17,B3*%
%TO.N,/Level Shifters/PAN5V.MOSI_0*%
X286176000Y-184772000D03*
%TO.P,U1,18,B2*%
%TO.N,/Level Shifters/PAN5V.SCK_0*%
X286826000Y-184772000D03*
%TO.P,U1,19,VCCB*%
%TO.N,+5V*%
X287476000Y-184772000D03*
%TO.P,U1,20,B1*%
%TO.N,/Level Shifters/PAN5V.RESET*%
X288126000Y-184772000D03*
%TD*%
D46*
%TO.P,L11,1*%
%TO.N,Net-(U16-SW)*%
X244365600Y-254588572D03*
%TO.P,L11,2*%
%TO.N,/Panel Headers/POW.5V_HDR_11*%
X241540600Y-249695529D03*
%TD*%
D47*
%TO.P,Q2,1,G*%
%TO.N,Net-(Q2-G)*%
X273238400Y-113751400D03*
%TO.P,Q2,2,S*%
%TO.N,GND*%
X273238400Y-111851400D03*
%TO.P,Q2,3,D*%
%TO.N,/Panel Headers/RESET*%
X270963400Y-112801400D03*
%TD*%
D14*
%TO.P,H4,1,1*%
%TO.N,GND*%
X76200000Y-279400000D03*
%TD*%
D48*
%TO.P,L10,1*%
%TO.N,Net-(U15-SW)*%
X197053200Y-277583600D03*
%TO.P,L10,2*%
%TO.N,/Panel Headers/POW.5V_HDR_10*%
X197053200Y-271933600D03*
%TD*%
D49*
%TO.P,C44,1*%
%TO.N,VCC*%
X274612030Y-215627500D03*
%TO.P,C44,2*%
%TO.N,GND*%
X275954370Y-216402500D03*
%TD*%
D50*
%TO.P,U14,1,GND*%
%TO.N,GND*%
X143940574Y-276852696D03*
%TO.P,U14,2,SW*%
%TO.N,Net-(U14-SW)*%
X143117850Y-276377696D03*
%TO.P,U14,3,VIN*%
%TO.N,VCC*%
X142295126Y-275902696D03*
%TO.P,U14,4,VFB*%
%TO.N,Net-(U14-VFB)*%
X141157626Y-277872904D03*
%TO.P,U14,5,EN*%
%TO.N,VCC*%
X141980350Y-278347904D03*
%TO.P,U14,6,VBST*%
%TO.N,Net-(U14-VBST)*%
X142803074Y-278822904D03*
%TD*%
D42*
%TO.P,R20,1*%
%TO.N,Net-(U14-VFB)*%
X149491129Y-274228800D03*
%TO.P,R20,2*%
%TO.N,GND*%
X150920071Y-275053800D03*
%TD*%
D51*
%TO.P,J1,*%
%TO.N,*%
X287096200Y-87706200D03*
D52*
X289102800Y-92202000D03*
D51*
X287096200Y-96697800D03*
D53*
%TO.P,J1,1*%
%TO.N,/Power & Voltage Regulators/SW_VCC*%
X280111200Y-92202000D03*
D51*
%TO.P,J1,2*%
%TO.N,GND*%
X286105600Y-92202000D03*
%TD*%
D54*
%TO.P,C26,1*%
%TO.N,VCC*%
X80987970Y-139972500D03*
%TO.P,C26,2*%
%TO.N,GND*%
X79645630Y-139197500D03*
%TD*%
%TO.P,C46,1*%
%TO.N,GND*%
X273468570Y-203616900D03*
%TO.P,C46,2*%
%TO.N,/Panel Headers/POW.5V_HDR_12*%
X272126230Y-202841900D03*
%TD*%
D24*
%TO.P,C11,1*%
%TO.N,VCC*%
X280555400Y-162153600D03*
%TO.P,C11,2*%
%TO.N,GND*%
X282105400Y-162153600D03*
%TD*%
D55*
%TO.P,P5,1*%
%TO.N,/Panel Headers/POW.5V_HDR_5*%
X118065068Y-109896000D03*
D16*
%TO.P,P5,2*%
%TO.N,GND*%
X120264773Y-108626000D03*
%TO.P,P5,3*%
%TO.N,/Panel Headers/RESET*%
X122464477Y-107356000D03*
%TO.P,P5,4*%
%TO.N,/Level Shifters/PAN5V.SCK_0*%
X124664182Y-106086000D03*
%TO.P,P5,5*%
%TO.N,/Level Shifters/PAN5V.MOSI_0*%
X126863886Y-104816000D03*
%TO.P,P5,6*%
%TO.N,/Level Shifters/PAN5V.MISO_0*%
X129063591Y-103546000D03*
%TO.P,P5,7*%
%TO.N,/Level Shifters/PAN5V.CS_20*%
X131263295Y-102276000D03*
%TO.P,P5,8*%
%TO.N,/Level Shifters/PAN5V.CS_21*%
X133463000Y-101006000D03*
%TO.P,P5,9*%
%TO.N,/Level Shifters/PAN5V.CS_22*%
X135662705Y-99736000D03*
%TO.P,P5,10*%
%TO.N,/Level Shifters/PAN5V.CS_23*%
X137862409Y-98466000D03*
%TO.P,P5,11*%
%TO.N,/Level Shifters/PAN5V.CS_24*%
X140062114Y-97196000D03*
%TO.P,P5,12*%
%TO.N,unconnected-(P5-Pad12)*%
X142261818Y-95926000D03*
%TO.P,P5,13*%
%TO.N,unconnected-(P5-Pad13)*%
X144461523Y-94656000D03*
%TO.P,P5,14*%
%TO.N,unconnected-(P5-Pad14)*%
X146661227Y-93386000D03*
%TO.P,P5,15*%
%TO.N,/Level Shifters/PAN5V.EXT_INT*%
X148860932Y-92116000D03*
%TD*%
D28*
%TO.P,C15,1*%
%TO.N,Net-(U7-VBST)*%
X257961970Y-106001900D03*
%TO.P,C15,2*%
%TO.N,Net-(U7-SW)*%
X256619630Y-106776900D03*
%TD*%
D56*
%TO.P,L7,1*%
%TO.N,Net-(U12-SW)*%
X78016400Y-197053200D03*
%TO.P,L7,2*%
%TO.N,/Panel Headers/POW.5V_HDR_7*%
X83666400Y-197053200D03*
%TD*%
D27*
%TO.P,U4,1,A1*%
%TO.N,/Level Shifters/PAN3V.CS_16*%
X169412500Y-287129000D03*
%TO.P,U4,2,VCCA*%
%TO.N,+3.3V*%
X169412500Y-286479000D03*
%TO.P,U4,3,A2*%
%TO.N,/Level Shifters/PAN3V.CS_17*%
X169412500Y-285829000D03*
%TO.P,U4,4,A3*%
%TO.N,/Level Shifters/PAN3V.CS_18*%
X169412500Y-285179000D03*
%TO.P,U4,5,A4*%
%TO.N,/Level Shifters/PAN3V.CS_19*%
X169412500Y-284529000D03*
%TO.P,U4,6,A5*%
%TO.N,/Level Shifters/PAN3V.CS_20*%
X169412500Y-283879000D03*
%TO.P,U4,7,A6*%
%TO.N,/Level Shifters/PAN3V.CS_21*%
X169412500Y-283229000D03*
%TO.P,U4,8,A7*%
%TO.N,/Level Shifters/PAN3V.CS_22*%
X169412500Y-282579000D03*
%TO.P,U4,9,A8*%
%TO.N,/Level Shifters/PAN3V.CS_23*%
X169412500Y-281929000D03*
%TO.P,U4,10,OE*%
%TO.N,+3.3V*%
X169412500Y-281279000D03*
%TO.P,U4,11,GND*%
%TO.N,GND*%
X163687500Y-281279000D03*
%TO.P,U4,12,B8*%
%TO.N,/Level Shifters/PAN5V.CS_23*%
X163687500Y-281929000D03*
%TO.P,U4,13,B7*%
%TO.N,/Level Shifters/PAN5V.CS_22*%
X163687500Y-282579000D03*
%TO.P,U4,14,B6*%
%TO.N,/Level Shifters/PAN5V.CS_21*%
X163687500Y-283229000D03*
%TO.P,U4,15,B5*%
%TO.N,/Level Shifters/PAN5V.CS_20*%
X163687500Y-283879000D03*
%TO.P,U4,16,B4*%
%TO.N,/Level Shifters/PAN5V.CS_19*%
X163687500Y-284529000D03*
%TO.P,U4,17,B3*%
%TO.N,/Level Shifters/PAN5V.CS_18*%
X163687500Y-285179000D03*
%TO.P,U4,18,B2*%
%TO.N,/Level Shifters/PAN5V.CS_17*%
X163687500Y-285829000D03*
%TO.P,U4,19,VCCB*%
%TO.N,+5V*%
X163687500Y-286479000D03*
%TO.P,U4,20,B1*%
%TO.N,/Level Shifters/PAN5V.CS_16*%
X163687500Y-287129000D03*
%TD*%
D49*
%TO.P,C27,1*%
%TO.N,Net-(U11-VBST)*%
X75540030Y-144276700D03*
%TO.P,C27,2*%
%TO.N,Net-(U11-SW)*%
X76882370Y-145051700D03*
%TD*%
D15*
%TO.P,P4,1*%
%TO.N,/Panel Headers/POW.5V_HDR_4*%
X160020000Y-89126000D03*
D16*
%TO.P,P4,2*%
%TO.N,GND*%
X162560000Y-89126000D03*
%TO.P,P4,3*%
%TO.N,/Panel Headers/RESET*%
X165100000Y-89126000D03*
%TO.P,P4,4*%
%TO.N,/Level Shifters/PAN5V.SCK_0*%
X167640000Y-89126000D03*
%TO.P,P4,5*%
%TO.N,/Level Shifters/PAN5V.MOSI_0*%
X170180000Y-89126000D03*
%TO.P,P4,6*%
%TO.N,/Level Shifters/PAN5V.MISO_0*%
X172720000Y-89126000D03*
%TO.P,P4,7*%
%TO.N,/Level Shifters/PAN5V.CS_15*%
X175260000Y-89126000D03*
%TO.P,P4,8*%
%TO.N,/Level Shifters/PAN5V.CS_16*%
X177800000Y-89126000D03*
%TO.P,P4,9*%
%TO.N,/Level Shifters/PAN5V.CS_17*%
X180340000Y-89126000D03*
%TO.P,P4,10*%
%TO.N,/Level Shifters/PAN5V.CS_18*%
X182880000Y-89126000D03*
%TO.P,P4,11*%
%TO.N,/Level Shifters/PAN5V.CS_19*%
X185420000Y-89126000D03*
%TO.P,P4,12*%
%TO.N,unconnected-(P4-Pad12)*%
X187960000Y-89126000D03*
%TO.P,P4,13*%
%TO.N,unconnected-(P4-Pad13)*%
X190500000Y-89126000D03*
%TO.P,P4,14*%
%TO.N,unconnected-(P4-Pad14)*%
X193040000Y-89126000D03*
%TO.P,P4,15*%
%TO.N,/Level Shifters/PAN5V.EXT_INT*%
X195580000Y-89126000D03*
%TD*%
D13*
%TO.P,C43,1*%
%TO.N,GND*%
X247742900Y-247992270D03*
%TO.P,C43,2*%
%TO.N,/Panel Headers/POW.5V_HDR_11*%
X246967900Y-246649930D03*
%TD*%
D57*
%TO.P,R1,1*%
%TO.N,Net-(Q2-G)*%
X273202400Y-116103400D03*
%TO.P,R1,2*%
%TO.N,/Level Shifters/PAN5V.RESET*%
X275027400Y-116103400D03*
%TD*%
D22*
%TO.P,C35,1*%
%TO.N,VCC*%
X139972500Y-274612030D03*
%TO.P,C35,2*%
%TO.N,GND*%
X139197500Y-275954370D03*
%TD*%
D40*
%TO.P,R19,1*%
%TO.N,/Panel Headers/POW.5V_HDR_9*%
X151259100Y-271217329D03*
%TO.P,R19,2*%
%TO.N,Net-(U14-VFB)*%
X150434100Y-272646271D03*
%TD*%
D49*
%TO.P,C28,1*%
%TO.N,GND*%
X82131430Y-151983100D03*
%TO.P,C28,2*%
%TO.N,/Panel Headers/POW.5V_HDR_6*%
X83473770Y-152758100D03*
%TD*%
D28*
%TO.P,C16,1*%
%TO.N,GND*%
X247992370Y-107857100D03*
%TO.P,C16,2*%
%TO.N,/Panel Headers/POW.5V_HDR_2*%
X246650030Y-108632100D03*
%TD*%
D23*
%TO.P,C25,1*%
%TO.N,GND*%
X107857100Y-107607630D03*
%TO.P,C25,2*%
%TO.N,/Panel Headers/POW.5V_HDR_5*%
X108632100Y-108949970D03*
%TD*%
D54*
%TO.P,C45,1*%
%TO.N,Net-(U17-VBST)*%
X280059970Y-211323300D03*
%TO.P,C45,2*%
%TO.N,Net-(U17-SW)*%
X278717630Y-210548300D03*
%TD*%
D44*
%TO.P,C17,1*%
%TO.N,VCC*%
X215627500Y-80987970D03*
%TO.P,C17,2*%
%TO.N,GND*%
X216402500Y-79645630D03*
%TD*%
D18*
%TO.P,C38,1*%
%TO.N,VCC*%
X193446400Y-280555400D03*
%TO.P,C38,2*%
%TO.N,GND*%
X193446400Y-282105400D03*
%TD*%
D58*
%TO.P,U18,1,GND*%
%TO.N,GND*%
X285152628Y-253394534D03*
D16*
%TO.P,U18,2,0_RX1_CRX2_CS1*%
%TO.N,/Level Shifters/PAN3V.CS_00*%
X282765809Y-254263265D03*
%TO.P,U18,3,1_TX1_CTX2_MISO1*%
%TO.N,/Level Shifters/PAN3V.MISO_1*%
X280378989Y-255131996D03*
%TO.P,U18,4,2_OUT2*%
%TO.N,/Level Shifters/PAN3V.CS_01*%
X277992170Y-256000727D03*
%TO.P,U18,5,3_LRCLK2*%
%TO.N,/Level Shifters/PAN3V.CS_02*%
X275605351Y-256869458D03*
%TO.P,U18,6,4_BCLK2*%
%TO.N,/Level Shifters/PAN3V.CS_03*%
X273218532Y-257738190D03*
%TO.P,U18,7,5_IN2*%
%TO.N,/Level Shifters/PAN3V.CS_04*%
X270831712Y-258606921D03*
%TO.P,U18,8,6_OUT1D*%
%TO.N,/Level Shifters/PAN3V.CS_05*%
X268444893Y-259475652D03*
%TO.P,U18,9,7_RX2_OUT1A*%
%TO.N,/Level Shifters/PAN3V.CS_06*%
X266058074Y-260344383D03*
%TO.P,U18,10,8_TX2_IN1*%
%TO.N,/Level Shifters/PAN3V.CS_07*%
X263671255Y-261213114D03*
%TO.P,U18,11,9_OUT1C*%
%TO.N,/Level Shifters/PAN3V.CS_08*%
X261284435Y-262081845D03*
%TO.P,U18,12,10_CS_MQSR*%
%TO.N,/Level Shifters/PAN3V.CS_09*%
X258897616Y-262950577D03*
%TO.P,U18,13,11_MOSI_CTX1*%
%TO.N,/Level Shifters/PAN3V.MOSI_0*%
X256510797Y-263819308D03*
%TO.P,U18,14,12_MISO_MQSL*%
%TO.N,/Level Shifters/PAN3V.MISO_0*%
X254123978Y-264688039D03*
%TO.P,U18,15,3V3*%
%TO.N,+3.3V*%
X251737158Y-265556770D03*
%TO.P,U18,16,24_A10_TX6_SCL2*%
%TO.N,/Level Shifters/PAN3V.CS_10*%
X249350339Y-266425501D03*
%TO.P,U18,17,25_A11_RX6_SDA2*%
%TO.N,/Level Shifters/PAN3V.CS_11*%
X246963520Y-267294232D03*
%TO.P,U18,18,26_A12_MOSI1*%
%TO.N,/Level Shifters/PAN3V.MOSI_1*%
X244576701Y-268162964D03*
%TO.P,U18,19,27_A13_SCK1*%
%TO.N,/Level Shifters/PAN3V.SCK_1*%
X242189881Y-269031695D03*
%TO.P,U18,20,28_RX7*%
%TO.N,/Level Shifters/PAN3V.CS_12*%
X239803062Y-269900426D03*
%TO.P,U18,21,29_TX7*%
%TO.N,/Level Shifters/PAN3V.CS_13*%
X237416243Y-270769157D03*
%TO.P,U18,22,30_CRX3*%
%TO.N,/Level Shifters/PAN3V.CS_14*%
X235029424Y-271637888D03*
%TO.P,U18,23,31_CTX3*%
%TO.N,/Level Shifters/PAN3V.CS_15*%
X232642604Y-272506619D03*
%TO.P,U18,24,32_OUT1B*%
%TO.N,/Level Shifters/PAN3V.CS_16*%
X230255785Y-273375351D03*
%TO.P,U18,25,33_MCLK2*%
%TO.N,/Level Shifters/PAN3V.EXT_INT*%
X235468172Y-287696266D03*
%TO.P,U18,26,34_RX8*%
%TO.N,/Level Shifters/PAN3V.RESET*%
X237854991Y-286827535D03*
%TO.P,U18,27,35_TX8*%
%TO.N,/Level Shifters/PAN3V.CS_29*%
X240241811Y-285958804D03*
%TO.P,U18,28,36_CS*%
%TO.N,/Level Shifters/PAN3V.CS_28*%
X242628630Y-285090073D03*
%TO.P,U18,29,37_CS*%
%TO.N,/Level Shifters/PAN3V.CS_27*%
X245015449Y-284221342D03*
%TO.P,U18,30,38_CS1_IN1*%
%TO.N,/Level Shifters/PAN3V.CS_26*%
X247402268Y-283352610D03*
%TO.P,U18,31,39_MISO1_OUT1A*%
%TO.N,/Level Shifters/PAN3V.CS_25*%
X249789088Y-282483879D03*
%TO.P,U18,32,40_A16*%
%TO.N,/Level Shifters/PAN3V.CS_24*%
X252175907Y-281615148D03*
%TO.P,U18,33,41_A17*%
%TO.N,/Level Shifters/PAN3V.CS_23*%
X254562726Y-280746417D03*
%TO.P,U18,34,GND*%
%TO.N,GND*%
X256949545Y-279877686D03*
%TO.P,U18,35,13_SCK_LED*%
%TO.N,/Level Shifters/PAN3V.SCK_0*%
X259336365Y-279008955D03*
%TO.P,U18,36,14_A0_TX3_SPDIF_OUT*%
%TO.N,/Teensy/A0*%
X261723184Y-278140223D03*
%TO.P,U18,37,15_A1_RX3_SPDIF_IN*%
%TO.N,/Teensy/A1*%
X264110003Y-277271492D03*
%TO.P,U18,38,16_A2_RX4_SCL1*%
%TO.N,/Level Shifters/PAN3V.CS_22*%
X266496822Y-276402761D03*
%TO.P,U18,39,17_A3_TX4_SDA1*%
%TO.N,/Level Shifters/PAN3V.CS_21*%
X268883642Y-275534030D03*
%TO.P,U18,40,18_A4_SDA*%
%TO.N,/Teensy/SDA*%
X271270461Y-274665299D03*
%TO.P,U18,41,19_A5_SCL*%
%TO.N,/Teensy/SCL*%
X273657280Y-273796568D03*
%TO.P,U18,42,20_A6_TX5_LRCLK1*%
%TO.N,/Level Shifters/PAN3V.CS_20*%
X276044099Y-272927836D03*
%TO.P,U18,43,21_A7_RX5_BCLK1*%
%TO.N,/Level Shifters/PAN3V.CS_19*%
X278430919Y-272059105D03*
%TO.P,U18,44,22_A8_CTX1*%
%TO.N,/Level Shifters/PAN3V.CS_18*%
X280817738Y-271190374D03*
%TO.P,U18,45,23_A9_CRX1_MCLK1*%
%TO.N,/Level Shifters/PAN3V.CS_17*%
X283204557Y-270321643D03*
%TO.P,U18,46,3V3*%
%TO.N,+3.3V*%
X285591376Y-269452912D03*
%TO.P,U18,47,GND*%
%TO.N,GND*%
X287978196Y-268584181D03*
%TO.P,U18,48,VIN*%
%TO.N,+5V*%
X290365015Y-267715449D03*
%TO.P,U18,49,VUSB*%
X287109465Y-266197361D03*
%TO.P,U18,50,VBAT*%
%TO.N,unconnected-(U18-VBAT-Pad50)*%
X243058613Y-271418514D03*
%TO.P,U18,51,3V3*%
%TO.N,unconnected-(U18-3V3-Pad51)*%
X243927344Y-273805333D03*
%TO.P,U18,52,GND*%
%TO.N,unconnected-(U18-GND-Pad52)*%
X244796075Y-276192153D03*
%TO.P,U18,53,PROGRAM*%
%TO.N,unconnected-(U18-PROGRAM-Pad53)*%
X245664806Y-278578972D03*
%TO.P,U18,54,ON_OFF*%
%TO.N,unconnected-(U18-ON_OFF-Pad54)*%
X246533537Y-280965791D03*
D58*
%TO.P,U18,55,5V*%
%TO.N,unconnected-(U18-5V-Pad55)*%
X280276751Y-258415801D03*
D16*
%TO.P,U18,56,D-*%
%TO.N,unconnected-(U18-D--Pad56)*%
X277889932Y-259284533D03*
%TO.P,U18,57,D+*%
%TO.N,unconnected-(U18-D+-Pad57)*%
X275503113Y-260153264D03*
%TO.P,U18,58,GND*%
%TO.N,unconnected-(U18-GND-Pad58)*%
X273116293Y-261021995D03*
%TO.P,U18,59,GND*%
%TO.N,unconnected-(U18-GND-Pad59)*%
X270729474Y-261890726D03*
D59*
%TO.P,U18,60,R+*%
%TO.N,unconnected-(U18-R+-Pad60)*%
X277343220Y-269860104D03*
D60*
%TO.P,U18,61,LED*%
%TO.N,unconnected-(U18-LED-Pad61)*%
X276659179Y-267980719D03*
%TO.P,U18,62,T-*%
%TO.N,unconnected-(U18-T--Pad62)*%
X275975139Y-266101334D03*
%TO.P,U18,63,T+*%
%TO.N,unconnected-(U18-T+-Pad63)*%
X274095754Y-266785374D03*
%TO.P,U18,64,GND*%
%TO.N,unconnected-(U18-GND-Pad64)*%
X274779794Y-268664759D03*
%TO.P,U18,65,R-*%
%TO.N,unconnected-(U18-R--Pad65)*%
X275463834Y-270544144D03*
%TO.P,U18,66,D-*%
%TO.N,unconnected-(U18-D--Pad66)*%
X287507211Y-261998076D03*
%TO.P,U18,67,D+*%
%TO.N,unconnected-(U18-D+-Pad67)*%
X286638480Y-259611257D03*
%TD*%
D15*
%TO.P,P1,1*%
%TO.N,/Panel Headers/POW.5V_HDR_1*%
X266474000Y-160020000D03*
D16*
%TO.P,P1,2*%
%TO.N,GND*%
X266474000Y-162560000D03*
%TO.P,P1,3*%
%TO.N,/Panel Headers/RESET*%
X266474000Y-165100000D03*
%TO.P,P1,4*%
%TO.N,/Level Shifters/PAN5V.SCK_0*%
X266474000Y-167640000D03*
%TO.P,P1,5*%
%TO.N,/Level Shifters/PAN5V.MOSI_0*%
X266474000Y-170180000D03*
%TO.P,P1,6*%
%TO.N,/Level Shifters/PAN5V.MISO_0*%
X266474000Y-172720000D03*
%TO.P,P1,7*%
%TO.N,/Level Shifters/PAN5V.CS_00*%
X266474000Y-175260000D03*
%TO.P,P1,8*%
%TO.N,/Level Shifters/PAN5V.CS_01*%
X266474000Y-177800000D03*
%TO.P,P1,9*%
%TO.N,/Level Shifters/PAN5V.CS_02*%
X266474000Y-180340000D03*
%TO.P,P1,10*%
%TO.N,/Level Shifters/PAN5V.CS_03*%
X266474000Y-182880000D03*
%TO.P,P1,11*%
%TO.N,/Level Shifters/PAN5V.CS_04*%
X266474000Y-185420000D03*
%TO.P,P1,12*%
%TO.N,unconnected-(P1-Pad12)*%
X266474000Y-187960000D03*
%TO.P,P1,13*%
%TO.N,unconnected-(P1-Pad13)*%
X266474000Y-190500000D03*
%TO.P,P1,14*%
%TO.N,unconnected-(P1-Pad14)*%
X266474000Y-193040000D03*
%TO.P,P1,15*%
%TO.N,/Level Shifters/PAN5V.EXT_INT*%
X266474000Y-195580000D03*
%TD*%
D12*
%TO.P,C20,1*%
%TO.N,VCC*%
X162153600Y-75044600D03*
%TO.P,C20,2*%
%TO.N,GND*%
X162153600Y-73494600D03*
%TD*%
D61*
%TO.P,U11,1,GND*%
%TO.N,GND*%
X78747304Y-143940574D03*
%TO.P,U11,2,SW*%
%TO.N,Net-(U11-SW)*%
X79222304Y-143117850D03*
%TO.P,U11,3,VIN*%
%TO.N,VCC*%
X79697304Y-142295126D03*
%TO.P,U11,4,VFB*%
%TO.N,Net-(U11-VFB)*%
X77727096Y-141157626D03*
%TO.P,U11,5,EN*%
%TO.N,VCC*%
X77252096Y-141980350D03*
%TO.P,U11,6,VBST*%
%TO.N,Net-(U11-VBST)*%
X76777096Y-142803074D03*
%TD*%
D12*
%TO.P,C40,1*%
%TO.N,GND*%
X203276200Y-273559800D03*
%TO.P,C40,2*%
%TO.N,/Panel Headers/POW.5V_HDR_10*%
X203276200Y-272009800D03*
%TD*%
D21*
%TO.P,R15,1*%
%TO.N,/Panel Headers/POW.5V_HDR_7*%
X83627800Y-201523600D03*
%TO.P,R15,2*%
%TO.N,Net-(U12-VFB)*%
X81977800Y-201523600D03*
%TD*%
D62*
%TO.P,P6,1*%
%TO.N,/Panel Headers/POW.5V_HDR_6*%
X92116000Y-148860932D03*
D16*
%TO.P,P6,2*%
%TO.N,GND*%
X93386000Y-146661227D03*
%TO.P,P6,3*%
%TO.N,/Panel Headers/RESET*%
X94656000Y-144461523D03*
%TO.P,P6,4*%
%TO.N,/Level Shifters/PAN5V.SCK_0*%
X95926000Y-142261818D03*
%TO.P,P6,5*%
%TO.N,/Level Shifters/PAN5V.MOSI_0*%
X97196000Y-140062114D03*
%TO.P,P6,6*%
%TO.N,/Level Shifters/PAN5V.MISO_0*%
X98466000Y-137862409D03*
%TO.P,P6,7*%
%TO.N,/Level Shifters/PAN5V.CS_25*%
X99736000Y-135662705D03*
%TO.P,P6,8*%
%TO.N,/Level Shifters/PAN5V.CS_26*%
X101006000Y-133463000D03*
%TO.P,P6,9*%
%TO.N,/Level Shifters/PAN5V.CS_27*%
X102276000Y-131263295D03*
%TO.P,P6,10*%
%TO.N,/Level Shifters/PAN5V.CS_28*%
X103546000Y-129063591D03*
%TO.P,P6,11*%
%TO.N,/Level Shifters/PAN5V.CS_29*%
X104816000Y-126863886D03*
%TO.P,P6,12*%
%TO.N,unconnected-(P6-Pad12)*%
X106086000Y-124664182D03*
%TO.P,P6,13*%
%TO.N,unconnected-(P6-Pad13)*%
X107356000Y-122464477D03*
%TO.P,P6,14*%
%TO.N,unconnected-(P6-Pad14)*%
X108626000Y-120264773D03*
%TO.P,P6,15*%
%TO.N,/Level Shifters/PAN5V.EXT_INT*%
X109896000Y-118065068D03*
%TD*%
D63*
%TO.P,L9,1*%
%TO.N,Net-(U14-SW)*%
X144582000Y-273841772D03*
%TO.P,L9,2*%
%TO.N,/Panel Headers/POW.5V_HDR_9*%
X147407000Y-268948729D03*
%TD*%
D64*
%TO.P,P8,1*%
%TO.N,/Panel Headers/POW.5V_HDR_8*%
X109896000Y-237534932D03*
D16*
%TO.P,P8,2*%
%TO.N,GND*%
X108626000Y-235335227D03*
%TO.P,P8,3*%
%TO.N,/Panel Headers/RESET*%
X107356000Y-233135523D03*
%TO.P,P8,4*%
%TO.N,/Level Shifters/PAN5V.SCK_1*%
X106086000Y-230935818D03*
%TO.P,P8,5*%
%TO.N,/Level Shifters/PAN5V.MOSI_1*%
X104816000Y-228736114D03*
%TO.P,P8,6*%
%TO.N,/Level Shifters/PAN5V.MISO_1*%
X103546000Y-226536409D03*
%TO.P,P8,7*%
%TO.N,/Level Shifters/PAN5V.CS_05*%
X102276000Y-224336705D03*
%TO.P,P8,8*%
%TO.N,/Level Shifters/PAN5V.CS_06*%
X101006000Y-222137000D03*
%TO.P,P8,9*%
%TO.N,/Level Shifters/PAN5V.CS_07*%
X99736000Y-219937295D03*
%TO.P,P8,10*%
%TO.N,/Level Shifters/PAN5V.CS_08*%
X98466000Y-217737591D03*
%TO.P,P8,11*%
%TO.N,/Level Shifters/PAN5V.CS_09*%
X97196000Y-215537886D03*
%TO.P,P8,12*%
%TO.N,unconnected-(P8-Pad12)*%
X95926000Y-213338182D03*
%TO.P,P8,13*%
%TO.N,unconnected-(P8-Pad13)*%
X94656000Y-211138477D03*
%TO.P,P8,14*%
%TO.N,unconnected-(P8-Pad14)*%
X93386000Y-208938773D03*
%TO.P,P8,15*%
%TO.N,/Level Shifters/PAN5V.EXT_INT*%
X92116000Y-206739068D03*
%TD*%
D17*
%TO.P,C13,1*%
%TO.N,GND*%
X273559800Y-152323800D03*
%TO.P,C13,2*%
%TO.N,/Panel Headers/POW.5V_HDR_1*%
X272009800Y-152323800D03*
%TD*%
D65*
%TO.P,U13,1,GND*%
%TO.N,GND*%
X98950504Y-246652474D03*
%TO.P,U13,2,SW*%
%TO.N,Net-(U13-SW)*%
X98475504Y-245829750D03*
%TO.P,U13,3,VIN*%
%TO.N,VCC*%
X98000504Y-245007026D03*
%TO.P,U13,4,VFB*%
%TO.N,Net-(U13-VFB)*%
X96030296Y-246144526D03*
%TO.P,U13,5,EN*%
%TO.N,VCC*%
X96505296Y-246967250D03*
%TO.P,U13,6,VBST*%
%TO.N,Net-(U13-VBST)*%
X96980296Y-247789974D03*
%TD*%
D17*
%TO.P,C12,1*%
%TO.N,Net-(U6-VBST)*%
X283121400Y-155702000D03*
%TO.P,C12,2*%
%TO.N,Net-(U6-SW)*%
X281571400Y-155702000D03*
%TD*%
D66*
%TO.P,U9,1,GND*%
%TO.N,GND*%
X157596800Y-75088100D03*
%TO.P,U9,2,SW*%
%TO.N,Net-(U9-SW)*%
X158546800Y-75088100D03*
%TO.P,U9,3,VIN*%
%TO.N,VCC*%
X159496800Y-75088100D03*
%TO.P,U9,4,VFB*%
%TO.N,Net-(U9-VFB)*%
X159496800Y-72813100D03*
%TO.P,U9,5,EN*%
%TO.N,VCC*%
X158546800Y-72813100D03*
%TO.P,U9,6,VBST*%
%TO.N,Net-(U9-VBST)*%
X157596800Y-72813100D03*
%TD*%
D67*
%TO.P,L3,1*%
%TO.N,Net-(U8-SW)*%
X211018000Y-81758228D03*
%TO.P,L3,2*%
%TO.N,/Panel Headers/POW.5V_HDR_3*%
X208193000Y-86651271D03*
%TD*%
D14*
%TO.P,H2,1,1*%
%TO.N,GND*%
X279400000Y-76200000D03*
%TD*%
D18*
%TO.P,C4,1*%
%TO.N,+5V*%
X286385000Y-237845000D03*
%TO.P,C4,2*%
%TO.N,GND*%
X286385000Y-239395000D03*
%TD*%
D68*
%TO.P,U16,1,GND*%
%TO.N,GND*%
X246652474Y-256649496D03*
%TO.P,U16,2,SW*%
%TO.N,Net-(U16-SW)*%
X245829750Y-257124496D03*
%TO.P,U16,3,VIN*%
%TO.N,VCC*%
X245007026Y-257599496D03*
%TO.P,U16,4,VFB*%
%TO.N,Net-(U16-VFB)*%
X246144526Y-259569704D03*
%TO.P,U16,5,EN*%
%TO.N,VCC*%
X246967250Y-259094704D03*
%TO.P,U16,6,VBST*%
%TO.N,Net-(U16-VBST)*%
X247789974Y-258619704D03*
%TD*%
D69*
%TO.P,L6,1*%
%TO.N,Net-(U11-SW)*%
X81758228Y-144582000D03*
%TO.P,L6,2*%
%TO.N,/Panel Headers/POW.5V_HDR_6*%
X86651271Y-147407000D03*
%TD*%
D19*
%TO.P,R3,1*%
%TO.N,/Panel Headers/POW.5V_HDR_1*%
X271972200Y-154076400D03*
%TO.P,R3,2*%
%TO.N,Net-(U6-VFB)*%
X273622200Y-154076400D03*
%TD*%
D70*
%TO.P,U6,1,GND*%
%TO.N,GND*%
X280511900Y-157596800D03*
%TO.P,U6,2,SW*%
%TO.N,Net-(U6-SW)*%
X280511900Y-158546800D03*
%TO.P,U6,3,VIN*%
%TO.N,VCC*%
X280511900Y-159496800D03*
%TO.P,U6,4,VFB*%
%TO.N,Net-(U6-VFB)*%
X282786900Y-159496800D03*
%TO.P,U6,5,EN*%
%TO.N,VCC*%
X282786900Y-158546800D03*
%TO.P,U6,6,VBST*%
%TO.N,Net-(U6-VBST)*%
X282786900Y-157596800D03*
%TD*%
D24*
%TO.P,C7,1*%
%TO.N,+3.3V*%
X172084400Y-286461200D03*
%TO.P,C7,2*%
%TO.N,GND*%
X173634400Y-286461200D03*
%TD*%
D39*
%TO.P,R23,1*%
%TO.N,/Panel Headers/POW.5V_HDR_11*%
X245431300Y-247493729D03*
%TO.P,R23,2*%
%TO.N,Net-(U16-VFB)*%
X246256300Y-248922671D03*
%TD*%
D47*
%TO.P,U12,1,GND*%
%TO.N,GND*%
X75088100Y-198003200D03*
%TO.P,U12,2,SW*%
%TO.N,Net-(U12-SW)*%
X75088100Y-197053200D03*
%TO.P,U12,3,VIN*%
%TO.N,VCC*%
X75088100Y-196103200D03*
%TO.P,U12,4,VFB*%
%TO.N,Net-(U12-VFB)*%
X72813100Y-196103200D03*
%TO.P,U12,5,EN*%
%TO.N,VCC*%
X72813100Y-197053200D03*
%TO.P,U12,6,VBST*%
%TO.N,Net-(U12-VBST)*%
X72813100Y-198003200D03*
%TD*%
D71*
%TO.P,R8,1*%
%TO.N,Net-(U8-VFB)*%
X206108871Y-81371200D03*
%TO.P,R8,2*%
%TO.N,GND*%
X204679929Y-80546200D03*
%TD*%
D72*
%TO.P,L2,1*%
%TO.N,Net-(U7-SW)*%
X254588572Y-111234400D03*
%TO.P,L2,2*%
%TO.N,/Panel Headers/POW.5V_HDR_2*%
X249695529Y-114059400D03*
%TD*%
D41*
%TO.P,C34,1*%
%TO.N,GND*%
X107607630Y-247742900D03*
%TO.P,C34,2*%
%TO.N,/Panel Headers/POW.5V_HDR_8*%
X108949970Y-246967900D03*
%TD*%
D23*
%TO.P,C41,1*%
%TO.N,VCC*%
X242727900Y-258965630D03*
%TO.P,C41,2*%
%TO.N,GND*%
X243502900Y-260307970D03*
%TD*%
D45*
%TO.P,R26,1*%
%TO.N,Net-(U17-VFB)*%
X274228800Y-206108871D03*
%TO.P,R26,2*%
%TO.N,GND*%
X275053800Y-204679929D03*
%TD*%
D12*
%TO.P,C1,1*%
%TO.N,+3.3V*%
X287477200Y-176289000D03*
%TO.P,C1,2*%
%TO.N,GND*%
X287477200Y-174739000D03*
%TD*%
D73*
%TO.P,R16,1*%
%TO.N,Net-(U12-VFB)*%
X80135800Y-201498200D03*
%TO.P,R16,2*%
%TO.N,GND*%
X80135800Y-203148200D03*
%TD*%
D74*
%TO.P,L8,1*%
%TO.N,Net-(U13-SW)*%
X101011428Y-244365600D03*
%TO.P,L8,2*%
%TO.N,/Panel Headers/POW.5V_HDR_8*%
X105904471Y-241540600D03*
%TD*%
D71*
%TO.P,R13,1*%
%TO.N,/Panel Headers/POW.5V_HDR_6*%
X84382671Y-151259100D03*
%TO.P,R13,2*%
%TO.N,Net-(U11-VFB)*%
X82953729Y-150434100D03*
%TD*%
D75*
%TO.P,U8,1,GND*%
%TO.N,GND*%
X211659426Y-78747304D03*
%TO.P,U8,2,SW*%
%TO.N,Net-(U8-SW)*%
X212482150Y-79222304D03*
%TO.P,U8,3,VIN*%
%TO.N,VCC*%
X213304874Y-79697304D03*
%TO.P,U8,4,VFB*%
%TO.N,Net-(U8-VFB)*%
X214442374Y-77727096D03*
%TO.P,U8,5,EN*%
%TO.N,VCC*%
X213619650Y-77252096D03*
%TO.P,U8,6,VBST*%
%TO.N,Net-(U8-VBST)*%
X212796926Y-76777096D03*
%TD*%
D43*
%TO.P,R9,1*%
%TO.N,/Panel Headers/POW.5V_HDR_4*%
X154076400Y-83627800D03*
%TO.P,R9,2*%
%TO.N,Net-(U9-VFB)*%
X154076400Y-81977800D03*
%TD*%
D76*
%TO.P,L12,1*%
%TO.N,Net-(U17-SW)*%
X273841772Y-211018000D03*
%TO.P,L12,2*%
%TO.N,/Panel Headers/POW.5V_HDR_12*%
X268948729Y-208193000D03*
%TD*%
D77*
%TO.P,P2,1*%
%TO.N,/Panel Headers/POW.5V_HDR_2*%
X245704000Y-118065068D03*
D16*
%TO.P,P2,2*%
%TO.N,GND*%
X246974000Y-120264773D03*
%TO.P,P2,3*%
%TO.N,/Panel Headers/RESET*%
X248244000Y-122464477D03*
%TO.P,P2,4*%
%TO.N,/Level Shifters/PAN5V.SCK_0*%
X249514000Y-124664182D03*
%TO.P,P2,5*%
%TO.N,/Level Shifters/PAN5V.MOSI_0*%
X250784000Y-126863886D03*
%TO.P,P2,6*%
%TO.N,/Level Shifters/PAN5V.MISO_0*%
X252054000Y-129063591D03*
%TO.P,P2,7*%
%TO.N,/Level Shifters/PAN5V.CS_05*%
X253324000Y-131263295D03*
%TO.P,P2,8*%
%TO.N,/Level Shifters/PAN5V.CS_06*%
X254594000Y-133463000D03*
%TO.P,P2,9*%
%TO.N,/Level Shifters/PAN5V.CS_07*%
X255864000Y-135662705D03*
%TO.P,P2,10*%
%TO.N,/Level Shifters/PAN5V.CS_08*%
X257134000Y-137862409D03*
%TO.P,P2,11*%
%TO.N,/Level Shifters/PAN5V.CS_09*%
X258404000Y-140062114D03*
%TO.P,P2,12*%
%TO.N,unconnected-(P2-Pad12)*%
X259674000Y-142261818D03*
%TO.P,P2,13*%
%TO.N,unconnected-(P2-Pad13)*%
X260944000Y-144461523D03*
%TO.P,P2,14*%
%TO.N,unconnected-(P2-Pad14)*%
X262214000Y-146661227D03*
%TO.P,P2,15*%
%TO.N,/Level Shifters/PAN5V.EXT_INT*%
X263484000Y-148860932D03*
%TD*%
D78*
%TO.P,L4,1*%
%TO.N,Net-(U9-SW)*%
X158546800Y-78016400D03*
%TO.P,L4,2*%
%TO.N,/Panel Headers/POW.5V_HDR_4*%
X158546800Y-83666400D03*
%TD*%
D44*
%TO.P,C36,1*%
%TO.N,Net-(U14-VBST)*%
X144276700Y-280059970D03*
%TO.P,C36,2*%
%TO.N,Net-(U14-SW)*%
X145051700Y-278717630D03*
%TD*%
D37*
%TO.P,J2,1,Pin_1*%
%TO.N,GND*%
X286675600Y-143962600D03*
%TO.P,J2,2,Pin_2*%
%TO.N,+3.3V*%
X286675600Y-142962600D03*
%TO.P,J2,3,Pin_3*%
%TO.N,/Teensy/SDA*%
X286675600Y-141962600D03*
%TO.P,J2,4,Pin_4*%
%TO.N,/Teensy/SCL*%
X286675600Y-140962600D03*
D38*
%TO.P,J2,MP*%
%TO.N,N/C*%
X290550600Y-145262600D03*
X290550600Y-139662600D03*
%TD*%
D13*
%TO.P,C42,1*%
%TO.N,Net-(U16-VBST)*%
X249598100Y-257961970D03*
%TO.P,C42,2*%
%TO.N,Net-(U16-SW)*%
X248823100Y-256619630D03*
%TD*%
D79*
%TO.P,P3,1*%
%TO.N,/Panel Headers/POW.5V_HDR_3*%
X206739068Y-92116000D03*
D16*
%TO.P,P3,2*%
%TO.N,GND*%
X208938773Y-93386000D03*
%TO.P,P3,3*%
%TO.N,/Panel Headers/RESET*%
X211138477Y-94656000D03*
%TO.P,P3,4*%
%TO.N,/Level Shifters/PAN5V.SCK_0*%
X213338182Y-95926000D03*
%TO.P,P3,5*%
%TO.N,/Level Shifters/PAN5V.MOSI_0*%
X215537886Y-97196000D03*
%TO.P,P3,6*%
%TO.N,/Level Shifters/PAN5V.MISO_0*%
X217737591Y-98466000D03*
%TO.P,P3,7*%
%TO.N,/Level Shifters/PAN5V.CS_10*%
X219937295Y-99736000D03*
%TO.P,P3,8*%
%TO.N,/Level Shifters/PAN5V.CS_11*%
X222137000Y-101006000D03*
%TO.P,P3,9*%
%TO.N,/Level Shifters/PAN5V.CS_12*%
X224336705Y-102276000D03*
%TO.P,P3,10*%
%TO.N,/Level Shifters/PAN5V.CS_13*%
X226536409Y-103546000D03*
%TO.P,P3,11*%
%TO.N,/Level Shifters/PAN5V.CS_14*%
X228736114Y-104816000D03*
%TO.P,P3,12*%
%TO.N,unconnected-(P3-Pad12)*%
X230935818Y-106086000D03*
%TO.P,P3,13*%
%TO.N,unconnected-(P3-Pad13)*%
X233135523Y-107356000D03*
%TO.P,P3,14*%
%TO.N,unconnected-(P3-Pad14)*%
X235335227Y-108626000D03*
%TO.P,P3,15*%
%TO.N,/Level Shifters/PAN5V.EXT_INT*%
X237534932Y-109896000D03*
%TD*%
D27*
%TO.P,U5,1,A1*%
%TO.N,/Level Shifters/PAN3V.CS_24*%
X121967600Y-286316000D03*
%TO.P,U5,2,VCCA*%
%TO.N,+3.3V*%
X121967600Y-285666000D03*
%TO.P,U5,3,A2*%
%TO.N,/Level Shifters/PAN3V.CS_25*%
X121967600Y-285016000D03*
%TO.P,U5,4,A3*%
%TO.N,/Level Shifters/PAN3V.CS_26*%
X121967600Y-284366000D03*
%TO.P,U5,5,A4*%
%TO.N,/Level Shifters/PAN3V.CS_27*%
X121967600Y-283716000D03*
%TO.P,U5,6,A5*%
%TO.N,/Level Shifters/PAN3V.CS_28*%
X121967600Y-283066000D03*
%TO.P,U5,7,A6*%
%TO.N,/Level Shifters/PAN3V.CS_29*%
X121967600Y-282416000D03*
%TO.P,U5,8,A7*%
%TO.N,unconnected-(U5-A7-Pad8)*%
X121967600Y-281766000D03*
%TO.P,U5,9,A8*%
%TO.N,/Level Shifters/PAN3V.EXT_INT*%
X121967600Y-281116000D03*
%TO.P,U5,10,OE*%
%TO.N,+3.3V*%
X121967600Y-280466000D03*
%TO.P,U5,11,GND*%
%TO.N,GND*%
X116242600Y-280466000D03*
%TO.P,U5,12,B8*%
%TO.N,/Level Shifters/PAN5V.EXT_INT*%
X116242600Y-281116000D03*
%TO.P,U5,13,B7*%
%TO.N,unconnected-(U5-B7-Pad13)*%
X116242600Y-281766000D03*
%TO.P,U5,14,B6*%
%TO.N,/Level Shifters/PAN5V.CS_29*%
X116242600Y-282416000D03*
%TO.P,U5,15,B5*%
%TO.N,/Level Shifters/PAN5V.CS_28*%
X116242600Y-283066000D03*
%TO.P,U5,16,B4*%
%TO.N,/Level Shifters/PAN5V.CS_27*%
X116242600Y-283716000D03*
%TO.P,U5,17,B3*%
%TO.N,/Level Shifters/PAN5V.CS_26*%
X116242600Y-284366000D03*
%TO.P,U5,18,B2*%
%TO.N,/Level Shifters/PAN5V.CS_25*%
X116242600Y-285016000D03*
%TO.P,U5,19,VCCB*%
%TO.N,+5V*%
X116242600Y-285666000D03*
%TO.P,U5,20,B1*%
%TO.N,/Level Shifters/PAN5V.CS_24*%
X116242600Y-286316000D03*
%TD*%
D80*
%TO.P,R2,1*%
%TO.N,GND*%
X276043400Y-111888900D03*
%TO.P,R2,2*%
%TO.N,Net-(Q2-G)*%
X276043400Y-113713900D03*
%TD*%
D73*
%TO.P,R21,1*%
%TO.N,/Panel Headers/POW.5V_HDR_10*%
X201523600Y-271972200D03*
%TO.P,R21,2*%
%TO.N,Net-(U15-VFB)*%
X201523600Y-273622200D03*
%TD*%
D32*
%TO.P,R12,1*%
%TO.N,Net-(U10-VFB)*%
X108444671Y-105069400D03*
%TO.P,R12,2*%
%TO.N,GND*%
X107015729Y-105894400D03*
%TD*%
D22*
%TO.P,C19,1*%
%TO.N,GND*%
X203616900Y-82131430D03*
%TO.P,C19,2*%
%TO.N,/Panel Headers/POW.5V_HDR_3*%
X202841900Y-83473770D03*
%TD*%
D81*
%TO.P,U10,1,GND*%
%TO.N,GND*%
X108947526Y-98950504D03*
%TO.P,U10,2,SW*%
%TO.N,Net-(U10-SW)*%
X109770250Y-98475504D03*
%TO.P,U10,3,VIN*%
%TO.N,VCC*%
X110592974Y-98000504D03*
%TO.P,U10,4,VFB*%
%TO.N,Net-(U10-VFB)*%
X109455474Y-96030296D03*
%TO.P,U10,5,EN*%
%TO.N,VCC*%
X108632750Y-96505296D03*
%TO.P,U10,6,VBST*%
%TO.N,Net-(U10-VBST)*%
X107810026Y-96980296D03*
%TD*%
D82*
%TO.N,+3.3V*%
X218580000Y-281191000D03*
X123241000Y-285699000D03*
X288747000Y-133960000D03*
X282270000Y-177495000D03*
X218694000Y-286277000D03*
X287477000Y-177495000D03*
X123138000Y-280466000D03*
X286410000Y-228143000D03*
X170815000Y-286512000D03*
X281203000Y-228117000D03*
X288493000Y-142977000D03*
X170840000Y-281305000D03*
%TO.N,+5V*%
X286385000Y-236728000D03*
X114808000Y-285659000D03*
X287476000Y-186309000D03*
X210058000Y-286268000D03*
X162306000Y-286479000D03*
%TO.N,/Teensy/SDA*%
X278079200Y-141986000D03*
%TO.N,/Teensy/SCL*%
X275191400Y-140962600D03*
X271937200Y-272890800D03*
%TO.N,/Teensy/A0*%
X268655800Y-132943600D03*
%TO.N,/Teensy/A1*%
X270089400Y-131951600D03*
%TO.N,/Level Shifters/PAN5V.SCK_1*%
X129760700Y-246462400D03*
X91846400Y-189661800D03*
X241381900Y-223306400D03*
%TO.N,/Level Shifters/PAN5V.SCK_0*%
X215148300Y-107050700D03*
X109728000Y-139319000D03*
%TO.N,/Level Shifters/PAN5V.MOSI_0*%
X261797800Y-166293800D03*
X110490000Y-133400800D03*
X217647250Y-108412550D03*
%TO.N,/Level Shifters/PAN5V.MISO_0*%
X174345600Y-98466000D03*
X111340100Y-131749800D03*
X239877600Y-128854200D03*
%TO.N,/Level Shifters/PAN5V.CS_00*%
X259842000Y-235966000D03*
X262407400Y-217525600D03*
X102865415Y-220400985D03*
%TO.N,/Level Shifters/PAN5V.CS_01*%
X266839300Y-219708700D03*
X137693400Y-244703600D03*
X268401800Y-177848000D03*
X142696020Y-250445180D03*
%TO.N,/Level Shifters/PAN5V.CS_02*%
X237232800Y-237227200D03*
X91236800Y-196342000D03*
X233883200Y-237227200D03*
X263474200Y-232970200D03*
%TO.N,/Level Shifters/PAN5V.CS_03*%
X271754600Y-242417600D03*
X131650900Y-241119500D03*
X270822200Y-182880000D03*
X168960800Y-263601200D03*
%TO.N,/Level Shifters/PAN5V.CS_04*%
X273950900Y-185420000D03*
X99618800Y-228574600D03*
X274472400Y-240868200D03*
%TO.N,/Level Shifters/PAN5V.EXT_INT*%
X117678200Y-280924000D03*
X113889900Y-109905800D03*
X118065100Y-264693400D03*
X253984200Y-198396200D03*
X195580000Y-99357100D03*
X248869200Y-145211800D03*
X145113700Y-264724500D03*
%TO.N,GND*%
X284759400Y-232613200D03*
X217220800Y-109143800D03*
X268122400Y-255320800D03*
X107654700Y-137312400D03*
X185521600Y-271018000D03*
X204012800Y-286766000D03*
X272465800Y-140106400D03*
X287477000Y-173431000D03*
X206730600Y-254050800D03*
X145846800Y-264109200D03*
X113284000Y-283819600D03*
X233807000Y-236270800D03*
X114046000Y-222326200D03*
X115570000Y-130987800D03*
X108381800Y-231851200D03*
D83*
X250927000Y-106274000D03*
D82*
X214655400Y-107772200D03*
X214833200Y-284454600D03*
X118745000Y-283768800D03*
X127152000Y-285699000D03*
X216341900Y-277444200D03*
X210388200Y-102260400D03*
X287655000Y-181406800D03*
X245719600Y-218795600D03*
X143916400Y-255397000D03*
X243408200Y-282143200D03*
X230987600Y-234670600D03*
X290449000Y-120446800D03*
D83*
X78511400Y-145517000D03*
D82*
X149301200Y-103479600D03*
X250444000Y-142087600D03*
D83*
X259613000Y-110973000D03*
D82*
X288214000Y-144424000D03*
X271246600Y-181965600D03*
X244424200Y-231952800D03*
X211658200Y-272110200D03*
X194640200Y-99339400D03*
X226949000Y-239953800D03*
X186766200Y-263855200D03*
D83*
X75565000Y-199517000D03*
D82*
X136248730Y-250711800D03*
X205065700Y-280009600D03*
X247329730Y-141925270D03*
X109880400Y-239826800D03*
X247954800Y-264388600D03*
X91236800Y-197332600D03*
X188798200Y-272440400D03*
X230225600Y-239725200D03*
X265252200Y-223570800D03*
X190931800Y-269570200D03*
X250825000Y-260934200D03*
X152806400Y-256184400D03*
X243103400Y-288137600D03*
X102057200Y-220599000D03*
X206197000Y-286283000D03*
X247269000Y-129794000D03*
X275285200Y-140157200D03*
X213131400Y-285902400D03*
X130363080Y-247207920D03*
D83*
X282118000Y-160858000D03*
D82*
X269163800Y-228447600D03*
X92151200Y-188671200D03*
X179324000Y-261747000D03*
X257962400Y-240436400D03*
X174421800Y-93827600D03*
X273761200Y-239395000D03*
X274121700Y-234569000D03*
X290474400Y-184607200D03*
X239115600Y-129463800D03*
X202486380Y-269979300D03*
X181406800Y-272542000D03*
X288138000Y-135585000D03*
X174142400Y-96875600D03*
X198831200Y-269951200D03*
X152781000Y-277850600D03*
X263194800Y-217855800D03*
X257276600Y-271297400D03*
X110413800Y-138709400D03*
X277012400Y-226593400D03*
X205536800Y-271830800D03*
X196672200Y-264430200D03*
X219862400Y-270840200D03*
X281203000Y-236728000D03*
X206679800Y-268071600D03*
D83*
X110973000Y-95910400D03*
D82*
X253187200Y-255600200D03*
X148849270Y-250489530D03*
X240512600Y-267436600D03*
X111049000Y-285674000D03*
X143865600Y-250545600D03*
X158572200Y-256870200D03*
X169976800Y-263499600D03*
X124256800Y-280492200D03*
X160756600Y-278942800D03*
X117737298Y-281721817D03*
X286217600Y-181406800D03*
D83*
X140310000Y-276631000D03*
D82*
X282296000Y-186360000D03*
X251510800Y-221538800D03*
X166471600Y-86791800D03*
D83*
X107823000Y-100127000D03*
D82*
X223469200Y-260731000D03*
X181102000Y-93624400D03*
X163499800Y-256971800D03*
X220903800Y-278688800D03*
X198856600Y-267258800D03*
X241071400Y-276098000D03*
X286385000Y-224612000D03*
X204089000Y-259257800D03*
X233146600Y-244576600D03*
D83*
X79197200Y-150190000D03*
D82*
X165658800Y-283641800D03*
X287528000Y-190068000D03*
X254406400Y-142900400D03*
X285343600Y-201930000D03*
X181787800Y-99796600D03*
X154432000Y-259003800D03*
X226415600Y-247370600D03*
X115519200Y-278790400D03*
X113030000Y-109931200D03*
X262712200Y-232181400D03*
X201980800Y-287550000D03*
D83*
X106223000Y-104521000D03*
X276428000Y-205384000D03*
D82*
X137210800Y-243890800D03*
D83*
X255372000Y-108052000D03*
D82*
X235559600Y-281902600D03*
D83*
X150114000Y-276504000D03*
D82*
X126542800Y-244602000D03*
X179755800Y-275336000D03*
X174345600Y-99339400D03*
X277190200Y-142011400D03*
D83*
X199568000Y-279933000D03*
X205359000Y-79349600D03*
D82*
X116789200Y-267817600D03*
X136245600Y-257327400D03*
X270967200Y-272999200D03*
X272440400Y-231394000D03*
X244068600Y-264845800D03*
X240715800Y-223850200D03*
X225780600Y-273024600D03*
X249199400Y-226898200D03*
X236651800Y-267589000D03*
X246151400Y-274447000D03*
X262610600Y-165633400D03*
X162915600Y-277672800D03*
X181965600Y-262636000D03*
X268681200Y-131902200D03*
X286385000Y-240309000D03*
D83*
X279933000Y-156185000D03*
X73482200Y-194742000D03*
D82*
X90601800Y-264947400D03*
X127304800Y-241960400D03*
X261823200Y-202996800D03*
X131572000Y-262432800D03*
X218287600Y-246786400D03*
X203225400Y-267055600D03*
X187731400Y-268198600D03*
X240944400Y-253517400D03*
X273304000Y-269214600D03*
X133781800Y-256540000D03*
X161671000Y-284302200D03*
X165658800Y-286512000D03*
X266522200Y-220548200D03*
D83*
X215265000Y-78968600D03*
D82*
X113588800Y-125577600D03*
X241630200Y-130708400D03*
X158089600Y-102006400D03*
D83*
X210058000Y-78486000D03*
D82*
X260146800Y-201879200D03*
X237642400Y-236423200D03*
X252018800Y-276987000D03*
X240258600Y-256489200D03*
X186359800Y-257245300D03*
X247523000Y-231089200D03*
X133616327Y-253225673D03*
X117246400Y-264693400D03*
X284302200Y-222707200D03*
X255346200Y-266877800D03*
X260324600Y-236753400D03*
X249885200Y-145161000D03*
X101854000Y-159359600D03*
X222225000Y-286258000D03*
X156032200Y-261366000D03*
X115011000Y-280467000D03*
X252628400Y-232079800D03*
D83*
X160833000Y-73507600D03*
D82*
X102158800Y-145135600D03*
D83*
X194818000Y-282092000D03*
D82*
X259918200Y-223901000D03*
X271348200Y-243128800D03*
X284873500Y-181271069D03*
X248793000Y-272516600D03*
X268503400Y-176885600D03*
X280543000Y-180797200D03*
X238810800Y-276148800D03*
X266192000Y-122453400D03*
X219379800Y-253644400D03*
X113131600Y-260045200D03*
X174828000Y-286436000D03*
X111226600Y-132613400D03*
X162306000Y-281280000D03*
X270067800Y-230657400D03*
D83*
X95910400Y-244653000D03*
D82*
X267004800Y-201879200D03*
X243992400Y-132384800D03*
X124460000Y-114300000D03*
D83*
X276885000Y-152476000D03*
D82*
X105765600Y-138125200D03*
D83*
X79044800Y-140310000D03*
X78638400Y-203149000D03*
D82*
X288486200Y-230276400D03*
D83*
X249453000Y-251130000D03*
D82*
X277546000Y-111887000D03*
X98933000Y-229158800D03*
X202666600Y-281584400D03*
X189814200Y-263855200D03*
X190576200Y-259638800D03*
X218414600Y-263398000D03*
X281863800Y-249936000D03*
X114020600Y-132943600D03*
X271221200Y-142900400D03*
X175437800Y-271018000D03*
X132664200Y-241046000D03*
X280212800Y-244754400D03*
X207645000Y-285140400D03*
X187096400Y-285445200D03*
D83*
X247650000Y-255372000D03*
X100355000Y-247777000D03*
X276504000Y-215443000D03*
D82*
X240004600Y-229108000D03*
X199009000Y-265836400D03*
X244779800Y-223494600D03*
X274421600Y-184632600D03*
X102489000Y-200025000D03*
X212090000Y-268071600D03*
X158471000Y-286512000D03*
X273685000Y-241554000D03*
X102146700Y-205892400D03*
X270078200Y-131089400D03*
X224053400Y-276504400D03*
X109194600Y-263448800D03*
D83*
X145593000Y-277165000D03*
X104597000Y-249377000D03*
D84*
X156235000Y-75438000D03*
D82*
X186867800Y-275971000D03*
D83*
X276987000Y-210185000D03*
D82*
X267030200Y-226745800D03*
X209982000Y-281076000D03*
D83*
X203149000Y-277012000D03*
X152476000Y-78638400D03*
D82*
X254584200Y-197688200D03*
D83*
X244627000Y-259690000D03*
D82*
%TO.N,/Level Shifters/PAN5V.CS_05*%
X258749800Y-240868200D03*
%TO.N,/Level Shifters/PAN5V.CS_06*%
X219291500Y-246825100D03*
X206713300Y-253001300D03*
X274123600Y-233622100D03*
X273216900Y-139818100D03*
%TO.N,/Level Shifters/PAN5V.CS_08*%
X153456100Y-257007000D03*
X212988400Y-267786300D03*
X213892000Y-286925000D03*
X191552900Y-259761500D03*
X254572100Y-143742800D03*
X248081800Y-263575800D03*
X127050800Y-241173000D03*
%TO.N,/Level Shifters/PAN5V.CS_09*%
X250164600Y-146100800D03*
X207729600Y-268057000D03*
X187431430Y-257238684D03*
X208841500Y-285134300D03*
X224479000Y-261004200D03*
%TO.N,/Level Shifters/PAN5V.CS_10*%
X218725500Y-271310700D03*
X247243600Y-130606800D03*
X212697900Y-272194000D03*
X242265200Y-130149600D03*
X212697900Y-284976600D03*
X185892200Y-263358600D03*
%TO.N,/Level Shifters/PAN5V.CS_11*%
X214833200Y-285648400D03*
X244484100Y-232968800D03*
X244830600Y-132410200D03*
X251333000Y-142092440D03*
X192372600Y-280732000D03*
X247424400Y-230073200D03*
X180898800Y-262708600D03*
%TO.N,/Level Shifters/PAN5V.CS_12*%
X230164520Y-238724320D03*
X204063600Y-260070600D03*
X142752913Y-255463400D03*
X153365200Y-258935300D03*
X214579200Y-283413200D03*
X250266200Y-227177600D03*
%TO.N,/Level Shifters/PAN5V.CS_13*%
X221834200Y-279082800D03*
X152806400Y-276987000D03*
X202323700Y-282536900D03*
X180466100Y-272719800D03*
X247306750Y-140983050D03*
X250748800Y-143002000D03*
%TO.N,/Level Shifters/PAN5V.CS_14*%
X243789200Y-223342200D03*
X203504800Y-282016200D03*
X252087400Y-220759000D03*
X216991900Y-278053800D03*
X174523400Y-271094200D03*
X132157600Y-261818500D03*
%TO.N,/Level Shifters/PAN5V.CS_15*%
X180416200Y-94183200D03*
X187123670Y-275158200D03*
X199258500Y-273661600D03*
X182865800Y-99788100D03*
X202946000Y-280644600D03*
X201828400Y-270560800D03*
X238702800Y-112553900D03*
X235712000Y-267335000D03*
%TO.N,/Level Shifters/PAN5V.CS_16*%
X123510300Y-113947400D03*
X166471600Y-87655400D03*
X102796700Y-206679200D03*
X157002300Y-101936600D03*
X166090600Y-287223200D03*
X147925530Y-250422670D03*
%TO.N,/Level Shifters/PAN5V.CS_17*%
X105054400Y-139065000D03*
X174828200Y-94640400D03*
X165127800Y-285829000D03*
%TO.N,/Level Shifters/PAN5V.CS_18*%
X101191000Y-160186500D03*
X162444900Y-284704600D03*
X174167800Y-96037400D03*
X114025900Y-223139000D03*
X112807700Y-126313600D03*
%TO.N,/Level Shifters/PAN5V.CS_19*%
X164918227Y-284070869D03*
X113375900Y-221640400D03*
X148905700Y-102741800D03*
X102283100Y-200963800D03*
X123746200Y-115115100D03*
%TO.N,/Level Shifters/PAN5V.CS_20*%
X178308000Y-261660400D03*
X156591000Y-262058600D03*
X132948597Y-252557943D03*
X162435400Y-283880600D03*
%TO.N,/Level Shifters/PAN5V.CS_21*%
X159831100Y-278700600D03*
X105994200Y-138988800D03*
X113255100Y-133457000D03*
X198330500Y-274269700D03*
X201930000Y-267240300D03*
%TO.N,/Level Shifters/PAN5V.CS_22*%
X133808200Y-257459000D03*
X135351900Y-257459000D03*
X160917000Y-279827400D03*
%TO.N,/Level Shifters/PAN5V.CS_23*%
X163268000Y-276939600D03*
X115219100Y-130263000D03*
X107654700Y-138338800D03*
X191770000Y-269544800D03*
X193675000Y-264617200D03*
%TO.N,/Level Shifters/PAN5V.CS_24*%
X89992200Y-265506200D03*
X179070000Y-274800300D03*
%TO.N,/Level Shifters/PAN5V.CS_25*%
X159054800Y-257727400D03*
X164053700Y-257727400D03*
X118095000Y-284316600D03*
X109770250Y-262847750D03*
X227533200Y-239273280D03*
X146304000Y-264947400D03*
X116789200Y-268637100D03*
%TO.N,/Level Shifters/PAN5V.CS_26*%
X220415500Y-253572500D03*
X187731400Y-269062200D03*
X112471200Y-260731000D03*
X226390200Y-240868200D03*
X114134900Y-284264100D03*
X197662800Y-264430200D03*
%TO.N,/Level Shifters/PAN5V.CS_27*%
X240690400Y-257200400D03*
X198856600Y-268097000D03*
X115011200Y-279577800D03*
X188798200Y-271602200D03*
%TO.N,/Level Shifters/PAN5V.CS_28*%
X112749500Y-283066000D03*
X109169200Y-232333800D03*
X240729100Y-228304700D03*
X233070400Y-243662200D03*
%TO.N,/Level Shifters/PAN5V.CS_29*%
X186232800Y-271526000D03*
X240517200Y-252731800D03*
X204528800Y-267104600D03*
X115316000Y-277870100D03*
%TO.N,/Level Shifters/PAN5V.MOSI_1*%
X261315200Y-202361800D03*
X244853220Y-218676220D03*
X200050400Y-265817300D03*
X109236400Y-240393700D03*
%TO.N,/Level Shifters/PAN5V.MISO_1*%
X231800400Y-234035600D03*
X182880000Y-262708600D03*
X259341600Y-201626300D03*
X125404447Y-244444953D03*
X226618800Y-248183400D03*
%TO.N,/Level Shifters/PAN5V.RESET*%
X290422500Y-183740200D03*
X290422500Y-121338700D03*
%TO.N,/Level Shifters/PAN3V.RESET*%
X285524450Y-224285050D03*
X288264600Y-180695600D03*
X253350700Y-231505400D03*
%TO.N,/Level Shifters/PAN3V.SCK_0*%
X284403800Y-223799400D03*
X286893000Y-180695600D03*
X265176000Y-224536000D03*
%TO.N,/Level Shifters/PAN3V.MOSI_0*%
X286067500Y-180378100D03*
X285523500Y-201067300D03*
X267751800Y-201512050D03*
%TO.N,/Level Shifters/PAN3V.MISO_0*%
X283362400Y-222369700D03*
X260350000Y-224688400D03*
X284867732Y-180382846D03*
%TO.N,/Level Shifters/PAN3V.SCK_1*%
X279665800Y-243983400D03*
X253238000Y-254685800D03*
X280873200Y-181550800D03*
%TO.N,/Level Shifters/PAN3V.MOSI_1*%
X281862100Y-249113200D03*
X250952000Y-260062700D03*
X281533600Y-180784500D03*
%TO.N,/Level Shifters/PAN3V.MISO_1*%
X279694520Y-181163080D03*
%TO.N,/Level Shifters/PAN3V.CS_00*%
X287753400Y-229613400D03*
%TO.N,/Level Shifters/PAN3V.CS_01*%
X283859700Y-232568500D03*
%TO.N,/Level Shifters/PAN3V.CS_02*%
X276281000Y-225927800D03*
%TO.N,/Level Shifters/PAN3V.CS_03*%
X272451950Y-232294550D03*
%TO.N,/Level Shifters/PAN3V.CS_04*%
X270332200Y-231470200D03*
%TO.N,/Level Shifters/PAN3V.CS_05*%
X269443200Y-229946200D03*
%TO.N,/Level Shifters/PAN3V.CS_06*%
X267157200Y-227660200D03*
%TO.N,/Level Shifters/PAN3V.CS_07*%
X268630400Y-229285800D03*
X268859000Y-255840700D03*
%TO.N,/Level Shifters/PAN5V.CS_07*%
X273471700Y-235356400D03*
X271757200Y-142139200D03*
X273405600Y-238556800D03*
%TO.N,/Level Shifters/PAN3V.CS_10*%
X215604400Y-284976600D03*
X218406300Y-264330800D03*
%TO.N,/Level Shifters/PAN3V.CS_16*%
X200990200Y-287502600D03*
X205829600Y-272846800D03*
%TO.N,/Level Shifters/PAN3V.CS_17*%
X236220000Y-282552600D03*
X223598300Y-277364300D03*
X187858400Y-286131000D03*
X249428000Y-273173500D03*
X205065700Y-280974800D03*
X242477546Y-282530353D03*
%TO.N,/Level Shifters/PAN3V.CS_18*%
X203682600Y-269979300D03*
X254763350Y-267587650D03*
X258218300Y-271041500D03*
X200550800Y-275272000D03*
%TO.N,/Level Shifters/PAN3V.CS_19*%
X226415600Y-273710400D03*
X238785400Y-275151700D03*
X204444600Y-277342600D03*
X187071000Y-284529000D03*
X246243380Y-273567620D03*
X273570500Y-270190000D03*
X241046000Y-275151700D03*
%TO.N,/Level Shifters/PAN3V.CS_20*%
X246989600Y-274473500D03*
X206527400Y-271805400D03*
X240461800Y-268327000D03*
X203747200Y-285981800D03*
%TO.N,/Level Shifters/PAN3V.CS_22*%
X252248850Y-276071150D03*
X243281200Y-265277600D03*
X194856300Y-276461900D03*
X198831200Y-269138400D03*
%TO.N,/Level Shifters/PAN3V.CS_23*%
X204165200Y-276141800D03*
X200692800Y-276458000D03*
X225018600Y-273786600D03*
X236169200Y-281072400D03*
%TO.N,/Level Shifters/PAN3V.CS_25*%
X243689700Y-288744200D03*
%TO.N,/Level Shifters/PAN3V.EXT_INT*%
X124619800Y-281290000D03*
%TO.N,/Panel Headers/RESET*%
X190830200Y-263804400D03*
X102819200Y-144500600D03*
X136895720Y-251394080D03*
X211138500Y-101752400D03*
X265303200Y-122464500D03*
X263084100Y-166471600D03*
X92862400Y-189687200D03*
D83*
%TO.N,VCC*%
X275311000Y-214478000D03*
X194843000Y-280518000D03*
X80365600Y-141224000D03*
X160858000Y-75082400D03*
X243992000Y-258191000D03*
X97307400Y-243865000D03*
X141199000Y-275361000D03*
X75082400Y-194818000D03*
X258242000Y-111735000D03*
X111760000Y-97282000D03*
X214478000Y-80391000D03*
X280518000Y-160884000D03*
%TD*%
D85*
%TO.N,+3.3V*%
X282276000Y-179047000D02*
X282276000Y-177501000D01*
X172075500Y-286470000D02*
X172084000Y-286461000D01*
X218466000Y-281077000D02*
X217171100Y-281077000D01*
X287477000Y-177495000D02*
X287477000Y-179046000D01*
X122001000Y-285699000D02*
X121968000Y-285666000D01*
X172075500Y-286470000D02*
X172075600Y-286470000D01*
X124332200Y-285699000D02*
X124332400Y-285699200D01*
X170815000Y-286512000D02*
X170815000Y-286479000D01*
X169412500Y-286479000D02*
X170815000Y-286479000D01*
X172075600Y-286470000D02*
X172084400Y-286461200D01*
X170815000Y-286479000D02*
X172067000Y-286479000D01*
X286410000Y-227932700D02*
X286410000Y-228143000D01*
X288739000Y-133952000D02*
X288747000Y-133960000D01*
X170840000Y-281305000D02*
X170814000Y-281279000D01*
X218580000Y-281191000D02*
X218466000Y-281077000D01*
X121967600Y-280466000D02*
X121968000Y-280466000D01*
X124332000Y-285699000D02*
X123241000Y-285699000D01*
X287477000Y-176892000D02*
X287477200Y-176891800D01*
X281200000Y-229613000D02*
X281200000Y-228121000D01*
X123241000Y-285699000D02*
X122001000Y-285699000D01*
X282276000Y-177501000D02*
X282270000Y-177495000D01*
X219665000Y-286277000D02*
X219684000Y-286258000D01*
X286400000Y-229613000D02*
X286400000Y-229194200D01*
X281200000Y-228121000D02*
X281203000Y-228117000D01*
X286675600Y-133951600D02*
X286676000Y-133952000D01*
X281200000Y-229613200D02*
X281200000Y-229613000D01*
X217171000Y-286277000D02*
X217171100Y-286277000D01*
X217171100Y-281077000D02*
X217171000Y-281077000D01*
X287477000Y-176892000D02*
X287477000Y-177495000D01*
X287477200Y-176891800D02*
X287477200Y-176289000D01*
X217171100Y-286277000D02*
X218694000Y-286277000D01*
X123138000Y-280466000D02*
X121968000Y-280466000D01*
X217171100Y-286276600D02*
X217171100Y-286277000D01*
X169412000Y-286479000D02*
X169412500Y-286479000D01*
X286690000Y-142977000D02*
X286676000Y-142963000D01*
X121967600Y-285666000D02*
X121968000Y-285666000D01*
X170814000Y-281279000D02*
X169412500Y-281279000D01*
X286675600Y-142962600D02*
X286676000Y-142963000D01*
X286400200Y-229194400D02*
X286400200Y-229613400D01*
X287477000Y-176289000D02*
X287477000Y-176892000D01*
X217171100Y-281076600D02*
X217171100Y-281077000D01*
X286676000Y-133952000D02*
X288739000Y-133952000D01*
X288493000Y-142977000D02*
X286690000Y-142977000D01*
X286400000Y-229194200D02*
X286400200Y-229194400D01*
X287477000Y-179046000D02*
X287476000Y-179047000D01*
X281200200Y-229613400D02*
X281200000Y-229613200D01*
X286400000Y-229194200D02*
X286400000Y-227922700D01*
X172067000Y-286479000D02*
X172075500Y-286470000D01*
X169412500Y-281279000D02*
X169412000Y-281279000D01*
X286400000Y-227070000D02*
X286385000Y-227055000D01*
X124332000Y-285699000D02*
X124332200Y-285699000D01*
X218694000Y-286277000D02*
X219665000Y-286277000D01*
X286400000Y-227922700D02*
X286410000Y-227932700D01*
X286400000Y-227922700D02*
X286400000Y-227070000D01*
%TO.N,+5V*%
X114808000Y-285659000D02*
X116236000Y-285659000D01*
X286385000Y-235354000D02*
X286400000Y-235338000D01*
X286385000Y-236728000D02*
X286385000Y-235354000D01*
X162306000Y-286479000D02*
X161267000Y-286479000D01*
X208899000Y-286268000D02*
X210058000Y-286268000D01*
X287476000Y-187501000D02*
X287528000Y-187553000D01*
X163688000Y-286479000D02*
X163687500Y-286479000D01*
X163687500Y-286479000D02*
X162306000Y-286479000D01*
X287476000Y-186309000D02*
X287476000Y-187501000D01*
X116236000Y-285659000D02*
X116243000Y-285666000D01*
X286385000Y-237845000D02*
X286385000Y-236728000D01*
X113732000Y-285659000D02*
X114808000Y-285659000D01*
X287476000Y-184772000D02*
X287476000Y-186309000D01*
X211438000Y-286268000D02*
X211446000Y-286277000D01*
X210058000Y-286268000D02*
X211438000Y-286268000D01*
X161267000Y-286479000D02*
X161254000Y-286491000D01*
%TO.N,Net-(U6-VBST)*%
X282786900Y-157035100D02*
X282786900Y-157596800D01*
X283121400Y-155702000D02*
X283121000Y-155702000D01*
D86*
X282787000Y-156473000D02*
X282787000Y-157035000D01*
X282778000Y-156464000D02*
X282787000Y-156473000D01*
X283121000Y-156121000D02*
X282778000Y-156464000D01*
X282787000Y-157035000D02*
X282787000Y-157597000D01*
X283121000Y-155702000D02*
X283121000Y-156121000D01*
D85*
X282787000Y-157035000D02*
X282786900Y-157035100D01*
D87*
%TO.N,/Power & Voltage Regulators/SW_VCC*%
X288290000Y-116840000D02*
X288290000Y-105410000D01*
D85*
X280619000Y-92202000D02*
X280822000Y-92405200D01*
X280111000Y-92202000D02*
X280111200Y-92202000D01*
X280111200Y-92202000D02*
X280619000Y-92202000D01*
D87*
X284480000Y-117752000D02*
X287378000Y-117752000D01*
X287378000Y-117752000D02*
X288290000Y-116840000D01*
X280111000Y-97231200D02*
X280111000Y-92202000D01*
X288290000Y-105410000D02*
X280111000Y-97231200D01*
D85*
%TO.N,/Teensy/SDA*%
X286675600Y-141962600D02*
X278102600Y-141962600D01*
X278102600Y-141962600D02*
X278079200Y-141986000D01*
%TO.N,/Teensy/SCL*%
X272751500Y-272890800D02*
X273657300Y-273796600D01*
X271937200Y-272890800D02*
X272751500Y-272890800D01*
X286675600Y-140962600D02*
X275191400Y-140962600D01*
%TO.N,/Teensy/A0*%
X286675600Y-132951600D02*
X268663800Y-132951600D01*
X268663800Y-132951600D02*
X268655800Y-132943600D01*
%TO.N,/Teensy/A1*%
X286675600Y-131951600D02*
X270089400Y-131951600D01*
D86*
%TO.N,Net-(U6-SW)*%
X281174000Y-158547000D02*
X281686000Y-158035000D01*
D88*
X277584000Y-158547000D02*
X280511700Y-158547000D01*
D86*
X280512000Y-158547000D02*
X281174000Y-158547000D01*
X281686000Y-155817000D02*
X281571200Y-155702200D01*
X281571200Y-155702200D02*
X281571000Y-155702000D01*
D85*
X277583800Y-158547000D02*
X277583600Y-158546800D01*
X281571400Y-155702000D02*
X281571200Y-155702200D01*
X280511700Y-158547000D02*
X280511900Y-158546800D01*
X277584000Y-158547000D02*
X277583800Y-158547000D01*
D86*
X281686000Y-158035000D02*
X281686000Y-155817000D01*
D88*
X280511700Y-158547000D02*
X280512000Y-158547000D01*
D85*
%TO.N,/Level Shifters/PAN5V.SCK_1*%
X215171000Y-256634000D02*
X218969900Y-252835100D01*
X149025500Y-259236100D02*
X154609600Y-264820200D01*
X241381900Y-222888061D02*
X241381900Y-223306400D01*
X142261800Y-259674000D02*
X142699700Y-259236100D01*
X204686700Y-262774900D02*
X210337400Y-257124200D01*
X284226000Y-186974100D02*
X270717900Y-200482200D01*
X168910000Y-266114900D02*
X168910000Y-266852800D01*
X270717900Y-200482200D02*
X267258800Y-200482200D01*
X214380094Y-257124200D02*
X214870294Y-256634000D01*
X91287600Y-189661800D02*
X90533300Y-188907500D01*
X267258800Y-200482200D02*
X259674000Y-208067000D01*
X106185100Y-231034900D02*
X109043539Y-231034900D01*
X259674000Y-213338200D02*
X249272000Y-213338200D01*
X170211800Y-268154600D02*
X186279400Y-268154600D01*
X186279400Y-268154600D02*
X187960000Y-266474000D01*
X227172500Y-250061400D02*
X227719900Y-249514000D01*
X109043539Y-231034900D02*
X124471039Y-246462400D01*
X225828300Y-250061400D02*
X227172500Y-250061400D01*
X90533300Y-188907500D02*
X90073500Y-188907500D01*
X284226000Y-184772000D02*
X284226000Y-186974100D01*
X187960000Y-266474000D02*
X189918400Y-264515600D01*
X154609600Y-264820200D02*
X167615300Y-264820200D01*
X227719900Y-249514000D02*
X230935800Y-249514000D01*
X106086000Y-230935800D02*
X106185100Y-231034900D01*
X167615300Y-264820200D02*
X168910000Y-266114900D01*
X218969900Y-252835100D02*
X223054600Y-252835100D01*
X244170200Y-218440000D02*
X244170200Y-220099761D01*
X91846400Y-189661800D02*
X91287600Y-189661800D01*
X210337400Y-257124200D02*
X214380094Y-257124200D01*
X124471039Y-246462400D02*
X129760700Y-246462400D01*
X194429300Y-262774900D02*
X204686700Y-262774900D01*
X168910000Y-266852800D02*
X170211800Y-268154600D01*
X259674000Y-208067000D02*
X259674000Y-213338200D01*
X192688600Y-264515600D02*
X194429300Y-262774900D01*
X142699700Y-259236100D02*
X149025500Y-259236100D01*
X223054600Y-252835100D02*
X225828300Y-250061400D01*
X189918400Y-264515600D02*
X192688600Y-264515600D01*
X90073500Y-188907500D02*
X89126000Y-187960000D01*
X214870294Y-256634000D02*
X215171000Y-256634000D01*
X249272000Y-213338200D02*
X244170200Y-218440000D01*
X244170200Y-220099761D02*
X241381900Y-222888061D01*
%TO.N,/Level Shifters/PAN5V.SCK_0*%
X279813000Y-182200800D02*
X285191700Y-182200800D01*
X109728000Y-139319000D02*
X109728000Y-139471400D01*
X173990000Y-89487900D02*
X173990000Y-88695400D01*
X266474000Y-167640000D02*
X266474000Y-168861800D01*
X235805500Y-124664200D02*
X249514000Y-124664200D01*
X266474000Y-168861800D02*
X266642200Y-169030000D01*
X165801900Y-90964100D02*
X139074600Y-90964100D01*
X286826000Y-183835100D02*
X286826000Y-184772000D01*
X167640000Y-88595200D02*
X167640000Y-89126000D01*
X167640000Y-89126000D02*
X165801900Y-90964100D01*
X109728000Y-139471400D02*
X106937600Y-142261800D01*
X267624000Y-170011800D02*
X279813000Y-182200800D01*
X285191700Y-182200800D02*
X286826000Y-183835100D01*
X215163400Y-107035600D02*
X218176900Y-107035600D01*
X173990000Y-88695400D02*
X172137200Y-86842600D01*
X213338200Y-95926000D02*
X180428100Y-95926000D01*
X172137200Y-86842600D02*
X169392600Y-86842600D01*
X266642200Y-169030000D02*
X266950346Y-169030000D01*
X106937600Y-142261800D02*
X95926000Y-142261800D01*
X139074600Y-90964100D02*
X124664200Y-105374500D01*
X266950346Y-169030000D02*
X267624000Y-169703654D01*
X215148300Y-107050700D02*
X215163400Y-107035600D01*
X218176900Y-107035600D02*
X235805500Y-124664200D01*
X267624000Y-169703654D02*
X267624000Y-170011800D01*
X124664200Y-105374500D02*
X124664200Y-106086000D01*
X169392600Y-86842600D02*
X167640000Y-88595200D01*
X180428100Y-95926000D02*
X173990000Y-89487900D01*
%TO.N,/Level Shifters/PAN5V.MOSI_0*%
X261797800Y-166293800D02*
X261797800Y-166624000D01*
X176342400Y-94427400D02*
X174142400Y-92227400D01*
X266474000Y-170180000D02*
X278996800Y-182702800D01*
X286176000Y-183921700D02*
X286176000Y-184772000D01*
X284957100Y-182702800D02*
X286176000Y-183921700D01*
X135696600Y-104816000D02*
X126863900Y-104816000D01*
X261797800Y-166624000D02*
X265353800Y-170180000D01*
X170180000Y-90754200D02*
X162407600Y-98526600D01*
X110490000Y-133400800D02*
X110064100Y-133826700D01*
X265353800Y-170180000D02*
X266474000Y-170180000D01*
X171653200Y-92227400D02*
X170180000Y-90754200D01*
X278996800Y-182702800D02*
X284957100Y-182702800D01*
X176342400Y-97196000D02*
X176342400Y-94427400D01*
X106812900Y-133826700D02*
X100577500Y-140062100D01*
X162407600Y-98526600D02*
X141986000Y-98526600D01*
X217647250Y-108412550D02*
X219623100Y-110388400D01*
X174142400Y-92227400D02*
X171653200Y-92227400D01*
X220472000Y-110388400D02*
X236947500Y-126863900D01*
X219623100Y-110388400D02*
X220472000Y-110388400D01*
X141986000Y-98526600D02*
X135696600Y-104816000D01*
X100577500Y-140062100D02*
X97196000Y-140062100D01*
X215537900Y-97196000D02*
X176342400Y-97196000D01*
X110064100Y-133826700D02*
X106812900Y-133826700D01*
X170180000Y-89126000D02*
X170180000Y-90754200D01*
X236947500Y-126863900D02*
X250784000Y-126863900D01*
%TO.N,/Level Shifters/PAN5V.MISO_0*%
X135691700Y-103546000D02*
X129063600Y-103546000D01*
X168841700Y-88561900D02*
X168841700Y-89580400D01*
X266474000Y-172720000D02*
X267258800Y-172720000D01*
X141783700Y-97454000D02*
X135691700Y-103546000D01*
X111340100Y-131749800D02*
X107670600Y-131749800D01*
X169849800Y-87553800D02*
X168841700Y-88561900D01*
X217737600Y-98466000D02*
X174345600Y-98466000D01*
X239877600Y-128854200D02*
X240087000Y-129063600D01*
X277743500Y-183204700D02*
X284727300Y-183204700D01*
X285526000Y-184003400D02*
X285526000Y-184772000D01*
X172720000Y-89126000D02*
X171147800Y-87553800D01*
X284727300Y-183204700D02*
X285526000Y-184003400D01*
X171147800Y-87553800D02*
X169849800Y-87553800D01*
X107670600Y-131749800D02*
X101558000Y-137862400D01*
X240087000Y-129063600D02*
X252054000Y-129063600D01*
X160968100Y-97454000D02*
X141783700Y-97454000D01*
X101558000Y-137862400D02*
X98466000Y-137862400D01*
X267258800Y-172720000D02*
X277743500Y-183204700D01*
X168841700Y-89580400D02*
X160968100Y-97454000D01*
%TO.N,/Level Shifters/PAN5V.CS_00*%
X205911300Y-251847500D02*
X212489900Y-251847500D01*
X184661000Y-258397200D02*
X188363400Y-258397200D01*
X154861800Y-254960500D02*
X157805500Y-254960500D01*
X159004000Y-256159000D02*
X163634988Y-256159000D01*
X202589700Y-255169100D02*
X205911300Y-251847500D01*
X189645800Y-257114800D02*
X193506600Y-257114800D01*
X143256800Y-251925200D02*
X146387500Y-251925200D01*
X138699500Y-247367900D02*
X143256800Y-251925200D01*
X188363400Y-258397200D02*
X189645800Y-257114800D01*
X269407400Y-217327500D02*
X282402300Y-217327500D01*
X126212600Y-242646200D02*
X129334094Y-242646200D01*
X255371600Y-240436400D02*
X259842000Y-235966000D01*
X262889900Y-217043100D02*
X269123000Y-217043100D01*
X147517500Y-253055200D02*
X152956500Y-253055200D01*
X212489900Y-251847500D02*
X216789000Y-247548400D01*
X183546300Y-257282500D02*
X184661000Y-258397200D01*
X102865415Y-220467415D02*
X105311400Y-222913400D01*
X216789000Y-247548400D02*
X220201400Y-247548400D01*
X232943400Y-240436400D02*
X255371600Y-240436400D01*
X152956500Y-253055200D02*
X154861800Y-254960500D01*
X224087600Y-243662200D02*
X229717600Y-243662200D01*
X220201400Y-247548400D02*
X224087600Y-243662200D01*
X290169600Y-225094800D02*
X290169600Y-232219000D01*
X106479800Y-222913400D02*
X126212600Y-242646200D01*
X262407400Y-217525600D02*
X262889900Y-217043100D01*
X146387500Y-251925200D02*
X147517500Y-253055200D01*
X269123000Y-217043100D02*
X269407400Y-217327500D01*
X229717600Y-243662200D02*
X232943400Y-240436400D01*
X129334094Y-242646200D02*
X130488894Y-243801000D01*
X102865415Y-220400985D02*
X102865415Y-220467415D01*
X201684300Y-255347300D02*
X201862500Y-255169100D01*
X130488894Y-243801000D02*
X131736200Y-243801000D01*
X163634988Y-256159000D02*
X164758488Y-257282500D01*
X282402300Y-217327500D02*
X290169600Y-225094800D01*
X157805500Y-254960500D02*
X159004000Y-256159000D01*
X105311400Y-222913400D02*
X106479800Y-222913400D01*
X193506600Y-257114800D02*
X195274100Y-255347300D01*
X135303100Y-247367900D02*
X138699500Y-247367900D01*
X164758488Y-257282500D02*
X183546300Y-257282500D01*
X131736200Y-243801000D02*
X135303100Y-247367900D01*
X195274100Y-255347300D02*
X201684300Y-255347300D01*
X290169600Y-232219000D02*
X287050200Y-235338400D01*
X201862500Y-255169100D02*
X202589700Y-255169100D01*
%TO.N,/Level Shifters/PAN5V.CS_01*%
X268401800Y-177848000D02*
X268353800Y-177800000D01*
X127520200Y-238924600D02*
X104012900Y-215417300D01*
X146594607Y-251425200D02*
X147617306Y-252447900D01*
X289136200Y-231487600D02*
X286372900Y-234250900D01*
X104012900Y-215417300D02*
X104012900Y-215131488D01*
X194937800Y-254845400D02*
X201476500Y-254845400D01*
X201654700Y-254667200D02*
X201872400Y-254667200D01*
X158075000Y-254458600D02*
X159183200Y-255566800D01*
X284649600Y-221296600D02*
X289136200Y-225783200D01*
X201476500Y-254845400D02*
X201654700Y-254667200D01*
X87959000Y-190995600D02*
X87959000Y-178967000D01*
X222777200Y-242417600D02*
X229311200Y-242417600D01*
X232985900Y-239301700D02*
X243230400Y-229057200D01*
X183957300Y-256779100D02*
X185073500Y-257895300D01*
X104012900Y-215131488D02*
X103448700Y-214567288D01*
X188027100Y-257895300D02*
X189307600Y-256614800D01*
X285750200Y-234611732D02*
X285750200Y-235338400D01*
X189307600Y-256614800D02*
X193168400Y-256614800D01*
X133565900Y-241795300D02*
X131319400Y-241795300D01*
X229311200Y-242417600D02*
X232427100Y-239301700D01*
X185073500Y-257895300D02*
X188027100Y-257895300D01*
X250138800Y-229931500D02*
X252490700Y-229931500D01*
X289136200Y-225783200D02*
X289136200Y-231487600D01*
X249264500Y-229057200D02*
X250138800Y-229931500D01*
X232427100Y-239301700D02*
X232985900Y-239301700D01*
X268353800Y-177800000D02*
X266474000Y-177800000D01*
X270866700Y-219708700D02*
X272454600Y-221296600D01*
X164962194Y-256779100D02*
X183957300Y-256779100D01*
X137693400Y-244703600D02*
X136474200Y-244703600D01*
X163749894Y-255566800D02*
X164962194Y-256779100D01*
X100091900Y-202576806D02*
X100091900Y-202316300D01*
X142696020Y-250445180D02*
X143676040Y-251425200D01*
X153058900Y-252447900D02*
X155069600Y-254458600D01*
X219203800Y-245991000D02*
X222777200Y-242417600D01*
X88733400Y-191770000D02*
X87959000Y-190995600D01*
X155069600Y-254458600D02*
X158075000Y-254458600D01*
X212217000Y-251180600D02*
X217406600Y-245991000D01*
X252490700Y-229931500D02*
X262713500Y-219708700D01*
X89545600Y-191770000D02*
X88733400Y-191770000D01*
X143676040Y-251425200D02*
X146594607Y-251425200D01*
X217406600Y-245991000D02*
X219203800Y-245991000D01*
X272454600Y-221296600D02*
X284649600Y-221296600D01*
X262713500Y-219708700D02*
X266839300Y-219708700D01*
X205359000Y-251180600D02*
X212217000Y-251180600D01*
X286111032Y-234250900D02*
X285750200Y-234611732D01*
X136474200Y-244703600D02*
X133565900Y-241795300D01*
X147617306Y-252447900D02*
X153058900Y-252447900D01*
X201872400Y-254667200D02*
X205359000Y-251180600D01*
X286372900Y-234250900D02*
X286111032Y-234250900D01*
X103448700Y-205933606D02*
X100091900Y-202576806D01*
X266839300Y-219708700D02*
X270866700Y-219708700D01*
X128448700Y-238924600D02*
X127520200Y-238924600D01*
X243230400Y-229057200D02*
X249264500Y-229057200D01*
X193168400Y-256614800D02*
X194937800Y-254845400D01*
X87959000Y-178967000D02*
X89126000Y-177800000D01*
X100091900Y-202316300D02*
X89545600Y-191770000D01*
X131319400Y-241795300D02*
X128448700Y-238924600D01*
X103448700Y-214567288D02*
X103448700Y-205933606D01*
X159183200Y-255566800D02*
X163749894Y-255566800D01*
%TO.N,/Level Shifters/PAN5V.CS_02*%
X282857400Y-232970200D02*
X283354000Y-233466800D01*
X246544800Y-236535000D02*
X246359300Y-236349500D01*
X244149300Y-237227200D02*
X237232800Y-237227200D01*
X148027720Y-251444100D02*
X153474500Y-251444100D01*
X263474200Y-232970200D02*
X255929000Y-232970200D01*
X141850500Y-249064400D02*
X145648020Y-249064400D01*
X252364200Y-236535000D02*
X246544800Y-236535000D01*
X283967400Y-233466800D02*
X285100200Y-234599600D01*
X103012900Y-216449300D02*
X126492000Y-239928400D01*
X285100200Y-234599600D02*
X285100200Y-235338400D01*
X130903800Y-242799100D02*
X132867900Y-242799100D01*
X246359300Y-236349500D02*
X245027000Y-236349500D01*
X211613500Y-250647200D02*
X216769700Y-245491000D01*
X165452900Y-255775300D02*
X191499000Y-255775300D01*
X164211000Y-254533400D02*
X165452900Y-255775300D01*
X201268700Y-254343500D02*
X204965000Y-250647200D01*
X153474500Y-251444100D02*
X155485200Y-253454800D01*
X218694000Y-245491000D02*
X222453200Y-241731800D01*
X128033100Y-239928400D02*
X130903800Y-242799100D01*
X263474200Y-232970200D02*
X282857400Y-232970200D01*
X103012900Y-215545700D02*
X103012900Y-216449300D01*
X138973500Y-246187400D02*
X141850500Y-249064400D01*
X136256200Y-246187400D02*
X138973500Y-246187400D01*
X91236800Y-196342000D02*
X92024200Y-197129400D01*
X145648020Y-249064400D02*
X148027720Y-251444100D01*
X132867900Y-242799100D02*
X136256200Y-246187400D01*
X158490600Y-253454800D02*
X159569200Y-254533400D01*
X92024200Y-204557000D02*
X103012900Y-215545700D01*
X191499000Y-255775300D02*
X192930800Y-254343500D01*
X192930800Y-254343500D02*
X201268700Y-254343500D01*
X204965000Y-250647200D02*
X211613500Y-250647200D01*
X159569200Y-254533400D02*
X164211000Y-254533400D01*
X245027000Y-236349500D02*
X244149300Y-237227200D01*
X216769700Y-245491000D02*
X218694000Y-245491000D01*
X155485200Y-253454800D02*
X158490600Y-253454800D01*
X126492000Y-239928400D02*
X128033100Y-239928400D01*
X229235000Y-241731800D02*
X233739600Y-237227200D01*
X92024200Y-197129400D02*
X92024200Y-204557000D01*
X255929000Y-232970200D02*
X252364200Y-236535000D01*
X233739600Y-237227200D02*
X233883200Y-237227200D01*
X283354000Y-233466800D02*
X283967400Y-233466800D01*
X222453200Y-241731800D02*
X229235000Y-241731800D01*
%TO.N,/Level Shifters/PAN5V.CS_03*%
X189458600Y-262940800D02*
X192844000Y-262940800D01*
X271754600Y-242417600D02*
X271780000Y-242392200D01*
X234950000Y-244144800D02*
X260731000Y-244144800D01*
X169577800Y-264218200D02*
X181765600Y-264218200D01*
X262458200Y-242417600D02*
X271754600Y-242417600D01*
X168960800Y-263601200D02*
X169577800Y-264218200D01*
X182223800Y-264676400D02*
X187723000Y-264676400D01*
X87966800Y-175767900D02*
X87966800Y-173879200D01*
X103950600Y-205728400D02*
X100593800Y-202371600D01*
X187723000Y-264676400D02*
X189458600Y-262940800D01*
X278360400Y-242392200D02*
X284450200Y-236302400D01*
X203989445Y-261771100D02*
X205213600Y-260546945D01*
X98219000Y-199733700D02*
X98219000Y-185180600D01*
X103950600Y-214354200D02*
X103950600Y-205728400D01*
X87966800Y-173879200D02*
X89126000Y-172720000D01*
X260731000Y-244144800D02*
X262458200Y-242417600D01*
X284450200Y-236302400D02*
X284450200Y-235338400D01*
X214316800Y-255634000D02*
X218346800Y-251604000D01*
X100593800Y-202371600D02*
X100593800Y-202108500D01*
X100593800Y-202108500D02*
X98219000Y-199733700D01*
X89686500Y-176648100D02*
X88847000Y-176648100D01*
X128019100Y-238422700D02*
X103950600Y-214354200D01*
X271780000Y-242392200D02*
X278360400Y-242392200D01*
X192844000Y-262940800D02*
X194013700Y-261771100D01*
X205213600Y-260444600D02*
X210024200Y-255634000D01*
X194013700Y-261771100D02*
X203989445Y-261771100D01*
X228064000Y-247700800D02*
X231394000Y-247700800D01*
X131650900Y-241023300D02*
X129050300Y-238422700D01*
X205213600Y-260546945D02*
X205213600Y-260444600D01*
X226707200Y-249057600D02*
X228064000Y-247700800D01*
X231394000Y-247700800D02*
X234950000Y-244144800D01*
X218346800Y-251604000D02*
X222487000Y-251604000D01*
X181765600Y-264218200D02*
X182223800Y-264676400D01*
X225033400Y-249057600D02*
X226707200Y-249057600D01*
X88847000Y-176648100D02*
X87966800Y-175767900D01*
X210024200Y-255634000D02*
X214316800Y-255634000D01*
X222487000Y-251604000D02*
X225033400Y-249057600D01*
X129050300Y-238422700D02*
X128019100Y-238422700D01*
X131650900Y-241119500D02*
X131650900Y-241023300D01*
X266474000Y-182880000D02*
X270822200Y-182880000D01*
X98219000Y-185180600D02*
X89686500Y-176648100D01*
%TO.N,/Level Shifters/PAN5V.CS_04*%
X192204800Y-260031500D02*
X192204800Y-259783200D01*
X200310393Y-259562600D02*
X200802393Y-259070600D01*
X266474000Y-185420000D02*
X273950900Y-185420000D01*
X205585800Y-257176800D02*
X209067400Y-253695200D01*
X217555300Y-249576100D02*
X221492300Y-249576100D01*
X152777600Y-257658900D02*
X154970794Y-257658900D01*
X105468000Y-229924800D02*
X105644200Y-229748600D01*
X108641400Y-229748600D02*
X124703300Y-245810500D01*
X283800200Y-236136100D02*
X283800200Y-235338400D01*
X274396200Y-240792000D02*
X274472400Y-240868200D01*
X274472400Y-240868200D02*
X274497800Y-240842800D01*
X154970794Y-257658900D02*
X157689294Y-260377400D01*
X213436200Y-253695200D02*
X217555300Y-249576100D01*
X225298000Y-245770400D02*
X229971600Y-245770400D01*
X191329600Y-260906700D02*
X192204800Y-260031500D01*
X192425400Y-259562600D02*
X200310393Y-259562600D01*
X99618800Y-228574600D02*
X100969000Y-229924800D01*
X203985600Y-257176800D02*
X205585800Y-257176800D01*
X279093500Y-240842800D02*
X283800200Y-236136100D01*
X146686200Y-255062800D02*
X150181500Y-255062800D01*
X260637400Y-242384200D02*
X262229600Y-240792000D01*
X182827100Y-260906700D02*
X191329600Y-260906700D01*
X137868300Y-249375500D02*
X142540800Y-254048000D01*
X233357800Y-242384200D02*
X260637400Y-242384200D01*
X142540800Y-254048000D02*
X145671400Y-254048000D01*
X192204800Y-259783200D02*
X192425400Y-259562600D01*
X133595700Y-249375500D02*
X137868300Y-249375500D01*
X150181500Y-255062800D02*
X152777600Y-257658900D01*
X157689294Y-260377400D02*
X165151365Y-260377400D01*
X145671400Y-254048000D02*
X146686200Y-255062800D01*
X124703300Y-245810500D02*
X130030700Y-245810500D01*
X274497800Y-240842800D02*
X279093500Y-240842800D01*
X200802393Y-259070600D02*
X202091800Y-259070600D01*
X165151365Y-260377400D02*
X165635965Y-259892800D01*
X229971600Y-245770400D02*
X233357800Y-242384200D01*
X262229600Y-240792000D02*
X274396200Y-240792000D01*
X181813200Y-259892800D02*
X182827100Y-260906700D01*
X209067400Y-253695200D02*
X213436200Y-253695200D01*
X105644200Y-229748600D02*
X108641400Y-229748600D01*
X221492300Y-249576100D02*
X225298000Y-245770400D01*
X202091800Y-259070600D02*
X203985600Y-257176800D01*
X100969000Y-229924800D02*
X105468000Y-229924800D01*
X130030700Y-245810500D02*
X133595700Y-249375500D01*
X165635965Y-259892800D02*
X181813200Y-259892800D01*
%TO.N,/Level Shifters/PAN5V.EXT_INT*%
X109015900Y-234086400D02*
X118065100Y-243135600D01*
X117054400Y-281116000D02*
X116242600Y-281116000D01*
X188468000Y-269773400D02*
X163319400Y-269773400D01*
X108204000Y-234086400D02*
X109015900Y-234086400D01*
X100769800Y-234327200D02*
X107963200Y-234327200D01*
X266474000Y-195580000D02*
X263657800Y-198396200D01*
X117246400Y-280924000D02*
X117054400Y-281116000D01*
X227613500Y-109982000D02*
X216988600Y-99357100D01*
X251857900Y-148860900D02*
X263484000Y-148860900D01*
X92116000Y-225673400D02*
X100769800Y-234327200D01*
X117678200Y-280924000D02*
X117246400Y-280924000D01*
X190030400Y-265289200D02*
X189348100Y-265971500D01*
X113889900Y-109905800D02*
X113889900Y-114071200D01*
X206442900Y-263780200D02*
X195453000Y-263780200D01*
X107963200Y-234327200D02*
X108204000Y-234086400D01*
X189348100Y-265971500D02*
X189348100Y-268893300D01*
X189348100Y-268893300D02*
X188468000Y-269773400D01*
X195453000Y-263780200D02*
X193944000Y-265289200D01*
X118065100Y-264693400D02*
X118096200Y-264724500D01*
X248869200Y-145211800D02*
X248869200Y-145872200D01*
X118096200Y-264724500D02*
X145113700Y-264724500D01*
X263657800Y-198396200D02*
X253984200Y-198396200D01*
X216988600Y-99357100D02*
X195580000Y-99357100D01*
X193944000Y-265289200D02*
X190030400Y-265289200D01*
X206739100Y-263484000D02*
X206442900Y-263780200D01*
X237448900Y-109982000D02*
X227613500Y-109982000D01*
X237534900Y-109896000D02*
X237448900Y-109982000D01*
X248869200Y-145872200D02*
X251857900Y-148860900D01*
X118065100Y-243135600D02*
X118065100Y-245704000D01*
X92116000Y-206739100D02*
X92116000Y-225673400D01*
X113889900Y-114071200D02*
X109896000Y-118065100D01*
X163319400Y-269773400D02*
X160020000Y-266474000D01*
D88*
%TO.N,GND*%
X143941000Y-276853000D02*
X144501000Y-277165000D01*
X280512000Y-156814000D02*
X280512000Y-157597000D01*
D85*
X248584000Y-249706000D02*
X249453000Y-251130000D01*
X281200000Y-236725000D02*
X281203000Y-236728000D01*
X248031000Y-248437000D02*
X248285000Y-249199000D01*
D88*
X75082400Y-198653000D02*
X75565000Y-199517000D01*
X157074000Y-75082400D02*
X156235000Y-75438000D01*
D85*
X107608000Y-247743000D02*
X107213000Y-248006000D01*
X287477000Y-174739000D02*
X287477000Y-173431000D01*
X209982000Y-281077000D02*
X209982000Y-281076000D01*
X286676000Y-143963000D02*
X287752000Y-143963000D01*
X81534000Y-203276000D02*
X80873600Y-203149000D01*
D88*
X78460600Y-144399000D02*
X78511400Y-145517000D01*
X144501000Y-277165000D02*
X145593000Y-277165000D01*
X98950500Y-246652000D02*
X99288600Y-247193000D01*
D85*
X282276000Y-186340000D02*
X282296000Y-186360000D01*
D88*
X247269000Y-256311000D02*
X247650000Y-255372000D01*
D85*
X116243000Y-280466000D02*
X116242600Y-280466000D01*
X125882000Y-285699000D02*
X127152000Y-285699000D01*
D88*
X277190000Y-211125000D02*
X276987000Y-210185000D01*
D85*
X80546200Y-150920000D02*
X79197200Y-150190000D01*
X107016000Y-105894000D02*
X107315000Y-106375000D01*
X115012000Y-280466000D02*
X115011000Y-280467000D01*
X107213000Y-248006000D02*
X106477000Y-248209000D01*
D88*
X99288600Y-247193000D02*
X100355000Y-247777000D01*
D85*
X152324000Y-81483200D02*
X152324000Y-82040200D01*
X158491000Y-286491000D02*
X158471000Y-286512000D01*
D88*
X95292100Y-243503000D02*
X95910400Y-244653000D01*
D85*
X174803000Y-286461000D02*
X174828000Y-286436000D01*
D88*
X211659000Y-78747300D02*
X210998000Y-78409800D01*
D85*
X282276000Y-184772000D02*
X282276000Y-186340000D01*
X105894000Y-248584000D02*
X104597000Y-249377000D01*
D88*
X78747300Y-143941000D02*
X78460600Y-144399000D01*
X157597000Y-75088100D02*
X157074000Y-75082400D01*
D85*
X211446000Y-281077000D02*
X209982000Y-281077000D01*
X162307000Y-281279000D02*
X162306000Y-281280000D01*
X81254600Y-151359000D02*
X80546200Y-150920000D01*
X286385000Y-225505000D02*
X286385000Y-224612000D01*
X112182000Y-285659000D02*
X111063000Y-285659000D01*
D86*
X279933000Y-156185000D02*
X279933000Y-156235000D01*
D85*
X287752000Y-143963000D02*
X288214000Y-144424000D01*
X286676000Y-134952000D02*
X287504000Y-134952000D01*
X203148000Y-275464000D02*
X203149000Y-277012000D01*
D86*
X247992000Y-107857000D02*
X249706000Y-107016000D01*
D85*
X150114000Y-276504000D02*
X150920000Y-275054000D01*
X206213000Y-286268000D02*
X206197000Y-286283000D01*
D88*
X246652000Y-256650000D02*
X247269000Y-256311000D01*
D85*
X116242600Y-280466000D02*
X115012000Y-280466000D01*
X247743000Y-247992000D02*
X248031000Y-248437000D01*
X159704000Y-286491000D02*
X158491000Y-286491000D01*
X273238000Y-111851000D02*
X274361000Y-111851000D01*
X274361000Y-111851000D02*
X274398000Y-111889000D01*
X106477000Y-248209000D02*
X105894000Y-248584000D01*
X152476000Y-78638400D02*
X152452000Y-80135800D01*
X274398000Y-111889000D02*
X276043000Y-111889000D01*
X207349000Y-286268000D02*
X206213000Y-286268000D01*
X203276000Y-273560000D02*
X203276000Y-274117000D01*
D88*
X108483000Y-99212400D02*
X107823000Y-100127000D01*
D85*
X106223000Y-104521000D02*
X107016000Y-105894000D01*
X203617000Y-82131500D02*
X204680000Y-80546200D01*
X287528000Y-190068000D02*
X287528000Y-189103000D01*
D88*
X275954000Y-216403000D02*
X276504000Y-215443000D01*
X279933000Y-156235000D02*
X280512000Y-156814000D01*
D85*
X287504000Y-134952000D02*
X288138000Y-135585000D01*
D88*
X216403000Y-79645700D02*
X215265000Y-78968600D01*
X193446000Y-282105000D02*
X194818000Y-282092000D01*
X198501000Y-280518000D02*
X199568000Y-279933000D01*
X112097000Y-95292100D02*
X110973000Y-95910400D01*
D86*
X249706000Y-107016000D02*
X250927000Y-106274000D01*
D85*
X203276000Y-274117000D02*
X203149000Y-274828000D01*
D86*
X274244000Y-152324000D02*
X274372000Y-152452000D01*
D85*
X286385000Y-239395000D02*
X286385000Y-240309000D01*
X81686400Y-151790000D02*
X81254600Y-151359000D01*
D88*
X256388000Y-108534000D02*
X255372000Y-108052000D01*
D85*
X203149000Y-274828000D02*
X203148000Y-275464000D01*
X281200000Y-235338000D02*
X281200000Y-236725000D01*
D86*
X276861000Y-152452000D02*
X276885000Y-152476000D01*
D88*
X276853000Y-211659000D02*
X277190000Y-211125000D01*
D85*
X107544000Y-107112000D02*
X107857000Y-107608000D01*
X204680000Y-80546200D02*
X205359000Y-79349600D01*
D88*
X243503000Y-260308000D02*
X244627000Y-259690000D01*
D85*
X163687500Y-281279000D02*
X162307000Y-281279000D01*
X276043000Y-111889000D02*
X277546000Y-111887000D01*
X111063000Y-285659000D02*
X111049000Y-285674000D01*
X273469000Y-203617000D02*
X275054000Y-204680000D01*
D88*
X73494600Y-193446000D02*
X73482200Y-194742000D01*
X75088100Y-198003000D02*
X75082400Y-198653000D01*
D85*
X163688000Y-281279000D02*
X163687500Y-281279000D01*
D88*
X162154000Y-73494600D02*
X160833000Y-73507600D01*
X198003000Y-280512000D02*
X198501000Y-280518000D01*
D85*
X82131500Y-151983000D02*
X81686400Y-151790000D01*
D88*
X210998000Y-78409800D02*
X210058000Y-78486000D01*
X260308000Y-112097000D02*
X259613000Y-110973000D01*
D85*
X82040200Y-203276000D02*
X81534000Y-203276000D01*
X152451000Y-80746600D02*
X152324000Y-81483200D01*
D88*
X139197000Y-275954000D02*
X140310000Y-276631000D01*
D86*
X274372000Y-152452000D02*
X276861000Y-152452000D01*
D88*
X282105000Y-162154000D02*
X282118000Y-160858000D01*
X79645700Y-139197000D02*
X79044800Y-140310000D01*
D85*
X150920000Y-275054000D02*
X151983000Y-273469000D01*
X173634000Y-286461000D02*
X174803000Y-286461000D01*
D86*
X273560000Y-152324000D02*
X274244000Y-152324000D01*
D85*
X107315000Y-106375000D02*
X107544000Y-107112000D01*
X248285000Y-249199000D02*
X248584000Y-249706000D01*
X80873600Y-203149000D02*
X80135800Y-203148000D01*
D88*
X256650000Y-108948000D02*
X256388000Y-108534000D01*
D85*
X275054000Y-204680000D02*
X276428000Y-205384000D01*
X221234000Y-286258000D02*
X222225000Y-286258000D01*
X152452000Y-80135800D02*
X152451000Y-80746600D01*
D88*
X108948000Y-98950500D02*
X108483000Y-99212400D01*
D85*
X80135800Y-203148000D02*
X78638400Y-203149000D01*
%TO.N,/Level Shifters/PAN5V.CS_05*%
X135017600Y-247869800D02*
X131448800Y-244301000D01*
X164864939Y-257835400D02*
X164322939Y-258377400D01*
X229971600Y-244221000D02*
X224459800Y-244221000D01*
X258749800Y-240868200D02*
X262206800Y-237411200D01*
X195089400Y-256370200D02*
X193844800Y-257614800D01*
X258749800Y-240868200D02*
X258699000Y-240868200D01*
X184172300Y-258899100D02*
X183108600Y-257835400D01*
X188725100Y-258899100D02*
X184172300Y-258899100D01*
X224459800Y-244221000D02*
X220573600Y-248107200D01*
X233019600Y-241173000D02*
X229971600Y-244221000D01*
X158657000Y-258377400D02*
X155740100Y-255460500D01*
X131448800Y-244301000D02*
X130281788Y-244301000D01*
X193844800Y-257614800D02*
X190009400Y-257614800D01*
X220573600Y-248107200D02*
X217220800Y-248107200D01*
X130281788Y-244301000D02*
X129287388Y-243306600D01*
X202976800Y-255671000D02*
X202070300Y-255671000D01*
X107064900Y-224336700D02*
X102276000Y-224336700D01*
X212978600Y-252349400D02*
X206298400Y-252349400D01*
X190009400Y-257614800D02*
X188725100Y-258899100D01*
X202070300Y-255671000D02*
X201371100Y-256370200D01*
X206298400Y-252349400D02*
X202976800Y-255671000D01*
X258394200Y-241173000D02*
X233019600Y-241173000D01*
X183108600Y-257835400D02*
X164864939Y-257835400D01*
X126034800Y-243306600D02*
X107064900Y-224336700D01*
X129287388Y-243306600D02*
X126034800Y-243306600D01*
X283150200Y-236075100D02*
X283150200Y-235338400D01*
X258699000Y-240868200D02*
X258394200Y-241173000D01*
X146177800Y-252425200D02*
X143047100Y-252425200D01*
X217220800Y-248107200D02*
X212978600Y-252349400D01*
X281814100Y-237411200D02*
X283150200Y-236075100D01*
X154654694Y-255460500D02*
X152751294Y-253557100D01*
X152751294Y-253557100D02*
X147309700Y-253557100D01*
X155740100Y-255460500D02*
X154654694Y-255460500D01*
X138491700Y-247869800D02*
X135017600Y-247869800D01*
X201371100Y-256370200D02*
X195089400Y-256370200D01*
X164322939Y-258377400D02*
X158657000Y-258377400D01*
X262206800Y-237411200D02*
X281814100Y-237411200D01*
X147309700Y-253557100D02*
X146177800Y-252425200D01*
X143047100Y-252425200D02*
X138491700Y-247869800D01*
%TO.N,/Level Shifters/PAN5V.CS_06*%
X125653800Y-243840000D02*
X107158500Y-225344700D01*
X282500200Y-235338400D02*
X282500200Y-234493200D01*
X152546088Y-254059000D02*
X147101900Y-254059000D01*
X219291500Y-246825100D02*
X223089400Y-243027200D01*
X142870800Y-252958600D02*
X138283900Y-248371700D01*
X183861400Y-259401000D02*
X182795800Y-258335400D01*
X195685694Y-256870200D02*
X194441094Y-258114800D01*
X266861800Y-133463000D02*
X273216900Y-139818100D01*
X138283900Y-248371700D02*
X134011300Y-248371700D01*
X281629100Y-233622100D02*
X274123600Y-233622100D01*
X232790700Y-239801700D02*
X251078700Y-239801700D01*
X165072045Y-258335400D02*
X164530045Y-258877400D01*
X257258300Y-233622100D02*
X274123600Y-233622100D01*
X130440600Y-244801000D02*
X130074682Y-244801000D01*
X129113682Y-243840000D02*
X125653800Y-243840000D01*
X101797000Y-225527100D02*
X101006000Y-224736100D01*
X155503500Y-255960500D02*
X154447588Y-255960500D01*
X229565200Y-243027200D02*
X232790700Y-239801700D01*
X158420400Y-258877400D02*
X155503500Y-255960500D01*
X223089400Y-243027200D02*
X229565200Y-243027200D01*
X102926300Y-225527100D02*
X101797000Y-225527100D01*
X134011300Y-248371700D02*
X130440600Y-244801000D01*
X101006000Y-224736100D02*
X101006000Y-222137000D01*
X164530045Y-258877400D02*
X158420400Y-258877400D01*
X202278100Y-256172900D02*
X201580800Y-256870200D01*
X130074682Y-244801000D02*
X129113682Y-243840000D01*
X154447588Y-255960500D02*
X152546088Y-254059000D01*
X201580800Y-256870200D02*
X195685694Y-256870200D01*
X188930306Y-259401000D02*
X183861400Y-259401000D01*
X251078700Y-239801700D02*
X257258300Y-233622100D01*
X254594000Y-133463000D02*
X266861800Y-133463000D01*
X194441094Y-258114800D02*
X190216506Y-258114800D01*
X107158500Y-225344700D02*
X103108700Y-225344700D01*
X203541700Y-256172900D02*
X202278100Y-256172900D01*
X190216506Y-258114800D02*
X188930306Y-259401000D01*
X146001500Y-252958600D02*
X142870800Y-252958600D01*
X103108700Y-225344700D02*
X102926300Y-225527100D01*
X282500200Y-234493200D02*
X281629100Y-233622100D01*
X206713300Y-253001300D02*
X203541700Y-256172900D01*
X182795800Y-258335400D02*
X165072045Y-258335400D01*
X147101900Y-254059000D02*
X146001500Y-252958600D01*
%TO.N,/Level Shifters/PAN5V.CS_08*%
X165462259Y-259359400D02*
X182143400Y-259359400D01*
X164944259Y-259877400D02*
X165462259Y-259359400D01*
X102320000Y-217737600D02*
X98466000Y-217737600D01*
X213200900Y-267786300D02*
X212988400Y-267786300D01*
X220472000Y-263525000D02*
X219016200Y-264980800D01*
X125755400Y-241173000D02*
X102320000Y-217737600D01*
X257134000Y-141180900D02*
X254572100Y-143742800D01*
X153456100Y-257007000D02*
X155026000Y-257007000D01*
X190909600Y-260404800D02*
X191552900Y-259761500D01*
X127050800Y-241173000D02*
X125755400Y-241173000D01*
X155026000Y-257007000D02*
X157896400Y-259877400D01*
X182143400Y-259359400D02*
X183188800Y-260404800D01*
X248081800Y-263575800D02*
X248031000Y-263525000D01*
X183188800Y-260404800D02*
X190909600Y-260404800D01*
X157896400Y-259877400D02*
X164944259Y-259877400D01*
X213890400Y-286926600D02*
X213892000Y-286925000D01*
X216006400Y-264980800D02*
X213200900Y-267786300D01*
X248031000Y-263525000D02*
X220472000Y-263525000D01*
X211446100Y-286926600D02*
X213890400Y-286926600D01*
X219016200Y-264980800D02*
X216006400Y-264980800D01*
X257134000Y-137862400D02*
X257134000Y-141180900D01*
%TO.N,/Level Shifters/PAN5V.CS_09*%
X153441400Y-252120700D02*
X153441400Y-252118106D01*
X210215100Y-285134300D02*
X208841500Y-285134300D01*
X145634714Y-249758200D02*
X141799500Y-249758200D01*
X132226800Y-243301000D02*
X130696000Y-243301000D01*
X163957000Y-255066800D02*
X159392900Y-255066800D01*
X224479000Y-261004200D02*
X223012700Y-262470500D01*
X210707400Y-285626600D02*
X210215100Y-285134300D01*
X147822513Y-251946000D02*
X145634714Y-249758200D01*
X211797600Y-267134400D02*
X210875000Y-268057000D01*
X127825300Y-240430300D02*
X125876300Y-240430300D01*
X135716300Y-246790500D02*
X132226800Y-243301000D01*
X253951500Y-145336800D02*
X258404000Y-140884300D01*
X158282800Y-253956700D02*
X155277400Y-253956700D01*
X250928600Y-145336800D02*
X253951500Y-145336800D01*
X211446100Y-285626600D02*
X210707400Y-285626600D01*
X138831800Y-246790500D02*
X135716300Y-246790500D01*
X159392900Y-255066800D02*
X158282800Y-253956700D01*
X153269294Y-251946000D02*
X147822513Y-251946000D01*
X130696000Y-243301000D02*
X127825300Y-240430300D01*
X258404000Y-140884300D02*
X258404000Y-140062100D01*
X165167400Y-256277200D02*
X163957000Y-255066800D01*
X125876300Y-240430300D02*
X100983900Y-215537900D01*
X187431430Y-257238684D02*
X186469946Y-256277200D01*
X217681100Y-262470500D02*
X213017200Y-267134400D01*
X223012700Y-262470500D02*
X217681100Y-262470500D01*
X153441400Y-252118106D02*
X153269294Y-251946000D01*
X186469946Y-256277200D02*
X165167400Y-256277200D01*
X100983900Y-215537900D02*
X97196000Y-215537900D01*
X213017200Y-267134400D02*
X211797600Y-267134400D01*
X210875000Y-268057000D02*
X207729600Y-268057000D01*
X155277400Y-253956700D02*
X153441400Y-252120700D01*
X250164600Y-146100800D02*
X250928600Y-145336800D01*
X141799500Y-249758200D02*
X138831800Y-246790500D01*
%TO.N,Net-(Q2-G)*%
X273238000Y-114526600D02*
X273238000Y-116067000D01*
X276043300Y-113714000D02*
X276043400Y-113713900D01*
X274361000Y-113751000D02*
X273238000Y-113751000D01*
X273238400Y-114526200D02*
X273238400Y-113751400D01*
X273238000Y-114526600D02*
X273238400Y-114526200D01*
X273238000Y-113751000D02*
X273238000Y-114526600D01*
X276043000Y-113714000D02*
X276043300Y-113714000D01*
X273202400Y-116103400D02*
X273202000Y-116103000D01*
X276043000Y-113714000D02*
X274398000Y-113714000D01*
X274398000Y-113714000D02*
X274361000Y-113751000D01*
X273238000Y-116067000D02*
X273202000Y-116103000D01*
%TO.N,/Level Shifters/PAN5V.CS_10*%
X165855697Y-263208600D02*
X155305405Y-263208600D01*
X142168100Y-257225800D02*
X140806300Y-255864000D01*
X217842200Y-272194000D02*
X218725500Y-271310700D01*
X211446100Y-284976600D02*
X212697900Y-284976600D01*
X140806300Y-255864000D02*
X135662700Y-255864000D01*
X177633600Y-263358600D02*
X177038000Y-262763000D01*
X155305405Y-263208600D02*
X149322606Y-257225800D01*
X242265200Y-130149600D02*
X242747100Y-130631500D01*
X149322606Y-257225800D02*
X142168100Y-257225800D01*
X242747100Y-130631500D02*
X247218900Y-130631500D01*
X177038000Y-262763000D02*
X166301297Y-262763000D01*
X247218900Y-130631500D02*
X247243600Y-130606800D01*
X212697900Y-272194000D02*
X217842200Y-272194000D01*
X185892200Y-263358600D02*
X177633600Y-263358600D01*
X166301297Y-262763000D02*
X165855697Y-263208600D01*
%TO.N,/Level Shifters/PAN5V.CS_11*%
X178038761Y-262708600D02*
X177500961Y-262170800D01*
X244830600Y-133719800D02*
X251333000Y-140222200D01*
X149419212Y-256615300D02*
X142267300Y-256615300D01*
X211495900Y-284276800D02*
X211446100Y-284326600D01*
X244484100Y-232968800D02*
X244484100Y-232959700D01*
X214833200Y-285648400D02*
X213461600Y-284276800D01*
X247370600Y-230073200D02*
X247424400Y-230073200D01*
X213461600Y-284276800D02*
X211495900Y-284276800D01*
X244830600Y-132410200D02*
X244830600Y-133719800D01*
X244484100Y-232959700D02*
X247370600Y-230073200D01*
X157191439Y-262377400D02*
X156860239Y-262708600D01*
X194869900Y-284835700D02*
X192372600Y-282338400D01*
X203261800Y-284835700D02*
X194869900Y-284835700D01*
X156860239Y-262708600D02*
X155512511Y-262708600D01*
X211446100Y-284326600D02*
X203770900Y-284326600D01*
X177500961Y-262170800D02*
X166186389Y-262170800D01*
X166186389Y-262170800D02*
X165979790Y-262377400D01*
X142267300Y-256615300D02*
X140246000Y-254594000D01*
X203770900Y-284326600D02*
X203261800Y-284835700D01*
X180898800Y-262708600D02*
X178038761Y-262708600D01*
X165979790Y-262377400D02*
X157191439Y-262377400D01*
X192372600Y-282338400D02*
X192372600Y-280732000D01*
X140246000Y-254594000D02*
X133463000Y-254594000D01*
X155512511Y-262708600D02*
X149419212Y-256615300D01*
X251333000Y-140222200D02*
X251333000Y-142092440D01*
%TO.N,/Level Shifters/PAN5V.CS_12*%
X242620800Y-227914200D02*
X240334800Y-230200200D01*
X155361400Y-259653800D02*
X157085000Y-261377400D01*
X191745200Y-261910500D02*
X192884600Y-260771100D01*
X192884600Y-260771100D02*
X203363100Y-260771100D01*
X230185080Y-238724320D02*
X230164520Y-238724320D01*
X238709200Y-230200200D02*
X230185080Y-238724320D01*
X139142900Y-252069600D02*
X135940055Y-252069600D01*
X142752913Y-255463400D02*
X142536700Y-255463400D01*
X135559055Y-251688600D02*
X132898700Y-251688600D01*
X214579200Y-283413200D02*
X214315800Y-283676600D01*
X165565577Y-261377400D02*
X165932577Y-261010400D01*
X154083700Y-259653800D02*
X155361400Y-259653800D01*
X249529600Y-227914200D02*
X242620800Y-227914200D01*
X132898700Y-251688600D02*
X131263300Y-253324000D01*
X157085000Y-261377400D02*
X165565577Y-261377400D01*
X142536700Y-255463400D02*
X139142900Y-252069600D01*
X182179900Y-261910500D02*
X191745200Y-261910500D01*
X240334800Y-230200200D02*
X238709200Y-230200200D01*
X135940055Y-252069600D02*
X135559055Y-251688600D01*
X181279800Y-261010400D02*
X182179900Y-261910500D01*
X214315800Y-283676600D02*
X211446100Y-283676600D01*
X153365200Y-258935300D02*
X154083700Y-259653800D01*
X203363100Y-260771100D02*
X204063600Y-260070600D01*
X250266200Y-227177600D02*
X249529600Y-227914200D01*
X165932577Y-261010400D02*
X181279800Y-261010400D01*
%TO.N,/Level Shifters/PAN5V.CS_13*%
X152900500Y-276987000D02*
X152806400Y-276987000D01*
X180466100Y-272719800D02*
X157167700Y-272719800D01*
X249325700Y-143002000D02*
X247306750Y-140983050D01*
X202813400Y-283026600D02*
X211446100Y-283026600D01*
X157167700Y-272719800D02*
X152900500Y-276987000D01*
X221243500Y-279673500D02*
X216465600Y-279673500D01*
X250748800Y-143002000D02*
X249325700Y-143002000D01*
X221834200Y-279082800D02*
X221243500Y-279673500D01*
X213112500Y-283026600D02*
X211446100Y-283026600D01*
X216465600Y-279673500D02*
X213112500Y-283026600D01*
X202323700Y-282536900D02*
X202813400Y-283026600D01*
%TO.N,/Level Shifters/PAN5V.CS_14*%
X134176500Y-263837400D02*
X132157600Y-261818500D01*
X250919000Y-220759000D02*
X249097800Y-222580200D01*
X244551200Y-222580200D02*
X243789200Y-223342200D01*
X216991900Y-278053800D02*
X216991900Y-278440094D01*
X145482000Y-261739900D02*
X145482000Y-262442000D01*
X174514100Y-271084900D02*
X158562900Y-271084900D01*
X252087400Y-220759000D02*
X250919000Y-220759000D01*
X216991900Y-278440094D02*
X213055394Y-282376600D01*
X203504800Y-282016200D02*
X203865200Y-282376600D01*
X146215400Y-261006500D02*
X145482000Y-261739900D01*
X145482000Y-262442000D02*
X144086600Y-263837400D01*
X148484500Y-261006500D02*
X146215400Y-261006500D01*
X174523400Y-271094200D02*
X174514100Y-271084900D01*
X144086600Y-263837400D02*
X134176500Y-263837400D01*
X158562900Y-271084900D02*
X148484500Y-261006500D01*
X213055394Y-282376600D02*
X211446100Y-282376600D01*
X203865200Y-282376600D02*
X211446100Y-282376600D01*
X249097800Y-222580200D02*
X244551200Y-222580200D01*
%TO.N,/Level Shifters/PAN5V.CS_15*%
X187123670Y-275158200D02*
X187149070Y-275183600D01*
X180416200Y-94183200D02*
X180317200Y-94183200D01*
X214588500Y-100593900D02*
X194446900Y-100593900D01*
X203108300Y-280644600D02*
X204201500Y-281737800D01*
X201828400Y-270560800D02*
X201896900Y-270629300D01*
X187149070Y-275183600D02*
X191893500Y-275183600D01*
X201896900Y-270629300D02*
X214064800Y-270629300D01*
X180317200Y-94183200D02*
X175260000Y-89126000D01*
X191893500Y-275183600D02*
X193512500Y-273564600D01*
X199161500Y-273564600D02*
X199258500Y-273661600D01*
X238702800Y-112553900D02*
X226548500Y-112553900D01*
X194446900Y-100593900D02*
X193641100Y-99788100D01*
X204201500Y-281737800D02*
X211434900Y-281737800D01*
X217021900Y-267672200D02*
X235374800Y-267672200D01*
X235374800Y-267672200D02*
X235712000Y-267335000D01*
X226548500Y-112553900D02*
X214588500Y-100593900D01*
X211434900Y-281737800D02*
X211446100Y-281726600D01*
X193512500Y-273564600D02*
X199161500Y-273564600D01*
X202946000Y-280644600D02*
X203108300Y-280644600D01*
X193641100Y-99788100D02*
X182865800Y-99788100D01*
X214064800Y-270629300D02*
X217021900Y-267672200D01*
%TO.N,/Level Shifters/PAN5V.CS_16*%
X127271100Y-110186500D02*
X134542500Y-110186500D01*
X142060200Y-248564400D02*
X139138600Y-245642800D01*
X134542500Y-110186500D02*
X142792400Y-101936600D01*
X165100000Y-287223200D02*
X165005800Y-287129000D01*
X147882870Y-250422670D02*
X146024600Y-248564400D01*
X146024600Y-248564400D02*
X142060200Y-248564400D01*
X136473600Y-245642800D02*
X133128000Y-242297200D01*
X169089700Y-85547200D02*
X174221200Y-85547200D01*
X103512900Y-215338594D02*
X102768400Y-214594094D01*
X102768400Y-206707500D02*
X102796700Y-206679200D01*
X123510300Y-113947400D02*
X127271100Y-110186600D01*
X103512900Y-216009500D02*
X103512900Y-215338594D01*
X166471600Y-87655400D02*
X166981500Y-87655400D01*
X166981500Y-87655400D02*
X169089700Y-85547200D01*
X133128000Y-242297200D02*
X131111600Y-242297200D01*
X127271100Y-110186600D02*
X127271100Y-110186500D01*
X165005800Y-287129000D02*
X163687500Y-287129000D01*
X166090600Y-287223200D02*
X165100000Y-287223200D01*
X139138600Y-245642800D02*
X136473600Y-245642800D01*
X147925530Y-250422670D02*
X147882870Y-250422670D01*
X174221200Y-85547200D02*
X177800000Y-89126000D01*
X131111600Y-242297200D02*
X128240900Y-239426500D01*
X128240900Y-239426500D02*
X126929900Y-239426500D01*
X142792400Y-101936600D02*
X157002300Y-101936600D01*
X102768400Y-214594094D02*
X102768400Y-206707500D01*
X126929900Y-239426500D02*
X103512900Y-216009500D01*
%TO.N,/Level Shifters/PAN5V.CS_17*%
X167741600Y-99898200D02*
X172999400Y-94640400D01*
X124695600Y-108298600D02*
X133534800Y-108298600D01*
X141935200Y-99898200D02*
X167741600Y-99898200D01*
X172999400Y-94640400D02*
X174828200Y-94640400D01*
X133534800Y-108298600D02*
X141935200Y-99898200D01*
X112014000Y-133208800D02*
X112014000Y-120980200D01*
X163687500Y-285829000D02*
X165127800Y-285829000D01*
X110744200Y-134478600D02*
X112014000Y-133208800D01*
X107253200Y-134478600D02*
X110744200Y-134478600D01*
X105054400Y-136677400D02*
X107253200Y-134478600D01*
X112014000Y-120980200D02*
X124695600Y-108298600D01*
X105054400Y-139065000D02*
X105054400Y-136677400D01*
%TO.N,/Level Shifters/PAN5V.CS_18*%
X104452500Y-213951900D02*
X104452500Y-205489606D01*
X163687500Y-285179000D02*
X162919300Y-285179000D01*
X168618400Y-100914200D02*
X173495200Y-96037400D01*
X113639600Y-223139000D02*
X104452500Y-213951900D01*
X134035800Y-109347000D02*
X142468600Y-100914200D01*
X173495200Y-96037400D02*
X174167800Y-96037400D01*
X112807700Y-121761300D02*
X125222000Y-109347000D01*
X162919300Y-285179000D02*
X162444900Y-284704600D01*
X112807700Y-126313600D02*
X112807700Y-121761300D01*
X142468600Y-100914200D02*
X168618400Y-100914200D01*
X114025900Y-223139000D02*
X113639600Y-223139000D01*
X125222000Y-109347000D02*
X134035800Y-109347000D01*
X101229500Y-195460200D02*
X99844300Y-194075000D01*
X99844300Y-194075000D02*
X99844300Y-161533200D01*
X104452500Y-205489606D02*
X101229500Y-202266606D01*
X99844300Y-161533200D02*
X101191000Y-160186500D01*
X101229500Y-202266606D02*
X101229500Y-195460200D01*
%TO.N,/Level Shifters/PAN5V.CS_19*%
X105029000Y-205359000D02*
X102283200Y-202613200D01*
X164918227Y-284070869D02*
X164460096Y-284529000D01*
X113375900Y-221452900D02*
X105029000Y-213106000D01*
X123746200Y-115115100D02*
X131264900Y-115115100D01*
X143638200Y-102741800D02*
X148905700Y-102741800D01*
X131264900Y-115115100D02*
X143638200Y-102741800D01*
X105029000Y-213106000D02*
X105029000Y-205359000D01*
X164460096Y-284529000D02*
X163687500Y-284529000D01*
X102283200Y-202613200D02*
X102283200Y-200963800D01*
X113375900Y-221640400D02*
X113375900Y-221452900D01*
X102283200Y-200963800D02*
X102283100Y-200963800D01*
%TO.N,/Level Shifters/PAN5V.CS_20*%
X178297600Y-261670800D02*
X165979283Y-261670800D01*
X156578000Y-262071600D02*
X155582618Y-262071600D01*
X156591000Y-262058600D02*
X156578000Y-262071600D01*
X156772200Y-261877400D02*
X156591000Y-262058600D01*
X178308000Y-261660400D02*
X178297600Y-261670800D01*
X165772683Y-261877400D02*
X156772200Y-261877400D01*
X132954340Y-252552200D02*
X132948597Y-252557943D01*
X138931300Y-252569600D02*
X135732948Y-252569600D01*
X142475100Y-256113400D02*
X138931300Y-252569600D01*
X155582618Y-262071600D02*
X149624418Y-256113400D01*
X135732948Y-252569600D02*
X135715548Y-252552200D01*
X135715548Y-252552200D02*
X132954340Y-252552200D01*
X165979283Y-261670800D02*
X165772683Y-261877400D01*
X162437000Y-283879000D02*
X162435400Y-283880600D01*
X163687500Y-283879000D02*
X162437000Y-283879000D01*
X149624418Y-256113400D02*
X142475100Y-256113400D01*
%TO.N,/Level Shifters/PAN5V.CS_21*%
X222137000Y-256497500D02*
X222137000Y-254594000D01*
X113255100Y-134039300D02*
X113255100Y-133457000D01*
X188923900Y-278862900D02*
X168943800Y-278862900D01*
X201930000Y-267240300D02*
X202888100Y-266282200D01*
X212393300Y-265627200D02*
X217557600Y-260462900D01*
X193517100Y-274269700D02*
X188923900Y-278862900D01*
X202888100Y-266282200D02*
X209811100Y-266282200D01*
X159831100Y-280492200D02*
X159831100Y-278700600D01*
X210466100Y-265627200D02*
X212393300Y-265627200D01*
X209811100Y-266282200D02*
X210466100Y-265627200D01*
X164577700Y-283229000D02*
X163687500Y-283229000D01*
X162567500Y-283228600D02*
X159831100Y-280492200D01*
X105994200Y-138988800D02*
X108305600Y-138988800D01*
X218171600Y-260462900D02*
X222137000Y-256497500D01*
X163687500Y-283229000D02*
X163687100Y-283228600D01*
X198330500Y-274269700D02*
X193517100Y-274269700D01*
X217557600Y-260462900D02*
X218171600Y-260462900D01*
X168943800Y-278862900D02*
X164577700Y-283229000D01*
X163687100Y-283228600D02*
X162567500Y-283228600D01*
X108305600Y-138988800D02*
X113255100Y-134039300D01*
%TO.N,/Level Shifters/PAN5V.CS_22*%
X168694400Y-278361000D02*
X164476400Y-282579000D01*
X217756000Y-259459100D02*
X217142000Y-259459100D01*
X194231200Y-270690400D02*
X190830200Y-274091400D01*
X182290500Y-278361000D02*
X168694400Y-278361000D01*
X219937300Y-257277800D02*
X217756000Y-259459100D01*
X163687500Y-282579000D02*
X162634300Y-282579000D01*
X194231200Y-265711700D02*
X194231200Y-270690400D01*
X210550800Y-264123000D02*
X209506500Y-265167300D01*
X194775600Y-265167300D02*
X194231200Y-265711700D01*
X186560100Y-274091400D02*
X182290500Y-278361000D01*
X190830200Y-274091400D02*
X186560100Y-274091400D01*
X135351900Y-257459000D02*
X133808200Y-257459000D01*
X217142000Y-259459100D02*
X212478100Y-264123000D01*
X160917000Y-280861700D02*
X160917000Y-279827400D01*
X164476400Y-282579000D02*
X163687500Y-282579000D01*
X209506500Y-265167300D02*
X194775600Y-265167300D01*
X162634300Y-282579000D02*
X160917000Y-280861700D01*
X219937300Y-255864000D02*
X219937300Y-257277800D01*
X212478100Y-264123000D02*
X210550800Y-264123000D01*
%TO.N,/Level Shifters/PAN5V.CS_23*%
X191770000Y-272084800D02*
X190423800Y-273431000D01*
X186200000Y-273431000D02*
X182425000Y-277206000D01*
X112605100Y-132877000D02*
X115219100Y-130263000D01*
X182425000Y-277206000D02*
X165911200Y-277206000D01*
X210649700Y-257810000D02*
X214401400Y-257810000D01*
X193675000Y-264617200D02*
X195013900Y-263278300D01*
X164414600Y-281929000D02*
X163687500Y-281929000D01*
X190423800Y-273431000D02*
X186200000Y-273431000D01*
X164800600Y-281543000D02*
X164414600Y-281929000D01*
X164645000Y-278316600D02*
X163268000Y-276939600D01*
X164800600Y-278316600D02*
X164800600Y-281543000D01*
X214401400Y-257810000D02*
X215077400Y-257134000D01*
X107654700Y-138338800D02*
X107711000Y-138338800D01*
X195013900Y-263278300D02*
X205181400Y-263278300D01*
X165911200Y-277206000D02*
X164800600Y-278316600D01*
X112605100Y-133444700D02*
X112605100Y-132877000D01*
X107711000Y-138338800D02*
X112605100Y-133444700D01*
X164800600Y-278316600D02*
X164645000Y-278316600D01*
X191770000Y-269544800D02*
X191770000Y-272084800D01*
X215077400Y-257134000D02*
X217737600Y-257134000D01*
X205181400Y-263278300D02*
X210649700Y-257810000D01*
%TO.N,/Level Shifters/PAN5V.CS_24*%
X117294700Y-286316000D02*
X116242600Y-286316000D01*
X135501400Y-279120600D02*
X121181300Y-279120600D01*
X154182400Y-283111400D02*
X139492200Y-283111400D01*
X89992200Y-265582100D02*
X110906000Y-286495900D01*
X179070000Y-274800300D02*
X162493500Y-274800300D01*
X162493500Y-274800300D02*
X154182400Y-283111400D01*
X121181300Y-279120600D02*
X120283300Y-280018600D01*
X139492200Y-283111400D02*
X135501400Y-279120600D01*
X120283300Y-280018600D02*
X120283300Y-283327400D01*
X120283300Y-283327400D02*
X117294700Y-286316000D01*
X110906000Y-286495900D02*
X116062700Y-286495900D01*
X116062700Y-286495900D02*
X116242600Y-286316000D01*
X89992200Y-265506200D02*
X89992200Y-265582100D01*
%TO.N,/Level Shifters/PAN5V.CS_25*%
X117395600Y-285016000D02*
X116242600Y-285016000D01*
X146304000Y-264947400D02*
X146039300Y-264947400D01*
X254356900Y-219937300D02*
X255864000Y-219937300D01*
X249910600Y-224383600D02*
X254356900Y-219937300D01*
X142375000Y-268611700D02*
X116424600Y-268611700D01*
X227533200Y-239273280D02*
X227619626Y-239273280D01*
X118095000Y-284316600D02*
X117395600Y-285016000D01*
X116763800Y-268611700D02*
X116424600Y-268611700D01*
X159054800Y-257727400D02*
X164053700Y-257727400D01*
X116789200Y-268637100D02*
X116763800Y-268611700D01*
X109770250Y-262847750D02*
X115534200Y-268611700D01*
X115534200Y-268611700D02*
X116424600Y-268611700D01*
X242509306Y-224383600D02*
X249910600Y-224383600D01*
X146039300Y-264947400D02*
X142375000Y-268611700D01*
X227619626Y-239273280D02*
X242509306Y-224383600D01*
%TO.N,/Level Shifters/PAN5V.CS_26*%
X141785472Y-260824000D02*
X141692472Y-260731000D01*
X218747000Y-256408500D02*
X218747000Y-255241000D01*
X142927000Y-260824000D02*
X141785472Y-260824000D01*
X242773200Y-225196400D02*
X250142000Y-225196400D01*
X218909100Y-257596300D02*
X218909100Y-256570600D01*
X161408100Y-266161700D02*
X160568500Y-265322100D01*
X187731400Y-269062200D02*
X187706000Y-269036800D01*
X197898000Y-264665400D02*
X209298700Y-264665400D01*
X212270300Y-263621100D02*
X216934200Y-258957200D01*
X114236800Y-284366000D02*
X116242600Y-284366000D01*
X163393200Y-269036800D02*
X161408100Y-267051700D01*
X227101400Y-240868200D02*
X242773200Y-225196400D01*
X160568500Y-265322100D02*
X154324100Y-265322100D01*
X141692472Y-260731000D02*
X112471200Y-260731000D01*
X210343000Y-263621100D02*
X212270300Y-263621100D01*
X218909100Y-256570600D02*
X218747000Y-256408500D01*
X218747000Y-255241000D02*
X220415500Y-253572500D01*
X250142000Y-225196400D02*
X253201400Y-222137000D01*
X114134900Y-284264100D02*
X114236800Y-284366000D01*
X253201400Y-222137000D02*
X254594000Y-222137000D01*
X216934200Y-258957200D02*
X217548200Y-258957200D01*
X226390200Y-240868200D02*
X227101400Y-240868200D01*
X154324100Y-265322100D02*
X148793200Y-259791200D01*
X209298700Y-264665400D02*
X210343000Y-263621100D01*
X143959800Y-259791200D02*
X142927000Y-260824000D01*
X161408100Y-267051700D02*
X161408100Y-266161700D01*
X217548200Y-258957200D02*
X218909100Y-257596300D01*
X197662800Y-264430200D02*
X197898000Y-264665400D01*
X148793200Y-259791200D02*
X143959800Y-259791200D01*
X187706000Y-269036800D02*
X163393200Y-269036800D01*
%TO.N,/Level Shifters/PAN5V.CS_27*%
X198856600Y-268097000D02*
X204876400Y-268097000D01*
X218635000Y-261968600D02*
X222706600Y-257897000D01*
X222706600Y-257897000D02*
X239993800Y-257897000D01*
X118846600Y-281869200D02*
X118846600Y-280111200D01*
X118360200Y-279577800D02*
X118821200Y-280038800D01*
X115011200Y-279577800D02*
X118360200Y-279577800D01*
X187144300Y-271602200D02*
X184965600Y-273780900D01*
X153782900Y-282605600D02*
X141088000Y-282605600D01*
X136942600Y-278460200D02*
X120497600Y-278460200D01*
X120497600Y-278460200D02*
X118919000Y-280038800D01*
X184965600Y-273780900D02*
X162607600Y-273780900D01*
X204876400Y-268097000D02*
X205684600Y-267288800D01*
X217473300Y-261968600D02*
X218635000Y-261968600D01*
X239993800Y-257897000D02*
X240690400Y-257200400D01*
X141088000Y-282605600D02*
X136942600Y-278460200D01*
X210933500Y-267288800D02*
X211589800Y-266632500D01*
X162607600Y-273780900D02*
X153782900Y-282605600D01*
X116999800Y-283716000D02*
X118846600Y-281869200D01*
X188798200Y-271602200D02*
X187144300Y-271602200D01*
X205684600Y-267288800D02*
X210933500Y-267288800D01*
X116242600Y-283716000D02*
X116999800Y-283716000D01*
X212809400Y-266632500D02*
X217473300Y-261968600D01*
X211589800Y-266632500D02*
X212809400Y-266632500D01*
X118846600Y-280111200D02*
X118774200Y-280038800D01*
%TO.N,/Level Shifters/PAN5V.CS_28*%
X152629500Y-258222200D02*
X149972000Y-255564700D01*
X182567000Y-261408600D02*
X181635400Y-260477000D01*
X233070400Y-243713000D02*
X230124000Y-246659400D01*
X251679200Y-226161600D02*
X252054000Y-226536400D01*
X218272600Y-250078000D02*
X213995000Y-254355600D01*
X157296200Y-260877400D02*
X154641000Y-258222200D01*
X191537400Y-261408600D02*
X182567000Y-261408600D01*
X203555600Y-258521200D02*
X201879200Y-260197600D01*
X181635400Y-260477000D02*
X165758871Y-260477000D01*
X165358471Y-260877400D02*
X157296200Y-260877400D01*
X145108000Y-254548000D02*
X142331100Y-254548000D01*
X209296000Y-254355600D02*
X205130400Y-258521200D01*
X242872200Y-226161600D02*
X251679200Y-226161600D01*
X149972000Y-255564700D02*
X146124700Y-255564700D01*
X142331100Y-254548000D02*
X137844900Y-250061800D01*
X233070400Y-243662200D02*
X233070400Y-243713000D01*
X225374200Y-246659400D02*
X221955600Y-250078000D01*
X165758871Y-260477000D02*
X165358471Y-260877400D01*
X129404843Y-250061800D02*
X127207043Y-247864000D01*
X221955600Y-250078000D02*
X218272600Y-250078000D01*
X116242600Y-283066000D02*
X112749500Y-283066000D01*
X213995000Y-254355600D02*
X209296000Y-254355600D01*
X137844900Y-250061800D02*
X129404843Y-250061800D01*
X201879200Y-260197600D02*
X192748400Y-260197600D01*
X124750200Y-247864000D02*
X109220000Y-232333800D01*
X192748400Y-260197600D02*
X191537400Y-261408600D01*
X205130400Y-258521200D02*
X203555600Y-258521200D01*
X240729100Y-228304700D02*
X242872200Y-226161600D01*
X127207043Y-247864000D02*
X124750200Y-247864000D01*
X230124000Y-246659400D02*
X225374200Y-246659400D01*
X109220000Y-232333800D02*
X109169200Y-232333800D01*
X154641000Y-258222200D02*
X152629500Y-258222200D01*
X146124700Y-255564700D02*
X145108000Y-254548000D01*
%TO.N,/Level Shifters/PAN5V.CS_29*%
X156157900Y-271830800D02*
X145912100Y-282076600D01*
X114966300Y-277870100D02*
X113919000Y-278917400D01*
X115447500Y-282416000D02*
X116242600Y-282416000D01*
X240517200Y-252731800D02*
X236103900Y-257145100D01*
X211027500Y-266129100D02*
X210371200Y-266785400D01*
X186232800Y-271526000D02*
X185928000Y-271830800D01*
X115316000Y-277870100D02*
X114966300Y-277870100D01*
X113919000Y-280887500D02*
X115447500Y-282416000D01*
X217515600Y-261216600D02*
X212603100Y-266129100D01*
X218223300Y-261216600D02*
X217515600Y-261216600D01*
X138021900Y-277870100D02*
X115316000Y-277870100D01*
X113919000Y-278917400D02*
X113919000Y-280887500D01*
X185928000Y-271830800D02*
X156157900Y-271830800D01*
X204848000Y-266785400D02*
X204528800Y-267104600D01*
X145912100Y-282076600D02*
X142228400Y-282076600D01*
X222294800Y-257145100D02*
X218223300Y-261216600D01*
X236103900Y-257145100D02*
X222294800Y-257145100D01*
X142228400Y-282076600D02*
X138021900Y-277870100D01*
X212603100Y-266129100D02*
X211027500Y-266129100D01*
X210371200Y-266785400D02*
X204848000Y-266785400D01*
%TO.N,/Level Shifters/PAN5V.MOSI_1*%
X220985100Y-254055100D02*
X221613400Y-253426800D01*
X220985100Y-255156600D02*
X220985100Y-254055100D01*
X225488600Y-252846900D02*
X225368800Y-252727100D01*
X248012100Y-215537900D02*
X258404000Y-215537900D01*
X283576000Y-186860300D02*
X283576000Y-184772000D01*
X261315200Y-202361800D02*
X264109200Y-199567800D01*
X181491900Y-265996800D02*
X181491900Y-266749000D01*
X128659300Y-259816600D02*
X138649500Y-259816600D01*
X222810500Y-253426800D02*
X223859600Y-254475900D01*
X168015900Y-264318300D02*
X168970700Y-265273100D01*
X221147500Y-256777300D02*
X221147500Y-255319000D01*
X154920500Y-264318300D02*
X168015900Y-264318300D01*
X138649500Y-259816600D02*
X139942100Y-258524000D01*
X225368800Y-252727100D02*
X225368800Y-251575800D01*
X221147500Y-255319000D02*
X220985100Y-255156600D01*
X181491900Y-266749000D02*
X182383700Y-267640800D01*
X225368800Y-251575800D02*
X226160600Y-250784000D01*
X212685900Y-264624900D02*
X217349800Y-259961000D01*
X209604700Y-265778800D02*
X210758600Y-264624900D01*
X182383700Y-267640800D02*
X184253200Y-267640800D01*
X168970700Y-265273100D02*
X180768200Y-265273100D01*
X210758600Y-264624900D02*
X212685900Y-264624900D01*
X244873780Y-218676220D02*
X248012100Y-215537900D01*
X200088900Y-265778800D02*
X209604700Y-265778800D01*
X142738164Y-258524000D02*
X142760764Y-258546600D01*
X149148800Y-258546600D02*
X154920500Y-264318300D01*
X225488600Y-253801200D02*
X225488600Y-252846900D01*
X184253200Y-267640800D02*
X185420000Y-266474000D01*
X224813900Y-254475900D02*
X225488600Y-253801200D01*
X180768200Y-265273100D02*
X181491900Y-265996800D01*
X264109200Y-199567800D02*
X270868500Y-199567800D01*
X270868500Y-199567800D02*
X283576000Y-186860300D01*
X109236400Y-240393700D02*
X128659300Y-259816600D01*
X244853220Y-218676220D02*
X244873780Y-218676220D01*
X223859600Y-254475900D02*
X224813900Y-254475900D01*
X142760764Y-258546600D02*
X149148800Y-258546600D01*
X226160600Y-250784000D02*
X228736100Y-250784000D01*
X221613400Y-253426800D02*
X222810500Y-253426800D01*
X217349800Y-259961000D02*
X217963800Y-259961000D01*
X217963800Y-259961000D02*
X221147500Y-256777300D01*
X139942100Y-258524000D02*
X142738164Y-258524000D01*
X200050400Y-265817300D02*
X200088900Y-265778800D01*
%TO.N,/Level Shifters/PAN5V.MISO_1*%
X125404447Y-244444953D02*
X125242753Y-244444953D01*
X141043400Y-257134000D02*
X141744800Y-257835400D01*
X203782339Y-261271100D02*
X204713600Y-260339839D01*
X125242753Y-244444953D02*
X107334200Y-226536400D01*
X137862400Y-257134000D02*
X141043400Y-257134000D01*
X248158706Y-217737600D02*
X257134000Y-217737600D01*
X218659700Y-250579900D02*
X222520500Y-250579900D01*
X182880000Y-262708600D02*
X183176200Y-262412400D01*
X209829400Y-254965200D02*
X214274400Y-254965200D01*
X169178500Y-264771200D02*
X181177200Y-264771200D01*
X245128400Y-220733000D02*
X245163306Y-220733000D01*
X141744800Y-257835400D02*
X149225100Y-257835400D01*
X245163306Y-220733000D02*
X248158706Y-217737600D01*
X204713600Y-260339839D02*
X204713600Y-260081000D01*
X224942400Y-248158000D02*
X226593400Y-248158000D01*
X181177200Y-264771200D02*
X182880000Y-266474000D01*
X226593400Y-248158000D02*
X226618800Y-248183400D01*
X282926000Y-184772000D02*
X283011000Y-184857000D01*
X168223700Y-263816400D02*
X169178500Y-264771200D01*
X191953000Y-262412400D02*
X193094300Y-261271100D01*
X222520500Y-250579900D02*
X224942400Y-248158000D01*
X261702300Y-198948800D02*
X259341600Y-201309500D01*
X204713600Y-260081000D02*
X209829400Y-254965200D01*
X259341600Y-201309500D02*
X259341600Y-201626300D01*
X193094300Y-261271100D02*
X203782339Y-261271100D01*
X283011000Y-184857000D02*
X283011000Y-186648300D01*
X183176200Y-262412400D02*
X191953000Y-262412400D01*
X270710500Y-198948800D02*
X261702300Y-198948800D01*
X214274400Y-254965200D02*
X218659700Y-250579900D01*
X149225100Y-257835400D02*
X155206100Y-263816400D01*
X231800400Y-234035600D02*
X231825800Y-234035600D01*
X155206100Y-263816400D02*
X168223700Y-263816400D01*
X231825800Y-234035600D02*
X245128400Y-220733000D01*
X283011000Y-186648300D02*
X270710500Y-198948800D01*
X107334200Y-226536400D02*
X103546000Y-226536400D01*
%TO.N,/Level Shifters/PAN5V.RESET*%
X275027400Y-116103400D02*
X280262700Y-121338700D01*
X290422500Y-183740200D02*
X289157800Y-183740200D01*
X280262700Y-121338700D02*
X290422500Y-121338700D01*
X289157800Y-183740200D02*
X288126000Y-184772000D01*
%TO.N,/Level Shifters/PAN3V.RESET*%
X288126000Y-180557000D02*
X288126000Y-179047000D01*
X265460239Y-225171000D02*
X259125839Y-231505400D01*
X259125839Y-231505400D02*
X253350700Y-231505400D01*
X284638500Y-225171000D02*
X265460239Y-225171000D01*
X288264600Y-180695600D02*
X288126000Y-180557000D01*
X285524450Y-224285050D02*
X284638500Y-225171000D01*
%TO.N,/Level Shifters/PAN3V.SCK_0*%
X284099000Y-224104200D02*
X265638039Y-224104200D01*
X286826000Y-180628600D02*
X286826000Y-179047000D01*
X284403800Y-223799400D02*
X284099000Y-224104200D01*
X265206239Y-224536000D02*
X265176000Y-224536000D01*
X265638039Y-224104200D02*
X265206239Y-224536000D01*
X286893000Y-180695600D02*
X286826000Y-180628600D01*
%TO.N,/Level Shifters/PAN3V.MOSI_0*%
X267751800Y-201512050D02*
X268196550Y-201067300D01*
X286067500Y-180378100D02*
X286176000Y-180269600D01*
X268196550Y-201067300D02*
X285523500Y-201067300D01*
X286176000Y-180269600D02*
X286176000Y-179047000D01*
%TO.N,/Level Shifters/PAN3V.MISO_0*%
X284867732Y-180382846D02*
X284916822Y-180382846D01*
X285526000Y-179773668D02*
X285526000Y-179047000D01*
X262694100Y-222369700D02*
X260375400Y-224688400D01*
X283362400Y-222369700D02*
X262694100Y-222369700D01*
X260375400Y-224688400D02*
X260350000Y-224688400D01*
X284916822Y-180382846D02*
X285526000Y-179773668D01*
%TO.N,/Level Shifters/PAN3V.SCK_1*%
X280915300Y-181592900D02*
X282566700Y-181592900D01*
X254279400Y-254685800D02*
X264981800Y-243983400D01*
X280873200Y-181550800D02*
X280915300Y-181592900D01*
X284226000Y-179933600D02*
X284226000Y-179047000D01*
X282566700Y-181592900D02*
X284226000Y-179933600D01*
X253238000Y-254685800D02*
X254279400Y-254685800D01*
X264981800Y-243983400D02*
X279665800Y-243983400D01*
%TO.N,/Level Shifters/PAN3V.MOSI_1*%
X261768600Y-260062700D02*
X272718100Y-249113200D01*
X272718100Y-249113200D02*
X281862100Y-249113200D01*
X281533600Y-180784500D02*
X282622274Y-180784500D01*
X250952000Y-260062700D02*
X261768600Y-260062700D01*
X283576000Y-179830774D02*
X283576000Y-179047000D01*
X282622274Y-180784500D02*
X283576000Y-179830774D01*
%TO.N,/Level Shifters/PAN3V.MISO_1*%
X280240500Y-180134500D02*
X282565168Y-180134500D01*
X282565168Y-180134500D02*
X282926000Y-179773668D01*
X279694520Y-180680480D02*
X280240500Y-180134500D01*
X279694520Y-181163080D02*
X279694520Y-180680480D01*
X282926000Y-179773668D02*
X282926000Y-179047000D01*
%TO.N,/Level Shifters/PAN3V.CS_00*%
X287050200Y-229613400D02*
X287753400Y-229613400D01*
%TO.N,/Level Shifters/PAN3V.CS_01*%
X285750200Y-229613400D02*
X285750200Y-230678000D01*
X285750200Y-230678000D02*
X283859700Y-232568500D01*
%TO.N,/Level Shifters/PAN3V.CS_02*%
X276301200Y-225907600D02*
X282168400Y-225907600D01*
X276281000Y-225927800D02*
X276301200Y-225907600D01*
X282168400Y-225907600D02*
X285100200Y-228839400D01*
X285100200Y-228839400D02*
X285100200Y-229613400D01*
%TO.N,/Level Shifters/PAN3V.CS_03*%
X282833700Y-232144300D02*
X284450200Y-230527800D01*
X284450200Y-230527800D02*
X284450200Y-229613400D01*
X272451950Y-232294550D02*
X272602200Y-232144300D01*
X272602200Y-232144300D02*
X282833700Y-232144300D01*
%TO.N,/Level Shifters/PAN3V.CS_04*%
X280160426Y-230657400D02*
X280703926Y-231200900D01*
X270332200Y-231470200D02*
X271145000Y-230657400D01*
X280703926Y-231200900D02*
X283057400Y-231200900D01*
X283800200Y-230458100D02*
X283800200Y-229613400D01*
X283057400Y-231200900D02*
X283800200Y-230458100D01*
X271145000Y-230657400D02*
X280160426Y-230657400D01*
%TO.N,/Level Shifters/PAN3V.CS_05*%
X280156332Y-229946200D02*
X280911032Y-230700900D01*
X282802800Y-230700900D02*
X283150200Y-230353500D01*
X269443200Y-229946200D02*
X280156332Y-229946200D01*
X280911032Y-230700900D02*
X282802800Y-230700900D01*
X283150200Y-230353500D02*
X283150200Y-229613400D01*
%TO.N,/Level Shifters/PAN3V.CS_06*%
X280060500Y-226872000D02*
X281644600Y-226872000D01*
X267157200Y-227660200D02*
X267174300Y-227643100D01*
X281644600Y-226872000D02*
X282500200Y-227727600D01*
X267174300Y-227643100D02*
X279289400Y-227643100D01*
X279289400Y-227643100D02*
X280060500Y-226872000D01*
X282500200Y-227727600D02*
X282500200Y-229613400D01*
%TO.N,/Level Shifters/PAN3V.CS_07*%
X268732000Y-229184200D02*
X278811700Y-229184200D01*
X268859000Y-255840700D02*
X263671300Y-261028400D01*
X281850200Y-228391800D02*
X281850200Y-229613400D01*
X263671300Y-261028400D02*
X263671300Y-261213100D01*
X280535800Y-227460100D02*
X281472100Y-227460100D01*
X281472100Y-227460100D02*
X281949400Y-227937400D01*
X281949400Y-227937400D02*
X281949400Y-228292600D01*
X278811700Y-229184200D02*
X280535800Y-227460100D01*
X281949400Y-228292600D02*
X281850200Y-228391800D01*
X268630400Y-229285800D02*
X268732000Y-229184200D01*
%TO.N,/Level Shifters/PAN5V.CS_07*%
X146894100Y-254560900D02*
X145879300Y-253546100D01*
X273405600Y-238556800D02*
X262509000Y-238556800D01*
X155241500Y-256460500D02*
X154240482Y-256460500D01*
X142748600Y-253546100D02*
X138076100Y-248873600D01*
X158158400Y-259377400D02*
X155241500Y-256460500D01*
X213207600Y-253085600D02*
X208762600Y-253085600D01*
X217686000Y-248607200D02*
X213207600Y-253085600D01*
X273471700Y-235356400D02*
X274574000Y-235356400D01*
X104378700Y-227544400D02*
X104196300Y-227726800D01*
X265280700Y-135662700D02*
X271757200Y-142139200D01*
X130238500Y-245308600D02*
X125166600Y-245308600D01*
X125166600Y-245308600D02*
X107402400Y-227544400D01*
X107402400Y-227544400D02*
X104378700Y-227544400D01*
X190361700Y-258735700D02*
X189194500Y-259902900D01*
X275711600Y-234218800D02*
X281467100Y-234218800D01*
X208762600Y-253085600D02*
X205173400Y-256674800D01*
X189194500Y-259902900D02*
X183575900Y-259902900D01*
X224840800Y-245008400D02*
X221242000Y-248607200D01*
X133803500Y-248873600D02*
X130238500Y-245308600D01*
X154240482Y-256460500D02*
X152340882Y-254560900D01*
X281850200Y-234601900D02*
X281850200Y-235338400D01*
X233222800Y-241757200D02*
X229971600Y-245008400D01*
X262509000Y-238556800D02*
X259308600Y-241757200D01*
X145879300Y-253546100D02*
X142748600Y-253546100D01*
X152340882Y-254560900D02*
X146894100Y-254560900D01*
X103093900Y-227726800D02*
X99736000Y-224368900D01*
X281467100Y-234218800D02*
X281850200Y-234601900D01*
X202485900Y-256674800D02*
X201604700Y-257556000D01*
X221242000Y-248607200D02*
X217686000Y-248607200D01*
X229971600Y-245008400D02*
X224840800Y-245008400D01*
X205173400Y-256674800D02*
X202485900Y-256674800D01*
X183575900Y-259902900D02*
X182508400Y-258835400D01*
X165279152Y-258835400D02*
X164737152Y-259377400D01*
X259308600Y-241757200D02*
X233222800Y-241757200D01*
X164737152Y-259377400D02*
X158158400Y-259377400D01*
X201604700Y-257556000D02*
X195707000Y-257556000D01*
X255864000Y-135662700D02*
X265280700Y-135662700D01*
X104196300Y-227726800D02*
X103093900Y-227726800D01*
X195707000Y-257556000D02*
X194527300Y-258735700D01*
X182508400Y-258835400D02*
X165279152Y-258835400D01*
X194527300Y-258735700D02*
X190361700Y-258735700D01*
X99736000Y-224368900D02*
X99736000Y-219937300D01*
X138076100Y-248873600D02*
X133803500Y-248873600D01*
X274574000Y-235356400D02*
X275711600Y-234218800D01*
%TO.N,/Level Shifters/PAN3V.CS_08*%
X225867100Y-287085900D02*
X238908200Y-274044800D01*
X252120400Y-270891000D02*
X254152400Y-268859000D01*
X217171100Y-286926600D02*
X217330400Y-287085900D01*
X217330400Y-287085900D02*
X225867100Y-287085900D01*
X244348000Y-275107400D02*
X245211600Y-274243800D01*
X238908200Y-274044800D02*
X241990000Y-274044800D01*
X241990000Y-274044800D02*
X243052600Y-275107400D01*
X245211600Y-274243800D02*
X245211600Y-273558000D01*
X245211600Y-273558000D02*
X247878600Y-270891000D01*
X256616200Y-268859000D02*
X261284400Y-264190800D01*
X247878600Y-270891000D02*
X252120400Y-270891000D01*
X261284400Y-264190800D02*
X261284400Y-262081800D01*
X243052600Y-275107400D02*
X244348000Y-275107400D01*
X254152400Y-268859000D02*
X256616200Y-268859000D01*
%TO.N,/Level Shifters/PAN3V.CS_09*%
X253746000Y-268249400D02*
X251815600Y-270179800D01*
X217898300Y-285626600D02*
X217171100Y-285626600D01*
X218572600Y-284952300D02*
X217898300Y-285626600D01*
X226959300Y-284952300D02*
X218572600Y-284952300D01*
X256032000Y-268249400D02*
X253746000Y-268249400D01*
X258897600Y-265383800D02*
X256032000Y-268249400D01*
X258897600Y-262950600D02*
X258897600Y-265383800D01*
X243534600Y-272571600D02*
X239340000Y-272571600D01*
X239340000Y-272571600D02*
X226959300Y-284952300D01*
X251815600Y-270179800D02*
X245926400Y-270179800D01*
X245926400Y-270179800D02*
X243534600Y-272571600D01*
%TO.N,/Level Shifters/PAN3V.CS_10*%
X248361200Y-262509000D02*
X249350300Y-263498100D01*
X223681306Y-262509000D02*
X248361200Y-262509000D01*
X219766600Y-262970500D02*
X223219807Y-262970500D01*
X218406300Y-264330800D02*
X219766600Y-262970500D01*
X217171100Y-284976600D02*
X215604400Y-284976600D01*
X223219807Y-262970500D02*
X223681306Y-262509000D01*
X249350300Y-263498100D02*
X249350300Y-266425500D01*
%TO.N,/Level Shifters/PAN3V.CS_11*%
X242667100Y-270183600D02*
X242312200Y-270183600D01*
X246586900Y-266917600D02*
X244193100Y-266917600D01*
X243341800Y-267768900D02*
X243341800Y-269508900D01*
X244193100Y-266917600D02*
X243341800Y-267768900D01*
X239792500Y-271052300D02*
X226518200Y-284326600D01*
X243341800Y-269508900D02*
X242667100Y-270183600D01*
X246963500Y-267294200D02*
X246586900Y-266917600D01*
X241443500Y-271052300D02*
X239792500Y-271052300D01*
X226518200Y-284326600D02*
X217171100Y-284326600D01*
X242312200Y-270183600D02*
X241443500Y-271052300D01*
%TO.N,/Level Shifters/PAN3V.CS_12*%
X226135146Y-283676600D02*
X217171100Y-283676600D01*
X239803100Y-270008646D02*
X226135146Y-283676600D01*
X239803100Y-269900400D02*
X239803100Y-270008646D01*
%TO.N,/Level Shifters/PAN3V.CS_13*%
X217171100Y-283026600D02*
X225608400Y-283026600D01*
X225608400Y-283026600D02*
X237416200Y-271218800D01*
X237416200Y-271218800D02*
X237416200Y-270769200D01*
%TO.N,/Level Shifters/PAN3V.CS_14*%
X235029400Y-271637900D02*
X235029400Y-272528600D01*
X235029400Y-272528600D02*
X225181400Y-282376600D01*
X225181400Y-282376600D02*
X217171100Y-282376600D01*
%TO.N,/Level Shifters/PAN3V.CS_15*%
X230987600Y-271907000D02*
X231587200Y-272506600D01*
X221751600Y-280175400D02*
X230020000Y-271907000D01*
X216036500Y-280834100D02*
X216695200Y-280175400D01*
X216036500Y-281362400D02*
X216036500Y-280834100D01*
X216400700Y-281726600D02*
X216036500Y-281362400D01*
X231587200Y-272506600D02*
X232642600Y-272506600D01*
X230020000Y-271907000D02*
X230987600Y-271907000D01*
X216695200Y-280175400D02*
X221751600Y-280175400D01*
X217171100Y-281726600D02*
X216400700Y-281726600D01*
%TO.N,/Level Shifters/PAN3V.CS_16*%
X220787900Y-271083100D02*
X232892100Y-271083100D01*
X233794500Y-271985500D02*
X233794500Y-272983800D01*
X232892100Y-271083100D02*
X233794500Y-271985500D01*
X233794500Y-272983800D02*
X233119800Y-273658500D01*
X219025000Y-272846000D02*
X220787900Y-271083100D01*
X200990200Y-287502600D02*
X200866800Y-287626000D01*
X208363400Y-272846000D02*
X219025000Y-272846000D01*
X233119800Y-273658500D02*
X230538900Y-273658500D01*
X169909500Y-287626000D02*
X169412500Y-287129000D01*
X208362600Y-272846800D02*
X208363400Y-272846000D01*
X230538900Y-273658500D02*
X230255800Y-273375400D01*
X200866800Y-287626000D02*
X169909500Y-287626000D01*
X205829600Y-272846800D02*
X208362600Y-272846800D01*
%TO.N,/Level Shifters/PAN3V.CS_17*%
X249428000Y-273173500D02*
X250796100Y-271805400D01*
X181413800Y-285604600D02*
X171618900Y-285604600D01*
X222708461Y-277364300D02*
X223598300Y-277364300D01*
X250796100Y-271805400D02*
X252247400Y-271805400D01*
X242455299Y-282552600D02*
X242477546Y-282530353D01*
X236220000Y-282552600D02*
X242455299Y-282552600D01*
X254558800Y-269494000D02*
X257911600Y-269494000D01*
X210083400Y-275945600D02*
X221289761Y-275945600D01*
X181965600Y-286156400D02*
X181413800Y-285604600D01*
X187858400Y-286131000D02*
X187833000Y-286156400D01*
X171618900Y-285604600D02*
X171394500Y-285829000D01*
X252247400Y-271805400D02*
X254558800Y-269494000D01*
X171394500Y-285829000D02*
X169412500Y-285829000D01*
X277918700Y-265035700D02*
X283204600Y-270321600D01*
X257911600Y-269494000D02*
X262369900Y-265035700D01*
X187833000Y-286156400D02*
X181965600Y-286156400D01*
X205065700Y-280974800D02*
X205065700Y-280963300D01*
X221289761Y-275945600D02*
X222708461Y-277364300D01*
X262369900Y-265035700D02*
X277918700Y-265035700D01*
X205065700Y-280963300D02*
X210083400Y-275945600D01*
%TO.N,/Level Shifters/PAN3V.CS_18*%
X203682600Y-269979300D02*
X203710700Y-269951200D01*
X276322200Y-271576800D02*
X277196000Y-272450600D01*
X278962000Y-273240400D02*
X280817700Y-271384700D01*
X193470200Y-275272000D02*
X200550800Y-275272000D01*
X217830400Y-266014200D02*
X247312692Y-266014200D01*
X168624500Y-285179000D02*
X168231300Y-284785800D01*
X169478000Y-279828700D02*
X188913500Y-279828700D01*
X277892300Y-273240400D02*
X278962000Y-273240400D01*
X169412500Y-285179000D02*
X168624500Y-285179000D01*
X247312692Y-266014200D02*
X248934592Y-267636100D01*
X188913500Y-279828700D02*
X193470200Y-275272000D01*
X258753600Y-271576800D02*
X276322200Y-271576800D01*
X203710700Y-269951200D02*
X213893400Y-269951200D01*
X280817700Y-271384700D02*
X280817700Y-271190400D01*
X213893400Y-269951200D02*
X217830400Y-266014200D01*
X248934592Y-267636100D02*
X254714900Y-267636100D01*
X258218300Y-271041500D02*
X258753600Y-271576800D01*
X277196000Y-272450600D02*
X277196000Y-272544100D01*
X168231300Y-284785800D02*
X168231300Y-281075400D01*
X254714900Y-267636100D02*
X254763350Y-267587650D01*
X168231300Y-281075400D02*
X169478000Y-279828700D01*
X277196000Y-272544100D02*
X277892300Y-273240400D01*
%TO.N,/Level Shifters/PAN3V.CS_19*%
X208747200Y-274955000D02*
X225171000Y-274955000D01*
X246499260Y-273823500D02*
X252032600Y-273823500D01*
X252032600Y-273823500D02*
X255666100Y-270190000D01*
X204444600Y-277342600D02*
X206359600Y-277342600D01*
X187071000Y-284529000D02*
X169412500Y-284529000D01*
X206359600Y-277342600D02*
X208747200Y-274955000D01*
X241046000Y-275151700D02*
X238785400Y-275151700D01*
X225171000Y-274955000D02*
X226415600Y-273710400D01*
X246243380Y-273567620D02*
X246499260Y-273823500D01*
X255666100Y-270190000D02*
X273570500Y-270190000D01*
%TO.N,/Level Shifters/PAN3V.CS_20*%
X247137700Y-274325400D02*
X252711800Y-274325400D01*
X240461800Y-268327000D02*
X217076800Y-268327000D01*
X254798300Y-272238900D02*
X275355200Y-272238900D01*
X217076800Y-268327000D02*
X214272600Y-271131200D01*
X193113600Y-285970300D02*
X191022300Y-283879000D01*
X252711800Y-274325400D02*
X254798300Y-272238900D01*
X275355200Y-272238900D02*
X276044100Y-272927800D01*
X191022300Y-283879000D02*
X169412500Y-283879000D01*
X246989600Y-274473500D02*
X247137700Y-274325400D01*
X203735700Y-285970300D02*
X193113600Y-285970300D01*
X207201600Y-271131200D02*
X206527400Y-271805400D01*
X214272600Y-271131200D02*
X207201600Y-271131200D01*
X203747200Y-285981800D02*
X203735700Y-285970300D01*
%TO.N,/Level Shifters/PAN3V.CS_21*%
X203477300Y-285329900D02*
X204017200Y-285329900D01*
X203434000Y-285373200D02*
X203477300Y-285329900D01*
X204017200Y-285329900D02*
X206276300Y-287589000D01*
X268451500Y-275101900D02*
X268883600Y-275534000D01*
X191243000Y-283229000D02*
X193387200Y-285373200D01*
X238098100Y-277344100D02*
X247419900Y-277344100D01*
X193387200Y-285373200D02*
X203434000Y-285373200D01*
X206276300Y-287589000D02*
X227853200Y-287589000D01*
X169412500Y-283229000D02*
X191243000Y-283229000D01*
X249662100Y-275101900D02*
X268451500Y-275101900D01*
X247419900Y-277344100D02*
X249662100Y-275101900D01*
X227853200Y-287589000D02*
X238098100Y-277344100D01*
%TO.N,/Level Shifters/PAN3V.CS_22*%
X266215492Y-276121492D02*
X266496800Y-276402800D01*
X188739200Y-282579000D02*
X194856300Y-276461900D01*
X217656694Y-265480800D02*
X243078000Y-265480800D01*
X213999094Y-269138400D02*
X217656694Y-265480800D01*
X198831200Y-269138400D02*
X213999094Y-269138400D01*
X169412500Y-282579000D02*
X188739200Y-282579000D01*
X252299192Y-276121492D02*
X266215492Y-276121492D01*
X252248850Y-276071150D02*
X252299192Y-276121492D01*
X243078000Y-265480800D02*
X243281200Y-265277600D01*
%TO.N,/Level Shifters/PAN3V.CS_23*%
X200008700Y-275773900D02*
X200692800Y-276458000D01*
X204165200Y-276141800D02*
X206199100Y-276141800D01*
X169510200Y-282026700D02*
X187953100Y-282026700D01*
X206199100Y-276141800D02*
X208554300Y-273786600D01*
X208554300Y-273786600D02*
X225018600Y-273786600D01*
X169412500Y-281929000D02*
X169510200Y-282026700D01*
X187953100Y-282026700D02*
X194205900Y-275773900D01*
X242201000Y-279794400D02*
X253610700Y-279794400D01*
X253610700Y-279794400D02*
X254562700Y-280746400D01*
X194205900Y-275773900D02*
X200008700Y-275773900D01*
X240923000Y-281072400D02*
X242201000Y-279794400D01*
X236169200Y-281072400D02*
X240923000Y-281072400D01*
%TO.N,/Level Shifters/PAN3V.CS_24*%
X243030500Y-290906200D02*
X126557800Y-290906200D01*
X252175900Y-281760800D02*
X243030500Y-290906200D01*
X126557800Y-290906200D02*
X121967600Y-286316000D01*
X252175900Y-281615100D02*
X252175900Y-281760800D01*
%TO.N,/Level Shifters/PAN3V.CS_25*%
X134366000Y-290372800D02*
X242061100Y-290372800D01*
X128859600Y-284866400D02*
X134366000Y-290372800D01*
X242061100Y-290372800D02*
X243689700Y-288744200D01*
X121967600Y-285016000D02*
X122718200Y-285016000D01*
X122867800Y-284866400D02*
X128859600Y-284866400D01*
X122718200Y-285016000D02*
X122867800Y-284866400D01*
%TO.N,/Level Shifters/PAN3V.CS_26*%
X121232100Y-284366000D02*
X120874700Y-284008600D01*
X229113100Y-288208700D02*
X234117300Y-283204500D01*
X120874700Y-280151500D02*
X121245300Y-279780900D01*
X121967600Y-284366000D02*
X121232100Y-284366000D01*
X143594200Y-288208700D02*
X229113100Y-288208700D01*
X242711700Y-283204500D02*
X242861000Y-283055200D01*
X135166400Y-279780900D02*
X143594200Y-288208700D01*
X120874700Y-284008600D02*
X120874700Y-280151500D01*
X242861000Y-283055200D02*
X247104900Y-283055200D01*
X234117300Y-283204500D02*
X242711700Y-283204500D01*
X121245300Y-279780900D02*
X135166400Y-279780900D01*
X247104900Y-283055200D02*
X247402300Y-283352600D01*
%TO.N,/Level Shifters/PAN3V.CS_27*%
X239559200Y-289814000D02*
X134874000Y-289814000D01*
X245015400Y-284357800D02*
X239559200Y-289814000D01*
X128776000Y-283716000D02*
X121967600Y-283716000D01*
X245015400Y-284221300D02*
X245015400Y-284357800D01*
X134874000Y-289814000D02*
X128776000Y-283716000D01*
%TO.N,/Level Shifters/PAN3V.CS_28*%
X238605300Y-289306000D02*
X135661400Y-289306000D01*
X135661400Y-289306000D02*
X129421400Y-283066000D01*
X242628600Y-285090100D02*
X242628600Y-285282700D01*
X242628600Y-285282700D02*
X238605300Y-289306000D01*
X129421400Y-283066000D02*
X121967600Y-283066000D01*
%TO.N,/Level Shifters/PAN3V.CS_29*%
X136525000Y-288798000D02*
X130143000Y-282416000D01*
X239956900Y-285673900D02*
X233044900Y-285673900D01*
X229920800Y-288798000D02*
X136525000Y-288798000D01*
X130143000Y-282416000D02*
X121967600Y-282416000D01*
X240241800Y-285958800D02*
X239956900Y-285673900D01*
X233044900Y-285673900D02*
X229920800Y-288798000D01*
%TO.N,/Level Shifters/PAN3V.EXT_INT*%
X124619800Y-281290000D02*
X124543500Y-281213700D01*
X124543500Y-281213700D02*
X122065300Y-281213700D01*
X122065300Y-281213700D02*
X121967600Y-281116000D01*
%TO.N,/Panel Headers/RESET*%
X175012700Y-84709000D02*
X166928800Y-84709000D01*
X218614788Y-252182400D02*
X222797600Y-252182400D01*
X102819200Y-144500600D02*
X102743000Y-144424400D01*
X217833100Y-105638600D02*
X234659000Y-122464500D01*
X123614477Y-247767654D02*
X122940823Y-247094000D01*
X165100000Y-89126000D02*
X163948100Y-90277900D01*
X211138500Y-94656000D02*
X184204700Y-94656000D01*
X190500000Y-266474000D02*
X190500000Y-268909800D01*
X135971641Y-251394080D02*
X135326361Y-250748800D01*
X210337400Y-256286000D02*
X214511188Y-256286000D01*
X192690100Y-263804400D02*
X194221500Y-262273000D01*
X129384737Y-250748800D02*
X126999937Y-248364000D01*
X194221500Y-262273000D02*
X204350400Y-262273000D01*
X144963400Y-260442100D02*
X144461500Y-260944000D01*
X122464500Y-106647000D02*
X122464500Y-107356000D01*
X184204700Y-94656000D02*
X179070000Y-89521300D01*
X263084100Y-166471600D02*
X264105200Y-165450500D01*
X94693100Y-144424400D02*
X94656000Y-144461500D01*
X211138500Y-101791500D02*
X214985600Y-105638600D01*
X148656700Y-260442100D02*
X144963400Y-260442100D01*
X163948100Y-90277900D02*
X138833600Y-90277900D01*
X214511188Y-256286000D02*
X218614788Y-252182400D01*
X122786400Y-247094000D02*
X108827900Y-233135500D01*
X123614477Y-247820477D02*
X123614477Y-247767654D01*
X204350400Y-262273000D02*
X210337400Y-256286000D01*
X225420500Y-249559500D02*
X226964700Y-249559500D01*
X102743000Y-144424400D02*
X94693100Y-144424400D01*
X226964700Y-249559500D02*
X228280200Y-248244000D01*
X126999937Y-248364000D02*
X124158000Y-248364000D01*
X92049600Y-190500000D02*
X89126000Y-190500000D01*
X228280200Y-248244000D02*
X233135500Y-248244000D01*
X234659000Y-122464500D02*
X265303200Y-122464500D01*
X214985600Y-105638600D02*
X217833100Y-105638600D01*
X264105200Y-165450500D02*
X266123500Y-165450500D01*
X136895720Y-251394080D02*
X135971641Y-251394080D01*
X124158000Y-248364000D02*
X123614477Y-247820477D01*
X189077600Y-270332200D02*
X158546800Y-270332200D01*
X122940823Y-247094000D02*
X122786400Y-247094000D01*
X266123500Y-165450500D02*
X266474000Y-165100000D01*
X165100000Y-86537800D02*
X165100000Y-89126000D01*
X108827900Y-233135500D02*
X107356000Y-233135500D01*
X166928800Y-84709000D02*
X165100000Y-86537800D01*
X158546800Y-270332200D02*
X148656700Y-260442100D01*
X211138500Y-101752400D02*
X211138500Y-101791500D01*
X265303200Y-118461600D02*
X265303200Y-122464500D01*
X222797600Y-252182400D02*
X225420500Y-249559500D01*
X270963400Y-112801400D02*
X265303200Y-118461600D01*
X138833600Y-90277900D02*
X122464500Y-106647000D01*
X190830200Y-263804400D02*
X192690100Y-263804400D01*
X190500000Y-268909800D02*
X189077600Y-270332200D01*
X92862400Y-189687200D02*
X92049600Y-190500000D01*
X179070000Y-88766300D02*
X175012700Y-84709000D01*
X179070000Y-89521300D02*
X179070000Y-88766300D01*
X135326361Y-250748800D02*
X129384737Y-250748800D01*
%TO.N,VCC*%
X108633000Y-96505300D02*
X108966000Y-97028000D01*
X96505300Y-246967000D02*
X97104200Y-246558000D01*
X77252100Y-141980000D02*
X77876400Y-142291000D01*
X258318000Y-109347000D02*
X259095000Y-108633000D01*
D88*
X280512000Y-159497000D02*
X280512000Y-160878000D01*
X275311000Y-214478000D02*
X274612000Y-215628000D01*
D85*
X77876400Y-142291000D02*
X78841600Y-141834000D01*
D88*
X280512000Y-160878000D02*
X280518000Y-160884000D01*
D85*
X275903000Y-213305000D02*
X276631000Y-213690000D01*
X246967000Y-259095000D02*
X246609000Y-258445000D01*
D88*
X196103000Y-280512000D02*
X194843000Y-280518000D01*
D85*
X110084000Y-97078800D02*
X110593000Y-98000500D01*
D88*
X159497000Y-75088100D02*
X160858000Y-75082400D01*
X141199000Y-275361000D02*
X139972000Y-274612000D01*
X80365600Y-141224000D02*
X80988000Y-139972000D01*
X213305000Y-79697300D02*
X214478000Y-80391000D01*
D85*
X245440000Y-258318000D02*
X245007000Y-257600000D01*
X97205800Y-245491000D02*
X98000500Y-245007000D01*
D88*
X214478000Y-80391000D02*
X215628000Y-80988000D01*
D85*
X197053000Y-282016000D02*
X197053000Y-282787000D01*
X196103000Y-280512000D02*
X196113000Y-281356000D01*
D88*
X79697300Y-142295000D02*
X80365600Y-141224000D01*
X245007000Y-257600000D02*
X243992000Y-258191000D01*
X110593000Y-98000500D02*
X111760000Y-97282000D01*
D85*
X280512000Y-159497000D02*
X281092000Y-159497000D01*
D88*
X194843000Y-280518000D02*
X193446000Y-280555000D01*
X257600000Y-110593000D02*
X258242000Y-111735000D01*
D85*
X141859000Y-276631000D02*
X142295000Y-275903000D01*
X142342000Y-277724000D02*
X141859000Y-276631000D01*
D88*
X98000500Y-245007000D02*
X97307400Y-243865000D01*
D85*
X213258000Y-77927200D02*
X213620000Y-77252100D01*
X276631000Y-213690000D02*
X277698000Y-213258000D01*
X73482200Y-197053000D02*
X74142600Y-196113000D01*
D88*
X258242000Y-111735000D02*
X258966000Y-112872000D01*
D85*
X196113000Y-281356000D02*
X197053000Y-282016000D01*
X158547000Y-73609200D02*
X159461000Y-73914000D01*
X97104200Y-246558000D02*
X97205800Y-245491000D01*
X277698000Y-213258000D02*
X278348000Y-213620000D01*
X74142600Y-196113000D02*
X75088100Y-196103000D01*
D88*
X242728000Y-258966000D02*
X243992000Y-258191000D01*
D85*
X213741000Y-78613000D02*
X213258000Y-77927200D01*
X246609000Y-258445000D02*
X245440000Y-258318000D01*
X281092000Y-159497000D02*
X282042000Y-158547000D01*
D88*
X275903000Y-213305000D02*
X275311000Y-214478000D01*
X97307400Y-243865000D02*
X96634400Y-242728000D01*
X280518000Y-160884000D02*
X280518000Y-162116000D01*
D85*
X257600000Y-110593000D02*
X258496000Y-110058000D01*
D88*
X75088100Y-196103000D02*
X75082400Y-194818000D01*
X160858000Y-75082400D02*
X162154000Y-75044600D01*
X142295000Y-275903000D02*
X141199000Y-275361000D01*
D85*
X108966000Y-97028000D02*
X110084000Y-97078800D01*
X213305000Y-79697300D02*
X213690000Y-79121000D01*
X141980000Y-278348000D02*
X142342000Y-277724000D01*
X282042000Y-158547000D02*
X282787000Y-158547000D01*
X258496000Y-110058000D02*
X258318000Y-109347000D01*
D86*
X280518000Y-162116000D02*
X280555000Y-162154000D01*
D85*
X158547000Y-72813100D02*
X158547000Y-73609200D01*
X78841600Y-141834000D02*
X79697300Y-142295000D01*
X159461000Y-73914000D02*
X159497000Y-75088100D01*
D88*
X75082400Y-194818000D02*
X75044600Y-193446000D01*
X111760000Y-97282000D02*
X112872000Y-96634400D01*
D85*
X213690000Y-79121000D02*
X213741000Y-78613000D01*
X72813100Y-197053000D02*
X73482200Y-197053000D01*
D89*
%TO.N,/Panel Headers/POW.5V_HDR_1*%
X266474000Y-160020000D02*
X268224000Y-160045000D01*
X268224000Y-160045000D02*
X269850000Y-158547000D01*
D86*
X272010000Y-152324000D02*
X272010000Y-154039000D01*
D89*
X269850000Y-158547000D02*
X271934000Y-158547000D01*
D86*
X271972000Y-154076000D02*
X271972000Y-158508000D01*
X271972000Y-158508000D02*
X271934000Y-158547000D01*
X272010000Y-154039000D02*
X271972000Y-154076000D01*
D85*
%TO.N,Net-(U7-VBST)*%
X258619700Y-107700700D02*
X258619700Y-107810000D01*
X258620000Y-107810000D02*
X258481500Y-107562500D01*
X258420000Y-106756000D02*
X257962000Y-106002000D01*
X258481500Y-107562500D02*
X258619700Y-107700700D01*
X258481500Y-107562500D02*
X258343000Y-107315000D01*
X258343000Y-107315000D02*
X258420000Y-106756000D01*
X257962000Y-106002000D02*
X257962000Y-106001900D01*
%TO.N,Net-(U7-SW)*%
X257124800Y-109770200D02*
X257125000Y-109770000D01*
X257799000Y-109331000D02*
X257861000Y-108737000D01*
D88*
X254589000Y-111234000D02*
X257125000Y-109770000D01*
D85*
X257125000Y-109770000D02*
X257799000Y-109331000D01*
X254588600Y-111234400D02*
X254589000Y-111234000D01*
X256619900Y-106776900D02*
X256620000Y-106777000D01*
X256619600Y-106776900D02*
X256619900Y-106776900D01*
X257861000Y-108737000D02*
X256620000Y-106777000D01*
X257124500Y-109770200D02*
X257124800Y-109770200D01*
D89*
%TO.N,/Panel Headers/POW.5V_HDR_2*%
X247447000Y-117043000D02*
X247523000Y-115443000D01*
D86*
X247494000Y-110169000D02*
X249695000Y-114059000D01*
D89*
X247523000Y-115443000D02*
X249695000Y-114059000D01*
X245704000Y-118065000D02*
X247447000Y-117043000D01*
D86*
X246650000Y-108632000D02*
X247494000Y-110169000D01*
D85*
%TO.N,Net-(U8-VBST)*%
X211912000Y-75920600D02*
X212090000Y-76403200D01*
X211323300Y-75540000D02*
X211323200Y-75540100D01*
X211323200Y-75540100D02*
X211912000Y-75920600D01*
X211323000Y-75540000D02*
X211323200Y-75540100D01*
X212796900Y-76777100D02*
X212797000Y-76777100D01*
X212090000Y-76403200D02*
X212796900Y-76777100D01*
%TO.N,Net-(U8-SW)*%
X210548300Y-76882400D02*
X210548000Y-76882300D01*
D88*
X211018000Y-81758300D02*
X211018000Y-81758200D01*
D85*
X212903000Y-78486000D02*
X212725000Y-78003400D01*
X212482100Y-79222300D02*
X212482000Y-79222300D01*
X212725000Y-78003400D02*
X210548300Y-76882400D01*
D88*
X211018000Y-81758200D02*
X212482000Y-79222300D01*
D85*
X212482000Y-79222300D02*
X212903000Y-78486000D01*
%TO.N,/Panel Headers/POW.5V_HDR_3*%
X204341000Y-84382700D02*
X208193000Y-86651300D01*
D89*
X206739000Y-92116000D02*
X207670000Y-90500200D01*
D85*
X202842000Y-83473800D02*
X204341000Y-84382700D01*
D89*
X207670000Y-90500200D02*
X207010000Y-88900000D01*
X207010000Y-88900000D02*
X208193000Y-86651300D01*
D85*
%TO.N,Net-(U9-VBST)*%
X157201000Y-72821800D02*
X156540000Y-72491600D01*
X156540000Y-72491600D02*
X155702000Y-72478600D01*
X157596800Y-72813100D02*
X157201000Y-72821800D01*
X157597000Y-72813100D02*
X157596800Y-72813100D01*
%TO.N,Net-(U9-SW)*%
X158546800Y-77284500D02*
X158546800Y-78016400D01*
X158547000Y-74320400D02*
X158064000Y-73888600D01*
X158547000Y-76186200D02*
X158546800Y-76186000D01*
X158547000Y-75088100D02*
X158547000Y-74320400D01*
D88*
X158547000Y-77284300D02*
X158547000Y-78016400D01*
D85*
X158547000Y-77284300D02*
X158546800Y-77284500D01*
D88*
X158547000Y-75088100D02*
X158547000Y-76186200D01*
D85*
X156667000Y-73888600D02*
X155702000Y-74028600D01*
X158064000Y-73888600D02*
X156667000Y-73888600D01*
D88*
X158547000Y-76186200D02*
X158547000Y-77284300D01*
D85*
X158546800Y-76186000D02*
X158546800Y-75088100D01*
%TO.N,/Panel Headers/POW.5V_HDR_4*%
X154076000Y-83627800D02*
X153518000Y-83616800D01*
D89*
X158572000Y-86156800D02*
X158547000Y-83666400D01*
D85*
X158547000Y-83666400D02*
X154076000Y-83627800D01*
D89*
X160045000Y-86817200D02*
X158572000Y-86156800D01*
X160020000Y-89126000D02*
X160045000Y-86817200D01*
D85*
X153518000Y-83616800D02*
X152883000Y-83591400D01*
X152883000Y-83591400D02*
X152324000Y-83590200D01*
%TO.N,Net-(U10-VBST)*%
X106528000Y-97332800D02*
X107061000Y-97409000D01*
X107061000Y-97409000D02*
X107810000Y-96980300D01*
X106002000Y-97638000D02*
X106001900Y-97638000D01*
X106002000Y-97638000D02*
X106528000Y-97332800D01*
%TO.N,Net-(U10-SW)*%
X109770000Y-98475500D02*
X109347000Y-97815400D01*
X108814000Y-97713800D02*
X106777000Y-98980300D01*
X106777000Y-98980300D02*
X106776900Y-98980400D01*
X109770200Y-98475500D02*
X109770000Y-98475500D01*
X109347000Y-97815400D02*
X108814000Y-97713800D01*
D88*
X111234000Y-101011000D02*
X109770000Y-98475500D01*
D85*
X111234400Y-101011400D02*
X111234000Y-101011000D01*
D89*
%TO.N,/Panel Headers/POW.5V_HDR_5*%
X115697000Y-108229000D02*
X114059000Y-105905000D01*
X117043000Y-108204000D02*
X115697000Y-108229000D01*
D85*
X108632000Y-108950000D02*
X110169000Y-108106000D01*
X110169000Y-108106000D02*
X114059000Y-105905000D01*
D89*
X118065000Y-109896000D02*
X117043000Y-108204000D01*
D85*
%TO.N,Net-(U11-VBST)*%
X75540000Y-144254600D02*
X75601300Y-144193300D01*
X75601300Y-144193300D02*
X75971400Y-143688000D01*
X75971400Y-143688000D02*
X76377800Y-143383000D01*
X76377800Y-143383000D02*
X76777100Y-142803100D01*
X75540000Y-144276700D02*
X75540000Y-144254600D01*
X75540000Y-144277000D02*
X75601300Y-144193300D01*
X76777100Y-142803100D02*
X76777100Y-142803000D01*
D88*
%TO.N,Net-(U11-SW)*%
X81758300Y-144582000D02*
X81758200Y-144582000D01*
X81758200Y-144582000D02*
X79222300Y-143118000D01*
D85*
X76940600Y-144946900D02*
X76882300Y-145052000D01*
X79222300Y-143118000D02*
X78435200Y-142697000D01*
X77978000Y-143078000D02*
X76940600Y-144946900D01*
X78435200Y-142697000D02*
X77978000Y-143078000D01*
X76882400Y-145051700D02*
X76882400Y-145005100D01*
X76882400Y-145005100D02*
X76940600Y-144946900D01*
X79222300Y-143117800D02*
X79222300Y-143118000D01*
D89*
%TO.N,/Panel Headers/POW.5V_HDR_6*%
X92116000Y-148861000D02*
X90424000Y-147930000D01*
D85*
X84382700Y-151259000D02*
X86651300Y-147407000D01*
D89*
X90424000Y-147930000D02*
X88849200Y-148412000D01*
D85*
X83473800Y-152758000D02*
X84382700Y-151259000D01*
D89*
X88849200Y-148412000D02*
X86651300Y-147407000D01*
D85*
%TO.N,Net-(U12-VBST)*%
X72813100Y-198003200D02*
X72821800Y-198577000D01*
X72813100Y-198003000D02*
X72813100Y-198003200D01*
X72821800Y-198577000D02*
X72466200Y-199263000D01*
X72466200Y-199263000D02*
X72478600Y-199898000D01*
%TO.N,Net-(U12-SW)*%
X73939400Y-198679000D02*
X73939400Y-197561000D01*
X73939400Y-197561000D02*
X74371200Y-197053000D01*
X74028600Y-199898000D02*
X74041000Y-199212000D01*
D88*
X78016200Y-197053000D02*
X75088300Y-197053000D01*
D85*
X74041000Y-199212000D02*
X73939400Y-198679000D01*
X78016200Y-197053000D02*
X78016400Y-197053200D01*
D88*
X78016400Y-197053000D02*
X78016200Y-197053000D01*
D85*
X74371200Y-197053000D02*
X75088100Y-197053000D01*
X75088300Y-197053000D02*
X75088100Y-197053200D01*
D88*
X75088300Y-197053000D02*
X75088100Y-197053000D01*
D85*
%TO.N,/Panel Headers/POW.5V_HDR_7*%
X83627800Y-201524000D02*
X83666400Y-197053000D01*
X83590200Y-203276000D02*
X83627800Y-201524000D01*
D89*
X86842600Y-195555000D02*
X85826600Y-197028000D01*
X89126000Y-195580000D02*
X86842600Y-195555000D01*
X85826600Y-197028000D02*
X83666400Y-197053000D01*
D85*
%TO.N,Net-(U13-VBST)*%
X97180400Y-248107000D02*
X97307400Y-249022000D01*
X97638000Y-249598000D02*
X97638000Y-249598100D01*
X96980300Y-247790000D02*
X97180400Y-248107000D01*
X97307400Y-249022000D02*
X97638000Y-249598000D01*
%TO.N,Net-(U13-SW)*%
X98980300Y-248823000D02*
X98577400Y-248260000D01*
D88*
X101011000Y-244366000D02*
X98475500Y-245830000D01*
D85*
X97815400Y-246151000D02*
X98475500Y-245830000D01*
X98221800Y-247904000D02*
X97663000Y-246761000D01*
X98980400Y-248823100D02*
X98980300Y-248823000D01*
X98475500Y-245829700D02*
X98475500Y-245830000D01*
X101011400Y-244365600D02*
X101011000Y-244366000D01*
X98577400Y-248260000D02*
X98221800Y-247904000D01*
X97663000Y-246761000D02*
X97815400Y-246151000D01*
%TO.N,/Panel Headers/POW.5V_HDR_8*%
X108106000Y-245431000D02*
X108950000Y-246968000D01*
D89*
X109896000Y-237535000D02*
X107975000Y-238608000D01*
X107518000Y-240157000D02*
X105905000Y-241541000D01*
X107975000Y-238608000D02*
X107518000Y-240157000D01*
D85*
X105905000Y-241541000D02*
X108106000Y-245431000D01*
%TO.N,Net-(U14-VBST)*%
X143004000Y-278959000D02*
X142939200Y-278959000D01*
X143205000Y-279095000D02*
X143739000Y-279832000D01*
X143004000Y-278959000D02*
X143205000Y-279095000D01*
X142939200Y-278959000D02*
X142803100Y-278822900D01*
X144162700Y-279946000D02*
X144276700Y-280060000D01*
X142803000Y-278823000D02*
X143004000Y-278959000D01*
X144008000Y-279946000D02*
X144162700Y-279946000D01*
X144008000Y-279946000D02*
X144277000Y-280060000D01*
X143739000Y-279832000D02*
X144008000Y-279946000D01*
%TO.N,Net-(U14-SW)*%
X143182400Y-276116700D02*
X143117900Y-276181200D01*
X142748000Y-277038000D02*
X142977000Y-277673000D01*
X144043000Y-278308000D02*
X144602000Y-278435000D01*
X144602000Y-278435000D02*
X145052000Y-278718000D01*
X143495600Y-275723900D02*
X143495700Y-275724000D01*
X143495700Y-275801300D02*
X143182400Y-276114600D01*
D88*
X143495600Y-275723900D02*
X143118000Y-276378000D01*
D85*
X143117900Y-276181200D02*
X143117900Y-276377700D01*
X143118000Y-276378000D02*
X142748000Y-277038000D01*
X143495700Y-275724000D02*
X143495700Y-275801300D01*
D88*
X144582000Y-273842000D02*
X143495600Y-275723900D01*
D85*
X144582000Y-273842000D02*
X144582000Y-273841800D01*
X143182400Y-276114600D02*
X143182400Y-276116700D01*
X142977000Y-277673000D02*
X144043000Y-278308000D01*
%TO.N,/Panel Headers/POW.5V_HDR_9*%
X152758000Y-272126000D02*
X151259000Y-271217000D01*
D89*
X148861000Y-263484000D02*
X147599000Y-265582000D01*
D85*
X151259000Y-271217000D02*
X147407000Y-268949000D01*
D89*
X147599000Y-265582000D02*
X148285000Y-267030000D01*
X148285000Y-267030000D02*
X147407000Y-268949000D01*
D85*
%TO.N,Net-(U15-VBST)*%
X199111000Y-283134000D02*
X199898000Y-283121000D01*
X198188500Y-282795500D02*
X198374000Y-282804000D01*
X198188500Y-282795500D02*
X198011800Y-282795500D01*
X198011800Y-282795500D02*
X198003200Y-282786900D01*
X199898000Y-283121400D02*
X199898000Y-283121000D01*
X198374000Y-282804000D02*
X199111000Y-283134000D01*
X198003000Y-282787000D02*
X198188500Y-282795500D01*
%TO.N,Net-(U15-SW)*%
X197053200Y-279414200D02*
X197053200Y-280511900D01*
D88*
X197053000Y-278316000D02*
X197053000Y-279414000D01*
X197053000Y-279414000D02*
X197053000Y-280512000D01*
D85*
X197053000Y-278316000D02*
X197053200Y-278315800D01*
X199898000Y-281571000D02*
X198704000Y-281635000D01*
X197053000Y-279414000D02*
X197053200Y-279414200D01*
D88*
X197053000Y-277584000D02*
X197053000Y-278316000D01*
D85*
X198704000Y-281635000D02*
X197637000Y-281610000D01*
X197637000Y-281610000D02*
X197053000Y-281305000D01*
X197053200Y-278315800D02*
X197053200Y-277583600D01*
X199898000Y-281571400D02*
X199898000Y-281571000D01*
X197053000Y-281305000D02*
X197053000Y-280512000D01*
D89*
%TO.N,/Panel Headers/POW.5V_HDR_10*%
X195580000Y-266474000D02*
X195605000Y-268681000D01*
D85*
X203276000Y-272010000D02*
X201524000Y-271972000D01*
D89*
X197104000Y-269748000D02*
X197053000Y-271934000D01*
D85*
X201524000Y-271972000D02*
X197053000Y-271934000D01*
D89*
X195605000Y-268681000D02*
X197104000Y-269748000D01*
D85*
%TO.N,Net-(U16-VBST)*%
X248183000Y-258394000D02*
X247986500Y-258507000D01*
X249598000Y-257962000D02*
X249598100Y-257962000D01*
X247986500Y-258507000D02*
X247790000Y-258620000D01*
X247986500Y-258507000D02*
X247902700Y-258507000D01*
X249598000Y-257962000D02*
X249123000Y-258216000D01*
X247902700Y-258507000D02*
X247790000Y-258619700D01*
X249123000Y-258216000D02*
X248183000Y-258394000D01*
%TO.N,Net-(U16-SW)*%
X245829700Y-257124500D02*
X245830000Y-257124800D01*
X244365600Y-254588600D02*
X244366000Y-254589000D01*
X248823100Y-256619600D02*
X248823000Y-256619700D01*
X248183000Y-257023000D02*
X246863000Y-257785000D01*
X245830000Y-257124800D02*
X245830000Y-257125000D01*
X248823000Y-256620000D02*
X248183000Y-257023000D01*
X248823000Y-256619700D02*
X248823000Y-256620000D01*
X246863000Y-257785000D02*
X246228000Y-257810000D01*
X246228000Y-257810000D02*
X245830000Y-257125000D01*
D88*
X244366000Y-254589000D02*
X245830000Y-257125000D01*
D89*
%TO.N,/Panel Headers/POW.5V_HDR_11*%
X240462000Y-248031000D02*
X241541000Y-249695000D01*
D85*
X246968000Y-246650000D02*
X245431000Y-247494000D01*
X241540600Y-249695529D02*
X245431300Y-247493729D01*
D89*
X237535000Y-245704000D02*
X238811000Y-247853000D01*
X238811000Y-247853000D02*
X240462000Y-248031000D01*
D85*
%TO.N,Net-(U17-VBST)*%
X279019000Y-212446000D02*
X278921000Y-212621500D01*
X278822900Y-212719600D02*
X278822900Y-212796900D01*
X280059900Y-211323200D02*
X279730000Y-211861000D01*
X280060000Y-211323000D02*
X280059900Y-211323200D01*
X278921000Y-212621500D02*
X278823000Y-212797000D01*
X279730000Y-211861000D02*
X279019000Y-212446000D01*
X280060000Y-211323300D02*
X280059900Y-211323200D01*
X278921000Y-212621500D02*
X278822900Y-212719600D01*
%TO.N,Net-(U17-SW)*%
X278718000Y-210548000D02*
X278282000Y-211252000D01*
D88*
X273842000Y-211018000D02*
X276378000Y-212482000D01*
D85*
X276377800Y-212482000D02*
X276378000Y-212482000D01*
X278079000Y-211887000D02*
X277520000Y-212776000D01*
X278282000Y-211252000D02*
X278079000Y-211887000D01*
X276987000Y-212852000D02*
X276378000Y-212482000D01*
X273841800Y-211018000D02*
X273842000Y-211018000D01*
X276377700Y-212482100D02*
X276377800Y-212482000D01*
X277520000Y-212776000D02*
X276987000Y-212852000D01*
D89*
%TO.N,/Panel Headers/POW.5V_HDR_12*%
X267310000Y-207340000D02*
X265913000Y-207899000D01*
D85*
X271217000Y-204341000D02*
X268949000Y-208193000D01*
D89*
X268949000Y-208193000D02*
X267310000Y-207340000D01*
X265913000Y-207899000D02*
X263484000Y-206739000D01*
D85*
X272126000Y-202842000D02*
X271217000Y-204341000D01*
D86*
%TO.N,Net-(U6-VFB)*%
X273622200Y-154076000D02*
X275439000Y-154076000D01*
X284378000Y-154483000D02*
X284378000Y-158568000D01*
D85*
X282787100Y-159497000D02*
X282786900Y-159496800D01*
D86*
X283997000Y-154102000D02*
X284378000Y-154483000D01*
X275439000Y-154076000D02*
X275464000Y-154102000D01*
D85*
X273622200Y-154076400D02*
X273622200Y-154076000D01*
D86*
X283449000Y-159497000D02*
X282787100Y-159497000D01*
X284378000Y-158568000D02*
X283449000Y-159497000D01*
X273622000Y-154076000D02*
X273622200Y-154076000D01*
D85*
X275464400Y-154102000D02*
X275464200Y-154101800D01*
D86*
X275464000Y-154102000D02*
X275464400Y-154102000D01*
X275464400Y-154102000D02*
X283997000Y-154102000D01*
X282787100Y-159497000D02*
X282787000Y-159497000D01*
D85*
%TO.N,Net-(U7-VFB)*%
X250530600Y-108444700D02*
X250530700Y-108444700D01*
D86*
X260731000Y-108306000D02*
X260452000Y-108915000D01*
X260452000Y-108915000D02*
X260011000Y-109185500D01*
X257429000Y-104521000D02*
X258648000Y-104623000D01*
D85*
X259839700Y-109185500D02*
X259569700Y-109455500D01*
D86*
X260011000Y-109185500D02*
X259570000Y-109456000D01*
X258648000Y-104623000D02*
X260731000Y-108306000D01*
D85*
X250530700Y-108444700D02*
X250531000Y-108445000D01*
D86*
X250531000Y-108445000D02*
X257429000Y-104521000D01*
D85*
X260011000Y-109185500D02*
X259839700Y-109185500D01*
X248922700Y-109343700D02*
X248923000Y-109344000D01*
D86*
X248923000Y-109344000D02*
X250531000Y-108445000D01*
D85*
%TO.N,Net-(U8-VFB)*%
X211226000Y-74091800D02*
X214630000Y-75742800D01*
X214884000Y-76911200D02*
X214456400Y-77700500D01*
X214442400Y-77714500D02*
X214456400Y-77700500D01*
X210668000Y-74371200D02*
X211226000Y-74091800D01*
X206108900Y-80590000D02*
X206108900Y-81371200D01*
X205165900Y-82953700D02*
X205166000Y-82953700D01*
X214442400Y-77727100D02*
X214442400Y-77714500D01*
X206109000Y-81371200D02*
X207568200Y-79130700D01*
X205166000Y-82953700D02*
X206109000Y-81371200D01*
X214456400Y-77700500D02*
X214442000Y-77727100D01*
X207568200Y-79130700D02*
X210668000Y-74371200D01*
X207568200Y-79130700D02*
X206108900Y-80590000D01*
X214630000Y-75742800D02*
X214884000Y-76911200D01*
%TO.N,Net-(U9-VFB)*%
X154101800Y-80135800D02*
X154102000Y-80135800D01*
X154838000Y-71348600D02*
X154178000Y-72059800D01*
X159029000Y-71348600D02*
X154838000Y-71348600D01*
X159512000Y-71882000D02*
X159029000Y-71348600D01*
X159496800Y-72813100D02*
X159497000Y-72813100D01*
X154076400Y-81977800D02*
X154076000Y-81977800D01*
X154178000Y-72059800D02*
X154102000Y-80135800D01*
X159497000Y-72813100D02*
X159512000Y-71882000D01*
X154102000Y-80135800D02*
X154076000Y-81977800D01*
%TO.N,Net-(U10-VFB)*%
X108839000Y-95046800D02*
X108229000Y-95021400D01*
X104597000Y-97180400D02*
X104419000Y-98018600D01*
X108444900Y-105069400D02*
X108445100Y-105069200D01*
X109455900Y-96030100D02*
X108839000Y-95046800D01*
X109343700Y-106677300D02*
X109344000Y-106677000D01*
X108445000Y-105069000D02*
X108445100Y-105069200D01*
X109456000Y-96030300D02*
X109455900Y-96030100D01*
X109455500Y-96030300D02*
X109455700Y-96030300D01*
X108445100Y-105069200D02*
X109344000Y-106677000D01*
X108229000Y-95021400D02*
X104597000Y-97180400D01*
X104419000Y-98018600D02*
X108445000Y-105069000D01*
X109455700Y-96030300D02*
X109455900Y-96030100D01*
X108444700Y-105069400D02*
X108444900Y-105069400D01*
%TO.N,Net-(U11-VFB)*%
X81371200Y-149491000D02*
X74244200Y-145415000D01*
X77700400Y-141143500D02*
X77727100Y-141158000D01*
X74015600Y-144526000D02*
X76200000Y-140818000D01*
X81371200Y-149491100D02*
X81371200Y-149491000D01*
X76200000Y-140818000D02*
X76682600Y-140589000D01*
X82953700Y-150434100D02*
X82953700Y-150434000D01*
X76682600Y-140589000D02*
X77700400Y-141143500D01*
X82953700Y-150434000D02*
X81371200Y-149491000D01*
X77727100Y-141157600D02*
X77713000Y-141143500D01*
X77713000Y-141143500D02*
X77700400Y-141143500D01*
X74244200Y-145415000D02*
X74015600Y-144526000D01*
%TO.N,Net-(U12-VFB)*%
X81056800Y-201511000D02*
X80148600Y-201511000D01*
X71653400Y-196113000D02*
X71297800Y-196520000D01*
X81977800Y-201523600D02*
X81977800Y-201524000D01*
X80135800Y-201498000D02*
X81056800Y-201511000D01*
X71297800Y-200635000D02*
X71882000Y-201473000D01*
X81056800Y-201511000D02*
X81977800Y-201524000D01*
X71882000Y-201473000D02*
X80135800Y-201498000D01*
X71297800Y-196520000D02*
X71297800Y-200635000D01*
X80148600Y-201511000D02*
X80135800Y-201498200D01*
X72813100Y-196103200D02*
X72813100Y-196103000D01*
X72813100Y-196103000D02*
X71653400Y-196113000D01*
%TO.N,Net-(U13-VFB)*%
X105069000Y-247155000D02*
X97993200Y-251104000D01*
X97993200Y-251104000D02*
X96951800Y-250876000D01*
X105931300Y-246672900D02*
X105069200Y-247154900D01*
X105069200Y-247154900D02*
X105069000Y-247155000D01*
X96951800Y-250876000D02*
X94970600Y-247167000D01*
X96030100Y-246144300D02*
X96030100Y-246144100D01*
X96030300Y-246144500D02*
X96030100Y-246144300D01*
X105069400Y-247155300D02*
X105069200Y-247155100D01*
X96030100Y-246144100D02*
X96030300Y-246144000D01*
X95097600Y-246634000D02*
X96030100Y-246144100D01*
X106677000Y-246256000D02*
X105931300Y-246672900D01*
X94970600Y-247167000D02*
X95097600Y-246634000D01*
X105931300Y-246672900D02*
X106260700Y-246672900D01*
X106260700Y-246672900D02*
X106677300Y-246256300D01*
X105069200Y-247155100D02*
X105069200Y-247154900D01*
%TO.N,Net-(U14-VFB)*%
X150434000Y-272646300D02*
X150433900Y-272646200D01*
X140818000Y-279502000D02*
X144501000Y-281559000D01*
X140899000Y-278293500D02*
X140640000Y-278714000D01*
X145237000Y-281381000D02*
X149491000Y-274229000D01*
X150434100Y-272646300D02*
X150434000Y-272646300D01*
X140640000Y-278714000D02*
X140818000Y-279502000D01*
X141158000Y-277873000D02*
X140899000Y-278293500D01*
X150433900Y-272646200D02*
X150434000Y-272646000D01*
X140899000Y-278293500D02*
X141157600Y-278034900D01*
X141157600Y-278034900D02*
X141157600Y-277872900D01*
X149491100Y-274228900D02*
X149491000Y-274229000D01*
X144501000Y-281559000D02*
X145237000Y-281381000D01*
X149491000Y-274229000D02*
X150433900Y-272646200D01*
X149491100Y-274228800D02*
X149491100Y-274228900D01*
%TO.N,Net-(U15-VFB)*%
X196103100Y-282787000D02*
X196103000Y-282787000D01*
X201498200Y-275464200D02*
X201498000Y-275464200D01*
X201524000Y-273622200D02*
X201498000Y-275464000D01*
X201524000Y-273622000D02*
X201524000Y-273622200D01*
X201447000Y-283820000D02*
X200914000Y-284328000D01*
X201498000Y-275464000D02*
X201498000Y-275464200D01*
X196113000Y-283616000D02*
X196103000Y-282787000D01*
X196103200Y-282786900D02*
X196103100Y-282787000D01*
X200914000Y-284328000D02*
X196748000Y-284328000D01*
X201498000Y-275464200D02*
X201447000Y-283820000D01*
X201523600Y-273622200D02*
X201524000Y-273622200D01*
X196748000Y-284328000D02*
X196113000Y-283616000D01*
%TO.N,Net-(U16-VFB)*%
X246144000Y-259570000D02*
X246786000Y-260655000D01*
X246144300Y-259569700D02*
X246144000Y-259570000D01*
X247155000Y-250530900D02*
X247155000Y-250531000D01*
X247155300Y-250530600D02*
X247155000Y-250530900D01*
X247155000Y-250531000D02*
X246256000Y-248923000D01*
X246256300Y-248922700D02*
X246256000Y-248923000D01*
X246144500Y-259569700D02*
X246144300Y-259569700D01*
X251155000Y-258572000D02*
X251435000Y-257632000D01*
X247523000Y-260833000D02*
X251155000Y-258572000D01*
X251435000Y-257632000D02*
X247155000Y-250531000D01*
X246786000Y-260655000D02*
X247523000Y-260833000D01*
%TO.N,Net-(U17-VFB)*%
X279375000Y-214833000D02*
X281330000Y-211303000D01*
X272646200Y-205166100D02*
X272646000Y-205166000D01*
X272646200Y-205166000D02*
X272646200Y-205166100D01*
X277873000Y-214442000D02*
X277899900Y-214456900D01*
X277887400Y-214456900D02*
X277899900Y-214456900D01*
X273819300Y-205699400D02*
X274228800Y-206108900D01*
X277872900Y-214442400D02*
X277887400Y-214456900D01*
X273541400Y-205699400D02*
X273819300Y-205699400D01*
X281330000Y-211303000D02*
X281280000Y-210439000D01*
X277899900Y-214456900D02*
X278714000Y-214909000D01*
X278714000Y-214909000D02*
X279375000Y-214833000D01*
X281280000Y-210439000D02*
X274229000Y-206109000D01*
X273541400Y-205699400D02*
X272646200Y-205166100D01*
X274229000Y-206109000D02*
X273541400Y-205699400D01*
X272646300Y-205165900D02*
X272646200Y-205166000D01*
%TD*%
M02*
