M48
; DRILL file {KiCad 7.0.10-7.0.10~ubuntu22.04.1} date Thu 03 Oct 2024 01:21:02 PM PDT
; FORMAT={-:-/ absolute / inch / decimal}
; #@! TF.CreationDate,2024-10-03T13:21:02-07:00
; #@! TF.GenerationSoftware,Kicad,Pcbnew,7.0.10-7.0.10~ubuntu22.04.1
; #@! TF.FileFunction,Plated,1,6,PTH
FMAT,2
INCH
; #@! TA.AperFunction,Plated,PTH,ViaDrill
T1C0.0118
; #@! TA.AperFunction,Plated,PTH,ViaDrill
T2C0.0236
; #@! TA.AperFunction,Plated,PTH,ComponentDrill
T3C0.0315
; #@! TA.AperFunction,Plated,PTH,ComponentDrill
T4C0.0400
; #@! TA.AperFunction,Plated,PTH,ComponentDrill
T5C0.0630
; #@! TA.AperFunction,Plated,PTH,ComponentDrill
T6C0.0700
; #@! TA.AperFunction,Plated,PTH,ComponentDrill
T7C0.1060
; #@! TA.AperFunction,Plated,PTH,ComponentDrill
T8C0.1063
; #@! TA.AperFunction,Plated,PTH,ComponentDrill
T9C0.1240
; #@! TA.AperFunction,Plated,PTH,ComponentDrill
T10C0.1772
%
G90
G05
T1
X3.08Y-5.95
X3.082Y-8.049
X3.595Y-6.579
X3.605Y-6.613
X3.612Y-6.468
X3.6195Y-6.502
X3.636Y-11.324
X3.648Y-8.436
X3.669Y-9.472
X3.6714Y-6.7625
X3.683Y-8.4331
X3.6975Y-6.887
X3.698Y-6.742
X3.7019Y-9.4566
X3.717Y-6.227
X3.7231Y-6.919
X3.7232Y-6.9671
X3.75Y-6.228
X3.759Y-10.047
X3.788Y-11.3241
X3.789Y-11.121
X3.7904Y-10.032
X3.791Y-5.689
X3.799Y-5.728
X3.801Y-6.083
X3.8319Y-6.0569
X3.841Y-10.096
X3.858Y-7.999
X3.876Y-10.097
X3.8817Y-8.0227
X3.8912Y-8.1883
X3.894Y-8.233
X3.9147Y-11.253
X3.928Y-10.155
X3.944Y-11.233
X3.951Y-8.097
X3.962Y-10.155
X3.991Y-8.094
X4.012Y-10.244
X4.012Y-11.405
X4.045Y-10.245
X4.048Y-11.396
X4.0669Y-8.6958
X4.07Y-8.654
X4.123Y-11.12
X4.126Y-11.3247
X4.13Y-4.132
X4.131Y-9.867
X4.154Y-10.2786
X4.154Y-10.312
X4.158Y-11.121
X4.1811Y-10.5009
X4.21Y-10.4783
X4.241Y-8.499
X4.273Y-8.521
X4.28Y-11.326
X4.319Y-11.326
X4.365Y-10.874
X4.367Y-10.841
X4.4538Y-8.9398
X4.467Y-4.795
X4.467Y-4.986
X4.491Y-8.941
X4.492Y-9.088
X4.504Y-4.808
X4.51Y-4.985
X4.51Y-9.126
X4.538Y-4.957
X4.551Y-11.33
X4.645Y-11.266
X4.6645Y-11.2385
X4.699Y-11.328
X4.702Y-11.124
X4.8086Y-11.2774
X4.832Y-11.305
X4.8366Y-11.0616
X4.859Y-11.0876
X4.868Y-11.333
X4.869Y-10.789
X4.89Y-10.816
X4.907Y-11.332
X4.9207Y-11.1987
X4.922Y-11.12
X4.925Y-11.158
X4.997Y-11.032
X5.034Y-11.034
X5.037Y-11.123
X5.037Y-11.3273
X5.073Y-11.1229
X5.11Y-4.373
X5.142Y-4.391
X5.181Y-11.2954
X5.187Y-11.327
X5.2395Y-9.7887
X5.24Y-4.238
X5.2461Y-9.642
X5.264Y-9.767
X5.269Y-4.262
X5.273Y-9.617
X5.293Y-4.234
X5.394Y-11.124
X5.433Y-11.125
X5.4641Y-9.86
X5.486Y-9.8344
X5.4901Y-10.9289
X5.499Y-10.812
X5.5306Y-10.7985
X5.538Y-10.931
X5.666Y-9.828
X5.683Y-10.8986
X5.688Y-9.8012
X5.716Y-10.871
X5.72Y-10.908
X5.9022Y-9.9685
X5.926Y-9.996
X5.949Y-10.917
X5.953Y-3.082
X5.9927Y-4.0044
X5.994Y-3.97
X6.0416Y-11.0268
X6.0586Y-10.0309
X6.062Y-10.264
X6.0721Y-10.304
X6.073Y-11.011
X6.0978Y-10.2738
X6.103Y-10.0308
X6.1114Y-10.5396
X6.1138Y-10.5048
X6.1144Y-10.3462
X6.1252Y-10.0052
X6.144Y-10.364
X6.25Y-11.125
X6.262Y-10.299
X6.272Y-10.392
X6.276Y-11.333
X6.2829Y-11.1119
X6.292Y-10.313
X6.311Y-11.332
X6.3118Y-10.4221
X6.319Y-10.387
X6.463Y-10.9813
X6.464Y-11.3307
X6.466Y-11.126
X6.502Y-10.982
X6.547Y-10.0454
X6.574Y-10.071
X6.5906Y-11.107
X6.593Y-11.151
X6.6149Y-11.2539
X6.626Y-11.288
X6.654Y-11.305
X6.6546Y-10.613
X6.684Y-11.285
X6.688Y-11.3364
X6.6886Y-11.1446
X6.691Y-10.641
X6.691Y-11.18
X6.694Y-10.604
X6.731Y-10.611
X6.769Y-10.195
X6.774Y-11.0903
X6.8Y-10.2011
X6.803Y-11.3298
X6.808Y-11.124
X6.812Y-11.0903
X6.825Y-10.613
X6.8425Y-11.0661
X6.844Y-10.7165
X6.867Y-10.617
X6.873Y-10.689
X6.884Y-10.074
X6.9Y-10.1049
X6.915Y-10.6908
X6.917Y-10.974
X6.936Y-11.001
X6.957Y-11.328
X6.9669Y-11.2959
X6.979Y-3.8481
X6.98Y-3.816
X6.988Y-10.9
X7.023Y-10.905
X7.0249Y-11.1709
X7.029Y-11.2026
X7.066Y-11.175
X7.117Y-10.997
X7.151Y-10.9996
X7.174Y-10.9
X7.187Y-11.001
X7.194Y-10.8746
X7.1998Y-10.712
X7.219Y-10.682
X7.2966Y-10.878
X7.309Y-11.148
X7.311Y-10.116
X7.3221Y-10.9017
X7.3324Y-10.4174
X7.347Y-10.1227
X7.349Y-10.8746
X7.358Y-11.257
X7.3681Y-10.4201
X7.447Y-11.318
X7.499Y-10.059
X7.532Y-10.0334
X7.562Y-10.765
X7.562Y-11.184
X7.576Y-10.0334
X7.592Y-10.777
X7.593Y-11.206
X7.6027Y-10.896
X7.605Y-11.318
X7.616Y-11.285
X7.618Y-10.0334
X7.6476Y-10.4656
X7.6623Y-10.0386
X7.844Y-11.298
X7.856Y-9.973
X7.8665Y-11.3215
X7.8905Y-9.9765
X7.9362Y-10.1701
X7.9659Y-11.2932
X7.972Y-10.17
X8.002Y-11.285
X8.007Y-3.899
X8.018Y-9.974
X8.024Y-10.401
X8.026Y-11.197
X8.033Y-3.929
X8.0504Y-10.3816
X8.052Y-3.083
X8.0548Y-9.9734
X8.056Y-3.817
X8.06Y-10.172
X8.0611Y-11.1611
X8.067Y-11.198
X8.078Y-10.597
X8.0786Y-9.9469
X8.086Y-10.142
X8.0875Y-3.8481
X8.094Y-3.972
X8.098Y-10.893
X8.105Y-11.17
X8.109Y-9.92
X8.112Y-10.585
X8.1202Y-11.134
X8.128Y-3.9725
X8.142Y-10.608
X8.149Y-9.9222
X8.202Y-11.397
X8.222Y-11.425
X8.256Y-11.2493
X8.264Y-11.3126
X8.273Y-11.217
X8.278Y-10.559
X8.278Y-10.592
X8.293Y-11.331
X8.3133Y-9.9078
X8.325Y-9.851
X8.341Y-9.88
X8.381Y-9.853
X8.387Y-10.84
X8.3884Y-4.0273
X8.401Y-10.81
X8.4101Y-9.9222
X8.433Y-4.024
X8.446Y-9.8974
X8.4688Y-9.7378
X8.492Y-9.8955
X8.506Y-10.726
X8.507Y-9.74
X8.5297Y-10.7507
X8.598Y-10.516
X8.6255Y-10.5334
X8.667Y-4.3207
X8.67Y-10.683
X8.69Y-10.766
X8.698Y-10.705
X8.7Y-10.803
X8.71Y-4.317
X8.717Y-11.327
X8.719Y-11.22
X8.7191Y-9.7648
X8.7448Y-9.551
X8.751Y-9.733
X8.751Y-11.195
X8.767Y-9.52
X8.782Y-11.219
X8.7894Y-9.7324
X8.821Y-11.198
X8.824Y-10.405
X8.829Y-10.053
X8.832Y-10.085
X8.843Y-11.146
X8.8589Y-10.4058
X8.859Y-11.198
X8.874Y-11.3264
X8.875Y-11.122
X8.975Y-4.378
X8.994Y-11.156
X8.9942Y-11.275
X9.012Y-4.381
X9.014Y-11.306
X9.015Y-4.3455
X9.021Y-11.18
X9.04Y-11.209
X9.047Y-11.322
X9.05Y-9.482
X9.054Y-4.415
X9.0554Y-4.3792
X9.084Y-11.306
X9.088Y-9.4546
X9.094Y-4.413
X9.094Y-4.449
X9.1101Y-11.2805
X9.1113Y-11.334
X9.1296Y-4.4633
X9.13Y-11.059
X9.16Y-11.071
X9.1737Y-9.4077
X9.179Y-9.234
X9.187Y-9.375
X9.2087Y-9.2053
X9.218Y-11.122
X9.218Y-11.3262
X9.218Y-11.081
X9.2192Y-9.3704
X9.2253Y-11.2505
X9.2337Y-11.2821
X9.249Y-11.053
X9.29Y-9.328
X9.298Y-9.261
X9.301Y-9.296
X9.3096Y-9.355
X9.3344Y-9.2537
X9.36Y-11.265
X9.365Y-11.192
X9.365Y-11.227
X9.367Y-11.325
X9.3875Y-11.0755
X9.3882Y-9.0416
X9.41Y-11.098
X9.4286Y-9.0236
X9.4605Y-8.9915
X9.5511Y-4.9195
X9.5512Y-4.9558
X9.555Y-8.727
X9.5857Y-8.7097
X9.601Y-8.874
X9.6324Y-8.8608
X9.635Y-11.326
X9.642Y-5.099
X9.6439Y-5.0503
X9.6867Y-5.1293
X9.6966Y-5.1744
X9.7261Y-5.2039
X9.769Y-10.298
X9.772Y-10.265
X9.784Y-11.3253
X9.785Y-11.12
X9.853Y-10.4
X9.869Y-4.135
X9.869Y-9.867
X9.87Y-5.427
X9.8722Y-5.3893
X9.886Y-10.419
X9.898Y-10.132
X9.9266Y-10.11
X9.956Y-9.131
X9.968Y-9.163
X9.988Y-10.434
X10.011Y-10.235
X10.015Y-10.4514
X10.0197Y-10.271
X10.04Y-8.287
X10.0471Y-10.223
X10.0535Y-9.8705
X10.0646Y-8.2115
X10.066Y-8.254
X10.0757Y-10.2738
X10.0806Y-9.843
X10.091Y-8.095
X10.1099Y-10.3099
X10.1144Y-10.2694
X10.1209Y-8.0729
X10.123Y-11.12
X10.124Y-11.3247
X10.129Y-11.395
X10.1295Y-11.3617
X10.146Y-11.087
X10.1761Y-9.9851
X10.2086Y-9.9586
X10.2386Y-7.629
X10.2398Y-7.1
X10.2404Y-7.681
X10.268Y-7.054
X10.296Y-11.326
X10.2978Y-7.0779
X10.3035Y-9.567
X10.3275Y-9.5065
X10.335Y-9.545
X10.36Y-9.801
X10.3678Y-9.8356
X10.387Y-7.632
X10.4012Y-11.153
X10.414Y-7.6057
X10.432Y-11.122
X10.4519Y-11.087
X10.547Y-8.879
X10.554Y-10.551
X10.5863Y-8.8843
X10.593Y-10.55
X10.6Y-9.23
X10.6263Y-10.55
X10.6333Y-9.2293
X10.8534Y-10.4295
X10.883Y-9.217
X10.886Y-10.409
X10.898Y-9.245
X10.917Y-8.053
X10.918Y-5.955
X11.077Y-8.533
X11.08Y-8.182
X11.081Y-9.537
X11.082Y-8.879
X11.082Y-9.771
X11.083Y-9.07
X11.083Y-9.275
X11.197Y-4.697
X11.36Y-4.92
X11.3637Y-5.1554
X11.398Y-5.156
T2
X3.084Y-7.884
X3.167Y-5.806
X3.3Y-7.883
X3.35Y-5.91
X4.05Y-9.724
X4.238Y-9.613
X4.279Y-4.05
X4.384Y-4.235
X5.806Y-10.835
X5.914Y-10.647
X6.116Y-3.083
X6.117Y-3.298
X7.884Y-10.698
X7.884Y-10.918
X8.062Y-10.918
X8.088Y-3.352
X8.195Y-3.168
X9.612Y-9.76
X9.722Y-9.949
X9.766Y-4.383
X9.949Y-4.278
X10.646Y-8.087
X10.702Y-6.126
X10.834Y-8.192
X10.919Y-6.119
T3
X11.1375Y-8.225
X11.1375Y-8.325
X11.1375Y-8.425
X11.1375Y-8.525
X11.1375Y-8.625
X11.1375Y-8.725
X11.1375Y-8.825
X11.1375Y-8.925
X11.1375Y-9.025
X11.1375Y-9.125
X11.1375Y-9.225
X11.1375Y-9.325
X11.1375Y-9.425
X11.1375Y-9.525
X11.1375Y-9.625
X11.1375Y-9.725
X11.1375Y-9.825
X11.2125Y-8.175
X11.2125Y-8.275
X11.2125Y-8.375
X11.2125Y-8.475
X11.2125Y-8.575
X11.2125Y-8.675
X11.2125Y-8.775
X11.2125Y-8.875
X11.2125Y-8.975
X11.2125Y-9.075
X11.2125Y-9.175
X11.2125Y-9.275
X11.2125Y-9.375
X11.2125Y-9.475
X11.2125Y-9.575
X11.2125Y-9.675
X11.2125Y-9.775
X11.2875Y-8.225
X11.2875Y-8.325
X11.2875Y-8.425
X11.2875Y-8.525
X11.2875Y-8.625
X11.2875Y-8.725
X11.2875Y-8.825
X11.2875Y-8.925
X11.2875Y-9.025
X11.2875Y-9.125
X11.2875Y-9.225
X11.2875Y-9.325
X11.2875Y-9.425
X11.2875Y-9.525
X11.2875Y-9.625
X11.2875Y-9.725
X11.2875Y-9.825
X11.3625Y-8.175
X11.3625Y-8.275
X11.3625Y-8.375
X11.3625Y-8.475
X11.3625Y-8.575
X11.3625Y-8.675
X11.3625Y-8.775
X11.3625Y-8.875
X11.3625Y-8.975
X11.3625Y-9.075
X11.3625Y-9.175
X11.3625Y-9.275
X11.3625Y-9.375
X11.3625Y-9.475
X11.3625Y-9.575
X11.3625Y-9.675
X11.3625Y-9.775
T4
X3.5089Y-6.3
X3.5089Y-6.4
X3.5089Y-6.5
X3.5089Y-6.6
X3.5089Y-6.7
X3.5089Y-6.8
X3.5089Y-6.9
X3.5089Y-7.0
X3.5089Y-7.1
X3.5089Y-7.2
X3.5089Y-7.3
X3.5089Y-7.4
X3.5089Y-7.5
X3.5089Y-7.6
X3.5089Y-7.7
X3.6266Y-5.8607
X3.6266Y-8.1393
X3.6766Y-5.7741
X3.6766Y-8.2259
X3.7266Y-5.6875
X3.7266Y-8.3125
X3.7766Y-5.6009
X3.7766Y-8.3991
X3.8266Y-5.5143
X3.8266Y-8.4857
X3.8766Y-5.4277
X3.8766Y-8.5723
X3.9266Y-5.3411
X3.9266Y-8.6589
X3.9766Y-5.2544
X3.9766Y-8.7456
X4.0266Y-5.1678
X4.0266Y-8.8322
X4.0766Y-5.0812
X4.0766Y-8.9188
X4.1266Y-4.9946
X4.1266Y-9.0054
X4.1766Y-4.908
X4.1766Y-9.092
X4.2266Y-4.8214
X4.2266Y-9.1786
X4.2766Y-4.7348
X4.2766Y-9.2652
X4.3266Y-4.6482
X4.3266Y-9.3518
X4.6482Y-4.3266
X4.6482Y-9.6734
X4.7348Y-4.2766
X4.7348Y-9.7234
X4.8214Y-4.2266
X4.8214Y-9.7734
X4.908Y-4.1766
X4.908Y-9.8234
X4.9946Y-4.1266
X4.9946Y-9.8734
X5.0812Y-4.0766
X5.0812Y-9.9234
X5.1678Y-4.0266
X5.1678Y-9.9734
X5.2544Y-3.9766
X5.2544Y-10.0234
X5.3411Y-3.9266
X5.3411Y-10.0734
X5.4277Y-3.8766
X5.4277Y-10.1234
X5.5143Y-3.8266
X5.5143Y-10.1734
X5.6009Y-3.7766
X5.6009Y-10.2234
X5.6875Y-3.7266
X5.6875Y-10.2734
X5.7741Y-3.6766
X5.7741Y-10.3234
X5.8607Y-3.6266
X5.8607Y-10.3734
X6.3Y-3.5089
X6.3Y-10.4911
X6.4Y-3.5089
X6.4Y-10.4911
X6.5Y-3.5089
X6.5Y-10.4911
X6.6Y-3.5089
X6.6Y-10.4911
X6.7Y-3.5089
X6.7Y-10.4911
X6.8Y-3.5089
X6.8Y-10.4911
X6.9Y-3.5089
X6.9Y-10.4911
X7.0Y-3.5089
X7.0Y-10.4911
X7.1Y-3.5089
X7.1Y-10.4911
X7.2Y-3.5089
X7.2Y-10.4911
X7.3Y-3.5089
X7.3Y-10.4911
X7.4Y-3.5089
X7.4Y-10.4911
X7.5Y-3.5089
X7.5Y-10.4911
X7.6Y-3.5089
X7.6Y-10.4911
X7.7Y-3.5089
X7.7Y-10.4911
X8.1393Y-3.6266
X8.1393Y-10.3734
X8.2259Y-3.6766
X8.2259Y-10.3234
X8.3125Y-3.7266
X8.3125Y-10.2734
X8.3991Y-3.7766
X8.3991Y-10.2234
X8.4857Y-3.8266
X8.4857Y-10.1734
X8.5723Y-3.8766
X8.5723Y-10.1234
X8.6589Y-3.9266
X8.6589Y-10.0734
X8.7456Y-3.9766
X8.7456Y-10.0234
X8.8322Y-4.0266
X8.8322Y-9.9734
X8.9188Y-4.0766
X8.9188Y-9.9234
X9.0054Y-4.1266
X9.0054Y-9.8734
X9.092Y-4.1766
X9.092Y-9.8234
X9.1786Y-4.2266
X9.1786Y-9.7734
X9.2652Y-4.2766
X9.2652Y-9.7234
X9.3518Y-4.3266
X9.3518Y-9.6734
X9.6734Y-4.6482
X9.6734Y-9.3518
X9.7234Y-4.7348
X9.7234Y-9.2652
X9.7734Y-4.8214
X9.7734Y-9.1786
X9.8234Y-4.908
X9.8234Y-9.092
X9.8734Y-4.9946
X9.8734Y-9.0054
X9.9234Y-5.0812
X9.9234Y-8.9188
X9.9734Y-5.1678
X9.9734Y-8.8322
X10.0234Y-5.2544
X10.0234Y-8.7456
X10.0734Y-5.3411
X10.0734Y-8.6589
X10.1234Y-5.4277
X10.1234Y-8.5723
X10.1734Y-5.5143
X10.1734Y-8.4857
X10.2234Y-5.6009
X10.2234Y-8.3991
X10.2734Y-5.6875
X10.2734Y-8.3125
X10.3234Y-5.7741
X10.3234Y-8.2259
X10.3734Y-5.8607
X10.3734Y-8.1393
X10.4911Y-6.3
X10.4911Y-6.4
X10.4911Y-6.5
X10.4911Y-6.6
X10.4911Y-6.7
X10.4911Y-6.8
X10.4911Y-6.9
X10.4911Y-7.0
X10.4911Y-7.1
X10.4911Y-7.2
X10.4911Y-7.3
X10.4911Y-7.4
X10.4911Y-7.5
X10.4911Y-7.6
X10.4911Y-7.7
T5
X11.379Y-3.623
T6
X11.2Y-4.226
X11.2Y-4.413
X11.2Y-4.6
T7
X11.261Y-3.623
X11.3Y-3.446
X11.3Y-3.8
T8
X11.25Y-7.86
X11.25Y-10.14
T9
X11.025Y-3.623
T10
X3.0Y-3.0
X3.0Y-11.0
X11.0Y-3.0
X11.0Y-11.0
X11.25Y-7.5
X11.25Y-10.5
M30
