M48
; DRILL file {KiCad 7.0.10-7.0.10~ubuntu22.04.1} date Fri 27 Sep 2024 12:09:41 PM PDT
; FORMAT={-:-/ absolute / inch / decimal}
; #@! TF.CreationDate,2024-09-27T12:09:41-07:00
; #@! TF.GenerationSoftware,Kicad,Pcbnew,7.0.10-7.0.10~ubuntu22.04.1
; #@! TF.FileFunction,Plated,1,6,PTH
FMAT,2
INCH
; #@! TA.AperFunction,Plated,PTH,ViaDrill
T1C0.0118
; #@! TA.AperFunction,Plated,PTH,ViaDrill
T2C0.0236
; #@! TA.AperFunction,Plated,PTH,ComponentDrill
T3C0.0315
; #@! TA.AperFunction,Plated,PTH,ComponentDrill
T4C0.0400
; #@! TA.AperFunction,Plated,PTH,ComponentDrill
T5C0.0630
; #@! TA.AperFunction,Plated,PTH,ComponentDrill
T6C0.0700
; #@! TA.AperFunction,Plated,PTH,ComponentDrill
T7C0.1060
; #@! TA.AperFunction,Plated,PTH,ComponentDrill
T8C0.1063
; #@! TA.AperFunction,Plated,PTH,ComponentDrill
T9C0.1240
; #@! TA.AperFunction,Plated,PTH,ComponentDrill
T10C0.1772
%
G90
G05
T1
X3.08Y-5.95
X3.082Y-8.049
X3.636Y-11.324
X3.76Y-7.442
X3.788Y-11.3241
X3.789Y-11.121
X3.7967Y-7.45
X3.8179Y-5.8315
X3.824Y-5.874
X3.824Y-6.174
X3.84Y-9.975
X3.856Y-6.152
X3.877Y-9.9734
X3.88Y-7.878
X3.909Y-7.8474
X3.956Y-7.654
X3.9605Y-7.7029
X3.988Y-7.6851
X4.0166Y-8.5824
X4.0186Y-8.6181
X4.03Y-8.37
X4.0747Y-8.3615
X4.1072Y-8.2935
X4.112Y-8.248
X4.123Y-11.12
X4.126Y-11.3247
X4.1263Y-8.4435
X4.13Y-4.132
X4.131Y-9.867
X4.156Y-8.418
X4.158Y-11.12
X4.1813Y-8.59
X4.214Y-8.62
X4.2216Y-5.2874
X4.242Y-5.318
X4.28Y-11.326
X4.344Y-10.224
X4.3585Y-8.8226
X4.368Y-8.784
X4.3811Y-10.2234
X4.436Y-5.014
X4.444Y-4.976
X4.466Y-8.786
X4.504Y-8.814
X4.531Y-10.962
X4.548Y-11.135
X4.551Y-11.33
X4.5654Y-10.9555
X4.572Y-11.11
X4.578Y-4.838
X4.6089Y-4.8083
X4.6091Y-11.0919
X4.628Y-10.37
X4.6284Y-10.327
X4.638Y-10.506
X4.638Y-10.654
X4.6536Y-10.47
X4.6637Y-10.6265
X4.666Y-10.674
X4.676Y-11.223
X4.677Y-11.264
X4.6912Y-4.7703
X4.692Y-4.81
X4.699Y-11.328
X4.702Y-11.124
X4.7021Y-11.2916
X4.7048Y-10.2956
X4.7155Y-10.2593
X4.748Y-10.284
X4.7976Y-9.3067
X4.8173Y-11.2505
X4.8184Y-11.062
X4.832Y-11.282
X4.838Y-9.304
X4.8499Y-9.4082
X4.854Y-11.068
X4.8877Y-9.4399
X4.894Y-9.396
X4.8982Y-11.1705
X4.93Y-11.158
X4.9302Y-9.551
X4.9362Y-9.3082
X4.96Y-9.53
X4.972Y-9.298
X5.0Y-9.6659
X5.026Y-9.64
X5.037Y-11.123
X5.037Y-11.3273
X5.054Y-4.446
X5.066Y-4.482
X5.073Y-11.123
X5.187Y-11.327
X5.2852Y-4.1518
X5.34Y-4.144
X5.3744Y-4.1064
X5.376Y-9.734
X5.408Y-9.766
X5.4702Y-4.0294
X5.5033Y-4.0103
X5.516Y-11.26
X5.538Y-4.032
X5.5389Y-11.2359
X5.5489Y-9.8516
X5.586Y-9.878
X5.6147Y-9.9146
X5.6207Y-4.068
X5.638Y-4.034
X5.818Y-10.272
X5.854Y-3.946
X5.87Y-3.978
X5.949Y-10.917
X5.953Y-3.082
X6.0073Y-10.3535
X6.0122Y-10.3854
X6.042Y-10.0024
X6.052Y-10.358
X6.094Y-9.996
X6.1172Y-10.7832
X6.128Y-10.0284
X6.144Y-10.808
X6.1591Y-10.7711
X6.1812Y-10.4233
X6.192Y-10.456
X6.232Y-10.282
X6.244Y-10.3213
X6.311Y-11.332
X6.346Y-10.296
X6.38Y-10.0524
X6.4Y-10.2958
X6.404Y-10.02
X6.4218Y-10.1654
X6.4485Y-11.1681
X6.46Y-10.146
X6.464Y-11.3307
X6.466Y-11.126
X6.4851Y-11.0202
X6.518Y-11.046
X6.5735Y-11.3039
X6.5809Y-11.3359
X6.582Y-10.078
X6.61Y-11.302
X6.6106Y-11.2626
X6.616Y-10.058
X6.6632Y-11.3244
X6.668Y-10.124
X6.678Y-11.4059
X6.692Y-11.292
X6.6925Y-10.1582
X6.6997Y-11.2494
X6.7Y-11.378
X6.758Y-10.846
X6.782Y-10.058
X6.786Y-10.1104
X6.8028Y-10.8198
X6.803Y-11.3298
X6.808Y-11.124
X6.8258Y-10.0848
X6.834Y-10.736
X6.844Y-11.125
X6.871Y-11.1037
X6.875Y-10.7272
X6.902Y-3.36
X6.9098Y-10.2049
X6.9326Y-10.9998
X6.9453Y-3.3636
X6.957Y-11.328
X6.958Y-10.208
X6.9784Y-10.98
X6.99Y-10.552
X7.026Y-10.9417
X7.0297Y-10.5368
X7.048Y-10.998
X7.114Y-10.9404
X7.118Y-3.824
X7.1276Y-11.1202
X7.146Y-11.0153
X7.152Y-3.806
X7.158Y-11.138
X7.188Y-3.778
X7.2044Y-10.9443
X7.27Y-10.058
X7.3078Y-10.0652
X7.309Y-11.148
X7.322Y-10.728
X7.35Y-10.7025
X7.358Y-11.257
X7.36Y-10.1116
X7.3915Y-10.2725
X7.4Y-10.1116
X7.42Y-10.252
X7.447Y-11.318
X7.5558Y-10.7281
X7.562Y-11.184
X7.5756Y-10.7537
X7.5825Y-10.0302
X7.598Y-11.184
X7.601Y-10.734
X7.602Y-10.859
X7.6022Y-10.8965
X7.604Y-9.998
X7.605Y-11.318
X7.622Y-10.759
X7.6405Y-10.0155
X7.6452Y-10.5472
X7.757Y-10.02
X7.7948Y-10.0203
X7.797Y-3.811
X7.8166Y-10.7713
X7.817Y-10.737
X7.845Y-3.813
X7.8967Y-9.9673
X7.939Y-9.967
X8.0249Y-10.444
X8.046Y-10.482
X8.052Y-3.083
X8.0773Y-10.0274
X8.0861Y-9.8876
X8.1194Y-9.9996
X8.125Y-9.8876
X8.182Y-9.942
X8.1971Y-9.913
X8.2598Y-10.0357
X8.288Y-10.006
X8.294Y-9.79
X8.324Y-9.818
X8.4199Y-9.7669
X8.4342Y-9.8191
X8.446Y-9.732
X8.4905Y-4.2375
X8.531Y-4.23
X8.5466Y-9.7395
X8.572Y-9.702
X8.579Y-11.332
X8.6029Y-9.6326
X8.608Y-9.682
X8.615Y-11.32
X8.6551Y-11.3121
X8.717Y-11.327
X8.7195Y-9.7895
X8.752Y-9.752
X8.7777Y-9.5203
X8.778Y-10.26
X8.8065Y-10.2825
X8.818Y-9.492
X8.8409Y-11.11
X8.8665Y-4.4356
X8.874Y-11.3264
X8.875Y-11.087
X8.875Y-11.122
X8.8842Y-11.2423
X8.895Y-4.467
X8.9696Y-9.569
X8.9857Y-11.2167
X8.9887Y-11.1751
X8.992Y-4.4589
X8.994Y-11.1264
X9.016Y-9.524
X9.018Y-11.152
X9.018Y-11.197
X9.029Y-4.492
X9.0381Y-11.2876
X9.0533Y-9.4843
X9.057Y-11.315
X9.064Y-10.74
X9.073Y-4.491
X9.0823Y-10.7111
X9.1059Y-10.984
X9.133Y-9.297
X9.14Y-10.984
X9.1517Y-10.4635
X9.1607Y-9.3307
X9.178Y-9.294
X9.182Y-9.146
X9.1861Y-9.1859
X9.188Y-10.466
X9.218Y-11.122
X9.218Y-11.3262
X9.22Y-10.408
X9.242Y-9.234
X9.256Y-10.39
X9.256Y-11.123
X9.264Y-10.35
X9.2868Y-9.3068
X9.2936Y-10.4969
X9.302Y-10.464
X9.321Y-9.275
X9.34Y-10.458
X9.367Y-11.325
X9.369Y-10.7961
X9.372Y-10.748
X9.384Y-9.218
X9.406Y-4.828
X9.4125Y-9.1926
X9.4343Y-4.7997
X9.494Y-8.984
X9.5111Y-10.9687
X9.517Y-4.96
X9.5263Y-8.9577
X9.5343Y-4.6967
X9.5364Y-4.9316
X9.54Y-10.982
X9.559Y-4.67
X9.575Y-11.245
X9.5807Y-8.6826
X9.6Y-11.2158
X9.614Y-8.7
X9.6276Y-11.0816
X9.635Y-11.326
X9.6409Y-5.0779
X9.644Y-5.125
X9.646Y-8.551
X9.646Y-11.114
X9.6629Y-11.2508
X9.666Y-11.085
X9.669Y-5.203
X9.6779Y-8.5293
X9.68Y-5.16
X9.692Y-11.1396
X9.704Y-11.25
X9.7041Y-10.8383
X9.707Y-5.225
X9.74Y-10.84
X9.7444Y-11.2504
X9.7824Y-11.1727
X9.784Y-11.3253
X9.785Y-11.12
X9.829Y-9.43
X9.8413Y-11.4021
X9.861Y-5.469
X9.865Y-9.4187
X9.869Y-4.135
X9.869Y-9.867
X9.87Y-11.426
X9.875Y-9.288
X9.892Y-5.457
X9.8975Y-9.315
X9.997Y-9.504
X10.005Y-10.345
X10.006Y-10.004
X10.0235Y-10.3742
X10.0259Y-10.0299
X10.042Y-9.505
X10.0698Y-10.7232
X10.075Y-10.84
X10.0969Y-10.8123
X10.0977Y-9.6295
X10.105Y-10.725
X10.123Y-11.12
X10.124Y-11.3247
X10.134Y-9.636
X10.1437Y-11.1719
X10.1488Y-6.094
X10.1554Y-11.105
X10.178Y-8.278
X10.181Y-6.116
X10.1847Y-10.3186
X10.185Y-11.17
X10.195Y-10.35
X10.2098Y-8.2555
X10.267Y-7.158
X10.2743Y-10.538
X10.278Y-7.118
X10.292Y-11.288
X10.296Y-11.326
X10.306Y-7.16
X10.3125Y-9.8735
X10.314Y-9.913
X10.315Y-10.465
X10.322Y-10.512
X10.329Y-7.271
X10.3323Y-9.49
X10.3344Y-9.528
X10.343Y-7.234
X10.346Y-11.208
X10.3493Y-10.7341
X10.3679Y-7.2791
X10.3797Y-9.765
X10.386Y-8.564
X10.388Y-11.212
X10.39Y-10.735
X10.3928Y-8.599
X10.406Y-9.787
X10.574Y-9.622
X10.5984Y-9.6456
X10.64Y-10.645
X10.6457Y-11.0611
X10.6538Y-10.6118
X10.6542Y-9.1304
X10.6593Y-10.5727
X10.6721Y-11.0221
X10.684Y-11.059
X10.69Y-9.13
X10.694Y-11.222
X10.7336Y-11.2216
X10.74Y-11.178
X10.7636Y-10.6771
X10.765Y-10.72
X10.765Y-10.76
X10.7919Y-8.993
X10.812Y-9.02
X10.8429Y-10.73
X10.8685Y-10.7589
X10.8844Y-8.7771
X10.906Y-8.804
X10.917Y-8.053
X10.918Y-5.955
X11.0079Y-10.5095
X11.026Y-8.592
X11.04Y-10.54
X11.0624Y-8.5625
X11.072Y-10.212
X11.1079Y-10.2271
X11.36Y-4.92
X11.3637Y-5.1554
X11.399Y-5.154
T2
X3.084Y-7.884
X3.167Y-5.806
X3.3Y-7.883
X3.35Y-5.91
X4.05Y-9.724
X4.238Y-9.613
X4.279Y-4.05
X4.384Y-4.235
X5.806Y-10.835
X5.914Y-10.647
X6.116Y-3.083
X6.117Y-3.298
X7.884Y-10.698
X7.884Y-10.918
X8.062Y-10.918
X8.088Y-3.352
X8.195Y-3.168
X9.612Y-9.76
X9.722Y-9.949
X9.766Y-4.383
X9.949Y-4.278
X10.646Y-8.087
X10.702Y-6.126
X10.834Y-8.192
X10.919Y-6.119
T3
X11.1375Y-8.225
X11.1375Y-8.325
X11.1375Y-8.425
X11.1375Y-8.525
X11.1375Y-8.625
X11.1375Y-8.725
X11.1375Y-8.825
X11.1375Y-8.925
X11.1375Y-9.025
X11.1375Y-9.125
X11.1375Y-9.225
X11.1375Y-9.325
X11.1375Y-9.425
X11.1375Y-9.525
X11.1375Y-9.625
X11.1375Y-9.725
X11.1375Y-9.825
X11.2125Y-8.175
X11.2125Y-8.275
X11.2125Y-8.375
X11.2125Y-8.475
X11.2125Y-8.575
X11.2125Y-8.675
X11.2125Y-8.775
X11.2125Y-8.875
X11.2125Y-8.975
X11.2125Y-9.075
X11.2125Y-9.175
X11.2125Y-9.275
X11.2125Y-9.375
X11.2125Y-9.475
X11.2125Y-9.575
X11.2125Y-9.675
X11.2125Y-9.775
X11.2875Y-8.225
X11.2875Y-8.325
X11.2875Y-8.425
X11.2875Y-8.525
X11.2875Y-8.625
X11.2875Y-8.725
X11.2875Y-8.825
X11.2875Y-8.925
X11.2875Y-9.025
X11.2875Y-9.125
X11.2875Y-9.225
X11.2875Y-9.325
X11.2875Y-9.425
X11.2875Y-9.525
X11.2875Y-9.625
X11.2875Y-9.725
X11.2875Y-9.825
X11.3625Y-8.175
X11.3625Y-8.275
X11.3625Y-8.375
X11.3625Y-8.475
X11.3625Y-8.575
X11.3625Y-8.675
X11.3625Y-8.775
X11.3625Y-8.875
X11.3625Y-8.975
X11.3625Y-9.075
X11.3625Y-9.175
X11.3625Y-9.275
X11.3625Y-9.375
X11.3625Y-9.475
X11.3625Y-9.575
X11.3625Y-9.675
X11.3625Y-9.775
T4
X3.5089Y-6.3
X3.5089Y-6.4
X3.5089Y-6.5
X3.5089Y-6.6
X3.5089Y-6.7
X3.5089Y-6.8
X3.5089Y-6.9
X3.5089Y-7.0
X3.5089Y-7.1
X3.5089Y-7.2
X3.5089Y-7.3
X3.5089Y-7.4
X3.5089Y-7.5
X3.5089Y-7.6
X3.5089Y-7.7
X3.6266Y-5.8607
X3.6266Y-8.1393
X3.6766Y-5.7741
X3.6766Y-8.2259
X3.7266Y-5.6875
X3.7266Y-8.3125
X3.7766Y-5.6009
X3.7766Y-8.3991
X3.8266Y-5.5143
X3.8266Y-8.4857
X3.8766Y-5.4277
X3.8766Y-8.5723
X3.9266Y-5.3411
X3.9266Y-8.6589
X3.9766Y-5.2544
X3.9766Y-8.7456
X4.0266Y-5.1678
X4.0266Y-8.8322
X4.0766Y-5.0812
X4.0766Y-8.9188
X4.1266Y-4.9946
X4.1266Y-9.0054
X4.1766Y-4.908
X4.1766Y-9.092
X4.2266Y-4.8214
X4.2266Y-9.1786
X4.2766Y-4.7348
X4.2766Y-9.2652
X4.3266Y-4.6482
X4.3266Y-9.3518
X4.6482Y-4.3266
X4.6482Y-9.6734
X4.7348Y-4.2766
X4.7348Y-9.7234
X4.8214Y-4.2266
X4.8214Y-9.7734
X4.908Y-4.1766
X4.908Y-9.8234
X4.9946Y-4.1266
X4.9946Y-9.8734
X5.0812Y-4.0766
X5.0812Y-9.9234
X5.1678Y-4.0266
X5.1678Y-9.9734
X5.2544Y-3.9766
X5.2544Y-10.0234
X5.3411Y-3.9266
X5.3411Y-10.0734
X5.4277Y-3.8766
X5.4277Y-10.1234
X5.5143Y-3.8266
X5.5143Y-10.1734
X5.6009Y-3.7766
X5.6009Y-10.2234
X5.6875Y-3.7266
X5.6875Y-10.2734
X5.7741Y-3.6766
X5.7741Y-10.3234
X5.8607Y-3.6266
X5.8607Y-10.3734
X6.3Y-3.5089
X6.3Y-10.4911
X6.4Y-3.5089
X6.4Y-10.4911
X6.5Y-3.5089
X6.5Y-10.4911
X6.6Y-3.5089
X6.6Y-10.4911
X6.7Y-3.5089
X6.7Y-10.4911
X6.8Y-3.5089
X6.8Y-10.4911
X6.9Y-3.5089
X6.9Y-10.4911
X7.0Y-3.5089
X7.0Y-10.4911
X7.1Y-3.5089
X7.1Y-10.4911
X7.2Y-3.5089
X7.2Y-10.4911
X7.3Y-3.5089
X7.3Y-10.4911
X7.4Y-3.5089
X7.4Y-10.4911
X7.5Y-3.5089
X7.5Y-10.4911
X7.6Y-3.5089
X7.6Y-10.4911
X7.7Y-3.5089
X7.7Y-10.4911
X8.1393Y-3.6266
X8.1393Y-10.3734
X8.2259Y-3.6766
X8.2259Y-10.3234
X8.3125Y-3.7266
X8.3125Y-10.2734
X8.3991Y-3.7766
X8.3991Y-10.2234
X8.4857Y-3.8266
X8.4857Y-10.1734
X8.5723Y-3.8766
X8.5723Y-10.1234
X8.6589Y-3.9266
X8.6589Y-10.0734
X8.7456Y-3.9766
X8.7456Y-10.0234
X8.8322Y-4.0266
X8.8322Y-9.9734
X8.9188Y-4.0766
X8.9188Y-9.9234
X9.0054Y-4.1266
X9.0054Y-9.8734
X9.092Y-4.1766
X9.092Y-9.8234
X9.1786Y-4.2266
X9.1786Y-9.7734
X9.2652Y-4.2766
X9.2652Y-9.7234
X9.3518Y-4.3266
X9.3518Y-9.6734
X9.6734Y-4.6482
X9.6734Y-9.3518
X9.7234Y-4.7348
X9.7234Y-9.2652
X9.7734Y-4.8214
X9.7734Y-9.1786
X9.8234Y-4.908
X9.8234Y-9.092
X9.8734Y-4.9946
X9.8734Y-9.0054
X9.9234Y-5.0812
X9.9234Y-8.9188
X9.9734Y-5.1678
X9.9734Y-8.8322
X10.0234Y-5.2544
X10.0234Y-8.7456
X10.0734Y-5.3411
X10.0734Y-8.6589
X10.1234Y-5.4277
X10.1234Y-8.5723
X10.1734Y-5.5143
X10.1734Y-8.4857
X10.2234Y-5.6009
X10.2234Y-8.3991
X10.2734Y-5.6875
X10.2734Y-8.3125
X10.3234Y-5.7741
X10.3234Y-8.2259
X10.3734Y-5.8607
X10.3734Y-8.1393
X10.4911Y-6.3
X10.4911Y-6.4
X10.4911Y-6.5
X10.4911Y-6.6
X10.4911Y-6.7
X10.4911Y-6.8
X10.4911Y-6.9
X10.4911Y-7.0
X10.4911Y-7.1
X10.4911Y-7.2
X10.4911Y-7.3
X10.4911Y-7.4
X10.4911Y-7.5
X10.4911Y-7.6
X10.4911Y-7.7
T5
X11.379Y-3.623
T6
X11.2Y-4.226
X11.2Y-4.413
X11.2Y-4.6
T7
X11.261Y-3.623
X11.3Y-3.446
X11.3Y-3.8
T8
X11.25Y-7.86
X11.25Y-10.14
T9
X11.025Y-3.623
T10
X3.0Y-3.0
X3.0Y-11.0
X11.0Y-3.0
X11.0Y-11.0
X11.25Y-7.5
X11.25Y-10.5
M30
