%TF.GenerationSoftware,KiCad,Pcbnew,7.0.10-7.0.10~ubuntu22.04.1*%
%TF.CreationDate,2024-09-27T12:09:36-07:00*%
%TF.ProjectId,ni_arena_12-12,6e695f61-7265-46e6-915f-31322d31322e,rev?*%
%TF.SameCoordinates,Original*%
%TF.FileFunction,Copper,L6,Bot*%
%TF.FilePolarity,Positive*%
%FSLAX46Y46*%
G04 Gerber Fmt 4.6, Leading zero omitted, Abs format (unit mm)*
G04 Created by KiCad (PCBNEW 7.0.10-7.0.10~ubuntu22.04.1) date 2024-09-27 12:09:36*
%MOMM*%
%LPD*%
G01*
G04 APERTURE LIST*
G04 Aperture macros list*
%AMRotRect*
0 Rectangle, with rotation*
0 The origin of the aperture is its center*
0 $1 length*
0 $2 width*
0 $3 Rotation angle, in degrees counterclockwise*
0 Add horizontal line*
21,1,$1,$2,0,0,$3*%
G04 Aperture macros list end*
%TA.AperFunction,ComponentPad*%
%ADD10C,9.000000*%
%TD*%
%TA.AperFunction,ComponentPad*%
%ADD11R,1.600000X1.600000*%
%TD*%
%TA.AperFunction,ComponentPad*%
%ADD12C,1.600000*%
%TD*%
%TA.AperFunction,ComponentPad*%
%ADD13RotRect,1.600000X1.600000X240.000000*%
%TD*%
%TA.AperFunction,ComponentPad*%
%ADD14C,2.540000*%
%TD*%
%TA.AperFunction,ComponentPad*%
%ADD15RotRect,1.600000X1.600000X150.000000*%
%TD*%
%TA.AperFunction,ComponentPad*%
%ADD16RotRect,1.600000X1.600000X210.000000*%
%TD*%
%TA.AperFunction,ComponentPad*%
%ADD17C,3.556000*%
%TD*%
%TA.AperFunction,ComponentPad*%
%ADD18C,1.930400*%
%TD*%
%TA.AperFunction,ComponentPad*%
%ADD19C,4.064000*%
%TD*%
%TA.AperFunction,ComponentPad*%
%ADD20RotRect,1.600000X1.600000X30.000000*%
%TD*%
%TA.AperFunction,ComponentPad*%
%ADD21RotRect,1.600000X1.600000X60.000000*%
%TD*%
%TA.AperFunction,ComponentPad*%
%ADD22RotRect,1.600000X1.600000X120.000000*%
%TD*%
%TA.AperFunction,ComponentPad*%
%ADD23RotRect,1.600000X1.600000X300.000000*%
%TD*%
%TA.AperFunction,ComponentPad*%
%ADD24C,1.400000*%
%TD*%
%TA.AperFunction,ComponentPad*%
%ADD25C,3.700000*%
%TD*%
%TA.AperFunction,ComponentPad*%
%ADD26RotRect,1.600000X1.600000X330.000000*%
%TD*%
%TA.AperFunction,ViaPad*%
%ADD27C,0.600000*%
%TD*%
%TA.AperFunction,ViaPad*%
%ADD28C,1.000000*%
%TD*%
%TA.AperFunction,Conductor*%
%ADD29C,0.300000*%
%TD*%
G04 APERTURE END LIST*
D10*
%TO.P,H1,1,1*%
%TO.N,GND*%
X76200000Y-76200000D03*
%TD*%
D11*
%TO.P,P10,1*%
%TO.N,/Level Shifters/POW.5V_HDR_10*%
X195580000Y-266474000D03*
D12*
%TO.P,P10,2*%
%TO.N,GND*%
X193040000Y-266474000D03*
%TO.P,P10,3*%
%TO.N,/Panel Headers/RESET*%
X190500000Y-266474000D03*
%TO.P,P10,4*%
%TO.N,/Level Shifters/PAN5V.SCK_03*%
X187960000Y-266474000D03*
%TO.P,P10,5*%
%TO.N,/Level Shifters/PAN5V.MOSI_09*%
X185420000Y-266474000D03*
%TO.P,P10,6*%
%TO.N,/Level Shifters/PAN5V.MISO_09*%
X182880000Y-266474000D03*
%TO.P,P10,7*%
%TO.N,/Level Shifters/PAN5V.CS_00*%
X180340000Y-266474000D03*
%TO.P,P10,8*%
%TO.N,/Level Shifters/PAN5V.CS_01*%
X177800000Y-266474000D03*
%TO.P,P10,9*%
%TO.N,/Level Shifters/PAN5V.CS_02*%
X175260000Y-266474000D03*
%TO.P,P10,10*%
%TO.N,/Level Shifters/PAN5V.CS_03*%
X172720000Y-266474000D03*
%TO.P,P10,11*%
%TO.N,/Level Shifters/PAN5V.CS_04*%
X170180000Y-266474000D03*
%TO.P,P10,12*%
%TO.N,/Level Shifters/PAN5V.CS_05*%
X167640000Y-266474000D03*
%TO.P,P10,13*%
%TO.N,/Level Shifters/PAN5V.CS_06*%
X165100000Y-266474000D03*
%TO.P,P10,14*%
%TO.N,/Level Shifters/PAN5V.CS_07*%
X162560000Y-266474000D03*
%TO.P,P10,15*%
%TO.N,/Level Shifters/PAN5V.EXT_INT*%
X160020000Y-266474000D03*
%TD*%
D13*
%TO.P,P12,1*%
%TO.N,/Level Shifters/POW.5V_HDR_12*%
X263484000Y-206739068D03*
D12*
%TO.P,P12,2*%
%TO.N,GND*%
X262214000Y-208938773D03*
%TO.P,P12,3*%
%TO.N,/Panel Headers/RESET*%
X260944000Y-211138477D03*
%TO.P,P12,4*%
%TO.N,/Level Shifters/PAN5V.SCK_05*%
X259674000Y-213338182D03*
%TO.P,P12,5*%
%TO.N,/Level Shifters/PAN5V.MOSI_11*%
X258404000Y-215537886D03*
%TO.P,P12,6*%
%TO.N,/Level Shifters/PAN5V.MISO_11*%
X257134000Y-217737591D03*
%TO.P,P12,7*%
%TO.N,/Level Shifters/PAN5V.CS_00*%
X255864000Y-219937295D03*
%TO.P,P12,8*%
%TO.N,/Level Shifters/PAN5V.CS_01*%
X254594000Y-222137000D03*
%TO.P,P12,9*%
%TO.N,/Level Shifters/PAN5V.CS_02*%
X253324000Y-224336705D03*
%TO.P,P12,10*%
%TO.N,/Level Shifters/PAN5V.CS_03*%
X252054000Y-226536409D03*
%TO.P,P12,11*%
%TO.N,/Level Shifters/PAN5V.CS_04*%
X250784000Y-228736114D03*
%TO.P,P12,12*%
%TO.N,/Level Shifters/PAN5V.CS_05*%
X249514000Y-230935818D03*
%TO.P,P12,13*%
%TO.N,/Level Shifters/PAN5V.CS_06*%
X248244000Y-233135523D03*
%TO.P,P12,14*%
%TO.N,/Level Shifters/PAN5V.CS_07*%
X246974000Y-235335227D03*
%TO.P,P12,15*%
%TO.N,/Level Shifters/PAN5V.EXT_INT*%
X245704000Y-237534932D03*
%TD*%
D11*
%TO.P,P7,1*%
%TO.N,/Level Shifters/POW.5V_HDR_7*%
X89126000Y-195580000D03*
D12*
%TO.P,P7,2*%
%TO.N,GND*%
X89126000Y-193040000D03*
%TO.P,P7,3*%
%TO.N,/Panel Headers/RESET*%
X89126000Y-190500000D03*
%TO.P,P7,4*%
%TO.N,/Level Shifters/PAN5V.SCK_00*%
X89126000Y-187960000D03*
%TO.P,P7,5*%
%TO.N,/Level Shifters/PAN5V.MOSI_06*%
X89126000Y-185420000D03*
%TO.P,P7,6*%
%TO.N,/Level Shifters/PAN5V.MISO_06*%
X89126000Y-182880000D03*
%TO.P,P7,7*%
%TO.N,/Level Shifters/PAN5V.CS_00*%
X89126000Y-180340000D03*
%TO.P,P7,8*%
%TO.N,/Level Shifters/PAN5V.CS_01*%
X89126000Y-177800000D03*
%TO.P,P7,9*%
%TO.N,/Level Shifters/PAN5V.CS_02*%
X89126000Y-175260000D03*
%TO.P,P7,10*%
%TO.N,/Level Shifters/PAN5V.CS_03*%
X89126000Y-172720000D03*
%TO.P,P7,11*%
%TO.N,/Level Shifters/PAN5V.CS_04*%
X89126000Y-170180000D03*
%TO.P,P7,12*%
%TO.N,/Level Shifters/PAN5V.CS_05*%
X89126000Y-167640000D03*
%TO.P,P7,13*%
%TO.N,/Level Shifters/PAN5V.CS_06*%
X89126000Y-165100000D03*
%TO.P,P7,14*%
%TO.N,/Level Shifters/PAN5V.CS_07*%
X89126000Y-162560000D03*
%TO.P,P7,15*%
%TO.N,/Level Shifters/PAN5V.EXT_INT*%
X89126000Y-160020000D03*
%TD*%
D14*
%TO.P,SW1,1,A*%
%TO.N,/Power & Voltage Regulators/SW_VCC*%
X284480000Y-116840000D03*
%TO.P,SW1,2,B*%
%TO.N,VCC*%
X284480000Y-112090200D03*
%TO.P,SW1,3,C*%
%TO.N,GND*%
X284480000Y-107340400D03*
%TD*%
D15*
%TO.P,P9,1*%
%TO.N,/Level Shifters/POW.5V_HDR_9*%
X148860932Y-263484000D03*
D12*
%TO.P,P9,2*%
%TO.N,GND*%
X146661227Y-262214000D03*
%TO.P,P9,3*%
%TO.N,/Panel Headers/RESET*%
X144461523Y-260944000D03*
%TO.P,P9,4*%
%TO.N,/Level Shifters/PAN5V.SCK_02*%
X142261818Y-259674000D03*
%TO.P,P9,5*%
%TO.N,/Level Shifters/PAN5V.MOSI_08*%
X140062114Y-258404000D03*
%TO.P,P9,6*%
%TO.N,/Level Shifters/PAN5V.MISO_08*%
X137862409Y-257134000D03*
%TO.P,P9,7*%
%TO.N,/Level Shifters/PAN5V.CS_00*%
X135662705Y-255864000D03*
%TO.P,P9,8*%
%TO.N,/Level Shifters/PAN5V.CS_01*%
X133463000Y-254594000D03*
%TO.P,P9,9*%
%TO.N,/Level Shifters/PAN5V.CS_02*%
X131263295Y-253324000D03*
%TO.P,P9,10*%
%TO.N,/Level Shifters/PAN5V.CS_03*%
X129063591Y-252054000D03*
%TO.P,P9,11*%
%TO.N,/Level Shifters/PAN5V.CS_04*%
X126863886Y-250784000D03*
%TO.P,P9,12*%
%TO.N,/Level Shifters/PAN5V.CS_05*%
X124664182Y-249514000D03*
%TO.P,P9,13*%
%TO.N,/Level Shifters/PAN5V.CS_06*%
X122464477Y-248244000D03*
%TO.P,P9,14*%
%TO.N,/Level Shifters/PAN5V.CS_07*%
X120264773Y-246974000D03*
%TO.P,P9,15*%
%TO.N,/Level Shifters/PAN5V.EXT_INT*%
X118065068Y-245704000D03*
%TD*%
D16*
%TO.P,P11,1*%
%TO.N,/Level Shifters/POW.5V_HDR_11*%
X237534932Y-245704000D03*
D12*
%TO.P,P11,2*%
%TO.N,GND*%
X235335227Y-246974000D03*
%TO.P,P11,3*%
%TO.N,/Panel Headers/RESET*%
X233135523Y-248244000D03*
%TO.P,P11,4*%
%TO.N,/Level Shifters/PAN5V.SCK_04*%
X230935818Y-249514000D03*
%TO.P,P11,5*%
%TO.N,/Level Shifters/PAN5V.MOSI_10*%
X228736114Y-250784000D03*
%TO.P,P11,6*%
%TO.N,/Level Shifters/PAN5V.MISO_10*%
X226536409Y-252054000D03*
%TO.P,P11,7*%
%TO.N,/Level Shifters/PAN5V.CS_00*%
X224336705Y-253324000D03*
%TO.P,P11,8*%
%TO.N,/Level Shifters/PAN5V.CS_01*%
X222137000Y-254594000D03*
%TO.P,P11,9*%
%TO.N,/Level Shifters/PAN5V.CS_02*%
X219937295Y-255864000D03*
%TO.P,P11,10*%
%TO.N,/Level Shifters/PAN5V.CS_03*%
X217737591Y-257134000D03*
%TO.P,P11,11*%
%TO.N,/Level Shifters/PAN5V.CS_04*%
X215537886Y-258404000D03*
%TO.P,P11,12*%
%TO.N,/Level Shifters/PAN5V.CS_05*%
X213338182Y-259674000D03*
%TO.P,P11,13*%
%TO.N,/Level Shifters/PAN5V.CS_06*%
X211138477Y-260944000D03*
%TO.P,P11,14*%
%TO.N,/Level Shifters/PAN5V.CS_07*%
X208938773Y-262214000D03*
%TO.P,P11,15*%
%TO.N,/Level Shifters/PAN5V.EXT_INT*%
X206739068Y-263484000D03*
%TD*%
D10*
%TO.P,H3,1,1*%
%TO.N,GND*%
X279400000Y-279400000D03*
%TD*%
%TO.P,H4,1,1*%
%TO.N,GND*%
X76200000Y-279400000D03*
%TD*%
D17*
%TO.P,J1,*%
%TO.N,*%
X287020000Y-87528400D03*
D18*
X289026600Y-92024200D03*
D17*
X287020000Y-96520000D03*
D19*
%TO.P,J1,1*%
%TO.N,/Power & Voltage Regulators/SW_VCC*%
X280035000Y-92024200D03*
D17*
%TO.P,J1,2*%
%TO.N,GND*%
X286029400Y-92024200D03*
%TD*%
D20*
%TO.P,P5,1*%
%TO.N,/Level Shifters/POW.5V_HDR_5*%
X118065068Y-109896000D03*
D12*
%TO.P,P5,2*%
%TO.N,GND*%
X120264773Y-108626000D03*
%TO.P,P5,3*%
%TO.N,/Panel Headers/RESET*%
X122464477Y-107356000D03*
%TO.P,P5,4*%
%TO.N,/Level Shifters/PAN5V.SCK_04*%
X124664182Y-106086000D03*
%TO.P,P5,5*%
%TO.N,/Level Shifters/PAN5V.MOSI_04*%
X126863886Y-104816000D03*
%TO.P,P5,6*%
%TO.N,/Level Shifters/PAN5V.MISO_04*%
X129063591Y-103546000D03*
%TO.P,P5,7*%
%TO.N,/Level Shifters/PAN5V.CS_00*%
X131263295Y-102276000D03*
%TO.P,P5,8*%
%TO.N,/Level Shifters/PAN5V.CS_01*%
X133463000Y-101006000D03*
%TO.P,P5,9*%
%TO.N,/Level Shifters/PAN5V.CS_02*%
X135662705Y-99736000D03*
%TO.P,P5,10*%
%TO.N,/Level Shifters/PAN5V.CS_03*%
X137862409Y-98466000D03*
%TO.P,P5,11*%
%TO.N,/Level Shifters/PAN5V.CS_04*%
X140062114Y-97196000D03*
%TO.P,P5,12*%
%TO.N,/Level Shifters/PAN5V.CS_05*%
X142261818Y-95926000D03*
%TO.P,P5,13*%
%TO.N,/Level Shifters/PAN5V.CS_06*%
X144461523Y-94656000D03*
%TO.P,P5,14*%
%TO.N,/Level Shifters/PAN5V.CS_07*%
X146661227Y-93386000D03*
%TO.P,P5,15*%
%TO.N,/Level Shifters/PAN5V.EXT_INT*%
X148860932Y-92116000D03*
%TD*%
D11*
%TO.P,P4,1*%
%TO.N,/Level Shifters/POW.5V_HDR_4*%
X160020000Y-89126000D03*
D12*
%TO.P,P4,2*%
%TO.N,GND*%
X162560000Y-89126000D03*
%TO.P,P4,3*%
%TO.N,/Panel Headers/RESET*%
X165100000Y-89126000D03*
%TO.P,P4,4*%
%TO.N,/Level Shifters/PAN5V.SCK_03*%
X167640000Y-89126000D03*
%TO.P,P4,5*%
%TO.N,/Level Shifters/PAN5V.MOSI_03*%
X170180000Y-89126000D03*
%TO.P,P4,6*%
%TO.N,/Level Shifters/PAN5V.MISO_03*%
X172720000Y-89126000D03*
%TO.P,P4,7*%
%TO.N,/Level Shifters/PAN5V.CS_00*%
X175260000Y-89126000D03*
%TO.P,P4,8*%
%TO.N,/Level Shifters/PAN5V.CS_01*%
X177800000Y-89126000D03*
%TO.P,P4,9*%
%TO.N,/Level Shifters/PAN5V.CS_02*%
X180340000Y-89126000D03*
%TO.P,P4,10*%
%TO.N,/Level Shifters/PAN5V.CS_03*%
X182880000Y-89126000D03*
%TO.P,P4,11*%
%TO.N,/Level Shifters/PAN5V.CS_04*%
X185420000Y-89126000D03*
%TO.P,P4,12*%
%TO.N,/Level Shifters/PAN5V.CS_05*%
X187960000Y-89126000D03*
%TO.P,P4,13*%
%TO.N,/Level Shifters/PAN5V.CS_06*%
X190500000Y-89126000D03*
%TO.P,P4,14*%
%TO.N,/Level Shifters/PAN5V.CS_07*%
X193040000Y-89126000D03*
%TO.P,P4,15*%
%TO.N,/Level Shifters/PAN5V.EXT_INT*%
X195580000Y-89126000D03*
%TD*%
D10*
%TO.P,H5,1,1*%
%TO.N,GND*%
X285750000Y-190500000D03*
%TD*%
D11*
%TO.P,P1,1*%
%TO.N,/Level Shifters/POW.5V_HDR_1*%
X266474000Y-160020000D03*
D12*
%TO.P,P1,2*%
%TO.N,GND*%
X266474000Y-162560000D03*
%TO.P,P1,3*%
%TO.N,/Panel Headers/RESET*%
X266474000Y-165100000D03*
%TO.P,P1,4*%
%TO.N,/Level Shifters/PAN5V.SCK_00*%
X266474000Y-167640000D03*
%TO.P,P1,5*%
%TO.N,/Level Shifters/PAN5V.MOSI_00*%
X266474000Y-170180000D03*
%TO.P,P1,6*%
%TO.N,/Level Shifters/PAN5V.MISO_00*%
X266474000Y-172720000D03*
%TO.P,P1,7*%
%TO.N,/Level Shifters/PAN5V.CS_00*%
X266474000Y-175260000D03*
%TO.P,P1,8*%
%TO.N,/Level Shifters/PAN5V.CS_01*%
X266474000Y-177800000D03*
%TO.P,P1,9*%
%TO.N,/Level Shifters/PAN5V.CS_02*%
X266474000Y-180340000D03*
%TO.P,P1,10*%
%TO.N,/Level Shifters/PAN5V.CS_03*%
X266474000Y-182880000D03*
%TO.P,P1,11*%
%TO.N,/Level Shifters/PAN5V.CS_04*%
X266474000Y-185420000D03*
%TO.P,P1,12*%
%TO.N,/Level Shifters/PAN5V.CS_05*%
X266474000Y-187960000D03*
%TO.P,P1,13*%
%TO.N,/Level Shifters/PAN5V.CS_06*%
X266474000Y-190500000D03*
%TO.P,P1,14*%
%TO.N,/Level Shifters/PAN5V.CS_07*%
X266474000Y-193040000D03*
%TO.P,P1,15*%
%TO.N,/Level Shifters/PAN5V.EXT_INT*%
X266474000Y-195580000D03*
%TD*%
D21*
%TO.P,P6,1*%
%TO.N,/Level Shifters/POW.5V_HDR_6*%
X92116000Y-148860932D03*
D12*
%TO.P,P6,2*%
%TO.N,GND*%
X93386000Y-146661227D03*
%TO.P,P6,3*%
%TO.N,/Panel Headers/RESET*%
X94656000Y-144461523D03*
%TO.P,P6,4*%
%TO.N,/Level Shifters/PAN5V.SCK_05*%
X95926000Y-142261818D03*
%TO.P,P6,5*%
%TO.N,/Level Shifters/PAN5V.MOSI_05*%
X97196000Y-140062114D03*
%TO.P,P6,6*%
%TO.N,/Level Shifters/PAN5V.MISO_05*%
X98466000Y-137862409D03*
%TO.P,P6,7*%
%TO.N,/Level Shifters/PAN5V.CS_00*%
X99736000Y-135662705D03*
%TO.P,P6,8*%
%TO.N,/Level Shifters/PAN5V.CS_01*%
X101006000Y-133463000D03*
%TO.P,P6,9*%
%TO.N,/Level Shifters/PAN5V.CS_02*%
X102276000Y-131263295D03*
%TO.P,P6,10*%
%TO.N,/Level Shifters/PAN5V.CS_03*%
X103546000Y-129063591D03*
%TO.P,P6,11*%
%TO.N,/Level Shifters/PAN5V.CS_04*%
X104816000Y-126863886D03*
%TO.P,P6,12*%
%TO.N,/Level Shifters/PAN5V.CS_05*%
X106086000Y-124664182D03*
%TO.P,P6,13*%
%TO.N,/Level Shifters/PAN5V.CS_06*%
X107356000Y-122464477D03*
%TO.P,P6,14*%
%TO.N,/Level Shifters/PAN5V.CS_07*%
X108626000Y-120264773D03*
%TO.P,P6,15*%
%TO.N,/Level Shifters/PAN5V.EXT_INT*%
X109896000Y-118065068D03*
%TD*%
D22*
%TO.P,P8,1*%
%TO.N,/Level Shifters/POW.5V_HDR_8*%
X109896000Y-237534932D03*
D12*
%TO.P,P8,2*%
%TO.N,GND*%
X108626000Y-235335227D03*
%TO.P,P8,3*%
%TO.N,/Panel Headers/RESET*%
X107356000Y-233135523D03*
%TO.P,P8,4*%
%TO.N,/Level Shifters/PAN5V.SCK_01*%
X106086000Y-230935818D03*
%TO.P,P8,5*%
%TO.N,/Level Shifters/PAN5V.MOSI_07*%
X104816000Y-228736114D03*
%TO.P,P8,6*%
%TO.N,/Level Shifters/PAN5V.MISO_07*%
X103546000Y-226536409D03*
%TO.P,P8,7*%
%TO.N,/Level Shifters/PAN5V.CS_00*%
X102276000Y-224336705D03*
%TO.P,P8,8*%
%TO.N,/Level Shifters/PAN5V.CS_01*%
X101006000Y-222137000D03*
%TO.P,P8,9*%
%TO.N,/Level Shifters/PAN5V.CS_02*%
X99736000Y-219937295D03*
%TO.P,P8,10*%
%TO.N,/Level Shifters/PAN5V.CS_03*%
X98466000Y-217737591D03*
%TO.P,P8,11*%
%TO.N,/Level Shifters/PAN5V.CS_04*%
X97196000Y-215537886D03*
%TO.P,P8,12*%
%TO.N,/Level Shifters/PAN5V.CS_05*%
X95926000Y-213338182D03*
%TO.P,P8,13*%
%TO.N,/Level Shifters/PAN5V.CS_06*%
X94656000Y-211138477D03*
%TO.P,P8,14*%
%TO.N,/Level Shifters/PAN5V.CS_07*%
X93386000Y-208938773D03*
%TO.P,P8,15*%
%TO.N,/Level Shifters/PAN5V.EXT_INT*%
X92116000Y-206739068D03*
%TD*%
D10*
%TO.P,H2,1,1*%
%TO.N,GND*%
X279400000Y-76200000D03*
%TD*%
%TO.P,H6,1,1*%
%TO.N,GND*%
X285750000Y-266700000D03*
%TD*%
D23*
%TO.P,P2,1*%
%TO.N,/Level Shifters/POW.5V_HDR_2*%
X245704000Y-118065068D03*
D12*
%TO.P,P2,2*%
%TO.N,GND*%
X246974000Y-120264773D03*
%TO.P,P2,3*%
%TO.N,/Panel Headers/RESET*%
X248244000Y-122464477D03*
%TO.P,P2,4*%
%TO.N,/Level Shifters/PAN5V.SCK_01*%
X249514000Y-124664182D03*
%TO.P,P2,5*%
%TO.N,/Level Shifters/PAN5V.MOSI_01*%
X250784000Y-126863886D03*
%TO.P,P2,6*%
%TO.N,/Level Shifters/PAN5V.MISO_01*%
X252054000Y-129063591D03*
%TO.P,P2,7*%
%TO.N,/Level Shifters/PAN5V.CS_00*%
X253324000Y-131263295D03*
%TO.P,P2,8*%
%TO.N,/Level Shifters/PAN5V.CS_01*%
X254594000Y-133463000D03*
%TO.P,P2,9*%
%TO.N,/Level Shifters/PAN5V.CS_02*%
X255864000Y-135662705D03*
%TO.P,P2,10*%
%TO.N,/Level Shifters/PAN5V.CS_03*%
X257134000Y-137862409D03*
%TO.P,P2,11*%
%TO.N,/Level Shifters/PAN5V.CS_04*%
X258404000Y-140062114D03*
%TO.P,P2,12*%
%TO.N,/Level Shifters/PAN5V.CS_05*%
X259674000Y-142261818D03*
%TO.P,P2,13*%
%TO.N,/Level Shifters/PAN5V.CS_06*%
X260944000Y-144461523D03*
%TO.P,P2,14*%
%TO.N,/Level Shifters/PAN5V.CS_07*%
X262214000Y-146661227D03*
%TO.P,P2,15*%
%TO.N,/Level Shifters/PAN5V.EXT_INT*%
X263484000Y-148860932D03*
%TD*%
D24*
%TO.P,J2,1,Pin_1*%
%TO.N,GND*%
X282892500Y-249555000D03*
%TO.P,J2,2,Pin_2*%
X284797500Y-248285000D03*
%TO.P,J2,3,Pin_3*%
X282892500Y-247015000D03*
%TO.P,J2,4,Pin_4*%
%TO.N,unconnected-(J2-Pin_4-Pad4)*%
X284797500Y-245745000D03*
%TO.P,J2,5,Pin_5*%
%TO.N,unconnected-(J2-Pin_5-Pad5)*%
X282892500Y-244475000D03*
%TO.P,J2,6,Pin_6*%
%TO.N,unconnected-(J2-Pin_6-Pad6)*%
X284797500Y-243205000D03*
%TO.P,J2,7,Pin_7*%
%TO.N,unconnected-(J2-Pin_7-Pad7)*%
X282892500Y-241935000D03*
%TO.P,J2,8,Pin_8*%
%TO.N,unconnected-(J2-Pin_8-Pad8)*%
X284797500Y-240665000D03*
%TO.P,J2,9,Pin_9*%
%TO.N,unconnected-(J2-Pin_9-Pad9)*%
X282892500Y-239395000D03*
%TO.P,J2,10,Pin_10*%
%TO.N,unconnected-(J2-Pin_10-Pad10)*%
X284797500Y-238125000D03*
%TO.P,J2,11,Pin_11*%
%TO.N,unconnected-(J2-Pin_11-Pad11)*%
X282892500Y-236855000D03*
%TO.P,J2,12,Pin_12*%
%TO.N,unconnected-(J2-Pin_12-Pad12)*%
X284797500Y-235585000D03*
%TO.P,J2,13,Pin_13*%
%TO.N,unconnected-(J2-Pin_13-Pad13)*%
X282892500Y-234315000D03*
%TO.P,J2,14,Pin_14*%
%TO.N,unconnected-(J2-Pin_14-Pad14)*%
X284797500Y-233045000D03*
%TO.P,J2,15,Pin_15*%
%TO.N,unconnected-(J2-Pin_15-Pad15)*%
X282892500Y-231775000D03*
%TO.P,J2,16,Pin_16*%
%TO.N,unconnected-(J2-Pin_16-Pad16)*%
X284797500Y-230505000D03*
%TO.P,J2,17,Pin_17*%
%TO.N,unconnected-(J2-Pin_17-Pad17)*%
X282892500Y-229235000D03*
%TO.P,J2,18,Pin_18*%
%TO.N,unconnected-(J2-Pin_18-Pad18)*%
X284797500Y-227965000D03*
%TO.P,J2,19,Pin_19*%
%TO.N,unconnected-(J2-Pin_19-Pad19)*%
X282892500Y-226695000D03*
%TO.P,J2,20,Pin_20*%
%TO.N,unconnected-(J2-Pin_20-Pad20)*%
X284797500Y-225425000D03*
%TO.P,J2,21,Pin_21*%
%TO.N,unconnected-(J2-Pin_21-Pad21)*%
X282892500Y-224155000D03*
%TO.P,J2,22,Pin_22*%
%TO.N,unconnected-(J2-Pin_22-Pad22)*%
X284797500Y-222885000D03*
%TO.P,J2,23,Pin_23*%
%TO.N,unconnected-(J2-Pin_23-Pad23)*%
X282892500Y-221615000D03*
%TO.P,J2,24,Pin_24*%
%TO.N,unconnected-(J2-Pin_24-Pad24)*%
X284797500Y-220345000D03*
%TO.P,J2,25,Pin_25*%
%TO.N,unconnected-(J2-Pin_25-Pad25)*%
X282892500Y-219075000D03*
%TO.P,J2,26,Pin_26*%
%TO.N,unconnected-(J2-Pin_26-Pad26)*%
X284797500Y-217805000D03*
%TO.P,J2,27,Pin_27*%
%TO.N,unconnected-(J2-Pin_27-Pad27)*%
X282892500Y-216535000D03*
%TO.P,J2,28,Pin_28*%
%TO.N,unconnected-(J2-Pin_28-Pad28)*%
X284797500Y-215265000D03*
%TO.P,J2,29,Pin_29*%
%TO.N,/Level Shifters/PAN3V.MOSI_07*%
X282892500Y-213995000D03*
%TO.P,J2,30,Pin_30*%
%TO.N,/Level Shifters/PAN3V.MOSI_08*%
X284797500Y-212725000D03*
%TO.P,J2,31,Pin_31*%
%TO.N,/Level Shifters/PAN3V.MOSI_09*%
X282892500Y-211455000D03*
%TO.P,J2,32,Pin_32*%
%TO.N,/Level Shifters/PAN3V.MOSI_10*%
X284797500Y-210185000D03*
%TO.P,J2,33,Pin_33*%
%TO.N,/Level Shifters/PAN3V.MOSI_11*%
X282892500Y-208915000D03*
%TO.P,J2,34,Pin_34*%
%TO.N,/Level Shifters/PAN3V.RESET*%
X284797500Y-207645000D03*
%TO.P,J2,35,Pin_35*%
%TO.N,/Level Shifters/PAN3V.EXT_INT*%
X286702500Y-249555000D03*
%TO.P,J2,36,Pin_36*%
%TO.N,/Level Shifters/PAN3V.MISO_11*%
X288607500Y-248285000D03*
%TO.P,J2,37,Pin_37*%
%TO.N,/Level Shifters/PAN3V.MISO_10*%
X286702500Y-247015000D03*
%TO.P,J2,38,Pin_38*%
%TO.N,/Level Shifters/PAN3V.MISO_09*%
X288607500Y-245745000D03*
%TO.P,J2,39,Pin_39*%
%TO.N,/Level Shifters/PAN3V.MISO_08*%
X286702500Y-244475000D03*
%TO.P,J2,40,Pin_40*%
%TO.N,/Level Shifters/PAN3V.MISO_07*%
X288607500Y-243205000D03*
%TO.P,J2,41,Pin_41*%
%TO.N,/Level Shifters/PAN3V.MISO_06*%
X286702500Y-241935000D03*
%TO.P,J2,42,Pin_42*%
%TO.N,/Level Shifters/PAN3V.MOSI_06*%
X288607500Y-240665000D03*
%TO.P,J2,43,Pin_43*%
%TO.N,/Level Shifters/PAN3V.MISO_05*%
X286702500Y-239395000D03*
%TO.P,J2,44,Pin_44*%
%TO.N,/Level Shifters/PAN3V.MOSI_05*%
X288607500Y-238125000D03*
%TO.P,J2,45,Pin_45*%
%TO.N,/Level Shifters/PAN3V.MISO_04*%
X286702500Y-236855000D03*
%TO.P,J2,46,Pin_46*%
%TO.N,/Level Shifters/PAN3V.MOSI_04*%
X288607500Y-235585000D03*
%TO.P,J2,47,Pin_47*%
%TO.N,/Level Shifters/PAN3V.MISO_03*%
X286702500Y-234315000D03*
%TO.P,J2,48,Pin_48*%
%TO.N,/Level Shifters/PAN3V.MOSI_03*%
X288607500Y-233045000D03*
%TO.P,J2,49,Pin_49*%
%TO.N,/Level Shifters/PAN3V.MISO_02*%
X286702500Y-231775000D03*
%TO.P,J2,50,Pin_50*%
%TO.N,/Level Shifters/PAN3V.MOSI_02*%
X288607500Y-230505000D03*
%TO.P,J2,51,Pin_51*%
%TO.N,/Level Shifters/PAN3V.MISO_01*%
X286702500Y-229235000D03*
%TO.P,J2,52,Pin_52*%
%TO.N,/Level Shifters/PAN3V.MOSI_01*%
X288607500Y-227965000D03*
%TO.P,J2,53,Pin_53*%
%TO.N,/Level Shifters/PAN3V.MISO_00*%
X286702500Y-226695000D03*
%TO.P,J2,54,Pin_54*%
%TO.N,/Level Shifters/PAN3V.MOSI_00*%
X288607500Y-225425000D03*
%TO.P,J2,55,Pin_55*%
%TO.N,/Level Shifters/PAN3V.SCK_05*%
X286702500Y-224155000D03*
%TO.P,J2,56,Pin_56*%
%TO.N,/Level Shifters/PAN3V.SCK_04*%
X288607500Y-222885000D03*
%TO.P,J2,57,Pin_57*%
%TO.N,/Level Shifters/PAN3V.SCK_03*%
X286702500Y-221615000D03*
%TO.P,J2,58,Pin_58*%
%TO.N,/Level Shifters/PAN3V.SCK_02*%
X288607500Y-220345000D03*
%TO.P,J2,59,Pin_59*%
%TO.N,/Level Shifters/PAN3V.SCK_01*%
X286702500Y-219075000D03*
%TO.P,J2,60,Pin_60*%
%TO.N,/Level Shifters/PAN3V.SCK_00*%
X288607500Y-217805000D03*
%TO.P,J2,61,Pin_61*%
%TO.N,/Level Shifters/PAN3V.CS_07*%
X286702500Y-216535000D03*
%TO.P,J2,62,Pin_62*%
%TO.N,/Level Shifters/PAN3V.CS_06*%
X288607500Y-215265000D03*
%TO.P,J2,63,Pin_63*%
%TO.N,/Level Shifters/PAN3V.CS_05*%
X286702500Y-213995000D03*
%TO.P,J2,64,Pin_64*%
%TO.N,/Level Shifters/PAN3V.CS_04*%
X288607500Y-212725000D03*
%TO.P,J2,65,Pin_65*%
%TO.N,/Level Shifters/PAN3V.CS_03*%
X286702500Y-211455000D03*
%TO.P,J2,66,Pin_66*%
%TO.N,/Level Shifters/PAN3V.CS_02*%
X288607500Y-210185000D03*
%TO.P,J2,67,Pin_67*%
%TO.N,/Level Shifters/PAN3V.CS_01*%
X286702500Y-208915000D03*
%TO.P,J2,68,Pin_68*%
%TO.N,/Level Shifters/PAN3V.CS_00*%
X288607500Y-207645000D03*
D25*
%TO.P,J2,69,GND*%
%TO.N,GND*%
X285750000Y-257555000D03*
%TO.P,J2,70,GND*%
X285750000Y-199645000D03*
%TD*%
D26*
%TO.P,P3,1*%
%TO.N,/Level Shifters/POW.5V_HDR_3*%
X206739068Y-92116000D03*
D12*
%TO.P,P3,2*%
%TO.N,GND*%
X208938773Y-93386000D03*
%TO.P,P3,3*%
%TO.N,/Panel Headers/RESET*%
X211138477Y-94656000D03*
%TO.P,P3,4*%
%TO.N,/Level Shifters/PAN5V.SCK_02*%
X213338182Y-95926000D03*
%TO.P,P3,5*%
%TO.N,/Level Shifters/PAN5V.MOSI_02*%
X215537886Y-97196000D03*
%TO.P,P3,6*%
%TO.N,/Level Shifters/PAN5V.MISO_02*%
X217737591Y-98466000D03*
%TO.P,P3,7*%
%TO.N,/Level Shifters/PAN5V.CS_00*%
X219937295Y-99736000D03*
%TO.P,P3,8*%
%TO.N,/Level Shifters/PAN5V.CS_01*%
X222137000Y-101006000D03*
%TO.P,P3,9*%
%TO.N,/Level Shifters/PAN5V.CS_02*%
X224336705Y-102276000D03*
%TO.P,P3,10*%
%TO.N,/Level Shifters/PAN5V.CS_03*%
X226536409Y-103546000D03*
%TO.P,P3,11*%
%TO.N,/Level Shifters/PAN5V.CS_04*%
X228736114Y-104816000D03*
%TO.P,P3,12*%
%TO.N,/Level Shifters/PAN5V.CS_05*%
X230935818Y-106086000D03*
%TO.P,P3,13*%
%TO.N,/Level Shifters/PAN5V.CS_06*%
X233135523Y-107356000D03*
%TO.P,P3,14*%
%TO.N,/Level Shifters/PAN5V.CS_07*%
X235335227Y-108626000D03*
%TO.P,P3,15*%
%TO.N,/Level Shifters/PAN5V.EXT_INT*%
X237534932Y-109896000D03*
%TD*%
D27*
%TO.N,+3.3V*%
X104724000Y-282448000D03*
X257150000Y-287648000D03*
X127940000Y-282524000D03*
X257124000Y-282448000D03*
X172923000Y-282550000D03*
X172796000Y-287776000D03*
X234137000Y-287685000D03*
X104800000Y-287648000D03*
X234137000Y-282499000D03*
X185649000Y-283159000D03*
X127940000Y-287713000D03*
%TO.N,/Level Shifters/POW.5V_HDR_10*%
X96215200Y-287633000D03*
X119355000Y-287731000D03*
X248514000Y-287663000D03*
X225400000Y-287690000D03*
X164186000Y-287801000D03*
X192075000Y-284074000D03*
X193167000Y-287477000D03*
X191918161Y-272492900D03*
%TO.N,/Level Shifters/PAN5V.CS_00*%
X257778600Y-154787600D03*
X225208200Y-112663900D03*
X127000000Y-245514000D03*
X239077000Y-233491900D03*
X100596100Y-195652800D03*
X259329200Y-209690400D03*
X157002300Y-264752800D03*
X107227400Y-134298900D03*
X122387200Y-280973900D03*
%TO.N,/Level Shifters/PAN5V.CS_01*%
X175508600Y-259203900D03*
X118516400Y-271119600D03*
X149098000Y-101041200D03*
X185619000Y-255655600D03*
X235883950Y-236391950D03*
X228396800Y-113255300D03*
%TO.N,/Level Shifters/PAN5V.CS_02*%
X173375500Y-256153800D03*
X98475800Y-253324000D03*
X230454200Y-114071400D03*
X227827500Y-243052000D03*
X117066200Y-122131200D03*
%TO.N,/Level Shifters/PAN5V.CS_03*%
X261061200Y-180797200D03*
X119774300Y-260585700D03*
X125227600Y-242595600D03*
X172364400Y-256803800D03*
X112674400Y-127355600D03*
X167182800Y-255981200D03*
%TO.N,/Level Shifters/PAN5V.CS_04*%
X96974400Y-148119800D03*
X162052000Y-255331200D03*
X261772400Y-181864000D03*
X119502500Y-261509300D03*
X124148800Y-239773900D03*
X169990300Y-258018200D03*
X119157400Y-121165700D03*
X239630900Y-121912100D03*
%TO.N,/Level Shifters/PAN5V.EXT_INT*%
X163793100Y-283668600D03*
X106204400Y-218186000D03*
X142614000Y-251831900D03*
X139783200Y-101862200D03*
X246557800Y-132715000D03*
X158597600Y-262160700D03*
%TO.N,GND*%
X143205200Y-102463600D03*
X277292000Y-204546000D03*
X125984000Y-242062000D03*
X119431000Y-282550000D03*
X107746800Y-135077200D03*
X260781800Y-181813200D03*
X116281200Y-122885200D03*
X263906000Y-272669000D03*
X204521000Y-78308200D03*
X257403600Y-244754400D03*
X262001000Y-265811000D03*
X128371600Y-112928400D03*
X97129600Y-156819600D03*
X261975600Y-251790200D03*
X140665200Y-102412800D03*
X171653200Y-275488400D03*
X116128800Y-282194000D03*
X237922000Y-287655000D03*
X211429600Y-249377200D03*
X250825000Y-235915200D03*
X170180000Y-289001200D03*
D28*
X200254000Y-271729000D03*
D27*
X235305600Y-262890000D03*
X229057200Y-283260800D03*
X280416000Y-267716000D03*
X235102400Y-282524200D03*
X271373600Y-280898600D03*
X156057600Y-274523200D03*
X232156000Y-278993600D03*
X164084000Y-257708400D03*
X117805200Y-266852400D03*
X104927000Y-250622000D03*
X238912400Y-122631200D03*
X233222800Y-232308400D03*
X172262800Y-255473200D03*
X108712000Y-287680000D03*
X207822800Y-252526800D03*
X160299000Y-287833000D03*
X105562400Y-213817200D03*
D28*
X85090000Y-150114000D03*
D27*
X244957600Y-130175000D03*
X173583600Y-272694400D03*
X177546000Y-268020800D03*
X249656600Y-239522000D03*
X96240600Y-282473000D03*
X117805200Y-270611600D03*
X272632830Y-285028030D03*
D28*
X244145000Y-247904000D03*
D27*
X104902000Y-104953000D03*
X229336600Y-114096800D03*
X135636000Y-105257600D03*
X119176800Y-122174000D03*
D28*
X271831000Y-155600000D03*
D27*
X198551800Y-272719800D03*
X128854200Y-282524200D03*
X289534600Y-130911600D03*
X216687400Y-107442000D03*
D28*
X107645000Y-244170000D03*
D27*
X193090800Y-275818600D03*
X233375200Y-265836400D03*
X78232000Y-151130000D03*
X201650600Y-253161800D03*
D28*
X150216000Y-270434000D03*
D27*
X198043800Y-96799400D03*
X162661600Y-254508000D03*
X247396000Y-275336000D03*
X263855200Y-284784800D03*
X245592600Y-132156200D03*
X179019200Y-279349200D03*
X250469400Y-138912600D03*
X186944000Y-256834900D03*
X118795800Y-286105600D03*
X169976800Y-286816800D03*
X114401600Y-223875600D03*
X245516400Y-281559000D03*
X181660800Y-96672400D03*
X242798600Y-118618000D03*
X255066800Y-241427000D03*
X273431000Y-272288000D03*
X225425000Y-282499000D03*
X124307600Y-238658400D03*
X242316000Y-278942800D03*
X210515200Y-254152400D03*
X264312400Y-248589800D03*
X161188400Y-261518400D03*
X158292800Y-261162800D03*
X274624800Y-229108000D03*
X120599200Y-261213600D03*
X131750000Y-287706000D03*
X233121200Y-236067600D03*
X105613200Y-282448000D03*
X281228800Y-259384800D03*
X176708000Y-287731000D03*
X254127000Y-262763000D03*
X250698000Y-290220400D03*
X229057200Y-284403800D03*
X241147600Y-228193600D03*
X95504000Y-189026800D03*
X277012400Y-223621600D03*
X192989200Y-284073600D03*
X97536000Y-253365000D03*
X218821000Y-287528000D03*
X206231963Y-253988604D03*
X153720800Y-263093200D03*
X250673000Y-250622000D03*
X154787600Y-253898400D03*
X112877600Y-126390400D03*
X204368400Y-266242800D03*
X164236000Y-282600000D03*
X243205000Y-285623000D03*
X244195600Y-220980000D03*
X115087400Y-278434800D03*
D28*
X248056000Y-111328000D03*
D27*
X254152400Y-254101600D03*
X97129600Y-149199600D03*
X117551200Y-263398000D03*
X104444800Y-209499200D03*
X257947400Y-282067000D03*
X268579600Y-244398800D03*
X92354400Y-287630000D03*
X100482400Y-194411600D03*
X241731800Y-125984000D03*
X127660400Y-244856000D03*
X225933000Y-113461800D03*
X229006400Y-241909600D03*
X102362000Y-212598000D03*
X258699000Y-283718000D03*
X115595000Y-287782000D03*
X217728800Y-246430800D03*
X78282800Y-204445000D03*
X258521200Y-210261200D03*
X230047800Y-287401000D03*
X238048800Y-272999200D03*
X123291600Y-281127200D03*
X214528400Y-247192800D03*
X270256000Y-270383000D03*
X223977200Y-241096800D03*
D28*
X205435000Y-85140800D03*
D27*
X157276800Y-265582400D03*
X222961200Y-260604000D03*
X262356600Y-184683400D03*
X122732800Y-286562800D03*
X193141600Y-253949200D03*
X175310800Y-85344000D03*
X141884400Y-250901200D03*
X261518000Y-287680000D03*
X205386820Y-251144800D03*
X148691600Y-100228400D03*
X98552000Y-200101200D03*
X168046400Y-255473200D03*
X271526000Y-231902000D03*
X256667000Y-272415000D03*
X258597400Y-155346400D03*
X180695600Y-277886200D03*
X221412000Y-287706000D03*
X184658000Y-255473200D03*
X193065400Y-272643600D03*
X236270800Y-265785600D03*
X188468000Y-260400800D03*
D28*
X204775000Y-277317000D03*
D27*
X234746800Y-234543600D03*
X107035600Y-218948000D03*
X262493100Y-242011200D03*
X165557200Y-280568400D03*
X169367200Y-257149600D03*
X122885200Y-236321600D03*
X197027800Y-254508000D03*
X151105000Y-277292000D03*
X263804400Y-217525600D03*
X258953000Y-262890000D03*
X167894000Y-287070800D03*
X246481600Y-285750000D03*
X236753400Y-235585000D03*
X288544000Y-124968000D03*
X280060400Y-218236800D03*
X277317000Y-151257000D03*
D28*
X111354000Y-107569000D03*
D27*
X151206000Y-78282800D03*
X185978800Y-272491200D03*
X230225600Y-272796000D03*
X189154000Y-287477000D03*
X102022821Y-217991779D03*
X137363200Y-248056400D03*
X126288800Y-236169200D03*
X125222000Y-283413200D03*
X181813200Y-282905200D03*
D28*
X83820000Y-200228000D03*
D27*
X222300800Y-247700800D03*
D28*
X270408000Y-205410000D03*
D27*
X244729000Y-287680000D03*
X245008400Y-217195400D03*
X248539000Y-282448000D03*
X110337600Y-259689600D03*
X275410600Y-272542000D03*
X186893000Y-285928000D03*
X176733200Y-259283200D03*
X140106400Y-286004000D03*
X250673000Y-105029000D03*
X173837600Y-282576200D03*
X255905000Y-275336000D03*
X110947200Y-223113600D03*
D28*
X155372000Y-83769200D03*
D27*
X238353600Y-234137200D03*
%TO.N,/Level Shifters/PAN5V.CS_05*%
X242224300Y-125261700D03*
X118457600Y-269912100D03*
X155651200Y-254721600D03*
X218643200Y-245922800D03*
X123188600Y-238967400D03*
X180797200Y-97129600D03*
X128676400Y-113842800D03*
X262712200Y-183743600D03*
%TO.N,/Level Shifters/PAN5V.CS_06*%
X217084700Y-247382100D03*
X134242900Y-105454500D03*
X121858500Y-236389500D03*
X263344780Y-184889020D03*
X182575200Y-95961200D03*
X244878000Y-128977400D03*
X118201900Y-265938000D03*
%TO.N,/Level Shifters/PAN5V.RESET*%
X255773600Y-272368700D03*
X288637800Y-130946800D03*
%TO.N,/Level Shifters/PAN3V.RESET*%
X181040000Y-282453000D03*
X222953000Y-241814600D03*
%TO.N,/Level Shifters/PAN3V.CS_00*%
X262179700Y-267004500D03*
%TO.N,/Level Shifters/PAN3V.CS_01*%
X260966300Y-267666000D03*
%TO.N,/Level Shifters/PAN3V.CS_02*%
X263645300Y-248030400D03*
%TO.N,/Level Shifters/PAN3V.CS_03*%
X270615500Y-231912300D03*
X198542500Y-273590900D03*
X223684850Y-261175250D03*
%TO.N,/Level Shifters/PAN3V.CS_04*%
X261938100Y-250786800D03*
%TO.N,/Level Shifters/PAN3V.CS_05*%
X280985000Y-217487800D03*
X186690000Y-271844300D03*
X210667600Y-248666000D03*
%TO.N,/Level Shifters/PAN3V.CS_06*%
X254596800Y-263505800D03*
X263976300Y-218414500D03*
%TO.N,/Level Shifters/PAN3V.CS_07*%
X194189270Y-267900070D03*
X274114300Y-228421900D03*
X208205323Y-251789423D03*
%TO.N,/Level Shifters/PAN5V.CS_07*%
X162560000Y-261513200D03*
X245872900Y-131064000D03*
X117560200Y-262306900D03*
X110705000Y-224094500D03*
X136509400Y-104302800D03*
%TO.N,/Level Shifters/PAN3V.SCK_00*%
X213864400Y-248078000D03*
X169246000Y-287640400D03*
%TO.N,/Level Shifters/PAN3V.SCK_01*%
X276462800Y-222939500D03*
X169621200Y-289708900D03*
%TO.N,/Level Shifters/PAN3V.SCK_02*%
X270605300Y-269540800D03*
%TO.N,/Level Shifters/PAN3V.SCK_03*%
X181509100Y-279789800D03*
X214229300Y-249406000D03*
%TO.N,/Level Shifters/PAN3V.SCK_04*%
X262440000Y-241045500D03*
X140689300Y-285392200D03*
X187960000Y-256834900D03*
%TO.N,/Level Shifters/PAN3V.SCK_05*%
X250571000Y-239236100D03*
X230690800Y-272063100D03*
%TO.N,/Level Shifters/PAN3V.MOSI_00*%
X178554200Y-267635100D03*
X164721000Y-279911900D03*
%TO.N,/Level Shifters/PAN3V.MISO_00*%
X200577400Y-253170600D03*
X176088800Y-279393900D03*
%TO.N,/Level Shifters/PAN5V.MISO_00*%
X221474050Y-248652050D03*
X206375000Y-251144800D03*
X178460900Y-277918300D03*
X233326100Y-233320600D03*
%TO.N,/Level Shifters/PAN5V.MOSI_00*%
X182991100Y-277985600D03*
X243349100Y-220537500D03*
X229954400Y-240901400D03*
X218513700Y-244667400D03*
%TO.N,/Level Shifters/PAN5V.SCK_05*%
X115962400Y-278268900D03*
X232681900Y-236999900D03*
X117070600Y-281734800D03*
X97942400Y-156260800D03*
X193598800Y-273278600D03*
%TO.N,/Level Shifters/PAN5V.SCK_04*%
X115519200Y-282829000D03*
X205163876Y-254696200D03*
X177250600Y-278891900D03*
%TO.N,/Level Shifters/PAN5V.SCK_03*%
X104807200Y-214465800D03*
X122360500Y-285761600D03*
X155375970Y-273892370D03*
X99289100Y-199323200D03*
%TO.N,/Level Shifters/PAN5V.SCK_02*%
X118770500Y-285064200D03*
X96435600Y-189229100D03*
X101296400Y-195202100D03*
X111281200Y-259674000D03*
%TO.N,/Level Shifters/PAN5V.SCK_01*%
X102073216Y-218900670D03*
X119433000Y-286806900D03*
X215659700Y-107631500D03*
%TO.N,/Level Shifters/PAN5V.SCK_00*%
X104323400Y-210654300D03*
X156441720Y-273586520D03*
X203831800Y-265276600D03*
X124413200Y-283730800D03*
X231978200Y-236143800D03*
%TO.N,/Level Shifters/PAN3V.MOSI_01*%
X270745600Y-268547000D03*
%TO.N,/Level Shifters/PAN3V.MISO_01*%
X256480700Y-244589200D03*
X244542020Y-281473620D03*
%TO.N,/Level Shifters/PAN3V.MOSI_02*%
X270400094Y-280952300D03*
%TO.N,/Level Shifters/PAN3V.MISO_02*%
X271072450Y-279962450D03*
%TO.N,/Level Shifters/PAN3V.MOSI_03*%
X273431000Y-273304000D03*
%TO.N,/Level Shifters/PAN3V.MISO_03*%
X273396700Y-271198200D03*
%TO.N,/Level Shifters/PAN3V.MOSI_04*%
X282141800Y-259767200D03*
%TO.N,/Level Shifters/PAN3V.MISO_04*%
X254656600Y-254759500D03*
X241582300Y-278605700D03*
%TO.N,/Level Shifters/PAN5V.MISO_04*%
X228447000Y-282610700D03*
X251256800Y-138607800D03*
%TO.N,/Level Shifters/PAN5V.MOSI_04*%
X224559600Y-282194000D03*
X142766800Y-103327200D03*
X245819500Y-216643600D03*
X138942000Y-102348000D03*
%TO.N,/Level Shifters/PAN5V.MISO_03*%
X228313600Y-283848100D03*
X176410300Y-85435700D03*
%TO.N,/Level Shifters/PAN5V.MOSI_03*%
X199263000Y-96850200D03*
X228235900Y-284904400D03*
X242172050Y-119295350D03*
%TO.N,/Level Shifters/PAN5V.MISO_02*%
X225425000Y-281609800D03*
%TO.N,/Level Shifters/PAN5V.MOSI_02*%
X225658900Y-285553500D03*
%TO.N,/Level Shifters/PAN5V.MISO_01*%
X229567000Y-286704600D03*
%TO.N,/Level Shifters/PAN5V.MOSI_01*%
X246176800Y-282945600D03*
%TO.N,/Level Shifters/PAN3V.MOSI_05*%
X279600900Y-266942200D03*
%TO.N,/Panel Headers/RESET*%
X187744900Y-260920300D03*
X197987900Y-254516300D03*
X241967400Y-227526200D03*
X103498000Y-212382500D03*
%TO.N,/Level Shifters/PAN3V.MISO_05*%
X269199700Y-244997000D03*
X261416800Y-286715200D03*
%TO.N,/Level Shifters/PAN3V.MISO_06*%
X271627600Y-285038800D03*
%TO.N,/Level Shifters/PAN3V.MOSI_07*%
X262788400Y-284683200D03*
%TO.N,/Level Shifters/PAN3V.MISO_07*%
X272796000Y-283921200D03*
%TO.N,/Level Shifters/PAN3V.MOSI_08*%
X257649100Y-283766700D03*
%TO.N,/Level Shifters/PAN3V.MISO_08*%
X276060600Y-273276900D03*
%TO.N,/Level Shifters/PAN5V.MISO_08*%
X147777200Y-260908800D03*
X237236000Y-265633200D03*
X245008400Y-282295600D03*
%TO.N,/Level Shifters/PAN5V.MOSI_08*%
X248474100Y-283785600D03*
X234188000Y-264363200D03*
%TO.N,/Level Shifters/PAN5V.MISO_07*%
X140941700Y-250229400D03*
X243839900Y-284881900D03*
X232454100Y-265774000D03*
X152584400Y-262978000D03*
%TO.N,/Level Shifters/PAN5V.MOSI_07*%
X136550400Y-247243600D03*
X174624200Y-272471500D03*
X219839800Y-287328600D03*
X192420000Y-273142900D03*
%TO.N,/Level Shifters/PAN5V.MISO_06*%
X152710500Y-263789700D03*
X247507880Y-285760280D03*
X236056200Y-266620400D03*
X113436400Y-223164400D03*
%TO.N,/Level Shifters/PAN5V.MOSI_06*%
X125379680Y-236428480D03*
X245436600Y-285769700D03*
X163113900Y-258200100D03*
X235102400Y-263906000D03*
%TO.N,/Level Shifters/PAN5V.MISO_05*%
X249969600Y-289613000D03*
%TO.N,/Level Shifters/PAN5V.MOSI_05*%
X217906600Y-287832800D03*
X193096700Y-276770000D03*
X172791000Y-274823700D03*
X153466800Y-254061200D03*
%TO.N,/Level Shifters/PAN3V.MOSI_09*%
X262873400Y-272645600D03*
%TO.N,/Level Shifters/PAN3V.MOSI_10*%
X251396300Y-236600900D03*
X231289800Y-278994200D03*
%TO.N,/Level Shifters/PAN3V.MISO_10*%
X258690900Y-262091700D03*
X246484900Y-275293800D03*
%TO.N,/Level Shifters/PAN3V.MOSI_11*%
X256460300Y-274632100D03*
%TO.N,/Level Shifters/PAN5V.MISO_11*%
X237971600Y-274219900D03*
%TO.N,/Level Shifters/PAN5V.MOSI_11*%
X253923800Y-241401600D03*
X194069800Y-254394700D03*
X174522500Y-282034800D03*
%TO.N,/Level Shifters/PAN5V.MISO_10*%
X209798500Y-254907100D03*
X170172000Y-285733800D03*
%TO.N,/Level Shifters/PAN5V.MOSI_10*%
X167910200Y-286070400D03*
X192596500Y-254768200D03*
%TO.N,/Level Shifters/PAN5V.MISO_09*%
X166966800Y-287118100D03*
%TO.N,/Level Shifters/PAN5V.MOSI_09*%
X167153600Y-287931500D03*
D28*
%TO.N,VCC*%
X277343000Y-155423000D03*
X102870000Y-246990000D03*
X246939000Y-252705000D03*
X108687000Y-102870000D03*
X275184000Y-208077000D03*
X155346000Y-78308200D03*
X252705000Y-108661000D03*
X200254000Y-277317000D03*
X78333600Y-200254000D03*
X208153000Y-80467200D03*
X147472000Y-275209000D03*
X80441800Y-147472000D03*
%TD*%
D29*
%TO.N,+3.3V*%
X257124000Y-287623000D02*
X257150000Y-287648000D01*
X104775000Y-287623000D02*
X104800000Y-287648000D01*
%TO.N,/Level Shifters/POW.5V_HDR_10*%
X192126000Y-288595000D02*
X190144600Y-288595000D01*
X190144600Y-288595000D02*
X189975600Y-288426000D01*
X193167000Y-287477000D02*
X192100200Y-287477000D01*
X169566439Y-288239200D02*
X169210639Y-288595000D01*
X192075000Y-284074000D02*
X191770000Y-283769000D01*
X248539000Y-287688000D02*
X248514000Y-287663000D01*
X119355000Y-288595000D02*
X119355000Y-287731000D01*
X248539000Y-288595000D02*
X248539000Y-287688000D01*
X164186000Y-288595000D02*
X119355000Y-288595000D01*
X96240600Y-288595000D02*
X96240600Y-287658000D01*
X169210639Y-288595000D02*
X164186000Y-288595000D01*
X119355000Y-288595000D02*
X96240600Y-288595000D01*
X192075000Y-284074000D02*
X192100000Y-284099000D01*
X192100200Y-287477000D02*
X192100000Y-287477200D01*
X164186000Y-287801000D02*
X164186000Y-288595000D01*
X192100000Y-284099000D02*
X192100000Y-287477200D01*
X191770000Y-283769000D02*
X191770000Y-272641061D01*
X96240600Y-287658000D02*
X96215200Y-287633000D01*
X189975600Y-288426000D02*
X172526761Y-288426000D01*
X192100000Y-288569000D02*
X192126000Y-288595000D01*
X191770000Y-272641061D02*
X191918161Y-272492900D01*
X192100000Y-287477200D02*
X192100000Y-288569000D01*
X172526761Y-288426000D02*
X172339961Y-288239200D01*
X225400000Y-288595000D02*
X248539000Y-288595000D01*
X192126000Y-288595000D02*
X225400000Y-288595000D01*
X172339961Y-288239200D02*
X169566439Y-288239200D01*
X225400000Y-288595000D02*
X225400000Y-287690000D01*
%TO.N,/Level Shifters/PAN5V.CS_00*%
X224336700Y-251691300D02*
X224336700Y-253324000D01*
X156817400Y-264937700D02*
X157002300Y-264752800D01*
X258207200Y-213467700D02*
X258207200Y-211718200D01*
X239077000Y-235273800D02*
X231216900Y-243133900D01*
X191770000Y-88748800D02*
X191770000Y-91541600D01*
X191770000Y-91541600D02*
X197688200Y-97459800D01*
X198192106Y-97459800D02*
X203195906Y-102463600D01*
X102998000Y-223614700D02*
X102998000Y-216363000D01*
X100596100Y-213961100D02*
X100596100Y-195652800D01*
X127000000Y-245514000D02*
X127000000Y-245516400D01*
X131261800Y-102277500D02*
X131261800Y-105009000D01*
X257778600Y-154787600D02*
X257778600Y-147166200D01*
X102998000Y-216363000D02*
X100596100Y-213961100D01*
X257778600Y-147166200D02*
X253324000Y-142711600D01*
X219597100Y-100076200D02*
X219937300Y-99736000D01*
X135662700Y-254179100D02*
X135662700Y-264937700D01*
X255864000Y-219937300D02*
X255864000Y-215810900D01*
X258207200Y-211718200D02*
X259329200Y-210596200D01*
X217209700Y-102463600D02*
X219597100Y-100076200D01*
X231216900Y-244811100D02*
X224336700Y-251691300D01*
X131261800Y-105009000D02*
X111785300Y-124485500D01*
X131263300Y-102276000D02*
X131261800Y-102277500D01*
X135662700Y-264937700D02*
X156817400Y-264937700D01*
X135662700Y-264937700D02*
X122387200Y-278213200D01*
X102276000Y-224336700D02*
X102998000Y-223614700D01*
X259329200Y-210596200D02*
X259329200Y-209690400D01*
X122387200Y-278213200D02*
X122387200Y-280973900D01*
X255864000Y-215810900D02*
X258207200Y-213467700D01*
X127000000Y-245516400D02*
X135662700Y-254179100D01*
X111785300Y-129741000D02*
X107227400Y-134298900D01*
X175260000Y-89126000D02*
X176412400Y-87973600D01*
X231216900Y-243133900D02*
X231216900Y-244811100D01*
X197688200Y-97459800D02*
X198192106Y-97459800D01*
X219597100Y-100076200D02*
X219597100Y-107052800D01*
X111785300Y-124485500D02*
X111785300Y-129741000D01*
X239077000Y-233491900D02*
X239077000Y-235273800D01*
X203195906Y-102463600D02*
X217209700Y-102463600D01*
X253324000Y-142711600D02*
X253324000Y-131263300D01*
X176412400Y-87973600D02*
X190994800Y-87973600D01*
X190994800Y-87973600D02*
X191770000Y-88748800D01*
X219597100Y-107052800D02*
X225208200Y-112663900D01*
%TO.N,/Level Shifters/PAN5V.CS_01*%
X268688100Y-162947100D02*
X268688100Y-146770000D01*
X95820500Y-146579400D02*
X96404600Y-145995300D01*
X118516400Y-271119600D02*
X118567200Y-271119600D01*
X255381100Y-133463000D02*
X254594000Y-133463000D01*
X270713200Y-164972200D02*
X268688100Y-162947100D01*
X177800000Y-260122000D02*
X176426700Y-260122000D01*
X254594000Y-222137000D02*
X254594000Y-216371200D01*
X101006000Y-140344800D02*
X101006000Y-133463000D01*
X270715100Y-196949700D02*
X270715100Y-177800000D01*
X270713200Y-174472600D02*
X270713200Y-164972200D01*
X257098800Y-213866400D02*
X257098800Y-210566000D01*
X225620600Y-248634300D02*
X222137000Y-252117900D01*
X96404600Y-145995300D02*
X96404600Y-144946200D01*
X222137000Y-252117900D02*
X222137000Y-254594000D01*
X227583500Y-110105600D02*
X222137000Y-104659100D01*
X150585000Y-99554200D02*
X167371800Y-99554200D01*
X181152600Y-260122000D02*
X177800000Y-260122000D01*
X167371800Y-99554200D02*
X177800000Y-89126000D01*
X257098800Y-210566000D02*
X270715100Y-196949700D01*
X133463000Y-256223800D02*
X133463000Y-254594000D01*
X270713200Y-174472600D02*
X270713200Y-177798100D01*
X235883950Y-236391950D02*
X225620600Y-246655300D01*
X89126000Y-177800000D02*
X85191600Y-173865600D01*
X222137000Y-104659100D02*
X222137000Y-101006000D01*
X228396800Y-113255300D02*
X227583500Y-112442000D01*
X266474000Y-177800000D02*
X270715100Y-177800000D01*
X91897200Y-152247600D02*
X92659200Y-152247600D01*
X268688100Y-146770000D02*
X255381100Y-133463000D01*
X96404600Y-144946200D02*
X101006000Y-140344800D01*
X225620600Y-246655300D02*
X225620600Y-248634300D01*
X85191600Y-173865600D02*
X85191600Y-158953200D01*
X85191600Y-158953200D02*
X91897200Y-152247600D01*
X92659200Y-152247600D02*
X95820500Y-149086300D01*
X254594000Y-216371200D02*
X257098800Y-213866400D01*
X185619000Y-255655600D02*
X181152600Y-260122000D01*
X227583500Y-112442000D02*
X227583500Y-110105600D01*
X149098000Y-101041200D02*
X150585000Y-99554200D01*
X270713200Y-177798100D02*
X270715100Y-177800000D01*
X95820500Y-149086300D02*
X95820500Y-146579400D01*
X118567200Y-271119600D02*
X133463000Y-256223800D01*
X177800000Y-266474000D02*
X177800000Y-260122000D01*
X176426700Y-260122000D02*
X175508600Y-259203900D01*
%TO.N,/Level Shifters/PAN5V.CS_02*%
X255864000Y-135662700D02*
X256609700Y-135662700D01*
X92650736Y-152747600D02*
X92866306Y-152747600D01*
X224822700Y-246056800D02*
X227827500Y-243052000D01*
X256609700Y-135662700D02*
X265321900Y-144374900D01*
X96928600Y-146181000D02*
X96928600Y-145285800D01*
X96928600Y-145285800D02*
X102188200Y-140026200D01*
X98450400Y-253298600D02*
X98450400Y-220227700D01*
X131763700Y-105777100D02*
X117066200Y-120474600D01*
X96322400Y-149291506D02*
X96322400Y-146787200D01*
X88410500Y-199544900D02*
X90803100Y-197152300D01*
X98475800Y-253324000D02*
X98450400Y-253298600D01*
X90803100Y-176937100D02*
X89126000Y-175260000D01*
X99326700Y-220227700D02*
X97901300Y-220227700D01*
X90803100Y-197152300D02*
X90803100Y-176937100D01*
X173375500Y-256153800D02*
X173375500Y-264589500D01*
X219937300Y-252874800D02*
X224822700Y-247989400D01*
X224336700Y-104939500D02*
X224336700Y-102276000D01*
X224822700Y-247989400D02*
X224822700Y-246056800D01*
X228233900Y-108836700D02*
X224336700Y-104939500D01*
X102188200Y-131351100D02*
X102276000Y-131263300D01*
X102188200Y-140026200D02*
X102188200Y-131351100D01*
X85902800Y-159495536D02*
X92650736Y-152747600D01*
X230454200Y-114071400D02*
X228233900Y-111851100D01*
X219937300Y-255864000D02*
X219937300Y-252874800D01*
X228233900Y-111851100D02*
X228233900Y-108836700D01*
X88410500Y-210736900D02*
X88410500Y-199544900D01*
X97901300Y-220227700D02*
X88410500Y-210736900D01*
X89126000Y-175260000D02*
X85902800Y-172036800D01*
X173375500Y-264589500D02*
X175260000Y-266474000D01*
X265321900Y-178450000D02*
X266474000Y-179602100D01*
X92866306Y-152747600D02*
X96322400Y-149291506D01*
X99445600Y-220227700D02*
X99736000Y-219937300D01*
X265321900Y-144374900D02*
X265321900Y-178450000D01*
X266474000Y-179602100D02*
X266474000Y-180340000D01*
X96322400Y-146787200D02*
X96928600Y-146181000D01*
X135662700Y-99736000D02*
X135662700Y-100878300D01*
X99326700Y-220227700D02*
X99445600Y-220227700D01*
X117066200Y-120474600D02*
X117066200Y-122131200D01*
X135662700Y-100878300D02*
X131763700Y-104777300D01*
X85902800Y-172036800D02*
X85902800Y-159495536D01*
X131763700Y-104777300D02*
X131763700Y-105777100D01*
X98450400Y-220227700D02*
X99326700Y-220227700D01*
%TO.N,/Level Shifters/PAN5V.CS_03*%
X167487600Y-256286000D02*
X171846600Y-256286000D01*
X260883400Y-180619400D02*
X260883400Y-156134400D01*
X117907700Y-122782700D02*
X117907700Y-121496161D01*
X128413800Y-252054000D02*
X129063600Y-252054000D01*
X167182800Y-255981200D02*
X167487600Y-256286000D01*
X112674400Y-127355600D02*
X113334800Y-127355600D01*
X132267100Y-106797700D02*
X132267100Y-104983600D01*
X256286000Y-210540600D02*
X256286000Y-213255900D01*
X258518800Y-153769800D02*
X258518800Y-145070700D01*
X91490800Y-197424600D02*
X91490800Y-175084800D01*
X98466000Y-217737600D02*
X96782800Y-217737600D01*
X261061200Y-180797200D02*
X260883400Y-180619400D01*
X137862400Y-99388300D02*
X137862400Y-98466000D01*
X269636000Y-197190600D02*
X256286000Y-210540600D01*
X128413800Y-249783500D02*
X125227600Y-246597300D01*
X96782800Y-217737600D02*
X88923900Y-209878700D01*
X119882100Y-260585700D02*
X128413800Y-252054000D01*
X118888161Y-120515700D02*
X118888161Y-120176639D01*
X172364400Y-256803800D02*
X172720000Y-257159400D01*
X258518800Y-145070700D02*
X257134000Y-143685900D01*
X252825100Y-216716800D02*
X252825100Y-222688800D01*
X117907700Y-121496161D02*
X118888161Y-120515700D01*
X252825100Y-222688800D02*
X252054000Y-223459900D01*
X266474000Y-182880000D02*
X269636000Y-186042000D01*
X172720000Y-257159400D02*
X172720000Y-266474000D01*
X125227600Y-246597300D02*
X125227600Y-242595600D01*
X113334800Y-127355600D02*
X117907700Y-122782700D01*
X119774300Y-260585700D02*
X119882100Y-260585700D01*
X118888161Y-120176639D02*
X132267100Y-106797700D01*
X269636000Y-186042000D02*
X269636000Y-197190600D01*
X88923900Y-199991500D02*
X91490800Y-197424600D01*
X260883400Y-156134400D02*
X258518800Y-153769800D01*
X132267100Y-104983600D02*
X137862400Y-99388300D01*
X252054000Y-223459900D02*
X252054000Y-226536400D01*
X256286000Y-213255900D02*
X252825100Y-216716800D01*
X91490800Y-175084800D02*
X89126000Y-172720000D01*
X128413800Y-252054000D02*
X128413800Y-249783500D01*
X257134000Y-143685900D02*
X257134000Y-137862400D01*
X171846600Y-256286000D02*
X172364400Y-256803800D01*
X88923900Y-209878700D02*
X88923900Y-199991500D01*
%TO.N,/Level Shifters/PAN5V.CS_04*%
X169974200Y-258034300D02*
X169990300Y-258018200D01*
X95700700Y-215537900D02*
X89437200Y-209274400D01*
X97700400Y-147393800D02*
X96974400Y-148119800D01*
X259020700Y-143412200D02*
X258404000Y-142795500D01*
X89437200Y-209274400D02*
X89437200Y-200825200D01*
X132833300Y-105127100D02*
X132833300Y-107501500D01*
X170180000Y-266474000D02*
X170180000Y-258240100D01*
X102722000Y-140441100D02*
X97700400Y-145462700D01*
X119169100Y-121165700D02*
X119157400Y-121165700D01*
X258404000Y-142795500D02*
X258404000Y-140062100D01*
X269132600Y-196758200D02*
X255694700Y-210196100D01*
X124148800Y-239773900D02*
X124148800Y-246228200D01*
X170180000Y-258240100D02*
X169974200Y-258034300D01*
X140062100Y-97898300D02*
X132833300Y-105127100D01*
X228736100Y-111017300D02*
X239630900Y-121912100D01*
X255694700Y-213137500D02*
X252323200Y-216509000D01*
X266474000Y-185420000D02*
X269132600Y-188078600D01*
X255694700Y-210196100D02*
X255694700Y-213137500D01*
X97700400Y-145462700D02*
X97700400Y-147393800D01*
X89437200Y-200825200D02*
X92151200Y-198111200D01*
X119122400Y-258525500D02*
X119122400Y-260855600D01*
X104816000Y-130352400D02*
X102722000Y-132446400D01*
X126863900Y-248943300D02*
X126863900Y-250784000D01*
X126863900Y-250784000D02*
X119122400Y-258525500D01*
X162052000Y-255331200D02*
X163394800Y-255331200D01*
X259020700Y-153561900D02*
X259020700Y-143412200D01*
X119122400Y-260855600D02*
X119502500Y-261235700D01*
X92151200Y-173205200D02*
X89126000Y-170180000D01*
X250785500Y-224001500D02*
X250785500Y-228734600D01*
X261772400Y-181864000D02*
X261772400Y-156313600D01*
X166097900Y-258034300D02*
X169974200Y-258034300D01*
X104816000Y-126863900D02*
X104816000Y-130352400D01*
X132833300Y-107501500D02*
X119169100Y-121165700D01*
X250785500Y-228734600D02*
X250784000Y-228736100D01*
X261772400Y-156313600D02*
X259020700Y-153561900D01*
X124148800Y-246228200D02*
X126863900Y-248943300D01*
X269132600Y-188078600D02*
X269132600Y-196758200D01*
X228736100Y-104816000D02*
X228736100Y-111017300D01*
X252323200Y-222463800D02*
X250785500Y-224001500D01*
X119502500Y-261235700D02*
X119502500Y-261509300D01*
X252323200Y-216509000D02*
X252323200Y-222463800D01*
X140062100Y-97196000D02*
X140062100Y-97898300D01*
X163394800Y-255331200D02*
X166097900Y-258034300D01*
X102722000Y-132446400D02*
X102722000Y-140441100D01*
X97196000Y-215537900D02*
X95700700Y-215537900D01*
X92151200Y-198111200D02*
X92151200Y-173205200D01*
%TO.N,/Level Shifters/PAN5V.EXT_INT*%
X163793100Y-283668600D02*
X160020000Y-279895500D01*
X266474000Y-195916000D02*
X253161800Y-209228200D01*
X100569800Y-149772600D02*
X90322400Y-160020000D01*
X158597600Y-262160700D02*
X160020000Y-263583100D01*
X105156000Y-141884400D02*
X100569800Y-146470600D01*
X94792800Y-204062300D02*
X94792800Y-165686800D01*
X253161800Y-212644800D02*
X250190300Y-215616300D01*
X248554400Y-225476300D02*
X245704000Y-228326700D01*
X253161800Y-209228200D02*
X253161800Y-212644800D01*
X106204400Y-218186000D02*
X106204400Y-221109800D01*
X250190300Y-215616300D02*
X250190300Y-221048200D01*
X118065100Y-232970500D02*
X118065100Y-245704000D01*
X266474000Y-195580000D02*
X266474000Y-195916000D01*
X109779200Y-129405900D02*
X105156000Y-134029100D01*
X148860900Y-92116000D02*
X154007500Y-86969400D01*
X264819900Y-193925900D02*
X266474000Y-195580000D01*
X263484000Y-148860900D02*
X264318100Y-149695000D01*
X264318100Y-179115900D02*
X264819900Y-179617700D01*
X139783200Y-101862200D02*
X139863000Y-101862200D01*
X160020000Y-279895500D02*
X160020000Y-266474000D01*
X92116000Y-206739100D02*
X94792800Y-204062300D01*
X154007500Y-86969400D02*
X193423400Y-86969400D01*
X139863000Y-101862200D02*
X148860900Y-92864300D01*
X246557800Y-132715000D02*
X246551200Y-132708400D01*
X248554400Y-222684100D02*
X248554400Y-225476300D01*
X106204400Y-221109800D02*
X118065100Y-232970500D01*
X94792800Y-165686800D02*
X89126000Y-160020000D01*
X100569800Y-146470600D02*
X100569800Y-149772600D01*
X264318100Y-149695000D02*
X264318100Y-179115900D01*
X152942800Y-262160700D02*
X142614000Y-251831900D01*
X264819900Y-179617700D02*
X264819900Y-193925900D01*
X109896000Y-118065100D02*
X109779200Y-118181900D01*
X193423400Y-86969400D02*
X195580000Y-89126000D01*
X237534900Y-116402500D02*
X237534900Y-109896000D01*
X246551200Y-125418800D02*
X237534900Y-116402500D01*
X90322400Y-160020000D02*
X89126000Y-160020000D01*
X246551200Y-132708400D02*
X246551200Y-125418800D01*
X109779200Y-118181900D02*
X109779200Y-129405900D01*
X245704000Y-228326700D02*
X245704000Y-237534900D01*
X105156000Y-134029100D02*
X105156000Y-141884400D01*
X158597600Y-262160700D02*
X152942800Y-262160700D01*
X160020000Y-263583100D02*
X160020000Y-266474000D01*
X148860900Y-92864300D02*
X148860900Y-92116000D01*
X250190300Y-221048200D02*
X248554400Y-222684100D01*
%TO.N,/Level Shifters/PAN5V.CS_05*%
X86715600Y-165229600D02*
X89126000Y-167640000D01*
X92710000Y-198831200D02*
X92710000Y-171224000D01*
X251821300Y-216114400D02*
X251821300Y-221650800D01*
X92710000Y-171224000D02*
X89126000Y-167640000D01*
X157962200Y-255935700D02*
X167640000Y-265613500D01*
X213338200Y-252994400D02*
X213338200Y-259674000D01*
X106086000Y-124664200D02*
X106086000Y-130970000D01*
X106086000Y-130970000D02*
X103327200Y-133728800D01*
X118850600Y-261293500D02*
X118850600Y-261779200D01*
X218643200Y-247689400D02*
X213338200Y-252994400D01*
X133399100Y-105334000D02*
X133972400Y-104760700D01*
X251821300Y-221650800D02*
X250283600Y-223188500D01*
X88235442Y-157870000D02*
X86715600Y-159389842D01*
X180797200Y-97129600D02*
X180870800Y-97056000D01*
X118850600Y-261779200D02*
X118923500Y-261852100D01*
X124664200Y-249514000D02*
X124014400Y-249514000D01*
X133399100Y-109120100D02*
X133399100Y-105334000D01*
X89945300Y-208664900D02*
X89945300Y-201595900D01*
X218643200Y-245922800D02*
X218643200Y-247689400D01*
X230935800Y-106086000D02*
X230935800Y-112295100D01*
X118923500Y-269446200D02*
X118457600Y-269912100D01*
X123188600Y-246633800D02*
X123188600Y-238967400D01*
X155651200Y-254721600D02*
X156865300Y-255935700D01*
X98765200Y-145379600D02*
X98765200Y-148884800D01*
X124014400Y-247459600D02*
X123188600Y-246633800D01*
X142261800Y-96653300D02*
X142261800Y-95926000D01*
X242224300Y-123583600D02*
X242224300Y-125261700D01*
X268630700Y-196550400D02*
X254990600Y-210190500D01*
X156865300Y-255935700D02*
X157962200Y-255935700D01*
X254990600Y-210190500D02*
X254990600Y-212945100D01*
X98765200Y-148884800D02*
X89780000Y-157870000D01*
X94618600Y-213338200D02*
X89945300Y-208664900D01*
X254990600Y-212945100D02*
X251821300Y-216114400D01*
X133972400Y-104760700D02*
X134154400Y-104760700D01*
X259674000Y-153412600D02*
X259674000Y-142261800D01*
X262712200Y-183743600D02*
X262585200Y-183616600D01*
X124014400Y-249514000D02*
X118620500Y-254907900D01*
X124014400Y-249514000D02*
X124014400Y-247459600D01*
X134154400Y-104760700D02*
X142261800Y-96653300D01*
X180870800Y-97056000D02*
X180870800Y-96215200D01*
X118923500Y-261852100D02*
X118923500Y-269446200D01*
X262585200Y-183616600D02*
X262585200Y-156323800D01*
X86715600Y-159389842D02*
X86715600Y-165229600D01*
X262585200Y-156323800D02*
X259674000Y-153412600D01*
X230935800Y-112295100D02*
X242224300Y-123583600D01*
X250283600Y-227319400D02*
X249514000Y-228089000D01*
X103327200Y-133728800D02*
X103327200Y-140817600D01*
X95926000Y-213338200D02*
X94618600Y-213338200D01*
X128676400Y-113842800D02*
X133399100Y-109120100D01*
X118620500Y-261063400D02*
X118850600Y-261293500D01*
X250283600Y-223188500D02*
X250283600Y-227319400D01*
X249514000Y-228089000D02*
X249514000Y-230935800D01*
X268630700Y-190116700D02*
X268630700Y-196550400D01*
X167640000Y-265613500D02*
X167640000Y-266474000D01*
X180870800Y-96215200D02*
X187960000Y-89126000D01*
X89780000Y-157870000D02*
X88235442Y-157870000D01*
X89945300Y-201595900D02*
X92710000Y-198831200D01*
X118620500Y-254907900D02*
X118620500Y-261063400D01*
X103327200Y-140817600D02*
X98765200Y-145379600D01*
X266474000Y-187960000D02*
X268630700Y-190116700D01*
%TO.N,/Level Shifters/PAN5V.CS_06*%
X254431800Y-212794200D02*
X251194100Y-216031900D01*
X93333300Y-211138500D02*
X94656000Y-211138500D01*
X248244000Y-227206100D02*
X248244000Y-233135500D01*
X89126000Y-165100000D02*
X93421200Y-169395200D01*
X87460200Y-159352348D02*
X87460200Y-163434200D01*
X268127900Y-192153900D02*
X268127900Y-196343500D01*
X244878000Y-128977400D02*
X244878000Y-125527600D01*
X134242900Y-105410000D02*
X141714300Y-97938600D01*
X249558200Y-225891900D02*
X248244000Y-227206100D01*
X141714300Y-97938600D02*
X141958300Y-97938600D01*
X90452100Y-202663900D02*
X90452100Y-208257300D01*
X99267100Y-149449700D02*
X90346800Y-158370000D01*
X217084700Y-247382100D02*
X217084700Y-248540794D01*
X212838200Y-252787294D02*
X212838200Y-252794600D01*
X263372600Y-153199800D02*
X260944000Y-150771200D01*
X263372600Y-184861200D02*
X263372600Y-153199800D01*
X217084700Y-248540794D02*
X212838200Y-252787294D01*
X251194100Y-216031900D02*
X251194100Y-221463800D01*
X99267100Y-145792100D02*
X99267100Y-149449700D01*
X121858500Y-248244000D02*
X118118600Y-251983900D01*
X90346800Y-158370000D02*
X88442548Y-158370000D01*
X212838200Y-252794600D02*
X211138500Y-254494300D01*
X182575200Y-95961200D02*
X183064600Y-95961200D01*
X254431800Y-210039600D02*
X254431800Y-212794200D01*
X107356000Y-130409700D02*
X103936800Y-133828900D01*
X93421200Y-199694800D02*
X90452100Y-202663900D01*
X88442548Y-158370000D02*
X87460200Y-159352348D01*
X103936800Y-133828900D02*
X103936800Y-141122400D01*
X87460200Y-163434200D02*
X89126000Y-165100000D01*
X134242900Y-105454500D02*
X134242900Y-105410000D01*
X118275300Y-261427900D02*
X118275300Y-265864600D01*
X118118600Y-261271200D02*
X118275300Y-261427900D01*
X103936800Y-141122400D02*
X99267100Y-145792100D01*
X211138500Y-254494300D02*
X211138500Y-260944000D01*
X93421200Y-169395200D02*
X93421200Y-199694800D01*
X121858500Y-248244000D02*
X121858500Y-236389500D01*
X189899800Y-89126000D02*
X190500000Y-89126000D01*
X244878000Y-125527600D02*
X233135500Y-113785100D01*
X141958300Y-97938600D02*
X144461500Y-95435400D01*
X122464500Y-248244000D02*
X121858500Y-248244000D01*
X118118600Y-251983900D02*
X118118600Y-261271200D01*
X251194100Y-221463800D02*
X249558200Y-223099700D01*
X144461500Y-95435400D02*
X144461500Y-94656000D01*
X260944000Y-150771200D02*
X260944000Y-144461500D01*
X107356000Y-122464500D02*
X107356000Y-130409700D01*
X266474000Y-190500000D02*
X268127900Y-192153900D01*
X90452100Y-208257300D02*
X93333300Y-211138500D01*
X118275300Y-265864600D02*
X118201900Y-265938000D01*
X183064600Y-95961200D02*
X189899800Y-89126000D01*
X263344780Y-184889020D02*
X263372600Y-184861200D01*
X233135500Y-113785100D02*
X233135500Y-107356000D01*
X268127900Y-196343500D02*
X254431800Y-210039600D01*
X249558200Y-223099700D02*
X249558200Y-225891900D01*
%TO.N,/Level Shifters/PAN5V.RESET*%
X261286100Y-266424400D02*
X255773600Y-271936900D01*
X288637800Y-132138600D02*
X279145400Y-141631000D01*
X288637800Y-130946800D02*
X288637800Y-132138600D01*
X255773600Y-271936900D02*
X255773600Y-272368700D01*
X279145400Y-206866500D02*
X261286100Y-224725800D01*
X261286100Y-224725800D02*
X261286100Y-266424400D01*
X279145400Y-141631000D02*
X279145400Y-206866500D01*
%TO.N,/Level Shifters/PAN3V.RESET*%
X191679900Y-271768500D02*
X197446800Y-271768500D01*
X203179900Y-266035400D02*
X203179900Y-265006700D01*
X181040000Y-282453000D02*
X181040000Y-282408400D01*
X203179900Y-265006700D02*
X203561900Y-264624700D01*
X203561900Y-264624700D02*
X204101800Y-264624700D01*
X214497700Y-260174200D02*
X214497700Y-258992800D01*
X181040000Y-282408400D02*
X191679900Y-271768500D01*
X204156700Y-264679600D02*
X209992300Y-264679600D01*
X214346200Y-258841300D02*
X214346200Y-253049800D01*
X214346200Y-253049800D02*
X219381900Y-248014100D01*
X197446800Y-271768500D02*
X203179900Y-266035400D01*
X214497700Y-258992800D02*
X214346200Y-258841300D01*
X219381900Y-248014100D02*
X219381900Y-245385700D01*
X209992300Y-264679600D02*
X214497700Y-260174200D01*
X219381900Y-245385700D02*
X222953000Y-241814600D01*
X204101800Y-264624700D02*
X204156700Y-264679600D01*
%TO.N,/Level Shifters/PAN3V.CS_00*%
X262788400Y-266395800D02*
X262179700Y-267004500D01*
X282803700Y-206057600D02*
X263143100Y-225718200D01*
X263143100Y-225718200D02*
X263143100Y-246939700D01*
X263143100Y-246939700D02*
X262788400Y-247294400D01*
X288607500Y-207645000D02*
X287020100Y-206057600D01*
X287020100Y-206057600D02*
X282803700Y-206057600D01*
X262788400Y-247294400D02*
X262788400Y-266395800D01*
%TO.N,/Level Shifters/PAN3V.CS_01*%
X265023600Y-265138500D02*
X265023600Y-225257300D01*
X284579900Y-208915000D02*
X286702500Y-208915000D01*
X283479900Y-207815000D02*
X284579900Y-208915000D01*
X265023600Y-225257300D02*
X282465900Y-207815000D01*
X262496100Y-267666000D02*
X265023600Y-265138500D01*
X260966300Y-267666000D02*
X262496100Y-267666000D01*
X282465900Y-207815000D02*
X283479900Y-207815000D01*
%TO.N,/Level Shifters/PAN3V.CS_02*%
X263645300Y-225925800D02*
X263645300Y-248030400D01*
X283009100Y-206562000D02*
X263645300Y-225925800D01*
X288607500Y-209298200D02*
X285871300Y-206562000D01*
X288607500Y-210185000D02*
X288607500Y-209298200D01*
X285871300Y-206562000D02*
X283009100Y-206562000D01*
%TO.N,/Level Shifters/PAN3V.CS_03*%
X198542500Y-273590900D02*
X211269200Y-273590900D01*
X286702500Y-212407600D02*
X285324000Y-213786100D01*
X282450100Y-212930600D02*
X270615500Y-224765200D01*
X286702500Y-211455000D02*
X286702500Y-212407600D01*
X270615500Y-224765200D02*
X270615500Y-231912300D01*
X284370500Y-213786100D02*
X283515000Y-212930600D01*
X283515000Y-212930600D02*
X282450100Y-212930600D01*
X211269200Y-273590900D02*
X223684850Y-261175250D01*
X285324000Y-213786100D02*
X284370500Y-213786100D01*
%TO.N,/Level Shifters/PAN3V.CS_04*%
X288238200Y-205047200D02*
X282348000Y-205047200D01*
X282348000Y-205047200D02*
X261788000Y-225607200D01*
X261788000Y-225607200D02*
X261788000Y-250636700D01*
X290175700Y-206984700D02*
X288238200Y-205047200D01*
X290175700Y-211156800D02*
X290175700Y-206984700D01*
X261788000Y-250636700D02*
X261938100Y-250786800D01*
X288607500Y-212725000D02*
X290175700Y-211156800D01*
%TO.N,/Level Shifters/PAN3V.CS_05*%
X186690000Y-271844300D02*
X187058600Y-271844300D01*
X284354800Y-216560400D02*
X283328300Y-217586900D01*
X281084100Y-217586900D02*
X280985000Y-217487800D01*
X198219200Y-267418500D02*
X198219200Y-263094900D01*
X285191200Y-216560400D02*
X284354800Y-216560400D01*
X209135100Y-252179000D02*
X209135100Y-250198500D01*
X198219200Y-263094900D02*
X209135100Y-252179000D01*
X283328300Y-217586900D02*
X281084100Y-217586900D01*
X187058600Y-271844300D02*
X189710300Y-269192600D01*
X196445100Y-269192600D02*
X198219200Y-267418500D01*
X189710300Y-269192600D02*
X196445100Y-269192600D01*
X209135100Y-250198500D02*
X210667600Y-248666000D01*
X286702500Y-215049100D02*
X285191200Y-216560400D01*
X286702500Y-213995000D02*
X286702500Y-215049100D01*
%TO.N,/Level Shifters/PAN3V.CS_06*%
X259004500Y-223386300D02*
X259004500Y-259098100D01*
X259004500Y-259098100D02*
X254596800Y-263505800D01*
X263976300Y-218414500D02*
X259004500Y-223386300D01*
%TO.N,/Level Shifters/PAN3V.CS_07*%
X286702500Y-216535000D02*
X286702500Y-217395700D01*
X208205323Y-251789423D02*
X208179146Y-251815600D01*
X196318230Y-267900070D02*
X194189270Y-267900070D01*
X197215400Y-267002900D02*
X196318230Y-267900070D01*
X284589000Y-218866100D02*
X283328200Y-220126900D01*
X206984600Y-251815600D02*
X197215400Y-261584800D01*
X283328200Y-220126900D02*
X282409300Y-220126900D01*
X285232100Y-218866100D02*
X284589000Y-218866100D01*
X208179146Y-251815600D02*
X206984600Y-251815600D01*
X197215400Y-261584800D02*
X197215400Y-267002900D01*
X282409300Y-220126900D02*
X274114300Y-228421900D01*
X286702500Y-217395700D02*
X285232100Y-218866100D01*
%TO.N,/Level Shifters/PAN5V.CS_07*%
X120264800Y-233654300D02*
X110705000Y-224094500D01*
X136509400Y-103854700D02*
X139153900Y-101210200D01*
X250692200Y-221256000D02*
X249056300Y-222891900D01*
X87967800Y-161401800D02*
X89126000Y-162560000D01*
X104495600Y-133979800D02*
X104495600Y-141528800D01*
X249056300Y-222891900D02*
X249056300Y-225684100D01*
X265321900Y-179410000D02*
X265321900Y-191887900D01*
X162560000Y-266474000D02*
X162560000Y-261513200D01*
X250692200Y-215824100D02*
X250692200Y-221256000D01*
X99984200Y-146040200D02*
X99984200Y-149545400D01*
X235335200Y-115275100D02*
X235335200Y-108626000D01*
X92200400Y-208938800D02*
X90958300Y-207696700D01*
X104495600Y-141528800D02*
X99984200Y-146040200D01*
X267626000Y-194192000D02*
X267626000Y-196054346D01*
X267626000Y-196054346D02*
X266950346Y-196730000D01*
X253669800Y-212846500D02*
X250692200Y-215824100D01*
X136509400Y-104302800D02*
X136509400Y-103854700D01*
X117560200Y-262306900D02*
X117560200Y-249678600D01*
X108626000Y-120264800D02*
X108626000Y-129849400D01*
X265321900Y-191887900D02*
X266474000Y-193040000D01*
X139540800Y-101210200D02*
X146661200Y-94089800D01*
X87967800Y-159551854D02*
X87967800Y-161401800D01*
X262214000Y-146661200D02*
X262925500Y-146661200D01*
X108626000Y-129849400D02*
X104495600Y-133979800D01*
X120264800Y-246974000D02*
X120264800Y-233654300D01*
X249056300Y-225684100D02*
X246974000Y-227766400D01*
X99984200Y-149545400D02*
X90659600Y-158870000D01*
X266950346Y-196730000D02*
X266591400Y-196730000D01*
X253669800Y-209651600D02*
X253669800Y-212846500D01*
X88649654Y-158870000D02*
X87967800Y-159551854D01*
X117560200Y-249678600D02*
X120264800Y-246974000D01*
X90958300Y-203732500D02*
X94132400Y-200558400D01*
X90958300Y-207696700D02*
X90958300Y-203732500D01*
X245872900Y-131064000D02*
X245872900Y-125812800D01*
X262925500Y-146661200D02*
X264820000Y-148555700D01*
X264820000Y-178908100D02*
X265321900Y-179410000D01*
X146661200Y-94089800D02*
X146661200Y-93386000D01*
X93386000Y-208938800D02*
X92200400Y-208938800D01*
X264820000Y-148555700D02*
X264820000Y-178908100D01*
X94132400Y-167566400D02*
X89126000Y-162560000D01*
X246974000Y-227766400D02*
X246974000Y-235335200D01*
X245872900Y-125812800D02*
X235335200Y-115275100D01*
X90659600Y-158870000D02*
X88649654Y-158870000D01*
X266474000Y-193040000D02*
X267626000Y-194192000D01*
X94132400Y-200558400D02*
X94132400Y-167566400D01*
X139153900Y-101210200D02*
X139540800Y-101210200D01*
X266591400Y-196730000D02*
X253669800Y-209651600D01*
%TO.N,/Level Shifters/PAN3V.SCK_00*%
X169246000Y-287640400D02*
X169246000Y-285724400D01*
X209637000Y-252305400D02*
X213864400Y-248078000D01*
X199363000Y-262660800D02*
X209637000Y-252386800D01*
X209637000Y-252386800D02*
X209637000Y-252305400D01*
X199363000Y-266986400D02*
X199363000Y-262660800D01*
X190128500Y-269760900D02*
X196588500Y-269760900D01*
X169246000Y-285724400D02*
X170049500Y-284920900D01*
X174968500Y-284920900D02*
X190128500Y-269760900D01*
X196588500Y-269760900D02*
X199363000Y-266986400D01*
X170049500Y-284920900D02*
X174968500Y-284920900D01*
%TO.N,/Level Shifters/PAN3V.SCK_01*%
X270855400Y-245682600D02*
X270855400Y-240001100D01*
X248293100Y-289708900D02*
X249053000Y-288949000D01*
X249053000Y-288949000D02*
X261824600Y-288949000D01*
X273462300Y-237394200D02*
X273462300Y-225940000D01*
X270855400Y-240001100D02*
X273462300Y-237394200D01*
X261824600Y-288949000D02*
X269591800Y-281181800D01*
X269591800Y-246946200D02*
X270855400Y-245682600D01*
X269591800Y-281181800D02*
X269591800Y-246946200D01*
X273462300Y-225940000D02*
X276462800Y-222939500D01*
X169621200Y-289708900D02*
X248293100Y-289708900D01*
%TO.N,/Level Shifters/PAN3V.SCK_02*%
X270605300Y-269540800D02*
X270095600Y-269031100D01*
X284234600Y-221835000D02*
X284997575Y-221835000D01*
X270095600Y-268277761D02*
X270357600Y-268015761D01*
X284997575Y-221835000D02*
X286487575Y-220345000D01*
X270357600Y-246890100D02*
X271357300Y-245890400D01*
X286487575Y-220345000D02*
X288607500Y-220345000D01*
X274327700Y-231231600D02*
X282892400Y-222666900D01*
X274327700Y-237238500D02*
X274327700Y-231231600D01*
X271357300Y-245890400D02*
X271357300Y-240208900D01*
X282892400Y-222666900D02*
X283402700Y-222666900D01*
X271357300Y-240208900D02*
X274327700Y-237238500D01*
X283402700Y-222666900D02*
X284234600Y-221835000D01*
X270095600Y-269031100D02*
X270095600Y-268277761D01*
X270357600Y-268015761D02*
X270357600Y-246890100D01*
%TO.N,/Level Shifters/PAN3V.SCK_03*%
X200366800Y-267402000D02*
X197004100Y-270764700D01*
X183641100Y-278254839D02*
X182106139Y-279789800D01*
X183641100Y-278080100D02*
X183641100Y-278254839D01*
X197004100Y-270764700D02*
X190956500Y-270764700D01*
X182106139Y-279789800D02*
X181509100Y-279789800D01*
X190956500Y-270764700D02*
X183641100Y-278080100D01*
X200366800Y-263268500D02*
X200366800Y-267402000D01*
X214229300Y-249406000D02*
X200366800Y-263268500D01*
%TO.N,/Level Shifters/PAN3V.SCK_04*%
X179206100Y-267333800D02*
X179206100Y-270040200D01*
X289100000Y-214172000D02*
X288546300Y-214172000D01*
X187960000Y-256834900D02*
X187960000Y-256844800D01*
X289659400Y-221833100D02*
X289659400Y-214731400D01*
X287521600Y-212311700D02*
X288596400Y-211236900D01*
X288596400Y-211236900D02*
X289060000Y-211236900D01*
X179138000Y-267265700D02*
X179206100Y-267333800D01*
X289060000Y-211236900D02*
X289666000Y-210630900D01*
X179138000Y-265666800D02*
X179138000Y-267265700D01*
X187960000Y-256844800D02*
X179138000Y-265666800D01*
X289659400Y-214731400D02*
X289100000Y-214172000D01*
X288031500Y-205550200D02*
X282581200Y-205550200D01*
X288607500Y-222885000D02*
X289659400Y-221833100D01*
X282581200Y-205550200D02*
X262440000Y-225691400D01*
X262440000Y-225691400D02*
X262440000Y-241045500D01*
X289666000Y-207184700D02*
X288031500Y-205550200D01*
X289666000Y-210630900D02*
X289666000Y-207184700D01*
X287521600Y-213147300D02*
X287521600Y-212311700D01*
X163854100Y-285392200D02*
X140689300Y-285392200D01*
X179206100Y-270040200D02*
X163854100Y-285392200D01*
X288546300Y-214172000D02*
X287521600Y-213147300D01*
%TO.N,/Level Shifters/PAN3V.SCK_05*%
X230690800Y-264924000D02*
X230690800Y-272063100D01*
X250571000Y-239236100D02*
X250571000Y-245043800D01*
X250571000Y-245043800D02*
X230690800Y-264924000D01*
%TO.N,/Level Shifters/PAN3V.MOSI_00*%
X164721000Y-279911900D02*
X168624700Y-279911900D01*
X168624700Y-279911900D02*
X178554200Y-269982400D01*
X178554200Y-269982400D02*
X178554200Y-267635100D01*
%TO.N,/Level Shifters/PAN3V.MISO_00*%
X187513900Y-267686400D02*
X176088800Y-279111500D01*
X176088800Y-279111500D02*
X176088800Y-279393900D01*
X191770000Y-261978000D02*
X191770000Y-266839300D01*
X190922900Y-267686400D02*
X187513900Y-267686400D01*
X200577400Y-253170600D02*
X191770000Y-261978000D01*
X191770000Y-266839300D02*
X190922900Y-267686400D01*
%TO.N,/Level Shifters/PAN5V.MISO_00*%
X194310000Y-263321800D02*
X194310000Y-266860100D01*
X206375000Y-251144800D02*
X206375000Y-251266479D01*
X221474050Y-248652050D02*
X221488000Y-248638100D01*
X205760680Y-251871120D02*
X194310000Y-263321800D01*
X221488000Y-245158700D02*
X233326100Y-233320600D01*
X206375000Y-251266479D02*
X205770359Y-251871120D01*
X221488000Y-248638100D02*
X221488000Y-245158700D01*
X194310000Y-266860100D02*
X192981800Y-268188300D01*
X205770359Y-251871120D02*
X205760680Y-251871120D01*
X188190900Y-268188300D02*
X178460900Y-277918300D01*
X192981800Y-268188300D02*
X188190900Y-268188300D01*
%TO.N,/Level Shifters/PAN5V.MOSI_00*%
X214107539Y-248754100D02*
X213898100Y-248754100D01*
X243349100Y-222560300D02*
X236700000Y-229209400D01*
X210138900Y-252513300D02*
X210138900Y-252594600D01*
X190645600Y-270262800D02*
X182991100Y-277917300D01*
X199864900Y-267194200D02*
X196796300Y-270262800D01*
X218513700Y-244667400D02*
X218171400Y-244667400D01*
X199864900Y-262868600D02*
X199864900Y-267194200D01*
X182991100Y-277917300D02*
X182991100Y-277985600D01*
X236700000Y-234155800D02*
X229954400Y-240901400D01*
X214514400Y-248347239D02*
X214107539Y-248754100D01*
X243349100Y-220537500D02*
X243349100Y-222560300D01*
X214514400Y-248324400D02*
X214514400Y-248347239D01*
X196796300Y-270262800D02*
X190645600Y-270262800D01*
X210138900Y-252594600D02*
X199864900Y-262868600D01*
X213898100Y-248754100D02*
X210138900Y-252513300D01*
X236700000Y-229209400D02*
X236700000Y-234155800D01*
X218171400Y-244667400D02*
X214514400Y-248324400D01*
%TO.N,/Level Shifters/PAN5V.SCK_05*%
X101054500Y-223787500D02*
X101054500Y-263361000D01*
X194608900Y-272268500D02*
X197834700Y-272268500D01*
X100169600Y-216004993D02*
X100169600Y-217775693D01*
X97942400Y-156260800D02*
X97942400Y-199791561D01*
X224320800Y-247436900D02*
X224320800Y-245361000D01*
X205756300Y-270840200D02*
X218929300Y-257667200D01*
X101439600Y-219045693D02*
X101439600Y-220464000D01*
X101439600Y-220464000D02*
X102191000Y-221215400D01*
X117070600Y-281734800D02*
X115962400Y-280626600D01*
X97942400Y-199791561D02*
X97902000Y-199831961D01*
X100169600Y-217775693D02*
X101439600Y-219045693D01*
X193598800Y-273278600D02*
X194608900Y-272268500D01*
X115962400Y-280626600D02*
X115962400Y-278268900D01*
X218929300Y-256696600D02*
X218755900Y-256523200D01*
X218755900Y-253001800D02*
X224320800Y-247436900D01*
X102191000Y-221215400D02*
X102191000Y-222651000D01*
X224320800Y-245361000D02*
X232681900Y-236999900D01*
X199263000Y-270840200D02*
X205756300Y-270840200D01*
X97902000Y-199831961D02*
X97902000Y-213737393D01*
X102191000Y-222651000D02*
X101054500Y-223787500D01*
X218929300Y-257667200D02*
X218929300Y-256696600D01*
X101054500Y-263361000D02*
X115962400Y-278268900D01*
X197834700Y-272268500D02*
X199263000Y-270840200D01*
X218755900Y-256523200D02*
X218755900Y-253001800D01*
X97902000Y-213737393D02*
X100169600Y-216004993D01*
%TO.N,/Level Shifters/PAN5V.SCK_04*%
X106426000Y-134178500D02*
X110783100Y-129821400D01*
X97085600Y-213628100D02*
X97085600Y-188959861D01*
X100400500Y-234025300D02*
X99841400Y-233466200D01*
X110783100Y-129821400D02*
X110783100Y-123963700D01*
X97085600Y-188959861D02*
X96164400Y-188038661D01*
X99841400Y-221621000D02*
X100939600Y-220522800D01*
X178434000Y-278891900D02*
X177250600Y-278891900D01*
X99841400Y-233466200D02*
X99841400Y-221621000D01*
X196237300Y-268690700D02*
X188635200Y-268690700D01*
X99669600Y-216212100D02*
X97085600Y-213628100D01*
X188635200Y-268690700D02*
X178434000Y-278891900D01*
X99669600Y-217982800D02*
X99669600Y-216212100D01*
X124664200Y-110082600D02*
X124664200Y-106086000D01*
X106426000Y-142646400D02*
X106426000Y-134178500D01*
X205163876Y-254696200D02*
X205163876Y-254703124D01*
X101781000Y-147291400D02*
X106426000Y-142646400D01*
X115519200Y-282829000D02*
X100400500Y-267710300D01*
X100400500Y-267710300D02*
X100400500Y-234025300D01*
X100939600Y-220522800D02*
X100939600Y-219252800D01*
X197717300Y-267210700D02*
X196237300Y-268690700D01*
X110783100Y-123963700D02*
X124664200Y-110082600D01*
X96164400Y-188038661D02*
X96164400Y-156451000D01*
X100939600Y-219252800D02*
X99669600Y-217982800D01*
X197717300Y-262149700D02*
X197717300Y-267210700D01*
X96164400Y-156451000D02*
X101781000Y-150834400D01*
X101781000Y-150834400D02*
X101781000Y-147291400D01*
X205163876Y-254703124D02*
X197717300Y-262149700D01*
%TO.N,/Level Shifters/PAN5V.SCK_03*%
X99021100Y-157263200D02*
X99021100Y-157944912D01*
X156456600Y-90685400D02*
X140047600Y-107094400D01*
X118120000Y-278085200D02*
X118120000Y-278375800D01*
X123139200Y-284327600D02*
X123195900Y-284384300D01*
X113537400Y-273502600D02*
X118120000Y-278085200D01*
X104807200Y-214465800D02*
X104807200Y-221391700D01*
X104807200Y-221391700D02*
X113537400Y-230121900D01*
X140047600Y-107094400D02*
X137403693Y-107094400D01*
X102329700Y-147809500D02*
X102329700Y-153954600D01*
X137403693Y-107094400D02*
X107086400Y-137411693D01*
X155375970Y-273892370D02*
X155354740Y-273913600D01*
X118120000Y-278375800D02*
X123139200Y-283395000D01*
X123139200Y-283395000D02*
X123139200Y-284327600D01*
X166080600Y-90685400D02*
X156456600Y-90685400D01*
X122360500Y-285761600D02*
X122360500Y-285157100D01*
X107086400Y-143052800D02*
X102329700Y-147809500D01*
X122360500Y-285157100D02*
X123133300Y-284384300D01*
X102329700Y-153954600D02*
X99021100Y-157263200D01*
X130367100Y-284384300D02*
X123762800Y-284384300D01*
X140837800Y-273913600D02*
X130367100Y-284384300D01*
X107086400Y-137411693D02*
X107086400Y-143052800D01*
X113537400Y-230121900D02*
X113537400Y-273502600D01*
X98653600Y-198687700D02*
X99289100Y-199323200D01*
X99021100Y-157944912D02*
X98653600Y-158312412D01*
X123133300Y-284384300D02*
X123762800Y-284384300D01*
X167640000Y-89126000D02*
X166080600Y-90685400D01*
X155354740Y-273913600D02*
X140837800Y-273913600D01*
X98653600Y-158312412D02*
X98653600Y-198687700D01*
X123195900Y-284384300D02*
X123762800Y-284384300D01*
%TO.N,/Level Shifters/PAN5V.SCK_02*%
X121312600Y-106878900D02*
X121312600Y-107974700D01*
X104149900Y-212079800D02*
X104149900Y-221663700D01*
X204788300Y-95926000D02*
X195329300Y-86467000D01*
X104149900Y-221663700D02*
X111373000Y-228886800D01*
X110281100Y-129613700D02*
X105816400Y-134078400D01*
X101235100Y-146770500D02*
X101235100Y-150670600D01*
X101296400Y-195202100D02*
X101296400Y-207886900D01*
X213338200Y-95926000D02*
X204788300Y-95926000D01*
X121439200Y-108101300D02*
X121439200Y-111834400D01*
X111281200Y-271956100D02*
X111281200Y-259674000D01*
X95504000Y-188107561D02*
X96435600Y-189039161D01*
X141724500Y-86467000D02*
X121312600Y-106878900D01*
X118770500Y-285064200D02*
X118770500Y-279738200D01*
X96435600Y-189039161D02*
X96435600Y-189229100D01*
X121312600Y-107974700D02*
X121439200Y-108101300D01*
X105816400Y-134078400D02*
X105816400Y-142189200D01*
X103464100Y-211394000D02*
X104149900Y-212079800D01*
X195329300Y-86467000D02*
X141724500Y-86467000D01*
X111373000Y-259582200D02*
X111281200Y-259674000D01*
X117116200Y-277791100D02*
X111281200Y-271956100D01*
X111373000Y-228886800D02*
X111373000Y-259582200D01*
X95504000Y-156401700D02*
X95504000Y-188107561D01*
X101235100Y-150670600D02*
X95504000Y-156401700D01*
X117116200Y-278083900D02*
X117116200Y-277791100D01*
X110281100Y-122992500D02*
X110281100Y-129613700D01*
X103464100Y-210054600D02*
X103464100Y-211394000D01*
X105816400Y-142189200D02*
X101235100Y-146770500D01*
X101296400Y-207886900D02*
X103464100Y-210054600D01*
X118770500Y-279738200D02*
X117116200Y-278083900D01*
X121439200Y-111834400D02*
X110281100Y-122992500D01*
%TO.N,/Level Shifters/PAN5V.SCK_01*%
X117947700Y-286806900D02*
X117297200Y-286156400D01*
X204869400Y-104844200D02*
X212872400Y-104844200D01*
X107736500Y-143339200D02*
X107736500Y-137468700D01*
X99466400Y-158206719D02*
X103232400Y-154440719D01*
X117720600Y-281465561D02*
X117678200Y-281423161D01*
X116614300Y-278291700D02*
X116614300Y-277998900D01*
X103232400Y-154440719D02*
X103232400Y-147843300D01*
X100685600Y-215813888D02*
X99314000Y-214442288D01*
X151348300Y-100060900D02*
X168824200Y-100060900D01*
X107736500Y-137468700D02*
X137610800Y-107594400D01*
X212872400Y-104844200D02*
X215659700Y-107631500D01*
X99314000Y-214442288D02*
X99314000Y-205366369D01*
X116614300Y-277998900D02*
X106086000Y-267470600D01*
X119433000Y-286806900D02*
X117947700Y-286806900D01*
X99939100Y-204741269D02*
X99939100Y-199053961D01*
X199714000Y-99688800D02*
X204869400Y-104844200D01*
X117678200Y-281423161D02*
X117678200Y-279355600D01*
X106086000Y-267470600D02*
X106086000Y-230935800D01*
X99314000Y-205366369D02*
X99939100Y-204741269D01*
X169196300Y-99688800D02*
X199714000Y-99688800D01*
X168824200Y-100060900D02*
X169196300Y-99688800D01*
X102001684Y-218900670D02*
X100685600Y-217584586D01*
X117297200Y-283088039D02*
X117720600Y-282664639D01*
X117678200Y-279355600D02*
X116614300Y-278291700D01*
X99466400Y-198581261D02*
X99466400Y-158206719D01*
X99939100Y-199053961D02*
X99466400Y-198581261D01*
X143814800Y-107594400D02*
X151348300Y-100060900D01*
X117297200Y-286156400D02*
X117297200Y-283088039D01*
X137610800Y-107594400D02*
X143814800Y-107594400D01*
X103232400Y-147843300D02*
X107736500Y-143339200D01*
X117720600Y-282664639D02*
X117720600Y-281465561D01*
X100685600Y-217584586D02*
X100685600Y-215813888D01*
X102073216Y-218900670D02*
X102001684Y-218900670D01*
%TO.N,/Level Shifters/PAN5V.SCK_00*%
X231978200Y-236296200D02*
X223568800Y-244705600D01*
X216729600Y-257966600D02*
X216729600Y-258925300D01*
X210378300Y-265276600D02*
X203831800Y-265276600D01*
X223568800Y-244705600D02*
X223568800Y-247479200D01*
X216567600Y-254480400D02*
X216567600Y-257804600D01*
X114242700Y-273040300D02*
X121735300Y-280532900D01*
X133955500Y-273206500D02*
X124413200Y-282748800D01*
X124222300Y-283730800D02*
X124413200Y-283730800D01*
X121735300Y-280532900D02*
X121735300Y-281243800D01*
X231978200Y-236143800D02*
X231978200Y-236296200D01*
X216729600Y-258925300D02*
X210378300Y-265276600D01*
X106426000Y-212756900D02*
X106426000Y-216001600D01*
X156061700Y-273206500D02*
X133955500Y-273206500D01*
X223568800Y-247479200D02*
X216567600Y-254480400D01*
X216567600Y-257804600D02*
X216729600Y-257966600D01*
X114242700Y-229931400D02*
X114242700Y-273040300D01*
X124413200Y-282748800D02*
X124413200Y-283730800D01*
X121735300Y-281243800D02*
X124222300Y-283730800D01*
X105554400Y-216873200D02*
X105554400Y-221243100D01*
X105554400Y-221243100D02*
X114242700Y-229931400D01*
X156441720Y-273586520D02*
X156061700Y-273206500D01*
X106426000Y-216001600D02*
X105554400Y-216873200D01*
X104323400Y-210654300D02*
X106426000Y-212756900D01*
%TO.N,/Level Shifters/PAN3V.MOSI_01*%
X271859200Y-240416700D02*
X274829600Y-237446300D01*
X284575000Y-226500100D02*
X285409200Y-226500100D01*
X274829600Y-235786600D02*
X282869300Y-227746900D01*
X271068800Y-268223800D02*
X271068800Y-246888600D01*
X288607500Y-227097500D02*
X288607500Y-227965000D01*
X271068800Y-246888600D02*
X271859200Y-246098200D01*
X282869300Y-227746900D02*
X283328200Y-227746900D01*
X285409200Y-226500100D02*
X286294300Y-225615000D01*
X287125000Y-225615000D02*
X288607500Y-227097500D01*
X274829600Y-237446300D02*
X274829600Y-235786600D01*
X286294300Y-225615000D02*
X287125000Y-225615000D01*
X270745600Y-268547000D02*
X271068800Y-268223800D01*
X271859200Y-246098200D02*
X271859200Y-240416700D01*
X283328200Y-227746900D02*
X284575000Y-226500100D01*
%TO.N,/Level Shifters/PAN3V.MISO_01*%
X244542020Y-281473620D02*
X245060400Y-280955240D01*
X245060400Y-270305600D02*
X256480700Y-258885300D01*
X245060400Y-280955240D02*
X245060400Y-270305600D01*
X256480700Y-258885300D02*
X256480700Y-244589200D01*
%TO.N,/Level Shifters/PAN3V.MOSI_02*%
X270400094Y-276398405D02*
X271568800Y-275229699D01*
X271568800Y-247098300D02*
X272361100Y-246306000D01*
X282885800Y-230286900D02*
X283328200Y-230286900D01*
X283328200Y-230286900D02*
X284589000Y-229026100D01*
X271568800Y-275229699D02*
X271568800Y-247098300D01*
X272361100Y-240811600D02*
X282885800Y-230286900D01*
X270400094Y-280952300D02*
X270400094Y-276398405D01*
X284589000Y-229026100D02*
X285234400Y-229026100D01*
X285234400Y-229026100D02*
X286081500Y-228179000D01*
X286081500Y-228179000D02*
X287138400Y-228179000D01*
X287138400Y-228179000D02*
X288607500Y-229648100D01*
X272361100Y-246306000D02*
X272361100Y-240811600D01*
X288607500Y-229648100D02*
X288607500Y-230505000D01*
%TO.N,/Level Shifters/PAN3V.MISO_02*%
X283328200Y-232826900D02*
X284380100Y-231775000D01*
X272863000Y-242848800D02*
X282884900Y-232826900D01*
X272567400Y-275645093D02*
X272567400Y-247351200D01*
X282884900Y-232826900D02*
X283328200Y-232826900D01*
X271072450Y-279962450D02*
X271072450Y-277140043D01*
X284380100Y-231775000D02*
X286702500Y-231775000D01*
X272863000Y-247055600D02*
X272863000Y-242848800D01*
X271072450Y-277140043D02*
X272567400Y-275645093D01*
X272567400Y-247351200D02*
X272863000Y-247055600D01*
%TO.N,/Level Shifters/PAN3V.MOSI_03*%
X286483800Y-238125500D02*
X287019600Y-238125500D01*
X273431000Y-273304000D02*
X274121300Y-272613700D01*
X287019600Y-238125500D02*
X287790700Y-237354400D01*
X282458800Y-238326600D02*
X283511000Y-238326600D01*
X287790700Y-237354400D02*
X287790700Y-236355600D01*
X274121300Y-246664100D02*
X282458800Y-238326600D01*
X284384500Y-239200100D02*
X285409200Y-239200100D01*
X287521600Y-235083500D02*
X288607500Y-233997600D01*
X288607500Y-233997600D02*
X288607500Y-233045000D01*
X274121300Y-272613700D02*
X274121300Y-246664100D01*
X287790700Y-236355600D02*
X287521600Y-236086500D01*
X287521600Y-236086500D02*
X287521600Y-235083500D01*
X283511000Y-238326600D02*
X284384500Y-239200100D01*
X285409200Y-239200100D02*
X286483800Y-238125500D01*
%TO.N,/Level Shifters/PAN3V.MISO_03*%
X282892400Y-235366900D02*
X283328200Y-235366900D01*
X273396700Y-271198200D02*
X273396700Y-244862600D01*
X284380100Y-234315000D02*
X286702500Y-234315000D01*
X273396700Y-244862600D02*
X282892400Y-235366900D01*
X283328200Y-235366900D02*
X284380100Y-234315000D01*
%TO.N,/Level Shifters/PAN3V.MOSI_04*%
X290166300Y-237143800D02*
X288607500Y-235585000D01*
X282141800Y-257907300D02*
X290166300Y-249882800D01*
X290166300Y-249882800D02*
X290166300Y-237143800D01*
X282141800Y-259767200D02*
X282141800Y-257907300D01*
%TO.N,/Level Shifters/PAN3V.MISO_04*%
X254656600Y-259164400D02*
X254656600Y-254759500D01*
X241582300Y-272238700D02*
X254656600Y-259164400D01*
X241582300Y-278605700D02*
X241582300Y-272238700D01*
%TO.N,/Level Shifters/PAN5V.MISO_04*%
X247550600Y-225060700D02*
X244028300Y-228583000D01*
X258953000Y-201828400D02*
X252044200Y-208737200D01*
X242170700Y-237508300D02*
X242170700Y-251412000D01*
X256122800Y-147052400D02*
X256122800Y-156148400D01*
X228447000Y-265135700D02*
X228447000Y-282610700D01*
X251256800Y-138607800D02*
X251526500Y-138877500D01*
X252044200Y-212343000D02*
X249186500Y-215200700D01*
X249186500Y-215200700D02*
X249186500Y-220632600D01*
X252044200Y-208737200D02*
X252044200Y-212343000D01*
X244028300Y-235650700D02*
X242170700Y-237508300D01*
X244028300Y-228583000D02*
X244028300Y-235650700D01*
X256122800Y-156148400D02*
X258953000Y-158978600D01*
X258953000Y-158978600D02*
X258953000Y-201828400D01*
X251526500Y-138877500D02*
X251526500Y-142456100D01*
X242170700Y-251412000D02*
X228447000Y-265135700D01*
X251526500Y-142456100D02*
X256122800Y-147052400D01*
X247550600Y-222268500D02*
X247550600Y-225060700D01*
X249186500Y-220632600D02*
X247550600Y-222268500D01*
%TO.N,/Level Shifters/PAN5V.MOSI_04*%
X223146300Y-252171900D02*
X230715000Y-244603200D01*
X139921200Y-103327200D02*
X138942000Y-102348000D01*
X236855000Y-236397800D02*
X237083600Y-236397800D01*
X224586800Y-255414700D02*
X223146300Y-253974200D01*
X245041100Y-221691200D02*
X245041100Y-221229500D01*
X230715000Y-242537800D02*
X236855000Y-236397800D01*
X237702300Y-235779100D02*
X237702300Y-229030000D01*
X245041100Y-221229500D02*
X245819500Y-220451100D01*
X230715000Y-244603200D02*
X230715000Y-242537800D01*
X237702300Y-229030000D02*
X245041100Y-221691200D01*
X224559600Y-282194000D02*
X224586800Y-282166800D01*
X245819500Y-220451100D02*
X245819500Y-216643600D01*
X237083600Y-236397800D02*
X237702300Y-235779100D01*
X223146300Y-253974200D02*
X223146300Y-252171900D01*
X224586800Y-282166800D02*
X224586800Y-255414700D01*
X142766800Y-103327200D02*
X139921200Y-103327200D01*
%TO.N,/Level Shifters/PAN5V.MISO_03*%
X247048700Y-222060700D02*
X247048700Y-224852900D01*
X176410300Y-85435700D02*
X203545200Y-85435700D01*
X210472700Y-92363200D02*
X222398000Y-92363200D01*
X251277700Y-208589300D02*
X251277700Y-212399800D01*
X249505700Y-126513200D02*
X249505700Y-142001300D01*
X248465400Y-220644000D02*
X247048700Y-222060700D01*
X255117500Y-156235300D02*
X258241800Y-159359600D01*
X241335200Y-237462200D02*
X241335200Y-249621500D01*
X258241800Y-159359600D02*
X258241800Y-201625200D01*
X227735600Y-283270100D02*
X228313600Y-283848100D01*
X243526400Y-228375200D02*
X243526400Y-235271000D01*
X222398000Y-92363200D02*
X250684900Y-120650100D01*
X241335200Y-249621500D02*
X227735600Y-263221100D01*
X203545200Y-85435700D02*
X210472700Y-92363200D01*
X249505700Y-142001300D02*
X255117500Y-147613100D01*
X255117500Y-147613100D02*
X255117500Y-156235300D01*
X243526400Y-235271000D02*
X241335200Y-237462200D01*
X247048700Y-224852900D02*
X243526400Y-228375200D01*
X250684900Y-125334000D02*
X249505700Y-126513200D01*
X251277700Y-212399800D02*
X248465400Y-215212100D01*
X227735600Y-263221100D02*
X227735600Y-283270100D01*
X258241800Y-201625200D02*
X251277700Y-208589300D01*
X248465400Y-215212100D02*
X248465400Y-220644000D01*
X250684900Y-120650100D02*
X250684900Y-125334000D01*
%TO.N,/Level Shifters/PAN5V.MOSI_03*%
X246546800Y-224141900D02*
X242528800Y-228159900D01*
X248538800Y-138309900D02*
X248640600Y-138411700D01*
X254615600Y-156647800D02*
X257403600Y-159435800D01*
X257403600Y-159435800D02*
X257403600Y-201599800D01*
X199186800Y-96850200D02*
X194191900Y-91855300D01*
X248640600Y-138411700D02*
X248640600Y-141934400D01*
X242528800Y-235346800D02*
X234144800Y-243730800D01*
X234327200Y-255669800D02*
X226872800Y-263124200D01*
X194191900Y-88643900D02*
X193019300Y-87471300D01*
X257403600Y-201599800D02*
X250775800Y-208227600D01*
X250775800Y-212192000D02*
X247963500Y-215004300D01*
X247963500Y-220436200D02*
X246546800Y-221852900D01*
X242172050Y-119295350D02*
X248538800Y-125662100D01*
X247963500Y-215004300D02*
X247963500Y-220436200D01*
X194191900Y-91855300D02*
X194191900Y-88643900D01*
X234144800Y-247624200D02*
X234327200Y-247806600D01*
X234327200Y-247806600D02*
X234327200Y-255669800D01*
X199263000Y-96850200D02*
X199186800Y-96850200D01*
X234144800Y-243730800D02*
X234144800Y-247624200D01*
X248640600Y-141934400D02*
X254615600Y-147909400D01*
X246546800Y-221852900D02*
X246546800Y-224141900D01*
X226872800Y-283541300D02*
X228235900Y-284904400D01*
X250775800Y-208227600D02*
X250775800Y-212192000D01*
X226872800Y-263124200D02*
X226872800Y-283541300D01*
X248538800Y-125662100D02*
X248538800Y-138309900D01*
X193019300Y-87471300D02*
X171834700Y-87471300D01*
X171834700Y-87471300D02*
X170180000Y-89126000D01*
X254615600Y-147909400D02*
X254615600Y-156647800D01*
X242528800Y-228159900D02*
X242528800Y-235346800D01*
%TO.N,/Level Shifters/PAN5V.MISO_02*%
X225346000Y-252704200D02*
X225346000Y-251391700D01*
X246959700Y-220020600D02*
X246959700Y-214358000D01*
X225486705Y-252844905D02*
X225346000Y-252704200D01*
X245849000Y-138197500D02*
X245849000Y-134633000D01*
X249771900Y-211545800D02*
X249771900Y-207453500D01*
X239824400Y-227730500D02*
X245543000Y-222011900D01*
X232152300Y-244585400D02*
X232152300Y-243138000D01*
X247345200Y-139693700D02*
X245849000Y-138197500D01*
X220296400Y-98466000D02*
X217737600Y-98466000D01*
X255864600Y-159952900D02*
X253233200Y-157321500D01*
X245543000Y-222011900D02*
X245543000Y-221437300D01*
X249771900Y-207453500D02*
X255864600Y-201360800D01*
X255864600Y-201360800D02*
X255864600Y-159952900D01*
X220985100Y-107350700D02*
X220985100Y-100449700D01*
X245849000Y-134633000D02*
X227279200Y-116063200D01*
X221146700Y-99316300D02*
X220296400Y-98466000D01*
X246959700Y-214358000D02*
X249771900Y-211545800D01*
X232152300Y-243138000D02*
X239824400Y-235465900D01*
X221146700Y-100288100D02*
X221146700Y-99316300D01*
X239824400Y-235465900D02*
X239824400Y-227730500D01*
X225425000Y-253862051D02*
X225486705Y-253800346D01*
X253233200Y-157321500D02*
X253233200Y-148873700D01*
X225486705Y-253800346D02*
X225486705Y-252844905D01*
X247345200Y-142985700D02*
X247345200Y-139693700D01*
X253233200Y-148873700D02*
X247345200Y-142985700D01*
X225425000Y-281609800D02*
X225425000Y-253862051D01*
X227279200Y-116063200D02*
X227279200Y-113644800D01*
X225346000Y-251391700D02*
X232152300Y-244585400D01*
X220985100Y-100449700D02*
X221146700Y-100288100D01*
X227279200Y-113644800D02*
X220985100Y-107350700D01*
X245543000Y-221437300D02*
X246959700Y-220020600D01*
%TO.N,/Level Shifters/PAN5V.MOSI_02*%
X240326300Y-235777500D02*
X240326300Y-227938300D01*
X226507800Y-97196000D02*
X215537900Y-97196000D01*
X240326300Y-227938300D02*
X246044900Y-222219700D01*
X232654200Y-244793200D02*
X232654200Y-243449600D01*
X241477800Y-119569600D02*
X241477800Y-112166000D01*
X226161600Y-263125700D02*
X227696600Y-261590700D01*
X227696600Y-251373500D02*
X227544400Y-251221300D01*
X232654200Y-243449600D02*
X240326300Y-235777500D01*
X227696600Y-261590700D02*
X227696600Y-251373500D01*
X247461600Y-214796500D02*
X250273900Y-211984200D01*
X247954800Y-142293900D02*
X247954800Y-138474200D01*
X247535100Y-138054500D02*
X247535100Y-125626900D01*
X247535100Y-125626900D02*
X241477800Y-119569600D01*
X246044900Y-222219700D02*
X246044900Y-221645100D01*
X226161600Y-285050800D02*
X226161600Y-263125700D01*
X247954800Y-138474200D02*
X247535100Y-138054500D01*
X247461600Y-220228400D02*
X247461600Y-214796500D01*
X253735100Y-148074200D02*
X247954800Y-142293900D01*
X253735100Y-156783300D02*
X253735100Y-148074200D01*
X227544400Y-249903000D02*
X232654200Y-244793200D01*
X256667000Y-159715200D02*
X253735100Y-156783300D01*
X241477800Y-112166000D02*
X226507800Y-97196000D01*
X250273900Y-211984200D02*
X250273900Y-207789700D01*
X246044900Y-221645100D02*
X247461600Y-220228400D01*
X256667000Y-201396600D02*
X256667000Y-159715200D01*
X225658900Y-285553500D02*
X226161600Y-285050800D01*
X250273900Y-207789700D02*
X256667000Y-201396600D01*
X227544400Y-251221300D02*
X227544400Y-249903000D01*
%TO.N,/Level Shifters/PAN5V.MISO_01*%
X249688400Y-220840400D02*
X248052500Y-222476300D01*
X230682800Y-278681961D02*
X230639800Y-278724961D01*
X230682800Y-285588800D02*
X229567000Y-286704600D01*
X259715000Y-158369000D02*
X259715000Y-201965300D01*
X243174500Y-251635900D02*
X229575600Y-265234800D01*
X230639800Y-279263439D02*
X230682800Y-279306439D01*
X230682800Y-279306439D02*
X230682800Y-285588800D01*
X249688400Y-215408500D02*
X249688400Y-220840400D01*
X230639800Y-278724961D02*
X230639800Y-279263439D01*
X252628400Y-209051900D02*
X252628400Y-212468500D01*
X229575600Y-273065239D02*
X230682800Y-274172439D01*
X243174500Y-237292600D02*
X243174500Y-251635900D01*
X256624700Y-155278700D02*
X259715000Y-158369000D01*
X244530200Y-235936900D02*
X243174500Y-237292600D01*
X244530200Y-228790800D02*
X244530200Y-235936900D01*
X248052500Y-222476300D02*
X248052500Y-225268500D01*
X248052500Y-225268500D02*
X244530200Y-228790800D01*
X229575600Y-265234800D02*
X229575600Y-273065239D01*
X230682800Y-274172439D02*
X230682800Y-278681961D01*
X252054000Y-129063600D02*
X252054000Y-142271800D01*
X252628400Y-212468500D02*
X249688400Y-215408500D01*
X256624700Y-146842500D02*
X256624700Y-155278700D01*
X252054000Y-142271800D02*
X256624700Y-146842500D01*
X259715000Y-201965300D02*
X252628400Y-209051900D01*
%TO.N,/Level Shifters/PAN5V.MOSI_01*%
X278643500Y-154023100D02*
X251484300Y-126863900D01*
X251484300Y-126863900D02*
X250784000Y-126863900D01*
X278643500Y-206658700D02*
X278643500Y-154023100D01*
X260534100Y-264593000D02*
X260534100Y-224768100D01*
X246176800Y-278950300D02*
X260534100Y-264593000D01*
X246176800Y-282945600D02*
X246176800Y-278950300D01*
X260534100Y-224768100D02*
X278643500Y-206658700D01*
%TO.N,/Level Shifters/PAN3V.MOSI_05*%
X288607500Y-238125000D02*
X289664400Y-239181900D01*
X289664400Y-249675000D02*
X279600900Y-259738500D01*
X289664400Y-239181900D02*
X289664400Y-249675000D01*
X279600900Y-259738500D02*
X279600900Y-266942200D01*
%TO.N,/Panel Headers/RESET*%
X233156100Y-243805100D02*
X233156100Y-248223400D01*
X83769200Y-185143200D02*
X89126000Y-190500000D01*
X188828800Y-262004200D02*
X190500000Y-262004200D01*
X103498000Y-221721600D02*
X103498000Y-212382500D01*
X94656000Y-148476894D02*
X92409294Y-150723600D01*
X241967400Y-227526200D02*
X241967400Y-234993800D01*
X190500000Y-266474000D02*
X190500000Y-262004200D01*
X91186000Y-150723600D02*
X83769200Y-158140400D01*
X94656000Y-144461500D02*
X94656000Y-148476894D01*
X107356000Y-233135500D02*
X107356000Y-225579600D01*
X233156100Y-248223400D02*
X233135500Y-248244000D01*
X241967400Y-234993800D02*
X233156100Y-243805100D01*
X190500000Y-262004200D02*
X197987900Y-254516300D01*
X92409294Y-150723600D02*
X91186000Y-150723600D01*
X107356000Y-225579600D02*
X103498000Y-221721600D01*
X187744900Y-260920300D02*
X188828800Y-262004200D01*
X83769200Y-158140400D02*
X83769200Y-185143200D01*
%TO.N,/Level Shifters/PAN3V.MISO_05*%
X260517400Y-273859600D02*
X267309600Y-267067400D01*
X267309600Y-267067400D02*
X267309600Y-246887100D01*
X260517400Y-285358600D02*
X260517400Y-273859600D01*
X261416800Y-286715200D02*
X261416800Y-286258000D01*
X261416800Y-286258000D02*
X260517400Y-285358600D01*
X267309600Y-246887100D02*
X269199700Y-244997000D01*
%TO.N,/Level Shifters/PAN3V.MISO_06*%
X274751800Y-248555000D02*
X282449600Y-240857200D01*
X274751800Y-274167800D02*
X274751800Y-248555000D01*
X273014300Y-282280500D02*
X273014300Y-275905300D01*
X273014300Y-275905300D02*
X274751800Y-274167800D01*
X283302900Y-240857200D02*
X284380700Y-241935000D01*
X282449600Y-240857200D02*
X283302900Y-240857200D01*
X284380700Y-241935000D02*
X286702500Y-241935000D01*
X271627600Y-283667200D02*
X273014300Y-282280500D01*
X271627600Y-285038800D02*
X271627600Y-283667200D01*
%TO.N,/Level Shifters/PAN3V.MOSI_07*%
X272697900Y-232634300D02*
X272697900Y-224189600D01*
X268833600Y-246994700D02*
X270353500Y-245474800D01*
X270353500Y-234978700D02*
X272697900Y-232634300D01*
X272697900Y-224189600D02*
X282892500Y-213995000D01*
X262788400Y-284683200D02*
X263194800Y-284276800D01*
X263194800Y-284276800D02*
X263194800Y-281148400D01*
X268833600Y-275509600D02*
X268833600Y-246994700D01*
X270353500Y-245474800D02*
X270353500Y-234978700D01*
X263194800Y-281148400D02*
X268833600Y-275509600D01*
%TO.N,/Level Shifters/PAN3V.MISO_07*%
X287496800Y-246221700D02*
X287496800Y-245268200D01*
X273729500Y-276631000D02*
X278732300Y-271628200D01*
X287796700Y-250129300D02*
X287796700Y-249061600D01*
X287521600Y-247783400D02*
X287790700Y-247514300D01*
X287790700Y-247514300D02*
X287790700Y-246515600D01*
X287790700Y-246515600D02*
X287496800Y-246221700D01*
X287521600Y-248786500D02*
X287521600Y-247783400D01*
X288607500Y-244157500D02*
X288607500Y-243205000D01*
X278732300Y-259193700D02*
X287796700Y-250129300D01*
X272796000Y-283921200D02*
X273729500Y-282987700D01*
X287796700Y-249061600D02*
X287521600Y-248786500D01*
X287496800Y-245268200D02*
X288607500Y-244157500D01*
X273729500Y-282987700D02*
X273729500Y-276631000D01*
X278732300Y-271628200D02*
X278732300Y-259193700D01*
%TO.N,/Level Shifters/PAN3V.MOSI_08*%
X258597400Y-282818400D02*
X257649100Y-283766700D01*
X283415700Y-210390600D02*
X282437700Y-210390600D01*
X266547600Y-226280700D02*
X266547600Y-265244500D01*
X284797500Y-211772400D02*
X283415700Y-210390600D01*
X266547600Y-265244500D02*
X258597400Y-273194700D01*
X258597400Y-273194700D02*
X258597400Y-282818400D01*
X284797500Y-212725000D02*
X284797500Y-211772400D01*
X282437700Y-210390600D02*
X266547600Y-226280700D01*
%TO.N,/Level Shifters/PAN3V.MISO_08*%
X285616600Y-246513500D02*
X285616600Y-247516500D01*
X286702500Y-244475000D02*
X286702500Y-245427600D01*
X285885700Y-248784400D02*
X276060600Y-258609500D01*
X285885700Y-247785600D02*
X285885700Y-248784400D01*
X276060600Y-258609500D02*
X276060600Y-273276900D01*
X285616600Y-247516500D02*
X285885700Y-247785600D01*
X286702500Y-245427600D02*
X285616600Y-246513500D01*
%TO.N,/Level Shifters/PAN5V.MISO_08*%
X237294600Y-265691800D02*
X237236000Y-265633200D01*
X244350200Y-282295600D02*
X237294600Y-275240000D01*
X245008400Y-282295600D02*
X244350200Y-282295600D01*
X144002400Y-257134000D02*
X137862400Y-257134000D01*
X237294600Y-275240000D02*
X237294600Y-265691800D01*
X147777200Y-260908800D02*
X144002400Y-257134000D01*
%TO.N,/Level Shifters/PAN5V.MOSI_08*%
X234188000Y-264363200D02*
X234188000Y-274392400D01*
X248474100Y-285713300D02*
X248474100Y-283785600D01*
X244662300Y-285993000D02*
X245232100Y-286562800D01*
X234348800Y-274423300D02*
X244662300Y-284736800D01*
X245232100Y-286562800D02*
X247624600Y-286562800D01*
X234188000Y-274392400D02*
X234218900Y-274423300D01*
X234218900Y-274423300D02*
X234348800Y-274423300D01*
X244662300Y-284736800D02*
X244662300Y-285993000D01*
X247624600Y-286562800D02*
X248474100Y-285713300D01*
%TO.N,/Level Shifters/PAN5V.MISO_07*%
X232454100Y-273496100D02*
X243839900Y-284881900D01*
X140941700Y-251335300D02*
X152584400Y-262978000D01*
X140941700Y-250229400D02*
X140941700Y-251335300D01*
X232454100Y-265774000D02*
X232454100Y-273496100D01*
%TO.N,/Level Shifters/PAN5V.MOSI_07*%
X174624200Y-272471400D02*
X174624200Y-272471500D01*
X168910000Y-266835300D02*
X174546100Y-272471400D01*
X140922500Y-247243600D02*
X146496700Y-252817800D01*
X202495200Y-283216400D02*
X215727600Y-283216400D01*
X192420000Y-273142900D02*
X192421700Y-273142900D01*
X136550400Y-247243600D02*
X140922500Y-247243600D01*
X192421700Y-273142900D02*
X202495200Y-283216400D01*
X158273100Y-255433700D02*
X168910000Y-266070600D01*
X155632100Y-253218900D02*
X157846900Y-255433700D01*
X174546100Y-272471400D02*
X174624200Y-272471400D01*
X154533900Y-253218900D02*
X155632100Y-253218900D01*
X168910000Y-266070600D02*
X168910000Y-266835300D01*
X215727600Y-283216400D02*
X219839800Y-287328600D01*
X157846900Y-255433700D02*
X158273100Y-255433700D01*
X154132800Y-252817800D02*
X154533900Y-253218900D01*
X146496700Y-252817800D02*
X154132800Y-252817800D01*
%TO.N,/Level Shifters/PAN5V.MISO_06*%
X144416800Y-256634000D02*
X145270339Y-256634000D01*
X247507880Y-285760280D02*
X247507880Y-285023680D01*
X247507880Y-285023680D02*
X246393900Y-283909700D01*
X236056200Y-274711300D02*
X236056200Y-266620400D01*
X245254600Y-283909700D02*
X236056200Y-274711300D01*
X152426039Y-263789700D02*
X152710500Y-263789700D01*
X113436400Y-225653600D02*
X144416800Y-256634000D01*
X246393900Y-283909700D02*
X245254600Y-283909700D01*
X113436400Y-223164400D02*
X113436400Y-225653600D01*
X145270339Y-256634000D02*
X152426039Y-263789700D01*
%TO.N,/Level Shifters/PAN5V.MOSI_06*%
X155937400Y-252660600D02*
X156767800Y-253491000D01*
X235102400Y-274467200D02*
X245340900Y-284705700D01*
X156767800Y-253491000D02*
X158404800Y-253491000D01*
X245341000Y-284705700D02*
X245341000Y-285674100D01*
X135432800Y-246430800D02*
X140819400Y-246430800D01*
X154685300Y-252660600D02*
X155937400Y-252660600D01*
X146704500Y-252315900D02*
X154340600Y-252315900D01*
X235102400Y-263906000D02*
X235102400Y-274467200D01*
X245341000Y-285674100D02*
X245436600Y-285769700D01*
X158404800Y-253491000D02*
X163113900Y-258200100D01*
X125430480Y-236428480D02*
X135432800Y-246430800D01*
X245340900Y-284705700D02*
X245341000Y-284705700D01*
X140819400Y-246430800D02*
X146704500Y-252315900D01*
X154340600Y-252315900D02*
X154685300Y-252660600D01*
X125379680Y-236428480D02*
X125430480Y-236428480D01*
%TO.N,/Level Shifters/PAN5V.MISO_05*%
X88180200Y-194428100D02*
X89367800Y-194428100D01*
X95901200Y-145789000D02*
X95901200Y-144421100D01*
X88638400Y-189111900D02*
X84531200Y-185004700D01*
X95901200Y-144421100D02*
X98466000Y-141856300D01*
X249969600Y-289613000D02*
X249221800Y-290360800D01*
X87874100Y-194734200D02*
X88180200Y-194428100D01*
X90278600Y-190015400D02*
X89375100Y-189111900D01*
X89367800Y-194428100D02*
X90278600Y-193517300D01*
X92608400Y-151536400D02*
X95317100Y-148827700D01*
X95317100Y-148827700D02*
X95317100Y-146373100D01*
X97283800Y-290360800D02*
X87874100Y-280951100D01*
X98466000Y-141856300D02*
X98466000Y-137862400D01*
X249221800Y-290360800D02*
X97283800Y-290360800D01*
X84531200Y-158445200D02*
X91440000Y-151536400D01*
X95317100Y-146373100D02*
X95901200Y-145789000D01*
X89375100Y-189111900D02*
X88638400Y-189111900D01*
X91440000Y-151536400D02*
X92608400Y-151536400D01*
X84531200Y-185004700D02*
X84531200Y-158445200D01*
X90278600Y-193517300D02*
X90278600Y-190015400D01*
X87874100Y-280951100D02*
X87874100Y-194734200D01*
%TO.N,/Level Shifters/PAN5V.MOSI_05*%
X153466800Y-255168400D02*
X161400500Y-263102100D01*
X161400500Y-263102100D02*
X161400500Y-266964700D01*
X161400500Y-266964700D02*
X169259500Y-274823700D01*
X153466800Y-254061200D02*
X153466800Y-255168400D01*
X217906600Y-287832800D02*
X217232700Y-287158900D01*
X169259500Y-274823700D02*
X172791000Y-274823700D01*
X217232700Y-287158900D02*
X203485600Y-287158900D01*
X203485600Y-287158900D02*
X193096700Y-276770000D01*
%TO.N,/Level Shifters/PAN3V.MOSI_09*%
X268046200Y-247072400D02*
X269851600Y-245267000D01*
X269851600Y-245267000D02*
X269851600Y-224495900D01*
X268046200Y-267472800D02*
X268046200Y-247072400D01*
X269851600Y-224495900D02*
X282892500Y-211455000D01*
X262873400Y-272645600D02*
X268046200Y-267472800D01*
%TO.N,/Level Shifters/PAN3V.MOSI_10*%
X231406000Y-265516100D02*
X251409200Y-245512900D01*
X231406000Y-278878000D02*
X231406000Y-265516100D01*
X251409200Y-236613800D02*
X251396300Y-236600900D01*
X251409200Y-245512900D02*
X251409200Y-236613800D01*
X231289800Y-278994200D02*
X231406000Y-278878000D01*
%TO.N,/Level Shifters/PAN3V.MISO_10*%
X246484900Y-274297700D02*
X258690900Y-262091700D01*
X246484900Y-275293800D02*
X246484900Y-274297700D01*
%TO.N,/Level Shifters/PAN3V.MOSI_11*%
X265785600Y-226021900D02*
X282892500Y-208915000D01*
X256460300Y-274622100D02*
X265785600Y-265296800D01*
X256460300Y-274632100D02*
X256460300Y-274622100D01*
X265785600Y-265296800D02*
X265785600Y-226021900D01*
%TO.N,/Level Shifters/PAN5V.MISO_11*%
X252062500Y-233941600D02*
X252062500Y-260129000D01*
X257134000Y-228870100D02*
X252062500Y-233941600D01*
X257134000Y-217737600D02*
X257134000Y-228870100D01*
X252062500Y-260129000D02*
X237971600Y-274219900D01*
%TO.N,/Level Shifters/PAN5V.MOSI_11*%
X174522500Y-279542400D02*
X174522500Y-282034800D01*
X187383100Y-260266500D02*
X187117100Y-260266500D01*
X253923800Y-241401600D02*
X253923800Y-241376200D01*
X186690000Y-267374900D02*
X174522500Y-279542400D01*
X194069800Y-254394700D02*
X193046300Y-255418200D01*
X187117100Y-260266500D02*
X186690000Y-260693600D01*
X192231400Y-255418200D02*
X187383100Y-260266500D01*
X186690000Y-260693600D02*
X186690000Y-267374900D01*
X258404000Y-236896000D02*
X258404000Y-215537900D01*
X253923800Y-241376200D02*
X258404000Y-236896000D01*
X193046300Y-255418200D02*
X192231400Y-255418200D01*
%TO.N,/Level Shifters/PAN5V.MISO_10*%
X182198245Y-280404800D02*
X181816000Y-280404800D01*
X209798500Y-254907100D02*
X202678000Y-262027600D01*
X202678000Y-262027600D02*
X202678000Y-265800500D01*
X191304550Y-271266600D02*
X184141100Y-278430050D01*
X181816000Y-280404800D02*
X176487000Y-285733800D01*
X184141100Y-278430050D02*
X184141100Y-278461945D01*
X202678000Y-265800500D02*
X197211900Y-271266600D01*
X176487000Y-285733800D02*
X170172000Y-285733800D01*
X197211900Y-271266600D02*
X191304550Y-271266600D01*
X184141100Y-278461945D02*
X182198245Y-280404800D01*
%TO.N,/Level Shifters/PAN5V.MOSI_10*%
X191905700Y-254768200D02*
X184052000Y-262621900D01*
X184052000Y-262621900D02*
X184052000Y-268589400D01*
X167910200Y-284731200D02*
X167910200Y-286070400D01*
X184052000Y-268589400D02*
X167910200Y-284731200D01*
X192596500Y-254768200D02*
X191905700Y-254768200D01*
%TO.N,/Level Shifters/PAN5V.MISO_09*%
X166966800Y-287118100D02*
X166966800Y-284527700D01*
X166966800Y-284527700D02*
X182880000Y-268614500D01*
X182880000Y-268614500D02*
X182880000Y-266474000D01*
%TO.N,/Level Shifters/PAN5V.MOSI_09*%
X168601600Y-284750600D02*
X185420000Y-267932200D01*
X168252500Y-287931500D02*
X168596000Y-287588000D01*
X167153600Y-287931500D02*
X168252500Y-287931500D01*
X168596000Y-287588000D02*
X168596000Y-287371161D01*
X185420000Y-267932200D02*
X185420000Y-266474000D01*
X168596000Y-287371161D02*
X168601600Y-287365561D01*
X168601600Y-287365561D02*
X168601600Y-284750600D01*
%TD*%
M02*
