%TF.GenerationSoftware,KiCad,Pcbnew,7.0.10-7.0.10~ubuntu22.04.1*%
%TF.CreationDate,2024-09-27T12:09:37-07:00*%
%TF.ProjectId,ni_arena_12-12,6e695f61-7265-46e6-915f-31322d31322e,rev?*%
%TF.SameCoordinates,Original*%
%TF.FileFunction,Soldermask,Top*%
%TF.FilePolarity,Negative*%
%FSLAX46Y46*%
G04 Gerber Fmt 4.6, Leading zero omitted, Abs format (unit mm)*
G04 Created by KiCad (PCBNEW 7.0.10-7.0.10~ubuntu22.04.1) date 2024-09-27 12:09:37*
%MOMM*%
%LPD*%
G01*
G04 APERTURE LIST*
G04 Aperture macros list*
%AMRoundRect*
0 Rectangle with rounded corners*
0 $1 Rounding radius*
0 $2 $3 $4 $5 $6 $7 $8 $9 X,Y pos of 4 corners*
0 Add a 4 corners polygon primitive as box body*
4,1,4,$2,$3,$4,$5,$6,$7,$8,$9,$2,$3,0*
0 Add four circle primitives for the rounded corners*
1,1,$1+$1,$2,$3*
1,1,$1+$1,$4,$5*
1,1,$1+$1,$6,$7*
1,1,$1+$1,$8,$9*
0 Add four rect primitives between the rounded corners*
20,1,$1+$1,$2,$3,$4,$5,0*
20,1,$1+$1,$4,$5,$6,$7,0*
20,1,$1+$1,$6,$7,$8,$9,0*
20,1,$1+$1,$8,$9,$2,$3,0*%
%AMRotRect*
0 Rectangle, with rotation*
0 The origin of the aperture is its center*
0 $1 length*
0 $2 width*
0 $3 Rotation angle, in degrees counterclockwise*
0 Add horizontal line*
21,1,$1,$2,0,0,$3*%
G04 Aperture macros list end*
%ADD10RoundRect,0.200000X-0.200000X-0.275000X0.200000X-0.275000X0.200000X0.275000X-0.200000X0.275000X0*%
%ADD11RoundRect,0.225000X0.319856X0.104006X-0.069856X0.329006X-0.319856X-0.104006X0.069856X-0.329006X0*%
%ADD12RoundRect,0.225000X-0.225000X-0.250000X0.225000X-0.250000X0.225000X0.250000X-0.225000X0.250000X0*%
%ADD13RoundRect,0.150000X0.126346X0.518838X-0.386154X-0.368838X-0.126346X-0.518838X0.386154X0.368838X0*%
%ADD14RoundRect,0.150000X-0.518838X0.126346X0.368838X-0.386154X0.518838X-0.126346X-0.368838X0.386154X0*%
%ADD15C,9.000000*%
%ADD16R,1.600000X1.600000*%
%ADD17C,1.600000*%
%ADD18RoundRect,0.225000X0.225000X0.250000X-0.225000X0.250000X-0.225000X-0.250000X0.225000X-0.250000X0*%
%ADD19RoundRect,0.150000X-0.150000X0.512500X-0.150000X-0.512500X0.150000X-0.512500X0.150000X0.512500X0*%
%ADD20RotRect,1.600000X1.600000X240.000000*%
%ADD21RoundRect,0.225000X-0.069856X-0.329006X0.319856X-0.104006X0.069856X0.329006X-0.319856X0.104006X0*%
%ADD22RoundRect,0.150000X-0.386154X0.368838X0.126346X-0.518838X0.386154X-0.368838X-0.126346X0.518838X0*%
%ADD23RoundRect,0.225000X-0.104006X0.319856X-0.329006X-0.069856X0.104006X-0.319856X0.329006X0.069856X0*%
%ADD24C,2.540000*%
%ADD25RoundRect,0.100000X0.637500X0.100000X-0.637500X0.100000X-0.637500X-0.100000X0.637500X-0.100000X0*%
%ADD26RoundRect,0.587500X-1.300505X-0.072460X-0.713005X-1.090040X1.300505X0.072460X0.713005X1.090040X0*%
%ADD27RoundRect,0.200000X0.035705X0.338157X-0.310705X0.138157X-0.035705X-0.338157X0.310705X-0.138157X0*%
%ADD28RoundRect,0.587500X-0.587500X-1.162500X0.587500X-1.162500X0.587500X1.162500X-0.587500X1.162500X0*%
%ADD29RoundRect,0.225000X-0.250000X0.225000X-0.250000X-0.225000X0.250000X-0.225000X0.250000X0.225000X0*%
%ADD30RotRect,1.600000X1.600000X150.000000*%
%ADD31RotRect,1.600000X1.600000X210.000000*%
%ADD32RoundRect,0.200000X-0.310705X-0.138157X0.035705X-0.338157X0.310705X0.138157X-0.035705X0.338157X0*%
%ADD33RoundRect,0.587500X1.162500X-0.587500X1.162500X0.587500X-1.162500X0.587500X-1.162500X-0.587500X0*%
%ADD34RoundRect,0.150000X0.512500X0.150000X-0.512500X0.150000X-0.512500X-0.150000X0.512500X-0.150000X0*%
%ADD35RoundRect,0.150000X0.150000X-0.512500X0.150000X0.512500X-0.150000X0.512500X-0.150000X-0.512500X0*%
%ADD36RoundRect,0.225000X0.069856X0.329006X-0.319856X0.104006X-0.069856X-0.329006X0.319856X-0.104006X0*%
%ADD37RoundRect,0.200000X0.338157X-0.035705X0.138157X0.310705X-0.338157X0.035705X-0.138157X-0.310705X0*%
%ADD38RoundRect,0.587500X0.072460X-1.300505X1.090040X-0.713005X-0.072460X1.300505X-1.090040X0.713005X0*%
%ADD39RoundRect,0.200000X-0.275000X0.200000X-0.275000X-0.200000X0.275000X-0.200000X0.275000X0.200000X0*%
%ADD40RoundRect,0.587500X-0.713005X1.090040X-1.300505X0.072460X0.713005X-1.090040X1.300505X-0.072460X0*%
%ADD41RoundRect,0.200000X-0.338157X0.035705X-0.138157X-0.310705X0.338157X-0.035705X0.138157X0.310705X0*%
%ADD42RoundRect,0.587500X0.587500X1.162500X-0.587500X1.162500X-0.587500X-1.162500X0.587500X-1.162500X0*%
%ADD43RoundRect,0.200000X0.310705X0.138157X-0.035705X0.338157X-0.310705X-0.138157X0.035705X-0.338157X0*%
%ADD44RoundRect,0.225000X0.250000X-0.225000X0.250000X0.225000X-0.250000X0.225000X-0.250000X-0.225000X0*%
%ADD45RoundRect,0.225000X-0.319856X-0.104006X0.069856X-0.329006X0.319856X0.104006X-0.069856X0.329006X0*%
%ADD46RoundRect,0.225000X-0.329006X0.069856X-0.104006X-0.319856X0.329006X-0.069856X0.104006X0.319856X0*%
%ADD47C,3.556000*%
%ADD48C,1.930400*%
%ADD49C,4.064000*%
%ADD50RoundRect,0.225000X0.329006X-0.069856X0.104006X0.319856X-0.329006X0.069856X-0.104006X-0.319856X0*%
%ADD51RotRect,1.600000X1.600000X30.000000*%
%ADD52RoundRect,0.587500X1.300505X0.072460X0.713005X1.090040X-1.300505X-0.072460X-0.713005X-1.090040X0*%
%ADD53RoundRect,0.250000X-0.262500X-0.450000X0.262500X-0.450000X0.262500X0.450000X-0.262500X0.450000X0*%
%ADD54RoundRect,0.200000X-0.035705X-0.338157X0.310705X-0.138157X0.035705X0.338157X-0.310705X0.138157X0*%
%ADD55RoundRect,0.150000X0.518838X-0.126346X-0.368838X0.386154X-0.518838X0.126346X0.368838X-0.386154X0*%
%ADD56RoundRect,0.200000X0.275000X-0.200000X0.275000X0.200000X-0.275000X0.200000X-0.275000X-0.200000X0*%
%ADD57RoundRect,0.587500X1.090040X0.713005X0.072460X1.300505X-1.090040X-0.713005X-0.072460X-1.300505X0*%
%ADD58RoundRect,0.225000X0.104006X-0.319856X0.329006X0.069856X-0.104006X0.319856X-0.329006X-0.069856X0*%
%ADD59RotRect,1.600000X1.600000X60.000000*%
%ADD60RoundRect,0.150000X0.368838X0.386154X-0.518838X-0.126346X-0.368838X-0.386154X0.518838X0.126346X0*%
%ADD61RotRect,1.600000X1.600000X120.000000*%
%ADD62RoundRect,0.200000X-0.138157X0.310705X-0.338157X-0.035705X0.138157X-0.310705X0.338157X0.035705X0*%
%ADD63RoundRect,0.200000X0.200000X0.275000X-0.200000X0.275000X-0.200000X-0.275000X0.200000X-0.275000X0*%
%ADD64RoundRect,0.587500X-1.162500X0.587500X-1.162500X-0.587500X1.162500X-0.587500X1.162500X0.587500X0*%
%ADD65RoundRect,0.150000X-0.512500X-0.150000X0.512500X-0.150000X0.512500X0.150000X-0.512500X0.150000X0*%
%ADD66RoundRect,0.587500X0.713005X-1.090040X1.300505X-0.072460X-0.713005X1.090040X-1.300505X0.072460X0*%
%ADD67RoundRect,0.150000X0.386154X-0.368838X-0.126346X0.518838X-0.386154X0.368838X0.126346X-0.518838X0*%
%ADD68RotRect,1.600000X1.600000X300.000000*%
%ADD69RoundRect,0.587500X-1.090040X-0.713005X-0.072460X-1.300505X1.090040X0.713005X0.072460X1.300505X0*%
%ADD70RoundRect,0.200000X0.138157X-0.310705X0.338157X0.035705X-0.138157X0.310705X-0.338157X-0.035705X0*%
%ADD71C,1.400000*%
%ADD72C,3.700000*%
%ADD73RotRect,1.600000X1.600000X330.000000*%
%ADD74RoundRect,0.150000X-0.368838X-0.386154X0.518838X0.126346X0.368838X0.386154X-0.518838X-0.126346X0*%
%ADD75RoundRect,0.250000X-0.450000X0.262500X-0.450000X-0.262500X0.450000X-0.262500X0.450000X0.262500X0*%
%ADD76RoundRect,0.587500X-0.072460X1.300505X-1.090040X0.713005X0.072460X-1.300505X1.090040X-0.713005X0*%
%ADD77RoundRect,0.150000X-0.126346X-0.518838X0.386154X0.368838X0.126346X0.518838X-0.386154X-0.368838X0*%
G04 APERTURE END LIST*
D10*
%TO.C,R10*%
X154064200Y-87579200D03*
X155714200Y-87579200D03*
%TD*%
D11*
%TO.C,C36*%
X152862270Y-271921000D03*
X151519930Y-271146000D03*
%TD*%
D12*
%TO.C,C3*%
X128988400Y-287711200D03*
X130538400Y-287711200D03*
%TD*%
D13*
%TO.C,U11*%
X83625174Y-149338696D03*
X82802450Y-148863696D03*
X81979726Y-148388696D03*
X80842226Y-150358904D03*
X81664950Y-150833904D03*
X82487674Y-151308904D03*
%TD*%
D14*
%TO.C,U14*%
X149338696Y-271974826D03*
X148863696Y-272797550D03*
X148388696Y-273620274D03*
X150358904Y-274757774D03*
X150833904Y-273935050D03*
X151308904Y-273112326D03*
%TD*%
D15*
%TO.C,H1*%
X76200000Y-76200000D03*
%TD*%
D16*
%TO.C,P10*%
X195580000Y-266474000D03*
D17*
X193040000Y-266474000D03*
X190500000Y-266474000D03*
X187960000Y-266474000D03*
X185420000Y-266474000D03*
X182880000Y-266474000D03*
X180340000Y-266474000D03*
X177800000Y-266474000D03*
X175260000Y-266474000D03*
X172720000Y-266474000D03*
X170180000Y-266474000D03*
X167640000Y-266474000D03*
X165100000Y-266474000D03*
X162560000Y-266474000D03*
X160020000Y-266474000D03*
%TD*%
D18*
%TO.C,C6*%
X224177200Y-287690400D03*
X222627200Y-287690400D03*
%TD*%
D19*
%TO.C,U12*%
X82011600Y-200239200D03*
X81061600Y-200239200D03*
X80111600Y-200239200D03*
X80111600Y-202514200D03*
X81061600Y-202514200D03*
X82011600Y-202514200D03*
%TD*%
D20*
%TO.C,P12*%
X263484000Y-206739068D03*
D17*
X262214000Y-208938773D03*
X260944000Y-211138477D03*
X259674000Y-213338182D03*
X258404000Y-215537886D03*
X257134000Y-217737591D03*
X255864000Y-219937295D03*
X254594000Y-222137000D03*
X253324000Y-224336705D03*
X252054000Y-226536409D03*
X250784000Y-228736114D03*
X249514000Y-230935818D03*
X248244000Y-233135523D03*
X246974000Y-235335227D03*
X245704000Y-237534932D03*
%TD*%
D21*
%TO.C,C24*%
X108757730Y-109142800D03*
X110100070Y-108367800D03*
%TD*%
D16*
%TO.C,P7*%
X89126000Y-195580000D03*
D17*
X89126000Y-193040000D03*
X89126000Y-190500000D03*
X89126000Y-187960000D03*
X89126000Y-185420000D03*
X89126000Y-182880000D03*
X89126000Y-180340000D03*
X89126000Y-177800000D03*
X89126000Y-175260000D03*
X89126000Y-172720000D03*
X89126000Y-170180000D03*
X89126000Y-167640000D03*
X89126000Y-165100000D03*
X89126000Y-162560000D03*
X89126000Y-160020000D03*
%TD*%
D22*
%TO.C,U13*%
X106064374Y-245127096D03*
X105241650Y-245602096D03*
X104418926Y-246077096D03*
X105556426Y-248047304D03*
X106379150Y-247572304D03*
X107201874Y-247097304D03*
%TD*%
D23*
%TO.C,C45*%
X271921000Y-202737730D03*
X271146000Y-204080070D03*
%TD*%
D18*
%TO.C,C40*%
X201549000Y-269951200D03*
X199999000Y-269951200D03*
%TD*%
D24*
%TO.C,SW1*%
X284480000Y-116840000D03*
X284480000Y-112090200D03*
X284480000Y-107340400D03*
%TD*%
D25*
%TO.C,U3*%
X232669700Y-288335400D03*
X232669700Y-287685400D03*
X232669700Y-287035400D03*
X232669700Y-286385400D03*
X232669700Y-285735400D03*
X232669700Y-285085400D03*
X232669700Y-284435400D03*
X232669700Y-283785400D03*
X232669700Y-283135400D03*
X232669700Y-282485400D03*
X226944700Y-282485400D03*
X226944700Y-283135400D03*
X226944700Y-283785400D03*
X226944700Y-284435400D03*
X226944700Y-285085400D03*
X226944700Y-285735400D03*
X226944700Y-286385400D03*
X226944700Y-287035400D03*
X226944700Y-287685400D03*
X226944700Y-288335400D03*
%TD*%
D26*
%TO.C,L5*%
X112717100Y-100633028D03*
X115542100Y-105526071D03*
%TD*%
D18*
%TO.C,C8*%
X247410500Y-287663000D03*
X245860500Y-287663000D03*
%TD*%
D25*
%TO.C,U2*%
X126615900Y-288366200D03*
X126615900Y-287716200D03*
X126615900Y-287066200D03*
X126615900Y-286416200D03*
X126615900Y-285766200D03*
X126615900Y-285116200D03*
X126615900Y-284466200D03*
X126615900Y-283816200D03*
X126615900Y-283166200D03*
X126615900Y-282516200D03*
X120890900Y-282516200D03*
X120890900Y-283166200D03*
X120890900Y-283816200D03*
X120890900Y-284466200D03*
X120890900Y-285116200D03*
X120890900Y-285766200D03*
X120890900Y-286416200D03*
X120890900Y-287066200D03*
X120890900Y-287716200D03*
X120890900Y-288366200D03*
%TD*%
D10*
%TO.C,R21*%
X199911200Y-265988800D03*
X201561200Y-265988800D03*
%TD*%
D23*
%TO.C,C46*%
X269479800Y-203308330D03*
X268704800Y-204650670D03*
%TD*%
D27*
%TO.C,R24*%
X243466171Y-244065600D03*
X242037229Y-244890600D03*
%TD*%
D28*
%TO.C,L7*%
X78430000Y-195580000D03*
X84080000Y-195580000D03*
%TD*%
D21*
%TO.C,C25*%
X111157130Y-109869200D03*
X112499470Y-109094200D03*
%TD*%
D29*
%TO.C,C12*%
X271780000Y-152336200D03*
X271780000Y-153886200D03*
%TD*%
D30*
%TO.C,P9*%
X148860932Y-263484000D03*
D17*
X146661227Y-262214000D03*
X144461523Y-260944000D03*
X142261818Y-259674000D03*
X140062114Y-258404000D03*
X137862409Y-257134000D03*
X135662705Y-255864000D03*
X133463000Y-254594000D03*
X131263295Y-253324000D03*
X129063591Y-252054000D03*
X126863886Y-250784000D03*
X124664182Y-249514000D03*
X122464477Y-248244000D03*
X120264773Y-246974000D03*
X118065068Y-245704000D03*
%TD*%
D31*
%TO.C,P11*%
X237534932Y-245704000D03*
D17*
X235335227Y-246974000D03*
X233135523Y-248244000D03*
X230935818Y-249514000D03*
X228736114Y-250784000D03*
X226536409Y-252054000D03*
X224336705Y-253324000D03*
X222137000Y-254594000D03*
X219937295Y-255864000D03*
X217737591Y-257134000D03*
X215537886Y-258404000D03*
X213338182Y-259674000D03*
X211138477Y-260944000D03*
X208938773Y-262214000D03*
X206739068Y-263484000D03*
%TD*%
D32*
%TO.C,R19*%
X152854429Y-265229300D03*
X154283371Y-266054300D03*
%TD*%
D33*
%TO.C,L10*%
X195580000Y-277170000D03*
X195580000Y-271520000D03*
%TD*%
D12*
%TO.C,C9*%
X173939200Y-287731200D03*
X175489200Y-287731200D03*
%TD*%
D18*
%TO.C,C2*%
X95045500Y-287633000D03*
X93495500Y-287633000D03*
%TD*%
D12*
%TO.C,C5*%
X235127200Y-287680400D03*
X236677200Y-287680400D03*
%TD*%
%TO.C,C38*%
X201726200Y-277317200D03*
X203276200Y-277317200D03*
%TD*%
D34*
%TO.C,U9*%
X155360800Y-82011600D03*
X155360800Y-81061600D03*
X155360800Y-80111600D03*
X153085800Y-80111600D03*
X153085800Y-81061600D03*
X153085800Y-82011600D03*
%TD*%
D35*
%TO.C,U6*%
X273588400Y-155360800D03*
X274538400Y-155360800D03*
X275488400Y-155360800D03*
X275488400Y-153085800D03*
X274538400Y-153085800D03*
X273588400Y-153085800D03*
%TD*%
D36*
%TO.C,C43*%
X244442870Y-245730800D03*
X243100530Y-246505800D03*
%TD*%
D18*
%TO.C,C10*%
X162964200Y-287801200D03*
X161414200Y-287801200D03*
%TD*%
D37*
%TO.C,R5*%
X243118100Y-114556771D03*
X242293100Y-113127829D03*
%TD*%
D12*
%TO.C,C22*%
X154051000Y-85648800D03*
X155601000Y-85648800D03*
%TD*%
D38*
%TO.C,L8*%
X100633028Y-242882900D03*
X105526071Y-240057900D03*
%TD*%
D39*
%TO.C,R4*%
X268020800Y-154064200D03*
X268020800Y-155714200D03*
%TD*%
D40*
%TO.C,L3*%
X212087100Y-82853028D03*
X209262100Y-87746071D03*
%TD*%
D11*
%TO.C,C37*%
X152291670Y-269479800D03*
X150949330Y-268704800D03*
%TD*%
D41*
%TO.C,R6*%
X244065600Y-112133829D03*
X244890600Y-113562771D03*
%TD*%
D21*
%TO.C,C41*%
X248279330Y-252021300D03*
X249621670Y-251246300D03*
%TD*%
D42*
%TO.C,L1*%
X277170000Y-160020000D03*
X271520000Y-160020000D03*
%TD*%
D43*
%TO.C,R20*%
X153245371Y-267801400D03*
X151816429Y-266976400D03*
%TD*%
D15*
%TO.C,H3*%
X279400000Y-279400000D03*
%TD*%
D25*
%TO.C,U1*%
X103378000Y-288298000D03*
X103378000Y-287648000D03*
X103378000Y-286998000D03*
X103378000Y-286348000D03*
X103378000Y-285698000D03*
X103378000Y-285048000D03*
X103378000Y-284398000D03*
X103378000Y-283748000D03*
X103378000Y-283098000D03*
X103378000Y-282448000D03*
X97653000Y-282448000D03*
X97653000Y-283098000D03*
X97653000Y-283748000D03*
X97653000Y-284398000D03*
X97653000Y-285048000D03*
X97653000Y-285698000D03*
X97653000Y-286348000D03*
X97653000Y-286998000D03*
X97653000Y-287648000D03*
X97653000Y-288298000D03*
%TD*%
D12*
%TO.C,C21*%
X152336200Y-83820000D03*
X153886200Y-83820000D03*
%TD*%
D44*
%TO.C,C30*%
X83820000Y-203263800D03*
X83820000Y-201713800D03*
%TD*%
D29*
%TO.C,C48*%
X186883400Y-283167200D03*
X186883400Y-284717200D03*
%TD*%
D34*
%TO.C,Q2*%
X285739000Y-128356400D03*
X285739000Y-126456400D03*
X283464000Y-127406400D03*
%TD*%
D29*
%TO.C,C29*%
X78282800Y-201726200D03*
X78282800Y-203276200D03*
%TD*%
D11*
%TO.C,C17*%
X206837870Y-79652500D03*
X205495530Y-78877500D03*
%TD*%
D15*
%TO.C,H4*%
X76200000Y-279400000D03*
%TD*%
D45*
%TO.C,C35*%
X148762130Y-275947500D03*
X150104470Y-276722500D03*
%TD*%
D46*
%TO.C,C32*%
X103578700Y-248279330D03*
X104353700Y-249621670D03*
%TD*%
D47*
%TO.C,J1*%
X287020000Y-87528400D03*
D48*
X289026600Y-92024200D03*
D47*
X287020000Y-96520000D03*
D49*
X280035000Y-92024200D03*
D47*
X286029400Y-92024200D03*
%TD*%
D36*
%TO.C,C23*%
X107320670Y-103578700D03*
X105978330Y-104353700D03*
%TD*%
D50*
%TO.C,C14*%
X252021300Y-107320670D03*
X251246300Y-105978330D03*
%TD*%
D46*
%TO.C,C15*%
X246457200Y-108757730D03*
X247232200Y-110100070D03*
%TD*%
D39*
%TO.C,R15*%
X89611200Y-199911200D03*
X89611200Y-201561200D03*
%TD*%
D51*
%TO.C,P5*%
X118065068Y-109896000D03*
D17*
X120264773Y-108626000D03*
X122464477Y-107356000D03*
X124664182Y-106086000D03*
X126863886Y-104816000D03*
X129063591Y-103546000D03*
X131263295Y-102276000D03*
X133463000Y-101006000D03*
X135662705Y-99736000D03*
X137862409Y-98466000D03*
X140062114Y-97196000D03*
X142261818Y-95926000D03*
X144461523Y-94656000D03*
X146661227Y-93386000D03*
X148860932Y-92116000D03*
%TD*%
D23*
%TO.C,C26*%
X79652500Y-148762130D03*
X78877500Y-150104470D03*
%TD*%
D25*
%TO.C,U4*%
X255778000Y-288298000D03*
X255778000Y-287648000D03*
X255778000Y-286998000D03*
X255778000Y-286348000D03*
X255778000Y-285698000D03*
X255778000Y-285048000D03*
X255778000Y-284398000D03*
X255778000Y-283748000D03*
X255778000Y-283098000D03*
X255778000Y-282448000D03*
X250053000Y-282448000D03*
X250053000Y-283098000D03*
X250053000Y-283748000D03*
X250053000Y-284398000D03*
X250053000Y-285048000D03*
X250053000Y-285698000D03*
X250053000Y-286348000D03*
X250053000Y-286998000D03*
X250053000Y-287648000D03*
X250053000Y-288298000D03*
%TD*%
D52*
%TO.C,L11*%
X242882900Y-254966972D03*
X240057900Y-250073929D03*
%TD*%
D44*
%TO.C,C11*%
X277317200Y-153873800D03*
X277317200Y-152323800D03*
%TD*%
D16*
%TO.C,P4*%
X160020000Y-89126000D03*
D17*
X162560000Y-89126000D03*
X165100000Y-89126000D03*
X167640000Y-89126000D03*
X170180000Y-89126000D03*
X172720000Y-89126000D03*
X175260000Y-89126000D03*
X177800000Y-89126000D03*
X180340000Y-89126000D03*
X182880000Y-89126000D03*
X185420000Y-89126000D03*
X187960000Y-89126000D03*
X190500000Y-89126000D03*
X193040000Y-89126000D03*
X195580000Y-89126000D03*
%TD*%
D44*
%TO.C,C31*%
X85648800Y-201549000D03*
X85648800Y-199999000D03*
%TD*%
D53*
%TO.C,R1*%
X285703000Y-130708400D03*
X287528000Y-130708400D03*
%TD*%
D54*
%TO.C,R12*%
X112133829Y-111534400D03*
X113562771Y-110709400D03*
%TD*%
D18*
%TO.C,C20*%
X153873800Y-78282800D03*
X152323800Y-78282800D03*
%TD*%
D29*
%TO.C,C13*%
X269951200Y-154051000D03*
X269951200Y-155601000D03*
%TD*%
D36*
%TO.C,C42*%
X246842270Y-246457200D03*
X245499930Y-247232200D03*
%TD*%
D35*
%TO.C,U18*%
X188953400Y-285222200D03*
X189903400Y-285222200D03*
X190853400Y-285222200D03*
X190853400Y-282947200D03*
X188953400Y-282947200D03*
%TD*%
D55*
%TO.C,U8*%
X206261304Y-83625174D03*
X206736304Y-82802450D03*
X207211304Y-81979726D03*
X205241096Y-80842226D03*
X204766096Y-81664950D03*
X204291096Y-82487674D03*
%TD*%
D56*
%TO.C,R3*%
X265988800Y-155688800D03*
X265988800Y-154038800D03*
%TD*%
D57*
%TO.C,L12*%
X272746972Y-212087100D03*
X267853929Y-209262100D03*
%TD*%
D18*
%TO.C,C39*%
X203263800Y-271780000D03*
X201713800Y-271780000D03*
%TD*%
D15*
%TO.C,H5*%
X285750000Y-190500000D03*
%TD*%
D16*
%TO.C,P1*%
X266474000Y-160020000D03*
D17*
X266474000Y-162560000D03*
X266474000Y-165100000D03*
X266474000Y-167640000D03*
X266474000Y-170180000D03*
X266474000Y-172720000D03*
X266474000Y-175260000D03*
X266474000Y-177800000D03*
X266474000Y-180340000D03*
X266474000Y-182880000D03*
X266474000Y-185420000D03*
X266474000Y-187960000D03*
X266474000Y-190500000D03*
X266474000Y-193040000D03*
X266474000Y-195580000D03*
%TD*%
D58*
%TO.C,C44*%
X275947500Y-206837870D03*
X276722500Y-205495530D03*
%TD*%
D54*
%TO.C,R23*%
X241043229Y-243118100D03*
X242472171Y-242293100D03*
%TD*%
D59*
%TO.C,P6*%
X92116000Y-148860932D03*
D17*
X93386000Y-146661227D03*
X94656000Y-144461523D03*
X95926000Y-142261818D03*
X97196000Y-140062114D03*
X98466000Y-137862409D03*
X99736000Y-135662705D03*
X101006000Y-133463000D03*
X102276000Y-131263295D03*
X103546000Y-129063591D03*
X104816000Y-126863886D03*
X106086000Y-124664182D03*
X107356000Y-122464477D03*
X108626000Y-120264773D03*
X109896000Y-118065068D03*
%TD*%
D60*
%TO.C,U10*%
X110472904Y-106064374D03*
X109997904Y-105241650D03*
X109522904Y-104418926D03*
X107552696Y-105556426D03*
X108027696Y-106379150D03*
X108502696Y-107201874D03*
%TD*%
D56*
%TO.C,R16*%
X87579200Y-201535800D03*
X87579200Y-199885800D03*
%TD*%
D61*
%TO.C,P8*%
X109896000Y-237534932D03*
D17*
X108626000Y-235335227D03*
X107356000Y-233135523D03*
X106086000Y-230935818D03*
X104816000Y-228736114D03*
X103546000Y-226536409D03*
X102276000Y-224336705D03*
X101006000Y-222137000D03*
X99736000Y-219937295D03*
X98466000Y-217737591D03*
X97196000Y-215537886D03*
X95926000Y-213338182D03*
X94656000Y-211138477D03*
X93386000Y-208938773D03*
X92116000Y-206739068D03*
%TD*%
D58*
%TO.C,C27*%
X83679000Y-152862270D03*
X84454000Y-151519930D03*
%TD*%
D62*
%TO.C,R26*%
X267801400Y-202354629D03*
X266976400Y-203783571D03*
%TD*%
D50*
%TO.C,C34*%
X109869200Y-244442870D03*
X109094200Y-243100530D03*
%TD*%
D15*
%TO.C,H2*%
X279400000Y-76200000D03*
%TD*%
D18*
%TO.C,C4*%
X118288400Y-287731200D03*
X116738400Y-287731200D03*
%TD*%
D45*
%TO.C,C18*%
X202737730Y-83679000D03*
X204080070Y-84454000D03*
%TD*%
D12*
%TO.C,C7*%
X258635200Y-287680400D03*
X260185200Y-287680400D03*
%TD*%
D32*
%TO.C,R8*%
X202354629Y-87798600D03*
X203783571Y-88623600D03*
%TD*%
D50*
%TO.C,C33*%
X109142800Y-246842270D03*
X108367800Y-245499930D03*
%TD*%
D63*
%TO.C,R22*%
X201535800Y-268020800D03*
X199885800Y-268020800D03*
%TD*%
D64*
%TO.C,L4*%
X160020000Y-78430000D03*
X160020000Y-84080000D03*
%TD*%
D65*
%TO.C,U15*%
X200239200Y-273588400D03*
X200239200Y-274538400D03*
X200239200Y-275488400D03*
X202514200Y-275488400D03*
X202514200Y-274538400D03*
X202514200Y-273588400D03*
%TD*%
D37*
%TO.C,R18*%
X111534400Y-243466171D03*
X110709400Y-242037229D03*
%TD*%
D45*
%TO.C,C19*%
X203308330Y-86120200D03*
X204650670Y-86895200D03*
%TD*%
D27*
%TO.C,R11*%
X114556771Y-112481900D03*
X113127829Y-113306900D03*
%TD*%
D12*
%TO.C,C1*%
X106015500Y-287663000D03*
X107565500Y-287663000D03*
%TD*%
D66*
%TO.C,L9*%
X143512900Y-272746972D03*
X146337900Y-267853929D03*
%TD*%
D15*
%TO.C,H6*%
X285750000Y-266700000D03*
%TD*%
D67*
%TO.C,U7*%
X249535626Y-110472904D03*
X250358350Y-109997904D03*
X251181074Y-109522904D03*
X250043574Y-107552696D03*
X249220850Y-108027696D03*
X248398126Y-108502696D03*
%TD*%
D63*
%TO.C,R9*%
X155688800Y-89611200D03*
X154038800Y-89611200D03*
%TD*%
D68*
%TO.C,P2*%
X245704000Y-118065068D03*
D17*
X246974000Y-120264773D03*
X248244000Y-122464477D03*
X249514000Y-124664182D03*
X250784000Y-126863886D03*
X252054000Y-129063591D03*
X253324000Y-131263295D03*
X254594000Y-133463000D03*
X255864000Y-135662705D03*
X257134000Y-137862409D03*
X258404000Y-140062114D03*
X259674000Y-142261818D03*
X260944000Y-144461523D03*
X262214000Y-146661227D03*
X263484000Y-148860932D03*
%TD*%
D69*
%TO.C,L6*%
X82853028Y-143512900D03*
X87746071Y-146337900D03*
%TD*%
D70*
%TO.C,R14*%
X87798600Y-153245371D03*
X88623600Y-151816429D03*
%TD*%
D18*
%TO.C,C47*%
X191948400Y-287477200D03*
X190398400Y-287477200D03*
%TD*%
D62*
%TO.C,R13*%
X90370700Y-152854429D03*
X89545700Y-154283371D03*
%TD*%
D71*
%TO.C,J2*%
X282892500Y-249555000D03*
X284797500Y-248285000D03*
X282892500Y-247015000D03*
X284797500Y-245745000D03*
X282892500Y-244475000D03*
X284797500Y-243205000D03*
X282892500Y-241935000D03*
X284797500Y-240665000D03*
X282892500Y-239395000D03*
X284797500Y-238125000D03*
X282892500Y-236855000D03*
X284797500Y-235585000D03*
X282892500Y-234315000D03*
X284797500Y-233045000D03*
X282892500Y-231775000D03*
X284797500Y-230505000D03*
X282892500Y-229235000D03*
X284797500Y-227965000D03*
X282892500Y-226695000D03*
X284797500Y-225425000D03*
X282892500Y-224155000D03*
X284797500Y-222885000D03*
X282892500Y-221615000D03*
X284797500Y-220345000D03*
X282892500Y-219075000D03*
X284797500Y-217805000D03*
X282892500Y-216535000D03*
X284797500Y-215265000D03*
X282892500Y-213995000D03*
X284797500Y-212725000D03*
X282892500Y-211455000D03*
X284797500Y-210185000D03*
X282892500Y-208915000D03*
X284797500Y-207645000D03*
X286702500Y-249555000D03*
X288607500Y-248285000D03*
X286702500Y-247015000D03*
X288607500Y-245745000D03*
X286702500Y-244475000D03*
X288607500Y-243205000D03*
X286702500Y-241935000D03*
X288607500Y-240665000D03*
X286702500Y-239395000D03*
X288607500Y-238125000D03*
X286702500Y-236855000D03*
X288607500Y-235585000D03*
X286702500Y-234315000D03*
X288607500Y-233045000D03*
X286702500Y-231775000D03*
X288607500Y-230505000D03*
X286702500Y-229235000D03*
X288607500Y-227965000D03*
X286702500Y-226695000D03*
X288607500Y-225425000D03*
X286702500Y-224155000D03*
X288607500Y-222885000D03*
X286702500Y-221615000D03*
X288607500Y-220345000D03*
X286702500Y-219075000D03*
X288607500Y-217805000D03*
X286702500Y-216535000D03*
X288607500Y-215265000D03*
X286702500Y-213995000D03*
X288607500Y-212725000D03*
X286702500Y-211455000D03*
X288607500Y-210185000D03*
X286702500Y-208915000D03*
X288607500Y-207645000D03*
D72*
X285750000Y-257555000D03*
X285750000Y-199645000D03*
%TD*%
D58*
%TO.C,C28*%
X86120200Y-152291670D03*
X86895200Y-150949330D03*
%TD*%
D43*
%TO.C,R7*%
X202745571Y-90370700D03*
X201316629Y-89545700D03*
%TD*%
D73*
%TO.C,P3*%
X206739068Y-92116000D03*
D17*
X208938773Y-93386000D03*
X211138477Y-94656000D03*
X213338182Y-95926000D03*
X215537886Y-97196000D03*
X217737591Y-98466000D03*
X219937295Y-99736000D03*
X222137000Y-101006000D03*
X224336705Y-102276000D03*
X226536409Y-103546000D03*
X228736114Y-104816000D03*
X230935818Y-106086000D03*
X233135523Y-107356000D03*
X235335227Y-108626000D03*
X237534932Y-109896000D03*
%TD*%
D74*
%TO.C,U16*%
X245127096Y-249535626D03*
X245602096Y-250358350D03*
X246077096Y-251181074D03*
X248047304Y-250043574D03*
X247572304Y-249220850D03*
X247097304Y-248398126D03*
%TD*%
D25*
%TO.C,U5*%
X171421700Y-288426200D03*
X171421700Y-287776200D03*
X171421700Y-287126200D03*
X171421700Y-286476200D03*
X171421700Y-285826200D03*
X171421700Y-285176200D03*
X171421700Y-284526200D03*
X171421700Y-283876200D03*
X171421700Y-283226200D03*
X171421700Y-282576200D03*
X165696700Y-282576200D03*
X165696700Y-283226200D03*
X165696700Y-283876200D03*
X165696700Y-284526200D03*
X165696700Y-285176200D03*
X165696700Y-285826200D03*
X165696700Y-286476200D03*
X165696700Y-287126200D03*
X165696700Y-287776200D03*
X165696700Y-288426200D03*
%TD*%
D46*
%TO.C,C16*%
X245730800Y-111157130D03*
X246505800Y-112499470D03*
%TD*%
D75*
%TO.C,R2*%
X288544000Y-126493900D03*
X288544000Y-128318900D03*
%TD*%
D76*
%TO.C,L2*%
X254966972Y-112717100D03*
X250073929Y-115542100D03*
%TD*%
D77*
%TO.C,U17*%
X271974826Y-206261304D03*
X272797550Y-206736304D03*
X273620274Y-207211304D03*
X274757774Y-205241096D03*
X273935050Y-204766096D03*
X273112326Y-204291096D03*
%TD*%
D70*
%TO.C,R25*%
X265229300Y-202745571D03*
X266054300Y-201316629D03*
%TD*%
D41*
%TO.C,R17*%
X112481900Y-241043229D03*
X113306900Y-242472171D03*
%TD*%
M02*
