G04 ================== begin FILE IDENTIFICATION RECORD ==================*
G04 Layout Name:  Interconnect.brd*
G04 Film Name:    SolderMask_Top*
G04 File Format:  Gerber RS274X*
G04 File Origin:  Cadence Allegro 17.4-S007*
G04 Origin Date:  Wed Aug 19 21:03:55 2020*
G04 *
G04 Layer:  CAVITY/BOTTOM*
G04 Layer:  CAVITY/TOP*
G04 Layer:  PLAN/DENSITY_VERY_HIGH*
G04 Layer:  PLAN/DENSITY_HIGH*
G04 Layer:  PLAN/DENSITY_MEDIUM*
G04 Layer:  PLAN/DENSITY_LOW*
G04 Layer:  PLAN/DENSITY_VERY_LOW*
G04 Layer:  CONSTRAINT REGION/ALL*
G04 Layer:  CONSTRAINT REGION/OUTER_LAYERS*
G04 Layer:  CONSTRAINT REGION/INNER_SIGNAL_LAYERS*
G04 Layer:  CONSTRAINT REGION/INNER_PLANE_LAYERS*
G04 Layer:  CONSTRAINT REGION/BOTTOM*
G04 Layer:  CONSTRAINT REGION/TOP*
G04 Layer:  ANTI ETCH/BOTTOM*
G04 Layer:  ANTI ETCH/TOP*
G04 Layer:  VIA KEEPOUT/ALL*
G04 Layer:  VIA KEEPOUT/BOTTOM*
G04 Layer:  VIA KEEPOUT/TOP*
G04 Layer:  VIA CLASS/SOLDERMASK_TOP*
G04 Layer:  ROUTE KEEPOUT/ALL*
G04 Layer:  ROUTE KEEPOUT/BOTTOM*
G04 Layer:  ROUTE KEEPOUT/TOP*
G04 Layer:  ROUTE KEEPIN/ALL*
G04 Layer:  PIN/SOLDERMASK_TOP*
G04 Layer:  PACKAGE KEEPOUT/ALL*
G04 Layer:  PACKAGE KEEPOUT/TOP*
G04 Layer:  PACKAGE KEEPOUT/BOTTOM*
G04 Layer:  PACKAGE KEEPIN/ALL*
G04 Layer:  ANALYSIS/LOW_ISOCONTOUR*
G04 Layer:  ANALYSIS/MEDIUM1_ISOCONTOUR*
G04 Layer:  ANALYSIS/MEDIUM2_ISOCONTOUR*
G04 Layer:  ANALYSIS/MEDIUM3_ISOCONTOUR*
G04 Layer:  ANALYSIS/HIGH_ISOCONTOUR*
G04 Layer:  ANALYSIS/PCB_TEMPERATURE*
G04 Layer:  DRC ERROR CLASS/PACKAGE_TOP*
G04 Layer:  DRC ERROR CLASS/PACKAGE_BOTTOM*
G04 Layer:  DRC ERROR CLASS/SOLDERMASK_TOP*
G04 Layer:  BOARD GEOMETRY/OUTLINE*
G04 *
G04 Offset:    (0.000 0.000)*
G04 Mirror:    No*
G04 Mode:      Positive*
G04 Rotation:  0*
G04 FullContactRelief:  No*
G04 UndefLineWidth:     0.100*
G04 ================== end FILE IDENTIFICATION RECORD ====================*
%FSLAX26Y26*MOMM*%
%IR0*IPPOS*OFA0.00000B0.00000*MIA0B0*SFA1.00000B1.00000*%
%ADD11R,16.X3.*%
%ADD12C,1.5*%
%ADD20R,4.11X.73*%
%ADD17C,1.118*%
%ADD16C,1.524*%
%ADD10C,5.08*%
%ADD15R,1.524X1.524*%
%ADD13R,1.676X1.676*%
%ADD22R,5.X2.*%
%ADD18R,1.4X1.1*%
%ADD21R,2.X5.*%
%ADD14R,1.1X1.4*%
%ADD19C,.2*%
%ADD23C,.1*%
G75*
%LPD*%
G75*
G54D10*
X-17780000Y-55880000D03*
Y28000000D03*
X20352000Y-55968000D03*
Y28000000D03*
G54D20*
X11255000Y-29210000D03*
Y-27940000D03*
Y-26670000D03*
Y-25400000D03*
X15875000D03*
Y-26670000D03*
Y-27940000D03*
Y-29210000D03*
X11255000Y-24130000D03*
Y-22860000D03*
Y-21590000D03*
Y-20320000D03*
Y-19050000D03*
Y-17780000D03*
X15875000D03*
Y-19050000D03*
Y-20320000D03*
Y-21590000D03*
Y-22860000D03*
Y-24130000D03*
X11255000Y-16510000D03*
Y-15240000D03*
Y-13970000D03*
Y-12700000D03*
Y-11430000D03*
Y-10160000D03*
X15875000D03*
Y-11430000D03*
Y-12700000D03*
Y-13970000D03*
Y-15240000D03*
Y-16510000D03*
X11255000Y-8890000D03*
Y-7620000D03*
Y-6350000D03*
Y-5080000D03*
X15875000D03*
Y-6350000D03*
Y-7620000D03*
Y-8890000D03*
G54D11*
X-13970000Y-47360000D03*
Y10540000D03*
G54D21*
X17352000Y13674000D03*
X23352000D03*
G54D12*
X-15875000Y-39370000D03*
Y-36830000D03*
Y-34290000D03*
Y-31750000D03*
Y-29210000D03*
Y-26670000D03*
Y-24130000D03*
Y-21590000D03*
Y-19050000D03*
Y-16510000D03*
Y-13970000D03*
Y-11430000D03*
Y-8890000D03*
Y-6350000D03*
Y-3810000D03*
Y-1270000D03*
Y1270000D03*
X-13970000Y-38100000D03*
Y-35560000D03*
Y-33020000D03*
X-12065000Y-39370000D03*
X-10160000Y-38100000D03*
X-12065000Y-36830000D03*
X-10160000Y-35560000D03*
X-12065000Y-34290000D03*
X-10160000Y-33020000D03*
X-13970000Y-30480000D03*
Y-27940000D03*
Y-25400000D03*
X-12065000Y-31750000D03*
X-10160000Y-30480000D03*
X-12065000Y-29210000D03*
X-10160000Y-27940000D03*
X-12065000Y-26670000D03*
X-10160000Y-25400000D03*
X-13970000Y-22860000D03*
Y-20320000D03*
Y-17780000D03*
X-12065000Y-24130000D03*
X-10160000Y-22860000D03*
X-12065000Y-21590000D03*
X-10160000Y-20320000D03*
X-12065000Y-19050000D03*
X-10160000Y-17780000D03*
X-13970000Y-15240000D03*
Y-12700000D03*
Y-10160000D03*
X-12065000Y-16510000D03*
X-10160000Y-15240000D03*
X-12065000Y-13970000D03*
X-10160000Y-12700000D03*
X-12065000Y-11430000D03*
X-10160000Y-10160000D03*
X-13970000Y-7620000D03*
Y-5080000D03*
Y-2540000D03*
X-12065000Y-8890000D03*
X-10160000Y-7620000D03*
X-12065000Y-6350000D03*
X-10160000Y-5080000D03*
X-12065000Y-3810000D03*
X-10160000Y-2540000D03*
X-13970000Y0D03*
Y2540000D03*
X-12065000Y-1270000D03*
X-10160000Y0D03*
X-12065000Y1270000D03*
X-10160000Y2540000D03*
G54D22*
X20352000Y18374000D03*
G54D13*
X-21049000Y18762000D03*
X-17747000D03*
G54D23*
G01X-22260000Y-59148000D02*
Y32118000D01*
X25440000D01*
Y-59148000D01*
X-22260000D01*
G54D14*
X-19034000Y16218000D03*
X-21034000D03*
G54D15*
X-16536000Y23214000D03*
G54D16*
X-8916000D03*
X-11456000D03*
X-13996000D03*
X-1296000D03*
X-3836000D03*
X-6376000D03*
X6324000D03*
X3784000D03*
X1244000D03*
X13944000D03*
X11404000D03*
X8864000D03*
X19024000D03*
X16484000D03*
G54D17*
X-1612000Y-13970000D03*
X-2590000Y18080000D03*
X4452000Y-34290000D03*
X5088000Y-35560000D03*
X3816000Y-33020000D03*
X5770000Y-29210000D03*
X5768000Y-27940000D03*
X3180000Y-31800000D03*
X9168000Y-34290000D03*
X8586000Y-35298000D03*
X9806000Y-33020000D03*
X7620000Y-25400000D03*
Y-26670000D03*
X10494000Y-31800000D03*
X7620000Y-21590000D03*
Y-17780000D03*
Y-24130000D03*
Y-22860000D03*
Y-20320000D03*
Y-19050000D03*
Y-16510000D03*
Y-12700000D03*
Y-15240000D03*
Y-11430000D03*
Y-13970000D03*
Y-10160000D03*
Y-7620000D03*
Y-8890000D03*
Y-6350000D03*
Y-5080000D03*
X19040000Y-25400000D03*
X18716000Y-29210000D03*
X18402000Y-26670000D03*
X19998000Y-22860000D03*
X20636000Y-21590000D03*
X19360000Y-24130000D03*
X21274000Y-20320000D03*
X21912000Y-19050000D03*
X22550000Y-17780000D03*
X19510000Y-12700000D03*
X23826000Y-15240000D03*
X24464000Y-13970000D03*
X23188000Y-16510000D03*
G54D18*
X-3816000Y20080000D03*
Y18080000D03*
G54D19*
X13565000Y-30750000D03*
Y-3520000D03*
M02*
