G04 ================== begin FILE IDENTIFICATION RECORD ==================*
G04 Layout Name:  Interconnect.brd*
G04 Film Name:    TOP*
G04 File Format:  Gerber RS274X*
G04 File Origin:  Cadence Allegro 17.4-S007*
G04 Origin Date:  Wed Aug 19 21:03:55 2020*
G04 *
G04 Layer:  VIA KEEPOUT/ALL*
G04 Layer:  VIA KEEPOUT/BOTTOM*
G04 Layer:  VIA KEEPOUT/TOP*
G04 Layer:  VIA CLASS/TOP*
G04 Layer:  ROUTE KEEPOUT/ALL*
G04 Layer:  ROUTE KEEPOUT/BOTTOM*
G04 Layer:  ROUTE KEEPOUT/TOP*
G04 Layer:  ROUTE KEEPIN/ALL*
G04 Layer:  PIN/TOP*
G04 Layer:  PACKAGE KEEPOUT/ALL*
G04 Layer:  PACKAGE KEEPOUT/TOP*
G04 Layer:  PACKAGE KEEPOUT/BOTTOM*
G04 Layer:  PACKAGE KEEPIN/ALL*
G04 Layer:  ANALYSIS/LOW_ISOCONTOUR*
G04 Layer:  ANALYSIS/MEDIUM1_ISOCONTOUR*
G04 Layer:  ANALYSIS/MEDIUM2_ISOCONTOUR*
G04 Layer:  ANALYSIS/MEDIUM3_ISOCONTOUR*
G04 Layer:  ANALYSIS/HIGH_ISOCONTOUR*
G04 Layer:  ANALYSIS/PCB_TEMPERATURE*
G04 Layer:  ETCH/TOP*
G04 Layer:  BOARD GEOMETRY/OUTLINE*
G04 *
G04 Offset:    (0.000 0.000)*
G04 Mirror:    No*
G04 Mode:      Positive*
G04 Rotation:  0*
G04 FullContactRelief:  No*
G04 UndefLineWidth:     0.100*
G04 ================== end FILE IDENTIFICATION RECORD ====================*
%FSLAX26Y26*MOMM*%
%IR0*IPPOS*OFA0.00000B0.00000*MIA0B0*SFA1.00000B1.00000*%
%ADD11R,16.X3.*%
%ADD12C,1.5*%
%ADD19R,4.11X.73*%
%ADD15C,1.524*%
%ADD10C,5.08*%
%ADD13R,1.524X1.524*%
%ADD21R,5.X2.*%
%ADD17R,1.4X1.1*%
%ADD20R,2.X5.*%
%ADD14R,1.1X1.4*%
%ADD18C,.2*%
%ADD16C,.61*%
%ADD22C,.1*%
%ADD23C,.127*%
%ADD28C,1.782*%
%ADD27C,5.338*%
%ADD24C,1.758*%
%ADD30R,4.368X.988*%
%ADD29C,.61*%
%ADD26R,1.782X1.782*%
%ADD32R,2.258X5.258*%
%ADD31R,5.258X2.258*%
%ADD25R,1.358X1.658*%
G75*
%LPD*%
G75*
G36*
G01X-21942000Y-58512000D02*
Y-48989000D01*
X-5841000D01*
Y-45731000D01*
X-21942000D01*
Y8911000D01*
X-5841000D01*
Y12169000D01*
X-21942000D01*
Y17871000D01*
X-21278000D01*
Y17677000D01*
X-21263000Y17662000D01*
Y17047000D01*
X-21713000D01*
Y15389000D01*
X-21263000D01*
Y14579000D01*
X-20129000Y13445000D01*
X16223000D01*
Y11045000D01*
X18481000D01*
Y16303000D01*
X16223000D01*
Y13903000D01*
X-19939000D01*
X-20805000Y14769000D01*
Y15389000D01*
X-20355000D01*
Y17047000D01*
X-20805000D01*
Y17871000D01*
X-20158000D01*
Y19653000D01*
X-20820000D01*
Y21468000D01*
X-19303000Y22985000D01*
X-17427000D01*
Y22323000D01*
X-15645000D01*
Y24105000D01*
X-17427000D01*
Y23443000D01*
X-19493000D01*
X-21278000Y21658000D01*
Y19653000D01*
X-21942000D01*
Y31800000D01*
X25122000D01*
Y-58512000D01*
X21661000D01*
G02X21613000Y-58320000I259J102065D01*
G03X19091000I-1261000J2352000D01*
G02X19043000Y-58512000I-48259J-89935D01*
G01X-16650000D01*
G02X-16691000Y-58317000I357J101885D01*
G03X-18869000I-1089000J2437000D01*
G02X-18910000Y-58512000I-41357J-93115D01*
G01X-21942000D01*
G37*
%LPC*%
G75*
G36*
G01X-4029000Y22181000D02*
Y22343000D01*
X-4067000Y22353000D01*
G02X-3586000Y22359000I229798J860943D01*
G01X-3623000Y22348000D01*
Y20759000D01*
X-2987000D01*
Y19401000D01*
X-4645000D01*
Y20759000D01*
X-4009000D01*
Y22161000D01*
X-4029000Y22181000D01*
G37*
G36*
G01X-2987000Y17633000D02*
Y17401000D01*
X-4645000D01*
Y18759000D01*
X-2987000D01*
Y18527000D01*
G03X-2829000Y18442000I102042J331D01*
G02Y17718000I239000J-362000D01*
G03X-2987000Y17633000I-55958J-85331D01*
G37*
G36*
G01X13439000Y-4586000D02*
Y-5574000D01*
X9071000D01*
Y-5273000D01*
X8009000D01*
G02Y-4887000I-389000J193000D01*
G01X9071000D01*
Y-4586000D01*
X13439000D01*
G37*
G36*
G01Y-5856000D02*
Y-6844000D01*
X9071000D01*
Y-6543000D01*
X8009000D01*
G02Y-6157000I-389000J193000D01*
G01X9071000D01*
Y-5856000D01*
X13439000D01*
G37*
G36*
G01Y-7126000D02*
Y-8114000D01*
X9071000D01*
Y-7813000D01*
X8009000D01*
G02Y-7427000I-389000J193000D01*
G01X9071000D01*
Y-7126000D01*
X13439000D01*
G37*
G36*
G01Y-8396000D02*
Y-9384000D01*
X9071000D01*
Y-9083000D01*
X8009000D01*
G02Y-8697000I-389000J193000D01*
G01X9071000D01*
Y-8396000D01*
X13439000D01*
G37*
G36*
G01Y-10936000D02*
Y-11924000D01*
X9071000D01*
Y-11623000D01*
X8009000D01*
G02Y-11237000I-389000J193000D01*
G01X9071000D01*
Y-10936000D01*
X13439000D01*
G37*
G36*
G01X18059000Y-14163000D02*
Y-14464000D01*
X13691000D01*
Y-13476000D01*
X18059000D01*
Y-13777000D01*
X24075000D01*
G02Y-14163000I389000J-193000D01*
G01X18059000D01*
G37*
G36*
G01X13439000Y-13476000D02*
Y-14464000D01*
X9071000D01*
Y-14163000D01*
X8009000D01*
G02X7231000I-389000J193000D01*
G01X-1223000D01*
G02Y-13777000I-389000J193000D01*
G01X7231000D01*
G02X8009000I389000J-193000D01*
G01X9071000D01*
Y-13476000D01*
X13439000D01*
G37*
G36*
G01X18059000Y-15433000D02*
Y-15734000D01*
X13691000D01*
Y-14746000D01*
X18059000D01*
Y-15047000D01*
X23437000D01*
G02Y-15433000I389000J-193000D01*
G01X18059000D01*
G37*
G36*
G01Y-16703000D02*
Y-17004000D01*
X13691000D01*
Y-16016000D01*
X18059000D01*
Y-16317000D01*
X22799000D01*
G02Y-16703000I389000J-193000D01*
G01X18059000D01*
G37*
G36*
G01X13439000Y-16016000D02*
Y-17004000D01*
X9071000D01*
Y-16703000D01*
X8009000D01*
G02Y-16317000I-389000J193000D01*
G01X9071000D01*
Y-16016000D01*
X13439000D01*
G37*
G36*
G01X18059000Y-17973000D02*
Y-18274000D01*
X13691000D01*
Y-17286000D01*
X18059000D01*
Y-17587000D01*
X22161000D01*
G02Y-17973000I389000J-193000D01*
G01X18059000D01*
G37*
G36*
G01X13439000Y-17286000D02*
Y-18274000D01*
X9071000D01*
Y-17973000D01*
X8009000D01*
G02Y-17587000I-389000J193000D01*
G01X9071000D01*
Y-17286000D01*
X13439000D01*
G37*
G36*
G01X-11924000Y-17973000D02*
X-13112000D01*
X-13122000Y-18011000D01*
G02Y-17549000I-848000J231000D01*
G01X-13112000Y-17587000D01*
X-12084000D01*
X-12058000Y-17561000D01*
G03X-12123000Y-17387000I-71971J72255D01*
G02X-11192000Y-16409000I57909J877003D01*
G03X-11018000Y-16469000I101351J11619D01*
G01X-10891000Y-16342000D01*
G03X-10835000Y-16169000I-16090J100772D01*
G01X-11294000Y-15710000D01*
Y-15691000D01*
X-11552000Y-15433000D01*
X-13112000D01*
X-13122000Y-15471000D01*
G02Y-15009000I-848000J231000D01*
G01X-13112000Y-15047000D01*
X-11392000D01*
X-11210000Y-15229000D01*
G03X-11036000Y-15166000I72454J71675D01*
G02X-9305000Y-15443000I875865J-73726D01*
G03X-9133000Y-15538000I99316J-23391D01*
G01X-8779000Y-15184000D01*
Y3896000D01*
X-3896000Y8779000D01*
X20750000D01*
X24679000Y4850000D01*
Y-9938000D01*
X22994000Y-11623000D01*
X18059000D01*
Y-11924000D01*
X13691000D01*
Y-10936000D01*
X18059000D01*
Y-11237000D01*
X22834000D01*
X24293000Y-9778000D01*
Y4690000D01*
X20590000Y8393000D01*
X-3736000D01*
X-8393000Y3736000D01*
Y-15344000D01*
X-9218000Y-16169000D01*
G03X-9146000Y-16343000I72142J-72045D01*
G01X-8666000D01*
X-8143000Y-15820000D01*
Y3578000D01*
X-3578000Y8143000D01*
X20432000D01*
X24043000Y4532000D01*
Y-8666000D01*
X22356000Y-10353000D01*
X18059000D01*
Y-10654000D01*
X13691000D01*
Y-9666000D01*
X18059000D01*
Y-9967000D01*
X22196000D01*
X23657000Y-8506000D01*
Y4372000D01*
X20272000Y7757000D01*
X-3418000D01*
X-7757000Y3418000D01*
Y-15980000D01*
X-8506000Y-16729000D01*
X-10732000D01*
X-10931000Y-16928000D01*
Y-16980000D01*
X-11924000Y-17973000D01*
G37*
G36*
G01X18059000Y-19243000D02*
Y-19544000D01*
X13691000D01*
Y-18556000D01*
X18059000D01*
Y-18857000D01*
X21523000D01*
G02Y-19243000I389000J-193000D01*
G01X18059000D01*
G37*
G36*
G01X13439000Y-18556000D02*
Y-19544000D01*
X9071000D01*
Y-19243000D01*
X8009000D01*
G02Y-18857000I-389000J193000D01*
G01X9071000D01*
Y-18556000D01*
X13439000D01*
G37*
G36*
G01X18059000Y-20513000D02*
Y-20814000D01*
X13691000D01*
Y-19826000D01*
X18059000D01*
Y-20127000D01*
X20885000D01*
G02Y-20513000I389000J-193000D01*
G01X18059000D01*
G37*
G36*
G01X13439000Y-19826000D02*
Y-20814000D01*
X9071000D01*
Y-20513000D01*
X8009000D01*
G02Y-20127000I-389000J193000D01*
G01X9071000D01*
Y-19826000D01*
X13439000D01*
G37*
G36*
G01X18059000Y-21783000D02*
Y-22084000D01*
X13691000D01*
Y-21096000D01*
X18059000D01*
Y-21397000D01*
X20247000D01*
G02Y-21783000I389000J-193000D01*
G01X18059000D01*
G37*
G36*
G01X13439000Y-21096000D02*
Y-22084000D01*
X9071000D01*
Y-21783000D01*
X8009000D01*
G02Y-21397000I-389000J193000D01*
G01X9071000D01*
Y-21096000D01*
X13439000D01*
G37*
G36*
G01X18059000Y-23053000D02*
Y-23354000D01*
X13691000D01*
Y-22366000D01*
X18059000D01*
Y-22667000D01*
X19609000D01*
G02Y-23053000I389000J-193000D01*
G01X18059000D01*
G37*
G36*
G01X13439000Y-22366000D02*
Y-23354000D01*
X9071000D01*
Y-23053000D01*
X8009000D01*
G02Y-22667000I-389000J193000D01*
G01X9071000D01*
Y-22366000D01*
X13439000D01*
G37*
G36*
G01X18059000Y-24323000D02*
Y-24624000D01*
X13691000D01*
Y-23636000D01*
X18059000D01*
Y-23937000D01*
X18971000D01*
G02Y-24323000I389000J-193000D01*
G01X18059000D01*
G37*
G36*
G01X13439000Y-23636000D02*
Y-24624000D01*
X9071000D01*
Y-24323000D01*
X8009000D01*
G02Y-23937000I-389000J193000D01*
G01X9071000D01*
Y-23636000D01*
X13439000D01*
G37*
G36*
G01X18059000Y-25593000D02*
Y-25894000D01*
X13691000D01*
Y-24906000D01*
X18059000D01*
Y-25207000D01*
X18651000D01*
G02Y-25593000I389000J-193000D01*
G01X18059000D01*
G37*
G36*
G01X13439000Y-24906000D02*
Y-25894000D01*
X9071000D01*
Y-25593000D01*
X8009000D01*
G02Y-25207000I-389000J193000D01*
G01X9071000D01*
Y-24906000D01*
X13439000D01*
G37*
G36*
G01X18059000Y-27149000D02*
Y-27164000D01*
X13691000D01*
Y-26176000D01*
X18059000D01*
Y-26191000D01*
G03X18207000Y-26282000I101887J-145D01*
G02Y-27058000I195000J-388000D01*
G03X18059000Y-27149000I-46113J-90855D01*
G37*
G36*
G01X10105000Y-31993000D02*
X3569000D01*
G02Y-31607000I-389000J193000D01*
G01X10105000D01*
G02Y-31993000I389000J-193000D01*
G37*
G36*
G01X9417000Y-33213000D02*
X4205000D01*
G02Y-32827000I-389000J193000D01*
G01X9417000D01*
G02Y-33213000I389000J-193000D01*
G37*
G36*
G01X8779000Y-34483000D02*
X4841000D01*
G02Y-34097000I-389000J193000D01*
G01X8779000D01*
G02Y-34483000I389000J-193000D01*
G37*
G36*
G01X8404000Y-35753000D02*
X5477000D01*
G02Y-35367000I-389000J193000D01*
G01X8051000D01*
G03X8153000Y-35271000I156J102022D01*
G02X8475000Y-35718000I433221J-27403D01*
G01X8447000Y-35710000D01*
X8404000Y-35753000D01*
G37*
G36*
G01X-11207000Y-36637000D02*
X-5745000D01*
X-4963000Y-35855000D01*
Y-10732000D01*
X-4198000Y-9967000D01*
X7231000D01*
G02X8009000I389000J-193000D01*
G01X9071000D01*
Y-9666000D01*
X13439000D01*
Y-10654000D01*
X9071000D01*
Y-10353000D01*
X8009000D01*
G02X7231000I-389000J193000D01*
G01X-4038000D01*
X-4577000Y-10892000D01*
Y-36015000D01*
X-5585000Y-37023000D01*
X-11207000D01*
X-11217000Y-37061000D01*
G02Y-36599000I-848000J231000D01*
G01X-11207000Y-36637000D01*
G37*
G36*
G01X7231000Y-26863000D02*
X1394000D01*
X193000Y-28064000D01*
Y-38240000D01*
X-1130000Y-39563000D01*
X-11207000D01*
X-11217000Y-39601000D01*
G02Y-39139000I-848000J231000D01*
G01X-11207000Y-39177000D01*
X-1290000D01*
X-193000Y-38080000D01*
Y-27904000D01*
X1234000Y-26477000D01*
X7231000D01*
G02X8009000I389000J-193000D01*
G01X9071000D01*
Y-26176000D01*
X13439000D01*
Y-27164000D01*
X9071000D01*
Y-26863000D01*
X8009000D01*
G02X7231000I-389000J193000D01*
G37*
G36*
G01X-13122000Y-25633000D02*
X-13133000Y-25668000D01*
G02X-13122000Y-25169000I-837040J268073D01*
G01X-13112000Y-25207000D01*
X-12949000D01*
X-12909000Y-25247000D01*
X-11846000D01*
X-11752000Y-25153000D01*
G03X-11849000Y-24982000I-72090J72119D01*
G02X-11213000Y-24346000I-216000J852000D01*
G03X-11042000Y-24443000I98881J-24910D01*
G01X-10445000Y-23846000D01*
G03X-10480000Y-23679000I-71961J72086D01*
G02X-11030000Y-22982000I320510J818414D01*
G03X-11204000Y-22924000I-101375J-14124D01*
G01X-11332000Y-23053000D01*
X-13112000D01*
X-13122000Y-23091000D01*
G02Y-22629000I-848000J231000D01*
G01X-13112000Y-22667000D01*
X-11492000D01*
X-11294000Y-22469000D01*
Y-22390000D01*
X-10262000Y-21358000D01*
G03X-10316000Y-21185000I-71641J72566D01*
G02X-11031000Y-20439000I155912J865078D01*
G03X-11204000Y-20381000I-100946J-14090D01*
G01X-11336000Y-20513000D01*
X-13112000D01*
X-13122000Y-20551000D01*
G02Y-20089000I-848000J231000D01*
G01X-13112000Y-20127000D01*
X-11496000D01*
X-11294000Y-19925000D01*
Y-19850000D01*
X-10630000Y-19186000D01*
X-8329000D01*
X-7507000Y-18364000D01*
Y2942000D01*
X-2942000Y7507000D01*
X20114000D01*
X23407000Y4214000D01*
Y-7076000D01*
X21400000Y-9083000D01*
X18059000D01*
Y-9384000D01*
X13691000D01*
Y-8396000D01*
X18059000D01*
Y-8697000D01*
X21240000D01*
X23021000Y-6916000D01*
Y4054000D01*
X19954000Y7121000D01*
X-2782000D01*
X-7121000Y2782000D01*
Y-18524000D01*
X-8169000Y-19572000D01*
X-9422000D01*
G03X-9499000Y-19741000I41J-102060D01*
G02X-9536000Y-20939000I-661080J-579154D01*
G03X-9464000Y-21113000I72222J-72012D01*
G01X-8348000D01*
X-6871000Y-19636000D01*
Y2306000D01*
X-2306000Y6871000D01*
X19796000D01*
X22771000Y3896000D01*
Y-6122000D01*
X21080000Y-7813000D01*
X18059000D01*
Y-8114000D01*
X13691000D01*
Y-7126000D01*
X18059000D01*
Y-7427000D01*
X20920000D01*
X22385000Y-5962000D01*
Y3736000D01*
X19636000Y6485000D01*
X-2146000D01*
X-6485000Y2146000D01*
Y-19796000D01*
X-8188000Y-21499000D01*
X-9857000D01*
X-10167000Y-21809000D01*
G03X-10102000Y-21983000I71971J-72255D01*
G02X-9540000Y-23483000I-58052J-877032D01*
G03X-9468000Y-23657000I72226J-72010D01*
G01X-8030000D01*
X-6235000Y-21862000D01*
Y1670000D01*
X-1670000Y6235000D01*
X19160000D01*
X22135000Y3260000D01*
Y-5168000D01*
X20760000Y-6543000D01*
X18059000D01*
Y-6844000D01*
X13691000D01*
Y-5856000D01*
X18059000D01*
Y-6157000D01*
X20600000D01*
X21749000Y-5008000D01*
Y3100000D01*
X19000000Y5849000D01*
X-1510000D01*
X-5849000Y1510000D01*
Y-22022000D01*
X-7870000Y-24043000D01*
X-10096000D01*
X-10418000Y-24365000D01*
G03X-10326000Y-24537000I72383J-71888D01*
G02X-11023000Y-25234000I166000J-863000D01*
G03X-11195000Y-25142000I-100112J19617D01*
G01X-11686000Y-25633000D01*
X-13122000D01*
G37*
G36*
G01X-13123000Y-28177000D02*
X-13134000Y-28212000D01*
G02X-13122000Y-27709000I-836004J271588D01*
G01X-13112000Y-27747000D01*
X-12949000D01*
X-12905000Y-27791000D01*
X-11846000D01*
X-11747000Y-27692000D01*
G03X-11844000Y-27521000I-71791J72288D01*
G02X-11214000Y-26891000I-221000J851000D01*
G03X-11043000Y-26988000I98712J-25209D01*
G01X-10574000Y-26519000D01*
X-7394000D01*
X-5599000Y-24724000D01*
Y1034000D01*
X-1034000Y5599000D01*
X18842000D01*
X21499000Y2942000D01*
Y-4532000D01*
X20758000Y-5273000D01*
X18059000D01*
Y-5574000D01*
X13691000D01*
Y-4586000D01*
X18059000D01*
Y-4887000D01*
X20598000D01*
X21113000Y-4372000D01*
Y2782000D01*
X18682000Y5213000D01*
X-874000D01*
X-5213000Y874000D01*
Y-24884000D01*
X-7234000Y-26905000D01*
X-10414000D01*
X-10591000Y-27082000D01*
X-10531000Y-27142000D01*
X-10499000Y-27129000D01*
G02X-11024000Y-27778000I338955J-811039D01*
G03X-11196000Y-27687000I-100222J18619D01*
G01X-11686000Y-28177000D01*
X-13123000D01*
G37*
G36*
G01X-16723000Y-16279000D02*
G02Y-16741000I848000J-231000D01*
G01X-16733000Y-16703000D01*
X-18339000D01*
X-19523000Y-17887000D01*
Y-41578000D01*
X-18046000Y-43055000D01*
X15184000D01*
X20159000Y-38080000D01*
Y-29654000D01*
X18638000Y-28133000D01*
X18059000D01*
Y-28434000D01*
X13691000D01*
Y-27446000D01*
X18059000D01*
Y-27747000D01*
X18798000D01*
X20545000Y-29494000D01*
Y-38240000D01*
X15344000Y-43441000D01*
X-18206000D01*
X-19909000Y-41738000D01*
Y-17727000D01*
X-18499000Y-16317000D01*
X-16733000D01*
X-16723000Y-16279000D01*
G37*
G36*
G01X19273000Y-37286000D02*
X14708000Y-41851000D01*
X-14708000D01*
X-16068000Y-40491000D01*
Y-40228000D01*
X-16106000Y-40218000D01*
G02X-15644000I231000J848000D01*
G01X-15682000Y-40228000D01*
Y-40331000D01*
X-14548000Y-41465000D01*
X14548000D01*
X18887000Y-37126000D01*
Y-30805000D01*
X17786000Y-29704000D01*
X13691000D01*
Y-28716000D01*
X18059000D01*
Y-28981000D01*
X18347000D01*
G02X18362000Y-29461000I368943J-228705D01*
G01X18346000Y-29439000D01*
X18313000D01*
G03X18241000Y-29613000I174J-101969D01*
G01X19273000Y-30645000D01*
Y-37286000D01*
G37*
G54D28*
X-8916000Y23214000D03*
X-11456000D03*
X-13996000D03*
X-1296000D03*
X-6376000D03*
X6324000D03*
X3784000D03*
X1244000D03*
X13944000D03*
X11404000D03*
X8864000D03*
X19024000D03*
X16484000D03*
G54D27*
X-17780000Y28000000D03*
X20352000D03*
G54D24*
X-15875000Y-36830000D03*
Y-34290000D03*
Y-31750000D03*
Y-29210000D03*
Y-26670000D03*
Y-24130000D03*
Y-21590000D03*
Y-19050000D03*
Y-13970000D03*
Y-11430000D03*
Y-8890000D03*
Y-6350000D03*
Y-3810000D03*
Y-1270000D03*
Y1270000D03*
X-13970000Y-38100000D03*
Y-35560000D03*
Y-33020000D03*
X-10160000Y-38100000D03*
Y-35560000D03*
X-12065000Y-34290000D03*
X-10160000Y-33020000D03*
X-13970000Y-30480000D03*
X-12065000Y-31750000D03*
X-10160000Y-30480000D03*
X-12065000Y-29210000D03*
Y-21590000D03*
Y-19050000D03*
X-10160000Y-17780000D03*
X-13970000Y-12700000D03*
Y-10160000D03*
X-12065000Y-13970000D03*
X-10160000Y-12700000D03*
X-12065000Y-11430000D03*
X-10160000Y-10160000D03*
Y-7620000D03*
X-12065000Y-6350000D03*
X-10160000Y-5080000D03*
X-12065000Y-3810000D03*
X-10160000Y-2540000D03*
X-13970000Y-7620000D03*
Y-5080000D03*
Y-2540000D03*
X-12065000Y-8890000D03*
Y-1270000D03*
X-13970000Y0D03*
Y2540000D03*
X-10160000Y0D03*
X-12065000Y1270000D03*
X-10160000Y2540000D03*
G54D30*
X11255000Y-29210000D03*
Y-27940000D03*
Y-15240000D03*
Y-12700000D03*
X15875000D03*
G54D29*
X13565000Y-30750000D03*
Y-3520000D03*
G54D26*
X-17747000Y18762000D03*
G54D32*
X23352000Y13674000D03*
G54D31*
X20352000Y18374000D03*
G54D25*
X-19034000Y16218000D03*
%LPD*%
G75*
G54D10*
X-17780000Y-55880000D03*
Y28000000D03*
X20352000Y-55968000D03*
Y28000000D03*
G54D20*
X17352000Y13674000D03*
X23352000D03*
G54D11*
X-13970000Y-47360000D03*
Y10540000D03*
G54D21*
X20352000Y18374000D03*
G54D12*
X-15875000Y-39370000D03*
Y-36830000D03*
Y-34290000D03*
Y-31750000D03*
Y-29210000D03*
Y-26670000D03*
Y-24130000D03*
Y-21590000D03*
Y-19050000D03*
Y-16510000D03*
Y-13970000D03*
Y-11430000D03*
Y-8890000D03*
Y-6350000D03*
Y-3810000D03*
Y-1270000D03*
Y1270000D03*
X-13970000Y-38100000D03*
Y-35560000D03*
Y-33020000D03*
X-12065000Y-39370000D03*
X-10160000Y-38100000D03*
X-12065000Y-36830000D03*
X-10160000Y-35560000D03*
X-12065000Y-34290000D03*
X-10160000Y-33020000D03*
X-13970000Y-30480000D03*
Y-27940000D03*
Y-25400000D03*
X-12065000Y-31750000D03*
X-10160000Y-30480000D03*
X-12065000Y-29210000D03*
X-10160000Y-27940000D03*
X-12065000Y-26670000D03*
X-10160000Y-25400000D03*
X-13970000Y-22860000D03*
Y-20320000D03*
Y-17780000D03*
X-12065000Y-24130000D03*
X-10160000Y-22860000D03*
X-12065000Y-21590000D03*
X-10160000Y-20320000D03*
X-12065000Y-19050000D03*
X-10160000Y-17780000D03*
X-13970000Y-15240000D03*
Y-12700000D03*
Y-10160000D03*
X-12065000Y-16510000D03*
X-10160000Y-15240000D03*
X-12065000Y-13970000D03*
X-10160000Y-12700000D03*
X-12065000Y-11430000D03*
X-10160000Y-10160000D03*
X-13970000Y-7620000D03*
Y-5080000D03*
Y-2540000D03*
X-12065000Y-8890000D03*
X-10160000Y-7620000D03*
X-12065000Y-6350000D03*
X-10160000Y-5080000D03*
X-12065000Y-3810000D03*
X-10160000Y-2540000D03*
X-13970000Y0D03*
Y2540000D03*
X-12065000Y-1270000D03*
X-10160000Y0D03*
X-12065000Y1270000D03*
X-10160000Y2540000D03*
G54D22*
G01X-22260000Y-59148000D02*
Y32118000D01*
X25440000D01*
Y-59148000D01*
X-22260000D01*
G54D13*
X-21049000Y18762000D03*
X-17747000D03*
X-16536000Y23214000D03*
G54D23*
G01X-17780000Y-55880000D02*
Y-53160000D01*
G01X-20500000Y-55880000D02*
X-17780000D01*
G01D02*
X-15060000D01*
G01X15875000Y-27940000D02*
X18718000D01*
X20352000Y-29574000D01*
Y-38160000D01*
X15264000Y-43248000D01*
X-18126000D01*
X-19716000Y-41658000D01*
Y-17807000D01*
X-18419000Y-16510000D01*
X-15875000D01*
G01X-17747000Y17820000D02*
Y18762000D01*
G01D02*
Y19704000D01*
G01X-18689000Y18762000D02*
X-17747000D01*
G01X-19034000Y15338000D02*
Y16218000D01*
G01X-19764000D02*
X-19034000D01*
G01X-17780000Y25280000D02*
Y28000000D01*
G01D02*
Y30720000D01*
G01X-20500000Y28000000D02*
X-17780000D01*
G01D02*
X-15060000D01*
G01X-13970000Y-49040000D02*
Y-47360000D01*
G01D02*
Y-45680000D01*
G01Y-47360000D02*
X-5790000D01*
G01X-15875000Y-39370000D02*
Y-40411000D01*
X-14628000Y-41658000D01*
X14628000D01*
X19080000Y-37206000D01*
Y-30725000D01*
X17565000Y-29210000D01*
G01X-12065000Y-39370000D02*
X-1210000D01*
X0Y-38160000D01*
Y-27984000D01*
X1314000Y-26670000D01*
X7620000D01*
G01X-12065000Y-36830000D02*
X-5665000D01*
X-4770000Y-35935000D01*
Y-10812000D01*
X-4118000Y-10160000D01*
X7620000D01*
G01X15875000Y-6350000D02*
X20680000D01*
X21942000Y-5088000D01*
Y3180000D01*
X19080000Y6042000D01*
X-1590000D01*
X-6042000Y1590000D01*
Y-21942000D01*
X-7950000Y-23850000D01*
X-10176000D01*
X-11766000Y-25440000D01*
X-12989000D01*
X-13029000Y-25400000D01*
X-13970000D01*
G01X15875000Y-5080000D02*
X20678000D01*
X21306000Y-4452000D01*
Y2862000D01*
X18762000Y5406000D01*
X-954000D01*
X-5406000Y954000D01*
Y-24804000D01*
X-7314000Y-26712000D01*
X-10494000D01*
X-11766000Y-27984000D01*
X-12985000D01*
X-13029000Y-27940000D01*
X-13970000D01*
G01X15875000Y-10160000D02*
X22276000D01*
X23850000Y-8586000D01*
Y4452000D01*
X20352000Y7950000D01*
X-3498000D01*
X-7950000Y3498000D01*
Y-15900000D01*
X-8586000Y-16536000D01*
X-10812000D01*
X-11124000Y-16848000D01*
Y-16900000D01*
X-12004000Y-17780000D01*
X-13970000D01*
G01X15875000Y-8890000D02*
X21320000D01*
X23214000Y-6996000D01*
Y4134000D01*
X20034000Y7314000D01*
X-2862000D01*
X-7314000Y2862000D01*
Y-18444000D01*
X-8249000Y-19379000D01*
X-10550000D01*
X-11101000Y-19930000D01*
Y-20005000D01*
X-11416000Y-20320000D01*
X-13970000D01*
G01X15875000Y-7620000D02*
X21000000D01*
X22578000Y-6042000D01*
Y3816000D01*
X19716000Y6678000D01*
X-2226000D01*
X-6678000Y2226000D01*
Y-19716000D01*
X-8268000Y-21306000D01*
X-9937000D01*
X-11101000Y-22470000D01*
Y-22549000D01*
X-11412000Y-22860000D01*
X-13970000D01*
G01X15875000Y-11430000D02*
X22914000D01*
X24486000Y-9858000D01*
Y4770000D01*
X20670000Y8586000D01*
X-3816000D01*
X-8586000Y3816000D01*
Y-15264000D01*
X-9594000Y-16272000D01*
X-10440000D01*
X-10531000Y-16181000D01*
X-10550000D01*
X-11101000Y-15630000D01*
Y-15611000D01*
X-11472000Y-15240000D01*
X-13970000D01*
G01X-10160000Y1610000D02*
Y2540000D01*
G01D02*
Y3470000D01*
G01X-11090000Y2540000D02*
X-10160000D01*
G01D02*
X-9230000D01*
G01X-12065000Y340000D02*
Y1270000D01*
G01D02*
Y2200000D01*
G01X-12995000Y1270000D02*
X-12065000D01*
G01D02*
X-11135000D01*
G01X-10160000Y-930000D02*
Y0D01*
G01D02*
Y930000D01*
G01X-11090000Y0D02*
X-10160000D01*
G01D02*
X-9230000D01*
G01X-13970000Y8860000D02*
Y10540000D01*
G01D02*
Y12220000D01*
G01Y10540000D02*
X-5790000D01*
G01X-13996000Y23214000D02*
Y24156000D01*
G01X-14938000Y23214000D02*
X-13996000D01*
G01D02*
X-13054000D01*
G01X-1612000Y-13970000D02*
X7620000D01*
G01X-3816000Y18080000D02*
X-2590000D01*
G01X-3816000Y20080000D02*
Y22241000D01*
X-3836000Y22261000D01*
Y23214000D01*
G01X4452000Y-34290000D02*
X9168000D01*
G01X5088000Y-35560000D02*
X8324000D01*
X8586000Y-35298000D01*
G01X3816000Y-33020000D02*
X9806000D01*
G01X5768000Y-27940000D02*
X5724000Y-27984000D01*
G01X5768000Y-27940000D02*
X11255000D01*
G01X5770000Y-29210000D02*
X11255000D01*
G01X3180000Y-31800000D02*
X10494000D01*
G01X11255000Y-25400000D02*
X7620000D01*
G01X11255000Y-26670000D02*
X7620000D01*
G01X11255000Y-27940000D02*
Y-27395000D01*
G01Y-27940000D02*
X13490000D01*
G01X11255000Y-29755000D02*
Y-29210000D01*
G01D02*
X13490000D01*
G01X11255000Y-21590000D02*
X7620000D01*
G01X11255000Y-17780000D02*
X7620000D01*
G01X11255000Y-24130000D02*
X7620000D01*
G01X11255000Y-22860000D02*
X7620000D01*
G01X11255000Y-20320000D02*
X7620000D01*
G01X11255000Y-19050000D02*
X7620000D01*
G01X11255000Y-16510000D02*
X7620000D01*
G01X11255000Y-12700000D02*
X7620000D01*
G01X11255000Y-15240000D02*
X7620000D01*
G01X13640000Y-12700000D02*
X15875000D01*
G01X11255000Y-13245000D02*
Y-12700000D01*
G01D02*
Y-12155000D01*
G01Y-12700000D02*
X13490000D01*
G01X11255000Y-15785000D02*
Y-15240000D01*
G01D02*
Y-14695000D01*
G01Y-15240000D02*
X13490000D01*
G01X11255000Y-11430000D02*
X7620000D01*
G01X11255000Y-13970000D02*
X7620000D01*
G01X11255000Y-10160000D02*
X7620000D01*
G01X11255000Y-7620000D02*
X7620000D01*
G01X11255000Y-8890000D02*
X7620000D01*
G01X11255000Y-6350000D02*
X7620000D01*
G01X11255000Y-5080000D02*
X7620000D01*
G01X20352000Y-55968000D02*
Y-53248000D01*
G01X17632000Y-55968000D02*
X20352000D01*
G01D02*
X23072000D01*
G01X15875000Y-25400000D02*
X19040000D01*
G01X15875000Y-26670000D02*
X18402000D01*
G01X15875000Y-22860000D02*
X19998000D01*
G01X15875000Y-21590000D02*
X20636000D01*
G01X15875000Y-24130000D02*
X19360000D01*
G01X15875000Y-20320000D02*
X21274000D01*
G01X15875000Y-19050000D02*
X21912000D01*
G01X15875000Y-17780000D02*
X22550000D01*
G01X15875000Y-12700000D02*
X19510000D01*
G01X15875000Y-13245000D02*
Y-12700000D01*
G01D02*
Y-12155000D01*
G01Y-15240000D02*
X23826000D01*
G01X15875000Y-13970000D02*
X24464000D01*
G01X15875000Y-16510000D02*
X23188000D01*
G01X20352000Y17194000D02*
Y18374000D01*
G01D02*
Y19554000D01*
G01Y18374000D02*
X23032000D01*
G01X20352000Y25280000D02*
Y28000000D01*
G01D02*
Y30720000D01*
G01X17632000Y28000000D02*
X20352000D01*
G01D02*
X23072000D01*
G54D14*
X-19034000Y16218000D03*
X-21034000D03*
G54D15*
X-8916000Y23214000D03*
X-11456000D03*
X-13996000D03*
X-1296000D03*
X-3836000D03*
X-6376000D03*
X6324000D03*
X3784000D03*
X1244000D03*
X13944000D03*
X11404000D03*
X8864000D03*
X19024000D03*
X16484000D03*
G54D16*
X-1612000Y-13970000D03*
X-2590000Y18080000D03*
X4452000Y-34290000D03*
X5088000Y-35560000D03*
X3816000Y-33020000D03*
X5770000Y-29210000D03*
X5768000Y-27940000D03*
X3180000Y-31800000D03*
X9168000Y-34290000D03*
X8586000Y-35298000D03*
X9806000Y-33020000D03*
X7620000Y-25400000D03*
Y-26670000D03*
X10494000Y-31800000D03*
X7620000Y-21590000D03*
Y-17780000D03*
Y-24130000D03*
Y-22860000D03*
Y-20320000D03*
Y-19050000D03*
Y-16510000D03*
Y-12700000D03*
Y-15240000D03*
Y-11430000D03*
Y-13970000D03*
Y-10160000D03*
Y-7620000D03*
Y-8890000D03*
Y-6350000D03*
Y-5080000D03*
X19040000Y-25400000D03*
X18716000Y-29210000D03*
X18402000Y-26670000D03*
X19998000Y-22860000D03*
X20636000Y-21590000D03*
X19360000Y-24130000D03*
X21274000Y-20320000D03*
X21912000Y-19050000D03*
X22550000Y-17780000D03*
X19510000Y-12700000D03*
X23826000Y-15240000D03*
X24464000Y-13970000D03*
X23188000Y-16510000D03*
G54D17*
X-3816000Y20080000D03*
Y18080000D03*
G54D18*
G01X-17747000Y18762000D02*
X-19034000Y17475000D01*
G01X-17747000Y18762000D02*
X-15264000D01*
G01X-19034000Y16218000D02*
X12720000D01*
G01X-19034000Y17475000D02*
Y16218000D01*
G01X17352000Y13674000D02*
X-20034000D01*
X-21034000Y14674000D01*
Y16218000D01*
G01X-16536000Y23214000D02*
X-19398000D01*
X-21049000Y21563000D01*
Y18762000D01*
G01X-21034000Y16218000D02*
Y17757000D01*
X-21049000Y17772000D01*
Y18762000D01*
G01X-15264000D02*
X-13996000Y20030000D01*
G01D02*
Y23214000D01*
G01X11255000Y-29210000D02*
Y-27940000D01*
G01X12720000Y16218000D02*
X14946000Y18444000D01*
X17554000D01*
X17624000Y18374000D01*
G01X17565000Y-29210000D02*
X18716000D01*
G01X15875000D02*
X17565000D01*
G01X17624000Y18374000D02*
X20352000D01*
X13565000Y-30750000D03*
Y-3520000D03*
G54D19*
X11255000Y-29210000D03*
Y-27940000D03*
Y-26670000D03*
Y-25400000D03*
X15875000D03*
Y-26670000D03*
Y-27940000D03*
Y-29210000D03*
X11255000Y-24130000D03*
Y-22860000D03*
Y-21590000D03*
Y-20320000D03*
Y-19050000D03*
Y-17780000D03*
X15875000D03*
Y-19050000D03*
Y-20320000D03*
Y-21590000D03*
Y-22860000D03*
Y-24130000D03*
X11255000Y-16510000D03*
Y-15240000D03*
Y-13970000D03*
Y-12700000D03*
Y-11430000D03*
Y-10160000D03*
X15875000D03*
Y-11430000D03*
Y-12700000D03*
Y-13970000D03*
Y-15240000D03*
Y-16510000D03*
X11255000Y-8890000D03*
Y-7620000D03*
Y-6350000D03*
Y-5080000D03*
X15875000D03*
Y-6350000D03*
Y-7620000D03*
Y-8890000D03*
M02*
