M48
; DRILL file {KiCad 7.0.2-6a45011f42~172~ubuntu22.04.1} date Mon 12 Jun 2023 08:45:31 AM PDT
; FORMAT={-:-/ absolute / metric / decimal}
; #@! TF.CreationDate,2023-06-12T08:45:31-07:00
; #@! TF.GenerationSoftware,Kicad,Pcbnew,7.0.2-6a45011f42~172~ubuntu22.04.1
; #@! TF.FileFunction,Plated,1,4,PTH
FMAT,2
METRIC
; #@! TA.AperFunction,Plated,PTH,ViaDrill
T1C0.300
; #@! TA.AperFunction,Plated,PTH,ViaDrill
T2C0.600
; #@! TA.AperFunction,Plated,PTH,ComponentDrill
T3C0.800
; #@! TA.AperFunction,Plated,PTH,ComponentDrill
T4C1.016
; #@! TA.AperFunction,Plated,PTH,ComponentDrill
T5C1.600
; #@! TA.AperFunction,Plated,PTH,ComponentDrill
T6C1.778
; #@! TA.AperFunction,Plated,PTH,ComponentDrill
T7C2.692
; #@! TA.AperFunction,Plated,PTH,ComponentDrill
T8C2.700
; #@! TA.AperFunction,Plated,PTH,ComponentDrill
T9C3.150
; #@! TA.AperFunction,Plated,PTH,ComponentDrill
T10C3.200
%
G90
G05
T1
X115.28Y-90.79
X116.029Y-62.133
X116.168Y-90.789
X117.02Y-62.07
X129.846Y-56.877
X144.051Y-56.833
X144.552Y-56.21
X153.54Y-104.65
X154.2Y-104.0
X155.197Y-91.417
X155.45Y-65.15
X156.14Y-65.74
X156.91Y-64.23
X157.86Y-64.46
X158.21Y-62.4
X158.23Y-63.28
X169.45Y-106.75
X169.95Y-57.61
X170.534Y-56.903
X184.42Y-54.05
X185.25Y-53.99
X186.61Y-53.3
X187.5Y-53.1
X197.074Y-63.926
X197.4Y-64.69
X197.89Y-61.71
X198.57Y-62.37
X199.79Y-61.52
X199.9Y-60.62
X202.65Y-81.45
X204.4Y-85.9
X210.166Y-56.75
X210.68Y-57.38
X211.346Y-56.803
X213.427Y-60.137
X214.28Y-60.17
X215.42Y-60.84
X215.91Y-61.48
X221.62Y-97.78
X228.1Y-94.0
X228.75Y-93.38
X230.505Y-102.597
X232.78Y-64.06
X240.6Y-54.5
X241.05Y-55.17
X241.35Y-61.65
X242.22Y-61.62
X244.59Y-96.0
X244.607Y-96.944
X246.04Y-65.22
X246.062Y-66.019
X250.618Y-59.472
X269.233Y-61.657
X269.95Y-62.37
T2
X280.4Y-97.6
T3
X220.345Y-100.585
X220.345Y-104.395
X221.615Y-102.49
X221.615Y-106.3
X222.885Y-100.585
X222.885Y-104.395
X224.155Y-102.49
X224.155Y-106.3
X225.425Y-100.585
X225.425Y-104.395
X226.695Y-102.49
X226.695Y-106.3
X227.965Y-100.585
X227.965Y-104.395
X229.235Y-102.49
X229.235Y-106.3
X230.505Y-100.585
X230.505Y-104.395
X231.775Y-102.49
X231.775Y-106.3
X233.045Y-100.585
X233.045Y-104.395
X234.315Y-102.49
X234.315Y-106.3
X235.585Y-100.585
X235.585Y-104.395
X236.855Y-102.49
X236.855Y-106.3
X238.125Y-100.585
X238.125Y-104.395
X239.395Y-102.49
X239.395Y-106.3
X240.665Y-100.585
X240.665Y-104.395
X241.935Y-102.49
X241.935Y-106.3
X243.205Y-100.585
X243.205Y-104.395
X244.475Y-102.49
X244.475Y-106.3
X245.745Y-100.585
X245.745Y-104.395
X247.015Y-102.49
X247.015Y-106.3
X248.285Y-100.585
X248.285Y-104.395
X249.555Y-102.49
X249.555Y-106.3
X250.825Y-100.585
X250.825Y-104.395
X252.095Y-102.49
X252.095Y-106.3
X253.365Y-100.585
X253.365Y-104.395
X254.635Y-102.49
X254.635Y-106.3
X255.905Y-100.585
X255.905Y-104.395
X257.175Y-102.49
X257.175Y-106.3
X258.445Y-100.585
X258.445Y-104.395
X259.715Y-102.49
X259.715Y-106.3
X260.985Y-100.585
X260.985Y-104.395
X262.255Y-102.49
X262.255Y-106.3
T4
X49.53Y-73.66
X51.97Y-58.1
X54.51Y-58.1
X54.61Y-73.66
X57.05Y-58.1
X59.59Y-58.1
X62.13Y-58.1
X64.67Y-58.1
X64.77Y-68.58
X64.77Y-78.74
X67.21Y-58.1
X67.31Y-68.58
X67.31Y-78.74
X69.75Y-58.1
X69.85Y-68.58
X69.85Y-78.74
X72.29Y-58.1
X72.39Y-68.58
X72.39Y-78.74
X74.83Y-58.1
X74.93Y-68.58
X74.93Y-78.74
X77.37Y-58.1
X77.47Y-68.58
X77.47Y-78.74
X79.91Y-58.1
X80.01Y-68.58
X80.01Y-78.74
X82.45Y-58.1
X84.99Y-58.1
X87.53Y-58.1
X89.535Y-73.66
X92.07Y-58.1
X94.61Y-58.1
X94.615Y-73.66
X97.15Y-58.1
X99.69Y-58.1
X102.23Y-58.1
X104.14Y-68.58
X104.14Y-78.74
X104.77Y-58.1
X106.68Y-68.58
X106.68Y-78.74
X107.31Y-58.1
X109.22Y-68.58
X109.22Y-78.74
X109.85Y-58.1
X110.49Y-96.52
X111.76Y-68.58
X111.76Y-78.74
X112.39Y-58.1
X113.03Y-96.52
X114.3Y-68.58
X114.3Y-78.74
X114.93Y-58.1
X115.57Y-96.52
X116.84Y-68.58
X116.84Y-78.74
X117.47Y-58.1
X118.11Y-96.52
X119.38Y-68.58
X119.38Y-78.74
X120.01Y-58.1
X122.55Y-58.1
X125.09Y-58.1
X127.63Y-58.1
X129.54Y-73.66
X132.17Y-58.1
X134.62Y-73.66
X134.71Y-58.1
X135.89Y-96.52
X137.25Y-58.1
X138.43Y-96.52
X139.79Y-58.1
X140.97Y-96.52
X142.33Y-58.1
X143.51Y-96.52
X144.78Y-68.58
X144.78Y-78.74
X144.87Y-58.1
X147.32Y-68.58
X147.32Y-78.74
X147.41Y-58.1
X149.86Y-68.58
X149.86Y-78.74
X149.95Y-58.1
X152.4Y-68.58
X152.4Y-78.74
X152.49Y-58.1
X154.94Y-68.58
X154.94Y-78.74
X155.03Y-58.1
X157.48Y-68.58
X157.48Y-78.74
X157.57Y-58.1
X160.02Y-68.58
X160.02Y-78.74
X160.11Y-58.1
X162.65Y-58.1
X165.1Y-92.71
X165.1Y-102.87
X165.19Y-58.1
X167.64Y-92.71
X167.64Y-102.87
X167.73Y-58.1
X169.672Y-73.66
X170.18Y-92.71
X170.18Y-102.87
X172.3Y-58.1
X172.72Y-92.71
X172.72Y-102.87
X174.752Y-73.66
X174.84Y-58.1
X175.26Y-92.71
X175.26Y-102.87
X177.38Y-58.1
X177.8Y-92.71
X177.8Y-102.87
X179.92Y-58.1
X180.34Y-92.71
X180.34Y-102.87
X182.46Y-58.1
X185.0Y-58.1
X185.42Y-68.58
X185.42Y-78.74
X187.54Y-58.1
X187.96Y-68.58
X187.96Y-78.74
X190.08Y-58.1
X190.5Y-68.58
X190.5Y-78.74
X192.62Y-58.1
X193.04Y-68.58
X193.04Y-78.74
X195.16Y-58.1
X195.58Y-68.58
X195.58Y-78.74
X197.7Y-58.1
X198.12Y-68.58
X198.12Y-78.74
X200.24Y-58.1
X200.66Y-68.58
X200.66Y-78.74
X202.78Y-58.1
X205.32Y-58.1
X207.86Y-58.1
X209.55Y-73.66
X212.37Y-58.1
X214.63Y-73.66
X214.91Y-58.1
X217.45Y-58.1
X219.99Y-58.1
X222.53Y-58.1
X224.79Y-68.58
X224.79Y-78.74
X225.07Y-58.1
X227.33Y-68.58
X227.33Y-78.74
X227.61Y-58.1
X229.87Y-68.58
X229.87Y-78.74
X230.15Y-58.1
X232.41Y-68.58
X232.41Y-78.74
X232.69Y-58.1
X234.95Y-68.58
X234.95Y-78.74
X235.23Y-58.1
X237.49Y-68.58
X237.49Y-78.74
X237.77Y-58.1
X240.03Y-68.58
X240.03Y-78.74
X240.31Y-58.1
X242.85Y-58.1
X245.39Y-58.1
X247.93Y-58.1
X249.936Y-73.66
X252.47Y-58.1
X255.01Y-58.1
X255.016Y-73.66
X257.55Y-58.1
X260.09Y-58.1
X262.63Y-58.1
X265.17Y-58.1
X265.43Y-68.58
X265.43Y-78.74
X267.71Y-58.1
X267.97Y-68.58
X267.97Y-78.74
X270.25Y-58.1
X270.51Y-68.58
X270.51Y-78.74
X272.79Y-58.1
X273.05Y-68.58
X273.05Y-78.74
X275.33Y-58.1
X275.59Y-68.58
X275.59Y-78.74
X277.87Y-58.1
X278.13Y-68.58
X278.13Y-78.74
X280.41Y-58.1
X280.67Y-68.58
X280.67Y-78.74
X282.95Y-58.1
X285.49Y-58.1
X288.03Y-58.1
T5
X88.9Y-106.973
T6
X58.75Y-102.4
X63.5Y-102.4
X68.25Y-102.4
T7
X84.404Y-104.966
X88.9Y-103.976
X93.396Y-104.966
T8
X212.345Y-104.395
X270.255Y-104.395
T9
X88.9Y-97.981
T10
X45.0Y-55.0
X45.0Y-105.0
X295.0Y-55.0
X295.0Y-105.0
T0
M30
