M48
; DRILL file {KiCad 7.0.5} date Tue 20 Jun 2023 08:56:49 AM EDT
; FORMAT={2:4/ absolute / inch / keep zeros}
; #@! TF.CreationDate,2023-06-20T08:56:49-04:00
; #@! TF.GenerationSoftware,Kicad,Pcbnew,7.0.5
; #@! TF.FileFunction,Plated,1,4,PTH
FMAT,2
INCH
; #@! TA.AperFunction,Plated,PTH,ViaDrill
T1C0.0118
; #@! TA.AperFunction,Plated,PTH,ComponentDrill
T2C0.0400
; #@! TA.AperFunction,Plated,PTH,ComponentDrill
T3C0.0402
; #@! TA.AperFunction,Plated,PTH,ComponentDrill
T4C0.0630
; #@! TA.AperFunction,Plated,PTH,ComponentDrill
T5C0.0700
; #@! TA.AperFunction,Plated,PTH,ComponentDrill
T6C0.1060
; #@! TA.AperFunction,Plated,PTH,ComponentDrill
T7C0.1240
; #@! TA.AperFunction,Plated,PTH,ComponentDrill
T8C0.1260
%
G90
G05
T1
X030394Y-024134
X030551Y-024449
X041693Y-025551
X041969Y-025787
X042205Y-024449
X042402Y-024764
X044518Y-025079
X044764Y-025354
X047047Y-020571
X047252Y-020837
X051430Y-023535
X051461Y-023869
X055394Y-021063
X055591Y-020787
X062008Y-024449
X062126Y-024094
X074094Y-026260
X076181Y-024370
X076399Y-024093
X081102Y-047539
X082806Y-045658
X083150Y-045669
X089764Y-023583
X089921Y-023898
X092362Y-023780
X092717Y-023661
X093732Y-033622
X097992Y-033701
X098129Y-034019
X099055Y-034134
X099252Y-034449
X100945Y-034921
X101142Y-035236
X103425Y-035394
X103465Y-035787
T2
X019472Y-029134
X020461Y-022874
X021461Y-022874
X021472Y-029134
X022461Y-022874
X023461Y-022874
X024461Y-022874
X025315Y-029496
X025315Y-033496
X025461Y-022874
X026315Y-029496
X026315Y-033496
X026461Y-022874
X027315Y-029496
X027315Y-033496
X027461Y-022874
X028315Y-029496
X028315Y-033496
X028461Y-022874
X029315Y-029496
X029315Y-033496
X029461Y-022874
X030315Y-029496
X030315Y-033496
X030461Y-022874
X031315Y-029496
X031315Y-033496
X031461Y-022874
X032461Y-022874
X033461Y-022874
X034461Y-022874
X035276Y-029134
X036248Y-022874
X037248Y-022874
X037276Y-029134
X038248Y-022874
X039248Y-022874
X040248Y-022874
X040898Y-029496
X040898Y-033496
X041248Y-022874
X041898Y-029496
X041898Y-033496
X042248Y-022874
X042898Y-029496
X042898Y-033496
X043248Y-022874
X043898Y-029496
X043898Y-033496
X044248Y-022874
X044898Y-029496
X044898Y-033496
X045248Y-022874
X045898Y-029496
X045898Y-033496
X046248Y-022874
X046898Y-029496
X046898Y-033496
X047248Y-022874
X048248Y-022874
X049248Y-022874
X050248Y-022874
X050984Y-029134
X052035Y-022874
X052984Y-029134
X053035Y-022874
X054035Y-022874
X055035Y-022874
X056035Y-022874
X056795Y-029496
X056795Y-033496
X057035Y-022874
X057795Y-029496
X057795Y-033496
X058035Y-022874
X058795Y-029496
X058795Y-033496
X059035Y-022874
X059795Y-029496
X059795Y-033496
X060035Y-022874
X060795Y-029496
X060795Y-033496
X061035Y-022874
X061795Y-029496
X061795Y-033496
X062035Y-022874
X062795Y-029496
X062795Y-033496
X063035Y-022874
X064035Y-022874
X065035Y-022874
X066035Y-022874
X066831Y-029134
X067823Y-022874
X068823Y-022874
X068831Y-029134
X069823Y-022874
X070823Y-022874
X071823Y-022874
X072559Y-029496
X072559Y-033496
X072823Y-022874
X073559Y-029496
X073559Y-033496
X073823Y-022874
X074559Y-029496
X074559Y-033496
X074823Y-022874
X075559Y-029496
X075559Y-033496
X075823Y-022874
X076559Y-029496
X076559Y-033496
X076823Y-022874
X077559Y-029496
X077559Y-033496
X077823Y-022874
X078559Y-029496
X078559Y-033496
X078823Y-022874
X079823Y-022874
X080823Y-022874
X081823Y-022874
X082661Y-029134
X083610Y-022874
X084610Y-022874
X084661Y-029134
X085610Y-022874
X086610Y-022874
X087610Y-022874
X088610Y-022874
X088732Y-027528
X088732Y-031528
X089610Y-022874
X089732Y-027528
X089732Y-031528
X090610Y-022874
X090732Y-027528
X090732Y-031528
X091610Y-022874
X091732Y-027528
X091732Y-031528
X092610Y-022874
X092732Y-027528
X092732Y-031528
X093610Y-022874
X093732Y-027528
X093732Y-031528
X094610Y-022874
X094732Y-027528
X094732Y-031528
X095610Y-022874
X096610Y-022874
X097610Y-022874
X098394Y-029134
X099398Y-022874
X100394Y-029134
X100398Y-022874
X101398Y-022874
X102398Y-022874
X103398Y-022874
X104398Y-022874
X105071Y-027528
X105071Y-031528
X105398Y-022874
X106071Y-027528
X106071Y-031528
X106398Y-022874
X107071Y-027528
X107071Y-031528
X107398Y-022874
X108071Y-027528
X108071Y-031528
X108398Y-022874
X109071Y-027528
X109071Y-031528
X109398Y-022874
X110071Y-027528
X110071Y-031528
X110398Y-022874
X111071Y-027528
X111071Y-031528
X111398Y-022874
X112398Y-022874
X113398Y-022874
T3
X098236Y-037598
X098236Y-044598
X098327Y-040098
X098327Y-041098
X098327Y-042098
X099236Y-037598
X099236Y-044598
X100236Y-037598
X100236Y-044598
X101236Y-037598
X101236Y-044598
X102236Y-037598
X102236Y-044598
X103236Y-037598
X103236Y-044598
X104236Y-037598
X104236Y-044598
X105236Y-037598
X105236Y-044598
X106236Y-037598
X106236Y-044598
X107236Y-037598
X107236Y-044598
X108236Y-037598
X108236Y-044598
X109236Y-037598
X109236Y-044598
X110236Y-037598
X110236Y-044598
X111236Y-037598
X111236Y-044598
X112236Y-037598
X112236Y-044598
X113236Y-037598
X113236Y-044598
X114236Y-037598
X114236Y-044598
X115236Y-037598
X115236Y-044598
X116236Y-037598
X116236Y-044598
X117236Y-037598
X117236Y-044598
T4
X037402Y-049873
T5
X025689Y-048110
X027559Y-048110
X029429Y-048110
T6
X035632Y-049083
X037402Y-048693
X039172Y-049083
T7
X037402Y-046333
T8
X017717Y-021654
X017717Y-049213
X116142Y-021654
X116142Y-049213
T0
M30
