M48
METRIC,LZ
T01C.33
T02C.8
T03C1.016
T04C4.305
T05C.2
;LEADER: 12 
;HEADER: 
;CODE  : ASCII 
;FILE  : Interconnect-1-4.drl for  ... layers TOP and BOTTOM
;DESIGN: Interconnect.brd
;T01 Holesize 1. = 0.330000 Tolerance = +0.000000/-0.000000 PLATED MM Quantity = 43
;T02 Holesize 2. = 0.800000 Tolerance = +0.000000/-0.000000 PLATED MM Quantity = 68
;T03 Holesize 3. = 1.016000 Tolerance = +0.000000/-0.000000 PLATED MM Quantity = 15
;T04 Holesize 4. = 4.305000 Tolerance = +0.000000/-0.000000 PLATED MM Quantity = 4
;T05 Holesize 5. = 0.200000 Tolerance = +0.000000/-0.000000 NON_PLATED MM Quantity = 2
%
G90
T01
X0762Y-1016
X18402Y-2667
X18716Y-2921
X0762Y-0508
X10494Y-318
X0318Y-318
X09806Y-3302
X0762Y-0635
X03816Y-3302
X1936Y-2413
X-0259Y1808
X-01612Y-1397
X0762Y-1397
X08586Y-35298
X0762Y-0889
X05088Y-3556
X0762Y-1143
X1904Y-254
X09168Y-3429
X0762Y-0762
X04452Y-3429
X0762Y-1905
X05768Y-2794
X0577Y-2921
X0762Y-1524
X0762Y-127
X0762Y-2667
X0762Y-2032
X0762Y-2286
X0762Y-1651
X0762Y-254
X0762Y-2413
X0762Y-1778
X0762Y-2159
X2255Y-1778
X21912Y-1905
X21274Y-2032
X23188Y-1651
X24464Y-1397
X20636Y-2159
X19998Y-2286
X23826Y-1524
X1951Y-127
T02
X-1016Y0254
X-12065Y0127
X-1016Y0
X-12065Y-0127
X-1016Y-0254
X-12065Y-0381
X-1016Y-0508
X-12065Y-0635
X-1016Y-0762
X-12065Y-0889
X-1016Y-1016
X-12065Y-1143
X-1016Y-127
X-12065Y-1397
X-1016Y-1524
X-12065Y-1651
X-1016Y-1778
X-12065Y-1905
X-1016Y-2032
X-12065Y-2159
X-1016Y-2286
X-12065Y-2413
X-1016Y-254
X-12065Y-2667
X-1016Y-2794
X-12065Y-2921
X-1016Y-3048
X-12065Y-3175
X-1016Y-3302
X-12065Y-3429
X-1016Y-3556
X-12065Y-3683
X-1016Y-381
X-12065Y-3937
X-1397Y0254
X-15875Y0127
X-1397Y0
X-15875Y-0127
X-1397Y-0254
X-15875Y-0381
X-1397Y-0508
X-15875Y-0635
X-1397Y-0762
X-15875Y-0889
X-1397Y-1016
X-15875Y-1143
X-1397Y-127
X-15875Y-1397
X-1397Y-1524
X-15875Y-1651
X-1397Y-1778
X-15875Y-1905
X-1397Y-2032
X-15875Y-2159
X-1397Y-2286
X-15875Y-2413
X-1397Y-254
X-15875Y-2667
X-1397Y-2794
X-15875Y-2921
X-1397Y-3048
X-15875Y-3175
X-1397Y-3302
X-15875Y-3429
X-1397Y-3556
X-15875Y-3683
X-1397Y-381
X-15875Y-3937
T03
X-16536Y23214
X-13996Y23214
X-11456Y23214
X-08916Y23214
X-06376Y23214
X-03836Y23214
X-01296Y23214
X01244Y23214
X03784Y23214
X06324Y23214
X08864Y23214
X11404Y23214
X13944Y23214
X16484Y23214
X19024Y23214
T04
X-1778Y-5588
X-1778Y28
X20352Y28
X20352Y-55968
T05
X13565Y-3075
X13565Y-0352
M30
