M48
METRIC,TZ
T01C.33
T02C.8
T03C1.016
T04C4.305
T05C.2
;LEADER: 12 
;HEADER: 
;CODE  : ASCII 
;FILE  : Interconnect-1-4.drl for  ... layers TOP and BOTTOM
;DESIGN: Interconnect.brd
;T01 Holesize 1. = 0.330000 Tolerance = +0.000000/-0.000000 PLATED MM Quantity = 43
;T02 Holesize 2. = 0.800000 Tolerance = +0.000000/-0.000000 PLATED MM Quantity = 68
;T03 Holesize 3. = 1.016000 Tolerance = +0.000000/-0.000000 PLATED MM Quantity = 15
;T04 Holesize 4. = 4.305000 Tolerance = +0.000000/-0.000000 PLATED MM Quantity = 4
;T05 Holesize 5. = 0.200000 Tolerance = +0.000000/-0.000000 NON_PLATED MM Quantity = 2
%
G90
T01
X762000Y-1016000
X1840200Y-2667000
X1871600Y-2921000
X762000Y-508000
X1049400Y-3180000
X318000Y-3180000
X980600Y-3302000
X762000Y-635000
X381600Y-3302000
X1936000Y-2413000
X-259000Y1808000
X-161200Y-1397000
X762000Y-1397000
X858600Y-3529800
X762000Y-889000
X508800Y-3556000
X762000Y-1143000
X1904000Y-2540000
X916800Y-3429000
X762000Y-762000
X445200Y-3429000
X762000Y-1905000
X576800Y-2794000
X577000Y-2921000
X762000Y-1524000
X762000Y-1270000
X762000Y-2667000
X762000Y-2032000
X762000Y-2286000
X762000Y-1651000
X762000Y-2540000
X762000Y-2413000
X762000Y-1778000
X762000Y-2159000
X2255000Y-1778000
X2191200Y-1905000
X2127400Y-2032000
X2318800Y-1651000
X2446400Y-1397000
X2063600Y-2159000
X1999800Y-2286000
X2382600Y-1524000
X1951000Y-1270000
T02
X-1016000Y254000
X-1206500Y127000
X-1016000Y0
X-1206500Y-127000
X-1016000Y-254000
X-1206500Y-381000
X-1016000Y-508000
X-1206500Y-635000
X-1016000Y-762000
X-1206500Y-889000
X-1016000Y-1016000
X-1206500Y-1143000
X-1016000Y-1270000
X-1206500Y-1397000
X-1016000Y-1524000
X-1206500Y-1651000
X-1016000Y-1778000
X-1206500Y-1905000
X-1016000Y-2032000
X-1206500Y-2159000
X-1016000Y-2286000
X-1206500Y-2413000
X-1016000Y-2540000
X-1206500Y-2667000
X-1016000Y-2794000
X-1206500Y-2921000
X-1016000Y-3048000
X-1206500Y-3175000
X-1016000Y-3302000
X-1206500Y-3429000
X-1016000Y-3556000
X-1206500Y-3683000
X-1016000Y-3810000
X-1206500Y-3937000
X-1397000Y254000
X-1587500Y127000
X-1397000Y0
X-1587500Y-127000
X-1397000Y-254000
X-1587500Y-381000
X-1397000Y-508000
X-1587500Y-635000
X-1397000Y-762000
X-1587500Y-889000
X-1397000Y-1016000
X-1587500Y-1143000
X-1397000Y-1270000
X-1587500Y-1397000
X-1397000Y-1524000
X-1587500Y-1651000
X-1397000Y-1778000
X-1587500Y-1905000
X-1397000Y-2032000
X-1587500Y-2159000
X-1397000Y-2286000
X-1587500Y-2413000
X-1397000Y-2540000
X-1587500Y-2667000
X-1397000Y-2794000
X-1587500Y-2921000
X-1397000Y-3048000
X-1587500Y-3175000
X-1397000Y-3302000
X-1587500Y-3429000
X-1397000Y-3556000
X-1587500Y-3683000
X-1397000Y-3810000
X-1587500Y-3937000
T03
X-1653600Y2321400
X-1399600Y2321400
X-1145600Y2321400
X-891600Y2321400
X-637600Y2321400
X-383600Y2321400
X-129600Y2321400
X124400Y2321400
X378400Y2321400
X632400Y2321400
X886400Y2321400
X1140400Y2321400
X1394400Y2321400
X1648400Y2321400
X1902400Y2321400
T04
X-1778000Y-5588000
X-1778000Y2800000
X2035200Y2800000
X2035200Y-5596800
T05
X1356500Y-3075000
X1356500Y-352000
M30
