M48
METRIC
T01C.33
T02C.8
T03C1.016
T04C4.305
T05C.2
;LEADER: 12 
;HEADER: 
;CODE  : ASCII 
;FILE  : Interconnect-1-4.drl for  ... layers TOP and BOTTOM
;DESIGN: Interconnect.brd
;T01 Holesize 1. = 0.330000 Tolerance = +0.000000/-0.000000 PLATED MM Quantity = 43
;T02 Holesize 2. = 0.800000 Tolerance = +0.000000/-0.000000 PLATED MM Quantity = 68
;T03 Holesize 3. = 1.016000 Tolerance = +0.000000/-0.000000 PLATED MM Quantity = 15
;T04 Holesize 4. = 4.305000 Tolerance = +0.000000/-0.000000 PLATED MM Quantity = 4
;T05 Holesize 5. = 0.200000 Tolerance = +0.000000/-0.000000 NON_PLATED MM Quantity = 2
%
G90
T01
X07620000Y-10160000
X18402000Y-26670000
X18716000Y-29210000
X07620000Y-05080000
X10494000Y-31800000
X03180000Y-31800000
X09806000Y-33020000
X07620000Y-06350000
X03816000Y-33020000
X19360000Y-24130000
X-02590000Y18080000
X-01612000Y-13970000
X07620000Y-13970000
X08586000Y-35298000
X07620000Y-08890000
X05088000Y-35560000
X07620000Y-11430000
X19040000Y-25400000
X09168000Y-34290000
X07620000Y-07620000
X04452000Y-34290000
X07620000Y-19050000
X05768000Y-27940000
X05770000Y-29210000
X07620000Y-15240000
X07620000Y-12700000
X07620000Y-26670000
X07620000Y-20320000
X07620000Y-22860000
X07620000Y-16510000
X07620000Y-25400000
X07620000Y-24130000
X07620000Y-17780000
X07620000Y-21590000
X22550000Y-17780000
X21912000Y-19050000
X21274000Y-20320000
X23188000Y-16510000
X24464000Y-13970000
X20636000Y-21590000
X19998000Y-22860000
X23826000Y-15240000
X19510000Y-12700000
T02
X-10160000Y02540000
X-12065000Y01270000
X-10160000Y00000000
X-12065000Y-01270000
X-10160000Y-02540000
X-12065000Y-03810000
X-10160000Y-05080000
X-12065000Y-06350000
X-10160000Y-07620000
X-12065000Y-08890000
X-10160000Y-10160000
X-12065000Y-11430000
X-10160000Y-12700000
X-12065000Y-13970000
X-10160000Y-15240000
X-12065000Y-16510000
X-10160000Y-17780000
X-12065000Y-19050000
X-10160000Y-20320000
X-12065000Y-21590000
X-10160000Y-22860000
X-12065000Y-24130000
X-10160000Y-25400000
X-12065000Y-26670000
X-10160000Y-27940000
X-12065000Y-29210000
X-10160000Y-30480000
X-12065000Y-31750000
X-10160000Y-33020000
X-12065000Y-34290000
X-10160000Y-35560000
X-12065000Y-36830000
X-10160000Y-38100000
X-12065000Y-39370000
X-13970000Y02540000
X-15875000Y01270000
X-13970000Y00000000
X-15875000Y-01270000
X-13970000Y-02540000
X-15875000Y-03810000
X-13970000Y-05080000
X-15875000Y-06350000
X-13970000Y-07620000
X-15875000Y-08890000
X-13970000Y-10160000
X-15875000Y-11430000
X-13970000Y-12700000
X-15875000Y-13970000
X-13970000Y-15240000
X-15875000Y-16510000
X-13970000Y-17780000
X-15875000Y-19050000
X-13970000Y-20320000
X-15875000Y-21590000
X-13970000Y-22860000
X-15875000Y-24130000
X-13970000Y-25400000
X-15875000Y-26670000
X-13970000Y-27940000
X-15875000Y-29210000
X-13970000Y-30480000
X-15875000Y-31750000
X-13970000Y-33020000
X-15875000Y-34290000
X-13970000Y-35560000
X-15875000Y-36830000
X-13970000Y-38100000
X-15875000Y-39370000
T03
X-16536000Y23214000
X-13996000Y23214000
X-11456000Y23214000
X-08916000Y23214000
X-06376000Y23214000
X-03836000Y23214000
X-01296000Y23214000
X01244000Y23214000
X03784000Y23214000
X06324000Y23214000
X08864000Y23214000
X11404000Y23214000
X13944000Y23214000
X16484000Y23214000
X19024000Y23214000
T04
X-17780000Y-55880000
X-17780000Y28000000
X20352000Y28000000
X20352000Y-55968000
T05
X13565000Y-30750000
X13565000Y-03520000
M30
