G04 ================== begin FILE IDENTIFICATION RECORD ==================*
G04 Layout Name:  I:/Project-Micheal G4 Project/G4 Arena 6-21-2017/LED_12inArena.brd*
G04 Film Name:    Assembly*
G04 File Format:  Gerber RS274X*
G04 File Origin:  Cadence Allegro 17.2-P019*
G04 Origin Date:  Mon Oct 05 13:44:51 2020*
G04 *
G04 Layer:  CONSTRAINT REGION/ALL*
G04 Layer:  CONSTRAINT REGION/OUTER_LAYERS*
G04 Layer:  CONSTRAINT REGION/INNER_SIGNAL_LAYERS*
G04 Layer:  CONSTRAINT REGION/INNER_PLANE_LAYERS*
G04 Layer:  CONSTRAINT REGION/BOTTOM*
G04 Layer:  CONSTRAINT REGION/LAYER 2*
G04 Layer:  CONSTRAINT REGION/GND2*
G04 Layer:  CONSTRAINT REGION/LAYER 1*
G04 Layer:  CONSTRAINT REGION/PWR*
G04 Layer:  CONSTRAINT REGION/TOP*
G04 Layer:  VIA KEEPOUT/ALL*
G04 Layer:  VIA KEEPOUT/BOTTOM*
G04 Layer:  VIA KEEPOUT/LAYER 2*
G04 Layer:  VIA KEEPOUT/GND2*
G04 Layer:  VIA KEEPOUT/LAYER 1*
G04 Layer:  VIA KEEPOUT/PWR*
G04 Layer:  VIA KEEPOUT/TOP*
G04 Layer:  ROUTE KEEPOUT/ALL*
G04 Layer:  ROUTE KEEPOUT/BOTTOM*
G04 Layer:  ROUTE KEEPOUT/LAYER 2*
G04 Layer:  ROUTE KEEPOUT/GND2*
G04 Layer:  ROUTE KEEPOUT/LAYER 1*
G04 Layer:  ROUTE KEEPOUT/PWR*
G04 Layer:  ROUTE KEEPOUT/TOP*
G04 Layer:  ROUTE KEEPIN/ALL*
G04 Layer:  PACKAGE KEEPOUT/ALL*
G04 Layer:  PACKAGE KEEPOUT/TOP*
G04 Layer:  PACKAGE KEEPOUT/BOTTOM*
G04 Layer:  PACKAGE KEEPIN/ALL*
G04 Layer:  MANUFACTURING/PHOTOPLOT_OUTLINE*
G04 Layer:  MANUFACTURING/NO_GLOSS_ALL*
G04 Layer:  MANUFACTURING/NO_GLOSS_TOP*
G04 Layer:  MANUFACTURING/NO_GLOSS_BOTTOM*
G04 Layer:  MANUFACTURING/NO_GLOSS_INTERNAL*
G04 Layer:  MANUFACTURING/NCDRILL_LEGEND*
G04 Layer:  MANUFACTURING/NCDRILL_FIGURE*
G04 Layer:  MANUFACTURING/PROBE_TOP*
G04 Layer:  MANUFACTURING/PROBE_BOTTOM*
G04 Layer:  MANUFACTURING/AUTOSILK_TOP*
G04 Layer:  MANUFACTURING/AUTOSILK_BOTTOM*
G04 Layer:  MANUFACTURING/NO_PROBE_TOP*
G04 Layer:  MANUFACTURING/NO_PROBE_BOTTOM*
G04 Layer:  MANUFACTURING/XSECTION_CHART*
G04 Layer:  MANUFACTURING/NCLEGEND-1-1*
G04 Layer:  MANUFACTURING/NCLEGEND-1-6*
G04 Layer:  BOARD GEOMETRY/OUTLINE*
G04 Layer:  BOARD GEOMETRY/DIMENSION*
G04 *
G04 Offset:    (0.0 0.0)*
G04 Mirror:    No*
G04 Mode:      Positive*
G04 Rotation:  0*
G04 FullContactRelief:  No*
G04 UndefLineWidth:     0.1*
G04 ================== end FILE IDENTIFICATION RECORD ====================*
%FSLAX25Y25*MOIN*%
%IR0*IPPOS*OFA0.00000B0.00000*MIA0B0*SFA1.00000B1.00000*%
%AMMACRO13*
1,1,.0001,0.0,.03935*
20,1,.0001,0.0,.03935,.03935,-.03935,0.0*
1,1,.0001,.03935,-.03935*
20,1,.0001,.03935,-.03935,-.03935,-.03935,0.0*
1,1,.0001,-.03935,-.03935*
20,1,.0001,-.03935,-.03935,0.0,.03935,0.0*
1,1,.0001,0.0,.03935*
%
%ADD13MACRO13*%
%AMMACRO17*
1,1,.0001,.02,0.0*
20,1,.0001,.02,0.0,-.02,0.0,0.0*
1,1,.0001,-.02,0.0*
1,1,.0001,0.0,.02*
20,1,.0001,0.0,.02,0.0,-.02,0.0*
1,1,.0001,0.0,-.02*
%
%ADD17MACRO17*%
%AMMACRO12*
1,1,.0001,.025,0.0*
20,1,.0001,.025,0.0,.02462,-.004341,0.0*
1,1,.0001,.02462,-.004341*
20,1,.0001,.02462,-.004341,.023492,-.008551,0.0*
1,1,.0001,.023492,-.008551*
20,1,.0001,.023492,-.008551,.021651,-.0125,0.0*
1,1,.0001,.021651,-.0125*
20,1,.0001,.021651,-.0125,.019151,-.01607,0.0*
1,1,.0001,.019151,-.01607*
20,1,.0001,.019151,-.01607,.01607,-.019151,0.0*
1,1,.0001,.01607,-.019151*
20,1,.0001,.01607,-.019151,.0125,-.021651,0.0*
1,1,.0001,.0125,-.021651*
20,1,.0001,.0125,-.021651,.008551,-.023492,0.0*
1,1,.0001,.008551,-.023492*
20,1,.0001,.008551,-.023492,.004341,-.02462,0.0*
1,1,.0001,.004341,-.02462*
20,1,.0001,.004341,-.02462,0.0,-.025,0.0*
1,1,.0001,0.0,-.025*
20,1,.0001,0.0,-.025,-.004341,-.02462,0.0*
1,1,.0001,-.004341,-.02462*
20,1,.0001,-.004341,-.02462,-.008551,-.023492,0.0*
1,1,.0001,-.008551,-.023492*
20,1,.0001,-.008551,-.023492,-.0125,-.021651,0.0*
1,1,.0001,-.0125,-.021651*
20,1,.0001,-.0125,-.021651,-.01607,-.019151,0.0*
1,1,.0001,-.01607,-.019151*
20,1,.0001,-.01607,-.019151,-.019151,-.01607,0.0*
1,1,.0001,-.019151,-.01607*
20,1,.0001,-.019151,-.01607,-.021651,-.0125,0.0*
1,1,.0001,-.021651,-.0125*
20,1,.0001,-.021651,-.0125,-.023492,-.008551,0.0*
1,1,.0001,-.023492,-.008551*
20,1,.0001,-.023492,-.008551,-.02462,-.004341,0.0*
1,1,.0001,-.02462,-.004341*
20,1,.0001,-.02462,-.004341,-.025,0.0,0.0*
1,1,.0001,-.025,0.0*
20,1,.0001,-.025,0.0,-.02462,.004341,0.0*
1,1,.0001,-.02462,.004341*
20,1,.0001,-.02462,.004341,-.023492,.008551,0.0*
1,1,.0001,-.023492,.008551*
20,1,.0001,-.023492,.008551,-.021651,.0125,0.0*
1,1,.0001,-.021651,.0125*
20,1,.0001,-.021651,.0125,-.019151,.01607,0.0*
1,1,.0001,-.019151,.01607*
20,1,.0001,-.019151,.01607,-.01607,.019151,0.0*
1,1,.0001,-.01607,.019151*
20,1,.0001,-.01607,.019151,-.0125,.021651,0.0*
1,1,.0001,-.0125,.021651*
20,1,.0001,-.0125,.021651,-.008551,.023492,0.0*
1,1,.0001,-.008551,.023492*
20,1,.0001,-.008551,.023492,-.004341,.02462,0.0*
1,1,.0001,-.004341,.02462*
20,1,.0001,-.004341,.02462,0.0,.025,0.0*
1,1,.0001,0.0,.025*
20,1,.0001,0.0,.025,.004341,.02462,0.0*
1,1,.0001,.004341,.02462*
20,1,.0001,.004341,.02462,.008551,.023492,0.0*
1,1,.0001,.008551,.023492*
20,1,.0001,.008551,.023492,.0125,.021651,0.0*
1,1,.0001,.0125,.021651*
20,1,.0001,.0125,.021651,.01607,.019151,0.0*
1,1,.0001,.01607,.019151*
20,1,.0001,.01607,.019151,.019151,.01607,0.0*
1,1,.0001,.019151,.01607*
20,1,.0001,.019151,.01607,.021651,.0125,0.0*
1,1,.0001,.021651,.0125*
20,1,.0001,.021651,.0125,.023492,.008551,0.0*
1,1,.0001,.023492,.008551*
20,1,.0001,.023492,.008551,.02462,.004341,0.0*
1,1,.0001,.02462,.004341*
20,1,.0001,.02462,.004341,.025,0.0,0.0*
1,1,.0001,.025,0.0*
1,1,.0001,.0125,0.0*
20,1,.0001,.0125,0.0,-.0125,0.0,0.0*
1,1,.0001,-.0125,0.0*
1,1,.0001,0.0,.0125*
20,1,.0001,0.0,.0125,0.0,-.0125,0.0*
1,1,.0001,0.0,-.0125*
%
%ADD12MACRO12*%
%AMMACRO19*
1,1,.0001,.05,0.0*
20,1,.0001,.05,0.0,.04924,-.008682,0.0*
1,1,.0001,.04924,-.008682*
20,1,.0001,.04924,-.008682,.046985,-.017101,0.0*
1,1,.0001,.046985,-.017101*
20,1,.0001,.046985,-.017101,.043301,-.025,0.0*
1,1,.0001,.043301,-.025*
20,1,.0001,.043301,-.025,.038302,-.032139,0.0*
1,1,.0001,.038302,-.032139*
20,1,.0001,.038302,-.032139,.032139,-.038302,0.0*
1,1,.0001,.032139,-.038302*
20,1,.0001,.032139,-.038302,.025,-.043301,0.0*
1,1,.0001,.025,-.043301*
20,1,.0001,.025,-.043301,.017101,-.046985,0.0*
1,1,.0001,.017101,-.046985*
20,1,.0001,.017101,-.046985,.008682,-.04924,0.0*
1,1,.0001,.008682,-.04924*
20,1,.0001,.008682,-.04924,0.0,-.05,0.0*
1,1,.0001,0.0,-.05*
20,1,.0001,0.0,-.05,-.008682,-.04924,0.0*
1,1,.0001,-.008682,-.04924*
20,1,.0001,-.008682,-.04924,-.017101,-.046985,0.0*
1,1,.0001,-.017101,-.046985*
20,1,.0001,-.017101,-.046985,-.025,-.043301,0.0*
1,1,.0001,-.025,-.043301*
20,1,.0001,-.025,-.043301,-.032139,-.038302,0.0*
1,1,.0001,-.032139,-.038302*
20,1,.0001,-.032139,-.038302,-.038302,-.032139,0.0*
1,1,.0001,-.038302,-.032139*
20,1,.0001,-.038302,-.032139,-.043301,-.025,0.0*
1,1,.0001,-.043301,-.025*
20,1,.0001,-.043301,-.025,-.046985,-.017101,0.0*
1,1,.0001,-.046985,-.017101*
20,1,.0001,-.046985,-.017101,-.04924,-.008682,0.0*
1,1,.0001,-.04924,-.008682*
20,1,.0001,-.04924,-.008682,-.05,0.0,0.0*
1,1,.0001,-.05,0.0*
20,1,.0001,-.05,0.0,-.04924,.008682,0.0*
1,1,.0001,-.04924,.008682*
20,1,.0001,-.04924,.008682,-.046985,.017101,0.0*
1,1,.0001,-.046985,.017101*
20,1,.0001,-.046985,.017101,-.043301,.025,0.0*
1,1,.0001,-.043301,.025*
20,1,.0001,-.043301,.025,-.038302,.032139,0.0*
1,1,.0001,-.038302,.032139*
20,1,.0001,-.038302,.032139,-.032139,.038302,0.0*
1,1,.0001,-.032139,.038302*
20,1,.0001,-.032139,.038302,-.025,.043301,0.0*
1,1,.0001,-.025,.043301*
20,1,.0001,-.025,.043301,-.017101,.046985,0.0*
1,1,.0001,-.017101,.046985*
20,1,.0001,-.017101,.046985,-.008682,.04924,0.0*
1,1,.0001,-.008682,.04924*
20,1,.0001,-.008682,.04924,0.0,.05,0.0*
1,1,.0001,0.0,.05*
20,1,.0001,0.0,.05,.008682,.04924,0.0*
1,1,.0001,.008682,.04924*
20,1,.0001,.008682,.04924,.017101,.046985,0.0*
1,1,.0001,.017101,.046985*
20,1,.0001,.017101,.046985,.025,.043301,0.0*
1,1,.0001,.025,.043301*
20,1,.0001,.025,.043301,.032139,.038302,0.0*
1,1,.0001,.032139,.038302*
20,1,.0001,.032139,.038302,.038302,.032139,0.0*
1,1,.0001,.038302,.032139*
20,1,.0001,.038302,.032139,.043301,.025,0.0*
1,1,.0001,.043301,.025*
20,1,.0001,.043301,.025,.046985,.017101,0.0*
1,1,.0001,.046985,.017101*
20,1,.0001,.046985,.017101,.04924,.008682,0.0*
1,1,.0001,.04924,.008682*
20,1,.0001,.04924,.008682,.05,0.0,0.0*
1,1,.0001,.05,0.0*
1,1,.0001,.0183,.0208*
20,1,.0001,.0183,.0208,.0133,.0233,0.0*
1,1,.0001,.0133,.0233*
20,1,.0001,.0133,.0233,.0075,.025,0.0*
1,1,.0001,.0075,.025*
20,1,.0001,.0075,.025,.0008,.025,0.0*
1,1,.0001,.0008,.025*
20,1,.0001,.0008,.025,-.0067,.0225,0.0*
1,1,.0001,-.0067,.0225*
20,1,.0001,-.0067,.0225,-.0125,.0183,0.0*
1,1,.0001,-.0125,.0183*
20,1,.0001,-.0125,.0183,-.0167,.0133,0.0*
1,1,.0001,-.0167,.0133*
20,1,.0001,-.0167,.0133,-.02,.005,0.0*
1,1,.0001,-.02,.005*
20,1,.0001,-.02,.005,-.0208,-.0025,0.0*
1,1,.0001,-.0208,-.0025*
20,1,.0001,-.0208,-.0025,-.0192,-.01,0.0*
1,1,.0001,-.0192,-.01*
20,1,.0001,-.0192,-.01,-.0167,-.015,0.0*
1,1,.0001,-.0167,-.015*
20,1,.0001,-.0167,-.015,-.0117,-.02,0.0*
1,1,.0001,-.0117,-.02*
20,1,.0001,-.0117,-.02,-.0058,-.0233,0.0*
1,1,.0001,-.0058,-.0233*
20,1,.0001,-.0058,-.0233,0.0,-.025,0.0*
1,1,.0001,0.0,-.025*
20,1,.0001,0.0,-.025,.0058,-.025,0.0*
1,1,.0001,.0058,-.025*
20,1,.0001,.0058,-.025,.0117,-.0233,0.0*
1,1,.0001,.0117,-.0233*
20,1,.0001,.0117,-.0233,.0167,-.0208,0.0*
1,1,.0001,.0167,-.0208*
20,1,.0001,.0167,-.0208,.0208,-.0175,0.0*
1,1,.0001,.0208,-.0175*
%
%ADD19MACRO19*%
%AMMACRO10*
1,1,.0001,0.0,.1*
20,1,.0001,0.0,.1,.1,-.1,0.0*
1,1,.0001,.1,-.1*
20,1,.0001,.1,-.1,-.1,-.1,0.0*
1,1,.0001,-.1,-.1*
20,1,.0001,-.1,-.1,0.0,.1,0.0*
1,1,.0001,0.0,.1*
%
%ADD10MACRO10*%
%AMMACRO15*
1,1,.0001,.09845,0.0*
20,1,.0001,.09845,0.0,.096954,-.017096,0.0*
1,1,.0001,.096954,-.017096*
20,1,.0001,.096954,-.017096,.092513,-.033672,0.0*
1,1,.0001,.092513,-.033672*
20,1,.0001,.092513,-.033672,.08526,-.049225,0.0*
1,1,.0001,.08526,-.049225*
20,1,.0001,.08526,-.049225,.075417,-.063282,0.0*
1,1,.0001,.075417,-.063282*
20,1,.0001,.075417,-.063282,.063282,-.075417,0.0*
1,1,.0001,.063282,-.075417*
20,1,.0001,.063282,-.075417,.049225,-.08526,0.0*
1,1,.0001,.049225,-.08526*
20,1,.0001,.049225,-.08526,.033672,-.092513,0.0*
1,1,.0001,.033672,-.092513*
20,1,.0001,.033672,-.092513,.017096,-.096954,0.0*
1,1,.0001,.017096,-.096954*
20,1,.0001,.017096,-.096954,0.0,-.09845,0.0*
1,1,.0001,0.0,-.09845*
20,1,.0001,0.0,-.09845,-.017096,-.096954,0.0*
1,1,.0001,-.017096,-.096954*
20,1,.0001,-.017096,-.096954,-.033672,-.092513,0.0*
1,1,.0001,-.033672,-.092513*
20,1,.0001,-.033672,-.092513,-.049225,-.08526,0.0*
1,1,.0001,-.049225,-.08526*
20,1,.0001,-.049225,-.08526,-.063282,-.075417,0.0*
1,1,.0001,-.063282,-.075417*
20,1,.0001,-.063282,-.075417,-.075417,-.063282,0.0*
1,1,.0001,-.075417,-.063282*
20,1,.0001,-.075417,-.063282,-.08526,-.049225,0.0*
1,1,.0001,-.08526,-.049225*
20,1,.0001,-.08526,-.049225,-.092513,-.033672,0.0*
1,1,.0001,-.092513,-.033672*
20,1,.0001,-.092513,-.033672,-.096954,-.017096,0.0*
1,1,.0001,-.096954,-.017096*
20,1,.0001,-.096954,-.017096,-.09845,0.0,0.0*
1,1,.0001,-.09845,0.0*
20,1,.0001,-.09845,0.0,-.096954,.017096,0.0*
1,1,.0001,-.096954,.017096*
20,1,.0001,-.096954,.017096,-.092513,.033672,0.0*
1,1,.0001,-.092513,.033672*
20,1,.0001,-.092513,.033672,-.08526,.049225,0.0*
1,1,.0001,-.08526,.049225*
20,1,.0001,-.08526,.049225,-.075417,.063282,0.0*
1,1,.0001,-.075417,.063282*
20,1,.0001,-.075417,.063282,-.063282,.075417,0.0*
1,1,.0001,-.063282,.075417*
20,1,.0001,-.063282,.075417,-.049225,.08526,0.0*
1,1,.0001,-.049225,.08526*
20,1,.0001,-.049225,.08526,-.033672,.092513,0.0*
1,1,.0001,-.033672,.092513*
20,1,.0001,-.033672,.092513,-.017096,.096954,0.0*
1,1,.0001,-.017096,.096954*
20,1,.0001,-.017096,.096954,0.0,.09845,0.0*
1,1,.0001,0.0,.09845*
20,1,.0001,0.0,.09845,.017096,.096954,0.0*
1,1,.0001,.017096,.096954*
20,1,.0001,.017096,.096954,.033672,.092513,0.0*
1,1,.0001,.033672,.092513*
20,1,.0001,.033672,.092513,.049225,.08526,0.0*
1,1,.0001,.049225,.08526*
20,1,.0001,.049225,.08526,.063282,.075417,0.0*
1,1,.0001,.063282,.075417*
20,1,.0001,.063282,.075417,.075417,.063282,0.0*
1,1,.0001,.075417,.063282*
20,1,.0001,.075417,.063282,.08526,.049225,0.0*
1,1,.0001,.08526,.049225*
20,1,.0001,.08526,.049225,.092513,.033672,0.0*
1,1,.0001,.092513,.033672*
20,1,.0001,.092513,.033672,.096954,.017096,0.0*
1,1,.0001,.096954,.017096*
20,1,.0001,.096954,.017096,.09845,0.0,0.0*
1,1,.0001,.09845,0.0*
1,1,.0001,0.0,-.0492*
20,1,.0001,0.0,-.0492,0.0,.0492,0.0*
1,1,.0001,0.0,.0492*
20,1,.0001,0.0,.0492,-.0197,.0295,0.0*
1,1,.0001,-.0197,.0295*
1,1,.0001,-.0197,-.0492*
20,1,.0001,-.0197,-.0492,.0197,-.0492,0.0*
1,1,.0001,.0197,-.0492*
%
%ADD15MACRO15*%
%AMMACRO14*
1,1,.0001,0.0,0.0*
%
%ADD14MACRO14*%
%AMMACRO16*
1,1,.0001,0.0,.03*
20,1,.0001,0.0,.03,.03,-.03,0.0*
1,1,.0001,.03,-.03*
20,1,.0001,.03,-.03,-.03,-.03,0.0*
1,1,.0001,-.03,-.03*
20,1,.0001,-.03,-.03,0.0,.03,0.0*
1,1,.0001,0.0,.03*
%
%ADD16MACRO16*%
%AMMACRO11*
1,1,.0001,0.0,.012*
20,1,.0001,0.0,.012,.012,-.012,0.0*
1,1,.0001,.012,-.012*
20,1,.0001,.012,-.012,-.012,-.012,0.0*
1,1,.0001,-.012,-.012*
20,1,.0001,-.012,-.012,0.0,.012,0.0*
1,1,.0001,0.0,.012*
%
%ADD11MACRO11*%
%AMMACRO18*
1,1,.0001,0.0,2.85*
20,1,.0001,0.0,2.85,2.85,-2.85,0.0*
1,1,.0001,2.85,-2.85*
20,1,.0001,2.85,-2.85,-2.85,-2.85,0.0*
1,1,.0001,-2.85,-2.85*
20,1,.0001,-2.85,-2.85,0.0,2.85,0.0*
1,1,.0001,0.0,2.85*
%
%ADD18MACRO18*%
%AMMACRO23*
1,1,.0001,-.015,.06*
20,1,.0001,-.015,.06,.015,.06,0.0*
1,1,.0001,.015,.06*
20,1,.0001,.015,.06,.015,-.06,0.0*
1,1,.0001,.015,-.06*
20,1,.0001,.015,-.06,-.015,-.06,0.0*
1,1,.0001,-.015,-.06*
20,1,.0001,-.015,-.06,-.015,.06,0.0*
1,1,.0001,-.015,.06*
%
%ADD23MACRO23*%
%AMMACRO20*
1,1,.0001,-.06,.015*
20,1,.0001,-.06,.015,.06,.015,0.0*
1,1,.0001,.06,.015*
20,1,.0001,.06,.015,.06,-.015,0.0*
1,1,.0001,.06,-.015*
20,1,.0001,.06,-.015,-.06,-.015,0.0*
1,1,.0001,-.06,-.015*
20,1,.0001,-.06,-.015,-.06,.015,0.0*
1,1,.0001,-.06,.015*
%
%ADD20MACRO20*%
%AMMACRO22*
1,1,.0001,.06005,.01495*
20,1,.0001,.06005,.01495,.06005,-.01495,0.0*
1,1,.0001,.06005,-.01495*
20,1,.0001,.06005,-.01495,-.06005,-.01495,0.0*
1,1,.0001,-.06005,-.01495*
20,1,.0001,-.06005,-.01495,-.06005,.01495,0.0*
1,1,.0001,-.06005,.01495*
20,1,.0001,-.06005,.01495,.06005,.01495,0.0*
1,1,.0001,.06005,.01495*
%
%ADD22MACRO22*%
%AMMACRO21*
1,1,.0001,.01495,.06005*
20,1,.0001,.01495,.06005,.01495,-.06005,0.0*
1,1,.0001,.01495,-.06005*
20,1,.0001,.01495,-.06005,-.01495,-.06005,0.0*
1,1,.0001,-.01495,-.06005*
20,1,.0001,-.01495,-.06005,-.01495,.06005,0.0*
1,1,.0001,-.01495,.06005*
20,1,.0001,-.01495,.06005,.01495,.06005,0.0*
1,1,.0001,.01495,.06005*
%
%ADD21MACRO21*%
%ADD24C,.0001*%
G75*
%LPD*%
G75*
G36*
G01X635500Y424830D02*
Y419790D01*
X638000D01*
Y231630D01*
X635500D01*
Y226590D01*
X650500D01*
Y231630D01*
X648000D01*
Y419790D01*
X650500D01*
Y424830D01*
X635500D01*
G37*
G36*
G01X279000Y-350850D02*
Y-367350D01*
X242850D01*
Y-350850D01*
X279000D01*
G37*
G36*
G01X615500Y226590D02*
Y231630D01*
X695500D01*
Y226590D01*
X615500D01*
G37*
G36*
G01Y265230D02*
Y270270D01*
X695500D01*
Y265230D01*
X615500D01*
G37*
G36*
G01Y303870D02*
Y308910D01*
X695500D01*
Y303870D01*
X615500D01*
G37*
G36*
G01Y342510D02*
Y347550D01*
X695500D01*
Y342510D01*
X615500D01*
G37*
G36*
G01Y381150D02*
Y386190D01*
X695500D01*
Y381150D01*
X615500D01*
G37*
G36*
G01Y419790D02*
Y424830D01*
X695500D01*
Y419790D01*
X615500D01*
G37*
G36*
G01X655500D02*
Y427350D01*
X668000D01*
Y419790D01*
X655500D01*
G37*
G54D10*
X-435000Y-435000D03*
D03*
Y435000D03*
D03*
X-400000Y-400000D03*
D03*
Y400000D03*
D03*
X400000Y-400000D03*
D03*
Y400000D03*
D03*
X435000Y-435000D03*
D03*
Y435000D03*
D03*
G54D20*
X260000Y-414310D03*
Y-390690D03*
G54D11*
X-419880Y-302850D03*
D03*
X-422500Y-287500D03*
D03*
X-419880Y-292620D03*
D03*
Y-297740D03*
D03*
X-392500Y-317500D03*
D03*
X-405000Y-312500D03*
D03*
X-410180Y-305410D03*
D03*
X-392950Y-280000D03*
D03*
X-400450Y-287500D03*
D03*
X-397380Y-292620D03*
D03*
X-410180Y-295180D03*
D03*
Y-300300D03*
D03*
X-362500Y-442500D03*
D03*
Y-427500D03*
D03*
X-382500Y-346460D03*
D03*
X-386250Y-343900D03*
D03*
X-382500Y-341340D03*
D03*
X-386250Y-338780D03*
D03*
X-382500Y-336220D03*
D03*
X-386250Y-333660D03*
D03*
X-382500Y-331100D03*
D03*
X-386250Y-328540D03*
D03*
X-372400Y15300D03*
D03*
X-365700Y32800D03*
D03*
X-352500Y-442500D03*
D03*
X-342500D03*
D03*
X-332500D03*
D03*
Y-427500D03*
D03*
X-342500D03*
D03*
X-352500D03*
D03*
X-347500Y-362500D03*
D03*
X-337500D03*
D03*
X-332560Y-349940D03*
D03*
X-338750Y-308840D03*
D03*
X-342500Y-311400D03*
D03*
X-338750Y-313960D03*
D03*
X-342500Y-296040D03*
D03*
X-340000Y-174950D03*
D03*
X-345400Y-168600D03*
D03*
X-322500Y-442500D03*
D03*
X-312500D03*
D03*
X-302500D03*
D03*
X-312500Y-427500D03*
D03*
X-322500D03*
D03*
X-307500Y-422500D03*
D03*
X-302500Y-427500D03*
D03*
Y-385690D03*
D03*
X-327500Y-362500D03*
D03*
X-317500D03*
D03*
X-307500D03*
D03*
X-327500Y-385690D03*
D03*
X-322500D03*
D03*
X-312500D03*
D03*
X-307500D03*
D03*
X-317500D03*
D03*
X-319940Y-349940D03*
D03*
X-302440Y-334940D03*
D03*
X-327620Y-347380D03*
D03*
X-299880Y-332380D03*
D03*
X-302440Y-342560D03*
D03*
X-310060Y-347380D03*
D03*
X-319940Y-344820D03*
D03*
X-324660Y-342260D03*
D03*
X-320800Y-339700D03*
D03*
X-324660Y-337150D03*
D03*
X-320800Y-334590D03*
D03*
X-324660Y-332030D03*
D03*
X-321910Y-326910D03*
D03*
X-309200Y-329470D03*
D03*
X-298960Y-277500D03*
D03*
X-301000Y-40000D03*
D03*
X-316000Y-10000D03*
D03*
X-311000Y-20000D03*
D03*
X-306000Y-30000D03*
D03*
X-326000Y10000D03*
D03*
X-321000Y0D03*
D03*
X-319060Y205800D03*
D03*
X-304300Y216290D03*
D03*
X-292500Y-442500D03*
D03*
X-282500D03*
D03*
X-272500D03*
D03*
X-277500Y-422500D03*
D03*
X-282500D03*
D03*
X-287500D03*
D03*
X-292500D03*
D03*
X-297500D03*
D03*
Y-385690D03*
D03*
X-292500D03*
D03*
X-287500D03*
D03*
X-282500D03*
D03*
X-277500D03*
D03*
X-272500D03*
D03*
X-297500Y-362500D03*
D03*
X-286540Y-364640D03*
D03*
X-277500Y-335000D03*
D03*
Y-345000D03*
D03*
X-289650Y-345350D03*
D03*
X-287090Y-342910D03*
D03*
X-284530Y-340470D03*
D03*
X-281970Y-338030D03*
D03*
X-270000Y-320000D03*
D03*
X-296400Y-273750D03*
D03*
X-293840Y-277500D03*
D03*
X-291280Y-273750D03*
D03*
X-287320Y-154340D03*
D03*
X-268660Y-166660D03*
D03*
X-277990Y-160500D03*
D03*
X-296000Y-50000D03*
D03*
X-291000Y-60000D03*
D03*
X-280670Y115860D03*
D03*
X-281340Y104700D03*
D03*
X-282010Y93540D03*
D03*
X-278660Y149340D03*
D03*
X-279330Y138180D03*
D03*
X-280000Y127020D03*
D03*
X-277320Y171660D03*
D03*
X-277990Y160500D03*
D03*
X-262500Y-442500D03*
D03*
X-252500D03*
D03*
X-242500D03*
D03*
X-262500Y-422500D03*
D03*
X-267500D03*
D03*
X-242500Y-427500D03*
D03*
X-252500D03*
D03*
X-242500Y-377500D03*
D03*
Y-385690D03*
D03*
X-267500D03*
D03*
X-262500D03*
D03*
X-257500D03*
D03*
X-252500D03*
D03*
X-247500D03*
D03*
X-242500Y-362500D03*
D03*
X-265650Y-353150D03*
D03*
X-247950Y-354550D03*
D03*
X-261380Y-332680D03*
D03*
X-264670Y-335240D03*
D03*
X-261380Y-337800D03*
D03*
X-242620Y-330120D03*
D03*
X-254940Y-327560D03*
D03*
X-264670Y-330120D03*
D03*
X-240670Y-185140D03*
D03*
X-259330Y-172820D03*
D03*
X-250000Y-178980D03*
D03*
X-212500Y-442500D03*
D03*
X-232500D03*
D03*
X-222500D03*
D03*
Y-427500D03*
D03*
X-232500D03*
D03*
X-212500D03*
D03*
X-237500Y-412500D03*
D03*
X-214820Y-314200D03*
D03*
X-231340Y-191300D03*
D03*
X-222010Y-197460D03*
D03*
X-185000Y-440000D03*
D03*
X-192500Y-437500D03*
D03*
X-204650Y-427850D03*
D03*
X-195350Y-430410D03*
D03*
X-204650Y-432970D03*
D03*
X-195350Y-435530D03*
D03*
X-184880Y-417620D03*
D03*
X-183940Y-404900D03*
D03*
X-196250Y-399400D03*
D03*
X-189900Y-412500D03*
D03*
X-195060Y-415060D03*
D03*
X-203750Y-399400D03*
D03*
X-207380Y-417620D03*
D03*
X-189240Y-365200D03*
D03*
X-188940Y-374400D03*
D03*
X-195100Y-365500D03*
D03*
Y-385500D03*
D03*
X-196250Y-379400D03*
D03*
X-193750Y-351460D03*
D03*
X-197500Y-348900D03*
D03*
X-193750Y-346340D03*
D03*
X-197500Y-343780D03*
D03*
Y-333540D03*
D03*
X-193750Y-336100D03*
D03*
X-197500Y-338660D03*
D03*
X-193750Y-341220D03*
D03*
X-207600Y-317450D03*
D03*
X-191300Y231340D03*
D03*
X-197460Y222010D03*
D03*
X-178980Y250000D03*
D03*
X-185140Y240670D03*
D03*
X-176060Y-395100D03*
D03*
X-171700Y-412500D03*
D03*
X-176160Y-379300D03*
D03*
X-176460Y-360300D03*
D03*
X-171660Y-277320D03*
D03*
X-149340Y-278660D03*
D03*
X-160500Y-277990D03*
D03*
X-166660Y268660D03*
D03*
X-172820Y259330D03*
D03*
X-154340Y287320D03*
D03*
X-160500Y277990D03*
D03*
X-174130Y335000D03*
D03*
X-155100Y336500D03*
D03*
X-139240Y-423660D03*
D03*
X-142200Y-421100D03*
D03*
Y-426220D03*
D03*
X-139240Y-418540D03*
D03*
X-138180Y-279330D03*
D03*
X-127020Y-280000D03*
D03*
X-95000Y-440650D03*
D03*
X-95700Y-412500D03*
D03*
X-90080Y-334140D03*
D03*
X-89490Y-329920D03*
D03*
X-115860Y-280670D03*
D03*
X-104700Y-281340D03*
D03*
X-93540Y-282010D03*
D03*
X-74900Y-412600D03*
D03*
X-86720Y-417620D03*
D03*
X-85660Y-333350D03*
D03*
X-60000Y291000D03*
D03*
X-30000Y-426160D03*
D03*
Y-431280D03*
D03*
Y-436400D03*
D03*
Y-421040D03*
D03*
X-33700Y-366600D03*
D03*
X-50000Y296000D03*
D03*
X-30000Y306000D03*
D03*
X-40000Y301000D03*
D03*
X-26250Y-423600D03*
D03*
Y-428720D03*
D03*
Y-433840D03*
D03*
Y-438960D03*
D03*
X-11400Y-370300D03*
D03*
X-10000Y-326000D03*
D03*
X0Y-321000D03*
D03*
X-10000Y316000D03*
D03*
X-20000Y311000D03*
D03*
X0Y321000D03*
D03*
X10000Y-316000D03*
D03*
X20000Y-311000D03*
D03*
X30000Y-306000D03*
D03*
X10000Y326000D03*
D03*
X15900Y377600D03*
D03*
X40000Y-301000D03*
D03*
X50000Y-296000D03*
D03*
X60000Y-291000D03*
D03*
X33200Y370000D03*
D03*
X115860Y280670D03*
D03*
X104700Y281340D03*
D03*
X93540Y282010D03*
D03*
X149990Y-340200D03*
D03*
X149340Y278660D03*
D03*
X138180Y279330D03*
D03*
X127020Y280000D03*
D03*
X176290Y-337200D03*
D03*
X161000Y-345500D03*
D03*
X154340Y-287320D03*
D03*
X160500Y-277990D03*
D03*
X166660Y-268660D03*
D03*
X172820Y-259330D03*
D03*
X178980Y-250000D03*
D03*
X171660Y277320D03*
D03*
X160500Y277990D03*
D03*
X209700Y-366500D03*
D03*
X185140Y-240670D03*
D03*
X191300Y-231340D03*
D03*
X197460Y-222010D03*
D03*
X202300Y319700D03*
D03*
X214100Y-379900D03*
D03*
X234800Y-362100D03*
D03*
Y-364600D03*
D03*
X237300Y-362100D03*
D03*
Y-364600D03*
D03*
X239800Y-362100D03*
D03*
Y-364600D03*
D03*
X212900Y-352900D03*
D03*
X234800Y-352100D03*
D03*
Y-354600D03*
D03*
Y-357100D03*
D03*
Y-359600D03*
D03*
X237300Y-352100D03*
D03*
Y-354600D03*
D03*
Y-357100D03*
D03*
Y-359600D03*
D03*
X239800Y-352100D03*
D03*
Y-354600D03*
D03*
Y-357100D03*
D03*
Y-359600D03*
D03*
X240670Y185140D03*
D03*
X231340Y191300D03*
D03*
X222010Y197460D03*
D03*
X218300Y310800D03*
D03*
X252900Y-383600D03*
D03*
X255400D03*
D03*
X257900D03*
D03*
X260400D03*
D03*
X262900D03*
D03*
X265400D03*
D03*
X252900Y-381100D03*
D03*
X255400D03*
D03*
X257900D03*
D03*
X260400D03*
D03*
X262900D03*
D03*
X265400D03*
D03*
X252900Y-378600D03*
D03*
X255400D03*
D03*
X257900D03*
D03*
X260400D03*
D03*
X262900D03*
D03*
X265400D03*
D03*
X260700Y-347900D03*
D03*
X254940Y-306900D03*
D03*
X259600Y-321300D03*
D03*
Y-330800D03*
D03*
X259800Y-296600D03*
D03*
X268660Y166660D03*
D03*
X259330Y172820D03*
D03*
X250000Y178980D03*
D03*
X297500Y-400000D03*
D03*
X295000D03*
D03*
X292500D03*
D03*
X290000D03*
D03*
X287500D03*
D03*
X285000D03*
D03*
X297500Y-402500D03*
D03*
X295000D03*
D03*
X292500D03*
D03*
X290000D03*
D03*
X287500D03*
D03*
X285000D03*
D03*
X297500Y-405000D03*
D03*
X295000D03*
D03*
X292500D03*
D03*
X290000D03*
D03*
X287500D03*
D03*
X285000D03*
D03*
X290100Y-363200D03*
D03*
Y-365700D03*
D03*
Y-368200D03*
D03*
Y-370700D03*
D03*
X292600Y-363200D03*
D03*
Y-365700D03*
D03*
Y-368200D03*
D03*
Y-370700D03*
D03*
X295100Y-363200D03*
D03*
Y-365700D03*
D03*
Y-368200D03*
D03*
Y-370700D03*
D03*
X297800Y-331700D03*
D03*
X300300D03*
D03*
X290100Y-360700D03*
D03*
X292600D03*
D03*
X295100D03*
D03*
Y-358200D03*
D03*
X292600D03*
D03*
X290100D03*
D03*
X297800Y-305500D03*
D03*
X300300D03*
D03*
X297800Y-303000D03*
D03*
X300300D03*
D03*
X297800Y-313900D03*
D03*
X300300D03*
D03*
X297800Y-311400D03*
D03*
X300300D03*
D03*
X297800Y-308900D03*
D03*
X300300D03*
D03*
X297700Y-322800D03*
D03*
X300200D03*
D03*
X297700Y-320300D03*
D03*
X300200D03*
D03*
X297700Y-317800D03*
D03*
X300200D03*
D03*
X297800Y-329200D03*
D03*
X300300D03*
D03*
X297800Y-326700D03*
D03*
X300300D03*
D03*
X297800Y-300500D03*
D03*
X300300D03*
D03*
X301390Y-211300D03*
D03*
X277320Y-171660D03*
D03*
X277990Y-160500D03*
D03*
X278660Y-149340D03*
D03*
X279330Y-138180D03*
D03*
X280000Y-127020D03*
D03*
X280670Y-115860D03*
D03*
X281340Y-104700D03*
D03*
X282010Y-93540D03*
D03*
X301000Y40000D03*
D03*
X296000Y50000D03*
D03*
X291000Y60000D03*
D03*
X287320Y154340D03*
D03*
X277990Y160500D03*
D03*
X292100Y273600D03*
D03*
Y315500D03*
D03*
X302800Y-331700D03*
D03*
X305300D03*
D03*
X307800D03*
D03*
X310300D03*
D03*
X302800Y-305500D03*
D03*
X305300D03*
D03*
X307800D03*
D03*
X310300D03*
D03*
X302800Y-303000D03*
D03*
X305300D03*
D03*
X307800D03*
D03*
X310300D03*
D03*
X302800Y-313900D03*
D03*
X305300D03*
D03*
X307800D03*
D03*
X310300D03*
D03*
X302800Y-311400D03*
D03*
X305300D03*
D03*
X307800D03*
D03*
X310300D03*
D03*
X302800Y-308900D03*
D03*
X305300D03*
D03*
X307800D03*
D03*
X310300D03*
D03*
X302700Y-322800D03*
D03*
X305200D03*
D03*
X307700D03*
D03*
X310200D03*
D03*
X302700Y-320300D03*
D03*
X305200D03*
D03*
X307700D03*
D03*
X310200D03*
D03*
X302700Y-317800D03*
D03*
X305200D03*
D03*
X307700D03*
D03*
X310200D03*
D03*
X302800Y-329200D03*
D03*
X305300D03*
D03*
X307800D03*
D03*
X310300D03*
D03*
X302800Y-326700D03*
D03*
X305300D03*
D03*
X307800D03*
D03*
X310300D03*
D03*
X302800Y-300500D03*
D03*
X305300D03*
D03*
X307800D03*
D03*
X310300D03*
D03*
X309940Y-223180D03*
D03*
X320800Y-208170D03*
D03*
X326000Y-10000D03*
D03*
X316000Y10000D03*
D03*
X311000Y20000D03*
D03*
X321000Y0D03*
D03*
X306000Y30000D03*
D03*
X339160Y172600D03*
D03*
X334200Y153600D03*
D03*
X356700Y289500D03*
D03*
Y313600D03*
D03*
X368800Y-32100D03*
D03*
X365980Y-39730D03*
D03*
X376500Y-15500D03*
D03*
X392300Y-320000D03*
D03*
X394800D03*
D03*
X397300D03*
D03*
X399800D03*
D03*
X402300D03*
D03*
X404800D03*
D03*
X392300Y-317500D03*
D03*
X394800D03*
D03*
X397300D03*
D03*
X399800D03*
D03*
X402300D03*
D03*
X404800D03*
D03*
X392300Y-315000D03*
D03*
X394800D03*
D03*
X397300D03*
D03*
X399800D03*
D03*
X402300D03*
D03*
X404800D03*
D03*
G54D21*
X278500Y-402500D03*
G54D12*
X-419880Y-302850D03*
X-422500Y-287500D03*
X-419880Y-292620D03*
Y-297740D03*
X-392500Y-317500D03*
X-405000Y-312500D03*
X-410180Y-305410D03*
X-392950Y-280000D03*
X-400450Y-287500D03*
X-397380Y-292620D03*
X-410180Y-295180D03*
Y-300300D03*
X-362500Y-442500D03*
Y-427500D03*
X-382500Y-346460D03*
X-386250Y-343900D03*
X-382500Y-341340D03*
X-386250Y-338780D03*
X-382500Y-336220D03*
X-386250Y-333660D03*
X-382500Y-331100D03*
X-386250Y-328540D03*
X-372400Y15300D03*
X-365700Y32800D03*
X-352500Y-442500D03*
X-342500D03*
X-332500D03*
Y-427500D03*
X-342500D03*
X-352500D03*
X-347500Y-362500D03*
X-337500D03*
X-332560Y-349940D03*
X-338750Y-308840D03*
X-342500Y-311400D03*
X-338750Y-313960D03*
X-342500Y-296040D03*
X-340000Y-174950D03*
X-345400Y-168600D03*
X-322500Y-442500D03*
X-312500D03*
X-302500D03*
X-312500Y-427500D03*
X-322500D03*
X-307500Y-422500D03*
X-302500Y-427500D03*
Y-385690D03*
X-327500Y-362500D03*
X-317500D03*
X-307500D03*
X-327500Y-385690D03*
X-322500D03*
X-312500D03*
X-307500D03*
X-317500D03*
X-319940Y-349940D03*
X-302440Y-334940D03*
X-327620Y-347380D03*
X-299880Y-332380D03*
X-302440Y-342560D03*
X-310060Y-347380D03*
X-319940Y-344820D03*
X-324660Y-342260D03*
X-320800Y-339700D03*
X-324660Y-337150D03*
X-320800Y-334590D03*
X-324660Y-332030D03*
X-321910Y-326910D03*
X-309200Y-329470D03*
X-298960Y-277500D03*
X-301000Y-40000D03*
X-316000Y-10000D03*
X-311000Y-20000D03*
X-306000Y-30000D03*
X-326000Y10000D03*
X-321000Y0D03*
X-319060Y205800D03*
X-304300Y216290D03*
X-292500Y-442500D03*
X-282500D03*
X-272500D03*
X-277500Y-422500D03*
X-282500D03*
X-287500D03*
X-292500D03*
X-297500D03*
Y-385690D03*
X-292500D03*
X-287500D03*
X-282500D03*
X-277500D03*
X-272500D03*
X-297500Y-362500D03*
X-286540Y-364640D03*
X-277500Y-335000D03*
Y-345000D03*
X-289650Y-345350D03*
X-287090Y-342910D03*
X-284530Y-340470D03*
X-281970Y-338030D03*
X-270000Y-320000D03*
X-296400Y-273750D03*
X-293840Y-277500D03*
X-291280Y-273750D03*
X-287320Y-154340D03*
X-268660Y-166660D03*
X-277990Y-160500D03*
X-296000Y-50000D03*
X-291000Y-60000D03*
X-280670Y115860D03*
X-281340Y104700D03*
X-282010Y93540D03*
X-278660Y149340D03*
X-279330Y138180D03*
X-280000Y127020D03*
X-277320Y171660D03*
X-277990Y160500D03*
X-262500Y-442500D03*
X-252500D03*
X-242500D03*
X-262500Y-422500D03*
X-267500D03*
X-242500Y-427500D03*
X-252500D03*
X-242500Y-377500D03*
Y-385690D03*
X-267500D03*
X-262500D03*
X-257500D03*
X-252500D03*
X-247500D03*
X-242500Y-362500D03*
X-265650Y-353150D03*
X-247950Y-354550D03*
X-261380Y-332680D03*
X-264670Y-335240D03*
X-261380Y-337800D03*
X-242620Y-330120D03*
X-254940Y-327560D03*
X-264670Y-330120D03*
X-240670Y-185140D03*
X-259330Y-172820D03*
X-250000Y-178980D03*
X-212500Y-442500D03*
X-232500D03*
X-222500D03*
Y-427500D03*
X-232500D03*
X-212500D03*
X-237500Y-412500D03*
X-214820Y-314200D03*
X-231340Y-191300D03*
X-222010Y-197460D03*
X-185000Y-440000D03*
X-192500Y-437500D03*
X-204650Y-427850D03*
X-195350Y-430410D03*
X-204650Y-432970D03*
X-195350Y-435530D03*
X-184880Y-417620D03*
X-183940Y-404900D03*
X-196250Y-399400D03*
X-189900Y-412500D03*
X-195060Y-415060D03*
X-203750Y-399400D03*
X-207380Y-417620D03*
X-189240Y-365200D03*
X-188940Y-374400D03*
X-195100Y-365500D03*
Y-385500D03*
X-196250Y-379400D03*
X-193750Y-351460D03*
X-197500Y-348900D03*
X-193750Y-346340D03*
X-197500Y-343780D03*
Y-333540D03*
X-193750Y-336100D03*
X-197500Y-338660D03*
X-193750Y-341220D03*
X-207600Y-317450D03*
X-191300Y231340D03*
X-197460Y222010D03*
X-178980Y250000D03*
X-185140Y240670D03*
X-176060Y-395100D03*
X-171700Y-412500D03*
X-176160Y-379300D03*
X-176460Y-360300D03*
X-171660Y-277320D03*
X-149340Y-278660D03*
X-160500Y-277990D03*
X-166660Y268660D03*
X-172820Y259330D03*
X-154340Y287320D03*
X-160500Y277990D03*
X-174130Y335000D03*
X-155100Y336500D03*
X-139240Y-423660D03*
X-142200Y-421100D03*
Y-426220D03*
X-139240Y-418540D03*
X-138180Y-279330D03*
X-127020Y-280000D03*
X-95000Y-440650D03*
X-95700Y-412500D03*
X-90080Y-334140D03*
X-89490Y-329920D03*
X-115860Y-280670D03*
X-104700Y-281340D03*
X-93540Y-282010D03*
X-74900Y-412600D03*
X-86720Y-417620D03*
X-85660Y-333350D03*
X-60000Y291000D03*
X-30000Y-426160D03*
Y-431280D03*
Y-436400D03*
Y-421040D03*
X-33700Y-366600D03*
X-50000Y296000D03*
X-30000Y306000D03*
X-40000Y301000D03*
X-26250Y-423600D03*
Y-428720D03*
Y-433840D03*
Y-438960D03*
X-11400Y-370300D03*
X-10000Y-326000D03*
X0Y-321000D03*
X-10000Y316000D03*
X-20000Y311000D03*
X0Y321000D03*
X10000Y-316000D03*
X20000Y-311000D03*
X30000Y-306000D03*
X10000Y326000D03*
X15900Y377600D03*
X40000Y-301000D03*
X50000Y-296000D03*
X60000Y-291000D03*
X33200Y370000D03*
X115860Y280670D03*
X104700Y281340D03*
X93540Y282010D03*
X149990Y-340200D03*
X149340Y278660D03*
X138180Y279330D03*
X127020Y280000D03*
X176290Y-337200D03*
X161000Y-345500D03*
X154340Y-287320D03*
X160500Y-277990D03*
X166660Y-268660D03*
X172820Y-259330D03*
X178980Y-250000D03*
X171660Y277320D03*
X160500Y277990D03*
X209700Y-366500D03*
X185140Y-240670D03*
X191300Y-231340D03*
X197460Y-222010D03*
X202300Y319700D03*
X214100Y-379900D03*
X234800Y-362100D03*
Y-364600D03*
X237300Y-362100D03*
Y-364600D03*
X239800Y-362100D03*
Y-364600D03*
X212900Y-352900D03*
X234800Y-352100D03*
Y-354600D03*
Y-357100D03*
Y-359600D03*
X237300Y-352100D03*
Y-354600D03*
Y-357100D03*
Y-359600D03*
X239800Y-352100D03*
Y-354600D03*
Y-357100D03*
Y-359600D03*
X240670Y185140D03*
X231340Y191300D03*
X222010Y197460D03*
X218300Y310800D03*
X252900Y-383600D03*
X255400D03*
X257900D03*
X260400D03*
X262900D03*
X265400D03*
X252900Y-381100D03*
X255400D03*
X257900D03*
X260400D03*
X262900D03*
X265400D03*
X252900Y-378600D03*
X255400D03*
X257900D03*
X260400D03*
X262900D03*
X265400D03*
X260700Y-347900D03*
X254940Y-306900D03*
X259600Y-321300D03*
Y-330800D03*
X259800Y-296600D03*
X268660Y166660D03*
X259330Y172820D03*
X250000Y178980D03*
X297500Y-400000D03*
X295000D03*
X292500D03*
X290000D03*
X287500D03*
X285000D03*
X297500Y-402500D03*
X295000D03*
X292500D03*
X290000D03*
X287500D03*
X285000D03*
X297500Y-405000D03*
X295000D03*
X292500D03*
X290000D03*
X287500D03*
X285000D03*
X290100Y-363200D03*
Y-365700D03*
Y-368200D03*
Y-370700D03*
X292600Y-363200D03*
Y-365700D03*
Y-368200D03*
Y-370700D03*
X295100Y-363200D03*
Y-365700D03*
Y-368200D03*
Y-370700D03*
X297800Y-331700D03*
X300300D03*
X290100Y-360700D03*
X292600D03*
X295100D03*
Y-358200D03*
X292600D03*
X290100D03*
X297800Y-305500D03*
X300300D03*
X297800Y-303000D03*
X300300D03*
X297800Y-313900D03*
X300300D03*
X297800Y-311400D03*
X300300D03*
X297800Y-308900D03*
X300300D03*
X297700Y-322800D03*
X300200D03*
X297700Y-320300D03*
X300200D03*
X297700Y-317800D03*
X300200D03*
X297800Y-329200D03*
X300300D03*
X297800Y-326700D03*
X300300D03*
X297800Y-300500D03*
X300300D03*
X301390Y-211300D03*
X277320Y-171660D03*
X277990Y-160500D03*
X278660Y-149340D03*
X279330Y-138180D03*
X280000Y-127020D03*
X280670Y-115860D03*
X281340Y-104700D03*
X282010Y-93540D03*
X301000Y40000D03*
X296000Y50000D03*
X291000Y60000D03*
X287320Y154340D03*
X277990Y160500D03*
X292100Y273600D03*
Y315500D03*
X302800Y-331700D03*
X305300D03*
X307800D03*
X310300D03*
X302800Y-305500D03*
X305300D03*
X307800D03*
X310300D03*
X302800Y-303000D03*
X305300D03*
X307800D03*
X310300D03*
X302800Y-313900D03*
X305300D03*
X307800D03*
X310300D03*
X302800Y-311400D03*
X305300D03*
X307800D03*
X310300D03*
X302800Y-308900D03*
X305300D03*
X307800D03*
X310300D03*
X302700Y-322800D03*
X305200D03*
X307700D03*
X310200D03*
X302700Y-320300D03*
X305200D03*
X307700D03*
X310200D03*
X302700Y-317800D03*
X305200D03*
X307700D03*
X310200D03*
X302800Y-329200D03*
X305300D03*
X307800D03*
X310300D03*
X302800Y-326700D03*
X305300D03*
X307800D03*
X310300D03*
X302800Y-300500D03*
X305300D03*
X307800D03*
X310300D03*
X309940Y-223180D03*
X320800Y-208170D03*
X326000Y-10000D03*
X316000Y10000D03*
X311000Y20000D03*
X321000Y0D03*
X306000Y30000D03*
X339160Y172600D03*
X334200Y153600D03*
X356700Y289500D03*
Y313600D03*
X368800Y-32100D03*
X365980Y-39730D03*
X376500Y-15500D03*
X392300Y-320000D03*
X394800D03*
X397300D03*
X399800D03*
X402300D03*
X404800D03*
X392300Y-317500D03*
X394800D03*
X397300D03*
X399800D03*
X402300D03*
X404800D03*
X392300Y-315000D03*
X394800D03*
X397300D03*
X399800D03*
X402300D03*
X404800D03*
X637050Y70750D03*
G54D22*
Y-69750D03*
G54D13*
X-343640Y-404090D03*
X-236440D03*
X260000Y-414310D03*
D03*
Y-390690D03*
D03*
X278500Y-402500D03*
D03*
G54D23*
X637050Y-41650D03*
G54D14*
X-343640Y-404090D03*
X-236440D03*
G54D24*
G01X-460000Y-480000D02*
G03I-15000J5000D01*
G01X-465000D02*
G03I-10000J5000D01*
G01X-495000Y-475000D02*
X-455000D01*
G01X-485000Y500000D02*
Y460000D01*
G01X-470000Y475000D02*
G03I-15000J5000D01*
G01X-475000D02*
G03I-10000J5000D01*
G01X-505000Y480000D02*
X-465000D01*
G01X-475000Y-455000D02*
Y-495000D01*
G01X-450000Y-450000D02*
X450000D01*
Y450000D01*
X-450000D01*
Y-450000D01*
G01Y460000D02*
Y590000D01*
G01X-12620Y580000D02*
X-450000D01*
G01X-435000Y582500D02*
X-450000Y580000D01*
X-435000Y577500D01*
Y582500D01*
G01X-376500Y-400000D02*
G03I-23500J0D01*
G01Y399930D02*
G03I-23500J2D01*
G01X275000Y0D02*
G03I-275000J0D01*
G01X0Y-9000D02*
Y9000D01*
G01Y-9000D02*
Y9000D01*
G01X-9000Y0D02*
X9000D01*
G01X-9000D02*
X9000D01*
G01X-1240Y575210D02*
X-150Y574170D01*
X1090Y573750D01*
X2330Y574170D01*
X3410Y575420D01*
X4190Y577290D01*
X4500Y579170D01*
Y581460D01*
X4190Y583330D01*
X3410Y585000D01*
X2480Y585830D01*
X1400Y586250D01*
X160Y585830D01*
X-770Y585000D01*
X-1390Y583750D01*
X-1700Y582080D01*
X-1390Y580630D01*
X-610Y579170D01*
X320Y578330D01*
X1400Y578120D01*
X2640Y578540D01*
X3570Y579580D01*
X4500Y581460D01*
G01X13800Y573330D02*
X13490Y573540D01*
Y573960D01*
X13800Y574170D01*
X14110Y573960D01*
Y573540D01*
X13800Y573330D01*
G01X26200Y586250D02*
X24960Y585830D01*
X24030Y584790D01*
X23410Y583540D01*
X22940Y581870D01*
X22790Y580000D01*
X22940Y578120D01*
X23410Y576460D01*
X24030Y575210D01*
X24960Y574170D01*
X26200Y573750D01*
X27440Y574170D01*
X28370Y575210D01*
X28990Y576460D01*
X29460Y578120D01*
X29610Y580000D01*
X29460Y581870D01*
X28990Y583540D01*
X28370Y584790D01*
X27440Y585830D01*
X26200Y586250D01*
G01X38600D02*
X37360Y585830D01*
X36430Y584790D01*
X35810Y583540D01*
X35340Y581870D01*
X35190Y580000D01*
X35340Y578120D01*
X35810Y576460D01*
X36430Y575210D01*
X37360Y574170D01*
X38600Y573750D01*
X39840Y574170D01*
X40770Y575210D01*
X41390Y576460D01*
X41860Y578120D01*
X42010Y580000D01*
X41860Y581870D01*
X41390Y583540D01*
X40770Y584790D01*
X39840Y585830D01*
X38600Y586250D01*
G01X52620Y580000D02*
X450000D01*
G01X82790Y277090D02*
X83820Y261910D01*
X87770Y276600D01*
X82790Y277090D01*
G01X83820Y261910D02*
X108470Y514380D01*
G01X82100Y523750D02*
Y536250D01*
X85970D01*
X87210Y535620D01*
X87990Y534790D01*
X88300Y533120D01*
X87990Y531460D01*
X87060Y530420D01*
X85970Y529790D01*
X82100D01*
G01X85970D02*
X88300Y523750D01*
G01X94650Y534170D02*
X95590Y535420D01*
X96670Y536040D01*
X97910Y536250D01*
X99460Y535830D01*
X100550Y534790D01*
X100860Y533540D01*
X100700Y532290D01*
X100080Y531250D01*
X96980Y529170D01*
X95590Y527710D01*
X94650Y525620D01*
X94340Y523750D01*
X100860D01*
G01X110000Y523330D02*
X109690Y523540D01*
Y523960D01*
X110000Y524170D01*
X110310Y523960D01*
Y523540D01*
X110000Y523330D01*
G01X122090Y523750D02*
X122400Y526460D01*
X122870Y528750D01*
X123480Y530830D01*
X124260Y533120D01*
X125500Y536250D01*
X119300D01*
G01X131390Y525620D02*
X132320Y524580D01*
X133400Y523960D01*
X134800Y523750D01*
X136200Y524170D01*
X137280Y525000D01*
X138060Y526460D01*
X138210Y528120D01*
X137900Y529790D01*
X137120Y530830D01*
X136040Y531670D01*
X134960Y531870D01*
X133870Y531670D01*
X132480Y530830D01*
X132940Y536250D01*
X137120D01*
G01X423500Y-400000D02*
G03I-23500J0D01*
G01Y399930D02*
G03I-23500J2D01*
G01X450000Y460000D02*
Y590000D01*
G01X435000Y577500D02*
X450000Y580000D01*
X435000Y582500D01*
Y577500D01*
G01X480000Y-450000D02*
Y-490000D01*
G01X495000Y-475000D02*
G03I-15000J5000D01*
G01X460000Y-470000D02*
X500000D01*
G01X490000Y-475000D02*
G03I-10000J5000D01*
G01X460000Y-450000D02*
X560000D01*
G01X490000Y455000D02*
G03I-15000J5000D01*
G01X475000Y480000D02*
Y440000D01*
G01X485000Y455000D02*
G03I-10000J5000D01*
G01X455000Y460000D02*
X495000D01*
G01X460000Y450000D02*
X560000D01*
G01X528760Y-34790D02*
X529850Y-35830D01*
X531090Y-36250D01*
X532330Y-35830D01*
X533410Y-34580D01*
X534190Y-32710D01*
X534500Y-30830D01*
Y-28540D01*
X534190Y-26670D01*
X533410Y-25000D01*
X532480Y-24170D01*
X531400Y-23750D01*
X530160Y-24170D01*
X529230Y-25000D01*
X528610Y-26250D01*
X528300Y-27920D01*
X528610Y-29370D01*
X529390Y-30830D01*
X530320Y-31670D01*
X531400Y-31880D01*
X532640Y-31460D01*
X533570Y-30420D01*
X534500Y-28540D01*
G01X543800Y-36670D02*
X543490Y-36460D01*
Y-36040D01*
X543800Y-35830D01*
X544110Y-36040D01*
Y-36460D01*
X543800Y-36670D01*
G01X556200Y-23750D02*
X554960Y-24170D01*
X554030Y-25210D01*
X553410Y-26460D01*
X552940Y-28130D01*
X552790Y-30000D01*
X552940Y-31880D01*
X553410Y-33540D01*
X554030Y-34790D01*
X554960Y-35830D01*
X556200Y-36250D01*
X557440Y-35830D01*
X558370Y-34790D01*
X558990Y-33540D01*
X559460Y-31880D01*
X559610Y-30000D01*
X559460Y-28130D01*
X558990Y-26460D01*
X558370Y-25210D01*
X557440Y-24170D01*
X556200Y-23750D01*
G01X568600D02*
X567360Y-24170D01*
X566430Y-25210D01*
X565810Y-26460D01*
X565340Y-28130D01*
X565190Y-30000D01*
X565340Y-31880D01*
X565810Y-33540D01*
X566430Y-34790D01*
X567360Y-35830D01*
X568600Y-36250D01*
X569840Y-35830D01*
X570770Y-34790D01*
X571390Y-33540D01*
X571860Y-31880D01*
X572010Y-30000D01*
X571860Y-28130D01*
X571390Y-26460D01*
X570770Y-25210D01*
X569840Y-24170D01*
X568600Y-23750D01*
G01X550000Y-45620D02*
Y-450000D01*
G01X547500Y-435000D02*
X550000Y-450000D01*
X552500Y-435000D01*
X547500D01*
G01X550000Y-14380D02*
Y450000D01*
G01X552500Y435000D02*
X550000Y450000D01*
X547500Y435000D01*
X552500D01*
G01X592100Y-83800D02*
Y166000D01*
X1075700D01*
Y-83800D01*
X592100D01*
G01Y-55700D02*
X1075700D01*
G01X592100Y-27600D02*
X1075700D01*
G01X592100Y500D02*
X1075700D01*
G01X592100Y55270D02*
Y166000D01*
X1075700D01*
Y55270D01*
X592100D01*
G01Y56700D02*
X1075700D01*
G01X592100Y28600D02*
X1075700D01*
G01X592100Y84800D02*
X1075700D01*
G01X592100D02*
X1075700D01*
G01X592100Y112900D02*
X1075700D01*
G01X592100D02*
X1075700D01*
G01X592100Y141000D02*
X1075700D01*
G01X592100D02*
X1075700D01*
G01X603100Y94150D02*
Y106650D01*
X609000D01*
G01X606820Y100610D02*
X603100D01*
G01X616590Y106650D02*
X620310D01*
G01X618450D02*
Y94150D01*
G01X616590D02*
X620310D01*
G01X631780Y100400D02*
X634880D01*
Y96650D01*
X633950Y95400D01*
X632860Y94570D01*
X631320Y94150D01*
X629770Y94570D01*
X628680Y95400D01*
X627750Y96650D01*
X627130Y98110D01*
X626820Y99770D01*
Y101230D01*
X627130Y102480D01*
X627750Y103940D01*
X628680Y105190D01*
X629610Y106020D01*
X630850Y106650D01*
X631930D01*
X633170Y106230D01*
X634110Y105400D01*
G01X639840Y106650D02*
Y97690D01*
X640460Y95820D01*
X641700Y94570D01*
X643250Y94150D01*
X644800Y94570D01*
X646040Y95820D01*
X646660Y97690D01*
Y106650D01*
G01X652550Y94150D02*
Y106650D01*
X656420D01*
X657660Y106020D01*
X658440Y105190D01*
X658750Y103520D01*
X658440Y101860D01*
X657510Y100820D01*
X656420Y100190D01*
X652550D01*
G01X656420D02*
X658750Y94150D01*
G01X671150D02*
X664950D01*
Y106650D01*
X671150D01*
G01X668670Y100610D02*
X664950D01*
G01X603100Y94150D02*
Y106650D01*
X609000D01*
G01X606820Y100610D02*
X603100D01*
G01X616590Y106650D02*
X620310D01*
G01X618450D02*
Y94150D01*
G01X616590D02*
X620310D01*
G01X631780Y100400D02*
X634880D01*
Y96650D01*
X633950Y95400D01*
X632860Y94570D01*
X631320Y94150D01*
X629770Y94570D01*
X628680Y95400D01*
X627750Y96650D01*
X627130Y98110D01*
X626820Y99770D01*
Y101230D01*
X627130Y102480D01*
X627750Y103940D01*
X628680Y105190D01*
X629610Y106020D01*
X630850Y106650D01*
X631930D01*
X633170Y106230D01*
X634110Y105400D01*
G01X639840Y106650D02*
Y97690D01*
X640460Y95820D01*
X641700Y94570D01*
X643250Y94150D01*
X644800Y94570D01*
X646040Y95820D01*
X646660Y97690D01*
Y106650D01*
G01X652550Y94150D02*
Y106650D01*
X656420D01*
X657660Y106020D01*
X658440Y105190D01*
X658750Y103520D01*
X658440Y101860D01*
X657510Y100820D01*
X656420Y100190D01*
X652550D01*
G01X656420D02*
X658750Y94150D01*
G01X671150D02*
X664950D01*
Y106650D01*
X671150D01*
G01X668670Y100610D02*
X664950D01*
G01X627410Y217430D02*
Y219930D01*
X627950D01*
X628160Y219800D01*
X628320Y219640D01*
X628450Y219390D01*
X628560Y219100D01*
X628590Y218680D01*
X628560Y218260D01*
X628450Y217970D01*
X628320Y217720D01*
X628160Y217550D01*
X627950Y217430D01*
X627410D01*
G01X630730D02*
X629670D01*
Y219930D01*
X630730D01*
G01X630310Y218720D02*
X629670D01*
G01X631840Y217760D02*
X632050Y217550D01*
X632290Y217430D01*
X632510D01*
X632720Y217550D01*
X632880Y217760D01*
X632960Y218060D01*
X632910Y218350D01*
X632770Y218600D01*
X632530Y218760D01*
X632210Y218850D01*
X632030Y219010D01*
X631950Y219300D01*
X632000Y219600D01*
X632130Y219800D01*
X632320Y219930D01*
X632510D01*
X632690Y219850D01*
X632850Y219640D01*
G01X634280Y219930D02*
X634920D01*
G01X634600D02*
Y217430D01*
G01X634280D02*
X634920D01*
G01X636960Y218680D02*
X637490D01*
Y217930D01*
X637330Y217680D01*
X637150Y217510D01*
X636880Y217430D01*
X636610Y217510D01*
X636430Y217680D01*
X636270Y217930D01*
X636160Y218220D01*
X636110Y218550D01*
Y218850D01*
X636160Y219100D01*
X636270Y219390D01*
X636430Y219640D01*
X636590Y219800D01*
X636800Y219930D01*
X636990D01*
X637200Y219850D01*
X637360Y219680D01*
G01X638390Y217430D02*
Y219930D01*
X639610Y217430D01*
Y219930D01*
G01X643990Y219720D02*
X643830Y219850D01*
X643640Y219930D01*
X643430D01*
X643190Y219800D01*
X643000Y219600D01*
X642870Y219350D01*
X642760Y218930D01*
X642730Y218550D01*
X642790Y218180D01*
X642870Y217930D01*
X643030Y217680D01*
X643210Y217510D01*
X643400Y217430D01*
X643590D01*
X643770Y217510D01*
X643930Y217640D01*
X644070Y217800D01*
G01X645070Y217430D02*
Y219930D01*
X645730D01*
X645950Y219800D01*
X646080Y219640D01*
X646130Y219300D01*
X646080Y218970D01*
X645920Y218760D01*
X645730Y218640D01*
X645070D01*
G01X645730D02*
X646130Y217430D01*
G01X647800D02*
X647590Y217470D01*
X647400Y217640D01*
X647240Y217890D01*
X647130Y218180D01*
X647080Y218510D01*
Y218850D01*
X647130Y219180D01*
X647240Y219470D01*
X647400Y219720D01*
X647590Y219890D01*
X647800Y219930D01*
X648010Y219890D01*
X648200Y219720D01*
X648360Y219470D01*
X648470Y219180D01*
X648520Y218850D01*
Y218510D01*
X648470Y218180D01*
X648360Y217890D01*
X648200Y217640D01*
X648010Y217470D01*
X647800Y217430D01*
G01X649440Y217760D02*
X649650Y217550D01*
X649890Y217430D01*
X650110D01*
X650320Y217550D01*
X650480Y217760D01*
X650560Y218060D01*
X650510Y218350D01*
X650370Y218600D01*
X650130Y218760D01*
X649810Y218850D01*
X649630Y219010D01*
X649550Y219300D01*
X649600Y219600D01*
X649730Y219800D01*
X649920Y219930D01*
X650110D01*
X650290Y219850D01*
X650450Y219640D01*
G01X651640Y217760D02*
X651850Y217550D01*
X652090Y217430D01*
X652310D01*
X652520Y217550D01*
X652680Y217760D01*
X652760Y218060D01*
X652710Y218350D01*
X652570Y218600D01*
X652330Y218760D01*
X652010Y218850D01*
X651830Y219010D01*
X651750Y219300D01*
X651800Y219600D01*
X651930Y219800D01*
X652120Y219930D01*
X652310D01*
X652490Y219850D01*
X652650Y219640D01*
G01X656040Y217760D02*
X656250Y217550D01*
X656490Y217430D01*
X656710D01*
X656920Y217550D01*
X657080Y217760D01*
X657160Y218060D01*
X657110Y218350D01*
X656970Y218600D01*
X656730Y218760D01*
X656410Y218850D01*
X656230Y219010D01*
X656150Y219300D01*
X656200Y219600D01*
X656330Y219800D01*
X656520Y219930D01*
X656710D01*
X656890Y219850D01*
X657050Y219640D01*
G01X659330Y217430D02*
X658270D01*
Y219930D01*
X659330D01*
G01X658910Y218720D02*
X658270D01*
G01X661590Y219720D02*
X661430Y219850D01*
X661240Y219930D01*
X661030D01*
X660790Y219800D01*
X660600Y219600D01*
X660470Y219350D01*
X660360Y218930D01*
X660330Y218550D01*
X660390Y218180D01*
X660470Y217930D01*
X660630Y217680D01*
X660810Y217510D01*
X661000Y217430D01*
X661190D01*
X661370Y217510D01*
X661530Y217640D01*
X661670Y217800D01*
G01X663200Y219930D02*
Y217430D01*
G01X662590Y219930D02*
X663810D01*
G01X665080D02*
X665720D01*
G01X665400D02*
Y217430D01*
G01X665080D02*
X665720D01*
G01X667600D02*
X667390Y217470D01*
X667200Y217640D01*
X667040Y217890D01*
X666930Y218180D01*
X666880Y218510D01*
Y218850D01*
X666930Y219180D01*
X667040Y219470D01*
X667200Y219720D01*
X667390Y219890D01*
X667600Y219930D01*
X667810Y219890D01*
X668000Y219720D01*
X668160Y219470D01*
X668270Y219180D01*
X668320Y218850D01*
Y218510D01*
X668270Y218180D01*
X668160Y217890D01*
X668000Y217640D01*
X667810Y217470D01*
X667600Y217430D01*
G01X669190D02*
Y219930D01*
X670410Y217430D01*
Y219930D01*
G01X674790Y219720D02*
X674630Y219850D01*
X674440Y219930D01*
X674230D01*
X673990Y219800D01*
X673800Y219600D01*
X673670Y219350D01*
X673560Y218930D01*
X673530Y218550D01*
X673590Y218180D01*
X673670Y217930D01*
X673830Y217680D01*
X674010Y217510D01*
X674200Y217430D01*
X674390D01*
X674570Y217510D01*
X674730Y217640D01*
X674870Y217800D01*
G01X675840Y217430D02*
Y219930D01*
G01X676960D02*
Y217430D01*
G01Y218680D02*
X675840D01*
G01X677930Y217430D02*
X678600Y219930D01*
X679270Y217430D01*
G01X679030Y218300D02*
X678170D01*
G01X680270Y217430D02*
Y219930D01*
X680930D01*
X681150Y219800D01*
X681280Y219640D01*
X681330Y219300D01*
X681280Y218970D01*
X681120Y218760D01*
X680930Y218640D01*
X680270D01*
G01X680930D02*
X681330Y217430D01*
G01X683000Y219930D02*
Y217430D01*
G01X682390Y219930D02*
X683610D01*
G01X626100Y216600D02*
X627700D01*
G01X628300D02*
X629900D01*
G01X630500D02*
X632100D01*
G01X632700D02*
X634300D01*
G01X634900D02*
X636500D01*
G01X637100D02*
X638700D01*
G01X639300D02*
X640900D01*
G01X641500D02*
X643100D01*
G01X643700D02*
X645300D01*
G01X645900D02*
X647500D01*
G01X648100D02*
X649700D01*
G01X650300D02*
X651900D01*
G01X652500D02*
X654100D01*
G01X654700D02*
X656300D01*
G01X656900D02*
X658500D01*
G01X659100D02*
X660700D01*
G01X661300D02*
X662900D01*
G01X663500D02*
X665100D01*
G01X665700D02*
X667300D01*
G01X667900D02*
X669500D01*
G01X670100D02*
X671700D01*
G01X672300D02*
X673900D01*
G01X674500D02*
X676100D01*
G01X676700D02*
X678300D01*
G01X678900D02*
X680500D01*
G01X681100D02*
X682700D01*
G01X683300D02*
X684900D01*
G01X630200Y214930D02*
Y212430D01*
G01X629590Y214930D02*
X630810D01*
G01X632400Y212430D02*
X632190Y212470D01*
X632000Y212640D01*
X631840Y212890D01*
X631730Y213180D01*
X631680Y213510D01*
Y213850D01*
X631730Y214180D01*
X631840Y214470D01*
X632000Y214720D01*
X632190Y214890D01*
X632400Y214930D01*
X632610Y214890D01*
X632800Y214720D01*
X632960Y214470D01*
X633070Y214180D01*
X633120Y213850D01*
Y213510D01*
X633070Y213180D01*
X632960Y212890D01*
X632800Y212640D01*
X632610Y212470D01*
X632400Y212430D01*
G01X634600Y214930D02*
Y212430D01*
G01X633990Y214930D02*
X635210D01*
G01X636130Y212430D02*
X636800Y214930D01*
X637470Y212430D01*
G01X637230Y213300D02*
X636370D01*
G01X638470Y214930D02*
Y212430D01*
X639530D01*
G01X643400Y214930D02*
Y212430D01*
G01X642790Y214930D02*
X644010D01*
G01X645040Y212430D02*
Y214930D01*
G01X646160D02*
Y212430D01*
G01Y213680D02*
X645040D01*
G01X647480Y214930D02*
X648120D01*
G01X647800D02*
Y212430D01*
G01X647480D02*
X648120D01*
G01X650590Y214720D02*
X650430Y214850D01*
X650240Y214930D01*
X650030D01*
X649790Y214800D01*
X649600Y214600D01*
X649470Y214350D01*
X649360Y213930D01*
X649330Y213550D01*
X649390Y213180D01*
X649470Y212930D01*
X649630Y212680D01*
X649810Y212510D01*
X650000Y212430D01*
X650190D01*
X650370Y212510D01*
X650530Y212640D01*
X650670Y212800D01*
G01X651610Y212430D02*
Y214930D01*
G01X652630D02*
X651610Y213390D01*
G01X652790Y212430D02*
X652070Y214100D01*
G01X653790Y212430D02*
Y214930D01*
X655010Y212430D01*
Y214930D01*
G01X657130Y212430D02*
X656070D01*
Y214930D01*
X657130D01*
G01X656710Y213720D02*
X656070D01*
G01X658240Y212760D02*
X658450Y212550D01*
X658690Y212430D01*
X658910D01*
X659120Y212550D01*
X659280Y212760D01*
X659360Y213060D01*
X659310Y213350D01*
X659170Y213600D01*
X658930Y213760D01*
X658610Y213850D01*
X658430Y214010D01*
X658350Y214300D01*
X658400Y214600D01*
X658530Y214800D01*
X658720Y214930D01*
X658910D01*
X659090Y214850D01*
X659250Y214640D01*
G01X660440Y212760D02*
X660650Y212550D01*
X660890Y212430D01*
X661110D01*
X661320Y212550D01*
X661480Y212760D01*
X661560Y213060D01*
X661510Y213350D01*
X661370Y213600D01*
X661130Y213760D01*
X660810Y213850D01*
X660630Y214010D01*
X660550Y214300D01*
X660600Y214600D01*
X660730Y214800D01*
X660920Y214930D01*
X661110D01*
X661290Y214850D01*
X661450Y214640D01*
G01X665720Y212430D02*
Y214930D01*
X664730Y213140D01*
X666070D01*
G01X667550Y212430D02*
X667600Y212970D01*
X667680Y213430D01*
X667790Y213850D01*
X667920Y214300D01*
X668130Y214930D01*
X667070D01*
G01X669800Y212350D02*
X669750Y212390D01*
Y212470D01*
X669800Y212510D01*
X669850Y212470D01*
Y212390D01*
X669800Y212350D01*
G01X671490Y214510D02*
X671650Y214760D01*
X671840Y214890D01*
X672050Y214930D01*
X672320Y214850D01*
X672510Y214640D01*
X672560Y214390D01*
X672530Y214140D01*
X672430Y213930D01*
X671890Y213510D01*
X671650Y213220D01*
X671490Y212800D01*
X671440Y212430D01*
X672560D01*
G01X675710D02*
Y214930D01*
X676400Y212850D01*
X677090Y214930D01*
Y212430D01*
G01X678280Y214930D02*
X678920D01*
G01X678600D02*
Y212430D01*
G01X678280D02*
X678920D01*
G01X680270Y214930D02*
Y212430D01*
X681330D01*
G01X615500Y231630D02*
Y265230D01*
X695500D01*
Y231630D01*
X615500D01*
G01Y270270D02*
Y303870D01*
X695500D01*
Y270270D01*
X615500D01*
G01Y308910D02*
Y342510D01*
X695500D01*
Y308910D01*
X615500D01*
G01Y347550D02*
Y381150D01*
X695500D01*
Y347550D01*
X615500D01*
G01Y386190D02*
Y419790D01*
X695500D01*
Y386190D01*
X615500D01*
G01X643000Y428130D02*
X640500D01*
X641000Y427810D01*
G01X643000D02*
Y428450D01*
G01X642170Y429980D02*
Y430680D01*
G01X641960Y432020D02*
X641670Y432210D01*
X641500Y432370D01*
X641420Y432580D01*
X641500Y432770D01*
X641670Y432900D01*
X641920Y433010D01*
X642210Y433040D01*
X642460Y433010D01*
X642710Y432900D01*
X642920Y432740D01*
X643000Y432560D01*
X642920Y432340D01*
X642670Y432160D01*
X642290Y432050D01*
X641880Y432020D01*
X641330Y432080D01*
X641040Y432160D01*
X640750Y432290D01*
X640540Y432480D01*
X640500Y432660D01*
X640580Y432850D01*
X640790Y432980D01*
G01X682000Y112900D02*
Y-83800D01*
G01Y112900D02*
Y55270D01*
G01X675490Y147250D02*
Y159750D01*
X678590D01*
X679830Y159120D01*
X680760Y158290D01*
X681540Y157040D01*
X682160Y155580D01*
X682310Y153500D01*
X682160Y151420D01*
X681540Y149960D01*
X680760Y148710D01*
X679830Y147870D01*
X678590Y147250D01*
X675490D01*
G01X688200D02*
Y159750D01*
X692070D01*
X693310Y159120D01*
X694090Y158290D01*
X694400Y156620D01*
X694090Y154960D01*
X693160Y153920D01*
X692070Y153290D01*
X688200D01*
G01X692070D02*
X694400Y147250D01*
G01X701840Y159750D02*
X705560D01*
G01X703700D02*
Y147250D01*
G01X701840D02*
X705560D01*
G01X713000Y159750D02*
Y147250D01*
X719200D01*
G01X725400Y159750D02*
Y147250D01*
X731600D01*
G01X756710Y158710D02*
X755780Y159330D01*
X754700Y159750D01*
X753460D01*
X752060Y159120D01*
X750980Y158080D01*
X750200Y156830D01*
X749580Y154750D01*
X749420Y152870D01*
X749740Y151000D01*
X750200Y149750D01*
X751130Y148500D01*
X752220Y147670D01*
X753300Y147250D01*
X754380D01*
X755470Y147670D01*
X756400Y148290D01*
X757180Y149120D01*
G01X762440Y147250D02*
Y159750D01*
G01X768960D02*
Y147250D01*
G01Y153500D02*
X762440D01*
G01X774220Y147250D02*
X778100Y159750D01*
X781980Y147250D01*
G01X780580Y151620D02*
X775620D01*
G01X787400Y147250D02*
Y159750D01*
X791270D01*
X792510Y159120D01*
X793290Y158290D01*
X793600Y156620D01*
X793290Y154960D01*
X792360Y153920D01*
X791270Y153290D01*
X787400D01*
G01X791270D02*
X793600Y147250D01*
G01X802900Y159750D02*
Y147250D01*
G01X799340Y159750D02*
X806460D01*
G01X815300Y146830D02*
X814990Y147040D01*
Y147460D01*
X815300Y147670D01*
X815610Y147460D01*
Y147040D01*
X815300Y146830D01*
G01Y152460D02*
X814990Y152670D01*
Y153080D01*
X815300Y153290D01*
X815610Y153080D01*
Y152670D01*
X815300Y152460D01*
G01X840100Y159750D02*
Y147250D01*
G01X836540Y159750D02*
X843660D01*
G01X852500Y147250D02*
X851260Y147460D01*
X850180Y148290D01*
X849240Y149540D01*
X848620Y151000D01*
X848310Y152670D01*
Y154330D01*
X848620Y156000D01*
X849240Y157460D01*
X850180Y158710D01*
X851260Y159540D01*
X852500Y159750D01*
X853740Y159540D01*
X854820Y158710D01*
X855760Y157460D01*
X856380Y156000D01*
X856690Y154330D01*
Y152670D01*
X856380Y151000D01*
X855760Y149540D01*
X854820Y148290D01*
X853740Y147460D01*
X852500Y147250D01*
G01X861800D02*
Y159750D01*
X865520D01*
X866760Y159120D01*
X867690Y157670D01*
X868000Y156000D01*
X867690Y154330D01*
X866910Y153080D01*
X865520Y152460D01*
X861800D01*
G01X889700Y159750D02*
Y147250D01*
G01X887530Y155580D02*
X891870D01*
G01X902100Y147250D02*
X901170Y147460D01*
X900240Y148290D01*
X899620Y149750D01*
X899310Y151420D01*
X899620Y153080D01*
X900240Y154540D01*
X901170Y155370D01*
X902100Y155580D01*
X903030Y155370D01*
X903960Y154540D01*
X904580Y153080D01*
X904740Y151420D01*
X904580Y149750D01*
X903960Y148290D01*
X903030Y147460D01*
X902100Y147250D01*
G01X928140Y153920D02*
X928760Y154540D01*
X929220Y155580D01*
X929540Y157040D01*
X929220Y158290D01*
X928610Y159120D01*
X927520Y159750D01*
X923340D01*
Y147250D01*
X928450D01*
X929540Y148080D01*
X930160Y149330D01*
X930460Y150790D01*
X930160Y152250D01*
X929220Y153500D01*
X928140Y153920D01*
X923340D01*
G01X939300Y147250D02*
X938060Y147460D01*
X936980Y148290D01*
X936040Y149540D01*
X935420Y151000D01*
X935110Y152670D01*
Y154330D01*
X935420Y156000D01*
X936040Y157460D01*
X936980Y158710D01*
X938060Y159540D01*
X939300Y159750D01*
X940540Y159540D01*
X941620Y158710D01*
X942560Y157460D01*
X943180Y156000D01*
X943490Y154330D01*
Y152670D01*
X943180Y151000D01*
X942560Y149540D01*
X941620Y148290D01*
X940540Y147460D01*
X939300Y147250D01*
G01X951700Y159750D02*
Y147250D01*
G01X948140Y159750D02*
X955260D01*
G01X964100D02*
Y147250D01*
G01X960540Y159750D02*
X967660D01*
G01X976500Y147250D02*
X975260Y147460D01*
X974180Y148290D01*
X973240Y149540D01*
X972620Y151000D01*
X972310Y152670D01*
Y154330D01*
X972620Y156000D01*
X973240Y157460D01*
X974180Y158710D01*
X975260Y159540D01*
X976500Y159750D01*
X977740Y159540D01*
X978820Y158710D01*
X979760Y157460D01*
X980380Y156000D01*
X980690Y154330D01*
Y152670D01*
X980380Y151000D01*
X979760Y149540D01*
X978820Y148290D01*
X977740Y147460D01*
X976500Y147250D01*
G01X984870D02*
Y159750D01*
X988900Y149330D01*
X992930Y159750D01*
Y147250D01*
G01X663000Y428130D02*
X660500D01*
X661000Y427810D01*
G01X663000D02*
Y428450D01*
G01X662170Y429980D02*
Y430680D01*
G01X663000Y432530D02*
X660500D01*
X661000Y432210D01*
G01X663000D02*
Y432850D01*
G01X720750Y-76000D02*
Y-63500D01*
X718890Y-66000D01*
G01Y-76000D02*
X722610D01*
G01X730200Y-65580D02*
X731140Y-64330D01*
X732220Y-63710D01*
X733460Y-63500D01*
X735010Y-63920D01*
X736100Y-64960D01*
X736410Y-66210D01*
X736250Y-67460D01*
X735630Y-68500D01*
X732530Y-70580D01*
X731140Y-72040D01*
X730200Y-74130D01*
X729890Y-76000D01*
X736410D01*
G01X745550Y-63500D02*
X744310Y-63920D01*
X743380Y-64960D01*
X742760Y-66210D01*
X742290Y-67880D01*
X742140Y-69750D01*
X742290Y-71630D01*
X742760Y-73290D01*
X743380Y-74540D01*
X744310Y-75580D01*
X745550Y-76000D01*
X746790Y-75580D01*
X747720Y-74540D01*
X748340Y-73290D01*
X748810Y-71630D01*
X748960Y-69750D01*
X748810Y-67880D01*
X748340Y-66210D01*
X747720Y-64960D01*
X746790Y-63920D01*
X745550Y-63500D01*
G01X757950Y-76420D02*
X757640Y-76210D01*
Y-75790D01*
X757950Y-75580D01*
X758260Y-75790D01*
Y-76210D01*
X757950Y-76420D01*
G01X770350Y-76000D02*
Y-63500D01*
X768490Y-66000D01*
G01Y-76000D02*
X772210D01*
G01X780430Y-67670D02*
X785070Y-76000D01*
G01Y-67670D02*
X780430Y-76000D01*
G01X792200Y-65580D02*
X793140Y-64330D01*
X794220Y-63710D01*
X795460Y-63500D01*
X797010Y-63920D01*
X798100Y-64960D01*
X798410Y-66210D01*
X798250Y-67460D01*
X797630Y-68500D01*
X794530Y-70580D01*
X793140Y-72040D01*
X792200Y-74130D01*
X791890Y-76000D01*
X798410D01*
G01X804910Y-74540D02*
X806000Y-75580D01*
X807240Y-76000D01*
X808480Y-75580D01*
X809560Y-74330D01*
X810340Y-72460D01*
X810650Y-70580D01*
Y-68290D01*
X810340Y-66420D01*
X809560Y-64750D01*
X808630Y-63920D01*
X807550Y-63500D01*
X806310Y-63920D01*
X805380Y-64750D01*
X804760Y-66000D01*
X804450Y-67670D01*
X804760Y-69120D01*
X805540Y-70580D01*
X806470Y-71420D01*
X807550Y-71630D01*
X808790Y-71210D01*
X809720Y-70170D01*
X810650Y-68290D01*
G01X819950Y-76420D02*
X819640Y-76210D01*
Y-75790D01*
X819950Y-75580D01*
X820260Y-75790D01*
Y-76210D01*
X819950Y-76420D01*
G01X829710Y-74540D02*
X830800Y-75580D01*
X832040Y-76000D01*
X833280Y-75580D01*
X834360Y-74330D01*
X835140Y-72460D01*
X835450Y-70580D01*
Y-68290D01*
X835140Y-66420D01*
X834360Y-64750D01*
X833430Y-63920D01*
X832350Y-63500D01*
X831110Y-63920D01*
X830180Y-64750D01*
X829560Y-66000D01*
X829250Y-67670D01*
X829560Y-69120D01*
X830340Y-70580D01*
X831270Y-71420D01*
X832350Y-71630D01*
X833590Y-71210D01*
X834520Y-70170D01*
X835450Y-68290D01*
G01X720750Y-47900D02*
Y-35400D01*
X718890Y-37900D01*
G01Y-47900D02*
X722610D01*
G01X730200Y-37480D02*
X731140Y-36230D01*
X732220Y-35610D01*
X733460Y-35400D01*
X735010Y-35820D01*
X736100Y-36860D01*
X736410Y-38110D01*
X736250Y-39360D01*
X735630Y-40400D01*
X732530Y-42480D01*
X731140Y-43940D01*
X730200Y-46030D01*
X729890Y-47900D01*
X736410D01*
G01X745550Y-35400D02*
X744310Y-35820D01*
X743380Y-36860D01*
X742760Y-38110D01*
X742290Y-39780D01*
X742140Y-41650D01*
X742290Y-43530D01*
X742760Y-45190D01*
X743380Y-46440D01*
X744310Y-47480D01*
X745550Y-47900D01*
X746790Y-47480D01*
X747720Y-46440D01*
X748340Y-45190D01*
X748810Y-43530D01*
X748960Y-41650D01*
X748810Y-39780D01*
X748340Y-38110D01*
X747720Y-36860D01*
X746790Y-35820D01*
X745550Y-35400D01*
G01X757950Y-48320D02*
X757640Y-48110D01*
Y-47690D01*
X757950Y-47480D01*
X758260Y-47690D01*
Y-48110D01*
X757950Y-48320D01*
G01X770350Y-47900D02*
Y-35400D01*
X768490Y-37900D01*
G01Y-47900D02*
X772210D01*
G01X780430Y-39570D02*
X785070Y-47900D01*
G01Y-39570D02*
X780430Y-47900D01*
G01X792200Y-37480D02*
X793140Y-36230D01*
X794220Y-35610D01*
X795460Y-35400D01*
X797010Y-35820D01*
X798100Y-36860D01*
X798410Y-38110D01*
X798250Y-39360D01*
X797630Y-40400D01*
X794530Y-42480D01*
X793140Y-43940D01*
X792200Y-46030D01*
X791890Y-47900D01*
X798410D01*
G01X804910Y-46440D02*
X806000Y-47480D01*
X807240Y-47900D01*
X808480Y-47480D01*
X809560Y-46230D01*
X810340Y-44360D01*
X810650Y-42480D01*
Y-40190D01*
X810340Y-38320D01*
X809560Y-36650D01*
X808630Y-35820D01*
X807550Y-35400D01*
X806310Y-35820D01*
X805380Y-36650D01*
X804760Y-37900D01*
X804450Y-39570D01*
X804760Y-41020D01*
X805540Y-42480D01*
X806470Y-43320D01*
X807550Y-43530D01*
X808790Y-43110D01*
X809720Y-42070D01*
X810650Y-40190D01*
G01X819950Y-48320D02*
X819640Y-48110D01*
Y-47690D01*
X819950Y-47480D01*
X820260Y-47690D01*
Y-48110D01*
X819950Y-48320D01*
G01X829710Y-46440D02*
X830800Y-47480D01*
X832040Y-47900D01*
X833280Y-47480D01*
X834360Y-46230D01*
X835140Y-44360D01*
X835450Y-42480D01*
Y-40190D01*
X835140Y-38320D01*
X834360Y-36650D01*
X833430Y-35820D01*
X832350Y-35400D01*
X831110Y-35820D01*
X830180Y-36650D01*
X829560Y-37900D01*
X829250Y-39570D01*
X829560Y-41020D01*
X830340Y-42480D01*
X831270Y-43320D01*
X832350Y-43530D01*
X833590Y-43110D01*
X834520Y-42070D01*
X835450Y-40190D01*
G01X706020Y122250D02*
X709900Y134750D01*
X713780Y122250D01*
G01X712380Y126620D02*
X707420D01*
G01X719200Y134750D02*
Y122250D01*
X725400D01*
G01X731600Y134750D02*
Y122250D01*
X737800D01*
G01X756090Y134750D02*
Y125790D01*
X756710Y123920D01*
X757950Y122670D01*
X759500Y122250D01*
X761050Y122670D01*
X762290Y123920D01*
X762910Y125790D01*
Y134750D01*
G01X768340Y122250D02*
Y134750D01*
X775460Y122250D01*
Y134750D01*
G01X782440D02*
X786160D01*
G01X784300D02*
Y122250D01*
G01X782440D02*
X786160D01*
G01X796700Y134750D02*
Y122250D01*
G01X793140Y134750D02*
X800260D01*
G01X805840Y123920D02*
X807090Y122870D01*
X808480Y122250D01*
X809720D01*
X810960Y122870D01*
X811890Y123920D01*
X812360Y125380D01*
X812050Y126830D01*
X811270Y128080D01*
X809870Y128920D01*
X808020Y129330D01*
X806930Y130170D01*
X806460Y131620D01*
X806780Y133080D01*
X807550Y134120D01*
X808630Y134750D01*
X809720D01*
X810810Y134330D01*
X811740Y133290D01*
G01X830020Y122250D02*
X833900Y134750D01*
X837780Y122250D01*
G01X836380Y126620D02*
X831420D01*
G01X843200Y122250D02*
Y134750D01*
X847070D01*
X848310Y134120D01*
X849090Y133290D01*
X849400Y131620D01*
X849090Y129960D01*
X848160Y128920D01*
X847070Y128290D01*
X843200D01*
G01X847070D02*
X849400Y122250D01*
G01X861800D02*
X855600D01*
Y134750D01*
X861800D01*
G01X859320Y128710D02*
X855600D01*
G01X881640Y134750D02*
X885360D01*
G01X883500D02*
Y122250D01*
G01X881640D02*
X885360D01*
G01X892340D02*
Y134750D01*
X899460Y122250D01*
Y134750D01*
G01X916670Y122250D02*
Y134750D01*
X920700Y124330D01*
X924730Y134750D01*
Y122250D01*
G01X931240Y134750D02*
X934960D01*
G01X933100D02*
Y122250D01*
G01X931240D02*
X934960D01*
G01X942400Y134750D02*
Y122250D01*
X948600D01*
G01X954640Y123920D02*
X955890Y122870D01*
X957280Y122250D01*
X958520D01*
X959760Y122870D01*
X960690Y123920D01*
X961160Y125380D01*
X960850Y126830D01*
X960070Y128080D01*
X958670Y128920D01*
X956820Y129330D01*
X955730Y130170D01*
X955260Y131620D01*
X955580Y133080D01*
X956350Y134120D01*
X957430Y134750D01*
X958520D01*
X959610Y134330D01*
X960540Y133290D01*
G01X694090Y147250D02*
Y159750D01*
X697190D01*
X698430Y159120D01*
X699360Y158290D01*
X700140Y157040D01*
X700760Y155580D01*
X700910Y153500D01*
X700760Y151420D01*
X700140Y149960D01*
X699360Y148710D01*
X698430Y147870D01*
X697190Y147250D01*
X694090D01*
G01X706800D02*
Y159750D01*
X710670D01*
X711910Y159120D01*
X712690Y158290D01*
X713000Y156620D01*
X712690Y154960D01*
X711760Y153920D01*
X710670Y153290D01*
X706800D01*
G01X710670D02*
X713000Y147250D01*
G01X720440Y159750D02*
X724160D01*
G01X722300D02*
Y147250D01*
G01X720440D02*
X724160D01*
G01X731600Y159750D02*
Y147250D01*
X737800D01*
G01X744000Y159750D02*
Y147250D01*
X750200D01*
G01X775310Y158710D02*
X774380Y159330D01*
X773300Y159750D01*
X772060D01*
X770660Y159120D01*
X769580Y158080D01*
X768800Y156830D01*
X768180Y154750D01*
X768020Y152870D01*
X768340Y151000D01*
X768800Y149750D01*
X769730Y148500D01*
X770820Y147670D01*
X771900Y147250D01*
X772980D01*
X774070Y147670D01*
X775000Y148290D01*
X775780Y149120D01*
G01X781040Y147250D02*
Y159750D01*
G01X787560D02*
Y147250D01*
G01Y153500D02*
X781040D01*
G01X792820Y147250D02*
X796700Y159750D01*
X800580Y147250D01*
G01X799180Y151620D02*
X794220D01*
G01X806000Y147250D02*
Y159750D01*
X809870D01*
X811110Y159120D01*
X811890Y158290D01*
X812200Y156620D01*
X811890Y154960D01*
X810960Y153920D01*
X809870Y153290D01*
X806000D01*
G01X809870D02*
X812200Y147250D01*
G01X821500Y159750D02*
Y147250D01*
G01X817940Y159750D02*
X825060D01*
G01X833900Y146830D02*
X833590Y147040D01*
Y147460D01*
X833900Y147670D01*
X834210Y147460D01*
Y147040D01*
X833900Y146830D01*
G01Y152460D02*
X833590Y152670D01*
Y153080D01*
X833900Y153290D01*
X834210Y153080D01*
Y152670D01*
X833900Y152460D01*
G01X858700Y159750D02*
Y147250D01*
G01X855140Y159750D02*
X862260D01*
G01X871100Y147250D02*
X869860Y147460D01*
X868780Y148290D01*
X867840Y149540D01*
X867220Y151000D01*
X866910Y152670D01*
Y154330D01*
X867220Y156000D01*
X867840Y157460D01*
X868780Y158710D01*
X869860Y159540D01*
X871100Y159750D01*
X872340Y159540D01*
X873420Y158710D01*
X874360Y157460D01*
X874980Y156000D01*
X875290Y154330D01*
Y152670D01*
X874980Y151000D01*
X874360Y149540D01*
X873420Y148290D01*
X872340Y147460D01*
X871100Y147250D01*
G01X880400D02*
Y159750D01*
X884120D01*
X885360Y159120D01*
X886290Y157670D01*
X886600Y156000D01*
X886290Y154330D01*
X885510Y153080D01*
X884120Y152460D01*
X880400D01*
G01X908300Y159750D02*
Y147250D01*
G01X906130Y155580D02*
X910470D01*
G01X920700Y147250D02*
X919770Y147460D01*
X918840Y148290D01*
X918220Y149750D01*
X917910Y151420D01*
X918220Y153080D01*
X918840Y154540D01*
X919770Y155370D01*
X920700Y155580D01*
X921630Y155370D01*
X922560Y154540D01*
X923180Y153080D01*
X923340Y151420D01*
X923180Y149750D01*
X922560Y148290D01*
X921630Y147460D01*
X920700Y147250D01*
G01X945500Y159750D02*
Y147250D01*
G01X941940Y159750D02*
X949060D01*
G01X957900Y147250D02*
X956660Y147460D01*
X955580Y148290D01*
X954640Y149540D01*
X954020Y151000D01*
X953710Y152670D01*
Y154330D01*
X954020Y156000D01*
X954640Y157460D01*
X955580Y158710D01*
X956660Y159540D01*
X957900Y159750D01*
X959140Y159540D01*
X960220Y158710D01*
X961160Y157460D01*
X961780Y156000D01*
X962090Y154330D01*
Y152670D01*
X961780Y151000D01*
X961160Y149540D01*
X960220Y148290D01*
X959140Y147460D01*
X957900Y147250D01*
G01X967200D02*
Y159750D01*
X970920D01*
X972160Y159120D01*
X973090Y157670D01*
X973400Y156000D01*
X973090Y154330D01*
X972310Y153080D01*
X970920Y152460D01*
X967200D01*
G01X706020Y122250D02*
X709900Y134750D01*
X713780Y122250D01*
G01X712380Y126620D02*
X707420D01*
G01X719200Y134750D02*
Y122250D01*
X725400D01*
G01X731600Y134750D02*
Y122250D01*
X737800D01*
G01X756090Y134750D02*
Y125790D01*
X756710Y123920D01*
X757950Y122670D01*
X759500Y122250D01*
X761050Y122670D01*
X762290Y123920D01*
X762910Y125790D01*
Y134750D01*
G01X768340Y122250D02*
Y134750D01*
X775460Y122250D01*
Y134750D01*
G01X782440D02*
X786160D01*
G01X784300D02*
Y122250D01*
G01X782440D02*
X786160D01*
G01X796700Y134750D02*
Y122250D01*
G01X793140Y134750D02*
X800260D01*
G01X805840Y123920D02*
X807090Y122870D01*
X808480Y122250D01*
X809720D01*
X810960Y122870D01*
X811890Y123920D01*
X812360Y125380D01*
X812050Y126830D01*
X811270Y128080D01*
X809870Y128920D01*
X808020Y129330D01*
X806930Y130170D01*
X806460Y131620D01*
X806780Y133080D01*
X807550Y134120D01*
X808630Y134750D01*
X809720D01*
X810810Y134330D01*
X811740Y133290D01*
G01X830020Y122250D02*
X833900Y134750D01*
X837780Y122250D01*
G01X836380Y126620D02*
X831420D01*
G01X843200Y122250D02*
Y134750D01*
X847070D01*
X848310Y134120D01*
X849090Y133290D01*
X849400Y131620D01*
X849090Y129960D01*
X848160Y128920D01*
X847070Y128290D01*
X843200D01*
G01X847070D02*
X849400Y122250D01*
G01X861800D02*
X855600D01*
Y134750D01*
X861800D01*
G01X859320Y128710D02*
X855600D01*
G01X881640Y134750D02*
X885360D01*
G01X883500D02*
Y122250D01*
G01X881640D02*
X885360D01*
G01X892340D02*
Y134750D01*
X899460Y122250D01*
Y134750D01*
G01X916670Y122250D02*
Y134750D01*
X920700Y124330D01*
X924730Y134750D01*
Y122250D01*
G01X931240Y134750D02*
X934960D01*
G01X933100D02*
Y122250D01*
G01X931240D02*
X934960D01*
G01X942400Y134750D02*
Y122250D01*
X948600D01*
G01X954640Y123920D02*
X955890Y122870D01*
X957280Y122250D01*
X958520D01*
X959760Y122870D01*
X960690Y123920D01*
X961160Y125380D01*
X960850Y126830D01*
X960070Y128080D01*
X958670Y128920D01*
X956820Y129330D01*
X955730Y130170D01*
X955260Y131620D01*
X955580Y133080D01*
X956350Y134120D01*
X957430Y134750D01*
X958520D01*
X959610Y134330D01*
X960540Y133290D01*
G01X697970Y230800D02*
Y228300D01*
X699030D01*
G01X700190Y229340D02*
X700380Y229630D01*
X700540Y229800D01*
X700750Y229880D01*
X700940Y229800D01*
X701070Y229630D01*
X701180Y229380D01*
X701210Y229090D01*
X701180Y228840D01*
X701070Y228590D01*
X700910Y228380D01*
X700730Y228300D01*
X700510Y228380D01*
X700330Y228630D01*
X700220Y229010D01*
X700190Y229420D01*
X700250Y229970D01*
X700330Y230260D01*
X700460Y230550D01*
X700650Y230760D01*
X700830Y230800D01*
X701020Y230720D01*
X701150Y230510D01*
G01X702900Y228220D02*
X702850Y228260D01*
Y228340D01*
X702900Y228380D01*
X702950Y228340D01*
Y228260D01*
X702900Y228220D01*
G01Y229340D02*
X702850Y229380D01*
Y229470D01*
X702900Y229510D01*
X702950Y229470D01*
Y229380D01*
X702900Y229340D01*
G01X707510Y229630D02*
X707620Y229760D01*
X707700Y229970D01*
X707750Y230260D01*
X707700Y230510D01*
X707590Y230670D01*
X707410Y230800D01*
X706690D01*
Y228300D01*
X707570D01*
X707750Y228470D01*
X707860Y228720D01*
X707910Y229010D01*
X707860Y229300D01*
X707700Y229550D01*
X707510Y229630D01*
X706690D01*
G01X709500Y228300D02*
X709290Y228340D01*
X709100Y228510D01*
X708940Y228760D01*
X708830Y229050D01*
X708780Y229380D01*
Y229720D01*
X708830Y230050D01*
X708940Y230340D01*
X709100Y230590D01*
X709290Y230760D01*
X709500Y230800D01*
X709710Y230760D01*
X709900Y230590D01*
X710060Y230340D01*
X710170Y230050D01*
X710220Y229720D01*
Y229380D01*
X710170Y229050D01*
X710060Y228760D01*
X709900Y228510D01*
X709710Y228340D01*
X709500Y228300D01*
G01X711700Y230800D02*
Y228300D01*
G01X711090Y230800D02*
X712310D01*
G01X713900D02*
Y228300D01*
G01X713290Y230800D02*
X714510D01*
G01X716100Y228300D02*
X715890Y228340D01*
X715700Y228510D01*
X715540Y228760D01*
X715430Y229050D01*
X715380Y229380D01*
Y229720D01*
X715430Y230050D01*
X715540Y230340D01*
X715700Y230590D01*
X715890Y230760D01*
X716100Y230800D01*
X716310Y230760D01*
X716500Y230590D01*
X716660Y230340D01*
X716770Y230050D01*
X716820Y229720D01*
Y229380D01*
X716770Y229050D01*
X716660Y228760D01*
X716500Y228510D01*
X716310Y228340D01*
X716100Y228300D01*
G01X717610D02*
Y230800D01*
X718300Y228720D01*
X718990Y230800D01*
Y228300D01*
G01X723290Y230590D02*
X723130Y230720D01*
X722940Y230800D01*
X722730D01*
X722490Y230670D01*
X722300Y230470D01*
X722170Y230220D01*
X722060Y229800D01*
X722030Y229420D01*
X722090Y229050D01*
X722170Y228800D01*
X722330Y228550D01*
X722510Y228380D01*
X722700Y228300D01*
X722890D01*
X723070Y228380D01*
X723230Y228510D01*
X723370Y228670D01*
G01X724900Y228300D02*
X724690Y228340D01*
X724500Y228510D01*
X724340Y228760D01*
X724230Y229050D01*
X724180Y229380D01*
Y229720D01*
X724230Y230050D01*
X724340Y230340D01*
X724500Y230590D01*
X724690Y230760D01*
X724900Y230800D01*
X725110Y230760D01*
X725300Y230590D01*
X725460Y230340D01*
X725570Y230050D01*
X725620Y229720D01*
Y229380D01*
X725570Y229050D01*
X725460Y228760D01*
X725300Y228510D01*
X725110Y228340D01*
X724900Y228300D01*
G01X726490D02*
Y230800D01*
X727710Y228300D01*
Y230800D01*
G01X728710Y228300D02*
Y230800D01*
X729250D01*
X729460Y230670D01*
X729620Y230510D01*
X729750Y230260D01*
X729860Y229970D01*
X729890Y229550D01*
X729860Y229130D01*
X729750Y228840D01*
X729620Y228590D01*
X729460Y228420D01*
X729250Y228300D01*
X728710D01*
G01X730910Y230800D02*
Y229010D01*
X731020Y228630D01*
X731230Y228380D01*
X731500Y228300D01*
X731770Y228380D01*
X731980Y228630D01*
X732090Y229010D01*
Y230800D01*
G01X734290Y230590D02*
X734130Y230720D01*
X733940Y230800D01*
X733730D01*
X733490Y230670D01*
X733300Y230470D01*
X733170Y230220D01*
X733060Y229800D01*
X733030Y229420D01*
X733090Y229050D01*
X733170Y228800D01*
X733330Y228550D01*
X733510Y228380D01*
X733700Y228300D01*
X733890D01*
X734070Y228380D01*
X734230Y228510D01*
X734370Y228670D01*
G01X735900Y230800D02*
Y228300D01*
G01X735290Y230800D02*
X736510D01*
G01X738100Y228300D02*
X737890Y228340D01*
X737700Y228510D01*
X737540Y228760D01*
X737430Y229050D01*
X737380Y229380D01*
Y229720D01*
X737430Y230050D01*
X737540Y230340D01*
X737700Y230590D01*
X737890Y230760D01*
X738100Y230800D01*
X738310Y230760D01*
X738500Y230590D01*
X738660Y230340D01*
X738770Y230050D01*
X738820Y229720D01*
Y229380D01*
X738770Y229050D01*
X738660Y228760D01*
X738500Y228510D01*
X738310Y228340D01*
X738100Y228300D01*
G01X739770D02*
Y230800D01*
X740430D01*
X740650Y230670D01*
X740780Y230510D01*
X740830Y230170D01*
X740780Y229840D01*
X740620Y229630D01*
X740430Y229510D01*
X739770D01*
G01X740430D02*
X740830Y228300D01*
G01X744350Y229130D02*
X745050D01*
G01X749690Y230590D02*
X749530Y230720D01*
X749340Y230800D01*
X749130D01*
X748890Y230670D01*
X748700Y230470D01*
X748570Y230220D01*
X748460Y229800D01*
X748430Y229420D01*
X748490Y229050D01*
X748570Y228800D01*
X748730Y228550D01*
X748910Y228380D01*
X749100Y228300D01*
X749290D01*
X749470Y228380D01*
X749630Y228510D01*
X749770Y228670D01*
G01X751300Y228300D02*
X751090Y228340D01*
X750900Y228510D01*
X750740Y228760D01*
X750630Y229050D01*
X750580Y229380D01*
Y229720D01*
X750630Y230050D01*
X750740Y230340D01*
X750900Y230590D01*
X751090Y230760D01*
X751300Y230800D01*
X751510Y230760D01*
X751700Y230590D01*
X751860Y230340D01*
X751970Y230050D01*
X752020Y229720D01*
Y229380D01*
X751970Y229050D01*
X751860Y228760D01*
X751700Y228510D01*
X751510Y228340D01*
X751300Y228300D01*
G01X752970D02*
Y230800D01*
X753610D01*
X753820Y230670D01*
X753980Y230380D01*
X754030Y230050D01*
X753980Y229720D01*
X753850Y229470D01*
X753610Y229340D01*
X752970D01*
G01X755170Y228300D02*
Y230800D01*
X755810D01*
X756020Y230670D01*
X756180Y230380D01*
X756230Y230050D01*
X756180Y229720D01*
X756050Y229470D01*
X755810Y229340D01*
X755170D01*
G01X758430Y228300D02*
X757370D01*
Y230800D01*
X758430D01*
G01X758010Y229590D02*
X757370D01*
G01X759570Y228300D02*
Y230800D01*
X760230D01*
X760450Y230670D01*
X760580Y230510D01*
X760630Y230170D01*
X760580Y229840D01*
X760420Y229630D01*
X760230Y229510D01*
X759570D01*
G01X760230D02*
X760630Y228300D01*
G01X764500D02*
Y230800D01*
X764180Y230300D01*
G01Y228300D02*
X764820D01*
G01X766700Y228220D02*
X766650Y228260D01*
Y228340D01*
X766700Y228380D01*
X766750Y228340D01*
Y228260D01*
X766700Y228220D01*
G01X768390Y230380D02*
X768550Y230630D01*
X768740Y230760D01*
X768950Y230800D01*
X769220Y230720D01*
X769410Y230510D01*
X769460Y230260D01*
X769430Y230010D01*
X769330Y229800D01*
X768790Y229380D01*
X768550Y229090D01*
X768390Y228670D01*
X768340Y228300D01*
X769460D01*
G01X772610D02*
Y230800D01*
X773300Y228720D01*
X773990Y230800D01*
Y228300D01*
G01X775180Y230800D02*
X775820D01*
G01X775500D02*
Y228300D01*
G01X775180D02*
X775820D01*
G01X777170Y230800D02*
Y228300D01*
X778230D01*
G01X702310Y223180D02*
X703490Y225010D01*
G01X702900Y225340D02*
Y222840D01*
G01X703490Y223180D02*
X702310Y225010D01*
G01X702100Y224090D02*
X703700D01*
G01X708940Y223590D02*
X709150Y223380D01*
X709390Y223260D01*
X709610D01*
X709820Y223380D01*
X709980Y223590D01*
X710060Y223890D01*
X710010Y224180D01*
X709870Y224430D01*
X709630Y224590D01*
X709310Y224680D01*
X709130Y224840D01*
X709050Y225130D01*
X709100Y225430D01*
X709230Y225630D01*
X709420Y225760D01*
X709610D01*
X709790Y225680D01*
X709950Y225470D01*
G01X711110Y225760D02*
Y223970D01*
X711220Y223590D01*
X711430Y223340D01*
X711700Y223260D01*
X711970Y223340D01*
X712180Y223590D01*
X712290Y223970D01*
Y225760D01*
G01X713370Y223260D02*
Y225760D01*
X714030D01*
X714250Y225630D01*
X714380Y225470D01*
X714430Y225130D01*
X714380Y224800D01*
X714220Y224590D01*
X714030Y224470D01*
X713370D01*
G01X714030D02*
X714430Y223260D01*
G01X715590D02*
Y225760D01*
X716610D01*
G01X716230Y224550D02*
X715590D01*
G01X717630Y223260D02*
X718300Y225760D01*
X718970Y223260D01*
G01X718730Y224130D02*
X717870D01*
G01X721090Y225550D02*
X720930Y225680D01*
X720740Y225760D01*
X720530D01*
X720290Y225630D01*
X720100Y225430D01*
X719970Y225180D01*
X719860Y224760D01*
X719830Y224380D01*
X719890Y224010D01*
X719970Y223760D01*
X720130Y223510D01*
X720310Y223340D01*
X720500Y223260D01*
X720690D01*
X720870Y223340D01*
X721030Y223470D01*
X721170Y223630D01*
G01X723230Y223260D02*
X722170D01*
Y225760D01*
X723230D01*
G01X722810Y224550D02*
X722170D01*
G01X726750Y224090D02*
X727450D01*
G01X730830Y223260D02*
X731500Y225760D01*
X732170Y223260D01*
G01X731930Y224130D02*
X731070D01*
G01X733380Y225760D02*
X734020D01*
G01X733700D02*
Y223260D01*
G01X733380D02*
X734020D01*
G01X735370D02*
Y225760D01*
X736030D01*
X736250Y225630D01*
X736380Y225470D01*
X736430Y225130D01*
X736380Y224800D01*
X736220Y224590D01*
X736030Y224470D01*
X735370D01*
G01X736030D02*
X736430Y223260D01*
G01X740300Y225760D02*
X740090Y225680D01*
X739930Y225470D01*
X739820Y225220D01*
X739740Y224880D01*
X739710Y224510D01*
X739740Y224130D01*
X739820Y223800D01*
X739930Y223550D01*
X740090Y223340D01*
X740300Y223260D01*
X740510Y223340D01*
X740670Y223550D01*
X740780Y223800D01*
X740860Y224130D01*
X740890Y224510D01*
X740860Y224880D01*
X740780Y225220D01*
X740670Y225470D01*
X740510Y225680D01*
X740300Y225760D01*
G01X744010Y223260D02*
Y225760D01*
X744700Y223680D01*
X745390Y225760D01*
Y223260D01*
G01X746580Y225760D02*
X747220D01*
G01X746900D02*
Y223260D01*
G01X746580D02*
X747220D01*
G01X748570Y225760D02*
Y223260D01*
X749630D01*
G01X697970Y269440D02*
Y266940D01*
X699030D01*
G01X700110Y267310D02*
X700270Y267110D01*
X700460Y266980D01*
X700700Y266940D01*
X700940Y267020D01*
X701130Y267190D01*
X701260Y267480D01*
X701290Y267810D01*
X701230Y268150D01*
X701100Y268360D01*
X700910Y268520D01*
X700730Y268560D01*
X700540Y268520D01*
X700300Y268360D01*
X700380Y269440D01*
X701100D01*
G01X702900Y266860D02*
X702850Y266900D01*
Y266980D01*
X702900Y267020D01*
X702950Y266980D01*
Y266900D01*
X702900Y266860D01*
G01Y267980D02*
X702850Y268020D01*
Y268110D01*
X702900Y268150D01*
X702950Y268110D01*
Y268020D01*
X702900Y267980D01*
G01X706770Y269440D02*
Y266940D01*
X707830D01*
G01X708830D02*
X709500Y269440D01*
X710170Y266940D01*
G01X709930Y267810D02*
X709070D01*
G01X711700Y266940D02*
Y268060D01*
X711170Y269440D01*
G01X712230D02*
X711700Y268060D01*
G01X714430Y266940D02*
X713370D01*
Y269440D01*
X714430D01*
G01X714010Y268230D02*
X713370D01*
G01X715570Y266940D02*
Y269440D01*
X716230D01*
X716450Y269310D01*
X716580Y269150D01*
X716630Y268810D01*
X716580Y268480D01*
X716420Y268270D01*
X716230Y268150D01*
X715570D01*
G01X716230D02*
X716630Y266940D01*
G01X719990Y269020D02*
X720150Y269270D01*
X720340Y269400D01*
X720550Y269440D01*
X720820Y269360D01*
X721010Y269150D01*
X721060Y268900D01*
X721030Y268650D01*
X720930Y268440D01*
X720390Y268020D01*
X720150Y267730D01*
X719990Y267310D01*
X719940Y266940D01*
X721060D01*
G01X725490Y269230D02*
X725330Y269360D01*
X725140Y269440D01*
X724930D01*
X724690Y269310D01*
X724500Y269110D01*
X724370Y268860D01*
X724260Y268440D01*
X724230Y268060D01*
X724290Y267690D01*
X724370Y267440D01*
X724530Y267190D01*
X724710Y267020D01*
X724900Y266940D01*
X725090D01*
X725270Y267020D01*
X725430Y267150D01*
X725570Y267310D01*
G01X727100Y266940D02*
X726890Y266980D01*
X726700Y267150D01*
X726540Y267400D01*
X726430Y267690D01*
X726380Y268020D01*
Y268360D01*
X726430Y268690D01*
X726540Y268980D01*
X726700Y269230D01*
X726890Y269400D01*
X727100Y269440D01*
X727310Y269400D01*
X727500Y269230D01*
X727660Y268980D01*
X727770Y268690D01*
X727820Y268360D01*
Y268020D01*
X727770Y267690D01*
X727660Y267400D01*
X727500Y267150D01*
X727310Y266980D01*
X727100Y266940D01*
G01X728690D02*
Y269440D01*
X729910Y266940D01*
Y269440D01*
G01X730910Y266940D02*
Y269440D01*
X731450D01*
X731660Y269310D01*
X731820Y269150D01*
X731950Y268900D01*
X732060Y268610D01*
X732090Y268190D01*
X732060Y267770D01*
X731950Y267480D01*
X731820Y267230D01*
X731660Y267060D01*
X731450Y266940D01*
X730910D01*
G01X733110Y269440D02*
Y267650D01*
X733220Y267270D01*
X733430Y267020D01*
X733700Y266940D01*
X733970Y267020D01*
X734180Y267270D01*
X734290Y267650D01*
Y269440D01*
G01X736490Y269230D02*
X736330Y269360D01*
X736140Y269440D01*
X735930D01*
X735690Y269310D01*
X735500Y269110D01*
X735370Y268860D01*
X735260Y268440D01*
X735230Y268060D01*
X735290Y267690D01*
X735370Y267440D01*
X735530Y267190D01*
X735710Y267020D01*
X735900Y266940D01*
X736090D01*
X736270Y267020D01*
X736430Y267150D01*
X736570Y267310D01*
G01X738100Y269440D02*
Y266940D01*
G01X737490Y269440D02*
X738710D01*
G01X740300Y266940D02*
X740090Y266980D01*
X739900Y267150D01*
X739740Y267400D01*
X739630Y267690D01*
X739580Y268020D01*
Y268360D01*
X739630Y268690D01*
X739740Y268980D01*
X739900Y269230D01*
X740090Y269400D01*
X740300Y269440D01*
X740510Y269400D01*
X740700Y269230D01*
X740860Y268980D01*
X740970Y268690D01*
X741020Y268360D01*
Y268020D01*
X740970Y267690D01*
X740860Y267400D01*
X740700Y267150D01*
X740510Y266980D01*
X740300Y266940D01*
G01X741970D02*
Y269440D01*
X742630D01*
X742850Y269310D01*
X742980Y269150D01*
X743030Y268810D01*
X742980Y268480D01*
X742820Y268270D01*
X742630Y268150D01*
X741970D01*
G01X742630D02*
X743030Y266940D01*
G01X746550Y267770D02*
X747250D01*
G01X751890Y269230D02*
X751730Y269360D01*
X751540Y269440D01*
X751330D01*
X751090Y269310D01*
X750900Y269110D01*
X750770Y268860D01*
X750660Y268440D01*
X750630Y268060D01*
X750690Y267690D01*
X750770Y267440D01*
X750930Y267190D01*
X751110Y267020D01*
X751300Y266940D01*
X751490D01*
X751670Y267020D01*
X751830Y267150D01*
X751970Y267310D01*
G01X753500Y266940D02*
X753290Y266980D01*
X753100Y267150D01*
X752940Y267400D01*
X752830Y267690D01*
X752780Y268020D01*
Y268360D01*
X752830Y268690D01*
X752940Y268980D01*
X753100Y269230D01*
X753290Y269400D01*
X753500Y269440D01*
X753710Y269400D01*
X753900Y269230D01*
X754060Y268980D01*
X754170Y268690D01*
X754220Y268360D01*
Y268020D01*
X754170Y267690D01*
X754060Y267400D01*
X753900Y267150D01*
X753710Y266980D01*
X753500Y266940D01*
G01X755170D02*
Y269440D01*
X755810D01*
X756020Y269310D01*
X756180Y269020D01*
X756230Y268690D01*
X756180Y268360D01*
X756050Y268110D01*
X755810Y267980D01*
X755170D01*
G01X757370Y266940D02*
Y269440D01*
X758010D01*
X758220Y269310D01*
X758380Y269020D01*
X758430Y268690D01*
X758380Y268360D01*
X758250Y268110D01*
X758010Y267980D01*
X757370D01*
G01X760630Y266940D02*
X759570D01*
Y269440D01*
X760630D01*
G01X760210Y268230D02*
X759570D01*
G01X761770Y266940D02*
Y269440D01*
X762430D01*
X762650Y269310D01*
X762780Y269150D01*
X762830Y268810D01*
X762780Y268480D01*
X762620Y268270D01*
X762430Y268150D01*
X761770D01*
G01X762430D02*
X762830Y266940D01*
G01X766700D02*
Y269440D01*
X766380Y268940D01*
G01Y266940D02*
X767020D01*
G01X768900Y266860D02*
X768850Y266900D01*
Y266980D01*
X768900Y267020D01*
X768950Y266980D01*
Y266900D01*
X768900Y266860D01*
G01X770590Y269020D02*
X770750Y269270D01*
X770940Y269400D01*
X771150Y269440D01*
X771420Y269360D01*
X771610Y269150D01*
X771660Y268900D01*
X771630Y268650D01*
X771530Y268440D01*
X770990Y268020D01*
X770750Y267730D01*
X770590Y267310D01*
X770540Y266940D01*
X771660D01*
G01X774810D02*
Y269440D01*
X775500Y267360D01*
X776190Y269440D01*
Y266940D01*
G01X777380Y269440D02*
X778020D01*
G01X777700D02*
Y266940D01*
G01X777380D02*
X778020D01*
G01X779370Y269440D02*
Y266940D01*
X780430D01*
G01X702310Y248350D02*
X703490Y250180D01*
G01X702900Y250510D02*
Y248010D01*
G01X703490Y248350D02*
X702310Y250180D01*
G01X702100Y249260D02*
X703700D01*
G01X708910Y248430D02*
Y250930D01*
X709450D01*
X709660Y250800D01*
X709820Y250640D01*
X709950Y250390D01*
X710060Y250100D01*
X710090Y249680D01*
X710060Y249260D01*
X709950Y248970D01*
X709820Y248720D01*
X709660Y248550D01*
X709450Y248430D01*
X708910D01*
G01X711380Y250930D02*
X712020D01*
G01X711700D02*
Y248430D01*
G01X711380D02*
X712020D01*
G01X714430D02*
X713370D01*
Y250930D01*
X714430D01*
G01X714010Y249720D02*
X713370D01*
G01X715570Y250930D02*
Y248430D01*
X716630D01*
G01X718830D02*
X717770D01*
Y250930D01*
X718830D01*
G01X718410Y249720D02*
X717770D01*
G01X721090Y250720D02*
X720930Y250850D01*
X720740Y250930D01*
X720530D01*
X720290Y250800D01*
X720100Y250600D01*
X719970Y250350D01*
X719860Y249930D01*
X719830Y249550D01*
X719890Y249180D01*
X719970Y248930D01*
X720130Y248680D01*
X720310Y248510D01*
X720500Y248430D01*
X720690D01*
X720870Y248510D01*
X721030Y248640D01*
X721170Y248800D01*
G01X722700Y250930D02*
Y248430D01*
G01X722090Y250930D02*
X723310D01*
G01X724370Y248430D02*
Y250930D01*
X725030D01*
X725250Y250800D01*
X725380Y250640D01*
X725430Y250300D01*
X725380Y249970D01*
X725220Y249760D01*
X725030Y249640D01*
X724370D01*
G01X725030D02*
X725430Y248430D01*
G01X726780Y250930D02*
X727420D01*
G01X727100D02*
Y248430D01*
G01X726780D02*
X727420D01*
G01X729890Y250720D02*
X729730Y250850D01*
X729540Y250930D01*
X729330D01*
X729090Y250800D01*
X728900Y250600D01*
X728770Y250350D01*
X728660Y249930D01*
X728630Y249550D01*
X728690Y249180D01*
X728770Y248930D01*
X728930Y248680D01*
X729110Y248510D01*
X729300Y248430D01*
X729490D01*
X729670Y248510D01*
X729830Y248640D01*
X729970Y248800D01*
G01X733350Y249260D02*
X734050D01*
G01X737590Y248430D02*
Y250930D01*
X738610D01*
G01X738230Y249720D02*
X737590D01*
G01X739770Y248430D02*
Y250930D01*
X740430D01*
X740650Y250800D01*
X740780Y250640D01*
X740830Y250300D01*
X740780Y249970D01*
X740620Y249760D01*
X740430Y249640D01*
X739770D01*
G01X740430D02*
X740830Y248430D01*
G01X742150Y249260D02*
X742850D01*
G01X745020Y248430D02*
Y250930D01*
X744030Y249140D01*
X745370D01*
G01X749100Y248430D02*
X749290Y248470D01*
X749500Y248600D01*
X749630Y248800D01*
X749690Y249100D01*
X749630Y249390D01*
X749470Y249640D01*
X749230Y249760D01*
X748970D01*
X748810Y249850D01*
X748670Y250050D01*
X748620Y250350D01*
X748700Y250640D01*
X748890Y250850D01*
X749100Y250930D01*
X749310Y250850D01*
X749500Y250640D01*
X749580Y250350D01*
X749530Y250050D01*
X749390Y249850D01*
X749230Y249760D01*
X748970D01*
X748730Y249640D01*
X748570Y249390D01*
X748510Y249100D01*
X748570Y248800D01*
X748700Y248600D01*
X748910Y248470D01*
X749100Y248430D01*
G01X752810D02*
Y250930D01*
X753500Y248850D01*
X754190Y250930D01*
Y248430D01*
G01X755380Y250930D02*
X756020D01*
G01X755700D02*
Y248430D01*
G01X755380D02*
X756020D01*
G01X757370Y250930D02*
Y248430D01*
X758430D01*
G01X702310Y286990D02*
X703490Y288820D01*
G01X702900Y289150D02*
Y286650D01*
G01X703490Y286990D02*
X702310Y288820D01*
G01X702100Y287900D02*
X703700D01*
G01X708910Y287070D02*
Y289570D01*
X709450D01*
X709660Y289440D01*
X709820Y289280D01*
X709950Y289030D01*
X710060Y288740D01*
X710090Y288320D01*
X710060Y287900D01*
X709950Y287610D01*
X709820Y287360D01*
X709660Y287190D01*
X709450Y287070D01*
X708910D01*
G01X711380Y289570D02*
X712020D01*
G01X711700D02*
Y287070D01*
G01X711380D02*
X712020D01*
G01X714430D02*
X713370D01*
Y289570D01*
X714430D01*
G01X714010Y288360D02*
X713370D01*
G01X715570Y289570D02*
Y287070D01*
X716630D01*
G01X718830D02*
X717770D01*
Y289570D01*
X718830D01*
G01X718410Y288360D02*
X717770D01*
G01X721090Y289360D02*
X720930Y289490D01*
X720740Y289570D01*
X720530D01*
X720290Y289440D01*
X720100Y289240D01*
X719970Y288990D01*
X719860Y288570D01*
X719830Y288190D01*
X719890Y287820D01*
X719970Y287570D01*
X720130Y287320D01*
X720310Y287150D01*
X720500Y287070D01*
X720690D01*
X720870Y287150D01*
X721030Y287280D01*
X721170Y287440D01*
G01X722700Y289570D02*
Y287070D01*
G01X722090Y289570D02*
X723310D01*
G01X724370Y287070D02*
Y289570D01*
X725030D01*
X725250Y289440D01*
X725380Y289280D01*
X725430Y288940D01*
X725380Y288610D01*
X725220Y288400D01*
X725030Y288280D01*
X724370D01*
G01X725030D02*
X725430Y287070D01*
G01X726780Y289570D02*
X727420D01*
G01X727100D02*
Y287070D01*
G01X726780D02*
X727420D01*
G01X729890Y289360D02*
X729730Y289490D01*
X729540Y289570D01*
X729330D01*
X729090Y289440D01*
X728900Y289240D01*
X728770Y288990D01*
X728660Y288570D01*
X728630Y288190D01*
X728690Y287820D01*
X728770Y287570D01*
X728930Y287320D01*
X729110Y287150D01*
X729300Y287070D01*
X729490D01*
X729670Y287150D01*
X729830Y287280D01*
X729970Y287440D01*
G01X733350Y287900D02*
X734050D01*
G01X737590Y287070D02*
Y289570D01*
X738610D01*
G01X738230Y288360D02*
X737590D01*
G01X739770Y287070D02*
Y289570D01*
X740430D01*
X740650Y289440D01*
X740780Y289280D01*
X740830Y288940D01*
X740780Y288610D01*
X740620Y288400D01*
X740430Y288280D01*
X739770D01*
G01X740430D02*
X740830Y287070D01*
G01X742150Y287900D02*
X742850D01*
G01X745020Y287070D02*
Y289570D01*
X744030Y287780D01*
X745370D01*
G01X749100Y287070D02*
X749290Y287110D01*
X749500Y287240D01*
X749630Y287440D01*
X749690Y287740D01*
X749630Y288030D01*
X749470Y288280D01*
X749230Y288400D01*
X748970D01*
X748810Y288490D01*
X748670Y288690D01*
X748620Y288990D01*
X748700Y289280D01*
X748890Y289490D01*
X749100Y289570D01*
X749310Y289490D01*
X749500Y289280D01*
X749580Y288990D01*
X749530Y288690D01*
X749390Y288490D01*
X749230Y288400D01*
X748970D01*
X748730Y288280D01*
X748570Y288030D01*
X748510Y287740D01*
X748570Y287440D01*
X748700Y287240D01*
X748910Y287110D01*
X749100Y287070D01*
G01X752810D02*
Y289570D01*
X753500Y287490D01*
X754190Y289570D01*
Y287070D01*
G01X755380Y289570D02*
X756020D01*
G01X755700D02*
Y287070D01*
G01X755380D02*
X756020D01*
G01X757370Y289570D02*
Y287070D01*
X758430D01*
G01X702310Y325630D02*
X703490Y327460D01*
G01X702900Y327790D02*
Y325290D01*
G01X703490Y325630D02*
X702310Y327460D01*
G01X702100Y326540D02*
X703700D01*
G01X708910Y325710D02*
Y328210D01*
X709450D01*
X709660Y328080D01*
X709820Y327920D01*
X709950Y327670D01*
X710060Y327380D01*
X710090Y326960D01*
X710060Y326540D01*
X709950Y326250D01*
X709820Y326000D01*
X709660Y325830D01*
X709450Y325710D01*
X708910D01*
G01X711380Y328210D02*
X712020D01*
G01X711700D02*
Y325710D01*
G01X711380D02*
X712020D01*
G01X714430D02*
X713370D01*
Y328210D01*
X714430D01*
G01X714010Y327000D02*
X713370D01*
G01X715570Y328210D02*
Y325710D01*
X716630D01*
G01X718830D02*
X717770D01*
Y328210D01*
X718830D01*
G01X718410Y327000D02*
X717770D01*
G01X721090Y328000D02*
X720930Y328130D01*
X720740Y328210D01*
X720530D01*
X720290Y328080D01*
X720100Y327880D01*
X719970Y327630D01*
X719860Y327210D01*
X719830Y326830D01*
X719890Y326460D01*
X719970Y326210D01*
X720130Y325960D01*
X720310Y325790D01*
X720500Y325710D01*
X720690D01*
X720870Y325790D01*
X721030Y325920D01*
X721170Y326080D01*
G01X722700Y328210D02*
Y325710D01*
G01X722090Y328210D02*
X723310D01*
G01X724370Y325710D02*
Y328210D01*
X725030D01*
X725250Y328080D01*
X725380Y327920D01*
X725430Y327580D01*
X725380Y327250D01*
X725220Y327040D01*
X725030Y326920D01*
X724370D01*
G01X725030D02*
X725430Y325710D01*
G01X726780Y328210D02*
X727420D01*
G01X727100D02*
Y325710D01*
G01X726780D02*
X727420D01*
G01X729890Y328000D02*
X729730Y328130D01*
X729540Y328210D01*
X729330D01*
X729090Y328080D01*
X728900Y327880D01*
X728770Y327630D01*
X728660Y327210D01*
X728630Y326830D01*
X728690Y326460D01*
X728770Y326210D01*
X728930Y325960D01*
X729110Y325790D01*
X729300Y325710D01*
X729490D01*
X729670Y325790D01*
X729830Y325920D01*
X729970Y326080D01*
G01X733350Y326540D02*
X734050D01*
G01X737590Y325710D02*
Y328210D01*
X738610D01*
G01X738230Y327000D02*
X737590D01*
G01X739770Y325710D02*
Y328210D01*
X740430D01*
X740650Y328080D01*
X740780Y327920D01*
X740830Y327580D01*
X740780Y327250D01*
X740620Y327040D01*
X740430Y326920D01*
X739770D01*
G01X740430D02*
X740830Y325710D01*
G01X742150Y326540D02*
X742850D01*
G01X745020Y325710D02*
Y328210D01*
X744030Y326420D01*
X745370D01*
G01X749100Y325710D02*
X749290Y325750D01*
X749500Y325880D01*
X749630Y326080D01*
X749690Y326380D01*
X749630Y326670D01*
X749470Y326920D01*
X749230Y327040D01*
X748970D01*
X748810Y327130D01*
X748670Y327330D01*
X748620Y327630D01*
X748700Y327920D01*
X748890Y328130D01*
X749100Y328210D01*
X749310Y328130D01*
X749500Y327920D01*
X749580Y327630D01*
X749530Y327330D01*
X749390Y327130D01*
X749230Y327040D01*
X748970D01*
X748730Y326920D01*
X748570Y326670D01*
X748510Y326380D01*
X748570Y326080D01*
X748700Y325880D01*
X748910Y325750D01*
X749100Y325710D01*
G01X752810D02*
Y328210D01*
X753500Y326130D01*
X754190Y328210D01*
Y325710D01*
G01X755380Y328210D02*
X756020D01*
G01X755700D02*
Y325710D01*
G01X755380D02*
X756020D01*
G01X757370Y328210D02*
Y325710D01*
X758430D01*
G01X697970Y308080D02*
Y305580D01*
X699030D01*
G01X701020D02*
Y308080D01*
X700030Y306290D01*
X701370D01*
G01X702900Y305500D02*
X702850Y305540D01*
Y305620D01*
X702900Y305660D01*
X702950Y305620D01*
Y305540D01*
X702900Y305500D01*
G01Y306620D02*
X702850Y306660D01*
Y306750D01*
X702900Y306790D01*
X702950Y306750D01*
Y306660D01*
X702900Y306620D01*
G01X707460Y306830D02*
X707990D01*
Y306080D01*
X707830Y305830D01*
X707650Y305660D01*
X707380Y305580D01*
X707110Y305660D01*
X706930Y305830D01*
X706770Y306080D01*
X706660Y306370D01*
X706610Y306700D01*
Y307000D01*
X706660Y307250D01*
X706770Y307540D01*
X706930Y307790D01*
X707090Y307950D01*
X707300Y308080D01*
X707490D01*
X707700Y308000D01*
X707860Y307830D01*
G01X708890Y305580D02*
Y308080D01*
X710110Y305580D01*
Y308080D01*
G01X711110Y305580D02*
Y308080D01*
X711650D01*
X711860Y307950D01*
X712020Y307790D01*
X712150Y307540D01*
X712260Y307250D01*
X712290Y306830D01*
X712260Y306410D01*
X712150Y306120D01*
X712020Y305870D01*
X711860Y305700D01*
X711650Y305580D01*
X711110D01*
G01X713390Y307660D02*
X713550Y307910D01*
X713740Y308040D01*
X713950Y308080D01*
X714220Y308000D01*
X714410Y307790D01*
X714460Y307540D01*
X714430Y307290D01*
X714330Y307080D01*
X713790Y306660D01*
X713550Y306370D01*
X713390Y305950D01*
X713340Y305580D01*
X714460D01*
G01X718890Y307870D02*
X718730Y308000D01*
X718540Y308080D01*
X718330D01*
X718090Y307950D01*
X717900Y307750D01*
X717770Y307500D01*
X717660Y307080D01*
X717630Y306700D01*
X717690Y306330D01*
X717770Y306080D01*
X717930Y305830D01*
X718110Y305660D01*
X718300Y305580D01*
X718490D01*
X718670Y305660D01*
X718830Y305790D01*
X718970Y305950D01*
G01X720500Y305580D02*
X720290Y305620D01*
X720100Y305790D01*
X719940Y306040D01*
X719830Y306330D01*
X719780Y306660D01*
Y307000D01*
X719830Y307330D01*
X719940Y307620D01*
X720100Y307870D01*
X720290Y308040D01*
X720500Y308080D01*
X720710Y308040D01*
X720900Y307870D01*
X721060Y307620D01*
X721170Y307330D01*
X721220Y307000D01*
Y306660D01*
X721170Y306330D01*
X721060Y306040D01*
X720900Y305790D01*
X720710Y305620D01*
X720500Y305580D01*
G01X722090D02*
Y308080D01*
X723310Y305580D01*
Y308080D01*
G01X724310Y305580D02*
Y308080D01*
X724850D01*
X725060Y307950D01*
X725220Y307790D01*
X725350Y307540D01*
X725460Y307250D01*
X725490Y306830D01*
X725460Y306410D01*
X725350Y306120D01*
X725220Y305870D01*
X725060Y305700D01*
X724850Y305580D01*
X724310D01*
G01X726510Y308080D02*
Y306290D01*
X726620Y305910D01*
X726830Y305660D01*
X727100Y305580D01*
X727370Y305660D01*
X727580Y305910D01*
X727690Y306290D01*
Y308080D01*
G01X729890Y307870D02*
X729730Y308000D01*
X729540Y308080D01*
X729330D01*
X729090Y307950D01*
X728900Y307750D01*
X728770Y307500D01*
X728660Y307080D01*
X728630Y306700D01*
X728690Y306330D01*
X728770Y306080D01*
X728930Y305830D01*
X729110Y305660D01*
X729300Y305580D01*
X729490D01*
X729670Y305660D01*
X729830Y305790D01*
X729970Y305950D01*
G01X731500Y308080D02*
Y305580D01*
G01X730890Y308080D02*
X732110D01*
G01X733700Y305580D02*
X733490Y305620D01*
X733300Y305790D01*
X733140Y306040D01*
X733030Y306330D01*
X732980Y306660D01*
Y307000D01*
X733030Y307330D01*
X733140Y307620D01*
X733300Y307870D01*
X733490Y308040D01*
X733700Y308080D01*
X733910Y308040D01*
X734100Y307870D01*
X734260Y307620D01*
X734370Y307330D01*
X734420Y307000D01*
Y306660D01*
X734370Y306330D01*
X734260Y306040D01*
X734100Y305790D01*
X733910Y305620D01*
X733700Y305580D01*
G01X735370D02*
Y308080D01*
X736030D01*
X736250Y307950D01*
X736380Y307790D01*
X736430Y307450D01*
X736380Y307120D01*
X736220Y306910D01*
X736030Y306790D01*
X735370D01*
G01X736030D02*
X736430Y305580D01*
G01X739950Y306410D02*
X740650D01*
G01X745290Y307870D02*
X745130Y308000D01*
X744940Y308080D01*
X744730D01*
X744490Y307950D01*
X744300Y307750D01*
X744170Y307500D01*
X744060Y307080D01*
X744030Y306700D01*
X744090Y306330D01*
X744170Y306080D01*
X744330Y305830D01*
X744510Y305660D01*
X744700Y305580D01*
X744890D01*
X745070Y305660D01*
X745230Y305790D01*
X745370Y305950D01*
G01X746900Y305580D02*
X746690Y305620D01*
X746500Y305790D01*
X746340Y306040D01*
X746230Y306330D01*
X746180Y306660D01*
Y307000D01*
X746230Y307330D01*
X746340Y307620D01*
X746500Y307870D01*
X746690Y308040D01*
X746900Y308080D01*
X747110Y308040D01*
X747300Y307870D01*
X747460Y307620D01*
X747570Y307330D01*
X747620Y307000D01*
Y306660D01*
X747570Y306330D01*
X747460Y306040D01*
X747300Y305790D01*
X747110Y305620D01*
X746900Y305580D01*
G01X748570D02*
Y308080D01*
X749210D01*
X749420Y307950D01*
X749580Y307660D01*
X749630Y307330D01*
X749580Y307000D01*
X749450Y306750D01*
X749210Y306620D01*
X748570D01*
G01X750770Y305580D02*
Y308080D01*
X751410D01*
X751620Y307950D01*
X751780Y307660D01*
X751830Y307330D01*
X751780Y307000D01*
X751650Y306750D01*
X751410Y306620D01*
X750770D01*
G01X754030Y305580D02*
X752970D01*
Y308080D01*
X754030D01*
G01X753610Y306870D02*
X752970D01*
G01X755170Y305580D02*
Y308080D01*
X755830D01*
X756050Y307950D01*
X756180Y307790D01*
X756230Y307450D01*
X756180Y307120D01*
X756020Y306910D01*
X755830Y306790D01*
X755170D01*
G01X755830D02*
X756230Y305580D01*
G01X760100D02*
Y308080D01*
X759780Y307580D01*
G01Y305580D02*
X760420D01*
G01X762300Y305500D02*
X762250Y305540D01*
Y305620D01*
X762300Y305660D01*
X762350Y305620D01*
Y305540D01*
X762300Y305500D01*
G01X763990Y307660D02*
X764150Y307910D01*
X764340Y308040D01*
X764550Y308080D01*
X764820Y308000D01*
X765010Y307790D01*
X765060Y307540D01*
X765030Y307290D01*
X764930Y307080D01*
X764390Y306660D01*
X764150Y306370D01*
X763990Y305950D01*
X763940Y305580D01*
X765060D01*
G01X768210D02*
Y308080D01*
X768900Y306000D01*
X769590Y308080D01*
Y305580D01*
G01X770780Y308080D02*
X771420D01*
G01X771100D02*
Y305580D01*
G01X770780D02*
X771420D01*
G01X772770Y308080D02*
Y305580D01*
X773830D01*
G01X697970Y346720D02*
Y344220D01*
X699030D01*
G01X700110Y344720D02*
X700270Y344430D01*
X700490Y344260D01*
X700730Y344220D01*
X700940Y344260D01*
X701150Y344470D01*
X701290Y344720D01*
X701310Y344970D01*
X701260Y345260D01*
X701070Y345470D01*
X700890Y345550D01*
X700650D01*
G01X700890D02*
X701050Y345680D01*
X701180Y345890D01*
X701230Y346140D01*
X701180Y346390D01*
X701050Y346590D01*
X700810Y346720D01*
X700570Y346680D01*
X700330Y346510D01*
G01X702900Y344140D02*
X702850Y344180D01*
Y344260D01*
X702900Y344300D01*
X702950Y344260D01*
Y344180D01*
X702900Y344140D01*
G01Y345260D02*
X702850Y345300D01*
Y345390D01*
X702900Y345430D01*
X702950Y345390D01*
Y345300D01*
X702900Y345260D01*
G01X706770Y346720D02*
Y344220D01*
X707830D01*
G01X708830D02*
X709500Y346720D01*
X710170Y344220D01*
G01X709930Y345090D02*
X709070D01*
G01X711700Y344220D02*
Y345340D01*
X711170Y346720D01*
G01X712230D02*
X711700Y345340D01*
G01X714430Y344220D02*
X713370D01*
Y346720D01*
X714430D01*
G01X714010Y345510D02*
X713370D01*
G01X715570Y344220D02*
Y346720D01*
X716230D01*
X716450Y346590D01*
X716580Y346430D01*
X716630Y346090D01*
X716580Y345760D01*
X716420Y345550D01*
X716230Y345430D01*
X715570D01*
G01X716230D02*
X716630Y344220D01*
G01X720500D02*
Y346720D01*
X720180Y346220D01*
G01Y344220D02*
X720820D01*
G01X725490Y346510D02*
X725330Y346640D01*
X725140Y346720D01*
X724930D01*
X724690Y346590D01*
X724500Y346390D01*
X724370Y346140D01*
X724260Y345720D01*
X724230Y345340D01*
X724290Y344970D01*
X724370Y344720D01*
X724530Y344470D01*
X724710Y344300D01*
X724900Y344220D01*
X725090D01*
X725270Y344300D01*
X725430Y344430D01*
X725570Y344590D01*
G01X727100Y344220D02*
X726890Y344260D01*
X726700Y344430D01*
X726540Y344680D01*
X726430Y344970D01*
X726380Y345300D01*
Y345640D01*
X726430Y345970D01*
X726540Y346260D01*
X726700Y346510D01*
X726890Y346680D01*
X727100Y346720D01*
X727310Y346680D01*
X727500Y346510D01*
X727660Y346260D01*
X727770Y345970D01*
X727820Y345640D01*
Y345300D01*
X727770Y344970D01*
X727660Y344680D01*
X727500Y344430D01*
X727310Y344260D01*
X727100Y344220D01*
G01X728690D02*
Y346720D01*
X729910Y344220D01*
Y346720D01*
G01X730910Y344220D02*
Y346720D01*
X731450D01*
X731660Y346590D01*
X731820Y346430D01*
X731950Y346180D01*
X732060Y345890D01*
X732090Y345470D01*
X732060Y345050D01*
X731950Y344760D01*
X731820Y344510D01*
X731660Y344340D01*
X731450Y344220D01*
X730910D01*
G01X733110Y346720D02*
Y344930D01*
X733220Y344550D01*
X733430Y344300D01*
X733700Y344220D01*
X733970Y344300D01*
X734180Y344550D01*
X734290Y344930D01*
Y346720D01*
G01X736490Y346510D02*
X736330Y346640D01*
X736140Y346720D01*
X735930D01*
X735690Y346590D01*
X735500Y346390D01*
X735370Y346140D01*
X735260Y345720D01*
X735230Y345340D01*
X735290Y344970D01*
X735370Y344720D01*
X735530Y344470D01*
X735710Y344300D01*
X735900Y344220D01*
X736090D01*
X736270Y344300D01*
X736430Y344430D01*
X736570Y344590D01*
G01X738100Y346720D02*
Y344220D01*
G01X737490Y346720D02*
X738710D01*
G01X740300Y344220D02*
X740090Y344260D01*
X739900Y344430D01*
X739740Y344680D01*
X739630Y344970D01*
X739580Y345300D01*
Y345640D01*
X739630Y345970D01*
X739740Y346260D01*
X739900Y346510D01*
X740090Y346680D01*
X740300Y346720D01*
X740510Y346680D01*
X740700Y346510D01*
X740860Y346260D01*
X740970Y345970D01*
X741020Y345640D01*
Y345300D01*
X740970Y344970D01*
X740860Y344680D01*
X740700Y344430D01*
X740510Y344260D01*
X740300Y344220D01*
G01X741970D02*
Y346720D01*
X742630D01*
X742850Y346590D01*
X742980Y346430D01*
X743030Y346090D01*
X742980Y345760D01*
X742820Y345550D01*
X742630Y345430D01*
X741970D01*
G01X742630D02*
X743030Y344220D01*
G01X746550Y345050D02*
X747250D01*
G01X751890Y346510D02*
X751730Y346640D01*
X751540Y346720D01*
X751330D01*
X751090Y346590D01*
X750900Y346390D01*
X750770Y346140D01*
X750660Y345720D01*
X750630Y345340D01*
X750690Y344970D01*
X750770Y344720D01*
X750930Y344470D01*
X751110Y344300D01*
X751300Y344220D01*
X751490D01*
X751670Y344300D01*
X751830Y344430D01*
X751970Y344590D01*
G01X753500Y344220D02*
X753290Y344260D01*
X753100Y344430D01*
X752940Y344680D01*
X752830Y344970D01*
X752780Y345300D01*
Y345640D01*
X752830Y345970D01*
X752940Y346260D01*
X753100Y346510D01*
X753290Y346680D01*
X753500Y346720D01*
X753710Y346680D01*
X753900Y346510D01*
X754060Y346260D01*
X754170Y345970D01*
X754220Y345640D01*
Y345300D01*
X754170Y344970D01*
X754060Y344680D01*
X753900Y344430D01*
X753710Y344260D01*
X753500Y344220D01*
G01X755170D02*
Y346720D01*
X755810D01*
X756020Y346590D01*
X756180Y346300D01*
X756230Y345970D01*
X756180Y345640D01*
X756050Y345390D01*
X755810Y345260D01*
X755170D01*
G01X757370Y344220D02*
Y346720D01*
X758010D01*
X758220Y346590D01*
X758380Y346300D01*
X758430Y345970D01*
X758380Y345640D01*
X758250Y345390D01*
X758010Y345260D01*
X757370D01*
G01X760630Y344220D02*
X759570D01*
Y346720D01*
X760630D01*
G01X760210Y345510D02*
X759570D01*
G01X761770Y344220D02*
Y346720D01*
X762430D01*
X762650Y346590D01*
X762780Y346430D01*
X762830Y346090D01*
X762780Y345760D01*
X762620Y345550D01*
X762430Y345430D01*
X761770D01*
G01X762430D02*
X762830Y344220D01*
G01X766700D02*
Y346720D01*
X766380Y346220D01*
G01Y344220D02*
X767020D01*
G01X768900Y344140D02*
X768850Y344180D01*
Y344260D01*
X768900Y344300D01*
X768950Y344260D01*
Y344180D01*
X768900Y344140D01*
G01X770590Y346300D02*
X770750Y346550D01*
X770940Y346680D01*
X771150Y346720D01*
X771420Y346640D01*
X771610Y346430D01*
X771660Y346180D01*
X771630Y345930D01*
X771530Y345720D01*
X770990Y345300D01*
X770750Y345010D01*
X770590Y344590D01*
X770540Y344220D01*
X771660D01*
G01X774810D02*
Y346720D01*
X775500Y344640D01*
X776190Y346720D01*
Y344220D01*
G01X777380Y346720D02*
X778020D01*
G01X777700D02*
Y344220D01*
G01X777380D02*
X778020D01*
G01X779370Y346720D02*
Y344220D01*
X780430D01*
G01X697970Y385360D02*
Y382860D01*
X699030D01*
G01X700190Y384940D02*
X700350Y385190D01*
X700540Y385320D01*
X700750Y385360D01*
X701020Y385280D01*
X701210Y385070D01*
X701260Y384820D01*
X701230Y384570D01*
X701130Y384360D01*
X700590Y383940D01*
X700350Y383650D01*
X700190Y383230D01*
X700140Y382860D01*
X701260D01*
G01X702900Y382780D02*
X702850Y382820D01*
Y382900D01*
X702900Y382940D01*
X702950Y382900D01*
Y382820D01*
X702900Y382780D01*
G01Y383900D02*
X702850Y383940D01*
Y384030D01*
X702900Y384070D01*
X702950Y384030D01*
Y383940D01*
X702900Y383900D01*
G01X706770Y382860D02*
Y385360D01*
X707410D01*
X707620Y385230D01*
X707780Y384940D01*
X707830Y384610D01*
X707780Y384280D01*
X707650Y384030D01*
X707410Y383900D01*
X706770D01*
G01X708700Y385360D02*
X709070Y382860D01*
X709500Y385360D01*
X709930Y382860D01*
X710300Y385360D01*
G01X711170Y382860D02*
Y385360D01*
X711830D01*
X712050Y385230D01*
X712180Y385070D01*
X712230Y384730D01*
X712180Y384400D01*
X712020Y384190D01*
X711830Y384070D01*
X711170D01*
G01X711830D02*
X712230Y382860D01*
G01X716690Y385150D02*
X716530Y385280D01*
X716340Y385360D01*
X716130D01*
X715890Y385230D01*
X715700Y385030D01*
X715570Y384780D01*
X715460Y384360D01*
X715430Y383980D01*
X715490Y383610D01*
X715570Y383360D01*
X715730Y383110D01*
X715910Y382940D01*
X716100Y382860D01*
X716290D01*
X716470Y382940D01*
X716630Y383070D01*
X716770Y383230D01*
G01X718300Y382860D02*
X718090Y382900D01*
X717900Y383070D01*
X717740Y383320D01*
X717630Y383610D01*
X717580Y383940D01*
Y384280D01*
X717630Y384610D01*
X717740Y384900D01*
X717900Y385150D01*
X718090Y385320D01*
X718300Y385360D01*
X718510Y385320D01*
X718700Y385150D01*
X718860Y384900D01*
X718970Y384610D01*
X719020Y384280D01*
Y383940D01*
X718970Y383610D01*
X718860Y383320D01*
X718700Y383070D01*
X718510Y382900D01*
X718300Y382860D01*
G01X719890D02*
Y385360D01*
X721110Y382860D01*
Y385360D01*
G01X722110Y382860D02*
Y385360D01*
X722650D01*
X722860Y385230D01*
X723020Y385070D01*
X723150Y384820D01*
X723260Y384530D01*
X723290Y384110D01*
X723260Y383690D01*
X723150Y383400D01*
X723020Y383150D01*
X722860Y382980D01*
X722650Y382860D01*
X722110D01*
G01X724310Y385360D02*
Y383570D01*
X724420Y383190D01*
X724630Y382940D01*
X724900Y382860D01*
X725170Y382940D01*
X725380Y383190D01*
X725490Y383570D01*
Y385360D01*
G01X727690Y385150D02*
X727530Y385280D01*
X727340Y385360D01*
X727130D01*
X726890Y385230D01*
X726700Y385030D01*
X726570Y384780D01*
X726460Y384360D01*
X726430Y383980D01*
X726490Y383610D01*
X726570Y383360D01*
X726730Y383110D01*
X726910Y382940D01*
X727100Y382860D01*
X727290D01*
X727470Y382940D01*
X727630Y383070D01*
X727770Y383230D01*
G01X729300Y385360D02*
Y382860D01*
G01X728690Y385360D02*
X729910D01*
G01X731500Y382860D02*
X731290Y382900D01*
X731100Y383070D01*
X730940Y383320D01*
X730830Y383610D01*
X730780Y383940D01*
Y384280D01*
X730830Y384610D01*
X730940Y384900D01*
X731100Y385150D01*
X731290Y385320D01*
X731500Y385360D01*
X731710Y385320D01*
X731900Y385150D01*
X732060Y384900D01*
X732170Y384610D01*
X732220Y384280D01*
Y383940D01*
X732170Y383610D01*
X732060Y383320D01*
X731900Y383070D01*
X731710Y382900D01*
X731500Y382860D01*
G01X733170D02*
Y385360D01*
X733830D01*
X734050Y385230D01*
X734180Y385070D01*
X734230Y384730D01*
X734180Y384400D01*
X734020Y384190D01*
X733830Y384070D01*
X733170D01*
G01X733830D02*
X734230Y382860D01*
G01X737750Y383690D02*
X738450D01*
G01X743090Y385150D02*
X742930Y385280D01*
X742740Y385360D01*
X742530D01*
X742290Y385230D01*
X742100Y385030D01*
X741970Y384780D01*
X741860Y384360D01*
X741830Y383980D01*
X741890Y383610D01*
X741970Y383360D01*
X742130Y383110D01*
X742310Y382940D01*
X742500Y382860D01*
X742690D01*
X742870Y382940D01*
X743030Y383070D01*
X743170Y383230D01*
G01X744700Y382860D02*
X744490Y382900D01*
X744300Y383070D01*
X744140Y383320D01*
X744030Y383610D01*
X743980Y383940D01*
Y384280D01*
X744030Y384610D01*
X744140Y384900D01*
X744300Y385150D01*
X744490Y385320D01*
X744700Y385360D01*
X744910Y385320D01*
X745100Y385150D01*
X745260Y384900D01*
X745370Y384610D01*
X745420Y384280D01*
Y383940D01*
X745370Y383610D01*
X745260Y383320D01*
X745100Y383070D01*
X744910Y382900D01*
X744700Y382860D01*
G01X746370D02*
Y385360D01*
X747010D01*
X747220Y385230D01*
X747380Y384940D01*
X747430Y384610D01*
X747380Y384280D01*
X747250Y384030D01*
X747010Y383900D01*
X746370D01*
G01X748570Y382860D02*
Y385360D01*
X749210D01*
X749420Y385230D01*
X749580Y384940D01*
X749630Y384610D01*
X749580Y384280D01*
X749450Y384030D01*
X749210Y383900D01*
X748570D01*
G01X751830Y382860D02*
X750770D01*
Y385360D01*
X751830D01*
G01X751410Y384150D02*
X750770D01*
G01X752970Y382860D02*
Y385360D01*
X753630D01*
X753850Y385230D01*
X753980Y385070D01*
X754030Y384730D01*
X753980Y384400D01*
X753820Y384190D01*
X753630Y384070D01*
X752970D01*
G01X753630D02*
X754030Y382860D01*
G01X757900D02*
Y385360D01*
X757580Y384860D01*
G01Y382860D02*
X758220D01*
G01X760100Y382780D02*
X760050Y382820D01*
Y382900D01*
X760100Y382940D01*
X760150Y382900D01*
Y382820D01*
X760100Y382780D01*
G01X761790Y384940D02*
X761950Y385190D01*
X762140Y385320D01*
X762350Y385360D01*
X762620Y385280D01*
X762810Y385070D01*
X762860Y384820D01*
X762830Y384570D01*
X762730Y384360D01*
X762190Y383940D01*
X761950Y383650D01*
X761790Y383230D01*
X761740Y382860D01*
X762860D01*
G01X766010D02*
Y385360D01*
X766700Y383280D01*
X767390Y385360D01*
Y382860D01*
G01X768580Y385360D02*
X769220D01*
G01X768900D02*
Y382860D01*
G01X768580D02*
X769220D01*
G01X770570Y385360D02*
Y382860D01*
X771630D01*
G01X702310Y364270D02*
X703490Y366100D01*
G01X702900Y366430D02*
Y363930D01*
G01X703490Y364270D02*
X702310Y366100D01*
G01X702100Y365180D02*
X703700D01*
G01X708910Y364350D02*
Y366850D01*
X709450D01*
X709660Y366720D01*
X709820Y366560D01*
X709950Y366310D01*
X710060Y366020D01*
X710090Y365600D01*
X710060Y365180D01*
X709950Y364890D01*
X709820Y364640D01*
X709660Y364470D01*
X709450Y364350D01*
X708910D01*
G01X711380Y366850D02*
X712020D01*
G01X711700D02*
Y364350D01*
G01X711380D02*
X712020D01*
G01X714430D02*
X713370D01*
Y366850D01*
X714430D01*
G01X714010Y365640D02*
X713370D01*
G01X715570Y366850D02*
Y364350D01*
X716630D01*
G01X718830D02*
X717770D01*
Y366850D01*
X718830D01*
G01X718410Y365640D02*
X717770D01*
G01X721090Y366640D02*
X720930Y366770D01*
X720740Y366850D01*
X720530D01*
X720290Y366720D01*
X720100Y366520D01*
X719970Y366270D01*
X719860Y365850D01*
X719830Y365470D01*
X719890Y365100D01*
X719970Y364850D01*
X720130Y364600D01*
X720310Y364430D01*
X720500Y364350D01*
X720690D01*
X720870Y364430D01*
X721030Y364560D01*
X721170Y364720D01*
G01X722700Y366850D02*
Y364350D01*
G01X722090Y366850D02*
X723310D01*
G01X724370Y364350D02*
Y366850D01*
X725030D01*
X725250Y366720D01*
X725380Y366560D01*
X725430Y366220D01*
X725380Y365890D01*
X725220Y365680D01*
X725030Y365560D01*
X724370D01*
G01X725030D02*
X725430Y364350D01*
G01X726780Y366850D02*
X727420D01*
G01X727100D02*
Y364350D01*
G01X726780D02*
X727420D01*
G01X729890Y366640D02*
X729730Y366770D01*
X729540Y366850D01*
X729330D01*
X729090Y366720D01*
X728900Y366520D01*
X728770Y366270D01*
X728660Y365850D01*
X728630Y365470D01*
X728690Y365100D01*
X728770Y364850D01*
X728930Y364600D01*
X729110Y364430D01*
X729300Y364350D01*
X729490D01*
X729670Y364430D01*
X729830Y364560D01*
X729970Y364720D01*
G01X733350Y365180D02*
X734050D01*
G01X737590Y364350D02*
Y366850D01*
X738610D01*
G01X738230Y365640D02*
X737590D01*
G01X739770Y364350D02*
Y366850D01*
X740430D01*
X740650Y366720D01*
X740780Y366560D01*
X740830Y366220D01*
X740780Y365890D01*
X740620Y365680D01*
X740430Y365560D01*
X739770D01*
G01X740430D02*
X740830Y364350D01*
G01X742150Y365180D02*
X742850D01*
G01X745020Y364350D02*
Y366850D01*
X744030Y365060D01*
X745370D01*
G01X749100Y364350D02*
X749290Y364390D01*
X749500Y364520D01*
X749630Y364720D01*
X749690Y365020D01*
X749630Y365310D01*
X749470Y365560D01*
X749230Y365680D01*
X748970D01*
X748810Y365770D01*
X748670Y365970D01*
X748620Y366270D01*
X748700Y366560D01*
X748890Y366770D01*
X749100Y366850D01*
X749310Y366770D01*
X749500Y366560D01*
X749580Y366270D01*
X749530Y365970D01*
X749390Y365770D01*
X749230Y365680D01*
X748970D01*
X748730Y365560D01*
X748570Y365310D01*
X748510Y365020D01*
X748570Y364720D01*
X748700Y364520D01*
X748910Y364390D01*
X749100Y364350D01*
G01X752810D02*
Y366850D01*
X753500Y364770D01*
X754190Y366850D01*
Y364350D01*
G01X755380Y366850D02*
X756020D01*
G01X755700D02*
Y364350D01*
G01X755380D02*
X756020D01*
G01X757370Y366850D02*
Y364350D01*
X758430D01*
G01X702310Y402910D02*
X703490Y404740D01*
G01X702900Y405070D02*
Y402570D01*
G01X703490Y402910D02*
X702310Y404740D01*
G01X702100Y403820D02*
X703700D01*
G01X708910Y402990D02*
Y405490D01*
X709450D01*
X709660Y405360D01*
X709820Y405200D01*
X709950Y404950D01*
X710060Y404660D01*
X710090Y404240D01*
X710060Y403820D01*
X709950Y403530D01*
X709820Y403280D01*
X709660Y403110D01*
X709450Y402990D01*
X708910D01*
G01X711380Y405490D02*
X712020D01*
G01X711700D02*
Y402990D01*
G01X711380D02*
X712020D01*
G01X714430D02*
X713370D01*
Y405490D01*
X714430D01*
G01X714010Y404280D02*
X713370D01*
G01X715570Y405490D02*
Y402990D01*
X716630D01*
G01X718830D02*
X717770D01*
Y405490D01*
X718830D01*
G01X718410Y404280D02*
X717770D01*
G01X721090Y405280D02*
X720930Y405410D01*
X720740Y405490D01*
X720530D01*
X720290Y405360D01*
X720100Y405160D01*
X719970Y404910D01*
X719860Y404490D01*
X719830Y404110D01*
X719890Y403740D01*
X719970Y403490D01*
X720130Y403240D01*
X720310Y403070D01*
X720500Y402990D01*
X720690D01*
X720870Y403070D01*
X721030Y403200D01*
X721170Y403360D01*
G01X722700Y405490D02*
Y402990D01*
G01X722090Y405490D02*
X723310D01*
G01X724370Y402990D02*
Y405490D01*
X725030D01*
X725250Y405360D01*
X725380Y405200D01*
X725430Y404860D01*
X725380Y404530D01*
X725220Y404320D01*
X725030Y404200D01*
X724370D01*
G01X725030D02*
X725430Y402990D01*
G01X726780Y405490D02*
X727420D01*
G01X727100D02*
Y402990D01*
G01X726780D02*
X727420D01*
G01X729890Y405280D02*
X729730Y405410D01*
X729540Y405490D01*
X729330D01*
X729090Y405360D01*
X728900Y405160D01*
X728770Y404910D01*
X728660Y404490D01*
X728630Y404110D01*
X728690Y403740D01*
X728770Y403490D01*
X728930Y403240D01*
X729110Y403070D01*
X729300Y402990D01*
X729490D01*
X729670Y403070D01*
X729830Y403200D01*
X729970Y403360D01*
G01X733350Y403820D02*
X734050D01*
G01X737590Y402990D02*
Y405490D01*
X738610D01*
G01X738230Y404280D02*
X737590D01*
G01X739770Y402990D02*
Y405490D01*
X740430D01*
X740650Y405360D01*
X740780Y405200D01*
X740830Y404860D01*
X740780Y404530D01*
X740620Y404320D01*
X740430Y404200D01*
X739770D01*
G01X740430D02*
X740830Y402990D01*
G01X742150Y403820D02*
X742850D01*
G01X745020Y402990D02*
Y405490D01*
X744030Y403700D01*
X745370D01*
G01X749100Y402990D02*
X749290Y403030D01*
X749500Y403160D01*
X749630Y403360D01*
X749690Y403660D01*
X749630Y403950D01*
X749470Y404200D01*
X749230Y404320D01*
X748970D01*
X748810Y404410D01*
X748670Y404610D01*
X748620Y404910D01*
X748700Y405200D01*
X748890Y405410D01*
X749100Y405490D01*
X749310Y405410D01*
X749500Y405200D01*
X749580Y404910D01*
X749530Y404610D01*
X749390Y404410D01*
X749230Y404320D01*
X748970D01*
X748730Y404200D01*
X748570Y403950D01*
X748510Y403660D01*
X748570Y403360D01*
X748700Y403160D01*
X748910Y403030D01*
X749100Y402990D01*
G01X752810D02*
Y405490D01*
X753500Y403410D01*
X754190Y405490D01*
Y402990D01*
G01X755380Y405490D02*
X756020D01*
G01X755700D02*
Y402990D01*
G01X755380D02*
X756020D01*
G01X757370Y405490D02*
Y402990D01*
X758430D01*
G01X702310Y425580D02*
X703490Y427410D01*
G01X702900Y427740D02*
Y425240D01*
G01X703490Y425580D02*
X702310Y427410D01*
G01X702100Y426490D02*
X703700D01*
G01X708940Y425990D02*
X709150Y425780D01*
X709390Y425660D01*
X709610D01*
X709820Y425780D01*
X709980Y425990D01*
X710060Y426290D01*
X710010Y426580D01*
X709870Y426830D01*
X709630Y426990D01*
X709310Y427080D01*
X709130Y427240D01*
X709050Y427530D01*
X709100Y427830D01*
X709230Y428030D01*
X709420Y428160D01*
X709610D01*
X709790Y428080D01*
X709950Y427870D01*
G01X711110Y428160D02*
Y426370D01*
X711220Y425990D01*
X711430Y425740D01*
X711700Y425660D01*
X711970Y425740D01*
X712180Y425990D01*
X712290Y426370D01*
Y428160D01*
G01X713370Y425660D02*
Y428160D01*
X714030D01*
X714250Y428030D01*
X714380Y427870D01*
X714430Y427530D01*
X714380Y427200D01*
X714220Y426990D01*
X714030Y426870D01*
X713370D01*
G01X714030D02*
X714430Y425660D01*
G01X715590D02*
Y428160D01*
X716610D01*
G01X716230Y426950D02*
X715590D01*
G01X717630Y425660D02*
X718300Y428160D01*
X718970Y425660D01*
G01X718730Y426530D02*
X717870D01*
G01X721090Y427950D02*
X720930Y428080D01*
X720740Y428160D01*
X720530D01*
X720290Y428030D01*
X720100Y427830D01*
X719970Y427580D01*
X719860Y427160D01*
X719830Y426780D01*
X719890Y426410D01*
X719970Y426160D01*
X720130Y425910D01*
X720310Y425740D01*
X720500Y425660D01*
X720690D01*
X720870Y425740D01*
X721030Y425870D01*
X721170Y426030D01*
G01X723230Y425660D02*
X722170D01*
Y428160D01*
X723230D01*
G01X722810Y426950D02*
X722170D01*
G01X726750Y426490D02*
X727450D01*
G01X730830Y425660D02*
X731500Y428160D01*
X732170Y425660D01*
G01X731930Y426530D02*
X731070D01*
G01X733380Y428160D02*
X734020D01*
G01X733700D02*
Y425660D01*
G01X733380D02*
X734020D01*
G01X735370D02*
Y428160D01*
X736030D01*
X736250Y428030D01*
X736380Y427870D01*
X736430Y427530D01*
X736380Y427200D01*
X736220Y426990D01*
X736030Y426870D01*
X735370D01*
G01X736030D02*
X736430Y425660D01*
G01X740300Y428160D02*
X740090Y428080D01*
X739930Y427870D01*
X739820Y427620D01*
X739740Y427280D01*
X739710Y426910D01*
X739740Y426530D01*
X739820Y426200D01*
X739930Y425950D01*
X740090Y425740D01*
X740300Y425660D01*
X740510Y425740D01*
X740670Y425950D01*
X740780Y426200D01*
X740860Y426530D01*
X740890Y426910D01*
X740860Y427280D01*
X740780Y427620D01*
X740670Y427870D01*
X740510Y428080D01*
X740300Y428160D01*
G01X744010Y425660D02*
Y428160D01*
X744700Y426080D01*
X745390Y428160D01*
Y425660D01*
G01X746580Y428160D02*
X747220D01*
G01X746900D02*
Y425660D01*
G01X746580D02*
X747220D01*
G01X748570Y428160D02*
Y425660D01*
X749630D01*
G01X697970Y424000D02*
Y421500D01*
X699030D01*
G01X700700D02*
Y424000D01*
X700380Y423500D01*
G01Y421500D02*
X701020D01*
G01X702900Y421420D02*
X702850Y421460D01*
Y421540D01*
X702900Y421580D01*
X702950Y421540D01*
Y421460D01*
X702900Y421420D01*
G01Y422540D02*
X702850Y422580D01*
Y422670D01*
X702900Y422710D01*
X702950Y422670D01*
Y422580D01*
X702900Y422540D01*
G01X707300Y424000D02*
Y421500D01*
G01X706690Y424000D02*
X707910D01*
G01X709500Y421500D02*
X709290Y421540D01*
X709100Y421710D01*
X708940Y421960D01*
X708830Y422250D01*
X708780Y422580D01*
Y422920D01*
X708830Y423250D01*
X708940Y423540D01*
X709100Y423790D01*
X709290Y423960D01*
X709500Y424000D01*
X709710Y423960D01*
X709900Y423790D01*
X710060Y423540D01*
X710170Y423250D01*
X710220Y422920D01*
Y422580D01*
X710170Y422250D01*
X710060Y421960D01*
X709900Y421710D01*
X709710Y421540D01*
X709500Y421500D01*
G01X711170D02*
Y424000D01*
X711810D01*
X712020Y423870D01*
X712180Y423580D01*
X712230Y423250D01*
X712180Y422920D01*
X712050Y422670D01*
X711810Y422540D01*
X711170D01*
G01X716690Y423790D02*
X716530Y423920D01*
X716340Y424000D01*
X716130D01*
X715890Y423870D01*
X715700Y423670D01*
X715570Y423420D01*
X715460Y423000D01*
X715430Y422620D01*
X715490Y422250D01*
X715570Y422000D01*
X715730Y421750D01*
X715910Y421580D01*
X716100Y421500D01*
X716290D01*
X716470Y421580D01*
X716630Y421710D01*
X716770Y421870D01*
G01X718300Y421500D02*
X718090Y421540D01*
X717900Y421710D01*
X717740Y421960D01*
X717630Y422250D01*
X717580Y422580D01*
Y422920D01*
X717630Y423250D01*
X717740Y423540D01*
X717900Y423790D01*
X718090Y423960D01*
X718300Y424000D01*
X718510Y423960D01*
X718700Y423790D01*
X718860Y423540D01*
X718970Y423250D01*
X719020Y422920D01*
Y422580D01*
X718970Y422250D01*
X718860Y421960D01*
X718700Y421710D01*
X718510Y421540D01*
X718300Y421500D01*
G01X719890D02*
Y424000D01*
X721110Y421500D01*
Y424000D01*
G01X722110Y421500D02*
Y424000D01*
X722650D01*
X722860Y423870D01*
X723020Y423710D01*
X723150Y423460D01*
X723260Y423170D01*
X723290Y422750D01*
X723260Y422330D01*
X723150Y422040D01*
X723020Y421790D01*
X722860Y421620D01*
X722650Y421500D01*
X722110D01*
G01X724310Y424000D02*
Y422210D01*
X724420Y421830D01*
X724630Y421580D01*
X724900Y421500D01*
X725170Y421580D01*
X725380Y421830D01*
X725490Y422210D01*
Y424000D01*
G01X727690Y423790D02*
X727530Y423920D01*
X727340Y424000D01*
X727130D01*
X726890Y423870D01*
X726700Y423670D01*
X726570Y423420D01*
X726460Y423000D01*
X726430Y422620D01*
X726490Y422250D01*
X726570Y422000D01*
X726730Y421750D01*
X726910Y421580D01*
X727100Y421500D01*
X727290D01*
X727470Y421580D01*
X727630Y421710D01*
X727770Y421870D01*
G01X729300Y424000D02*
Y421500D01*
G01X728690Y424000D02*
X729910D01*
G01X731500Y421500D02*
X731290Y421540D01*
X731100Y421710D01*
X730940Y421960D01*
X730830Y422250D01*
X730780Y422580D01*
Y422920D01*
X730830Y423250D01*
X730940Y423540D01*
X731100Y423790D01*
X731290Y423960D01*
X731500Y424000D01*
X731710Y423960D01*
X731900Y423790D01*
X732060Y423540D01*
X732170Y423250D01*
X732220Y422920D01*
Y422580D01*
X732170Y422250D01*
X732060Y421960D01*
X731900Y421710D01*
X731710Y421540D01*
X731500Y421500D01*
G01X733170D02*
Y424000D01*
X733830D01*
X734050Y423870D01*
X734180Y423710D01*
X734230Y423370D01*
X734180Y423040D01*
X734020Y422830D01*
X733830Y422710D01*
X733170D01*
G01X733830D02*
X734230Y421500D01*
G01X737750Y422330D02*
X738450D01*
G01X743090Y423790D02*
X742930Y423920D01*
X742740Y424000D01*
X742530D01*
X742290Y423870D01*
X742100Y423670D01*
X741970Y423420D01*
X741860Y423000D01*
X741830Y422620D01*
X741890Y422250D01*
X741970Y422000D01*
X742130Y421750D01*
X742310Y421580D01*
X742500Y421500D01*
X742690D01*
X742870Y421580D01*
X743030Y421710D01*
X743170Y421870D01*
G01X744700Y421500D02*
X744490Y421540D01*
X744300Y421710D01*
X744140Y421960D01*
X744030Y422250D01*
X743980Y422580D01*
Y422920D01*
X744030Y423250D01*
X744140Y423540D01*
X744300Y423790D01*
X744490Y423960D01*
X744700Y424000D01*
X744910Y423960D01*
X745100Y423790D01*
X745260Y423540D01*
X745370Y423250D01*
X745420Y422920D01*
Y422580D01*
X745370Y422250D01*
X745260Y421960D01*
X745100Y421710D01*
X744910Y421540D01*
X744700Y421500D01*
G01X746370D02*
Y424000D01*
X747010D01*
X747220Y423870D01*
X747380Y423580D01*
X747430Y423250D01*
X747380Y422920D01*
X747250Y422670D01*
X747010Y422540D01*
X746370D01*
G01X748570Y421500D02*
Y424000D01*
X749210D01*
X749420Y423870D01*
X749580Y423580D01*
X749630Y423250D01*
X749580Y422920D01*
X749450Y422670D01*
X749210Y422540D01*
X748570D01*
G01X751830Y421500D02*
X750770D01*
Y424000D01*
X751830D01*
G01X751410Y422790D02*
X750770D01*
G01X752970Y421500D02*
Y424000D01*
X753630D01*
X753850Y423870D01*
X753980Y423710D01*
X754030Y423370D01*
X753980Y423040D01*
X753820Y422830D01*
X753630Y422710D01*
X752970D01*
G01X753630D02*
X754030Y421500D01*
G01X757900D02*
Y424000D01*
X757580Y423500D01*
G01Y421500D02*
X758220D01*
G01X760100Y421420D02*
X760050Y421460D01*
Y421540D01*
X760100Y421580D01*
X760150Y421540D01*
Y421460D01*
X760100Y421420D01*
G01X761790Y423580D02*
X761950Y423830D01*
X762140Y423960D01*
X762350Y424000D01*
X762620Y423920D01*
X762810Y423710D01*
X762860Y423460D01*
X762830Y423210D01*
X762730Y423000D01*
X762190Y422580D01*
X761950Y422290D01*
X761790Y421870D01*
X761740Y421500D01*
X762860D01*
G01X766010D02*
Y424000D01*
X766700Y421920D01*
X767390Y424000D01*
Y421500D01*
G01X768580Y424000D02*
X769220D01*
G01X768900D02*
Y421500D01*
G01X768580D02*
X769220D01*
G01X770570Y424000D02*
Y421500D01*
X771630D01*
G01X742140Y-17930D02*
X743070Y-18970D01*
X744150Y-19590D01*
X745550Y-19800D01*
X746950Y-19380D01*
X748030Y-18550D01*
X748810Y-17090D01*
X748960Y-15430D01*
X748650Y-13760D01*
X747870Y-12720D01*
X746790Y-11880D01*
X745710Y-11680D01*
X744620Y-11880D01*
X743230Y-12720D01*
X743690Y-7300D01*
X747870D01*
G01X754540Y-17930D02*
X755470Y-18970D01*
X756550Y-19590D01*
X757950Y-19800D01*
X759350Y-19380D01*
X760430Y-18550D01*
X761210Y-17090D01*
X761360Y-15430D01*
X761050Y-13760D01*
X760270Y-12720D01*
X759190Y-11880D01*
X758110Y-11680D01*
X757020Y-11880D01*
X755630Y-12720D01*
X756090Y-7300D01*
X760270D01*
G01X770350D02*
X769110Y-7720D01*
X768180Y-8760D01*
X767560Y-10010D01*
X767090Y-11680D01*
X766940Y-13550D01*
X767090Y-15430D01*
X767560Y-17090D01*
X768180Y-18340D01*
X769110Y-19380D01*
X770350Y-19800D01*
X771590Y-19380D01*
X772520Y-18340D01*
X773140Y-17090D01*
X773610Y-15430D01*
X773760Y-13550D01*
X773610Y-11680D01*
X773140Y-10010D01*
X772520Y-8760D01*
X771590Y-7720D01*
X770350Y-7300D01*
G01X782750D02*
X781510Y-7720D01*
X780580Y-8760D01*
X779960Y-10010D01*
X779490Y-11680D01*
X779340Y-13550D01*
X779490Y-15430D01*
X779960Y-17090D01*
X780580Y-18340D01*
X781510Y-19380D01*
X782750Y-19800D01*
X783990Y-19380D01*
X784920Y-18340D01*
X785540Y-17090D01*
X786010Y-15430D01*
X786160Y-13550D01*
X786010Y-11680D01*
X785540Y-10010D01*
X784920Y-8760D01*
X783990Y-7720D01*
X782750Y-7300D01*
G01X795150Y-20220D02*
X794840Y-20010D01*
Y-19590D01*
X795150Y-19380D01*
X795460Y-19590D01*
Y-20010D01*
X795150Y-20220D01*
G01X807550Y-7300D02*
X806310Y-7720D01*
X805380Y-8760D01*
X804760Y-10010D01*
X804290Y-11680D01*
X804140Y-13550D01*
X804290Y-15430D01*
X804760Y-17090D01*
X805380Y-18340D01*
X806310Y-19380D01*
X807550Y-19800D01*
X808790Y-19380D01*
X809720Y-18340D01*
X810340Y-17090D01*
X810810Y-15430D01*
X810960Y-13550D01*
X810810Y-11680D01*
X810340Y-10010D01*
X809720Y-8760D01*
X808790Y-7720D01*
X807550Y-7300D01*
G01X751750Y8300D02*
Y20800D01*
X749890Y18300D01*
G01Y8300D02*
X753610D01*
G01X761200Y13510D02*
X762290Y14970D01*
X763220Y15800D01*
X764460Y16220D01*
X765550Y15800D01*
X766320Y14970D01*
X766940Y13720D01*
X767100Y12260D01*
X766940Y11010D01*
X766320Y9760D01*
X765390Y8720D01*
X764310Y8300D01*
X763070Y8720D01*
X761980Y9970D01*
X761360Y11840D01*
X761200Y13920D01*
X761510Y16630D01*
X761980Y18090D01*
X762750Y19550D01*
X763840Y20590D01*
X764920Y20800D01*
X766010Y20380D01*
X766790Y19340D01*
G01X773910Y9760D02*
X775000Y8720D01*
X776240Y8300D01*
X777480Y8720D01*
X778560Y9970D01*
X779340Y11840D01*
X779650Y13720D01*
Y16010D01*
X779340Y17880D01*
X778560Y19550D01*
X777630Y20380D01*
X776550Y20800D01*
X775310Y20380D01*
X774380Y19550D01*
X773760Y18300D01*
X773450Y16630D01*
X773760Y15180D01*
X774540Y13720D01*
X775470Y12880D01*
X776550Y12670D01*
X777790Y13090D01*
X778720Y14130D01*
X779650Y16010D01*
G01X788950Y7880D02*
X788640Y8090D01*
Y8510D01*
X788950Y8720D01*
X789260Y8510D01*
Y8090D01*
X788950Y7880D01*
G01X797940Y10170D02*
X798870Y9130D01*
X799950Y8510D01*
X801350Y8300D01*
X802750Y8720D01*
X803830Y9550D01*
X804610Y11010D01*
X804760Y12670D01*
X804450Y14340D01*
X803670Y15380D01*
X802590Y16220D01*
X801510Y16420D01*
X800420Y16220D01*
X799030Y15380D01*
X799490Y20800D01*
X803670D01*
G01X759810Y36400D02*
Y48900D01*
X754070Y39940D01*
X761830D01*
G01X770350Y48900D02*
X769110Y48480D01*
X768180Y47440D01*
X767560Y46190D01*
X767090Y44520D01*
X766940Y42650D01*
X767090Y40770D01*
X767560Y39110D01*
X768180Y37860D01*
X769110Y36820D01*
X770350Y36400D01*
X771590Y36820D01*
X772520Y37860D01*
X773140Y39110D01*
X773610Y40770D01*
X773760Y42650D01*
X773610Y44520D01*
X773140Y46190D01*
X772520Y47440D01*
X771590Y48480D01*
X770350Y48900D01*
G01X782750Y35980D02*
X782440Y36190D01*
Y36610D01*
X782750Y36820D01*
X783060Y36610D01*
Y36190D01*
X782750Y35980D01*
G01X795150Y48900D02*
X793910Y48480D01*
X792980Y47440D01*
X792360Y46190D01*
X791890Y44520D01*
X791740Y42650D01*
X791890Y40770D01*
X792360Y39110D01*
X792980Y37860D01*
X793910Y36820D01*
X795150Y36400D01*
X796390Y36820D01*
X797320Y37860D01*
X797940Y39110D01*
X798410Y40770D01*
X798560Y42650D01*
X798410Y44520D01*
X797940Y46190D01*
X797320Y47440D01*
X796390Y48480D01*
X795150Y48900D01*
G01X757950Y64500D02*
Y77000D01*
X756090Y74500D01*
G01Y64500D02*
X759810D01*
G01X766940Y67000D02*
X767870Y65540D01*
X769110Y64710D01*
X770510Y64500D01*
X771750Y64710D01*
X772990Y65750D01*
X773760Y67000D01*
X773910Y68250D01*
X773610Y69710D01*
X772520Y70750D01*
X771430Y71170D01*
X770040D01*
G01X771430D02*
X772360Y71790D01*
X773140Y72830D01*
X773450Y74080D01*
X773140Y75330D01*
X772360Y76370D01*
X770970Y77000D01*
X769580Y76790D01*
X768180Y75960D01*
G01X782750Y64080D02*
X782440Y64290D01*
Y64710D01*
X782750Y64920D01*
X783060Y64710D01*
Y64290D01*
X782750Y64080D01*
G01X795150Y77000D02*
X793910Y76580D01*
X792980Y75540D01*
X792360Y74290D01*
X791890Y72620D01*
X791740Y70750D01*
X791890Y68870D01*
X792360Y67210D01*
X792980Y65960D01*
X793910Y64920D01*
X795150Y64500D01*
X796390Y64920D01*
X797320Y65960D01*
X797940Y67210D01*
X798410Y68870D01*
X798560Y70750D01*
X798410Y72620D01*
X797940Y74290D01*
X797320Y75540D01*
X796390Y76580D01*
X795150Y77000D01*
G01X759810Y63780D02*
Y76280D01*
X754070Y67320D01*
X761830D01*
G01X767400Y68990D02*
X768490Y70450D01*
X769420Y71280D01*
X770660Y71700D01*
X771750Y71280D01*
X772520Y70450D01*
X773140Y69200D01*
X773300Y67740D01*
X773140Y66490D01*
X772520Y65240D01*
X771590Y64200D01*
X770510Y63780D01*
X769270Y64200D01*
X768180Y65450D01*
X767560Y67320D01*
X767400Y69400D01*
X767710Y72110D01*
X768180Y73570D01*
X768950Y75030D01*
X770040Y76070D01*
X771120Y76280D01*
X772210Y75860D01*
X772990Y74820D01*
G01X782750Y63360D02*
X782440Y63570D01*
Y63990D01*
X782750Y64200D01*
X783060Y63990D01*
Y63570D01*
X782750Y63360D01*
G01X792510Y65240D02*
X793600Y64200D01*
X794840Y63780D01*
X796080Y64200D01*
X797160Y65450D01*
X797940Y67320D01*
X798250Y69200D01*
Y71490D01*
X797940Y73360D01*
X797160Y75030D01*
X796230Y75860D01*
X795150Y76280D01*
X793910Y75860D01*
X792980Y75030D01*
X792360Y73780D01*
X792050Y72110D01*
X792360Y70660D01*
X793140Y69200D01*
X794070Y68360D01*
X795150Y68150D01*
X796390Y68570D01*
X797320Y69610D01*
X798250Y71490D01*
G01X754690Y95820D02*
X755940Y94770D01*
X757330Y94150D01*
X758570D01*
X759810Y94770D01*
X760740Y95820D01*
X761210Y97280D01*
X760900Y98730D01*
X760120Y99980D01*
X758720Y100820D01*
X756870Y101230D01*
X755780Y102070D01*
X755310Y103520D01*
X755630Y104980D01*
X756400Y106020D01*
X757480Y106650D01*
X758570D01*
X759660Y106230D01*
X760590Y105190D01*
G01X768490Y106650D02*
X772210D01*
G01X770350D02*
Y94150D01*
G01X768490D02*
X772210D01*
G01X779800Y106650D02*
X785700D01*
X779800Y94150D01*
X785700D01*
G01X798250D02*
X792050D01*
Y106650D01*
X798250D01*
G01X795770Y100610D02*
X792050D01*
G01X754690Y95820D02*
X755940Y94770D01*
X757330Y94150D01*
X758570D01*
X759810Y94770D01*
X760740Y95820D01*
X761210Y97280D01*
X760900Y98730D01*
X760120Y99980D01*
X758720Y100820D01*
X756870Y101230D01*
X755780Y102070D01*
X755310Y103520D01*
X755630Y104980D01*
X756400Y106020D01*
X757480Y106650D01*
X758570D01*
X759660Y106230D01*
X760590Y105190D01*
G01X768490Y106650D02*
X772210D01*
G01X770350D02*
Y94150D01*
G01X768490D02*
X772210D01*
G01X779800Y106650D02*
X785700D01*
X779800Y94150D01*
X785700D01*
G01X798250D02*
X792050D01*
Y106650D01*
X798250D01*
G01X795770Y100610D02*
X792050D01*
G01X900550Y-76000D02*
Y-63500D01*
X904270D01*
X905510Y-64130D01*
X906440Y-65580D01*
X906750Y-67250D01*
X906440Y-68920D01*
X905660Y-70170D01*
X904270Y-70790D01*
X900550D01*
G01X912950Y-63500D02*
Y-76000D01*
X919150D01*
G01X924570D02*
X928450Y-63500D01*
X932330Y-76000D01*
G01X930930Y-71630D02*
X925970D01*
G01X940850Y-63500D02*
Y-76000D01*
G01X937290Y-63500D02*
X944410D01*
G01X956350Y-76000D02*
X950150D01*
Y-63500D01*
X956350D01*
G01X953870Y-69540D02*
X950150D01*
G01X962240Y-76000D02*
Y-63500D01*
X965340D01*
X966580Y-64130D01*
X967510Y-64960D01*
X968290Y-66210D01*
X968910Y-67670D01*
X969060Y-69750D01*
X968910Y-71830D01*
X968290Y-73290D01*
X967510Y-74540D01*
X966580Y-75380D01*
X965340Y-76000D01*
X962240D01*
G01X871100Y112900D02*
Y-83800D01*
G01X900550Y-47900D02*
Y-35400D01*
X904270D01*
X905510Y-36030D01*
X906440Y-37480D01*
X906750Y-39150D01*
X906440Y-40820D01*
X905660Y-42070D01*
X904270Y-42690D01*
X900550D01*
G01X912950Y-35400D02*
Y-47900D01*
X919150D01*
G01X924570D02*
X928450Y-35400D01*
X932330Y-47900D01*
G01X930930Y-43530D02*
X925970D01*
G01X940850Y-35400D02*
Y-47900D01*
G01X937290Y-35400D02*
X944410D01*
G01X956350Y-47900D02*
X950150D01*
Y-35400D01*
X956350D01*
G01X953870Y-41440D02*
X950150D01*
G01X962240Y-47900D02*
Y-35400D01*
X965340D01*
X966580Y-36030D01*
X967510Y-36860D01*
X968290Y-38110D01*
X968910Y-39570D01*
X969060Y-41650D01*
X968910Y-43730D01*
X968290Y-45190D01*
X967510Y-46440D01*
X966580Y-47280D01*
X965340Y-47900D01*
X962240D01*
G01X875290Y-19800D02*
Y-7300D01*
X882410Y-19800D01*
Y-7300D01*
G01X891250Y-19800D02*
X890010Y-19590D01*
X888930Y-18760D01*
X887990Y-17510D01*
X887370Y-16050D01*
X887060Y-14380D01*
Y-12720D01*
X887370Y-11050D01*
X887990Y-9590D01*
X888930Y-8340D01*
X890010Y-7510D01*
X891250Y-7300D01*
X892490Y-7510D01*
X893570Y-8340D01*
X894510Y-9590D01*
X895130Y-11050D01*
X895440Y-12720D01*
Y-14380D01*
X895130Y-16050D01*
X894510Y-17510D01*
X893570Y-18760D01*
X892490Y-19590D01*
X891250Y-19800D01*
G01X900090D02*
Y-7300D01*
X907210Y-19800D01*
Y-7300D01*
G01X914040Y-15630D02*
X918060D01*
G01X925350Y-19800D02*
Y-7300D01*
X929070D01*
X930310Y-7930D01*
X931240Y-9380D01*
X931550Y-11050D01*
X931240Y-12720D01*
X930460Y-13970D01*
X929070Y-14590D01*
X925350D01*
G01X937750Y-7300D02*
Y-19800D01*
X943950D01*
G01X949370D02*
X953250Y-7300D01*
X957130Y-19800D01*
G01X955730Y-15430D02*
X950770D01*
G01X965650Y-7300D02*
Y-19800D01*
G01X962090Y-7300D02*
X969210D01*
G01X981150Y-19800D02*
X974950D01*
Y-7300D01*
X981150D01*
G01X978670Y-13340D02*
X974950D01*
G01X987040Y-19800D02*
Y-7300D01*
X990140D01*
X991380Y-7930D01*
X992310Y-8760D01*
X993090Y-10010D01*
X993710Y-11470D01*
X993860Y-13550D01*
X993710Y-15630D01*
X993090Y-17090D01*
X992310Y-18340D01*
X991380Y-19180D01*
X990140Y-19800D01*
X987040D01*
G01X900550Y8300D02*
Y20800D01*
X904270D01*
X905510Y20170D01*
X906440Y18720D01*
X906750Y17050D01*
X906440Y15380D01*
X905660Y14130D01*
X904270Y13510D01*
X900550D01*
G01X912950Y20800D02*
Y8300D01*
X919150D01*
G01X924570D02*
X928450Y20800D01*
X932330Y8300D01*
G01X930930Y12670D02*
X925970D01*
G01X940850Y20800D02*
Y8300D01*
G01X937290Y20800D02*
X944410D01*
G01X956350Y8300D02*
X950150D01*
Y20800D01*
X956350D01*
G01X953870Y14760D02*
X950150D01*
G01X962240Y8300D02*
Y20800D01*
X965340D01*
X966580Y20170D01*
X967510Y19340D01*
X968290Y18090D01*
X968910Y16630D01*
X969060Y14550D01*
X968910Y12470D01*
X968290Y11010D01*
X967510Y9760D01*
X966580Y8920D01*
X965340Y8300D01*
X962240D01*
G01X900550Y36400D02*
Y48900D01*
X904270D01*
X905510Y48270D01*
X906440Y46820D01*
X906750Y45150D01*
X906440Y43480D01*
X905660Y42230D01*
X904270Y41610D01*
X900550D01*
G01X912950Y48900D02*
Y36400D01*
X919150D01*
G01X924570D02*
X928450Y48900D01*
X932330Y36400D01*
G01X930930Y40770D02*
X925970D01*
G01X940850Y48900D02*
Y36400D01*
G01X937290Y48900D02*
X944410D01*
G01X956350Y36400D02*
X950150D01*
Y48900D01*
X956350D01*
G01X953870Y42860D02*
X950150D01*
G01X962240Y36400D02*
Y48900D01*
X965340D01*
X966580Y48270D01*
X967510Y47440D01*
X968290Y46190D01*
X968910Y44730D01*
X969060Y42650D01*
X968910Y40570D01*
X968290Y39110D01*
X967510Y37860D01*
X966580Y37020D01*
X965340Y36400D01*
X962240D01*
G01X871100Y112900D02*
Y55270D01*
G01X900550Y64500D02*
Y77000D01*
X904270D01*
X905510Y76370D01*
X906440Y74920D01*
X906750Y73250D01*
X906440Y71580D01*
X905660Y70330D01*
X904270Y69710D01*
X900550D01*
G01X912950Y77000D02*
Y64500D01*
X919150D01*
G01X924570D02*
X928450Y77000D01*
X932330Y64500D01*
G01X930930Y68870D02*
X925970D01*
G01X940850Y77000D02*
Y64500D01*
G01X937290Y77000D02*
X944410D01*
G01X956350Y64500D02*
X950150D01*
Y77000D01*
X956350D01*
G01X953870Y70960D02*
X950150D01*
G01X962240Y64500D02*
Y77000D01*
X965340D01*
X966580Y76370D01*
X967510Y75540D01*
X968290Y74290D01*
X968910Y72830D01*
X969060Y70750D01*
X968910Y68670D01*
X968290Y67210D01*
X967510Y65960D01*
X966580Y65120D01*
X965340Y64500D01*
X962240D01*
G01X875290Y63780D02*
Y76280D01*
X882410Y63780D01*
Y76280D01*
G01X891250Y63780D02*
X890010Y63990D01*
X888930Y64820D01*
X887990Y66070D01*
X887370Y67530D01*
X887060Y69200D01*
Y70860D01*
X887370Y72530D01*
X887990Y73990D01*
X888930Y75240D01*
X890010Y76070D01*
X891250Y76280D01*
X892490Y76070D01*
X893570Y75240D01*
X894510Y73990D01*
X895130Y72530D01*
X895440Y70860D01*
Y69200D01*
X895130Y67530D01*
X894510Y66070D01*
X893570Y64820D01*
X892490Y63990D01*
X891250Y63780D01*
G01X900090D02*
Y76280D01*
X907210Y63780D01*
Y76280D01*
G01X914040Y67950D02*
X918060D01*
G01X925350Y63780D02*
Y76280D01*
X929070D01*
X930310Y75650D01*
X931240Y74200D01*
X931550Y72530D01*
X931240Y70860D01*
X930460Y69610D01*
X929070Y68990D01*
X925350D01*
G01X937750Y76280D02*
Y63780D01*
X943950D01*
G01X949370D02*
X953250Y76280D01*
X957130Y63780D01*
G01X955730Y68150D02*
X950770D01*
G01X965650Y76280D02*
Y63780D01*
G01X962090Y76280D02*
X969210D01*
G01X981150Y63780D02*
X974950D01*
Y76280D01*
X981150D01*
G01X978670Y70240D02*
X974950D01*
G01X987040Y63780D02*
Y76280D01*
X990140D01*
X991380Y75650D01*
X992310Y74820D01*
X993090Y73570D01*
X993710Y72110D01*
X993860Y70030D01*
X993710Y67950D01*
X993090Y66490D01*
X992310Y65240D01*
X991380Y64400D01*
X990140Y63780D01*
X987040D01*
G01X900550Y94150D02*
Y106650D01*
X904270D01*
X905510Y106020D01*
X906440Y104570D01*
X906750Y102900D01*
X906440Y101230D01*
X905660Y99980D01*
X904270Y99360D01*
X900550D01*
G01X912950Y106650D02*
Y94150D01*
X919150D01*
G01X924570D02*
X928450Y106650D01*
X932330Y94150D01*
G01X930930Y98520D02*
X925970D01*
G01X940850Y106650D02*
Y94150D01*
G01X937290Y106650D02*
X944410D01*
G01X956350Y94150D02*
X950150D01*
Y106650D01*
X956350D01*
G01X953870Y100610D02*
X950150D01*
G01X962240Y94150D02*
Y106650D01*
X965340D01*
X966580Y106020D01*
X967510Y105190D01*
X968290Y103940D01*
X968910Y102480D01*
X969060Y100400D01*
X968910Y98320D01*
X968290Y96860D01*
X967510Y95610D01*
X966580Y94770D01*
X965340Y94150D01*
X962240D01*
G01X900550D02*
Y106650D01*
X904270D01*
X905510Y106020D01*
X906440Y104570D01*
X906750Y102900D01*
X906440Y101230D01*
X905660Y99980D01*
X904270Y99360D01*
X900550D01*
G01X912950Y106650D02*
Y94150D01*
X919150D01*
G01X924570D02*
X928450Y106650D01*
X932330Y94150D01*
G01X930930Y98520D02*
X925970D01*
G01X940850Y106650D02*
Y94150D01*
G01X937290Y106650D02*
X944410D01*
G01X956350Y94150D02*
X950150D01*
Y106650D01*
X956350D01*
G01X953870Y100610D02*
X950150D01*
G01X962240Y94150D02*
Y106650D01*
X965340D01*
X966580Y106020D01*
X967510Y105190D01*
X968290Y103940D01*
X968910Y102480D01*
X969060Y100400D01*
X968910Y98320D01*
X968290Y96860D01*
X967510Y95610D01*
X966580Y94770D01*
X965340Y94150D01*
X962240D01*
G01X998200Y112900D02*
Y-83800D01*
G01X1021140Y38900D02*
X1022070Y37440D01*
X1023310Y36610D01*
X1024710Y36400D01*
X1025950Y36610D01*
X1027190Y37650D01*
X1027960Y38900D01*
X1028110Y40150D01*
X1027810Y41610D01*
X1026720Y42650D01*
X1025630Y43070D01*
X1024240D01*
G01X1025630D02*
X1026560Y43690D01*
X1027340Y44730D01*
X1027650Y45980D01*
X1027340Y47230D01*
X1026560Y48270D01*
X1025170Y48900D01*
X1023780Y48690D01*
X1022380Y47860D01*
G01X1034000Y41610D02*
X1035090Y43070D01*
X1036020Y43900D01*
X1037260Y44320D01*
X1038350Y43900D01*
X1039120Y43070D01*
X1039740Y41820D01*
X1039900Y40360D01*
X1039740Y39110D01*
X1039120Y37860D01*
X1038190Y36820D01*
X1037110Y36400D01*
X1035870Y36820D01*
X1034780Y38070D01*
X1034160Y39940D01*
X1034000Y42020D01*
X1034310Y44730D01*
X1034780Y46190D01*
X1035550Y47650D01*
X1036640Y48690D01*
X1037720Y48900D01*
X1038810Y48480D01*
X1039590Y47440D01*
G01X1049350Y48900D02*
X1048110Y48480D01*
X1047180Y47440D01*
X1046560Y46190D01*
X1046090Y44520D01*
X1045940Y42650D01*
X1046090Y40770D01*
X1046560Y39110D01*
X1047180Y37860D01*
X1048110Y36820D01*
X1049350Y36400D01*
X1050590Y36820D01*
X1051520Y37860D01*
X1052140Y39110D01*
X1052610Y40770D01*
X1052760Y42650D01*
X1052610Y44520D01*
X1052140Y46190D01*
X1051520Y47440D01*
X1050590Y48480D01*
X1049350Y48900D01*
G01X998200Y112900D02*
Y55270D01*
G01X1026410Y64500D02*
Y77000D01*
X1020670Y68040D01*
X1028430D01*
G01X1034000Y69710D02*
X1035090Y71170D01*
X1036020Y72000D01*
X1037260Y72420D01*
X1038350Y72000D01*
X1039120Y71170D01*
X1039740Y69920D01*
X1039900Y68460D01*
X1039740Y67210D01*
X1039120Y65960D01*
X1038190Y64920D01*
X1037110Y64500D01*
X1035870Y64920D01*
X1034780Y66170D01*
X1034160Y68040D01*
X1034000Y70120D01*
X1034310Y72830D01*
X1034780Y74290D01*
X1035550Y75750D01*
X1036640Y76790D01*
X1037720Y77000D01*
X1038810Y76580D01*
X1039590Y75540D01*
G01X1049350Y64500D02*
X1050430Y64710D01*
X1051670Y65330D01*
X1052450Y66370D01*
X1052760Y67830D01*
X1052450Y69290D01*
X1051520Y70540D01*
X1050120Y71170D01*
X1048580D01*
X1047640Y71580D01*
X1046870Y72620D01*
X1046560Y74080D01*
X1047030Y75540D01*
X1048110Y76580D01*
X1049350Y77000D01*
X1050590Y76580D01*
X1051670Y75540D01*
X1052140Y74080D01*
X1051830Y72620D01*
X1051060Y71580D01*
X1050120Y71170D01*
X1048580D01*
X1047180Y70540D01*
X1046250Y69290D01*
X1045940Y67830D01*
X1046250Y66370D01*
X1047030Y65330D01*
X1048270Y64710D01*
X1049350Y64500D01*
G01X1024550Y94150D02*
X1023310Y94360D01*
X1022230Y95190D01*
X1021290Y96440D01*
X1020670Y97900D01*
X1020360Y99570D01*
Y101230D01*
X1020670Y102900D01*
X1021290Y104360D01*
X1022230Y105610D01*
X1023310Y106440D01*
X1024550Y106650D01*
X1025790Y106440D01*
X1026870Y105610D01*
X1027810Y104360D01*
X1028430Y102900D01*
X1028740Y101230D01*
Y99570D01*
X1028430Y97900D01*
X1027810Y96440D01*
X1026870Y95190D01*
X1025790Y94360D01*
X1024550Y94150D01*
G01X1025790Y97480D02*
X1027650Y94150D01*
G01X1036950Y106650D02*
Y94150D01*
G01X1033390Y106650D02*
X1040510D01*
G01X1049350Y94150D02*
Y99770D01*
X1046250Y106650D01*
G01X1052450D02*
X1049350Y99770D01*
G01X1024550Y94150D02*
X1023310Y94360D01*
X1022230Y95190D01*
X1021290Y96440D01*
X1020670Y97900D01*
X1020360Y99570D01*
Y101230D01*
X1020670Y102900D01*
X1021290Y104360D01*
X1022230Y105610D01*
X1023310Y106440D01*
X1024550Y106650D01*
X1025790Y106440D01*
X1026870Y105610D01*
X1027810Y104360D01*
X1028430Y102900D01*
X1028740Y101230D01*
Y99570D01*
X1028430Y97900D01*
X1027810Y96440D01*
X1026870Y95190D01*
X1025790Y94360D01*
X1024550Y94150D01*
G01X1025790Y97480D02*
X1027650Y94150D01*
G01X1036950Y106650D02*
Y94150D01*
G01X1033390Y106650D02*
X1040510D01*
G01X1049350Y94150D02*
Y99770D01*
X1046250Y106650D01*
G01X1052450D02*
X1049350Y99770D01*
G01X1034000Y-65580D02*
X1034940Y-64330D01*
X1036020Y-63710D01*
X1037260Y-63500D01*
X1038810Y-63920D01*
X1039900Y-64960D01*
X1040210Y-66210D01*
X1040050Y-67460D01*
X1039430Y-68500D01*
X1036330Y-70580D01*
X1034940Y-72040D01*
X1034000Y-74130D01*
X1033690Y-76000D01*
X1040210D01*
G01X1036950Y-47900D02*
Y-35400D01*
X1035090Y-37900D01*
G01Y-47900D02*
X1038810D01*
G01X1036950Y-19800D02*
Y-7300D01*
X1035090Y-9800D01*
G01Y-19800D02*
X1038810D01*
G01X1036950Y8300D02*
X1038030Y8510D01*
X1039270Y9130D01*
X1040050Y10170D01*
X1040360Y11630D01*
X1040050Y13090D01*
X1039120Y14340D01*
X1037720Y14970D01*
X1036180D01*
X1035240Y15380D01*
X1034470Y16420D01*
X1034160Y17880D01*
X1034630Y19340D01*
X1035710Y20380D01*
X1036950Y20800D01*
X1038190Y20380D01*
X1039270Y19340D01*
X1039740Y17880D01*
X1039430Y16420D01*
X1038660Y15380D01*
X1037720Y14970D01*
X1036180D01*
X1034780Y14340D01*
X1033850Y13090D01*
X1033540Y11630D01*
X1033850Y10170D01*
X1034630Y9130D01*
X1035870Y8510D01*
X1036950Y8300D01*
G01X1034000Y74200D02*
X1034940Y75450D01*
X1036020Y76070D01*
X1037260Y76280D01*
X1038810Y75860D01*
X1039900Y74820D01*
X1040210Y73570D01*
X1040050Y72320D01*
X1039430Y71280D01*
X1036330Y69200D01*
X1034940Y67740D01*
X1034000Y65650D01*
X1033690Y63780D01*
X1040210D01*
G54D15*
X-343640Y-404090D03*
X-236440D03*
X637050Y70030D03*
G54D16*
X-328190Y-143290D03*
D03*
X-333190Y-134630D03*
D03*
X-338190Y-125970D03*
D03*
X-325860Y-107310D03*
D03*
X-343190Y-117310D03*
D03*
X-335860Y-70000D03*
D03*
X-355860D03*
D03*
X-335860Y-60000D03*
D03*
Y-50000D03*
D03*
Y-40000D03*
D03*
X-355860Y-60000D03*
D03*
Y-50000D03*
D03*
Y-40000D03*
D03*
X-335860Y-30000D03*
D03*
Y-20000D03*
D03*
Y-10000D03*
D03*
X-355860Y-30000D03*
D03*
Y-20000D03*
D03*
Y-10000D03*
D03*
X-335860Y0D03*
D03*
Y10000D03*
D03*
Y20000D03*
D03*
X-355860Y0D03*
D03*
Y10000D03*
D03*
Y20000D03*
D03*
X-335860Y30000D03*
D03*
Y40000D03*
D03*
Y50000D03*
D03*
X-355860Y30000D03*
D03*
Y40000D03*
D03*
Y50000D03*
D03*
X-335860Y60000D03*
D03*
Y70000D03*
D03*
X-355860Y60000D03*
D03*
Y70000D03*
D03*
X-343190Y117310D03*
D03*
X-325860Y107310D03*
D03*
X-338190Y125970D03*
D03*
X-333190Y134630D03*
D03*
X-328190Y143290D03*
D03*
X-298190Y-195250D03*
D03*
X-303190Y-186590D03*
D03*
X-295860Y-159270D03*
D03*
X-300860Y-150610D03*
D03*
X-308190Y-177930D03*
D03*
X-313190Y-169270D03*
D03*
X-318190Y-160610D03*
D03*
X-323190Y-151950D03*
D03*
X-305860Y-141950D03*
D03*
X-310860Y-133290D03*
D03*
X-315860Y-124630D03*
D03*
X-320860Y-115970D03*
D03*
Y115970D03*
D03*
X-315860Y124630D03*
D03*
X-310860Y133290D03*
D03*
X-305860Y141950D03*
D03*
X-300860Y150610D03*
D03*
X-323190Y151950D03*
D03*
X-318190Y160610D03*
D03*
X-313190Y169270D03*
D03*
X-308190Y177930D03*
D03*
X-295860Y159270D03*
D03*
X-303190Y186590D03*
D03*
X-298190Y195250D03*
D03*
X-265860Y-211230D03*
D03*
X-273190Y-238550D03*
D03*
X-278190Y-229890D03*
D03*
X-283190Y-221230D03*
D03*
X-288190Y-212570D03*
D03*
X-270860Y-202570D03*
D03*
X-275860Y-193910D03*
D03*
X-280860Y-185250D03*
D03*
X-293190Y-203910D03*
D03*
X-285860Y-176590D03*
D03*
X-290860Y-167930D03*
D03*
Y167930D03*
D03*
X-285860Y176590D03*
D03*
X-293190Y203910D03*
D03*
X-280860Y185250D03*
D03*
X-275860Y193910D03*
D03*
X-270860Y202570D03*
D03*
X-288190Y212570D03*
D03*
X-283190Y221230D03*
D03*
X-278190Y229890D03*
D03*
X-273190Y238550D03*
D03*
X-265860Y211230D03*
D03*
X-238550Y-273190D03*
D03*
X-255860Y-228550D03*
D03*
X-260860Y-219890D03*
D03*
Y219890D03*
D03*
X-255860Y228550D03*
D03*
X-238550Y273190D03*
D03*
X-212570Y-288190D03*
D03*
X-221230Y-283190D03*
D03*
X-229890Y-278190D03*
D03*
X-211230Y-265860D03*
D03*
X-219890Y-260860D03*
D03*
X-228550Y-255860D03*
D03*
Y255860D03*
D03*
X-219890Y260860D03*
D03*
X-211230Y265860D03*
D03*
X-229890Y278190D03*
D03*
X-221230Y283190D03*
D03*
X-212570Y288190D03*
D03*
X-177930Y-308190D03*
D03*
X-186590Y-303190D03*
D03*
X-176590Y-285860D03*
D03*
X-185250Y-280860D03*
D03*
X-193910Y-275860D03*
D03*
X-202570Y-270860D03*
D03*
X-195250Y-298190D03*
D03*
X-203910Y-293190D03*
D03*
X-202570Y270860D03*
D03*
X-193910Y275860D03*
D03*
X-185250Y280860D03*
D03*
X-176590Y285860D03*
D03*
X-203910Y293190D03*
D03*
X-195250Y298190D03*
D03*
X-186590Y303190D03*
D03*
X-177930Y308190D03*
D03*
X-150610Y-300860D03*
D03*
X-151950Y-323190D03*
D03*
X-160610Y-318190D03*
D03*
X-169270Y-313190D03*
D03*
X-159270Y-295860D03*
D03*
X-167930Y-290860D03*
D03*
Y290860D03*
D03*
X-159270Y295860D03*
D03*
X-150610Y300860D03*
D03*
X-169270Y313190D03*
D03*
X-160610Y318190D03*
D03*
X-151950Y323190D03*
D03*
X-117310Y-343190D03*
D03*
X-125970Y-338190D03*
D03*
X-134630Y-333190D03*
D03*
X-115970Y-320860D03*
D03*
X-124630Y-315860D03*
D03*
X-133290Y-310860D03*
D03*
X-141950Y-305860D03*
D03*
X-143290Y-328190D03*
D03*
X-141950Y305860D03*
D03*
X-133290Y310860D03*
D03*
X-124630Y315860D03*
D03*
X-115970Y320860D03*
D03*
X-143290Y328190D03*
D03*
X-134630Y333190D03*
D03*
X-125970Y338190D03*
D03*
X-117310Y343190D03*
D03*
X-107310Y-325860D03*
D03*
Y325860D03*
D03*
X-60000Y-335860D03*
D03*
X-70000D03*
D03*
X-60000Y-355860D03*
D03*
X-70000D03*
D03*
Y355860D03*
D03*
X-60000D03*
D03*
X-70000Y335860D03*
D03*
X-60000D03*
D03*
X-30000Y-335860D03*
D03*
X-40000D03*
D03*
X-50000D03*
D03*
X-30000Y-355860D03*
D03*
X-40000D03*
D03*
X-50000D03*
D03*
Y355860D03*
D03*
X-40000D03*
D03*
X-30000D03*
D03*
X-50000Y335860D03*
D03*
X-40000D03*
D03*
X-30000D03*
D03*
X0Y-335860D03*
D03*
X-10000D03*
D03*
X-20000D03*
D03*
X0Y-355860D03*
D03*
X-10000D03*
D03*
X-20000D03*
D03*
Y355860D03*
D03*
X-10000D03*
D03*
X0D03*
D03*
X-20000Y335860D03*
D03*
X-10000D03*
D03*
X0D03*
D03*
X30000Y-335860D03*
D03*
X20000D03*
D03*
X10000D03*
D03*
X30000Y-355860D03*
D03*
X20000D03*
D03*
X10000D03*
D03*
Y355860D03*
D03*
X20000D03*
D03*
X30000D03*
D03*
X10000Y335860D03*
D03*
X20000D03*
D03*
X30000D03*
D03*
X60000Y-335860D03*
D03*
X50000D03*
D03*
X40000D03*
D03*
X60000Y-355860D03*
D03*
X50000D03*
D03*
X40000D03*
D03*
Y355860D03*
D03*
X50000D03*
D03*
X60000D03*
D03*
X40000Y335860D03*
D03*
X50000D03*
D03*
X60000D03*
D03*
X70000Y-335860D03*
D03*
Y-355860D03*
D03*
Y355860D03*
D03*
Y335860D03*
D03*
X117310Y-343190D03*
D03*
X115970Y-320860D03*
D03*
X107310Y-325860D03*
D03*
Y325860D03*
D03*
X115970Y320860D03*
D03*
X117310Y343190D03*
D03*
X134630Y-333190D03*
D03*
X125970Y-338190D03*
D03*
X150610Y-300860D03*
D03*
X141950Y-305860D03*
D03*
X133290Y-310860D03*
D03*
X124630Y-315860D03*
D03*
X151950Y-323190D03*
D03*
X143290Y-328190D03*
D03*
X150610Y300860D03*
D03*
X124630Y315860D03*
D03*
X133290Y310860D03*
D03*
X141950Y305860D03*
D03*
X143290Y328190D03*
D03*
X151950Y323190D03*
D03*
X125970Y338190D03*
D03*
X134630Y333190D03*
D03*
X177930Y-308190D03*
D03*
X169270Y-313190D03*
D03*
X160610Y-318190D03*
D03*
X176590Y-285860D03*
D03*
X167930Y-290860D03*
D03*
X159270Y-295860D03*
D03*
Y295860D03*
D03*
X167930Y290860D03*
D03*
X176590Y285860D03*
D03*
X160610Y318190D03*
D03*
X169270Y313190D03*
D03*
X177930Y308190D03*
D03*
X186590Y-303190D03*
D03*
X202570Y-270860D03*
D03*
X193910Y-275860D03*
D03*
X185250Y-280860D03*
D03*
X212570Y-288190D03*
D03*
X203910Y-293190D03*
D03*
X195250Y-298190D03*
D03*
X211230Y-265860D03*
D03*
X202570Y270860D03*
D03*
X211230Y265860D03*
D03*
X185250Y280860D03*
D03*
X193910Y275860D03*
D03*
X195250Y298190D03*
D03*
X203910Y293190D03*
D03*
X212570Y288190D03*
D03*
X186590Y303190D03*
D03*
X238550Y-273190D03*
D03*
X229890Y-278190D03*
D03*
X221230Y-283190D03*
D03*
X228550Y-255860D03*
D03*
X219890Y-260860D03*
D03*
Y260860D03*
D03*
X228550Y255860D03*
D03*
X221230Y283190D03*
D03*
X229890Y278190D03*
D03*
X238550Y273190D03*
D03*
X265860Y-211230D03*
D03*
X260860Y-219890D03*
D03*
X255860Y-228550D03*
D03*
X273190Y-238550D03*
D03*
X270860Y-202570D03*
D03*
Y202570D03*
D03*
X255860Y228550D03*
D03*
X260860Y219890D03*
D03*
X265860Y211230D03*
D03*
X273190Y238550D03*
D03*
X288190Y-212570D03*
D03*
X283190Y-221230D03*
D03*
X278190Y-229890D03*
D03*
X280860Y-185250D03*
D03*
X275860Y-193910D03*
D03*
X303190Y-186590D03*
D03*
X298190Y-195250D03*
D03*
X293190Y-203910D03*
D03*
X300860Y-150610D03*
D03*
X295860Y-159270D03*
D03*
X290860Y-167930D03*
D03*
X285860Y-176590D03*
D03*
X300860Y150610D03*
D03*
X285860Y176590D03*
D03*
X290860Y167930D03*
D03*
X295860Y159270D03*
D03*
X275860Y193910D03*
D03*
X280860Y185250D03*
D03*
X293190Y203910D03*
D03*
X298190Y195250D03*
D03*
X303190Y186590D03*
D03*
X278190Y229890D03*
D03*
X283190Y221230D03*
D03*
X288190Y212570D03*
D03*
X323190Y-151950D03*
D03*
X318190Y-160610D03*
D03*
X313190Y-169270D03*
D03*
X308190Y-177930D03*
D03*
X315860Y-124630D03*
D03*
X310860Y-133290D03*
D03*
X305860Y-141950D03*
D03*
X333190Y-134630D03*
D03*
X328190Y-143290D03*
D03*
X325860Y-107310D03*
D03*
X320860Y-115970D03*
D03*
Y115970D03*
D03*
X325860Y107310D03*
D03*
X305860Y141950D03*
D03*
X310860Y133290D03*
D03*
X315860Y124630D03*
D03*
X328190Y143290D03*
D03*
X333190Y134630D03*
D03*
X308190Y177930D03*
D03*
X313190Y169270D03*
D03*
X318190Y160610D03*
D03*
X323190Y151950D03*
D03*
X338190Y-125970D03*
D03*
X343190Y-117310D03*
D03*
X335860Y-70000D03*
D03*
X355860D03*
D03*
X335860Y-40000D03*
D03*
Y-50000D03*
D03*
Y-60000D03*
D03*
X355860Y-40000D03*
D03*
Y-50000D03*
D03*
Y-60000D03*
D03*
X335860Y-10000D03*
D03*
Y-20000D03*
D03*
Y-30000D03*
D03*
X355860Y-10000D03*
D03*
Y-20000D03*
D03*
Y-30000D03*
D03*
X335860Y20000D03*
D03*
Y10000D03*
D03*
Y0D03*
D03*
X355860Y20000D03*
D03*
Y10000D03*
D03*
Y0D03*
D03*
X335860Y50000D03*
D03*
Y40000D03*
D03*
Y30000D03*
D03*
X355860Y50000D03*
D03*
Y40000D03*
D03*
Y30000D03*
D03*
X335860Y70000D03*
D03*
Y60000D03*
D03*
X355860Y70000D03*
D03*
Y60000D03*
D03*
X343190Y117310D03*
D03*
X338190Y125970D03*
D03*
G54D17*
X-328190Y-143290D03*
X-333190Y-134630D03*
X-338190Y-125970D03*
X-325860Y-107310D03*
X-343190Y-117310D03*
X-335860Y-70000D03*
X-355860D03*
X-335860Y-60000D03*
Y-50000D03*
Y-40000D03*
X-355860Y-60000D03*
Y-50000D03*
Y-40000D03*
X-335860Y-30000D03*
Y-20000D03*
Y-10000D03*
X-355860Y-30000D03*
Y-20000D03*
Y-10000D03*
X-335860Y0D03*
Y10000D03*
Y20000D03*
X-355860Y0D03*
Y10000D03*
Y20000D03*
X-335860Y30000D03*
Y40000D03*
Y50000D03*
X-355860Y30000D03*
Y40000D03*
Y50000D03*
X-335860Y60000D03*
Y70000D03*
X-355860Y60000D03*
Y70000D03*
X-343190Y117310D03*
X-325860Y107310D03*
X-338190Y125970D03*
X-333190Y134630D03*
X-328190Y143290D03*
X-298190Y-195250D03*
X-303190Y-186590D03*
X-295860Y-159270D03*
X-300860Y-150610D03*
X-308190Y-177930D03*
X-313190Y-169270D03*
X-318190Y-160610D03*
X-323190Y-151950D03*
X-305860Y-141950D03*
X-310860Y-133290D03*
X-315860Y-124630D03*
X-320860Y-115970D03*
Y115970D03*
X-315860Y124630D03*
X-310860Y133290D03*
X-305860Y141950D03*
X-300860Y150610D03*
X-323190Y151950D03*
X-318190Y160610D03*
X-313190Y169270D03*
X-308190Y177930D03*
X-295860Y159270D03*
X-303190Y186590D03*
X-298190Y195250D03*
X-265860Y-211230D03*
X-273190Y-238550D03*
X-278190Y-229890D03*
X-283190Y-221230D03*
X-288190Y-212570D03*
X-270860Y-202570D03*
X-275860Y-193910D03*
X-280860Y-185250D03*
X-293190Y-203910D03*
X-285860Y-176590D03*
X-290860Y-167930D03*
Y167930D03*
X-285860Y176590D03*
X-293190Y203910D03*
X-280860Y185250D03*
X-275860Y193910D03*
X-270860Y202570D03*
X-288190Y212570D03*
X-283190Y221230D03*
X-278190Y229890D03*
X-273190Y238550D03*
X-265860Y211230D03*
X-238550Y-273190D03*
X-255860Y-228550D03*
X-260860Y-219890D03*
Y219890D03*
X-255860Y228550D03*
X-238550Y273190D03*
X-212570Y-288190D03*
X-221230Y-283190D03*
X-229890Y-278190D03*
X-211230Y-265860D03*
X-219890Y-260860D03*
X-228550Y-255860D03*
Y255860D03*
X-219890Y260860D03*
X-211230Y265860D03*
X-229890Y278190D03*
X-221230Y283190D03*
X-212570Y288190D03*
X-177930Y-308190D03*
X-186590Y-303190D03*
X-176590Y-285860D03*
X-185250Y-280860D03*
X-193910Y-275860D03*
X-202570Y-270860D03*
X-195250Y-298190D03*
X-203910Y-293190D03*
X-202570Y270860D03*
X-193910Y275860D03*
X-185250Y280860D03*
X-176590Y285860D03*
X-203910Y293190D03*
X-195250Y298190D03*
X-186590Y303190D03*
X-177930Y308190D03*
X-150610Y-300860D03*
X-151950Y-323190D03*
X-160610Y-318190D03*
X-169270Y-313190D03*
X-159270Y-295860D03*
X-167930Y-290860D03*
Y290860D03*
X-159270Y295860D03*
X-150610Y300860D03*
X-169270Y313190D03*
X-160610Y318190D03*
X-151950Y323190D03*
X-117310Y-343190D03*
X-125970Y-338190D03*
X-134630Y-333190D03*
X-115970Y-320860D03*
X-124630Y-315860D03*
X-133290Y-310860D03*
X-141950Y-305860D03*
X-143290Y-328190D03*
X-141950Y305860D03*
X-133290Y310860D03*
X-124630Y315860D03*
X-115970Y320860D03*
X-143290Y328190D03*
X-134630Y333190D03*
X-125970Y338190D03*
X-117310Y343190D03*
X-107310Y-325860D03*
Y325860D03*
X-60000Y-335860D03*
X-70000D03*
X-60000Y-355860D03*
X-70000D03*
Y355860D03*
X-60000D03*
X-70000Y335860D03*
X-60000D03*
X-30000Y-335860D03*
X-40000D03*
X-50000D03*
X-30000Y-355860D03*
X-40000D03*
X-50000D03*
Y355860D03*
X-40000D03*
X-30000D03*
X-50000Y335860D03*
X-40000D03*
X-30000D03*
X0Y-335860D03*
X-10000D03*
X-20000D03*
X0Y-355860D03*
X-10000D03*
X-20000D03*
Y355860D03*
X-10000D03*
X0D03*
X-20000Y335860D03*
X-10000D03*
X0D03*
X30000Y-335860D03*
X20000D03*
X10000D03*
X30000Y-355860D03*
X20000D03*
X10000D03*
Y355860D03*
X20000D03*
X30000D03*
X10000Y335860D03*
X20000D03*
X30000D03*
X60000Y-335860D03*
X50000D03*
X40000D03*
X60000Y-355860D03*
X50000D03*
X40000D03*
Y355860D03*
X50000D03*
X60000D03*
X40000Y335860D03*
X50000D03*
X60000D03*
X70000Y-335860D03*
Y-355860D03*
Y355860D03*
Y335860D03*
X117310Y-343190D03*
X115970Y-320860D03*
X107310Y-325860D03*
Y325860D03*
X115970Y320860D03*
X117310Y343190D03*
X134630Y-333190D03*
X125970Y-338190D03*
X150610Y-300860D03*
X141950Y-305860D03*
X133290Y-310860D03*
X124630Y-315860D03*
X151950Y-323190D03*
X143290Y-328190D03*
X150610Y300860D03*
X124630Y315860D03*
X133290Y310860D03*
X141950Y305860D03*
X143290Y328190D03*
X151950Y323190D03*
X125970Y338190D03*
X134630Y333190D03*
X177930Y-308190D03*
X169270Y-313190D03*
X160610Y-318190D03*
X176590Y-285860D03*
X167930Y-290860D03*
X159270Y-295860D03*
Y295860D03*
X167930Y290860D03*
X176590Y285860D03*
X160610Y318190D03*
X169270Y313190D03*
X177930Y308190D03*
X186590Y-303190D03*
X202570Y-270860D03*
X193910Y-275860D03*
X185250Y-280860D03*
X212570Y-288190D03*
X203910Y-293190D03*
X195250Y-298190D03*
X211230Y-265860D03*
X202570Y270860D03*
X211230Y265860D03*
X185250Y280860D03*
X193910Y275860D03*
X195250Y298190D03*
X203910Y293190D03*
X212570Y288190D03*
X186590Y303190D03*
X238550Y-273190D03*
X229890Y-278190D03*
X221230Y-283190D03*
X228550Y-255860D03*
X219890Y-260860D03*
Y260860D03*
X228550Y255860D03*
X221230Y283190D03*
X229890Y278190D03*
X238550Y273190D03*
X265860Y-211230D03*
X260860Y-219890D03*
X255860Y-228550D03*
X273190Y-238550D03*
X270860Y-202570D03*
Y202570D03*
X255860Y228550D03*
X260860Y219890D03*
X265860Y211230D03*
X273190Y238550D03*
X288190Y-212570D03*
X283190Y-221230D03*
X278190Y-229890D03*
X280860Y-185250D03*
X275860Y-193910D03*
X303190Y-186590D03*
X298190Y-195250D03*
X293190Y-203910D03*
X300860Y-150610D03*
X295860Y-159270D03*
X290860Y-167930D03*
X285860Y-176590D03*
X300860Y150610D03*
X285860Y176590D03*
X290860Y167930D03*
X295860Y159270D03*
X275860Y193910D03*
X280860Y185250D03*
X293190Y203910D03*
X298190Y195250D03*
X303190Y186590D03*
X278190Y229890D03*
X283190Y221230D03*
X288190Y212570D03*
X323190Y-151950D03*
X318190Y-160610D03*
X313190Y-169270D03*
X308190Y-177930D03*
X315860Y-124630D03*
X310860Y-133290D03*
X305860Y-141950D03*
X333190Y-134630D03*
X328190Y-143290D03*
X325860Y-107310D03*
X320860Y-115970D03*
Y115970D03*
X325860Y107310D03*
X305860Y141950D03*
X310860Y133290D03*
X315860Y124630D03*
X328190Y143290D03*
X333190Y134630D03*
X308190Y177930D03*
X313190Y169270D03*
X318190Y160610D03*
X323190Y151950D03*
X338190Y-125970D03*
X343190Y-117310D03*
X335860Y-70000D03*
X355860D03*
X335860Y-40000D03*
Y-50000D03*
Y-60000D03*
X355860Y-40000D03*
Y-50000D03*
Y-60000D03*
X335860Y-10000D03*
Y-20000D03*
Y-30000D03*
X355860Y-10000D03*
Y-20000D03*
Y-30000D03*
X335860Y20000D03*
Y10000D03*
Y0D03*
X355860Y20000D03*
Y10000D03*
Y0D03*
X335860Y50000D03*
Y40000D03*
Y30000D03*
X355860Y50000D03*
Y40000D03*
Y30000D03*
X335860Y70000D03*
Y60000D03*
X355860Y70000D03*
Y60000D03*
X343190Y117310D03*
X338190Y125970D03*
X637050Y42650D03*
G54D18*
X0Y0D03*
D03*
G54D19*
D03*
X637050Y-13550D03*
M02*
