G04 ================== begin FILE IDENTIFICATION RECORD ==================*
G04 Layout Name:  I:/Project-Micheal G4 Project/G4 Arena 6-21-2017/LED_12inArena.brd*
G04 Film Name:    GND2*
G04 File Format:  Gerber RS274X*
G04 File Origin:  Cadence Allegro 17.2-P019*
G04 Origin Date:  Mon Oct 05 13:44:51 2020*
G04 *
G04 Layer:  VIA KEEPOUT/ALL*
G04 Layer:  VIA KEEPOUT/BOTTOM*
G04 Layer:  VIA KEEPOUT/LAYER 2*
G04 Layer:  VIA KEEPOUT/GND2*
G04 Layer:  VIA KEEPOUT/LAYER 1*
G04 Layer:  VIA KEEPOUT/PWR*
G04 Layer:  VIA KEEPOUT/TOP*
G04 Layer:  VIA CLASS/FILMMASKBOTTOM*
G04 Layer:  VIA CLASS/GND2*
G04 Layer:  ROUTE KEEPOUT/ALL*
G04 Layer:  ROUTE KEEPOUT/BOTTOM*
G04 Layer:  ROUTE KEEPOUT/LAYER 2*
G04 Layer:  ROUTE KEEPOUT/GND2*
G04 Layer:  ROUTE KEEPOUT/LAYER 1*
G04 Layer:  ROUTE KEEPOUT/PWR*
G04 Layer:  ROUTE KEEPOUT/TOP*
G04 Layer:  ROUTE KEEPIN/ALL*
G04 Layer:  PIN/FILMMASKBOTTOM*
G04 Layer:  PIN/GND2*
G04 Layer:  PACKAGE KEEPOUT/ALL*
G04 Layer:  PACKAGE KEEPOUT/TOP*
G04 Layer:  PACKAGE KEEPOUT/BOTTOM*
G04 Layer:  PACKAGE KEEPIN/ALL*
G04 Layer:  ETCH/GND2*
G04 Layer:  BOARD GEOMETRY/OUTLINE*
G04 *
G04 Offset:    (0.0 0.0)*
G04 Mirror:    No*
G04 Mode:      Positive*
G04 Rotation:  0*
G04 FullContactRelief:  No*
G04 UndefLineWidth:     0.1*
G04 ================== end FILE IDENTIFICATION RECORD ====================*
%FSLAX25Y25*MOIN*%
%IR0*IPPOS*OFA0.00000B0.00000*MIA0B0*SFA1.00000B1.00000*%
%ADD10C,.2*%
%ADD14R,.1969X.0787*%
%ADD15R,.0787X.1969*%
%ADD12C,.06*%
%ADD11C,.024*%
%ADD13C,5.7*%
%ADD16C,.005*%
%ADD17C,.0001*%
%ADD18C,.015*%
%ADD21C,.2104*%
%ADD22R,.2072X.089*%
%ADD20C,.0344*%
%ADD19C,.0704*%
G75*
%LPD*%
G75*
G36*
G01X-445000Y-445000D02*
Y-440200D01*
G02X-444250Y-440010I400J-3D01*
G03X-440010Y-444250I9250J5010D01*
G02X-440200Y-445000I-193J-350D01*
G01X-445000D01*
G37*
G36*
G01X-429990Y-444250D02*
G03X-444250Y-429990I-5010J9250D01*
G02X-445000Y-429800I-350J193D01*
G01Y429800D01*
G02X-444250Y429990I400J-3D01*
G03X-429990Y444250I9250J5010D01*
G02X-429800Y445000I193J350D01*
G01X429800D01*
G02X429990Y444250I-3J-400D01*
G03X444250Y429990I5010J-9250D01*
G02X445000Y429800I350J-193D01*
G01Y-341700D01*
X445100D01*
Y-429990D01*
G02X444350Y-430170I-398J7D01*
G03X429330Y-443860I-9347J-4830D01*
G02X429120Y-444600I-211J-340D01*
G01X-211240D01*
G02X-211470Y-443880I7J399D01*
G03X-213530I-1030J1380D01*
G02X-213760Y-444600I-237J-321D01*
G01X-221240D01*
G02X-221470Y-443880I7J399D01*
G03X-223530I-1030J1380D01*
G02X-223760Y-444600I-237J-321D01*
G01X-231240D01*
G02X-231470Y-443880I7J399D01*
G03X-232750Y-444200I-1025J1381D01*
G01X-232570Y-444230D01*
Y-444600D01*
X-233400D01*
Y-445000D01*
X-429800D01*
G02X-429990Y-444250I3J400D01*
G37*
G36*
G01X-445000Y440200D02*
Y445000D01*
X-440200D01*
G02X-440010Y444250I-3J-400D01*
G03X-444250Y440010I5010J-9250D01*
G02X-445000Y440200I-350J193D01*
G37*
G36*
G01X440670Y-443860D02*
G03X444350Y-439830I-5663J8867D01*
G02X445100Y-440010I352J-187D01*
G01Y-443900D01*
X445120Y-443920D01*
G02X444840Y-444600I-285J-280D01*
G01X440880D01*
G02X440670Y-443860I1J400D01*
G37*
G36*
G01X444250Y440010D02*
G03X440010Y444250I-9250J-5010D01*
G02X440200Y445000I193J350D01*
G01X445000D01*
Y440200D01*
G02X444250Y440010I-400J3D01*
G37*
%LPC*%
G75*
G36*
G01X285520Y0D02*
G02I-285520J0D01*
G37*
G36*
G01X-287960Y-345050D02*
G02X-289270Y-343670I-1694J-296D01*
G03X-288780Y-343210I96J388D01*
G02X-286710Y-341230I1693J302D01*
G03X-286220Y-340770I96J388D01*
G02X-284150Y-338790I1693J302D01*
G03X-283660Y-338330I96J388D01*
G02X-282350Y-339710I1694J296D01*
G03X-282840Y-340170I-96J-388D01*
G02X-284910Y-342150I-1693J-302D01*
G03X-285400Y-342610I-96J-388D01*
G02X-287470Y-344590I-1693J-302D01*
G03X-287960Y-345050I-96J-388D01*
G37*
G36*
G01X-250500Y-413760D02*
X-286980D01*
X-295780Y-422560D01*
X-295790Y-422640D01*
G02X-297640Y-420790I-1710J140D01*
G01X-297560Y-420780D01*
X-288020Y-411240D01*
X-250500D01*
Y-393900D01*
X-250100Y-393500D01*
X-176690D01*
X-176660Y-393490D01*
G02X-175460I600J-1610D01*
G01X-175430Y-393500D01*
X249640D01*
Y-386240D01*
X270360D01*
Y-393500D01*
X274050D01*
Y-392140D01*
X282950D01*
Y-393500D01*
X362100D01*
Y-301800D01*
X361140Y-300840D01*
G02X361280Y-300500I143J140D01*
G01X421900D01*
Y-341700D01*
X378000D01*
Y-423900D01*
X-24550D01*
X-24590Y-424050D01*
G02X-27910I-1660J450D01*
G01X-27950Y-423900D01*
X-137530D01*
X-137570Y-424050D01*
G02X-140910I-1670J390D01*
G01X-140950Y-423900D01*
X-250500D01*
Y-413760D01*
G37*
G36*
G01X254280Y-384910D02*
G03X254020I-130J-147D01*
G02X251590Y-382480I-1120J1310D01*
G03Y-382220I-147J130D01*
G02Y-379980I1310J1120D01*
G03Y-379720I-147J130D01*
G02X254020Y-377290I1310J1120D01*
G03X254280I130J147D01*
G02X256520I1120J-1310D01*
G03X256780I130J147D01*
G02X259020I1120J-1310D01*
G03X259280I130J147D01*
G02X261520I1120J-1310D01*
G03X261780I130J147D01*
G02X264020I1120J-1310D01*
G03X264280I130J147D01*
G02X266710Y-379720I1120J-1310D01*
G03Y-379980I147J-130D01*
G02Y-382220I-1310J-1120D01*
G03Y-382480I147J-130D01*
G02X264280Y-384910I-1310J-1120D01*
G03X264020I-130J-147D01*
G02X261780I-1120J1310D01*
G03X261520I-130J-147D01*
G02X259280I-1120J1310D01*
G03X259020I-130J-147D01*
G02X256780I-1120J1310D01*
G03X256520I-130J-147D01*
G02X254280I-1120J1310D01*
G37*
G36*
G01X291480Y-372010D02*
G03X291220I-130J-147D01*
G02X288790Y-369580I-1120J1310D01*
G03Y-369320I-147J130D01*
G02Y-367080I1310J1120D01*
G03Y-366820I-147J130D01*
G02Y-364580I1310J1120D01*
G03Y-364320I-147J130D01*
G02Y-362080I1310J1120D01*
G03Y-361820I-147J130D01*
G02Y-359580I1310J1120D01*
G03Y-359320I-147J130D01*
G02X291220Y-356890I1310J1120D01*
G03X291480I130J147D01*
G02X293720I1120J-1310D01*
G03X293980I130J147D01*
G02X296410Y-359320I1120J-1310D01*
G03Y-359580I147J-130D01*
G02Y-361820I-1310J-1120D01*
G03Y-362080I147J-130D01*
G02Y-364320I-1310J-1120D01*
G03Y-364580I147J-130D01*
G02Y-366820I-1310J-1120D01*
G03Y-367080I147J-130D01*
G02Y-369320I-1310J-1120D01*
G03Y-369580I147J-130D01*
G02X293980Y-372010I-1310J-1120D01*
G03X293720I-130J-147D01*
G02X291480I-1120J1310D01*
G37*
G36*
G01X236180Y-365910D02*
G03X235920I-130J-147D01*
G02X233490Y-363480I-1120J1310D01*
G03Y-363220I-147J130D01*
G02Y-360980I1310J1120D01*
G03Y-360720I-147J130D01*
G02Y-358480I1310J1120D01*
G03Y-358220I-147J130D01*
G02Y-355980I1310J1120D01*
G03Y-355720I-147J130D01*
G02Y-353480I1310J1120D01*
G03Y-353220I-147J130D01*
G02X235920Y-350790I1310J1120D01*
G03X236180I130J147D01*
G02X238420I1120J-1310D01*
G03X238680I130J147D01*
G02X241110Y-353220I1120J-1310D01*
G03Y-353480I147J-130D01*
G02Y-355720I-1310J-1120D01*
G03Y-355980I147J-130D01*
G02Y-358220I-1310J-1120D01*
G03Y-358480I147J-130D01*
G02Y-360720I-1310J-1120D01*
G03Y-360980I147J-130D01*
G02Y-363220I-1310J-1120D01*
G03Y-363480I147J-130D01*
G02X238680Y-365910I-1310J-1120D01*
G03X238420I-130J-147D01*
G02X236180I-1120J1310D01*
G37*
G36*
G01X299180Y-333010D02*
G03X298920I-130J-147D01*
G02X296490Y-330580I-1120J1310D01*
G03Y-330320I-147J130D01*
G02Y-328080I1310J1120D01*
G03Y-327820I-147J130D01*
G02X298920Y-325390I1310J1120D01*
G03X299180I130J147D01*
G02X301420I1120J-1310D01*
G03X301680I130J147D01*
G02X303920I1120J-1310D01*
G03X304180I130J147D01*
G02X306420I1120J-1310D01*
G03X306680I130J147D01*
G02X308920I1120J-1310D01*
G03X309180I130J147D01*
G02X311610Y-327820I1120J-1310D01*
G03Y-328080I147J-130D01*
G02Y-330320I-1310J-1120D01*
G03Y-330580I147J-130D01*
G02X309180Y-333010I-1310J-1120D01*
G03X308920I-130J-147D01*
G02X306680I-1120J1310D01*
G03X306420I-130J-147D01*
G02X304180I-1120J1310D01*
G03X303920I-130J-147D01*
G02X301680I-1120J1310D01*
G03X301420I-130J-147D01*
G02X299180I-1120J1310D01*
G37*
G36*
G01X299080Y-324110D02*
G03X298820I-130J-147D01*
G02X296390Y-321680I-1120J1310D01*
G03Y-321420I-147J130D01*
G02Y-319180I1310J1120D01*
G03Y-318920I-147J130D01*
G02X298820Y-316490I1310J1120D01*
G03X299080I130J147D01*
G02X301320I1120J-1310D01*
G03X301580I130J147D01*
G02X303820I1120J-1310D01*
G03X304080I130J147D01*
G02X306320I1120J-1310D01*
G03X306580I130J147D01*
G02X308820I1120J-1310D01*
G03X309080I130J147D01*
G02X311510Y-318920I1120J-1310D01*
G03Y-319180I147J-130D01*
G02Y-321420I-1310J-1120D01*
G03Y-321680I147J-130D01*
G02X309080Y-324110I-1310J-1120D01*
G03X308820I-130J-147D01*
G02X306580I-1120J1310D01*
G03X306320I-130J-147D01*
G02X304080I-1120J1310D01*
G03X303820I-130J-147D01*
G02X301580I-1120J1310D01*
G03X301320I-130J-147D01*
G02X299080I-1120J1310D01*
G37*
G36*
G01X309180Y-315210D02*
G03X308920I-130J-152D01*
G02X306680I-1120J1310D01*
G03X306420I-130J-152D01*
G02X304180I-1120J1310D01*
G03X303920I-130J-152D01*
G02X301680I-1120J1310D01*
G03X301420I-130J-152D01*
G02X299180I-1120J1310D01*
G03X298920I-130J-152D01*
G02X296490Y-312780I-1120J1310D01*
G03Y-312520I-152J130D01*
G02Y-310280I1310J1120D01*
G03Y-310020I-152J130D01*
G02X296770Y-307520I1309J1119D01*
G03Y-306880I-236J320D01*
G02X296490Y-304380I1029J1381D01*
G03Y-304120I-152J130D01*
G02Y-301880I1310J1120D01*
G03Y-301620I-152J130D01*
G02X298920Y-299190I1310J1120D01*
G03X299180I130J152D01*
G02X301420I1120J-1310D01*
G03X301680I130J152D01*
G02X303920I1120J-1310D01*
G03X304180I130J152D01*
G02X306420I1120J-1310D01*
G03X306680I130J152D01*
G02X308920I1120J-1310D01*
G03X309180I130J152D01*
G02X311610Y-301620I1120J-1310D01*
G03Y-301880I152J-130D01*
G02Y-304120I-1310J-1120D01*
G03Y-304380I152J-130D01*
G02X311330Y-306880I-1309J-1119D01*
G03Y-307520I236J-320D01*
G02X311610Y-310020I-1029J-1381D01*
G03Y-310280I152J-130D01*
G02Y-312520I-1310J-1120D01*
G03Y-312780I152J-130D01*
G02X309180Y-315210I-1310J-1120D01*
G37*
G54D21*
X400000Y400000D03*
Y-400000D03*
X-400000Y400000D03*
Y-400000D03*
G54D20*
X287320Y154340D03*
X277990Y160500D03*
X280670Y-115860D03*
X279330Y-138180D03*
X278660Y-149340D03*
X280000Y-127020D03*
X277320Y-171660D03*
X277990Y-160500D03*
X250000Y178980D03*
X259330Y172820D03*
X268660Y166660D03*
X240670Y185140D03*
X185140Y-240670D03*
X171660Y277320D03*
X160500Y277990D03*
X172820Y-259330D03*
X166660Y-268660D03*
X178980Y-250000D03*
X154340Y-287320D03*
X160500Y-277990D03*
X138180Y279330D03*
X149340Y278660D03*
X127020Y280000D03*
X115860Y280670D03*
X-115860Y-280670D03*
X-138180Y-279330D03*
X-127020Y-280000D03*
X-154340Y287320D03*
X-160500Y277990D03*
X-166660Y268660D03*
X-172820Y259330D03*
X-171660Y-277320D03*
X-149340Y-278660D03*
X-160500Y-277990D03*
X-185140Y240670D03*
X-178980Y250000D03*
X-259330Y-172820D03*
X-250000Y-178980D03*
X-240670Y-185140D03*
X-277320Y171660D03*
X-277990Y160500D03*
X-278660Y149340D03*
X-279330Y138180D03*
X-280000Y127020D03*
X-280670Y115860D03*
X-287320Y-154340D03*
X-268660Y-166660D03*
X-277990Y-160500D03*
X291000Y60000D03*
X296000Y50000D03*
X50000Y-296000D03*
X60000Y-291000D03*
X-50000Y296000D03*
X-60000Y291000D03*
X-296000Y-50000D03*
X-291000Y-60000D03*
X281340Y-104700D03*
X282010Y-93540D03*
X231340Y191300D03*
X222010Y197460D03*
X191300Y-231340D03*
X197460Y-222010D03*
X104700Y281340D03*
X93540Y282010D03*
X-104700Y-281340D03*
X-93540Y-282010D03*
X-191300Y231340D03*
X-197460Y222010D03*
X-231340Y-191300D03*
X-222010Y-197460D03*
X-281340Y104700D03*
X-282010Y93540D03*
X376500Y-15500D03*
X365980Y-39730D03*
X368800Y-32100D03*
X356700Y313600D03*
Y289500D03*
X339160Y172600D03*
X334200Y153600D03*
X306000Y30000D03*
X321000Y0D03*
X316000Y10000D03*
X311000Y20000D03*
X326000Y-10000D03*
X320800Y-208170D03*
X309940Y-223180D03*
X292100Y315500D03*
X218300Y310800D03*
X202300Y319700D03*
X176290Y-337200D03*
X161000Y-345500D03*
X149990Y-340200D03*
X33200Y370000D03*
X15900Y377600D03*
X10000Y326000D03*
X20000Y-311000D03*
X10000Y-316000D03*
X30000Y-306000D03*
X-20000Y311000D03*
X-10000Y316000D03*
X0Y321000D03*
X-10000Y-326000D03*
X0Y-321000D03*
X-11400Y-370300D03*
X-26250Y-438960D03*
Y-433840D03*
Y-428720D03*
X-30000Y306000D03*
X-33700Y-366600D03*
X-30000Y-436400D03*
Y-431280D03*
Y-426160D03*
X-85660Y-333350D03*
X-89490Y-329920D03*
X-90080Y-334140D03*
X-142200Y-426220D03*
X-174130Y335000D03*
X-155100Y336500D03*
X-176460Y-360300D03*
X-176160Y-379300D03*
X-207600Y-317450D03*
X-193750Y-351460D03*
X-197500Y-348900D03*
X-193750Y-346340D03*
X-197500Y-343780D03*
X-193750Y-341220D03*
X-197500Y-338660D03*
X-193750Y-336100D03*
X-197500Y-333540D03*
X-196250Y-379400D03*
X-204650Y-427850D03*
Y-432970D03*
X-195350Y-435530D03*
Y-430410D03*
X-214820Y-314200D03*
X-232500Y-427500D03*
X-222500D03*
X-212500D03*
X-254940Y-327560D03*
X-264670Y-330120D03*
Y-335240D03*
X-261380Y-332680D03*
Y-337800D03*
X-267500Y-385690D03*
X-262500D03*
X-257500D03*
X-252500D03*
X-247500D03*
X-242500D03*
Y-377500D03*
Y-362500D03*
X-267500Y-422500D03*
X-262500D03*
X-252500Y-427500D03*
X-242500D03*
X-262500Y-442500D03*
X-252500D03*
X-242500D03*
X-270000Y-320000D03*
X-297500Y-385690D03*
X-292500D03*
X-287500D03*
X-282500D03*
X-277500D03*
X-272500D03*
X-297500Y-362500D03*
X-292500Y-422500D03*
X-287500D03*
X-282500D03*
X-277500D03*
X-292500Y-442500D03*
X-282500D03*
X-272500D03*
X-304300Y216290D03*
X-319060Y205800D03*
X-326000Y10000D03*
X-321000Y0D03*
X-311000Y-20000D03*
X-316000Y-10000D03*
X-306000Y-30000D03*
X-309200Y-329470D03*
X-319940Y-349940D03*
X-302440Y-334940D03*
Y-342560D03*
X-310060Y-347380D03*
X-319940Y-344820D03*
X-324660Y-342260D03*
X-320800Y-339700D03*
Y-334590D03*
X-324660Y-337150D03*
Y-332030D03*
X-327500Y-385690D03*
X-322500D03*
X-317500D03*
X-312500D03*
X-307500D03*
X-302500D03*
X-327500Y-362500D03*
X-317500D03*
X-307500D03*
Y-422500D03*
X-322500Y-427500D03*
X-312500D03*
X-302500D03*
X-322500Y-442500D03*
X-312500D03*
X-302500D03*
X-340000Y-174950D03*
X-345400Y-168600D03*
X-342500Y-296040D03*
X-338750Y-313960D03*
X-342500Y-311400D03*
X-338750Y-308840D03*
X-332560Y-349940D03*
X-347500Y-362500D03*
X-337500D03*
X-352500Y-427500D03*
X-342500D03*
X-332500D03*
X-352500Y-442500D03*
X-342500D03*
X-332500D03*
X-365700Y32800D03*
X-372400Y15300D03*
X-386250Y-328540D03*
X-382500Y-331100D03*
Y-336220D03*
Y-341340D03*
Y-346460D03*
X-386250Y-343900D03*
Y-338780D03*
Y-333660D03*
X-362500Y-427500D03*
Y-442500D03*
X-410180Y-295180D03*
Y-300300D03*
X-400450Y-287500D03*
X-392950Y-280000D03*
X-410180Y-305410D03*
X-419880Y-292620D03*
Y-297740D03*
X-422500Y-287500D03*
X-419880Y-302850D03*
X-286540Y-364640D03*
X-298960Y-277500D03*
X-301000Y-40000D03*
X-291280Y-273750D03*
X-296400D03*
X-293840Y-277500D03*
X-40000Y301000D03*
X40000Y-301000D03*
X301390Y-211300D03*
X301000Y40000D03*
X292100Y273600D03*
X-333140Y-312340D03*
G54D19*
X278190Y229890D03*
X283190Y221230D03*
X288190Y212570D03*
X280860Y185250D03*
X275860Y193910D03*
X285860Y176590D03*
Y-176590D03*
X275860Y-193910D03*
X280860Y-185250D03*
X278190Y-229890D03*
X283190Y-221230D03*
X288190Y-212570D03*
X273190Y238550D03*
X265860Y211230D03*
X260860Y219890D03*
X255860Y228550D03*
X270860Y202570D03*
Y-202570D03*
X273190Y-238550D03*
X255860Y-228550D03*
X260860Y-219890D03*
X265860Y-211230D03*
X238550Y273190D03*
X229890Y278190D03*
X221230Y283190D03*
X228550Y255860D03*
X219890Y260860D03*
Y-260860D03*
X228550Y-255860D03*
X221230Y-283190D03*
X229890Y-278190D03*
X238550Y-273190D03*
X212570Y288190D03*
X193910Y275860D03*
X185250Y280860D03*
X202570Y270860D03*
X211230Y265860D03*
Y-265860D03*
X212570Y-288190D03*
X185250Y-280860D03*
X193910Y-275860D03*
X202570Y-270860D03*
X176590Y285860D03*
Y-285860D03*
X-176590Y285860D03*
X-185250Y280860D03*
X-193910Y275860D03*
X-202570Y270860D03*
Y-270860D03*
X-193910Y-275860D03*
X-185250Y-280860D03*
X-176590Y-285860D03*
X-212570Y288190D03*
X-221230Y283190D03*
X-229890Y278190D03*
X-211230Y265860D03*
X-219890Y260860D03*
X-228550Y255860D03*
Y-255860D03*
X-219890Y-260860D03*
X-211230Y-265860D03*
X-212570Y-288190D03*
X-221230Y-283190D03*
X-229890Y-278190D03*
X-238550Y273190D03*
X-255860Y228550D03*
X-260860Y219890D03*
X-265860Y211230D03*
X-260860Y-219890D03*
X-255860Y-228550D03*
X-265860Y-211230D03*
X-238550Y-273190D03*
X-273190Y238550D03*
X-278190Y229890D03*
X-283190Y221230D03*
X-288190Y212570D03*
X-270860Y202570D03*
X-275860Y193910D03*
X-280860Y185250D03*
X-285860Y176590D03*
Y-176590D03*
X-280860Y-185250D03*
X-275860Y-193910D03*
X-270860Y-202570D03*
X-288190Y-212570D03*
X-283190Y-221230D03*
X-278190Y-229890D03*
X-273190Y-238550D03*
X338190Y125970D03*
X343190Y117310D03*
X355860Y60000D03*
Y70000D03*
X335860Y60000D03*
Y70000D03*
X355860Y30000D03*
Y40000D03*
Y50000D03*
X335860Y30000D03*
Y40000D03*
Y50000D03*
X355860Y0D03*
Y10000D03*
Y20000D03*
X335860Y0D03*
Y10000D03*
Y20000D03*
X355860Y-30000D03*
Y-20000D03*
Y-10000D03*
X335860Y-30000D03*
Y-20000D03*
Y-10000D03*
X355860Y-60000D03*
Y-50000D03*
Y-40000D03*
X335860Y-60000D03*
Y-50000D03*
Y-40000D03*
X355860Y-70000D03*
X335860D03*
X343190Y-117310D03*
X338190Y-125970D03*
X323190Y151950D03*
X318190Y160610D03*
X313190Y169270D03*
X308190Y177930D03*
X333190Y134630D03*
X328190Y143290D03*
X315860Y124630D03*
X310860Y133290D03*
X305860Y141950D03*
X325860Y107310D03*
X320860Y115970D03*
Y-115970D03*
X325860Y-107310D03*
X328190Y-143290D03*
X333190Y-134630D03*
X305860Y-141950D03*
X310860Y-133290D03*
X315860Y-124630D03*
X308190Y-177930D03*
X313190Y-169270D03*
X318190Y-160610D03*
X323190Y-151950D03*
X177930Y308190D03*
X169270Y313190D03*
X160610Y318190D03*
Y-318190D03*
X169270Y-313190D03*
X177930Y-308190D03*
X134630Y333190D03*
X125970Y338190D03*
X151950Y323190D03*
X143290Y328190D03*
X141950Y305860D03*
X133290Y310860D03*
X124630Y315860D03*
X143290Y-328190D03*
X151950Y-323190D03*
X124630Y-315860D03*
X133290Y-310860D03*
X141950Y-305860D03*
X125970Y-338190D03*
X134630Y-333190D03*
X117310Y343190D03*
X115970Y320860D03*
X107310Y325860D03*
Y-325860D03*
X115970Y-320860D03*
X117310Y-343190D03*
X70000Y335860D03*
Y355860D03*
Y-355860D03*
Y-335860D03*
X60000Y335860D03*
X50000D03*
X40000D03*
X60000Y355860D03*
X50000D03*
X40000D03*
Y-355860D03*
X50000D03*
X60000D03*
X40000Y-335860D03*
X50000D03*
X60000D03*
X30000Y335860D03*
X20000D03*
X10000D03*
X30000Y355860D03*
X20000D03*
X10000D03*
Y-355860D03*
X20000D03*
X30000D03*
X10000Y-335860D03*
X20000D03*
X30000D03*
X0Y335860D03*
X-10000D03*
X-20000D03*
X0Y355860D03*
X-10000D03*
X-20000D03*
Y-355860D03*
X-10000D03*
X0D03*
X-20000Y-335860D03*
X-10000D03*
X0D03*
X-30000Y335860D03*
X-40000D03*
X-50000D03*
X-30000Y355860D03*
X-40000D03*
X-50000D03*
Y-355860D03*
X-40000D03*
X-30000D03*
X-50000Y-335860D03*
X-40000D03*
X-30000D03*
X-60000Y335860D03*
X-70000D03*
X-60000Y355860D03*
X-70000D03*
Y-355860D03*
X-60000D03*
X-70000Y-335860D03*
X-60000D03*
X-107310Y325860D03*
Y-325860D03*
X-117310Y343190D03*
X-125970Y338190D03*
X-134630Y333190D03*
X-143290Y328190D03*
X-115970Y320860D03*
X-124630Y315860D03*
X-133290Y310860D03*
X-141950Y305860D03*
Y-305860D03*
X-133290Y-310860D03*
X-124630Y-315860D03*
X-115970Y-320860D03*
X-143290Y-328190D03*
X-117310Y-343190D03*
X-125970Y-338190D03*
X-134630Y-333190D03*
X-151950Y323190D03*
X-160610Y318190D03*
X-169270Y313190D03*
X-151950Y-323190D03*
X-160610Y-318190D03*
X-169270Y-313190D03*
X-177930Y308190D03*
Y-308190D03*
X-308190Y177930D03*
X-313190Y169270D03*
X-318190Y160610D03*
X-323190Y151950D03*
X-305860Y141950D03*
X-310860Y133290D03*
X-315860Y124630D03*
X-320860Y115970D03*
Y-115970D03*
X-315860Y-124630D03*
X-310860Y-133290D03*
X-305860Y-141950D03*
X-323190Y-151950D03*
X-318190Y-160610D03*
X-313190Y-169270D03*
X-308190Y-177930D03*
X-328190Y143290D03*
X-333190Y134630D03*
X-338190Y125970D03*
X-325860Y107310D03*
X-343190Y117310D03*
X-335860Y70000D03*
Y60000D03*
X-355860D03*
Y70000D03*
X-335860Y50000D03*
Y40000D03*
Y30000D03*
X-355860D03*
Y40000D03*
Y50000D03*
X-335860Y20000D03*
Y10000D03*
Y0D03*
X-355860D03*
Y10000D03*
Y20000D03*
X-335860Y-10000D03*
Y-20000D03*
Y-30000D03*
X-355860D03*
Y-20000D03*
Y-10000D03*
X-335860Y-40000D03*
Y-50000D03*
Y-60000D03*
X-355860D03*
Y-50000D03*
Y-40000D03*
X-335860Y-70000D03*
X-355860D03*
X-343190Y-117310D03*
X-325860Y-107310D03*
X-338190Y-125970D03*
X-333190Y-134630D03*
X-328190Y-143290D03*
X-298190Y-195250D03*
X-303190Y-186590D03*
X-300860Y-150610D03*
Y150610D03*
X-303190Y186590D03*
X-298190Y195250D03*
X-293190Y-203910D03*
X-295860Y-159270D03*
X-290860Y-167930D03*
X-295860Y159270D03*
X-290860Y167930D03*
X-293190Y203910D03*
X-186590Y-303190D03*
X-203910Y-293190D03*
X-195250Y-298190D03*
X-203910Y293190D03*
X-195250Y298190D03*
X-186590Y303190D03*
X-150610Y-300860D03*
X-159270Y-295860D03*
X-167930Y-290860D03*
Y290860D03*
X-159270Y295860D03*
X-150610Y300860D03*
X150610Y-300860D03*
Y300860D03*
X167930Y-290860D03*
X159270Y-295860D03*
Y295860D03*
X167930Y290860D03*
X186590Y-303190D03*
X203910Y-293190D03*
X195250Y-298190D03*
Y298190D03*
X203910Y293190D03*
X186590Y303190D03*
X303190Y-186590D03*
X298190Y-195250D03*
X293190Y-203910D03*
X300860Y-150610D03*
X295860Y-159270D03*
X290860Y-167930D03*
X300860Y150610D03*
X290860Y167930D03*
X295860Y159270D03*
X303190Y186590D03*
X298190Y195250D03*
X293190Y203910D03*
%LPD*%
G75*
G36*
G01X-247800Y-421700D02*
Y-396600D01*
X-176900D01*
G03X-175220I840J1500D01*
G01X274050D01*
Y-412860D01*
X282950D01*
Y-406320D01*
G02X283660Y-406070I400J-3D01*
G03X286100Y-406330I1348J1069D01*
G01X286120Y-406310D01*
X286250Y-406260D01*
X286380Y-406310D01*
X286400Y-406330D01*
G03X288600I1100J1330D01*
G01X288620Y-406310D01*
X288750Y-406260D01*
X288880Y-406310D01*
X288900Y-406330D01*
G03X291100I1100J1330D01*
G01X291120Y-406310D01*
X291250Y-406260D01*
X291380Y-406310D01*
X291400Y-406330D01*
G03X293600I1100J1330D01*
G01X293620Y-406310D01*
X293750Y-406260D01*
X293880Y-406310D01*
X293900Y-406330D01*
G03X296100I1100J1330D01*
G01X296120Y-406310D01*
X296250Y-406260D01*
X296380Y-406310D01*
X296400Y-406330D01*
G03X298830Y-403900I1100J1330D01*
G01X298810Y-403880D01*
X298760Y-403750D01*
X298810Y-403620D01*
X298830Y-403600D01*
G03Y-401400I-1330J1100D01*
G01X298810Y-401380D01*
X298760Y-401250D01*
X298810Y-401120D01*
X298830Y-401100D01*
G03X296400Y-398670I-1330J1100D01*
G01X296380Y-398690D01*
X296250Y-398740D01*
X296120Y-398690D01*
X296100Y-398670D01*
G03X293900I-1100J-1330D01*
G01X293880Y-398690D01*
X293750Y-398740D01*
X293620Y-398690D01*
X293600Y-398670D01*
G03X291400I-1100J-1330D01*
G01X291380Y-398690D01*
X291250Y-398740D01*
X291120Y-398690D01*
X291100Y-398670D01*
G03X288900I-1100J-1330D01*
G01X288880Y-398690D01*
X288750Y-398740D01*
X288620Y-398690D01*
X288600Y-398670D01*
G03X286400I-1100J-1330D01*
G01X286380Y-398690D01*
X286250Y-398740D01*
X286120Y-398690D01*
X286100Y-398670D01*
G03X283660Y-398930I-1092J-1329D01*
G02X282950Y-398680I-310J253D01*
G01Y-396600D01*
X364900D01*
Y-306400D01*
X417600D01*
Y-339800D01*
X374800D01*
Y-421700D01*
X-27900D01*
G02X-28290Y-421250I5J399D01*
G03X-31710I-1710J210D01*
G02X-32100Y-421700I-395J-51D01*
G01X-140090D01*
G02X-140490Y-421260I-1J401D01*
G03X-143910I-1710J160D01*
G02X-144310Y-421700I-399J-39D01*
G01X-247800D01*
G37*
%LPC*%
G75*
G54D22*
X260000Y-414310D03*
G54D20*
X-189900Y-412500D03*
X-183940Y-404900D03*
X-196250Y-399400D03*
X-203750D03*
X-195060Y-415060D03*
X-207380Y-417620D03*
X-184880D03*
X-171700Y-412500D03*
X-139240Y-418540D03*
X-95700Y-412500D03*
X-86720Y-417620D03*
X-74900Y-412600D03*
%LPD*%
G75*
G54D10*
X-435000Y-435000D03*
Y435000D03*
X-400000Y-400000D03*
Y400000D03*
X400000Y-400000D03*
Y400000D03*
X435000Y-435000D03*
Y435000D03*
G54D11*
X-419880Y-302850D03*
X-422500Y-287500D03*
X-419880Y-292620D03*
Y-297740D03*
X-392500Y-317500D03*
X-405000Y-312500D03*
X-410180Y-305410D03*
X-392950Y-280000D03*
X-400450Y-287500D03*
X-397380Y-292620D03*
X-410180Y-295180D03*
Y-300300D03*
X-362500Y-442500D03*
Y-427500D03*
X-382500Y-346460D03*
X-386250Y-343900D03*
X-382500Y-341340D03*
X-386250Y-338780D03*
X-382500Y-336220D03*
X-386250Y-333660D03*
X-382500Y-331100D03*
X-386250Y-328540D03*
X-372400Y15300D03*
X-365700Y32800D03*
X-352500Y-442500D03*
X-342500D03*
X-332500D03*
Y-427500D03*
X-342500D03*
X-352500D03*
X-347500Y-362500D03*
X-337500D03*
X-332560Y-349940D03*
X-333140Y-312340D03*
X-338750Y-308840D03*
X-342500Y-311400D03*
X-338750Y-313960D03*
X-342500Y-296040D03*
X-340000Y-174950D03*
X-345400Y-168600D03*
X-322500Y-442500D03*
X-312500D03*
X-302500D03*
X-312500Y-427500D03*
X-322500D03*
X-307500Y-422500D03*
X-302500Y-427500D03*
Y-385690D03*
X-327500Y-362500D03*
X-317500D03*
X-307500D03*
X-327500Y-385690D03*
X-322500D03*
X-312500D03*
X-307500D03*
X-317500D03*
X-319940Y-349940D03*
X-302440Y-334940D03*
X-327620Y-347380D03*
X-299880Y-332380D03*
X-302440Y-342560D03*
X-310060Y-347380D03*
X-319940Y-344820D03*
X-324660Y-342260D03*
X-320800Y-339700D03*
X-324660Y-337150D03*
X-320800Y-334590D03*
X-324660Y-332030D03*
X-321910Y-326910D03*
X-309200Y-329470D03*
X-298960Y-277500D03*
X-301000Y-40000D03*
X-316000Y-10000D03*
X-311000Y-20000D03*
X-306000Y-30000D03*
X-326000Y10000D03*
X-321000Y0D03*
X-319060Y205800D03*
X-304300Y216290D03*
X-292500Y-442500D03*
X-282500D03*
X-272500D03*
X-277500Y-422500D03*
X-282500D03*
X-287500D03*
X-292500D03*
X-297500D03*
Y-385690D03*
X-292500D03*
X-287500D03*
X-282500D03*
X-277500D03*
X-272500D03*
X-297500Y-362500D03*
X-286540Y-364640D03*
X-277500Y-335000D03*
Y-345000D03*
X-289650Y-345350D03*
X-287090Y-342910D03*
X-284530Y-340470D03*
X-281970Y-338030D03*
X-270000Y-320000D03*
X-296400Y-273750D03*
X-293840Y-277500D03*
X-291280Y-273750D03*
X-287320Y-154340D03*
X-268660Y-166660D03*
X-277990Y-160500D03*
X-296000Y-50000D03*
X-291000Y-60000D03*
X-280670Y115860D03*
X-281340Y104700D03*
X-282010Y93540D03*
X-278660Y149340D03*
X-279330Y138180D03*
X-280000Y127020D03*
X-277320Y171660D03*
X-277990Y160500D03*
X-262500Y-442500D03*
X-252500D03*
X-242500D03*
X-262500Y-422500D03*
X-267500D03*
X-242500Y-427500D03*
X-252500D03*
X-242500Y-377500D03*
Y-385690D03*
X-267500D03*
X-262500D03*
X-257500D03*
X-252500D03*
X-247500D03*
X-242500Y-362500D03*
X-265650Y-353150D03*
X-247950Y-354550D03*
X-261380Y-332680D03*
X-264670Y-335240D03*
X-261380Y-337800D03*
X-242620Y-330120D03*
X-254940Y-327560D03*
X-264670Y-330120D03*
X-240670Y-185140D03*
X-259330Y-172820D03*
X-250000Y-178980D03*
X-212500Y-442500D03*
X-232500D03*
X-222500D03*
Y-427500D03*
X-232500D03*
X-212500D03*
X-237500Y-412500D03*
X-214820Y-314200D03*
X-231340Y-191300D03*
X-222010Y-197460D03*
X-185000Y-440000D03*
X-192500Y-437500D03*
X-204650Y-427850D03*
X-195350Y-430410D03*
X-204650Y-432970D03*
X-195350Y-435530D03*
X-184880Y-417620D03*
X-183940Y-404900D03*
X-196250Y-399400D03*
X-189900Y-412500D03*
X-195060Y-415060D03*
X-203750Y-399400D03*
X-207380Y-417620D03*
X-189240Y-365200D03*
X-188940Y-374400D03*
X-195100Y-365500D03*
Y-385500D03*
X-196250Y-379400D03*
X-193750Y-351460D03*
X-197500Y-348900D03*
X-193750Y-346340D03*
X-197500Y-343780D03*
Y-333540D03*
X-193750Y-336100D03*
X-197500Y-338660D03*
X-193750Y-341220D03*
X-207600Y-317450D03*
X-191300Y231340D03*
X-197460Y222010D03*
X-178980Y250000D03*
X-185140Y240670D03*
X-176060Y-395100D03*
X-171700Y-412500D03*
X-176160Y-379300D03*
X-176460Y-360300D03*
X-171660Y-277320D03*
X-149340Y-278660D03*
X-160500Y-277990D03*
X-166660Y268660D03*
X-172820Y259330D03*
X-154340Y287320D03*
X-160500Y277990D03*
X-174130Y335000D03*
X-155100Y336500D03*
X-139240Y-423660D03*
X-142200Y-421100D03*
Y-426220D03*
X-139240Y-418540D03*
X-138180Y-279330D03*
X-127020Y-280000D03*
X-95000Y-440650D03*
X-95700Y-412500D03*
X-90080Y-334140D03*
X-89490Y-329920D03*
X-115860Y-280670D03*
X-104700Y-281340D03*
X-93540Y-282010D03*
X-74900Y-412600D03*
X-86720Y-417620D03*
X-85660Y-333350D03*
X-60000Y291000D03*
X-30000Y-426160D03*
Y-431280D03*
Y-436400D03*
Y-421040D03*
X-33700Y-366600D03*
X-50000Y296000D03*
X-30000Y306000D03*
X-40000Y301000D03*
X-26250Y-423600D03*
Y-428720D03*
Y-433840D03*
Y-438960D03*
X-11400Y-370300D03*
X-10000Y-326000D03*
X0Y-321000D03*
X-10000Y316000D03*
X-20000Y311000D03*
X0Y321000D03*
X10000Y-316000D03*
X20000Y-311000D03*
X30000Y-306000D03*
X10000Y326000D03*
X15900Y377600D03*
X40000Y-301000D03*
X50000Y-296000D03*
X60000Y-291000D03*
X33200Y370000D03*
X115860Y280670D03*
X104700Y281340D03*
X93540Y282010D03*
X149990Y-340200D03*
X149340Y278660D03*
X138180Y279330D03*
X127020Y280000D03*
X176290Y-337200D03*
X161000Y-345500D03*
X154340Y-287320D03*
X160500Y-277990D03*
X166660Y-268660D03*
X172820Y-259330D03*
X178980Y-250000D03*
X171660Y277320D03*
X160500Y277990D03*
X209700Y-366500D03*
X185140Y-240670D03*
X191300Y-231340D03*
X197460Y-222010D03*
X202300Y319700D03*
X214100Y-379900D03*
X234800Y-362100D03*
Y-364600D03*
X237300Y-362100D03*
Y-364600D03*
X239800Y-362100D03*
Y-364600D03*
X212900Y-352900D03*
X234800Y-352100D03*
Y-354600D03*
Y-357100D03*
Y-359600D03*
X237300Y-352100D03*
Y-354600D03*
Y-357100D03*
Y-359600D03*
X239800Y-352100D03*
Y-354600D03*
Y-357100D03*
Y-359600D03*
X240670Y185140D03*
X231340Y191300D03*
X222010Y197460D03*
X218300Y310800D03*
X252900Y-383600D03*
X255400D03*
X257900D03*
X260400D03*
X262900D03*
X265400D03*
X252900Y-381100D03*
X255400D03*
X257900D03*
X260400D03*
X262900D03*
X265400D03*
X252900Y-378600D03*
X255400D03*
X257900D03*
X260400D03*
X262900D03*
X265400D03*
X260700Y-347900D03*
X254940Y-306900D03*
X259600Y-321300D03*
Y-330800D03*
X259800Y-296600D03*
X268660Y166660D03*
X259330Y172820D03*
X250000Y178980D03*
X297500Y-400000D03*
X295000D03*
X292500D03*
X290000D03*
X287500D03*
X285000D03*
X297500Y-402500D03*
X295000D03*
X292500D03*
X290000D03*
X287500D03*
X285000D03*
X297500Y-405000D03*
X295000D03*
X292500D03*
X290000D03*
X287500D03*
X285000D03*
X290100Y-363200D03*
Y-365700D03*
Y-368200D03*
Y-370700D03*
X292600Y-363200D03*
Y-365700D03*
Y-368200D03*
Y-370700D03*
X295100Y-363200D03*
Y-365700D03*
Y-368200D03*
Y-370700D03*
X297800Y-331700D03*
X300300D03*
X290100Y-360700D03*
X292600D03*
X295100D03*
Y-358200D03*
X292600D03*
X290100D03*
X297800Y-305500D03*
X300300D03*
X297800Y-303000D03*
X300300D03*
X297800Y-313900D03*
X300300D03*
X297800Y-311400D03*
X300300D03*
X297800Y-308900D03*
X300300D03*
X297700Y-322800D03*
X300200D03*
X297700Y-320300D03*
X300200D03*
X297700Y-317800D03*
X300200D03*
X297800Y-329200D03*
X300300D03*
X297800Y-326700D03*
X300300D03*
X297800Y-300500D03*
X300300D03*
X301390Y-211300D03*
X277320Y-171660D03*
X277990Y-160500D03*
X278660Y-149340D03*
X279330Y-138180D03*
X280000Y-127020D03*
X280670Y-115860D03*
X281340Y-104700D03*
X282010Y-93540D03*
X301000Y40000D03*
X296000Y50000D03*
X291000Y60000D03*
X287320Y154340D03*
X277990Y160500D03*
X292100Y273600D03*
Y315500D03*
X302800Y-331700D03*
X305300D03*
X307800D03*
X310300D03*
X302800Y-305500D03*
X305300D03*
X307800D03*
X310300D03*
X302800Y-303000D03*
X305300D03*
X307800D03*
X310300D03*
X302800Y-313900D03*
X305300D03*
X307800D03*
X310300D03*
X302800Y-311400D03*
X305300D03*
X307800D03*
X310300D03*
X302800Y-308900D03*
X305300D03*
X307800D03*
X310300D03*
X302700Y-322800D03*
X305200D03*
X307700D03*
X310200D03*
X302700Y-320300D03*
X305200D03*
X307700D03*
X310200D03*
X302700Y-317800D03*
X305200D03*
X307700D03*
X310200D03*
X302800Y-329200D03*
X305300D03*
X307800D03*
X310300D03*
X302800Y-326700D03*
X305300D03*
X307800D03*
X310300D03*
X302800Y-300500D03*
X305300D03*
X307800D03*
X310300D03*
X309940Y-223180D03*
X320800Y-208170D03*
X326000Y-10000D03*
X316000Y10000D03*
X311000Y20000D03*
X321000Y0D03*
X306000Y30000D03*
X339160Y172600D03*
X334200Y153600D03*
X356700Y289500D03*
Y313600D03*
X368800Y-32100D03*
X365980Y-39730D03*
X376500Y-15500D03*
X392300Y-320000D03*
X394800D03*
X397300D03*
X399800D03*
X402300D03*
X404800D03*
X392300Y-317500D03*
X394800D03*
X397300D03*
X399800D03*
X402300D03*
X404800D03*
X392300Y-315000D03*
X394800D03*
X397300D03*
X399800D03*
X402300D03*
X404800D03*
G54D12*
X-328190Y-143290D03*
X-333190Y-134630D03*
X-338190Y-125970D03*
X-325860Y-107310D03*
X-343190Y-117310D03*
X-335860Y-70000D03*
X-355860D03*
X-335860Y-60000D03*
Y-50000D03*
Y-40000D03*
X-355860Y-60000D03*
Y-50000D03*
Y-40000D03*
X-335860Y-30000D03*
Y-20000D03*
Y-10000D03*
X-355860Y-30000D03*
Y-20000D03*
Y-10000D03*
X-335860Y0D03*
Y10000D03*
Y20000D03*
X-355860Y0D03*
Y10000D03*
Y20000D03*
X-335860Y30000D03*
Y40000D03*
Y50000D03*
X-355860Y30000D03*
Y40000D03*
Y50000D03*
X-335860Y60000D03*
Y70000D03*
X-355860Y60000D03*
Y70000D03*
X-343190Y117310D03*
X-325860Y107310D03*
X-338190Y125970D03*
X-333190Y134630D03*
X-328190Y143290D03*
X-298190Y-195250D03*
X-303190Y-186590D03*
X-295860Y-159270D03*
X-300860Y-150610D03*
X-308190Y-177930D03*
X-313190Y-169270D03*
X-318190Y-160610D03*
X-323190Y-151950D03*
X-305860Y-141950D03*
X-310860Y-133290D03*
X-315860Y-124630D03*
X-320860Y-115970D03*
Y115970D03*
X-315860Y124630D03*
X-310860Y133290D03*
X-305860Y141950D03*
X-300860Y150610D03*
X-323190Y151950D03*
X-318190Y160610D03*
X-313190Y169270D03*
X-308190Y177930D03*
X-295860Y159270D03*
X-303190Y186590D03*
X-298190Y195250D03*
X-265860Y-211230D03*
X-273190Y-238550D03*
X-278190Y-229890D03*
X-283190Y-221230D03*
X-288190Y-212570D03*
X-270860Y-202570D03*
X-275860Y-193910D03*
X-280860Y-185250D03*
X-293190Y-203910D03*
X-285860Y-176590D03*
X-290860Y-167930D03*
Y167930D03*
X-285860Y176590D03*
X-293190Y203910D03*
X-280860Y185250D03*
X-275860Y193910D03*
X-270860Y202570D03*
X-288190Y212570D03*
X-283190Y221230D03*
X-278190Y229890D03*
X-273190Y238550D03*
X-265860Y211230D03*
X-238550Y-273190D03*
X-255860Y-228550D03*
X-260860Y-219890D03*
Y219890D03*
X-255860Y228550D03*
X-238550Y273190D03*
X-212570Y-288190D03*
X-221230Y-283190D03*
X-229890Y-278190D03*
X-211230Y-265860D03*
X-219890Y-260860D03*
X-228550Y-255860D03*
Y255860D03*
X-219890Y260860D03*
X-211230Y265860D03*
X-229890Y278190D03*
X-221230Y283190D03*
X-212570Y288190D03*
X-177930Y-308190D03*
X-186590Y-303190D03*
X-176590Y-285860D03*
X-185250Y-280860D03*
X-193910Y-275860D03*
X-202570Y-270860D03*
X-195250Y-298190D03*
X-203910Y-293190D03*
X-202570Y270860D03*
X-193910Y275860D03*
X-185250Y280860D03*
X-176590Y285860D03*
X-203910Y293190D03*
X-195250Y298190D03*
X-186590Y303190D03*
X-177930Y308190D03*
X-150610Y-300860D03*
X-151950Y-323190D03*
X-160610Y-318190D03*
X-169270Y-313190D03*
X-159270Y-295860D03*
X-167930Y-290860D03*
Y290860D03*
X-159270Y295860D03*
X-150610Y300860D03*
X-169270Y313190D03*
X-160610Y318190D03*
X-151950Y323190D03*
X-117310Y-343190D03*
X-125970Y-338190D03*
X-134630Y-333190D03*
X-115970Y-320860D03*
X-124630Y-315860D03*
X-133290Y-310860D03*
X-141950Y-305860D03*
X-143290Y-328190D03*
X-141950Y305860D03*
X-133290Y310860D03*
X-124630Y315860D03*
X-115970Y320860D03*
X-143290Y328190D03*
X-134630Y333190D03*
X-125970Y338190D03*
X-117310Y343190D03*
X-107310Y-325860D03*
Y325860D03*
X-60000Y-335860D03*
X-70000D03*
X-60000Y-355860D03*
X-70000D03*
Y355860D03*
X-60000D03*
X-70000Y335860D03*
X-60000D03*
X-30000Y-335860D03*
X-40000D03*
X-50000D03*
X-30000Y-355860D03*
X-40000D03*
X-50000D03*
Y355860D03*
X-40000D03*
X-30000D03*
X-50000Y335860D03*
X-40000D03*
X-30000D03*
X0Y-335860D03*
X-10000D03*
X-20000D03*
X0Y-355860D03*
X-10000D03*
X-20000D03*
Y355860D03*
X-10000D03*
X0D03*
X-20000Y335860D03*
X-10000D03*
X0D03*
X30000Y-335860D03*
X20000D03*
X10000D03*
X30000Y-355860D03*
X20000D03*
X10000D03*
Y355860D03*
X20000D03*
X30000D03*
X10000Y335860D03*
X20000D03*
X30000D03*
X60000Y-335860D03*
X50000D03*
X40000D03*
X60000Y-355860D03*
X50000D03*
X40000D03*
Y355860D03*
X50000D03*
X60000D03*
X40000Y335860D03*
X50000D03*
X60000D03*
X70000Y-335860D03*
Y-355860D03*
Y355860D03*
Y335860D03*
X117310Y-343190D03*
X115970Y-320860D03*
X107310Y-325860D03*
Y325860D03*
X115970Y320860D03*
X117310Y343190D03*
X134630Y-333190D03*
X125970Y-338190D03*
X150610Y-300860D03*
X141950Y-305860D03*
X133290Y-310860D03*
X124630Y-315860D03*
X151950Y-323190D03*
X143290Y-328190D03*
X150610Y300860D03*
X124630Y315860D03*
X133290Y310860D03*
X141950Y305860D03*
X143290Y328190D03*
X151950Y323190D03*
X125970Y338190D03*
X134630Y333190D03*
X177930Y-308190D03*
X169270Y-313190D03*
X160610Y-318190D03*
X176590Y-285860D03*
X167930Y-290860D03*
X159270Y-295860D03*
Y295860D03*
X167930Y290860D03*
X176590Y285860D03*
X160610Y318190D03*
X169270Y313190D03*
X177930Y308190D03*
X186590Y-303190D03*
X202570Y-270860D03*
X193910Y-275860D03*
X185250Y-280860D03*
X212570Y-288190D03*
X203910Y-293190D03*
X195250Y-298190D03*
X211230Y-265860D03*
X202570Y270860D03*
X211230Y265860D03*
X185250Y280860D03*
X193910Y275860D03*
X195250Y298190D03*
X203910Y293190D03*
X212570Y288190D03*
X186590Y303190D03*
X238550Y-273190D03*
X229890Y-278190D03*
X221230Y-283190D03*
X228550Y-255860D03*
X219890Y-260860D03*
Y260860D03*
X228550Y255860D03*
X221230Y283190D03*
X229890Y278190D03*
X238550Y273190D03*
X265860Y-211230D03*
X260860Y-219890D03*
X255860Y-228550D03*
X273190Y-238550D03*
X270860Y-202570D03*
Y202570D03*
X255860Y228550D03*
X260860Y219890D03*
X265860Y211230D03*
X273190Y238550D03*
X288190Y-212570D03*
X283190Y-221230D03*
X278190Y-229890D03*
X280860Y-185250D03*
X275860Y-193910D03*
X303190Y-186590D03*
X298190Y-195250D03*
X293190Y-203910D03*
X300860Y-150610D03*
X295860Y-159270D03*
X290860Y-167930D03*
X285860Y-176590D03*
X300860Y150610D03*
X285860Y176590D03*
X290860Y167930D03*
X295860Y159270D03*
X275860Y193910D03*
X280860Y185250D03*
X293190Y203910D03*
X298190Y195250D03*
X303190Y186590D03*
X278190Y229890D03*
X283190Y221230D03*
X288190Y212570D03*
X323190Y-151950D03*
X318190Y-160610D03*
X313190Y-169270D03*
X308190Y-177930D03*
X315860Y-124630D03*
X310860Y-133290D03*
X305860Y-141950D03*
X333190Y-134630D03*
X328190Y-143290D03*
X325860Y-107310D03*
X320860Y-115970D03*
Y115970D03*
X325860Y107310D03*
X305860Y141950D03*
X310860Y133290D03*
X315860Y124630D03*
X328190Y143290D03*
X333190Y134630D03*
X308190Y177930D03*
X313190Y169270D03*
X318190Y160610D03*
X323190Y151950D03*
X338190Y-125970D03*
X343190Y-117310D03*
X335860Y-70000D03*
X355860D03*
X335860Y-40000D03*
Y-50000D03*
Y-60000D03*
X355860Y-40000D03*
Y-50000D03*
Y-60000D03*
X335860Y-10000D03*
Y-20000D03*
Y-30000D03*
X355860Y-10000D03*
Y-20000D03*
Y-30000D03*
X335860Y20000D03*
Y10000D03*
Y0D03*
X355860Y20000D03*
Y10000D03*
Y0D03*
X335860Y50000D03*
Y40000D03*
Y30000D03*
X355860Y50000D03*
Y40000D03*
Y30000D03*
X335860Y70000D03*
Y60000D03*
X355860Y70000D03*
Y60000D03*
X343190Y117310D03*
X338190Y125970D03*
G54D13*
X0Y0D03*
G54D14*
X260000Y-414310D03*
Y-390690D03*
G54D15*
X278500Y-402500D03*
G54D16*
G01X-400000Y-410710D02*
Y-400000D01*
G01D02*
Y-389290D01*
G01X-410710Y-400000D02*
X-400000D01*
G01D02*
X-389290D01*
G01X-400000Y389290D02*
Y400000D01*
G01D02*
Y410710D01*
G01X-410710Y400000D02*
X-400000D01*
G01D02*
X-389290D01*
G01X-338190Y-129680D02*
Y-125970D01*
G01D02*
Y-122260D01*
G01X-341900Y-125970D02*
X-338190D01*
G01D02*
X-334480D01*
G01X-335860Y56290D02*
Y60000D01*
G01X-355860Y56290D02*
Y60000D01*
G01X-335860D02*
Y63710D01*
G01X-339570Y60000D02*
X-335860D01*
G01D02*
X-332150D01*
G01X-355860D02*
Y63710D01*
G01X-359570Y60000D02*
X-355860D01*
G01D02*
X-352150D01*
G01X-320860Y-119680D02*
Y-115970D01*
G01D02*
Y-112260D01*
G01X-324570Y-115970D02*
X-320860D01*
G01D02*
X-317150D01*
G01X-285710Y0D02*
X0D01*
G01X-278190Y226180D02*
Y229890D01*
G01D02*
Y233600D01*
G01X-281900Y229890D02*
X-278190D01*
G01D02*
X-274480D01*
G01X-260860Y216180D02*
Y219890D01*
G01D02*
Y223600D01*
G01X-264570Y219890D02*
X-260860D01*
G01D02*
X-257150D01*
G01X-229890Y-281900D02*
Y-278190D01*
G01D02*
Y-274480D01*
G01X-233600Y-278190D02*
X-229890D01*
G01D02*
X-226180D01*
G01X-219890Y-264570D02*
Y-260860D01*
G01D02*
Y-257150D01*
G01X-223600Y-260860D02*
X-219890D01*
G01D02*
X-216180D01*
G01X-125970Y334480D02*
Y338190D01*
G01D02*
Y341900D01*
G01X-129680Y338190D02*
X-125970D01*
G01D02*
X-122260D01*
G01X-115970Y317150D02*
Y320860D01*
G01D02*
Y324570D01*
G01X-119680Y320860D02*
X-115970D01*
G01D02*
X-112260D01*
G01X-60000Y-359570D02*
Y-355860D01*
G01D02*
Y-352150D01*
G01X-63710Y-355860D02*
X-60000D01*
G01D02*
X-56290D01*
G01X-60000Y-339570D02*
Y-335860D01*
G01D02*
Y-332150D01*
G01X-63710Y-335860D02*
X-60000D01*
G01D02*
X-56290D01*
G01X0Y-285710D02*
Y0D01*
G01D02*
Y285710D01*
G01Y0D02*
X285710D01*
G01X60000Y332150D02*
Y335860D01*
G01D02*
Y339570D01*
G01X56290Y335860D02*
X60000D01*
G01D02*
X63710D01*
G01X60000Y352150D02*
Y355860D01*
G01D02*
Y359570D01*
G01X56290Y355860D02*
X60000D01*
G01D02*
X63710D01*
G01X115970Y-324570D02*
Y-320860D01*
G01D02*
Y-317150D01*
G01X112260Y-320860D02*
X115970D01*
G01D02*
X119680D01*
G01X125970Y-341900D02*
Y-338190D01*
G01D02*
Y-334480D01*
G01X122260Y-338190D02*
X125970D01*
G01D02*
X129680D01*
G01X219890Y257150D02*
Y260860D01*
G01D02*
Y264570D01*
G01X216180Y260860D02*
X219890D01*
G01D02*
X223600D01*
G01X229890Y274480D02*
Y278190D01*
G01D02*
Y281900D01*
G01X226180Y278190D02*
X229890D01*
G01D02*
X233600D01*
G01X260860Y-223600D02*
Y-219890D01*
G01D02*
Y-216180D01*
G01X257150Y-219890D02*
X260860D01*
G01D02*
X264570D01*
G01X278500Y-402500D02*
Y-391940D01*
G01X278190Y-233600D02*
Y-229890D01*
G01D02*
Y-226180D01*
G01X274480Y-229890D02*
X278190D01*
G01D02*
X281900D01*
G01X320860Y112260D02*
Y115970D01*
G01D02*
Y119680D01*
G01X317150Y115970D02*
X320860D01*
G01D02*
X324570D01*
G01X355860Y-63710D02*
Y-60000D01*
G01X335860Y-63710D02*
Y-60000D01*
G01X355860D02*
Y-56290D01*
G01X352150Y-60000D02*
X355860D01*
G01D02*
X359570D01*
G01X335860D02*
Y-56290D01*
G01X332150Y-60000D02*
X335860D01*
G01D02*
X339570D01*
G01X338190Y122260D02*
Y125970D01*
G01D02*
Y129680D01*
G01X334480Y125970D02*
X338190D01*
G01D02*
X341900D01*
G01X389290Y-400000D02*
X400000D01*
G01X389290Y400000D02*
X400000D01*
G01Y-410710D02*
Y-400000D01*
G01D02*
Y-389290D01*
G01Y-400000D02*
X410710D01*
G01X400000Y389290D02*
Y400000D01*
G01D02*
Y410710D01*
G01Y400000D02*
X410710D01*
G54D17*
G01X-460000Y-480000D02*
G03I-15000J5000D01*
G01X-465000D02*
G03I-10000J5000D01*
G01X-495000Y-475000D02*
X-455000D01*
G01X-485000Y500000D02*
Y460000D01*
G01X-470000Y475000D02*
G03I-15000J5000D01*
G01X-475000D02*
G03I-10000J5000D01*
G01X-505000Y480000D02*
X-465000D01*
G01X-475000Y-455000D02*
Y-495000D01*
G01X-450000Y-450000D02*
X450000D01*
Y450000D01*
X-450000D01*
Y-450000D01*
G01X-376500Y-400000D02*
G03I-23500J0D01*
G01Y399930D02*
G03I-23500J2D01*
G01X275000Y0D02*
G03I-275000J0D01*
G01X0Y-9000D02*
Y9000D01*
G01Y-9000D02*
Y9000D01*
G01X-9000Y0D02*
X9000D01*
G01X-9000D02*
X9000D01*
G01X423500Y-400000D02*
G03I-23500J0D01*
G01Y399930D02*
G03I-23500J2D01*
G01X480000Y-450000D02*
Y-490000D01*
G01X495000Y-475000D02*
G03I-15000J5000D01*
G01X460000Y-470000D02*
X500000D01*
G01X490000Y-475000D02*
G03I-10000J5000D01*
G01Y455000D02*
G03I-15000J5000D01*
G01X475000Y480000D02*
Y440000D01*
G01X485000Y455000D02*
G03I-10000J5000D01*
G01X455000Y460000D02*
X495000D01*
G54D18*
G01X-237500Y-412500D02*
X-287500D01*
X-297500Y-422500D01*
M02*
