G04 ================== begin FILE IDENTIFICATION RECORD ==================*
G04 Layout Name:  I:/Project-Micheal G4 Project/G4 Arena 6-21-2017/LED_12inArena.brd*
G04 Film Name:    LAYER_2*
G04 File Format:  Gerber RS274X*
G04 File Origin:  Cadence Allegro 17.2-P019*
G04 Origin Date:  Mon Oct 05 13:44:51 2020*
G04 *
G04 Layer:  VIA KEEPOUT/ALL*
G04 Layer:  VIA KEEPOUT/BOTTOM*
G04 Layer:  VIA KEEPOUT/LAYER 2*
G04 Layer:  VIA KEEPOUT/GND2*
G04 Layer:  VIA KEEPOUT/LAYER 1*
G04 Layer:  VIA KEEPOUT/PWR*
G04 Layer:  VIA KEEPOUT/TOP*
G04 Layer:  VIA CLASS/FILMMASKBOTTOM*
G04 Layer:  VIA CLASS/LAYER 2*
G04 Layer:  ROUTE KEEPOUT/ALL*
G04 Layer:  ROUTE KEEPOUT/BOTTOM*
G04 Layer:  ROUTE KEEPOUT/LAYER 2*
G04 Layer:  ROUTE KEEPOUT/GND2*
G04 Layer:  ROUTE KEEPOUT/LAYER 1*
G04 Layer:  ROUTE KEEPOUT/PWR*
G04 Layer:  ROUTE KEEPOUT/TOP*
G04 Layer:  ROUTE KEEPIN/ALL*
G04 Layer:  PIN/FILMMASKBOTTOM*
G04 Layer:  PIN/LAYER 2*
G04 Layer:  PACKAGE KEEPOUT/ALL*
G04 Layer:  PACKAGE KEEPOUT/TOP*
G04 Layer:  PACKAGE KEEPOUT/BOTTOM*
G04 Layer:  PACKAGE KEEPIN/ALL*
G04 Layer:  ETCH/LAYER 2*
G04 Layer:  BOARD GEOMETRY/OUTLINE*
G04 *
G04 Offset:    (0.0 0.0)*
G04 Mirror:    No*
G04 Mode:      Positive*
G04 Rotation:  0*
G04 FullContactRelief:  No*
G04 UndefLineWidth:     0.1*
G04 ================== end FILE IDENTIFICATION RECORD ====================*
%FSLAX25Y25*MOIN*%
%IR0*IPPOS*OFA0.00000B0.00000*MIA0B0*SFA1.00000B1.00000*%
%ADD10C,.2*%
%ADD14R,.1969X.0787*%
%ADD15R,.0787X.1969*%
%ADD12C,.06*%
%ADD11C,.024*%
%ADD13C,5.7*%
%ADD16C,.005*%
%ADD17C,.008*%
%ADD18C,.0001*%
%ADD19C,.2104*%
%ADD23R,.2072X.089*%
%ADD22R,.089X.2072*%
%ADD21C,.0704*%
%ADD20C,.0344*%
G75*
%LPD*%
G75*
G36*
G01X427360Y-443200D02*
X-210410D01*
G02X-210800Y-442740I6J401D01*
G03X-214200I-1700J240D01*
G02X-214590Y-443200I-396J-59D01*
G01X-220410D01*
G02X-220800Y-442740I6J401D01*
G03X-224200I-1700J240D01*
G02X-224590Y-443200I-396J-59D01*
G01X-230410D01*
G02X-230800Y-442740I6J401D01*
G03X-234200I-1700J240D01*
G02X-234590Y-443200I-396J-59D01*
G01X-240410D01*
G02X-240800Y-442740I6J401D01*
G03X-244200I-1700J240D01*
G02X-244590Y-443200I-396J-59D01*
G01X-250410D01*
G02X-250800Y-442740I6J401D01*
G03X-254200I-1700J240D01*
G02X-254590Y-443200I-396J-59D01*
G01X-260410D01*
G02X-260800Y-442740I6J401D01*
G03X-264200I-1700J240D01*
G02X-264590Y-443200I-396J-59D01*
G01X-270410D01*
G02X-270800Y-442740I6J401D01*
G03X-274200I-1700J240D01*
G02X-274590Y-443200I-396J-59D01*
G01X-280410D01*
G02X-280800Y-442740I6J401D01*
G03X-284200I-1700J240D01*
G02X-284590Y-443200I-396J-59D01*
G01X-290410D01*
G02X-290800Y-442740I6J401D01*
G03X-294200I-1700J240D01*
G02X-294590Y-443200I-396J-59D01*
G01X-300410D01*
G02X-300800Y-442740I6J401D01*
G03X-304200I-1700J240D01*
G02X-304590Y-443200I-396J-59D01*
G01X-310410D01*
G02X-310800Y-442740I6J401D01*
G03X-314200I-1700J240D01*
G02X-314590Y-443200I-396J-59D01*
G01X-320410D01*
G02X-320800Y-442740I6J401D01*
G03X-324200I-1700J240D01*
G02X-324590Y-443200I-396J-59D01*
G01X-330410D01*
G02X-330800Y-442740I6J401D01*
G03X-334200I-1700J240D01*
G02X-334590Y-443200I-396J-59D01*
G01X-340410D01*
G02X-340800Y-442740I6J401D01*
G03X-344200I-1700J240D01*
G02X-344590Y-443200I-396J-59D01*
G01X-350410D01*
G02X-350800Y-442740I6J401D01*
G03X-354200I-1700J240D01*
G02X-354590Y-443200I-396J-59D01*
G01X-360410D01*
G02X-360800Y-442740I6J401D01*
G03X-364200I-1700J240D01*
G02X-364590Y-443200I-396J-59D01*
G01X-427360D01*
G02X-427640Y-442510I-1J401D01*
G03X-441070Y-426410I-7371J7502D01*
G02X-441700Y-426080I-230J328D01*
G01Y426080D01*
G02X-441070Y426410I400J2D01*
G03X-428910Y443570I6069J8588D01*
G02X-428670Y444300I232J328D01*
G01X428670D01*
G02X428910Y443570I8J-402D01*
G03X442420Y427540I6085J-8579D01*
G02X443100Y427260I281J-283D01*
G01Y-427260D01*
G02X442420Y-427540I-399J3D01*
G03X427640Y-442510I-7418J-7458D01*
G02X427360Y-443200I-279J-289D01*
G37*
%LPC*%
G75*
G36*
G01X-24790Y-439870D02*
G02X-27640Y-437950I-1463J904D01*
G03X-27960Y-437310I-321J240D01*
G01X-28540D01*
G02X-31600Y-435760I-1464J904D01*
G03X-31970Y-435210I-369J151D01*
G01X-156280D01*
X-163320Y-428170D01*
Y-379070D01*
X-170480Y-371910D01*
X-369780D01*
X-378110Y-363580D01*
Y24680D01*
X-361880Y40910D01*
X-359260D01*
X-359220Y41050D01*
G02Y38950I3360J-1050D01*
G01X-359260Y39090D01*
X-361120D01*
X-365170Y35040D01*
G03X-365040Y34390I282J-282D01*
G02X-367290Y32140I-660J-1590D01*
G03X-367940Y32270I-368J-152D01*
G01X-376290Y23920D01*
Y-362820D01*
X-369020Y-370090D01*
X-170360D01*
G03X-170080Y-369410I-4J399D01*
G01X-170580Y-368910D01*
X-368380D01*
X-375410Y-361880D01*
Y21180D01*
X-370380Y26210D01*
X-357830D01*
G03X-357630Y26960I4J401D01*
G02X-354090I1770J3040D01*
G03X-353890Y26210I196J-349D01*
G01X-349980D01*
X-348010Y28180D01*
Y203280D01*
X-337810Y213480D01*
X-291590D01*
X-291550Y213620D01*
G02Y211520I3360J-1050D01*
G01X-291590Y211660D01*
X-337050D01*
X-346190Y202520D01*
Y120240D01*
G03X-345520Y119940I402J0D01*
G02Y114680I2330J-2630D01*
G03X-346190Y114380I-268J-300D01*
G01Y27420D01*
X-349220Y24390D01*
X-369620D01*
X-373590Y20420D01*
Y17270D01*
G03X-373040Y16900I399J-1D01*
G02Y13700I640J-1600D01*
G03X-373590Y13330I-151J-369D01*
G01Y-361120D01*
X-367620Y-367090D01*
X-169820D01*
X-160190Y-376720D01*
Y-424920D01*
X-159290Y-425820D01*
G03X-158610Y-425540I281J284D01*
G01Y-339380D01*
X-174380Y-323610D01*
X-297420D01*
X-306420Y-332610D01*
X-319390D01*
G03X-319650Y-333310I4J-400D01*
G02X-321350Y-332960I-1150J-1280D01*
G03X-321190Y-332300I-124J379D01*
G01X-329880Y-323610D01*
X-346580D01*
X-353310Y-316880D01*
Y-167120D01*
X-331240Y-145050D01*
X-331310Y-144920D01*
G02X-329820Y-146410I3120J1630D01*
G01X-329950Y-146340D01*
X-351490Y-167880D01*
Y-316120D01*
X-345820Y-321790D01*
X-329120D01*
X-320120Y-330790D01*
X-311110D01*
G03X-310750Y-330220I-1J399D01*
G02X-310110Y-328010I1549J749D01*
G01Y-265520D01*
X-294980Y-250390D01*
X-264480D01*
X-253680Y-239590D01*
X-206240D01*
X-182520Y-263290D01*
X-148530D01*
X-125630Y-286190D01*
X121830D01*
X196230Y-211790D01*
X225720D01*
X270290Y-167220D01*
Y-132770D01*
X276990Y-126070D01*
Y-125770D01*
X278750Y-124010D01*
X279050D01*
X284990Y-118070D01*
Y-86300D01*
X291100Y-80190D01*
X311520D01*
X323990Y-67720D01*
Y-41720D01*
X327690Y-38020D01*
Y-11680D01*
G03X327050Y-11360I-400J-1D01*
G02Y-8640I-1050J1360D01*
G03X327690Y-8320I240J321D01*
G01Y90720D01*
X254690Y163720D01*
Y206520D01*
X249090Y212120D01*
Y242480D01*
X281120Y274510D01*
X290640D01*
G02Y272690I1460J-910D01*
G01X281880D01*
X250910Y241720D01*
Y212880D01*
X256510Y207280D01*
Y164480D01*
X328910Y92080D01*
G03X329590Y92360I281J284D01*
G01Y92820D01*
X296990Y125420D01*
Y134370D01*
X302810Y140190D01*
X302740Y140320D01*
G02X304100Y138900I3121J1628D01*
G01X298810Y133610D01*
Y126180D01*
X331410Y93580D01*
Y-32200D01*
G03X332090Y-32480I399J4D01*
G01X332810Y-31760D01*
X332740Y-31630D01*
G02X334230Y-33120I3120J1630D01*
G01X334100Y-33050D01*
X332710Y-34440D01*
Y-37210D01*
G03X333390Y-37490I399J4D01*
G02X332470Y-40940I2471J-2507D01*
G03X331800Y-40770I-384J-110D01*
G01X330610Y-41960D01*
Y-71380D01*
X314880Y-87110D01*
X297080D01*
X289410Y-94780D01*
Y-119910D01*
X284310Y-125010D01*
Y-128810D01*
X281790Y-131330D01*
X277990D01*
X275510Y-133810D01*
Y-170080D01*
G03X276180Y-170380I402J-1D01*
G02X275880Y-172600I1141J-1284D01*
G01X275820Y-172510D01*
X275510D01*
Y-172680D01*
X236680Y-211510D01*
X232260D01*
X232060Y-211710D01*
G03X232340Y-212390I284J-281D01*
G01X236920D01*
X258720Y-190590D01*
X271920D01*
X273370Y-191420D01*
X273470Y-191320D01*
G02X272420Y-193140I2388J-2590D01*
G01X272460Y-193000D01*
X271440Y-192410D01*
X259480D01*
X237680Y-214210D01*
X231400D01*
X228100Y-217510D01*
X198610D01*
X118310Y-297810D01*
G03X118590Y-298490I284J-281D01*
G01X135870D01*
X140190Y-302810D01*
G02X138900Y-304100I1760J-3050D01*
G01X135110Y-300310D01*
X48210D01*
X46410Y-298510D01*
X-137610D01*
X-158120Y-278000D01*
G03X-158800Y-278230I-283J-283D01*
G02X-160740Y-276290I-1700J240D01*
G03X-160510Y-275610I-53J397D01*
G01X-161810Y-274310D01*
X-188780D01*
X-211480Y-251610D01*
X-247020D01*
X-278320Y-282910D01*
X-290920D01*
X-292450Y-284440D01*
X-294350D01*
X-297840Y-280950D01*
Y-279490D01*
G03X-298380Y-279120I-400J-4D01*
G02X-299870Y-276040I-581J1619D01*
G01Y-263880D01*
X-293380Y-257390D01*
X-267980D01*
X-252880Y-242290D01*
X-207030D01*
X-183430Y-265890D01*
X-153930D01*
X-140550Y-279270D01*
G03X-139880Y-279050I277J286D01*
G02X-137900Y-281030I1700J-280D01*
G03X-138120Y-281700I66J-393D01*
G01X-132330Y-287490D01*
X-127870D01*
G03X-127590Y-286810I-4J399D01*
G01X-149290Y-265110D01*
X-183280D01*
X-207000Y-241410D01*
X-252920D01*
X-263720Y-252210D01*
X-294220D01*
X-308290Y-266280D01*
Y-328010D01*
G02X-307650Y-330220I-909J-1461D01*
G03X-307290Y-330790I361J-171D01*
G01X-307180D01*
X-298180Y-321790D01*
X-271600D01*
G03X-271300Y-321130I-2J399D01*
G02X-268700I1300J1130D01*
G03X-268400Y-321790I302J-261D01*
G01X-209760D01*
G03X-209480Y-321110I-4J399D01*
G01X-213480Y-317110D01*
Y-316100D01*
G03X-214060Y-315740I-401J2D01*
G02Y-312660I-760J1540D01*
G03X-213480Y-312300I179J358D01*
G01Y-291590D01*
X-213620Y-291550D01*
G02X-211520I1050J3360D01*
G01X-211660Y-291590D01*
Y-316350D01*
X-209980Y-318030D01*
G03X-209300Y-317690I284J282D01*
G02X-207840Y-319150I1700J240D01*
G03X-208180Y-319830I-58J-396D01*
G01X-207820Y-320190D01*
X-173120D01*
X-155190Y-338120D01*
Y-396220D01*
X-152220Y-399190D01*
X-30020D01*
X-25340Y-403870D01*
Y-422140D01*
G02X-27160I-910J-1460D01*
G01Y-404630D01*
X-30780Y-401010D01*
X-152980D01*
X-156110Y-397880D01*
G03X-156790Y-398160I-281J-284D01*
G01Y-425720D01*
X-154020Y-428490D01*
X-33620D01*
X-31680Y-426550D01*
X-31700Y-426450D01*
G02X-30290Y-427860I1700J290D01*
G01X-30390Y-427840D01*
X-32240Y-429690D01*
G03X-31960Y-430370I284J-281D01*
G01X-31460D01*
G02X-28970Y-429910I1456J-912D01*
G01X-28830Y-430010D01*
X-27930Y-429110D01*
X-27950Y-429010D01*
G02X-26540Y-430420I1700J290D01*
G01X-26640Y-430400D01*
X-26990Y-430750D01*
Y-431750D01*
G03X-26530Y-432140I399J4D01*
G02X-24790Y-432930I278J-1698D01*
G01X159580D01*
X169290Y-423220D01*
Y-349920D01*
X190020Y-329190D01*
X246720D01*
X249690Y-326220D01*
Y-289720D01*
X254420Y-284990D01*
X364620D01*
X369390Y-280220D01*
Y-38780D01*
X363990Y-33380D01*
Y280920D01*
X357090Y287820D01*
X356990Y287800D01*
G02X358400Y289210I-290J1700D01*
G01X358380Y289110D01*
X365810Y281680D01*
Y-32620D01*
X371210Y-38020D01*
Y-280980D01*
X365380Y-286810D01*
X255180D01*
X251510Y-290480D01*
Y-326980D01*
X247480Y-331010D01*
X190780D01*
X171110Y-350680D01*
Y-423980D01*
X160340Y-434750D01*
X-24790D01*
G02X-24860Y-434850I-1442J935D01*
G03X-24540Y-435490I321J-240D01*
G01X163920D01*
X172290Y-427120D01*
Y-350820D01*
X190120Y-332990D01*
X295880D01*
G03X296240Y-332420I-3J400D01*
G02X296490Y-330580I1560J725D01*
G03Y-330320I-147J130D01*
G02Y-328080I1310J1120D01*
G03Y-327820I-147J130D01*
G02X298920Y-325390I1310J1120D01*
G03X299180I130J147D01*
G02X301420I1120J-1310D01*
G03X301680I130J147D01*
G02X303920I1120J-1310D01*
G03X304180I130J147D01*
G02X306420I1120J-1310D01*
G03X306680I130J147D01*
G02X308920I1120J-1310D01*
G03X309180I130J147D01*
G02X311610Y-327820I1120J-1310D01*
G03Y-328080I147J-130D01*
G02Y-330320I-1310J-1120D01*
G03Y-330580I147J-130D01*
G02X311860Y-332420I-1310J-1115D01*
G03X312220Y-332990I363J-170D01*
G01X358020D01*
X371890Y-319120D01*
Y-26670D01*
X368690Y-23470D01*
Y287020D01*
X360920Y294790D01*
X263980D01*
X258310Y289120D01*
Y260320D01*
X242080Y244090D01*
X160420D01*
X154490Y250020D01*
Y284720D01*
X146420Y292790D01*
X51020D01*
X39090Y304720D01*
Y332460D01*
X38950Y332500D01*
G02X41050I1050J3360D01*
G01X40910Y332460D01*
Y305480D01*
X51780Y294610D01*
X147180D01*
X156310Y285480D01*
Y250780D01*
X161180Y245910D01*
X241320D01*
X256490Y261080D01*
Y289880D01*
X263220Y296610D01*
X361680D01*
X370510Y287780D01*
Y-22710D01*
X373710Y-25910D01*
Y-319880D01*
X358780Y-334810D01*
X190880D01*
X189280Y-336410D01*
G03X189560Y-337090I284J-281D01*
G01X360420D01*
X376790Y-320720D01*
Y-24880D01*
X371890Y-19980D01*
Y287620D01*
X360120Y299390D01*
X225060D01*
X215620Y289950D01*
X215690Y289820D01*
G02X214200Y291310I-3120J-1630D01*
G01X214330Y291240D01*
X224300Y301210D01*
X360880D01*
X373710Y288380D01*
Y-19220D01*
X378610Y-24120D01*
Y-321480D01*
X361180Y-338910D01*
X189280D01*
X176610Y-351580D01*
Y-431580D01*
X168320Y-439870D01*
X-24790D01*
G37*
G36*
G01X-109570Y304540D02*
X-128260D01*
X-131530Y307810D01*
G02X-130240Y309100I-1760J3050D01*
G01X-127500Y306360D01*
X-110330D01*
X-87210Y329480D01*
Y343280D01*
X-80680Y349810D01*
X144480D01*
X170880Y323410D01*
X295680D01*
X304580Y314510D01*
X355240D01*
G02Y312690I1460J-910D01*
G01X303820D01*
X294920Y321590D01*
X203810D01*
G03X203520Y320910I-3J-400D01*
G02X201080I-1220J-1210D01*
G03X200790Y321590I-287J280D01*
G01X170120D01*
X143720Y347990D01*
X-79920D01*
X-85390Y342520D01*
Y328720D01*
X-109570Y304540D01*
G37*
G36*
G01X-326120Y-331120D02*
G02Y-332940I1460J-910D01*
G01X-351350D01*
X-357710Y-326580D01*
Y-90720D01*
X-351980Y-84990D01*
X-328080D01*
X-319810Y-76720D01*
Y-1970D01*
G03X-320360Y-1600I-399J1D01*
G02Y1600I-640J1600D01*
G03X-319810Y1970I151J369D01*
G01Y83000D01*
X-335490Y103830D01*
X-246370Y261070D01*
X-106350Y340240D01*
X-90820Y369240D01*
X-89150Y370910D01*
X31740D01*
G02Y369090I1460J-910D01*
G01X-88390D01*
X-89340Y368140D01*
X-104990Y338920D01*
X-245030Y259730D01*
X-333310Y103970D01*
X-317990Y83600D01*
Y-8600D01*
G03X-317290Y-8860I399J3D01*
G02Y-11140I1290J-1140D01*
G03X-317990Y-11400I-301J-263D01*
G01Y-77480D01*
X-327320Y-86810D01*
X-351220D01*
X-355890Y-91480D01*
Y-325820D01*
X-350590Y-331120D01*
X-326120D01*
G37*
G36*
G01X-287960Y-345050D02*
G02X-289270Y-343670I-1694J-296D01*
G03X-288780Y-343210I96J388D01*
G02X-286710Y-341230I1693J302D01*
G03X-286220Y-340770I96J388D01*
G02X-284150Y-338790I1693J302D01*
G03X-283660Y-338330I96J388D01*
G02X-282350Y-339710I1694J296D01*
G03X-282840Y-340170I-96J-388D01*
G02X-284910Y-342150I-1693J-302D01*
G03X-285400Y-342610I-96J-388D01*
G02X-287470Y-344590I-1693J-302D01*
G03X-287960Y-345050I-96J-388D01*
G37*
G36*
G01X285520Y0D02*
G02I-285520J0D01*
G37*
G36*
G01X254280Y-384910D02*
G03X254020I-130J-147D01*
G02X251590Y-382480I-1120J1310D01*
G03Y-382220I-147J130D01*
G02Y-379980I1310J1120D01*
G03Y-379720I-147J130D01*
G02X254020Y-377290I1310J1120D01*
G03X254280I130J147D01*
G02X256520I1120J-1310D01*
G03X256780I130J147D01*
G02X259020I1120J-1310D01*
G03X259280I130J147D01*
G02X261520I1120J-1310D01*
G03X261780I130J147D01*
G02X264020I1120J-1310D01*
G03X264280I130J147D01*
G02X266710Y-379720I1120J-1310D01*
G03Y-379980I147J-130D01*
G02Y-382220I-1310J-1120D01*
G03Y-382480I147J-130D01*
G02X264280Y-384910I-1310J-1120D01*
G03X264020I-130J-147D01*
G02X261780I-1120J1310D01*
G03X261520I-130J-147D01*
G02X259280I-1120J1310D01*
G03X259020I-130J-147D01*
G02X256780I-1120J1310D01*
G03X256520I-130J-147D01*
G02X254280I-1120J1310D01*
G37*
G36*
G01X291480Y-372010D02*
G03X291220I-130J-147D01*
G02X288790Y-369580I-1120J1310D01*
G03Y-369320I-147J130D01*
G02Y-367080I1310J1120D01*
G03Y-366820I-147J130D01*
G02Y-364580I1310J1120D01*
G03Y-364320I-147J130D01*
G02Y-362080I1310J1120D01*
G03Y-361820I-147J130D01*
G02Y-359580I1310J1120D01*
G03Y-359320I-147J130D01*
G02X291220Y-356890I1310J1120D01*
G03X291480I130J147D01*
G02X293720I1120J-1310D01*
G03X293980I130J147D01*
G02X296410Y-359320I1120J-1310D01*
G03Y-359580I147J-130D01*
G02Y-361820I-1310J-1120D01*
G03Y-362080I147J-130D01*
G02Y-364320I-1310J-1120D01*
G03Y-364580I147J-130D01*
G02Y-366820I-1310J-1120D01*
G03Y-367080I147J-130D01*
G02Y-369320I-1310J-1120D01*
G03Y-369580I147J-130D01*
G02X293980Y-372010I-1310J-1120D01*
G03X293720I-130J-147D01*
G02X291480I-1120J1310D01*
G37*
G36*
G01X236180Y-365910D02*
G03X235920I-130J-147D01*
G02X233490Y-363480I-1120J1310D01*
G03Y-363220I-147J130D01*
G02Y-360980I1310J1120D01*
G03Y-360720I-147J130D01*
G02Y-358480I1310J1120D01*
G03Y-358220I-147J130D01*
G02Y-355980I1310J1120D01*
G03Y-355720I-147J130D01*
G02Y-353480I1310J1120D01*
G03Y-353220I-147J130D01*
G02X235920Y-350790I1310J1120D01*
G03X236180I130J147D01*
G02X238420I1120J-1310D01*
G03X238680I130J147D01*
G02X241110Y-353220I1120J-1310D01*
G03Y-353480I147J-130D01*
G02Y-355720I-1310J-1120D01*
G03Y-355980I147J-130D01*
G02Y-358220I-1310J-1120D01*
G03Y-358480I147J-130D01*
G02Y-360720I-1310J-1120D01*
G03Y-360980I147J-130D01*
G02Y-363220I-1310J-1120D01*
G03Y-363480I147J-130D01*
G02X238680Y-365910I-1310J-1120D01*
G03X238420I-130J-147D01*
G02X236180I-1120J1310D01*
G37*
G36*
G01X299080Y-324110D02*
G03X298820I-130J-147D01*
G02X296390Y-321680I-1120J1310D01*
G03Y-321420I-147J130D01*
G02Y-319180I1310J1120D01*
G03Y-318920I-147J130D01*
G02X298820Y-316490I1310J1120D01*
G03X299080I130J147D01*
G02X301320I1120J-1310D01*
G03X301580I130J147D01*
G02X303820I1120J-1310D01*
G03X304080I130J147D01*
G02X306320I1120J-1310D01*
G03X306580I130J147D01*
G02X308820I1120J-1310D01*
G03X309080I130J147D01*
G02X311510Y-318920I1120J-1310D01*
G03Y-319180I147J-130D01*
G02Y-321420I-1310J-1120D01*
G03Y-321680I147J-130D01*
G02X309080Y-324110I-1310J-1120D01*
G03X308820I-130J-147D01*
G02X306580I-1120J1310D01*
G03X306320I-130J-147D01*
G02X304080I-1120J1310D01*
G03X303820I-130J-147D01*
G02X301580I-1120J1310D01*
G03X301320I-130J-147D01*
G02X299080I-1120J1310D01*
G37*
G36*
G01X393680Y-321310D02*
G03X393420I-130J-147D01*
G02X390990Y-318880I-1120J1310D01*
G03Y-318620I-147J130D01*
G02Y-316380I1310J1120D01*
G03Y-316120I-147J130D01*
G02X393420Y-313690I1310J1120D01*
G03X393680I130J147D01*
G02X395920I1120J-1310D01*
G03X396180I130J147D01*
G02X398420I1120J-1310D01*
G03X398680I130J147D01*
G02X400920I1120J-1310D01*
G03X401180I130J147D01*
G02X403420I1120J-1310D01*
G03X403680I130J147D01*
G02X406110Y-316120I1120J-1310D01*
G03Y-316380I147J-130D01*
G02Y-318620I-1310J-1120D01*
G03Y-318880I147J-130D01*
G02X403680Y-321310I-1310J-1120D01*
G03X403420I-130J-147D01*
G02X401180I-1120J1310D01*
G03X400920I-130J-147D01*
G02X398680I-1120J1310D01*
G03X398420I-130J-147D01*
G02X396180I-1120J1310D01*
G03X395920I-130J-147D01*
G02X393680I-1120J1310D01*
G37*
G36*
G01X299180Y-315210D02*
G03X298920I-130J-147D01*
G02X296490Y-312780I-1120J1310D01*
G03Y-312520I-147J130D01*
G02Y-310280I1310J1120D01*
G03Y-310020I-147J130D01*
G02X296770Y-307520I1309J1119D01*
G03Y-306880I-236J320D01*
G02X296490Y-304380I1029J1381D01*
G03Y-304120I-147J130D01*
G02Y-301880I1310J1120D01*
G03Y-301620I-147J130D01*
G02X298920Y-299190I1310J1120D01*
G03X299180I130J147D01*
G02X301420I1120J-1310D01*
G03X301680I130J147D01*
G02X303920I1120J-1310D01*
G03X304180I130J147D01*
G02X306420I1120J-1310D01*
G03X306680I130J147D01*
G02X308920I1120J-1310D01*
G03X309180I130J147D01*
G02X311610Y-301620I1120J-1310D01*
G03Y-301880I147J-130D01*
G02Y-304120I-1310J-1120D01*
G03Y-304380I147J-130D01*
G02X311330Y-306880I-1309J-1119D01*
G03Y-307520I236J-320D01*
G02X311610Y-310020I-1029J-1381D01*
G03Y-310280I147J-130D01*
G02Y-312520I-1310J-1120D01*
G03Y-312780I147J-130D01*
G02X309180Y-315210I-1310J-1120D01*
G03X308920I-130J-147D01*
G02X306680I-1120J1310D01*
G03X306420I-130J-147D01*
G02X304180I-1120J1310D01*
G03X303920I-130J-147D01*
G02X301680I-1120J1310D01*
G03X301420I-130J-147D01*
G02X299180I-1120J1310D01*
G37*
G36*
G01X218590Y312500D02*
X218690Y312480D01*
X222620Y316410D01*
X290640D01*
G02Y314590I1460J-910D01*
G01X223380D01*
X219980Y311190D01*
X220000Y311090D01*
G02X218590Y312500I-1700J-290D01*
G37*
G54D19*
X400000Y400000D03*
Y-400000D03*
X-400000Y400000D03*
Y-400000D03*
G54D23*
X260000Y-390690D03*
Y-414310D03*
G54D22*
X278500Y-402500D03*
G54D21*
X338190Y125970D03*
X343190Y117310D03*
X355860Y60000D03*
Y70000D03*
X335860Y60000D03*
Y70000D03*
X355860Y30000D03*
Y40000D03*
Y50000D03*
X335860Y30000D03*
Y40000D03*
Y50000D03*
X355860Y0D03*
Y10000D03*
Y20000D03*
X335860Y0D03*
Y10000D03*
Y20000D03*
X355860Y-30000D03*
Y-20000D03*
Y-10000D03*
X335860Y-20000D03*
Y-10000D03*
X355860Y-60000D03*
Y-50000D03*
Y-40000D03*
X335860Y-60000D03*
Y-50000D03*
X355860Y-70000D03*
X335860D03*
X343190Y-117310D03*
X338190Y-125970D03*
X308190Y177930D03*
X313190Y169270D03*
X318190Y160610D03*
X323190Y151950D03*
X315860Y124630D03*
X310860Y133290D03*
X328190Y143290D03*
X333190Y134630D03*
X325860Y107310D03*
X320860Y115970D03*
Y-115970D03*
X325860Y-107310D03*
X328190Y-143290D03*
X333190Y-134630D03*
X305860Y-141950D03*
X310860Y-133290D03*
X315860Y-124630D03*
X308190Y-177930D03*
X313190Y-169270D03*
X318190Y-160610D03*
X323190Y-151950D03*
X278190Y229890D03*
X283190Y221230D03*
X288190Y212570D03*
X280860Y185250D03*
X275860Y193910D03*
X293190Y203910D03*
X298190Y195250D03*
X303190Y186590D03*
X295860Y159270D03*
X290860Y167930D03*
X285860Y176590D03*
X300860Y150610D03*
X285860Y-176590D03*
X290860Y-167930D03*
X295860Y-159270D03*
X300860Y-150610D03*
X293190Y-203910D03*
X298190Y-195250D03*
X303190Y-186590D03*
X280860Y-185250D03*
X278190Y-229890D03*
X283190Y-221230D03*
X288190Y-212570D03*
X265860Y211230D03*
X260860Y219890D03*
X255860Y228550D03*
X273190Y238550D03*
X270860Y202570D03*
Y-202570D03*
X273190Y-238550D03*
X255860Y-228550D03*
X260860Y-219890D03*
X265860Y-211230D03*
X238550Y273190D03*
X229890Y278190D03*
X221230Y283190D03*
X228550Y255860D03*
X219890Y260860D03*
Y-260860D03*
X228550Y-255860D03*
X221230Y-283190D03*
X229890Y-278190D03*
X238550Y-273190D03*
X186590Y303190D03*
X203910Y293190D03*
X195250Y298190D03*
X193910Y275860D03*
X185250Y280860D03*
X211230Y265860D03*
X202570Y270860D03*
X211230Y-265860D03*
X195250Y-298190D03*
X203910Y-293190D03*
X212570Y-288190D03*
X185250Y-280860D03*
X193910Y-275860D03*
X202570Y-270860D03*
X186590Y-303190D03*
X177930Y308190D03*
X169270Y313190D03*
X160610Y318190D03*
X176590Y285860D03*
X167930Y290860D03*
X159270Y295860D03*
Y-295860D03*
X167930Y-290860D03*
X176590Y-285860D03*
X160610Y-318190D03*
X169270Y-313190D03*
X177930Y-308190D03*
X134630Y333190D03*
X125970Y338190D03*
X151950Y323190D03*
X143290Y328190D03*
X141950Y305860D03*
X133290Y310860D03*
X124630Y315860D03*
X150610Y300860D03*
X143290Y-328190D03*
X151950Y-323190D03*
X124630Y-315860D03*
X133290Y-310860D03*
X150610Y-300860D03*
X125970Y-338190D03*
X134630Y-333190D03*
X117310Y343190D03*
X115970Y320860D03*
X107310Y325860D03*
Y-325860D03*
X115970Y-320860D03*
X117310Y-343190D03*
X70000Y335860D03*
Y355860D03*
Y-355860D03*
Y-335860D03*
X60000Y335860D03*
X50000D03*
X60000Y355860D03*
X50000D03*
X40000D03*
Y-355860D03*
X50000D03*
X60000D03*
X40000Y-335860D03*
X50000D03*
X60000D03*
X30000Y335860D03*
X20000D03*
X10000D03*
X30000Y355860D03*
X20000D03*
X10000D03*
Y-355860D03*
X20000D03*
X30000D03*
X10000Y-335860D03*
X20000D03*
X30000D03*
X0Y335860D03*
X-10000D03*
X-20000D03*
X0Y355860D03*
X-10000D03*
X-20000D03*
Y-355860D03*
X-10000D03*
X0D03*
X-20000Y-335860D03*
X-10000D03*
X0D03*
X-30000Y335860D03*
X-40000D03*
X-50000D03*
X-30000Y355860D03*
X-40000D03*
X-50000D03*
Y-355860D03*
X-40000D03*
X-30000D03*
X-50000Y-335860D03*
X-40000D03*
X-30000D03*
X-60000Y335860D03*
X-70000D03*
X-60000Y355860D03*
X-70000D03*
Y-355860D03*
X-60000D03*
X-70000Y-335860D03*
X-60000D03*
X-107310Y325860D03*
Y-325860D03*
X-117310Y343190D03*
X-125970Y338190D03*
X-134630Y333190D03*
X-143290Y328190D03*
X-115970Y320860D03*
X-124630Y315860D03*
X-141950Y305860D03*
Y-305860D03*
X-133290Y-310860D03*
X-124630Y-315860D03*
X-115970Y-320860D03*
X-143290Y-328190D03*
X-117310Y-343190D03*
X-125970Y-338190D03*
X-134630Y-333190D03*
X-151950Y323190D03*
X-160610Y318190D03*
X-169270Y313190D03*
X-150610Y300860D03*
X-159270Y295860D03*
X-167930Y290860D03*
Y-290860D03*
X-159270Y-295860D03*
X-150610Y-300860D03*
X-151950Y-323190D03*
X-160610Y-318190D03*
X-169270Y-313190D03*
X-177930Y308190D03*
X-186590Y303190D03*
X-195250Y298190D03*
X-203910Y293190D03*
X-176590Y285860D03*
X-185250Y280860D03*
X-193910Y275860D03*
X-202570Y270860D03*
Y-270860D03*
X-193910Y-275860D03*
X-185250Y-280860D03*
X-176590Y-285860D03*
X-195250Y-298190D03*
X-203910Y-293190D03*
X-177930Y-308190D03*
X-186590Y-303190D03*
X-212570Y288190D03*
X-221230Y283190D03*
X-229890Y278190D03*
X-211230Y265860D03*
X-219890Y260860D03*
X-228550Y255860D03*
Y-255860D03*
X-219890Y-260860D03*
X-211230Y-265860D03*
X-221230Y-283190D03*
X-229890Y-278190D03*
X-238550Y273190D03*
X-255860Y228550D03*
X-260860Y219890D03*
Y-219890D03*
X-255860Y-228550D03*
X-238550Y-273190D03*
X-265860Y211230D03*
X-273190Y238550D03*
X-278190Y229890D03*
X-283190Y221230D03*
X-270860Y202570D03*
X-275860Y193910D03*
X-280860Y185250D03*
X-293190Y203910D03*
X-285860Y176590D03*
X-290860Y167930D03*
Y-167930D03*
X-285860Y-176590D03*
X-293190Y-203910D03*
X-280860Y-185250D03*
X-275860Y-193910D03*
X-270860Y-202570D03*
X-288190Y-212570D03*
X-283190Y-221230D03*
X-278190Y-229890D03*
X-273190Y-238550D03*
X-265860Y-211230D03*
X-298190Y195250D03*
X-303190Y186590D03*
X-295860Y159270D03*
X-308190Y177930D03*
X-313190Y169270D03*
X-318190Y160610D03*
X-323190Y151950D03*
X-300860Y150610D03*
X-305860Y141950D03*
X-310860Y133290D03*
X-315860Y124630D03*
X-320860Y115970D03*
Y-115970D03*
X-315860Y-124630D03*
X-310860Y-133290D03*
X-305860Y-141950D03*
X-323190Y-151950D03*
X-318190Y-160610D03*
X-313190Y-169270D03*
X-308190Y-177930D03*
X-300860Y-150610D03*
X-295860Y-159270D03*
X-303190Y-186590D03*
X-298190Y-195250D03*
X-328190Y143290D03*
X-333190Y134630D03*
X-338190Y125970D03*
X-325860Y107310D03*
X-335860Y70000D03*
Y60000D03*
X-355860D03*
Y70000D03*
X-335860Y50000D03*
Y40000D03*
Y30000D03*
X-355860Y50000D03*
X-335860Y20000D03*
Y10000D03*
Y0D03*
X-355860D03*
Y10000D03*
Y20000D03*
X-335860Y-10000D03*
Y-20000D03*
Y-30000D03*
X-355860D03*
Y-20000D03*
Y-10000D03*
X-335860Y-40000D03*
Y-50000D03*
Y-60000D03*
X-355860D03*
Y-50000D03*
Y-40000D03*
X-335860Y-70000D03*
X-355860D03*
X-343190Y-117310D03*
X-325860Y-107310D03*
X-338190Y-125970D03*
X-333190Y-134630D03*
G54D20*
X376500Y-15500D03*
X365980Y-39730D03*
X368800Y-32100D03*
X339160Y172600D03*
X334200Y153600D03*
X306000Y30000D03*
X321000Y0D03*
X316000Y10000D03*
X311000Y20000D03*
X320800Y-208170D03*
X309940Y-223180D03*
X287320Y154340D03*
X277990Y160500D03*
X291000Y60000D03*
X296000Y50000D03*
X301000Y40000D03*
X280670Y-115860D03*
X281340Y-104700D03*
X282010Y-93540D03*
X279330Y-138180D03*
X278660Y-149340D03*
X277990Y-160500D03*
X301390Y-211300D03*
X259330Y172820D03*
X268660Y166660D03*
X250000Y178980D03*
X240670Y185140D03*
X231340Y191300D03*
X222010Y197460D03*
X191300Y-231340D03*
X197460Y-222010D03*
X185140Y-240670D03*
X171660Y277320D03*
X160500Y277990D03*
X172820Y-259330D03*
X166660Y-268660D03*
X178980Y-250000D03*
X154340Y-287320D03*
X160500Y-277990D03*
X176290Y-337200D03*
X161000Y-345500D03*
X138180Y279330D03*
X149340Y278660D03*
X127020Y280000D03*
X149990Y-340200D03*
X115860Y280670D03*
X104700Y281340D03*
X93540Y282010D03*
X40000Y-301000D03*
X15900Y377600D03*
X10000Y326000D03*
X20000Y-311000D03*
X10000Y-316000D03*
X30000Y-306000D03*
X-20000Y311000D03*
X-10000Y316000D03*
X0Y321000D03*
X-10000Y-326000D03*
X0Y-321000D03*
X-11400Y-370300D03*
X-40000Y301000D03*
X-30000Y306000D03*
X-50000Y296000D03*
X-33700Y-366600D03*
X-30000Y-421040D03*
X-60000Y291000D03*
X-85660Y-333350D03*
X-74900Y-412600D03*
X-115860Y-280670D03*
X-104700Y-281340D03*
X-93540Y-282010D03*
X-89490Y-329920D03*
X-90080Y-334140D03*
X-95700Y-412500D03*
X-127020Y-280000D03*
X-139240Y-418540D03*
X-142200Y-421100D03*
Y-426220D03*
X-139240Y-423660D03*
X-174130Y335000D03*
X-155100Y336500D03*
X-154340Y287320D03*
X-160500Y277990D03*
X-172820Y259330D03*
X-166660Y268660D03*
X-171660Y-277320D03*
X-176460Y-360300D03*
X-176160Y-379300D03*
X-176060Y-395100D03*
X-171700Y-412500D03*
X-185140Y240670D03*
X-178980Y250000D03*
X-191300Y231340D03*
X-197460Y222010D03*
X-193750Y-351460D03*
X-197500Y-348900D03*
X-193750Y-346340D03*
X-197500Y-343780D03*
X-193750Y-341220D03*
X-197500Y-338660D03*
X-193750Y-336100D03*
X-197500Y-333540D03*
X-196250Y-379400D03*
X-207380Y-417620D03*
X-195060Y-415060D03*
X-203750Y-399400D03*
X-196250D03*
X-183940Y-404900D03*
X-189900Y-412500D03*
X-204650Y-427850D03*
Y-432970D03*
X-195350Y-435530D03*
Y-430410D03*
X-231340Y-191300D03*
X-222010Y-197460D03*
X-237500Y-412500D03*
X-232500Y-427500D03*
X-222500D03*
X-212500D03*
X-259330Y-172820D03*
X-250000Y-178980D03*
X-240670Y-185140D03*
X-254940Y-327560D03*
X-264670Y-330120D03*
Y-335240D03*
X-261380Y-332680D03*
Y-337800D03*
X-267500Y-385690D03*
X-262500D03*
X-257500D03*
X-252500D03*
X-247500D03*
X-242500D03*
Y-377500D03*
Y-362500D03*
X-267500Y-422500D03*
X-262500D03*
X-252500Y-427500D03*
X-242500D03*
X-277320Y171660D03*
X-277990Y160500D03*
X-279330Y138180D03*
X-278660Y149340D03*
X-280000Y127020D03*
X-280670Y115860D03*
X-281340Y104700D03*
X-282010Y93540D03*
X-296000Y-50000D03*
X-291000Y-60000D03*
X-287320Y-154340D03*
X-268660Y-166660D03*
X-277990Y-160500D03*
X-297500Y-385690D03*
X-292500D03*
X-287500D03*
X-282500D03*
X-277500D03*
X-272500D03*
X-297500Y-362500D03*
X-286540Y-364640D03*
X-297500Y-422500D03*
X-292500D03*
X-287500D03*
X-282500D03*
X-277500D03*
X-304300Y216290D03*
X-319060Y205800D03*
X-326000Y10000D03*
X-311000Y-20000D03*
X-306000Y-30000D03*
X-301000Y-40000D03*
X-319940Y-349940D03*
X-302440Y-334940D03*
Y-342560D03*
X-310060Y-347380D03*
X-319940Y-344820D03*
X-324660Y-342260D03*
X-320800Y-339700D03*
X-324660Y-337150D03*
X-327500Y-385690D03*
X-322500D03*
X-317500D03*
X-312500D03*
X-307500D03*
X-302500D03*
X-327500Y-362500D03*
X-317500D03*
X-307500D03*
Y-422500D03*
X-322500Y-427500D03*
X-312500D03*
X-302500D03*
X-340000Y-174950D03*
X-345400Y-168600D03*
X-342500Y-296040D03*
X-338750Y-313960D03*
X-342500Y-311400D03*
X-338750Y-308840D03*
X-332560Y-349940D03*
X-347500Y-362500D03*
X-337500D03*
X-352500Y-427500D03*
X-342500D03*
X-332500D03*
X-386250Y-328540D03*
X-382500Y-331100D03*
Y-336220D03*
Y-341340D03*
Y-346460D03*
X-386250Y-343900D03*
Y-338780D03*
Y-333660D03*
X-362500Y-427500D03*
X-410180Y-295180D03*
Y-300300D03*
X-400450Y-287500D03*
X-392950Y-280000D03*
X-410180Y-305410D03*
X-419880Y-292620D03*
Y-297740D03*
X-422500Y-287500D03*
X-419880Y-302850D03*
X-333140Y-312340D03*
%LPD*%
G75*
G36*
G01X-292380Y-276590D02*
G03X-292580Y-276330I-1457J-914D01*
G01X-291670Y-275430D01*
X-291570Y-275450D01*
G03X-292980Y-274040I290J1700D01*
G01X-292960Y-274140D01*
X-293150Y-274330D01*
X-294290D01*
G02X-294690Y-273900I0J401D01*
G03X-295490Y-272290I-1712J153D01*
G01Y-267880D01*
X-291320Y-263710D01*
X-267020D01*
X-249920Y-246610D01*
X-208880D01*
X-185970Y-269520D01*
G02X-186250Y-270200I-284J-281D01*
G01X-186410D01*
X-209320Y-247290D01*
X-249380D01*
X-278680Y-276590D01*
X-292380D01*
G37*
G36*
G01X-293590Y-282620D02*
X-296020Y-280190D01*
Y-279810D01*
X-294990Y-278780D01*
G03X-292380Y-278410I1150J1280D01*
G01X-277920D01*
X-248620Y-249110D01*
X-210080D01*
X-187170Y-272020D01*
X-181110D01*
X-177880Y-272010D01*
X-161670D01*
X-161530Y-272150D01*
G02X-161670Y-272490I-142J-141D01*
G01X-188020D01*
X-210720Y-249790D01*
X-247780D01*
X-279080Y-281090D01*
X-291680D01*
X-293210Y-282620D01*
X-293590D01*
G37*
G36*
G01X-297410Y-272360D02*
G02X-298050Y-272040I-240J321D01*
G01Y-264640D01*
X-292620Y-259210D01*
X-267220D01*
X-252120Y-244110D01*
X-207790D01*
X-184250Y-267650D01*
G02X-184390Y-267990I-142J-141D01*
G01X-184920D01*
X-208120Y-244790D01*
X-250680D01*
X-267780Y-261890D01*
X-292080D01*
X-297310Y-267120D01*
Y-272290D01*
G03X-297410Y-272360I935J-1442D01*
G37*
G36*
G01X-160820Y-426870D02*
X-155500Y-432190D01*
X-31460D01*
G03X-30420Y-432950I1462J908D01*
G01X-30360Y-432960D01*
X-30180Y-433140D01*
X-30430Y-433390D01*
X-155520D01*
X-161500Y-427410D01*
Y-427150D01*
G02X-160820Y-426870I399J-4D01*
G37*
G36*
G01X-130310Y-292790D02*
X-155050Y-268050D01*
G02X-154910Y-267710I142J141D01*
G01X-154690D01*
X-133090Y-289310D01*
X58320D01*
G02X58640Y-289950I-1J-400D01*
G03X58700Y-292130I1360J-1053D01*
G02X58400Y-292790I-302J-261D01*
G01X-130310D01*
G37*
G36*
G01X48420Y-295320D02*
G02X47770Y-295450I-369J153D01*
G01X47710Y-295390D01*
X-135710D01*
X-160610Y-270490D01*
G02X-160330Y-269810I284J281D01*
G01X-155870D01*
X-149390Y-276280D01*
G02X-149610Y-276960I-283J-284D01*
G03X-147640Y-278930I270J-1700D01*
G02X-146960Y-278710I396J-63D01*
G01X-131070Y-294610D01*
X48130D01*
G02X48480Y-295200I-3J-401D01*
G03X48420Y-295320I1506J-828D01*
G37*
G36*
G01X164680Y-437310D02*
X174110Y-427880D01*
Y-351580D01*
X174450Y-351240D01*
G02X174790Y-351380I141J-142D01*
G01Y-430820D01*
X167560Y-438050D01*
X-24790D01*
G03X-24860Y-437950I-1442J-935D01*
G02X-24540Y-437310I321J240D01*
G01X164680D01*
G37*
G36*
G01X51600Y-296640D02*
G03X51520Y-295200I-1599J633D01*
G02X51870Y-294610I353J189D01*
G01X117970D01*
G02X118250Y-295290I-4J-399D01*
G01X116350Y-297190D01*
X51970D01*
G02X51600Y-296640I-1J399D01*
G37*
G36*
G01X61300Y-292130D02*
G03X61360Y-289950I-1300J1127D01*
G02X61680Y-289310I321J240D01*
G01X121430D01*
G02X121710Y-289990I-4J-399D01*
G01X118910Y-292790D01*
X61600D01*
G02X61300Y-292130I2J399D01*
G37*
G36*
G01X233680Y-206410D02*
X270910Y-169180D01*
G02X271590Y-169460I281J-284D01*
G01Y-170220D01*
X234720Y-207090D01*
X233960D01*
G02X233680Y-206410I4J399D01*
G37*
G36*
G01X232920Y-209010D02*
X233020Y-208910D01*
X235480D01*
X273010Y-171380D01*
G02X273690Y-171660I281J-284D01*
G01Y-171920D01*
X235920Y-209690D01*
X233200D01*
G02X232920Y-209010I4J399D01*
G37*
G36*
G01X328790Y-70620D02*
X314120Y-85290D01*
X296880D01*
G02X296740Y-84950I2J199D01*
G01X296980Y-84710D01*
X313680D01*
X327910Y-70480D01*
Y-42820D01*
X328110Y-42620D01*
G02X328790Y-42900I281J-284D01*
G01Y-70620D01*
G37*
G36*
G01X296220Y-82890D02*
X287490Y-91620D01*
G02X286810Y-91340I-281J284D01*
G01Y-87060D01*
X291860Y-82010D01*
X312280D01*
X325410Y-68880D01*
G02X326090Y-69160I281J-284D01*
G01Y-69720D01*
X312920Y-82890D01*
X296220D01*
G37*
G54D10*
X-435000Y-435000D03*
Y435000D03*
X-400000Y-400000D03*
Y400000D03*
X400000Y-400000D03*
Y400000D03*
X435000Y-435000D03*
Y435000D03*
G54D11*
X-419880Y-302850D03*
X-422500Y-287500D03*
X-419880Y-292620D03*
Y-297740D03*
X-392500Y-317500D03*
X-405000Y-312500D03*
X-410180Y-305410D03*
X-392950Y-280000D03*
X-400450Y-287500D03*
X-397380Y-292620D03*
X-410180Y-295180D03*
Y-300300D03*
X-362500Y-442500D03*
Y-427500D03*
X-382500Y-346460D03*
X-386250Y-343900D03*
X-382500Y-341340D03*
X-386250Y-338780D03*
X-382500Y-336220D03*
X-386250Y-333660D03*
X-382500Y-331100D03*
X-386250Y-328540D03*
X-372400Y15300D03*
X-365700Y32800D03*
X-352500Y-442500D03*
X-342500D03*
X-332500D03*
Y-427500D03*
X-342500D03*
X-352500D03*
X-347500Y-362500D03*
X-337500D03*
X-332560Y-349940D03*
X-333140Y-312340D03*
X-338750Y-308840D03*
X-342500Y-311400D03*
X-338750Y-313960D03*
X-342500Y-296040D03*
X-340000Y-174950D03*
X-345400Y-168600D03*
X-322500Y-442500D03*
X-312500D03*
X-302500D03*
X-312500Y-427500D03*
X-322500D03*
X-307500Y-422500D03*
X-302500Y-427500D03*
Y-385690D03*
X-327500Y-362500D03*
X-317500D03*
X-307500D03*
X-327500Y-385690D03*
X-322500D03*
X-312500D03*
X-307500D03*
X-317500D03*
X-319940Y-349940D03*
X-302440Y-334940D03*
X-327620Y-347380D03*
X-299880Y-332380D03*
X-302440Y-342560D03*
X-310060Y-347380D03*
X-319940Y-344820D03*
X-324660Y-342260D03*
X-320800Y-339700D03*
X-324660Y-337150D03*
X-320800Y-334590D03*
X-324660Y-332030D03*
X-321910Y-326910D03*
X-309200Y-329470D03*
X-298960Y-277500D03*
X-301000Y-40000D03*
X-316000Y-10000D03*
X-311000Y-20000D03*
X-306000Y-30000D03*
X-326000Y10000D03*
X-321000Y0D03*
X-319060Y205800D03*
X-304300Y216290D03*
X-292500Y-442500D03*
X-282500D03*
X-272500D03*
X-277500Y-422500D03*
X-282500D03*
X-287500D03*
X-292500D03*
X-297500D03*
Y-385690D03*
X-292500D03*
X-287500D03*
X-282500D03*
X-277500D03*
X-272500D03*
X-297500Y-362500D03*
X-286540Y-364640D03*
X-277500Y-335000D03*
Y-345000D03*
X-289650Y-345350D03*
X-287090Y-342910D03*
X-284530Y-340470D03*
X-281970Y-338030D03*
X-270000Y-320000D03*
X-296400Y-273750D03*
X-293840Y-277500D03*
X-291280Y-273750D03*
X-287320Y-154340D03*
X-268660Y-166660D03*
X-277990Y-160500D03*
X-296000Y-50000D03*
X-291000Y-60000D03*
X-280670Y115860D03*
X-281340Y104700D03*
X-282010Y93540D03*
X-278660Y149340D03*
X-279330Y138180D03*
X-280000Y127020D03*
X-277320Y171660D03*
X-277990Y160500D03*
X-262500Y-442500D03*
X-252500D03*
X-242500D03*
X-262500Y-422500D03*
X-267500D03*
X-242500Y-427500D03*
X-252500D03*
X-242500Y-377500D03*
Y-385690D03*
X-267500D03*
X-262500D03*
X-257500D03*
X-252500D03*
X-247500D03*
X-242500Y-362500D03*
X-265650Y-353150D03*
X-247950Y-354550D03*
X-261380Y-332680D03*
X-264670Y-335240D03*
X-261380Y-337800D03*
X-242620Y-330120D03*
X-254940Y-327560D03*
X-264670Y-330120D03*
X-240670Y-185140D03*
X-259330Y-172820D03*
X-250000Y-178980D03*
X-212500Y-442500D03*
X-232500D03*
X-222500D03*
Y-427500D03*
X-232500D03*
X-212500D03*
X-237500Y-412500D03*
X-214820Y-314200D03*
X-231340Y-191300D03*
X-222010Y-197460D03*
X-185000Y-440000D03*
X-192500Y-437500D03*
X-204650Y-427850D03*
X-195350Y-430410D03*
X-204650Y-432970D03*
X-195350Y-435530D03*
X-184880Y-417620D03*
X-183940Y-404900D03*
X-196250Y-399400D03*
X-189900Y-412500D03*
X-195060Y-415060D03*
X-203750Y-399400D03*
X-207380Y-417620D03*
X-189240Y-365200D03*
X-188940Y-374400D03*
X-195100Y-365500D03*
Y-385500D03*
X-196250Y-379400D03*
X-193750Y-351460D03*
X-197500Y-348900D03*
X-193750Y-346340D03*
X-197500Y-343780D03*
Y-333540D03*
X-193750Y-336100D03*
X-197500Y-338660D03*
X-193750Y-341220D03*
X-207600Y-317450D03*
X-191300Y231340D03*
X-197460Y222010D03*
X-178980Y250000D03*
X-185140Y240670D03*
X-176060Y-395100D03*
X-171700Y-412500D03*
X-176160Y-379300D03*
X-176460Y-360300D03*
X-171660Y-277320D03*
X-149340Y-278660D03*
X-160500Y-277990D03*
X-166660Y268660D03*
X-172820Y259330D03*
X-154340Y287320D03*
X-160500Y277990D03*
X-174130Y335000D03*
X-155100Y336500D03*
X-139240Y-423660D03*
X-142200Y-421100D03*
Y-426220D03*
X-139240Y-418540D03*
X-138180Y-279330D03*
X-127020Y-280000D03*
X-95000Y-440650D03*
X-95700Y-412500D03*
X-90080Y-334140D03*
X-89490Y-329920D03*
X-115860Y-280670D03*
X-104700Y-281340D03*
X-93540Y-282010D03*
X-74900Y-412600D03*
X-86720Y-417620D03*
X-85660Y-333350D03*
X-60000Y291000D03*
X-30000Y-426160D03*
Y-431280D03*
Y-436400D03*
Y-421040D03*
X-33700Y-366600D03*
X-50000Y296000D03*
X-30000Y306000D03*
X-40000Y301000D03*
X-26250Y-423600D03*
Y-428720D03*
Y-433840D03*
Y-438960D03*
X-11400Y-370300D03*
X-10000Y-326000D03*
X0Y-321000D03*
X-10000Y316000D03*
X-20000Y311000D03*
X0Y321000D03*
X10000Y-316000D03*
X20000Y-311000D03*
X30000Y-306000D03*
X10000Y326000D03*
X15900Y377600D03*
X40000Y-301000D03*
X50000Y-296000D03*
X60000Y-291000D03*
X33200Y370000D03*
X115860Y280670D03*
X104700Y281340D03*
X93540Y282010D03*
X149990Y-340200D03*
X149340Y278660D03*
X138180Y279330D03*
X127020Y280000D03*
X176290Y-337200D03*
X161000Y-345500D03*
X154340Y-287320D03*
X160500Y-277990D03*
X166660Y-268660D03*
X172820Y-259330D03*
X178980Y-250000D03*
X171660Y277320D03*
X160500Y277990D03*
X209700Y-366500D03*
X185140Y-240670D03*
X191300Y-231340D03*
X197460Y-222010D03*
X202300Y319700D03*
X214100Y-379900D03*
X234800Y-362100D03*
Y-364600D03*
X237300Y-362100D03*
Y-364600D03*
X239800Y-362100D03*
Y-364600D03*
X212900Y-352900D03*
X234800Y-352100D03*
Y-354600D03*
Y-357100D03*
Y-359600D03*
X237300Y-352100D03*
Y-354600D03*
Y-357100D03*
Y-359600D03*
X239800Y-352100D03*
Y-354600D03*
Y-357100D03*
Y-359600D03*
X240670Y185140D03*
X231340Y191300D03*
X222010Y197460D03*
X218300Y310800D03*
X252900Y-383600D03*
X255400D03*
X257900D03*
X260400D03*
X262900D03*
X265400D03*
X252900Y-381100D03*
X255400D03*
X257900D03*
X260400D03*
X262900D03*
X265400D03*
X252900Y-378600D03*
X255400D03*
X257900D03*
X260400D03*
X262900D03*
X265400D03*
X260700Y-347900D03*
X254940Y-306900D03*
X259600Y-321300D03*
Y-330800D03*
X259800Y-296600D03*
X268660Y166660D03*
X259330Y172820D03*
X250000Y178980D03*
X297500Y-400000D03*
X295000D03*
X292500D03*
X290000D03*
X287500D03*
X285000D03*
X297500Y-402500D03*
X295000D03*
X292500D03*
X290000D03*
X287500D03*
X285000D03*
X297500Y-405000D03*
X295000D03*
X292500D03*
X290000D03*
X287500D03*
X285000D03*
X290100Y-363200D03*
Y-365700D03*
Y-368200D03*
Y-370700D03*
X292600Y-363200D03*
Y-365700D03*
Y-368200D03*
Y-370700D03*
X295100Y-363200D03*
Y-365700D03*
Y-368200D03*
Y-370700D03*
X297800Y-331700D03*
X300300D03*
X290100Y-360700D03*
X292600D03*
X295100D03*
Y-358200D03*
X292600D03*
X290100D03*
X297800Y-305500D03*
X300300D03*
X297800Y-303000D03*
X300300D03*
X297800Y-313900D03*
X300300D03*
X297800Y-311400D03*
X300300D03*
X297800Y-308900D03*
X300300D03*
X297700Y-322800D03*
X300200D03*
X297700Y-320300D03*
X300200D03*
X297700Y-317800D03*
X300200D03*
X297800Y-329200D03*
X300300D03*
X297800Y-326700D03*
X300300D03*
X297800Y-300500D03*
X300300D03*
X301390Y-211300D03*
X277320Y-171660D03*
X277990Y-160500D03*
X278660Y-149340D03*
X279330Y-138180D03*
X280000Y-127020D03*
X280670Y-115860D03*
X281340Y-104700D03*
X282010Y-93540D03*
X301000Y40000D03*
X296000Y50000D03*
X291000Y60000D03*
X287320Y154340D03*
X277990Y160500D03*
X292100Y273600D03*
Y315500D03*
X302800Y-331700D03*
X305300D03*
X307800D03*
X310300D03*
X302800Y-305500D03*
X305300D03*
X307800D03*
X310300D03*
X302800Y-303000D03*
X305300D03*
X307800D03*
X310300D03*
X302800Y-313900D03*
X305300D03*
X307800D03*
X310300D03*
X302800Y-311400D03*
X305300D03*
X307800D03*
X310300D03*
X302800Y-308900D03*
X305300D03*
X307800D03*
X310300D03*
X302700Y-322800D03*
X305200D03*
X307700D03*
X310200D03*
X302700Y-320300D03*
X305200D03*
X307700D03*
X310200D03*
X302700Y-317800D03*
X305200D03*
X307700D03*
X310200D03*
X302800Y-329200D03*
X305300D03*
X307800D03*
X310300D03*
X302800Y-326700D03*
X305300D03*
X307800D03*
X310300D03*
X302800Y-300500D03*
X305300D03*
X307800D03*
X310300D03*
X309940Y-223180D03*
X320800Y-208170D03*
X326000Y-10000D03*
X316000Y10000D03*
X311000Y20000D03*
X321000Y0D03*
X306000Y30000D03*
X339160Y172600D03*
X334200Y153600D03*
X356700Y289500D03*
Y313600D03*
X368800Y-32100D03*
X365980Y-39730D03*
X376500Y-15500D03*
X392300Y-320000D03*
X394800D03*
X397300D03*
X399800D03*
X402300D03*
X404800D03*
X392300Y-317500D03*
X394800D03*
X397300D03*
X399800D03*
X402300D03*
X404800D03*
X392300Y-315000D03*
X394800D03*
X397300D03*
X399800D03*
X402300D03*
X404800D03*
G54D12*
X-328190Y-143290D03*
X-333190Y-134630D03*
X-338190Y-125970D03*
X-325860Y-107310D03*
X-343190Y-117310D03*
X-335860Y-70000D03*
X-355860D03*
X-335860Y-60000D03*
Y-50000D03*
Y-40000D03*
X-355860Y-60000D03*
Y-50000D03*
Y-40000D03*
X-335860Y-30000D03*
Y-20000D03*
Y-10000D03*
X-355860Y-30000D03*
Y-20000D03*
Y-10000D03*
X-335860Y0D03*
Y10000D03*
Y20000D03*
X-355860Y0D03*
Y10000D03*
Y20000D03*
X-335860Y30000D03*
Y40000D03*
Y50000D03*
X-355860Y30000D03*
Y40000D03*
Y50000D03*
X-335860Y60000D03*
Y70000D03*
X-355860Y60000D03*
Y70000D03*
X-343190Y117310D03*
X-325860Y107310D03*
X-338190Y125970D03*
X-333190Y134630D03*
X-328190Y143290D03*
X-298190Y-195250D03*
X-303190Y-186590D03*
X-295860Y-159270D03*
X-300860Y-150610D03*
X-308190Y-177930D03*
X-313190Y-169270D03*
X-318190Y-160610D03*
X-323190Y-151950D03*
X-305860Y-141950D03*
X-310860Y-133290D03*
X-315860Y-124630D03*
X-320860Y-115970D03*
Y115970D03*
X-315860Y124630D03*
X-310860Y133290D03*
X-305860Y141950D03*
X-300860Y150610D03*
X-323190Y151950D03*
X-318190Y160610D03*
X-313190Y169270D03*
X-308190Y177930D03*
X-295860Y159270D03*
X-303190Y186590D03*
X-298190Y195250D03*
X-265860Y-211230D03*
X-273190Y-238550D03*
X-278190Y-229890D03*
X-283190Y-221230D03*
X-288190Y-212570D03*
X-270860Y-202570D03*
X-275860Y-193910D03*
X-280860Y-185250D03*
X-293190Y-203910D03*
X-285860Y-176590D03*
X-290860Y-167930D03*
Y167930D03*
X-285860Y176590D03*
X-293190Y203910D03*
X-280860Y185250D03*
X-275860Y193910D03*
X-270860Y202570D03*
X-288190Y212570D03*
X-283190Y221230D03*
X-278190Y229890D03*
X-273190Y238550D03*
X-265860Y211230D03*
X-238550Y-273190D03*
X-255860Y-228550D03*
X-260860Y-219890D03*
Y219890D03*
X-255860Y228550D03*
X-238550Y273190D03*
X-212570Y-288190D03*
X-221230Y-283190D03*
X-229890Y-278190D03*
X-211230Y-265860D03*
X-219890Y-260860D03*
X-228550Y-255860D03*
Y255860D03*
X-219890Y260860D03*
X-211230Y265860D03*
X-229890Y278190D03*
X-221230Y283190D03*
X-212570Y288190D03*
X-177930Y-308190D03*
X-186590Y-303190D03*
X-176590Y-285860D03*
X-185250Y-280860D03*
X-193910Y-275860D03*
X-202570Y-270860D03*
X-195250Y-298190D03*
X-203910Y-293190D03*
X-202570Y270860D03*
X-193910Y275860D03*
X-185250Y280860D03*
X-176590Y285860D03*
X-203910Y293190D03*
X-195250Y298190D03*
X-186590Y303190D03*
X-177930Y308190D03*
X-150610Y-300860D03*
X-151950Y-323190D03*
X-160610Y-318190D03*
X-169270Y-313190D03*
X-159270Y-295860D03*
X-167930Y-290860D03*
Y290860D03*
X-159270Y295860D03*
X-150610Y300860D03*
X-169270Y313190D03*
X-160610Y318190D03*
X-151950Y323190D03*
X-117310Y-343190D03*
X-125970Y-338190D03*
X-134630Y-333190D03*
X-115970Y-320860D03*
X-124630Y-315860D03*
X-133290Y-310860D03*
X-141950Y-305860D03*
X-143290Y-328190D03*
X-141950Y305860D03*
X-133290Y310860D03*
X-124630Y315860D03*
X-115970Y320860D03*
X-143290Y328190D03*
X-134630Y333190D03*
X-125970Y338190D03*
X-117310Y343190D03*
X-107310Y-325860D03*
Y325860D03*
X-60000Y-335860D03*
X-70000D03*
X-60000Y-355860D03*
X-70000D03*
Y355860D03*
X-60000D03*
X-70000Y335860D03*
X-60000D03*
X-30000Y-335860D03*
X-40000D03*
X-50000D03*
X-30000Y-355860D03*
X-40000D03*
X-50000D03*
Y355860D03*
X-40000D03*
X-30000D03*
X-50000Y335860D03*
X-40000D03*
X-30000D03*
X0Y-335860D03*
X-10000D03*
X-20000D03*
X0Y-355860D03*
X-10000D03*
X-20000D03*
Y355860D03*
X-10000D03*
X0D03*
X-20000Y335860D03*
X-10000D03*
X0D03*
X30000Y-335860D03*
X20000D03*
X10000D03*
X30000Y-355860D03*
X20000D03*
X10000D03*
Y355860D03*
X20000D03*
X30000D03*
X10000Y335860D03*
X20000D03*
X30000D03*
X60000Y-335860D03*
X50000D03*
X40000D03*
X60000Y-355860D03*
X50000D03*
X40000D03*
Y355860D03*
X50000D03*
X60000D03*
X40000Y335860D03*
X50000D03*
X60000D03*
X70000Y-335860D03*
Y-355860D03*
Y355860D03*
Y335860D03*
X117310Y-343190D03*
X115970Y-320860D03*
X107310Y-325860D03*
Y325860D03*
X115970Y320860D03*
X117310Y343190D03*
X134630Y-333190D03*
X125970Y-338190D03*
X150610Y-300860D03*
X141950Y-305860D03*
X133290Y-310860D03*
X124630Y-315860D03*
X151950Y-323190D03*
X143290Y-328190D03*
X150610Y300860D03*
X124630Y315860D03*
X133290Y310860D03*
X141950Y305860D03*
X143290Y328190D03*
X151950Y323190D03*
X125970Y338190D03*
X134630Y333190D03*
X177930Y-308190D03*
X169270Y-313190D03*
X160610Y-318190D03*
X176590Y-285860D03*
X167930Y-290860D03*
X159270Y-295860D03*
Y295860D03*
X167930Y290860D03*
X176590Y285860D03*
X160610Y318190D03*
X169270Y313190D03*
X177930Y308190D03*
X186590Y-303190D03*
X202570Y-270860D03*
X193910Y-275860D03*
X185250Y-280860D03*
X212570Y-288190D03*
X203910Y-293190D03*
X195250Y-298190D03*
X211230Y-265860D03*
X202570Y270860D03*
X211230Y265860D03*
X185250Y280860D03*
X193910Y275860D03*
X195250Y298190D03*
X203910Y293190D03*
X212570Y288190D03*
X186590Y303190D03*
X238550Y-273190D03*
X229890Y-278190D03*
X221230Y-283190D03*
X228550Y-255860D03*
X219890Y-260860D03*
Y260860D03*
X228550Y255860D03*
X221230Y283190D03*
X229890Y278190D03*
X238550Y273190D03*
X265860Y-211230D03*
X260860Y-219890D03*
X255860Y-228550D03*
X273190Y-238550D03*
X270860Y-202570D03*
Y202570D03*
X255860Y228550D03*
X260860Y219890D03*
X265860Y211230D03*
X273190Y238550D03*
X288190Y-212570D03*
X283190Y-221230D03*
X278190Y-229890D03*
X280860Y-185250D03*
X275860Y-193910D03*
X303190Y-186590D03*
X298190Y-195250D03*
X293190Y-203910D03*
X300860Y-150610D03*
X295860Y-159270D03*
X290860Y-167930D03*
X285860Y-176590D03*
X300860Y150610D03*
X285860Y176590D03*
X290860Y167930D03*
X295860Y159270D03*
X275860Y193910D03*
X280860Y185250D03*
X293190Y203910D03*
X298190Y195250D03*
X303190Y186590D03*
X278190Y229890D03*
X283190Y221230D03*
X288190Y212570D03*
X323190Y-151950D03*
X318190Y-160610D03*
X313190Y-169270D03*
X308190Y-177930D03*
X315860Y-124630D03*
X310860Y-133290D03*
X305860Y-141950D03*
X333190Y-134630D03*
X328190Y-143290D03*
X325860Y-107310D03*
X320860Y-115970D03*
Y115970D03*
X325860Y107310D03*
X305860Y141950D03*
X310860Y133290D03*
X315860Y124630D03*
X328190Y143290D03*
X333190Y134630D03*
X308190Y177930D03*
X313190Y169270D03*
X318190Y160610D03*
X323190Y151950D03*
X338190Y-125970D03*
X343190Y-117310D03*
X335860Y-70000D03*
X355860D03*
X335860Y-40000D03*
Y-50000D03*
Y-60000D03*
X355860Y-40000D03*
Y-50000D03*
Y-60000D03*
X335860Y-10000D03*
Y-20000D03*
Y-30000D03*
X355860Y-10000D03*
Y-20000D03*
Y-30000D03*
X335860Y20000D03*
Y10000D03*
Y0D03*
X355860Y20000D03*
Y10000D03*
Y0D03*
X335860Y50000D03*
Y40000D03*
Y30000D03*
X355860Y50000D03*
Y40000D03*
Y30000D03*
X335860Y70000D03*
Y60000D03*
X355860Y70000D03*
Y60000D03*
X343190Y117310D03*
X338190Y125970D03*
G54D13*
X0Y0D03*
G54D14*
X260000Y-414310D03*
Y-390690D03*
G54D15*
X278500Y-402500D03*
G54D16*
G01X-400000Y-410710D02*
Y-400000D01*
G01D02*
Y-389290D01*
G01X-410710Y-400000D02*
X-400000D01*
G01D02*
X-389290D01*
G01X-400000Y389290D02*
Y400000D01*
G01D02*
Y410710D01*
G01X-410710Y400000D02*
X-400000D01*
G01D02*
X-389290D01*
G01X-338190Y-129680D02*
Y-125970D01*
G01D02*
Y-122260D01*
G01X-341900Y-125970D02*
X-338190D01*
G01D02*
X-334480D01*
G01X-335860Y56290D02*
Y60000D01*
G01X-355860Y56290D02*
Y60000D01*
G01X-335860D02*
Y63710D01*
G01X-339570Y60000D02*
X-335860D01*
G01D02*
X-332150D01*
G01X-355860D02*
Y63710D01*
G01X-359570Y60000D02*
X-355860D01*
G01D02*
X-352150D01*
G01X-320860Y-119680D02*
Y-115970D01*
G01D02*
Y-112260D01*
G01X-324570Y-115970D02*
X-320860D01*
G01D02*
X-317150D01*
G01X-285710Y0D02*
X0D01*
G01X-278190Y226180D02*
Y229890D01*
G01D02*
Y233600D01*
G01X-281900Y229890D02*
X-278190D01*
G01D02*
X-274480D01*
G01X-260860Y216180D02*
Y219890D01*
G01D02*
Y223600D01*
G01X-264570Y219890D02*
X-260860D01*
G01D02*
X-257150D01*
G01X-229890Y-281900D02*
Y-278190D01*
G01D02*
Y-274480D01*
G01X-233600Y-278190D02*
X-229890D01*
G01D02*
X-226180D01*
G01X-219890Y-264570D02*
Y-260860D01*
G01D02*
Y-257150D01*
G01X-223600Y-260860D02*
X-219890D01*
G01D02*
X-216180D01*
G01X-125970Y334480D02*
Y338190D01*
G01D02*
Y341900D01*
G01X-129680Y338190D02*
X-125970D01*
G01D02*
X-122260D01*
G01X-115970Y317150D02*
Y320860D01*
G01D02*
Y324570D01*
G01X-119680Y320860D02*
X-115970D01*
G01D02*
X-112260D01*
G01X-60000Y-359570D02*
Y-355860D01*
G01D02*
Y-352150D01*
G01X-63710Y-355860D02*
X-60000D01*
G01D02*
X-56290D01*
G01X-60000Y-339570D02*
Y-335860D01*
G01D02*
Y-332150D01*
G01X-63710Y-335860D02*
X-60000D01*
G01D02*
X-56290D01*
G01X0Y-285710D02*
Y0D01*
G01D02*
Y285710D01*
G01Y0D02*
X285710D01*
G01X60000Y332150D02*
Y335860D01*
G01D02*
Y339570D01*
G01X56290Y335860D02*
X60000D01*
G01D02*
X63710D01*
G01X60000Y352150D02*
Y355860D01*
G01D02*
Y359570D01*
G01X56290Y355860D02*
X60000D01*
G01D02*
X63710D01*
G01X115970Y-324570D02*
Y-320860D01*
G01D02*
Y-317150D01*
G01X112260Y-320860D02*
X115970D01*
G01D02*
X119680D01*
G01X125970Y-341900D02*
Y-338190D01*
G01D02*
Y-334480D01*
G01X122260Y-338190D02*
X125970D01*
G01D02*
X129680D01*
G01X219890Y257150D02*
Y260860D01*
G01D02*
Y264570D01*
G01X216180Y260860D02*
X219890D01*
G01D02*
X223600D01*
G01X229890Y274480D02*
Y278190D01*
G01D02*
Y281900D01*
G01X226180Y278190D02*
X229890D01*
G01D02*
X233600D01*
G01X260000Y-418960D02*
Y-414310D01*
G01D02*
Y-409660D01*
G01X249440Y-414310D02*
X260000D01*
G01D02*
X270560D01*
G01X260860Y-223600D02*
Y-219890D01*
G01D02*
Y-216180D01*
G01X257150Y-219890D02*
X260860D01*
G01D02*
X264570D01*
G01X278500Y-413060D02*
Y-402500D01*
G01D02*
Y-391940D01*
G01X273850Y-402500D02*
X278500D01*
G01D02*
X283150D01*
G01X278190Y-233600D02*
Y-229890D01*
G01D02*
Y-226180D01*
G01X274480Y-229890D02*
X278190D01*
G01D02*
X281900D01*
G01X320860Y112260D02*
Y115970D01*
G01D02*
Y119680D01*
G01X317150Y115970D02*
X320860D01*
G01D02*
X324570D01*
G01X355860Y-63710D02*
Y-60000D01*
G01X335860Y-63710D02*
Y-60000D01*
G01X355860D02*
Y-56290D01*
G01X352150Y-60000D02*
X355860D01*
G01D02*
X359570D01*
G01X335860D02*
Y-56290D01*
G01X332150Y-60000D02*
X335860D01*
G01D02*
X339570D01*
G01X338190Y122260D02*
Y125970D01*
G01D02*
Y129680D01*
G01X334480Y125970D02*
X338190D01*
G01D02*
X341900D01*
G01X389290Y-400000D02*
X400000D01*
G01X389290Y400000D02*
X400000D01*
G01Y-410710D02*
Y-400000D01*
G01D02*
Y-389290D01*
G01Y-400000D02*
X410710D01*
G01X400000Y389290D02*
Y400000D01*
G01D02*
Y410710D01*
G01Y400000D02*
X410710D01*
G54D17*
G01X-26250Y-428720D02*
X-27900Y-430370D01*
Y-432150D01*
X-30050Y-434300D01*
X-155900D01*
X-162410Y-427790D01*
Y-378690D01*
X-170100Y-371000D01*
X-369400D01*
X-377200Y-363200D01*
Y24300D01*
X-361500Y40000D01*
X-355860D01*
G01X-288190Y212570D02*
X-337430D01*
X-347100Y202900D01*
Y27800D01*
X-349600Y25300D01*
X-370000D01*
X-374500Y20800D01*
Y-361500D01*
X-368000Y-368000D01*
X-170200D01*
X-161100Y-377100D01*
Y-425300D01*
X-155120Y-431280D01*
X-30000D01*
G01Y-426160D02*
X-33240Y-429400D01*
X-154400D01*
X-157700Y-426100D01*
Y-339000D01*
X-174000Y-322700D01*
X-297800D01*
X-306800Y-331700D01*
X-320500D01*
X-329500Y-322700D01*
X-346200D01*
X-352400Y-316500D01*
Y-167500D01*
X-328190Y-143290D01*
G01X33200Y370000D02*
X-88770D01*
X-90080Y368690D01*
X-105670Y339580D01*
X-245700Y260400D01*
X-334400Y103900D01*
X-318900Y83300D01*
Y-77100D01*
X-327700Y-85900D01*
X-351600D01*
X-356800Y-91100D01*
Y-326200D01*
X-350970Y-332030D01*
X-324660D01*
G01X-309200Y-329470D02*
Y-265900D01*
X-294600Y-251300D01*
X-264100D01*
X-253300Y-240500D01*
X-206620D01*
X-182900Y-264200D01*
X-148910D01*
X-126010Y-287100D01*
X122210D01*
X196610Y-212700D01*
X226100D01*
X271200Y-167600D01*
Y-133150D01*
X277900Y-126450D01*
Y-126150D01*
X279130Y-124920D01*
X279430D01*
X285900Y-118450D01*
Y-86680D01*
X291480Y-81100D01*
X311900D01*
X324900Y-68100D01*
Y-42100D01*
X328600Y-38400D01*
Y91100D01*
X255600Y164100D01*
Y206900D01*
X250000Y212500D01*
Y242100D01*
X281500Y273600D01*
X292100D01*
G01X-298960Y-277500D02*
Y-264260D01*
X-293000Y-258300D01*
X-267600D01*
X-252500Y-243200D01*
X-207410D01*
X-183810Y-266800D01*
X-154310D01*
X-132710Y-288400D01*
X122750D01*
X197150Y-214000D01*
X226640D01*
X232640Y-208000D01*
X235100D01*
X272500Y-170600D01*
Y-133690D01*
X277070Y-129120D01*
X280870D01*
X282100Y-127890D01*
Y-124090D01*
X287200Y-118990D01*
Y-93200D01*
X296600Y-83800D01*
X313300D01*
X327000Y-70100D01*
Y-42440D01*
X330500Y-38940D01*
Y93200D01*
X297900Y125800D01*
Y133990D01*
X305860Y141950D01*
G01X335860Y-30000D02*
X331800Y-34060D01*
Y-39480D01*
X329700Y-41580D01*
Y-71000D01*
X314500Y-86200D01*
X296700D01*
X288500Y-94400D01*
Y-119530D01*
X283400Y-124630D01*
Y-128430D01*
X281410Y-130420D01*
X277610D01*
X274600Y-133430D01*
Y-172300D01*
X236300Y-210600D01*
X231880D01*
X227180Y-215300D01*
X197690D01*
X119290Y-293700D01*
X-130690D01*
X-155490Y-268900D01*
X-185300D01*
X-208500Y-245700D01*
X-250300D01*
X-267400Y-262800D01*
X-291700D01*
X-296400Y-267500D01*
Y-273750D01*
G01X275860Y-193910D02*
X271680Y-191500D01*
X259100D01*
X237300Y-213300D01*
X231020D01*
X227720Y-216600D01*
X198230D01*
X116730Y-298100D01*
X49130D01*
X47330Y-296300D01*
X-136090D01*
X-161290Y-271100D01*
X-177880D01*
X-181110Y-271110D01*
X-186790D01*
X-209700Y-248200D01*
X-249000D01*
X-278300Y-277500D01*
X-293840D01*
G01X141950Y-305860D02*
X135490Y-299400D01*
X48590D01*
X46790Y-297600D01*
X-137230D01*
X-161430Y-273400D01*
X-188400D01*
X-211100Y-250700D01*
X-247400D01*
X-278700Y-282000D01*
X-291300D01*
X-292830Y-283530D01*
X-293970D01*
X-296930Y-280570D01*
Y-279430D01*
X-295940Y-278440D01*
Y-276630D01*
X-294550Y-275240D01*
X-292770D01*
X-291280Y-273750D01*
G01X-212570Y-288190D02*
Y-316730D01*
X-208200Y-321100D01*
X-173500D01*
X-156100Y-338500D01*
Y-396600D01*
X-152600Y-400100D01*
X-30400D01*
X-26250Y-404250D01*
Y-423600D01*
G01X356700Y313600D02*
X304200D01*
X295300Y322500D01*
X170500D01*
X144100Y348900D01*
X-80300D01*
X-86300Y342900D01*
Y329100D01*
X-109950Y305450D01*
X-127880D01*
X-133290Y310860D01*
G01X40000Y335860D02*
Y305100D01*
X51400Y293700D01*
X146800D01*
X155400Y285100D01*
Y250400D01*
X160800Y245000D01*
X241700D01*
X257400Y260700D01*
Y289500D01*
X263600Y295700D01*
X361300D01*
X369600Y287400D01*
Y-23090D01*
X372800Y-26290D01*
Y-319500D01*
X358400Y-333900D01*
X190500D01*
X173200Y-351200D01*
Y-427500D01*
X164300Y-436400D01*
X-30000D01*
G01X356700Y289500D02*
X364900Y281300D01*
Y-33000D01*
X370300Y-38400D01*
Y-280600D01*
X365000Y-285900D01*
X254800D01*
X250600Y-290100D01*
Y-326600D01*
X247100Y-330100D01*
X190400D01*
X170200Y-350300D01*
Y-423600D01*
X159960Y-433840D01*
X-26250D01*
G01X212570Y288190D02*
X224680Y300300D01*
X360500D01*
X372800Y288000D01*
Y-19600D01*
X377700Y-24500D01*
Y-321100D01*
X360800Y-338000D01*
X188900D01*
X175700Y-351200D01*
Y-431200D01*
X167940Y-438960D01*
X-26250D01*
G01X292100Y315500D02*
X223000D01*
X218300Y310800D01*
G54D18*
G01X-460000Y-480000D02*
G03I-15000J5000D01*
G01X-465000D02*
G03I-10000J5000D01*
G01X-495000Y-475000D02*
X-455000D01*
G01X-485000Y500000D02*
Y460000D01*
G01X-470000Y475000D02*
G03I-15000J5000D01*
G01X-475000D02*
G03I-10000J5000D01*
G01X-505000Y480000D02*
X-465000D01*
G01X-475000Y-455000D02*
Y-495000D01*
G01X-450000Y-450000D02*
X450000D01*
Y450000D01*
X-450000D01*
Y-450000D01*
G01X-376500Y-400000D02*
G03I-23500J0D01*
G01Y399930D02*
G03I-23500J2D01*
G01X275000Y0D02*
G03I-275000J0D01*
G01X0Y-9000D02*
Y9000D01*
G01Y-9000D02*
Y9000D01*
G01X-9000Y0D02*
X9000D01*
G01X-9000D02*
X9000D01*
G01X423500Y-400000D02*
G03I-23500J0D01*
G01Y399930D02*
G03I-23500J2D01*
G01X480000Y-450000D02*
Y-490000D01*
G01X495000Y-475000D02*
G03I-15000J5000D01*
G01X460000Y-470000D02*
X500000D01*
G01X490000Y-475000D02*
G03I-10000J5000D01*
G01Y455000D02*
G03I-15000J5000D01*
G01X475000Y480000D02*
Y440000D01*
G01X485000Y455000D02*
G03I-10000J5000D01*
G01X455000Y460000D02*
X495000D01*
M02*
