G04 ================== begin FILE IDENTIFICATION RECORD ==================*
G04 Layout Name:  Interconnect.brd*
G04 Film Name:    Assembly*
G04 File Format:  Gerber RS274X*
G04 File Origin:  Cadence Allegro 17.4-S007*
G04 Origin Date:  Wed Aug 19 21:03:55 2020*
G04 *
G04 Layer:  CAVITY/BOTTOM*
G04 Layer:  CAVITY/TOP*
G04 Layer:  PLAN/DENSITY_VERY_HIGH*
G04 Layer:  PLAN/DENSITY_HIGH*
G04 Layer:  PLAN/DENSITY_MEDIUM*
G04 Layer:  PLAN/DENSITY_LOW*
G04 Layer:  PLAN/DENSITY_VERY_LOW*
G04 Layer:  CONSTRAINT REGION/ALL*
G04 Layer:  CONSTRAINT REGION/OUTER_LAYERS*
G04 Layer:  CONSTRAINT REGION/INNER_SIGNAL_LAYERS*
G04 Layer:  CONSTRAINT REGION/INNER_PLANE_LAYERS*
G04 Layer:  CONSTRAINT REGION/BOTTOM*
G04 Layer:  CONSTRAINT REGION/TOP*
G04 Layer:  ANTI ETCH/BOTTOM*
G04 Layer:  ANTI ETCH/TOP*
G04 Layer:  VIA KEEPOUT/ALL*
G04 Layer:  VIA KEEPOUT/BOTTOM*
G04 Layer:  VIA KEEPOUT/TOP*
G04 Layer:  ROUTE KEEPOUT/ALL*
G04 Layer:  ROUTE KEEPOUT/BOTTOM*
G04 Layer:  ROUTE KEEPOUT/TOP*
G04 Layer:  ROUTE KEEPIN/ALL*
G04 Layer:  PACKAGE KEEPOUT/ALL*
G04 Layer:  PACKAGE KEEPOUT/TOP*
G04 Layer:  PACKAGE KEEPOUT/BOTTOM*
G04 Layer:  PACKAGE KEEPIN/ALL*
G04 Layer:  ANALYSIS/LOW_ISOCONTOUR*
G04 Layer:  ANALYSIS/MEDIUM1_ISOCONTOUR*
G04 Layer:  ANALYSIS/MEDIUM2_ISOCONTOUR*
G04 Layer:  ANALYSIS/MEDIUM3_ISOCONTOUR*
G04 Layer:  ANALYSIS/HIGH_ISOCONTOUR*
G04 Layer:  ANALYSIS/PCB_TEMPERATURE*
G04 Layer:  MANUFACTURING/XSECTION_CHART*
G04 Layer:  MANUFACTURING/NCLEGEND-1-4*
G04 Layer:  MANUFACTURING/NCLEGEND-1-2*
G04 Layer:  DRC ERROR CLASS/PACKAGE_TOP*
G04 Layer:  DRC ERROR CLASS/PACKAGE_BOTTOM*
G04 Layer:  DRAWING FORMAT/OUTLINE*
G04 Layer:  DRAWING FORMAT/TITLE_BLOCK*
G04 Layer:  DRAWING FORMAT/TITLE_DATA*
G04 Layer:  DRAWING FORMAT/REVISION_BLOCK*
G04 Layer:  DRAWING FORMAT/REVISION_DATA*
G04 Layer:  BOARD GEOMETRY/OUTLINE*
G04 Layer:  BOARD GEOMETRY/DIMENSION*
G04 *
G04 Offset:    (0.000 0.000)*
G04 Mirror:    No*
G04 Mode:      Positive*
G04 Rotation:  0*
G04 FullContactRelief:  No*
G04 UndefLineWidth:     0.100*
G04 ================== end FILE IDENTIFICATION RECORD ====================*
%FSLAX26Y26*MOMM*%
%IR0*IPPOS*OFA0.00000B0.00000*MIA0B0*SFA1.00000B1.00000*%
%AMMACRO11*
1,1,.1,.508,0.0*
20,1,.1,.508,0.0,-.508,0.0,0.0*
1,1,.1,-.508,0.0*
1,1,.1,0.0,.508*
20,1,.1,0.0,.508,0.0,-.508,0.0*
1,1,.1,0.0,-.508*
%
%ADD11MACRO11*%
%AMMACRO13*
1,1,.1,2.5,0.0*
20,1,.1,2.5,0.0,2.462019,-.43412,0.0*
1,1,.1,2.462019,-.43412*
20,1,.1,2.462019,-.43412,2.349232,-.85505,0.0*
1,1,.1,2.349232,-.85505*
20,1,.1,2.349232,-.85505,2.165064,-1.25,0.0*
1,1,.1,2.165064,-1.25*
20,1,.1,2.165064,-1.25,1.915111,-1.606969,0.0*
1,1,.1,1.915111,-1.606969*
20,1,.1,1.915111,-1.606969,1.606969,-1.915111,0.0*
1,1,.1,1.606969,-1.915111*
20,1,.1,1.606969,-1.915111,1.25,-2.165064,0.0*
1,1,.1,1.25,-2.165064*
20,1,.1,1.25,-2.165064,.85505,-2.349232,0.0*
1,1,.1,.85505,-2.349232*
20,1,.1,.85505,-2.349232,.43412,-2.462019,0.0*
1,1,.1,.43412,-2.462019*
20,1,.1,.43412,-2.462019,0.0,-2.5,0.0*
1,1,.1,0.0,-2.5*
20,1,.1,0.0,-2.5,-.43412,-2.462019,0.0*
1,1,.1,-.43412,-2.462019*
20,1,.1,-.43412,-2.462019,-.85505,-2.349232,0.0*
1,1,.1,-.85505,-2.349232*
20,1,.1,-.85505,-2.349232,-1.25,-2.165064,0.0*
1,1,.1,-1.25,-2.165064*
20,1,.1,-1.25,-2.165064,-1.606969,-1.915111,0.0*
1,1,.1,-1.606969,-1.915111*
20,1,.1,-1.606969,-1.915111,-1.915111,-1.606969,0.0*
1,1,.1,-1.915111,-1.606969*
20,1,.1,-1.915111,-1.606969,-2.165064,-1.25,0.0*
1,1,.1,-2.165064,-1.25*
20,1,.1,-2.165064,-1.25,-2.349232,-.85505,0.0*
1,1,.1,-2.349232,-.85505*
20,1,.1,-2.349232,-.85505,-2.462019,-.43412,0.0*
1,1,.1,-2.462019,-.43412*
20,1,.1,-2.462019,-.43412,-2.5,0.0,0.0*
1,1,.1,-2.5,0.0*
20,1,.1,-2.5,0.0,-2.462019,.43412,0.0*
1,1,.1,-2.462019,.43412*
20,1,.1,-2.462019,.43412,-2.349232,.85505,0.0*
1,1,.1,-2.349232,.85505*
20,1,.1,-2.349232,.85505,-2.165064,1.25,0.0*
1,1,.1,-2.165064,1.25*
20,1,.1,-2.165064,1.25,-1.915111,1.606969,0.0*
1,1,.1,-1.915111,1.606969*
20,1,.1,-1.915111,1.606969,-1.606969,1.915111,0.0*
1,1,.1,-1.606969,1.915111*
20,1,.1,-1.606969,1.915111,-1.25,2.165064,0.0*
1,1,.1,-1.25,2.165064*
20,1,.1,-1.25,2.165064,-.85505,2.349232,0.0*
1,1,.1,-.85505,2.349232*
20,1,.1,-.85505,2.349232,-.43412,2.462019,0.0*
1,1,.1,-.43412,2.462019*
20,1,.1,-.43412,2.462019,0.0,2.5,0.0*
1,1,.1,0.0,2.5*
20,1,.1,0.0,2.5,.43412,2.462019,0.0*
1,1,.1,.43412,2.462019*
20,1,.1,.43412,2.462019,.85505,2.349232,0.0*
1,1,.1,.85505,2.349232*
20,1,.1,.85505,2.349232,1.25,2.165064,0.0*
1,1,.1,1.25,2.165064*
20,1,.1,1.25,2.165064,1.606969,1.915111,0.0*
1,1,.1,1.606969,1.915111*
20,1,.1,1.606969,1.915111,1.915111,1.606969,0.0*
1,1,.1,1.915111,1.606969*
20,1,.1,1.915111,1.606969,2.165064,1.25,0.0*
1,1,.1,2.165064,1.25*
20,1,.1,2.165064,1.25,2.349232,.85505,0.0*
1,1,.1,2.349232,.85505*
20,1,.1,2.349232,.85505,2.462019,.43412,0.0*
1,1,.1,2.462019,.43412*
20,1,.1,2.462019,.43412,2.5,0.0,0.0*
1,1,.1,2.5,0.0*
1,1,.1,0.0,-1.25*
20,1,.1,0.0,-1.25,0.0,1.25,0.0*
1,1,.1,0.0,1.25*
20,1,.1,0.0,1.25,-.5,.75,0.0*
1,1,.1,-.5,.75*
1,1,.1,-.5,-1.25*
20,1,.1,-.5,-1.25,.5,-1.25,0.0*
1,1,.1,.5,-1.25*
%
%ADD13MACRO13*%
%AMMACRO12*
1,1,.1,.635,0.0*
20,1,.1,.635,0.0,.625353,-.110267,0.0*
1,1,.1,.625353,-.110267*
20,1,.1,.625353,-.110267,.596705,-.217183,0.0*
1,1,.1,.596705,-.217183*
20,1,.1,.596705,-.217183,.549926,-.3175,0.0*
1,1,.1,.549926,-.3175*
20,1,.1,.549926,-.3175,.486438,-.40817,0.0*
1,1,.1,.486438,-.40817*
20,1,.1,.486438,-.40817,.40817,-.486438,0.0*
1,1,.1,.40817,-.486438*
20,1,.1,.40817,-.486438,.3175,-.549926,0.0*
1,1,.1,.3175,-.549926*
20,1,.1,.3175,-.549926,.217183,-.596705,0.0*
1,1,.1,.217183,-.596705*
20,1,.1,.217183,-.596705,.110267,-.625353,0.0*
1,1,.1,.110267,-.625353*
20,1,.1,.110267,-.625353,0.0,-.635,0.0*
1,1,.1,0.0,-.635*
20,1,.1,0.0,-.635,-.110267,-.625353,0.0*
1,1,.1,-.110267,-.625353*
20,1,.1,-.110267,-.625353,-.217183,-.596705,0.0*
1,1,.1,-.217183,-.596705*
20,1,.1,-.217183,-.596705,-.3175,-.549926,0.0*
1,1,.1,-.3175,-.549926*
20,1,.1,-.3175,-.549926,-.40817,-.486438,0.0*
1,1,.1,-.40817,-.486438*
20,1,.1,-.40817,-.486438,-.486438,-.40817,0.0*
1,1,.1,-.486438,-.40817*
20,1,.1,-.486438,-.40817,-.549926,-.3175,0.0*
1,1,.1,-.549926,-.3175*
20,1,.1,-.549926,-.3175,-.596705,-.217183,0.0*
1,1,.1,-.596705,-.217183*
20,1,.1,-.596705,-.217183,-.625353,-.110267,0.0*
1,1,.1,-.625353,-.110267*
20,1,.1,-.625353,-.110267,-.635,0.0,0.0*
1,1,.1,-.635,0.0*
20,1,.1,-.635,0.0,-.625353,.110267,0.0*
1,1,.1,-.625353,.110267*
20,1,.1,-.625353,.110267,-.596705,.217183,0.0*
1,1,.1,-.596705,.217183*
20,1,.1,-.596705,.217183,-.549926,.3175,0.0*
1,1,.1,-.549926,.3175*
20,1,.1,-.549926,.3175,-.486438,.40817,0.0*
1,1,.1,-.486438,.40817*
20,1,.1,-.486438,.40817,-.40817,.486438,0.0*
1,1,.1,-.40817,.486438*
20,1,.1,-.40817,.486438,-.3175,.549926,0.0*
1,1,.1,-.3175,.549926*
20,1,.1,-.3175,.549926,-.217183,.596705,0.0*
1,1,.1,-.217183,.596705*
20,1,.1,-.217183,.596705,-.110267,.625353,0.0*
1,1,.1,-.110267,.625353*
20,1,.1,-.110267,.625353,0.0,.635,0.0*
1,1,.1,0.0,.635*
20,1,.1,0.0,.635,.110267,.625353,0.0*
1,1,.1,.110267,.625353*
20,1,.1,.110267,.625353,.217183,.596705,0.0*
1,1,.1,.217183,.596705*
20,1,.1,.217183,.596705,.3175,.549926,0.0*
1,1,.1,.3175,.549926*
20,1,.1,.3175,.549926,.40817,.486438,0.0*
1,1,.1,.40817,.486438*
20,1,.1,.40817,.486438,.486438,.40817,0.0*
1,1,.1,.486438,.40817*
20,1,.1,.486438,.40817,.549926,.3175,0.0*
1,1,.1,.549926,.3175*
20,1,.1,.549926,.3175,.596705,.217183,0.0*
1,1,.1,.596705,.217183*
20,1,.1,.596705,.217183,.625353,.110267,0.0*
1,1,.1,.625353,.110267*
20,1,.1,.625353,.110267,.635,0.0,0.0*
1,1,.1,.635,0.0*
1,1,.1,.3175,0.0*
20,1,.1,.3175,0.0,-.3175,0.0,0.0*
1,1,.1,-.3175,0.0*
1,1,.1,0.0,.3175*
20,1,.1,0.0,.3175,0.0,-.3175,0.0*
1,1,.1,0.0,-.3175*
%
%ADD12MACRO12*%
%AMMACRO10*
1,1,.1,.5,0.0*
20,1,.1,.5,0.0,.492404,-.086824,0.0*
1,1,.1,.492404,-.086824*
20,1,.1,.492404,-.086824,.469846,-.17101,0.0*
1,1,.1,.469846,-.17101*
20,1,.1,.469846,-.17101,.433013,-.25,0.0*
1,1,.1,.433013,-.25*
20,1,.1,.433013,-.25,.383022,-.321394,0.0*
1,1,.1,.383022,-.321394*
20,1,.1,.383022,-.321394,.321394,-.383022,0.0*
1,1,.1,.321394,-.383022*
20,1,.1,.321394,-.383022,.25,-.433013,0.0*
1,1,.1,.25,-.433013*
20,1,.1,.25,-.433013,.17101,-.469846,0.0*
1,1,.1,.17101,-.469846*
20,1,.1,.17101,-.469846,.086824,-.492404,0.0*
1,1,.1,.086824,-.492404*
20,1,.1,.086824,-.492404,0.0,-.5,0.0*
1,1,.1,0.0,-.5*
20,1,.1,0.0,-.5,-.086824,-.492404,0.0*
1,1,.1,-.086824,-.492404*
20,1,.1,-.086824,-.492404,-.17101,-.469846,0.0*
1,1,.1,-.17101,-.469846*
20,1,.1,-.17101,-.469846,-.25,-.433013,0.0*
1,1,.1,-.25,-.433013*
20,1,.1,-.25,-.433013,-.321394,-.383022,0.0*
1,1,.1,-.321394,-.383022*
20,1,.1,-.321394,-.383022,-.383022,-.321394,0.0*
1,1,.1,-.383022,-.321394*
20,1,.1,-.383022,-.321394,-.433013,-.25,0.0*
1,1,.1,-.433013,-.25*
20,1,.1,-.433013,-.25,-.469846,-.17101,0.0*
1,1,.1,-.469846,-.17101*
20,1,.1,-.469846,-.17101,-.492404,-.086824,0.0*
1,1,.1,-.492404,-.086824*
20,1,.1,-.492404,-.086824,-.5,0.0,0.0*
1,1,.1,-.5,0.0*
20,1,.1,-.5,0.0,-.492404,.086824,0.0*
1,1,.1,-.492404,.086824*
20,1,.1,-.492404,.086824,-.469846,.17101,0.0*
1,1,.1,-.469846,.17101*
20,1,.1,-.469846,.17101,-.433013,.25,0.0*
1,1,.1,-.433013,.25*
20,1,.1,-.433013,.25,-.383022,.321394,0.0*
1,1,.1,-.383022,.321394*
20,1,.1,-.383022,.321394,-.321394,.383022,0.0*
1,1,.1,-.321394,.383022*
20,1,.1,-.321394,.383022,-.25,.433013,0.0*
1,1,.1,-.25,.433013*
20,1,.1,-.25,.433013,-.17101,.469846,0.0*
1,1,.1,-.17101,.469846*
20,1,.1,-.17101,.469846,-.086824,.492404,0.0*
1,1,.1,-.086824,.492404*
20,1,.1,-.086824,.492404,0.0,.5,0.0*
1,1,.1,0.0,.5*
20,1,.1,0.0,.5,.086824,.492404,0.0*
1,1,.1,.086824,.492404*
20,1,.1,.086824,.492404,.17101,.469846,0.0*
1,1,.1,.17101,.469846*
20,1,.1,.17101,.469846,.25,.433013,0.0*
1,1,.1,.25,.433013*
20,1,.1,.25,.433013,.321394,.383022,0.0*
1,1,.1,.321394,.383022*
20,1,.1,.321394,.383022,.383022,.321394,0.0*
1,1,.1,.383022,.321394*
20,1,.1,.383022,.321394,.433013,.25,0.0*
1,1,.1,.433013,.25*
20,1,.1,.433013,.25,.469846,.17101,0.0*
1,1,.1,.469846,.17101*
20,1,.1,.469846,.17101,.492404,.086824,0.0*
1,1,.1,.492404,.086824*
20,1,.1,.492404,.086824,.5,0.0,0.0*
1,1,.1,.5,0.0*
1,1,.1,-.175,-.183*
20,1,.1,-.175,-.183,-.108,-.225,0.0*
1,1,.1,-.108,-.225*
20,1,.1,-.108,-.225,-.033,-.25,0.0*
1,1,.1,-.033,-.25*
20,1,.1,-.033,-.25,.033,-.25,0.0*
1,1,.1,.033,-.25*
20,1,.1,.033,-.25,.1,-.225,0.0*
1,1,.1,.1,-.225*
20,1,.1,.1,-.225,.15,-.183,0.0*
1,1,.1,.15,-.183*
20,1,.1,.15,-.183,.175,-.125,0.0*
1,1,.1,.175,-.125*
20,1,.1,.175,-.125,.158,-.067,0.0*
1,1,.1,.158,-.067*
20,1,.1,.158,-.067,.117,-.017,0.0*
1,1,.1,.117,-.017*
20,1,.1,.117,-.017,.042,.017,0.0*
1,1,.1,.042,.017*
20,1,.1,.042,.017,-.058,.033,0.0*
1,1,.1,-.058,.033*
20,1,.1,-.058,.033,-.117,.067,0.0*
1,1,.1,-.117,.067*
20,1,.1,-.117,.067,-.142,.125,0.0*
1,1,.1,-.142,.125*
20,1,.1,-.142,.125,-.125,.183,0.0*
1,1,.1,-.125,.183*
20,1,.1,-.125,.183,-.083,.225,0.0*
1,1,.1,-.083,.225*
20,1,.1,-.083,.225,-.025,.25,0.0*
1,1,.1,-.025,.25*
20,1,.1,-.025,.25,.033,.25,0.0*
1,1,.1,.033,.25*
20,1,.1,.033,.25,.092,.233,0.0*
1,1,.1,.092,.233*
20,1,.1,.092,.233,.142,.192,0.0*
1,1,.1,.142,.192*
%
%ADD10MACRO10*%
%AMMACRO16*
1,1,.1,-.38,1.525*
20,1,.1,-.38,1.525,.38,1.525,0.0*
1,1,.1,.38,1.525*
20,1,.1,.38,1.525,.38,-1.525,0.0*
1,1,.1,.38,-1.525*
20,1,.1,.38,-1.525,-.38,-1.525,0.0*
1,1,.1,-.38,-1.525*
20,1,.1,-.38,-1.525,-.38,1.525,0.0*
1,1,.1,-.38,1.525*
%
%ADD16MACRO16*%
%AMMACRO15*
1,1,.1,-1.525,.38*
20,1,.1,-1.525,.38,1.525,.38,0.0*
1,1,.1,1.525,.38*
20,1,.1,1.525,.38,1.525,-.38,0.0*
1,1,.1,1.525,-.38*
20,1,.1,1.525,-.38,-1.525,-.38,0.0*
1,1,.1,-1.525,-.38*
20,1,.1,-1.525,-.38,-1.525,.38,0.0*
1,1,.1,-1.525,.38*
%
%ADD15MACRO15*%
%AMMACRO17*
1,1,.1,1.525,.38*
20,1,.1,1.525,.38,1.525,-.38,0.0*
1,1,.1,1.525,-.38*
20,1,.1,1.525,-.38,-1.525,-.38,0.0*
1,1,.1,-1.525,-.38*
20,1,.1,-1.525,-.38,-1.525,.38,0.0*
1,1,.1,-1.525,.38*
20,1,.1,-1.525,.38,1.525,.38,0.0*
1,1,.1,1.525,.38*
%
%ADD17MACRO17*%
%AMMACRO14*
1,1,.1,.38,1.525*
20,1,.1,.38,1.525,.38,-1.525,0.0*
1,1,.1,.38,-1.525*
20,1,.1,.38,-1.525,-.38,-1.525,0.0*
1,1,.1,-.38,-1.525*
20,1,.1,-.38,-1.525,-.38,1.525,0.0*
1,1,.1,-.38,1.525*
20,1,.1,-.38,1.525,.38,1.525,0.0*
1,1,.1,.38,1.525*
%
%ADD14MACRO14*%
%ADD18C,.1*%
G75*
%LPD*%
G75*
G36*
G01X159628000Y23282000D02*
Y21182000D01*
X160263000D01*
Y-25648000D01*
X159628000D01*
Y-27748000D01*
X163438000D01*
Y-25648000D01*
X162803000D01*
Y21182000D01*
X163438000D01*
Y23282000D01*
X159628000D01*
G37*
G36*
G01X154548000Y-27748000D02*
Y-25648000D01*
X169788000D01*
Y-27748000D01*
X154548000D01*
G37*
G36*
G01Y-11438000D02*
Y-9338000D01*
X169788000D01*
Y-11438000D01*
X154548000D01*
G37*
G36*
G01Y4872000D02*
Y6972000D01*
X169788000D01*
Y4872000D01*
X154548000D01*
G37*
G36*
G01Y21182000D02*
Y23282000D01*
X169788000D01*
Y21182000D01*
X154548000D01*
G37*
G54D10*
X-15875000Y-39370000D03*
Y-36830000D03*
Y-34290000D03*
Y-31750000D03*
Y-29210000D03*
Y-26670000D03*
Y-24130000D03*
Y-21590000D03*
Y-19050000D03*
Y-16510000D03*
Y-13970000D03*
Y-11430000D03*
Y-8890000D03*
Y-6350000D03*
Y-3810000D03*
Y-1270000D03*
Y1270000D03*
X-13970000Y-38100000D03*
Y-35560000D03*
Y-33020000D03*
X-12065000Y-39370000D03*
X-10160000Y-38100000D03*
X-12065000Y-36830000D03*
X-10160000Y-35560000D03*
X-12065000Y-34290000D03*
X-10160000Y-33020000D03*
X-13970000Y-30480000D03*
Y-27940000D03*
Y-25400000D03*
X-12065000Y-31750000D03*
X-10160000Y-30480000D03*
X-12065000Y-29210000D03*
X-10160000Y-27940000D03*
X-12065000Y-26670000D03*
X-10160000Y-25400000D03*
X-13970000Y-22860000D03*
Y-20320000D03*
Y-17780000D03*
X-12065000Y-24130000D03*
X-10160000Y-22860000D03*
X-12065000Y-21590000D03*
X-10160000Y-20320000D03*
X-12065000Y-19050000D03*
X-10160000Y-17780000D03*
X-13970000Y-15240000D03*
Y-12700000D03*
Y-10160000D03*
X-12065000Y-16510000D03*
X-10160000Y-15240000D03*
X-12065000Y-13970000D03*
X-10160000Y-12700000D03*
X-12065000Y-11430000D03*
X-10160000Y-10160000D03*
X-13970000Y-7620000D03*
Y-5080000D03*
Y-2540000D03*
X-12065000Y-8890000D03*
X-10160000Y-7620000D03*
X-12065000Y-6350000D03*
X-10160000Y-5080000D03*
X-12065000Y-3810000D03*
X-10160000Y-2540000D03*
X-13970000Y0D03*
Y2540000D03*
X-12065000Y-1270000D03*
X-10160000Y0D03*
X-12065000Y1270000D03*
X-10160000Y2540000D03*
X40989000Y-2450000D03*
G54D11*
X-16536000Y23214000D03*
X-8916000D03*
X-11456000D03*
X-13996000D03*
X-1296000D03*
X-3836000D03*
X-6376000D03*
X6324000D03*
X3784000D03*
X1244000D03*
X13944000D03*
X11404000D03*
X8864000D03*
X19024000D03*
X16484000D03*
X40989000Y-9950000D03*
G54D12*
X-1612000Y-13970000D03*
X-2590000Y18080000D03*
X4452000Y-34290000D03*
X5088000Y-35560000D03*
X3816000Y-33020000D03*
X5770000Y-29210000D03*
X5768000Y-27940000D03*
X3180000Y-31800000D03*
X9168000Y-34290000D03*
X8586000Y-35298000D03*
X9806000Y-33020000D03*
X7620000Y-25400000D03*
Y-26670000D03*
X10494000Y-31800000D03*
X7620000Y-21590000D03*
Y-17780000D03*
Y-24130000D03*
Y-22860000D03*
Y-20320000D03*
Y-19050000D03*
Y-16510000D03*
Y-12700000D03*
Y-15240000D03*
Y-11430000D03*
Y-13970000D03*
Y-10160000D03*
Y-7620000D03*
Y-8890000D03*
Y-6350000D03*
Y-5080000D03*
X19040000Y-25400000D03*
X18716000Y-29210000D03*
X18402000Y-26670000D03*
X19998000Y-22860000D03*
X20636000Y-21590000D03*
X19360000Y-24130000D03*
X21274000Y-20320000D03*
X21912000Y-19050000D03*
X22550000Y-17780000D03*
X19510000Y-12700000D03*
X23826000Y-15240000D03*
X24464000Y-13970000D03*
X23188000Y-16510000D03*
X40989000Y5050000D03*
G54D13*
X13565000Y-30750000D03*
Y-3520000D03*
X40989000Y-24950000D03*
G54D14*
X17352000Y13674000D03*
X23352000D03*
G54D15*
X20352000Y18374000D03*
G54D16*
X40989000Y-39950000D03*
G54D17*
Y-32450000D03*
G54D18*
G01X155735000Y-29630000D02*
Y-29130000D01*
X155901000D01*
X155968000Y-29155000D01*
X156018000Y-29188000D01*
X156060000Y-29238000D01*
X156093000Y-29297000D01*
X156101000Y-29380000D01*
X156093000Y-29463000D01*
X156060000Y-29522000D01*
X156018000Y-29572000D01*
X155968000Y-29605000D01*
X155901000Y-29630000D01*
X155735000D01*
G01X156585000D02*
X156251000D01*
Y-29130000D01*
X156585000D01*
G01X156451000Y-29372000D02*
X156251000D01*
G01X156743000Y-29563000D02*
X156810000Y-29605000D01*
X156885000Y-29630000D01*
X156951000D01*
X157018000Y-29605000D01*
X157068000Y-29563000D01*
X157093000Y-29505000D01*
X157076000Y-29447000D01*
X157035000Y-29397000D01*
X156960000Y-29363000D01*
X156860000Y-29347000D01*
X156801000Y-29313000D01*
X156776000Y-29255000D01*
X156793000Y-29197000D01*
X156835000Y-29155000D01*
X156893000Y-29130000D01*
X156951000D01*
X157010000Y-29147000D01*
X157060000Y-29188000D01*
G01X157318000Y-29130000D02*
X157518000D01*
G01X157418000D02*
Y-29630000D01*
G01X157318000D02*
X157518000D01*
G01X157968000Y-29380000D02*
X158135000D01*
Y-29530000D01*
X158085000Y-29580000D01*
X158026000Y-29613000D01*
X157943000Y-29630000D01*
X157860000Y-29613000D01*
X157801000Y-29580000D01*
X157751000Y-29530000D01*
X157718000Y-29472000D01*
X157701000Y-29405000D01*
Y-29347000D01*
X157718000Y-29297000D01*
X157751000Y-29238000D01*
X157801000Y-29188000D01*
X157851000Y-29155000D01*
X157918000Y-29130000D01*
X157976000D01*
X158043000Y-29147000D01*
X158093000Y-29180000D01*
G01X158226000Y-29630000D02*
Y-29130000D01*
X158610000Y-29630000D01*
Y-29130000D01*
G01X159601000Y-29172000D02*
X159551000Y-29147000D01*
X159493000Y-29130000D01*
X159426000D01*
X159351000Y-29155000D01*
X159293000Y-29197000D01*
X159251000Y-29247000D01*
X159218000Y-29330000D01*
X159210000Y-29405000D01*
X159226000Y-29480000D01*
X159251000Y-29530000D01*
X159301000Y-29580000D01*
X159360000Y-29613000D01*
X159418000Y-29630000D01*
X159476000D01*
X159535000Y-29613000D01*
X159585000Y-29588000D01*
X159626000Y-29555000D01*
G01X159751000Y-29630000D02*
Y-29130000D01*
X159960000D01*
X160026000Y-29155000D01*
X160068000Y-29188000D01*
X160085000Y-29255000D01*
X160068000Y-29322000D01*
X160018000Y-29363000D01*
X159960000Y-29388000D01*
X159751000D01*
G01X159960000D02*
X160085000Y-29630000D01*
G01X160418000D02*
X160351000Y-29622000D01*
X160293000Y-29588000D01*
X160243000Y-29538000D01*
X160210000Y-29480000D01*
X160193000Y-29413000D01*
Y-29347000D01*
X160210000Y-29280000D01*
X160243000Y-29222000D01*
X160293000Y-29172000D01*
X160351000Y-29138000D01*
X160418000Y-29130000D01*
X160485000Y-29138000D01*
X160543000Y-29172000D01*
X160593000Y-29222000D01*
X160626000Y-29280000D01*
X160643000Y-29347000D01*
Y-29413000D01*
X160626000Y-29480000D01*
X160593000Y-29538000D01*
X160543000Y-29588000D01*
X160485000Y-29622000D01*
X160418000Y-29630000D01*
G01X160743000Y-29563000D02*
X160810000Y-29605000D01*
X160885000Y-29630000D01*
X160951000D01*
X161018000Y-29605000D01*
X161068000Y-29563000D01*
X161093000Y-29505000D01*
X161076000Y-29447000D01*
X161035000Y-29397000D01*
X160960000Y-29363000D01*
X160860000Y-29347000D01*
X160801000Y-29313000D01*
X160776000Y-29255000D01*
X160793000Y-29197000D01*
X160835000Y-29155000D01*
X160893000Y-29130000D01*
X160951000D01*
X161010000Y-29147000D01*
X161060000Y-29188000D01*
G01X161243000Y-29563000D02*
X161310000Y-29605000D01*
X161385000Y-29630000D01*
X161451000D01*
X161518000Y-29605000D01*
X161568000Y-29563000D01*
X161593000Y-29505000D01*
X161576000Y-29447000D01*
X161535000Y-29397000D01*
X161460000Y-29363000D01*
X161360000Y-29347000D01*
X161301000Y-29313000D01*
X161276000Y-29255000D01*
X161293000Y-29197000D01*
X161335000Y-29155000D01*
X161393000Y-29130000D01*
X161451000D01*
X161510000Y-29147000D01*
X161560000Y-29188000D01*
G01X162243000Y-29563000D02*
X162310000Y-29605000D01*
X162385000Y-29630000D01*
X162451000D01*
X162518000Y-29605000D01*
X162568000Y-29563000D01*
X162593000Y-29505000D01*
X162576000Y-29447000D01*
X162535000Y-29397000D01*
X162460000Y-29363000D01*
X162360000Y-29347000D01*
X162301000Y-29313000D01*
X162276000Y-29255000D01*
X162293000Y-29197000D01*
X162335000Y-29155000D01*
X162393000Y-29130000D01*
X162451000D01*
X162510000Y-29147000D01*
X162560000Y-29188000D01*
G01X163085000Y-29630000D02*
X162751000D01*
Y-29130000D01*
X163085000D01*
G01X162951000Y-29372000D02*
X162751000D01*
G01X163601000Y-29172000D02*
X163551000Y-29147000D01*
X163493000Y-29130000D01*
X163426000D01*
X163351000Y-29155000D01*
X163293000Y-29197000D01*
X163251000Y-29247000D01*
X163218000Y-29330000D01*
X163210000Y-29405000D01*
X163226000Y-29480000D01*
X163251000Y-29530000D01*
X163301000Y-29580000D01*
X163360000Y-29613000D01*
X163418000Y-29630000D01*
X163476000D01*
X163535000Y-29613000D01*
X163585000Y-29588000D01*
X163626000Y-29555000D01*
G01X163918000Y-29130000D02*
Y-29630000D01*
G01X163726000Y-29130000D02*
X164110000D01*
G01X164318000D02*
X164518000D01*
G01X164418000D02*
Y-29630000D01*
G01X164318000D02*
X164518000D01*
G01X164918000D02*
X164851000Y-29622000D01*
X164793000Y-29588000D01*
X164743000Y-29538000D01*
X164710000Y-29480000D01*
X164693000Y-29413000D01*
Y-29347000D01*
X164710000Y-29280000D01*
X164743000Y-29222000D01*
X164793000Y-29172000D01*
X164851000Y-29138000D01*
X164918000Y-29130000D01*
X164985000Y-29138000D01*
X165043000Y-29172000D01*
X165093000Y-29222000D01*
X165126000Y-29280000D01*
X165143000Y-29347000D01*
Y-29413000D01*
X165126000Y-29480000D01*
X165093000Y-29538000D01*
X165043000Y-29588000D01*
X164985000Y-29622000D01*
X164918000Y-29630000D01*
G01X165226000D02*
Y-29130000D01*
X165610000Y-29630000D01*
Y-29130000D01*
G01X166601000Y-29172000D02*
X166551000Y-29147000D01*
X166493000Y-29130000D01*
X166426000D01*
X166351000Y-29155000D01*
X166293000Y-29197000D01*
X166251000Y-29247000D01*
X166218000Y-29330000D01*
X166210000Y-29405000D01*
X166226000Y-29480000D01*
X166251000Y-29530000D01*
X166301000Y-29580000D01*
X166360000Y-29613000D01*
X166418000Y-29630000D01*
X166476000D01*
X166535000Y-29613000D01*
X166585000Y-29588000D01*
X166626000Y-29555000D01*
G01X166743000Y-29630000D02*
Y-29130000D01*
G01X167093000D02*
Y-29630000D01*
G01Y-29380000D02*
X166743000D01*
G01X167210000Y-29630000D02*
X167418000Y-29130000D01*
X167626000Y-29630000D01*
G01X167551000Y-29455000D02*
X167285000D01*
G01X167751000Y-29630000D02*
Y-29130000D01*
X167960000D01*
X168026000Y-29155000D01*
X168068000Y-29188000D01*
X168085000Y-29255000D01*
X168068000Y-29322000D01*
X168018000Y-29363000D01*
X167960000Y-29388000D01*
X167751000D01*
G01X167960000D02*
X168085000Y-29630000D01*
G01X168418000Y-29130000D02*
Y-29630000D01*
G01X168226000Y-29130000D02*
X168610000D01*
G01X155418000Y-29797000D02*
X155918000D01*
G01D02*
X156418000D01*
G01D02*
X156918000D01*
G01D02*
X157418000D01*
G01D02*
X157918000D01*
G01D02*
X158418000D01*
G01D02*
X158918000D01*
G01D02*
X159418000D01*
G01D02*
X159918000D01*
G01D02*
X160418000D01*
G01D02*
X160918000D01*
G01D02*
X161418000D01*
G01D02*
X161918000D01*
G01D02*
X162418000D01*
G01D02*
X162918000D01*
G01D02*
X163418000D01*
G01D02*
X163918000D01*
G01D02*
X164418000D01*
G01D02*
X164918000D01*
G01D02*
X165418000D01*
G01D02*
X165918000D01*
G01D02*
X166418000D01*
G01D02*
X166918000D01*
G01D02*
X167418000D01*
G01D02*
X167918000D01*
G01D02*
X168418000D01*
G01D02*
X168918000D01*
G01X156418000Y-30130000D02*
Y-30630000D01*
G01X156226000Y-30130000D02*
X156610000D01*
G01X156918000Y-30630000D02*
X156851000Y-30622000D01*
X156793000Y-30588000D01*
X156743000Y-30538000D01*
X156710000Y-30480000D01*
X156693000Y-30413000D01*
Y-30347000D01*
X156710000Y-30280000D01*
X156743000Y-30222000D01*
X156793000Y-30172000D01*
X156851000Y-30138000D01*
X156918000Y-30130000D01*
X156985000Y-30138000D01*
X157043000Y-30172000D01*
X157093000Y-30222000D01*
X157126000Y-30280000D01*
X157143000Y-30347000D01*
Y-30413000D01*
X157126000Y-30480000D01*
X157093000Y-30538000D01*
X157043000Y-30588000D01*
X156985000Y-30622000D01*
X156918000Y-30630000D01*
G01X157418000Y-30130000D02*
Y-30630000D01*
G01X157226000Y-30130000D02*
X157610000D01*
G01X157710000Y-30630000D02*
X157918000Y-30130000D01*
X158126000Y-30630000D01*
G01X158051000Y-30455000D02*
X157785000D01*
G01X158251000Y-30130000D02*
Y-30630000D01*
X158585000D01*
G01X159418000Y-30130000D02*
Y-30630000D01*
G01X159226000Y-30130000D02*
X159610000D01*
G01X159743000Y-30630000D02*
Y-30130000D01*
G01X160093000D02*
Y-30630000D01*
G01Y-30380000D02*
X159743000D01*
G01X160318000Y-30130000D02*
X160518000D01*
G01X160418000D02*
Y-30630000D01*
G01X160318000D02*
X160518000D01*
G01X161101000Y-30172000D02*
X161051000Y-30147000D01*
X160993000Y-30130000D01*
X160926000D01*
X160851000Y-30155000D01*
X160793000Y-30197000D01*
X160751000Y-30247000D01*
X160718000Y-30330000D01*
X160710000Y-30405000D01*
X160726000Y-30480000D01*
X160751000Y-30530000D01*
X160801000Y-30580000D01*
X160860000Y-30613000D01*
X160918000Y-30630000D01*
X160976000D01*
X161035000Y-30613000D01*
X161085000Y-30588000D01*
X161126000Y-30555000D01*
G01X161235000Y-30630000D02*
Y-30130000D01*
G01X161551000D02*
X161235000Y-30438000D01*
G01X161601000Y-30630000D02*
X161376000Y-30297000D01*
G01X161726000Y-30630000D02*
Y-30130000D01*
X162110000Y-30630000D01*
Y-30130000D01*
G01X162585000Y-30630000D02*
X162251000D01*
Y-30130000D01*
X162585000D01*
G01X162451000Y-30372000D02*
X162251000D01*
G01X162743000Y-30563000D02*
X162810000Y-30605000D01*
X162885000Y-30630000D01*
X162951000D01*
X163018000Y-30605000D01*
X163068000Y-30563000D01*
X163093000Y-30505000D01*
X163076000Y-30447000D01*
X163035000Y-30397000D01*
X162960000Y-30363000D01*
X162860000Y-30347000D01*
X162801000Y-30313000D01*
X162776000Y-30255000D01*
X162793000Y-30197000D01*
X162835000Y-30155000D01*
X162893000Y-30130000D01*
X162951000D01*
X163010000Y-30147000D01*
X163060000Y-30188000D01*
G01X163243000Y-30563000D02*
X163310000Y-30605000D01*
X163385000Y-30630000D01*
X163451000D01*
X163518000Y-30605000D01*
X163568000Y-30563000D01*
X163593000Y-30505000D01*
X163576000Y-30447000D01*
X163535000Y-30397000D01*
X163460000Y-30363000D01*
X163360000Y-30347000D01*
X163301000Y-30313000D01*
X163276000Y-30255000D01*
X163293000Y-30197000D01*
X163335000Y-30155000D01*
X163393000Y-30130000D01*
X163451000D01*
X163510000Y-30147000D01*
X163560000Y-30188000D01*
G01X164418000Y-30130000D02*
X164351000Y-30147000D01*
X164301000Y-30188000D01*
X164268000Y-30238000D01*
X164243000Y-30305000D01*
X164235000Y-30380000D01*
X164243000Y-30455000D01*
X164268000Y-30522000D01*
X164301000Y-30572000D01*
X164351000Y-30613000D01*
X164418000Y-30630000D01*
X164485000Y-30613000D01*
X164535000Y-30572000D01*
X164568000Y-30522000D01*
X164593000Y-30455000D01*
X164601000Y-30380000D01*
X164593000Y-30305000D01*
X164568000Y-30238000D01*
X164535000Y-30188000D01*
X164485000Y-30147000D01*
X164418000Y-30130000D01*
G01X164918000Y-30647000D02*
X164901000Y-30638000D01*
Y-30622000D01*
X164918000Y-30613000D01*
X164935000Y-30622000D01*
Y-30638000D01*
X164918000Y-30647000D01*
G01X165401000Y-30630000D02*
X165418000Y-30522000D01*
X165443000Y-30430000D01*
X165476000Y-30347000D01*
X165518000Y-30255000D01*
X165585000Y-30130000D01*
X165251000D01*
G01X165760000Y-30213000D02*
X165810000Y-30163000D01*
X165868000Y-30138000D01*
X165935000Y-30130000D01*
X166018000Y-30147000D01*
X166076000Y-30188000D01*
X166093000Y-30238000D01*
X166085000Y-30288000D01*
X166051000Y-30330000D01*
X165885000Y-30413000D01*
X165810000Y-30472000D01*
X165760000Y-30555000D01*
X165743000Y-30630000D01*
X166093000D01*
G01X166276000Y-30572000D02*
X166335000Y-30613000D01*
X166401000Y-30630000D01*
X166468000Y-30613000D01*
X166526000Y-30563000D01*
X166568000Y-30488000D01*
X166585000Y-30413000D01*
Y-30322000D01*
X166568000Y-30247000D01*
X166526000Y-30180000D01*
X166476000Y-30147000D01*
X166418000Y-30130000D01*
X166351000Y-30147000D01*
X166301000Y-30180000D01*
X166268000Y-30230000D01*
X166251000Y-30297000D01*
X166268000Y-30355000D01*
X166310000Y-30413000D01*
X166360000Y-30447000D01*
X166418000Y-30455000D01*
X166485000Y-30438000D01*
X166535000Y-30397000D01*
X166585000Y-30322000D01*
G01X167201000Y-30630000D02*
Y-30130000D01*
X167418000Y-30547000D01*
X167635000Y-30130000D01*
Y-30630000D01*
G01X167701000D02*
Y-30130000D01*
X167918000Y-30547000D01*
X168135000Y-30130000D01*
Y-30630000D01*
G01X161533000Y24032000D02*
X161033000D01*
X161133000Y23932000D01*
G01X161533000D02*
Y24132000D01*
G01X161366000Y24424000D02*
Y24640000D01*
G01X161533000Y25132000D02*
X161033000D01*
X161391000Y24824000D01*
Y25240000D01*
G01X170371000Y-26198000D02*
Y-26698000D01*
X170705000D01*
G01X171138000D02*
Y-26198000D01*
X170830000Y-26556000D01*
X171246000D01*
G01X171538000Y-26715000D02*
X171521000Y-26706000D01*
Y-26690000D01*
X171538000Y-26681000D01*
X171555000Y-26690000D01*
Y-26706000D01*
X171538000Y-26715000D01*
G01Y-26490000D02*
X171521000Y-26481000D01*
Y-26465000D01*
X171538000Y-26456000D01*
X171555000Y-26465000D01*
Y-26481000D01*
X171538000Y-26490000D01*
G01X172605000Y-26431000D02*
X172638000Y-26406000D01*
X172663000Y-26365000D01*
X172680000Y-26306000D01*
X172663000Y-26256000D01*
X172630000Y-26223000D01*
X172571000Y-26198000D01*
X172346000D01*
Y-26698000D01*
X172621000D01*
X172680000Y-26665000D01*
X172713000Y-26615000D01*
X172730000Y-26556000D01*
X172713000Y-26498000D01*
X172663000Y-26448000D01*
X172605000Y-26431000D01*
X172346000D01*
G01X173038000Y-26698000D02*
X172971000Y-26690000D01*
X172913000Y-26656000D01*
X172863000Y-26606000D01*
X172830000Y-26548000D01*
X172813000Y-26481000D01*
Y-26415000D01*
X172830000Y-26348000D01*
X172863000Y-26290000D01*
X172913000Y-26240000D01*
X172971000Y-26206000D01*
X173038000Y-26198000D01*
X173105000Y-26206000D01*
X173163000Y-26240000D01*
X173213000Y-26290000D01*
X173246000Y-26348000D01*
X173263000Y-26415000D01*
Y-26481000D01*
X173246000Y-26548000D01*
X173213000Y-26606000D01*
X173163000Y-26656000D01*
X173105000Y-26690000D01*
X173038000Y-26698000D01*
G01X173538000Y-26198000D02*
Y-26698000D01*
G01X173346000Y-26198000D02*
X173730000D01*
G01X174038000D02*
Y-26698000D01*
G01X173846000Y-26198000D02*
X174230000D01*
G01X174538000Y-26698000D02*
X174471000Y-26690000D01*
X174413000Y-26656000D01*
X174363000Y-26606000D01*
X174330000Y-26548000D01*
X174313000Y-26481000D01*
Y-26415000D01*
X174330000Y-26348000D01*
X174363000Y-26290000D01*
X174413000Y-26240000D01*
X174471000Y-26206000D01*
X174538000Y-26198000D01*
X174605000Y-26206000D01*
X174663000Y-26240000D01*
X174713000Y-26290000D01*
X174746000Y-26348000D01*
X174763000Y-26415000D01*
Y-26481000D01*
X174746000Y-26548000D01*
X174713000Y-26606000D01*
X174663000Y-26656000D01*
X174605000Y-26690000D01*
X174538000Y-26698000D01*
G01X174821000D02*
Y-26198000D01*
X175038000Y-26615000D01*
X175255000Y-26198000D01*
Y-26698000D01*
G01X176221000Y-26240000D02*
X176171000Y-26215000D01*
X176113000Y-26198000D01*
X176046000D01*
X175971000Y-26223000D01*
X175913000Y-26265000D01*
X175871000Y-26315000D01*
X175838000Y-26398000D01*
X175830000Y-26473000D01*
X175846000Y-26548000D01*
X175871000Y-26598000D01*
X175921000Y-26648000D01*
X175980000Y-26681000D01*
X176038000Y-26698000D01*
X176096000D01*
X176155000Y-26681000D01*
X176205000Y-26656000D01*
X176246000Y-26623000D01*
G01X176538000Y-26698000D02*
X176471000Y-26690000D01*
X176413000Y-26656000D01*
X176363000Y-26606000D01*
X176330000Y-26548000D01*
X176313000Y-26481000D01*
Y-26415000D01*
X176330000Y-26348000D01*
X176363000Y-26290000D01*
X176413000Y-26240000D01*
X176471000Y-26206000D01*
X176538000Y-26198000D01*
X176605000Y-26206000D01*
X176663000Y-26240000D01*
X176713000Y-26290000D01*
X176746000Y-26348000D01*
X176763000Y-26415000D01*
Y-26481000D01*
X176746000Y-26548000D01*
X176713000Y-26606000D01*
X176663000Y-26656000D01*
X176605000Y-26690000D01*
X176538000Y-26698000D01*
G01X176846000D02*
Y-26198000D01*
X177230000Y-26698000D01*
Y-26198000D01*
G01X177355000Y-26698000D02*
Y-26198000D01*
X177521000D01*
X177588000Y-26223000D01*
X177638000Y-26256000D01*
X177680000Y-26306000D01*
X177713000Y-26365000D01*
X177721000Y-26448000D01*
X177713000Y-26531000D01*
X177680000Y-26590000D01*
X177638000Y-26640000D01*
X177588000Y-26673000D01*
X177521000Y-26698000D01*
X177355000D01*
G01X177855000Y-26198000D02*
Y-26556000D01*
X177888000Y-26631000D01*
X177955000Y-26681000D01*
X178038000Y-26698000D01*
X178121000Y-26681000D01*
X178188000Y-26631000D01*
X178221000Y-26556000D01*
Y-26198000D01*
G01X178721000Y-26240000D02*
X178671000Y-26215000D01*
X178613000Y-26198000D01*
X178546000D01*
X178471000Y-26223000D01*
X178413000Y-26265000D01*
X178371000Y-26315000D01*
X178338000Y-26398000D01*
X178330000Y-26473000D01*
X178346000Y-26548000D01*
X178371000Y-26598000D01*
X178421000Y-26648000D01*
X178480000Y-26681000D01*
X178538000Y-26698000D01*
X178596000D01*
X178655000Y-26681000D01*
X178705000Y-26656000D01*
X178746000Y-26623000D01*
G01X179038000Y-26198000D02*
Y-26698000D01*
G01X178846000Y-26198000D02*
X179230000D01*
G01X179538000Y-26698000D02*
X179471000Y-26690000D01*
X179413000Y-26656000D01*
X179363000Y-26606000D01*
X179330000Y-26548000D01*
X179313000Y-26481000D01*
Y-26415000D01*
X179330000Y-26348000D01*
X179363000Y-26290000D01*
X179413000Y-26240000D01*
X179471000Y-26206000D01*
X179538000Y-26198000D01*
X179605000Y-26206000D01*
X179663000Y-26240000D01*
X179713000Y-26290000D01*
X179746000Y-26348000D01*
X179763000Y-26415000D01*
Y-26481000D01*
X179746000Y-26548000D01*
X179713000Y-26606000D01*
X179663000Y-26656000D01*
X179605000Y-26690000D01*
X179538000Y-26698000D01*
G01X179871000D02*
Y-26198000D01*
X180080000D01*
X180146000Y-26223000D01*
X180188000Y-26256000D01*
X180205000Y-26323000D01*
X180188000Y-26390000D01*
X180138000Y-26431000D01*
X180080000Y-26456000D01*
X179871000D01*
G01X180080000D02*
X180205000Y-26698000D01*
G01X180930000Y-26531000D02*
X181146000D01*
G01X182221000Y-26240000D02*
X182171000Y-26215000D01*
X182113000Y-26198000D01*
X182046000D01*
X181971000Y-26223000D01*
X181913000Y-26265000D01*
X181871000Y-26315000D01*
X181838000Y-26398000D01*
X181830000Y-26473000D01*
X181846000Y-26548000D01*
X181871000Y-26598000D01*
X181921000Y-26648000D01*
X181980000Y-26681000D01*
X182038000Y-26698000D01*
X182096000D01*
X182155000Y-26681000D01*
X182205000Y-26656000D01*
X182246000Y-26623000D01*
G01X182538000Y-26698000D02*
X182471000Y-26690000D01*
X182413000Y-26656000D01*
X182363000Y-26606000D01*
X182330000Y-26548000D01*
X182313000Y-26481000D01*
Y-26415000D01*
X182330000Y-26348000D01*
X182363000Y-26290000D01*
X182413000Y-26240000D01*
X182471000Y-26206000D01*
X182538000Y-26198000D01*
X182605000Y-26206000D01*
X182663000Y-26240000D01*
X182713000Y-26290000D01*
X182746000Y-26348000D01*
X182763000Y-26415000D01*
Y-26481000D01*
X182746000Y-26548000D01*
X182713000Y-26606000D01*
X182663000Y-26656000D01*
X182605000Y-26690000D01*
X182538000Y-26698000D01*
G01X182871000D02*
Y-26198000D01*
X183071000D01*
X183138000Y-26223000D01*
X183188000Y-26281000D01*
X183205000Y-26348000D01*
X183188000Y-26415000D01*
X183146000Y-26465000D01*
X183071000Y-26490000D01*
X182871000D01*
G01X183371000Y-26698000D02*
Y-26198000D01*
X183571000D01*
X183638000Y-26223000D01*
X183688000Y-26281000D01*
X183705000Y-26348000D01*
X183688000Y-26415000D01*
X183646000Y-26465000D01*
X183571000Y-26490000D01*
X183371000D01*
G01X184205000Y-26698000D02*
X183871000D01*
Y-26198000D01*
X184205000D01*
G01X184071000Y-26440000D02*
X183871000D01*
G01X184371000Y-26698000D02*
Y-26198000D01*
X184580000D01*
X184646000Y-26223000D01*
X184688000Y-26256000D01*
X184705000Y-26323000D01*
X184688000Y-26390000D01*
X184638000Y-26431000D01*
X184580000Y-26456000D01*
X184371000D01*
G01X184580000D02*
X184705000Y-26698000D01*
G01X185538000Y-26198000D02*
X185471000Y-26215000D01*
X185421000Y-26256000D01*
X185388000Y-26306000D01*
X185363000Y-26373000D01*
X185355000Y-26448000D01*
X185363000Y-26523000D01*
X185388000Y-26590000D01*
X185421000Y-26640000D01*
X185471000Y-26681000D01*
X185538000Y-26698000D01*
X185605000Y-26681000D01*
X185655000Y-26640000D01*
X185688000Y-26590000D01*
X185713000Y-26523000D01*
X185721000Y-26448000D01*
X185713000Y-26373000D01*
X185688000Y-26306000D01*
X185655000Y-26256000D01*
X185605000Y-26215000D01*
X185538000Y-26198000D01*
G01X186038000Y-26715000D02*
X186021000Y-26706000D01*
Y-26690000D01*
X186038000Y-26681000D01*
X186055000Y-26690000D01*
Y-26706000D01*
X186038000Y-26715000D01*
G01X186538000Y-26198000D02*
X186471000Y-26215000D01*
X186421000Y-26256000D01*
X186388000Y-26306000D01*
X186363000Y-26373000D01*
X186355000Y-26448000D01*
X186363000Y-26523000D01*
X186388000Y-26590000D01*
X186421000Y-26640000D01*
X186471000Y-26681000D01*
X186538000Y-26698000D01*
X186605000Y-26681000D01*
X186655000Y-26640000D01*
X186688000Y-26590000D01*
X186713000Y-26523000D01*
X186721000Y-26448000D01*
X186713000Y-26373000D01*
X186688000Y-26306000D01*
X186655000Y-26256000D01*
X186605000Y-26215000D01*
X186538000Y-26198000D01*
G01X186855000Y-26598000D02*
X186905000Y-26656000D01*
X186971000Y-26690000D01*
X187046000Y-26698000D01*
X187113000Y-26690000D01*
X187180000Y-26648000D01*
X187221000Y-26598000D01*
X187230000Y-26548000D01*
X187213000Y-26490000D01*
X187155000Y-26448000D01*
X187096000Y-26431000D01*
X187021000D01*
G01X187096000D02*
X187146000Y-26406000D01*
X187188000Y-26365000D01*
X187205000Y-26315000D01*
X187188000Y-26265000D01*
X187146000Y-26223000D01*
X187071000Y-26198000D01*
X186996000Y-26206000D01*
X186921000Y-26240000D01*
G01X187821000Y-26698000D02*
Y-26198000D01*
X188038000Y-26615000D01*
X188255000Y-26198000D01*
Y-26698000D01*
G01X188321000D02*
Y-26198000D01*
X188538000Y-26615000D01*
X188755000Y-26198000D01*
Y-26698000D01*
G01X171355000Y-28431000D02*
X171721000Y-28064000D01*
G01X171538000Y-27997000D02*
Y-28497000D01*
G01X171721000Y-28431000D02*
X171355000Y-28064000D01*
G01X171288000Y-28247000D02*
X171788000D01*
G01X172863000Y-28347000D02*
X172930000Y-28389000D01*
X173005000Y-28414000D01*
X173071000D01*
X173138000Y-28389000D01*
X173188000Y-28347000D01*
X173213000Y-28289000D01*
X173196000Y-28231000D01*
X173155000Y-28181000D01*
X173080000Y-28147000D01*
X172980000Y-28131000D01*
X172921000Y-28097000D01*
X172896000Y-28039000D01*
X172913000Y-27981000D01*
X172955000Y-27939000D01*
X173013000Y-27914000D01*
X173071000D01*
X173130000Y-27931000D01*
X173180000Y-27972000D01*
G01X173355000Y-27914000D02*
Y-28272000D01*
X173388000Y-28347000D01*
X173455000Y-28397000D01*
X173538000Y-28414000D01*
X173621000Y-28397000D01*
X173688000Y-28347000D01*
X173721000Y-28272000D01*
Y-27914000D01*
G01X173871000Y-28414000D02*
Y-27914000D01*
X174080000D01*
X174146000Y-27939000D01*
X174188000Y-27972000D01*
X174205000Y-28039000D01*
X174188000Y-28106000D01*
X174138000Y-28147000D01*
X174080000Y-28172000D01*
X173871000D01*
G01X174080000D02*
X174205000Y-28414000D01*
G01X174380000D02*
Y-27914000D01*
X174696000D01*
G01X174580000Y-28156000D02*
X174380000D01*
G01X174830000Y-28414000D02*
X175038000Y-27914000D01*
X175246000Y-28414000D01*
G01X175171000Y-28239000D02*
X174905000D01*
G01X175721000Y-27956000D02*
X175671000Y-27931000D01*
X175613000Y-27914000D01*
X175546000D01*
X175471000Y-27939000D01*
X175413000Y-27981000D01*
X175371000Y-28031000D01*
X175338000Y-28114000D01*
X175330000Y-28189000D01*
X175346000Y-28264000D01*
X175371000Y-28314000D01*
X175421000Y-28364000D01*
X175480000Y-28397000D01*
X175538000Y-28414000D01*
X175596000D01*
X175655000Y-28397000D01*
X175705000Y-28372000D01*
X175746000Y-28339000D01*
G01X176205000Y-28414000D02*
X175871000D01*
Y-27914000D01*
X176205000D01*
G01X176071000Y-28156000D02*
X175871000D01*
G01X176930000Y-28247000D02*
X177146000D01*
G01X177830000Y-28414000D02*
X178038000Y-27914000D01*
X178246000Y-28414000D01*
G01X178171000Y-28239000D02*
X177905000D01*
G01X178438000Y-27914000D02*
X178638000D01*
G01X178538000D02*
Y-28414000D01*
G01X178438000D02*
X178638000D01*
G01X178871000D02*
Y-27914000D01*
X179080000D01*
X179146000Y-27939000D01*
X179188000Y-27972000D01*
X179205000Y-28039000D01*
X179188000Y-28106000D01*
X179138000Y-28147000D01*
X179080000Y-28172000D01*
X178871000D01*
G01X179080000D02*
X179205000Y-28414000D01*
G01X180038000Y-27914000D02*
X179971000Y-27931000D01*
X179921000Y-27972000D01*
X179888000Y-28022000D01*
X179863000Y-28089000D01*
X179855000Y-28164000D01*
X179863000Y-28239000D01*
X179888000Y-28306000D01*
X179921000Y-28356000D01*
X179971000Y-28397000D01*
X180038000Y-28414000D01*
X180105000Y-28397000D01*
X180155000Y-28356000D01*
X180188000Y-28306000D01*
X180213000Y-28239000D01*
X180221000Y-28164000D01*
X180213000Y-28089000D01*
X180188000Y-28022000D01*
X180155000Y-27972000D01*
X180105000Y-27931000D01*
X180038000Y-27914000D01*
G01X180821000Y-28414000D02*
Y-27914000D01*
X181038000Y-28331000D01*
X181255000Y-27914000D01*
Y-28414000D01*
G01X181321000D02*
Y-27914000D01*
X181538000Y-28331000D01*
X181755000Y-27914000D01*
Y-28414000D01*
G01X171355000Y-18560000D02*
X171721000Y-18193000D01*
G01X171538000Y-18126000D02*
Y-18626000D01*
G01X171721000Y-18560000D02*
X171355000Y-18193000D01*
G01X171288000Y-18376000D02*
X171788000D01*
G01X172855000Y-18543000D02*
Y-18043000D01*
X173021000D01*
X173088000Y-18068000D01*
X173138000Y-18101000D01*
X173180000Y-18151000D01*
X173213000Y-18210000D01*
X173221000Y-18293000D01*
X173213000Y-18376000D01*
X173180000Y-18435000D01*
X173138000Y-18485000D01*
X173088000Y-18518000D01*
X173021000Y-18543000D01*
X172855000D01*
G01X173438000Y-18043000D02*
X173638000D01*
G01X173538000D02*
Y-18543000D01*
G01X173438000D02*
X173638000D01*
G01X174205000D02*
X173871000D01*
Y-18043000D01*
X174205000D01*
G01X174071000Y-18285000D02*
X173871000D01*
G01X174371000Y-18043000D02*
Y-18543000D01*
X174705000D01*
G01X175205000D02*
X174871000D01*
Y-18043000D01*
X175205000D01*
G01X175071000Y-18285000D02*
X174871000D01*
G01X175721000Y-18085000D02*
X175671000Y-18060000D01*
X175613000Y-18043000D01*
X175546000D01*
X175471000Y-18068000D01*
X175413000Y-18110000D01*
X175371000Y-18160000D01*
X175338000Y-18243000D01*
X175330000Y-18318000D01*
X175346000Y-18393000D01*
X175371000Y-18443000D01*
X175421000Y-18493000D01*
X175480000Y-18526000D01*
X175538000Y-18543000D01*
X175596000D01*
X175655000Y-18526000D01*
X175705000Y-18501000D01*
X175746000Y-18468000D01*
G01X176038000Y-18043000D02*
Y-18543000D01*
G01X175846000Y-18043000D02*
X176230000D01*
G01X176371000Y-18543000D02*
Y-18043000D01*
X176580000D01*
X176646000Y-18068000D01*
X176688000Y-18101000D01*
X176705000Y-18168000D01*
X176688000Y-18235000D01*
X176638000Y-18276000D01*
X176580000Y-18301000D01*
X176371000D01*
G01X176580000D02*
X176705000Y-18543000D01*
G01X176938000Y-18043000D02*
X177138000D01*
G01X177038000D02*
Y-18543000D01*
G01X176938000D02*
X177138000D01*
G01X177721000Y-18085000D02*
X177671000Y-18060000D01*
X177613000Y-18043000D01*
X177546000D01*
X177471000Y-18068000D01*
X177413000Y-18110000D01*
X177371000Y-18160000D01*
X177338000Y-18243000D01*
X177330000Y-18318000D01*
X177346000Y-18393000D01*
X177371000Y-18443000D01*
X177421000Y-18493000D01*
X177480000Y-18526000D01*
X177538000Y-18543000D01*
X177596000D01*
X177655000Y-18526000D01*
X177705000Y-18501000D01*
X177746000Y-18468000D01*
G01X178430000Y-18376000D02*
X178646000D01*
G01X179380000Y-18543000D02*
Y-18043000D01*
X179696000D01*
G01X179580000Y-18285000D02*
X179380000D01*
G01X179871000Y-18543000D02*
Y-18043000D01*
X180080000D01*
X180146000Y-18068000D01*
X180188000Y-18101000D01*
X180205000Y-18168000D01*
X180188000Y-18235000D01*
X180138000Y-18276000D01*
X180080000Y-18301000D01*
X179871000D01*
G01X180080000D02*
X180205000Y-18543000D01*
G01X180430000Y-18376000D02*
X180646000D01*
G01X181138000Y-18543000D02*
Y-18043000D01*
X180830000Y-18401000D01*
X181246000D01*
G01X182038000Y-18043000D02*
X181971000Y-18060000D01*
X181921000Y-18101000D01*
X181888000Y-18151000D01*
X181863000Y-18218000D01*
X181855000Y-18293000D01*
X181863000Y-18368000D01*
X181888000Y-18435000D01*
X181921000Y-18485000D01*
X181971000Y-18526000D01*
X182038000Y-18543000D01*
X182105000Y-18526000D01*
X182155000Y-18485000D01*
X182188000Y-18435000D01*
X182213000Y-18368000D01*
X182221000Y-18293000D01*
X182213000Y-18218000D01*
X182188000Y-18151000D01*
X182155000Y-18101000D01*
X182105000Y-18060000D01*
X182038000Y-18043000D01*
G01X182538000Y-18560000D02*
X182521000Y-18551000D01*
Y-18535000D01*
X182538000Y-18526000D01*
X182555000Y-18535000D01*
Y-18551000D01*
X182538000Y-18560000D01*
G01X182880000Y-18126000D02*
X182930000Y-18076000D01*
X182988000Y-18051000D01*
X183055000Y-18043000D01*
X183138000Y-18060000D01*
X183196000Y-18101000D01*
X183213000Y-18151000D01*
X183205000Y-18201000D01*
X183171000Y-18243000D01*
X183005000Y-18326000D01*
X182930000Y-18385000D01*
X182880000Y-18468000D01*
X182863000Y-18543000D01*
X183213000D01*
G01X183538000Y-18043000D02*
X183471000Y-18060000D01*
X183421000Y-18101000D01*
X183388000Y-18151000D01*
X183363000Y-18218000D01*
X183355000Y-18293000D01*
X183363000Y-18368000D01*
X183388000Y-18435000D01*
X183421000Y-18485000D01*
X183471000Y-18526000D01*
X183538000Y-18543000D01*
X183605000Y-18526000D01*
X183655000Y-18485000D01*
X183688000Y-18435000D01*
X183713000Y-18368000D01*
X183721000Y-18293000D01*
X183713000Y-18218000D01*
X183688000Y-18151000D01*
X183655000Y-18101000D01*
X183605000Y-18060000D01*
X183538000Y-18043000D01*
G01X183855000Y-18443000D02*
X183905000Y-18501000D01*
X183971000Y-18535000D01*
X184046000Y-18543000D01*
X184113000Y-18535000D01*
X184180000Y-18493000D01*
X184221000Y-18443000D01*
X184230000Y-18393000D01*
X184213000Y-18335000D01*
X184155000Y-18293000D01*
X184096000Y-18276000D01*
X184021000D01*
G01X184096000D02*
X184146000Y-18251000D01*
X184188000Y-18210000D01*
X184205000Y-18160000D01*
X184188000Y-18110000D01*
X184146000Y-18068000D01*
X184071000Y-18043000D01*
X183996000Y-18051000D01*
X183921000Y-18085000D01*
G01X184821000Y-18543000D02*
Y-18043000D01*
X185038000Y-18460000D01*
X185255000Y-18043000D01*
Y-18543000D01*
G01X185321000D02*
Y-18043000D01*
X185538000Y-18460000D01*
X185755000Y-18043000D01*
Y-18543000D01*
G01X170371000Y-9888000D02*
Y-10388000D01*
X170705000D01*
G01X170855000Y-10288000D02*
X170905000Y-10346000D01*
X170971000Y-10380000D01*
X171046000Y-10388000D01*
X171113000Y-10380000D01*
X171180000Y-10338000D01*
X171221000Y-10288000D01*
X171230000Y-10238000D01*
X171213000Y-10180000D01*
X171155000Y-10138000D01*
X171096000Y-10121000D01*
X171021000D01*
G01X171096000D02*
X171146000Y-10096000D01*
X171188000Y-10055000D01*
X171205000Y-10005000D01*
X171188000Y-9955000D01*
X171146000Y-9913000D01*
X171071000Y-9888000D01*
X170996000Y-9896000D01*
X170921000Y-9930000D01*
G01X171538000Y-10405000D02*
X171521000Y-10396000D01*
Y-10380000D01*
X171538000Y-10371000D01*
X171555000Y-10380000D01*
Y-10396000D01*
X171538000Y-10405000D01*
G01Y-10180000D02*
X171521000Y-10171000D01*
Y-10155000D01*
X171538000Y-10146000D01*
X171555000Y-10155000D01*
Y-10171000D01*
X171538000Y-10180000D01*
G01X172371000Y-9888000D02*
Y-10388000D01*
X172705000D01*
G01X172830000D02*
X173038000Y-9888000D01*
X173246000Y-10388000D01*
G01X173171000Y-10213000D02*
X172905000D01*
G01X173538000Y-10388000D02*
Y-10163000D01*
X173371000Y-9888000D01*
G01X173705000D02*
X173538000Y-10163000D01*
G01X174205000Y-10388000D02*
X173871000D01*
Y-9888000D01*
X174205000D01*
G01X174071000Y-10130000D02*
X173871000D01*
G01X174371000Y-10388000D02*
Y-9888000D01*
X174580000D01*
X174646000Y-9913000D01*
X174688000Y-9946000D01*
X174705000Y-10013000D01*
X174688000Y-10080000D01*
X174638000Y-10121000D01*
X174580000Y-10146000D01*
X174371000D01*
G01X174580000D02*
X174705000Y-10388000D01*
G01X175380000Y-9971000D02*
X175430000Y-9921000D01*
X175488000Y-9896000D01*
X175555000Y-9888000D01*
X175638000Y-9905000D01*
X175696000Y-9946000D01*
X175713000Y-9996000D01*
X175705000Y-10046000D01*
X175671000Y-10088000D01*
X175505000Y-10171000D01*
X175430000Y-10230000D01*
X175380000Y-10313000D01*
X175363000Y-10388000D01*
X175713000D01*
G01X176721000Y-9930000D02*
X176671000Y-9905000D01*
X176613000Y-9888000D01*
X176546000D01*
X176471000Y-9913000D01*
X176413000Y-9955000D01*
X176371000Y-10005000D01*
X176338000Y-10088000D01*
X176330000Y-10163000D01*
X176346000Y-10238000D01*
X176371000Y-10288000D01*
X176421000Y-10338000D01*
X176480000Y-10371000D01*
X176538000Y-10388000D01*
X176596000D01*
X176655000Y-10371000D01*
X176705000Y-10346000D01*
X176746000Y-10313000D01*
G01X177038000Y-10388000D02*
X176971000Y-10380000D01*
X176913000Y-10346000D01*
X176863000Y-10296000D01*
X176830000Y-10238000D01*
X176813000Y-10171000D01*
Y-10105000D01*
X176830000Y-10038000D01*
X176863000Y-9980000D01*
X176913000Y-9930000D01*
X176971000Y-9896000D01*
X177038000Y-9888000D01*
X177105000Y-9896000D01*
X177163000Y-9930000D01*
X177213000Y-9980000D01*
X177246000Y-10038000D01*
X177263000Y-10105000D01*
Y-10171000D01*
X177246000Y-10238000D01*
X177213000Y-10296000D01*
X177163000Y-10346000D01*
X177105000Y-10380000D01*
X177038000Y-10388000D01*
G01X177346000D02*
Y-9888000D01*
X177730000Y-10388000D01*
Y-9888000D01*
G01X177855000Y-10388000D02*
Y-9888000D01*
X178021000D01*
X178088000Y-9913000D01*
X178138000Y-9946000D01*
X178180000Y-9996000D01*
X178213000Y-10055000D01*
X178221000Y-10138000D01*
X178213000Y-10221000D01*
X178180000Y-10280000D01*
X178138000Y-10330000D01*
X178088000Y-10363000D01*
X178021000Y-10388000D01*
X177855000D01*
G01X178355000Y-9888000D02*
Y-10246000D01*
X178388000Y-10321000D01*
X178455000Y-10371000D01*
X178538000Y-10388000D01*
X178621000Y-10371000D01*
X178688000Y-10321000D01*
X178721000Y-10246000D01*
Y-9888000D01*
G01X179221000Y-9930000D02*
X179171000Y-9905000D01*
X179113000Y-9888000D01*
X179046000D01*
X178971000Y-9913000D01*
X178913000Y-9955000D01*
X178871000Y-10005000D01*
X178838000Y-10088000D01*
X178830000Y-10163000D01*
X178846000Y-10238000D01*
X178871000Y-10288000D01*
X178921000Y-10338000D01*
X178980000Y-10371000D01*
X179038000Y-10388000D01*
X179096000D01*
X179155000Y-10371000D01*
X179205000Y-10346000D01*
X179246000Y-10313000D01*
G01X179538000Y-9888000D02*
Y-10388000D01*
G01X179346000Y-9888000D02*
X179730000D01*
G01X180038000Y-10388000D02*
X179971000Y-10380000D01*
X179913000Y-10346000D01*
X179863000Y-10296000D01*
X179830000Y-10238000D01*
X179813000Y-10171000D01*
Y-10105000D01*
X179830000Y-10038000D01*
X179863000Y-9980000D01*
X179913000Y-9930000D01*
X179971000Y-9896000D01*
X180038000Y-9888000D01*
X180105000Y-9896000D01*
X180163000Y-9930000D01*
X180213000Y-9980000D01*
X180246000Y-10038000D01*
X180263000Y-10105000D01*
Y-10171000D01*
X180246000Y-10238000D01*
X180213000Y-10296000D01*
X180163000Y-10346000D01*
X180105000Y-10380000D01*
X180038000Y-10388000D01*
G01X180371000D02*
Y-9888000D01*
X180580000D01*
X180646000Y-9913000D01*
X180688000Y-9946000D01*
X180705000Y-10013000D01*
X180688000Y-10080000D01*
X180638000Y-10121000D01*
X180580000Y-10146000D01*
X180371000D01*
G01X180580000D02*
X180705000Y-10388000D01*
G01X181430000Y-10221000D02*
X181646000D01*
G01X182721000Y-9930000D02*
X182671000Y-9905000D01*
X182613000Y-9888000D01*
X182546000D01*
X182471000Y-9913000D01*
X182413000Y-9955000D01*
X182371000Y-10005000D01*
X182338000Y-10088000D01*
X182330000Y-10163000D01*
X182346000Y-10238000D01*
X182371000Y-10288000D01*
X182421000Y-10338000D01*
X182480000Y-10371000D01*
X182538000Y-10388000D01*
X182596000D01*
X182655000Y-10371000D01*
X182705000Y-10346000D01*
X182746000Y-10313000D01*
G01X183038000Y-10388000D02*
X182971000Y-10380000D01*
X182913000Y-10346000D01*
X182863000Y-10296000D01*
X182830000Y-10238000D01*
X182813000Y-10171000D01*
Y-10105000D01*
X182830000Y-10038000D01*
X182863000Y-9980000D01*
X182913000Y-9930000D01*
X182971000Y-9896000D01*
X183038000Y-9888000D01*
X183105000Y-9896000D01*
X183163000Y-9930000D01*
X183213000Y-9980000D01*
X183246000Y-10038000D01*
X183263000Y-10105000D01*
Y-10171000D01*
X183246000Y-10238000D01*
X183213000Y-10296000D01*
X183163000Y-10346000D01*
X183105000Y-10380000D01*
X183038000Y-10388000D01*
G01X183371000D02*
Y-9888000D01*
X183571000D01*
X183638000Y-9913000D01*
X183688000Y-9971000D01*
X183705000Y-10038000D01*
X183688000Y-10105000D01*
X183646000Y-10155000D01*
X183571000Y-10180000D01*
X183371000D01*
G01X183871000Y-10388000D02*
Y-9888000D01*
X184071000D01*
X184138000Y-9913000D01*
X184188000Y-9971000D01*
X184205000Y-10038000D01*
X184188000Y-10105000D01*
X184146000Y-10155000D01*
X184071000Y-10180000D01*
X183871000D01*
G01X184705000Y-10388000D02*
X184371000D01*
Y-9888000D01*
X184705000D01*
G01X184571000Y-10130000D02*
X184371000D01*
G01X184871000Y-10388000D02*
Y-9888000D01*
X185080000D01*
X185146000Y-9913000D01*
X185188000Y-9946000D01*
X185205000Y-10013000D01*
X185188000Y-10080000D01*
X185138000Y-10121000D01*
X185080000Y-10146000D01*
X184871000D01*
G01X185080000D02*
X185205000Y-10388000D01*
G01X186038000Y-9888000D02*
X185971000Y-9905000D01*
X185921000Y-9946000D01*
X185888000Y-9996000D01*
X185863000Y-10063000D01*
X185855000Y-10138000D01*
X185863000Y-10213000D01*
X185888000Y-10280000D01*
X185921000Y-10330000D01*
X185971000Y-10371000D01*
X186038000Y-10388000D01*
X186105000Y-10371000D01*
X186155000Y-10330000D01*
X186188000Y-10280000D01*
X186213000Y-10213000D01*
X186221000Y-10138000D01*
X186213000Y-10063000D01*
X186188000Y-9996000D01*
X186155000Y-9946000D01*
X186105000Y-9905000D01*
X186038000Y-9888000D01*
G01X186538000Y-10405000D02*
X186521000Y-10396000D01*
Y-10380000D01*
X186538000Y-10371000D01*
X186555000Y-10380000D01*
Y-10396000D01*
X186538000Y-10405000D01*
G01X187038000Y-9888000D02*
X186971000Y-9905000D01*
X186921000Y-9946000D01*
X186888000Y-9996000D01*
X186863000Y-10063000D01*
X186855000Y-10138000D01*
X186863000Y-10213000D01*
X186888000Y-10280000D01*
X186921000Y-10330000D01*
X186971000Y-10371000D01*
X187038000Y-10388000D01*
X187105000Y-10371000D01*
X187155000Y-10330000D01*
X187188000Y-10280000D01*
X187213000Y-10213000D01*
X187221000Y-10138000D01*
X187213000Y-10063000D01*
X187188000Y-9996000D01*
X187155000Y-9946000D01*
X187105000Y-9905000D01*
X187038000Y-9888000D01*
G01X187355000Y-10288000D02*
X187405000Y-10346000D01*
X187471000Y-10380000D01*
X187546000Y-10388000D01*
X187613000Y-10380000D01*
X187680000Y-10338000D01*
X187721000Y-10288000D01*
X187730000Y-10238000D01*
X187713000Y-10180000D01*
X187655000Y-10138000D01*
X187596000Y-10121000D01*
X187521000D01*
G01X187596000D02*
X187646000Y-10096000D01*
X187688000Y-10055000D01*
X187705000Y-10005000D01*
X187688000Y-9955000D01*
X187646000Y-9913000D01*
X187571000Y-9888000D01*
X187496000Y-9896000D01*
X187421000Y-9930000D01*
G01X188321000Y-10388000D02*
Y-9888000D01*
X188538000Y-10305000D01*
X188755000Y-9888000D01*
Y-10388000D01*
G01X188821000D02*
Y-9888000D01*
X189038000Y-10305000D01*
X189255000Y-9888000D01*
Y-10388000D01*
G01X171355000Y-2250000D02*
X171721000Y-1883000D01*
G01X171538000Y-1816000D02*
Y-2316000D01*
G01X171721000Y-2250000D02*
X171355000Y-1883000D01*
G01X171288000Y-2066000D02*
X171788000D01*
G01X172855000Y-2233000D02*
Y-1733000D01*
X173021000D01*
X173088000Y-1758000D01*
X173138000Y-1791000D01*
X173180000Y-1841000D01*
X173213000Y-1900000D01*
X173221000Y-1983000D01*
X173213000Y-2066000D01*
X173180000Y-2125000D01*
X173138000Y-2175000D01*
X173088000Y-2208000D01*
X173021000Y-2233000D01*
X172855000D01*
G01X173438000Y-1733000D02*
X173638000D01*
G01X173538000D02*
Y-2233000D01*
G01X173438000D02*
X173638000D01*
G01X174205000D02*
X173871000D01*
Y-1733000D01*
X174205000D01*
G01X174071000Y-1975000D02*
X173871000D01*
G01X174371000Y-1733000D02*
Y-2233000D01*
X174705000D01*
G01X175205000D02*
X174871000D01*
Y-1733000D01*
X175205000D01*
G01X175071000Y-1975000D02*
X174871000D01*
G01X175721000Y-1775000D02*
X175671000Y-1750000D01*
X175613000Y-1733000D01*
X175546000D01*
X175471000Y-1758000D01*
X175413000Y-1800000D01*
X175371000Y-1850000D01*
X175338000Y-1933000D01*
X175330000Y-2008000D01*
X175346000Y-2083000D01*
X175371000Y-2133000D01*
X175421000Y-2183000D01*
X175480000Y-2216000D01*
X175538000Y-2233000D01*
X175596000D01*
X175655000Y-2216000D01*
X175705000Y-2191000D01*
X175746000Y-2158000D01*
G01X176038000Y-1733000D02*
Y-2233000D01*
G01X175846000Y-1733000D02*
X176230000D01*
G01X176371000Y-2233000D02*
Y-1733000D01*
X176580000D01*
X176646000Y-1758000D01*
X176688000Y-1791000D01*
X176705000Y-1858000D01*
X176688000Y-1925000D01*
X176638000Y-1966000D01*
X176580000Y-1991000D01*
X176371000D01*
G01X176580000D02*
X176705000Y-2233000D01*
G01X176938000Y-1733000D02*
X177138000D01*
G01X177038000D02*
Y-2233000D01*
G01X176938000D02*
X177138000D01*
G01X177721000Y-1775000D02*
X177671000Y-1750000D01*
X177613000Y-1733000D01*
X177546000D01*
X177471000Y-1758000D01*
X177413000Y-1800000D01*
X177371000Y-1850000D01*
X177338000Y-1933000D01*
X177330000Y-2008000D01*
X177346000Y-2083000D01*
X177371000Y-2133000D01*
X177421000Y-2183000D01*
X177480000Y-2216000D01*
X177538000Y-2233000D01*
X177596000D01*
X177655000Y-2216000D01*
X177705000Y-2191000D01*
X177746000Y-2158000D01*
G01X178430000Y-2066000D02*
X178646000D01*
G01X179380000Y-2233000D02*
Y-1733000D01*
X179696000D01*
G01X179580000Y-1975000D02*
X179380000D01*
G01X179871000Y-2233000D02*
Y-1733000D01*
X180080000D01*
X180146000Y-1758000D01*
X180188000Y-1791000D01*
X180205000Y-1858000D01*
X180188000Y-1925000D01*
X180138000Y-1966000D01*
X180080000Y-1991000D01*
X179871000D01*
G01X180080000D02*
X180205000Y-2233000D01*
G01X180430000Y-2066000D02*
X180646000D01*
G01X181138000Y-2233000D02*
Y-1733000D01*
X180830000Y-2091000D01*
X181246000D01*
G01X182038000Y-1733000D02*
X181971000Y-1750000D01*
X181921000Y-1791000D01*
X181888000Y-1841000D01*
X181863000Y-1908000D01*
X181855000Y-1983000D01*
X181863000Y-2058000D01*
X181888000Y-2125000D01*
X181921000Y-2175000D01*
X181971000Y-2216000D01*
X182038000Y-2233000D01*
X182105000Y-2216000D01*
X182155000Y-2175000D01*
X182188000Y-2125000D01*
X182213000Y-2058000D01*
X182221000Y-1983000D01*
X182213000Y-1908000D01*
X182188000Y-1841000D01*
X182155000Y-1791000D01*
X182105000Y-1750000D01*
X182038000Y-1733000D01*
G01X182538000Y-2250000D02*
X182521000Y-2241000D01*
Y-2225000D01*
X182538000Y-2216000D01*
X182555000Y-2225000D01*
Y-2241000D01*
X182538000Y-2250000D01*
G01X182880000Y-1816000D02*
X182930000Y-1766000D01*
X182988000Y-1741000D01*
X183055000Y-1733000D01*
X183138000Y-1750000D01*
X183196000Y-1791000D01*
X183213000Y-1841000D01*
X183205000Y-1891000D01*
X183171000Y-1933000D01*
X183005000Y-2016000D01*
X182930000Y-2075000D01*
X182880000Y-2158000D01*
X182863000Y-2233000D01*
X183213000D01*
G01X183538000Y-1733000D02*
X183471000Y-1750000D01*
X183421000Y-1791000D01*
X183388000Y-1841000D01*
X183363000Y-1908000D01*
X183355000Y-1983000D01*
X183363000Y-2058000D01*
X183388000Y-2125000D01*
X183421000Y-2175000D01*
X183471000Y-2216000D01*
X183538000Y-2233000D01*
X183605000Y-2216000D01*
X183655000Y-2175000D01*
X183688000Y-2125000D01*
X183713000Y-2058000D01*
X183721000Y-1983000D01*
X183713000Y-1908000D01*
X183688000Y-1841000D01*
X183655000Y-1791000D01*
X183605000Y-1750000D01*
X183538000Y-1733000D01*
G01X183855000Y-2133000D02*
X183905000Y-2191000D01*
X183971000Y-2225000D01*
X184046000Y-2233000D01*
X184113000Y-2225000D01*
X184180000Y-2183000D01*
X184221000Y-2133000D01*
X184230000Y-2083000D01*
X184213000Y-2025000D01*
X184155000Y-1983000D01*
X184096000Y-1966000D01*
X184021000D01*
G01X184096000D02*
X184146000Y-1941000D01*
X184188000Y-1900000D01*
X184205000Y-1850000D01*
X184188000Y-1800000D01*
X184146000Y-1758000D01*
X184071000Y-1733000D01*
X183996000Y-1741000D01*
X183921000Y-1775000D01*
G01X184821000Y-2233000D02*
Y-1733000D01*
X185038000Y-2150000D01*
X185255000Y-1733000D01*
Y-2233000D01*
G01X185321000D02*
Y-1733000D01*
X185538000Y-2150000D01*
X185755000Y-1733000D01*
Y-2233000D01*
G01X170371000Y6422000D02*
Y5922000D01*
X170705000D01*
G01X170880000Y6339000D02*
X170930000Y6389000D01*
X170988000Y6414000D01*
X171055000Y6422000D01*
X171138000Y6405000D01*
X171196000Y6364000D01*
X171213000Y6314000D01*
X171205000Y6264000D01*
X171171000Y6222000D01*
X171005000Y6139000D01*
X170930000Y6080000D01*
X170880000Y5997000D01*
X170863000Y5922000D01*
X171213000D01*
G01X171538000Y5905000D02*
X171521000Y5914000D01*
Y5930000D01*
X171538000Y5939000D01*
X171555000Y5930000D01*
Y5914000D01*
X171538000Y5905000D01*
G01Y6130000D02*
X171521000Y6139000D01*
Y6155000D01*
X171538000Y6164000D01*
X171555000Y6155000D01*
Y6139000D01*
X171538000Y6130000D01*
G01X172371000Y6422000D02*
Y5922000D01*
X172705000D01*
G01X172830000D02*
X173038000Y6422000D01*
X173246000Y5922000D01*
G01X173171000Y6097000D02*
X172905000D01*
G01X173538000Y5922000D02*
Y6147000D01*
X173371000Y6422000D01*
G01X173705000D02*
X173538000Y6147000D01*
G01X174205000Y5922000D02*
X173871000D01*
Y6422000D01*
X174205000D01*
G01X174071000Y6180000D02*
X173871000D01*
G01X174371000Y5922000D02*
Y6422000D01*
X174580000D01*
X174646000Y6397000D01*
X174688000Y6364000D01*
X174705000Y6297000D01*
X174688000Y6230000D01*
X174638000Y6189000D01*
X174580000Y6164000D01*
X174371000D01*
G01X174580000D02*
X174705000Y5922000D01*
G01X175538000D02*
Y6422000D01*
X175438000Y6322000D01*
G01Y5922000D02*
X175638000D01*
G01X176721000Y6380000D02*
X176671000Y6405000D01*
X176613000Y6422000D01*
X176546000D01*
X176471000Y6397000D01*
X176413000Y6355000D01*
X176371000Y6305000D01*
X176338000Y6222000D01*
X176330000Y6147000D01*
X176346000Y6072000D01*
X176371000Y6022000D01*
X176421000Y5972000D01*
X176480000Y5939000D01*
X176538000Y5922000D01*
X176596000D01*
X176655000Y5939000D01*
X176705000Y5964000D01*
X176746000Y5997000D01*
G01X177038000Y5922000D02*
X176971000Y5930000D01*
X176913000Y5964000D01*
X176863000Y6014000D01*
X176830000Y6072000D01*
X176813000Y6139000D01*
Y6205000D01*
X176830000Y6272000D01*
X176863000Y6330000D01*
X176913000Y6380000D01*
X176971000Y6414000D01*
X177038000Y6422000D01*
X177105000Y6414000D01*
X177163000Y6380000D01*
X177213000Y6330000D01*
X177246000Y6272000D01*
X177263000Y6205000D01*
Y6139000D01*
X177246000Y6072000D01*
X177213000Y6014000D01*
X177163000Y5964000D01*
X177105000Y5930000D01*
X177038000Y5922000D01*
G01X177346000D02*
Y6422000D01*
X177730000Y5922000D01*
Y6422000D01*
G01X177855000Y5922000D02*
Y6422000D01*
X178021000D01*
X178088000Y6397000D01*
X178138000Y6364000D01*
X178180000Y6314000D01*
X178213000Y6255000D01*
X178221000Y6172000D01*
X178213000Y6089000D01*
X178180000Y6030000D01*
X178138000Y5980000D01*
X178088000Y5947000D01*
X178021000Y5922000D01*
X177855000D01*
G01X178355000Y6422000D02*
Y6064000D01*
X178388000Y5989000D01*
X178455000Y5939000D01*
X178538000Y5922000D01*
X178621000Y5939000D01*
X178688000Y5989000D01*
X178721000Y6064000D01*
Y6422000D01*
G01X179221000Y6380000D02*
X179171000Y6405000D01*
X179113000Y6422000D01*
X179046000D01*
X178971000Y6397000D01*
X178913000Y6355000D01*
X178871000Y6305000D01*
X178838000Y6222000D01*
X178830000Y6147000D01*
X178846000Y6072000D01*
X178871000Y6022000D01*
X178921000Y5972000D01*
X178980000Y5939000D01*
X179038000Y5922000D01*
X179096000D01*
X179155000Y5939000D01*
X179205000Y5964000D01*
X179246000Y5997000D01*
G01X179538000Y6422000D02*
Y5922000D01*
G01X179346000Y6422000D02*
X179730000D01*
G01X180038000Y5922000D02*
X179971000Y5930000D01*
X179913000Y5964000D01*
X179863000Y6014000D01*
X179830000Y6072000D01*
X179813000Y6139000D01*
Y6205000D01*
X179830000Y6272000D01*
X179863000Y6330000D01*
X179913000Y6380000D01*
X179971000Y6414000D01*
X180038000Y6422000D01*
X180105000Y6414000D01*
X180163000Y6380000D01*
X180213000Y6330000D01*
X180246000Y6272000D01*
X180263000Y6205000D01*
Y6139000D01*
X180246000Y6072000D01*
X180213000Y6014000D01*
X180163000Y5964000D01*
X180105000Y5930000D01*
X180038000Y5922000D01*
G01X180371000D02*
Y6422000D01*
X180580000D01*
X180646000Y6397000D01*
X180688000Y6364000D01*
X180705000Y6297000D01*
X180688000Y6230000D01*
X180638000Y6189000D01*
X180580000Y6164000D01*
X180371000D01*
G01X180580000D02*
X180705000Y5922000D01*
G01X181430000Y6089000D02*
X181646000D01*
G01X182721000Y6380000D02*
X182671000Y6405000D01*
X182613000Y6422000D01*
X182546000D01*
X182471000Y6397000D01*
X182413000Y6355000D01*
X182371000Y6305000D01*
X182338000Y6222000D01*
X182330000Y6147000D01*
X182346000Y6072000D01*
X182371000Y6022000D01*
X182421000Y5972000D01*
X182480000Y5939000D01*
X182538000Y5922000D01*
X182596000D01*
X182655000Y5939000D01*
X182705000Y5964000D01*
X182746000Y5997000D01*
G01X183038000Y5922000D02*
X182971000Y5930000D01*
X182913000Y5964000D01*
X182863000Y6014000D01*
X182830000Y6072000D01*
X182813000Y6139000D01*
Y6205000D01*
X182830000Y6272000D01*
X182863000Y6330000D01*
X182913000Y6380000D01*
X182971000Y6414000D01*
X183038000Y6422000D01*
X183105000Y6414000D01*
X183163000Y6380000D01*
X183213000Y6330000D01*
X183246000Y6272000D01*
X183263000Y6205000D01*
Y6139000D01*
X183246000Y6072000D01*
X183213000Y6014000D01*
X183163000Y5964000D01*
X183105000Y5930000D01*
X183038000Y5922000D01*
G01X183371000D02*
Y6422000D01*
X183571000D01*
X183638000Y6397000D01*
X183688000Y6339000D01*
X183705000Y6272000D01*
X183688000Y6205000D01*
X183646000Y6155000D01*
X183571000Y6130000D01*
X183371000D01*
G01X183871000Y5922000D02*
Y6422000D01*
X184071000D01*
X184138000Y6397000D01*
X184188000Y6339000D01*
X184205000Y6272000D01*
X184188000Y6205000D01*
X184146000Y6155000D01*
X184071000Y6130000D01*
X183871000D01*
G01X184705000Y5922000D02*
X184371000D01*
Y6422000D01*
X184705000D01*
G01X184571000Y6180000D02*
X184371000D01*
G01X184871000Y5922000D02*
Y6422000D01*
X185080000D01*
X185146000Y6397000D01*
X185188000Y6364000D01*
X185205000Y6297000D01*
X185188000Y6230000D01*
X185138000Y6189000D01*
X185080000Y6164000D01*
X184871000D01*
G01X185080000D02*
X185205000Y5922000D01*
G01X186038000Y6422000D02*
X185971000Y6405000D01*
X185921000Y6364000D01*
X185888000Y6314000D01*
X185863000Y6247000D01*
X185855000Y6172000D01*
X185863000Y6097000D01*
X185888000Y6030000D01*
X185921000Y5980000D01*
X185971000Y5939000D01*
X186038000Y5922000D01*
X186105000Y5939000D01*
X186155000Y5980000D01*
X186188000Y6030000D01*
X186213000Y6097000D01*
X186221000Y6172000D01*
X186213000Y6247000D01*
X186188000Y6314000D01*
X186155000Y6364000D01*
X186105000Y6405000D01*
X186038000Y6422000D01*
G01X186538000Y5905000D02*
X186521000Y5914000D01*
Y5930000D01*
X186538000Y5939000D01*
X186555000Y5930000D01*
Y5914000D01*
X186538000Y5905000D01*
G01X187038000Y6422000D02*
X186971000Y6405000D01*
X186921000Y6364000D01*
X186888000Y6314000D01*
X186863000Y6247000D01*
X186855000Y6172000D01*
X186863000Y6097000D01*
X186888000Y6030000D01*
X186921000Y5980000D01*
X186971000Y5939000D01*
X187038000Y5922000D01*
X187105000Y5939000D01*
X187155000Y5980000D01*
X187188000Y6030000D01*
X187213000Y6097000D01*
X187221000Y6172000D01*
X187213000Y6247000D01*
X187188000Y6314000D01*
X187155000Y6364000D01*
X187105000Y6405000D01*
X187038000Y6422000D01*
G01X187355000Y6022000D02*
X187405000Y5964000D01*
X187471000Y5930000D01*
X187546000Y5922000D01*
X187613000Y5930000D01*
X187680000Y5972000D01*
X187721000Y6022000D01*
X187730000Y6072000D01*
X187713000Y6130000D01*
X187655000Y6172000D01*
X187596000Y6189000D01*
X187521000D01*
G01X187596000D02*
X187646000Y6214000D01*
X187688000Y6255000D01*
X187705000Y6305000D01*
X187688000Y6355000D01*
X187646000Y6397000D01*
X187571000Y6422000D01*
X187496000Y6414000D01*
X187421000Y6380000D01*
G01X188321000Y5922000D02*
Y6422000D01*
X188538000Y6005000D01*
X188755000Y6422000D01*
Y5922000D01*
G01X188821000D02*
Y6422000D01*
X189038000Y6005000D01*
X189255000Y6422000D01*
Y5922000D01*
G01X171355000Y14060000D02*
X171721000Y14427000D01*
G01X171538000Y14494000D02*
Y13994000D01*
G01X171721000Y14060000D02*
X171355000Y14427000D01*
G01X171288000Y14244000D02*
X171788000D01*
G01X172855000Y14077000D02*
Y14577000D01*
X173021000D01*
X173088000Y14552000D01*
X173138000Y14519000D01*
X173180000Y14469000D01*
X173213000Y14410000D01*
X173221000Y14327000D01*
X173213000Y14244000D01*
X173180000Y14185000D01*
X173138000Y14135000D01*
X173088000Y14102000D01*
X173021000Y14077000D01*
X172855000D01*
G01X173438000Y14577000D02*
X173638000D01*
G01X173538000D02*
Y14077000D01*
G01X173438000D02*
X173638000D01*
G01X174205000D02*
X173871000D01*
Y14577000D01*
X174205000D01*
G01X174071000Y14335000D02*
X173871000D01*
G01X174371000Y14577000D02*
Y14077000D01*
X174705000D01*
G01X175205000D02*
X174871000D01*
Y14577000D01*
X175205000D01*
G01X175071000Y14335000D02*
X174871000D01*
G01X175721000Y14535000D02*
X175671000Y14560000D01*
X175613000Y14577000D01*
X175546000D01*
X175471000Y14552000D01*
X175413000Y14510000D01*
X175371000Y14460000D01*
X175338000Y14377000D01*
X175330000Y14302000D01*
X175346000Y14227000D01*
X175371000Y14177000D01*
X175421000Y14127000D01*
X175480000Y14094000D01*
X175538000Y14077000D01*
X175596000D01*
X175655000Y14094000D01*
X175705000Y14119000D01*
X175746000Y14152000D01*
G01X176038000Y14577000D02*
Y14077000D01*
G01X175846000Y14577000D02*
X176230000D01*
G01X176371000Y14077000D02*
Y14577000D01*
X176580000D01*
X176646000Y14552000D01*
X176688000Y14519000D01*
X176705000Y14452000D01*
X176688000Y14385000D01*
X176638000Y14344000D01*
X176580000Y14319000D01*
X176371000D01*
G01X176580000D02*
X176705000Y14077000D01*
G01X176938000Y14577000D02*
X177138000D01*
G01X177038000D02*
Y14077000D01*
G01X176938000D02*
X177138000D01*
G01X177721000Y14535000D02*
X177671000Y14560000D01*
X177613000Y14577000D01*
X177546000D01*
X177471000Y14552000D01*
X177413000Y14510000D01*
X177371000Y14460000D01*
X177338000Y14377000D01*
X177330000Y14302000D01*
X177346000Y14227000D01*
X177371000Y14177000D01*
X177421000Y14127000D01*
X177480000Y14094000D01*
X177538000Y14077000D01*
X177596000D01*
X177655000Y14094000D01*
X177705000Y14119000D01*
X177746000Y14152000D01*
G01X178430000Y14244000D02*
X178646000D01*
G01X179380000Y14077000D02*
Y14577000D01*
X179696000D01*
G01X179580000Y14335000D02*
X179380000D01*
G01X179871000Y14077000D02*
Y14577000D01*
X180080000D01*
X180146000Y14552000D01*
X180188000Y14519000D01*
X180205000Y14452000D01*
X180188000Y14385000D01*
X180138000Y14344000D01*
X180080000Y14319000D01*
X179871000D01*
G01X180080000D02*
X180205000Y14077000D01*
G01X180430000Y14244000D02*
X180646000D01*
G01X181138000Y14077000D02*
Y14577000D01*
X180830000Y14219000D01*
X181246000D01*
G01X182038000Y14577000D02*
X181971000Y14560000D01*
X181921000Y14519000D01*
X181888000Y14469000D01*
X181863000Y14402000D01*
X181855000Y14327000D01*
X181863000Y14252000D01*
X181888000Y14185000D01*
X181921000Y14135000D01*
X181971000Y14094000D01*
X182038000Y14077000D01*
X182105000Y14094000D01*
X182155000Y14135000D01*
X182188000Y14185000D01*
X182213000Y14252000D01*
X182221000Y14327000D01*
X182213000Y14402000D01*
X182188000Y14469000D01*
X182155000Y14519000D01*
X182105000Y14560000D01*
X182038000Y14577000D01*
G01X182538000Y14060000D02*
X182521000Y14069000D01*
Y14085000D01*
X182538000Y14094000D01*
X182555000Y14085000D01*
Y14069000D01*
X182538000Y14060000D01*
G01X182880000Y14494000D02*
X182930000Y14544000D01*
X182988000Y14569000D01*
X183055000Y14577000D01*
X183138000Y14560000D01*
X183196000Y14519000D01*
X183213000Y14469000D01*
X183205000Y14419000D01*
X183171000Y14377000D01*
X183005000Y14294000D01*
X182930000Y14235000D01*
X182880000Y14152000D01*
X182863000Y14077000D01*
X183213000D01*
G01X183538000Y14577000D02*
X183471000Y14560000D01*
X183421000Y14519000D01*
X183388000Y14469000D01*
X183363000Y14402000D01*
X183355000Y14327000D01*
X183363000Y14252000D01*
X183388000Y14185000D01*
X183421000Y14135000D01*
X183471000Y14094000D01*
X183538000Y14077000D01*
X183605000Y14094000D01*
X183655000Y14135000D01*
X183688000Y14185000D01*
X183713000Y14252000D01*
X183721000Y14327000D01*
X183713000Y14402000D01*
X183688000Y14469000D01*
X183655000Y14519000D01*
X183605000Y14560000D01*
X183538000Y14577000D01*
G01X183855000Y14177000D02*
X183905000Y14119000D01*
X183971000Y14085000D01*
X184046000Y14077000D01*
X184113000Y14085000D01*
X184180000Y14127000D01*
X184221000Y14177000D01*
X184230000Y14227000D01*
X184213000Y14285000D01*
X184155000Y14327000D01*
X184096000Y14344000D01*
X184021000D01*
G01X184096000D02*
X184146000Y14369000D01*
X184188000Y14410000D01*
X184205000Y14460000D01*
X184188000Y14510000D01*
X184146000Y14552000D01*
X184071000Y14577000D01*
X183996000Y14569000D01*
X183921000Y14535000D01*
G01X184821000Y14077000D02*
Y14577000D01*
X185038000Y14160000D01*
X185255000Y14577000D01*
Y14077000D01*
G01X185321000D02*
Y14577000D01*
X185538000Y14160000D01*
X185755000Y14577000D01*
Y14077000D01*
G01X171355000Y23431000D02*
X171721000Y23798000D01*
G01X171538000Y23865000D02*
Y23365000D01*
G01X171721000Y23431000D02*
X171355000Y23798000D01*
G01X171288000Y23615000D02*
X171788000D01*
G01X172863000Y23515000D02*
X172930000Y23473000D01*
X173005000Y23448000D01*
X173071000D01*
X173138000Y23473000D01*
X173188000Y23515000D01*
X173213000Y23573000D01*
X173196000Y23631000D01*
X173155000Y23681000D01*
X173080000Y23715000D01*
X172980000Y23731000D01*
X172921000Y23765000D01*
X172896000Y23823000D01*
X172913000Y23881000D01*
X172955000Y23923000D01*
X173013000Y23948000D01*
X173071000D01*
X173130000Y23931000D01*
X173180000Y23890000D01*
G01X173355000Y23948000D02*
Y23590000D01*
X173388000Y23515000D01*
X173455000Y23465000D01*
X173538000Y23448000D01*
X173621000Y23465000D01*
X173688000Y23515000D01*
X173721000Y23590000D01*
Y23948000D01*
G01X173871000Y23448000D02*
Y23948000D01*
X174080000D01*
X174146000Y23923000D01*
X174188000Y23890000D01*
X174205000Y23823000D01*
X174188000Y23756000D01*
X174138000Y23715000D01*
X174080000Y23690000D01*
X173871000D01*
G01X174080000D02*
X174205000Y23448000D01*
G01X174380000D02*
Y23948000D01*
X174696000D01*
G01X174580000Y23706000D02*
X174380000D01*
G01X174830000Y23448000D02*
X175038000Y23948000D01*
X175246000Y23448000D01*
G01X175171000Y23623000D02*
X174905000D01*
G01X175721000Y23906000D02*
X175671000Y23931000D01*
X175613000Y23948000D01*
X175546000D01*
X175471000Y23923000D01*
X175413000Y23881000D01*
X175371000Y23831000D01*
X175338000Y23748000D01*
X175330000Y23673000D01*
X175346000Y23598000D01*
X175371000Y23548000D01*
X175421000Y23498000D01*
X175480000Y23465000D01*
X175538000Y23448000D01*
X175596000D01*
X175655000Y23465000D01*
X175705000Y23490000D01*
X175746000Y23523000D01*
G01X176205000Y23448000D02*
X175871000D01*
Y23948000D01*
X176205000D01*
G01X176071000Y23706000D02*
X175871000D01*
G01X176930000Y23615000D02*
X177146000D01*
G01X177830000Y23448000D02*
X178038000Y23948000D01*
X178246000Y23448000D01*
G01X178171000Y23623000D02*
X177905000D01*
G01X178438000Y23948000D02*
X178638000D01*
G01X178538000D02*
Y23448000D01*
G01X178438000D02*
X178638000D01*
G01X178871000D02*
Y23948000D01*
X179080000D01*
X179146000Y23923000D01*
X179188000Y23890000D01*
X179205000Y23823000D01*
X179188000Y23756000D01*
X179138000Y23715000D01*
X179080000Y23690000D01*
X178871000D01*
G01X179080000D02*
X179205000Y23448000D01*
G01X180038000Y23948000D02*
X179971000Y23931000D01*
X179921000Y23890000D01*
X179888000Y23840000D01*
X179863000Y23773000D01*
X179855000Y23698000D01*
X179863000Y23623000D01*
X179888000Y23556000D01*
X179921000Y23506000D01*
X179971000Y23465000D01*
X180038000Y23448000D01*
X180105000Y23465000D01*
X180155000Y23506000D01*
X180188000Y23556000D01*
X180213000Y23623000D01*
X180221000Y23698000D01*
X180213000Y23773000D01*
X180188000Y23840000D01*
X180155000Y23890000D01*
X180105000Y23931000D01*
X180038000Y23948000D01*
G01X180821000Y23448000D02*
Y23948000D01*
X181038000Y23531000D01*
X181255000Y23948000D01*
Y23448000D01*
G01X181321000D02*
Y23948000D01*
X181538000Y23531000D01*
X181755000Y23948000D01*
Y23448000D01*
G01X170371000Y22732000D02*
Y22232000D01*
X170705000D01*
G01X171038000D02*
Y22732000D01*
X170938000Y22632000D01*
G01Y22232000D02*
X171138000D01*
G01X171538000Y22215000D02*
X171521000Y22224000D01*
Y22240000D01*
X171538000Y22249000D01*
X171555000Y22240000D01*
Y22224000D01*
X171538000Y22215000D01*
G01Y22440000D02*
X171521000Y22449000D01*
Y22465000D01*
X171538000Y22474000D01*
X171555000Y22465000D01*
Y22449000D01*
X171538000Y22440000D01*
G01X172538000Y22732000D02*
Y22232000D01*
G01X172346000Y22732000D02*
X172730000D01*
G01X173038000Y22232000D02*
X172971000Y22240000D01*
X172913000Y22274000D01*
X172863000Y22324000D01*
X172830000Y22382000D01*
X172813000Y22449000D01*
Y22515000D01*
X172830000Y22582000D01*
X172863000Y22640000D01*
X172913000Y22690000D01*
X172971000Y22724000D01*
X173038000Y22732000D01*
X173105000Y22724000D01*
X173163000Y22690000D01*
X173213000Y22640000D01*
X173246000Y22582000D01*
X173263000Y22515000D01*
Y22449000D01*
X173246000Y22382000D01*
X173213000Y22324000D01*
X173163000Y22274000D01*
X173105000Y22240000D01*
X173038000Y22232000D01*
G01X173371000D02*
Y22732000D01*
X173571000D01*
X173638000Y22707000D01*
X173688000Y22649000D01*
X173705000Y22582000D01*
X173688000Y22515000D01*
X173646000Y22465000D01*
X173571000Y22440000D01*
X173371000D01*
G01X174721000Y22690000D02*
X174671000Y22715000D01*
X174613000Y22732000D01*
X174546000D01*
X174471000Y22707000D01*
X174413000Y22665000D01*
X174371000Y22615000D01*
X174338000Y22532000D01*
X174330000Y22457000D01*
X174346000Y22382000D01*
X174371000Y22332000D01*
X174421000Y22282000D01*
X174480000Y22249000D01*
X174538000Y22232000D01*
X174596000D01*
X174655000Y22249000D01*
X174705000Y22274000D01*
X174746000Y22307000D01*
G01X175038000Y22232000D02*
X174971000Y22240000D01*
X174913000Y22274000D01*
X174863000Y22324000D01*
X174830000Y22382000D01*
X174813000Y22449000D01*
Y22515000D01*
X174830000Y22582000D01*
X174863000Y22640000D01*
X174913000Y22690000D01*
X174971000Y22724000D01*
X175038000Y22732000D01*
X175105000Y22724000D01*
X175163000Y22690000D01*
X175213000Y22640000D01*
X175246000Y22582000D01*
X175263000Y22515000D01*
Y22449000D01*
X175246000Y22382000D01*
X175213000Y22324000D01*
X175163000Y22274000D01*
X175105000Y22240000D01*
X175038000Y22232000D01*
G01X175346000D02*
Y22732000D01*
X175730000Y22232000D01*
Y22732000D01*
G01X175855000Y22232000D02*
Y22732000D01*
X176021000D01*
X176088000Y22707000D01*
X176138000Y22674000D01*
X176180000Y22624000D01*
X176213000Y22565000D01*
X176221000Y22482000D01*
X176213000Y22399000D01*
X176180000Y22340000D01*
X176138000Y22290000D01*
X176088000Y22257000D01*
X176021000Y22232000D01*
X175855000D01*
G01X176355000Y22732000D02*
Y22374000D01*
X176388000Y22299000D01*
X176455000Y22249000D01*
X176538000Y22232000D01*
X176621000Y22249000D01*
X176688000Y22299000D01*
X176721000Y22374000D01*
Y22732000D01*
G01X177221000Y22690000D02*
X177171000Y22715000D01*
X177113000Y22732000D01*
X177046000D01*
X176971000Y22707000D01*
X176913000Y22665000D01*
X176871000Y22615000D01*
X176838000Y22532000D01*
X176830000Y22457000D01*
X176846000Y22382000D01*
X176871000Y22332000D01*
X176921000Y22282000D01*
X176980000Y22249000D01*
X177038000Y22232000D01*
X177096000D01*
X177155000Y22249000D01*
X177205000Y22274000D01*
X177246000Y22307000D01*
G01X177538000Y22732000D02*
Y22232000D01*
G01X177346000Y22732000D02*
X177730000D01*
G01X178038000Y22232000D02*
X177971000Y22240000D01*
X177913000Y22274000D01*
X177863000Y22324000D01*
X177830000Y22382000D01*
X177813000Y22449000D01*
Y22515000D01*
X177830000Y22582000D01*
X177863000Y22640000D01*
X177913000Y22690000D01*
X177971000Y22724000D01*
X178038000Y22732000D01*
X178105000Y22724000D01*
X178163000Y22690000D01*
X178213000Y22640000D01*
X178246000Y22582000D01*
X178263000Y22515000D01*
Y22449000D01*
X178246000Y22382000D01*
X178213000Y22324000D01*
X178163000Y22274000D01*
X178105000Y22240000D01*
X178038000Y22232000D01*
G01X178371000D02*
Y22732000D01*
X178580000D01*
X178646000Y22707000D01*
X178688000Y22674000D01*
X178705000Y22607000D01*
X178688000Y22540000D01*
X178638000Y22499000D01*
X178580000Y22474000D01*
X178371000D01*
G01X178580000D02*
X178705000Y22232000D01*
G01X179430000Y22399000D02*
X179646000D01*
G01X180721000Y22690000D02*
X180671000Y22715000D01*
X180613000Y22732000D01*
X180546000D01*
X180471000Y22707000D01*
X180413000Y22665000D01*
X180371000Y22615000D01*
X180338000Y22532000D01*
X180330000Y22457000D01*
X180346000Y22382000D01*
X180371000Y22332000D01*
X180421000Y22282000D01*
X180480000Y22249000D01*
X180538000Y22232000D01*
X180596000D01*
X180655000Y22249000D01*
X180705000Y22274000D01*
X180746000Y22307000D01*
G01X181038000Y22232000D02*
X180971000Y22240000D01*
X180913000Y22274000D01*
X180863000Y22324000D01*
X180830000Y22382000D01*
X180813000Y22449000D01*
Y22515000D01*
X180830000Y22582000D01*
X180863000Y22640000D01*
X180913000Y22690000D01*
X180971000Y22724000D01*
X181038000Y22732000D01*
X181105000Y22724000D01*
X181163000Y22690000D01*
X181213000Y22640000D01*
X181246000Y22582000D01*
X181263000Y22515000D01*
Y22449000D01*
X181246000Y22382000D01*
X181213000Y22324000D01*
X181163000Y22274000D01*
X181105000Y22240000D01*
X181038000Y22232000D01*
G01X181371000D02*
Y22732000D01*
X181571000D01*
X181638000Y22707000D01*
X181688000Y22649000D01*
X181705000Y22582000D01*
X181688000Y22515000D01*
X181646000Y22465000D01*
X181571000Y22440000D01*
X181371000D01*
G01X181871000Y22232000D02*
Y22732000D01*
X182071000D01*
X182138000Y22707000D01*
X182188000Y22649000D01*
X182205000Y22582000D01*
X182188000Y22515000D01*
X182146000Y22465000D01*
X182071000Y22440000D01*
X181871000D01*
G01X182705000Y22232000D02*
X182371000D01*
Y22732000D01*
X182705000D01*
G01X182571000Y22490000D02*
X182371000D01*
G01X182871000Y22232000D02*
Y22732000D01*
X183080000D01*
X183146000Y22707000D01*
X183188000Y22674000D01*
X183205000Y22607000D01*
X183188000Y22540000D01*
X183138000Y22499000D01*
X183080000Y22474000D01*
X182871000D01*
G01X183080000D02*
X183205000Y22232000D01*
G01X184038000Y22732000D02*
X183971000Y22715000D01*
X183921000Y22674000D01*
X183888000Y22624000D01*
X183863000Y22557000D01*
X183855000Y22482000D01*
X183863000Y22407000D01*
X183888000Y22340000D01*
X183921000Y22290000D01*
X183971000Y22249000D01*
X184038000Y22232000D01*
X184105000Y22249000D01*
X184155000Y22290000D01*
X184188000Y22340000D01*
X184213000Y22407000D01*
X184221000Y22482000D01*
X184213000Y22557000D01*
X184188000Y22624000D01*
X184155000Y22674000D01*
X184105000Y22715000D01*
X184038000Y22732000D01*
G01X184538000Y22215000D02*
X184521000Y22224000D01*
Y22240000D01*
X184538000Y22249000D01*
X184555000Y22240000D01*
Y22224000D01*
X184538000Y22215000D01*
G01X185038000Y22732000D02*
X184971000Y22715000D01*
X184921000Y22674000D01*
X184888000Y22624000D01*
X184863000Y22557000D01*
X184855000Y22482000D01*
X184863000Y22407000D01*
X184888000Y22340000D01*
X184921000Y22290000D01*
X184971000Y22249000D01*
X185038000Y22232000D01*
X185105000Y22249000D01*
X185155000Y22290000D01*
X185188000Y22340000D01*
X185213000Y22407000D01*
X185221000Y22482000D01*
X185213000Y22557000D01*
X185188000Y22624000D01*
X185155000Y22674000D01*
X185105000Y22715000D01*
X185038000Y22732000D01*
G01X185355000Y22332000D02*
X185405000Y22274000D01*
X185471000Y22240000D01*
X185546000Y22232000D01*
X185613000Y22240000D01*
X185680000Y22282000D01*
X185721000Y22332000D01*
X185730000Y22382000D01*
X185713000Y22440000D01*
X185655000Y22482000D01*
X185596000Y22499000D01*
X185521000D01*
G01X185596000D02*
X185646000Y22524000D01*
X185688000Y22565000D01*
X185705000Y22615000D01*
X185688000Y22665000D01*
X185646000Y22707000D01*
X185571000Y22732000D01*
X185496000Y22724000D01*
X185421000Y22690000D01*
G01X186321000Y22232000D02*
Y22732000D01*
X186538000Y22315000D01*
X186755000Y22732000D01*
Y22232000D01*
G01X186821000D02*
Y22732000D01*
X187038000Y22315000D01*
X187255000Y22732000D01*
Y22232000D01*
G01X-22260000Y-59148000D02*
Y32118000D01*
X25440000D01*
Y-59148000D01*
X-22260000D01*
G01X29574000Y-43700000D02*
Y29574000D01*
X152384000D01*
Y-43700000D01*
X29574000D01*
G01Y-36200000D02*
X152384000D01*
G01X29574000Y-28700000D02*
X152384000D01*
G01X29574000Y-21200000D02*
X152384000D01*
G01X29574000Y-13700000D02*
X152384000D01*
G01X29574000Y-6200000D02*
X152384000D01*
G01X29574000Y1300000D02*
X152384000D01*
G01X29574000Y8800000D02*
X152384000D01*
G01X29574000Y15937000D02*
X152384000D01*
G01X29574000Y23074000D02*
X152384000D01*
G01X32368000Y11175000D02*
Y14350000D01*
X33864000D01*
G01X33313000Y12815000D02*
X32368000D01*
G01X35793000Y14350000D02*
X36737000D01*
G01X36265000D02*
Y11175000D01*
G01X35793000D02*
X36737000D01*
G01X39650000Y12762000D02*
X40438000D01*
Y11810000D01*
X40201000Y11492000D01*
X39926000Y11281000D01*
X39532000Y11175000D01*
X39138000Y11281000D01*
X38863000Y11492000D01*
X38627000Y11810000D01*
X38469000Y12180000D01*
X38390000Y12604000D01*
Y12974000D01*
X38469000Y13292000D01*
X38627000Y13662000D01*
X38863000Y13980000D01*
X39099000Y14191000D01*
X39414000Y14350000D01*
X39690000D01*
X40004000Y14244000D01*
X40241000Y14032000D01*
G01X41697000Y14350000D02*
Y12075000D01*
X41854000Y11598000D01*
X42169000Y11281000D01*
X42563000Y11175000D01*
X42957000Y11281000D01*
X43272000Y11598000D01*
X43429000Y12075000D01*
Y14350000D01*
G01X44925000Y11175000D02*
Y14350000D01*
X45909000D01*
X46224000Y14191000D01*
X46421000Y13980000D01*
X46499000Y13556000D01*
X46421000Y13133000D01*
X46184000Y12868000D01*
X45909000Y12710000D01*
X44925000D01*
G01X45909000D02*
X46499000Y11175000D01*
G01X49648000D02*
X48074000D01*
Y14350000D01*
X49648000D01*
G01X49018000Y12815000D02*
X48074000D01*
G01X52404000Y15937000D02*
Y-43700000D01*
G01X47483000Y18312000D02*
X48467000Y21487000D01*
X49451000Y18312000D01*
G01X49097000Y19423000D02*
X47837000D01*
G01X50829000Y21487000D02*
Y18312000D01*
X52403000D01*
G01X53978000Y21487000D02*
Y18312000D01*
X55552000D01*
G01X60197000Y21487000D02*
Y19212000D01*
X60354000Y18735000D01*
X60669000Y18418000D01*
X61063000Y18312000D01*
X61457000Y18418000D01*
X61772000Y18735000D01*
X61929000Y19212000D01*
Y21487000D01*
G01X63307000Y18312000D02*
Y21487000D01*
X65117000Y18312000D01*
Y21487000D01*
G01X66889000D02*
X67833000D01*
G01X67361000D02*
Y18312000D01*
G01X66889000D02*
X67833000D01*
G01X70510000Y21487000D02*
Y18312000D01*
G01X69605000Y21487000D02*
X71415000D01*
G01X72832000Y18735000D02*
X73147000Y18471000D01*
X73502000Y18312000D01*
X73816000D01*
X74131000Y18471000D01*
X74368000Y18735000D01*
X74486000Y19106000D01*
X74407000Y19476000D01*
X74210000Y19794000D01*
X73856000Y20005000D01*
X73383000Y20111000D01*
X73108000Y20323000D01*
X72990000Y20693000D01*
X73069000Y21064000D01*
X73265000Y21328000D01*
X73541000Y21487000D01*
X73816000D01*
X74092000Y21381000D01*
X74328000Y21117000D01*
G01X78973000Y18312000D02*
X79957000Y21487000D01*
X80941000Y18312000D01*
G01X80587000Y19423000D02*
X79327000D01*
G01X82319000Y18312000D02*
Y21487000D01*
X83303000D01*
X83618000Y21328000D01*
X83815000Y21117000D01*
X83893000Y20693000D01*
X83815000Y20270000D01*
X83578000Y20005000D01*
X83303000Y19847000D01*
X82319000D01*
G01X83303000D02*
X83893000Y18312000D01*
G01X87042000D02*
X85468000D01*
Y21487000D01*
X87042000D01*
G01X86412000Y19952000D02*
X85468000D01*
G01X92081000Y21487000D02*
X93025000D01*
G01X92553000D02*
Y18312000D01*
G01X92081000D02*
X93025000D01*
G01X94797000D02*
Y21487000D01*
X96607000Y18312000D01*
Y21487000D01*
G01X100976000Y18312000D02*
Y21487000D01*
X102000000Y18841000D01*
X103024000Y21487000D01*
Y18312000D01*
G01X104677000Y21487000D02*
X105621000D01*
G01X105149000D02*
Y18312000D01*
G01X104677000D02*
X105621000D01*
G01X107511000Y21487000D02*
Y18312000D01*
X109085000D01*
G01X110660000Y21487000D02*
Y18312000D01*
X112234000D01*
G01X114124000Y21487000D02*
X115068000D01*
G01X114596000D02*
Y18312000D01*
G01X114124000D02*
X115068000D01*
G01X116721000D02*
Y21487000D01*
X117745000Y18841000D01*
X118769000Y21487000D01*
Y18312000D01*
G01X121681000D02*
X120107000D01*
Y21487000D01*
X121681000D01*
G01X121051000Y19952000D02*
X120107000D01*
G01X124043000Y21487000D02*
Y18312000D01*
G01X123138000Y21487000D02*
X124948000D01*
G01X127979000Y18312000D02*
X126405000D01*
Y21487000D01*
X127979000D01*
G01X127349000Y19952000D02*
X126405000D01*
G01X129554000Y18312000D02*
Y21487000D01*
X130538000D01*
X130853000Y21328000D01*
X131050000Y21117000D01*
X131128000Y20693000D01*
X131050000Y20270000D01*
X130813000Y20005000D01*
X130538000Y19847000D01*
X129554000D01*
G01X130538000D02*
X131128000Y18312000D01*
G01X132663000Y18735000D02*
X132978000Y18471000D01*
X133333000Y18312000D01*
X133647000D01*
X133962000Y18471000D01*
X134199000Y18735000D01*
X134317000Y19106000D01*
X134238000Y19476000D01*
X134041000Y19794000D01*
X133687000Y20005000D01*
X133214000Y20111000D01*
X132939000Y20323000D01*
X132821000Y20693000D01*
X132900000Y21064000D01*
X133096000Y21328000D01*
X133372000Y21487000D01*
X133647000D01*
X133923000Y21381000D01*
X134159000Y21117000D01*
G01X50750000Y24812000D02*
Y27987000D01*
X51537000D01*
X51852000Y27828000D01*
X52088000Y27617000D01*
X52285000Y27299000D01*
X52443000Y26929000D01*
X52482000Y26399000D01*
X52443000Y25870000D01*
X52285000Y25500000D01*
X52088000Y25182000D01*
X51852000Y24971000D01*
X51537000Y24812000D01*
X50750000D01*
G01X53978000D02*
Y27987000D01*
X54962000D01*
X55277000Y27828000D01*
X55474000Y27617000D01*
X55552000Y27193000D01*
X55474000Y26770000D01*
X55237000Y26505000D01*
X54962000Y26347000D01*
X53978000D01*
G01X54962000D02*
X55552000Y24812000D01*
G01X57442000Y27987000D02*
X58386000D01*
G01X57914000D02*
Y24812000D01*
G01X57442000D02*
X58386000D01*
G01X60276000Y27987000D02*
Y24812000D01*
X61850000D01*
G01X63425000Y27987000D02*
Y24812000D01*
X64999000D01*
G01X71376000Y27722000D02*
X71140000Y27881000D01*
X70864000Y27987000D01*
X70549000D01*
X70195000Y27828000D01*
X69920000Y27564000D01*
X69723000Y27246000D01*
X69565000Y26717000D01*
X69526000Y26241000D01*
X69605000Y25764000D01*
X69723000Y25447000D01*
X69959000Y25129000D01*
X70234000Y24918000D01*
X70510000Y24812000D01*
X70786000D01*
X71061000Y24918000D01*
X71297000Y25077000D01*
X71494000Y25288000D01*
G01X72832000Y24812000D02*
Y27987000D01*
G01X74486000D02*
Y24812000D01*
G01Y26399000D02*
X72832000D01*
G01X75824000Y24812000D02*
X76808000Y27987000D01*
X77792000Y24812000D01*
G01X77438000Y25923000D02*
X76178000D01*
G01X79170000Y24812000D02*
Y27987000D01*
X80154000D01*
X80469000Y27828000D01*
X80666000Y27617000D01*
X80744000Y27193000D01*
X80666000Y26770000D01*
X80429000Y26505000D01*
X80154000Y26347000D01*
X79170000D01*
G01X80154000D02*
X80744000Y24812000D01*
G01X83106000Y27987000D02*
Y24812000D01*
G01X82201000Y27987000D02*
X84011000D01*
G01X86255000Y24706000D02*
X86176000Y24759000D01*
Y24865000D01*
X86255000Y24918000D01*
X86334000Y24865000D01*
Y24759000D01*
X86255000Y24706000D01*
G01Y26135000D02*
X86176000Y26188000D01*
Y26294000D01*
X86255000Y26347000D01*
X86334000Y26294000D01*
Y26188000D01*
X86255000Y26135000D01*
G01X92553000Y27987000D02*
Y24812000D01*
G01X91648000Y27987000D02*
X93458000D01*
G01X95702000Y24812000D02*
X95387000Y24865000D01*
X95112000Y25077000D01*
X94875000Y25394000D01*
X94718000Y25764000D01*
X94639000Y26188000D01*
Y26611000D01*
X94718000Y27035000D01*
X94875000Y27405000D01*
X95112000Y27722000D01*
X95387000Y27934000D01*
X95702000Y27987000D01*
X96017000Y27934000D01*
X96292000Y27722000D01*
X96529000Y27405000D01*
X96686000Y27035000D01*
X96765000Y26611000D01*
Y26188000D01*
X96686000Y25764000D01*
X96529000Y25394000D01*
X96292000Y25077000D01*
X96017000Y24865000D01*
X95702000Y24812000D01*
G01X98064000D02*
Y27987000D01*
X99008000D01*
X99323000Y27828000D01*
X99560000Y27458000D01*
X99638000Y27035000D01*
X99560000Y26611000D01*
X99363000Y26294000D01*
X99008000Y26135000D01*
X98064000D01*
G01X105149000Y27987000D02*
Y24812000D01*
G01X104598000Y26929000D02*
X105700000D01*
G01X108298000Y24812000D02*
X108062000Y24865000D01*
X107826000Y25077000D01*
X107668000Y25447000D01*
X107589000Y25870000D01*
X107668000Y26294000D01*
X107826000Y26664000D01*
X108062000Y26876000D01*
X108298000Y26929000D01*
X108534000Y26876000D01*
X108770000Y26664000D01*
X108928000Y26294000D01*
X108967000Y25870000D01*
X108928000Y25447000D01*
X108770000Y25077000D01*
X108534000Y24865000D01*
X108298000Y24812000D01*
G01X114911000Y26505000D02*
X115068000Y26664000D01*
X115186000Y26929000D01*
X115265000Y27299000D01*
X115186000Y27617000D01*
X115029000Y27828000D01*
X114753000Y27987000D01*
X113691000D01*
Y24812000D01*
X114990000D01*
X115265000Y25024000D01*
X115423000Y25341000D01*
X115501000Y25712000D01*
X115423000Y26082000D01*
X115186000Y26399000D01*
X114911000Y26505000D01*
X113691000D01*
G01X117745000Y24812000D02*
X117430000Y24865000D01*
X117155000Y25077000D01*
X116918000Y25394000D01*
X116761000Y25764000D01*
X116682000Y26188000D01*
Y26611000D01*
X116761000Y27035000D01*
X116918000Y27405000D01*
X117155000Y27722000D01*
X117430000Y27934000D01*
X117745000Y27987000D01*
X118060000Y27934000D01*
X118335000Y27722000D01*
X118572000Y27405000D01*
X118729000Y27035000D01*
X118808000Y26611000D01*
Y26188000D01*
X118729000Y25764000D01*
X118572000Y25394000D01*
X118335000Y25077000D01*
X118060000Y24865000D01*
X117745000Y24812000D01*
G01X120894000Y27987000D02*
Y24812000D01*
G01X119989000Y27987000D02*
X121799000D01*
G01X124043000D02*
Y24812000D01*
G01X123138000Y27987000D02*
X124948000D01*
G01X127192000Y24812000D02*
X126877000Y24865000D01*
X126602000Y25077000D01*
X126365000Y25394000D01*
X126208000Y25764000D01*
X126129000Y26188000D01*
Y26611000D01*
X126208000Y27035000D01*
X126365000Y27405000D01*
X126602000Y27722000D01*
X126877000Y27934000D01*
X127192000Y27987000D01*
X127507000Y27934000D01*
X127782000Y27722000D01*
X128019000Y27405000D01*
X128176000Y27035000D01*
X128255000Y26611000D01*
Y26188000D01*
X128176000Y25764000D01*
X128019000Y25394000D01*
X127782000Y25077000D01*
X127507000Y24865000D01*
X127192000Y24812000D01*
G01X129317000D02*
Y27987000D01*
X130341000Y25341000D01*
X131365000Y27987000D01*
Y24812000D01*
G01X62953000Y-40903000D02*
X63189000Y-41273000D01*
X63504000Y-41485000D01*
X63858000Y-41538000D01*
X64173000Y-41485000D01*
X64488000Y-41221000D01*
X64685000Y-40903000D01*
X64724000Y-40586000D01*
X64646000Y-40215000D01*
X64370000Y-39951000D01*
X64095000Y-39845000D01*
X63740000D01*
G01X64095000D02*
X64331000Y-39686000D01*
X64528000Y-39421000D01*
X64606000Y-39104000D01*
X64528000Y-38786000D01*
X64331000Y-38522000D01*
X63976000Y-38363000D01*
X63622000Y-38416000D01*
X63268000Y-38628000D01*
G01X66968000Y-41644000D02*
X66889000Y-41591000D01*
Y-41485000D01*
X66968000Y-41432000D01*
X67047000Y-41485000D01*
Y-41591000D01*
X66968000Y-41644000D01*
G01X70117000Y-38363000D02*
X69802000Y-38469000D01*
X69566000Y-38733000D01*
X69408000Y-39051000D01*
X69290000Y-39474000D01*
X69251000Y-39951000D01*
X69290000Y-40427000D01*
X69408000Y-40850000D01*
X69566000Y-41168000D01*
X69802000Y-41432000D01*
X70117000Y-41538000D01*
X70432000Y-41432000D01*
X70668000Y-41168000D01*
X70826000Y-40850000D01*
X70944000Y-40427000D01*
X70983000Y-39951000D01*
X70944000Y-39474000D01*
X70826000Y-39051000D01*
X70668000Y-38733000D01*
X70432000Y-38469000D01*
X70117000Y-38363000D01*
G01X72400000Y-41062000D02*
X72636000Y-41326000D01*
X72912000Y-41485000D01*
X73266000Y-41538000D01*
X73620000Y-41432000D01*
X73896000Y-41221000D01*
X74093000Y-40850000D01*
X74132000Y-40427000D01*
X74053000Y-40003000D01*
X73856000Y-39739000D01*
X73581000Y-39527000D01*
X73305000Y-39474000D01*
X73030000Y-39527000D01*
X72676000Y-39739000D01*
X72794000Y-38363000D01*
X73856000D01*
G01X75825000Y-39421000D02*
X77005000Y-41538000D01*
G01Y-39421000D02*
X75825000Y-41538000D01*
G01X79564000Y-38363000D02*
X79249000Y-38469000D01*
X79013000Y-38733000D01*
X78855000Y-39051000D01*
X78737000Y-39474000D01*
X78698000Y-39951000D01*
X78737000Y-40427000D01*
X78855000Y-40850000D01*
X79013000Y-41168000D01*
X79249000Y-41432000D01*
X79564000Y-41538000D01*
X79879000Y-41432000D01*
X80115000Y-41168000D01*
X80273000Y-40850000D01*
X80391000Y-40427000D01*
X80430000Y-39951000D01*
X80391000Y-39474000D01*
X80273000Y-39051000D01*
X80115000Y-38733000D01*
X79879000Y-38469000D01*
X79564000Y-38363000D01*
G01X82713000Y-41644000D02*
X82634000Y-41591000D01*
Y-41485000D01*
X82713000Y-41432000D01*
X82792000Y-41485000D01*
Y-41591000D01*
X82713000Y-41644000D01*
G01X85783000Y-41538000D02*
X85862000Y-40850000D01*
X85980000Y-40268000D01*
X86138000Y-39739000D01*
X86334000Y-39157000D01*
X86649000Y-38363000D01*
X85075000D01*
G01X88263000Y-40215000D02*
X88539000Y-39845000D01*
X88775000Y-39633000D01*
X89090000Y-39527000D01*
X89365000Y-39633000D01*
X89562000Y-39845000D01*
X89720000Y-40162000D01*
X89759000Y-40533000D01*
X89720000Y-40850000D01*
X89562000Y-41168000D01*
X89326000Y-41432000D01*
X89050000Y-41538000D01*
X88735000Y-41432000D01*
X88460000Y-41115000D01*
X88302000Y-40638000D01*
X88263000Y-40109000D01*
X88342000Y-39421000D01*
X88460000Y-39051000D01*
X88657000Y-38681000D01*
X88932000Y-38416000D01*
X89208000Y-38363000D01*
X89483000Y-38469000D01*
X89680000Y-38733000D01*
G01X62953000Y-33403000D02*
X63189000Y-33773000D01*
X63504000Y-33985000D01*
X63858000Y-34038000D01*
X64173000Y-33985000D01*
X64488000Y-33721000D01*
X64685000Y-33403000D01*
X64724000Y-33086000D01*
X64646000Y-32715000D01*
X64370000Y-32451000D01*
X64095000Y-32345000D01*
X63740000D01*
G01X64095000D02*
X64331000Y-32186000D01*
X64528000Y-31921000D01*
X64606000Y-31604000D01*
X64528000Y-31286000D01*
X64331000Y-31022000D01*
X63976000Y-30863000D01*
X63622000Y-30916000D01*
X63268000Y-31128000D01*
G01X66968000Y-34144000D02*
X66889000Y-34091000D01*
Y-33985000D01*
X66968000Y-33932000D01*
X67047000Y-33985000D01*
Y-34091000D01*
X66968000Y-34144000D01*
G01X70117000Y-30863000D02*
X69802000Y-30969000D01*
X69566000Y-31233000D01*
X69408000Y-31551000D01*
X69290000Y-31974000D01*
X69251000Y-32451000D01*
X69290000Y-32927000D01*
X69408000Y-33350000D01*
X69566000Y-33668000D01*
X69802000Y-33932000D01*
X70117000Y-34038000D01*
X70432000Y-33932000D01*
X70668000Y-33668000D01*
X70826000Y-33350000D01*
X70944000Y-32927000D01*
X70983000Y-32451000D01*
X70944000Y-31974000D01*
X70826000Y-31551000D01*
X70668000Y-31233000D01*
X70432000Y-30969000D01*
X70117000Y-30863000D01*
G01X72400000Y-33562000D02*
X72636000Y-33826000D01*
X72912000Y-33985000D01*
X73266000Y-34038000D01*
X73620000Y-33932000D01*
X73896000Y-33721000D01*
X74093000Y-33350000D01*
X74132000Y-32927000D01*
X74053000Y-32503000D01*
X73856000Y-32239000D01*
X73581000Y-32027000D01*
X73305000Y-31974000D01*
X73030000Y-32027000D01*
X72676000Y-32239000D01*
X72794000Y-30863000D01*
X73856000D01*
G01X75825000Y-31921000D02*
X77005000Y-34038000D01*
G01Y-31921000D02*
X75825000Y-34038000D01*
G01X79564000Y-30863000D02*
X79249000Y-30969000D01*
X79013000Y-31233000D01*
X78855000Y-31551000D01*
X78737000Y-31974000D01*
X78698000Y-32451000D01*
X78737000Y-32927000D01*
X78855000Y-33350000D01*
X79013000Y-33668000D01*
X79249000Y-33932000D01*
X79564000Y-34038000D01*
X79879000Y-33932000D01*
X80115000Y-33668000D01*
X80273000Y-33350000D01*
X80391000Y-32927000D01*
X80430000Y-32451000D01*
X80391000Y-31974000D01*
X80273000Y-31551000D01*
X80115000Y-31233000D01*
X79879000Y-30969000D01*
X79564000Y-30863000D01*
G01X82713000Y-34144000D02*
X82634000Y-34091000D01*
Y-33985000D01*
X82713000Y-33932000D01*
X82792000Y-33985000D01*
Y-34091000D01*
X82713000Y-34144000D01*
G01X85783000Y-34038000D02*
X85862000Y-33350000D01*
X85980000Y-32768000D01*
X86138000Y-32239000D01*
X86334000Y-31657000D01*
X86649000Y-30863000D01*
X85075000D01*
G01X88263000Y-32715000D02*
X88539000Y-32345000D01*
X88775000Y-32133000D01*
X89090000Y-32027000D01*
X89365000Y-32133000D01*
X89562000Y-32345000D01*
X89720000Y-32662000D01*
X89759000Y-33033000D01*
X89720000Y-33350000D01*
X89562000Y-33668000D01*
X89326000Y-33932000D01*
X89050000Y-34038000D01*
X88735000Y-33932000D01*
X88460000Y-33615000D01*
X88302000Y-33138000D01*
X88263000Y-32609000D01*
X88342000Y-31921000D01*
X88460000Y-31551000D01*
X88657000Y-31181000D01*
X88932000Y-30916000D01*
X89208000Y-30863000D01*
X89483000Y-30969000D01*
X89680000Y-31233000D01*
G01X73266000Y-23362000D02*
X72951000Y-23468000D01*
X72715000Y-23732000D01*
X72557000Y-24050000D01*
X72439000Y-24473000D01*
X72400000Y-24950000D01*
X72439000Y-25426000D01*
X72557000Y-25849000D01*
X72715000Y-26167000D01*
X72951000Y-26431000D01*
X73266000Y-26537000D01*
X73581000Y-26431000D01*
X73817000Y-26167000D01*
X73975000Y-25849000D01*
X74093000Y-25426000D01*
X74132000Y-24950000D01*
X74093000Y-24473000D01*
X73975000Y-24050000D01*
X73817000Y-23732000D01*
X73581000Y-23468000D01*
X73266000Y-23362000D01*
G01X76415000Y-26643000D02*
X76336000Y-26590000D01*
Y-26484000D01*
X76415000Y-26431000D01*
X76494000Y-26484000D01*
Y-26590000D01*
X76415000Y-26643000D01*
G01X78816000Y-23891000D02*
X79052000Y-23574000D01*
X79328000Y-23415000D01*
X79643000Y-23362000D01*
X80036000Y-23468000D01*
X80312000Y-23732000D01*
X80391000Y-24050000D01*
X80351000Y-24367000D01*
X80194000Y-24632000D01*
X79407000Y-25161000D01*
X79052000Y-25532000D01*
X78816000Y-26061000D01*
X78737000Y-26537000D01*
X80391000D01*
G01X70589000Y-19037000D02*
Y-15862000D01*
X69133000Y-18137000D01*
X71101000D01*
G01X73266000Y-19143000D02*
X73187000Y-19090000D01*
Y-18984000D01*
X73266000Y-18931000D01*
X73345000Y-18984000D01*
Y-19090000D01*
X73266000Y-19143000D01*
G01X75549000Y-18402000D02*
X75785000Y-18772000D01*
X76100000Y-18984000D01*
X76454000Y-19037000D01*
X76769000Y-18984000D01*
X77084000Y-18720000D01*
X77281000Y-18402000D01*
X77320000Y-18085000D01*
X77242000Y-17714000D01*
X76966000Y-17450000D01*
X76691000Y-17344000D01*
X76336000D01*
G01X76691000D02*
X76927000Y-17185000D01*
X77124000Y-16920000D01*
X77202000Y-16603000D01*
X77124000Y-16285000D01*
X76927000Y-16021000D01*
X76572000Y-15862000D01*
X76218000Y-15915000D01*
X75864000Y-16127000D01*
G01X79564000Y-15862000D02*
X79249000Y-15968000D01*
X79013000Y-16232000D01*
X78855000Y-16550000D01*
X78737000Y-16973000D01*
X78698000Y-17450000D01*
X78737000Y-17926000D01*
X78855000Y-18349000D01*
X79013000Y-18667000D01*
X79249000Y-18931000D01*
X79564000Y-19037000D01*
X79879000Y-18931000D01*
X80115000Y-18667000D01*
X80273000Y-18349000D01*
X80391000Y-17926000D01*
X80430000Y-17450000D01*
X80391000Y-16973000D01*
X80273000Y-16550000D01*
X80115000Y-16232000D01*
X79879000Y-15968000D01*
X79564000Y-15862000D01*
G01X81847000Y-18561000D02*
X82083000Y-18825000D01*
X82359000Y-18984000D01*
X82713000Y-19037000D01*
X83067000Y-18931000D01*
X83343000Y-18720000D01*
X83540000Y-18349000D01*
X83579000Y-17926000D01*
X83500000Y-17502000D01*
X83303000Y-17238000D01*
X83028000Y-17026000D01*
X82752000Y-16973000D01*
X82477000Y-17026000D01*
X82123000Y-17238000D01*
X82241000Y-15862000D01*
X83303000D01*
G01X70117000Y-11538000D02*
Y-8363000D01*
X69645000Y-8998000D01*
G01Y-11538000D02*
X70589000D01*
G01X73266000Y-11644000D02*
X73187000Y-11591000D01*
Y-11485000D01*
X73266000Y-11432000D01*
X73345000Y-11485000D01*
Y-11591000D01*
X73266000Y-11644000D01*
G01X76415000Y-8363000D02*
X76100000Y-8469000D01*
X75864000Y-8733000D01*
X75706000Y-9051000D01*
X75588000Y-9474000D01*
X75549000Y-9951000D01*
X75588000Y-10427000D01*
X75706000Y-10850000D01*
X75864000Y-11168000D01*
X76100000Y-11432000D01*
X76415000Y-11538000D01*
X76730000Y-11432000D01*
X76966000Y-11168000D01*
X77124000Y-10850000D01*
X77242000Y-10427000D01*
X77281000Y-9951000D01*
X77242000Y-9474000D01*
X77124000Y-9051000D01*
X76966000Y-8733000D01*
X76730000Y-8469000D01*
X76415000Y-8363000D01*
G01X79564000Y-11538000D02*
Y-8363000D01*
X79092000Y-8998000D01*
G01Y-11538000D02*
X80036000D01*
G01X81965000Y-10215000D02*
X82241000Y-9845000D01*
X82477000Y-9633000D01*
X82792000Y-9527000D01*
X83067000Y-9633000D01*
X83264000Y-9845000D01*
X83422000Y-10162000D01*
X83461000Y-10533000D01*
X83422000Y-10850000D01*
X83264000Y-11168000D01*
X83028000Y-11432000D01*
X82752000Y-11538000D01*
X82437000Y-11432000D01*
X82162000Y-11115000D01*
X82004000Y-10638000D01*
X81965000Y-10109000D01*
X82044000Y-9421000D01*
X82162000Y-9051000D01*
X82359000Y-8681000D01*
X82634000Y-8416000D01*
X82910000Y-8363000D01*
X83185000Y-8469000D01*
X83382000Y-8733000D01*
G01X73266000Y-862000D02*
X72951000Y-968000D01*
X72715000Y-1232000D01*
X72557000Y-1550000D01*
X72439000Y-1973000D01*
X72400000Y-2450000D01*
X72439000Y-2926000D01*
X72557000Y-3349000D01*
X72715000Y-3667000D01*
X72951000Y-3931000D01*
X73266000Y-4037000D01*
X73581000Y-3931000D01*
X73817000Y-3667000D01*
X73975000Y-3349000D01*
X74093000Y-2926000D01*
X74132000Y-2450000D01*
X74093000Y-1973000D01*
X73975000Y-1550000D01*
X73817000Y-1232000D01*
X73581000Y-968000D01*
X73266000Y-862000D01*
G01X76415000Y-4143000D02*
X76336000Y-4090000D01*
Y-3984000D01*
X76415000Y-3931000D01*
X76494000Y-3984000D01*
Y-4090000D01*
X76415000Y-4143000D01*
G01X79564000Y-4037000D02*
X79840000Y-3984000D01*
X80154000Y-3825000D01*
X80351000Y-3561000D01*
X80430000Y-3190000D01*
X80351000Y-2820000D01*
X80115000Y-2502000D01*
X79761000Y-2344000D01*
X79367000D01*
X79131000Y-2238000D01*
X78934000Y-1973000D01*
X78855000Y-1603000D01*
X78974000Y-1232000D01*
X79249000Y-968000D01*
X79564000Y-862000D01*
X79879000Y-968000D01*
X80154000Y-1232000D01*
X80273000Y-1603000D01*
X80194000Y-1973000D01*
X79997000Y-2238000D01*
X79761000Y-2344000D01*
X79367000D01*
X79013000Y-2502000D01*
X78777000Y-2820000D01*
X78698000Y-3190000D01*
X78777000Y-3561000D01*
X78974000Y-3825000D01*
X79288000Y-3984000D01*
X79564000Y-4037000D01*
G01X71691000Y6638000D02*
X71376000Y6532000D01*
X71140000Y6268000D01*
X70982000Y5950000D01*
X70864000Y5527000D01*
X70825000Y5050000D01*
X70864000Y4574000D01*
X70982000Y4151000D01*
X71140000Y3833000D01*
X71376000Y3569000D01*
X71691000Y3463000D01*
X72006000Y3569000D01*
X72242000Y3833000D01*
X72400000Y4151000D01*
X72518000Y4574000D01*
X72557000Y5050000D01*
X72518000Y5527000D01*
X72400000Y5950000D01*
X72242000Y6268000D01*
X72006000Y6532000D01*
X71691000Y6638000D01*
G01X74840000Y3357000D02*
X74761000Y3410000D01*
Y3516000D01*
X74840000Y3569000D01*
X74919000Y3516000D01*
Y3410000D01*
X74840000Y3357000D01*
G01X77123000Y4098000D02*
X77359000Y3728000D01*
X77674000Y3516000D01*
X78028000Y3463000D01*
X78343000Y3516000D01*
X78658000Y3780000D01*
X78855000Y4098000D01*
X78894000Y4415000D01*
X78816000Y4786000D01*
X78540000Y5050000D01*
X78265000Y5156000D01*
X77910000D01*
G01X78265000D02*
X78501000Y5315000D01*
X78698000Y5580000D01*
X78776000Y5897000D01*
X78698000Y6215000D01*
X78501000Y6479000D01*
X78146000Y6638000D01*
X77792000Y6585000D01*
X77438000Y6373000D01*
G01X80272000Y4098000D02*
X80508000Y3728000D01*
X80823000Y3516000D01*
X81177000Y3463000D01*
X81492000Y3516000D01*
X81807000Y3780000D01*
X82004000Y4098000D01*
X82043000Y4415000D01*
X81965000Y4786000D01*
X81689000Y5050000D01*
X81414000Y5156000D01*
X81059000D01*
G01X81414000D02*
X81650000Y5315000D01*
X81847000Y5580000D01*
X81925000Y5897000D01*
X81847000Y6215000D01*
X81650000Y6479000D01*
X81295000Y6638000D01*
X80941000Y6585000D01*
X80587000Y6373000D01*
G01X70864000Y11598000D02*
X71179000Y11334000D01*
X71534000Y11175000D01*
X71848000D01*
X72163000Y11334000D01*
X72400000Y11598000D01*
X72518000Y11969000D01*
X72439000Y12339000D01*
X72242000Y12657000D01*
X71888000Y12868000D01*
X71415000Y12974000D01*
X71140000Y13186000D01*
X71022000Y13556000D01*
X71101000Y13927000D01*
X71297000Y14191000D01*
X71573000Y14350000D01*
X71848000D01*
X72124000Y14244000D01*
X72360000Y13980000D01*
G01X74368000Y14350000D02*
X75312000D01*
G01X74840000D02*
Y11175000D01*
G01X74368000D02*
X75312000D01*
G01X77241000Y14350000D02*
X78737000D01*
X77241000Y11175000D01*
X78737000D01*
G01X81925000D02*
X80351000D01*
Y14350000D01*
X81925000D01*
G01X81295000Y12815000D02*
X80351000D01*
G01X100426000Y15937000D02*
Y-43700000D01*
G01X101488000Y-26537000D02*
Y-23362000D01*
X103298000Y-26537000D01*
Y-23362000D01*
G01X105542000Y-26537000D02*
X105227000Y-26484000D01*
X104952000Y-26272000D01*
X104715000Y-25955000D01*
X104558000Y-25585000D01*
X104479000Y-25161000D01*
Y-24738000D01*
X104558000Y-24314000D01*
X104715000Y-23944000D01*
X104952000Y-23627000D01*
X105227000Y-23415000D01*
X105542000Y-23362000D01*
X105857000Y-23415000D01*
X106132000Y-23627000D01*
X106369000Y-23944000D01*
X106526000Y-24314000D01*
X106605000Y-24738000D01*
Y-25161000D01*
X106526000Y-25585000D01*
X106369000Y-25955000D01*
X106132000Y-26272000D01*
X105857000Y-26484000D01*
X105542000Y-26537000D01*
G01X107786000D02*
Y-23362000D01*
X109596000Y-26537000D01*
Y-23362000D01*
G01X111328000Y-25479000D02*
X112352000D01*
G01X114202000Y-26537000D02*
Y-23362000D01*
X115146000D01*
X115461000Y-23521000D01*
X115698000Y-23891000D01*
X115776000Y-24314000D01*
X115698000Y-24738000D01*
X115501000Y-25055000D01*
X115146000Y-25214000D01*
X114202000D01*
G01X117351000Y-23362000D02*
Y-26537000D01*
X118925000D01*
G01X120303000D02*
X121287000Y-23362000D01*
X122271000Y-26537000D01*
G01X121917000Y-25426000D02*
X120657000D01*
G01X124436000Y-23362000D02*
Y-26537000D01*
G01X123531000Y-23362000D02*
X125341000D01*
G01X128372000Y-26537000D02*
X126798000D01*
Y-23362000D01*
X128372000D01*
G01X127742000Y-24897000D02*
X126798000D01*
G01X129868000Y-26537000D02*
Y-23362000D01*
X130655000D01*
X130970000Y-23521000D01*
X131206000Y-23732000D01*
X131403000Y-24050000D01*
X131561000Y-24420000D01*
X131600000Y-24950000D01*
X131561000Y-25479000D01*
X131403000Y-25849000D01*
X131206000Y-26167000D01*
X130970000Y-26378000D01*
X130655000Y-26537000D01*
X129868000D01*
G01X107904000Y-41538000D02*
Y-38363000D01*
X108848000D01*
X109163000Y-38522000D01*
X109400000Y-38892000D01*
X109478000Y-39315000D01*
X109400000Y-39739000D01*
X109203000Y-40056000D01*
X108848000Y-40215000D01*
X107904000D01*
G01X111053000Y-38363000D02*
Y-41538000D01*
X112627000D01*
G01X114005000D02*
X114989000Y-38363000D01*
X115973000Y-41538000D01*
G01X115619000Y-40427000D02*
X114359000D01*
G01X118138000Y-38363000D02*
Y-41538000D01*
G01X117233000Y-38363000D02*
X119043000D01*
G01X122074000Y-41538000D02*
X120500000D01*
Y-38363000D01*
X122074000D01*
G01X121444000Y-39898000D02*
X120500000D01*
G01X123570000Y-41538000D02*
Y-38363000D01*
X124357000D01*
X124672000Y-38522000D01*
X124908000Y-38733000D01*
X125105000Y-39051000D01*
X125263000Y-39421000D01*
X125302000Y-39951000D01*
X125263000Y-40480000D01*
X125105000Y-40850000D01*
X124908000Y-41168000D01*
X124672000Y-41379000D01*
X124357000Y-41538000D01*
X123570000D01*
G01X107904000Y-34038000D02*
Y-30863000D01*
X108848000D01*
X109163000Y-31022000D01*
X109400000Y-31392000D01*
X109478000Y-31815000D01*
X109400000Y-32239000D01*
X109203000Y-32556000D01*
X108848000Y-32715000D01*
X107904000D01*
G01X111053000Y-30863000D02*
Y-34038000D01*
X112627000D01*
G01X114005000D02*
X114989000Y-30863000D01*
X115973000Y-34038000D01*
G01X115619000Y-32927000D02*
X114359000D01*
G01X118138000Y-30863000D02*
Y-34038000D01*
G01X117233000Y-30863000D02*
X119043000D01*
G01X122074000Y-34038000D02*
X120500000D01*
Y-30863000D01*
X122074000D01*
G01X121444000Y-32398000D02*
X120500000D01*
G01X123570000Y-34038000D02*
Y-30863000D01*
X124357000D01*
X124672000Y-31022000D01*
X124908000Y-31233000D01*
X125105000Y-31551000D01*
X125263000Y-31921000D01*
X125302000Y-32451000D01*
X125263000Y-32980000D01*
X125105000Y-33350000D01*
X124908000Y-33668000D01*
X124672000Y-33879000D01*
X124357000Y-34038000D01*
X123570000D01*
G01X107904000Y-19037000D02*
Y-15862000D01*
X108848000D01*
X109163000Y-16021000D01*
X109400000Y-16391000D01*
X109478000Y-16814000D01*
X109400000Y-17238000D01*
X109203000Y-17555000D01*
X108848000Y-17714000D01*
X107904000D01*
G01X111053000Y-15862000D02*
Y-19037000D01*
X112627000D01*
G01X114005000D02*
X114989000Y-15862000D01*
X115973000Y-19037000D01*
G01X115619000Y-17926000D02*
X114359000D01*
G01X118138000Y-15862000D02*
Y-19037000D01*
G01X117233000Y-15862000D02*
X119043000D01*
G01X122074000Y-19037000D02*
X120500000D01*
Y-15862000D01*
X122074000D01*
G01X121444000Y-17397000D02*
X120500000D01*
G01X123570000Y-19037000D02*
Y-15862000D01*
X124357000D01*
X124672000Y-16021000D01*
X124908000Y-16232000D01*
X125105000Y-16550000D01*
X125263000Y-16920000D01*
X125302000Y-17450000D01*
X125263000Y-17979000D01*
X125105000Y-18349000D01*
X124908000Y-18667000D01*
X124672000Y-18878000D01*
X124357000Y-19037000D01*
X123570000D01*
G01X107904000Y-11538000D02*
Y-8363000D01*
X108848000D01*
X109163000Y-8522000D01*
X109400000Y-8892000D01*
X109478000Y-9315000D01*
X109400000Y-9739000D01*
X109203000Y-10056000D01*
X108848000Y-10215000D01*
X107904000D01*
G01X111053000Y-8363000D02*
Y-11538000D01*
X112627000D01*
G01X114005000D02*
X114989000Y-8363000D01*
X115973000Y-11538000D01*
G01X115619000Y-10427000D02*
X114359000D01*
G01X118138000Y-8363000D02*
Y-11538000D01*
G01X117233000Y-8363000D02*
X119043000D01*
G01X122074000Y-11538000D02*
X120500000D01*
Y-8363000D01*
X122074000D01*
G01X121444000Y-9898000D02*
X120500000D01*
G01X123570000Y-11538000D02*
Y-8363000D01*
X124357000D01*
X124672000Y-8522000D01*
X124908000Y-8733000D01*
X125105000Y-9051000D01*
X125263000Y-9421000D01*
X125302000Y-9951000D01*
X125263000Y-10480000D01*
X125105000Y-10850000D01*
X124908000Y-11168000D01*
X124672000Y-11379000D01*
X124357000Y-11538000D01*
X123570000D01*
G01X107904000Y-4037000D02*
Y-862000D01*
X108848000D01*
X109163000Y-1021000D01*
X109400000Y-1391000D01*
X109478000Y-1814000D01*
X109400000Y-2238000D01*
X109203000Y-2555000D01*
X108848000Y-2714000D01*
X107904000D01*
G01X111053000Y-862000D02*
Y-4037000D01*
X112627000D01*
G01X114005000D02*
X114989000Y-862000D01*
X115973000Y-4037000D01*
G01X115619000Y-2926000D02*
X114359000D01*
G01X118138000Y-862000D02*
Y-4037000D01*
G01X117233000Y-862000D02*
X119043000D01*
G01X122074000Y-4037000D02*
X120500000D01*
Y-862000D01*
X122074000D01*
G01X121444000Y-2397000D02*
X120500000D01*
G01X123570000Y-4037000D02*
Y-862000D01*
X124357000D01*
X124672000Y-1021000D01*
X124908000Y-1232000D01*
X125105000Y-1550000D01*
X125263000Y-1920000D01*
X125302000Y-2450000D01*
X125263000Y-2979000D01*
X125105000Y-3349000D01*
X124908000Y-3667000D01*
X124672000Y-3878000D01*
X124357000Y-4037000D01*
X123570000D01*
G01X107904000Y3463000D02*
Y6638000D01*
X108848000D01*
X109163000Y6479000D01*
X109400000Y6109000D01*
X109478000Y5686000D01*
X109400000Y5262000D01*
X109203000Y4945000D01*
X108848000Y4786000D01*
X107904000D01*
G01X111053000Y6638000D02*
Y3463000D01*
X112627000D01*
G01X114005000D02*
X114989000Y6638000D01*
X115973000Y3463000D01*
G01X115619000Y4574000D02*
X114359000D01*
G01X118138000Y6638000D02*
Y3463000D01*
G01X117233000Y6638000D02*
X119043000D01*
G01X122074000Y3463000D02*
X120500000D01*
Y6638000D01*
X122074000D01*
G01X121444000Y5103000D02*
X120500000D01*
G01X123570000Y3463000D02*
Y6638000D01*
X124357000D01*
X124672000Y6479000D01*
X124908000Y6268000D01*
X125105000Y5950000D01*
X125263000Y5580000D01*
X125302000Y5050000D01*
X125263000Y4521000D01*
X125105000Y4151000D01*
X124908000Y3833000D01*
X124672000Y3622000D01*
X124357000Y3463000D01*
X123570000D01*
G01X107904000Y11175000D02*
Y14350000D01*
X108848000D01*
X109163000Y14191000D01*
X109400000Y13821000D01*
X109478000Y13398000D01*
X109400000Y12974000D01*
X109203000Y12657000D01*
X108848000Y12498000D01*
X107904000D01*
G01X111053000Y14350000D02*
Y11175000D01*
X112627000D01*
G01X114005000D02*
X114989000Y14350000D01*
X115973000Y11175000D01*
G01X115619000Y12286000D02*
X114359000D01*
G01X118138000Y14350000D02*
Y11175000D01*
G01X117233000Y14350000D02*
X119043000D01*
G01X122074000Y11175000D02*
X120500000D01*
Y14350000D01*
X122074000D01*
G01X121444000Y12815000D02*
X120500000D01*
G01X123570000Y11175000D02*
Y14350000D01*
X124357000D01*
X124672000Y14191000D01*
X124908000Y13980000D01*
X125105000Y13662000D01*
X125263000Y13292000D01*
X125302000Y12762000D01*
X125263000Y12233000D01*
X125105000Y11863000D01*
X124908000Y11545000D01*
X124672000Y11334000D01*
X124357000Y11175000D01*
X123570000D01*
G01X132703000Y15937000D02*
Y-43700000D01*
G01X141795000Y-38892000D02*
X142031000Y-38575000D01*
X142307000Y-38416000D01*
X142622000Y-38363000D01*
X143015000Y-38469000D01*
X143291000Y-38733000D01*
X143370000Y-39051000D01*
X143330000Y-39368000D01*
X143173000Y-39633000D01*
X142386000Y-40162000D01*
X142031000Y-40533000D01*
X141795000Y-41062000D01*
X141716000Y-41538000D01*
X143370000D01*
G01X142543000Y-34038000D02*
Y-30863000D01*
X142071000Y-31498000D01*
G01Y-34038000D02*
X143015000D01*
G01X141795000Y-23891000D02*
X142031000Y-23574000D01*
X142307000Y-23415000D01*
X142622000Y-23362000D01*
X143015000Y-23468000D01*
X143291000Y-23732000D01*
X143370000Y-24050000D01*
X143330000Y-24367000D01*
X143173000Y-24632000D01*
X142386000Y-25161000D01*
X142031000Y-25532000D01*
X141795000Y-26061000D01*
X141716000Y-26537000D01*
X143370000D01*
G01X143015000Y-19037000D02*
Y-15862000D01*
X141559000Y-18137000D01*
X143527000D01*
G01X140968000Y-11538000D02*
Y-8363000D01*
X140496000Y-8998000D01*
G01Y-11538000D02*
X141440000D01*
G01X143251000Y-11062000D02*
X143487000Y-11326000D01*
X143763000Y-11485000D01*
X144117000Y-11538000D01*
X144471000Y-11432000D01*
X144747000Y-11221000D01*
X144944000Y-10850000D01*
X144983000Y-10427000D01*
X144904000Y-10003000D01*
X144707000Y-9739000D01*
X144432000Y-9527000D01*
X144156000Y-9474000D01*
X143881000Y-9527000D01*
X143527000Y-9739000D01*
X143645000Y-8363000D01*
X144707000D01*
G01X140220000Y-2714000D02*
X140496000Y-2344000D01*
X140732000Y-2132000D01*
X141047000Y-2026000D01*
X141322000Y-2132000D01*
X141519000Y-2344000D01*
X141677000Y-2661000D01*
X141716000Y-3032000D01*
X141677000Y-3349000D01*
X141519000Y-3667000D01*
X141283000Y-3931000D01*
X141007000Y-4037000D01*
X140692000Y-3931000D01*
X140417000Y-3614000D01*
X140259000Y-3137000D01*
X140220000Y-2608000D01*
X140299000Y-1920000D01*
X140417000Y-1550000D01*
X140614000Y-1180000D01*
X140889000Y-915000D01*
X141165000Y-862000D01*
X141440000Y-968000D01*
X141637000Y-1232000D01*
G01X144117000Y-4037000D02*
X144393000Y-3984000D01*
X144707000Y-3825000D01*
X144904000Y-3561000D01*
X144983000Y-3190000D01*
X144904000Y-2820000D01*
X144668000Y-2502000D01*
X144314000Y-2344000D01*
X143920000D01*
X143684000Y-2238000D01*
X143487000Y-1973000D01*
X143408000Y-1603000D01*
X143527000Y-1232000D01*
X143802000Y-968000D01*
X144117000Y-862000D01*
X144432000Y-968000D01*
X144707000Y-1232000D01*
X144826000Y-1603000D01*
X144747000Y-1973000D01*
X144550000Y-2238000D01*
X144314000Y-2344000D01*
X143920000D01*
X143566000Y-2502000D01*
X143330000Y-2820000D01*
X143251000Y-3190000D01*
X143330000Y-3561000D01*
X143527000Y-3825000D01*
X143841000Y-3984000D01*
X144117000Y-4037000D01*
G01X141440000Y3463000D02*
Y6638000D01*
X139984000Y4363000D01*
X141952000D01*
G01X143251000Y4098000D02*
X143487000Y3728000D01*
X143802000Y3516000D01*
X144156000Y3463000D01*
X144471000Y3516000D01*
X144786000Y3780000D01*
X144983000Y4098000D01*
X145022000Y4415000D01*
X144944000Y4786000D01*
X144668000Y5050000D01*
X144393000Y5156000D01*
X144038000D01*
G01X144393000D02*
X144629000Y5315000D01*
X144826000Y5580000D01*
X144904000Y5897000D01*
X144826000Y6215000D01*
X144629000Y6479000D01*
X144274000Y6638000D01*
X143920000Y6585000D01*
X143566000Y6373000D01*
G01X139394000Y11175000D02*
X139079000Y11228000D01*
X138804000Y11440000D01*
X138567000Y11757000D01*
X138410000Y12127000D01*
X138331000Y12551000D01*
Y12974000D01*
X138410000Y13398000D01*
X138567000Y13768000D01*
X138804000Y14085000D01*
X139079000Y14297000D01*
X139394000Y14350000D01*
X139709000Y14297000D01*
X139984000Y14085000D01*
X140221000Y13768000D01*
X140378000Y13398000D01*
X140457000Y12974000D01*
Y12551000D01*
X140378000Y12127000D01*
X140221000Y11757000D01*
X139984000Y11440000D01*
X139709000Y11228000D01*
X139394000Y11175000D01*
G01X139709000Y12022000D02*
X140181000Y11175000D01*
G01X142543000Y14350000D02*
Y11175000D01*
G01X141638000Y14350000D02*
X143448000D01*
G01X145692000Y11175000D02*
Y12604000D01*
X144905000Y14350000D01*
G01X146479000D02*
X145692000Y12604000D01*
G01X154548000Y-25648000D02*
Y-11438000D01*
X169788000D01*
Y-25648000D01*
X154548000D01*
G01Y-9338000D02*
Y4872000D01*
X169788000D01*
Y-9338000D01*
X154548000D01*
G01Y6972000D02*
Y21182000D01*
X169788000D01*
Y6972000D01*
X154548000D01*
M02*
