G04 ================== begin FILE IDENTIFICATION RECORD ==================*
G04 Layout Name:  Interconnect.brd*
G04 Film Name:    BOTTOM*
G04 File Format:  Gerber RS274X*
G04 File Origin:  Cadence Allegro 17.4-S007*
G04 Origin Date:  Wed Aug 19 21:03:55 2020*
G04 *
G04 Layer:  VIA KEEPOUT/ALL*
G04 Layer:  VIA KEEPOUT/BOTTOM*
G04 Layer:  VIA KEEPOUT/TOP*
G04 Layer:  VIA CLASS/BOTTOM*
G04 Layer:  ROUTE KEEPOUT/ALL*
G04 Layer:  ROUTE KEEPOUT/BOTTOM*
G04 Layer:  ROUTE KEEPOUT/TOP*
G04 Layer:  ROUTE KEEPIN/ALL*
G04 Layer:  PIN/BOTTOM*
G04 Layer:  PACKAGE KEEPOUT/ALL*
G04 Layer:  PACKAGE KEEPOUT/TOP*
G04 Layer:  PACKAGE KEEPOUT/BOTTOM*
G04 Layer:  PACKAGE KEEPIN/ALL*
G04 Layer:  ANALYSIS/LOW_ISOCONTOUR*
G04 Layer:  ANALYSIS/MEDIUM1_ISOCONTOUR*
G04 Layer:  ANALYSIS/MEDIUM2_ISOCONTOUR*
G04 Layer:  ANALYSIS/MEDIUM3_ISOCONTOUR*
G04 Layer:  ANALYSIS/HIGH_ISOCONTOUR*
G04 Layer:  ANALYSIS/PCB_TEMPERATURE*
G04 Layer:  ETCH/BOTTOM*
G04 Layer:  BOARD GEOMETRY/OUTLINE*
G04 *
G04 Offset:    (0.000 0.000)*
G04 Mirror:    No*
G04 Mode:      Positive*
G04 Rotation:  0*
G04 FullContactRelief:  No*
G04 UndefLineWidth:     0.100*
G04 ================== end FILE IDENTIFICATION RECORD ====================*
%FSLAX26Y26*MOMM*%
%IR0*IPPOS*OFA0.00000B0.00000*MIA0B0*SFA1.00000B1.00000*%
%ADD11R,16.X3.*%
%ADD12C,1.5*%
%ADD14C,1.524*%
%ADD10C,5.08*%
%ADD13R,1.524X1.524*%
%ADD18R,5.X2.*%
%ADD17R,2.X5.*%
%ADD16C,.2*%
%ADD15C,.61*%
%ADD19C,.1*%
%ADD20C,.127*%
%ADD22C,1.782*%
%ADD23C,5.338*%
%ADD27C,1.758*%
%ADD25C,.61*%
%ADD26C,.868*%
%ADD28R,1.782X1.782*%
%ADD24R,5.258X2.258*%
%ADD21R,2.258X5.258*%
G75*
%LPD*%
G75*
G36*
G01X24657000Y-13581000D02*
G03X24075000Y-13777000I-193000J-389000D01*
G01X12344000D01*
X11255000Y-14866000D01*
Y-38398000D01*
X10414000Y-39239000D01*
X-10414000D01*
X-11746000Y-37907000D01*
X-13112000D01*
X-13122000Y-37869000D01*
G03Y-38331000I-848000J-231000D01*
G01X-13112000Y-38293000D01*
X-11906000D01*
X-11875000Y-38324000D01*
G02X-11959000Y-38497000I-72115J-71878D01*
G03X-12661000Y-40016000I-106068J-872694D01*
G02X-12730000Y-40193000I-69103J-75011D01*
G01X-13276000D01*
X-15682000Y-37787000D01*
Y-37688000D01*
X-15644000Y-37678000D01*
G03X-16106000I-231000J848000D01*
G01X-16068000Y-37688000D01*
Y-37947000D01*
X-15692000Y-38323000D01*
G02X-15775000Y-38497000I-71754J-72569D01*
G03X-15002000Y-39270000I-100000J-873000D01*
G02X-14828000Y-39187000I101431J11246D01*
G01X-13678000Y-40337000D01*
G02X-13750000Y-40511000I-72142J-72045D01*
G01X-16456000D01*
X-16979000Y-39988000D01*
Y-36332000D01*
X-16400000Y-35753000D01*
X-14828000D01*
X-14818000Y-35791000D01*
G03Y-35329000I848000J231000D01*
G01X-14828000Y-35367000D01*
X-16560000D01*
X-17365000Y-36172000D01*
Y-40148000D01*
X-16616000Y-40897000D01*
X11845000D01*
X12913000Y-39829000D01*
Y-17570000D01*
X13780000Y-16703000D01*
X22799000D01*
G03Y-16317000I389000J193000D01*
G01X13620000D01*
X12527000Y-17410000D01*
Y-39669000D01*
X11685000Y-40511000D01*
X-9464000D01*
G02X-9536000Y-40337000I142J101955D01*
G01X-9460000Y-40261000D01*
X11362000D01*
X12277000Y-39346000D01*
Y-15979000D01*
X12823000Y-15433000D01*
X23437000D01*
G03Y-15047000I389000J193000D01*
G01X12663000D01*
X11891000Y-15819000D01*
Y-39186000D01*
X11202000Y-39875000D01*
X-9620000D01*
X-9938000Y-40193000D01*
X-11400000D01*
G02X-11469000Y-40016000I103J101989D01*
G03X-11192000Y-39264000I-595759J646465D01*
G02X-11019000Y-39180000I101122J11885D01*
G01X-10574000Y-39625000D01*
X10574000D01*
X11641000Y-38558000D01*
Y-15026000D01*
X12504000Y-14163000D01*
X24075000D01*
G03X24657000Y-14359000I389000J193000D01*
G02X24804000Y-14450000I45114J-91354D01*
G01Y-58512000D01*
X21661000D01*
G02X21613000Y-58320000I259J102065D01*
G03X19091000I-1261000J2352000D01*
G02X19043000Y-58512000I-48259J-89935D01*
G01X-16650000D01*
G02X-16691000Y-58317000I357J101885D01*
G03X-18869000I-1089000J2437000D01*
G02X-18910000Y-58512000I-41357J-93115D01*
G01X-21942000D01*
Y-48989000D01*
X-5841000D01*
Y-45731000D01*
X-21942000D01*
Y8911000D01*
X-5841000D01*
Y12169000D01*
X-21942000D01*
Y31800000D01*
X24804000D01*
Y-13490000D01*
G02X24657000Y-13581000I-101886J354D01*
G37*
%LPC*%
G75*
G36*
G01X-9312000Y-38331000D02*
G02Y-37869000I-848000J231000D01*
G01X-9302000Y-37907000D01*
X4749000D01*
X6167000Y-36489000D01*
Y-29176000D01*
X8075000Y-27268000D01*
Y-27073000D01*
G03X7906000Y-26997000I-101826J-527D01*
G02Y-26343000I-286000J327000D01*
G03X8075000Y-26267000I67174J76527D01*
G01Y-25803000D01*
G03X7906000Y-25727000I-101826J-527D01*
G02X7231000Y-25593000I-285925J326798D01*
G01X4290000D01*
X2033000Y-23336000D01*
Y1192000D01*
X-398000Y3623000D01*
X-12614000D01*
X-13227000Y3011000D01*
X-13207000Y2977000D01*
G02X-13533000Y3303000I-763000J-437000D01*
G01X-13499000Y3283000D01*
X-13016000Y3767000D01*
G03X-13088000Y3941000I-72142J72045D01*
G01X-15184000D01*
X-15707000Y3418000D01*
Y2316000D01*
X-15682000Y2291000D01*
Y2128000D01*
X-15644000Y2118000D01*
G02X-16129000Y2111000I-230310J-848091D01*
G01X-16093000Y2122000D01*
Y3578000D01*
X-15344000Y4327000D01*
X-196000D01*
X2673000Y1458000D01*
Y-23070000D01*
X3540000Y-23937000D01*
X7231000D01*
G02X7906000Y-23803000I389075J-192798D01*
G03X8075000Y-23727000I67174J76527D01*
G01Y-23263000D01*
G03X7906000Y-23187000I-101826J-527D01*
G02X7231000Y-23053000I-285925J326798D01*
G01X4972000D01*
X3305000Y-21386000D01*
Y1510000D01*
X174000Y4641000D01*
X-16710000D01*
X-17361000Y3990000D01*
Y462000D01*
X-17092000Y193000D01*
X-14828000D01*
X-14818000Y231000D01*
G02Y-231000I848000J-231000D01*
G01X-14828000Y-193000D01*
X-17252000D01*
X-17441000Y-4000D01*
G03X-17615000Y-76000I-72045J-72142D01*
G01Y-554000D01*
X-17092000Y-1077000D01*
X-16733000D01*
X-16723000Y-1039000D01*
G02Y-1501000I848000J-231000D01*
G01X-16733000Y-1463000D01*
X-17252000D01*
X-18001000Y-714000D01*
Y4256000D01*
X-16976000Y5281000D01*
X440000D01*
X3946000Y1775000D01*
Y1485000D01*
X3945000Y-20844000D01*
X4498000Y-21397000D01*
X7231000D01*
G02X7906000Y-21263000I389075J-192798D01*
G03X8075000Y-21187000I67174J76527D01*
G01Y-20723000D01*
G03X7906000Y-20647000I-101826J-527D01*
G02X7231000Y-20513000I-285925J326798D01*
G01X5612000D01*
X4259000Y-19160000D01*
Y1828000D01*
X492000Y5595000D01*
X-17028000D01*
X-18251000Y4372000D01*
Y-1510000D01*
X-17410000Y-2351000D01*
X-14995000D01*
X-14991000Y-2347000D01*
X-14828000D01*
X-14818000Y-2309000D01*
G02X-14817000Y-2774000I848063J-230677D01*
G01X-14828000Y-2737000D01*
X-17570000D01*
X-18395000Y-1912000D01*
G03X-18569000Y-1984000I-72045J-72142D01*
G01Y-2783000D01*
X-17735000Y-3617000D01*
X-16733000D01*
X-16723000Y-3579000D01*
G02Y-4041000I848000J-231000D01*
G01X-16733000Y-4003000D01*
X-17895000D01*
X-18955000Y-2943000D01*
Y4574000D01*
X-17292000Y6237000D01*
X-16748000Y6235000D01*
X758000D01*
X4900000Y2093000D01*
Y1803000D01*
X4899000Y-17982000D01*
X5774000Y-18857000D01*
X7231000D01*
G02X7906000Y-18723000I389075J-192798D01*
G03X8075000Y-18647000I67174J76527D01*
G01Y-18183000D01*
G03X7906000Y-18107000I-101826J-527D01*
G02X7231000Y-17973000I-285925J326798D01*
G01X5934000D01*
X5213000Y-17252000D01*
Y2146000D01*
X874000Y6485000D01*
X-17728000D01*
X-19205000Y5008000D01*
Y-4372000D01*
X-18682000Y-4895000D01*
X-14999000D01*
X-14991000Y-4887000D01*
X-14828000D01*
X-14818000Y-4849000D01*
G02X-14816000Y-5318000I848044J-230888D01*
G01X-14827000Y-5281000D01*
X-18842000D01*
X-19285000Y-4838000D01*
G03X-19459000Y-4910000I-72045J-72142D01*
G01Y-5072000D01*
X-18374000Y-6157000D01*
X-16733000D01*
X-16723000Y-6119000D01*
G02Y-6581000I848000J-231000D01*
G01X-16733000Y-6543000D01*
X-18534000D01*
X-19845000Y-5232000D01*
Y5274000D01*
X-17994000Y7125000D01*
X768000D01*
X769000Y7126000D01*
X1139000D01*
X5853000Y2412000D01*
Y-16074000D01*
X6096000Y-16317000D01*
X7231000D01*
G02X7906000Y-16183000I389075J-192798D01*
G03X8075000Y-16107000I67174J76527D01*
G01Y-14373000D01*
G03X7906000Y-14297000I-101826J-527D01*
G02Y-13643000I-286000J327000D01*
G03X8075000Y-13567000I67174J76527D01*
G01Y-12158000D01*
X7759000Y-11842000D01*
X7731000Y-11850000D01*
G02X8040000Y-11541000I-111000J420000D01*
G01X8032000Y-11569000D01*
X8461000Y-11998000D01*
Y-27428000D01*
X6553000Y-29336000D01*
Y-36649000D01*
X4909000Y-38293000D01*
X-9302000D01*
X-9312000Y-38331000D01*
G37*
G36*
G01X-1751000Y-13558000D02*
X-1723000Y-13550000D01*
G02X-2032000Y-13859000I111000J-420000D01*
G01X-2024000Y-13831000D01*
X-2419000Y-13436000D01*
Y-12164000D01*
X-3260000Y-11323000D01*
X-6758000D01*
X-9302000Y-8779000D01*
X-10892000D01*
X-11028000Y-8643000D01*
G03X-11200000Y-8734000I-71724J-72483D01*
G02X-11909000Y-8025000I-865000J-156000D01*
G03X-11818000Y-7853000I18517J100276D01*
G01X-11858000Y-7813000D01*
X-13112000D01*
X-13122000Y-7851000D01*
G02Y-7389000I-848000J231000D01*
G01X-13112000Y-7427000D01*
X-11698000D01*
X-11180000Y-7945000D01*
G03X-11009000Y-7847000I72385J71885D01*
G02X-9519000Y-8221000I848963J227184D01*
G03X-9444000Y-8393000I74361J-69927D01*
G01X-9142000D01*
X-6598000Y-10937000D01*
X-3100000D01*
X-2033000Y-12004000D01*
Y-13276000D01*
X-1751000Y-13558000D01*
G37*
G36*
G01X-11194000Y-31632000D02*
G02X-11947000Y-30879000I-871000J-118000D01*
G03X-11861000Y-30706000I13755J101038D01*
G01X-11894000Y-30673000D01*
X-13112000D01*
X-13122000Y-30711000D01*
G02Y-30249000I-848000J231000D01*
G01X-13112000Y-30287000D01*
X-11734000D01*
X-11165000Y-30856000D01*
G03X-10996000Y-30753000I72051J71926D01*
G02X-10433000Y-31316000I836000J273000D01*
G03X-10536000Y-31485000I-31074J-96949D01*
G01X-10414000Y-31607000D01*
X2791000D01*
G02Y-31993000I389000J-193000D01*
G01X-10574000D01*
X-11021000Y-31546000D01*
G03X-11194000Y-31632000I-71962J-72245D01*
G37*
G36*
G01X17365000Y-47144000D02*
X16298000Y-48211000D01*
X-1352000D01*
X-4850000Y-44713000D01*
X-19796000D01*
X-21181000Y-43328000D01*
Y-25679000D01*
X-19439000Y-23937000D01*
X-16733000D01*
X-16723000Y-23899000D01*
G02Y-24361000I848000J-231000D01*
G01X-16733000Y-24323000D01*
X-19279000D01*
X-20795000Y-25839000D01*
Y-43168000D01*
X-19636000Y-44327000D01*
X-4690000D01*
X-1192000Y-47825000D01*
X16138000D01*
X16979000Y-46984000D01*
Y-25042000D01*
X18084000Y-23937000D01*
X18971000D01*
G02Y-24323000I389000J-193000D01*
G01X18244000D01*
X17365000Y-25202000D01*
Y-47144000D01*
G37*
G36*
G01X16729000Y-46508000D02*
X15662000Y-47575000D01*
X-1033000D01*
X-4531000Y-44077000D01*
X-19478000D01*
X-20545000Y-43010000D01*
Y-27904000D01*
X-19118000Y-26477000D01*
X-16733000D01*
X-16723000Y-26439000D01*
G02Y-26901000I848000J-231000D01*
G01X-16733000Y-26863000D01*
X-18958000D01*
X-20159000Y-28064000D01*
Y-42850000D01*
X-19318000Y-43691000D01*
X-4371000D01*
X-873000Y-47189000D01*
X15502000D01*
X16343000Y-46348000D01*
Y-23770000D01*
X17446000Y-22667000D01*
X19609000D01*
G02Y-23053000I389000J-193000D01*
G01X17606000D01*
X16729000Y-23930000D01*
Y-46508000D01*
G37*
G36*
G01X20247000Y-21783000D02*
X16332000D01*
X15775000Y-22340000D01*
Y-26314000D01*
X16093000Y-26632000D01*
Y-45872000D01*
X15026000Y-46939000D01*
X-716000D01*
X-4214000Y-43441000D01*
X-18842000D01*
X-19909000Y-42374000D01*
Y-30766000D01*
X-18160000Y-29017000D01*
X-16733000D01*
X-16723000Y-28979000D01*
G02Y-29441000I848000J-231000D01*
G01X-16733000Y-29403000D01*
X-18000000D01*
X-19523000Y-30926000D01*
Y-42214000D01*
X-18682000Y-43055000D01*
X-4054000D01*
X-556000Y-46553000D01*
X14866000D01*
X15707000Y-45712000D01*
Y-26792000D01*
X15389000Y-26474000D01*
Y-22180000D01*
X16172000Y-21397000D01*
X20247000D01*
G02Y-21783000I389000J-193000D01*
G37*
G36*
G01X14753000Y-27110000D02*
Y-20908000D01*
X15534000Y-20127000D01*
X20885000D01*
G02Y-20513000I389000J-193000D01*
G01X15694000D01*
X15139000Y-21068000D01*
Y-26950000D01*
X15457000Y-27268000D01*
Y-45555000D01*
X14709000Y-46303000D01*
X-397000D01*
X-3895000Y-42805000D01*
X-18206000D01*
X-19274000Y-41737000D01*
X-19271000Y-39750000D01*
Y-33067000D01*
X-17761000Y-31557000D01*
X-16733000D01*
X-16723000Y-31519000D01*
G02Y-31981000I848000J-231000D01*
G01X-16733000Y-31943000D01*
X-17601000D01*
X-18885000Y-33227000D01*
Y-39750000D01*
X-18888000Y-41577000D01*
X-18046000Y-42419000D01*
X-3735000D01*
X-237000Y-45917000D01*
X14549000D01*
X15071000Y-45395000D01*
Y-27428000D01*
X14753000Y-27110000D01*
G37*
G36*
G01X21641000Y-19594000D02*
X15341000D01*
X14503000Y-20432000D01*
Y-27268000D01*
X14821000Y-27586000D01*
Y-44919000D01*
X14073000Y-45667000D01*
X-79000D01*
X-3577000Y-42169000D01*
X-17569000D01*
X-18701000Y-41037000D01*
Y-34414000D01*
X-17114000Y-32827000D01*
X-14828000D01*
X-14818000Y-32789000D01*
G02Y-33251000I848000J-231000D01*
G01X-14828000Y-33213000D01*
X-16954000D01*
X-18315000Y-34574000D01*
Y-40877000D01*
X-17409000Y-41783000D01*
X-3417000D01*
X81000Y-45281000D01*
X13913000D01*
X14435000Y-44759000D01*
Y-27746000D01*
X14117000Y-27428000D01*
Y-20272000D01*
X15181000Y-19208000D01*
X21379000D01*
G03X21480000Y-19095000I-245J101856D01*
G02X21801000Y-19470000I431931J44845D01*
G01X21773000Y-19462000D01*
X21641000Y-19594000D01*
G37*
G36*
G01X16769000Y-18319000D02*
X14708000D01*
X13867000Y-19160000D01*
Y-27586000D01*
X14185000Y-27904000D01*
Y-40465000D01*
X13117000Y-41533000D01*
X-16934000D01*
X-18001000Y-40466000D01*
Y-34899000D01*
X-17199000Y-34097000D01*
X-16733000D01*
X-16723000Y-34059000D01*
G02Y-34521000I848000J-231000D01*
G01X-16733000Y-34483000D01*
X-17039000D01*
X-17615000Y-35059000D01*
Y-40306000D01*
X-16774000Y-41147000D01*
X12957000D01*
X13799000Y-40305000D01*
Y-31135000D01*
G03X13664000Y-31039000I-101806J-243D01*
G02Y-30461000I-99000J289000D01*
G03X13799000Y-30365000I33194J96243D01*
G01Y-28064000D01*
X13481000Y-27746000D01*
Y-19000000D01*
X14548000Y-17933000D01*
X16929000D01*
X16934000Y-17938000D01*
X22017000D01*
G03X22118000Y-17825000I-245J101856D01*
G02X22439000Y-18200000I431931J44845D01*
G01X22411000Y-18192000D01*
X22279000Y-18324000D01*
X16774000D01*
X16769000Y-18319000D01*
G37*
G36*
G01X4699000Y-35753000D02*
X-9302000D01*
X-9312000Y-35791000D01*
G02Y-35329000I-848000J231000D01*
G01X-9302000Y-35367000D01*
X4699000D01*
G02Y-35753000I389000J-193000D01*
G37*
G36*
G01X7825000Y-34264000D02*
X8447000Y-34886000D01*
X8475000Y-34878000D01*
G02X8166000Y-35187000I111000J-420000D01*
G01X8174000Y-35159000D01*
X7439000Y-34424000D01*
Y-29176000D01*
X8711000Y-27904000D01*
Y-10254000D01*
X7759000Y-9302000D01*
X7731000Y-9310000D01*
G02X8040000Y-9001000I-111000J420000D01*
G01X8032000Y-9029000D01*
X9097000Y-10094000D01*
Y-28064000D01*
X7825000Y-29336000D01*
Y-34264000D01*
G37*
G36*
G01X4063000Y-34483000D02*
X-11207000D01*
X-11217000Y-34521000D01*
G02Y-34059000I-848000J231000D01*
G01X-11207000Y-34097000D01*
X4063000D01*
G02Y-34483000I389000J-193000D01*
G37*
G36*
G01X9347000Y-29177000D02*
Y-9620000D01*
X7759000Y-8032000D01*
X7731000Y-8040000D01*
G02X8040000Y-7731000I-111000J420000D01*
G01X8032000Y-7759000D01*
X9733000Y-9460000D01*
Y-29337000D01*
X8779000Y-30291000D01*
Y-33628000D01*
X9029000Y-33878000D01*
X9057000Y-33870000D01*
G02X8748000Y-34179000I111000J-420000D01*
G01X8756000Y-34151000D01*
X8393000Y-33788000D01*
Y-30131000D01*
X9347000Y-29177000D01*
G37*
G36*
G01X3427000Y-33213000D02*
X-9302000D01*
X-9312000Y-33251000D01*
G02Y-32789000I-848000J231000D01*
G01X-9302000Y-32827000D01*
X3427000D01*
G02Y-33213000I389000J-193000D01*
G37*
G36*
G01X9983000Y-30765000D02*
Y-7712000D01*
X8824000Y-6553000D01*
X8004000D01*
G02X8009000Y-6157000I-383889J202879D01*
G01X8196000D01*
X8206000Y-6167000D01*
X8984000D01*
X10369000Y-7552000D01*
Y-30925000D01*
X10191000Y-31103000D01*
Y-31303000D01*
G03X10331000Y-31398000I102039J-285D01*
G02X10539000Y-31368000I164118J-401818D01*
G03X10652000Y-31267000I11144J101245D01*
G01Y-6473000D01*
X9452000Y-5273000D01*
X8009000D01*
G02Y-4887000I-389000J193000D01*
G01X9612000D01*
X11038000Y-6313000D01*
Y-31529000D01*
X10906000Y-31661000D01*
X10914000Y-31689000D01*
G02X10475000Y-32234000I-419815J-111145D01*
G03X10369000Y-32335000I-4172J-101745D01*
G01Y-32730000D01*
X10218000Y-32881000D01*
X10226000Y-32909000D01*
G02X9917000Y-32600000I-420000J-111000D01*
G01X9945000Y-32608000D01*
X9983000Y-32570000D01*
Y-32263000D01*
X9805000Y-32085000D01*
Y-30943000D01*
X9983000Y-30765000D01*
G37*
G36*
G01X-16723000Y-21359000D02*
G02Y-21821000I848000J-231000D01*
G01X-16733000Y-21783000D01*
X-19603000D01*
X-21431000Y-23611000D01*
Y-43486000D01*
X-19954000Y-44963000D01*
X-5007000D01*
X-1509000Y-48461000D01*
X16774000D01*
X17615000Y-47620000D01*
Y-25678000D01*
X18086000Y-25207000D01*
X18651000D01*
G02Y-25593000I389000J-193000D01*
G01X18246000D01*
X18001000Y-25838000D01*
Y-26225000D01*
G03X18160000Y-26310000I102042J-333D01*
G02Y-27030000I242000J-360000D01*
G03X18001000Y-27115000I-56958J-84667D01*
G01Y-47780000D01*
X16934000Y-48847000D01*
X-1669000D01*
X-5167000Y-45349000D01*
X-20114000D01*
X-21817000Y-43646000D01*
Y-23451000D01*
X-19763000Y-21397000D01*
X-16733000D01*
X-16723000Y-21359000D01*
G37*
G54D22*
X16484000Y23214000D03*
X19024000D03*
X8864000D03*
X11404000D03*
X13944000D03*
X1244000D03*
X3784000D03*
X6324000D03*
X-6376000D03*
X-3836000D03*
X-1296000D03*
X-13996000D03*
X-11456000D03*
X-8916000D03*
G54D23*
X20352000Y28000000D03*
X-17780000D03*
G54D27*
X-10160000Y2540000D03*
X-12065000Y1270000D03*
X-10160000Y0D03*
X-12065000Y-1270000D03*
X-10160000Y-2540000D03*
X-12065000Y-3810000D03*
X-10160000Y-5080000D03*
X-12065000Y-6350000D03*
X-10160000Y-10160000D03*
X-12065000Y-11430000D03*
X-10160000Y-12700000D03*
X-12065000Y-13970000D03*
X-10160000Y-15240000D03*
X-12065000Y-16510000D03*
X-13970000Y-10160000D03*
Y-12700000D03*
Y-15240000D03*
X-10160000Y-17780000D03*
X-12065000Y-19050000D03*
X-10160000Y-20320000D03*
X-12065000Y-21590000D03*
X-10160000Y-22860000D03*
X-12065000Y-24130000D03*
X-13970000Y-17780000D03*
Y-20320000D03*
Y-22860000D03*
X-10160000Y-25400000D03*
X-12065000Y-26670000D03*
X-10160000Y-27940000D03*
X-12065000Y-29210000D03*
X-13970000Y-25400000D03*
Y-27940000D03*
X-12065000Y-36830000D03*
X-15875000Y-8890000D03*
Y-11430000D03*
Y-13970000D03*
Y-16510000D03*
Y-19050000D03*
G54D25*
X13565000Y-3520000D03*
G54D26*
X7620000Y-10160000D03*
X-2590000Y18080000D03*
X18716000Y-29210000D03*
G54D28*
X-16536000Y23214000D03*
G54D24*
X20352000Y18374000D03*
G54D21*
X23352000Y13674000D03*
X17352000D03*
%LPD*%
G75*
G36*
G01X4450000Y-25207000D02*
X3740000Y-24497000D01*
G02X3812000Y-24323000I72142J72045D01*
G01X7231000D01*
G03X7906000Y-24457000I389075J192798D01*
G02X8075000Y-24533000I67174J-76527D01*
G01Y-24997000D01*
G02X7906000Y-25073000I-101826J527D01*
G03X7231000Y-25207000I-285925J-326798D01*
G01X4450000D01*
G37*
G36*
G01X6094000Y-17587000D02*
X5599000Y-17092000D01*
Y-16612000D01*
G02X5773000Y-16540000I101955J-142D01*
G01X5936000Y-16703000D01*
X7231000D01*
G03X7906000Y-16837000I389075J192798D01*
G02X8075000Y-16913000I67174J-76527D01*
G01Y-17377000D01*
G02X7906000Y-17453000I-101826J527D01*
G03X7231000Y-17587000I-285925J-326798D01*
G01X6094000D01*
G37*
G36*
G01X5772000Y-20127000D02*
X4645000Y-19000000D01*
Y-18520000D01*
G02X4819000Y-18448000I101955J-142D01*
G01X5614000Y-19243000D01*
X7231000D01*
G03X7906000Y-19377000I389075J192798D01*
G02X8075000Y-19453000I67174J-76527D01*
G01Y-19917000D01*
G02X7906000Y-19993000I-101826J527D01*
G03X7231000Y-20127000I-285925J-326798D01*
G01X5772000D01*
G37*
G36*
G01X5132000Y-22667000D02*
X4422000Y-21957000D01*
G02X4494000Y-21783000I72142J72045D01*
G01X7231000D01*
G03X7906000Y-21917000I389075J192798D01*
G02X8075000Y-21993000I67174J-76527D01*
G01Y-22457000D01*
G02X7906000Y-22533000I-101826J527D01*
G03X7231000Y-22667000I-285925J-326798D01*
G01X5132000D01*
G37*
G54D10*
X-17780000Y-55880000D03*
Y28000000D03*
X20352000Y-55968000D03*
Y28000000D03*
G54D20*
G01X-17780000Y-55880000D02*
Y-53160000D01*
G01X-20500000Y-55880000D02*
X-17780000D01*
G01D02*
X-15060000D01*
G01X19998000Y-22860000D02*
X17526000D01*
X16536000Y-23850000D01*
Y-46428000D01*
X15582000Y-47382000D01*
X-953000D01*
X-4451000Y-43884000D01*
X-19398000D01*
X-20352000Y-42930000D01*
Y-27984000D01*
X-19038000Y-26670000D01*
X-15875000D01*
G01X20636000Y-21590000D02*
X16252000D01*
X15582000Y-22260000D01*
Y-26394000D01*
X15900000Y-26712000D01*
Y-45792000D01*
X14946000Y-46746000D01*
X-636000D01*
X-4134000Y-43248000D01*
X-18762000D01*
X-19716000Y-42294000D01*
Y-30846000D01*
X-18080000Y-29210000D01*
X-15875000D01*
G01X19040000Y-25400000D02*
X18166000D01*
X17808000Y-25758000D01*
Y-47700000D01*
X16854000Y-48654000D01*
X-1589000D01*
X-5087000Y-45156000D01*
X-20034000D01*
X-21624000Y-43566000D01*
Y-23531000D01*
X-19683000Y-21590000D01*
X-15875000D01*
G01X-13970000Y-35560000D02*
X-16480000D01*
X-17172000Y-36252000D01*
Y-40068000D01*
X-16536000Y-40704000D01*
X11765000D01*
X12720000Y-39749000D01*
Y-17490000D01*
X13700000Y-16510000D01*
X23188000D01*
G01X-15875000Y-24130000D02*
X-19359000D01*
X-20988000Y-25759000D01*
Y-43248000D01*
X-19716000Y-44520000D01*
X-4770000D01*
X-1272000Y-48018000D01*
X16218000D01*
X17172000Y-47064000D01*
Y-25122000D01*
X18164000Y-24130000D01*
X19360000D01*
G01X21274000Y-20320000D02*
X15614000D01*
X14946000Y-20988000D01*
Y-27030000D01*
X15264000Y-27348000D01*
Y-45475000D01*
X14629000Y-46110000D01*
X-317000D01*
X-3815000Y-42612000D01*
X-18126000D01*
X-19081000Y-41657000D01*
X-19078000Y-39750000D01*
Y-33147000D01*
X-17681000Y-31750000D01*
X-15875000D01*
G01X21912000Y-19050000D02*
X21561000Y-19401000D01*
X15261000D01*
X14310000Y-20352000D01*
Y-27348000D01*
X14628000Y-27666000D01*
Y-44839000D01*
X13993000Y-45474000D01*
X1000D01*
X-3497000Y-41976000D01*
X-17489000D01*
X-18508000Y-40957000D01*
Y-34494000D01*
X-17034000Y-33020000D01*
X-13970000D01*
G01X-15875000Y-34290000D02*
X-17119000D01*
X-17808000Y-34979000D01*
Y-40386000D01*
X-16854000Y-41340000D01*
X13037000D01*
X13992000Y-40385000D01*
Y-27984000D01*
X13674000Y-27666000D01*
Y-19080000D01*
X14628000Y-18126000D01*
X16849000D01*
X16854000Y-18131000D01*
X22199000D01*
X22550000Y-17780000D01*
G01X7620000D02*
X6014000D01*
X5406000Y-17172000D01*
Y2226000D01*
X954000Y6678000D01*
X-17808000D01*
X-19398000Y5088000D01*
Y-4452000D01*
X-18762000Y-5088000D01*
X-14919000D01*
X-14911000Y-5080000D01*
X-13970000D01*
G01X-15875000Y-6350000D02*
X-18454000D01*
X-19652000Y-5152000D01*
Y5194000D01*
X-17914000Y6932000D01*
X848000D01*
X849000Y6933000D01*
X1059000D01*
X5660000Y2332000D01*
Y-16154000D01*
X6016000Y-16510000D01*
X7620000D01*
G01Y-20320000D02*
X5692000D01*
X4452000Y-19080000D01*
Y1908000D01*
X572000Y5788000D01*
X-17108000D01*
X-18444000Y4452000D01*
Y-1590000D01*
X-17490000Y-2544000D01*
X-14915000D01*
X-14911000Y-2540000D01*
X-13970000D01*
G01X-15875000Y-3810000D02*
X-17815000D01*
X-18762000Y-2863000D01*
Y4494000D01*
X-17212000Y6044000D01*
X-16748000Y6042000D01*
X678000D01*
X4707000Y2013000D01*
Y1803000D01*
X4706000Y-18062000D01*
X5694000Y-19050000D01*
X7620000D01*
G01Y-21590000D02*
X4418000D01*
X3752000Y-20924000D01*
X3753000Y1485000D01*
Y1695000D01*
X360000Y5088000D01*
X-16896000D01*
X-17808000Y4176000D01*
Y-634000D01*
X-17172000Y-1270000D01*
X-15875000D01*
G01X7620000Y-24130000D02*
X3460000D01*
X2480000Y-23150000D01*
Y1378000D01*
X-276000Y4134000D01*
X-15264000D01*
X-15900000Y3498000D01*
Y2236000D01*
X-15875000Y2211000D01*
Y1270000D01*
G01X-13970000Y0D02*
X-17172000D01*
X-17554000Y382000D01*
Y4070000D01*
X-16790000Y4834000D01*
X254000D01*
X3498000Y1590000D01*
Y-21306000D01*
X5052000Y-22860000D01*
X7620000D01*
G01X-17780000Y25280000D02*
Y28000000D01*
G01D02*
Y30720000D01*
G01X-20500000Y28000000D02*
X-17780000D01*
G01D02*
X-15060000D01*
G01X-13970000Y-49040000D02*
Y-47360000D01*
G01D02*
Y-45680000D01*
G01Y-47360000D02*
X-5790000D01*
G01X-15875000Y-36830000D02*
Y-37867000D01*
X-13356000Y-40386000D01*
X-9858000D01*
X-9540000Y-40068000D01*
X11282000D01*
X12084000Y-39266000D01*
Y-15899000D01*
X12743000Y-15240000D01*
X23826000D01*
G01X-12065000Y-34290000D02*
X4452000D01*
G01X7620000Y-11430000D02*
X8268000Y-12078000D01*
Y-27348000D01*
X6360000Y-29256000D01*
Y-36569000D01*
X4829000Y-38100000D01*
X-10160000D01*
G01Y-35560000D02*
X5088000D01*
G01X24464000Y-13970000D02*
X12424000D01*
X11448000Y-14946000D01*
Y-38478000D01*
X10494000Y-39432000D01*
X-10494000D01*
X-11826000Y-38100000D01*
X-13970000D01*
G01X-10160000Y-33020000D02*
X3816000D01*
G01X3180000Y-31800000D02*
X-10494000D01*
X-11814000Y-30480000D01*
X-13970000D01*
G01X-1612000Y-13970000D02*
X-2226000Y-13356000D01*
Y-12084000D01*
X-3180000Y-11130000D01*
X-6678000D01*
X-9222000Y-8586000D01*
X-10812000D01*
X-11778000Y-7620000D01*
X-13970000D01*
G01X7620000Y-25400000D02*
X4370000D01*
X2226000Y-23256000D01*
Y1272000D01*
X-318000Y3816000D01*
X-12694000D01*
X-13970000Y2540000D01*
G01X-10160000Y1610000D02*
Y2540000D01*
G01D02*
Y3470000D01*
G01X-11090000Y2540000D02*
X-10160000D01*
G01D02*
X-9230000D01*
G01X-12065000Y340000D02*
Y1270000D01*
G01D02*
Y2200000D01*
G01X-12995000Y1270000D02*
X-12065000D01*
G01D02*
X-11135000D01*
G01X-10160000Y-930000D02*
Y0D01*
G01D02*
Y930000D01*
G01X-11090000Y0D02*
X-10160000D01*
G01D02*
X-9230000D01*
G01X-13970000Y8860000D02*
Y10540000D01*
G01D02*
Y12220000D01*
G01Y10540000D02*
X-5790000D01*
G01X-13996000Y22272000D02*
Y23214000D01*
G01D02*
Y24156000D01*
G01X-14938000Y23214000D02*
X-13996000D01*
G01D02*
X-13054000D01*
G01X5770000Y-29210000D02*
X5724000Y-29256000D01*
G01X7620000Y-7620000D02*
X9540000Y-9540000D01*
Y-29257000D01*
X8586000Y-30211000D01*
Y-33708000D01*
X9168000Y-34290000D01*
G01X7620000Y-8890000D02*
X8904000Y-10174000D01*
Y-27984000D01*
X7632000Y-29256000D01*
Y-34344000D01*
X8586000Y-35298000D01*
G01X7620000Y-6350000D02*
X8116000D01*
X8126000Y-6360000D01*
X8904000D01*
X10176000Y-7632000D01*
Y-30845000D01*
X9998000Y-31023000D01*
Y-32005000D01*
X10176000Y-32183000D01*
Y-32650000D01*
X9806000Y-33020000D01*
G01X10494000Y-31800000D02*
X10845000Y-31449000D01*
Y-6393000D01*
X9532000Y-5080000D01*
X7620000D01*
G01X20352000Y-55968000D02*
Y-53248000D01*
G01X17632000Y-55968000D02*
X20352000D01*
G01D02*
X23072000D01*
G01X22172000Y13674000D02*
X23352000D01*
G01X20352000Y17194000D02*
Y18374000D01*
G01D02*
Y19554000D01*
G01X17672000Y18374000D02*
X20352000D01*
G01D02*
X23032000D01*
G01X20352000Y25280000D02*
Y28000000D01*
G01D02*
Y30720000D01*
G01X17632000Y28000000D02*
X20352000D01*
G01D02*
X23072000D01*
G01X23352000Y10994000D02*
Y13674000D01*
G01D02*
Y16354000D01*
G01Y13674000D02*
X24532000D01*
G54D11*
X-13970000Y-47360000D03*
Y10540000D03*
G54D12*
X-15875000Y-39370000D03*
Y-36830000D03*
Y-34290000D03*
Y-31750000D03*
Y-29210000D03*
Y-26670000D03*
Y-24130000D03*
Y-21590000D03*
Y-19050000D03*
Y-16510000D03*
Y-13970000D03*
Y-11430000D03*
Y-8890000D03*
Y-6350000D03*
Y-3810000D03*
Y-1270000D03*
Y1270000D03*
X-13970000Y-38100000D03*
Y-35560000D03*
Y-33020000D03*
X-12065000Y-39370000D03*
X-10160000Y-38100000D03*
X-12065000Y-36830000D03*
X-10160000Y-35560000D03*
X-12065000Y-34290000D03*
X-10160000Y-33020000D03*
X-13970000Y-30480000D03*
Y-27940000D03*
Y-25400000D03*
X-12065000Y-31750000D03*
X-10160000Y-30480000D03*
X-12065000Y-29210000D03*
X-10160000Y-27940000D03*
X-12065000Y-26670000D03*
X-10160000Y-25400000D03*
X-13970000Y-22860000D03*
Y-20320000D03*
Y-17780000D03*
X-12065000Y-24130000D03*
X-10160000Y-22860000D03*
X-12065000Y-21590000D03*
X-10160000Y-20320000D03*
X-12065000Y-19050000D03*
X-10160000Y-17780000D03*
X-13970000Y-15240000D03*
Y-12700000D03*
Y-10160000D03*
X-12065000Y-16510000D03*
X-10160000Y-15240000D03*
X-12065000Y-13970000D03*
X-10160000Y-12700000D03*
X-12065000Y-11430000D03*
X-10160000Y-10160000D03*
X-13970000Y-7620000D03*
Y-5080000D03*
Y-2540000D03*
X-12065000Y-8890000D03*
X-10160000Y-7620000D03*
X-12065000Y-6350000D03*
X-10160000Y-5080000D03*
X-12065000Y-3810000D03*
X-10160000Y-2540000D03*
X-13970000Y0D03*
Y2540000D03*
X-12065000Y-1270000D03*
X-10160000Y0D03*
X-12065000Y1270000D03*
X-10160000Y2540000D03*
G54D13*
X-16536000Y23214000D03*
G54D14*
X-8916000D03*
X-11456000D03*
X-13996000D03*
X-1296000D03*
X-3836000D03*
X-6376000D03*
X6324000D03*
X3784000D03*
X1244000D03*
X13944000D03*
X11404000D03*
X8864000D03*
X19024000D03*
X16484000D03*
G54D15*
X-1612000Y-13970000D03*
X-2590000Y18080000D03*
X4452000Y-34290000D03*
X5088000Y-35560000D03*
X3816000Y-33020000D03*
X5770000Y-29210000D03*
X5768000Y-27940000D03*
X3180000Y-31800000D03*
X9168000Y-34290000D03*
X8586000Y-35298000D03*
X9806000Y-33020000D03*
X7620000Y-25400000D03*
Y-26670000D03*
X10494000Y-31800000D03*
X7620000Y-21590000D03*
Y-17780000D03*
Y-24130000D03*
Y-22860000D03*
Y-20320000D03*
Y-19050000D03*
Y-16510000D03*
Y-12700000D03*
Y-15240000D03*
Y-11430000D03*
Y-13970000D03*
Y-10160000D03*
Y-7620000D03*
Y-8890000D03*
Y-6350000D03*
Y-5080000D03*
X19040000Y-25400000D03*
X18716000Y-29210000D03*
X18402000Y-26670000D03*
X19998000Y-22860000D03*
X20636000Y-21590000D03*
X19360000Y-24130000D03*
X21274000Y-20320000D03*
X21912000Y-19050000D03*
X22550000Y-17780000D03*
X19510000Y-12700000D03*
X23826000Y-15240000D03*
X24464000Y-13970000D03*
X23188000Y-16510000D03*
G54D16*
X13565000Y-30750000D03*
Y-3520000D03*
G54D17*
X17352000Y13674000D03*
X23352000D03*
G54D18*
X20352000Y18374000D03*
G54D19*
G01X-22260000Y-59148000D02*
Y32118000D01*
X25440000D01*
Y-59148000D01*
X-22260000D01*
M02*
