%TF.GenerationSoftware,KiCad,Pcbnew,7.0.8-7.0.8~ubuntu22.04.1*%
%TF.CreationDate,2024-02-09T20:45:54-08:00*%
%TF.ProjectId,teensy_arena_12-12,7465656e-7379-45f6-9172-656e615f3132,rev?*%
%TF.SameCoordinates,Original*%
%TF.FileFunction,Paste,Top*%
%TF.FilePolarity,Positive*%
%FSLAX46Y46*%
G04 Gerber Fmt 4.6, Leading zero omitted, Abs format (unit mm)*
G04 Created by KiCad (PCBNEW 7.0.8-7.0.8~ubuntu22.04.1) date 2024-02-09 20:45:54*
%MOMM*%
%LPD*%
G01*
G04 APERTURE LIST*
G04 Aperture macros list*
%AMRoundRect*
0 Rectangle with rounded corners*
0 $1 Rounding radius*
0 $2 $3 $4 $5 $6 $7 $8 $9 X,Y pos of 4 corners*
0 Add a 4 corners polygon primitive as box body*
4,1,4,$2,$3,$4,$5,$6,$7,$8,$9,$2,$3,0*
0 Add four circle primitives for the rounded corners*
1,1,$1+$1,$2,$3*
1,1,$1+$1,$4,$5*
1,1,$1+$1,$6,$7*
1,1,$1+$1,$8,$9*
0 Add four rect primitives between the rounded corners*
20,1,$1+$1,$2,$3,$4,$5,0*
20,1,$1+$1,$4,$5,$6,$7,0*
20,1,$1+$1,$6,$7,$8,$9,0*
20,1,$1+$1,$8,$9,$2,$3,0*%
G04 Aperture macros list end*
%ADD10RoundRect,0.250000X1.184327X-0.048686X-0.634327X1.001314X-1.184327X0.048686X0.634327X-1.001314X0*%
%ADD11RoundRect,0.250000X0.625000X-0.312500X0.625000X0.312500X-0.625000X0.312500X-0.625000X-0.312500X0*%
%ADD12RoundRect,0.375000X-0.375000X0.875000X-0.375000X-0.875000X0.375000X-0.875000X0.375000X0.875000X0*%
%ADD13RoundRect,0.175000X-3.325000X3.325000X-3.325000X-3.325000X3.325000X-3.325000X3.325000X3.325000X0*%
%ADD14RoundRect,0.250000X0.385016X-0.583133X0.697516X-0.041867X-0.385016X0.583133X-0.697516X0.041867X0*%
%ADD15RoundRect,0.250000X0.041867X-0.697516X0.583133X-0.385016X-0.041867X0.697516X-0.583133X0.385016X0*%
%ADD16RoundRect,0.225000X0.225000X0.250000X-0.225000X0.250000X-0.225000X-0.250000X0.225000X-0.250000X0*%
%ADD17RoundRect,0.250000X-1.050000X-0.550000X1.050000X-0.550000X1.050000X0.550000X-1.050000X0.550000X0*%
%ADD18RoundRect,0.250000X-0.385016X0.583133X-0.697516X0.041867X0.385016X-0.583133X0.697516X-0.041867X0*%
%ADD19RoundRect,0.250000X1.001314X-0.634327X-0.048686X1.184327X-1.001314X0.634327X0.048686X-1.184327X0*%
%ADD20RoundRect,0.100000X0.637500X0.100000X-0.637500X0.100000X-0.637500X-0.100000X0.637500X-0.100000X0*%
%ADD21RoundRect,0.250000X0.048686X1.184327X-1.001314X-0.634327X-0.048686X-1.184327X1.001314X0.634327X0*%
%ADD22RoundRect,0.100000X-0.637500X-0.100000X0.637500X-0.100000X0.637500X0.100000X-0.637500X0.100000X0*%
%ADD23RoundRect,0.250000X-0.697516X-0.041867X-0.385016X-0.583133X0.697516X0.041867X0.385016X0.583133X0*%
%ADD24RoundRect,0.375000X-0.875000X-0.375000X0.875000X-0.375000X0.875000X0.375000X-0.875000X0.375000X0*%
%ADD25RoundRect,0.175000X-3.325000X-3.325000X3.325000X-3.325000X3.325000X3.325000X-3.325000X3.325000X0*%
%ADD26RoundRect,0.250000X0.634327X1.001314X-1.184327X-0.048686X-0.634327X-1.001314X1.184327X0.048686X0*%
%ADD27RoundRect,0.250000X-0.041867X0.697516X-0.583133X0.385016X0.041867X-0.697516X0.583133X-0.385016X0*%
%ADD28RoundRect,0.225000X-0.225000X-0.250000X0.225000X-0.250000X0.225000X0.250000X-0.225000X0.250000X0*%
%ADD29RoundRect,0.150000X0.625000X-0.150000X0.625000X0.150000X-0.625000X0.150000X-0.625000X-0.150000X0*%
%ADD30RoundRect,0.250000X0.650000X-0.350000X0.650000X0.350000X-0.650000X0.350000X-0.650000X-0.350000X0*%
%ADD31RoundRect,0.250000X-1.184327X0.048686X0.634327X-1.001314X1.184327X-0.048686X-0.634327X1.001314X0*%
%ADD32RoundRect,0.250000X0.697516X0.041867X0.385016X0.583133X-0.697516X-0.041867X-0.385016X-0.583133X0*%
%ADD33RoundRect,0.250000X-0.634327X-1.001314X1.184327X0.048686X0.634327X1.001314X-1.184327X-0.048686X0*%
%ADD34RoundRect,0.375000X-0.762260X0.570272X0.112740X-0.945272X0.762260X-0.570272X-0.112740X0.945272X0*%
%ADD35RoundRect,0.175000X-4.542034X1.217034X-1.217034X-4.542034X4.542034X-1.217034X1.217034X4.542034X0*%
%ADD36RoundRect,0.375000X0.875000X0.375000X-0.875000X0.375000X-0.875000X-0.375000X0.875000X-0.375000X0*%
%ADD37RoundRect,0.175000X3.325000X3.325000X-3.325000X3.325000X-3.325000X-3.325000X3.325000X-3.325000X0*%
%ADD38RoundRect,0.375000X-0.112740X-0.945272X0.762260X0.570272X0.112740X0.945272X-0.762260X-0.570272X0*%
%ADD39RoundRect,0.175000X1.217034X-4.542034X4.542034X1.217034X-1.217034X4.542034X-4.542034X-1.217034X0*%
%ADD40RoundRect,0.150000X0.512500X0.150000X-0.512500X0.150000X-0.512500X-0.150000X0.512500X-0.150000X0*%
%ADD41RoundRect,0.250000X-0.550000X1.050000X-0.550000X-1.050000X0.550000X-1.050000X0.550000X1.050000X0*%
%ADD42RoundRect,0.375000X0.570272X0.762260X-0.945272X-0.112740X-0.570272X-0.762260X0.945272X0.112740X0*%
%ADD43RoundRect,0.175000X1.217034X4.542034X-4.542034X1.217034X-1.217034X-4.542034X4.542034X-1.217034X0*%
%ADD44RoundRect,0.375000X0.762260X-0.570272X-0.112740X0.945272X-0.762260X0.570272X0.112740X-0.945272X0*%
%ADD45RoundRect,0.175000X4.542034X-1.217034X1.217034X4.542034X-4.542034X1.217034X-1.217034X-4.542034X0*%
%ADD46RoundRect,0.250000X-1.001314X0.634327X0.048686X-1.184327X1.001314X-0.634327X-0.048686X1.184327X0*%
%ADD47RoundRect,0.250000X-0.262500X-0.450000X0.262500X-0.450000X0.262500X0.450000X-0.262500X0.450000X0*%
%ADD48RoundRect,0.250000X0.583133X0.385016X0.041867X0.697516X-0.583133X-0.385016X-0.041867X-0.697516X0*%
%ADD49RoundRect,0.375000X0.945272X-0.112740X-0.570272X0.762260X-0.945272X0.112740X0.570272X-0.762260X0*%
%ADD50RoundRect,0.175000X4.542034X1.217034X-1.217034X4.542034X-4.542034X-1.217034X1.217034X-4.542034X0*%
%ADD51RoundRect,0.250000X-0.625000X0.312500X-0.625000X-0.312500X0.625000X-0.312500X0.625000X0.312500X0*%
%ADD52RoundRect,0.250000X-0.312500X-0.625000X0.312500X-0.625000X0.312500X0.625000X-0.312500X0.625000X0*%
%ADD53RoundRect,0.250000X1.050000X0.550000X-1.050000X0.550000X-1.050000X-0.550000X1.050000X-0.550000X0*%
%ADD54RoundRect,0.250000X-0.048686X-1.184327X1.001314X0.634327X0.048686X1.184327X-1.001314X-0.634327X0*%
%ADD55RoundRect,0.250000X0.312500X0.625000X-0.312500X0.625000X-0.312500X-0.625000X0.312500X-0.625000X0*%
%ADD56RoundRect,0.250000X0.550000X-1.050000X0.550000X1.050000X-0.550000X1.050000X-0.550000X-1.050000X0*%
%ADD57RoundRect,0.375000X-0.945272X0.112740X0.570272X-0.762260X0.945272X-0.112740X-0.570272X0.762260X0*%
%ADD58RoundRect,0.175000X-4.542034X-1.217034X1.217034X-4.542034X4.542034X1.217034X-1.217034X4.542034X0*%
%ADD59RoundRect,0.250000X-0.583133X-0.385016X-0.041867X-0.697516X0.583133X0.385016X0.041867X0.697516X0*%
%ADD60RoundRect,0.375000X0.375000X-0.875000X0.375000X0.875000X-0.375000X0.875000X-0.375000X-0.875000X0*%
%ADD61RoundRect,0.175000X3.325000X-3.325000X3.325000X3.325000X-3.325000X3.325000X-3.325000X-3.325000X0*%
%ADD62RoundRect,0.375000X-0.570272X-0.762260X0.945272X0.112740X0.570272X0.762260X-0.945272X-0.112740X0*%
%ADD63RoundRect,0.175000X-1.217034X-4.542034X4.542034X-1.217034X1.217034X4.542034X-4.542034X1.217034X0*%
%ADD64RoundRect,0.250000X-0.450000X0.262500X-0.450000X-0.262500X0.450000X-0.262500X0.450000X0.262500X0*%
%ADD65RoundRect,0.375000X0.112740X0.945272X-0.762260X-0.570272X-0.112740X-0.945272X0.762260X0.570272X0*%
%ADD66RoundRect,0.175000X-1.217034X4.542034X-4.542034X-1.217034X1.217034X-4.542034X4.542034X1.217034X0*%
G04 APERTURE END LIST*
D10*
%TO.C,C21*%
X104438393Y-106657972D03*
X101320701Y-104857972D03*
%TD*%
D11*
%TO.C,R12*%
X170774000Y-279912528D03*
X170774000Y-276987528D03*
%TD*%
D12*
%TO.C,U15*%
X161897000Y-275109028D03*
D13*
X159597000Y-281959028D03*
D12*
X157297000Y-275109028D03*
%TD*%
D14*
%TO.C,R11*%
X120659041Y-262719043D03*
X122121541Y-260185919D03*
%TD*%
D15*
%TO.C,R10*%
X85854956Y-222771569D03*
X88388080Y-221309069D03*
%TD*%
D16*
%TO.C,C3*%
X275320000Y-239080000D03*
X273770000Y-239080000D03*
%TD*%
%TO.C,C6*%
X225130000Y-293684000D03*
X223580000Y-293684000D03*
%TD*%
D17*
%TO.C,C24*%
X75095971Y-166370000D03*
X78695971Y-166370000D03*
%TD*%
D18*
%TO.C,R5*%
X234940958Y-92880956D03*
X233478458Y-95414080D03*
%TD*%
D19*
%TO.C,C19*%
X149837998Y-79508393D03*
X148037998Y-76390701D03*
%TD*%
D17*
%TO.C,C11*%
X276904028Y-202730000D03*
X280504028Y-202730000D03*
%TD*%
D20*
%TO.C,U3*%
X233402100Y-294342600D03*
X233402100Y-293692600D03*
X233402100Y-293042600D03*
X233402100Y-292392600D03*
X233402100Y-291742600D03*
X233402100Y-291092600D03*
X233402100Y-290442600D03*
X233402100Y-289792600D03*
X233402100Y-289142600D03*
X233402100Y-288492600D03*
X227677100Y-288492600D03*
X227677100Y-289142600D03*
X227677100Y-289792600D03*
X227677100Y-290442600D03*
X227677100Y-291092600D03*
X227677100Y-291742600D03*
X227677100Y-292392600D03*
X227677100Y-293042600D03*
X227677100Y-293692600D03*
X227677100Y-294342600D03*
%TD*%
D21*
%TO.C,C27*%
X106657972Y-251161606D03*
X104857972Y-254279298D03*
%TD*%
D16*
%TO.C,C8*%
X262687000Y-293654000D03*
X261137000Y-293654000D03*
%TD*%
D22*
%TO.C,U2*%
X277878400Y-238414800D03*
X277878400Y-239064800D03*
X277878400Y-239714800D03*
X277878400Y-240364800D03*
X277878400Y-241014800D03*
X277878400Y-241664800D03*
X277878400Y-242314800D03*
X277878400Y-242964800D03*
X277878400Y-243614800D03*
X277878400Y-244264800D03*
X283603400Y-244264800D03*
X283603400Y-243614800D03*
X283603400Y-242964800D03*
X283603400Y-242314800D03*
X283603400Y-241664800D03*
X283603400Y-241014800D03*
X283603400Y-240364800D03*
X283603400Y-239714800D03*
X283603400Y-239064800D03*
X283603400Y-238414800D03*
%TD*%
D23*
%TO.C,R7*%
X132828430Y-85854956D03*
X134290930Y-88388080D03*
%TD*%
D24*
%TO.C,U6*%
X275109028Y-193703000D03*
D25*
X281959028Y-196003000D03*
D24*
X275109028Y-198303000D03*
%TD*%
D26*
%TO.C,C14*%
X272459298Y-136346655D03*
X269341606Y-138146655D03*
%TD*%
D27*
%TO.C,R4*%
X269745043Y-132828430D03*
X267211919Y-134290930D03*
%TD*%
D28*
%TO.C,C9*%
X191729000Y-293604000D03*
X193279000Y-293604000D03*
%TD*%
D29*
%TO.C,J3*%
X299500000Y-232005000D03*
X299500000Y-231005000D03*
X299500000Y-230005000D03*
X299500000Y-229005000D03*
D30*
X303375000Y-233305000D03*
X303375000Y-227705000D03*
%TD*%
D28*
%TO.C,C2*%
X286499000Y-220472000D03*
X288049000Y-220472000D03*
%TD*%
%TO.C,C5*%
X235915000Y-293674000D03*
X237465000Y-293674000D03*
%TD*%
D31*
%TO.C,C22*%
X94570701Y-116549315D03*
X97688393Y-118349315D03*
%TD*%
D32*
%TO.C,R13*%
X222771569Y-269745043D03*
X221309069Y-267211919D03*
%TD*%
D16*
%TO.C,C10*%
X181129000Y-293564000D03*
X179579000Y-293564000D03*
%TD*%
D21*
%TO.C,C16*%
X239050684Y-94570701D03*
X237250684Y-97688393D03*
%TD*%
D33*
%TO.C,C26*%
X83140701Y-219253344D03*
X86258393Y-217453344D03*
%TD*%
D34*
%TO.C,U16*%
X212682112Y-270023591D03*
D35*
X214115254Y-277105865D03*
D34*
X208698396Y-272323591D03*
%TD*%
D36*
%TO.C,U12*%
X80490971Y-161897000D03*
D37*
X73640971Y-159597000D03*
D36*
X80490971Y-157297000D03*
%TD*%
D38*
%TO.C,U8*%
X240226916Y-101479408D03*
D39*
X245643774Y-96697134D03*
D38*
X244210632Y-103779408D03*
%TD*%
D22*
%TO.C,U1*%
X277993000Y-219874000D03*
X277993000Y-220524000D03*
X277993000Y-221174000D03*
X277993000Y-221824000D03*
X277993000Y-222474000D03*
X277993000Y-223124000D03*
X277993000Y-223774000D03*
X277993000Y-224424000D03*
X277993000Y-225074000D03*
X277993000Y-225724000D03*
X283718000Y-225724000D03*
X283718000Y-225074000D03*
X283718000Y-224424000D03*
X283718000Y-223774000D03*
X283718000Y-223124000D03*
X283718000Y-222474000D03*
X283718000Y-221824000D03*
X283718000Y-221174000D03*
X283718000Y-220524000D03*
X283718000Y-219874000D03*
%TD*%
D40*
%TO.C,Q2*%
X292343000Y-170114000D03*
X292343000Y-168214000D03*
X290068000Y-169164000D03*
%TD*%
D41*
%TO.C,C29*%
X152870000Y-276904028D03*
X152870000Y-280504028D03*
%TD*%
D42*
%TO.C,U13*%
X85576408Y-212682112D03*
D43*
X78494134Y-214115254D03*
D42*
X83276408Y-208698396D03*
%TD*%
D44*
%TO.C,U10*%
X142917887Y-85576408D03*
D45*
X141484745Y-78494134D03*
D44*
X146901603Y-83276408D03*
%TD*%
D46*
%TO.C,C31*%
X205762001Y-276091606D03*
X207562001Y-279209298D03*
%TD*%
D20*
%TO.C,U4*%
X270845100Y-294291800D03*
X270845100Y-293641800D03*
X270845100Y-292991800D03*
X270845100Y-292341800D03*
X270845100Y-291691800D03*
X270845100Y-291041800D03*
X270845100Y-290391800D03*
X270845100Y-289741800D03*
X270845100Y-289091800D03*
X270845100Y-288441800D03*
X265120100Y-288441800D03*
X265120100Y-289091800D03*
X265120100Y-289741800D03*
X265120100Y-290391800D03*
X265120100Y-291041800D03*
X265120100Y-291691800D03*
X265120100Y-292341800D03*
X265120100Y-292991800D03*
X265120100Y-293641800D03*
X265120100Y-294291800D03*
%TD*%
D47*
%TO.C,R1*%
X292307000Y-172466000D03*
X294132000Y-172466000D03*
%TD*%
D19*
%TO.C,C32*%
X219253344Y-272459298D03*
X217453344Y-269341606D03*
%TD*%
D48*
%TO.C,R14*%
X262719043Y-234940958D03*
X260185919Y-233478458D03*
%TD*%
D49*
%TO.C,U11*%
X101479408Y-115373083D03*
D50*
X96697134Y-109956225D03*
D49*
X103779408Y-111389367D03*
%TD*%
D41*
%TO.C,C18*%
X189230000Y-75095971D03*
X189230000Y-78695971D03*
%TD*%
D51*
%TO.C,R6*%
X184826000Y-75687471D03*
X184826000Y-78612471D03*
%TD*%
D52*
%TO.C,R9*%
X75687471Y-170774000D03*
X78612471Y-170774000D03*
%TD*%
D53*
%TO.C,C23*%
X78695971Y-152870000D03*
X75095971Y-152870000D03*
%TD*%
D54*
%TO.C,C28*%
X116549315Y-261029298D03*
X118349315Y-257911606D03*
%TD*%
D26*
%TO.C,C25*%
X79508393Y-205762001D03*
X76390701Y-207562001D03*
%TD*%
D55*
%TO.C,R3*%
X279912528Y-184826000D03*
X276987528Y-184826000D03*
%TD*%
D28*
%TO.C,C4*%
X286110000Y-239080000D03*
X287660000Y-239080000D03*
%TD*%
D46*
%TO.C,C20*%
X136346655Y-83140701D03*
X138146655Y-86258393D03*
%TD*%
D56*
%TO.C,C30*%
X166370000Y-280504028D03*
X166370000Y-276904028D03*
%TD*%
D28*
%TO.C,C7*%
X273517000Y-293624000D03*
X275067000Y-293624000D03*
%TD*%
D16*
%TO.C,C1*%
X274688600Y-220522800D03*
X273138600Y-220522800D03*
%TD*%
D10*
%TO.C,C34*%
X261029298Y-239050684D03*
X257911606Y-237250684D03*
%TD*%
D54*
%TO.C,C15*%
X248942027Y-104438393D03*
X250742027Y-101320701D03*
%TD*%
D33*
%TO.C,C13*%
X276091606Y-149837998D03*
X279209298Y-148037998D03*
%TD*%
D53*
%TO.C,C12*%
X280504028Y-189230000D03*
X276904028Y-189230000D03*
%TD*%
D57*
%TO.C,U17*%
X254120591Y-240226916D03*
D58*
X258902865Y-245643774D03*
D57*
X251820591Y-244210632D03*
%TD*%
D29*
%TO.C,J2*%
X299500000Y-241016000D03*
X299500000Y-240016000D03*
X299500000Y-239016000D03*
X299500000Y-238016000D03*
D30*
X303375000Y-242316000D03*
X303375000Y-236716000D03*
%TD*%
D59*
%TO.C,R8*%
X92880956Y-120659041D03*
X95414080Y-122121541D03*
%TD*%
D60*
%TO.C,U9*%
X193703000Y-80490971D03*
D61*
X196003000Y-73640971D03*
D60*
X198303000Y-80490971D03*
%TD*%
D62*
%TO.C,U7*%
X270023591Y-142917887D03*
D63*
X277105865Y-141484745D03*
D62*
X272323591Y-146901603D03*
%TD*%
D20*
%TO.C,U5*%
X189364200Y-294220800D03*
X189364200Y-293570800D03*
X189364200Y-292920800D03*
X189364200Y-292270800D03*
X189364200Y-291620800D03*
X189364200Y-290970800D03*
X189364200Y-290320800D03*
X189364200Y-289670800D03*
X189364200Y-289020800D03*
X189364200Y-288370800D03*
X183639200Y-288370800D03*
X183639200Y-289020800D03*
X183639200Y-289670800D03*
X183639200Y-290320800D03*
X183639200Y-290970800D03*
X183639200Y-291620800D03*
X183639200Y-292270800D03*
X183639200Y-292920800D03*
X183639200Y-293570800D03*
X183639200Y-294220800D03*
%TD*%
D64*
%TO.C,R2*%
X295148000Y-168251500D03*
X295148000Y-170076500D03*
%TD*%
D65*
%TO.C,U14*%
X115373083Y-254120591D03*
D66*
X109956225Y-258902865D03*
D65*
X111389367Y-251820591D03*
%TD*%
D31*
%TO.C,C33*%
X251161606Y-248942027D03*
X254279298Y-250742027D03*
%TD*%
D56*
%TO.C,C17*%
X202730000Y-78695971D03*
X202730000Y-75095971D03*
%TD*%
M02*
