%TF.GenerationSoftware,KiCad,Pcbnew,7.0.8-7.0.8~ubuntu22.04.1*%
%TF.CreationDate,2024-02-09T15:05:28-08:00*%
%TF.ProjectId,teensy_arena_12-12,7465656e-7379-45f6-9172-656e615f3132,rev?*%
%TF.SameCoordinates,Original*%
%TF.FileFunction,Copper,L1,Top*%
%TF.FilePolarity,Positive*%
%FSLAX46Y46*%
G04 Gerber Fmt 4.6, Leading zero omitted, Abs format (unit mm)*
G04 Created by KiCad (PCBNEW 7.0.8-7.0.8~ubuntu22.04.1) date 2024-02-09 15:05:28*
%MOMM*%
%LPD*%
G01*
G04 APERTURE LIST*
G04 Aperture macros list*
%AMRoundRect*
0 Rectangle with rounded corners*
0 $1 Rounding radius*
0 $2 $3 $4 $5 $6 $7 $8 $9 X,Y pos of 4 corners*
0 Add a 4 corners polygon primitive as box body*
4,1,4,$2,$3,$4,$5,$6,$7,$8,$9,$2,$3,0*
0 Add four circle primitives for the rounded corners*
1,1,$1+$1,$2,$3*
1,1,$1+$1,$4,$5*
1,1,$1+$1,$6,$7*
1,1,$1+$1,$8,$9*
0 Add four rect primitives between the rounded corners*
20,1,$1+$1,$2,$3,$4,$5,0*
20,1,$1+$1,$4,$5,$6,$7,0*
20,1,$1+$1,$6,$7,$8,$9,0*
20,1,$1+$1,$8,$9,$2,$3,0*%
%AMRotRect*
0 Rectangle, with rotation*
0 The origin of the aperture is its center*
0 $1 length*
0 $2 width*
0 $3 Rotation angle, in degrees counterclockwise*
0 Add horizontal line*
21,1,$1,$2,0,0,$3*%
G04 Aperture macros list end*
%TA.AperFunction,SMDPad,CuDef*%
%ADD10RoundRect,0.250000X0.583133X0.385016X0.041867X0.697516X-0.583133X-0.385016X-0.041867X-0.697516X0*%
%TD*%
%TA.AperFunction,SMDPad,CuDef*%
%ADD11RoundRect,0.250000X0.697516X0.041867X0.385016X0.583133X-0.697516X-0.041867X-0.385016X-0.583133X0*%
%TD*%
%TA.AperFunction,SMDPad,CuDef*%
%ADD12RoundRect,0.250000X0.625000X-0.312500X0.625000X0.312500X-0.625000X0.312500X-0.625000X-0.312500X0*%
%TD*%
%TA.AperFunction,SMDPad,CuDef*%
%ADD13RoundRect,0.250000X0.385016X-0.583133X0.697516X-0.041867X-0.385016X0.583133X-0.697516X0.041867X0*%
%TD*%
%TA.AperFunction,SMDPad,CuDef*%
%ADD14RoundRect,0.250000X0.041867X-0.697516X0.583133X-0.385016X-0.041867X0.697516X-0.583133X0.385016X0*%
%TD*%
%TA.AperFunction,SMDPad,CuDef*%
%ADD15RoundRect,0.250000X-0.312500X-0.625000X0.312500X-0.625000X0.312500X0.625000X-0.312500X0.625000X0*%
%TD*%
%TA.AperFunction,SMDPad,CuDef*%
%ADD16RoundRect,0.250000X-0.583133X-0.385016X-0.041867X-0.697516X0.583133X0.385016X0.041867X0.697516X0*%
%TD*%
%TA.AperFunction,SMDPad,CuDef*%
%ADD17RoundRect,0.250000X-0.697516X-0.041867X-0.385016X-0.583133X0.697516X0.041867X0.385016X0.583133X0*%
%TD*%
%TA.AperFunction,SMDPad,CuDef*%
%ADD18RoundRect,0.250000X-0.625000X0.312500X-0.625000X-0.312500X0.625000X-0.312500X0.625000X0.312500X0*%
%TD*%
%TA.AperFunction,SMDPad,CuDef*%
%ADD19RoundRect,0.250000X-0.385016X0.583133X-0.697516X0.041867X0.385016X-0.583133X0.697516X-0.041867X0*%
%TD*%
%TA.AperFunction,SMDPad,CuDef*%
%ADD20RoundRect,0.250000X-0.041867X0.697516X-0.583133X0.385016X0.041867X-0.697516X0.583133X-0.385016X0*%
%TD*%
%TA.AperFunction,SMDPad,CuDef*%
%ADD21RoundRect,0.250000X0.312500X0.625000X-0.312500X0.625000X-0.312500X-0.625000X0.312500X-0.625000X0*%
%TD*%
%TA.AperFunction,SMDPad,CuDef*%
%ADD22RoundRect,0.250000X1.184327X-0.048686X-0.634327X1.001314X-1.184327X0.048686X0.634327X-1.001314X0*%
%TD*%
%TA.AperFunction,SMDPad,CuDef*%
%ADD23RoundRect,0.250000X-0.350000X0.850000X-0.350000X-0.850000X0.350000X-0.850000X0.350000X0.850000X0*%
%TD*%
%TA.AperFunction,SMDPad,CuDef*%
%ADD24RoundRect,0.250000X-1.125000X1.275000X-1.125000X-1.275000X1.125000X-1.275000X1.125000X1.275000X0*%
%TD*%
%TA.AperFunction,SMDPad,CuDef*%
%ADD25RoundRect,0.249997X-2.650003X2.950003X-2.650003X-2.950003X2.650003X-2.950003X2.650003X2.950003X0*%
%TD*%
%TA.AperFunction,SMDPad,CuDef*%
%ADD26RoundRect,0.225000X0.225000X0.250000X-0.225000X0.250000X-0.225000X-0.250000X0.225000X-0.250000X0*%
%TD*%
%TA.AperFunction,ComponentPad*%
%ADD27C,9.000000*%
%TD*%
%TA.AperFunction,ComponentPad*%
%ADD28R,1.600000X1.600000*%
%TD*%
%TA.AperFunction,ComponentPad*%
%ADD29C,1.600000*%
%TD*%
%TA.AperFunction,ComponentPad*%
%ADD30RotRect,1.600000X1.600000X60.000000*%
%TD*%
%TA.AperFunction,SMDPad,CuDef*%
%ADD31RoundRect,0.250000X-1.050000X-0.550000X1.050000X-0.550000X1.050000X0.550000X-1.050000X0.550000X0*%
%TD*%
%TA.AperFunction,SMDPad,CuDef*%
%ADD32RoundRect,0.250000X1.001314X-0.634327X-0.048686X1.184327X-1.001314X0.634327X0.048686X-1.184327X0*%
%TD*%
%TA.AperFunction,ComponentPad*%
%ADD33C,2.540000*%
%TD*%
%TA.AperFunction,SMDPad,CuDef*%
%ADD34RoundRect,0.100000X0.637500X0.100000X-0.637500X0.100000X-0.637500X-0.100000X0.637500X-0.100000X0*%
%TD*%
%TA.AperFunction,SMDPad,CuDef*%
%ADD35RoundRect,0.250000X0.048686X1.184327X-1.001314X-0.634327X-0.048686X-1.184327X1.001314X0.634327X0*%
%TD*%
%TA.AperFunction,SMDPad,CuDef*%
%ADD36RoundRect,0.100000X-0.637500X-0.100000X0.637500X-0.100000X0.637500X0.100000X-0.637500X0.100000X0*%
%TD*%
%TA.AperFunction,ComponentPad*%
%ADD37RotRect,1.600000X1.600000X330.000000*%
%TD*%
%TA.AperFunction,SMDPad,CuDef*%
%ADD38RoundRect,0.250000X-0.850000X-0.350000X0.850000X-0.350000X0.850000X0.350000X-0.850000X0.350000X0*%
%TD*%
%TA.AperFunction,SMDPad,CuDef*%
%ADD39RoundRect,0.250000X-1.275000X-1.125000X1.275000X-1.125000X1.275000X1.125000X-1.275000X1.125000X0*%
%TD*%
%TA.AperFunction,SMDPad,CuDef*%
%ADD40RoundRect,0.249997X-2.950003X-2.650003X2.950003X-2.650003X2.950003X2.650003X-2.950003X2.650003X0*%
%TD*%
%TA.AperFunction,ComponentPad*%
%ADD41RotRect,1.600000X1.600000X30.000000*%
%TD*%
%TA.AperFunction,SMDPad,CuDef*%
%ADD42RoundRect,0.250000X0.634327X1.001314X-1.184327X-0.048686X-0.634327X-1.001314X1.184327X0.048686X0*%
%TD*%
%TA.AperFunction,SMDPad,CuDef*%
%ADD43RoundRect,0.225000X-0.225000X-0.250000X0.225000X-0.250000X0.225000X0.250000X-0.225000X0.250000X0*%
%TD*%
%TA.AperFunction,SMDPad,CuDef*%
%ADD44RoundRect,0.150000X0.625000X-0.150000X0.625000X0.150000X-0.625000X0.150000X-0.625000X-0.150000X0*%
%TD*%
%TA.AperFunction,SMDPad,CuDef*%
%ADD45RoundRect,0.250000X0.650000X-0.350000X0.650000X0.350000X-0.650000X0.350000X-0.650000X-0.350000X0*%
%TD*%
%TA.AperFunction,SMDPad,CuDef*%
%ADD46RoundRect,0.250000X-1.184327X0.048686X0.634327X-1.001314X1.184327X-0.048686X-0.634327X1.001314X0*%
%TD*%
%TA.AperFunction,SMDPad,CuDef*%
%ADD47RoundRect,0.250000X-0.634327X-1.001314X1.184327X0.048686X0.634327X1.001314X-1.184327X-0.048686X0*%
%TD*%
%TA.AperFunction,SMDPad,CuDef*%
%ADD48RoundRect,0.250000X-0.728109X0.561122X0.121891X-0.911122X0.728109X-0.561122X-0.121891X0.911122X0*%
%TD*%
%TA.AperFunction,SMDPad,CuDef*%
%ADD49RoundRect,0.250000X-1.611779X0.541682X-0.336779X-1.666682X1.611779X-0.541682X0.336779X1.666682X0*%
%TD*%
%TA.AperFunction,SMDPad,CuDef*%
%ADD50RoundRect,0.249997X-3.769971X1.229776X-0.819968X-3.879779X3.769971X-1.229776X0.819968X3.879779X0*%
%TD*%
%TA.AperFunction,SMDPad,CuDef*%
%ADD51RoundRect,0.250000X0.850000X0.350000X-0.850000X0.350000X-0.850000X-0.350000X0.850000X-0.350000X0*%
%TD*%
%TA.AperFunction,SMDPad,CuDef*%
%ADD52RoundRect,0.250000X1.275000X1.125000X-1.275000X1.125000X-1.275000X-1.125000X1.275000X-1.125000X0*%
%TD*%
%TA.AperFunction,SMDPad,CuDef*%
%ADD53RoundRect,0.249997X2.950003X2.650003X-2.950003X2.650003X-2.950003X-2.650003X2.950003X-2.650003X0*%
%TD*%
%TA.AperFunction,SMDPad,CuDef*%
%ADD54RoundRect,0.250000X-0.121891X-0.911122X0.728109X0.561122X0.121891X0.911122X-0.728109X-0.561122X0*%
%TD*%
%TA.AperFunction,SMDPad,CuDef*%
%ADD55RoundRect,0.250000X0.336779X-1.666682X1.611779X0.541682X-0.336779X1.666682X-1.611779X-0.541682X0*%
%TD*%
%TA.AperFunction,SMDPad,CuDef*%
%ADD56RoundRect,0.249997X0.819968X-3.879779X3.769971X1.229776X-0.819968X3.879779X-3.769971X-1.229776X0*%
%TD*%
%TA.AperFunction,SMDPad,CuDef*%
%ADD57RoundRect,0.150000X0.512500X0.150000X-0.512500X0.150000X-0.512500X-0.150000X0.512500X-0.150000X0*%
%TD*%
%TA.AperFunction,SMDPad,CuDef*%
%ADD58RoundRect,0.250000X-0.550000X1.050000X-0.550000X-1.050000X0.550000X-1.050000X0.550000X1.050000X0*%
%TD*%
%TA.AperFunction,SMDPad,CuDef*%
%ADD59RoundRect,0.250000X0.561122X0.728109X-0.911122X-0.121891X-0.561122X-0.728109X0.911122X0.121891X0*%
%TD*%
%TA.AperFunction,SMDPad,CuDef*%
%ADD60RoundRect,0.250000X0.541682X1.611779X-1.666682X0.336779X-0.541682X-1.611779X1.666682X-0.336779X0*%
%TD*%
%TA.AperFunction,SMDPad,CuDef*%
%ADD61RoundRect,0.249997X1.229776X3.769971X-3.879779X0.819968X-1.229776X-3.769971X3.879779X-0.819968X0*%
%TD*%
%TA.AperFunction,ComponentPad*%
%ADD62C,3.556000*%
%TD*%
%TA.AperFunction,ComponentPad*%
%ADD63C,1.930400*%
%TD*%
%TA.AperFunction,ComponentPad*%
%ADD64C,4.064000*%
%TD*%
%TA.AperFunction,SMDPad,CuDef*%
%ADD65RoundRect,0.250000X0.728109X-0.561122X-0.121891X0.911122X-0.728109X0.561122X0.121891X-0.911122X0*%
%TD*%
%TA.AperFunction,SMDPad,CuDef*%
%ADD66RoundRect,0.250000X1.611779X-0.541682X0.336779X1.666682X-1.611779X0.541682X-0.336779X-1.666682X0*%
%TD*%
%TA.AperFunction,SMDPad,CuDef*%
%ADD67RoundRect,0.249997X3.769971X-1.229776X0.819968X3.879779X-3.769971X1.229776X-0.819968X-3.879779X0*%
%TD*%
%TA.AperFunction,SMDPad,CuDef*%
%ADD68RoundRect,0.250000X-1.001314X0.634327X0.048686X-1.184327X1.001314X-0.634327X-0.048686X1.184327X0*%
%TD*%
%TA.AperFunction,ComponentPad*%
%ADD69RotRect,1.600000X1.600000X210.000000*%
%TD*%
%TA.AperFunction,SMDPad,CuDef*%
%ADD70RoundRect,0.250000X-0.262500X-0.450000X0.262500X-0.450000X0.262500X0.450000X-0.262500X0.450000X0*%
%TD*%
%TA.AperFunction,SMDPad,CuDef*%
%ADD71RoundRect,0.250000X0.911122X-0.121891X-0.561122X0.728109X-0.911122X0.121891X0.561122X-0.728109X0*%
%TD*%
%TA.AperFunction,SMDPad,CuDef*%
%ADD72RoundRect,0.250000X1.666682X0.336779X-0.541682X1.611779X-1.666682X-0.336779X0.541682X-1.611779X0*%
%TD*%
%TA.AperFunction,SMDPad,CuDef*%
%ADD73RoundRect,0.249997X3.879779X0.819968X-1.229776X3.769971X-3.879779X-0.819968X1.229776X-3.769971X0*%
%TD*%
%TA.AperFunction,ComponentPad*%
%ADD74R,1.300000X1.300000*%
%TD*%
%TA.AperFunction,ComponentPad*%
%ADD75C,1.300000*%
%TD*%
%TA.AperFunction,ComponentPad*%
%ADD76RotRect,1.600000X1.600000X240.000000*%
%TD*%
%TA.AperFunction,ComponentPad*%
%ADD77RotRect,1.600000X1.600000X300.000000*%
%TD*%
%TA.AperFunction,SMDPad,CuDef*%
%ADD78RoundRect,0.250000X1.050000X0.550000X-1.050000X0.550000X-1.050000X-0.550000X1.050000X-0.550000X0*%
%TD*%
%TA.AperFunction,SMDPad,CuDef*%
%ADD79RoundRect,0.250000X-0.048686X-1.184327X1.001314X0.634327X0.048686X1.184327X-1.001314X-0.634327X0*%
%TD*%
%TA.AperFunction,SMDPad,CuDef*%
%ADD80RoundRect,0.250000X0.550000X-1.050000X0.550000X1.050000X-0.550000X1.050000X-0.550000X-1.050000X0*%
%TD*%
%TA.AperFunction,SMDPad,CuDef*%
%ADD81RoundRect,0.250000X-0.911122X0.121891X0.561122X-0.728109X0.911122X-0.121891X-0.561122X0.728109X0*%
%TD*%
%TA.AperFunction,SMDPad,CuDef*%
%ADD82RoundRect,0.250000X-1.666682X-0.336779X0.541682X-1.611779X1.666682X0.336779X-0.541682X1.611779X0*%
%TD*%
%TA.AperFunction,SMDPad,CuDef*%
%ADD83RoundRect,0.249997X-3.879779X-0.819968X1.229776X-3.769971X3.879779X0.819968X-1.229776X3.769971X0*%
%TD*%
%TA.AperFunction,ComponentPad*%
%ADD84RotRect,1.600000X1.600000X120.000000*%
%TD*%
%TA.AperFunction,SMDPad,CuDef*%
%ADD85RoundRect,0.250000X0.350000X-0.850000X0.350000X0.850000X-0.350000X0.850000X-0.350000X-0.850000X0*%
%TD*%
%TA.AperFunction,SMDPad,CuDef*%
%ADD86RoundRect,0.250000X1.125000X-1.275000X1.125000X1.275000X-1.125000X1.275000X-1.125000X-1.275000X0*%
%TD*%
%TA.AperFunction,SMDPad,CuDef*%
%ADD87RoundRect,0.249997X2.650003X-2.950003X2.650003X2.950003X-2.650003X2.950003X-2.650003X-2.950003X0*%
%TD*%
%TA.AperFunction,ComponentPad*%
%ADD88RotRect,1.600000X1.600000X150.000000*%
%TD*%
%TA.AperFunction,SMDPad,CuDef*%
%ADD89RoundRect,0.250000X-0.561122X-0.728109X0.911122X0.121891X0.561122X0.728109X-0.911122X-0.121891X0*%
%TD*%
%TA.AperFunction,SMDPad,CuDef*%
%ADD90RoundRect,0.250000X-0.541682X-1.611779X1.666682X-0.336779X0.541682X1.611779X-1.666682X0.336779X0*%
%TD*%
%TA.AperFunction,SMDPad,CuDef*%
%ADD91RoundRect,0.249997X-1.229776X-3.769971X3.879779X-0.819968X1.229776X3.769971X-3.879779X0.819968X0*%
%TD*%
%TA.AperFunction,SMDPad,CuDef*%
%ADD92RoundRect,0.250000X-0.450000X0.262500X-0.450000X-0.262500X0.450000X-0.262500X0.450000X0.262500X0*%
%TD*%
%TA.AperFunction,SMDPad,CuDef*%
%ADD93RoundRect,0.250000X0.121891X0.911122X-0.728109X-0.561122X-0.121891X-0.911122X0.728109X0.561122X0*%
%TD*%
%TA.AperFunction,SMDPad,CuDef*%
%ADD94RoundRect,0.250000X-0.336779X1.666682X-1.611779X-0.541682X0.336779X-1.666682X1.611779X0.541682X0*%
%TD*%
%TA.AperFunction,SMDPad,CuDef*%
%ADD95RoundRect,0.249997X-0.819968X3.879779X-3.769971X-1.229776X0.819968X-3.879779X3.769971X1.229776X0*%
%TD*%
%TA.AperFunction,ViaPad*%
%ADD96C,0.600000*%
%TD*%
%TA.AperFunction,ViaPad*%
%ADD97C,1.800000*%
%TD*%
%TA.AperFunction,ViaPad*%
%ADD98C,1.500000*%
%TD*%
%TA.AperFunction,Conductor*%
%ADD99C,1.000000*%
%TD*%
%TA.AperFunction,Conductor*%
%ADD100C,0.300000*%
%TD*%
G04 APERTURE END LIST*
D10*
%TO.P,R14,1*%
%TO.N,/Panel Headers/POW.5V_HDR_12*%
X262719062Y-234940950D03*
%TO.P,R14,2*%
%TO.N,GND*%
X260185938Y-233478450D03*
%TD*%
D11*
%TO.P,R13,1*%
%TO.N,/Panel Headers/POW.5V_HDR_11*%
X222771550Y-269745062D03*
%TO.P,R13,2*%
%TO.N,GND*%
X221309050Y-267211938D03*
%TD*%
D12*
%TO.P,R12,1*%
%TO.N,/Panel Headers/POW.5V_HDR_10*%
X170774000Y-279912500D03*
%TO.P,R12,2*%
%TO.N,GND*%
X170774000Y-276987500D03*
%TD*%
D13*
%TO.P,R11,1*%
%TO.N,/Panel Headers/POW.5V_HDR_9*%
X120659050Y-262719062D03*
%TO.P,R11,2*%
%TO.N,GND*%
X122121550Y-260185938D03*
%TD*%
D14*
%TO.P,R10,1*%
%TO.N,/Panel Headers/POW.5V_HDR_8*%
X85854938Y-222771550D03*
%TO.P,R10,2*%
%TO.N,GND*%
X88388062Y-221309050D03*
%TD*%
D15*
%TO.P,R9,1*%
%TO.N,/Panel Headers/POW.5V_HDR_7*%
X75687500Y-170774000D03*
%TO.P,R9,2*%
%TO.N,GND*%
X78612500Y-170774000D03*
%TD*%
D16*
%TO.P,R8,1*%
%TO.N,/Panel Headers/POW.5V_HDR_6*%
X92880938Y-120659050D03*
%TO.P,R8,2*%
%TO.N,GND*%
X95414062Y-122121550D03*
%TD*%
D17*
%TO.P,R7,1*%
%TO.N,/Panel Headers/POW.5V_HDR_5*%
X132828450Y-85854938D03*
%TO.P,R7,2*%
%TO.N,GND*%
X134290950Y-88388062D03*
%TD*%
D18*
%TO.P,R6,1*%
%TO.N,/Panel Headers/POW.5V_HDR_4*%
X184826000Y-75687500D03*
%TO.P,R6,2*%
%TO.N,GND*%
X184826000Y-78612500D03*
%TD*%
D19*
%TO.P,R5,1*%
%TO.N,/Panel Headers/POW.5V_HDR_3*%
X234940950Y-92880938D03*
%TO.P,R5,2*%
%TO.N,GND*%
X233478450Y-95414062D03*
%TD*%
D20*
%TO.P,R4,2*%
%TO.N,GND*%
X267211938Y-134290950D03*
%TO.P,R4,1*%
%TO.N,/Panel Headers/POW.5V_HDR_2*%
X269745062Y-132828450D03*
%TD*%
D21*
%TO.P,R3,2*%
%TO.N,GND*%
X276987500Y-184826000D03*
%TO.P,R3,1*%
%TO.N,/Panel Headers/POW.5V_HDR_1*%
X279912500Y-184826000D03*
%TD*%
D22*
%TO.P,C21,1*%
%TO.N,VCC*%
X104438346Y-106658000D03*
%TO.P,C21,2*%
%TO.N,GND*%
X101320654Y-104858000D03*
%TD*%
D23*
%TO.P,U15,1,GND*%
%TO.N,GND*%
X161877000Y-276619000D03*
%TO.P,U15,2,VO*%
%TO.N,/Panel Headers/POW.5V_HDR_10*%
X159597000Y-276619000D03*
D24*
X161122000Y-281244000D03*
X158072000Y-281244000D03*
D25*
X159597000Y-282919000D03*
D24*
X161122000Y-284594000D03*
X158072000Y-284594000D03*
D23*
%TO.P,U15,3,VI*%
%TO.N,VCC*%
X157317000Y-276619000D03*
%TD*%
D26*
%TO.P,C3,1*%
%TO.N,+3.3V*%
X275320000Y-239080000D03*
%TO.P,C3,2*%
%TO.N,GND*%
X273770000Y-239080000D03*
%TD*%
D27*
%TO.P,H1,1,1*%
%TO.N,GND*%
X63500000Y-63500000D03*
%TD*%
D28*
%TO.P,P10,1*%
%TO.N,/Panel Headers/POW.5V_HDR_10*%
X160020000Y-265474000D03*
D29*
%TO.P,P10,2*%
%TO.N,GND*%
X162560000Y-265474000D03*
%TO.P,P10,3*%
%TO.N,/Panel Headers/RESET*%
X165100000Y-265474000D03*
%TO.P,P10,4*%
%TO.N,/Level Shifters/PAN5V.SCK_1*%
X167640000Y-265474000D03*
%TO.P,P10,5*%
%TO.N,/Level Shifters/PAN5V.MOSI_1*%
X170180000Y-265474000D03*
%TO.P,P10,6*%
%TO.N,/Level Shifters/PAN5V.MISO_1*%
X172720000Y-265474000D03*
%TO.P,P10,7*%
%TO.N,/Level Shifters/PAN5V.CS_15*%
X175260000Y-265474000D03*
%TO.P,P10,8*%
%TO.N,/Level Shifters/PAN5V.CS_16*%
X177800000Y-265474000D03*
%TO.P,P10,9*%
%TO.N,/Level Shifters/PAN5V.CS_17*%
X180340000Y-265474000D03*
%TO.P,P10,10*%
%TO.N,/Level Shifters/PAN5V.CS_18*%
X182880000Y-265474000D03*
%TO.P,P10,11*%
%TO.N,/Level Shifters/PAN5V.CS_19*%
X185420000Y-265474000D03*
%TO.P,P10,12*%
%TO.N,unconnected-(P10-Pad12)*%
X187960000Y-265474000D03*
%TO.P,P10,13*%
%TO.N,unconnected-(P10-Pad13)*%
X190500000Y-265474000D03*
%TO.P,P10,14*%
%TO.N,unconnected-(P10-Pad14)*%
X193040000Y-265474000D03*
%TO.P,P10,15*%
%TO.N,/Level Shifters/PAN5V.EXT_INT*%
X195580000Y-265474000D03*
%TD*%
D26*
%TO.P,C6,1*%
%TO.N,+5V*%
X225130000Y-293684000D03*
%TO.P,C6,2*%
%TO.N,GND*%
X223580000Y-293684000D03*
%TD*%
D30*
%TO.P,P12,1*%
%TO.N,/Panel Headers/POW.5V_HDR_12*%
X244837900Y-237034932D03*
D29*
%TO.P,P12,2*%
%TO.N,GND*%
X246107900Y-234835227D03*
%TO.P,P12,3*%
%TO.N,/Panel Headers/RESET*%
X247377900Y-232635523D03*
%TO.P,P12,4*%
%TO.N,/Level Shifters/PAN5V.SCK_1*%
X248647900Y-230435818D03*
%TO.P,P12,5*%
%TO.N,/Level Shifters/PAN5V.MOSI_1*%
X249917900Y-228236114D03*
%TO.P,P12,6*%
%TO.N,/Level Shifters/PAN5V.MISO_1*%
X251187900Y-226036409D03*
%TO.P,P12,7*%
%TO.N,/Level Shifters/PAN5V.CS_25*%
X252457900Y-223836705D03*
%TO.P,P12,8*%
%TO.N,/Level Shifters/PAN5V.CS_26*%
X253727900Y-221637000D03*
%TO.P,P12,9*%
%TO.N,/Level Shifters/PAN5V.CS_27*%
X254997900Y-219437295D03*
%TO.P,P12,10*%
%TO.N,/Level Shifters/PAN5V.CS_28*%
X256267900Y-217237591D03*
%TO.P,P12,11*%
%TO.N,/Level Shifters/PAN5V.CS_29*%
X257537900Y-215037886D03*
%TO.P,P12,12*%
%TO.N,unconnected-(P12-Pad12)*%
X258807900Y-212838182D03*
%TO.P,P12,13*%
%TO.N,unconnected-(P12-Pad13)*%
X260077900Y-210638477D03*
%TO.P,P12,14*%
%TO.N,unconnected-(P12-Pad14)*%
X261347900Y-208438773D03*
%TO.P,P12,15*%
%TO.N,/Level Shifters/PAN5V.EXT_INT*%
X262617900Y-206239068D03*
%TD*%
D28*
%TO.P,P7,1*%
%TO.N,/Panel Headers/POW.5V_HDR_7*%
X90126000Y-160020000D03*
D29*
%TO.P,P7,2*%
%TO.N,GND*%
X90126000Y-162560000D03*
%TO.P,P7,3*%
%TO.N,/Panel Headers/RESET*%
X90126000Y-165100000D03*
%TO.P,P7,4*%
%TO.N,/Level Shifters/PAN5V.SCK_1*%
X90126000Y-167640000D03*
%TO.P,P7,5*%
%TO.N,/Level Shifters/PAN5V.MOSI_1*%
X90126000Y-170180000D03*
%TO.P,P7,6*%
%TO.N,/Level Shifters/PAN5V.MISO_1*%
X90126000Y-172720000D03*
%TO.P,P7,7*%
%TO.N,/Level Shifters/PAN5V.CS_00*%
X90126000Y-175260000D03*
%TO.P,P7,8*%
%TO.N,/Level Shifters/PAN5V.CS_01*%
X90126000Y-177800000D03*
%TO.P,P7,9*%
%TO.N,/Level Shifters/PAN5V.CS_02*%
X90126000Y-180340000D03*
%TO.P,P7,10*%
%TO.N,/Level Shifters/PAN5V.CS_03*%
X90126000Y-182880000D03*
%TO.P,P7,11*%
%TO.N,/Level Shifters/PAN5V.CS_04*%
X90126000Y-185420000D03*
%TO.P,P7,12*%
%TO.N,unconnected-(P7-Pad12)*%
X90126000Y-187960000D03*
%TO.P,P7,13*%
%TO.N,unconnected-(P7-Pad13)*%
X90126000Y-190500000D03*
%TO.P,P7,14*%
%TO.N,unconnected-(P7-Pad14)*%
X90126000Y-193040000D03*
%TO.P,P7,15*%
%TO.N,/Level Shifters/PAN5V.EXT_INT*%
X90126000Y-195580000D03*
%TD*%
D31*
%TO.P,C24,1*%
%TO.N,/Panel Headers/POW.5V_HDR_7*%
X75096000Y-166370000D03*
%TO.P,C24,2*%
%TO.N,GND*%
X78696000Y-166370000D03*
%TD*%
D32*
%TO.P,C19,1*%
%TO.N,VCC*%
X149838000Y-79508346D03*
%TO.P,C19,2*%
%TO.N,GND*%
X148038000Y-76390654D03*
%TD*%
D31*
%TO.P,C11,1*%
%TO.N,VCC*%
X276904000Y-202730000D03*
%TO.P,C11,2*%
%TO.N,GND*%
X280504000Y-202730000D03*
%TD*%
D33*
%TO.P,SW1,1,A*%
%TO.N,Net-(SW1-A)*%
X296960000Y-90982800D03*
%TO.P,SW1,2,B*%
%TO.N,VCC*%
X296960000Y-86233000D03*
%TO.P,SW1,3,C*%
%TO.N,GND*%
X296960000Y-81483200D03*
%TD*%
D34*
%TO.P,U3,1,A1*%
%TO.N,/Level Shifters/PAN3V.CS_08*%
X233402100Y-294342600D03*
%TO.P,U3,2,VCCA*%
%TO.N,+3.3V*%
X233402100Y-293692600D03*
%TO.P,U3,3,A2*%
%TO.N,/Level Shifters/PAN3V.CS_09*%
X233402100Y-293042600D03*
%TO.P,U3,4,A3*%
%TO.N,/Level Shifters/PAN3V.CS_10*%
X233402100Y-292392600D03*
%TO.P,U3,5,A4*%
%TO.N,/Level Shifters/PAN3V.CS_11*%
X233402100Y-291742600D03*
%TO.P,U3,6,A5*%
%TO.N,/Level Shifters/PAN3V.CS_12*%
X233402100Y-291092600D03*
%TO.P,U3,7,A6*%
%TO.N,/Level Shifters/PAN3V.CS_13*%
X233402100Y-290442600D03*
%TO.P,U3,8,A7*%
%TO.N,/Level Shifters/PAN3V.CS_14*%
X233402100Y-289792600D03*
%TO.P,U3,9,A8*%
%TO.N,/Level Shifters/PAN3V.CS_15*%
X233402100Y-289142600D03*
%TO.P,U3,10,OE*%
%TO.N,+3.3V*%
X233402100Y-288492600D03*
%TO.P,U3,11,GND*%
%TO.N,GND*%
X227677100Y-288492600D03*
%TO.P,U3,12,B8*%
%TO.N,/Level Shifters/PAN5V.CS_15*%
X227677100Y-289142600D03*
%TO.P,U3,13,B7*%
%TO.N,/Level Shifters/PAN5V.CS_14*%
X227677100Y-289792600D03*
%TO.P,U3,14,B6*%
%TO.N,/Level Shifters/PAN5V.CS_13*%
X227677100Y-290442600D03*
%TO.P,U3,15,B5*%
%TO.N,/Level Shifters/PAN5V.CS_12*%
X227677100Y-291092600D03*
%TO.P,U3,16,B4*%
%TO.N,/Level Shifters/PAN5V.CS_11*%
X227677100Y-291742600D03*
%TO.P,U3,17,B3*%
%TO.N,/Level Shifters/PAN5V.CS_10*%
X227677100Y-292392600D03*
%TO.P,U3,18,B2*%
%TO.N,/Level Shifters/PAN5V.CS_09*%
X227677100Y-293042600D03*
%TO.P,U3,19,VCCB*%
%TO.N,+5V*%
X227677100Y-293692600D03*
%TO.P,U3,20,B1*%
%TO.N,/Level Shifters/PAN5V.CS_08*%
X227677100Y-294342600D03*
%TD*%
D35*
%TO.P,C27,1*%
%TO.N,VCC*%
X106658000Y-251161654D03*
%TO.P,C27,2*%
%TO.N,GND*%
X104858000Y-254279346D03*
%TD*%
D26*
%TO.P,C8,1*%
%TO.N,+5V*%
X262687000Y-293654000D03*
%TO.P,C8,2*%
%TO.N,GND*%
X261137000Y-293654000D03*
%TD*%
D36*
%TO.P,U2,1,A1*%
%TO.N,/Level Shifters/PAN3V.CS_00*%
X277878400Y-238414800D03*
%TO.P,U2,2,VCCA*%
%TO.N,+3.3V*%
X277878400Y-239064800D03*
%TO.P,U2,3,A2*%
%TO.N,/Level Shifters/PAN3V.CS_01*%
X277878400Y-239714800D03*
%TO.P,U2,4,A3*%
%TO.N,/Level Shifters/PAN3V.CS_02*%
X277878400Y-240364800D03*
%TO.P,U2,5,A4*%
%TO.N,/Level Shifters/PAN3V.CS_03*%
X277878400Y-241014800D03*
%TO.P,U2,6,A5*%
%TO.N,/Level Shifters/PAN3V.CS_04*%
X277878400Y-241664800D03*
%TO.P,U2,7,A6*%
%TO.N,/Level Shifters/PAN3V.CS_05*%
X277878400Y-242314800D03*
%TO.P,U2,8,A7*%
%TO.N,/Level Shifters/PAN3V.CS_06*%
X277878400Y-242964800D03*
%TO.P,U2,9,A8*%
%TO.N,/Level Shifters/PAN3V.CS_07*%
X277878400Y-243614800D03*
%TO.P,U2,10,OE*%
%TO.N,+3.3V*%
X277878400Y-244264800D03*
%TO.P,U2,11,GND*%
%TO.N,GND*%
X283603400Y-244264800D03*
%TO.P,U2,12,B8*%
%TO.N,/Level Shifters/PAN5V.CS_07*%
X283603400Y-243614800D03*
%TO.P,U2,13,B7*%
%TO.N,/Level Shifters/PAN5V.CS_06*%
X283603400Y-242964800D03*
%TO.P,U2,14,B6*%
%TO.N,/Level Shifters/PAN5V.CS_05*%
X283603400Y-242314800D03*
%TO.P,U2,15,B5*%
%TO.N,/Level Shifters/PAN5V.CS_04*%
X283603400Y-241664800D03*
%TO.P,U2,16,B4*%
%TO.N,/Level Shifters/PAN5V.CS_03*%
X283603400Y-241014800D03*
%TO.P,U2,17,B3*%
%TO.N,/Level Shifters/PAN5V.CS_02*%
X283603400Y-240364800D03*
%TO.P,U2,18,B2*%
%TO.N,/Level Shifters/PAN5V.CS_01*%
X283603400Y-239714800D03*
%TO.P,U2,19,VCCB*%
%TO.N,+5V*%
X283603400Y-239064800D03*
%TO.P,U2,20,B1*%
%TO.N,/Level Shifters/PAN5V.CS_00*%
X283603400Y-238414800D03*
%TD*%
D37*
%TO.P,P9,1*%
%TO.N,/Panel Headers/POW.5V_HDR_9*%
X118565068Y-244837900D03*
D29*
%TO.P,P9,2*%
%TO.N,GND*%
X120764773Y-246107900D03*
%TO.P,P9,3*%
%TO.N,/Panel Headers/RESET*%
X122964477Y-247377900D03*
%TO.P,P9,4*%
%TO.N,/Level Shifters/PAN5V.SCK_1*%
X125164182Y-248647900D03*
%TO.P,P9,5*%
%TO.N,/Level Shifters/PAN5V.MOSI_1*%
X127363886Y-249917900D03*
%TO.P,P9,6*%
%TO.N,/Level Shifters/PAN5V.MISO_1*%
X129563591Y-251187900D03*
%TO.P,P9,7*%
%TO.N,/Level Shifters/PAN5V.CS_10*%
X131763295Y-252457900D03*
%TO.P,P9,8*%
%TO.N,/Level Shifters/PAN5V.CS_11*%
X133963000Y-253727900D03*
%TO.P,P9,9*%
%TO.N,/Level Shifters/PAN5V.CS_12*%
X136162705Y-254997900D03*
%TO.P,P9,10*%
%TO.N,/Level Shifters/PAN5V.CS_13*%
X138362409Y-256267900D03*
%TO.P,P9,11*%
%TO.N,/Level Shifters/PAN5V.CS_14*%
X140562114Y-257537900D03*
%TO.P,P9,12*%
%TO.N,unconnected-(P9-Pad12)*%
X142761818Y-258807900D03*
%TO.P,P9,13*%
%TO.N,unconnected-(P9-Pad13)*%
X144961523Y-260077900D03*
%TO.P,P9,14*%
%TO.N,unconnected-(P9-Pad14)*%
X147161227Y-261347900D03*
%TO.P,P9,15*%
%TO.N,/Level Shifters/PAN5V.EXT_INT*%
X149360932Y-262617900D03*
%TD*%
D38*
%TO.P,U6,1,GND*%
%TO.N,GND*%
X276619000Y-193723000D03*
%TO.P,U6,2,VO*%
%TO.N,/Panel Headers/POW.5V_HDR_1*%
X276619000Y-196003000D03*
D39*
X281244000Y-194478000D03*
X281244000Y-197528000D03*
D40*
X282919000Y-196003000D03*
D39*
X284594000Y-194478000D03*
X284594000Y-197528000D03*
D38*
%TO.P,U6,3,VI*%
%TO.N,VCC*%
X276619000Y-198283000D03*
%TD*%
D41*
%TO.P,P11,1*%
%TO.N,/Panel Headers/POW.5V_HDR_11*%
X206239068Y-262617900D03*
D29*
%TO.P,P11,2*%
%TO.N,GND*%
X208438773Y-261347900D03*
%TO.P,P11,3*%
%TO.N,/Panel Headers/RESET*%
X210638477Y-260077900D03*
%TO.P,P11,4*%
%TO.N,/Level Shifters/PAN5V.SCK_1*%
X212838182Y-258807900D03*
%TO.P,P11,5*%
%TO.N,/Level Shifters/PAN5V.MOSI_1*%
X215037886Y-257537900D03*
%TO.P,P11,6*%
%TO.N,/Level Shifters/PAN5V.MISO_1*%
X217237591Y-256267900D03*
%TO.P,P11,7*%
%TO.N,/Level Shifters/PAN5V.CS_20*%
X219437295Y-254997900D03*
%TO.P,P11,8*%
%TO.N,/Level Shifters/PAN5V.CS_21*%
X221637000Y-253727900D03*
%TO.P,P11,9*%
%TO.N,/Level Shifters/PAN5V.CS_22*%
X223836705Y-252457900D03*
%TO.P,P11,10*%
%TO.N,/Level Shifters/PAN5V.CS_23*%
X226036409Y-251187900D03*
%TO.P,P11,11*%
%TO.N,/Level Shifters/PAN5V.CS_24*%
X228236114Y-249917900D03*
%TO.P,P11,12*%
%TO.N,unconnected-(P11-Pad12)*%
X230435818Y-248647900D03*
%TO.P,P11,13*%
%TO.N,unconnected-(P11-Pad13)*%
X232635523Y-247377900D03*
%TO.P,P11,14*%
%TO.N,unconnected-(P11-Pad14)*%
X234835227Y-246107900D03*
%TO.P,P11,15*%
%TO.N,/Level Shifters/PAN5V.EXT_INT*%
X237034932Y-244837900D03*
%TD*%
D42*
%TO.P,C14,1*%
%TO.N,/Panel Headers/POW.5V_HDR_2*%
X272459346Y-136346700D03*
%TO.P,C14,2*%
%TO.N,GND*%
X269341654Y-138146700D03*
%TD*%
D43*
%TO.P,C9,1*%
%TO.N,+3.3V*%
X191729000Y-293604000D03*
%TO.P,C9,2*%
%TO.N,GND*%
X193279000Y-293604000D03*
%TD*%
D44*
%TO.P,J3,1,Pin_1*%
%TO.N,GND*%
X299500000Y-232005000D03*
%TO.P,J3,2,Pin_2*%
%TO.N,+3.3V*%
X299500000Y-231005000D03*
%TO.P,J3,3,Pin_3*%
%TO.N,/Teensy/A0*%
X299500000Y-230005000D03*
%TO.P,J3,4,Pin_4*%
%TO.N,/Teensy/A1*%
X299500000Y-229005000D03*
D45*
%TO.P,J3,MP*%
%TO.N,N/C*%
X303375000Y-233305000D03*
X303375000Y-227705000D03*
%TD*%
D43*
%TO.P,C2,1*%
%TO.N,+5V*%
X286499000Y-220472000D03*
%TO.P,C2,2*%
%TO.N,GND*%
X288049000Y-220472000D03*
%TD*%
%TO.P,C5,1*%
%TO.N,+3.3V*%
X235915000Y-293674000D03*
%TO.P,C5,2*%
%TO.N,GND*%
X237465000Y-293674000D03*
%TD*%
D46*
%TO.P,C22,1*%
%TO.N,/Panel Headers/POW.5V_HDR_6*%
X94570654Y-116549300D03*
%TO.P,C22,2*%
%TO.N,GND*%
X97688346Y-118349300D03*
%TD*%
D26*
%TO.P,C10,1*%
%TO.N,+5V*%
X181129000Y-293564000D03*
%TO.P,C10,2*%
%TO.N,GND*%
X179579000Y-293564000D03*
%TD*%
D35*
%TO.P,C16,1*%
%TO.N,/Panel Headers/POW.5V_HDR_3*%
X239050700Y-94570654D03*
%TO.P,C16,2*%
%TO.N,GND*%
X237250700Y-97688346D03*
%TD*%
D47*
%TO.P,C26,1*%
%TO.N,/Panel Headers/POW.5V_HDR_8*%
X83140654Y-219253300D03*
%TO.P,C26,2*%
%TO.N,GND*%
X86258346Y-217453300D03*
%TD*%
D48*
%TO.P,U16,1,GND*%
%TO.N,GND*%
X213419838Y-271341332D03*
%TO.P,U16,2,VO*%
%TO.N,/Panel Headers/POW.5V_HDR_11*%
X211445300Y-272481332D03*
D49*
X215078489Y-275724199D03*
X212437111Y-277249199D03*
D50*
X214595300Y-277937292D03*
D49*
X216753489Y-278625385D03*
X214112111Y-280150385D03*
D48*
%TO.P,U16,3,VI*%
%TO.N,VCC*%
X209470762Y-273621332D03*
%TD*%
D51*
%TO.P,U12,1,GND*%
%TO.N,GND*%
X78981000Y-161877000D03*
%TO.P,U12,2,VO*%
%TO.N,/Panel Headers/POW.5V_HDR_7*%
X78981000Y-159597000D03*
D52*
X74356000Y-161122000D03*
X74356000Y-158072000D03*
D53*
X72681000Y-159597000D03*
D52*
X71006000Y-161122000D03*
X71006000Y-158072000D03*
D51*
%TO.P,U12,3,VI*%
%TO.N,VCC*%
X78981000Y-157317000D03*
%TD*%
D54*
%TO.P,U8,1,GND*%
%TO.N,GND*%
X240999262Y-100181668D03*
%TO.P,U8,2,VO*%
%TO.N,/Panel Headers/POW.5V_HDR_3*%
X242973800Y-101321668D03*
D55*
X243965611Y-96553801D03*
X246606989Y-98078801D03*
D56*
X246123800Y-95865708D03*
D55*
X245640611Y-93652615D03*
X248281989Y-95177615D03*
D54*
%TO.P,U8,3,VI*%
%TO.N,VCC*%
X244948338Y-102461668D03*
%TD*%
D27*
%TO.P,H3,1,1*%
%TO.N,GND*%
X292100000Y-292100000D03*
%TD*%
D36*
%TO.P,U1,1,A1*%
%TO.N,/Level Shifters/PAN3V.RESET*%
X277993000Y-219874000D03*
%TO.P,U1,2,VCCA*%
%TO.N,+3.3V*%
X277993000Y-220524000D03*
%TO.P,U1,3,A2*%
%TO.N,/Level Shifters/PAN3V.SCK_0*%
X277993000Y-221174000D03*
%TO.P,U1,4,A3*%
%TO.N,/Level Shifters/PAN3V.MOSI_0*%
X277993000Y-221824000D03*
%TO.P,U1,5,A4*%
%TO.N,/Level Shifters/PAN3V.MISO_0*%
X277993000Y-222474000D03*
%TO.P,U1,6,A5*%
%TO.N,unconnected-(U1-A5-Pad6)*%
X277993000Y-223124000D03*
%TO.P,U1,7,A6*%
%TO.N,/Level Shifters/PAN3V.SCK_1*%
X277993000Y-223774000D03*
%TO.P,U1,8,A7*%
%TO.N,/Level Shifters/PAN3V.MOSI_1*%
X277993000Y-224424000D03*
%TO.P,U1,9,A8*%
%TO.N,/Level Shifters/PAN3V.MISO_1*%
X277993000Y-225074000D03*
%TO.P,U1,10,OE*%
%TO.N,+3.3V*%
X277993000Y-225724000D03*
%TO.P,U1,11,GND*%
%TO.N,GND*%
X283718000Y-225724000D03*
%TO.P,U1,12,B8*%
%TO.N,/Level Shifters/PAN5V.MISO_1*%
X283718000Y-225074000D03*
%TO.P,U1,13,B7*%
%TO.N,/Level Shifters/PAN5V.MOSI_1*%
X283718000Y-224424000D03*
%TO.P,U1,14,B6*%
%TO.N,/Level Shifters/PAN5V.SCK_1*%
X283718000Y-223774000D03*
%TO.P,U1,15,B5*%
%TO.N,unconnected-(U1-B5-Pad15)*%
X283718000Y-223124000D03*
%TO.P,U1,16,B4*%
%TO.N,/Level Shifters/PAN5V.MISO_0*%
X283718000Y-222474000D03*
%TO.P,U1,17,B3*%
%TO.N,/Level Shifters/PAN5V.MOSI_0*%
X283718000Y-221824000D03*
%TO.P,U1,18,B2*%
%TO.N,/Level Shifters/PAN5V.SCK_0*%
X283718000Y-221174000D03*
%TO.P,U1,19,VCCB*%
%TO.N,+5V*%
X283718000Y-220524000D03*
%TO.P,U1,20,B1*%
%TO.N,/Level Shifters/PAN5V.RESET*%
X283718000Y-219874000D03*
%TD*%
D57*
%TO.P,Q2,1,G*%
%TO.N,Net-(Q2-G)*%
X292343000Y-170114000D03*
%TO.P,Q2,2,S*%
%TO.N,GND*%
X292343000Y-168214000D03*
%TO.P,Q2,3,D*%
%TO.N,/Panel Headers/RESET*%
X290068000Y-169164000D03*
%TD*%
D27*
%TO.P,H4,1,1*%
%TO.N,GND*%
X63500000Y-292100000D03*
%TD*%
D58*
%TO.P,C29,1*%
%TO.N,VCC*%
X152870000Y-276904000D03*
%TO.P,C29,2*%
%TO.N,GND*%
X152870000Y-280504000D03*
%TD*%
D59*
%TO.P,U13,1,GND*%
%TO.N,GND*%
X84258668Y-213419838D03*
%TO.P,U13,2,VO*%
%TO.N,/Panel Headers/POW.5V_HDR_8*%
X83118668Y-211445300D03*
D60*
X79875801Y-215078489D03*
X78350801Y-212437111D03*
D61*
X77662708Y-214595300D03*
D60*
X76974615Y-216753489D03*
X75449615Y-214112111D03*
D59*
%TO.P,U13,3,VI*%
%TO.N,VCC*%
X81978668Y-209470762D03*
%TD*%
D62*
%TO.P,J1,*%
%TO.N,*%
X299596200Y-111963200D03*
D63*
X301602800Y-116459000D03*
D62*
X299596200Y-120954800D03*
D64*
%TO.P,J1,1*%
%TO.N,Net-(SW1-A)*%
X292611200Y-116459000D03*
D62*
%TO.P,J1,2*%
%TO.N,GND*%
X298605600Y-116459000D03*
%TD*%
D65*
%TO.P,U10,1,GND*%
%TO.N,GND*%
X142180162Y-84258668D03*
%TO.P,U10,2,VO*%
%TO.N,/Panel Headers/POW.5V_HDR_5*%
X144154700Y-83118668D03*
D66*
X140521511Y-79875801D03*
X143162889Y-78350801D03*
D67*
X141004700Y-77662708D03*
D66*
X138846511Y-76974615D03*
X141487889Y-75449615D03*
D65*
%TO.P,U10,3,VI*%
%TO.N,VCC*%
X146129238Y-81978668D03*
%TD*%
D68*
%TO.P,C31,1*%
%TO.N,VCC*%
X205762000Y-276091654D03*
%TO.P,C31,2*%
%TO.N,GND*%
X207562000Y-279209346D03*
%TD*%
D69*
%TO.P,P5,1*%
%TO.N,/Panel Headers/POW.5V_HDR_5*%
X149360932Y-92982100D03*
D29*
%TO.P,P5,2*%
%TO.N,GND*%
X147161227Y-94252100D03*
%TO.P,P5,3*%
%TO.N,/Panel Headers/RESET*%
X144961523Y-95522100D03*
%TO.P,P5,4*%
%TO.N,/Level Shifters/PAN5V.SCK_0*%
X142761818Y-96792100D03*
%TO.P,P5,5*%
%TO.N,/Level Shifters/PAN5V.MOSI_0*%
X140562114Y-98062100D03*
%TO.P,P5,6*%
%TO.N,/Level Shifters/PAN5V.MISO_0*%
X138362409Y-99332100D03*
%TO.P,P5,7*%
%TO.N,/Level Shifters/PAN5V.CS_20*%
X136162705Y-100602100D03*
%TO.P,P5,8*%
%TO.N,/Level Shifters/PAN5V.CS_21*%
X133963000Y-101872100D03*
%TO.P,P5,9*%
%TO.N,/Level Shifters/PAN5V.CS_22*%
X131763295Y-103142100D03*
%TO.P,P5,10*%
%TO.N,/Level Shifters/PAN5V.CS_23*%
X129563591Y-104412100D03*
%TO.P,P5,11*%
%TO.N,/Level Shifters/PAN5V.CS_24*%
X127363886Y-105682100D03*
%TO.P,P5,12*%
%TO.N,unconnected-(P5-Pad12)*%
X125164182Y-106952100D03*
%TO.P,P5,13*%
%TO.N,unconnected-(P5-Pad13)*%
X122964477Y-108222100D03*
%TO.P,P5,14*%
%TO.N,unconnected-(P5-Pad14)*%
X120764773Y-109492100D03*
%TO.P,P5,15*%
%TO.N,/Level Shifters/PAN5V.EXT_INT*%
X118565068Y-110762100D03*
%TD*%
D34*
%TO.P,U4,1,A1*%
%TO.N,/Level Shifters/PAN3V.CS_16*%
X270845100Y-294291800D03*
%TO.P,U4,2,VCCA*%
%TO.N,+3.3V*%
X270845100Y-293641800D03*
%TO.P,U4,3,A2*%
%TO.N,/Level Shifters/PAN3V.CS_17*%
X270845100Y-292991800D03*
%TO.P,U4,4,A3*%
%TO.N,/Level Shifters/PAN3V.CS_18*%
X270845100Y-292341800D03*
%TO.P,U4,5,A4*%
%TO.N,/Level Shifters/PAN3V.CS_19*%
X270845100Y-291691800D03*
%TO.P,U4,6,A5*%
%TO.N,/Level Shifters/PAN3V.CS_20*%
X270845100Y-291041800D03*
%TO.P,U4,7,A6*%
%TO.N,/Level Shifters/PAN3V.CS_21*%
X270845100Y-290391800D03*
%TO.P,U4,8,A7*%
%TO.N,/Level Shifters/PAN3V.CS_22*%
X270845100Y-289741800D03*
%TO.P,U4,9,A8*%
%TO.N,/Level Shifters/PAN3V.CS_23*%
X270845100Y-289091800D03*
%TO.P,U4,10,OE*%
%TO.N,+3.3V*%
X270845100Y-288441800D03*
%TO.P,U4,11,GND*%
%TO.N,GND*%
X265120100Y-288441800D03*
%TO.P,U4,12,B8*%
%TO.N,/Level Shifters/PAN5V.CS_23*%
X265120100Y-289091800D03*
%TO.P,U4,13,B7*%
%TO.N,/Level Shifters/PAN5V.CS_22*%
X265120100Y-289741800D03*
%TO.P,U4,14,B6*%
%TO.N,/Level Shifters/PAN5V.CS_21*%
X265120100Y-290391800D03*
%TO.P,U4,15,B5*%
%TO.N,/Level Shifters/PAN5V.CS_20*%
X265120100Y-291041800D03*
%TO.P,U4,16,B4*%
%TO.N,/Level Shifters/PAN5V.CS_19*%
X265120100Y-291691800D03*
%TO.P,U4,17,B3*%
%TO.N,/Level Shifters/PAN5V.CS_18*%
X265120100Y-292341800D03*
%TO.P,U4,18,B2*%
%TO.N,/Level Shifters/PAN5V.CS_17*%
X265120100Y-292991800D03*
%TO.P,U4,19,VCCB*%
%TO.N,+5V*%
X265120100Y-293641800D03*
%TO.P,U4,20,B1*%
%TO.N,/Level Shifters/PAN5V.CS_16*%
X265120100Y-294291800D03*
%TD*%
D28*
%TO.P,P4,1*%
%TO.N,/Panel Headers/POW.5V_HDR_4*%
X195580000Y-90126000D03*
D29*
%TO.P,P4,2*%
%TO.N,GND*%
X193040000Y-90126000D03*
%TO.P,P4,3*%
%TO.N,/Panel Headers/RESET*%
X190500000Y-90126000D03*
%TO.P,P4,4*%
%TO.N,/Level Shifters/PAN5V.SCK_0*%
X187960000Y-90126000D03*
%TO.P,P4,5*%
%TO.N,/Level Shifters/PAN5V.MOSI_0*%
X185420000Y-90126000D03*
%TO.P,P4,6*%
%TO.N,/Level Shifters/PAN5V.MISO_0*%
X182880000Y-90126000D03*
%TO.P,P4,7*%
%TO.N,/Level Shifters/PAN5V.CS_15*%
X180340000Y-90126000D03*
%TO.P,P4,8*%
%TO.N,/Level Shifters/PAN5V.CS_16*%
X177800000Y-90126000D03*
%TO.P,P4,9*%
%TO.N,/Level Shifters/PAN5V.CS_17*%
X175260000Y-90126000D03*
%TO.P,P4,10*%
%TO.N,/Level Shifters/PAN5V.CS_18*%
X172720000Y-90126000D03*
%TO.P,P4,11*%
%TO.N,/Level Shifters/PAN5V.CS_19*%
X170180000Y-90126000D03*
%TO.P,P4,12*%
%TO.N,unconnected-(P4-Pad12)*%
X167640000Y-90126000D03*
%TO.P,P4,13*%
%TO.N,unconnected-(P4-Pad13)*%
X165100000Y-90126000D03*
%TO.P,P4,14*%
%TO.N,unconnected-(P4-Pad14)*%
X162560000Y-90126000D03*
%TO.P,P4,15*%
%TO.N,/Level Shifters/PAN5V.EXT_INT*%
X160020000Y-90126000D03*
%TD*%
D70*
%TO.P,R1,1*%
%TO.N,Net-(Q2-G)*%
X292307000Y-172466000D03*
%TO.P,R1,2*%
%TO.N,/Level Shifters/PAN5V.RESET*%
X294132000Y-172466000D03*
%TD*%
D32*
%TO.P,C32,1*%
%TO.N,/Panel Headers/POW.5V_HDR_11*%
X219253300Y-272459346D03*
%TO.P,C32,2*%
%TO.N,GND*%
X217453300Y-269341654D03*
%TD*%
D71*
%TO.P,U11,1,GND*%
%TO.N,GND*%
X100181668Y-114600738D03*
%TO.P,U11,2,VO*%
%TO.N,/Panel Headers/POW.5V_HDR_6*%
X101321668Y-112626200D03*
D72*
X96553801Y-111634389D03*
X98078801Y-108993011D03*
D73*
X95865708Y-109476200D03*
D72*
X93652615Y-109959389D03*
X95177615Y-107318011D03*
D71*
%TO.P,U11,3,VI*%
%TO.N,VCC*%
X102461668Y-110651662D03*
%TD*%
D28*
%TO.P,U18,1,GND*%
%TO.N,GND*%
X302895000Y-260985000D03*
D29*
%TO.P,U18,2,0_RX1_CRX2_CS1*%
%TO.N,/Level Shifters/PAN3V.CS_00*%
X300355000Y-260985000D03*
%TO.P,U18,3,1_TX1_CTX2_MISO1*%
%TO.N,/Level Shifters/PAN3V.MISO_1*%
X297815000Y-260985000D03*
%TO.P,U18,4,2_OUT2*%
%TO.N,/Level Shifters/PAN3V.CS_01*%
X295275000Y-260985000D03*
%TO.P,U18,5,3_LRCLK2*%
%TO.N,/Level Shifters/PAN3V.CS_02*%
X292735000Y-260985000D03*
%TO.P,U18,6,4_BCLK2*%
%TO.N,/Level Shifters/PAN3V.CS_03*%
X290195000Y-260985000D03*
%TO.P,U18,7,5_IN2*%
%TO.N,/Level Shifters/PAN3V.CS_04*%
X287655000Y-260985000D03*
%TO.P,U18,8,6_OUT1D*%
%TO.N,/Level Shifters/PAN3V.CS_05*%
X285115000Y-260985000D03*
%TO.P,U18,9,7_RX2_OUT1A*%
%TO.N,/Level Shifters/PAN3V.CS_06*%
X282575000Y-260985000D03*
%TO.P,U18,10,8_TX2_IN1*%
%TO.N,/Level Shifters/PAN3V.CS_07*%
X280035000Y-260985000D03*
%TO.P,U18,11,9_OUT1C*%
%TO.N,/Level Shifters/PAN3V.CS_08*%
X277495000Y-260985000D03*
%TO.P,U18,12,10_CS_MQSR*%
%TO.N,/Level Shifters/PAN3V.CS_09*%
X274955000Y-260985000D03*
%TO.P,U18,13,11_MOSI_CTX1*%
%TO.N,/Level Shifters/PAN3V.MOSI_0*%
X272415000Y-260985000D03*
%TO.P,U18,14,12_MISO_MQSL*%
%TO.N,/Level Shifters/PAN3V.MISO_0*%
X269875000Y-260985000D03*
%TO.P,U18,15,3V3*%
%TO.N,+3.3V*%
X267335000Y-260985000D03*
%TO.P,U18,16,24_A10_TX6_SCL2*%
%TO.N,/Level Shifters/PAN3V.CS_10*%
X264795000Y-260985000D03*
%TO.P,U18,17,25_A11_RX6_SDA2*%
%TO.N,/Level Shifters/PAN3V.CS_11*%
X262255000Y-260985000D03*
%TO.P,U18,18,26_A12_MOSI1*%
%TO.N,/Level Shifters/PAN3V.MOSI_1*%
X259715000Y-260985000D03*
%TO.P,U18,19,27_A13_SCK1*%
%TO.N,/Level Shifters/PAN3V.SCK_1*%
X257175000Y-260985000D03*
%TO.P,U18,20,28_RX7*%
%TO.N,/Level Shifters/PAN3V.CS_12*%
X254635000Y-260985000D03*
%TO.P,U18,21,29_TX7*%
%TO.N,/Level Shifters/PAN3V.CS_13*%
X252095000Y-260985000D03*
%TO.P,U18,22,30_CRX3*%
%TO.N,/Level Shifters/PAN3V.CS_14*%
X249555000Y-260985000D03*
%TO.P,U18,23,31_CTX3*%
%TO.N,/Level Shifters/PAN3V.CS_15*%
X247015000Y-260985000D03*
%TO.P,U18,24,32_OUT1B*%
%TO.N,/Level Shifters/PAN3V.CS_16*%
X244475000Y-260985000D03*
%TO.P,U18,25,33_MCLK2*%
%TO.N,/Level Shifters/PAN3V.EXT_INT*%
X244475000Y-276225000D03*
%TO.P,U18,26,34_RX8*%
%TO.N,/Level Shifters/PAN3V.RESET*%
X247015000Y-276225000D03*
%TO.P,U18,27,35_TX8*%
%TO.N,/Level Shifters/PAN3V.CS_29*%
X249555000Y-276225000D03*
%TO.P,U18,28,36_CS*%
%TO.N,/Level Shifters/PAN3V.CS_28*%
X252095000Y-276225000D03*
%TO.P,U18,29,37_CS*%
%TO.N,/Level Shifters/PAN3V.CS_27*%
X254635000Y-276225000D03*
%TO.P,U18,30,38_CS1_IN1*%
%TO.N,/Level Shifters/PAN3V.CS_26*%
X257175000Y-276225000D03*
%TO.P,U18,31,39_MISO1_OUT1A*%
%TO.N,/Level Shifters/PAN3V.CS_25*%
X259715000Y-276225000D03*
%TO.P,U18,32,40_A16*%
%TO.N,/Level Shifters/PAN3V.CS_24*%
X262255000Y-276225000D03*
%TO.P,U18,33,41_A17*%
%TO.N,/Level Shifters/PAN3V.CS_23*%
X264795000Y-276225000D03*
%TO.P,U18,34,GND*%
%TO.N,GND*%
X267335000Y-276225000D03*
%TO.P,U18,35,13_SCK_LED*%
%TO.N,/Level Shifters/PAN3V.SCK_0*%
X269875000Y-276225000D03*
%TO.P,U18,36,14_A0_TX3_SPDIF_OUT*%
%TO.N,/Teensy/A0*%
X272415000Y-276225000D03*
%TO.P,U18,37,15_A1_RX3_SPDIF_IN*%
%TO.N,/Teensy/A1*%
X274955000Y-276225000D03*
%TO.P,U18,38,16_A2_RX4_SCL1*%
%TO.N,/Level Shifters/PAN3V.CS_22*%
X277495000Y-276225000D03*
%TO.P,U18,39,17_A3_TX4_SDA1*%
%TO.N,/Level Shifters/PAN3V.CS_21*%
X280035000Y-276225000D03*
%TO.P,U18,40,18_A4_SDA*%
%TO.N,/Teensy/SDA*%
X282575000Y-276225000D03*
%TO.P,U18,41,19_A5_SCL*%
%TO.N,/Teensy/SCL*%
X285115000Y-276225000D03*
%TO.P,U18,42,20_A6_TX5_LRCLK1*%
%TO.N,/Level Shifters/PAN3V.CS_20*%
X287655000Y-276225000D03*
%TO.P,U18,43,21_A7_RX5_BCLK1*%
%TO.N,/Level Shifters/PAN3V.CS_19*%
X290195000Y-276225000D03*
%TO.P,U18,44,22_A8_CTX1*%
%TO.N,/Level Shifters/PAN3V.CS_18*%
X292735000Y-276225000D03*
%TO.P,U18,45,23_A9_CRX1_MCLK1*%
%TO.N,/Level Shifters/PAN3V.CS_17*%
X295275000Y-276225000D03*
%TO.P,U18,46,3V3*%
%TO.N,+3.3V*%
X297815000Y-276225000D03*
%TO.P,U18,47,GND*%
%TO.N,GND*%
X300355000Y-276225000D03*
%TO.P,U18,48,VIN*%
%TO.N,+5V*%
X302895000Y-276225000D03*
%TO.P,U18,49,VUSB*%
X300355000Y-273685000D03*
%TO.P,U18,50,VBAT*%
%TO.N,unconnected-(U18-VBAT-Pad50)*%
X257175000Y-263525000D03*
%TO.P,U18,51,3V3*%
%TO.N,unconnected-(U18-3V3-Pad51)*%
X257175000Y-266065000D03*
%TO.P,U18,52,GND*%
%TO.N,unconnected-(U18-GND-Pad52)*%
X257175000Y-268605000D03*
%TO.P,U18,53,PROGRAM*%
%TO.N,unconnected-(U18-PROGRAM-Pad53)*%
X257175000Y-271145000D03*
%TO.P,U18,54,ON_OFF*%
%TO.N,unconnected-(U18-ON_OFF-Pad54)*%
X257175000Y-273685000D03*
D28*
%TO.P,U18,55,5V*%
%TO.N,unconnected-(U18-5V-Pad55)*%
X296595800Y-264035800D03*
D29*
%TO.P,U18,56,D-*%
%TO.N,unconnected-(U18-D--Pad56)*%
X294055800Y-264035800D03*
%TO.P,U18,57,D+*%
%TO.N,unconnected-(U18-D+-Pad57)*%
X291515800Y-264035800D03*
%TO.P,U18,58,GND*%
%TO.N,unconnected-(U18-GND-Pad58)*%
X288975800Y-264035800D03*
%TO.P,U18,59,GND*%
%TO.N,unconnected-(U18-GND-Pad59)*%
X286435800Y-264035800D03*
D74*
%TO.P,U18,60,R+*%
%TO.N,unconnected-(U18-R+-Pad60)*%
X289925000Y-273786600D03*
D75*
%TO.P,U18,61,LED*%
%TO.N,unconnected-(U18-LED-Pad61)*%
X289925000Y-271786600D03*
%TO.P,U18,62,T-*%
%TO.N,unconnected-(U18-T--Pad62)*%
X289925000Y-269786600D03*
%TO.P,U18,63,T+*%
%TO.N,unconnected-(U18-T+-Pad63)*%
X287925000Y-269786600D03*
%TO.P,U18,64,GND*%
%TO.N,unconnected-(U18-GND-Pad64)*%
X287925000Y-271786600D03*
%TO.P,U18,65,R-*%
%TO.N,unconnected-(U18-R--Pad65)*%
X287925000Y-273786600D03*
%TO.P,U18,66,D-*%
%TO.N,unconnected-(U18-D--Pad66)*%
X302165000Y-269875000D03*
%TO.P,U18,67,D+*%
%TO.N,unconnected-(U18-D+-Pad67)*%
X302165000Y-267335000D03*
%TD*%
D58*
%TO.P,C18,1*%
%TO.N,/Panel Headers/POW.5V_HDR_4*%
X189230000Y-75096000D03*
%TO.P,C18,2*%
%TO.N,GND*%
X189230000Y-78696000D03*
%TD*%
D28*
%TO.P,P1,1*%
%TO.N,/Panel Headers/POW.5V_HDR_1*%
X265474000Y-195580000D03*
D29*
%TO.P,P1,2*%
%TO.N,GND*%
X265474000Y-193040000D03*
%TO.P,P1,3*%
%TO.N,/Panel Headers/RESET*%
X265474000Y-190500000D03*
%TO.P,P1,4*%
%TO.N,/Level Shifters/PAN5V.SCK_0*%
X265474000Y-187960000D03*
%TO.P,P1,5*%
%TO.N,/Level Shifters/PAN5V.MOSI_0*%
X265474000Y-185420000D03*
%TO.P,P1,6*%
%TO.N,/Level Shifters/PAN5V.MISO_0*%
X265474000Y-182880000D03*
%TO.P,P1,7*%
%TO.N,/Level Shifters/PAN5V.CS_00*%
X265474000Y-180340000D03*
%TO.P,P1,8*%
%TO.N,/Level Shifters/PAN5V.CS_01*%
X265474000Y-177800000D03*
%TO.P,P1,9*%
%TO.N,/Level Shifters/PAN5V.CS_02*%
X265474000Y-175260000D03*
%TO.P,P1,10*%
%TO.N,/Level Shifters/PAN5V.CS_03*%
X265474000Y-172720000D03*
%TO.P,P1,11*%
%TO.N,/Level Shifters/PAN5V.CS_04*%
X265474000Y-170180000D03*
%TO.P,P1,12*%
%TO.N,unconnected-(P1-Pad12)*%
X265474000Y-167640000D03*
%TO.P,P1,13*%
%TO.N,unconnected-(P1-Pad13)*%
X265474000Y-165100000D03*
%TO.P,P1,14*%
%TO.N,unconnected-(P1-Pad14)*%
X265474000Y-162560000D03*
%TO.P,P1,15*%
%TO.N,/Level Shifters/PAN5V.EXT_INT*%
X265474000Y-160020000D03*
%TD*%
D76*
%TO.P,P6,1*%
%TO.N,/Panel Headers/POW.5V_HDR_6*%
X110762100Y-118565068D03*
D29*
%TO.P,P6,2*%
%TO.N,GND*%
X109492100Y-120764773D03*
%TO.P,P6,3*%
%TO.N,/Panel Headers/RESET*%
X108222100Y-122964477D03*
%TO.P,P6,4*%
%TO.N,/Level Shifters/PAN5V.SCK_0*%
X106952100Y-125164182D03*
%TO.P,P6,5*%
%TO.N,/Level Shifters/PAN5V.MOSI_0*%
X105682100Y-127363886D03*
%TO.P,P6,6*%
%TO.N,/Level Shifters/PAN5V.MISO_0*%
X104412100Y-129563591D03*
%TO.P,P6,7*%
%TO.N,/Level Shifters/PAN5V.CS_25*%
X103142100Y-131763295D03*
%TO.P,P6,8*%
%TO.N,/Level Shifters/PAN5V.CS_26*%
X101872100Y-133963000D03*
%TO.P,P6,9*%
%TO.N,/Level Shifters/PAN5V.CS_27*%
X100602100Y-136162705D03*
%TO.P,P6,10*%
%TO.N,/Level Shifters/PAN5V.CS_28*%
X99332100Y-138362409D03*
%TO.P,P6,11*%
%TO.N,/Level Shifters/PAN5V.CS_29*%
X98062100Y-140562114D03*
%TO.P,P6,12*%
%TO.N,unconnected-(P6-Pad12)*%
X96792100Y-142761818D03*
%TO.P,P6,13*%
%TO.N,unconnected-(P6-Pad13)*%
X95522100Y-144961523D03*
%TO.P,P6,14*%
%TO.N,unconnected-(P6-Pad14)*%
X94252100Y-147161227D03*
%TO.P,P6,15*%
%TO.N,/Level Shifters/PAN5V.EXT_INT*%
X92982100Y-149360932D03*
%TD*%
D77*
%TO.P,P8,1*%
%TO.N,/Panel Headers/POW.5V_HDR_8*%
X92982100Y-206239068D03*
D29*
%TO.P,P8,2*%
%TO.N,GND*%
X94252100Y-208438773D03*
%TO.P,P8,3*%
%TO.N,/Panel Headers/RESET*%
X95522100Y-210638477D03*
%TO.P,P8,4*%
%TO.N,/Level Shifters/PAN5V.SCK_1*%
X96792100Y-212838182D03*
%TO.P,P8,5*%
%TO.N,/Level Shifters/PAN5V.MOSI_1*%
X98062100Y-215037886D03*
%TO.P,P8,6*%
%TO.N,/Level Shifters/PAN5V.MISO_1*%
X99332100Y-217237591D03*
%TO.P,P8,7*%
%TO.N,/Level Shifters/PAN5V.CS_05*%
X100602100Y-219437295D03*
%TO.P,P8,8*%
%TO.N,/Level Shifters/PAN5V.CS_06*%
X101872100Y-221637000D03*
%TO.P,P8,9*%
X103142100Y-223836705D03*
%TO.P,P8,10*%
%TO.N,/Level Shifters/PAN5V.CS_08*%
X104412100Y-226036409D03*
%TO.P,P8,11*%
%TO.N,/Level Shifters/PAN5V.CS_09*%
X105682100Y-228236114D03*
%TO.P,P8,12*%
%TO.N,unconnected-(P8-Pad12)*%
X106952100Y-230435818D03*
%TO.P,P8,13*%
%TO.N,unconnected-(P8-Pad13)*%
X108222100Y-232635523D03*
%TO.P,P8,14*%
%TO.N,unconnected-(P8-Pad14)*%
X109492100Y-234835227D03*
%TO.P,P8,15*%
%TO.N,/Level Shifters/PAN5V.EXT_INT*%
X110762100Y-237034932D03*
%TD*%
D78*
%TO.P,C23,1*%
%TO.N,VCC*%
X78696000Y-152870000D03*
%TO.P,C23,2*%
%TO.N,GND*%
X75096000Y-152870000D03*
%TD*%
D79*
%TO.P,C28,1*%
%TO.N,/Panel Headers/POW.5V_HDR_9*%
X116549300Y-261029346D03*
%TO.P,C28,2*%
%TO.N,GND*%
X118349300Y-257911654D03*
%TD*%
D42*
%TO.P,C25,1*%
%TO.N,VCC*%
X79508346Y-205762000D03*
%TO.P,C25,2*%
%TO.N,GND*%
X76390654Y-207562000D03*
%TD*%
D27*
%TO.P,H2,1,1*%
%TO.N,GND*%
X292100000Y-63500000D03*
%TD*%
D43*
%TO.P,C4,1*%
%TO.N,+5V*%
X286110000Y-239080000D03*
%TO.P,C4,2*%
%TO.N,GND*%
X287660000Y-239080000D03*
%TD*%
D68*
%TO.P,C20,1*%
%TO.N,/Panel Headers/POW.5V_HDR_5*%
X136346700Y-83140654D03*
%TO.P,C20,2*%
%TO.N,GND*%
X138146700Y-86258346D03*
%TD*%
D80*
%TO.P,C30,1*%
%TO.N,/Panel Headers/POW.5V_HDR_10*%
X166370000Y-280504000D03*
%TO.P,C30,2*%
%TO.N,GND*%
X166370000Y-276904000D03*
%TD*%
D43*
%TO.P,C7,1*%
%TO.N,+3.3V*%
X273517000Y-293624000D03*
%TO.P,C7,2*%
%TO.N,GND*%
X275067000Y-293624000D03*
%TD*%
D26*
%TO.P,C1,1*%
%TO.N,+3.3V*%
X274688600Y-220522800D03*
%TO.P,C1,2*%
%TO.N,GND*%
X273138600Y-220522800D03*
%TD*%
D22*
%TO.P,C34,1*%
%TO.N,/Panel Headers/POW.5V_HDR_12*%
X261029346Y-239050700D03*
%TO.P,C34,2*%
%TO.N,GND*%
X257911654Y-237250700D03*
%TD*%
D79*
%TO.P,C15,1*%
%TO.N,VCC*%
X248942000Y-104438346D03*
%TO.P,C15,2*%
%TO.N,GND*%
X250742000Y-101320654D03*
%TD*%
D47*
%TO.P,C13,1*%
%TO.N,VCC*%
X276091654Y-149838000D03*
%TO.P,C13,2*%
%TO.N,GND*%
X279209346Y-148038000D03*
%TD*%
D78*
%TO.P,C12,1*%
%TO.N,/Panel Headers/POW.5V_HDR_1*%
X280504000Y-189230000D03*
%TO.P,C12,2*%
%TO.N,GND*%
X276904000Y-189230000D03*
%TD*%
D81*
%TO.P,U17,1,GND*%
%TO.N,GND*%
X255418332Y-240999262D03*
%TO.P,U17,2,VO*%
%TO.N,/Panel Headers/POW.5V_HDR_12*%
X254278332Y-242973800D03*
D82*
X259046199Y-243965611D03*
X257521199Y-246606989D03*
D83*
X259734292Y-246123800D03*
D82*
X261947385Y-245640611D03*
X260422385Y-248281989D03*
D81*
%TO.P,U17,3,VI*%
%TO.N,VCC*%
X253138332Y-244948338D03*
%TD*%
D84*
%TO.P,P2,1*%
%TO.N,/Panel Headers/POW.5V_HDR_2*%
X262617900Y-149360932D03*
D29*
%TO.P,P2,2*%
%TO.N,GND*%
X261347900Y-147161227D03*
%TO.P,P2,3*%
%TO.N,/Panel Headers/RESET*%
X260077900Y-144961523D03*
%TO.P,P2,4*%
%TO.N,/Level Shifters/PAN5V.SCK_0*%
X258807900Y-142761818D03*
%TO.P,P2,5*%
%TO.N,/Level Shifters/PAN5V.MOSI_0*%
X257537900Y-140562114D03*
%TO.P,P2,6*%
%TO.N,/Level Shifters/PAN5V.MISO_0*%
X256267900Y-138362409D03*
%TO.P,P2,7*%
%TO.N,/Level Shifters/PAN5V.CS_05*%
X254997900Y-136162705D03*
%TO.P,P2,8*%
%TO.N,/Level Shifters/PAN5V.CS_06*%
X253727900Y-133963000D03*
%TO.P,P2,9*%
X252457900Y-131763295D03*
%TO.P,P2,10*%
%TO.N,/Level Shifters/PAN5V.CS_08*%
X251187900Y-129563591D03*
%TO.P,P2,11*%
%TO.N,/Level Shifters/PAN5V.CS_09*%
X249917900Y-127363886D03*
%TO.P,P2,12*%
%TO.N,unconnected-(P2-Pad12)*%
X248647900Y-125164182D03*
%TO.P,P2,13*%
%TO.N,unconnected-(P2-Pad13)*%
X247377900Y-122964477D03*
%TO.P,P2,14*%
%TO.N,unconnected-(P2-Pad14)*%
X246107900Y-120764773D03*
%TO.P,P2,15*%
%TO.N,/Level Shifters/PAN5V.EXT_INT*%
X244837900Y-118565068D03*
%TD*%
D44*
%TO.P,J2,1,Pin_1*%
%TO.N,GND*%
X299500000Y-241016000D03*
%TO.P,J2,2,Pin_2*%
%TO.N,+3.3V*%
X299500000Y-240016000D03*
%TO.P,J2,3,Pin_3*%
%TO.N,/Teensy/SDA*%
X299500000Y-239016000D03*
%TO.P,J2,4,Pin_4*%
%TO.N,/Teensy/SCL*%
X299500000Y-238016000D03*
D45*
%TO.P,J2,MP*%
%TO.N,N/C*%
X303375000Y-242316000D03*
X303375000Y-236716000D03*
%TD*%
D85*
%TO.P,U9,1,GND*%
%TO.N,GND*%
X193723000Y-78981000D03*
%TO.P,U9,2,VO*%
%TO.N,/Panel Headers/POW.5V_HDR_4*%
X196003000Y-78981000D03*
D86*
X194478000Y-74356000D03*
X197528000Y-74356000D03*
D87*
X196003000Y-72681000D03*
D86*
X194478000Y-71006000D03*
X197528000Y-71006000D03*
D85*
%TO.P,U9,3,VI*%
%TO.N,VCC*%
X198283000Y-78981000D03*
%TD*%
D88*
%TO.P,P3,1*%
%TO.N,/Panel Headers/POW.5V_HDR_3*%
X237034932Y-110762100D03*
D29*
%TO.P,P3,2*%
%TO.N,GND*%
X234835227Y-109492100D03*
%TO.P,P3,3*%
%TO.N,/Panel Headers/RESET*%
X232635523Y-108222100D03*
%TO.P,P3,4*%
%TO.N,/Level Shifters/PAN5V.SCK_0*%
X230435818Y-106952100D03*
%TO.P,P3,5*%
%TO.N,/Level Shifters/PAN5V.MOSI_0*%
X228236114Y-105682100D03*
%TO.P,P3,6*%
%TO.N,/Level Shifters/PAN5V.MISO_0*%
X226036409Y-104412100D03*
%TO.P,P3,7*%
%TO.N,/Level Shifters/PAN5V.CS_10*%
X223836705Y-103142100D03*
%TO.P,P3,8*%
%TO.N,/Level Shifters/PAN5V.CS_11*%
X221637000Y-101872100D03*
%TO.P,P3,9*%
%TO.N,/Level Shifters/PAN5V.CS_12*%
X219437295Y-100602100D03*
%TO.P,P3,10*%
%TO.N,/Level Shifters/PAN5V.CS_13*%
X217237591Y-99332100D03*
%TO.P,P3,11*%
%TO.N,/Level Shifters/PAN5V.CS_14*%
X215037886Y-98062100D03*
%TO.P,P3,12*%
%TO.N,unconnected-(P3-Pad12)*%
X212838182Y-96792100D03*
%TO.P,P3,13*%
%TO.N,unconnected-(P3-Pad13)*%
X210638477Y-95522100D03*
%TO.P,P3,14*%
%TO.N,unconnected-(P3-Pad14)*%
X208438773Y-94252100D03*
%TO.P,P3,15*%
%TO.N,/Level Shifters/PAN5V.EXT_INT*%
X206239068Y-92982100D03*
%TD*%
D89*
%TO.P,U7,1,GND*%
%TO.N,GND*%
X271341332Y-142180162D03*
%TO.P,U7,2,VO*%
%TO.N,/Panel Headers/POW.5V_HDR_2*%
X272481332Y-144154700D03*
D90*
X275724199Y-140521511D03*
X277249199Y-143162889D03*
D91*
X277937292Y-141004700D03*
D90*
X278625385Y-138846511D03*
X280150385Y-141487889D03*
D89*
%TO.P,U7,3,VI*%
%TO.N,VCC*%
X273621332Y-146129238D03*
%TD*%
D34*
%TO.P,U5,1,A1*%
%TO.N,/Level Shifters/PAN3V.CS_24*%
X189364200Y-294220800D03*
%TO.P,U5,2,VCCA*%
%TO.N,+3.3V*%
X189364200Y-293570800D03*
%TO.P,U5,3,A2*%
%TO.N,/Level Shifters/PAN3V.CS_25*%
X189364200Y-292920800D03*
%TO.P,U5,4,A3*%
%TO.N,/Level Shifters/PAN3V.CS_26*%
X189364200Y-292270800D03*
%TO.P,U5,5,A4*%
%TO.N,/Level Shifters/PAN3V.CS_27*%
X189364200Y-291620800D03*
%TO.P,U5,6,A5*%
%TO.N,/Level Shifters/PAN3V.CS_28*%
X189364200Y-290970800D03*
%TO.P,U5,7,A6*%
%TO.N,/Level Shifters/PAN3V.CS_29*%
X189364200Y-290320800D03*
%TO.P,U5,8,A7*%
%TO.N,unconnected-(U5-A7-Pad8)*%
X189364200Y-289670800D03*
%TO.P,U5,9,A8*%
%TO.N,/Level Shifters/PAN3V.EXT_INT*%
X189364200Y-289020800D03*
%TO.P,U5,10,OE*%
%TO.N,+3.3V*%
X189364200Y-288370800D03*
%TO.P,U5,11,GND*%
%TO.N,GND*%
X183639200Y-288370800D03*
%TO.P,U5,12,B8*%
%TO.N,/Level Shifters/PAN5V.EXT_INT*%
X183639200Y-289020800D03*
%TO.P,U5,13,B7*%
%TO.N,unconnected-(U5-B7-Pad13)*%
X183639200Y-289670800D03*
%TO.P,U5,14,B6*%
%TO.N,/Level Shifters/PAN5V.CS_29*%
X183639200Y-290320800D03*
%TO.P,U5,15,B5*%
%TO.N,/Level Shifters/PAN5V.CS_28*%
X183639200Y-290970800D03*
%TO.P,U5,16,B4*%
%TO.N,/Level Shifters/PAN5V.CS_27*%
X183639200Y-291620800D03*
%TO.P,U5,17,B3*%
%TO.N,/Level Shifters/PAN5V.CS_26*%
X183639200Y-292270800D03*
%TO.P,U5,18,B2*%
%TO.N,/Level Shifters/PAN5V.CS_25*%
X183639200Y-292920800D03*
%TO.P,U5,19,VCCB*%
%TO.N,+5V*%
X183639200Y-293570800D03*
%TO.P,U5,20,B1*%
%TO.N,/Level Shifters/PAN5V.CS_24*%
X183639200Y-294220800D03*
%TD*%
D92*
%TO.P,R2,1*%
%TO.N,GND*%
X295148000Y-168251500D03*
%TO.P,R2,2*%
%TO.N,Net-(Q2-G)*%
X295148000Y-170076500D03*
%TD*%
D93*
%TO.P,U14,1,GND*%
%TO.N,GND*%
X114600738Y-255418332D03*
%TO.P,U14,2,VO*%
%TO.N,/Panel Headers/POW.5V_HDR_9*%
X112626200Y-254278332D03*
D94*
X111634389Y-259046199D03*
X108993011Y-257521199D03*
D95*
X109476200Y-259734292D03*
D94*
X109959389Y-261947385D03*
X107318011Y-260422385D03*
D93*
%TO.P,U14,3,VI*%
%TO.N,VCC*%
X110651662Y-253138332D03*
%TD*%
D46*
%TO.P,C33,1*%
%TO.N,VCC*%
X251161654Y-248942000D03*
%TO.P,C33,2*%
%TO.N,GND*%
X254279346Y-250742000D03*
%TD*%
D80*
%TO.P,C17,1*%
%TO.N,VCC*%
X202730000Y-78696000D03*
%TO.P,C17,2*%
%TO.N,GND*%
X202730000Y-75096000D03*
%TD*%
D96*
%TO.N,+3.3V*%
X276530000Y-239080000D03*
X276520000Y-244710000D03*
X272312000Y-293642000D03*
X190704000Y-288384000D03*
X276510000Y-220523000D03*
X190704000Y-293571000D03*
X276555000Y-226105000D03*
X298965000Y-255460000D03*
X234840000Y-288464000D03*
X234830000Y-293714000D03*
X272302000Y-288424000D03*
%TO.N,+5V*%
X226200000Y-293684000D03*
X182274000Y-293564000D03*
X285060000Y-239065000D03*
X263782000Y-293654000D03*
X285140000Y-220524000D03*
D97*
%TO.N,VCC*%
X106934000Y-108052000D03*
D98*
X81534000Y-152908000D03*
D97*
X151232000Y-81940400D03*
X247548000Y-106883000D03*
D98*
X108052000Y-248768000D03*
X152857000Y-274269000D03*
D97*
X273863000Y-202743000D03*
X202743000Y-81584800D03*
D98*
X204419000Y-273812000D03*
D97*
X273710000Y-151181000D03*
D98*
X82042000Y-204318000D03*
D97*
X248768000Y-247548000D03*
D96*
%TO.N,/Teensy/SDA*%
X292705200Y-250229900D03*
%TO.N,/Teensy/SCL*%
X292015300Y-251914000D03*
%TO.N,/Teensy/A0*%
X290890300Y-250083100D03*
%TO.N,/Teensy/A1*%
X289128200Y-249402600D03*
%TO.N,/Level Shifters/PAN5V.SCK_1*%
X216154000Y-249769100D03*
X118912400Y-239769800D03*
%TO.N,/Level Shifters/PAN5V.SCK_0*%
X184048400Y-96672400D03*
%TO.N,/Level Shifters/PAN5V.CS_00*%
X201087200Y-254830500D03*
X247868200Y-243462700D03*
X208768200Y-254869300D03*
X92124000Y-178850400D03*
X264617200Y-231546400D03*
%TO.N,/Level Shifters/PAN5V.CS_01*%
X267169000Y-232841800D03*
X93446600Y-159004000D03*
%TO.N,/Level Shifters/PAN5V.CS_02*%
X267826500Y-233578400D03*
%TO.N,/Level Shifters/PAN5V.CS_03*%
X249631200Y-242900200D03*
X268326500Y-234683900D03*
%TO.N,/Level Shifters/PAN5V.CS_04*%
X281041800Y-227549600D03*
X282362600Y-241651700D03*
X266517700Y-227534100D03*
X110559250Y-228810150D03*
%TO.N,/Level Shifters/PAN5V.EXT_INT*%
X175793400Y-272542000D03*
X140395000Y-252309300D03*
X246829800Y-220548200D03*
X94763166Y-151585166D03*
%TO.N,GND*%
X92964000Y-178409600D03*
X183108600Y-95935800D03*
X263542000Y-287954000D03*
D97*
X281635000Y-146710000D03*
D96*
X257708400Y-208305400D03*
X222330000Y-293724000D03*
X100711000Y-148666200D03*
X259852000Y-293674000D03*
X144975000Y-102050000D03*
D97*
X239558000Y-102358000D03*
D96*
X255930400Y-151638000D03*
X267106400Y-234264200D03*
X228436966Y-240908366D03*
X282321000Y-243408200D03*
X264871200Y-278765000D03*
X176606200Y-272262600D03*
X289350000Y-220470000D03*
X245389400Y-223012000D03*
D98*
X103530000Y-256540000D03*
D96*
X249910600Y-280162000D03*
X300837600Y-252755400D03*
X272423434Y-287384034D03*
X289864800Y-249885200D03*
X218465400Y-288163000D03*
X241274600Y-280517600D03*
X133781800Y-276199600D03*
X190271400Y-281432000D03*
X200837800Y-253923800D03*
D97*
X116141000Y-253091000D03*
D96*
X210718400Y-283006800D03*
X235585000Y-287705800D03*
X167549300Y-262280400D03*
X238582200Y-280111200D03*
X271880000Y-220530000D03*
X186744800Y-292277800D03*
X254457200Y-280289000D03*
X242214400Y-242290600D03*
X193395600Y-274929600D03*
X229616000Y-291973000D03*
X186690000Y-283895800D03*
X294563800Y-228930200D03*
X94996000Y-249961400D03*
X261035800Y-224790000D03*
X178334000Y-293584000D03*
X274726400Y-222453200D03*
X248843800Y-243459000D03*
X187175000Y-298900000D03*
D97*
X102491000Y-116129000D03*
X256692000Y-252120000D03*
D96*
X110464600Y-229793800D03*
X133375400Y-279222200D03*
X226089268Y-288245400D03*
X272480000Y-239100000D03*
X263144000Y-280543000D03*
X194564000Y-293624000D03*
X275005800Y-235458000D03*
X191668400Y-288417000D03*
X139573000Y-291490400D03*
D97*
X81690000Y-162043000D03*
X86628600Y-212239000D03*
D96*
X292912800Y-251383800D03*
X280365200Y-228244400D03*
D98*
X152857000Y-283261000D03*
D97*
X146660000Y-74066400D03*
D98*
X208991000Y-281584000D03*
D96*
X263575800Y-231927400D03*
X288960000Y-239080000D03*
X271678400Y-213410800D03*
X221996000Y-300319200D03*
X240639600Y-129336800D03*
X162280600Y-92760800D03*
X257937000Y-279425400D03*
X275259800Y-225069400D03*
X148590000Y-102920800D03*
D97*
X98704400Y-103378000D03*
D96*
X236677200Y-280090100D03*
X227787200Y-110032800D03*
X208127600Y-255549400D03*
D97*
X283159000Y-202743000D03*
D96*
X234899200Y-280090100D03*
D97*
X193546000Y-81870000D03*
D96*
X150698200Y-103124000D03*
D97*
X143322000Y-86548500D03*
D96*
X94765300Y-152654000D03*
X271119600Y-224434400D03*
X228396800Y-278409400D03*
X238770000Y-293664000D03*
X247601500Y-263956800D03*
X255092200Y-277698200D03*
X185978800Y-280543000D03*
X231444800Y-279806400D03*
X263017000Y-290093400D03*
D97*
X252947000Y-239363000D03*
D96*
X93447100Y-157835600D03*
X202300367Y-257875567D03*
X296790000Y-167440000D03*
X190825000Y-298200000D03*
X168478200Y-92927300D03*
D97*
X252222000Y-98806000D03*
X162042000Y-273930000D03*
D96*
X297800000Y-232490000D03*
X188950600Y-274878800D03*
X114526534Y-228525866D03*
X279933400Y-224358200D03*
X139776200Y-251637800D03*
X90601800Y-253974600D03*
D98*
X74066400Y-208890000D03*
D97*
X212112000Y-268718000D03*
D96*
X119375000Y-234450000D03*
X186156600Y-294055800D03*
X242189000Y-235813600D03*
X279933400Y-250444000D03*
X110693200Y-275437600D03*
D97*
X268938000Y-143378000D03*
D96*
X260629400Y-279374600D03*
X215214200Y-249707400D03*
X127558800Y-280949400D03*
D97*
X202743000Y-72339200D03*
D96*
X247474266Y-219762866D03*
X221900000Y-243975000D03*
X266471400Y-228371400D03*
X297790000Y-241470000D03*
X279984200Y-220853000D03*
X181934000Y-287974000D03*
X240639600Y-254838200D03*
X271094200Y-282727400D03*
X266039600Y-266573000D03*
X285005000Y-244625000D03*
D98*
X72186800Y-152857000D03*
D96*
X276362000Y-293614000D03*
X282490000Y-226670000D03*
X284962600Y-255371600D03*
X226854200Y-260705600D03*
X220014800Y-282041600D03*
X270100000Y-284850000D03*
X228756539Y-282738954D03*
X244856000Y-280339800D03*
D97*
X274120000Y-193570000D03*
D96*
%TO.N,/Level Shifters/PAN5V.CS_05*%
X282338700Y-242562100D03*
X270694700Y-213310700D03*
X279515700Y-220138600D03*
%TO.N,/Level Shifters/PAN5V.CS_06*%
X263316000Y-231063800D03*
%TO.N,/Level Shifters/PAN5V.CS_08*%
X239505900Y-280238200D03*
X126867200Y-281554700D03*
%TO.N,/Level Shifters/PAN5V.CS_09*%
X228919700Y-292595500D03*
X242112800Y-234848400D03*
X201319775Y-257857904D03*
%TO.N,/Level Shifters/PAN5V.CS_10*%
X227503700Y-259982400D03*
X227503700Y-278415200D03*
X223403400Y-292182100D03*
X255859700Y-150633400D03*
X219134400Y-287705800D03*
%TO.N,/Level Shifters/PAN5V.CS_11*%
X241325400Y-242634800D03*
X256851300Y-208653400D03*
X237693200Y-280543000D03*
X226875000Y-109375000D03*
%TO.N,/Level Shifters/PAN5V.CS_12*%
X241058500Y-255723100D03*
X235737400Y-280593800D03*
%TO.N,/Level Shifters/PAN5V.CS_13*%
X138362400Y-291533400D03*
X233887850Y-280471450D03*
%TO.N,/Level Shifters/PAN5V.CS_14*%
X225547000Y-289792600D03*
X140562100Y-292089500D03*
X229743000Y-282651200D03*
X232507200Y-279661900D03*
%TO.N,/Level Shifters/PAN5V.CS_15*%
X162102800Y-93573600D03*
X187394300Y-291642800D03*
X186280400Y-279784900D03*
%TO.N,/Level Shifters/PAN5V.CS_16*%
X295503600Y-228930200D03*
X222659500Y-299720000D03*
X300101000Y-253187200D03*
X189298600Y-281617500D03*
%TO.N,/Level Shifters/PAN5V.CS_17*%
X258886850Y-293659450D03*
X191363600Y-281305000D03*
%TO.N,/Level Shifters/PAN5V.CS_18*%
X188043800Y-274901900D03*
X188043800Y-298907200D03*
%TO.N,/Level Shifters/PAN5V.CS_19*%
X167335200Y-92927300D03*
X192527000Y-274879400D03*
X191778600Y-298085800D03*
%TO.N,/Level Shifters/PAN5V.CS_20*%
X255789684Y-277074884D03*
X265068300Y-279583900D03*
X145821400Y-101600000D03*
%TO.N,/Level Shifters/PAN5V.CS_21*%
X240997266Y-128521934D03*
%TO.N,/Level Shifters/PAN5V.CS_22*%
X269051100Y-284910250D03*
X263878000Y-290067500D03*
X151561800Y-102184200D03*
%TO.N,/Level Shifters/PAN5V.CS_23*%
X258521200Y-278702000D03*
X258515500Y-267335000D03*
X149364700Y-103212900D03*
%TO.N,/Level Shifters/PAN5V.CS_24*%
X186723500Y-284702900D03*
X185496200Y-294564600D03*
X132629600Y-279685000D03*
X210743800Y-284022800D03*
%TO.N,/Level Shifters/PAN5V.CS_25*%
X109765300Y-275740700D03*
X245374800Y-223836700D03*
X219270900Y-282658500D03*
%TO.N,/Level Shifters/PAN5V.CS_26*%
X133959600Y-276997200D03*
X240172900Y-275534500D03*
X100161900Y-148012100D03*
%TO.N,/Level Shifters/PAN5V.CS_27*%
X89907700Y-254602100D03*
X240659700Y-274670700D03*
%TO.N,/Level Shifters/PAN5V.CS_28*%
X241391000Y-273958200D03*
X94361000Y-250571000D03*
%TO.N,/Level Shifters/PAN5V.CS_29*%
X119450884Y-233450216D03*
X177153768Y-271576800D03*
X199745600Y-253949200D03*
%TO.N,/Level Shifters/PAN5V.MOSI_1*%
X168198800Y-261670800D03*
X223164400Y-243960000D03*
X118516400Y-233603800D03*
%TO.N,/Level Shifters/PAN5V.MISO_1*%
X228469700Y-241824500D03*
X119251200Y-235363400D03*
%TO.N,/Level Shifters/PAN3V.RESET*%
X261623600Y-225433600D03*
%TO.N,/Level Shifters/PAN3V.SCK_0*%
X273913600Y-221792800D03*
%TO.N,/Level Shifters/PAN3V.MOSI_0*%
X275666400Y-222231000D03*
%TO.N,/Level Shifters/PAN3V.MISO_0*%
X272248900Y-224463800D03*
%TO.N,/Level Shifters/PAN3V.SCK_1*%
X270460700Y-225381300D03*
%TO.N,/Level Shifters/PAN3V.MOSI_1*%
X275664400Y-225879800D03*
X274138500Y-235475000D03*
%TO.N,/Level Shifters/PAN3V.MISO_1*%
X279883200Y-225205900D03*
X283318100Y-245862500D03*
%TO.N,/Level Shifters/PAN3V.CS_05*%
X285726400Y-254850200D03*
%TO.N,/Level Shifters/PAN3V.CS_06*%
X280822400Y-250469400D03*
%TO.N,/Level Shifters/PAN3V.CS_07*%
X278968200Y-250444000D03*
%TO.N,/Level Shifters/PAN3V.CS_08*%
X270332100Y-282346300D03*
X262940800Y-288696400D03*
%TO.N,/Level Shifters/PAN3V.CS_09*%
X262128000Y-281279600D03*
X266013100Y-267517500D03*
%TO.N,/Level Shifters/PAN3V.CS_10*%
X261841700Y-279483100D03*
%TO.N,/Level Shifters/PAN3V.CS_11*%
X259359400Y-279400000D03*
%TO.N,/Level Shifters/PAN3V.CS_12*%
X253444500Y-280282900D03*
%TO.N,/Level Shifters/PAN3V.CS_13*%
X250887300Y-280282900D03*
%TO.N,/Level Shifters/PAN3V.CS_14*%
X247459500Y-263080500D03*
X245746500Y-280516300D03*
%TO.N,/Level Shifters/PAN3V.CS_15*%
X242122200Y-280507400D03*
%TO.N,/Level Shifters/PAN3V.CS_24*%
X261664700Y-278052500D03*
%TO.N,/Panel Headers/RESET*%
X214503000Y-250418600D03*
X113751834Y-227751166D03*
X182199200Y-95522100D03*
%TD*%
D99*
%TO.N,/Panel Headers/POW.5V_HDR_1*%
X279912500Y-184826000D02*
X280504000Y-189230000D01*
%TO.N,/Panel Headers/POW.5V_HDR_11*%
X209952000Y-269651000D02*
X211445300Y-272481332D01*
D100*
%TO.N,+3.3V*%
X299500000Y-240016000D02*
X301391000Y-240016000D01*
X190704000Y-293571000D02*
X191696000Y-293571000D01*
X235896000Y-293693000D02*
X235915000Y-293674000D01*
X277992000Y-220523000D02*
X277993000Y-220524000D01*
X300725000Y-231005000D02*
X299500000Y-231005000D01*
X276936000Y-225724000D02*
X277993000Y-225724000D01*
X277878000Y-244265000D02*
X277878200Y-244265000D01*
X277878200Y-244265000D02*
X277878400Y-244264800D01*
X276520000Y-244710000D02*
X276965000Y-244265000D01*
X189364400Y-293571000D02*
X189364200Y-293570800D01*
X276965000Y-244265000D02*
X277878000Y-244265000D01*
X301400000Y-240025000D02*
X301400000Y-231680000D01*
X189364400Y-288371000D02*
X189364000Y-288371000D01*
X301400000Y-244560000D02*
X301400000Y-240025000D01*
X298965000Y-255460000D02*
X298965000Y-246995000D01*
X233402500Y-293693000D02*
X233402100Y-293692600D01*
X233402100Y-288493000D02*
X233402000Y-288493000D01*
X189364400Y-293571000D02*
X190704000Y-293571000D01*
X233402500Y-293693000D02*
X234830000Y-293693000D01*
X277863000Y-239080000D02*
X277870500Y-239072500D01*
X276530000Y-239080000D02*
X277863000Y-239080000D01*
X270845000Y-293642000D02*
X270845300Y-293642000D01*
X233402100Y-288492600D02*
X233402100Y-288493000D01*
X234811000Y-288493000D02*
X233402100Y-288493000D01*
X234840000Y-288464000D02*
X234811000Y-288493000D01*
X277870700Y-239072500D02*
X277878400Y-239064800D01*
X277870500Y-239072500D02*
X277870700Y-239072500D01*
X233402000Y-293693000D02*
X233402500Y-293693000D01*
X234830000Y-293693000D02*
X235896000Y-293693000D01*
X270845300Y-293642000D02*
X272312000Y-293642000D01*
X270845300Y-293642000D02*
X270845100Y-293641800D01*
X274689000Y-220523000D02*
X274688800Y-220523000D01*
X191696000Y-293571000D02*
X191729000Y-293604000D01*
X273499000Y-293642000D02*
X273517000Y-293624000D01*
X270845300Y-288442000D02*
X270845100Y-288441800D01*
X274688800Y-220523000D02*
X274688600Y-220522800D01*
X190704000Y-288384000D02*
X190691000Y-288371000D01*
X276555000Y-226105000D02*
X276936000Y-225724000D01*
X189364000Y-293571000D02*
X189364400Y-293571000D01*
X189364400Y-288371000D02*
X189364200Y-288370800D01*
X272302000Y-288424000D02*
X272284000Y-288442000D01*
X234830000Y-293714000D02*
X234830000Y-293693000D01*
X301400000Y-231680000D02*
X300725000Y-231005000D01*
X276510000Y-220523000D02*
X277992000Y-220523000D01*
X190691000Y-288371000D02*
X189364400Y-288371000D01*
X272312000Y-293642000D02*
X273499000Y-293642000D01*
X272284000Y-288442000D02*
X270845300Y-288442000D01*
X275320000Y-239080000D02*
X276530000Y-239080000D01*
X274689000Y-220523000D02*
X276510000Y-220523000D01*
X270845300Y-288442000D02*
X270845000Y-288442000D01*
X277870500Y-239072500D02*
X277878000Y-239065000D01*
X298965000Y-246995000D02*
X301400000Y-244560000D01*
X301391000Y-240016000D02*
X301400000Y-240025000D01*
%TO.N,+5V*%
X227672500Y-293688500D02*
X227668000Y-293684000D01*
X227673000Y-293688500D02*
X227677100Y-293692600D01*
X183639200Y-293570800D02*
X183639000Y-293571000D01*
X181129000Y-293564000D02*
X182274000Y-293564000D01*
X283603000Y-239065000D02*
X283603600Y-239065000D01*
X183639000Y-293571000D02*
X183636000Y-293574000D01*
X227668000Y-293684000D02*
X226200000Y-293684000D01*
X283603600Y-239065000D02*
X285060000Y-239065000D01*
X227677000Y-293693000D02*
X227672500Y-293688500D01*
X227666000Y-293704000D02*
X227677000Y-293693000D01*
X265108000Y-293654000D02*
X265120000Y-293642000D01*
X225130000Y-293684000D02*
X226200000Y-293684000D01*
X263782000Y-293654000D02*
X265108000Y-293654000D01*
X285060000Y-239065000D02*
X286095000Y-239065000D01*
X182274000Y-293564000D02*
X183632000Y-293564000D01*
X265120000Y-293642000D02*
X265116000Y-293638000D01*
X227672500Y-293688500D02*
X227673000Y-293688500D01*
X262687000Y-293654000D02*
X263782000Y-293654000D01*
X286095000Y-239065000D02*
X286110000Y-239080000D01*
X265116300Y-293638000D02*
X265120100Y-293641800D01*
X183632000Y-293564000D02*
X183639000Y-293571000D01*
X283603600Y-239065000D02*
X283603400Y-239064800D01*
X283718000Y-220524000D02*
X285140000Y-220524000D01*
X265116000Y-293638000D02*
X265112000Y-293634000D01*
X286447000Y-220524000D02*
X286499000Y-220472000D01*
X265116000Y-293638000D02*
X265116300Y-293638000D01*
X285140000Y-220524000D02*
X286447000Y-220524000D01*
D99*
%TO.N,VCC*%
X108052000Y-248768000D02*
X106709900Y-251072800D01*
X105686000Y-107355000D02*
X105135300Y-107355000D01*
X205762000Y-276091700D02*
X205761900Y-276091800D01*
X102461700Y-110651700D02*
X102462000Y-110652000D01*
X276091700Y-149838000D02*
X276091800Y-149838100D01*
X152870000Y-276904000D02*
X152857000Y-274269000D01*
X106658000Y-251162000D02*
X110652000Y-253138000D01*
X251161700Y-248942000D02*
X251109800Y-248890100D01*
X104438000Y-106658000D02*
X105686000Y-107355000D01*
X251072800Y-248890100D02*
X248768000Y-247548000D01*
X202730000Y-78696000D02*
X202743000Y-81584800D01*
X251109800Y-248890100D02*
X251072800Y-248890100D01*
X106709900Y-251072800D02*
X106658000Y-251162000D01*
X276092000Y-149838000D02*
X276091800Y-149838100D01*
X81978600Y-209470900D02*
X80743500Y-207616400D01*
X253138300Y-244948300D02*
X253138000Y-244948000D01*
X204419000Y-273812000D02*
X205761900Y-276091800D01*
X147983600Y-80743500D02*
X149838000Y-79508400D01*
X276619000Y-198283000D02*
X276904000Y-202730000D01*
X276091800Y-149838100D02*
X273710000Y-151181000D01*
X149838000Y-79508400D02*
X151232000Y-81940400D01*
X147983600Y-80743500D02*
X148602800Y-80743500D01*
X273621100Y-146129000D02*
X273621000Y-146129000D01*
X105686000Y-107355000D02*
X106934000Y-108052000D01*
X78696000Y-152870000D02*
X78981000Y-157317000D01*
X253138000Y-244948000D02*
X251162000Y-248942000D01*
X81978700Y-209470800D02*
X81978600Y-209470900D01*
X152870000Y-276904000D02*
X157317000Y-276619000D01*
X80743500Y-207616400D02*
X79508300Y-206381200D01*
X79508300Y-206381200D02*
X79508300Y-205762000D01*
X248942000Y-104438300D02*
X248942000Y-104475900D01*
X244948300Y-102461700D02*
X244948000Y-102462000D01*
X146129200Y-81978700D02*
X146129000Y-81978700D01*
X80743500Y-207616400D02*
X79508400Y-205762000D01*
X205762000Y-276092000D02*
X209471000Y-273621000D01*
X81978700Y-209471000D02*
X81978600Y-209470900D01*
X106658000Y-251124700D02*
X106709900Y-251072800D01*
X209470800Y-273621200D02*
X209471000Y-273621000D01*
X105135300Y-107355000D02*
X104438300Y-106658000D01*
X244948000Y-102462000D02*
X248942000Y-104438000D01*
X79508400Y-205762000D02*
X82042000Y-204318000D01*
X106658000Y-251161700D02*
X106658000Y-251124700D01*
X248942000Y-104438000D02*
X248891700Y-104526200D01*
X248891700Y-104526200D02*
X247548000Y-106883000D01*
X110651700Y-253138300D02*
X110652000Y-253138000D01*
X209470800Y-273621300D02*
X209470800Y-273621200D01*
X248942000Y-104475900D02*
X248891700Y-104526200D01*
X198283000Y-78981000D02*
X202730000Y-78696000D01*
X276904000Y-202730000D02*
X273863000Y-202743000D01*
X273621300Y-146129200D02*
X273621100Y-146129000D01*
X78696000Y-152870000D02*
X81534000Y-152908000D01*
X148602800Y-80743500D02*
X149838000Y-79508300D01*
X273621000Y-146129000D02*
X276092000Y-149838000D01*
X251162000Y-248942000D02*
X251072800Y-248890100D01*
X146129000Y-81978700D02*
X147983600Y-80743500D01*
X102462000Y-110652000D02*
X104438000Y-106658000D01*
X205761900Y-276091800D02*
X205762000Y-276092000D01*
D100*
%TO.N,/Teensy/SDA*%
X297909000Y-239016000D02*
X299500000Y-239016000D01*
X292705200Y-244219800D02*
X292705200Y-250229900D01*
X297909000Y-239016000D02*
X292705200Y-244219800D01*
%TO.N,/Teensy/SCL*%
X297459000Y-238016000D02*
X292015300Y-243459700D01*
X292015300Y-243459700D02*
X292015300Y-251914000D01*
X299500000Y-238016000D02*
X297459000Y-238016000D01*
%TO.N,/Teensy/A0*%
X297820000Y-230005000D02*
X299500000Y-230005000D01*
X290890300Y-236934700D02*
X297820000Y-230005000D01*
X290890300Y-250083100D02*
X290890300Y-236934700D01*
%TO.N,/Teensy/A1*%
X289128200Y-249402600D02*
X290251500Y-248279300D01*
X290251500Y-236198500D02*
X297445000Y-229005000D01*
X299062200Y-229005000D02*
X299625000Y-229005000D01*
X297445000Y-229005000D02*
X299500000Y-229005000D01*
X290251500Y-248279300D02*
X290251500Y-236198500D01*
D99*
%TO.N,/Panel Headers/POW.5V_HDR_1*%
X276619000Y-196003000D02*
X273964000Y-195902000D01*
X273964000Y-195902000D02*
X265474000Y-195580000D01*
X281244000Y-193713500D02*
X281244000Y-194478000D01*
X283069000Y-196003000D02*
X284594000Y-197528000D01*
X282919000Y-196003000D02*
X283069000Y-196003000D01*
X281877000Y-193080500D02*
X282919000Y-196003000D01*
X281877000Y-193080500D02*
X281244000Y-193713500D01*
X281244000Y-196863900D02*
X281244000Y-197528000D01*
X280383100Y-196003000D02*
X281244000Y-196863900D01*
X284594000Y-194478000D02*
X283069000Y-196003000D01*
X280504000Y-189230000D02*
X281877000Y-193080500D01*
X280383100Y-196003000D02*
X282919000Y-196003000D01*
X276619000Y-196003000D02*
X280383100Y-196003000D01*
D100*
%TO.N,/Level Shifters/PAN5V.SCK_1*%
X150774700Y-261467900D02*
X151917400Y-262610600D01*
X206570900Y-258807900D02*
X202971400Y-262407400D01*
X125164200Y-248647900D02*
X125164200Y-250691000D01*
X108805600Y-229530600D02*
X106125000Y-226850000D01*
X221284800Y-244652800D02*
X227982800Y-244652800D01*
X145389100Y-261279500D02*
X146495600Y-260173000D01*
X125164200Y-250691000D02*
X135752700Y-261279500D01*
X108805600Y-230116000D02*
X108805600Y-229530600D01*
X118459400Y-239769800D02*
X108805600Y-230116000D01*
X118912400Y-239769800D02*
X118459400Y-239769800D01*
X148332900Y-260173000D02*
X149627800Y-261467900D01*
X135752700Y-261279500D02*
X145389100Y-261279500D01*
X103939600Y-227226800D02*
X96792100Y-220079300D01*
X285364000Y-224604600D02*
X284533400Y-223774000D01*
X164776600Y-262610600D02*
X167640000Y-265474000D01*
X285364000Y-226187300D02*
X285364000Y-224604600D01*
X216154000Y-249769100D02*
X216168500Y-249769100D01*
X105275000Y-226850000D02*
X104898200Y-227226800D01*
X212838200Y-258807900D02*
X206570900Y-258807900D01*
X149627800Y-261467900D02*
X150774700Y-261467900D01*
X281528900Y-230022400D02*
X285364000Y-226187300D01*
X227982800Y-244652800D02*
X242199800Y-230435800D01*
X202971400Y-262407400D02*
X170706600Y-262407400D01*
X170706600Y-262407400D02*
X167640000Y-265474000D01*
X216168500Y-249769100D02*
X221284800Y-244652800D01*
X261847500Y-230022400D02*
X281528900Y-230022400D01*
X96792100Y-220079300D02*
X96792100Y-212838200D01*
X146495600Y-260173000D02*
X148332900Y-260173000D01*
X242199800Y-230435800D02*
X261434100Y-230435800D01*
X104898200Y-227226800D02*
X103939600Y-227226800D01*
X106125000Y-226850000D02*
X105275000Y-226850000D01*
X151917400Y-262610600D02*
X164776600Y-262610600D01*
X261434100Y-230435800D02*
X261847500Y-230022400D01*
X284533400Y-223774000D02*
X283718000Y-223774000D01*
%TO.N,/Level Shifters/PAN5V.SCK_0*%
X251368500Y-132953700D02*
X245226700Y-126811900D01*
X201047200Y-89941400D02*
X198304000Y-92684600D01*
X245226700Y-123329800D02*
X230435800Y-108538900D01*
X230435800Y-104731200D02*
X215646000Y-89941400D01*
X122986800Y-106403700D02*
X124154900Y-107571800D01*
X215646000Y-89941400D02*
X201047200Y-89941400D01*
X190518600Y-92684600D02*
X187960000Y-90126000D01*
X124154900Y-109347300D02*
X108338000Y-125164200D01*
X198304000Y-92684600D02*
X190518600Y-92684600D01*
X283718000Y-221174000D02*
X282988800Y-221174000D01*
X124154900Y-107571800D02*
X124154900Y-109347300D01*
X264249100Y-202434300D02*
X264249100Y-189184900D01*
X258807900Y-137409400D02*
X254169800Y-132771300D01*
X131528500Y-96792100D02*
X122986800Y-105333800D01*
X253108200Y-132953700D02*
X251368500Y-132953700D01*
X282988800Y-221174000D02*
X264249100Y-202434300D01*
X258807900Y-142761800D02*
X258807900Y-137409400D01*
X122986800Y-105333800D02*
X122986800Y-106403700D01*
X184048400Y-96672400D02*
X183928700Y-96792100D01*
X230435800Y-108538900D02*
X230435800Y-104731200D01*
X253290600Y-132771300D02*
X253108200Y-132953700D01*
X108338000Y-125164200D02*
X106952100Y-125164200D01*
X183928700Y-96792100D02*
X131528500Y-96792100D01*
X264249100Y-189184900D02*
X265474000Y-187960000D01*
X245226700Y-126811900D02*
X245226700Y-123329800D01*
X254169800Y-132771300D02*
X253290600Y-132771300D01*
%TO.N,/Level Shifters/PAN5V.MOSI_0*%
X257537900Y-137071500D02*
X255477200Y-135010800D01*
X255477200Y-135010800D02*
X254520900Y-135010800D01*
X125679200Y-105626400D02*
X126354600Y-106301800D01*
X283718000Y-221824000D02*
X282893000Y-221824000D01*
X131934900Y-98062100D02*
X125679200Y-104317800D01*
X228236100Y-107091100D02*
X228236100Y-104207900D01*
X254520900Y-135010800D02*
X254352200Y-135179500D01*
X199872600Y-93345000D02*
X188639000Y-93345000D01*
X215036400Y-91008200D02*
X202209400Y-91008200D01*
X257537900Y-140562100D02*
X257537900Y-137071500D01*
X263735600Y-202666600D02*
X263735600Y-187158400D01*
X107332100Y-127363900D02*
X105682100Y-127363900D01*
X140562100Y-98062100D02*
X131934900Y-98062100D01*
X230414200Y-109269200D02*
X228236100Y-107091100D01*
X125679200Y-104317800D02*
X125679200Y-105626400D01*
X282893000Y-221824000D02*
X263735600Y-202666600D01*
X252552900Y-135179500D02*
X230414200Y-113040800D01*
X230414200Y-113040800D02*
X230414200Y-109269200D01*
X126354600Y-108341400D02*
X107332100Y-127363900D01*
X188639000Y-93345000D02*
X185420000Y-90126000D01*
X263735600Y-187158400D02*
X265474000Y-185420000D01*
X202209400Y-91008200D02*
X199872600Y-93345000D01*
X228236100Y-104207900D02*
X215036400Y-91008200D01*
X126354600Y-106301800D02*
X126354600Y-108341400D01*
X254352200Y-135179500D02*
X252552900Y-135179500D01*
%TO.N,/Level Shifters/PAN5V.MISO_0*%
X138362400Y-99332100D02*
X132978400Y-99332100D01*
X263222100Y-185131900D02*
X263222100Y-202901000D01*
X128513886Y-104991386D02*
X128513886Y-107579114D01*
X106529400Y-129563600D02*
X104412100Y-129563600D01*
X256267900Y-138362400D02*
X254669000Y-138362400D01*
X132978400Y-99332100D02*
X128371900Y-103938600D01*
X186988000Y-94234000D02*
X182880000Y-90126000D01*
X203749800Y-91830000D02*
X201345800Y-94234000D01*
X214160800Y-91830000D02*
X203749800Y-91830000D01*
X254669000Y-138362400D02*
X229851200Y-113544600D01*
X229851200Y-113544600D02*
X229851200Y-109476900D01*
X128371900Y-104849400D02*
X128513886Y-104991386D01*
X226036400Y-103705600D02*
X214160800Y-91830000D01*
X201345800Y-94234000D02*
X186988000Y-94234000D01*
X263222100Y-202901000D02*
X282795100Y-222474000D01*
X128513886Y-107579114D02*
X106529400Y-129563600D01*
X282795100Y-222474000D02*
X283718000Y-222474000D01*
X265474000Y-182880000D02*
X263222100Y-185131900D01*
X226036400Y-105662100D02*
X226036400Y-103705600D01*
X128371900Y-103938600D02*
X128371900Y-104849400D01*
X229851200Y-109476900D02*
X226036400Y-105662100D01*
%TO.N,/Level Shifters/PAN5V.CS_00*%
X201087200Y-254830500D02*
X201054100Y-254863600D01*
X233431100Y-243462700D02*
X247868200Y-243462700D01*
X152247600Y-254863600D02*
X147980400Y-250596400D01*
X145262600Y-250596400D02*
X139776200Y-245110000D01*
X264980200Y-231183400D02*
X276372000Y-231183400D01*
X139776200Y-245110000D02*
X134772400Y-245110000D01*
X208768200Y-254869300D02*
X213563500Y-254869300D01*
X223497300Y-248129900D02*
X228763900Y-248129900D01*
X215123200Y-253309600D02*
X217892494Y-253309600D01*
X201054100Y-254863600D02*
X152247600Y-254863600D01*
X219578800Y-252048400D02*
X223497300Y-248129900D01*
X97833100Y-208170700D02*
X97833100Y-184559500D01*
X264617200Y-231546400D02*
X264980200Y-231183400D01*
X97833100Y-184559500D02*
X92124000Y-178850400D01*
X147980400Y-250596400D02*
X145262600Y-250596400D01*
X276372000Y-231183400D02*
X283603400Y-238414800D01*
X228763900Y-248129900D02*
X233431100Y-243462700D01*
X219153694Y-252048400D02*
X219578800Y-252048400D01*
X217892494Y-253309600D02*
X219153694Y-252048400D01*
X134772400Y-245110000D02*
X97833100Y-208170700D01*
X213563500Y-254869300D02*
X215123200Y-253309600D01*
%TO.N,/Level Shifters/PAN5V.CS_01*%
X157075900Y-99205200D02*
X208018800Y-99205200D01*
X282863900Y-239714800D02*
X283603400Y-239714800D01*
X253646700Y-144833100D02*
X253646700Y-157099100D01*
X261930500Y-174256500D02*
X265474000Y-177800000D01*
X208018800Y-99205200D02*
X253646700Y-144833100D01*
X253646700Y-157099100D02*
X261930500Y-165382900D01*
X261930500Y-165382900D02*
X261930500Y-174256500D01*
X107108200Y-134623600D02*
X135102600Y-106629200D01*
X275965500Y-232816400D02*
X282863900Y-239714800D01*
X107108200Y-145240800D02*
X107108200Y-134623600D01*
X267194400Y-232816400D02*
X275965500Y-232816400D01*
X135102600Y-106629200D02*
X149651900Y-106629200D01*
X149651900Y-106629200D02*
X157075900Y-99205200D01*
X93446600Y-159004000D02*
X93446600Y-158902400D01*
X267169000Y-232841800D02*
X267194400Y-232816400D01*
X93446600Y-158902400D02*
X107108200Y-145240800D01*
%TO.N,/Level Shifters/PAN5V.CS_02*%
X90126000Y-179926600D02*
X92769400Y-177283200D01*
X93177861Y-157185600D02*
X93245700Y-157185600D01*
X92769400Y-177283200D02*
X92769400Y-157594061D01*
X92769400Y-157594061D02*
X93177861Y-157185600D01*
X105520100Y-144911200D02*
X105520100Y-134763900D01*
X134670800Y-105613200D02*
X149631400Y-105613200D01*
X156768800Y-98475800D02*
X208559400Y-98475800D01*
X262682400Y-172468400D02*
X265474000Y-175260000D01*
X262682400Y-164994000D02*
X262682400Y-172468400D01*
X93245700Y-157185600D02*
X105520100Y-144911200D01*
X267826500Y-233578400D02*
X276003100Y-233578400D01*
X149631400Y-105613200D02*
X156768800Y-98475800D01*
X208559400Y-98475800D02*
X254304800Y-144221200D01*
X282789500Y-240364800D02*
X283603400Y-240364800D01*
X254304800Y-156616400D02*
X262682400Y-164994000D01*
X90126000Y-180340000D02*
X90126000Y-179926600D01*
X254304800Y-144221200D02*
X254304800Y-156616400D01*
X276003100Y-233578400D02*
X282789500Y-240364800D01*
X105520100Y-134763900D02*
X134670800Y-105613200D01*
%TO.N,/Level Shifters/PAN5V.CS_03*%
X125178800Y-243128800D02*
X115192600Y-243128800D01*
X135296700Y-253096700D02*
X134777900Y-252577900D01*
X134627900Y-252577900D02*
X125178800Y-243128800D01*
X268326500Y-234683900D02*
X276398800Y-234683900D01*
X211225900Y-253715400D02*
X207379773Y-253715400D01*
X94368900Y-209951100D02*
X95466300Y-208853700D01*
X234834800Y-240639600D02*
X228484800Y-246989600D01*
X212656700Y-252284600D02*
X211225900Y-253715400D01*
X145654800Y-256900000D02*
X141851500Y-253096700D01*
X202472373Y-258622800D02*
X151101900Y-258622800D01*
X217495500Y-252284600D02*
X212656700Y-252284600D01*
X95466300Y-208853700D02*
X95466300Y-188220300D01*
X207379773Y-253715400D02*
X202472373Y-258622800D01*
X276398800Y-234683900D02*
X282729700Y-241014800D01*
X247370600Y-240639600D02*
X234834800Y-240639600D01*
X228484800Y-246989600D02*
X222790500Y-246989600D01*
X134777900Y-252577900D02*
X134627900Y-252577900D01*
X149379100Y-256900000D02*
X145654800Y-256900000D01*
X115192600Y-243128800D02*
X94368900Y-222305100D01*
X151101900Y-258622800D02*
X149379100Y-256900000D01*
X141851500Y-253096700D02*
X135296700Y-253096700D01*
X249631200Y-242900200D02*
X247370600Y-240639600D01*
X94368900Y-222305100D02*
X94368900Y-209951100D01*
X282729700Y-241014800D02*
X283603400Y-241014800D01*
X222790500Y-246989600D02*
X217495500Y-252284600D01*
X95466300Y-188220300D02*
X90126000Y-182880000D01*
%TO.N,/Level Shifters/PAN5V.CS_04*%
X110559250Y-228810150D02*
X121779100Y-240030000D01*
X203943700Y-253605800D02*
X204737200Y-253605800D01*
X206242700Y-252100300D02*
X209824100Y-252100300D01*
X283603400Y-241664800D02*
X282375700Y-241664800D01*
X149500600Y-254892400D02*
X151104900Y-256496700D01*
X244174400Y-227041800D02*
X250564300Y-227041800D01*
X133344200Y-246888000D02*
X139242800Y-246888000D01*
X250564300Y-227041800D02*
X251056600Y-227534100D01*
X251056600Y-227534100D02*
X266517700Y-227534100D01*
X204737200Y-253605800D02*
X206242700Y-252100300D01*
X227905700Y-243310500D02*
X244174400Y-227041800D01*
X139242800Y-246888000D02*
X147247200Y-254892400D01*
X266517700Y-227534100D02*
X281026300Y-227534100D01*
X221439500Y-243310500D02*
X227905700Y-243310500D01*
X281026300Y-227534100D02*
X281041800Y-227549600D01*
X212979000Y-248945400D02*
X215804600Y-248945400D01*
X121779100Y-240030000D02*
X126486200Y-240030000D01*
X282375700Y-241664800D02*
X282362600Y-241651700D01*
X126486200Y-240030000D02*
X133344200Y-246888000D01*
X147247200Y-254892400D02*
X149500600Y-254892400D01*
X201052800Y-256496700D02*
X203943700Y-253605800D01*
X209824100Y-252100300D02*
X212979000Y-248945400D01*
X215804600Y-248945400D02*
X221439500Y-243310500D01*
X151104900Y-256496700D02*
X201052800Y-256496700D01*
%TO.N,/Level Shifters/PAN5V.EXT_INT*%
X161467800Y-94615000D02*
X182211339Y-94615000D01*
X125526800Y-242366800D02*
X135469300Y-252309300D01*
X261277800Y-134291900D02*
X261277800Y-145602300D01*
X260196000Y-154742000D02*
X265474000Y-160020000D01*
X160020000Y-93167200D02*
X161467800Y-94615000D01*
X184392900Y-289020800D02*
X183639200Y-289020800D01*
X246829800Y-220548200D02*
X247608171Y-220548200D01*
X248124266Y-220032105D02*
X248124266Y-219265973D01*
X160020000Y-90126000D02*
X160020000Y-93167200D01*
X261277800Y-145602300D02*
X260196000Y-146684100D01*
X110762100Y-237034900D02*
X116094000Y-242366800D01*
X182719339Y-95123000D02*
X204098200Y-95123000D01*
X245551000Y-118565100D02*
X261277800Y-134291900D01*
X247608171Y-220548200D02*
X248124266Y-220032105D01*
X135469300Y-252309300D02*
X140395000Y-252309300D01*
X184758900Y-284174500D02*
X184758900Y-288654800D01*
X248124266Y-219265973D02*
X261151139Y-206239100D01*
X116094000Y-242366800D02*
X125526800Y-242366800D01*
X182211339Y-94615000D02*
X182719339Y-95123000D01*
X244837900Y-118565100D02*
X245551000Y-118565100D01*
X184758900Y-288654800D02*
X184392900Y-289020800D01*
X175793400Y-275209000D02*
X184758900Y-284174500D01*
X92982100Y-149804100D02*
X92982100Y-149360900D01*
X204098200Y-95123000D02*
X206239100Y-92982100D01*
X260196000Y-146684100D02*
X260196000Y-154742000D01*
X94763166Y-151585166D02*
X92982100Y-149804100D01*
X175793400Y-272542000D02*
X175793400Y-275209000D01*
X261151139Y-206239100D02*
X262617900Y-206239100D01*
D99*
%TO.N,/Panel Headers/POW.5V_HDR_2*%
X269755900Y-133232900D02*
X269755900Y-132822200D01*
X278162700Y-141230100D02*
X278162100Y-141230100D01*
X278127300Y-141195300D02*
X278127300Y-141194700D01*
X278160300Y-141228300D02*
X278160300Y-141227700D01*
X280150400Y-141487900D02*
X278420500Y-141487900D01*
X278141700Y-141209700D02*
X278141700Y-141209100D01*
X278123700Y-141191700D02*
X278123700Y-141191100D01*
X278144700Y-141212100D02*
X278144100Y-141212100D01*
X278151300Y-141219300D02*
X278151300Y-141218700D01*
X262617900Y-149360900D02*
X262618000Y-149361000D01*
X278145900Y-141213900D02*
X278145900Y-141213300D01*
X277175600Y-140296300D02*
X277175600Y-140357500D01*
X278142900Y-141210300D02*
X278142300Y-141210300D01*
X278147100Y-141214500D02*
X278146500Y-141214500D01*
X278127900Y-141195300D02*
X278127300Y-141195300D01*
X278156100Y-141224100D02*
X278156100Y-141223500D01*
X278150700Y-141218700D02*
X278150700Y-141218100D01*
X278178900Y-141246300D02*
X278178300Y-141246300D01*
X278139900Y-141207900D02*
X278139900Y-141207300D01*
X278124300Y-141192300D02*
X278124300Y-141191700D01*
X278157900Y-141225300D02*
X278157300Y-141225300D01*
X278165100Y-141233100D02*
X278165100Y-141232500D01*
X276414100Y-139710100D02*
X277175600Y-140357500D01*
X278140500Y-141207900D02*
X278139900Y-141207900D01*
X278162700Y-141230700D02*
X278162700Y-141230100D01*
X278145900Y-141213300D02*
X278145300Y-141213300D01*
X278145300Y-141212700D02*
X278144700Y-141212700D01*
X278161500Y-141229500D02*
X278161500Y-141228900D01*
X278166300Y-141233700D02*
X278165700Y-141233700D01*
X278134500Y-141201900D02*
X278133900Y-141201900D01*
X271107500Y-134584500D02*
X272459000Y-136347000D01*
X278177700Y-141245700D02*
X278177700Y-141245100D01*
X278136900Y-141204300D02*
X278136300Y-141204300D01*
X278168700Y-141236100D02*
X278168100Y-141236100D01*
X278154900Y-141222900D02*
X278154900Y-141222300D01*
X278124900Y-141192900D02*
X278124900Y-141192300D01*
X278153100Y-141221100D02*
X278153100Y-141220500D01*
X278124900Y-141192300D02*
X278124300Y-141192300D01*
X278160300Y-141227700D02*
X278159700Y-141227700D01*
X278148300Y-141216300D02*
X278148300Y-141215700D01*
X278177100Y-141245100D02*
X278177100Y-141244500D01*
X278156700Y-141224700D02*
X278156700Y-141224100D01*
X278625400Y-138846500D02*
X277175600Y-140296300D01*
X278149500Y-141217500D02*
X278149500Y-141216900D01*
X278143500Y-141211500D02*
X278143500Y-141210900D01*
X278133300Y-141201300D02*
X278133300Y-141200700D01*
X278122500Y-141190500D02*
X278122500Y-141189900D01*
X278133900Y-141201300D02*
X278133300Y-141201300D01*
X278149500Y-141216900D02*
X278148900Y-141216900D01*
X278163300Y-141231300D02*
X278163300Y-141230700D01*
X278127300Y-141194700D02*
X278126700Y-141194700D01*
X278171100Y-141238500D02*
X278170500Y-141238500D01*
X278174700Y-141242700D02*
X278174700Y-141242100D01*
X272459000Y-136347000D02*
X276414100Y-139710100D01*
X278165700Y-141233700D02*
X278165700Y-141233100D01*
X278168700Y-141236700D02*
X278168700Y-141236100D01*
X278162100Y-141230100D02*
X278162100Y-141229500D01*
X278120100Y-141187500D02*
X278119500Y-141187500D01*
X278135100Y-141203100D02*
X278135100Y-141202500D01*
X278178300Y-141245700D02*
X278177700Y-141245700D01*
X278174100Y-141241500D02*
X278173500Y-141241500D01*
X278124300Y-141191700D02*
X278123700Y-141191700D01*
X278135100Y-141202500D02*
X278134500Y-141202500D01*
X278120700Y-141188100D02*
X278120100Y-141188100D01*
X278151300Y-141218700D02*
X278150700Y-141218700D01*
X278154900Y-141222300D02*
X278154300Y-141222300D01*
X278161500Y-141228900D02*
X278160900Y-141228900D01*
X278129700Y-141197700D02*
X278129700Y-141197100D01*
X278123100Y-141190500D02*
X278122500Y-141190500D01*
X278155500Y-141222900D02*
X278154900Y-141222900D01*
X269756000Y-132822000D02*
X271107500Y-134584500D01*
X278159100Y-141227100D02*
X278159100Y-141226500D01*
X278130900Y-141198900D02*
X278130900Y-141198300D01*
X271107500Y-134584500D02*
X269755900Y-133232900D01*
X278121900Y-141189300D02*
X278121300Y-141189300D01*
X278150100Y-141218100D02*
X278150100Y-141217500D01*
X278132100Y-141200100D02*
X278132100Y-141199500D01*
X277937000Y-141005000D02*
X276486800Y-141842300D01*
X278175900Y-141243300D02*
X278175300Y-141243300D01*
X278135700Y-141203700D02*
X278135700Y-141203100D01*
X278146500Y-141213900D02*
X278145900Y-141213900D01*
X278157900Y-141225900D02*
X278157900Y-141225300D01*
X278136300Y-141204300D02*
X278136300Y-141203700D01*
X278155500Y-141223500D02*
X278155500Y-141222900D01*
X278163900Y-141231300D02*
X278163300Y-141231300D01*
X278143500Y-141210900D02*
X278142900Y-141210900D01*
X278166900Y-141234900D02*
X278166900Y-141234300D01*
X278144100Y-141211500D02*
X278143500Y-141211500D01*
X270217000Y-145350000D02*
X262618000Y-149361000D01*
X278139900Y-141207300D02*
X278139300Y-141207300D01*
X278154300Y-141221700D02*
X278153700Y-141221700D01*
X278144100Y-141212100D02*
X278144100Y-141211500D01*
X278175300Y-141242700D02*
X278174700Y-141242700D01*
X278162100Y-141229500D02*
X278161500Y-141229500D01*
X278170500Y-141237900D02*
X278169900Y-141237900D01*
X278172900Y-141240900D02*
X278172900Y-141240300D01*
X278150100Y-141217500D02*
X278149500Y-141217500D01*
X278125500Y-141193500D02*
X278125500Y-141192900D01*
X278166900Y-141234300D02*
X278166300Y-141234300D01*
X278120100Y-141188100D02*
X278120100Y-141187500D01*
X278141700Y-141209100D02*
X278141100Y-141209100D01*
X278121300Y-141189300D02*
X278121300Y-141188700D01*
X278158500Y-141225900D02*
X278157900Y-141225900D01*
X278144700Y-141212700D02*
X278144700Y-141212100D01*
X278137500Y-141204900D02*
X278136900Y-141204900D01*
X278128500Y-141195900D02*
X278127900Y-141195900D01*
X278130900Y-141198300D02*
X278130300Y-141198300D01*
X278122500Y-141189900D02*
X278121900Y-141189900D01*
X278171700Y-141239700D02*
X278171700Y-141239100D01*
X278126700Y-141194100D02*
X278126100Y-141194100D01*
X278167500Y-141235500D02*
X278167500Y-141234900D01*
X278140500Y-141208500D02*
X278140500Y-141207900D01*
X276486800Y-142400500D02*
X276486800Y-141842300D01*
X276414100Y-139831600D02*
X276414100Y-139710100D01*
X278148300Y-141215700D02*
X278147700Y-141215700D01*
X278138100Y-141206100D02*
X278138100Y-141205500D01*
X278160900Y-141228900D02*
X278160900Y-141228300D01*
X278147700Y-141215100D02*
X278147100Y-141215100D01*
X278176500Y-141243900D02*
X278175900Y-141243900D01*
X278133900Y-141201900D02*
X278133900Y-141201300D01*
X278169300Y-141237300D02*
X278169300Y-141236700D01*
X278150700Y-141218100D02*
X278150100Y-141218100D01*
X278153700Y-141221700D02*
X278153700Y-141221100D01*
X278174100Y-141242100D02*
X278174100Y-141241500D01*
X278139300Y-141206700D02*
X278138700Y-141206700D01*
X278126700Y-141194700D02*
X278126700Y-141194100D01*
X278167500Y-141234900D02*
X278166900Y-141234900D01*
X278170500Y-141238500D02*
X278170500Y-141237900D01*
X278168100Y-141236100D02*
X278168100Y-141235500D01*
X278160900Y-141228300D02*
X278160300Y-141228300D01*
X278134500Y-141202500D02*
X278134500Y-141201900D01*
X278129100Y-141197100D02*
X278129100Y-141196500D01*
X278125500Y-141192900D02*
X278124900Y-141192900D01*
X278156100Y-141223500D02*
X278155500Y-141223500D01*
X272459300Y-136346700D02*
X272459000Y-136347000D01*
X278123100Y-141191100D02*
X278123100Y-141190500D01*
X278152500Y-141220500D02*
X278152500Y-141219900D01*
X278129100Y-141196500D02*
X278128500Y-141196500D01*
X278123700Y-141191100D02*
X278123100Y-141191100D01*
X278169900Y-141237900D02*
X278169900Y-141237300D01*
X278148900Y-141216900D02*
X278148900Y-141216300D01*
X278178300Y-141246300D02*
X278178300Y-141245700D01*
X278154300Y-141222300D02*
X278154300Y-141221700D01*
X278164500Y-141231900D02*
X278163900Y-141231900D01*
X272481300Y-144154700D02*
X272481000Y-144155000D01*
X272481000Y-144155000D02*
X270217000Y-145350000D01*
X278159100Y-141226500D02*
X278158500Y-141226500D01*
X278153700Y-141221100D02*
X278153100Y-141221100D01*
X278177100Y-141244500D02*
X278176500Y-141244500D01*
X278171700Y-141239100D02*
X278171100Y-141239100D01*
X278128500Y-141196500D02*
X278128500Y-141195900D01*
X278126100Y-141194100D02*
X278126100Y-141193500D01*
X278138700Y-141206700D02*
X278138700Y-141206100D01*
X277175600Y-140357500D02*
X277937000Y-141005000D01*
X278169300Y-141236700D02*
X278168700Y-141236700D01*
X278121900Y-141189900D02*
X278121900Y-141189300D01*
X278164500Y-141232500D02*
X278164500Y-141231900D01*
X278172300Y-141240300D02*
X278172300Y-141239700D01*
X278138700Y-141206100D02*
X278138100Y-141206100D01*
X278131500Y-141199500D02*
X278131500Y-141198900D01*
X278147700Y-141215700D02*
X278147700Y-141215100D01*
X278174700Y-141242100D02*
X278174100Y-141242100D01*
X278169900Y-141237300D02*
X278169300Y-141237300D01*
X278138100Y-141205500D02*
X278137500Y-141205500D01*
X278151900Y-141219900D02*
X278151900Y-141219300D01*
X278141100Y-141209100D02*
X278141100Y-141208500D01*
X275724200Y-140521500D02*
X276414100Y-139831600D01*
X278118900Y-141186900D02*
X277937000Y-141005000D01*
X278175900Y-141243900D02*
X278175900Y-141243300D01*
X278173500Y-141240900D02*
X278172900Y-141240900D01*
X278136300Y-141203700D02*
X278135700Y-141203700D01*
X278420500Y-141487900D02*
X278178900Y-141246300D01*
X278171100Y-141239100D02*
X278171100Y-141238500D01*
X278177700Y-141245100D02*
X278177100Y-141245100D01*
X278176500Y-141244500D02*
X278176500Y-141243900D01*
X278159700Y-141227100D02*
X278159100Y-141227100D01*
X278146500Y-141214500D02*
X278146500Y-141213900D01*
X278119500Y-141186900D02*
X278118900Y-141186900D01*
X278163900Y-141231900D02*
X278163900Y-141231300D01*
X278168100Y-141235500D02*
X278167500Y-141235500D01*
X278145300Y-141213300D02*
X278145300Y-141212700D01*
X278156700Y-141224100D02*
X278156100Y-141224100D01*
X278165100Y-141232500D02*
X278164500Y-141232500D01*
X278132100Y-141199500D02*
X278131500Y-141199500D01*
X278133300Y-141200700D02*
X278132700Y-141200700D01*
X278119500Y-141187500D02*
X278119500Y-141186900D01*
X278147100Y-141215100D02*
X278147100Y-141214500D01*
X278121300Y-141188700D02*
X278120700Y-141188700D01*
X278120700Y-141188700D02*
X278120700Y-141188100D01*
X278152500Y-141219900D02*
X278151900Y-141219900D01*
X278131500Y-141198900D02*
X278130900Y-141198900D01*
X278166300Y-141234300D02*
X278166300Y-141233700D01*
X278159700Y-141227700D02*
X278159700Y-141227100D01*
X278135700Y-141203100D02*
X278135100Y-141203100D01*
X276486800Y-141842300D02*
X272481000Y-144155000D01*
X278165700Y-141233100D02*
X278165100Y-141233100D01*
X278163300Y-141230700D02*
X278162700Y-141230700D01*
X278126100Y-141193500D02*
X278125500Y-141193500D01*
X278132700Y-141200700D02*
X278132700Y-141200100D01*
X278142900Y-141210900D02*
X278142900Y-141210300D01*
X278148900Y-141216300D02*
X278148300Y-141216300D01*
X278139300Y-141207300D02*
X278139300Y-141206700D01*
X278158500Y-141226500D02*
X278158500Y-141225900D01*
X278137500Y-141205500D02*
X278137500Y-141204900D01*
X278175300Y-141243300D02*
X278175300Y-141242700D01*
X278141100Y-141208500D02*
X278140500Y-141208500D01*
X278142300Y-141209700D02*
X278141700Y-141209700D01*
X278130300Y-141198300D02*
X278130300Y-141197700D01*
X278142300Y-141210300D02*
X278142300Y-141209700D01*
X278129700Y-141197100D02*
X278129100Y-141197100D01*
X278157300Y-141224700D02*
X278156700Y-141224700D01*
X278157300Y-141225300D02*
X278157300Y-141224700D01*
X278172900Y-141240300D02*
X278172300Y-141240300D01*
X278173500Y-141241500D02*
X278173500Y-141240900D01*
X278153100Y-141220500D02*
X278152500Y-141220500D01*
X278151900Y-141219300D02*
X278151300Y-141219300D01*
X277249200Y-143162900D02*
X276486800Y-142400500D01*
X278130300Y-141197700D02*
X278129700Y-141197700D01*
X278132700Y-141200100D02*
X278132100Y-141200100D01*
X278127900Y-141195900D02*
X278127900Y-141195300D01*
X278172300Y-141239700D02*
X278171700Y-141239700D01*
X278119500Y-141186900D02*
X277937300Y-141004700D01*
X278136900Y-141204900D02*
X278136900Y-141204300D01*
%TO.N,GND*%
X276619000Y-193723000D02*
X274120000Y-193570000D01*
D100*
X292343000Y-168214000D02*
X295110000Y-168214000D01*
D99*
X254279700Y-250742400D02*
X256692000Y-252120000D01*
X98935200Y-116475000D02*
X100182000Y-114601000D01*
X184826000Y-78625000D02*
X189230000Y-78696000D01*
D100*
X255418300Y-240371700D02*
X255418300Y-240999300D01*
D99*
X269342000Y-138147000D02*
X270341500Y-140163500D01*
D100*
X139155200Y-85758500D02*
X138646500Y-85758500D01*
D99*
X78696000Y-166370000D02*
X78625000Y-170774000D01*
D100*
X237465000Y-293674000D02*
X238760000Y-293674000D01*
X272500000Y-239080000D02*
X272480000Y-239100000D01*
X276352000Y-293624000D02*
X276362000Y-293614000D01*
D99*
X254279000Y-250742000D02*
X254279700Y-250742400D01*
X138147000Y-86258400D02*
X139155200Y-85758500D01*
X102491000Y-116129000D02*
X109492000Y-120765000D01*
X257912000Y-237251000D02*
X256665000Y-239125000D01*
D100*
X282836000Y-225724000D02*
X283718000Y-225724000D01*
X273138400Y-220523000D02*
X273138600Y-220522800D01*
X283603600Y-244265000D02*
X283603000Y-244265000D01*
X120769000Y-259361200D02*
X121313900Y-259361200D01*
X183639000Y-288371000D02*
X182331000Y-288371000D01*
X208276500Y-280396500D02*
X207562000Y-279682000D01*
X259043500Y-235361500D02*
X260175100Y-234229900D01*
D99*
X116141000Y-253091000D02*
X120765000Y-246108000D01*
X233472000Y-95424900D02*
X235361200Y-96556500D01*
D100*
X215436500Y-270341500D02*
X214419600Y-270341500D01*
X270341500Y-140163500D02*
X271341300Y-141163300D01*
D99*
X240999000Y-100182000D02*
X239558000Y-102358000D01*
X139155200Y-85758500D02*
X142180000Y-84258700D01*
X250742000Y-101321000D02*
X251482000Y-100063500D01*
D100*
X98935200Y-116475000D02*
X100181700Y-115228500D01*
D99*
X235361200Y-96556500D02*
X237250500Y-97688100D01*
X116050000Y-253230000D02*
X115325500Y-254324000D01*
D100*
X267973800Y-135686700D02*
X267201100Y-134914000D01*
X261137000Y-293654000D02*
X259872000Y-293654000D01*
X265120000Y-288442000D02*
X265119900Y-288442000D01*
X227677000Y-288493000D02*
X227676700Y-288493000D01*
D99*
X258477800Y-236306200D02*
X257912000Y-237251000D01*
D100*
X142751000Y-85403600D02*
X142180200Y-84832800D01*
D99*
X75096000Y-152870000D02*
X72186800Y-152857000D01*
D100*
X258477800Y-236306200D02*
X257911700Y-236872300D01*
D99*
X114601000Y-255418000D02*
X116475000Y-256665000D01*
X162042000Y-273930000D02*
X162560000Y-265474000D01*
X94252100Y-208439000D02*
X86628600Y-212239000D01*
X142180000Y-84258700D02*
X142751000Y-85403600D01*
X280504000Y-202730000D02*
X283159000Y-202743000D01*
X120769000Y-259361200D02*
X122128000Y-260175000D01*
D100*
X100580700Y-104118000D02*
X101320700Y-104858000D01*
X267201100Y-134914000D02*
X267201100Y-134297200D01*
X96273700Y-120710900D02*
X95424900Y-121559700D01*
D99*
X276619000Y-193723000D02*
X276904000Y-189230000D01*
X84258700Y-213420000D02*
X86258400Y-217453000D01*
X213420000Y-271341000D02*
X212112000Y-268718000D01*
D100*
X234603800Y-96556500D02*
X233472200Y-95424900D01*
D99*
X76390700Y-207562000D02*
X74066400Y-208890000D01*
X193546000Y-81870000D02*
X193040000Y-90126000D01*
X115325500Y-254324000D02*
X114601000Y-255418000D01*
X237250500Y-97688100D02*
X237251000Y-97688400D01*
D100*
X117102600Y-256665000D02*
X118349300Y-257911700D01*
X121313900Y-259361200D02*
X122127800Y-260175100D01*
D99*
X252947000Y-239363000D02*
X246108000Y-234835000D01*
X268938000Y-143378000D02*
X261348000Y-147161000D01*
D100*
X295978000Y-168252000D02*
X296790000Y-167440000D01*
X104858000Y-254745500D02*
X104858000Y-254279300D01*
D99*
X252977000Y-239363000D02*
X252947000Y-239363000D01*
D100*
X104194000Y-255409500D02*
X104858000Y-254745500D01*
X284645000Y-244265000D02*
X283603600Y-244265000D01*
X218137100Y-268657900D02*
X217453300Y-269341700D01*
D99*
X86395000Y-212355000D02*
X84258700Y-213420000D01*
X161877000Y-276619000D02*
X166370000Y-276904000D01*
X260175000Y-233472000D02*
X259043500Y-235361500D01*
X161877000Y-276619000D02*
X162042000Y-273930000D01*
D100*
X95424900Y-121559700D02*
X95424900Y-122127800D01*
X238760000Y-293674000D02*
X238770000Y-293664000D01*
X194544000Y-293604000D02*
X194564000Y-293624000D01*
D99*
X100012700Y-104118000D02*
X98704400Y-103378000D01*
X193550000Y-81800000D02*
X193550000Y-81865700D01*
X276904000Y-189230000D02*
X276975000Y-184826000D01*
X86258400Y-217453000D02*
X88398900Y-221303000D01*
D100*
X285005000Y-244625000D02*
X284645000Y-244265000D01*
X178354000Y-293564000D02*
X178334000Y-293584000D01*
D99*
X270341500Y-140163500D02*
X271341000Y-142180000D01*
D100*
X193279000Y-293604000D02*
X194544000Y-293604000D01*
X295129000Y-168233000D02*
X295129500Y-168233000D01*
X295129500Y-168233000D02*
X295148000Y-168251500D01*
X214419600Y-270341500D02*
X213419800Y-271341300D01*
D99*
X271341000Y-142180000D02*
X268938000Y-143378000D01*
D100*
X250742000Y-100803500D02*
X250742000Y-101320700D01*
X271887000Y-220523000D02*
X271880000Y-220530000D01*
X182331000Y-288371000D02*
X181934000Y-287974000D01*
D99*
X101321000Y-104858000D02*
X100012700Y-104118000D01*
D100*
X100012700Y-104118000D02*
X100580700Y-104118000D01*
X288049000Y-220472000D02*
X289348000Y-220472000D01*
D99*
X78981000Y-161877000D02*
X78696000Y-166370000D01*
X255418000Y-240999000D02*
X253037000Y-239423000D01*
D100*
X100181700Y-115228500D02*
X100181700Y-114600700D01*
X275067000Y-293624000D02*
X276352000Y-293624000D01*
X222370000Y-293684000D02*
X222330000Y-293724000D01*
X264030000Y-288442000D02*
X263542000Y-287954000D01*
D99*
X218683200Y-268657900D02*
X217453000Y-269342000D01*
X148038000Y-76390700D02*
X146660000Y-74066400D01*
D100*
X298244000Y-241016000D02*
X299655000Y-241016000D01*
X235361200Y-96556500D02*
X234603800Y-96556500D01*
X239752800Y-98935200D02*
X240999300Y-100181700D01*
D99*
X267973800Y-135686700D02*
X269342000Y-138147000D01*
X217453000Y-269342000D02*
X215436500Y-270341500D01*
D100*
X254279700Y-250742400D02*
X254279300Y-250742000D01*
X282490000Y-226670000D02*
X282490000Y-226070000D01*
X299500000Y-232005000D02*
X298285000Y-232005000D01*
D99*
X259043500Y-235361500D02*
X258477800Y-236306200D01*
X97688400Y-118349000D02*
X98935200Y-116475000D01*
X189230000Y-78696000D02*
X193723000Y-78981000D01*
D100*
X218683200Y-268657900D02*
X218137100Y-268657900D01*
D99*
X279209000Y-148038000D02*
X279209700Y-148037600D01*
D100*
X273138400Y-220523000D02*
X271887000Y-220523000D01*
X295129000Y-168233000D02*
X295148000Y-168252000D01*
D99*
X118349000Y-257912000D02*
X120769000Y-259361200D01*
X193550000Y-81865700D02*
X193546000Y-81870000D01*
D100*
X138646500Y-85758500D02*
X138146700Y-86258300D01*
D99*
X279209700Y-148037600D02*
X281635000Y-146710000D01*
X221302800Y-267201100D02*
X221303000Y-267201000D01*
D100*
X295110000Y-168214000D02*
X295129000Y-168233000D01*
D99*
X78981000Y-161877000D02*
X81690000Y-162043000D01*
X267201000Y-134297000D02*
X267973800Y-135686700D01*
X251482000Y-100063500D02*
X252222000Y-98806000D01*
X218683200Y-268657900D02*
X221302800Y-267201100D01*
X116050000Y-253183000D02*
X116050000Y-253230000D01*
X116475000Y-256665000D02*
X118349000Y-257912000D01*
D100*
X179579000Y-293564000D02*
X178354000Y-293564000D01*
D99*
X166370000Y-276904000D02*
X170774000Y-276975000D01*
X86628600Y-212239000D02*
X86512200Y-212355000D01*
X202730000Y-75096000D02*
X202743000Y-72339200D01*
X143322000Y-86548500D02*
X147161000Y-94252100D01*
D100*
X226089268Y-288245400D02*
X226336867Y-288493000D01*
D99*
X97122600Y-119293600D02*
X97688400Y-118349000D01*
X193723000Y-78981000D02*
X193550000Y-81800000D01*
X237251000Y-97688400D02*
X239125000Y-98935200D01*
X239125000Y-98935200D02*
X240999000Y-100182000D01*
X96273700Y-120710900D02*
X97122600Y-119293600D01*
D100*
X251482000Y-100063500D02*
X250742000Y-100803500D01*
X265119900Y-288442000D02*
X264030000Y-288442000D01*
D99*
X142751000Y-85403600D02*
X143322000Y-86548500D01*
X104194000Y-255409500D02*
X103530000Y-256540000D01*
D100*
X259872000Y-293654000D02*
X259852000Y-293674000D01*
D99*
X104858000Y-254279000D02*
X104194000Y-255409500D01*
D100*
X283603600Y-244265000D02*
X283603400Y-244264800D01*
X279209700Y-148037600D02*
X279209300Y-148038000D01*
D99*
X134297000Y-88398900D02*
X138147000Y-86258400D01*
D100*
X142180200Y-84832800D02*
X142180200Y-84258700D01*
X289348000Y-220472000D02*
X289350000Y-220470000D01*
D99*
X86512200Y-212355000D02*
X86395000Y-212355000D01*
X81690000Y-162043000D02*
X90126000Y-162560000D01*
D100*
X273139000Y-220523000D02*
X273138400Y-220523000D01*
D99*
X212112000Y-268718000D02*
X208439000Y-261348000D01*
D100*
X183639000Y-288371000D02*
X183639200Y-288370800D01*
X265119900Y-288442000D02*
X265120100Y-288441800D01*
X257911700Y-236872300D02*
X257911700Y-237250700D01*
D99*
X208276500Y-280396500D02*
X208991000Y-281584000D01*
D100*
X297790000Y-241470000D02*
X298244000Y-241016000D01*
X116475000Y-256665000D02*
X117102600Y-256665000D01*
X115325500Y-254324000D02*
X114600700Y-255048800D01*
X223580000Y-293684000D02*
X222370000Y-293684000D01*
D99*
X265474000Y-193040000D02*
X273220000Y-193515000D01*
D100*
X295148000Y-168252000D02*
X295978000Y-168252000D01*
D99*
X274065000Y-193515000D02*
X274120000Y-193570000D01*
X207562000Y-279209000D02*
X208276500Y-280396500D01*
D100*
X273770000Y-239080000D02*
X272500000Y-239080000D01*
X114600700Y-255048800D02*
X114600700Y-255418300D01*
D99*
X256665000Y-239125000D02*
X255418000Y-240999000D01*
X95424900Y-122128000D02*
X96273700Y-120710900D01*
D100*
X207562000Y-279682000D02*
X207562000Y-279209300D01*
X97122600Y-119293600D02*
X97688300Y-118727900D01*
X237250500Y-97688100D02*
X237250700Y-97688300D01*
D99*
X152870000Y-280504000D02*
X152857000Y-283261000D01*
D100*
X282490000Y-226070000D02*
X282836000Y-225724000D01*
X239125000Y-98935200D02*
X239752800Y-98935200D01*
D99*
X116141000Y-253091000D02*
X116050000Y-253183000D01*
D100*
X260175100Y-234229900D02*
X260175100Y-233472200D01*
D99*
X215436500Y-270341500D02*
X213420000Y-271341000D01*
X100182000Y-114601000D02*
X102491000Y-116129000D01*
D100*
X97688300Y-118727900D02*
X97688300Y-118349300D01*
D99*
X253037000Y-239423000D02*
X252977000Y-239363000D01*
D100*
X288960000Y-239080000D02*
X287660000Y-239080000D01*
X256665000Y-239125000D02*
X255418300Y-240371700D01*
X298285000Y-232005000D02*
X297800000Y-232490000D01*
D99*
X273220000Y-193515000D02*
X274065000Y-193515000D01*
D100*
X227676700Y-288493000D02*
X227677100Y-288492600D01*
X226336867Y-288493000D02*
X227676700Y-288493000D01*
D99*
X239558000Y-102358000D02*
X234835000Y-109492000D01*
D100*
X271341300Y-141163300D02*
X271341300Y-142180200D01*
%TO.N,/Level Shifters/PAN5V.CS_05*%
X204223100Y-253103900D02*
X203735900Y-253103900D01*
X278712700Y-219173200D02*
X270694700Y-219173200D01*
X209296700Y-251560900D02*
X205766100Y-251560900D01*
X225616300Y-242810500D02*
X220939500Y-242810500D01*
X282586000Y-242314800D02*
X282338700Y-242562100D01*
X147415400Y-253841400D02*
X139598400Y-246024400D01*
X215414200Y-248335800D02*
X212521800Y-248335800D01*
X126369500Y-239014000D02*
X121702800Y-239014000D01*
X252001900Y-225009700D02*
X251846700Y-224854500D01*
X205766100Y-251560900D02*
X204223100Y-253103900D01*
X220939500Y-242810500D02*
X215414200Y-248335800D01*
X149159300Y-253841400D02*
X147415400Y-253841400D01*
X270694700Y-219173200D02*
X263189500Y-219173200D01*
X251846700Y-224854500D02*
X243572300Y-224854500D01*
X279515700Y-220138600D02*
X279515700Y-219976200D01*
X279515700Y-219976200D02*
X278712700Y-219173200D01*
X203735900Y-253103900D02*
X201061800Y-255778000D01*
X139598400Y-246024400D02*
X133379900Y-246024400D01*
X133379900Y-246024400D02*
X126369500Y-239014000D01*
X102126100Y-219437300D02*
X100602100Y-219437300D01*
X270694700Y-219173200D02*
X270694700Y-213310700D01*
X283603400Y-242314800D02*
X282586000Y-242314800D01*
X263189500Y-219173200D02*
X257353000Y-225009700D01*
X212521800Y-248335800D02*
X209296700Y-251560900D01*
X243572300Y-224854500D02*
X225616300Y-242810500D01*
X151095900Y-255778000D02*
X149159300Y-253841400D01*
X201061800Y-255778000D02*
X151095900Y-255778000D01*
X121702800Y-239014000D02*
X102126100Y-219437300D01*
X257353000Y-225009700D02*
X252001900Y-225009700D01*
%TO.N,/Level Shifters/PAN5V.CS_06*%
X262945400Y-231434400D02*
X250907000Y-231434400D01*
X250907000Y-231434400D02*
X248554000Y-233787400D01*
X121666000Y-240792000D02*
X119253000Y-238379000D01*
X289612700Y-239418200D02*
X286066100Y-242964800D01*
X289612700Y-238732200D02*
X289612700Y-239418200D01*
X246761000Y-233647700D02*
X240407300Y-233647700D01*
X147133400Y-255896200D02*
X139071200Y-247834000D01*
X149794700Y-255896200D02*
X147133400Y-255896200D01*
X210486500Y-252602300D02*
X206655100Y-252602300D01*
X211808000Y-251280800D02*
X210486500Y-252602300D01*
X119253000Y-238379000D02*
X117983000Y-238379000D01*
X206655100Y-252602300D02*
X205149700Y-254107700D01*
X151106404Y-257207904D02*
X149794700Y-255896200D01*
X139071200Y-247834000D02*
X133076800Y-247834000D01*
X205149700Y-254107700D02*
X204151500Y-254107700D01*
X126034800Y-240792000D02*
X121666000Y-240792000D01*
X286066100Y-242964800D02*
X283603400Y-242964800D01*
X109305600Y-229701600D02*
X109305600Y-229070500D01*
X228233800Y-245821200D02*
X222097600Y-245821200D01*
X281562000Y-230681500D02*
X289612700Y-238732200D01*
X204151500Y-254107700D02*
X201051296Y-257207904D01*
X263316000Y-231063800D02*
X263698300Y-230681500D01*
X117983000Y-238379000D02*
X109305600Y-229701600D01*
X246900700Y-233787400D02*
X246761000Y-233647700D01*
X216638000Y-251280800D02*
X211808000Y-251280800D01*
X240407300Y-233647700D02*
X228233800Y-245821200D01*
X248554000Y-233787400D02*
X246900700Y-233787400D01*
X263316000Y-231063800D02*
X262945400Y-231434400D01*
X133076800Y-247834000D02*
X126034800Y-240792000D01*
X201051296Y-257207904D02*
X151106404Y-257207904D01*
X222097600Y-245821200D02*
X216638000Y-251280800D01*
X263698300Y-230681500D02*
X281562000Y-230681500D01*
X109305600Y-229070500D02*
X101872100Y-221637000D01*
%TO.N,/Level Shifters/PAN5V.CS_08*%
X175793400Y-297942000D02*
X176453800Y-297281600D01*
X232312300Y-287604000D02*
X232312300Y-290486200D01*
X232312300Y-290486200D02*
X228455900Y-294342600D01*
X143254500Y-297942000D02*
X175793400Y-297942000D01*
X228455900Y-294342600D02*
X227677100Y-294342600D01*
X239505900Y-280238200D02*
X239505900Y-280410400D01*
X176453800Y-297281600D02*
X224738100Y-297281600D01*
X224738100Y-297281600D02*
X227677100Y-294342600D01*
X126867200Y-281554700D02*
X143254500Y-297942000D01*
X239505900Y-280410400D02*
X232312300Y-287604000D01*
%TO.N,/Level Shifters/PAN5V.CS_09*%
X239916300Y-234848400D02*
X228435500Y-246329200D01*
X108305600Y-230606600D02*
X108305600Y-230073200D01*
X204646500Y-254610900D02*
X201399496Y-257857904D01*
X227677100Y-293042600D02*
X228472600Y-293042600D01*
X138927200Y-249123200D02*
X133553200Y-249123200D01*
X201399496Y-257857904D02*
X201319775Y-257857904D01*
X242112800Y-234848400D02*
X239916300Y-234848400D01*
X133553200Y-249123200D02*
X125984000Y-241554000D01*
X210767800Y-253213500D02*
X206831300Y-253213500D01*
X119253000Y-241554000D02*
X108305600Y-230606600D01*
X106468500Y-228236100D02*
X105682100Y-228236100D01*
X151151200Y-257962400D02*
X149586900Y-256398100D01*
X228435500Y-246329200D02*
X222504000Y-246329200D01*
X205433900Y-254610900D02*
X204646500Y-254610900D01*
X149586900Y-256398100D02*
X146202100Y-256398100D01*
X228472600Y-293042600D02*
X228919700Y-292595500D01*
X146202100Y-256398100D02*
X138927200Y-249123200D01*
X201215279Y-257962400D02*
X151151200Y-257962400D01*
X201319775Y-257857904D02*
X201215279Y-257962400D01*
X206831300Y-253213500D02*
X205433900Y-254610900D01*
X212198600Y-251782700D02*
X210767800Y-253213500D01*
X125984000Y-241554000D02*
X119253000Y-241554000D01*
X108305600Y-230073200D02*
X106468500Y-228236100D01*
X217050500Y-251782700D02*
X212198600Y-251782700D01*
X222504000Y-246329200D02*
X217050500Y-251782700D01*
D99*
%TO.N,/Panel Headers/POW.5V_HDR_3*%
X246607000Y-98078800D02*
X246048900Y-98078800D01*
X246124000Y-95865800D02*
X245286500Y-97316400D01*
X241396000Y-103830000D02*
X237035000Y-110762000D01*
X234947200Y-92870200D02*
X239050700Y-94570600D01*
X246812100Y-94824100D02*
X246812100Y-95177600D01*
X242973800Y-101321700D02*
X242973800Y-101321800D01*
X246123800Y-95865700D02*
X246124000Y-95865700D01*
X237034900Y-110762100D02*
X237035000Y-110762000D01*
X243965600Y-96553800D02*
X244113600Y-96405800D01*
X234947200Y-92870100D02*
X234947200Y-92870200D01*
X239050700Y-94570700D02*
X239050700Y-94570600D01*
X241631000Y-103455000D02*
X241396000Y-103830000D01*
X234947000Y-92870100D02*
X234947200Y-92870200D01*
X246048900Y-98078800D02*
X245286500Y-97316400D01*
X239051000Y-94570700D02*
X244113600Y-95497700D01*
X244113600Y-96405800D02*
X244113600Y-95497700D01*
X246812100Y-95177600D02*
X246124000Y-95865700D01*
X239050700Y-94570600D02*
X239051000Y-94570700D01*
X245286500Y-97316400D02*
X242974000Y-101322000D01*
X248282000Y-95177600D02*
X246812100Y-95177600D01*
X246124000Y-95865700D02*
X246124000Y-95865800D01*
X244113600Y-95497700D02*
X246124000Y-95865800D01*
X242973800Y-101321800D02*
X242974000Y-101322000D01*
X245640600Y-93652600D02*
X246812100Y-94824100D01*
X242974000Y-101322000D02*
X241631000Y-103455000D01*
D100*
%TO.N,Net-(Q2-G)*%
X292343000Y-170114000D02*
X295110000Y-170114000D01*
X292343000Y-172430000D02*
X292307000Y-172466000D01*
X295129500Y-170095000D02*
X295148000Y-170076500D01*
X295110000Y-170114000D02*
X295129000Y-170095000D01*
X292343000Y-170114000D02*
X292343000Y-172430000D01*
X295129000Y-170095000D02*
X295129500Y-170095000D01*
X295129000Y-170095000D02*
X295148000Y-170076000D01*
%TO.N,/Level Shifters/PAN5V.CS_10*%
X223836700Y-104664800D02*
X229233600Y-110061700D01*
X150101800Y-260467900D02*
X151188912Y-260467900D01*
X219134400Y-287671800D02*
X219134400Y-287705800D01*
X202869800Y-260908800D02*
X206983400Y-256795200D01*
X131763300Y-252457900D02*
X131763300Y-253208800D01*
X134740700Y-256186200D02*
X136603500Y-256186200D01*
X223613900Y-292392600D02*
X227677100Y-292392600D01*
X227503700Y-279302500D02*
X219134400Y-287671800D01*
X223836700Y-103142100D02*
X223836700Y-104664800D01*
X217668500Y-255044200D02*
X218912100Y-253800600D01*
X137678100Y-255111600D02*
X141737300Y-255111600D01*
X215206500Y-255044200D02*
X217668500Y-255044200D01*
X148048800Y-258414900D02*
X150101800Y-260467900D01*
X206983400Y-256795200D02*
X213455500Y-256795200D01*
X151629812Y-260908800D02*
X202869800Y-260908800D01*
X213455500Y-256795200D02*
X215206500Y-255044200D01*
X226051000Y-259982400D02*
X227503700Y-259982400D01*
X145040600Y-258414900D02*
X148048800Y-258414900D01*
X229233600Y-114273200D02*
X255859700Y-140899300D01*
X219869200Y-253800600D02*
X226051000Y-259982400D01*
X141737300Y-255111600D02*
X145040600Y-258414900D01*
X227503700Y-278415200D02*
X227503700Y-279302500D01*
X229233600Y-110061700D02*
X229233600Y-114273200D01*
X151188912Y-260467900D02*
X151629812Y-260908800D01*
X218912100Y-253800600D02*
X219869200Y-253800600D01*
X136603500Y-256186200D02*
X137678100Y-255111600D01*
X131763300Y-253208800D02*
X134740700Y-256186200D01*
X255859700Y-140899300D02*
X255859700Y-150633400D01*
X223403400Y-292182100D02*
X223613900Y-292392600D01*
%TO.N,/Level Shifters/PAN5V.CS_11*%
X228534900Y-291742600D02*
X227677100Y-291742600D01*
X226875000Y-109375000D02*
X226887566Y-109387566D01*
X141773000Y-253727900D02*
X133963000Y-253727900D01*
X265890200Y-181610000D02*
X265093200Y-181610000D01*
X264896200Y-173871900D02*
X265770700Y-173871900D01*
X231073400Y-287162800D02*
X231073400Y-289204100D01*
X151686224Y-259384800D02*
X151603124Y-259467900D01*
X256851300Y-189851900D02*
X256851300Y-208653400D01*
X233549300Y-242634800D02*
X228557600Y-247626500D01*
X151603124Y-259467900D02*
X151237300Y-259467900D01*
X228557600Y-247626500D02*
X222863300Y-247626500D01*
X226887566Y-109387566D02*
X226887566Y-113247966D01*
X265093200Y-181610000D02*
X256851300Y-189851900D01*
X212944300Y-254217300D02*
X207834100Y-254217300D01*
X149171300Y-257401900D02*
X145447000Y-257401900D01*
X214375000Y-252786600D02*
X212944300Y-254217300D01*
X266671500Y-174772700D02*
X266671500Y-180828700D01*
X255207800Y-154802400D02*
X263612400Y-163207000D01*
X202666600Y-259384800D02*
X151686224Y-259384800D01*
X265770700Y-173871900D02*
X266671500Y-174772700D01*
X241325400Y-242634800D02*
X233549300Y-242634800D01*
X207834100Y-254217300D02*
X202666600Y-259384800D01*
X222863300Y-247626500D02*
X217703200Y-252786600D01*
X151237300Y-259467900D02*
X149171300Y-257401900D01*
X226887566Y-113247966D02*
X255207800Y-141568200D01*
X237693200Y-280543000D02*
X231073400Y-287162800D01*
X266671500Y-180828700D02*
X265890200Y-181610000D01*
X231073400Y-289204100D02*
X228534900Y-291742600D01*
X263612400Y-163207000D02*
X263612400Y-172588100D01*
X255207800Y-141568200D02*
X255207800Y-154802400D01*
X145447000Y-257401900D02*
X141773000Y-253727900D01*
X217703200Y-252786600D02*
X214375000Y-252786600D01*
X263612400Y-172588100D02*
X264896200Y-173871900D01*
%TO.N,/Level Shifters/PAN5V.CS_12*%
X141945100Y-254609700D02*
X145239200Y-257903800D01*
X136550900Y-254609700D02*
X141945100Y-254609700D01*
X222211800Y-252548400D02*
X225386500Y-255723100D01*
X151396018Y-259967900D02*
X151625718Y-260197600D01*
X219360800Y-252548400D02*
X222211800Y-252548400D01*
X136162700Y-254997900D02*
X136550900Y-254609700D01*
X218097700Y-253811500D02*
X219360800Y-252548400D01*
X225386500Y-255723100D02*
X241058500Y-255723100D01*
X145239200Y-257903800D02*
X148957000Y-257903800D01*
X151021100Y-259967900D02*
X151396018Y-259967900D01*
X235737400Y-280619200D02*
X230188500Y-286168100D01*
X212997400Y-256293300D02*
X215479200Y-253811500D01*
X228468500Y-291092600D02*
X227677100Y-291092600D01*
X235737400Y-280593800D02*
X235737400Y-280619200D01*
X230188500Y-286168100D02*
X230188500Y-289372600D01*
X202692000Y-260197600D02*
X206596300Y-256293300D01*
X148957000Y-257903800D02*
X151021100Y-259967900D01*
X230188500Y-289372600D02*
X228468500Y-291092600D01*
X206596300Y-256293300D02*
X212997400Y-256293300D01*
X151625718Y-260197600D02*
X202692000Y-260197600D01*
X215479200Y-253811500D02*
X218097700Y-253811500D01*
%TO.N,/Level Shifters/PAN5V.CS_13*%
X138362400Y-291533400D02*
X143374000Y-296545000D01*
X233887850Y-280471450D02*
X229186300Y-285173000D01*
X218118400Y-296545000D02*
X224220800Y-290442600D01*
X224220800Y-290442600D02*
X227677100Y-290442600D01*
X229186300Y-289665100D02*
X228408800Y-290442600D01*
X143374000Y-296545000D02*
X218118400Y-296545000D01*
X229186300Y-285173000D02*
X229186300Y-289665100D01*
X228408800Y-290442600D02*
X227677100Y-290442600D01*
%TO.N,/Level Shifters/PAN5V.CS_14*%
X175590200Y-295478200D02*
X143950800Y-295478200D01*
X143950800Y-295478200D02*
X140562100Y-292089500D01*
X227677100Y-289792600D02*
X225547000Y-289792600D01*
X175996600Y-295884600D02*
X175590200Y-295478200D01*
X232507200Y-279887000D02*
X232507200Y-279661900D01*
X225547000Y-289792600D02*
X223897000Y-289792600D01*
X229743000Y-282651200D02*
X232507200Y-279887000D01*
X217805000Y-295884600D02*
X175996600Y-295884600D01*
X223897000Y-289792600D02*
X217805000Y-295884600D01*
D99*
%TO.N,/Panel Headers/POW.5V_HDR_4*%
X196003000Y-78981000D02*
X195896000Y-81788000D01*
X184826000Y-75675000D02*
X189230000Y-75096000D01*
X194541800Y-71069800D02*
X194541800Y-73202000D01*
X197528000Y-71006000D02*
X196003000Y-72531000D01*
X193080700Y-73723000D02*
X194541800Y-73202000D01*
X194478000Y-71006000D02*
X194541800Y-71069800D01*
X196003000Y-75216900D02*
X196003000Y-72681000D01*
X196003000Y-78981000D02*
X196003000Y-75216900D01*
X193845000Y-73723000D02*
X194478000Y-74356000D01*
X194541800Y-73202000D02*
X196003000Y-72681000D01*
X195896000Y-81788000D02*
X195891000Y-81940400D01*
X193080700Y-73723000D02*
X193845000Y-73723000D01*
X195891000Y-81940400D02*
X195580000Y-90126000D01*
X189230000Y-75096000D02*
X193080700Y-73723000D01*
X196003000Y-72531000D02*
X196003000Y-72681000D01*
X196003000Y-75216900D02*
X196667100Y-75216900D01*
X196667100Y-75216900D02*
X197528000Y-74356000D01*
D100*
%TO.N,/Level Shifters/PAN5V.CS_15*%
X226137961Y-289001200D02*
X226279361Y-289142600D01*
X186280400Y-279784900D02*
X175260000Y-268764500D01*
X175260000Y-268764500D02*
X175260000Y-265474000D01*
X187394300Y-291642800D02*
X187394300Y-293686900D01*
X223748600Y-289001200D02*
X226137961Y-289001200D01*
X162102800Y-93573600D02*
X162106000Y-93576800D01*
X162106000Y-93576800D02*
X176889200Y-93576800D01*
X176889200Y-93576800D02*
X180340000Y-90126000D01*
X187394300Y-293686900D02*
X188931600Y-295224200D01*
X217525600Y-295224200D02*
X223748600Y-289001200D01*
X226279361Y-289142600D02*
X227677100Y-289142600D01*
X188931600Y-295224200D02*
X217525600Y-295224200D01*
%TO.N,/Level Shifters/PAN5V.CS_16*%
X292354000Y-284429200D02*
X299110400Y-277672800D01*
X265170900Y-299694600D02*
X278612600Y-299694600D01*
X284327600Y-284429200D02*
X292354000Y-284429200D01*
X301548800Y-254635000D02*
X300101000Y-253187200D01*
X281457400Y-296849800D02*
X281457400Y-287299400D01*
X295503600Y-228930200D02*
X297440000Y-226993800D01*
X278612600Y-299694600D02*
X281457400Y-296849800D01*
X301548800Y-262458200D02*
X301548800Y-254635000D01*
X297440000Y-226993800D02*
X297440000Y-135718200D01*
X227152200Y-65430400D02*
X182753000Y-65430400D01*
X281457400Y-287299400D02*
X284327600Y-284429200D01*
X299110400Y-264896600D02*
X301548800Y-262458200D01*
X265069300Y-299694600D02*
X265120100Y-299643800D01*
X177800000Y-70383400D02*
X177800000Y-90126000D01*
X177800000Y-270118900D02*
X177800000Y-265474000D01*
X222684900Y-299694600D02*
X265069300Y-299694600D01*
X189298600Y-281617500D02*
X177800000Y-270118900D01*
X299110400Y-277672800D02*
X299110400Y-264896600D01*
X297440000Y-135718200D02*
X227152200Y-65430400D01*
X182753000Y-65430400D02*
X177800000Y-70383400D01*
X265120100Y-299643800D02*
X265120100Y-294291800D01*
X222659500Y-299720000D02*
X222684900Y-299694600D01*
%TO.N,/Level Shifters/PAN5V.CS_17*%
X263868500Y-292820600D02*
X264039700Y-292991800D01*
X264039700Y-292991800D02*
X265120100Y-292991800D01*
X258886850Y-293659450D02*
X259725700Y-292820600D01*
X259725700Y-292820600D02*
X263868500Y-292820600D01*
X180340000Y-270281400D02*
X180340000Y-265474000D01*
X191363600Y-281305000D02*
X180340000Y-270281400D01*
%TO.N,/Level Shifters/PAN5V.CS_18*%
X182880000Y-265474000D02*
X188043800Y-270637800D01*
X188043800Y-270637800D02*
X188043800Y-274901900D01*
X256354200Y-292256200D02*
X265034500Y-292256200D01*
X265034500Y-292256200D02*
X265120100Y-292341800D01*
X249728600Y-298881800D02*
X256354200Y-292256200D01*
X188069200Y-298881800D02*
X249728600Y-298881800D01*
X188043800Y-298907200D02*
X188069200Y-298881800D01*
%TO.N,/Level Shifters/PAN5V.CS_19*%
X192527000Y-272581000D02*
X192527000Y-274879400D01*
X254762700Y-291691800D02*
X265120100Y-291691800D01*
X248410900Y-298043600D02*
X254762700Y-291691800D01*
X167378700Y-92927300D02*
X170180000Y-90126000D01*
X185420000Y-265474000D02*
X192527000Y-272581000D01*
X191820800Y-298043600D02*
X248410900Y-298043600D01*
X167335200Y-92927300D02*
X167378700Y-92927300D01*
X191778600Y-298085800D02*
X191820800Y-298043600D01*
D99*
%TO.N,/Panel Headers/POW.5V_HDR_5*%
X136347000Y-83140700D02*
X139710000Y-79185800D01*
X136346800Y-83140800D02*
X136347000Y-83140700D01*
X145438000Y-85549700D02*
X149361000Y-92982100D01*
X134173800Y-84492500D02*
X132822200Y-85844100D01*
X145280000Y-85250500D02*
X145438000Y-85549700D01*
X143162900Y-78350800D02*
X141692800Y-78350800D01*
X144155000Y-83118700D02*
X145280000Y-85250500D01*
X134584400Y-84492500D02*
X134173800Y-84492500D01*
X141568600Y-78638900D02*
X144155000Y-83118700D01*
X141692800Y-78350800D02*
X141004700Y-77662700D01*
X139710000Y-79185800D02*
X141005000Y-77662800D01*
X149360900Y-92982100D02*
X149361000Y-92982100D01*
X144154700Y-83118700D02*
X144155000Y-83118700D01*
X141692800Y-78514700D02*
X141568600Y-78638900D01*
X138846500Y-76974600D02*
X140316600Y-76974600D01*
X141005000Y-77662800D02*
X141568600Y-78638900D01*
X140316600Y-76974600D02*
X141004700Y-77662700D01*
X141692800Y-78350800D02*
X141692800Y-78514700D01*
X132822000Y-85844100D02*
X134584400Y-84492500D01*
X134584400Y-84492500D02*
X136346800Y-83140800D01*
X136346700Y-83140700D02*
X136346800Y-83140800D01*
X140521500Y-79875800D02*
X140400000Y-79875800D01*
X140400000Y-79875800D02*
X139710000Y-79185800D01*
X140316600Y-76974600D02*
X140316600Y-76620900D01*
X140316600Y-76620900D02*
X141487900Y-75449600D01*
D100*
%TO.N,/Level Shifters/PAN5V.CS_20*%
X255835300Y-277029268D02*
X255835300Y-275793700D01*
X266895900Y-281666700D02*
X267268000Y-282038800D01*
X253347900Y-273306300D02*
X237745700Y-273306300D01*
X265068300Y-279583900D02*
X266895900Y-281411500D01*
X237745700Y-273306300D02*
X219437300Y-254997900D01*
X266895900Y-281411500D02*
X266895900Y-281666700D01*
X144874300Y-100602100D02*
X136162700Y-100602100D01*
X145821400Y-101549200D02*
X144874300Y-100602100D01*
X266060300Y-291041800D02*
X265120100Y-291041800D01*
X255835300Y-275793700D02*
X253347900Y-273306300D01*
X255789684Y-277074884D02*
X255835300Y-277029268D01*
X267268000Y-289834100D02*
X266060300Y-291041800D01*
X267268000Y-282038800D02*
X267268000Y-289834100D01*
X145821400Y-101600000D02*
X145821400Y-101549200D01*
%TO.N,/Level Shifters/PAN5V.CS_21*%
X260086500Y-274955000D02*
X256024600Y-274955000D01*
X210134200Y-97713800D02*
X151231600Y-97713800D01*
X261753200Y-277400600D02*
X260985000Y-276632400D01*
X265932700Y-290391800D02*
X266766100Y-289558400D01*
X146202400Y-102743000D02*
X138277600Y-102743000D01*
X137388600Y-101854000D02*
X133981100Y-101854000D01*
X240942334Y-128521934D02*
X210134200Y-97713800D01*
X133981100Y-101854000D02*
X133963000Y-101872100D01*
X266766100Y-289558400D02*
X266766100Y-282246600D01*
X260985000Y-275853500D02*
X260086500Y-274955000D01*
X240997266Y-128521934D02*
X240942334Y-128521934D01*
X260985000Y-276632400D02*
X260985000Y-275853500D01*
X256024600Y-274955000D02*
X241316100Y-260246500D01*
X261934700Y-277400600D02*
X261753200Y-277400600D01*
X228689700Y-260246500D02*
X222171100Y-253727900D01*
X266766100Y-282246600D02*
X266394000Y-281874500D01*
X241316100Y-260246500D02*
X228689700Y-260246500D01*
X266394000Y-281859900D02*
X261934700Y-277400600D01*
X222171100Y-253727900D02*
X221637000Y-253727900D01*
X266394000Y-281874500D02*
X266394000Y-281859900D01*
X265120100Y-290391800D02*
X265932700Y-290391800D01*
X138277600Y-102743000D02*
X137388600Y-101854000D01*
X151231600Y-97713800D02*
X146202400Y-102743000D01*
%TO.N,/Level Shifters/PAN5V.CS_22*%
X257606200Y-264795000D02*
X256779000Y-264795000D01*
X243136300Y-250360000D02*
X230307300Y-250360000D01*
X269036800Y-284895950D02*
X269036800Y-280261100D01*
X136017000Y-103632000D02*
X135509000Y-103124000D01*
X256779000Y-264795000D02*
X253365000Y-261381000D01*
X253365000Y-261381000D02*
X253365000Y-260588700D01*
X264203700Y-289741800D02*
X263878000Y-290067500D01*
X268605000Y-275793800D02*
X257606200Y-264795000D01*
X230307300Y-250360000D02*
X228692800Y-248745500D01*
X146888200Y-103632000D02*
X136017000Y-103632000D01*
X228692800Y-248745500D02*
X226777000Y-248745500D01*
X223836700Y-251685800D02*
X223836700Y-252457900D01*
X135509000Y-103124000D02*
X131781400Y-103124000D01*
X151561800Y-102184200D02*
X148336000Y-102184200D01*
X269051100Y-284910250D02*
X269036800Y-284895950D01*
X131781400Y-103124000D02*
X131763300Y-103142100D01*
X265120100Y-289741800D02*
X264203700Y-289741800D01*
X253365000Y-260588700D02*
X243136300Y-250360000D01*
X269036800Y-280261100D02*
X268605000Y-279829300D01*
X268605000Y-279829300D02*
X268605000Y-275793800D01*
X148336000Y-102184200D02*
X146888200Y-103632000D01*
X226777000Y-248745500D02*
X223836700Y-251685800D01*
%TO.N,/Level Shifters/PAN5V.CS_23*%
X250825000Y-260617200D02*
X241395700Y-251187900D01*
X258515500Y-267335000D02*
X256746100Y-267335000D01*
X135498200Y-104597200D02*
X135313100Y-104412100D01*
X266260100Y-288738900D02*
X265907200Y-289091800D01*
X241395700Y-251187900D02*
X226036400Y-251187900D01*
X258521200Y-278702000D02*
X258533400Y-278714200D01*
X250825000Y-261413900D02*
X250825000Y-260617200D01*
X265907200Y-289091800D02*
X265120100Y-289091800D01*
X266260100Y-282490700D02*
X266260100Y-288738900D01*
X149364700Y-103212900D02*
X147980400Y-104597200D01*
X262483600Y-278714200D02*
X266260100Y-282490700D01*
X147980400Y-104597200D02*
X135498200Y-104597200D01*
X135313100Y-104412100D02*
X129563600Y-104412100D01*
X256746100Y-267335000D02*
X250825000Y-261413900D01*
X258533400Y-278714200D02*
X262483600Y-278714200D01*
%TO.N,/Level Shifters/PAN5V.CS_24*%
X183983000Y-294564600D02*
X183639200Y-294220800D01*
X210743800Y-284022800D02*
X187482239Y-284022800D01*
X187482239Y-284022800D02*
X186802139Y-284702900D01*
X183639200Y-294220800D02*
X183426100Y-294433900D01*
X185496200Y-294564600D02*
X183983000Y-294564600D01*
X186802139Y-284702900D02*
X186723500Y-284702900D01*
X183426100Y-294433900D02*
X147378500Y-294433900D01*
X147378500Y-294433900D02*
X132629600Y-279685000D01*
D99*
%TO.N,/Panel Headers/POW.5V_HDR_6*%
X95685800Y-110459300D02*
X95865800Y-109476000D01*
X101321700Y-112626100D02*
X101322000Y-112626100D01*
X100330000Y-111634400D02*
X101321700Y-112626100D01*
X101321700Y-112626200D02*
X101321700Y-112626100D01*
X95865700Y-109476000D02*
X95865700Y-109476200D01*
X92870200Y-120652800D02*
X94570700Y-116549000D01*
X110762000Y-118565000D02*
X110762100Y-118565100D01*
X95505700Y-111442500D02*
X95685800Y-110459300D01*
X96553800Y-111634400D02*
X95697600Y-111634400D01*
X103736000Y-114145000D02*
X110762000Y-118565000D01*
X95185900Y-109959400D02*
X95685800Y-110459300D01*
X95697600Y-111634400D02*
X95505700Y-111442500D01*
X95177600Y-107318000D02*
X95865700Y-108006100D01*
X95865700Y-109476000D02*
X95865800Y-109476000D01*
X94570700Y-116549000D02*
X95505700Y-111442500D01*
X95865700Y-108993000D02*
X95865700Y-109476000D01*
X92870100Y-120653000D02*
X92870200Y-120652800D01*
X93652600Y-109959400D02*
X95185900Y-109959400D01*
X92870100Y-120652800D02*
X92870200Y-120652800D01*
X95865700Y-108006100D02*
X95865700Y-108993000D01*
X101322000Y-112626000D02*
X103736000Y-114145000D01*
X101322000Y-112626100D02*
X101322000Y-112626000D01*
X96553800Y-111634400D02*
X100330000Y-111634400D01*
X94570700Y-116549300D02*
X94570700Y-116549000D01*
X95865700Y-108993000D02*
X98078800Y-108993000D01*
D100*
%TO.N,/Level Shifters/PAN5V.CS_25*%
X182668600Y-292735000D02*
X182854400Y-292920800D01*
X112266200Y-278241600D02*
X134793400Y-278241600D01*
X149286800Y-292735000D02*
X182668600Y-292735000D01*
X134793400Y-278241600D02*
X149286800Y-292735000D01*
X109765300Y-275740700D02*
X112266200Y-278241600D01*
X186747600Y-290874800D02*
X184701600Y-292920800D01*
X219270900Y-282658500D02*
X215112600Y-286816800D01*
X187729100Y-287855300D02*
X187729100Y-289664000D01*
X186747600Y-290645500D02*
X186747600Y-290874800D01*
X182854400Y-292920800D02*
X183639200Y-292920800D01*
X188767600Y-286816800D02*
X187729100Y-287855300D01*
X252457900Y-223836700D02*
X245374800Y-223836700D01*
X215112600Y-286816800D02*
X188767600Y-286816800D01*
X184701600Y-292920800D02*
X183639200Y-292920800D01*
X187729100Y-289664000D02*
X186747600Y-290645500D01*
%TO.N,/Level Shifters/PAN5V.CS_26*%
X186813500Y-289869900D02*
X186245700Y-290437700D01*
X135138200Y-276997200D02*
X149961600Y-291820600D01*
X186813500Y-287633100D02*
X186813500Y-289869900D01*
X214706200Y-286105600D02*
X188341000Y-286105600D01*
X184615700Y-292270800D02*
X183639200Y-292270800D01*
X188341000Y-286105600D02*
X186813500Y-287633100D01*
X240172900Y-275534500D02*
X225277300Y-275534500D01*
X225277300Y-275534500D02*
X214706200Y-286105600D01*
X180906988Y-291820600D02*
X181257188Y-292170800D01*
X186245700Y-290437700D02*
X186245700Y-290640800D01*
X133959600Y-276997200D02*
X135138200Y-276997200D01*
X186245700Y-290640800D02*
X184615700Y-292270800D01*
X183539200Y-292170800D02*
X183639200Y-292270800D01*
X181257188Y-292170800D02*
X183539200Y-292170800D01*
X149961600Y-291820600D02*
X180906988Y-291820600D01*
X101872100Y-133963000D02*
X101872100Y-146301900D01*
X101872100Y-146301900D02*
X100161900Y-148012100D01*
%TO.N,/Level Shifters/PAN5V.CS_27*%
X89907700Y-254602100D02*
X109219200Y-273913600D01*
X181203600Y-291007800D02*
X181816600Y-291620800D01*
X184525000Y-291620800D02*
X183639200Y-291620800D01*
X150571200Y-291007800D02*
X181203600Y-291007800D01*
X225099700Y-274670700D02*
X214376000Y-285394400D01*
X109219200Y-273913600D02*
X133477000Y-273913600D01*
X240659700Y-274670700D02*
X225099700Y-274670700D01*
X185742300Y-290403500D02*
X184525000Y-291620800D01*
X181816600Y-291620800D02*
X183639200Y-291620800D01*
X185742300Y-290229500D02*
X185742300Y-290403500D01*
X188239400Y-285394400D02*
X186311600Y-287322200D01*
X186311600Y-287322200D02*
X186311600Y-289660200D01*
X214376000Y-285394400D02*
X188239400Y-285394400D01*
X186311600Y-289660200D02*
X185742300Y-290229500D01*
X133477000Y-273913600D02*
X150571200Y-291007800D01*
%TO.N,/Level Shifters/PAN5V.CS_28*%
X181356000Y-290220400D02*
X182106400Y-290970800D01*
X185809700Y-286935100D02*
X187985400Y-284759400D01*
X182106400Y-290970800D02*
X183639200Y-290970800D01*
X151130000Y-290220400D02*
X181356000Y-290220400D01*
X184447600Y-290970800D02*
X185240400Y-290178000D01*
X129527100Y-268617500D02*
X151130000Y-290220400D01*
X94361000Y-250571000D02*
X96779400Y-252989400D01*
X96779400Y-252989400D02*
X96805500Y-252989400D01*
X213815500Y-284759400D02*
X224616700Y-273958200D01*
X112433600Y-268617500D02*
X129527100Y-268617500D01*
X185240400Y-290178000D02*
X185240400Y-290021600D01*
X224616700Y-273958200D02*
X241391000Y-273958200D01*
X187985400Y-284759400D02*
X213815500Y-284759400D01*
X185809700Y-289452300D02*
X185809700Y-286935100D01*
X185240400Y-290021600D02*
X185809700Y-289452300D01*
X96805500Y-252989400D02*
X112433600Y-268617500D01*
X183639200Y-290970800D02*
X184447600Y-290970800D01*
%TO.N,/Level Shifters/PAN5V.CS_29*%
X201143600Y-252602000D02*
X203836000Y-252602000D01*
X98062100Y-151238900D02*
X98062100Y-140562100D01*
X119450884Y-233450216D02*
X119450884Y-230804484D01*
X199796400Y-253949200D02*
X201143600Y-252602000D01*
X248361500Y-221996000D02*
X255319600Y-215037900D01*
X208558500Y-251029100D02*
X211937600Y-247650000D01*
X89730000Y-176530000D02*
X90539900Y-176530000D01*
X90539900Y-176530000D02*
X92017400Y-175052500D01*
X119450884Y-230804484D02*
X96827000Y-208180600D01*
X88955000Y-177305000D02*
X89730000Y-176530000D01*
X184738500Y-289813800D02*
X184738500Y-289970200D01*
X184387900Y-290320800D02*
X183639200Y-290320800D01*
X220264500Y-242310500D02*
X224160500Y-242310500D01*
X177153768Y-271576800D02*
X185307800Y-279730832D01*
X92017400Y-157283600D02*
X98062100Y-151238900D01*
X224160500Y-242310500D02*
X244475000Y-221996000D01*
X255319600Y-215037900D02*
X257537900Y-215037900D01*
X214925000Y-247650000D02*
X220264500Y-242310500D01*
X89737300Y-181610000D02*
X88955000Y-180827700D01*
X92017400Y-175052500D02*
X92017400Y-157283600D01*
X96827000Y-187907800D02*
X90529200Y-181610000D01*
X199745600Y-253949200D02*
X199796400Y-253949200D01*
X88955000Y-180827700D02*
X88955000Y-177305000D01*
X96827000Y-208180600D02*
X96827000Y-187907800D01*
X185307800Y-279730832D02*
X185307800Y-289244500D01*
X203836000Y-252602000D02*
X205408900Y-251029100D01*
X244475000Y-221996000D02*
X248361500Y-221996000D01*
X90529200Y-181610000D02*
X89737300Y-181610000D01*
X184738500Y-289970200D02*
X184387900Y-290320800D01*
X185307800Y-289244500D02*
X184738500Y-289813800D01*
X211937600Y-247650000D02*
X214925000Y-247650000D01*
X205408900Y-251029100D02*
X208558500Y-251029100D01*
D99*
%TO.N,/Panel Headers/POW.5V_HDR_7*%
X73138200Y-161122000D02*
X73202000Y-161058200D01*
X74356000Y-158736000D02*
X74356000Y-158072000D01*
X72531000Y-159597000D02*
X71006000Y-158072000D01*
X73202000Y-161058200D02*
X72681000Y-159597000D01*
X73202000Y-161058200D02*
X74292200Y-161058200D01*
X75096000Y-166370000D02*
X75675000Y-170774000D01*
X78981000Y-159597000D02*
X81686400Y-159700000D01*
X72681000Y-159597000D02*
X72531000Y-159597000D01*
X74292200Y-161058200D02*
X74356000Y-161122000D01*
X75217000Y-159597000D02*
X74356000Y-158736000D01*
X71006000Y-161122000D02*
X73138200Y-161122000D01*
X81686400Y-159700000D02*
X90126000Y-160020000D01*
X75096000Y-166370000D02*
X73202000Y-161058200D01*
X78981000Y-159597000D02*
X75217000Y-159597000D01*
X75217000Y-159597000D02*
X72681000Y-159597000D01*
D100*
%TO.N,/Level Shifters/PAN5V.MOSI_1*%
X147786500Y-258916800D02*
X144281900Y-258916800D01*
X284847300Y-225971900D02*
X281736600Y-229082600D01*
X284847300Y-224826100D02*
X284847300Y-225971900D01*
X127363900Y-250639200D02*
X127363900Y-249917900D01*
X227965900Y-243960000D02*
X242640082Y-229285818D01*
X252374400Y-229082600D02*
X252222000Y-229235000D01*
X284445200Y-224424000D02*
X284847300Y-224826100D01*
X242640082Y-229285818D02*
X242640082Y-229283224D01*
X252222000Y-229235000D02*
X252196600Y-229235000D01*
X168097200Y-261569200D02*
X151583106Y-261569200D01*
X144281900Y-258916800D02*
X143238900Y-259959800D01*
X118516400Y-233603800D02*
X99950500Y-215037900D01*
X252196600Y-229235000D02*
X251197714Y-228236114D01*
X242640082Y-229283224D02*
X243687192Y-228236114D01*
X151583106Y-261569200D02*
X150981806Y-260967900D01*
X202946000Y-261594600D02*
X207002700Y-257537900D01*
X168198800Y-261670800D02*
X168097200Y-261569200D01*
X251197714Y-228236114D02*
X249917900Y-228236114D01*
X281736600Y-229082600D02*
X252374400Y-229082600D01*
X243687192Y-228236114D02*
X249917900Y-228236114D01*
X168275000Y-261594600D02*
X202946000Y-261594600D01*
X223164400Y-243960000D02*
X227965900Y-243960000D01*
X99950500Y-215037900D02*
X98062100Y-215037900D01*
X207002700Y-257537900D02*
X215037900Y-257537900D01*
X168198800Y-261670800D02*
X168275000Y-261594600D01*
X136684500Y-259959800D02*
X127363900Y-250639200D01*
X283718000Y-224424000D02*
X284445200Y-224424000D01*
X143238900Y-259959800D02*
X136684500Y-259959800D01*
X150981806Y-260967900D02*
X149837600Y-260967900D01*
X149837600Y-260967900D02*
X147786500Y-258916800D01*
%TO.N,/Level Shifters/PAN5V.MISO_1*%
X101032600Y-217237600D02*
X119158400Y-235363400D01*
X99332100Y-217237600D02*
X101032600Y-217237600D01*
X206721200Y-260174000D02*
X202786000Y-264109200D01*
X212991800Y-261230700D02*
X209950700Y-261230700D01*
X283718000Y-225074000D02*
X282143200Y-225074000D01*
X251930600Y-226779100D02*
X251187900Y-226036400D01*
X280438100Y-226779100D02*
X251930600Y-226779100D01*
X251187900Y-226036400D02*
X244257800Y-226036400D01*
X119158400Y-235363400D02*
X119251200Y-235363400D01*
X217237600Y-256984900D02*
X212991800Y-261230700D01*
X282143200Y-225074000D02*
X280438100Y-226779100D01*
X174084800Y-264109200D02*
X172720000Y-265474000D01*
X202786000Y-264109200D02*
X174084800Y-264109200D01*
X208894000Y-260174000D02*
X206721200Y-260174000D01*
X217237600Y-256267900D02*
X217237600Y-256984900D01*
X209950700Y-261230700D02*
X208894000Y-260174000D01*
X244257800Y-226036400D02*
X228469700Y-241824500D01*
D99*
%TO.N,/Panel Headers/POW.5V_HDR_8*%
X77485100Y-214417700D02*
X77485500Y-214417700D01*
X77446700Y-214378900D02*
X77446700Y-214379300D01*
X77481100Y-214413300D02*
X77481100Y-214413700D01*
X77471900Y-214404100D02*
X77471900Y-214404500D01*
X77440300Y-214372500D02*
X77440300Y-214372900D01*
X77483500Y-214415700D02*
X77483500Y-214416100D01*
X77421900Y-214354100D02*
X77421900Y-214354500D01*
X77481500Y-214414100D02*
X77481900Y-214414100D01*
X77480700Y-214413300D02*
X77481100Y-214413300D01*
X77469900Y-214402500D02*
X77470300Y-214402500D01*
X77470700Y-214402900D02*
X77470700Y-214403300D01*
X77459500Y-214392100D02*
X77459900Y-214392100D01*
X77432700Y-214364900D02*
X77432700Y-214365300D01*
X77456700Y-214389300D02*
X77457100Y-214389300D01*
X77431500Y-214363700D02*
X77431500Y-214364100D01*
X77447500Y-214379700D02*
X77447500Y-214380100D01*
X77435900Y-214368500D02*
X77436300Y-214368500D01*
X77449100Y-214381700D02*
X77449500Y-214381700D01*
X77479100Y-214411700D02*
X77479500Y-214411700D01*
X77435500Y-214367700D02*
X77435500Y-214368100D01*
X77452300Y-214384500D02*
X77452300Y-214384900D01*
X77422700Y-214355300D02*
X77423100Y-214355300D01*
X77464300Y-214396500D02*
X77464300Y-214396900D01*
X77468300Y-214400900D02*
X77468700Y-214400900D01*
X77470300Y-214402900D02*
X77470700Y-214402900D01*
X77466300Y-214398900D02*
X77466700Y-214398900D01*
X77425900Y-214358100D02*
X77425900Y-214358500D01*
X77456700Y-214388900D02*
X77456700Y-214389300D01*
X77443100Y-214375300D02*
X77443100Y-214375700D01*
X77446300Y-214378500D02*
X77446300Y-214378900D01*
X77485500Y-214417700D02*
X77485500Y-214418100D01*
X77179500Y-214112100D02*
X77421100Y-214353700D01*
X77441900Y-214374500D02*
X77442300Y-214374500D01*
X77429500Y-214362100D02*
X77429900Y-214362100D01*
X77446300Y-214378900D02*
X77446700Y-214378900D01*
X77486300Y-214418900D02*
X77486700Y-214418900D01*
X77484300Y-214416900D02*
X77484700Y-214416900D01*
X77433900Y-214366500D02*
X77434300Y-214366500D01*
X77463900Y-214396100D02*
X77463900Y-214396500D01*
X77479900Y-214412500D02*
X77480300Y-214412500D01*
X77472700Y-214404900D02*
X77472700Y-214405300D01*
X79113200Y-213199500D02*
X79113200Y-213757600D01*
X77439100Y-214371700D02*
X77439500Y-214371700D01*
X77471900Y-214404500D02*
X77472300Y-214404500D01*
X78424300Y-215303800D02*
X78424300Y-215242500D01*
X77464700Y-214396900D02*
X77464700Y-214397300D01*
X77447100Y-214379700D02*
X77447500Y-214379700D01*
X77455900Y-214388100D02*
X77455900Y-214388500D01*
X77444700Y-214377300D02*
X77445100Y-214377300D01*
X77476700Y-214409300D02*
X77477100Y-214409300D01*
X79185800Y-215890000D02*
X83140700Y-219253000D01*
X77438700Y-214371300D02*
X77439100Y-214371300D01*
X77445900Y-214378100D02*
X77445900Y-214378500D01*
X77478300Y-214410500D02*
X77478300Y-214410900D01*
X77425100Y-214357700D02*
X77425500Y-214357700D01*
X77451500Y-214383700D02*
X77451500Y-214384100D01*
X77442300Y-214374500D02*
X77442300Y-214374900D01*
X77485100Y-214417300D02*
X77485100Y-214417700D01*
X77453900Y-214386100D02*
X77453900Y-214386500D01*
X77476700Y-214408900D02*
X77476700Y-214409300D01*
X77485900Y-214418100D02*
X77485900Y-214418500D01*
X77429900Y-214362500D02*
X77430300Y-214362500D01*
X77467100Y-214399700D02*
X77467500Y-214399700D01*
X77439500Y-214371700D02*
X77439500Y-214372100D01*
X77422700Y-214354900D02*
X77422700Y-214355300D01*
X77483100Y-214415300D02*
X77483100Y-214415700D01*
X77463500Y-214395700D02*
X77463500Y-214396100D01*
X77457100Y-214389300D02*
X77457100Y-214389700D01*
X77465500Y-214397700D02*
X77465500Y-214398100D01*
X77469900Y-214402100D02*
X77469900Y-214402500D01*
X77443900Y-214376100D02*
X77443900Y-214376500D01*
X77470300Y-214402500D02*
X77470300Y-214402900D01*
X77445500Y-214377700D02*
X77445500Y-214378100D01*
X77461900Y-214394500D02*
X77462300Y-214394500D01*
X77475100Y-214407700D02*
X77475500Y-214407700D01*
X77423100Y-214355700D02*
X77423500Y-214355700D01*
X76974600Y-216753500D02*
X78424300Y-215303800D01*
X77473900Y-214406100D02*
X77473900Y-214406500D01*
X77441100Y-214373700D02*
X77441500Y-214373700D01*
X77427100Y-214359700D02*
X77427500Y-214359700D01*
X83118700Y-211445000D02*
X79113200Y-213757600D01*
X77487100Y-214419700D02*
X77487500Y-214419700D01*
X77473100Y-214405300D02*
X77473100Y-214405700D01*
X77464700Y-214397300D02*
X77465100Y-214397300D01*
X77445900Y-214378500D02*
X77446300Y-214378500D01*
X77469500Y-214402100D02*
X77469900Y-214402100D01*
X77477500Y-214409700D02*
X77477500Y-214410100D01*
X77474700Y-214407300D02*
X77475100Y-214407300D01*
X77473100Y-214405700D02*
X77473500Y-214405700D01*
X77440700Y-214372900D02*
X77440700Y-214373300D01*
X77437500Y-214369700D02*
X77437500Y-214370100D01*
X77487500Y-214419700D02*
X77662800Y-214595000D01*
X77449900Y-214382500D02*
X77450300Y-214382500D01*
X77431500Y-214364100D02*
X77431900Y-214364100D01*
X77448300Y-214380900D02*
X77448700Y-214380900D01*
X77479500Y-214412100D02*
X77479900Y-214412100D01*
X77447900Y-214380100D02*
X77447900Y-214380500D01*
X77447900Y-214380500D02*
X77448300Y-214380500D01*
X77452300Y-214384900D02*
X77452700Y-214384900D01*
X77424300Y-214356500D02*
X77424300Y-214356900D01*
X77451900Y-214384100D02*
X77451900Y-214384500D01*
X77486300Y-214418500D02*
X77486300Y-214418900D01*
X85844000Y-222777900D02*
X85844100Y-222778000D01*
X77442700Y-214375300D02*
X77443100Y-214375300D01*
X77450700Y-214382900D02*
X77450700Y-214383300D01*
X77487100Y-214419300D02*
X77487100Y-214419700D01*
X77475900Y-214408100D02*
X77475900Y-214408500D01*
X78424300Y-215242500D02*
X79185800Y-215890000D01*
X77427500Y-214360100D02*
X77427900Y-214360100D01*
X77481100Y-214413700D02*
X77481500Y-214413700D01*
X77428700Y-214360900D02*
X77428700Y-214361300D01*
X77479900Y-214412100D02*
X77479900Y-214412500D01*
X77453100Y-214385300D02*
X77453100Y-214385700D01*
X77443500Y-214375700D02*
X77443500Y-214376100D01*
X77431900Y-214364500D02*
X77432300Y-214364500D01*
X77438300Y-214370500D02*
X77438300Y-214370900D01*
X77440300Y-214372900D02*
X77440700Y-214372900D01*
X77464300Y-214396900D02*
X77464700Y-214396900D01*
X77478700Y-214410900D02*
X77478700Y-214411300D01*
X77442700Y-214374900D02*
X77442700Y-214375300D01*
X77431900Y-214364100D02*
X77431900Y-214364500D01*
X77426300Y-214358500D02*
X77426300Y-214358900D01*
X91776700Y-206875300D02*
X92982100Y-206239000D01*
X77477100Y-214409300D02*
X77477100Y-214409700D01*
X77460700Y-214393300D02*
X77461100Y-214393300D01*
X77436300Y-214368900D02*
X77436700Y-214368900D01*
X77452700Y-214385300D02*
X77453100Y-214385300D01*
X77483900Y-214416500D02*
X77484300Y-214416500D01*
X77438300Y-214370900D02*
X77438700Y-214370900D01*
X77462300Y-214394900D02*
X77462700Y-214394900D01*
X77481500Y-214413700D02*
X77481500Y-214414100D01*
X77471100Y-214403300D02*
X77471100Y-214403700D01*
X77451100Y-214383300D02*
X77451100Y-214383700D01*
X77484700Y-214416900D02*
X77484700Y-214417300D01*
X77458700Y-214391300D02*
X77459100Y-214391300D01*
X77423900Y-214356100D02*
X77423900Y-214356500D01*
X77480300Y-214412900D02*
X77480700Y-214412900D01*
X77424700Y-214356900D02*
X77424700Y-214357300D01*
X77456300Y-214388500D02*
X77456300Y-214388900D01*
X77475900Y-214408500D02*
X77476300Y-214408500D01*
X77422300Y-214354900D02*
X77422700Y-214354900D01*
X77426300Y-214358900D02*
X77426700Y-214358900D01*
X77471500Y-214404100D02*
X77471900Y-214404100D01*
X77466300Y-214398500D02*
X77466300Y-214398900D01*
X77462700Y-214394900D02*
X77462700Y-214395300D01*
X77430300Y-214362900D02*
X77430700Y-214362900D01*
X77422300Y-214354500D02*
X77422300Y-214354900D01*
X77472300Y-214404900D02*
X77472700Y-214404900D01*
X77438700Y-214370900D02*
X77438700Y-214371300D01*
X77430700Y-214363300D02*
X77431100Y-214363300D01*
X77461500Y-214393700D02*
X77461500Y-214394100D01*
X77450300Y-214382900D02*
X77450700Y-214382900D01*
X77455100Y-214387300D02*
X77455100Y-214387700D01*
X77448700Y-214381300D02*
X77449100Y-214381300D01*
X77455100Y-214387700D02*
X77455500Y-214387700D01*
X77483500Y-214416100D02*
X77483900Y-214416100D01*
X85450000Y-210215000D02*
X91776700Y-206875300D01*
X77662800Y-214595000D02*
X78424300Y-215242500D01*
X77484300Y-214416500D02*
X77484300Y-214416900D01*
X77450700Y-214383300D02*
X77451100Y-214383300D01*
X77465900Y-214398500D02*
X77466300Y-214398500D01*
X83118700Y-211445300D02*
X83118700Y-211445000D01*
X77472700Y-214405300D02*
X77473100Y-214405300D01*
X77433500Y-214365700D02*
X77433500Y-214366100D01*
X77454300Y-214386500D02*
X77454300Y-214386900D01*
X77467100Y-214399300D02*
X77467100Y-214399700D01*
X77441900Y-214374100D02*
X77441900Y-214374500D01*
X77449100Y-214381300D02*
X77449100Y-214381700D01*
X77460300Y-214392900D02*
X77460700Y-214392900D01*
X77453500Y-214385700D02*
X77453500Y-214386100D01*
X77449500Y-214382100D02*
X77449900Y-214382100D01*
X77465100Y-214397300D02*
X77465100Y-214397700D01*
X77457900Y-214390100D02*
X77457900Y-214390500D01*
X77428300Y-214360500D02*
X77428300Y-214360900D01*
X77457500Y-214390100D02*
X77457900Y-214390100D01*
X77448700Y-214380900D02*
X77448700Y-214381300D01*
X77470700Y-214403300D02*
X77471100Y-214403300D01*
X77485900Y-214418500D02*
X77486300Y-214418500D01*
X77439100Y-214371300D02*
X77439100Y-214371700D01*
X77429100Y-214361300D02*
X77429100Y-214361700D01*
X77432300Y-214364500D02*
X77432300Y-214364900D01*
X77476300Y-214408500D02*
X77476300Y-214408900D01*
X77477500Y-214410100D02*
X77477900Y-214410100D01*
X77455900Y-214388500D02*
X77456300Y-214388500D01*
X79185800Y-215768500D02*
X79185800Y-215890000D01*
X77473500Y-214405700D02*
X77473500Y-214406100D01*
X77435900Y-214368100D02*
X77435900Y-214368500D01*
X77437100Y-214369300D02*
X77437100Y-214369700D01*
X77431100Y-214363300D02*
X77431100Y-214363700D01*
X77434700Y-214367300D02*
X77435100Y-214367300D01*
X77454700Y-214387300D02*
X77455100Y-214387300D01*
X77483100Y-214415700D02*
X77483500Y-214415700D01*
X77434300Y-214366900D02*
X77434700Y-214366900D01*
X77425500Y-214357700D02*
X77425500Y-214358100D01*
X77458300Y-214390900D02*
X77458700Y-214390900D01*
X77424300Y-214356900D02*
X77424700Y-214356900D01*
X77450300Y-214382500D02*
X77450300Y-214382900D01*
X77477100Y-214409700D02*
X77477500Y-214409700D01*
X77451900Y-214384500D02*
X77452300Y-214384500D01*
X77480700Y-214412900D02*
X77480700Y-214413300D01*
X77482700Y-214414900D02*
X77482700Y-214415300D01*
X77444300Y-214376500D02*
X77444300Y-214376900D01*
X77484700Y-214417300D02*
X77485100Y-214417300D01*
X77436700Y-214369300D02*
X77437100Y-214369300D01*
X77465100Y-214397700D02*
X77465500Y-214397700D01*
X77442300Y-214374900D02*
X77442700Y-214374900D01*
X77431100Y-214363700D02*
X77431500Y-214363700D01*
X77459900Y-214392500D02*
X77460300Y-214392500D01*
X77473500Y-214406100D02*
X77473900Y-214406100D01*
X77478300Y-214410900D02*
X77478700Y-214410900D01*
X77434300Y-214366500D02*
X77434300Y-214366900D01*
X77425100Y-214357300D02*
X77425100Y-214357700D01*
X85844100Y-222777800D02*
X85844000Y-222777900D01*
X77426700Y-214359300D02*
X77427100Y-214359300D01*
X77471500Y-214403700D02*
X77471500Y-214404100D01*
X77437900Y-214370100D02*
X77437900Y-214370500D01*
X77482300Y-214414900D02*
X77482700Y-214414900D01*
X77473900Y-214406500D02*
X77474300Y-214406500D01*
X77462300Y-214394500D02*
X77462300Y-214394900D01*
X77481900Y-214414500D02*
X77482300Y-214414500D01*
X77453100Y-214385700D02*
X77453500Y-214385700D01*
X77460700Y-214392900D02*
X77460700Y-214393300D01*
X77423500Y-214356100D02*
X77423900Y-214356100D01*
X77459500Y-214391700D02*
X77459500Y-214392100D01*
X77426700Y-214358900D02*
X77426700Y-214359300D01*
X77430700Y-214362900D02*
X77430700Y-214363300D01*
X77445100Y-214377300D02*
X77445100Y-214377700D01*
X77472300Y-214404500D02*
X77472300Y-214404900D01*
X77461900Y-214394100D02*
X77461900Y-214394500D01*
X77423900Y-214356500D02*
X77424300Y-214356500D01*
X77432700Y-214365300D02*
X77433100Y-214365300D01*
X77457900Y-214390500D02*
X77458300Y-214390500D01*
X77480300Y-214412500D02*
X77480300Y-214412900D01*
X77469500Y-214401700D02*
X77469500Y-214402100D01*
X77429900Y-214362100D02*
X77429900Y-214362500D01*
X77457100Y-214389700D02*
X77457500Y-214389700D01*
X77454700Y-214386900D02*
X77454700Y-214387300D01*
X83140700Y-219253000D02*
X83816200Y-220133800D01*
X77460300Y-214392500D02*
X77460300Y-214392900D01*
X77467500Y-214400100D02*
X77467900Y-214400100D01*
X77463500Y-214396100D02*
X77463900Y-214396100D01*
X77421100Y-214353700D02*
X77421500Y-214353700D01*
X77466700Y-214398900D02*
X77466700Y-214399300D01*
X77483900Y-214416100D02*
X77483900Y-214416500D01*
X77467900Y-214400100D02*
X77467900Y-214400500D01*
X77463900Y-214396500D02*
X77464300Y-214396500D01*
X77425500Y-214358100D02*
X77425900Y-214358100D01*
X77458700Y-214390900D02*
X77458700Y-214391300D01*
X77461100Y-214393300D02*
X77461100Y-214393700D01*
X77437100Y-214369700D02*
X77437500Y-214369700D01*
X77449500Y-214381700D02*
X77449500Y-214382100D01*
X77433100Y-214365700D02*
X77433500Y-214365700D01*
X77487500Y-214420100D02*
X77662700Y-214595300D01*
X77427500Y-214359700D02*
X77427500Y-214360100D01*
X77427900Y-214360100D02*
X77427900Y-214360500D01*
X77479100Y-214411300D02*
X77479100Y-214411700D01*
X77474300Y-214406900D02*
X77474700Y-214406900D01*
X77447100Y-214379300D02*
X77447100Y-214379700D01*
X77425900Y-214358500D02*
X77426300Y-214358500D01*
X77485500Y-214418100D02*
X77485900Y-214418100D01*
X77423500Y-214355700D02*
X77423500Y-214356100D01*
X77469100Y-214401300D02*
X77469100Y-214401700D01*
X83816200Y-220133800D02*
X85844000Y-222777900D01*
X77435100Y-214367300D02*
X77435100Y-214367700D01*
X77421500Y-214353700D02*
X77421500Y-214354100D01*
X77486700Y-214418900D02*
X77486700Y-214419300D01*
X77487500Y-214419700D02*
X77487500Y-214420100D01*
X77453500Y-214386100D02*
X77453900Y-214386100D01*
X77475500Y-214407700D02*
X77475500Y-214408100D01*
X77465900Y-214398100D02*
X77465900Y-214398500D01*
X77469100Y-214401700D02*
X77469500Y-214401700D01*
X77427100Y-214359300D02*
X77427100Y-214359700D01*
X77456300Y-214388900D02*
X77456700Y-214388900D01*
X77433500Y-214366100D02*
X77433900Y-214366100D01*
X77453900Y-214386500D02*
X77454300Y-214386500D01*
X77428300Y-214360900D02*
X77428700Y-214360900D01*
X77424700Y-214357300D02*
X77425100Y-214357300D01*
X77437500Y-214370100D02*
X77437900Y-214370100D01*
X77434700Y-214366900D02*
X77434700Y-214367300D01*
X77445500Y-214378100D02*
X77445900Y-214378100D01*
X77476300Y-214408900D02*
X77476700Y-214408900D01*
X79875800Y-215078500D02*
X79185800Y-215768500D01*
X77433100Y-214365300D02*
X77433100Y-214365700D01*
X79113200Y-213757600D02*
X77662800Y-214595000D01*
X75449600Y-214112100D02*
X77179500Y-214112100D01*
X77475500Y-214408100D02*
X77475900Y-214408100D01*
X77467900Y-214400500D02*
X77468300Y-214400500D01*
X77440700Y-214373300D02*
X77441100Y-214373300D01*
X77448300Y-214380500D02*
X77448300Y-214380900D01*
X77444300Y-214376900D02*
X77444700Y-214376900D01*
X77443900Y-214376500D02*
X77444300Y-214376500D01*
X77437900Y-214370500D02*
X77438300Y-214370500D01*
X77459100Y-214391700D02*
X77459500Y-214391700D01*
X77441100Y-214373300D02*
X77441100Y-214373700D01*
X77471100Y-214403700D02*
X77471500Y-214403700D01*
X83140700Y-219458300D02*
X83140700Y-219253300D01*
X77452700Y-214384900D02*
X77452700Y-214385300D01*
X77447500Y-214380100D02*
X77447900Y-214380100D01*
X77468700Y-214400900D02*
X77468700Y-214401300D01*
X77421900Y-214354500D02*
X77422300Y-214354500D01*
X77481900Y-214414100D02*
X77481900Y-214414500D01*
X77478700Y-214411300D02*
X77479100Y-214411300D01*
X77459900Y-214392100D02*
X77459900Y-214392500D01*
X78350800Y-212437100D02*
X79113200Y-213199500D01*
X77461500Y-214394100D02*
X77461900Y-214394100D01*
X77441500Y-214374100D02*
X77441900Y-214374100D01*
X77479500Y-214411700D02*
X77479500Y-214412100D01*
X77428700Y-214361300D02*
X77429100Y-214361300D01*
X77486700Y-214419300D02*
X77487100Y-214419300D01*
X77429100Y-214361700D02*
X77429500Y-214361700D01*
X77475100Y-214407300D02*
X77475100Y-214407700D01*
X77439900Y-214372500D02*
X77440300Y-214372500D01*
X77459100Y-214391300D02*
X77459100Y-214391700D01*
X77468300Y-214400500D02*
X77468300Y-214400900D01*
X77461100Y-214393700D02*
X77461500Y-214393700D01*
X77457500Y-214389700D02*
X77457500Y-214390100D01*
X77423100Y-214355300D02*
X77423100Y-214355700D01*
X77454300Y-214386900D02*
X77454700Y-214386900D01*
X77455500Y-214387700D02*
X77455500Y-214388100D01*
X77482300Y-214414500D02*
X77482300Y-214414900D01*
X77466700Y-214399300D02*
X77467100Y-214399300D01*
X77436300Y-214368500D02*
X77436300Y-214368900D01*
X77432300Y-214364900D02*
X77432700Y-214364900D01*
X85450000Y-210215000D02*
X83118700Y-211445000D01*
X77436700Y-214368900D02*
X77436700Y-214369300D01*
X77474700Y-214406900D02*
X77474700Y-214407300D01*
X77435500Y-214368100D02*
X77435900Y-214368100D01*
X77429500Y-214361700D02*
X77429500Y-214362100D01*
X77477900Y-214410500D02*
X77478300Y-214410500D01*
X77444700Y-214376900D02*
X77444700Y-214377300D01*
X77443500Y-214376100D02*
X77443900Y-214376100D01*
X77441500Y-214373700D02*
X77441500Y-214374100D01*
X77482700Y-214415300D02*
X77483100Y-214415300D01*
X77446700Y-214379300D02*
X77447100Y-214379300D01*
X77433900Y-214366100D02*
X77433900Y-214366500D01*
X77477900Y-214410100D02*
X77477900Y-214410500D01*
X77462700Y-214395300D02*
X77463100Y-214395300D01*
X77435100Y-214367700D02*
X77435500Y-214367700D01*
X77445100Y-214377700D02*
X77445500Y-214377700D01*
X77467500Y-214399700D02*
X77467500Y-214400100D01*
X77451100Y-214383700D02*
X77451500Y-214383700D01*
X77451500Y-214384100D02*
X77451900Y-214384100D01*
X77439900Y-214372100D02*
X77439900Y-214372500D01*
X77468700Y-214401300D02*
X77469100Y-214401300D01*
X77463100Y-214395300D02*
X77463100Y-214395700D01*
X77455500Y-214388100D02*
X77455900Y-214388100D01*
X77427900Y-214360500D02*
X77428300Y-214360500D01*
X77443100Y-214375700D02*
X77443500Y-214375700D01*
X77465500Y-214398100D02*
X77465900Y-214398100D01*
X77474300Y-214406500D02*
X77474300Y-214406900D01*
X77430300Y-214362500D02*
X77430300Y-214362900D01*
X83816200Y-220133800D02*
X83140700Y-219458300D01*
X77463100Y-214395700D02*
X77463500Y-214395700D01*
X77439500Y-214372100D02*
X77439900Y-214372100D01*
X77458300Y-214390500D02*
X77458300Y-214390900D01*
X77449900Y-214382100D02*
X77449900Y-214382500D01*
X77421500Y-214354100D02*
X77421900Y-214354100D01*
%TO.N,/Panel Headers/POW.5V_HDR_9*%
X114184000Y-251802000D02*
X118565000Y-244838000D01*
X108788100Y-260776100D02*
X108788100Y-260422400D01*
X116549000Y-261029000D02*
X116549400Y-261029200D01*
X111442500Y-259238100D02*
X111442500Y-260094100D01*
X111442500Y-260094000D02*
X116549000Y-261029000D01*
X108993000Y-257521200D02*
X109551100Y-257521200D01*
X116549300Y-261029300D02*
X116549400Y-261029200D01*
X108788100Y-260422400D02*
X109476000Y-259734500D01*
X109476000Y-259734000D02*
X111442500Y-260094000D01*
X112626000Y-254278000D02*
X112625900Y-254278100D01*
X109476000Y-259734300D02*
X109476200Y-259734300D01*
X113910000Y-252238000D02*
X112626000Y-254278000D01*
X110313400Y-258283500D02*
X109476000Y-259734000D01*
X109476000Y-259734300D02*
X109476000Y-259734000D01*
X114184000Y-251802000D02*
X113910000Y-252238000D01*
X112626100Y-254278300D02*
X112625900Y-254278100D01*
X107318000Y-260422400D02*
X108788100Y-260422400D01*
X109959400Y-261947400D02*
X108788100Y-260776100D01*
X116549400Y-261029200D02*
X120652800Y-262729900D01*
X120652800Y-262729900D02*
X120653000Y-262730000D01*
X112625900Y-254278100D02*
X110313400Y-258283500D01*
X109551100Y-257521200D02*
X110313400Y-258283500D01*
X112626200Y-254278300D02*
X112626100Y-254278300D01*
X111634400Y-259046200D02*
X111442500Y-259238100D01*
X109476000Y-259734500D02*
X109476000Y-259734300D01*
X111442500Y-260094100D02*
X111442500Y-260094000D01*
X118565100Y-244837900D02*
X118565000Y-244838000D01*
%TO.N,/Panel Headers/POW.5V_HDR_10*%
X159597000Y-276619000D02*
X159597000Y-280625500D01*
X161058200Y-284530200D02*
X161058200Y-282398000D01*
X161058200Y-282398000D02*
X162519300Y-281877000D01*
X159597000Y-282919000D02*
X161058200Y-282398000D01*
X159725000Y-273253000D02*
X159702000Y-273863000D01*
X161755000Y-281877000D02*
X161122000Y-281244000D01*
X158072000Y-284594000D02*
X159597000Y-283069000D01*
X159597000Y-276619000D02*
X159702000Y-273863000D01*
X158690500Y-280625500D02*
X158072000Y-281244000D01*
X159597000Y-283069000D02*
X159597000Y-282919000D01*
X162519300Y-281877000D02*
X161755000Y-281877000D01*
X159597000Y-280625500D02*
X159597000Y-282919000D01*
X166370000Y-280504000D02*
X170774000Y-279925000D01*
X160020000Y-265474000D02*
X159725000Y-273253000D01*
X159597000Y-280625500D02*
X158690500Y-280625500D01*
X161122000Y-284594000D02*
X161058200Y-284530200D01*
X162519300Y-281877000D02*
X166370000Y-280504000D01*
%TO.N,/Panel Headers/POW.5V_HDR_11*%
X211445200Y-272481400D02*
X211445000Y-272481000D01*
X214595300Y-277937300D02*
X214595000Y-277937000D01*
X212995300Y-277249200D02*
X213757700Y-276486800D01*
X215460300Y-278802300D02*
X215460300Y-278802200D01*
X219253000Y-272459000D02*
X215889900Y-276414100D01*
X215078500Y-275724200D02*
X215200000Y-275724200D01*
X215460300Y-278802200D02*
X214595300Y-277937300D01*
X222777800Y-269755900D02*
X222777900Y-269756000D01*
X214112100Y-280150400D02*
X215460300Y-278802200D01*
X222778000Y-269756000D02*
X222777900Y-269756100D01*
X211445300Y-272481300D02*
X211445200Y-272481400D01*
X222777900Y-269756100D02*
X219253000Y-272459000D01*
X212437100Y-277249200D02*
X212995300Y-277249200D01*
X215200000Y-275724200D02*
X215889900Y-276414100D01*
X219253300Y-272459300D02*
X219253000Y-272459000D01*
X222777900Y-269756000D02*
X222777900Y-269756100D01*
X215889900Y-276414100D02*
X214595000Y-277937000D01*
X206239100Y-262617900D02*
X206239000Y-262618000D01*
X213757700Y-276486800D02*
X211445200Y-272481400D01*
X216753500Y-278625400D02*
X216576600Y-278802300D01*
X214595000Y-277937000D02*
X213757700Y-276486800D01*
X216576600Y-278802300D02*
X215460300Y-278802300D01*
X209952000Y-269651000D02*
X206239000Y-262618000D01*
%TO.N,/Panel Headers/POW.5V_HDR_12*%
X259046200Y-243965600D02*
X259902200Y-243965600D01*
X254278300Y-242973800D02*
X254278200Y-242973800D01*
X259914000Y-245140700D02*
X259734000Y-246124000D01*
X257521200Y-246607000D02*
X258283500Y-245844700D01*
X251708000Y-241357000D02*
X244838000Y-237035000D01*
X262729900Y-235044200D02*
X262661300Y-235112800D01*
X259734300Y-246123800D02*
X259734100Y-246124000D01*
X260094000Y-244157500D02*
X259914000Y-245140700D01*
X260094100Y-244157500D02*
X260094000Y-244157500D01*
X260422400Y-248282000D02*
X259734100Y-247593700D01*
X262730000Y-234947000D02*
X262661300Y-235112800D01*
X258283500Y-245286600D02*
X254278000Y-242974000D01*
X262729900Y-234947200D02*
X262729900Y-235044200D01*
X259734100Y-247593700D02*
X259734100Y-246124000D01*
X259734000Y-246124000D02*
X258283500Y-245286600D01*
X260413900Y-245640600D02*
X259914000Y-245140700D01*
X261029300Y-239050700D02*
X261029200Y-239050600D01*
X259734100Y-246124000D02*
X259734000Y-246124000D01*
X254278000Y-242974000D02*
X251708000Y-241357000D01*
X262661300Y-235112800D02*
X261029200Y-239050600D01*
X261029200Y-239050600D02*
X261029000Y-239051000D01*
X259902200Y-243965600D02*
X260094100Y-244157500D01*
X258283500Y-245844700D02*
X258283500Y-245286600D01*
X261947400Y-245640600D02*
X260413900Y-245640600D01*
X261029000Y-239051000D02*
X260094000Y-244157500D01*
X244837900Y-237034900D02*
X244838000Y-237035000D01*
X254278200Y-242973800D02*
X254278000Y-242974000D01*
D100*
%TO.N,/Level Shifters/PAN5V.RESET*%
X294132000Y-209460000D02*
X283718000Y-219874000D01*
X294132000Y-172466000D02*
X294132000Y-209460000D01*
%TO.N,/Level Shifters/PAN3V.RESET*%
X277993000Y-219874000D02*
X277814000Y-219695000D01*
X277814000Y-219695000D02*
X267362200Y-219695000D01*
X267362200Y-219695000D02*
X261623600Y-225433600D01*
%TO.N,/Level Shifters/PAN3V.SCK_0*%
X275132800Y-221792800D02*
X275653900Y-221271700D01*
X273913600Y-221792800D02*
X275132800Y-221792800D01*
X277895300Y-221271700D02*
X277993000Y-221174000D01*
X275653900Y-221271700D02*
X277895300Y-221271700D01*
%TO.N,/Level Shifters/PAN3V.MOSI_0*%
X276073400Y-221824000D02*
X277993000Y-221824000D01*
X275666400Y-222231000D02*
X276073400Y-221824000D01*
%TO.N,/Level Shifters/PAN3V.MISO_0*%
X275934800Y-223254500D02*
X276715300Y-222474000D01*
X272248900Y-224463800D02*
X273458200Y-223254500D01*
X273458200Y-223254500D02*
X275934800Y-223254500D01*
X276715300Y-222474000D02*
X277993000Y-222474000D01*
%TO.N,/Level Shifters/PAN3V.SCK_1*%
X270460700Y-225381300D02*
X273303900Y-225381300D01*
X273303900Y-225381300D02*
X274911200Y-223774000D01*
X274911200Y-223774000D02*
X277993000Y-223774000D01*
%TO.N,/Level Shifters/PAN3V.MOSI_1*%
X271359800Y-238253700D02*
X274138500Y-235475000D01*
X277120200Y-224424000D02*
X277993000Y-224424000D01*
X271359800Y-249340200D02*
X271359800Y-238253700D01*
X259715000Y-260985000D02*
X271359800Y-249340200D01*
X275664400Y-225879800D02*
X277120200Y-224424000D01*
%TO.N,/Level Shifters/PAN3V.MISO_1*%
X279751300Y-225074000D02*
X277993000Y-225074000D01*
X297815000Y-260985000D02*
X297815000Y-260359400D01*
X279883200Y-225205900D02*
X279751300Y-225074000D01*
X297815000Y-260359400D02*
X283318100Y-245862500D01*
%TO.N,/Level Shifters/PAN3V.CS_00*%
X281597000Y-243644300D02*
X281597000Y-241380600D01*
X283874300Y-245085700D02*
X283038400Y-245085700D01*
X281597000Y-241380600D02*
X278631200Y-238414800D01*
X283038400Y-245085700D02*
X281597000Y-243644300D01*
X300355000Y-260985000D02*
X299773600Y-260985000D01*
X299773600Y-260985000D02*
X283874300Y-245085700D01*
X278631200Y-238414800D02*
X277878400Y-238414800D01*
%TO.N,/Level Shifters/PAN3V.CS_01*%
X278724800Y-239714800D02*
X277878400Y-239714800D01*
X295275000Y-260985000D02*
X295275000Y-258867000D01*
X280981400Y-244573400D02*
X280981400Y-241971400D01*
X280981400Y-241971400D02*
X278724800Y-239714800D01*
X295275000Y-258867000D02*
X280981400Y-244573400D01*
%TO.N,/Level Shifters/PAN3V.CS_02*%
X280479400Y-245427400D02*
X280479400Y-242217300D01*
X292735000Y-260985000D02*
X292735000Y-257683000D01*
X292735000Y-257683000D02*
X280479400Y-245427400D01*
X280479400Y-242217300D02*
X278626900Y-240364800D01*
X278626900Y-240364800D02*
X277878400Y-240364800D01*
%TO.N,/Level Shifters/PAN3V.CS_03*%
X275325200Y-249465500D02*
X275325200Y-242635000D01*
X290195000Y-260985000D02*
X289037900Y-262142100D01*
X287096100Y-262142100D02*
X286266900Y-261312900D01*
X289037900Y-262142100D02*
X287096100Y-262142100D01*
X286266900Y-261312900D02*
X286266900Y-260407200D01*
X276945400Y-241014800D02*
X277878400Y-241014800D01*
X286266900Y-260407200D02*
X275325200Y-249465500D01*
X275325200Y-242635000D02*
X276945400Y-241014800D01*
%TO.N,/Level Shifters/PAN3V.CS_04*%
X287655000Y-260985000D02*
X275847800Y-249177800D01*
X277079700Y-241664800D02*
X277878400Y-241664800D01*
X275847800Y-242896700D02*
X277079700Y-241664800D01*
X275847800Y-249177800D02*
X275847800Y-242896700D01*
%TO.N,/Level Shifters/PAN3V.CS_05*%
X277878400Y-242314800D02*
X278756900Y-242314800D01*
X279977500Y-243535400D02*
X279977500Y-246386700D01*
X285726400Y-252135600D02*
X285726400Y-254850200D01*
X278756900Y-242314800D02*
X279977500Y-243535400D01*
X279977500Y-246386700D02*
X285726400Y-252135600D01*
%TO.N,/Level Shifters/PAN3V.CS_06*%
X279475600Y-243756300D02*
X278684100Y-242964800D01*
X278684100Y-242964800D02*
X277878400Y-242964800D01*
X280822400Y-248153600D02*
X279475600Y-246806800D01*
X280822400Y-250469400D02*
X280822400Y-248153600D01*
X279475600Y-246806800D02*
X279475600Y-243756300D01*
%TO.N,/Level Shifters/PAN3V.CS_07*%
X278973700Y-243982900D02*
X278973700Y-250438500D01*
X278973700Y-243982900D02*
X278605600Y-243614800D01*
X278973700Y-250438500D02*
X278968200Y-250444000D01*
X278605600Y-243614800D02*
X277878400Y-243614800D01*
%TO.N,/Level Shifters/PAN3V.CS_08*%
X249544800Y-294543700D02*
X233603200Y-294543700D01*
X273685000Y-278993400D02*
X273685000Y-264795000D01*
X262940800Y-288696400D02*
X255392100Y-288696400D01*
X233603200Y-294543700D02*
X233402100Y-294342600D01*
X273685000Y-264795000D02*
X277495000Y-260985000D01*
X270332100Y-282346300D02*
X273685000Y-278993400D01*
X255392100Y-288696400D02*
X249544800Y-294543700D01*
%TO.N,/Level Shifters/PAN3V.CS_09*%
X262128000Y-281279600D02*
X261745600Y-281279600D01*
X250384000Y-292641200D02*
X235343500Y-292641200D01*
X235343500Y-292641200D02*
X234942100Y-293042600D01*
X261745600Y-281279600D02*
X250384000Y-292641200D01*
X268422500Y-267517500D02*
X266013100Y-267517500D01*
X234942100Y-293042600D02*
X233402100Y-293042600D01*
X274955000Y-260985000D02*
X268422500Y-267517500D01*
%TO.N,/Level Shifters/PAN3V.CS_10*%
X234642100Y-292392600D02*
X233402100Y-292392600D01*
X261841700Y-279483100D02*
X249434100Y-291890700D01*
X235144000Y-291890700D02*
X234642100Y-292392600D01*
X249434100Y-291890700D02*
X235144000Y-291890700D01*
%TO.N,/Level Shifters/PAN3V.CS_11*%
X234582400Y-291742600D02*
X233402100Y-291742600D01*
X234936200Y-291388800D02*
X234582400Y-291742600D01*
X248589800Y-291388800D02*
X234936200Y-291388800D01*
X259359400Y-280619200D02*
X248589800Y-291388800D01*
X259359400Y-279400000D02*
X259359400Y-280619200D01*
%TO.N,/Level Shifters/PAN3V.CS_12*%
X234129300Y-291092600D02*
X234373600Y-290848300D01*
X233402100Y-291092600D02*
X234129300Y-291092600D01*
X242879100Y-290848300D02*
X253444500Y-280282900D01*
X234373600Y-290848300D02*
X242879100Y-290848300D01*
%TO.N,/Level Shifters/PAN3V.CS_13*%
X240825300Y-290344900D02*
X233499800Y-290344900D01*
X250887300Y-280282900D02*
X240825300Y-290344900D01*
X233499800Y-290344900D02*
X233402100Y-290442600D01*
%TO.N,/Level Shifters/PAN3V.CS_14*%
X249555000Y-260985000D02*
X247459500Y-263080500D01*
X245746500Y-280516300D02*
X236470200Y-289792600D01*
X236470200Y-289792600D02*
X233402100Y-289792600D01*
%TO.N,/Level Shifters/PAN3V.CS_15*%
X242122200Y-282134000D02*
X242122200Y-280507400D01*
X233402100Y-289142600D02*
X235113600Y-289142600D01*
X235113600Y-289142600D02*
X242122200Y-282134000D01*
%TO.N,/Level Shifters/PAN3V.CS_16*%
X244475000Y-260985000D02*
X244475000Y-261874000D01*
X244475000Y-261874000D02*
X254912800Y-272311800D01*
X267899600Y-292112800D02*
X270078600Y-294291800D01*
X270078600Y-294291800D02*
X270845100Y-294291800D01*
X259971100Y-272311800D02*
X263525000Y-275865700D01*
X267397800Y-281458800D02*
X267899600Y-281960600D01*
X263525000Y-275865700D02*
X263525000Y-277114000D01*
X263786000Y-277375000D02*
X265157600Y-277375000D01*
X267397800Y-279615200D02*
X267397800Y-281458800D01*
X265157600Y-277375000D02*
X267397800Y-279615200D01*
X254912800Y-272311800D02*
X259971100Y-272311800D01*
X267899600Y-281960600D02*
X267899600Y-292112800D01*
X263525000Y-277114000D02*
X263786000Y-277375000D01*
%TO.N,/Level Shifters/PAN3V.CS_17*%
X270845100Y-292991800D02*
X271572300Y-292991800D01*
X271572300Y-292991800D02*
X271720400Y-292843700D01*
X284076300Y-281759500D02*
X289740500Y-281759500D01*
X272992100Y-292843700D02*
X284076300Y-281759500D01*
X289740500Y-281759500D02*
X295275000Y-276225000D01*
X271720400Y-292843700D02*
X272992100Y-292843700D01*
%TO.N,/Level Shifters/PAN3V.CS_18*%
X287952500Y-281007500D02*
X283466163Y-281007500D01*
X283466163Y-281007500D02*
X272131863Y-292341800D01*
X272131863Y-292341800D02*
X270845100Y-292341800D01*
X292735000Y-276225000D02*
X287952500Y-281007500D01*
%TO.N,/Level Shifters/PAN3V.CS_19*%
X275310600Y-287578800D02*
X284457400Y-278432000D01*
X287988000Y-278432000D02*
X290195000Y-276225000D01*
X275310600Y-288455957D02*
X275310600Y-287578800D01*
X272074757Y-291691800D02*
X275310600Y-288455957D01*
X270845100Y-291691800D02*
X272074757Y-291691800D01*
X284457400Y-278432000D02*
X287988000Y-278432000D01*
%TO.N,/Level Shifters/PAN3V.CS_20*%
X283918200Y-277625000D02*
X286255000Y-277625000D01*
X274523200Y-287020000D02*
X283918200Y-277625000D01*
X272017651Y-291041800D02*
X274523200Y-288536251D01*
X274523200Y-288536251D02*
X274523200Y-287020000D01*
X270845100Y-291041800D02*
X272017651Y-291041800D01*
X286255000Y-277625000D02*
X287655000Y-276225000D01*
%TO.N,/Level Shifters/PAN3V.CS_21*%
X273888200Y-286766000D02*
X273888200Y-288464145D01*
X280035000Y-280619200D02*
X273888200Y-286766000D01*
X273888200Y-288464145D02*
X271960545Y-290391800D01*
X271960545Y-290391800D02*
X270845100Y-290391800D01*
X280035000Y-276225000D02*
X280035000Y-280619200D01*
%TO.N,/Level Shifters/PAN3V.CS_22*%
X277495000Y-280593800D02*
X273126200Y-284962600D01*
X271903439Y-289741800D02*
X270845100Y-289741800D01*
X277495000Y-276225000D02*
X277495000Y-280593800D01*
X273126200Y-288519039D02*
X271903439Y-289741800D01*
X273126200Y-284962600D02*
X273126200Y-288519039D01*
%TO.N,/Level Shifters/PAN3V.CS_23*%
X268401600Y-287376800D02*
X270116600Y-289091800D01*
X270116600Y-289091800D02*
X270845100Y-289091800D01*
X268076500Y-281074200D02*
X268401600Y-281399300D01*
X264795000Y-276225000D02*
X268076500Y-279506500D01*
X268401600Y-281399300D02*
X268401600Y-287376800D01*
X268076500Y-279506500D02*
X268076500Y-281074200D01*
%TO.N,/Level Shifters/PAN3V.CS_24*%
X228763400Y-284671400D02*
X227083400Y-284671400D01*
X189645400Y-294502000D02*
X189364200Y-294220800D01*
X227083400Y-284671400D02*
X217252800Y-294502000D01*
X233994200Y-279440600D02*
X228763400Y-284671400D01*
X261664700Y-278052500D02*
X258241200Y-278052500D01*
X258241200Y-278052500D02*
X256853100Y-279440600D01*
X256853100Y-279440600D02*
X233994200Y-279440600D01*
X217252800Y-294502000D02*
X189645400Y-294502000D01*
%TO.N,/Level Shifters/PAN3V.CS_25*%
X217308500Y-292774300D02*
X231157300Y-278925500D01*
X256304900Y-278925500D02*
X259005400Y-276225000D01*
X190532100Y-292823100D02*
X190580900Y-292774300D01*
X189461900Y-292823100D02*
X190532100Y-292823100D01*
X259005400Y-276225000D02*
X259715000Y-276225000D01*
X231157300Y-278925500D02*
X256304900Y-278925500D01*
X189364200Y-292920800D02*
X189461900Y-292823100D01*
X190580900Y-292774300D02*
X217308500Y-292774300D01*
%TO.N,/Level Shifters/PAN3V.CS_26*%
X255359600Y-278423500D02*
X257175000Y-276608100D01*
X217068400Y-291973000D02*
X230617900Y-278423500D01*
X189364200Y-292270800D02*
X191218200Y-292270800D01*
X257175000Y-276608100D02*
X257175000Y-276225000D01*
X191218200Y-292270800D02*
X191516000Y-291973000D01*
X191516000Y-291973000D02*
X217068400Y-291973000D01*
X230617900Y-278423500D02*
X255359600Y-278423500D01*
%TO.N,/Level Shifters/PAN3V.CS_27*%
X230192800Y-277883400D02*
X252976600Y-277883400D01*
X191490600Y-291160200D02*
X216916000Y-291160200D01*
X216916000Y-291160200D02*
X230192800Y-277883400D01*
X191030000Y-291620800D02*
X191490600Y-291160200D01*
X252976600Y-277883400D02*
X254635000Y-276225000D01*
X189364200Y-291620800D02*
X191030000Y-291620800D01*
%TO.N,/Level Shifters/PAN3V.CS_28*%
X215359600Y-287712800D02*
X188611700Y-287712800D01*
X188253000Y-288071500D02*
X188253000Y-290607400D01*
X242266300Y-275073100D02*
X241146000Y-276193400D01*
X226879000Y-276193400D02*
X215359600Y-287712800D01*
X241146000Y-276193400D02*
X226879000Y-276193400D01*
X188611700Y-287712800D02*
X188253000Y-288071500D01*
X188616400Y-290970800D02*
X189364200Y-290970800D01*
X252095000Y-276225000D02*
X250943100Y-275073100D01*
X250943100Y-275073100D02*
X242266300Y-275073100D01*
X188253000Y-290607400D02*
X188616400Y-290970800D01*
%TO.N,/Level Shifters/PAN3V.CS_29*%
X248401600Y-277378400D02*
X227621261Y-277378400D01*
X215012200Y-290320800D02*
X189364200Y-290320800D01*
X227621261Y-277378400D02*
X226853700Y-278145961D01*
X249555000Y-276225000D02*
X248401600Y-277378400D01*
X226853700Y-278145961D02*
X226853700Y-278479300D01*
X226853700Y-278479300D02*
X215012200Y-290320800D01*
%TO.N,/Level Shifters/PAN3V.EXT_INT*%
X189460500Y-289117100D02*
X189364200Y-289020800D01*
X244004700Y-276695300D02*
X227570900Y-276695300D01*
X215149100Y-289117100D02*
X189460500Y-289117100D01*
X244475000Y-276225000D02*
X244004700Y-276695300D01*
X227570900Y-276695300D02*
X215149100Y-289117100D01*
%TO.N,/Panel Headers/RESET*%
X216484200Y-250418600D02*
X221742000Y-245160800D01*
X166292000Y-266666000D02*
X165100000Y-265474000D01*
X232635500Y-109606200D02*
X232635500Y-104975100D01*
X259643200Y-145396200D02*
X260077900Y-144961500D01*
X170644400Y-266666000D02*
X166292000Y-266666000D01*
X280296900Y-175677100D02*
X265909800Y-161290000D01*
X252977300Y-130611400D02*
X251980900Y-130611400D01*
X108222100Y-122964500D02*
X108943900Y-122964500D01*
X192225000Y-91851000D02*
X190500000Y-90126000D01*
X122964500Y-247377900D02*
X122964500Y-250167700D01*
X210210900Y-259650300D02*
X206515900Y-259650300D01*
X121956500Y-109951900D02*
X121956500Y-108799300D01*
X260077900Y-137712000D02*
X252977300Y-130611400D01*
X260077900Y-144961500D02*
X260077900Y-137712000D01*
X181887100Y-95834200D02*
X182199200Y-95522100D01*
X259643200Y-155818600D02*
X259643200Y-145396200D01*
X210638500Y-260077900D02*
X210210900Y-259650300D01*
X145273600Y-95834200D02*
X181887100Y-95834200D01*
X197528500Y-91851000D02*
X192225000Y-91851000D01*
X265114600Y-161290000D02*
X259643200Y-155818600D01*
X214503000Y-250418600D02*
X216484200Y-250418600D01*
X265474000Y-190500000D02*
X280296900Y-175677100D01*
X250704000Y-130780100D02*
X245728600Y-125804700D01*
X122964500Y-250167700D02*
X136804400Y-264007600D01*
X171450000Y-265860400D02*
X170644400Y-266666000D01*
X245728600Y-122699300D02*
X232635500Y-109606200D01*
X144961500Y-95522100D02*
X145273600Y-95834200D01*
X216484200Y-88823800D02*
X200555700Y-88823800D01*
X136804400Y-264007600D02*
X163633600Y-264007600D01*
X206515900Y-259650300D02*
X202946000Y-263220200D01*
X228184500Y-245160800D02*
X240709800Y-232635500D01*
X251812200Y-130780100D02*
X250704000Y-130780100D01*
X245728600Y-125804700D02*
X245728600Y-122699300D01*
X240709800Y-232635500D02*
X247377900Y-232635500D01*
X130639500Y-95522100D02*
X144961500Y-95522100D01*
X200555700Y-88823800D02*
X197528500Y-91851000D01*
X232635500Y-104975100D02*
X216484200Y-88823800D01*
X121310400Y-104851200D02*
X130639500Y-95522100D01*
X202946000Y-263220200D02*
X173326300Y-263220200D01*
X288772600Y-169164000D02*
X282259500Y-175677100D01*
X121310400Y-108153200D02*
X121310400Y-104851200D01*
X108943900Y-122964500D02*
X121956500Y-109951900D01*
X113751834Y-227751166D02*
X113751834Y-227747034D01*
X290068000Y-169164000D02*
X288772600Y-169164000D01*
X282259500Y-175677100D02*
X280296900Y-175677100D01*
X251980900Y-130611400D02*
X251812200Y-130780100D01*
X121956500Y-108799300D02*
X121310400Y-108153200D01*
X171450000Y-265096500D02*
X171450000Y-265860400D01*
X113751834Y-227747034D02*
X96643300Y-210638500D01*
X173326300Y-263220200D02*
X171450000Y-265096500D01*
X221742000Y-245160800D02*
X228184500Y-245160800D01*
X265909800Y-161290000D02*
X265114600Y-161290000D01*
X163633600Y-264007600D02*
X165100000Y-265474000D01*
X96643300Y-210638500D02*
X95522100Y-210638500D01*
%TD*%
M02*
