%TF.GenerationSoftware,KiCad,Pcbnew,7.0.8-7.0.8~ubuntu22.04.1*%
%TF.CreationDate,2024-02-09T20:45:54-08:00*%
%TF.ProjectId,teensy_arena_12-12,7465656e-7379-45f6-9172-656e615f3132,rev?*%
%TF.SameCoordinates,Original*%
%TF.FileFunction,Copper,L1,Top*%
%TF.FilePolarity,Positive*%
%FSLAX46Y46*%
G04 Gerber Fmt 4.6, Leading zero omitted, Abs format (unit mm)*
G04 Created by KiCad (PCBNEW 7.0.8-7.0.8~ubuntu22.04.1) date 2024-02-09 20:45:54*
%MOMM*%
%LPD*%
G01*
G04 APERTURE LIST*
G04 Aperture macros list*
%AMRoundRect*
0 Rectangle with rounded corners*
0 $1 Rounding radius*
0 $2 $3 $4 $5 $6 $7 $8 $9 X,Y pos of 4 corners*
0 Add a 4 corners polygon primitive as box body*
4,1,4,$2,$3,$4,$5,$6,$7,$8,$9,$2,$3,0*
0 Add four circle primitives for the rounded corners*
1,1,$1+$1,$2,$3*
1,1,$1+$1,$4,$5*
1,1,$1+$1,$6,$7*
1,1,$1+$1,$8,$9*
0 Add four rect primitives between the rounded corners*
20,1,$1+$1,$2,$3,$4,$5,0*
20,1,$1+$1,$4,$5,$6,$7,0*
20,1,$1+$1,$6,$7,$8,$9,0*
20,1,$1+$1,$8,$9,$2,$3,0*%
%AMRotRect*
0 Rectangle, with rotation*
0 The origin of the aperture is its center*
0 $1 length*
0 $2 width*
0 $3 Rotation angle, in degrees counterclockwise*
0 Add horizontal line*
21,1,$1,$2,0,0,$3*%
G04 Aperture macros list end*
%TA.AperFunction,SMDPad,CuDef*%
%ADD10RoundRect,0.250000X1.184327X-0.048686X-0.634327X1.001314X-1.184327X0.048686X0.634327X-1.001314X0*%
%TD*%
%TA.AperFunction,SMDPad,CuDef*%
%ADD11RoundRect,0.250000X0.625000X-0.312500X0.625000X0.312500X-0.625000X0.312500X-0.625000X-0.312500X0*%
%TD*%
%TA.AperFunction,SMDPad,CuDef*%
%ADD12RoundRect,0.375000X-0.375000X0.875000X-0.375000X-0.875000X0.375000X-0.875000X0.375000X0.875000X0*%
%TD*%
%TA.AperFunction,SMDPad,CuDef*%
%ADD13RoundRect,0.175000X-3.325000X3.325000X-3.325000X-3.325000X3.325000X-3.325000X3.325000X3.325000X0*%
%TD*%
%TA.AperFunction,SMDPad,CuDef*%
%ADD14RoundRect,0.250000X0.385016X-0.583133X0.697516X-0.041867X-0.385016X0.583133X-0.697516X0.041867X0*%
%TD*%
%TA.AperFunction,SMDPad,CuDef*%
%ADD15RoundRect,0.250000X0.041867X-0.697516X0.583133X-0.385016X-0.041867X0.697516X-0.583133X0.385016X0*%
%TD*%
%TA.AperFunction,SMDPad,CuDef*%
%ADD16RoundRect,0.225000X0.225000X0.250000X-0.225000X0.250000X-0.225000X-0.250000X0.225000X-0.250000X0*%
%TD*%
%TA.AperFunction,ComponentPad*%
%ADD17C,9.000000*%
%TD*%
%TA.AperFunction,ComponentPad*%
%ADD18R,1.600000X1.600000*%
%TD*%
%TA.AperFunction,ComponentPad*%
%ADD19C,1.600000*%
%TD*%
%TA.AperFunction,ComponentPad*%
%ADD20RotRect,1.600000X1.600000X60.000000*%
%TD*%
%TA.AperFunction,SMDPad,CuDef*%
%ADD21RoundRect,0.250000X-1.050000X-0.550000X1.050000X-0.550000X1.050000X0.550000X-1.050000X0.550000X0*%
%TD*%
%TA.AperFunction,SMDPad,CuDef*%
%ADD22RoundRect,0.250000X-0.385016X0.583133X-0.697516X0.041867X0.385016X-0.583133X0.697516X-0.041867X0*%
%TD*%
%TA.AperFunction,SMDPad,CuDef*%
%ADD23RoundRect,0.250000X1.001314X-0.634327X-0.048686X1.184327X-1.001314X0.634327X0.048686X-1.184327X0*%
%TD*%
%TA.AperFunction,ComponentPad*%
%ADD24C,2.540000*%
%TD*%
%TA.AperFunction,SMDPad,CuDef*%
%ADD25RoundRect,0.100000X0.637500X0.100000X-0.637500X0.100000X-0.637500X-0.100000X0.637500X-0.100000X0*%
%TD*%
%TA.AperFunction,SMDPad,CuDef*%
%ADD26RoundRect,0.250000X0.048686X1.184327X-1.001314X-0.634327X-0.048686X-1.184327X1.001314X0.634327X0*%
%TD*%
%TA.AperFunction,SMDPad,CuDef*%
%ADD27RoundRect,0.100000X-0.637500X-0.100000X0.637500X-0.100000X0.637500X0.100000X-0.637500X0.100000X0*%
%TD*%
%TA.AperFunction,SMDPad,CuDef*%
%ADD28RoundRect,0.250000X-0.697516X-0.041867X-0.385016X-0.583133X0.697516X0.041867X0.385016X0.583133X0*%
%TD*%
%TA.AperFunction,ComponentPad*%
%ADD29RotRect,1.600000X1.600000X330.000000*%
%TD*%
%TA.AperFunction,SMDPad,CuDef*%
%ADD30RoundRect,0.375000X-0.875000X-0.375000X0.875000X-0.375000X0.875000X0.375000X-0.875000X0.375000X0*%
%TD*%
%TA.AperFunction,SMDPad,CuDef*%
%ADD31RoundRect,0.175000X-3.325000X-3.325000X3.325000X-3.325000X3.325000X3.325000X-3.325000X3.325000X0*%
%TD*%
%TA.AperFunction,ComponentPad*%
%ADD32RotRect,1.600000X1.600000X30.000000*%
%TD*%
%TA.AperFunction,SMDPad,CuDef*%
%ADD33RoundRect,0.250000X0.634327X1.001314X-1.184327X-0.048686X-0.634327X-1.001314X1.184327X0.048686X0*%
%TD*%
%TA.AperFunction,SMDPad,CuDef*%
%ADD34RoundRect,0.250000X-0.041867X0.697516X-0.583133X0.385016X0.041867X-0.697516X0.583133X-0.385016X0*%
%TD*%
%TA.AperFunction,SMDPad,CuDef*%
%ADD35RoundRect,0.225000X-0.225000X-0.250000X0.225000X-0.250000X0.225000X0.250000X-0.225000X0.250000X0*%
%TD*%
%TA.AperFunction,SMDPad,CuDef*%
%ADD36RoundRect,0.150000X0.625000X-0.150000X0.625000X0.150000X-0.625000X0.150000X-0.625000X-0.150000X0*%
%TD*%
%TA.AperFunction,SMDPad,CuDef*%
%ADD37RoundRect,0.250000X0.650000X-0.350000X0.650000X0.350000X-0.650000X0.350000X-0.650000X-0.350000X0*%
%TD*%
%TA.AperFunction,SMDPad,CuDef*%
%ADD38RoundRect,0.250000X-1.184327X0.048686X0.634327X-1.001314X1.184327X-0.048686X-0.634327X1.001314X0*%
%TD*%
%TA.AperFunction,SMDPad,CuDef*%
%ADD39RoundRect,0.250000X0.697516X0.041867X0.385016X0.583133X-0.697516X-0.041867X-0.385016X-0.583133X0*%
%TD*%
%TA.AperFunction,SMDPad,CuDef*%
%ADD40RoundRect,0.250000X-0.634327X-1.001314X1.184327X0.048686X0.634327X1.001314X-1.184327X-0.048686X0*%
%TD*%
%TA.AperFunction,SMDPad,CuDef*%
%ADD41RoundRect,0.375000X-0.762260X0.570272X0.112740X-0.945272X0.762260X-0.570272X-0.112740X0.945272X0*%
%TD*%
%TA.AperFunction,SMDPad,CuDef*%
%ADD42RoundRect,0.175000X-4.542034X1.217034X-1.217034X-4.542034X4.542034X-1.217034X1.217034X4.542034X0*%
%TD*%
%TA.AperFunction,SMDPad,CuDef*%
%ADD43RoundRect,0.375000X0.875000X0.375000X-0.875000X0.375000X-0.875000X-0.375000X0.875000X-0.375000X0*%
%TD*%
%TA.AperFunction,SMDPad,CuDef*%
%ADD44RoundRect,0.175000X3.325000X3.325000X-3.325000X3.325000X-3.325000X-3.325000X3.325000X-3.325000X0*%
%TD*%
%TA.AperFunction,SMDPad,CuDef*%
%ADD45RoundRect,0.375000X-0.112740X-0.945272X0.762260X0.570272X0.112740X0.945272X-0.762260X-0.570272X0*%
%TD*%
%TA.AperFunction,SMDPad,CuDef*%
%ADD46RoundRect,0.175000X1.217034X-4.542034X4.542034X1.217034X-1.217034X4.542034X-4.542034X-1.217034X0*%
%TD*%
%TA.AperFunction,SMDPad,CuDef*%
%ADD47RoundRect,0.150000X0.512500X0.150000X-0.512500X0.150000X-0.512500X-0.150000X0.512500X-0.150000X0*%
%TD*%
%TA.AperFunction,SMDPad,CuDef*%
%ADD48RoundRect,0.250000X-0.550000X1.050000X-0.550000X-1.050000X0.550000X-1.050000X0.550000X1.050000X0*%
%TD*%
%TA.AperFunction,SMDPad,CuDef*%
%ADD49RoundRect,0.375000X0.570272X0.762260X-0.945272X-0.112740X-0.570272X-0.762260X0.945272X0.112740X0*%
%TD*%
%TA.AperFunction,SMDPad,CuDef*%
%ADD50RoundRect,0.175000X1.217034X4.542034X-4.542034X1.217034X-1.217034X-4.542034X4.542034X-1.217034X0*%
%TD*%
%TA.AperFunction,ComponentPad*%
%ADD51C,3.556000*%
%TD*%
%TA.AperFunction,ComponentPad*%
%ADD52C,1.930400*%
%TD*%
%TA.AperFunction,ComponentPad*%
%ADD53C,4.064000*%
%TD*%
%TA.AperFunction,SMDPad,CuDef*%
%ADD54RoundRect,0.375000X0.762260X-0.570272X-0.112740X0.945272X-0.762260X0.570272X0.112740X-0.945272X0*%
%TD*%
%TA.AperFunction,SMDPad,CuDef*%
%ADD55RoundRect,0.175000X4.542034X-1.217034X1.217034X4.542034X-4.542034X1.217034X-1.217034X-4.542034X0*%
%TD*%
%TA.AperFunction,SMDPad,CuDef*%
%ADD56RoundRect,0.250000X-1.001314X0.634327X0.048686X-1.184327X1.001314X-0.634327X-0.048686X1.184327X0*%
%TD*%
%TA.AperFunction,ComponentPad*%
%ADD57RotRect,1.600000X1.600000X210.000000*%
%TD*%
%TA.AperFunction,SMDPad,CuDef*%
%ADD58RoundRect,0.250000X-0.262500X-0.450000X0.262500X-0.450000X0.262500X0.450000X-0.262500X0.450000X0*%
%TD*%
%TA.AperFunction,SMDPad,CuDef*%
%ADD59RoundRect,0.250000X0.583133X0.385016X0.041867X0.697516X-0.583133X-0.385016X-0.041867X-0.697516X0*%
%TD*%
%TA.AperFunction,SMDPad,CuDef*%
%ADD60RoundRect,0.375000X0.945272X-0.112740X-0.570272X0.762260X-0.945272X0.112740X0.570272X-0.762260X0*%
%TD*%
%TA.AperFunction,SMDPad,CuDef*%
%ADD61RoundRect,0.175000X4.542034X1.217034X-1.217034X4.542034X-4.542034X-1.217034X1.217034X-4.542034X0*%
%TD*%
%TA.AperFunction,ComponentPad*%
%ADD62R,1.300000X1.300000*%
%TD*%
%TA.AperFunction,ComponentPad*%
%ADD63C,1.300000*%
%TD*%
%TA.AperFunction,ComponentPad*%
%ADD64RotRect,1.600000X1.600000X240.000000*%
%TD*%
%TA.AperFunction,SMDPad,CuDef*%
%ADD65RoundRect,0.250000X-0.625000X0.312500X-0.625000X-0.312500X0.625000X-0.312500X0.625000X0.312500X0*%
%TD*%
%TA.AperFunction,ComponentPad*%
%ADD66RotRect,1.600000X1.600000X300.000000*%
%TD*%
%TA.AperFunction,SMDPad,CuDef*%
%ADD67RoundRect,0.250000X-0.312500X-0.625000X0.312500X-0.625000X0.312500X0.625000X-0.312500X0.625000X0*%
%TD*%
%TA.AperFunction,SMDPad,CuDef*%
%ADD68RoundRect,0.250000X1.050000X0.550000X-1.050000X0.550000X-1.050000X-0.550000X1.050000X-0.550000X0*%
%TD*%
%TA.AperFunction,SMDPad,CuDef*%
%ADD69RoundRect,0.250000X-0.048686X-1.184327X1.001314X0.634327X0.048686X1.184327X-1.001314X-0.634327X0*%
%TD*%
%TA.AperFunction,SMDPad,CuDef*%
%ADD70RoundRect,0.250000X0.312500X0.625000X-0.312500X0.625000X-0.312500X-0.625000X0.312500X-0.625000X0*%
%TD*%
%TA.AperFunction,SMDPad,CuDef*%
%ADD71RoundRect,0.250000X0.550000X-1.050000X0.550000X1.050000X-0.550000X1.050000X-0.550000X-1.050000X0*%
%TD*%
%TA.AperFunction,SMDPad,CuDef*%
%ADD72RoundRect,0.375000X-0.945272X0.112740X0.570272X-0.762260X0.945272X-0.112740X-0.570272X0.762260X0*%
%TD*%
%TA.AperFunction,SMDPad,CuDef*%
%ADD73RoundRect,0.175000X-4.542034X-1.217034X1.217034X-4.542034X4.542034X1.217034X-1.217034X4.542034X0*%
%TD*%
%TA.AperFunction,ComponentPad*%
%ADD74RotRect,1.600000X1.600000X120.000000*%
%TD*%
%TA.AperFunction,SMDPad,CuDef*%
%ADD75RoundRect,0.250000X-0.583133X-0.385016X-0.041867X-0.697516X0.583133X0.385016X0.041867X0.697516X0*%
%TD*%
%TA.AperFunction,SMDPad,CuDef*%
%ADD76RoundRect,0.375000X0.375000X-0.875000X0.375000X0.875000X-0.375000X0.875000X-0.375000X-0.875000X0*%
%TD*%
%TA.AperFunction,SMDPad,CuDef*%
%ADD77RoundRect,0.175000X3.325000X-3.325000X3.325000X3.325000X-3.325000X3.325000X-3.325000X-3.325000X0*%
%TD*%
%TA.AperFunction,ComponentPad*%
%ADD78RotRect,1.600000X1.600000X150.000000*%
%TD*%
%TA.AperFunction,SMDPad,CuDef*%
%ADD79RoundRect,0.375000X-0.570272X-0.762260X0.945272X0.112740X0.570272X0.762260X-0.945272X-0.112740X0*%
%TD*%
%TA.AperFunction,SMDPad,CuDef*%
%ADD80RoundRect,0.175000X-1.217034X-4.542034X4.542034X-1.217034X1.217034X4.542034X-4.542034X1.217034X0*%
%TD*%
%TA.AperFunction,SMDPad,CuDef*%
%ADD81RoundRect,0.250000X-0.450000X0.262500X-0.450000X-0.262500X0.450000X-0.262500X0.450000X0.262500X0*%
%TD*%
%TA.AperFunction,SMDPad,CuDef*%
%ADD82RoundRect,0.375000X0.112740X0.945272X-0.762260X-0.570272X-0.112740X-0.945272X0.762260X0.570272X0*%
%TD*%
%TA.AperFunction,SMDPad,CuDef*%
%ADD83RoundRect,0.175000X-1.217034X4.542034X-4.542034X-1.217034X1.217034X-4.542034X4.542034X1.217034X0*%
%TD*%
%TA.AperFunction,ViaPad*%
%ADD84C,0.600000*%
%TD*%
%TA.AperFunction,ViaPad*%
%ADD85C,1.800000*%
%TD*%
%TA.AperFunction,ViaPad*%
%ADD86C,1.500000*%
%TD*%
%TA.AperFunction,Conductor*%
%ADD87C,0.300000*%
%TD*%
%TA.AperFunction,Conductor*%
%ADD88C,1.000000*%
%TD*%
G04 APERTURE END LIST*
D10*
%TO.P,C21,1*%
%TO.N,VCC*%
X104438393Y-106657972D03*
%TO.P,C21,2*%
%TO.N,GND*%
X101320701Y-104857972D03*
%TD*%
D11*
%TO.P,R12,1*%
%TO.N,/Panel Headers/POW.5V_HDR_10*%
X170774000Y-279912528D03*
%TO.P,R12,2*%
%TO.N,GND*%
X170774000Y-276987528D03*
%TD*%
D12*
%TO.P,U15,1,GND*%
%TO.N,GND*%
X161897000Y-275109028D03*
D13*
%TO.P,U15,2,VO*%
%TO.N,/Panel Headers/POW.5V_HDR_10*%
X159597000Y-281959028D03*
D12*
%TO.P,U15,3,VI*%
%TO.N,VCC*%
X157297000Y-275109028D03*
%TD*%
D14*
%TO.P,R11,1*%
%TO.N,/Panel Headers/POW.5V_HDR_9*%
X120659041Y-262719043D03*
%TO.P,R11,2*%
%TO.N,GND*%
X122121541Y-260185919D03*
%TD*%
D15*
%TO.P,R10,1*%
%TO.N,/Panel Headers/POW.5V_HDR_8*%
X85854956Y-222771569D03*
%TO.P,R10,2*%
%TO.N,GND*%
X88388080Y-221309069D03*
%TD*%
D16*
%TO.P,C3,1*%
%TO.N,+3.3V*%
X275320000Y-239080000D03*
%TO.P,C3,2*%
%TO.N,GND*%
X273770000Y-239080000D03*
%TD*%
D17*
%TO.P,H1,1,1*%
%TO.N,GND*%
X63500000Y-63500000D03*
%TD*%
D18*
%TO.P,P10,1*%
%TO.N,/Panel Headers/POW.5V_HDR_10*%
X160019999Y-265474028D03*
D19*
%TO.P,P10,2*%
%TO.N,GND*%
X162559999Y-265474028D03*
%TO.P,P10,3*%
%TO.N,/Panel Headers/RESET*%
X165099999Y-265474028D03*
%TO.P,P10,4*%
%TO.N,/Level Shifters/PAN5V.SCK_1*%
X167639999Y-265474028D03*
%TO.P,P10,5*%
%TO.N,/Level Shifters/PAN5V.MOSI_1*%
X170179999Y-265474028D03*
%TO.P,P10,6*%
%TO.N,/Level Shifters/PAN5V.MISO_1*%
X172719999Y-265474028D03*
%TO.P,P10,7*%
%TO.N,/Level Shifters/PAN5V.CS_15*%
X175259999Y-265474028D03*
%TO.P,P10,8*%
%TO.N,/Level Shifters/PAN5V.CS_16*%
X177799999Y-265474028D03*
%TO.P,P10,9*%
%TO.N,/Level Shifters/PAN5V.CS_17*%
X180339999Y-265474028D03*
%TO.P,P10,10*%
%TO.N,/Level Shifters/PAN5V.CS_18*%
X182879999Y-265474028D03*
%TO.P,P10,11*%
%TO.N,/Level Shifters/PAN5V.CS_19*%
X185419999Y-265474028D03*
%TO.P,P10,12*%
%TO.N,unconnected-(P10-Pad12)*%
X187959999Y-265474028D03*
%TO.P,P10,13*%
%TO.N,unconnected-(P10-Pad13)*%
X190499999Y-265474028D03*
%TO.P,P10,14*%
%TO.N,unconnected-(P10-Pad14)*%
X193039999Y-265474028D03*
%TO.P,P10,15*%
%TO.N,/Level Shifters/PAN5V.EXT_INT*%
X195579999Y-265474028D03*
%TD*%
D16*
%TO.P,C6,1*%
%TO.N,+5V*%
X225130000Y-293684000D03*
%TO.P,C6,2*%
%TO.N,GND*%
X223580000Y-293684000D03*
%TD*%
D20*
%TO.P,P12,1*%
%TO.N,/Panel Headers/POW.5V_HDR_12*%
X244837936Y-237034946D03*
D19*
%TO.P,P12,2*%
%TO.N,GND*%
X246107936Y-234835241D03*
%TO.P,P12,3*%
%TO.N,/Panel Headers/RESET*%
X247377936Y-232635537D03*
%TO.P,P12,4*%
%TO.N,/Level Shifters/PAN5V.SCK_1*%
X248647936Y-230435832D03*
%TO.P,P12,5*%
%TO.N,/Level Shifters/PAN5V.MOSI_1*%
X249917936Y-228236128D03*
%TO.P,P12,6*%
%TO.N,/Level Shifters/PAN5V.MISO_1*%
X251187936Y-226036423D03*
%TO.P,P12,7*%
%TO.N,/Level Shifters/PAN5V.CS_25*%
X252457936Y-223836719D03*
%TO.P,P12,8*%
%TO.N,/Level Shifters/PAN5V.CS_26*%
X253727936Y-221637014D03*
%TO.P,P12,9*%
%TO.N,/Level Shifters/PAN5V.CS_27*%
X254997936Y-219437309D03*
%TO.P,P12,10*%
%TO.N,/Level Shifters/PAN5V.CS_28*%
X256267936Y-217237605D03*
%TO.P,P12,11*%
%TO.N,/Level Shifters/PAN5V.CS_29*%
X257537936Y-215037900D03*
%TO.P,P12,12*%
%TO.N,unconnected-(P12-Pad12)*%
X258807936Y-212838196D03*
%TO.P,P12,13*%
%TO.N,unconnected-(P12-Pad13)*%
X260077936Y-210638491D03*
%TO.P,P12,14*%
%TO.N,unconnected-(P12-Pad14)*%
X261347936Y-208438787D03*
%TO.P,P12,15*%
%TO.N,/Level Shifters/PAN5V.EXT_INT*%
X262617936Y-206239082D03*
%TD*%
D18*
%TO.P,P7,1*%
%TO.N,/Panel Headers/POW.5V_HDR_7*%
X90125971Y-160020000D03*
D19*
%TO.P,P7,2*%
%TO.N,GND*%
X90125971Y-162560000D03*
%TO.P,P7,3*%
%TO.N,/Panel Headers/RESET*%
X90125971Y-165100000D03*
%TO.P,P7,4*%
%TO.N,/Level Shifters/PAN5V.SCK_1*%
X90125971Y-167640000D03*
%TO.P,P7,5*%
%TO.N,/Level Shifters/PAN5V.MOSI_1*%
X90125971Y-170180000D03*
%TO.P,P7,6*%
%TO.N,/Level Shifters/PAN5V.MISO_1*%
X90125971Y-172720000D03*
%TO.P,P7,7*%
%TO.N,/Level Shifters/PAN5V.CS_00*%
X90125971Y-175260000D03*
%TO.P,P7,8*%
%TO.N,/Level Shifters/PAN5V.CS_01*%
X90125971Y-177800000D03*
%TO.P,P7,9*%
%TO.N,/Level Shifters/PAN5V.CS_02*%
X90125971Y-180340000D03*
%TO.P,P7,10*%
%TO.N,/Level Shifters/PAN5V.CS_03*%
X90125971Y-182880000D03*
%TO.P,P7,11*%
%TO.N,/Level Shifters/PAN5V.CS_04*%
X90125971Y-185420000D03*
%TO.P,P7,12*%
%TO.N,unconnected-(P7-Pad12)*%
X90125971Y-187960000D03*
%TO.P,P7,13*%
%TO.N,unconnected-(P7-Pad13)*%
X90125971Y-190500000D03*
%TO.P,P7,14*%
%TO.N,unconnected-(P7-Pad14)*%
X90125971Y-193040000D03*
%TO.P,P7,15*%
%TO.N,/Level Shifters/PAN5V.EXT_INT*%
X90125971Y-195580000D03*
%TD*%
D21*
%TO.P,C24,1*%
%TO.N,/Panel Headers/POW.5V_HDR_7*%
X75095971Y-166370000D03*
%TO.P,C24,2*%
%TO.N,GND*%
X78695971Y-166370000D03*
%TD*%
D22*
%TO.P,R5,1*%
%TO.N,/Panel Headers/POW.5V_HDR_3*%
X234940958Y-92880956D03*
%TO.P,R5,2*%
%TO.N,GND*%
X233478458Y-95414080D03*
%TD*%
D23*
%TO.P,C19,1*%
%TO.N,VCC*%
X149837998Y-79508393D03*
%TO.P,C19,2*%
%TO.N,GND*%
X148037998Y-76390701D03*
%TD*%
D21*
%TO.P,C11,1*%
%TO.N,VCC*%
X276904028Y-202730000D03*
%TO.P,C11,2*%
%TO.N,GND*%
X280504028Y-202730000D03*
%TD*%
D24*
%TO.P,SW1,1,A*%
%TO.N,Net-(SW1-A)*%
X296960000Y-90982800D03*
%TO.P,SW1,2,B*%
%TO.N,VCC*%
X296960000Y-86233000D03*
%TO.P,SW1,3,C*%
%TO.N,GND*%
X296960000Y-81483200D03*
%TD*%
D25*
%TO.P,U3,1,A1*%
%TO.N,/Level Shifters/PAN3V.CS_08*%
X233402100Y-294342600D03*
%TO.P,U3,2,VCCA*%
%TO.N,+3.3V*%
X233402100Y-293692600D03*
%TO.P,U3,3,A2*%
%TO.N,/Level Shifters/PAN3V.CS_09*%
X233402100Y-293042600D03*
%TO.P,U3,4,A3*%
%TO.N,/Level Shifters/PAN3V.CS_10*%
X233402100Y-292392600D03*
%TO.P,U3,5,A4*%
%TO.N,/Level Shifters/PAN3V.CS_11*%
X233402100Y-291742600D03*
%TO.P,U3,6,A5*%
%TO.N,/Level Shifters/PAN3V.CS_12*%
X233402100Y-291092600D03*
%TO.P,U3,7,A6*%
%TO.N,/Level Shifters/PAN3V.CS_13*%
X233402100Y-290442600D03*
%TO.P,U3,8,A7*%
%TO.N,/Level Shifters/PAN3V.CS_14*%
X233402100Y-289792600D03*
%TO.P,U3,9,A8*%
%TO.N,/Level Shifters/PAN3V.CS_15*%
X233402100Y-289142600D03*
%TO.P,U3,10,OE*%
%TO.N,+3.3V*%
X233402100Y-288492600D03*
%TO.P,U3,11,GND*%
%TO.N,GND*%
X227677100Y-288492600D03*
%TO.P,U3,12,B8*%
%TO.N,/Level Shifters/PAN5V.CS_15*%
X227677100Y-289142600D03*
%TO.P,U3,13,B7*%
%TO.N,/Level Shifters/PAN5V.CS_14*%
X227677100Y-289792600D03*
%TO.P,U3,14,B6*%
%TO.N,/Level Shifters/PAN5V.CS_13*%
X227677100Y-290442600D03*
%TO.P,U3,15,B5*%
%TO.N,/Level Shifters/PAN5V.CS_12*%
X227677100Y-291092600D03*
%TO.P,U3,16,B4*%
%TO.N,/Level Shifters/PAN5V.CS_11*%
X227677100Y-291742600D03*
%TO.P,U3,17,B3*%
%TO.N,/Level Shifters/PAN5V.CS_10*%
X227677100Y-292392600D03*
%TO.P,U3,18,B2*%
%TO.N,/Level Shifters/PAN5V.CS_09*%
X227677100Y-293042600D03*
%TO.P,U3,19,VCCB*%
%TO.N,+5V*%
X227677100Y-293692600D03*
%TO.P,U3,20,B1*%
%TO.N,/Level Shifters/PAN5V.CS_08*%
X227677100Y-294342600D03*
%TD*%
D26*
%TO.P,C27,1*%
%TO.N,VCC*%
X106657972Y-251161606D03*
%TO.P,C27,2*%
%TO.N,GND*%
X104857972Y-254279298D03*
%TD*%
D16*
%TO.P,C8,1*%
%TO.N,+5V*%
X262687000Y-293654000D03*
%TO.P,C8,2*%
%TO.N,GND*%
X261137000Y-293654000D03*
%TD*%
D27*
%TO.P,U2,1,A1*%
%TO.N,/Level Shifters/PAN3V.CS_00*%
X277878400Y-238414800D03*
%TO.P,U2,2,VCCA*%
%TO.N,+3.3V*%
X277878400Y-239064800D03*
%TO.P,U2,3,A2*%
%TO.N,/Level Shifters/PAN3V.CS_01*%
X277878400Y-239714800D03*
%TO.P,U2,4,A3*%
%TO.N,/Level Shifters/PAN3V.CS_02*%
X277878400Y-240364800D03*
%TO.P,U2,5,A4*%
%TO.N,/Level Shifters/PAN3V.CS_03*%
X277878400Y-241014800D03*
%TO.P,U2,6,A5*%
%TO.N,/Level Shifters/PAN3V.CS_04*%
X277878400Y-241664800D03*
%TO.P,U2,7,A6*%
%TO.N,/Level Shifters/PAN3V.CS_05*%
X277878400Y-242314800D03*
%TO.P,U2,8,A7*%
%TO.N,/Level Shifters/PAN3V.CS_06*%
X277878400Y-242964800D03*
%TO.P,U2,9,A8*%
%TO.N,/Level Shifters/PAN3V.CS_07*%
X277878400Y-243614800D03*
%TO.P,U2,10,OE*%
%TO.N,+3.3V*%
X277878400Y-244264800D03*
%TO.P,U2,11,GND*%
%TO.N,GND*%
X283603400Y-244264800D03*
%TO.P,U2,12,B8*%
%TO.N,/Level Shifters/PAN5V.CS_07*%
X283603400Y-243614800D03*
%TO.P,U2,13,B7*%
%TO.N,/Level Shifters/PAN5V.CS_06*%
X283603400Y-242964800D03*
%TO.P,U2,14,B6*%
%TO.N,/Level Shifters/PAN5V.CS_05*%
X283603400Y-242314800D03*
%TO.P,U2,15,B5*%
%TO.N,/Level Shifters/PAN5V.CS_04*%
X283603400Y-241664800D03*
%TO.P,U2,16,B4*%
%TO.N,/Level Shifters/PAN5V.CS_03*%
X283603400Y-241014800D03*
%TO.P,U2,17,B3*%
%TO.N,/Level Shifters/PAN5V.CS_02*%
X283603400Y-240364800D03*
%TO.P,U2,18,B2*%
%TO.N,/Level Shifters/PAN5V.CS_01*%
X283603400Y-239714800D03*
%TO.P,U2,19,VCCB*%
%TO.N,+5V*%
X283603400Y-239064800D03*
%TO.P,U2,20,B1*%
%TO.N,/Level Shifters/PAN5V.CS_00*%
X283603400Y-238414800D03*
%TD*%
D28*
%TO.P,R7,1*%
%TO.N,/Panel Headers/POW.5V_HDR_5*%
X132828430Y-85854956D03*
%TO.P,R7,2*%
%TO.N,GND*%
X134290930Y-88388080D03*
%TD*%
D29*
%TO.P,P9,1*%
%TO.N,/Panel Headers/POW.5V_HDR_9*%
X118565053Y-244837936D03*
D19*
%TO.P,P9,2*%
%TO.N,GND*%
X120764758Y-246107936D03*
%TO.P,P9,3*%
%TO.N,/Panel Headers/RESET*%
X122964462Y-247377936D03*
%TO.P,P9,4*%
%TO.N,/Level Shifters/PAN5V.SCK_1*%
X125164167Y-248647936D03*
%TO.P,P9,5*%
%TO.N,/Level Shifters/PAN5V.MOSI_1*%
X127363871Y-249917936D03*
%TO.P,P9,6*%
%TO.N,/Level Shifters/PAN5V.MISO_1*%
X129563576Y-251187936D03*
%TO.P,P9,7*%
%TO.N,/Level Shifters/PAN5V.CS_10*%
X131763280Y-252457936D03*
%TO.P,P9,8*%
%TO.N,/Level Shifters/PAN5V.CS_11*%
X133962985Y-253727936D03*
%TO.P,P9,9*%
%TO.N,/Level Shifters/PAN5V.CS_12*%
X136162690Y-254997936D03*
%TO.P,P9,10*%
%TO.N,/Level Shifters/PAN5V.CS_13*%
X138362394Y-256267936D03*
%TO.P,P9,11*%
%TO.N,/Level Shifters/PAN5V.CS_14*%
X140562099Y-257537936D03*
%TO.P,P9,12*%
%TO.N,unconnected-(P9-Pad12)*%
X142761803Y-258807936D03*
%TO.P,P9,13*%
%TO.N,unconnected-(P9-Pad13)*%
X144961508Y-260077936D03*
%TO.P,P9,14*%
%TO.N,unconnected-(P9-Pad14)*%
X147161212Y-261347936D03*
%TO.P,P9,15*%
%TO.N,/Level Shifters/PAN5V.EXT_INT*%
X149360917Y-262617936D03*
%TD*%
D30*
%TO.P,U6,1,GND*%
%TO.N,GND*%
X275109028Y-193703000D03*
D31*
%TO.P,U6,2,VO*%
%TO.N,/Panel Headers/POW.5V_HDR_1*%
X281959028Y-196003000D03*
D30*
%TO.P,U6,3,VI*%
%TO.N,VCC*%
X275109028Y-198303000D03*
%TD*%
D32*
%TO.P,P11,1*%
%TO.N,/Panel Headers/POW.5V_HDR_11*%
X206239082Y-262617936D03*
D19*
%TO.P,P11,2*%
%TO.N,GND*%
X208438787Y-261347936D03*
%TO.P,P11,3*%
%TO.N,/Panel Headers/RESET*%
X210638491Y-260077936D03*
%TO.P,P11,4*%
%TO.N,/Level Shifters/PAN5V.SCK_1*%
X212838196Y-258807936D03*
%TO.P,P11,5*%
%TO.N,/Level Shifters/PAN5V.MOSI_1*%
X215037900Y-257537936D03*
%TO.P,P11,6*%
%TO.N,/Level Shifters/PAN5V.MISO_1*%
X217237605Y-256267936D03*
%TO.P,P11,7*%
%TO.N,/Level Shifters/PAN5V.CS_20*%
X219437309Y-254997936D03*
%TO.P,P11,8*%
%TO.N,/Level Shifters/PAN5V.CS_21*%
X221637014Y-253727936D03*
%TO.P,P11,9*%
%TO.N,/Level Shifters/PAN5V.CS_22*%
X223836719Y-252457936D03*
%TO.P,P11,10*%
%TO.N,/Level Shifters/PAN5V.CS_23*%
X226036423Y-251187936D03*
%TO.P,P11,11*%
%TO.N,/Level Shifters/PAN5V.CS_24*%
X228236128Y-249917936D03*
%TO.P,P11,12*%
%TO.N,unconnected-(P11-Pad12)*%
X230435832Y-248647936D03*
%TO.P,P11,13*%
%TO.N,unconnected-(P11-Pad13)*%
X232635537Y-247377936D03*
%TO.P,P11,14*%
%TO.N,unconnected-(P11-Pad14)*%
X234835241Y-246107936D03*
%TO.P,P11,15*%
%TO.N,/Level Shifters/PAN5V.EXT_INT*%
X237034946Y-244837936D03*
%TD*%
D33*
%TO.P,C14,1*%
%TO.N,/Panel Headers/POW.5V_HDR_2*%
X272459298Y-136346655D03*
%TO.P,C14,2*%
%TO.N,GND*%
X269341606Y-138146655D03*
%TD*%
D34*
%TO.P,R4,1*%
%TO.N,/Panel Headers/POW.5V_HDR_2*%
X269745043Y-132828430D03*
%TO.P,R4,2*%
%TO.N,GND*%
X267211919Y-134290930D03*
%TD*%
D35*
%TO.P,C9,1*%
%TO.N,+3.3V*%
X191729000Y-293604000D03*
%TO.P,C9,2*%
%TO.N,GND*%
X193279000Y-293604000D03*
%TD*%
D36*
%TO.P,J3,1,Pin_1*%
%TO.N,GND*%
X299500000Y-232005000D03*
%TO.P,J3,2,Pin_2*%
%TO.N,+3.3V*%
X299500000Y-231005000D03*
%TO.P,J3,3,Pin_3*%
%TO.N,/Teensy/A0*%
X299500000Y-230005000D03*
%TO.P,J3,4,Pin_4*%
%TO.N,/Teensy/A1*%
X299500000Y-229005000D03*
D37*
%TO.P,J3,MP*%
%TO.N,N/C*%
X303375000Y-233305000D03*
X303375000Y-227705000D03*
%TD*%
D35*
%TO.P,C2,1*%
%TO.N,+5V*%
X286499000Y-220472000D03*
%TO.P,C2,2*%
%TO.N,GND*%
X288049000Y-220472000D03*
%TD*%
%TO.P,C5,1*%
%TO.N,+3.3V*%
X235915000Y-293674000D03*
%TO.P,C5,2*%
%TO.N,GND*%
X237465000Y-293674000D03*
%TD*%
D38*
%TO.P,C22,1*%
%TO.N,/Panel Headers/POW.5V_HDR_6*%
X94570701Y-116549315D03*
%TO.P,C22,2*%
%TO.N,GND*%
X97688393Y-118349315D03*
%TD*%
D39*
%TO.P,R13,1*%
%TO.N,/Panel Headers/POW.5V_HDR_11*%
X222771569Y-269745043D03*
%TO.P,R13,2*%
%TO.N,GND*%
X221309069Y-267211919D03*
%TD*%
D16*
%TO.P,C10,1*%
%TO.N,+5V*%
X181129000Y-293564000D03*
%TO.P,C10,2*%
%TO.N,GND*%
X179579000Y-293564000D03*
%TD*%
D26*
%TO.P,C16,1*%
%TO.N,/Panel Headers/POW.5V_HDR_3*%
X239050684Y-94570701D03*
%TO.P,C16,2*%
%TO.N,GND*%
X237250684Y-97688393D03*
%TD*%
D40*
%TO.P,C26,1*%
%TO.N,/Panel Headers/POW.5V_HDR_8*%
X83140701Y-219253344D03*
%TO.P,C26,2*%
%TO.N,GND*%
X86258393Y-217453344D03*
%TD*%
D41*
%TO.P,U16,1,GND*%
%TO.N,GND*%
X212682112Y-270023591D03*
D42*
%TO.P,U16,2,VO*%
%TO.N,/Panel Headers/POW.5V_HDR_11*%
X214115254Y-277105865D03*
D41*
%TO.P,U16,3,VI*%
%TO.N,VCC*%
X208698396Y-272323591D03*
%TD*%
D43*
%TO.P,U12,1,GND*%
%TO.N,GND*%
X80490971Y-161897000D03*
D44*
%TO.P,U12,2,VO*%
%TO.N,/Panel Headers/POW.5V_HDR_7*%
X73640971Y-159597000D03*
D43*
%TO.P,U12,3,VI*%
%TO.N,VCC*%
X80490971Y-157297000D03*
%TD*%
D45*
%TO.P,U8,1,GND*%
%TO.N,GND*%
X240226916Y-101479408D03*
D46*
%TO.P,U8,2,VO*%
%TO.N,/Panel Headers/POW.5V_HDR_3*%
X245643774Y-96697134D03*
D45*
%TO.P,U8,3,VI*%
%TO.N,VCC*%
X244210632Y-103779408D03*
%TD*%
D17*
%TO.P,H3,1,1*%
%TO.N,GND*%
X292100000Y-292100000D03*
%TD*%
D27*
%TO.P,U1,1,A1*%
%TO.N,/Level Shifters/PAN3V.RESET*%
X277993000Y-219874000D03*
%TO.P,U1,2,VCCA*%
%TO.N,+3.3V*%
X277993000Y-220524000D03*
%TO.P,U1,3,A2*%
%TO.N,/Level Shifters/PAN3V.SCK_0*%
X277993000Y-221174000D03*
%TO.P,U1,4,A3*%
%TO.N,/Level Shifters/PAN3V.MOSI_0*%
X277993000Y-221824000D03*
%TO.P,U1,5,A4*%
%TO.N,/Level Shifters/PAN3V.MISO_0*%
X277993000Y-222474000D03*
%TO.P,U1,6,A5*%
%TO.N,unconnected-(U1-A5-Pad6)*%
X277993000Y-223124000D03*
%TO.P,U1,7,A6*%
%TO.N,/Level Shifters/PAN3V.SCK_1*%
X277993000Y-223774000D03*
%TO.P,U1,8,A7*%
%TO.N,/Level Shifters/PAN3V.MOSI_1*%
X277993000Y-224424000D03*
%TO.P,U1,9,A8*%
%TO.N,/Level Shifters/PAN3V.MISO_1*%
X277993000Y-225074000D03*
%TO.P,U1,10,OE*%
%TO.N,+3.3V*%
X277993000Y-225724000D03*
%TO.P,U1,11,GND*%
%TO.N,GND*%
X283718000Y-225724000D03*
%TO.P,U1,12,B8*%
%TO.N,/Level Shifters/PAN5V.MISO_1*%
X283718000Y-225074000D03*
%TO.P,U1,13,B7*%
%TO.N,/Level Shifters/PAN5V.MOSI_1*%
X283718000Y-224424000D03*
%TO.P,U1,14,B6*%
%TO.N,/Level Shifters/PAN5V.SCK_1*%
X283718000Y-223774000D03*
%TO.P,U1,15,B5*%
%TO.N,unconnected-(U1-B5-Pad15)*%
X283718000Y-223124000D03*
%TO.P,U1,16,B4*%
%TO.N,/Level Shifters/PAN5V.MISO_0*%
X283718000Y-222474000D03*
%TO.P,U1,17,B3*%
%TO.N,/Level Shifters/PAN5V.MOSI_0*%
X283718000Y-221824000D03*
%TO.P,U1,18,B2*%
%TO.N,/Level Shifters/PAN5V.SCK_0*%
X283718000Y-221174000D03*
%TO.P,U1,19,VCCB*%
%TO.N,+5V*%
X283718000Y-220524000D03*
%TO.P,U1,20,B1*%
%TO.N,/Level Shifters/PAN5V.RESET*%
X283718000Y-219874000D03*
%TD*%
D47*
%TO.P,Q2,1,G*%
%TO.N,Net-(Q2-G)*%
X292343000Y-170114000D03*
%TO.P,Q2,2,S*%
%TO.N,GND*%
X292343000Y-168214000D03*
%TO.P,Q2,3,D*%
%TO.N,/Panel Headers/RESET*%
X290068000Y-169164000D03*
%TD*%
D17*
%TO.P,H4,1,1*%
%TO.N,GND*%
X63500000Y-292100000D03*
%TD*%
D48*
%TO.P,C29,1*%
%TO.N,VCC*%
X152870000Y-276904028D03*
%TO.P,C29,2*%
%TO.N,GND*%
X152870000Y-280504028D03*
%TD*%
D49*
%TO.P,U13,1,GND*%
%TO.N,GND*%
X85576408Y-212682112D03*
D50*
%TO.P,U13,2,VO*%
%TO.N,/Panel Headers/POW.5V_HDR_8*%
X78494134Y-214115254D03*
D49*
%TO.P,U13,3,VI*%
%TO.N,VCC*%
X83276408Y-208698396D03*
%TD*%
D51*
%TO.P,J1,*%
%TO.N,*%
X299596200Y-111963200D03*
D52*
X301602800Y-116459000D03*
D51*
X299596200Y-120954800D03*
D53*
%TO.P,J1,1*%
%TO.N,Net-(SW1-A)*%
X292611200Y-116459000D03*
D51*
%TO.P,J1,2*%
%TO.N,GND*%
X298605600Y-116459000D03*
%TD*%
D54*
%TO.P,U10,1,GND*%
%TO.N,GND*%
X142917887Y-85576408D03*
D55*
%TO.P,U10,2,VO*%
%TO.N,/Panel Headers/POW.5V_HDR_5*%
X141484745Y-78494134D03*
D54*
%TO.P,U10,3,VI*%
%TO.N,VCC*%
X146901603Y-83276408D03*
%TD*%
D56*
%TO.P,C31,1*%
%TO.N,VCC*%
X205762001Y-276091606D03*
%TO.P,C31,2*%
%TO.N,GND*%
X207562001Y-279209298D03*
%TD*%
D57*
%TO.P,P5,1*%
%TO.N,/Panel Headers/POW.5V_HDR_5*%
X149360917Y-92982063D03*
D19*
%TO.P,P5,2*%
%TO.N,GND*%
X147161212Y-94252063D03*
%TO.P,P5,3*%
%TO.N,/Panel Headers/RESET*%
X144961508Y-95522063D03*
%TO.P,P5,4*%
%TO.N,/Level Shifters/PAN5V.SCK_0*%
X142761803Y-96792063D03*
%TO.P,P5,5*%
%TO.N,/Level Shifters/PAN5V.MOSI_0*%
X140562099Y-98062063D03*
%TO.P,P5,6*%
%TO.N,/Level Shifters/PAN5V.MISO_0*%
X138362394Y-99332063D03*
%TO.P,P5,7*%
%TO.N,/Level Shifters/PAN5V.CS_20*%
X136162690Y-100602063D03*
%TO.P,P5,8*%
%TO.N,/Level Shifters/PAN5V.CS_21*%
X133962985Y-101872063D03*
%TO.P,P5,9*%
%TO.N,/Level Shifters/PAN5V.CS_22*%
X131763280Y-103142063D03*
%TO.P,P5,10*%
%TO.N,/Level Shifters/PAN5V.CS_23*%
X129563576Y-104412063D03*
%TO.P,P5,11*%
%TO.N,/Level Shifters/PAN5V.CS_24*%
X127363871Y-105682063D03*
%TO.P,P5,12*%
%TO.N,unconnected-(P5-Pad12)*%
X125164167Y-106952063D03*
%TO.P,P5,13*%
%TO.N,unconnected-(P5-Pad13)*%
X122964462Y-108222063D03*
%TO.P,P5,14*%
%TO.N,unconnected-(P5-Pad14)*%
X120764758Y-109492063D03*
%TO.P,P5,15*%
%TO.N,/Level Shifters/PAN5V.EXT_INT*%
X118565053Y-110762063D03*
%TD*%
D25*
%TO.P,U4,1,A1*%
%TO.N,/Level Shifters/PAN3V.CS_16*%
X270845100Y-294291800D03*
%TO.P,U4,2,VCCA*%
%TO.N,+3.3V*%
X270845100Y-293641800D03*
%TO.P,U4,3,A2*%
%TO.N,/Level Shifters/PAN3V.CS_17*%
X270845100Y-292991800D03*
%TO.P,U4,4,A3*%
%TO.N,/Level Shifters/PAN3V.CS_18*%
X270845100Y-292341800D03*
%TO.P,U4,5,A4*%
%TO.N,/Level Shifters/PAN3V.CS_19*%
X270845100Y-291691800D03*
%TO.P,U4,6,A5*%
%TO.N,/Level Shifters/PAN3V.CS_20*%
X270845100Y-291041800D03*
%TO.P,U4,7,A6*%
%TO.N,/Level Shifters/PAN3V.CS_21*%
X270845100Y-290391800D03*
%TO.P,U4,8,A7*%
%TO.N,/Level Shifters/PAN3V.CS_22*%
X270845100Y-289741800D03*
%TO.P,U4,9,A8*%
%TO.N,/Level Shifters/PAN3V.CS_23*%
X270845100Y-289091800D03*
%TO.P,U4,10,OE*%
%TO.N,+3.3V*%
X270845100Y-288441800D03*
%TO.P,U4,11,GND*%
%TO.N,GND*%
X265120100Y-288441800D03*
%TO.P,U4,12,B8*%
%TO.N,/Level Shifters/PAN5V.CS_23*%
X265120100Y-289091800D03*
%TO.P,U4,13,B7*%
%TO.N,/Level Shifters/PAN5V.CS_22*%
X265120100Y-289741800D03*
%TO.P,U4,14,B6*%
%TO.N,/Level Shifters/PAN5V.CS_21*%
X265120100Y-290391800D03*
%TO.P,U4,15,B5*%
%TO.N,/Level Shifters/PAN5V.CS_20*%
X265120100Y-291041800D03*
%TO.P,U4,16,B4*%
%TO.N,/Level Shifters/PAN5V.CS_19*%
X265120100Y-291691800D03*
%TO.P,U4,17,B3*%
%TO.N,/Level Shifters/PAN5V.CS_18*%
X265120100Y-292341800D03*
%TO.P,U4,18,B2*%
%TO.N,/Level Shifters/PAN5V.CS_17*%
X265120100Y-292991800D03*
%TO.P,U4,19,VCCB*%
%TO.N,+5V*%
X265120100Y-293641800D03*
%TO.P,U4,20,B1*%
%TO.N,/Level Shifters/PAN5V.CS_16*%
X265120100Y-294291800D03*
%TD*%
D18*
%TO.P,P4,1*%
%TO.N,/Panel Headers/POW.5V_HDR_4*%
X195580000Y-90125971D03*
D19*
%TO.P,P4,2*%
%TO.N,GND*%
X193040000Y-90125971D03*
%TO.P,P4,3*%
%TO.N,/Panel Headers/RESET*%
X190500000Y-90125971D03*
%TO.P,P4,4*%
%TO.N,/Level Shifters/PAN5V.SCK_0*%
X187960000Y-90125971D03*
%TO.P,P4,5*%
%TO.N,/Level Shifters/PAN5V.MOSI_0*%
X185420000Y-90125971D03*
%TO.P,P4,6*%
%TO.N,/Level Shifters/PAN5V.MISO_0*%
X182880000Y-90125971D03*
%TO.P,P4,7*%
%TO.N,/Level Shifters/PAN5V.CS_15*%
X180340000Y-90125971D03*
%TO.P,P4,8*%
%TO.N,/Level Shifters/PAN5V.CS_16*%
X177800000Y-90125971D03*
%TO.P,P4,9*%
%TO.N,/Level Shifters/PAN5V.CS_17*%
X175260000Y-90125971D03*
%TO.P,P4,10*%
%TO.N,/Level Shifters/PAN5V.CS_18*%
X172720000Y-90125971D03*
%TO.P,P4,11*%
%TO.N,/Level Shifters/PAN5V.CS_19*%
X170180000Y-90125971D03*
%TO.P,P4,12*%
%TO.N,unconnected-(P4-Pad12)*%
X167640000Y-90125971D03*
%TO.P,P4,13*%
%TO.N,unconnected-(P4-Pad13)*%
X165100000Y-90125971D03*
%TO.P,P4,14*%
%TO.N,unconnected-(P4-Pad14)*%
X162560000Y-90125971D03*
%TO.P,P4,15*%
%TO.N,/Level Shifters/PAN5V.EXT_INT*%
X160020000Y-90125971D03*
%TD*%
D58*
%TO.P,R1,1*%
%TO.N,Net-(Q2-G)*%
X292307000Y-172466000D03*
%TO.P,R1,2*%
%TO.N,/Level Shifters/PAN5V.RESET*%
X294132000Y-172466000D03*
%TD*%
D23*
%TO.P,C32,1*%
%TO.N,/Panel Headers/POW.5V_HDR_11*%
X219253344Y-272459298D03*
%TO.P,C32,2*%
%TO.N,GND*%
X217453344Y-269341606D03*
%TD*%
D59*
%TO.P,R14,1*%
%TO.N,/Panel Headers/POW.5V_HDR_12*%
X262719043Y-234940958D03*
%TO.P,R14,2*%
%TO.N,GND*%
X260185919Y-233478458D03*
%TD*%
D60*
%TO.P,U11,1,GND*%
%TO.N,GND*%
X101479408Y-115373083D03*
D61*
%TO.P,U11,2,VO*%
%TO.N,/Panel Headers/POW.5V_HDR_6*%
X96697134Y-109956225D03*
D60*
%TO.P,U11,3,VI*%
%TO.N,VCC*%
X103779408Y-111389367D03*
%TD*%
D18*
%TO.P,U18,1,GND*%
%TO.N,GND*%
X302895000Y-260985000D03*
D19*
%TO.P,U18,2,0_RX1_CRX2_CS1*%
%TO.N,/Level Shifters/PAN3V.CS_00*%
X300355000Y-260985000D03*
%TO.P,U18,3,1_TX1_CTX2_MISO1*%
%TO.N,/Level Shifters/PAN3V.MISO_1*%
X297815000Y-260985000D03*
%TO.P,U18,4,2_OUT2*%
%TO.N,/Level Shifters/PAN3V.CS_01*%
X295275000Y-260985000D03*
%TO.P,U18,5,3_LRCLK2*%
%TO.N,/Level Shifters/PAN3V.CS_02*%
X292735000Y-260985000D03*
%TO.P,U18,6,4_BCLK2*%
%TO.N,/Level Shifters/PAN3V.CS_03*%
X290195000Y-260985000D03*
%TO.P,U18,7,5_IN2*%
%TO.N,/Level Shifters/PAN3V.CS_04*%
X287655000Y-260985000D03*
%TO.P,U18,8,6_OUT1D*%
%TO.N,/Level Shifters/PAN3V.CS_05*%
X285115000Y-260985000D03*
%TO.P,U18,9,7_RX2_OUT1A*%
%TO.N,/Level Shifters/PAN3V.CS_06*%
X282575000Y-260985000D03*
%TO.P,U18,10,8_TX2_IN1*%
%TO.N,/Level Shifters/PAN3V.CS_07*%
X280035000Y-260985000D03*
%TO.P,U18,11,9_OUT1C*%
%TO.N,/Level Shifters/PAN3V.CS_08*%
X277495000Y-260985000D03*
%TO.P,U18,12,10_CS_MQSR*%
%TO.N,/Level Shifters/PAN3V.CS_09*%
X274955000Y-260985000D03*
%TO.P,U18,13,11_MOSI_CTX1*%
%TO.N,/Level Shifters/PAN3V.MOSI_0*%
X272415000Y-260985000D03*
%TO.P,U18,14,12_MISO_MQSL*%
%TO.N,/Level Shifters/PAN3V.MISO_0*%
X269875000Y-260985000D03*
%TO.P,U18,15,3V3*%
%TO.N,+3.3V*%
X267335000Y-260985000D03*
%TO.P,U18,16,24_A10_TX6_SCL2*%
%TO.N,/Level Shifters/PAN3V.CS_10*%
X264795000Y-260985000D03*
%TO.P,U18,17,25_A11_RX6_SDA2*%
%TO.N,/Level Shifters/PAN3V.CS_11*%
X262255000Y-260985000D03*
%TO.P,U18,18,26_A12_MOSI1*%
%TO.N,/Level Shifters/PAN3V.MOSI_1*%
X259715000Y-260985000D03*
%TO.P,U18,19,27_A13_SCK1*%
%TO.N,/Level Shifters/PAN3V.SCK_1*%
X257175000Y-260985000D03*
%TO.P,U18,20,28_RX7*%
%TO.N,/Level Shifters/PAN3V.CS_12*%
X254635000Y-260985000D03*
%TO.P,U18,21,29_TX7*%
%TO.N,/Level Shifters/PAN3V.CS_13*%
X252095000Y-260985000D03*
%TO.P,U18,22,30_CRX3*%
%TO.N,/Level Shifters/PAN3V.CS_14*%
X249555000Y-260985000D03*
%TO.P,U18,23,31_CTX3*%
%TO.N,/Level Shifters/PAN3V.CS_15*%
X247015000Y-260985000D03*
%TO.P,U18,24,32_OUT1B*%
%TO.N,/Level Shifters/PAN3V.CS_16*%
X244475000Y-260985000D03*
%TO.P,U18,25,33_MCLK2*%
%TO.N,/Level Shifters/PAN3V.EXT_INT*%
X244475000Y-276225000D03*
%TO.P,U18,26,34_RX8*%
%TO.N,/Level Shifters/PAN3V.RESET*%
X247015000Y-276225000D03*
%TO.P,U18,27,35_TX8*%
%TO.N,/Level Shifters/PAN3V.CS_29*%
X249555000Y-276225000D03*
%TO.P,U18,28,36_CS*%
%TO.N,/Level Shifters/PAN3V.CS_28*%
X252095000Y-276225000D03*
%TO.P,U18,29,37_CS*%
%TO.N,/Level Shifters/PAN3V.CS_27*%
X254635000Y-276225000D03*
%TO.P,U18,30,38_CS1_IN1*%
%TO.N,/Level Shifters/PAN3V.CS_26*%
X257175000Y-276225000D03*
%TO.P,U18,31,39_MISO1_OUT1A*%
%TO.N,/Level Shifters/PAN3V.CS_25*%
X259715000Y-276225000D03*
%TO.P,U18,32,40_A16*%
%TO.N,/Level Shifters/PAN3V.CS_24*%
X262255000Y-276225000D03*
%TO.P,U18,33,41_A17*%
%TO.N,/Level Shifters/PAN3V.CS_23*%
X264795000Y-276225000D03*
%TO.P,U18,34,GND*%
%TO.N,GND*%
X267335000Y-276225000D03*
%TO.P,U18,35,13_SCK_LED*%
%TO.N,/Level Shifters/PAN3V.SCK_0*%
X269875000Y-276225000D03*
%TO.P,U18,36,14_A0_TX3_SPDIF_OUT*%
%TO.N,/Teensy/A0*%
X272415000Y-276225000D03*
%TO.P,U18,37,15_A1_RX3_SPDIF_IN*%
%TO.N,/Teensy/A1*%
X274955000Y-276225000D03*
%TO.P,U18,38,16_A2_RX4_SCL1*%
%TO.N,/Level Shifters/PAN3V.CS_22*%
X277495000Y-276225000D03*
%TO.P,U18,39,17_A3_TX4_SDA1*%
%TO.N,/Level Shifters/PAN3V.CS_21*%
X280035000Y-276225000D03*
%TO.P,U18,40,18_A4_SDA*%
%TO.N,/Teensy/SDA*%
X282575000Y-276225000D03*
%TO.P,U18,41,19_A5_SCL*%
%TO.N,/Teensy/SCL*%
X285115000Y-276225000D03*
%TO.P,U18,42,20_A6_TX5_LRCLK1*%
%TO.N,/Level Shifters/PAN3V.CS_20*%
X287655000Y-276225000D03*
%TO.P,U18,43,21_A7_RX5_BCLK1*%
%TO.N,/Level Shifters/PAN3V.CS_19*%
X290195000Y-276225000D03*
%TO.P,U18,44,22_A8_CTX1*%
%TO.N,/Level Shifters/PAN3V.CS_18*%
X292735000Y-276225000D03*
%TO.P,U18,45,23_A9_CRX1_MCLK1*%
%TO.N,/Level Shifters/PAN3V.CS_17*%
X295275000Y-276225000D03*
%TO.P,U18,46,3V3*%
%TO.N,+3.3V*%
X297815000Y-276225000D03*
%TO.P,U18,47,GND*%
%TO.N,GND*%
X300355000Y-276225000D03*
%TO.P,U18,48,VIN*%
%TO.N,+5V*%
X302895000Y-276225000D03*
%TO.P,U18,49,VUSB*%
X300355000Y-273685000D03*
%TO.P,U18,50,VBAT*%
%TO.N,unconnected-(U18-VBAT-Pad50)*%
X257175000Y-263525000D03*
%TO.P,U18,51,3V3*%
%TO.N,unconnected-(U18-3V3-Pad51)*%
X257175000Y-266065000D03*
%TO.P,U18,52,GND*%
%TO.N,unconnected-(U18-GND-Pad52)*%
X257175000Y-268605000D03*
%TO.P,U18,53,PROGRAM*%
%TO.N,unconnected-(U18-PROGRAM-Pad53)*%
X257175000Y-271145000D03*
%TO.P,U18,54,ON_OFF*%
%TO.N,unconnected-(U18-ON_OFF-Pad54)*%
X257175000Y-273685000D03*
D18*
%TO.P,U18,55,5V*%
%TO.N,unconnected-(U18-5V-Pad55)*%
X296595800Y-264035800D03*
D19*
%TO.P,U18,56,D-*%
%TO.N,unconnected-(U18-D--Pad56)*%
X294055800Y-264035800D03*
%TO.P,U18,57,D+*%
%TO.N,unconnected-(U18-D+-Pad57)*%
X291515800Y-264035800D03*
%TO.P,U18,58,GND*%
%TO.N,unconnected-(U18-GND-Pad58)*%
X288975800Y-264035800D03*
%TO.P,U18,59,GND*%
%TO.N,unconnected-(U18-GND-Pad59)*%
X286435800Y-264035800D03*
D62*
%TO.P,U18,60,R+*%
%TO.N,unconnected-(U18-R+-Pad60)*%
X289925000Y-273786600D03*
D63*
%TO.P,U18,61,LED*%
%TO.N,unconnected-(U18-LED-Pad61)*%
X289925000Y-271786600D03*
%TO.P,U18,62,T-*%
%TO.N,unconnected-(U18-T--Pad62)*%
X289925000Y-269786600D03*
%TO.P,U18,63,T+*%
%TO.N,unconnected-(U18-T+-Pad63)*%
X287925000Y-269786600D03*
%TO.P,U18,64,GND*%
%TO.N,unconnected-(U18-GND-Pad64)*%
X287925000Y-271786600D03*
%TO.P,U18,65,R-*%
%TO.N,unconnected-(U18-R--Pad65)*%
X287925000Y-273786600D03*
%TO.P,U18,66,D-*%
%TO.N,unconnected-(U18-D--Pad66)*%
X302165000Y-269875000D03*
%TO.P,U18,67,D+*%
%TO.N,unconnected-(U18-D+-Pad67)*%
X302165000Y-267335000D03*
%TD*%
D48*
%TO.P,C18,1*%
%TO.N,/Panel Headers/POW.5V_HDR_4*%
X189230000Y-75095971D03*
%TO.P,C18,2*%
%TO.N,GND*%
X189230000Y-78695971D03*
%TD*%
D18*
%TO.P,P1,1*%
%TO.N,/Panel Headers/POW.5V_HDR_1*%
X265474028Y-195580000D03*
D19*
%TO.P,P1,2*%
%TO.N,GND*%
X265474028Y-193040000D03*
%TO.P,P1,3*%
%TO.N,/Panel Headers/RESET*%
X265474028Y-190500000D03*
%TO.P,P1,4*%
%TO.N,/Level Shifters/PAN5V.SCK_0*%
X265474028Y-187960000D03*
%TO.P,P1,5*%
%TO.N,/Level Shifters/PAN5V.MOSI_0*%
X265474028Y-185420000D03*
%TO.P,P1,6*%
%TO.N,/Level Shifters/PAN5V.MISO_0*%
X265474028Y-182880000D03*
%TO.P,P1,7*%
%TO.N,/Level Shifters/PAN5V.CS_00*%
X265474028Y-180340000D03*
%TO.P,P1,8*%
%TO.N,/Level Shifters/PAN5V.CS_01*%
X265474028Y-177800000D03*
%TO.P,P1,9*%
%TO.N,/Level Shifters/PAN5V.CS_02*%
X265474028Y-175260000D03*
%TO.P,P1,10*%
%TO.N,/Level Shifters/PAN5V.CS_03*%
X265474028Y-172720000D03*
%TO.P,P1,11*%
%TO.N,/Level Shifters/PAN5V.CS_04*%
X265474028Y-170180000D03*
%TO.P,P1,12*%
%TO.N,unconnected-(P1-Pad12)*%
X265474028Y-167640000D03*
%TO.P,P1,13*%
%TO.N,unconnected-(P1-Pad13)*%
X265474028Y-165100000D03*
%TO.P,P1,14*%
%TO.N,unconnected-(P1-Pad14)*%
X265474028Y-162560000D03*
%TO.P,P1,15*%
%TO.N,/Level Shifters/PAN5V.EXT_INT*%
X265474028Y-160020000D03*
%TD*%
D64*
%TO.P,P6,1*%
%TO.N,/Panel Headers/POW.5V_HDR_6*%
X110762063Y-118565053D03*
D19*
%TO.P,P6,2*%
%TO.N,GND*%
X109492063Y-120764758D03*
%TO.P,P6,3*%
%TO.N,/Panel Headers/RESET*%
X108222063Y-122964462D03*
%TO.P,P6,4*%
%TO.N,/Level Shifters/PAN5V.SCK_0*%
X106952063Y-125164167D03*
%TO.P,P6,5*%
%TO.N,/Level Shifters/PAN5V.MOSI_0*%
X105682063Y-127363871D03*
%TO.P,P6,6*%
%TO.N,/Level Shifters/PAN5V.MISO_0*%
X104412063Y-129563576D03*
%TO.P,P6,7*%
%TO.N,/Level Shifters/PAN5V.CS_25*%
X103142063Y-131763280D03*
%TO.P,P6,8*%
%TO.N,/Level Shifters/PAN5V.CS_26*%
X101872063Y-133962985D03*
%TO.P,P6,9*%
%TO.N,/Level Shifters/PAN5V.CS_27*%
X100602063Y-136162690D03*
%TO.P,P6,10*%
%TO.N,/Level Shifters/PAN5V.CS_28*%
X99332063Y-138362394D03*
%TO.P,P6,11*%
%TO.N,/Level Shifters/PAN5V.CS_29*%
X98062063Y-140562099D03*
%TO.P,P6,12*%
%TO.N,unconnected-(P6-Pad12)*%
X96792063Y-142761803D03*
%TO.P,P6,13*%
%TO.N,unconnected-(P6-Pad13)*%
X95522063Y-144961508D03*
%TO.P,P6,14*%
%TO.N,unconnected-(P6-Pad14)*%
X94252063Y-147161212D03*
%TO.P,P6,15*%
%TO.N,/Level Shifters/PAN5V.EXT_INT*%
X92982063Y-149360917D03*
%TD*%
D65*
%TO.P,R6,1*%
%TO.N,/Panel Headers/POW.5V_HDR_4*%
X184826000Y-75687471D03*
%TO.P,R6,2*%
%TO.N,GND*%
X184826000Y-78612471D03*
%TD*%
D66*
%TO.P,P8,1*%
%TO.N,/Panel Headers/POW.5V_HDR_8*%
X92982063Y-206239082D03*
D19*
%TO.P,P8,2*%
%TO.N,GND*%
X94252063Y-208438787D03*
%TO.P,P8,3*%
%TO.N,/Panel Headers/RESET*%
X95522063Y-210638491D03*
%TO.P,P8,4*%
%TO.N,/Level Shifters/PAN5V.SCK_1*%
X96792063Y-212838196D03*
%TO.P,P8,5*%
%TO.N,/Level Shifters/PAN5V.MOSI_1*%
X98062063Y-215037900D03*
%TO.P,P8,6*%
%TO.N,/Level Shifters/PAN5V.MISO_1*%
X99332063Y-217237605D03*
%TO.P,P8,7*%
%TO.N,/Level Shifters/PAN5V.CS_05*%
X100602063Y-219437309D03*
%TO.P,P8,8*%
%TO.N,/Level Shifters/PAN5V.CS_06*%
X101872063Y-221637014D03*
%TO.P,P8,9*%
X103142063Y-223836719D03*
%TO.P,P8,10*%
%TO.N,/Level Shifters/PAN5V.CS_08*%
X104412063Y-226036423D03*
%TO.P,P8,11*%
%TO.N,/Level Shifters/PAN5V.CS_09*%
X105682063Y-228236128D03*
%TO.P,P8,12*%
%TO.N,unconnected-(P8-Pad12)*%
X106952063Y-230435832D03*
%TO.P,P8,13*%
%TO.N,unconnected-(P8-Pad13)*%
X108222063Y-232635537D03*
%TO.P,P8,14*%
%TO.N,unconnected-(P8-Pad14)*%
X109492063Y-234835241D03*
%TO.P,P8,15*%
%TO.N,/Level Shifters/PAN5V.EXT_INT*%
X110762063Y-237034946D03*
%TD*%
D67*
%TO.P,R9,1*%
%TO.N,/Panel Headers/POW.5V_HDR_7*%
X75687471Y-170774000D03*
%TO.P,R9,2*%
%TO.N,GND*%
X78612471Y-170774000D03*
%TD*%
D68*
%TO.P,C23,1*%
%TO.N,VCC*%
X78695971Y-152870000D03*
%TO.P,C23,2*%
%TO.N,GND*%
X75095971Y-152870000D03*
%TD*%
D69*
%TO.P,C28,1*%
%TO.N,/Panel Headers/POW.5V_HDR_9*%
X116549315Y-261029298D03*
%TO.P,C28,2*%
%TO.N,GND*%
X118349315Y-257911606D03*
%TD*%
D33*
%TO.P,C25,1*%
%TO.N,VCC*%
X79508393Y-205762001D03*
%TO.P,C25,2*%
%TO.N,GND*%
X76390701Y-207562001D03*
%TD*%
D70*
%TO.P,R3,1*%
%TO.N,/Panel Headers/POW.5V_HDR_1*%
X279912528Y-184826000D03*
%TO.P,R3,2*%
%TO.N,GND*%
X276987528Y-184826000D03*
%TD*%
D17*
%TO.P,H2,1,1*%
%TO.N,GND*%
X292100000Y-63500000D03*
%TD*%
D35*
%TO.P,C4,1*%
%TO.N,+5V*%
X286110000Y-239080000D03*
%TO.P,C4,2*%
%TO.N,GND*%
X287660000Y-239080000D03*
%TD*%
D56*
%TO.P,C20,1*%
%TO.N,/Panel Headers/POW.5V_HDR_5*%
X136346655Y-83140701D03*
%TO.P,C20,2*%
%TO.N,GND*%
X138146655Y-86258393D03*
%TD*%
D71*
%TO.P,C30,1*%
%TO.N,/Panel Headers/POW.5V_HDR_10*%
X166370000Y-280504028D03*
%TO.P,C30,2*%
%TO.N,GND*%
X166370000Y-276904028D03*
%TD*%
D35*
%TO.P,C7,1*%
%TO.N,+3.3V*%
X273517000Y-293624000D03*
%TO.P,C7,2*%
%TO.N,GND*%
X275067000Y-293624000D03*
%TD*%
D16*
%TO.P,C1,1*%
%TO.N,+3.3V*%
X274688600Y-220522800D03*
%TO.P,C1,2*%
%TO.N,GND*%
X273138600Y-220522800D03*
%TD*%
D10*
%TO.P,C34,1*%
%TO.N,/Panel Headers/POW.5V_HDR_12*%
X261029298Y-239050684D03*
%TO.P,C34,2*%
%TO.N,GND*%
X257911606Y-237250684D03*
%TD*%
D69*
%TO.P,C15,1*%
%TO.N,VCC*%
X248942027Y-104438393D03*
%TO.P,C15,2*%
%TO.N,GND*%
X250742027Y-101320701D03*
%TD*%
D40*
%TO.P,C13,1*%
%TO.N,VCC*%
X276091606Y-149837998D03*
%TO.P,C13,2*%
%TO.N,GND*%
X279209298Y-148037998D03*
%TD*%
D68*
%TO.P,C12,1*%
%TO.N,/Panel Headers/POW.5V_HDR_1*%
X280504028Y-189230000D03*
%TO.P,C12,2*%
%TO.N,GND*%
X276904028Y-189230000D03*
%TD*%
D72*
%TO.P,U17,1,GND*%
%TO.N,GND*%
X254120591Y-240226916D03*
D73*
%TO.P,U17,2,VO*%
%TO.N,/Panel Headers/POW.5V_HDR_12*%
X258902865Y-245643774D03*
D72*
%TO.P,U17,3,VI*%
%TO.N,VCC*%
X251820591Y-244210632D03*
%TD*%
D74*
%TO.P,P2,1*%
%TO.N,/Panel Headers/POW.5V_HDR_2*%
X262617936Y-149360917D03*
D19*
%TO.P,P2,2*%
%TO.N,GND*%
X261347936Y-147161212D03*
%TO.P,P2,3*%
%TO.N,/Panel Headers/RESET*%
X260077936Y-144961508D03*
%TO.P,P2,4*%
%TO.N,/Level Shifters/PAN5V.SCK_0*%
X258807936Y-142761803D03*
%TO.P,P2,5*%
%TO.N,/Level Shifters/PAN5V.MOSI_0*%
X257537936Y-140562099D03*
%TO.P,P2,6*%
%TO.N,/Level Shifters/PAN5V.MISO_0*%
X256267936Y-138362394D03*
%TO.P,P2,7*%
%TO.N,/Level Shifters/PAN5V.CS_05*%
X254997936Y-136162690D03*
%TO.P,P2,8*%
%TO.N,/Level Shifters/PAN5V.CS_06*%
X253727936Y-133962985D03*
%TO.P,P2,9*%
X252457936Y-131763280D03*
%TO.P,P2,10*%
%TO.N,/Level Shifters/PAN5V.CS_08*%
X251187936Y-129563576D03*
%TO.P,P2,11*%
%TO.N,/Level Shifters/PAN5V.CS_09*%
X249917936Y-127363871D03*
%TO.P,P2,12*%
%TO.N,unconnected-(P2-Pad12)*%
X248647936Y-125164167D03*
%TO.P,P2,13*%
%TO.N,unconnected-(P2-Pad13)*%
X247377936Y-122964462D03*
%TO.P,P2,14*%
%TO.N,unconnected-(P2-Pad14)*%
X246107936Y-120764758D03*
%TO.P,P2,15*%
%TO.N,/Level Shifters/PAN5V.EXT_INT*%
X244837936Y-118565053D03*
%TD*%
D36*
%TO.P,J2,1,Pin_1*%
%TO.N,GND*%
X299500000Y-241016000D03*
%TO.P,J2,2,Pin_2*%
%TO.N,+3.3V*%
X299500000Y-240016000D03*
%TO.P,J2,3,Pin_3*%
%TO.N,/Teensy/SDA*%
X299500000Y-239016000D03*
%TO.P,J2,4,Pin_4*%
%TO.N,/Teensy/SCL*%
X299500000Y-238016000D03*
D37*
%TO.P,J2,MP*%
%TO.N,N/C*%
X303375000Y-242316000D03*
X303375000Y-236716000D03*
%TD*%
D75*
%TO.P,R8,1*%
%TO.N,/Panel Headers/POW.5V_HDR_6*%
X92880956Y-120659041D03*
%TO.P,R8,2*%
%TO.N,GND*%
X95414080Y-122121541D03*
%TD*%
D76*
%TO.P,U9,1,GND*%
%TO.N,GND*%
X193703000Y-80490971D03*
D77*
%TO.P,U9,2,VO*%
%TO.N,/Panel Headers/POW.5V_HDR_4*%
X196003000Y-73640971D03*
D76*
%TO.P,U9,3,VI*%
%TO.N,VCC*%
X198303000Y-80490971D03*
%TD*%
D78*
%TO.P,P3,1*%
%TO.N,/Panel Headers/POW.5V_HDR_3*%
X237034946Y-110762063D03*
D19*
%TO.P,P3,2*%
%TO.N,GND*%
X234835241Y-109492063D03*
%TO.P,P3,3*%
%TO.N,/Panel Headers/RESET*%
X232635537Y-108222063D03*
%TO.P,P3,4*%
%TO.N,/Level Shifters/PAN5V.SCK_0*%
X230435832Y-106952063D03*
%TO.P,P3,5*%
%TO.N,/Level Shifters/PAN5V.MOSI_0*%
X228236128Y-105682063D03*
%TO.P,P3,6*%
%TO.N,/Level Shifters/PAN5V.MISO_0*%
X226036423Y-104412063D03*
%TO.P,P3,7*%
%TO.N,/Level Shifters/PAN5V.CS_10*%
X223836719Y-103142063D03*
%TO.P,P3,8*%
%TO.N,/Level Shifters/PAN5V.CS_11*%
X221637014Y-101872063D03*
%TO.P,P3,9*%
%TO.N,/Level Shifters/PAN5V.CS_12*%
X219437309Y-100602063D03*
%TO.P,P3,10*%
%TO.N,/Level Shifters/PAN5V.CS_13*%
X217237605Y-99332063D03*
%TO.P,P3,11*%
%TO.N,/Level Shifters/PAN5V.CS_14*%
X215037900Y-98062063D03*
%TO.P,P3,12*%
%TO.N,unconnected-(P3-Pad12)*%
X212838196Y-96792063D03*
%TO.P,P3,13*%
%TO.N,unconnected-(P3-Pad13)*%
X210638491Y-95522063D03*
%TO.P,P3,14*%
%TO.N,unconnected-(P3-Pad14)*%
X208438787Y-94252063D03*
%TO.P,P3,15*%
%TO.N,/Level Shifters/PAN5V.EXT_INT*%
X206239082Y-92982063D03*
%TD*%
D79*
%TO.P,U7,1,GND*%
%TO.N,GND*%
X270023591Y-142917887D03*
D80*
%TO.P,U7,2,VO*%
%TO.N,/Panel Headers/POW.5V_HDR_2*%
X277105865Y-141484745D03*
D79*
%TO.P,U7,3,VI*%
%TO.N,VCC*%
X272323591Y-146901603D03*
%TD*%
D25*
%TO.P,U5,1,A1*%
%TO.N,/Level Shifters/PAN3V.CS_24*%
X189364200Y-294220800D03*
%TO.P,U5,2,VCCA*%
%TO.N,+3.3V*%
X189364200Y-293570800D03*
%TO.P,U5,3,A2*%
%TO.N,/Level Shifters/PAN3V.CS_25*%
X189364200Y-292920800D03*
%TO.P,U5,4,A3*%
%TO.N,/Level Shifters/PAN3V.CS_26*%
X189364200Y-292270800D03*
%TO.P,U5,5,A4*%
%TO.N,/Level Shifters/PAN3V.CS_27*%
X189364200Y-291620800D03*
%TO.P,U5,6,A5*%
%TO.N,/Level Shifters/PAN3V.CS_28*%
X189364200Y-290970800D03*
%TO.P,U5,7,A6*%
%TO.N,/Level Shifters/PAN3V.CS_29*%
X189364200Y-290320800D03*
%TO.P,U5,8,A7*%
%TO.N,unconnected-(U5-A7-Pad8)*%
X189364200Y-289670800D03*
%TO.P,U5,9,A8*%
%TO.N,/Level Shifters/PAN3V.EXT_INT*%
X189364200Y-289020800D03*
%TO.P,U5,10,OE*%
%TO.N,+3.3V*%
X189364200Y-288370800D03*
%TO.P,U5,11,GND*%
%TO.N,GND*%
X183639200Y-288370800D03*
%TO.P,U5,12,B8*%
%TO.N,/Level Shifters/PAN5V.EXT_INT*%
X183639200Y-289020800D03*
%TO.P,U5,13,B7*%
%TO.N,unconnected-(U5-B7-Pad13)*%
X183639200Y-289670800D03*
%TO.P,U5,14,B6*%
%TO.N,/Level Shifters/PAN5V.CS_29*%
X183639200Y-290320800D03*
%TO.P,U5,15,B5*%
%TO.N,/Level Shifters/PAN5V.CS_28*%
X183639200Y-290970800D03*
%TO.P,U5,16,B4*%
%TO.N,/Level Shifters/PAN5V.CS_27*%
X183639200Y-291620800D03*
%TO.P,U5,17,B3*%
%TO.N,/Level Shifters/PAN5V.CS_26*%
X183639200Y-292270800D03*
%TO.P,U5,18,B2*%
%TO.N,/Level Shifters/PAN5V.CS_25*%
X183639200Y-292920800D03*
%TO.P,U5,19,VCCB*%
%TO.N,+5V*%
X183639200Y-293570800D03*
%TO.P,U5,20,B1*%
%TO.N,/Level Shifters/PAN5V.CS_24*%
X183639200Y-294220800D03*
%TD*%
D81*
%TO.P,R2,1*%
%TO.N,GND*%
X295148000Y-168251500D03*
%TO.P,R2,2*%
%TO.N,Net-(Q2-G)*%
X295148000Y-170076500D03*
%TD*%
D82*
%TO.P,U14,1,GND*%
%TO.N,GND*%
X115373083Y-254120591D03*
D83*
%TO.P,U14,2,VO*%
%TO.N,/Panel Headers/POW.5V_HDR_9*%
X109956225Y-258902865D03*
D82*
%TO.P,U14,3,VI*%
%TO.N,VCC*%
X111389367Y-251820591D03*
%TD*%
D38*
%TO.P,C33,1*%
%TO.N,VCC*%
X251161606Y-248942027D03*
%TO.P,C33,2*%
%TO.N,GND*%
X254279298Y-250742027D03*
%TD*%
D71*
%TO.P,C17,1*%
%TO.N,VCC*%
X202730000Y-78695971D03*
%TO.P,C17,2*%
%TO.N,GND*%
X202730000Y-75095971D03*
%TD*%
D84*
%TO.N,+3.3V*%
X276530000Y-239080000D03*
X276520000Y-244710000D03*
X272312000Y-293642000D03*
X190704000Y-288384000D03*
X276510000Y-220523000D03*
X190704000Y-293571000D03*
X276555000Y-226105000D03*
X298965000Y-255460000D03*
X234840000Y-288464000D03*
X234830000Y-293714000D03*
X272302000Y-288424000D03*
%TO.N,+5V*%
X226200000Y-293684000D03*
X182274000Y-293564000D03*
X285060000Y-239065000D03*
X263782000Y-293654000D03*
X285140000Y-220524000D03*
D85*
%TO.N,VCC*%
X106934000Y-108052000D03*
D86*
X81534000Y-152908000D03*
D85*
X151232000Y-81940400D03*
X247548000Y-106883000D03*
D86*
X108052000Y-248768000D03*
X152857000Y-274269000D03*
D85*
X273863000Y-202743000D03*
X202743000Y-81584800D03*
D86*
X204419000Y-273812000D03*
D85*
X273710000Y-151181000D03*
D86*
X82042000Y-204318000D03*
D85*
X248768000Y-247548000D03*
D84*
%TO.N,/Teensy/SDA*%
X292705200Y-250229900D03*
%TO.N,/Teensy/SCL*%
X292015300Y-251914000D03*
%TO.N,/Teensy/A0*%
X290890300Y-250083100D03*
%TO.N,/Teensy/A1*%
X289128200Y-249402600D03*
%TO.N,/Level Shifters/PAN5V.SCK_1*%
X216154000Y-249769100D03*
X118912400Y-239769800D03*
%TO.N,/Level Shifters/PAN5V.SCK_0*%
X184048400Y-96672400D03*
%TO.N,/Level Shifters/PAN5V.CS_00*%
X201087200Y-254830500D03*
X247868200Y-243462700D03*
X208768200Y-254869300D03*
X92124000Y-178850400D03*
X264617200Y-231546400D03*
%TO.N,/Level Shifters/PAN5V.CS_01*%
X267169000Y-232841800D03*
X93446600Y-159004000D03*
%TO.N,/Level Shifters/PAN5V.CS_02*%
X267826500Y-233578400D03*
%TO.N,/Level Shifters/PAN5V.CS_03*%
X249631200Y-242900200D03*
X268326500Y-234683900D03*
%TO.N,/Level Shifters/PAN5V.CS_04*%
X281041800Y-227549600D03*
X282362600Y-241651700D03*
X266517700Y-227534100D03*
X110559250Y-228810150D03*
%TO.N,/Level Shifters/PAN5V.EXT_INT*%
X175793400Y-272542000D03*
X140395000Y-252309300D03*
X246829800Y-220548200D03*
X94763166Y-151585166D03*
%TO.N,GND*%
X92964000Y-178409600D03*
X183108600Y-95935800D03*
X263542000Y-287954000D03*
D85*
X281635000Y-146710000D03*
D84*
X257708400Y-208305400D03*
X222330000Y-293724000D03*
X100711000Y-148666200D03*
X259852000Y-293674000D03*
X144975000Y-102050000D03*
X255930400Y-151638000D03*
X267106400Y-234264200D03*
X228436966Y-240908366D03*
X282321000Y-243408200D03*
X264871200Y-278765000D03*
X176606200Y-272262600D03*
X289350000Y-220470000D03*
X245389400Y-223012000D03*
D86*
X103530000Y-256540000D03*
D84*
X249910600Y-280162000D03*
X300837600Y-252755400D03*
X272423434Y-287384034D03*
X289864800Y-249885200D03*
X218465400Y-288163000D03*
X241274600Y-280517600D03*
X133781800Y-276199600D03*
X190271400Y-281432000D03*
X200837800Y-253923800D03*
X210718400Y-283006800D03*
X235585000Y-287705800D03*
X167549300Y-262280400D03*
X238582200Y-280111200D03*
X271880000Y-220530000D03*
X186744800Y-292277800D03*
X254457200Y-280289000D03*
X242214400Y-242290600D03*
X193395600Y-274929600D03*
X229616000Y-291973000D03*
X186690000Y-283895800D03*
X294563800Y-228930200D03*
X94996000Y-249961400D03*
X261035800Y-224790000D03*
X178334000Y-293584000D03*
X274726400Y-222453200D03*
X248843800Y-243459000D03*
X187175000Y-298900000D03*
D85*
X256692000Y-252120000D03*
D84*
X110464600Y-229793800D03*
X133375400Y-279222200D03*
X226089268Y-288245400D03*
X272480000Y-239100000D03*
X263144000Y-280543000D03*
X194564000Y-293624000D03*
X275005800Y-235458000D03*
X191668400Y-288417000D03*
X139573000Y-291490400D03*
X292912800Y-251383800D03*
X280365200Y-228244400D03*
D86*
X152857000Y-283261000D03*
D85*
X146660000Y-74066400D03*
D86*
X208991000Y-281584000D03*
D84*
X263575800Y-231927400D03*
X288960000Y-239080000D03*
X271678400Y-213410800D03*
X221996000Y-300319200D03*
X240639600Y-129336800D03*
X162280600Y-92760800D03*
X257937000Y-279425400D03*
X275259800Y-225069400D03*
X148590000Y-102920800D03*
D85*
X98704400Y-103378000D03*
D84*
X236677200Y-280090100D03*
X227787200Y-110032800D03*
X208127600Y-255549400D03*
D85*
X283159000Y-202743000D03*
D84*
X234899200Y-280090100D03*
X150698200Y-103124000D03*
X94765300Y-152654000D03*
X271119600Y-224434400D03*
X228396800Y-278409400D03*
X238770000Y-293664000D03*
X247601500Y-263956800D03*
X255092200Y-277698200D03*
X185978800Y-280543000D03*
X231444800Y-279806400D03*
X263017000Y-290093400D03*
X93447100Y-157835600D03*
X202300367Y-257875567D03*
X296790000Y-167440000D03*
X190825000Y-298200000D03*
X168478200Y-92927300D03*
D85*
X252222000Y-98806000D03*
D84*
X297800000Y-232490000D03*
X188950600Y-274878800D03*
X114526534Y-228525866D03*
X279933400Y-224358200D03*
X139776200Y-251637800D03*
X90601800Y-253974600D03*
D86*
X74066400Y-208890000D03*
D84*
X119375000Y-234450000D03*
X186156600Y-294055800D03*
X242189000Y-235813600D03*
X279933400Y-250444000D03*
X110693200Y-275437600D03*
X260629400Y-279374600D03*
X215214200Y-249707400D03*
X127558800Y-280949400D03*
D85*
X202743000Y-72339200D03*
D84*
X247474266Y-219762866D03*
X221900000Y-243975000D03*
X266471400Y-228371400D03*
X297790000Y-241470000D03*
X279984200Y-220853000D03*
X181934000Y-287974000D03*
X240639600Y-254838200D03*
X271094200Y-282727400D03*
X266039600Y-266573000D03*
X285005000Y-244625000D03*
D86*
X72186800Y-152857000D03*
D84*
X276362000Y-293614000D03*
X282490000Y-226670000D03*
X284962600Y-255371600D03*
X226854200Y-260705600D03*
X220014800Y-282041600D03*
X270100000Y-284850000D03*
X228756539Y-282738954D03*
X244856000Y-280339800D03*
%TO.N,/Level Shifters/PAN5V.CS_05*%
X282338700Y-242562100D03*
X270694700Y-213310700D03*
X279515700Y-220138600D03*
%TO.N,/Level Shifters/PAN5V.CS_06*%
X263316000Y-231063800D03*
%TO.N,/Level Shifters/PAN5V.CS_08*%
X239505900Y-280238200D03*
X126867200Y-281554700D03*
%TO.N,/Level Shifters/PAN5V.CS_09*%
X228919700Y-292595500D03*
X242112800Y-234848400D03*
X201319775Y-257857904D03*
%TO.N,/Level Shifters/PAN5V.CS_10*%
X227503700Y-259982400D03*
X227503700Y-278415200D03*
X223403400Y-292182100D03*
X255859700Y-150633400D03*
X219134400Y-287705800D03*
%TO.N,/Level Shifters/PAN5V.CS_11*%
X241325400Y-242634800D03*
X256851300Y-208653400D03*
X237693200Y-280543000D03*
X226875000Y-109375000D03*
%TO.N,/Level Shifters/PAN5V.CS_12*%
X241058500Y-255723100D03*
X235737400Y-280593800D03*
%TO.N,/Level Shifters/PAN5V.CS_13*%
X138362400Y-291533400D03*
X233887850Y-280471450D03*
%TO.N,/Level Shifters/PAN5V.CS_14*%
X225547000Y-289792600D03*
X140562100Y-292089500D03*
X229743000Y-282651200D03*
X232507200Y-279661900D03*
%TO.N,/Level Shifters/PAN5V.CS_15*%
X162102800Y-93573600D03*
X187394300Y-291642800D03*
X186280400Y-279784900D03*
%TO.N,/Level Shifters/PAN5V.CS_16*%
X295503600Y-228930200D03*
X222659500Y-299720000D03*
X300101000Y-253187200D03*
X189298600Y-281617500D03*
%TO.N,/Level Shifters/PAN5V.CS_17*%
X258886850Y-293659450D03*
X191363600Y-281305000D03*
%TO.N,/Level Shifters/PAN5V.CS_18*%
X188043800Y-274901900D03*
X188043800Y-298907200D03*
%TO.N,/Level Shifters/PAN5V.CS_19*%
X167335200Y-92927300D03*
X192527000Y-274879400D03*
X191778600Y-298085800D03*
%TO.N,/Level Shifters/PAN5V.CS_20*%
X255789684Y-277074884D03*
X265068300Y-279583900D03*
X145821400Y-101600000D03*
%TO.N,/Level Shifters/PAN5V.CS_21*%
X240997266Y-128521934D03*
%TO.N,/Level Shifters/PAN5V.CS_22*%
X269051100Y-284910250D03*
X263878000Y-290067500D03*
X151561800Y-102184200D03*
%TO.N,/Level Shifters/PAN5V.CS_23*%
X258521200Y-278702000D03*
X258515500Y-267335000D03*
X149364700Y-103212900D03*
%TO.N,/Level Shifters/PAN5V.CS_24*%
X186723500Y-284702900D03*
X185496200Y-294564600D03*
X132629600Y-279685000D03*
X210743800Y-284022800D03*
%TO.N,/Level Shifters/PAN5V.CS_25*%
X109765300Y-275740700D03*
X245374800Y-223836700D03*
X219270900Y-282658500D03*
%TO.N,/Level Shifters/PAN5V.CS_26*%
X133959600Y-276997200D03*
X240172900Y-275534500D03*
X100161900Y-148012100D03*
%TO.N,/Level Shifters/PAN5V.CS_27*%
X89907700Y-254602100D03*
X240659700Y-274670700D03*
%TO.N,/Level Shifters/PAN5V.CS_28*%
X241391000Y-273958200D03*
X94361000Y-250571000D03*
%TO.N,/Level Shifters/PAN5V.CS_29*%
X119450884Y-233450216D03*
X177153768Y-271576800D03*
X199745600Y-253949200D03*
%TO.N,/Level Shifters/PAN5V.MOSI_1*%
X168198800Y-261670800D03*
X223164400Y-243960000D03*
X118516400Y-233603800D03*
%TO.N,/Level Shifters/PAN5V.MISO_1*%
X228469700Y-241824500D03*
X119251200Y-235363400D03*
%TO.N,/Level Shifters/PAN3V.RESET*%
X261623600Y-225433600D03*
%TO.N,/Level Shifters/PAN3V.SCK_0*%
X273913600Y-221792800D03*
%TO.N,/Level Shifters/PAN3V.MOSI_0*%
X275666400Y-222231000D03*
%TO.N,/Level Shifters/PAN3V.MISO_0*%
X272248900Y-224463800D03*
%TO.N,/Level Shifters/PAN3V.SCK_1*%
X270460700Y-225381300D03*
%TO.N,/Level Shifters/PAN3V.MOSI_1*%
X275664400Y-225879800D03*
X274138500Y-235475000D03*
%TO.N,/Level Shifters/PAN3V.MISO_1*%
X279883200Y-225205900D03*
X283318100Y-245862500D03*
%TO.N,/Level Shifters/PAN3V.CS_05*%
X285726400Y-254850200D03*
%TO.N,/Level Shifters/PAN3V.CS_06*%
X280822400Y-250469400D03*
%TO.N,/Level Shifters/PAN3V.CS_07*%
X278968200Y-250444000D03*
%TO.N,/Level Shifters/PAN3V.CS_08*%
X270332100Y-282346300D03*
X262940800Y-288696400D03*
%TO.N,/Level Shifters/PAN3V.CS_09*%
X262128000Y-281279600D03*
X266013100Y-267517500D03*
%TO.N,/Level Shifters/PAN3V.CS_10*%
X261841700Y-279483100D03*
%TO.N,/Level Shifters/PAN3V.CS_11*%
X259359400Y-279400000D03*
%TO.N,/Level Shifters/PAN3V.CS_12*%
X253444500Y-280282900D03*
%TO.N,/Level Shifters/PAN3V.CS_13*%
X250887300Y-280282900D03*
%TO.N,/Level Shifters/PAN3V.CS_14*%
X247459500Y-263080500D03*
X245746500Y-280516300D03*
%TO.N,/Level Shifters/PAN3V.CS_15*%
X242122200Y-280507400D03*
%TO.N,/Level Shifters/PAN3V.CS_24*%
X261664700Y-278052500D03*
%TO.N,/Panel Headers/RESET*%
X214503000Y-250418600D03*
X113751834Y-227751166D03*
X182199200Y-95522100D03*
%TD*%
D87*
%TO.N,+3.3V*%
X299500000Y-240016000D02*
X301391000Y-240016000D01*
X190704000Y-293571000D02*
X191696000Y-293571000D01*
X235896000Y-293693000D02*
X235915000Y-293674000D01*
X277992000Y-220523000D02*
X277993000Y-220524000D01*
X300725000Y-231005000D02*
X299500000Y-231005000D01*
X276936000Y-225724000D02*
X277993000Y-225724000D01*
X277878000Y-244265000D02*
X277878200Y-244265000D01*
X277878200Y-244265000D02*
X277878400Y-244264800D01*
X276520000Y-244710000D02*
X276965000Y-244265000D01*
X189364400Y-293571000D02*
X189364200Y-293570800D01*
X276965000Y-244265000D02*
X277878000Y-244265000D01*
X301400000Y-240025000D02*
X301400000Y-231680000D01*
X189364400Y-288371000D02*
X189364000Y-288371000D01*
X301400000Y-244560000D02*
X301400000Y-240025000D01*
X298965000Y-255460000D02*
X298965000Y-246995000D01*
X233402500Y-293693000D02*
X233402100Y-293692600D01*
X233402100Y-288493000D02*
X233402000Y-288493000D01*
X189364400Y-293571000D02*
X190704000Y-293571000D01*
X233402500Y-293693000D02*
X234830000Y-293693000D01*
X277863000Y-239080000D02*
X277870500Y-239072500D01*
X276530000Y-239080000D02*
X277863000Y-239080000D01*
X270845000Y-293642000D02*
X270845300Y-293642000D01*
X233402100Y-288492600D02*
X233402100Y-288493000D01*
X234811000Y-288493000D02*
X233402100Y-288493000D01*
X234840000Y-288464000D02*
X234811000Y-288493000D01*
X277870700Y-239072500D02*
X277878400Y-239064800D01*
X277870500Y-239072500D02*
X277870700Y-239072500D01*
X233402000Y-293693000D02*
X233402500Y-293693000D01*
X234830000Y-293693000D02*
X235896000Y-293693000D01*
X270845300Y-293642000D02*
X272312000Y-293642000D01*
X270845300Y-293642000D02*
X270845100Y-293641800D01*
X274689000Y-220523000D02*
X274688800Y-220523000D01*
X191696000Y-293571000D02*
X191729000Y-293604000D01*
X273499000Y-293642000D02*
X273517000Y-293624000D01*
X270845300Y-288442000D02*
X270845100Y-288441800D01*
X274688800Y-220523000D02*
X274688600Y-220522800D01*
X190704000Y-288384000D02*
X190691000Y-288371000D01*
X276555000Y-226105000D02*
X276936000Y-225724000D01*
X189364000Y-293571000D02*
X189364400Y-293571000D01*
X189364400Y-288371000D02*
X189364200Y-288370800D01*
X272302000Y-288424000D02*
X272284000Y-288442000D01*
X234830000Y-293714000D02*
X234830000Y-293693000D01*
X301400000Y-231680000D02*
X300725000Y-231005000D01*
X276510000Y-220523000D02*
X277992000Y-220523000D01*
X190691000Y-288371000D02*
X189364400Y-288371000D01*
X272312000Y-293642000D02*
X273499000Y-293642000D01*
X272284000Y-288442000D02*
X270845300Y-288442000D01*
X275320000Y-239080000D02*
X276530000Y-239080000D01*
X274689000Y-220523000D02*
X276510000Y-220523000D01*
X270845300Y-288442000D02*
X270845000Y-288442000D01*
X277870500Y-239072500D02*
X277878000Y-239065000D01*
X298965000Y-246995000D02*
X301400000Y-244560000D01*
X301391000Y-240016000D02*
X301400000Y-240025000D01*
%TO.N,+5V*%
X227672500Y-293688500D02*
X227668000Y-293684000D01*
X227673000Y-293688500D02*
X227677100Y-293692600D01*
X183639200Y-293570800D02*
X183639000Y-293571000D01*
X181129000Y-293564000D02*
X182274000Y-293564000D01*
X283603000Y-239065000D02*
X283603600Y-239065000D01*
X183639000Y-293571000D02*
X183636000Y-293574000D01*
X227668000Y-293684000D02*
X226200000Y-293684000D01*
X283603600Y-239065000D02*
X285060000Y-239065000D01*
X227677000Y-293693000D02*
X227672500Y-293688500D01*
X227666000Y-293704000D02*
X227677000Y-293693000D01*
X265108000Y-293654000D02*
X265120000Y-293642000D01*
X225130000Y-293684000D02*
X226200000Y-293684000D01*
X263782000Y-293654000D02*
X265108000Y-293654000D01*
X285060000Y-239065000D02*
X286095000Y-239065000D01*
X182274000Y-293564000D02*
X183632000Y-293564000D01*
X265120000Y-293642000D02*
X265116000Y-293638000D01*
X227672500Y-293688500D02*
X227673000Y-293688500D01*
X262687000Y-293654000D02*
X263782000Y-293654000D01*
X286095000Y-239065000D02*
X286110000Y-239080000D01*
X265116300Y-293638000D02*
X265120100Y-293641800D01*
X183632000Y-293564000D02*
X183639000Y-293571000D01*
X283603600Y-239065000D02*
X283603400Y-239064800D01*
X283718000Y-220524000D02*
X285140000Y-220524000D01*
X265116000Y-293638000D02*
X265112000Y-293634000D01*
X286447000Y-220524000D02*
X286499000Y-220472000D01*
X265116000Y-293638000D02*
X265116300Y-293638000D01*
X285140000Y-220524000D02*
X286447000Y-220524000D01*
D88*
%TO.N,VCC*%
X108052000Y-248768000D02*
X106709900Y-251072800D01*
X105686000Y-107355000D02*
X105135300Y-107355000D01*
X205762000Y-276091700D02*
X205761900Y-276091800D01*
X276091700Y-149838000D02*
X276091800Y-149838100D01*
X152870000Y-276904000D02*
X152857000Y-274269000D01*
X251161700Y-248942000D02*
X251109800Y-248890100D01*
X104438000Y-106658000D02*
X105686000Y-107355000D01*
X251072800Y-248890100D02*
X248768000Y-247548000D01*
X202730000Y-78696000D02*
X202743000Y-81584800D01*
X251109800Y-248890100D02*
X251072800Y-248890100D01*
X106709900Y-251072800D02*
X106658000Y-251162000D01*
X276092000Y-149838000D02*
X276091800Y-149838100D01*
X204419000Y-273812000D02*
X205761900Y-276091800D01*
X276091800Y-149838100D02*
X273710000Y-151181000D01*
X149838000Y-79508400D02*
X151232000Y-81940400D01*
X105686000Y-107355000D02*
X106934000Y-108052000D01*
X79508300Y-206381200D02*
X79508300Y-205762000D01*
X248942000Y-104438300D02*
X248942000Y-104475900D01*
X106658000Y-251124700D02*
X106709900Y-251072800D01*
X105135300Y-107355000D02*
X104438300Y-106658000D01*
X79508400Y-205762000D02*
X82042000Y-204318000D01*
X106658000Y-251161700D02*
X106658000Y-251124700D01*
X248942000Y-104438000D02*
X248891700Y-104526200D01*
X248891700Y-104526200D02*
X247548000Y-106883000D01*
X248942000Y-104475900D02*
X248891700Y-104526200D01*
X276904000Y-202730000D02*
X273863000Y-202743000D01*
X78696000Y-152870000D02*
X81534000Y-152908000D01*
X251162000Y-248942000D02*
X251072800Y-248890100D01*
X205761900Y-276091800D02*
X205762000Y-276092000D01*
D87*
%TO.N,/Teensy/SDA*%
X297909000Y-239016000D02*
X299500000Y-239016000D01*
X292705200Y-244219800D02*
X292705200Y-250229900D01*
X297909000Y-239016000D02*
X292705200Y-244219800D01*
%TO.N,/Teensy/SCL*%
X297459000Y-238016000D02*
X292015300Y-243459700D01*
X292015300Y-243459700D02*
X292015300Y-251914000D01*
X299500000Y-238016000D02*
X297459000Y-238016000D01*
%TO.N,/Teensy/A0*%
X297820000Y-230005000D02*
X299500000Y-230005000D01*
X290890300Y-236934700D02*
X297820000Y-230005000D01*
X290890300Y-250083100D02*
X290890300Y-236934700D01*
%TO.N,/Teensy/A1*%
X289128200Y-249402600D02*
X290251500Y-248279300D01*
X290251500Y-236198500D02*
X297445000Y-229005000D01*
X299062200Y-229005000D02*
X299625000Y-229005000D01*
X297445000Y-229005000D02*
X299500000Y-229005000D01*
X290251500Y-248279300D02*
X290251500Y-236198500D01*
D88*
%TO.N,/Panel Headers/POW.5V_HDR_1*%
X279912500Y-184826000D02*
X280504000Y-189230000D01*
D87*
%TO.N,/Level Shifters/PAN5V.SCK_1*%
X150774700Y-261467900D02*
X151917400Y-262610600D01*
X206570900Y-258807900D02*
X202971400Y-262407400D01*
X125164200Y-248647900D02*
X125164200Y-250691000D01*
X108805600Y-229530600D02*
X106125000Y-226850000D01*
X221284800Y-244652800D02*
X227982800Y-244652800D01*
X145389100Y-261279500D02*
X146495600Y-260173000D01*
X125164200Y-250691000D02*
X135752700Y-261279500D01*
X108805600Y-230116000D02*
X108805600Y-229530600D01*
X118459400Y-239769800D02*
X108805600Y-230116000D01*
X118912400Y-239769800D02*
X118459400Y-239769800D01*
X148332900Y-260173000D02*
X149627800Y-261467900D01*
X135752700Y-261279500D02*
X145389100Y-261279500D01*
X103939600Y-227226800D02*
X96792100Y-220079300D01*
X285364000Y-224604600D02*
X284533400Y-223774000D01*
X164776600Y-262610600D02*
X167640000Y-265474000D01*
X285364000Y-226187300D02*
X285364000Y-224604600D01*
X216154000Y-249769100D02*
X216168500Y-249769100D01*
X105275000Y-226850000D02*
X104898200Y-227226800D01*
X212838200Y-258807900D02*
X206570900Y-258807900D01*
X149627800Y-261467900D02*
X150774700Y-261467900D01*
X281528900Y-230022400D02*
X285364000Y-226187300D01*
X227982800Y-244652800D02*
X242199800Y-230435800D01*
X202971400Y-262407400D02*
X170706600Y-262407400D01*
X170706600Y-262407400D02*
X167640000Y-265474000D01*
X216168500Y-249769100D02*
X221284800Y-244652800D01*
X261847500Y-230022400D02*
X281528900Y-230022400D01*
X96792100Y-220079300D02*
X96792100Y-212838200D01*
X146495600Y-260173000D02*
X148332900Y-260173000D01*
X242199800Y-230435800D02*
X261434100Y-230435800D01*
X104898200Y-227226800D02*
X103939600Y-227226800D01*
X106125000Y-226850000D02*
X105275000Y-226850000D01*
X151917400Y-262610600D02*
X164776600Y-262610600D01*
X261434100Y-230435800D02*
X261847500Y-230022400D01*
X284533400Y-223774000D02*
X283718000Y-223774000D01*
%TO.N,/Level Shifters/PAN5V.SCK_0*%
X251368500Y-132953700D02*
X245226700Y-126811900D01*
X201047200Y-89941400D02*
X198304000Y-92684600D01*
X245226700Y-123329800D02*
X230435800Y-108538900D01*
X230435800Y-104731200D02*
X215646000Y-89941400D01*
X122986800Y-106403700D02*
X124154900Y-107571800D01*
X215646000Y-89941400D02*
X201047200Y-89941400D01*
X190518600Y-92684600D02*
X187960000Y-90126000D01*
X124154900Y-109347300D02*
X108338000Y-125164200D01*
X198304000Y-92684600D02*
X190518600Y-92684600D01*
X283718000Y-221174000D02*
X282988800Y-221174000D01*
X124154900Y-107571800D02*
X124154900Y-109347300D01*
X264249100Y-202434300D02*
X264249100Y-189184900D01*
X258807900Y-137409400D02*
X254169800Y-132771300D01*
X131528500Y-96792100D02*
X122986800Y-105333800D01*
X253108200Y-132953700D02*
X251368500Y-132953700D01*
X282988800Y-221174000D02*
X264249100Y-202434300D01*
X258807900Y-142761800D02*
X258807900Y-137409400D01*
X122986800Y-105333800D02*
X122986800Y-106403700D01*
X184048400Y-96672400D02*
X183928700Y-96792100D01*
X230435800Y-108538900D02*
X230435800Y-104731200D01*
X253290600Y-132771300D02*
X253108200Y-132953700D01*
X108338000Y-125164200D02*
X106952100Y-125164200D01*
X183928700Y-96792100D02*
X131528500Y-96792100D01*
X264249100Y-189184900D02*
X265474000Y-187960000D01*
X245226700Y-126811900D02*
X245226700Y-123329800D01*
X254169800Y-132771300D02*
X253290600Y-132771300D01*
%TO.N,/Level Shifters/PAN5V.MOSI_0*%
X257537900Y-137071500D02*
X255477200Y-135010800D01*
X255477200Y-135010800D02*
X254520900Y-135010800D01*
X125679200Y-105626400D02*
X126354600Y-106301800D01*
X283718000Y-221824000D02*
X282893000Y-221824000D01*
X131934900Y-98062100D02*
X125679200Y-104317800D01*
X228236100Y-107091100D02*
X228236100Y-104207900D01*
X254520900Y-135010800D02*
X254352200Y-135179500D01*
X199872600Y-93345000D02*
X188639000Y-93345000D01*
X215036400Y-91008200D02*
X202209400Y-91008200D01*
X257537900Y-140562100D02*
X257537900Y-137071500D01*
X263735600Y-202666600D02*
X263735600Y-187158400D01*
X107332100Y-127363900D02*
X105682100Y-127363900D01*
X140562100Y-98062100D02*
X131934900Y-98062100D01*
X230414200Y-109269200D02*
X228236100Y-107091100D01*
X125679200Y-104317800D02*
X125679200Y-105626400D01*
X282893000Y-221824000D02*
X263735600Y-202666600D01*
X252552900Y-135179500D02*
X230414200Y-113040800D01*
X230414200Y-113040800D02*
X230414200Y-109269200D01*
X126354600Y-108341400D02*
X107332100Y-127363900D01*
X188639000Y-93345000D02*
X185420000Y-90126000D01*
X263735600Y-187158400D02*
X265474000Y-185420000D01*
X202209400Y-91008200D02*
X199872600Y-93345000D01*
X228236100Y-104207900D02*
X215036400Y-91008200D01*
X126354600Y-106301800D02*
X126354600Y-108341400D01*
X254352200Y-135179500D02*
X252552900Y-135179500D01*
%TO.N,/Level Shifters/PAN5V.MISO_0*%
X138362400Y-99332100D02*
X132978400Y-99332100D01*
X263222100Y-185131900D02*
X263222100Y-202901000D01*
X128513886Y-104991386D02*
X128513886Y-107579114D01*
X106529400Y-129563600D02*
X104412100Y-129563600D01*
X256267900Y-138362400D02*
X254669000Y-138362400D01*
X132978400Y-99332100D02*
X128371900Y-103938600D01*
X186988000Y-94234000D02*
X182880000Y-90126000D01*
X203749800Y-91830000D02*
X201345800Y-94234000D01*
X214160800Y-91830000D02*
X203749800Y-91830000D01*
X254669000Y-138362400D02*
X229851200Y-113544600D01*
X229851200Y-113544600D02*
X229851200Y-109476900D01*
X128371900Y-104849400D02*
X128513886Y-104991386D01*
X226036400Y-103705600D02*
X214160800Y-91830000D01*
X201345800Y-94234000D02*
X186988000Y-94234000D01*
X263222100Y-202901000D02*
X282795100Y-222474000D01*
X128513886Y-107579114D02*
X106529400Y-129563600D01*
X282795100Y-222474000D02*
X283718000Y-222474000D01*
X265474000Y-182880000D02*
X263222100Y-185131900D01*
X226036400Y-105662100D02*
X226036400Y-103705600D01*
X128371900Y-103938600D02*
X128371900Y-104849400D01*
X229851200Y-109476900D02*
X226036400Y-105662100D01*
%TO.N,/Level Shifters/PAN5V.CS_00*%
X201087200Y-254830500D02*
X201054100Y-254863600D01*
X233431100Y-243462700D02*
X247868200Y-243462700D01*
X152247600Y-254863600D02*
X147980400Y-250596400D01*
X145262600Y-250596400D02*
X139776200Y-245110000D01*
X264980200Y-231183400D02*
X276372000Y-231183400D01*
X139776200Y-245110000D02*
X134772400Y-245110000D01*
X208768200Y-254869300D02*
X213563500Y-254869300D01*
X223497300Y-248129900D02*
X228763900Y-248129900D01*
X215123200Y-253309600D02*
X217892494Y-253309600D01*
X201054100Y-254863600D02*
X152247600Y-254863600D01*
X219578800Y-252048400D02*
X223497300Y-248129900D01*
X97833100Y-208170700D02*
X97833100Y-184559500D01*
X264617200Y-231546400D02*
X264980200Y-231183400D01*
X97833100Y-184559500D02*
X92124000Y-178850400D01*
X147980400Y-250596400D02*
X145262600Y-250596400D01*
X276372000Y-231183400D02*
X283603400Y-238414800D01*
X228763900Y-248129900D02*
X233431100Y-243462700D01*
X219153694Y-252048400D02*
X219578800Y-252048400D01*
X217892494Y-253309600D02*
X219153694Y-252048400D01*
X134772400Y-245110000D02*
X97833100Y-208170700D01*
X213563500Y-254869300D02*
X215123200Y-253309600D01*
%TO.N,/Level Shifters/PAN5V.CS_01*%
X157075900Y-99205200D02*
X208018800Y-99205200D01*
X282863900Y-239714800D02*
X283603400Y-239714800D01*
X253646700Y-144833100D02*
X253646700Y-157099100D01*
X261930500Y-174256500D02*
X265474000Y-177800000D01*
X208018800Y-99205200D02*
X253646700Y-144833100D01*
X253646700Y-157099100D02*
X261930500Y-165382900D01*
X261930500Y-165382900D02*
X261930500Y-174256500D01*
X107108200Y-134623600D02*
X135102600Y-106629200D01*
X275965500Y-232816400D02*
X282863900Y-239714800D01*
X107108200Y-145240800D02*
X107108200Y-134623600D01*
X267194400Y-232816400D02*
X275965500Y-232816400D01*
X135102600Y-106629200D02*
X149651900Y-106629200D01*
X149651900Y-106629200D02*
X157075900Y-99205200D01*
X93446600Y-159004000D02*
X93446600Y-158902400D01*
X267169000Y-232841800D02*
X267194400Y-232816400D01*
X93446600Y-158902400D02*
X107108200Y-145240800D01*
%TO.N,/Level Shifters/PAN5V.CS_02*%
X90126000Y-179926600D02*
X92769400Y-177283200D01*
X93177861Y-157185600D02*
X93245700Y-157185600D01*
X92769400Y-177283200D02*
X92769400Y-157594061D01*
X92769400Y-157594061D02*
X93177861Y-157185600D01*
X105520100Y-144911200D02*
X105520100Y-134763900D01*
X134670800Y-105613200D02*
X149631400Y-105613200D01*
X156768800Y-98475800D02*
X208559400Y-98475800D01*
X262682400Y-172468400D02*
X265474000Y-175260000D01*
X262682400Y-164994000D02*
X262682400Y-172468400D01*
X93245700Y-157185600D02*
X105520100Y-144911200D01*
X267826500Y-233578400D02*
X276003100Y-233578400D01*
X149631400Y-105613200D02*
X156768800Y-98475800D01*
X208559400Y-98475800D02*
X254304800Y-144221200D01*
X282789500Y-240364800D02*
X283603400Y-240364800D01*
X254304800Y-156616400D02*
X262682400Y-164994000D01*
X90126000Y-180340000D02*
X90126000Y-179926600D01*
X254304800Y-144221200D02*
X254304800Y-156616400D01*
X276003100Y-233578400D02*
X282789500Y-240364800D01*
X105520100Y-134763900D02*
X134670800Y-105613200D01*
%TO.N,/Level Shifters/PAN5V.CS_03*%
X125178800Y-243128800D02*
X115192600Y-243128800D01*
X135296700Y-253096700D02*
X134777900Y-252577900D01*
X134627900Y-252577900D02*
X125178800Y-243128800D01*
X268326500Y-234683900D02*
X276398800Y-234683900D01*
X211225900Y-253715400D02*
X207379773Y-253715400D01*
X94368900Y-209951100D02*
X95466300Y-208853700D01*
X234834800Y-240639600D02*
X228484800Y-246989600D01*
X212656700Y-252284600D02*
X211225900Y-253715400D01*
X145654800Y-256900000D02*
X141851500Y-253096700D01*
X202472373Y-258622800D02*
X151101900Y-258622800D01*
X217495500Y-252284600D02*
X212656700Y-252284600D01*
X95466300Y-208853700D02*
X95466300Y-188220300D01*
X207379773Y-253715400D02*
X202472373Y-258622800D01*
X276398800Y-234683900D02*
X282729700Y-241014800D01*
X247370600Y-240639600D02*
X234834800Y-240639600D01*
X228484800Y-246989600D02*
X222790500Y-246989600D01*
X134777900Y-252577900D02*
X134627900Y-252577900D01*
X149379100Y-256900000D02*
X145654800Y-256900000D01*
X115192600Y-243128800D02*
X94368900Y-222305100D01*
X151101900Y-258622800D02*
X149379100Y-256900000D01*
X141851500Y-253096700D02*
X135296700Y-253096700D01*
X249631200Y-242900200D02*
X247370600Y-240639600D01*
X94368900Y-222305100D02*
X94368900Y-209951100D01*
X282729700Y-241014800D02*
X283603400Y-241014800D01*
X222790500Y-246989600D02*
X217495500Y-252284600D01*
X95466300Y-188220300D02*
X90126000Y-182880000D01*
%TO.N,/Level Shifters/PAN5V.CS_04*%
X110559250Y-228810150D02*
X121779100Y-240030000D01*
X203943700Y-253605800D02*
X204737200Y-253605800D01*
X206242700Y-252100300D02*
X209824100Y-252100300D01*
X283603400Y-241664800D02*
X282375700Y-241664800D01*
X149500600Y-254892400D02*
X151104900Y-256496700D01*
X244174400Y-227041800D02*
X250564300Y-227041800D01*
X133344200Y-246888000D02*
X139242800Y-246888000D01*
X250564300Y-227041800D02*
X251056600Y-227534100D01*
X251056600Y-227534100D02*
X266517700Y-227534100D01*
X204737200Y-253605800D02*
X206242700Y-252100300D01*
X227905700Y-243310500D02*
X244174400Y-227041800D01*
X139242800Y-246888000D02*
X147247200Y-254892400D01*
X266517700Y-227534100D02*
X281026300Y-227534100D01*
X221439500Y-243310500D02*
X227905700Y-243310500D01*
X281026300Y-227534100D02*
X281041800Y-227549600D01*
X212979000Y-248945400D02*
X215804600Y-248945400D01*
X121779100Y-240030000D02*
X126486200Y-240030000D01*
X282375700Y-241664800D02*
X282362600Y-241651700D01*
X126486200Y-240030000D02*
X133344200Y-246888000D01*
X147247200Y-254892400D02*
X149500600Y-254892400D01*
X201052800Y-256496700D02*
X203943700Y-253605800D01*
X209824100Y-252100300D02*
X212979000Y-248945400D01*
X215804600Y-248945400D02*
X221439500Y-243310500D01*
X151104900Y-256496700D02*
X201052800Y-256496700D01*
%TO.N,/Level Shifters/PAN5V.EXT_INT*%
X161467800Y-94615000D02*
X182211339Y-94615000D01*
X125526800Y-242366800D02*
X135469300Y-252309300D01*
X261277800Y-134291900D02*
X261277800Y-145602300D01*
X260196000Y-154742000D02*
X265474000Y-160020000D01*
X160020000Y-93167200D02*
X161467800Y-94615000D01*
X184392900Y-289020800D02*
X183639200Y-289020800D01*
X246829800Y-220548200D02*
X247608171Y-220548200D01*
X248124266Y-220032105D02*
X248124266Y-219265973D01*
X160020000Y-90126000D02*
X160020000Y-93167200D01*
X261277800Y-145602300D02*
X260196000Y-146684100D01*
X110762100Y-237034900D02*
X116094000Y-242366800D01*
X182719339Y-95123000D02*
X204098200Y-95123000D01*
X245551000Y-118565100D02*
X261277800Y-134291900D01*
X247608171Y-220548200D02*
X248124266Y-220032105D01*
X135469300Y-252309300D02*
X140395000Y-252309300D01*
X184758900Y-284174500D02*
X184758900Y-288654800D01*
X248124266Y-219265973D02*
X261151139Y-206239100D01*
X116094000Y-242366800D02*
X125526800Y-242366800D01*
X182211339Y-94615000D02*
X182719339Y-95123000D01*
X244837900Y-118565100D02*
X245551000Y-118565100D01*
X184758900Y-288654800D02*
X184392900Y-289020800D01*
X175793400Y-275209000D02*
X184758900Y-284174500D01*
X92982100Y-149804100D02*
X92982100Y-149360900D01*
X204098200Y-95123000D02*
X206239100Y-92982100D01*
X260196000Y-146684100D02*
X260196000Y-154742000D01*
X94763166Y-151585166D02*
X92982100Y-149804100D01*
X175793400Y-272542000D02*
X175793400Y-275209000D01*
X261151139Y-206239100D02*
X262617900Y-206239100D01*
D88*
%TO.N,/Panel Headers/POW.5V_HDR_2*%
X269745062Y-132828450D02*
X272459346Y-136346700D01*
D87*
%TO.N,GND*%
X292343000Y-168214000D02*
X295110000Y-168214000D01*
D88*
X254279700Y-250742400D02*
X256692000Y-252120000D01*
X184826000Y-78625000D02*
X189230000Y-78696000D01*
X78696000Y-166370000D02*
X78625000Y-170774000D01*
D87*
X237465000Y-293674000D02*
X238760000Y-293674000D01*
X272500000Y-239080000D02*
X272480000Y-239100000D01*
X276352000Y-293624000D02*
X276362000Y-293614000D01*
D88*
X254279000Y-250742000D02*
X254279700Y-250742400D01*
D87*
X282836000Y-225724000D02*
X283718000Y-225724000D01*
X273138400Y-220523000D02*
X273138600Y-220522800D01*
X283603600Y-244265000D02*
X283603000Y-244265000D01*
X120769000Y-259361200D02*
X121313900Y-259361200D01*
X183639000Y-288371000D02*
X182331000Y-288371000D01*
X208276500Y-280396500D02*
X207562000Y-279682000D01*
X259043500Y-235361500D02*
X260175100Y-234229900D01*
D88*
X233472000Y-95424900D02*
X235361200Y-96556500D01*
X250742000Y-101321000D02*
X251482000Y-100063500D01*
X235361200Y-96556500D02*
X237250500Y-97688100D01*
D87*
X261137000Y-293654000D02*
X259872000Y-293654000D01*
X265120000Y-288442000D02*
X265119900Y-288442000D01*
X227677000Y-288493000D02*
X227676700Y-288493000D01*
D88*
X258477800Y-236306200D02*
X257912000Y-237251000D01*
X75096000Y-152870000D02*
X72186800Y-152857000D01*
D87*
X258477800Y-236306200D02*
X257911700Y-236872300D01*
D88*
X280504000Y-202730000D02*
X283159000Y-202743000D01*
X120769000Y-259361200D02*
X122128000Y-260175000D01*
D87*
X100580700Y-104118000D02*
X101320700Y-104858000D01*
X96273700Y-120710900D02*
X95424900Y-121559700D01*
X234603800Y-96556500D02*
X233472200Y-95424900D01*
D88*
X76390700Y-207562000D02*
X74066400Y-208890000D01*
X237250500Y-97688100D02*
X237251000Y-97688400D01*
D87*
X121313900Y-259361200D02*
X122127800Y-260175100D01*
X295978000Y-168252000D02*
X296790000Y-167440000D01*
X104858000Y-254745500D02*
X104858000Y-254279300D01*
X104194000Y-255409500D02*
X104858000Y-254745500D01*
X284645000Y-244265000D02*
X283603600Y-244265000D01*
X218137100Y-268657900D02*
X217453300Y-269341700D01*
D88*
X260175000Y-233472000D02*
X259043500Y-235361500D01*
D87*
X95424900Y-121559700D02*
X95424900Y-122127800D01*
X238760000Y-293674000D02*
X238770000Y-293664000D01*
X194544000Y-293604000D02*
X194564000Y-293624000D01*
D88*
X100012700Y-104118000D02*
X98704400Y-103378000D01*
X276904000Y-189230000D02*
X276975000Y-184826000D01*
X86258400Y-217453000D02*
X88398900Y-221303000D01*
D87*
X285005000Y-244625000D02*
X284645000Y-244265000D01*
X178354000Y-293564000D02*
X178334000Y-293584000D01*
X193279000Y-293604000D02*
X194544000Y-293604000D01*
X295129000Y-168233000D02*
X295129500Y-168233000D01*
X295129500Y-168233000D02*
X295148000Y-168251500D01*
X250742000Y-100803500D02*
X250742000Y-101320700D01*
X271887000Y-220523000D02*
X271880000Y-220530000D01*
X182331000Y-288371000D02*
X181934000Y-287974000D01*
D88*
X101321000Y-104858000D02*
X100012700Y-104118000D01*
D87*
X100012700Y-104118000D02*
X100580700Y-104118000D01*
X288049000Y-220472000D02*
X289348000Y-220472000D01*
X275067000Y-293624000D02*
X276352000Y-293624000D01*
X222370000Y-293684000D02*
X222330000Y-293724000D01*
X264030000Y-288442000D02*
X263542000Y-287954000D01*
D88*
X218683200Y-268657900D02*
X217453000Y-269342000D01*
X148038000Y-76390700D02*
X146660000Y-74066400D01*
D87*
X298244000Y-241016000D02*
X299655000Y-241016000D01*
X235361200Y-96556500D02*
X234603800Y-96556500D01*
X254279700Y-250742400D02*
X254279300Y-250742000D01*
X282490000Y-226670000D02*
X282490000Y-226070000D01*
X299500000Y-232005000D02*
X298285000Y-232005000D01*
D88*
X259043500Y-235361500D02*
X258477800Y-236306200D01*
D87*
X218683200Y-268657900D02*
X218137100Y-268657900D01*
D88*
X279209000Y-148038000D02*
X279209700Y-148037600D01*
D87*
X273138400Y-220523000D02*
X271887000Y-220523000D01*
X295129000Y-168233000D02*
X295148000Y-168252000D01*
D88*
X118349000Y-257912000D02*
X120769000Y-259361200D01*
D87*
X138646500Y-85758500D02*
X138146700Y-86258300D01*
D88*
X279209700Y-148037600D02*
X281635000Y-146710000D01*
X221302800Y-267201100D02*
X221303000Y-267201000D01*
D87*
X295110000Y-168214000D02*
X295129000Y-168233000D01*
D88*
X251482000Y-100063500D02*
X252222000Y-98806000D01*
X218683200Y-268657900D02*
X221302800Y-267201100D01*
D87*
X179579000Y-293564000D02*
X178354000Y-293564000D01*
D88*
X166370000Y-276904000D02*
X170774000Y-276975000D01*
X202730000Y-75096000D02*
X202743000Y-72339200D01*
D87*
X226089268Y-288245400D02*
X226336867Y-288493000D01*
D88*
X97122600Y-119293600D02*
X97688400Y-118349000D01*
X96273700Y-120710900D02*
X97122600Y-119293600D01*
D87*
X251482000Y-100063500D02*
X250742000Y-100803500D01*
X265119900Y-288442000D02*
X264030000Y-288442000D01*
D88*
X104194000Y-255409500D02*
X103530000Y-256540000D01*
D87*
X259872000Y-293654000D02*
X259852000Y-293674000D01*
D88*
X104858000Y-254279000D02*
X104194000Y-255409500D01*
D87*
X283603600Y-244265000D02*
X283603400Y-244264800D01*
X279209700Y-148037600D02*
X279209300Y-148038000D01*
D88*
X134297000Y-88398900D02*
X138147000Y-86258400D01*
D87*
X289348000Y-220472000D02*
X289350000Y-220470000D01*
X273139000Y-220523000D02*
X273138400Y-220523000D01*
X183639000Y-288371000D02*
X183639200Y-288370800D01*
X265119900Y-288442000D02*
X265120100Y-288441800D01*
X257911700Y-236872300D02*
X257911700Y-237250700D01*
D88*
X208276500Y-280396500D02*
X208991000Y-281584000D01*
D87*
X297790000Y-241470000D02*
X298244000Y-241016000D01*
X223580000Y-293684000D02*
X222370000Y-293684000D01*
D88*
X267211938Y-134290950D02*
X269341654Y-138146700D01*
D87*
X295148000Y-168252000D02*
X295978000Y-168252000D01*
D88*
X207562000Y-279209000D02*
X208276500Y-280396500D01*
D87*
X273770000Y-239080000D02*
X272500000Y-239080000D01*
D88*
X95424900Y-122128000D02*
X96273700Y-120710900D01*
D87*
X207562000Y-279682000D02*
X207562000Y-279209300D01*
X97122600Y-119293600D02*
X97688300Y-118727900D01*
X237250500Y-97688100D02*
X237250700Y-97688300D01*
D88*
X152870000Y-280504000D02*
X152857000Y-283261000D01*
D87*
X282490000Y-226070000D02*
X282836000Y-225724000D01*
X260175100Y-234229900D02*
X260175100Y-233472200D01*
X97688300Y-118727900D02*
X97688300Y-118349300D01*
X288960000Y-239080000D02*
X287660000Y-239080000D01*
X298285000Y-232005000D02*
X297800000Y-232490000D01*
X227676700Y-288493000D02*
X227677100Y-288492600D01*
X226336867Y-288493000D02*
X227676700Y-288493000D01*
%TO.N,/Level Shifters/PAN5V.CS_05*%
X204223100Y-253103900D02*
X203735900Y-253103900D01*
X278712700Y-219173200D02*
X270694700Y-219173200D01*
X209296700Y-251560900D02*
X205766100Y-251560900D01*
X225616300Y-242810500D02*
X220939500Y-242810500D01*
X282586000Y-242314800D02*
X282338700Y-242562100D01*
X147415400Y-253841400D02*
X139598400Y-246024400D01*
X215414200Y-248335800D02*
X212521800Y-248335800D01*
X126369500Y-239014000D02*
X121702800Y-239014000D01*
X252001900Y-225009700D02*
X251846700Y-224854500D01*
X205766100Y-251560900D02*
X204223100Y-253103900D01*
X220939500Y-242810500D02*
X215414200Y-248335800D01*
X149159300Y-253841400D02*
X147415400Y-253841400D01*
X270694700Y-219173200D02*
X263189500Y-219173200D01*
X251846700Y-224854500D02*
X243572300Y-224854500D01*
X279515700Y-220138600D02*
X279515700Y-219976200D01*
X279515700Y-219976200D02*
X278712700Y-219173200D01*
X203735900Y-253103900D02*
X201061800Y-255778000D01*
X139598400Y-246024400D02*
X133379900Y-246024400D01*
X133379900Y-246024400D02*
X126369500Y-239014000D01*
X102126100Y-219437300D02*
X100602100Y-219437300D01*
X270694700Y-219173200D02*
X270694700Y-213310700D01*
X283603400Y-242314800D02*
X282586000Y-242314800D01*
X263189500Y-219173200D02*
X257353000Y-225009700D01*
X212521800Y-248335800D02*
X209296700Y-251560900D01*
X243572300Y-224854500D02*
X225616300Y-242810500D01*
X151095900Y-255778000D02*
X149159300Y-253841400D01*
X201061800Y-255778000D02*
X151095900Y-255778000D01*
X121702800Y-239014000D02*
X102126100Y-219437300D01*
X257353000Y-225009700D02*
X252001900Y-225009700D01*
%TO.N,/Level Shifters/PAN5V.CS_06*%
X262945400Y-231434400D02*
X250907000Y-231434400D01*
X250907000Y-231434400D02*
X248554000Y-233787400D01*
X121666000Y-240792000D02*
X119253000Y-238379000D01*
X289612700Y-239418200D02*
X286066100Y-242964800D01*
X289612700Y-238732200D02*
X289612700Y-239418200D01*
X246761000Y-233647700D02*
X240407300Y-233647700D01*
X147133400Y-255896200D02*
X139071200Y-247834000D01*
X149794700Y-255896200D02*
X147133400Y-255896200D01*
X210486500Y-252602300D02*
X206655100Y-252602300D01*
X211808000Y-251280800D02*
X210486500Y-252602300D01*
X119253000Y-238379000D02*
X117983000Y-238379000D01*
X206655100Y-252602300D02*
X205149700Y-254107700D01*
X151106404Y-257207904D02*
X149794700Y-255896200D01*
X139071200Y-247834000D02*
X133076800Y-247834000D01*
X205149700Y-254107700D02*
X204151500Y-254107700D01*
X126034800Y-240792000D02*
X121666000Y-240792000D01*
X286066100Y-242964800D02*
X283603400Y-242964800D01*
X109305600Y-229701600D02*
X109305600Y-229070500D01*
X228233800Y-245821200D02*
X222097600Y-245821200D01*
X281562000Y-230681500D02*
X289612700Y-238732200D01*
X204151500Y-254107700D02*
X201051296Y-257207904D01*
X263316000Y-231063800D02*
X263698300Y-230681500D01*
X117983000Y-238379000D02*
X109305600Y-229701600D01*
X246900700Y-233787400D02*
X246761000Y-233647700D01*
X216638000Y-251280800D02*
X211808000Y-251280800D01*
X240407300Y-233647700D02*
X228233800Y-245821200D01*
X248554000Y-233787400D02*
X246900700Y-233787400D01*
X263316000Y-231063800D02*
X262945400Y-231434400D01*
X133076800Y-247834000D02*
X126034800Y-240792000D01*
X201051296Y-257207904D02*
X151106404Y-257207904D01*
X222097600Y-245821200D02*
X216638000Y-251280800D01*
X263698300Y-230681500D02*
X281562000Y-230681500D01*
X109305600Y-229070500D02*
X101872100Y-221637000D01*
%TO.N,/Level Shifters/PAN5V.CS_08*%
X175793400Y-297942000D02*
X176453800Y-297281600D01*
X232312300Y-287604000D02*
X232312300Y-290486200D01*
X232312300Y-290486200D02*
X228455900Y-294342600D01*
X143254500Y-297942000D02*
X175793400Y-297942000D01*
X228455900Y-294342600D02*
X227677100Y-294342600D01*
X239505900Y-280238200D02*
X239505900Y-280410400D01*
X176453800Y-297281600D02*
X224738100Y-297281600D01*
X224738100Y-297281600D02*
X227677100Y-294342600D01*
X126867200Y-281554700D02*
X143254500Y-297942000D01*
X239505900Y-280410400D02*
X232312300Y-287604000D01*
%TO.N,/Level Shifters/PAN5V.CS_09*%
X239916300Y-234848400D02*
X228435500Y-246329200D01*
X108305600Y-230606600D02*
X108305600Y-230073200D01*
X204646500Y-254610900D02*
X201399496Y-257857904D01*
X227677100Y-293042600D02*
X228472600Y-293042600D01*
X138927200Y-249123200D02*
X133553200Y-249123200D01*
X201399496Y-257857904D02*
X201319775Y-257857904D01*
X242112800Y-234848400D02*
X239916300Y-234848400D01*
X133553200Y-249123200D02*
X125984000Y-241554000D01*
X210767800Y-253213500D02*
X206831300Y-253213500D01*
X119253000Y-241554000D02*
X108305600Y-230606600D01*
X106468500Y-228236100D02*
X105682100Y-228236100D01*
X151151200Y-257962400D02*
X149586900Y-256398100D01*
X228435500Y-246329200D02*
X222504000Y-246329200D01*
X205433900Y-254610900D02*
X204646500Y-254610900D01*
X149586900Y-256398100D02*
X146202100Y-256398100D01*
X228472600Y-293042600D02*
X228919700Y-292595500D01*
X146202100Y-256398100D02*
X138927200Y-249123200D01*
X201215279Y-257962400D02*
X151151200Y-257962400D01*
X201319775Y-257857904D02*
X201215279Y-257962400D01*
X206831300Y-253213500D02*
X205433900Y-254610900D01*
X212198600Y-251782700D02*
X210767800Y-253213500D01*
X125984000Y-241554000D02*
X119253000Y-241554000D01*
X108305600Y-230073200D02*
X106468500Y-228236100D01*
X217050500Y-251782700D02*
X212198600Y-251782700D01*
X222504000Y-246329200D02*
X217050500Y-251782700D01*
D88*
%TO.N,/Panel Headers/POW.5V_HDR_3*%
X234947200Y-92870200D02*
X239050700Y-94570600D01*
X234947200Y-92870100D02*
X234947200Y-92870200D01*
X239050700Y-94570700D02*
X239050700Y-94570600D01*
X234947000Y-92870100D02*
X234947200Y-92870200D01*
X239050700Y-94570600D02*
X239051000Y-94570700D01*
D87*
%TO.N,Net-(Q2-G)*%
X292343000Y-170114000D02*
X295110000Y-170114000D01*
X292343000Y-172430000D02*
X292307000Y-172466000D01*
X295129500Y-170095000D02*
X295148000Y-170076500D01*
X295110000Y-170114000D02*
X295129000Y-170095000D01*
X292343000Y-170114000D02*
X292343000Y-172430000D01*
X295129000Y-170095000D02*
X295129500Y-170095000D01*
X295129000Y-170095000D02*
X295148000Y-170076000D01*
%TO.N,/Level Shifters/PAN5V.CS_10*%
X223836700Y-104664800D02*
X229233600Y-110061700D01*
X150101800Y-260467900D02*
X151188912Y-260467900D01*
X219134400Y-287671800D02*
X219134400Y-287705800D01*
X202869800Y-260908800D02*
X206983400Y-256795200D01*
X131763300Y-252457900D02*
X131763300Y-253208800D01*
X134740700Y-256186200D02*
X136603500Y-256186200D01*
X223613900Y-292392600D02*
X227677100Y-292392600D01*
X227503700Y-279302500D02*
X219134400Y-287671800D01*
X223836700Y-103142100D02*
X223836700Y-104664800D01*
X217668500Y-255044200D02*
X218912100Y-253800600D01*
X137678100Y-255111600D02*
X141737300Y-255111600D01*
X215206500Y-255044200D02*
X217668500Y-255044200D01*
X148048800Y-258414900D02*
X150101800Y-260467900D01*
X206983400Y-256795200D02*
X213455500Y-256795200D01*
X151629812Y-260908800D02*
X202869800Y-260908800D01*
X213455500Y-256795200D02*
X215206500Y-255044200D01*
X226051000Y-259982400D02*
X227503700Y-259982400D01*
X145040600Y-258414900D02*
X148048800Y-258414900D01*
X229233600Y-114273200D02*
X255859700Y-140899300D01*
X219869200Y-253800600D02*
X226051000Y-259982400D01*
X141737300Y-255111600D02*
X145040600Y-258414900D01*
X227503700Y-278415200D02*
X227503700Y-279302500D01*
X229233600Y-110061700D02*
X229233600Y-114273200D01*
X151188912Y-260467900D02*
X151629812Y-260908800D01*
X218912100Y-253800600D02*
X219869200Y-253800600D01*
X136603500Y-256186200D02*
X137678100Y-255111600D01*
X131763300Y-253208800D02*
X134740700Y-256186200D01*
X255859700Y-140899300D02*
X255859700Y-150633400D01*
X223403400Y-292182100D02*
X223613900Y-292392600D01*
%TO.N,/Level Shifters/PAN5V.CS_11*%
X228534900Y-291742600D02*
X227677100Y-291742600D01*
X226875000Y-109375000D02*
X226887566Y-109387566D01*
X141773000Y-253727900D02*
X133963000Y-253727900D01*
X265890200Y-181610000D02*
X265093200Y-181610000D01*
X264896200Y-173871900D02*
X265770700Y-173871900D01*
X231073400Y-287162800D02*
X231073400Y-289204100D01*
X151686224Y-259384800D02*
X151603124Y-259467900D01*
X256851300Y-189851900D02*
X256851300Y-208653400D01*
X233549300Y-242634800D02*
X228557600Y-247626500D01*
X151603124Y-259467900D02*
X151237300Y-259467900D01*
X228557600Y-247626500D02*
X222863300Y-247626500D01*
X226887566Y-109387566D02*
X226887566Y-113247966D01*
X265093200Y-181610000D02*
X256851300Y-189851900D01*
X212944300Y-254217300D02*
X207834100Y-254217300D01*
X149171300Y-257401900D02*
X145447000Y-257401900D01*
X214375000Y-252786600D02*
X212944300Y-254217300D01*
X266671500Y-174772700D02*
X266671500Y-180828700D01*
X255207800Y-154802400D02*
X263612400Y-163207000D01*
X202666600Y-259384800D02*
X151686224Y-259384800D01*
X265770700Y-173871900D02*
X266671500Y-174772700D01*
X241325400Y-242634800D02*
X233549300Y-242634800D01*
X207834100Y-254217300D02*
X202666600Y-259384800D01*
X222863300Y-247626500D02*
X217703200Y-252786600D01*
X151237300Y-259467900D02*
X149171300Y-257401900D01*
X226887566Y-113247966D02*
X255207800Y-141568200D01*
X237693200Y-280543000D02*
X231073400Y-287162800D01*
X266671500Y-180828700D02*
X265890200Y-181610000D01*
X231073400Y-289204100D02*
X228534900Y-291742600D01*
X263612400Y-163207000D02*
X263612400Y-172588100D01*
X255207800Y-141568200D02*
X255207800Y-154802400D01*
X145447000Y-257401900D02*
X141773000Y-253727900D01*
X217703200Y-252786600D02*
X214375000Y-252786600D01*
X263612400Y-172588100D02*
X264896200Y-173871900D01*
%TO.N,/Level Shifters/PAN5V.CS_12*%
X141945100Y-254609700D02*
X145239200Y-257903800D01*
X136550900Y-254609700D02*
X141945100Y-254609700D01*
X222211800Y-252548400D02*
X225386500Y-255723100D01*
X151396018Y-259967900D02*
X151625718Y-260197600D01*
X219360800Y-252548400D02*
X222211800Y-252548400D01*
X136162700Y-254997900D02*
X136550900Y-254609700D01*
X218097700Y-253811500D02*
X219360800Y-252548400D01*
X225386500Y-255723100D02*
X241058500Y-255723100D01*
X145239200Y-257903800D02*
X148957000Y-257903800D01*
X151021100Y-259967900D02*
X151396018Y-259967900D01*
X235737400Y-280619200D02*
X230188500Y-286168100D01*
X212997400Y-256293300D02*
X215479200Y-253811500D01*
X228468500Y-291092600D02*
X227677100Y-291092600D01*
X235737400Y-280593800D02*
X235737400Y-280619200D01*
X230188500Y-286168100D02*
X230188500Y-289372600D01*
X202692000Y-260197600D02*
X206596300Y-256293300D01*
X148957000Y-257903800D02*
X151021100Y-259967900D01*
X230188500Y-289372600D02*
X228468500Y-291092600D01*
X206596300Y-256293300D02*
X212997400Y-256293300D01*
X151625718Y-260197600D02*
X202692000Y-260197600D01*
X215479200Y-253811500D02*
X218097700Y-253811500D01*
%TO.N,/Level Shifters/PAN5V.CS_13*%
X138362400Y-291533400D02*
X143374000Y-296545000D01*
X233887850Y-280471450D02*
X229186300Y-285173000D01*
X218118400Y-296545000D02*
X224220800Y-290442600D01*
X224220800Y-290442600D02*
X227677100Y-290442600D01*
X229186300Y-289665100D02*
X228408800Y-290442600D01*
X143374000Y-296545000D02*
X218118400Y-296545000D01*
X229186300Y-285173000D02*
X229186300Y-289665100D01*
X228408800Y-290442600D02*
X227677100Y-290442600D01*
%TO.N,/Level Shifters/PAN5V.CS_14*%
X175590200Y-295478200D02*
X143950800Y-295478200D01*
X143950800Y-295478200D02*
X140562100Y-292089500D01*
X227677100Y-289792600D02*
X225547000Y-289792600D01*
X175996600Y-295884600D02*
X175590200Y-295478200D01*
X232507200Y-279887000D02*
X232507200Y-279661900D01*
X225547000Y-289792600D02*
X223897000Y-289792600D01*
X229743000Y-282651200D02*
X232507200Y-279887000D01*
X217805000Y-295884600D02*
X175996600Y-295884600D01*
X223897000Y-289792600D02*
X217805000Y-295884600D01*
D88*
%TO.N,/Panel Headers/POW.5V_HDR_4*%
X184826000Y-75675000D02*
X189230000Y-75096000D01*
D87*
%TO.N,/Level Shifters/PAN5V.CS_15*%
X226137961Y-289001200D02*
X226279361Y-289142600D01*
X186280400Y-279784900D02*
X175260000Y-268764500D01*
X175260000Y-268764500D02*
X175260000Y-265474000D01*
X187394300Y-291642800D02*
X187394300Y-293686900D01*
X223748600Y-289001200D02*
X226137961Y-289001200D01*
X162102800Y-93573600D02*
X162106000Y-93576800D01*
X162106000Y-93576800D02*
X176889200Y-93576800D01*
X176889200Y-93576800D02*
X180340000Y-90126000D01*
X187394300Y-293686900D02*
X188931600Y-295224200D01*
X217525600Y-295224200D02*
X223748600Y-289001200D01*
X226279361Y-289142600D02*
X227677100Y-289142600D01*
X188931600Y-295224200D02*
X217525600Y-295224200D01*
%TO.N,/Level Shifters/PAN5V.CS_16*%
X292354000Y-284429200D02*
X299110400Y-277672800D01*
X265170900Y-299694600D02*
X278612600Y-299694600D01*
X284327600Y-284429200D02*
X292354000Y-284429200D01*
X301548800Y-254635000D02*
X300101000Y-253187200D01*
X281457400Y-296849800D02*
X281457400Y-287299400D01*
X295503600Y-228930200D02*
X297440000Y-226993800D01*
X278612600Y-299694600D02*
X281457400Y-296849800D01*
X301548800Y-262458200D02*
X301548800Y-254635000D01*
X297440000Y-226993800D02*
X297440000Y-135718200D01*
X227152200Y-65430400D02*
X182753000Y-65430400D01*
X281457400Y-287299400D02*
X284327600Y-284429200D01*
X299110400Y-264896600D02*
X301548800Y-262458200D01*
X265069300Y-299694600D02*
X265120100Y-299643800D01*
X177800000Y-70383400D02*
X177800000Y-90126000D01*
X177800000Y-270118900D02*
X177800000Y-265474000D01*
X222684900Y-299694600D02*
X265069300Y-299694600D01*
X189298600Y-281617500D02*
X177800000Y-270118900D01*
X299110400Y-277672800D02*
X299110400Y-264896600D01*
X297440000Y-135718200D02*
X227152200Y-65430400D01*
X182753000Y-65430400D02*
X177800000Y-70383400D01*
X265120100Y-299643800D02*
X265120100Y-294291800D01*
X222659500Y-299720000D02*
X222684900Y-299694600D01*
%TO.N,/Level Shifters/PAN5V.CS_17*%
X263868500Y-292820600D02*
X264039700Y-292991800D01*
X264039700Y-292991800D02*
X265120100Y-292991800D01*
X258886850Y-293659450D02*
X259725700Y-292820600D01*
X259725700Y-292820600D02*
X263868500Y-292820600D01*
X180340000Y-270281400D02*
X180340000Y-265474000D01*
X191363600Y-281305000D02*
X180340000Y-270281400D01*
%TO.N,/Level Shifters/PAN5V.CS_18*%
X182880000Y-265474000D02*
X188043800Y-270637800D01*
X188043800Y-270637800D02*
X188043800Y-274901900D01*
X256354200Y-292256200D02*
X265034500Y-292256200D01*
X265034500Y-292256200D02*
X265120100Y-292341800D01*
X249728600Y-298881800D02*
X256354200Y-292256200D01*
X188069200Y-298881800D02*
X249728600Y-298881800D01*
X188043800Y-298907200D02*
X188069200Y-298881800D01*
%TO.N,/Level Shifters/PAN5V.CS_19*%
X192527000Y-272581000D02*
X192527000Y-274879400D01*
X254762700Y-291691800D02*
X265120100Y-291691800D01*
X248410900Y-298043600D02*
X254762700Y-291691800D01*
X167378700Y-92927300D02*
X170180000Y-90126000D01*
X185420000Y-265474000D02*
X192527000Y-272581000D01*
X191820800Y-298043600D02*
X248410900Y-298043600D01*
X167335200Y-92927300D02*
X167378700Y-92927300D01*
X191778600Y-298085800D02*
X191820800Y-298043600D01*
D88*
%TO.N,/Panel Headers/POW.5V_HDR_5*%
X136346800Y-83140800D02*
X136347000Y-83140700D01*
X132822000Y-85844100D02*
X134584400Y-84492500D01*
X134584400Y-84492500D02*
X136346800Y-83140800D01*
X136346700Y-83140700D02*
X136346800Y-83140800D01*
D87*
%TO.N,/Level Shifters/PAN5V.CS_20*%
X255835300Y-277029268D02*
X255835300Y-275793700D01*
X266895900Y-281666700D02*
X267268000Y-282038800D01*
X253347900Y-273306300D02*
X237745700Y-273306300D01*
X265068300Y-279583900D02*
X266895900Y-281411500D01*
X237745700Y-273306300D02*
X219437300Y-254997900D01*
X266895900Y-281411500D02*
X266895900Y-281666700D01*
X144874300Y-100602100D02*
X136162700Y-100602100D01*
X145821400Y-101549200D02*
X144874300Y-100602100D01*
X266060300Y-291041800D02*
X265120100Y-291041800D01*
X255835300Y-275793700D02*
X253347900Y-273306300D01*
X255789684Y-277074884D02*
X255835300Y-277029268D01*
X267268000Y-289834100D02*
X266060300Y-291041800D01*
X267268000Y-282038800D02*
X267268000Y-289834100D01*
X145821400Y-101600000D02*
X145821400Y-101549200D01*
%TO.N,/Level Shifters/PAN5V.CS_21*%
X260086500Y-274955000D02*
X256024600Y-274955000D01*
X210134200Y-97713800D02*
X151231600Y-97713800D01*
X261753200Y-277400600D02*
X260985000Y-276632400D01*
X265932700Y-290391800D02*
X266766100Y-289558400D01*
X146202400Y-102743000D02*
X138277600Y-102743000D01*
X137388600Y-101854000D02*
X133981100Y-101854000D01*
X240942334Y-128521934D02*
X210134200Y-97713800D01*
X133981100Y-101854000D02*
X133963000Y-101872100D01*
X266766100Y-289558400D02*
X266766100Y-282246600D01*
X260985000Y-275853500D02*
X260086500Y-274955000D01*
X240997266Y-128521934D02*
X240942334Y-128521934D01*
X260985000Y-276632400D02*
X260985000Y-275853500D01*
X256024600Y-274955000D02*
X241316100Y-260246500D01*
X261934700Y-277400600D02*
X261753200Y-277400600D01*
X228689700Y-260246500D02*
X222171100Y-253727900D01*
X266766100Y-282246600D02*
X266394000Y-281874500D01*
X241316100Y-260246500D02*
X228689700Y-260246500D01*
X266394000Y-281859900D02*
X261934700Y-277400600D01*
X222171100Y-253727900D02*
X221637000Y-253727900D01*
X266394000Y-281874500D02*
X266394000Y-281859900D01*
X265120100Y-290391800D02*
X265932700Y-290391800D01*
X138277600Y-102743000D02*
X137388600Y-101854000D01*
X151231600Y-97713800D02*
X146202400Y-102743000D01*
%TO.N,/Level Shifters/PAN5V.CS_22*%
X257606200Y-264795000D02*
X256779000Y-264795000D01*
X243136300Y-250360000D02*
X230307300Y-250360000D01*
X269036800Y-284895950D02*
X269036800Y-280261100D01*
X136017000Y-103632000D02*
X135509000Y-103124000D01*
X256779000Y-264795000D02*
X253365000Y-261381000D01*
X253365000Y-261381000D02*
X253365000Y-260588700D01*
X264203700Y-289741800D02*
X263878000Y-290067500D01*
X268605000Y-275793800D02*
X257606200Y-264795000D01*
X230307300Y-250360000D02*
X228692800Y-248745500D01*
X146888200Y-103632000D02*
X136017000Y-103632000D01*
X228692800Y-248745500D02*
X226777000Y-248745500D01*
X223836700Y-251685800D02*
X223836700Y-252457900D01*
X135509000Y-103124000D02*
X131781400Y-103124000D01*
X151561800Y-102184200D02*
X148336000Y-102184200D01*
X269051100Y-284910250D02*
X269036800Y-284895950D01*
X131781400Y-103124000D02*
X131763300Y-103142100D01*
X265120100Y-289741800D02*
X264203700Y-289741800D01*
X253365000Y-260588700D02*
X243136300Y-250360000D01*
X269036800Y-280261100D02*
X268605000Y-279829300D01*
X268605000Y-279829300D02*
X268605000Y-275793800D01*
X148336000Y-102184200D02*
X146888200Y-103632000D01*
X226777000Y-248745500D02*
X223836700Y-251685800D01*
%TO.N,/Level Shifters/PAN5V.CS_23*%
X250825000Y-260617200D02*
X241395700Y-251187900D01*
X258515500Y-267335000D02*
X256746100Y-267335000D01*
X135498200Y-104597200D02*
X135313100Y-104412100D01*
X266260100Y-288738900D02*
X265907200Y-289091800D01*
X241395700Y-251187900D02*
X226036400Y-251187900D01*
X258521200Y-278702000D02*
X258533400Y-278714200D01*
X250825000Y-261413900D02*
X250825000Y-260617200D01*
X265907200Y-289091800D02*
X265120100Y-289091800D01*
X266260100Y-282490700D02*
X266260100Y-288738900D01*
X149364700Y-103212900D02*
X147980400Y-104597200D01*
X262483600Y-278714200D02*
X266260100Y-282490700D01*
X147980400Y-104597200D02*
X135498200Y-104597200D01*
X135313100Y-104412100D02*
X129563600Y-104412100D01*
X256746100Y-267335000D02*
X250825000Y-261413900D01*
X258533400Y-278714200D02*
X262483600Y-278714200D01*
%TO.N,/Level Shifters/PAN5V.CS_24*%
X183983000Y-294564600D02*
X183639200Y-294220800D01*
X210743800Y-284022800D02*
X187482239Y-284022800D01*
X187482239Y-284022800D02*
X186802139Y-284702900D01*
X183639200Y-294220800D02*
X183426100Y-294433900D01*
X185496200Y-294564600D02*
X183983000Y-294564600D01*
X186802139Y-284702900D02*
X186723500Y-284702900D01*
X183426100Y-294433900D02*
X147378500Y-294433900D01*
X147378500Y-294433900D02*
X132629600Y-279685000D01*
D88*
%TO.N,/Panel Headers/POW.5V_HDR_6*%
X92870200Y-120652800D02*
X94570700Y-116549000D01*
X92870100Y-120653000D02*
X92870200Y-120652800D01*
X92870100Y-120652800D02*
X92870200Y-120652800D01*
X94570700Y-116549300D02*
X94570700Y-116549000D01*
D87*
%TO.N,/Level Shifters/PAN5V.CS_25*%
X182668600Y-292735000D02*
X182854400Y-292920800D01*
X112266200Y-278241600D02*
X134793400Y-278241600D01*
X149286800Y-292735000D02*
X182668600Y-292735000D01*
X134793400Y-278241600D02*
X149286800Y-292735000D01*
X109765300Y-275740700D02*
X112266200Y-278241600D01*
X186747600Y-290874800D02*
X184701600Y-292920800D01*
X219270900Y-282658500D02*
X215112600Y-286816800D01*
X187729100Y-287855300D02*
X187729100Y-289664000D01*
X186747600Y-290645500D02*
X186747600Y-290874800D01*
X182854400Y-292920800D02*
X183639200Y-292920800D01*
X188767600Y-286816800D02*
X187729100Y-287855300D01*
X252457900Y-223836700D02*
X245374800Y-223836700D01*
X215112600Y-286816800D02*
X188767600Y-286816800D01*
X184701600Y-292920800D02*
X183639200Y-292920800D01*
X187729100Y-289664000D02*
X186747600Y-290645500D01*
%TO.N,/Level Shifters/PAN5V.CS_26*%
X186813500Y-289869900D02*
X186245700Y-290437700D01*
X135138200Y-276997200D02*
X149961600Y-291820600D01*
X186813500Y-287633100D02*
X186813500Y-289869900D01*
X214706200Y-286105600D02*
X188341000Y-286105600D01*
X184615700Y-292270800D02*
X183639200Y-292270800D01*
X188341000Y-286105600D02*
X186813500Y-287633100D01*
X240172900Y-275534500D02*
X225277300Y-275534500D01*
X225277300Y-275534500D02*
X214706200Y-286105600D01*
X180906988Y-291820600D02*
X181257188Y-292170800D01*
X186245700Y-290437700D02*
X186245700Y-290640800D01*
X133959600Y-276997200D02*
X135138200Y-276997200D01*
X186245700Y-290640800D02*
X184615700Y-292270800D01*
X183539200Y-292170800D02*
X183639200Y-292270800D01*
X181257188Y-292170800D02*
X183539200Y-292170800D01*
X149961600Y-291820600D02*
X180906988Y-291820600D01*
X101872100Y-133963000D02*
X101872100Y-146301900D01*
X101872100Y-146301900D02*
X100161900Y-148012100D01*
%TO.N,/Level Shifters/PAN5V.CS_27*%
X89907700Y-254602100D02*
X109219200Y-273913600D01*
X181203600Y-291007800D02*
X181816600Y-291620800D01*
X184525000Y-291620800D02*
X183639200Y-291620800D01*
X150571200Y-291007800D02*
X181203600Y-291007800D01*
X225099700Y-274670700D02*
X214376000Y-285394400D01*
X109219200Y-273913600D02*
X133477000Y-273913600D01*
X240659700Y-274670700D02*
X225099700Y-274670700D01*
X185742300Y-290403500D02*
X184525000Y-291620800D01*
X181816600Y-291620800D02*
X183639200Y-291620800D01*
X185742300Y-290229500D02*
X185742300Y-290403500D01*
X188239400Y-285394400D02*
X186311600Y-287322200D01*
X186311600Y-287322200D02*
X186311600Y-289660200D01*
X214376000Y-285394400D02*
X188239400Y-285394400D01*
X186311600Y-289660200D02*
X185742300Y-290229500D01*
X133477000Y-273913600D02*
X150571200Y-291007800D01*
%TO.N,/Level Shifters/PAN5V.CS_28*%
X181356000Y-290220400D02*
X182106400Y-290970800D01*
X185809700Y-286935100D02*
X187985400Y-284759400D01*
X182106400Y-290970800D02*
X183639200Y-290970800D01*
X151130000Y-290220400D02*
X181356000Y-290220400D01*
X184447600Y-290970800D02*
X185240400Y-290178000D01*
X129527100Y-268617500D02*
X151130000Y-290220400D01*
X94361000Y-250571000D02*
X96779400Y-252989400D01*
X96779400Y-252989400D02*
X96805500Y-252989400D01*
X213815500Y-284759400D02*
X224616700Y-273958200D01*
X112433600Y-268617500D02*
X129527100Y-268617500D01*
X185240400Y-290178000D02*
X185240400Y-290021600D01*
X224616700Y-273958200D02*
X241391000Y-273958200D01*
X187985400Y-284759400D02*
X213815500Y-284759400D01*
X185809700Y-289452300D02*
X185809700Y-286935100D01*
X185240400Y-290021600D02*
X185809700Y-289452300D01*
X96805500Y-252989400D02*
X112433600Y-268617500D01*
X183639200Y-290970800D02*
X184447600Y-290970800D01*
%TO.N,/Level Shifters/PAN5V.CS_29*%
X201143600Y-252602000D02*
X203836000Y-252602000D01*
X98062100Y-151238900D02*
X98062100Y-140562100D01*
X119450884Y-233450216D02*
X119450884Y-230804484D01*
X199796400Y-253949200D02*
X201143600Y-252602000D01*
X248361500Y-221996000D02*
X255319600Y-215037900D01*
X208558500Y-251029100D02*
X211937600Y-247650000D01*
X89730000Y-176530000D02*
X90539900Y-176530000D01*
X90539900Y-176530000D02*
X92017400Y-175052500D01*
X119450884Y-230804484D02*
X96827000Y-208180600D01*
X88955000Y-177305000D02*
X89730000Y-176530000D01*
X184738500Y-289813800D02*
X184738500Y-289970200D01*
X184387900Y-290320800D02*
X183639200Y-290320800D01*
X220264500Y-242310500D02*
X224160500Y-242310500D01*
X177153768Y-271576800D02*
X185307800Y-279730832D01*
X92017400Y-157283600D02*
X98062100Y-151238900D01*
X224160500Y-242310500D02*
X244475000Y-221996000D01*
X255319600Y-215037900D02*
X257537900Y-215037900D01*
X214925000Y-247650000D02*
X220264500Y-242310500D01*
X89737300Y-181610000D02*
X88955000Y-180827700D01*
X92017400Y-175052500D02*
X92017400Y-157283600D01*
X96827000Y-187907800D02*
X90529200Y-181610000D01*
X199745600Y-253949200D02*
X199796400Y-253949200D01*
X88955000Y-180827700D02*
X88955000Y-177305000D01*
X96827000Y-208180600D02*
X96827000Y-187907800D01*
X185307800Y-279730832D02*
X185307800Y-289244500D01*
X203836000Y-252602000D02*
X205408900Y-251029100D01*
X244475000Y-221996000D02*
X248361500Y-221996000D01*
X90529200Y-181610000D02*
X89737300Y-181610000D01*
X184738500Y-289970200D02*
X184387900Y-290320800D01*
X185307800Y-289244500D02*
X184738500Y-289813800D01*
X211937600Y-247650000D02*
X214925000Y-247650000D01*
X205408900Y-251029100D02*
X208558500Y-251029100D01*
D88*
%TO.N,/Panel Headers/POW.5V_HDR_7*%
X75096000Y-166370000D02*
X75675000Y-170774000D01*
D87*
%TO.N,/Level Shifters/PAN5V.MOSI_1*%
X147786500Y-258916800D02*
X144281900Y-258916800D01*
X284847300Y-225971900D02*
X281736600Y-229082600D01*
X284847300Y-224826100D02*
X284847300Y-225971900D01*
X127363900Y-250639200D02*
X127363900Y-249917900D01*
X227965900Y-243960000D02*
X242640082Y-229285818D01*
X252374400Y-229082600D02*
X252222000Y-229235000D01*
X284445200Y-224424000D02*
X284847300Y-224826100D01*
X242640082Y-229285818D02*
X242640082Y-229283224D01*
X252222000Y-229235000D02*
X252196600Y-229235000D01*
X168097200Y-261569200D02*
X151583106Y-261569200D01*
X144281900Y-258916800D02*
X143238900Y-259959800D01*
X118516400Y-233603800D02*
X99950500Y-215037900D01*
X252196600Y-229235000D02*
X251197714Y-228236114D01*
X242640082Y-229283224D02*
X243687192Y-228236114D01*
X151583106Y-261569200D02*
X150981806Y-260967900D01*
X202946000Y-261594600D02*
X207002700Y-257537900D01*
X168198800Y-261670800D02*
X168097200Y-261569200D01*
X251197714Y-228236114D02*
X249917900Y-228236114D01*
X281736600Y-229082600D02*
X252374400Y-229082600D01*
X243687192Y-228236114D02*
X249917900Y-228236114D01*
X168275000Y-261594600D02*
X202946000Y-261594600D01*
X223164400Y-243960000D02*
X227965900Y-243960000D01*
X99950500Y-215037900D02*
X98062100Y-215037900D01*
X207002700Y-257537900D02*
X215037900Y-257537900D01*
X168198800Y-261670800D02*
X168275000Y-261594600D01*
X136684500Y-259959800D02*
X127363900Y-250639200D01*
X283718000Y-224424000D02*
X284445200Y-224424000D01*
X143238900Y-259959800D02*
X136684500Y-259959800D01*
X150981806Y-260967900D02*
X149837600Y-260967900D01*
X149837600Y-260967900D02*
X147786500Y-258916800D01*
%TO.N,/Level Shifters/PAN5V.MISO_1*%
X101032600Y-217237600D02*
X119158400Y-235363400D01*
X99332100Y-217237600D02*
X101032600Y-217237600D01*
X206721200Y-260174000D02*
X202786000Y-264109200D01*
X212991800Y-261230700D02*
X209950700Y-261230700D01*
X283718000Y-225074000D02*
X282143200Y-225074000D01*
X251930600Y-226779100D02*
X251187900Y-226036400D01*
X280438100Y-226779100D02*
X251930600Y-226779100D01*
X251187900Y-226036400D02*
X244257800Y-226036400D01*
X119158400Y-235363400D02*
X119251200Y-235363400D01*
X217237600Y-256984900D02*
X212991800Y-261230700D01*
X282143200Y-225074000D02*
X280438100Y-226779100D01*
X174084800Y-264109200D02*
X172720000Y-265474000D01*
X202786000Y-264109200D02*
X174084800Y-264109200D01*
X208894000Y-260174000D02*
X206721200Y-260174000D01*
X217237600Y-256267900D02*
X217237600Y-256984900D01*
X209950700Y-261230700D02*
X208894000Y-260174000D01*
X244257800Y-226036400D02*
X228469700Y-241824500D01*
D88*
%TO.N,/Panel Headers/POW.5V_HDR_8*%
X85844000Y-222777900D02*
X85844100Y-222778000D01*
X85844100Y-222777800D02*
X85844000Y-222777900D01*
X83140700Y-219253000D02*
X83816200Y-220133800D01*
X83816200Y-220133800D02*
X85844000Y-222777900D01*
X83140700Y-219458300D02*
X83140700Y-219253300D01*
X83816200Y-220133800D02*
X83140700Y-219458300D01*
%TO.N,/Panel Headers/POW.5V_HDR_9*%
X116549000Y-261029000D02*
X116549400Y-261029200D01*
X116549300Y-261029300D02*
X116549400Y-261029200D01*
X116549400Y-261029200D02*
X120652800Y-262729900D01*
X120652800Y-262729900D02*
X120653000Y-262730000D01*
%TO.N,/Panel Headers/POW.5V_HDR_10*%
X166370000Y-280504000D02*
X170774000Y-279925000D01*
%TO.N,/Panel Headers/POW.5V_HDR_11*%
X222777800Y-269755900D02*
X222777900Y-269756000D01*
X222778000Y-269756000D02*
X222777900Y-269756100D01*
X222777900Y-269756100D02*
X219253000Y-272459000D01*
X219253300Y-272459300D02*
X219253000Y-272459000D01*
X222777900Y-269756000D02*
X222777900Y-269756100D01*
%TO.N,/Panel Headers/POW.5V_HDR_12*%
X262729900Y-235044200D02*
X262661300Y-235112800D01*
X262730000Y-234947000D02*
X262661300Y-235112800D01*
X262729900Y-234947200D02*
X262729900Y-235044200D01*
X261029300Y-239050700D02*
X261029200Y-239050600D01*
X262661300Y-235112800D02*
X261029200Y-239050600D01*
X261029200Y-239050600D02*
X261029000Y-239051000D01*
D87*
%TO.N,/Level Shifters/PAN5V.RESET*%
X294132000Y-209460000D02*
X283718000Y-219874000D01*
X294132000Y-172466000D02*
X294132000Y-209460000D01*
%TO.N,/Level Shifters/PAN3V.RESET*%
X277993000Y-219874000D02*
X277814000Y-219695000D01*
X277814000Y-219695000D02*
X267362200Y-219695000D01*
X267362200Y-219695000D02*
X261623600Y-225433600D01*
%TO.N,/Level Shifters/PAN3V.SCK_0*%
X275132800Y-221792800D02*
X275653900Y-221271700D01*
X273913600Y-221792800D02*
X275132800Y-221792800D01*
X277895300Y-221271700D02*
X277993000Y-221174000D01*
X275653900Y-221271700D02*
X277895300Y-221271700D01*
%TO.N,/Level Shifters/PAN3V.MOSI_0*%
X276073400Y-221824000D02*
X277993000Y-221824000D01*
X275666400Y-222231000D02*
X276073400Y-221824000D01*
%TO.N,/Level Shifters/PAN3V.MISO_0*%
X275934800Y-223254500D02*
X276715300Y-222474000D01*
X272248900Y-224463800D02*
X273458200Y-223254500D01*
X273458200Y-223254500D02*
X275934800Y-223254500D01*
X276715300Y-222474000D02*
X277993000Y-222474000D01*
%TO.N,/Level Shifters/PAN3V.SCK_1*%
X270460700Y-225381300D02*
X273303900Y-225381300D01*
X273303900Y-225381300D02*
X274911200Y-223774000D01*
X274911200Y-223774000D02*
X277993000Y-223774000D01*
%TO.N,/Level Shifters/PAN3V.MOSI_1*%
X271359800Y-238253700D02*
X274138500Y-235475000D01*
X277120200Y-224424000D02*
X277993000Y-224424000D01*
X271359800Y-249340200D02*
X271359800Y-238253700D01*
X259715000Y-260985000D02*
X271359800Y-249340200D01*
X275664400Y-225879800D02*
X277120200Y-224424000D01*
%TO.N,/Level Shifters/PAN3V.MISO_1*%
X279751300Y-225074000D02*
X277993000Y-225074000D01*
X297815000Y-260985000D02*
X297815000Y-260359400D01*
X279883200Y-225205900D02*
X279751300Y-225074000D01*
X297815000Y-260359400D02*
X283318100Y-245862500D01*
%TO.N,/Level Shifters/PAN3V.CS_00*%
X281597000Y-243644300D02*
X281597000Y-241380600D01*
X283874300Y-245085700D02*
X283038400Y-245085700D01*
X281597000Y-241380600D02*
X278631200Y-238414800D01*
X283038400Y-245085700D02*
X281597000Y-243644300D01*
X300355000Y-260985000D02*
X299773600Y-260985000D01*
X299773600Y-260985000D02*
X283874300Y-245085700D01*
X278631200Y-238414800D02*
X277878400Y-238414800D01*
%TO.N,/Level Shifters/PAN3V.CS_01*%
X278724800Y-239714800D02*
X277878400Y-239714800D01*
X295275000Y-260985000D02*
X295275000Y-258867000D01*
X280981400Y-244573400D02*
X280981400Y-241971400D01*
X280981400Y-241971400D02*
X278724800Y-239714800D01*
X295275000Y-258867000D02*
X280981400Y-244573400D01*
%TO.N,/Level Shifters/PAN3V.CS_02*%
X280479400Y-245427400D02*
X280479400Y-242217300D01*
X292735000Y-260985000D02*
X292735000Y-257683000D01*
X292735000Y-257683000D02*
X280479400Y-245427400D01*
X280479400Y-242217300D02*
X278626900Y-240364800D01*
X278626900Y-240364800D02*
X277878400Y-240364800D01*
%TO.N,/Level Shifters/PAN3V.CS_03*%
X275325200Y-249465500D02*
X275325200Y-242635000D01*
X290195000Y-260985000D02*
X289037900Y-262142100D01*
X287096100Y-262142100D02*
X286266900Y-261312900D01*
X289037900Y-262142100D02*
X287096100Y-262142100D01*
X286266900Y-261312900D02*
X286266900Y-260407200D01*
X276945400Y-241014800D02*
X277878400Y-241014800D01*
X286266900Y-260407200D02*
X275325200Y-249465500D01*
X275325200Y-242635000D02*
X276945400Y-241014800D01*
%TO.N,/Level Shifters/PAN3V.CS_04*%
X287655000Y-260985000D02*
X275847800Y-249177800D01*
X277079700Y-241664800D02*
X277878400Y-241664800D01*
X275847800Y-242896700D02*
X277079700Y-241664800D01*
X275847800Y-249177800D02*
X275847800Y-242896700D01*
%TO.N,/Level Shifters/PAN3V.CS_05*%
X277878400Y-242314800D02*
X278756900Y-242314800D01*
X279977500Y-243535400D02*
X279977500Y-246386700D01*
X285726400Y-252135600D02*
X285726400Y-254850200D01*
X278756900Y-242314800D02*
X279977500Y-243535400D01*
X279977500Y-246386700D02*
X285726400Y-252135600D01*
%TO.N,/Level Shifters/PAN3V.CS_06*%
X279475600Y-243756300D02*
X278684100Y-242964800D01*
X278684100Y-242964800D02*
X277878400Y-242964800D01*
X280822400Y-248153600D02*
X279475600Y-246806800D01*
X280822400Y-250469400D02*
X280822400Y-248153600D01*
X279475600Y-246806800D02*
X279475600Y-243756300D01*
%TO.N,/Level Shifters/PAN3V.CS_07*%
X278973700Y-243982900D02*
X278973700Y-250438500D01*
X278973700Y-243982900D02*
X278605600Y-243614800D01*
X278973700Y-250438500D02*
X278968200Y-250444000D01*
X278605600Y-243614800D02*
X277878400Y-243614800D01*
%TO.N,/Level Shifters/PAN3V.CS_08*%
X249544800Y-294543700D02*
X233603200Y-294543700D01*
X273685000Y-278993400D02*
X273685000Y-264795000D01*
X262940800Y-288696400D02*
X255392100Y-288696400D01*
X233603200Y-294543700D02*
X233402100Y-294342600D01*
X273685000Y-264795000D02*
X277495000Y-260985000D01*
X270332100Y-282346300D02*
X273685000Y-278993400D01*
X255392100Y-288696400D02*
X249544800Y-294543700D01*
%TO.N,/Level Shifters/PAN3V.CS_09*%
X262128000Y-281279600D02*
X261745600Y-281279600D01*
X250384000Y-292641200D02*
X235343500Y-292641200D01*
X235343500Y-292641200D02*
X234942100Y-293042600D01*
X261745600Y-281279600D02*
X250384000Y-292641200D01*
X268422500Y-267517500D02*
X266013100Y-267517500D01*
X234942100Y-293042600D02*
X233402100Y-293042600D01*
X274955000Y-260985000D02*
X268422500Y-267517500D01*
%TO.N,/Level Shifters/PAN3V.CS_10*%
X234642100Y-292392600D02*
X233402100Y-292392600D01*
X261841700Y-279483100D02*
X249434100Y-291890700D01*
X235144000Y-291890700D02*
X234642100Y-292392600D01*
X249434100Y-291890700D02*
X235144000Y-291890700D01*
%TO.N,/Level Shifters/PAN3V.CS_11*%
X234582400Y-291742600D02*
X233402100Y-291742600D01*
X234936200Y-291388800D02*
X234582400Y-291742600D01*
X248589800Y-291388800D02*
X234936200Y-291388800D01*
X259359400Y-280619200D02*
X248589800Y-291388800D01*
X259359400Y-279400000D02*
X259359400Y-280619200D01*
%TO.N,/Level Shifters/PAN3V.CS_12*%
X234129300Y-291092600D02*
X234373600Y-290848300D01*
X233402100Y-291092600D02*
X234129300Y-291092600D01*
X242879100Y-290848300D02*
X253444500Y-280282900D01*
X234373600Y-290848300D02*
X242879100Y-290848300D01*
%TO.N,/Level Shifters/PAN3V.CS_13*%
X240825300Y-290344900D02*
X233499800Y-290344900D01*
X250887300Y-280282900D02*
X240825300Y-290344900D01*
X233499800Y-290344900D02*
X233402100Y-290442600D01*
%TO.N,/Level Shifters/PAN3V.CS_14*%
X249555000Y-260985000D02*
X247459500Y-263080500D01*
X245746500Y-280516300D02*
X236470200Y-289792600D01*
X236470200Y-289792600D02*
X233402100Y-289792600D01*
%TO.N,/Level Shifters/PAN3V.CS_15*%
X242122200Y-282134000D02*
X242122200Y-280507400D01*
X233402100Y-289142600D02*
X235113600Y-289142600D01*
X235113600Y-289142600D02*
X242122200Y-282134000D01*
%TO.N,/Level Shifters/PAN3V.CS_16*%
X244475000Y-260985000D02*
X244475000Y-261874000D01*
X244475000Y-261874000D02*
X254912800Y-272311800D01*
X267899600Y-292112800D02*
X270078600Y-294291800D01*
X270078600Y-294291800D02*
X270845100Y-294291800D01*
X259971100Y-272311800D02*
X263525000Y-275865700D01*
X267397800Y-281458800D02*
X267899600Y-281960600D01*
X263525000Y-275865700D02*
X263525000Y-277114000D01*
X263786000Y-277375000D02*
X265157600Y-277375000D01*
X267397800Y-279615200D02*
X267397800Y-281458800D01*
X265157600Y-277375000D02*
X267397800Y-279615200D01*
X254912800Y-272311800D02*
X259971100Y-272311800D01*
X267899600Y-281960600D02*
X267899600Y-292112800D01*
X263525000Y-277114000D02*
X263786000Y-277375000D01*
%TO.N,/Level Shifters/PAN3V.CS_17*%
X270845100Y-292991800D02*
X271572300Y-292991800D01*
X271572300Y-292991800D02*
X271720400Y-292843700D01*
X284076300Y-281759500D02*
X289740500Y-281759500D01*
X272992100Y-292843700D02*
X284076300Y-281759500D01*
X289740500Y-281759500D02*
X295275000Y-276225000D01*
X271720400Y-292843700D02*
X272992100Y-292843700D01*
%TO.N,/Level Shifters/PAN3V.CS_18*%
X287952500Y-281007500D02*
X283466163Y-281007500D01*
X283466163Y-281007500D02*
X272131863Y-292341800D01*
X272131863Y-292341800D02*
X270845100Y-292341800D01*
X292735000Y-276225000D02*
X287952500Y-281007500D01*
%TO.N,/Level Shifters/PAN3V.CS_19*%
X275310600Y-287578800D02*
X284457400Y-278432000D01*
X287988000Y-278432000D02*
X290195000Y-276225000D01*
X275310600Y-288455957D02*
X275310600Y-287578800D01*
X272074757Y-291691800D02*
X275310600Y-288455957D01*
X270845100Y-291691800D02*
X272074757Y-291691800D01*
X284457400Y-278432000D02*
X287988000Y-278432000D01*
%TO.N,/Level Shifters/PAN3V.CS_20*%
X283918200Y-277625000D02*
X286255000Y-277625000D01*
X274523200Y-287020000D02*
X283918200Y-277625000D01*
X272017651Y-291041800D02*
X274523200Y-288536251D01*
X274523200Y-288536251D02*
X274523200Y-287020000D01*
X270845100Y-291041800D02*
X272017651Y-291041800D01*
X286255000Y-277625000D02*
X287655000Y-276225000D01*
%TO.N,/Level Shifters/PAN3V.CS_21*%
X273888200Y-286766000D02*
X273888200Y-288464145D01*
X280035000Y-280619200D02*
X273888200Y-286766000D01*
X273888200Y-288464145D02*
X271960545Y-290391800D01*
X271960545Y-290391800D02*
X270845100Y-290391800D01*
X280035000Y-276225000D02*
X280035000Y-280619200D01*
%TO.N,/Level Shifters/PAN3V.CS_22*%
X277495000Y-280593800D02*
X273126200Y-284962600D01*
X271903439Y-289741800D02*
X270845100Y-289741800D01*
X277495000Y-276225000D02*
X277495000Y-280593800D01*
X273126200Y-288519039D02*
X271903439Y-289741800D01*
X273126200Y-284962600D02*
X273126200Y-288519039D01*
%TO.N,/Level Shifters/PAN3V.CS_23*%
X268401600Y-287376800D02*
X270116600Y-289091800D01*
X270116600Y-289091800D02*
X270845100Y-289091800D01*
X268076500Y-281074200D02*
X268401600Y-281399300D01*
X264795000Y-276225000D02*
X268076500Y-279506500D01*
X268401600Y-281399300D02*
X268401600Y-287376800D01*
X268076500Y-279506500D02*
X268076500Y-281074200D01*
%TO.N,/Level Shifters/PAN3V.CS_24*%
X228763400Y-284671400D02*
X227083400Y-284671400D01*
X189645400Y-294502000D02*
X189364200Y-294220800D01*
X227083400Y-284671400D02*
X217252800Y-294502000D01*
X233994200Y-279440600D02*
X228763400Y-284671400D01*
X261664700Y-278052500D02*
X258241200Y-278052500D01*
X258241200Y-278052500D02*
X256853100Y-279440600D01*
X256853100Y-279440600D02*
X233994200Y-279440600D01*
X217252800Y-294502000D02*
X189645400Y-294502000D01*
%TO.N,/Level Shifters/PAN3V.CS_25*%
X217308500Y-292774300D02*
X231157300Y-278925500D01*
X256304900Y-278925500D02*
X259005400Y-276225000D01*
X190532100Y-292823100D02*
X190580900Y-292774300D01*
X189461900Y-292823100D02*
X190532100Y-292823100D01*
X259005400Y-276225000D02*
X259715000Y-276225000D01*
X231157300Y-278925500D02*
X256304900Y-278925500D01*
X189364200Y-292920800D02*
X189461900Y-292823100D01*
X190580900Y-292774300D02*
X217308500Y-292774300D01*
%TO.N,/Level Shifters/PAN3V.CS_26*%
X255359600Y-278423500D02*
X257175000Y-276608100D01*
X217068400Y-291973000D02*
X230617900Y-278423500D01*
X189364200Y-292270800D02*
X191218200Y-292270800D01*
X257175000Y-276608100D02*
X257175000Y-276225000D01*
X191218200Y-292270800D02*
X191516000Y-291973000D01*
X191516000Y-291973000D02*
X217068400Y-291973000D01*
X230617900Y-278423500D02*
X255359600Y-278423500D01*
%TO.N,/Level Shifters/PAN3V.CS_27*%
X230192800Y-277883400D02*
X252976600Y-277883400D01*
X191490600Y-291160200D02*
X216916000Y-291160200D01*
X216916000Y-291160200D02*
X230192800Y-277883400D01*
X191030000Y-291620800D02*
X191490600Y-291160200D01*
X252976600Y-277883400D02*
X254635000Y-276225000D01*
X189364200Y-291620800D02*
X191030000Y-291620800D01*
%TO.N,/Level Shifters/PAN3V.CS_28*%
X215359600Y-287712800D02*
X188611700Y-287712800D01*
X188253000Y-288071500D02*
X188253000Y-290607400D01*
X242266300Y-275073100D02*
X241146000Y-276193400D01*
X226879000Y-276193400D02*
X215359600Y-287712800D01*
X241146000Y-276193400D02*
X226879000Y-276193400D01*
X188611700Y-287712800D02*
X188253000Y-288071500D01*
X188616400Y-290970800D02*
X189364200Y-290970800D01*
X252095000Y-276225000D02*
X250943100Y-275073100D01*
X250943100Y-275073100D02*
X242266300Y-275073100D01*
X188253000Y-290607400D02*
X188616400Y-290970800D01*
%TO.N,/Level Shifters/PAN3V.CS_29*%
X248401600Y-277378400D02*
X227621261Y-277378400D01*
X215012200Y-290320800D02*
X189364200Y-290320800D01*
X227621261Y-277378400D02*
X226853700Y-278145961D01*
X249555000Y-276225000D02*
X248401600Y-277378400D01*
X226853700Y-278145961D02*
X226853700Y-278479300D01*
X226853700Y-278479300D02*
X215012200Y-290320800D01*
%TO.N,/Level Shifters/PAN3V.EXT_INT*%
X189460500Y-289117100D02*
X189364200Y-289020800D01*
X244004700Y-276695300D02*
X227570900Y-276695300D01*
X215149100Y-289117100D02*
X189460500Y-289117100D01*
X244475000Y-276225000D02*
X244004700Y-276695300D01*
X227570900Y-276695300D02*
X215149100Y-289117100D01*
%TO.N,/Panel Headers/RESET*%
X216484200Y-250418600D02*
X221742000Y-245160800D01*
X166292000Y-266666000D02*
X165100000Y-265474000D01*
X232635500Y-109606200D02*
X232635500Y-104975100D01*
X259643200Y-145396200D02*
X260077900Y-144961500D01*
X170644400Y-266666000D02*
X166292000Y-266666000D01*
X280296900Y-175677100D02*
X265909800Y-161290000D01*
X252977300Y-130611400D02*
X251980900Y-130611400D01*
X108222100Y-122964500D02*
X108943900Y-122964500D01*
X192225000Y-91851000D02*
X190500000Y-90126000D01*
X122964500Y-247377900D02*
X122964500Y-250167700D01*
X210210900Y-259650300D02*
X206515900Y-259650300D01*
X121956500Y-109951900D02*
X121956500Y-108799300D01*
X260077900Y-137712000D02*
X252977300Y-130611400D01*
X260077900Y-144961500D02*
X260077900Y-137712000D01*
X181887100Y-95834200D02*
X182199200Y-95522100D01*
X259643200Y-155818600D02*
X259643200Y-145396200D01*
X210638500Y-260077900D02*
X210210900Y-259650300D01*
X145273600Y-95834200D02*
X181887100Y-95834200D01*
X197528500Y-91851000D02*
X192225000Y-91851000D01*
X265114600Y-161290000D02*
X259643200Y-155818600D01*
X214503000Y-250418600D02*
X216484200Y-250418600D01*
X265474000Y-190500000D02*
X280296900Y-175677100D01*
X250704000Y-130780100D02*
X245728600Y-125804700D01*
X122964500Y-250167700D02*
X136804400Y-264007600D01*
X171450000Y-265860400D02*
X170644400Y-266666000D01*
X245728600Y-122699300D02*
X232635500Y-109606200D01*
X144961500Y-95522100D02*
X145273600Y-95834200D01*
X216484200Y-88823800D02*
X200555700Y-88823800D01*
X136804400Y-264007600D02*
X163633600Y-264007600D01*
X206515900Y-259650300D02*
X202946000Y-263220200D01*
X228184500Y-245160800D02*
X240709800Y-232635500D01*
X251812200Y-130780100D02*
X250704000Y-130780100D01*
X245728600Y-125804700D02*
X245728600Y-122699300D01*
X240709800Y-232635500D02*
X247377900Y-232635500D01*
X130639500Y-95522100D02*
X144961500Y-95522100D01*
X200555700Y-88823800D02*
X197528500Y-91851000D01*
X232635500Y-104975100D02*
X216484200Y-88823800D01*
X121310400Y-104851200D02*
X130639500Y-95522100D01*
X202946000Y-263220200D02*
X173326300Y-263220200D01*
X288772600Y-169164000D02*
X282259500Y-175677100D01*
X121310400Y-108153200D02*
X121310400Y-104851200D01*
X108943900Y-122964500D02*
X121956500Y-109951900D01*
X113751834Y-227751166D02*
X113751834Y-227747034D01*
X290068000Y-169164000D02*
X288772600Y-169164000D01*
X282259500Y-175677100D02*
X280296900Y-175677100D01*
X251980900Y-130611400D02*
X251812200Y-130780100D01*
X121956500Y-108799300D02*
X121310400Y-108153200D01*
X171450000Y-265096500D02*
X171450000Y-265860400D01*
X113751834Y-227747034D02*
X96643300Y-210638500D01*
X173326300Y-263220200D02*
X171450000Y-265096500D01*
X221742000Y-245160800D02*
X228184500Y-245160800D01*
X265909800Y-161290000D02*
X265114600Y-161290000D01*
X163633600Y-264007600D02*
X165100000Y-265474000D01*
X96643300Y-210638500D02*
X95522100Y-210638500D01*
%TD*%
M02*
