%TF.GenerationSoftware,KiCad,Pcbnew,7.0.8-7.0.8~ubuntu22.04.1*%
%TF.CreationDate,2024-02-09T15:05:28-08:00*%
%TF.ProjectId,teensy_arena_12-12,7465656e-7379-45f6-9172-656e615f3132,rev?*%
%TF.SameCoordinates,Original*%
%TF.FileFunction,Soldermask,Bot*%
%TF.FilePolarity,Negative*%
%FSLAX46Y46*%
G04 Gerber Fmt 4.6, Leading zero omitted, Abs format (unit mm)*
G04 Created by KiCad (PCBNEW 7.0.8-7.0.8~ubuntu22.04.1) date 2024-02-09 15:05:28*
%MOMM*%
%LPD*%
G01*
G04 APERTURE LIST*
G04 Aperture macros list*
%AMRotRect*
0 Rectangle, with rotation*
0 The origin of the aperture is its center*
0 $1 length*
0 $2 width*
0 $3 Rotation angle, in degrees counterclockwise*
0 Add horizontal line*
21,1,$1,$2,0,0,$3*%
G04 Aperture macros list end*
%ADD10C,9.000000*%
%ADD11R,1.600000X1.600000*%
%ADD12C,1.600000*%
%ADD13RotRect,1.600000X1.600000X60.000000*%
%ADD14C,2.540000*%
%ADD15RotRect,1.600000X1.600000X330.000000*%
%ADD16RotRect,1.600000X1.600000X30.000000*%
%ADD17C,3.556000*%
%ADD18C,1.930400*%
%ADD19C,4.064000*%
%ADD20RotRect,1.600000X1.600000X210.000000*%
%ADD21R,1.300000X1.300000*%
%ADD22C,1.300000*%
%ADD23RotRect,1.600000X1.600000X240.000000*%
%ADD24RotRect,1.600000X1.600000X300.000000*%
%ADD25RotRect,1.600000X1.600000X120.000000*%
%ADD26RotRect,1.600000X1.600000X150.000000*%
G04 APERTURE END LIST*
D10*
%TO.C,H1*%
X63500000Y-63500000D03*
%TD*%
D11*
%TO.C,P10*%
X160020000Y-265474000D03*
D12*
X162560000Y-265474000D03*
X165100000Y-265474000D03*
X167640000Y-265474000D03*
X170180000Y-265474000D03*
X172720000Y-265474000D03*
X175260000Y-265474000D03*
X177800000Y-265474000D03*
X180340000Y-265474000D03*
X182880000Y-265474000D03*
X185420000Y-265474000D03*
X187960000Y-265474000D03*
X190500000Y-265474000D03*
X193040000Y-265474000D03*
X195580000Y-265474000D03*
%TD*%
D13*
%TO.C,P12*%
X244837900Y-237034932D03*
D12*
X246107900Y-234835227D03*
X247377900Y-232635523D03*
X248647900Y-230435818D03*
X249917900Y-228236114D03*
X251187900Y-226036409D03*
X252457900Y-223836705D03*
X253727900Y-221637000D03*
X254997900Y-219437295D03*
X256267900Y-217237591D03*
X257537900Y-215037886D03*
X258807900Y-212838182D03*
X260077900Y-210638477D03*
X261347900Y-208438773D03*
X262617900Y-206239068D03*
%TD*%
D11*
%TO.C,P7*%
X90126000Y-160020000D03*
D12*
X90126000Y-162560000D03*
X90126000Y-165100000D03*
X90126000Y-167640000D03*
X90126000Y-170180000D03*
X90126000Y-172720000D03*
X90126000Y-175260000D03*
X90126000Y-177800000D03*
X90126000Y-180340000D03*
X90126000Y-182880000D03*
X90126000Y-185420000D03*
X90126000Y-187960000D03*
X90126000Y-190500000D03*
X90126000Y-193040000D03*
X90126000Y-195580000D03*
%TD*%
D14*
%TO.C,SW1*%
X296960000Y-90982800D03*
X296960000Y-86233000D03*
X296960000Y-81483200D03*
%TD*%
D15*
%TO.C,P9*%
X118565068Y-244837900D03*
D12*
X120764773Y-246107900D03*
X122964477Y-247377900D03*
X125164182Y-248647900D03*
X127363886Y-249917900D03*
X129563591Y-251187900D03*
X131763295Y-252457900D03*
X133963000Y-253727900D03*
X136162705Y-254997900D03*
X138362409Y-256267900D03*
X140562114Y-257537900D03*
X142761818Y-258807900D03*
X144961523Y-260077900D03*
X147161227Y-261347900D03*
X149360932Y-262617900D03*
%TD*%
D16*
%TO.C,P11*%
X206239068Y-262617900D03*
D12*
X208438773Y-261347900D03*
X210638477Y-260077900D03*
X212838182Y-258807900D03*
X215037886Y-257537900D03*
X217237591Y-256267900D03*
X219437295Y-254997900D03*
X221637000Y-253727900D03*
X223836705Y-252457900D03*
X226036409Y-251187900D03*
X228236114Y-249917900D03*
X230435818Y-248647900D03*
X232635523Y-247377900D03*
X234835227Y-246107900D03*
X237034932Y-244837900D03*
%TD*%
D10*
%TO.C,H3*%
X292100000Y-292100000D03*
%TD*%
%TO.C,H4*%
X63500000Y-292100000D03*
%TD*%
D17*
%TO.C,J1*%
X299596200Y-111963200D03*
D18*
X301602800Y-116459000D03*
D17*
X299596200Y-120954800D03*
D19*
X292611200Y-116459000D03*
D17*
X298605600Y-116459000D03*
%TD*%
D20*
%TO.C,P5*%
X149360932Y-92982100D03*
D12*
X147161227Y-94252100D03*
X144961523Y-95522100D03*
X142761818Y-96792100D03*
X140562114Y-98062100D03*
X138362409Y-99332100D03*
X136162705Y-100602100D03*
X133963000Y-101872100D03*
X131763295Y-103142100D03*
X129563591Y-104412100D03*
X127363886Y-105682100D03*
X125164182Y-106952100D03*
X122964477Y-108222100D03*
X120764773Y-109492100D03*
X118565068Y-110762100D03*
%TD*%
D11*
%TO.C,P4*%
X195580000Y-90126000D03*
D12*
X193040000Y-90126000D03*
X190500000Y-90126000D03*
X187960000Y-90126000D03*
X185420000Y-90126000D03*
X182880000Y-90126000D03*
X180340000Y-90126000D03*
X177800000Y-90126000D03*
X175260000Y-90126000D03*
X172720000Y-90126000D03*
X170180000Y-90126000D03*
X167640000Y-90126000D03*
X165100000Y-90126000D03*
X162560000Y-90126000D03*
X160020000Y-90126000D03*
%TD*%
D11*
%TO.C,U18*%
X302895000Y-260985000D03*
D12*
X300355000Y-260985000D03*
X297815000Y-260985000D03*
X295275000Y-260985000D03*
X292735000Y-260985000D03*
X290195000Y-260985000D03*
X287655000Y-260985000D03*
X285115000Y-260985000D03*
X282575000Y-260985000D03*
X280035000Y-260985000D03*
X277495000Y-260985000D03*
X274955000Y-260985000D03*
X272415000Y-260985000D03*
X269875000Y-260985000D03*
X267335000Y-260985000D03*
X264795000Y-260985000D03*
X262255000Y-260985000D03*
X259715000Y-260985000D03*
X257175000Y-260985000D03*
X254635000Y-260985000D03*
X252095000Y-260985000D03*
X249555000Y-260985000D03*
X247015000Y-260985000D03*
X244475000Y-260985000D03*
X244475000Y-276225000D03*
X247015000Y-276225000D03*
X249555000Y-276225000D03*
X252095000Y-276225000D03*
X254635000Y-276225000D03*
X257175000Y-276225000D03*
X259715000Y-276225000D03*
X262255000Y-276225000D03*
X264795000Y-276225000D03*
X267335000Y-276225000D03*
X269875000Y-276225000D03*
X272415000Y-276225000D03*
X274955000Y-276225000D03*
X277495000Y-276225000D03*
X280035000Y-276225000D03*
X282575000Y-276225000D03*
X285115000Y-276225000D03*
X287655000Y-276225000D03*
X290195000Y-276225000D03*
X292735000Y-276225000D03*
X295275000Y-276225000D03*
X297815000Y-276225000D03*
X300355000Y-276225000D03*
X302895000Y-276225000D03*
X300355000Y-273685000D03*
X257175000Y-263525000D03*
X257175000Y-266065000D03*
X257175000Y-268605000D03*
X257175000Y-271145000D03*
X257175000Y-273685000D03*
D11*
X296595800Y-264035800D03*
D12*
X294055800Y-264035800D03*
X291515800Y-264035800D03*
X288975800Y-264035800D03*
X286435800Y-264035800D03*
D21*
X289925000Y-273786600D03*
D22*
X289925000Y-271786600D03*
X289925000Y-269786600D03*
X287925000Y-269786600D03*
X287925000Y-271786600D03*
X287925000Y-273786600D03*
X302165000Y-269875000D03*
X302165000Y-267335000D03*
%TD*%
D11*
%TO.C,P1*%
X265474000Y-195580000D03*
D12*
X265474000Y-193040000D03*
X265474000Y-190500000D03*
X265474000Y-187960000D03*
X265474000Y-185420000D03*
X265474000Y-182880000D03*
X265474000Y-180340000D03*
X265474000Y-177800000D03*
X265474000Y-175260000D03*
X265474000Y-172720000D03*
X265474000Y-170180000D03*
X265474000Y-167640000D03*
X265474000Y-165100000D03*
X265474000Y-162560000D03*
X265474000Y-160020000D03*
%TD*%
D23*
%TO.C,P6*%
X110762100Y-118565068D03*
D12*
X109492100Y-120764773D03*
X108222100Y-122964477D03*
X106952100Y-125164182D03*
X105682100Y-127363886D03*
X104412100Y-129563591D03*
X103142100Y-131763295D03*
X101872100Y-133963000D03*
X100602100Y-136162705D03*
X99332100Y-138362409D03*
X98062100Y-140562114D03*
X96792100Y-142761818D03*
X95522100Y-144961523D03*
X94252100Y-147161227D03*
X92982100Y-149360932D03*
%TD*%
D24*
%TO.C,P8*%
X92982100Y-206239068D03*
D12*
X94252100Y-208438773D03*
X95522100Y-210638477D03*
X96792100Y-212838182D03*
X98062100Y-215037886D03*
X99332100Y-217237591D03*
X100602100Y-219437295D03*
X101872100Y-221637000D03*
X103142100Y-223836705D03*
X104412100Y-226036409D03*
X105682100Y-228236114D03*
X106952100Y-230435818D03*
X108222100Y-232635523D03*
X109492100Y-234835227D03*
X110762100Y-237034932D03*
%TD*%
D10*
%TO.C,H2*%
X292100000Y-63500000D03*
%TD*%
D25*
%TO.C,P2*%
X262617900Y-149360932D03*
D12*
X261347900Y-147161227D03*
X260077900Y-144961523D03*
X258807900Y-142761818D03*
X257537900Y-140562114D03*
X256267900Y-138362409D03*
X254997900Y-136162705D03*
X253727900Y-133963000D03*
X252457900Y-131763295D03*
X251187900Y-129563591D03*
X249917900Y-127363886D03*
X248647900Y-125164182D03*
X247377900Y-122964477D03*
X246107900Y-120764773D03*
X244837900Y-118565068D03*
%TD*%
D26*
%TO.C,P3*%
X237034932Y-110762100D03*
D12*
X234835227Y-109492100D03*
X232635523Y-108222100D03*
X230435818Y-106952100D03*
X228236114Y-105682100D03*
X226036409Y-104412100D03*
X223836705Y-103142100D03*
X221637000Y-101872100D03*
X219437295Y-100602100D03*
X217237591Y-99332100D03*
X215037886Y-98062100D03*
X212838182Y-96792100D03*
X210638477Y-95522100D03*
X208438773Y-94252100D03*
X206239068Y-92982100D03*
%TD*%
M02*
