%TF.GenerationSoftware,KiCad,Pcbnew,7.0.8-7.0.8~ubuntu22.04.1*%
%TF.CreationDate,2024-02-09T15:05:28-08:00*%
%TF.ProjectId,teensy_arena_12-12,7465656e-7379-45f6-9172-656e615f3132,rev?*%
%TF.SameCoordinates,Original*%
%TF.FileFunction,Soldermask,Top*%
%TF.FilePolarity,Negative*%
%FSLAX46Y46*%
G04 Gerber Fmt 4.6, Leading zero omitted, Abs format (unit mm)*
G04 Created by KiCad (PCBNEW 7.0.8-7.0.8~ubuntu22.04.1) date 2024-02-09 15:05:28*
%MOMM*%
%LPD*%
G01*
G04 APERTURE LIST*
G04 Aperture macros list*
%AMRoundRect*
0 Rectangle with rounded corners*
0 $1 Rounding radius*
0 $2 $3 $4 $5 $6 $7 $8 $9 X,Y pos of 4 corners*
0 Add a 4 corners polygon primitive as box body*
4,1,4,$2,$3,$4,$5,$6,$7,$8,$9,$2,$3,0*
0 Add four circle primitives for the rounded corners*
1,1,$1+$1,$2,$3*
1,1,$1+$1,$4,$5*
1,1,$1+$1,$6,$7*
1,1,$1+$1,$8,$9*
0 Add four rect primitives between the rounded corners*
20,1,$1+$1,$2,$3,$4,$5,0*
20,1,$1+$1,$4,$5,$6,$7,0*
20,1,$1+$1,$6,$7,$8,$9,0*
20,1,$1+$1,$8,$9,$2,$3,0*%
%AMRotRect*
0 Rectangle, with rotation*
0 The origin of the aperture is its center*
0 $1 length*
0 $2 width*
0 $3 Rotation angle, in degrees counterclockwise*
0 Add horizontal line*
21,1,$1,$2,0,0,$3*%
G04 Aperture macros list end*
%ADD10RoundRect,0.250000X0.583133X0.385016X0.041867X0.697516X-0.583133X-0.385016X-0.041867X-0.697516X0*%
%ADD11RoundRect,0.250000X0.697516X0.041867X0.385016X0.583133X-0.697516X-0.041867X-0.385016X-0.583133X0*%
%ADD12RoundRect,0.250000X0.625000X-0.312500X0.625000X0.312500X-0.625000X0.312500X-0.625000X-0.312500X0*%
%ADD13RoundRect,0.250000X0.385016X-0.583133X0.697516X-0.041867X-0.385016X0.583133X-0.697516X0.041867X0*%
%ADD14RoundRect,0.250000X0.041867X-0.697516X0.583133X-0.385016X-0.041867X0.697516X-0.583133X0.385016X0*%
%ADD15RoundRect,0.250000X-0.312500X-0.625000X0.312500X-0.625000X0.312500X0.625000X-0.312500X0.625000X0*%
%ADD16RoundRect,0.250000X-0.583133X-0.385016X-0.041867X-0.697516X0.583133X0.385016X0.041867X0.697516X0*%
%ADD17RoundRect,0.250000X-0.697516X-0.041867X-0.385016X-0.583133X0.697516X0.041867X0.385016X0.583133X0*%
%ADD18RoundRect,0.250000X-0.625000X0.312500X-0.625000X-0.312500X0.625000X-0.312500X0.625000X0.312500X0*%
%ADD19RoundRect,0.250000X-0.385016X0.583133X-0.697516X0.041867X0.385016X-0.583133X0.697516X-0.041867X0*%
%ADD20RoundRect,0.250000X-0.041867X0.697516X-0.583133X0.385016X0.041867X-0.697516X0.583133X-0.385016X0*%
%ADD21RoundRect,0.250000X0.312500X0.625000X-0.312500X0.625000X-0.312500X-0.625000X0.312500X-0.625000X0*%
%ADD22RoundRect,0.250000X1.184327X-0.048686X-0.634327X1.001314X-1.184327X0.048686X0.634327X-1.001314X0*%
%ADD23RoundRect,0.250000X-0.350000X0.850000X-0.350000X-0.850000X0.350000X-0.850000X0.350000X0.850000X0*%
%ADD24RoundRect,0.249997X-2.650003X2.950003X-2.650003X-2.950003X2.650003X-2.950003X2.650003X2.950003X0*%
%ADD25RoundRect,0.225000X0.225000X0.250000X-0.225000X0.250000X-0.225000X-0.250000X0.225000X-0.250000X0*%
%ADD26C,9.000000*%
%ADD27R,1.600000X1.600000*%
%ADD28C,1.600000*%
%ADD29RotRect,1.600000X1.600000X60.000000*%
%ADD30RoundRect,0.250000X-1.050000X-0.550000X1.050000X-0.550000X1.050000X0.550000X-1.050000X0.550000X0*%
%ADD31RoundRect,0.250000X1.001314X-0.634327X-0.048686X1.184327X-1.001314X0.634327X0.048686X-1.184327X0*%
%ADD32C,2.540000*%
%ADD33RoundRect,0.100000X0.637500X0.100000X-0.637500X0.100000X-0.637500X-0.100000X0.637500X-0.100000X0*%
%ADD34RoundRect,0.250000X0.048686X1.184327X-1.001314X-0.634327X-0.048686X-1.184327X1.001314X0.634327X0*%
%ADD35RoundRect,0.100000X-0.637500X-0.100000X0.637500X-0.100000X0.637500X0.100000X-0.637500X0.100000X0*%
%ADD36RotRect,1.600000X1.600000X330.000000*%
%ADD37RoundRect,0.250000X-0.850000X-0.350000X0.850000X-0.350000X0.850000X0.350000X-0.850000X0.350000X0*%
%ADD38RoundRect,0.249997X-2.950003X-2.650003X2.950003X-2.650003X2.950003X2.650003X-2.950003X2.650003X0*%
%ADD39RotRect,1.600000X1.600000X30.000000*%
%ADD40RoundRect,0.250000X0.634327X1.001314X-1.184327X-0.048686X-0.634327X-1.001314X1.184327X0.048686X0*%
%ADD41RoundRect,0.225000X-0.225000X-0.250000X0.225000X-0.250000X0.225000X0.250000X-0.225000X0.250000X0*%
%ADD42RoundRect,0.150000X0.625000X-0.150000X0.625000X0.150000X-0.625000X0.150000X-0.625000X-0.150000X0*%
%ADD43RoundRect,0.250000X0.650000X-0.350000X0.650000X0.350000X-0.650000X0.350000X-0.650000X-0.350000X0*%
%ADD44RoundRect,0.250000X-1.184327X0.048686X0.634327X-1.001314X1.184327X-0.048686X-0.634327X1.001314X0*%
%ADD45RoundRect,0.250000X-0.634327X-1.001314X1.184327X0.048686X0.634327X1.001314X-1.184327X-0.048686X0*%
%ADD46RoundRect,0.250000X-0.728109X0.561122X0.121891X-0.911122X0.728109X-0.561122X-0.121891X0.911122X0*%
%ADD47RoundRect,0.249997X-3.769971X1.229776X-0.819968X-3.879779X3.769971X-1.229776X0.819968X3.879779X0*%
%ADD48RoundRect,0.250000X0.850000X0.350000X-0.850000X0.350000X-0.850000X-0.350000X0.850000X-0.350000X0*%
%ADD49RoundRect,0.249997X2.950003X2.650003X-2.950003X2.650003X-2.950003X-2.650003X2.950003X-2.650003X0*%
%ADD50RoundRect,0.250000X-0.121891X-0.911122X0.728109X0.561122X0.121891X0.911122X-0.728109X-0.561122X0*%
%ADD51RoundRect,0.249997X0.819968X-3.879779X3.769971X1.229776X-0.819968X3.879779X-3.769971X-1.229776X0*%
%ADD52RoundRect,0.150000X0.512500X0.150000X-0.512500X0.150000X-0.512500X-0.150000X0.512500X-0.150000X0*%
%ADD53RoundRect,0.250000X-0.550000X1.050000X-0.550000X-1.050000X0.550000X-1.050000X0.550000X1.050000X0*%
%ADD54RoundRect,0.250000X0.561122X0.728109X-0.911122X-0.121891X-0.561122X-0.728109X0.911122X0.121891X0*%
%ADD55RoundRect,0.249997X1.229776X3.769971X-3.879779X0.819968X-1.229776X-3.769971X3.879779X-0.819968X0*%
%ADD56C,3.556000*%
%ADD57C,1.930400*%
%ADD58C,4.064000*%
%ADD59RoundRect,0.250000X0.728109X-0.561122X-0.121891X0.911122X-0.728109X0.561122X0.121891X-0.911122X0*%
%ADD60RoundRect,0.249997X3.769971X-1.229776X0.819968X3.879779X-3.769971X1.229776X-0.819968X-3.879779X0*%
%ADD61RoundRect,0.250000X-1.001314X0.634327X0.048686X-1.184327X1.001314X-0.634327X-0.048686X1.184327X0*%
%ADD62RotRect,1.600000X1.600000X210.000000*%
%ADD63RoundRect,0.250000X-0.262500X-0.450000X0.262500X-0.450000X0.262500X0.450000X-0.262500X0.450000X0*%
%ADD64RoundRect,0.250000X0.911122X-0.121891X-0.561122X0.728109X-0.911122X0.121891X0.561122X-0.728109X0*%
%ADD65RoundRect,0.249997X3.879779X0.819968X-1.229776X3.769971X-3.879779X-0.819968X1.229776X-3.769971X0*%
%ADD66R,1.300000X1.300000*%
%ADD67C,1.300000*%
%ADD68RotRect,1.600000X1.600000X240.000000*%
%ADD69RotRect,1.600000X1.600000X300.000000*%
%ADD70RoundRect,0.250000X1.050000X0.550000X-1.050000X0.550000X-1.050000X-0.550000X1.050000X-0.550000X0*%
%ADD71RoundRect,0.250000X-0.048686X-1.184327X1.001314X0.634327X0.048686X1.184327X-1.001314X-0.634327X0*%
%ADD72RoundRect,0.250000X0.550000X-1.050000X0.550000X1.050000X-0.550000X1.050000X-0.550000X-1.050000X0*%
%ADD73RoundRect,0.250000X-0.911122X0.121891X0.561122X-0.728109X0.911122X-0.121891X-0.561122X0.728109X0*%
%ADD74RoundRect,0.249997X-3.879779X-0.819968X1.229776X-3.769971X3.879779X0.819968X-1.229776X3.769971X0*%
%ADD75RotRect,1.600000X1.600000X120.000000*%
%ADD76RoundRect,0.250000X0.350000X-0.850000X0.350000X0.850000X-0.350000X0.850000X-0.350000X-0.850000X0*%
%ADD77RoundRect,0.249997X2.650003X-2.950003X2.650003X2.950003X-2.650003X2.950003X-2.650003X-2.950003X0*%
%ADD78RotRect,1.600000X1.600000X150.000000*%
%ADD79RoundRect,0.250000X-0.561122X-0.728109X0.911122X0.121891X0.561122X0.728109X-0.911122X-0.121891X0*%
%ADD80RoundRect,0.249997X-1.229776X-3.769971X3.879779X-0.819968X1.229776X3.769971X-3.879779X0.819968X0*%
%ADD81RoundRect,0.250000X-0.450000X0.262500X-0.450000X-0.262500X0.450000X-0.262500X0.450000X0.262500X0*%
%ADD82RoundRect,0.250000X0.121891X0.911122X-0.728109X-0.561122X-0.121891X-0.911122X0.728109X0.561122X0*%
%ADD83RoundRect,0.249997X-0.819968X3.879779X-3.769971X-1.229776X0.819968X-3.879779X3.769971X1.229776X0*%
G04 APERTURE END LIST*
D10*
%TO.C,R14*%
X262719062Y-234940950D03*
X260185938Y-233478450D03*
%TD*%
D11*
%TO.C,R13*%
X222771550Y-269745062D03*
X221309050Y-267211938D03*
%TD*%
D12*
%TO.C,R12*%
X170774000Y-279912500D03*
X170774000Y-276987500D03*
%TD*%
D13*
%TO.C,R11*%
X120659050Y-262719062D03*
X122121550Y-260185938D03*
%TD*%
D14*
%TO.C,R10*%
X85854938Y-222771550D03*
X88388062Y-221309050D03*
%TD*%
D15*
%TO.C,R9*%
X75687500Y-170774000D03*
X78612500Y-170774000D03*
%TD*%
D16*
%TO.C,R8*%
X92880938Y-120659050D03*
X95414062Y-122121550D03*
%TD*%
D17*
%TO.C,R7*%
X132828450Y-85854938D03*
X134290950Y-88388062D03*
%TD*%
D18*
%TO.C,R6*%
X184826000Y-75687500D03*
X184826000Y-78612500D03*
%TD*%
D19*
%TO.C,R5*%
X234940950Y-92880938D03*
X233478450Y-95414062D03*
%TD*%
D20*
%TO.C,R4*%
X267211938Y-134290950D03*
X269745062Y-132828450D03*
%TD*%
D21*
%TO.C,R3*%
X276987500Y-184826000D03*
X279912500Y-184826000D03*
%TD*%
D22*
%TO.C,C21*%
X104438346Y-106658000D03*
X101320654Y-104858000D03*
%TD*%
D23*
%TO.C,U15*%
X161877000Y-276619000D03*
X159597000Y-276619000D03*
D24*
X159597000Y-282919000D03*
D23*
X157317000Y-276619000D03*
%TD*%
D25*
%TO.C,C3*%
X275320000Y-239080000D03*
X273770000Y-239080000D03*
%TD*%
D26*
%TO.C,H1*%
X63500000Y-63500000D03*
%TD*%
D27*
%TO.C,P10*%
X160020000Y-265474000D03*
D28*
X162560000Y-265474000D03*
X165100000Y-265474000D03*
X167640000Y-265474000D03*
X170180000Y-265474000D03*
X172720000Y-265474000D03*
X175260000Y-265474000D03*
X177800000Y-265474000D03*
X180340000Y-265474000D03*
X182880000Y-265474000D03*
X185420000Y-265474000D03*
X187960000Y-265474000D03*
X190500000Y-265474000D03*
X193040000Y-265474000D03*
X195580000Y-265474000D03*
%TD*%
D25*
%TO.C,C6*%
X225130000Y-293684000D03*
X223580000Y-293684000D03*
%TD*%
D29*
%TO.C,P12*%
X244837900Y-237034932D03*
D28*
X246107900Y-234835227D03*
X247377900Y-232635523D03*
X248647900Y-230435818D03*
X249917900Y-228236114D03*
X251187900Y-226036409D03*
X252457900Y-223836705D03*
X253727900Y-221637000D03*
X254997900Y-219437295D03*
X256267900Y-217237591D03*
X257537900Y-215037886D03*
X258807900Y-212838182D03*
X260077900Y-210638477D03*
X261347900Y-208438773D03*
X262617900Y-206239068D03*
%TD*%
D27*
%TO.C,P7*%
X90126000Y-160020000D03*
D28*
X90126000Y-162560000D03*
X90126000Y-165100000D03*
X90126000Y-167640000D03*
X90126000Y-170180000D03*
X90126000Y-172720000D03*
X90126000Y-175260000D03*
X90126000Y-177800000D03*
X90126000Y-180340000D03*
X90126000Y-182880000D03*
X90126000Y-185420000D03*
X90126000Y-187960000D03*
X90126000Y-190500000D03*
X90126000Y-193040000D03*
X90126000Y-195580000D03*
%TD*%
D30*
%TO.C,C24*%
X75096000Y-166370000D03*
X78696000Y-166370000D03*
%TD*%
D31*
%TO.C,C19*%
X149838000Y-79508346D03*
X148038000Y-76390654D03*
%TD*%
D30*
%TO.C,C11*%
X276904000Y-202730000D03*
X280504000Y-202730000D03*
%TD*%
D32*
%TO.C,SW1*%
X296960000Y-90982800D03*
X296960000Y-86233000D03*
X296960000Y-81483200D03*
%TD*%
D33*
%TO.C,U3*%
X233402100Y-294342600D03*
X233402100Y-293692600D03*
X233402100Y-293042600D03*
X233402100Y-292392600D03*
X233402100Y-291742600D03*
X233402100Y-291092600D03*
X233402100Y-290442600D03*
X233402100Y-289792600D03*
X233402100Y-289142600D03*
X233402100Y-288492600D03*
X227677100Y-288492600D03*
X227677100Y-289142600D03*
X227677100Y-289792600D03*
X227677100Y-290442600D03*
X227677100Y-291092600D03*
X227677100Y-291742600D03*
X227677100Y-292392600D03*
X227677100Y-293042600D03*
X227677100Y-293692600D03*
X227677100Y-294342600D03*
%TD*%
D34*
%TO.C,C27*%
X106658000Y-251161654D03*
X104858000Y-254279346D03*
%TD*%
D25*
%TO.C,C8*%
X262687000Y-293654000D03*
X261137000Y-293654000D03*
%TD*%
D35*
%TO.C,U2*%
X277878400Y-238414800D03*
X277878400Y-239064800D03*
X277878400Y-239714800D03*
X277878400Y-240364800D03*
X277878400Y-241014800D03*
X277878400Y-241664800D03*
X277878400Y-242314800D03*
X277878400Y-242964800D03*
X277878400Y-243614800D03*
X277878400Y-244264800D03*
X283603400Y-244264800D03*
X283603400Y-243614800D03*
X283603400Y-242964800D03*
X283603400Y-242314800D03*
X283603400Y-241664800D03*
X283603400Y-241014800D03*
X283603400Y-240364800D03*
X283603400Y-239714800D03*
X283603400Y-239064800D03*
X283603400Y-238414800D03*
%TD*%
D36*
%TO.C,P9*%
X118565068Y-244837900D03*
D28*
X120764773Y-246107900D03*
X122964477Y-247377900D03*
X125164182Y-248647900D03*
X127363886Y-249917900D03*
X129563591Y-251187900D03*
X131763295Y-252457900D03*
X133963000Y-253727900D03*
X136162705Y-254997900D03*
X138362409Y-256267900D03*
X140562114Y-257537900D03*
X142761818Y-258807900D03*
X144961523Y-260077900D03*
X147161227Y-261347900D03*
X149360932Y-262617900D03*
%TD*%
D37*
%TO.C,U6*%
X276619000Y-193723000D03*
X276619000Y-196003000D03*
D38*
X282919000Y-196003000D03*
D37*
X276619000Y-198283000D03*
%TD*%
D39*
%TO.C,P11*%
X206239068Y-262617900D03*
D28*
X208438773Y-261347900D03*
X210638477Y-260077900D03*
X212838182Y-258807900D03*
X215037886Y-257537900D03*
X217237591Y-256267900D03*
X219437295Y-254997900D03*
X221637000Y-253727900D03*
X223836705Y-252457900D03*
X226036409Y-251187900D03*
X228236114Y-249917900D03*
X230435818Y-248647900D03*
X232635523Y-247377900D03*
X234835227Y-246107900D03*
X237034932Y-244837900D03*
%TD*%
D40*
%TO.C,C14*%
X272459346Y-136346700D03*
X269341654Y-138146700D03*
%TD*%
D41*
%TO.C,C9*%
X191729000Y-293604000D03*
X193279000Y-293604000D03*
%TD*%
D42*
%TO.C,J3*%
X299500000Y-232005000D03*
X299500000Y-231005000D03*
X299500000Y-230005000D03*
X299500000Y-229005000D03*
D43*
X303375000Y-233305000D03*
X303375000Y-227705000D03*
%TD*%
D41*
%TO.C,C2*%
X286499000Y-220472000D03*
X288049000Y-220472000D03*
%TD*%
%TO.C,C5*%
X235915000Y-293674000D03*
X237465000Y-293674000D03*
%TD*%
D44*
%TO.C,C22*%
X94570654Y-116549300D03*
X97688346Y-118349300D03*
%TD*%
D25*
%TO.C,C10*%
X181129000Y-293564000D03*
X179579000Y-293564000D03*
%TD*%
D34*
%TO.C,C16*%
X239050700Y-94570654D03*
X237250700Y-97688346D03*
%TD*%
D45*
%TO.C,C26*%
X83140654Y-219253300D03*
X86258346Y-217453300D03*
%TD*%
D46*
%TO.C,U16*%
X213419838Y-271341332D03*
X211445300Y-272481332D03*
D47*
X214595300Y-277937292D03*
D46*
X209470762Y-273621332D03*
%TD*%
D48*
%TO.C,U12*%
X78981000Y-161877000D03*
X78981000Y-159597000D03*
D49*
X72681000Y-159597000D03*
D48*
X78981000Y-157317000D03*
%TD*%
D50*
%TO.C,U8*%
X240999262Y-100181668D03*
X242973800Y-101321668D03*
D51*
X246123800Y-95865708D03*
D50*
X244948338Y-102461668D03*
%TD*%
D26*
%TO.C,H3*%
X292100000Y-292100000D03*
%TD*%
D35*
%TO.C,U1*%
X277993000Y-219874000D03*
X277993000Y-220524000D03*
X277993000Y-221174000D03*
X277993000Y-221824000D03*
X277993000Y-222474000D03*
X277993000Y-223124000D03*
X277993000Y-223774000D03*
X277993000Y-224424000D03*
X277993000Y-225074000D03*
X277993000Y-225724000D03*
X283718000Y-225724000D03*
X283718000Y-225074000D03*
X283718000Y-224424000D03*
X283718000Y-223774000D03*
X283718000Y-223124000D03*
X283718000Y-222474000D03*
X283718000Y-221824000D03*
X283718000Y-221174000D03*
X283718000Y-220524000D03*
X283718000Y-219874000D03*
%TD*%
D52*
%TO.C,Q2*%
X292343000Y-170114000D03*
X292343000Y-168214000D03*
X290068000Y-169164000D03*
%TD*%
D26*
%TO.C,H4*%
X63500000Y-292100000D03*
%TD*%
D53*
%TO.C,C29*%
X152870000Y-276904000D03*
X152870000Y-280504000D03*
%TD*%
D54*
%TO.C,U13*%
X84258668Y-213419838D03*
X83118668Y-211445300D03*
D55*
X77662708Y-214595300D03*
D54*
X81978668Y-209470762D03*
%TD*%
D56*
%TO.C,J1*%
X299596200Y-111963200D03*
D57*
X301602800Y-116459000D03*
D56*
X299596200Y-120954800D03*
D58*
X292611200Y-116459000D03*
D56*
X298605600Y-116459000D03*
%TD*%
D59*
%TO.C,U10*%
X142180162Y-84258668D03*
X144154700Y-83118668D03*
D60*
X141004700Y-77662708D03*
D59*
X146129238Y-81978668D03*
%TD*%
D61*
%TO.C,C31*%
X205762000Y-276091654D03*
X207562000Y-279209346D03*
%TD*%
D62*
%TO.C,P5*%
X149360932Y-92982100D03*
D28*
X147161227Y-94252100D03*
X144961523Y-95522100D03*
X142761818Y-96792100D03*
X140562114Y-98062100D03*
X138362409Y-99332100D03*
X136162705Y-100602100D03*
X133963000Y-101872100D03*
X131763295Y-103142100D03*
X129563591Y-104412100D03*
X127363886Y-105682100D03*
X125164182Y-106952100D03*
X122964477Y-108222100D03*
X120764773Y-109492100D03*
X118565068Y-110762100D03*
%TD*%
D33*
%TO.C,U4*%
X270845100Y-294291800D03*
X270845100Y-293641800D03*
X270845100Y-292991800D03*
X270845100Y-292341800D03*
X270845100Y-291691800D03*
X270845100Y-291041800D03*
X270845100Y-290391800D03*
X270845100Y-289741800D03*
X270845100Y-289091800D03*
X270845100Y-288441800D03*
X265120100Y-288441800D03*
X265120100Y-289091800D03*
X265120100Y-289741800D03*
X265120100Y-290391800D03*
X265120100Y-291041800D03*
X265120100Y-291691800D03*
X265120100Y-292341800D03*
X265120100Y-292991800D03*
X265120100Y-293641800D03*
X265120100Y-294291800D03*
%TD*%
D27*
%TO.C,P4*%
X195580000Y-90126000D03*
D28*
X193040000Y-90126000D03*
X190500000Y-90126000D03*
X187960000Y-90126000D03*
X185420000Y-90126000D03*
X182880000Y-90126000D03*
X180340000Y-90126000D03*
X177800000Y-90126000D03*
X175260000Y-90126000D03*
X172720000Y-90126000D03*
X170180000Y-90126000D03*
X167640000Y-90126000D03*
X165100000Y-90126000D03*
X162560000Y-90126000D03*
X160020000Y-90126000D03*
%TD*%
D63*
%TO.C,R1*%
X292307000Y-172466000D03*
X294132000Y-172466000D03*
%TD*%
D31*
%TO.C,C32*%
X219253300Y-272459346D03*
X217453300Y-269341654D03*
%TD*%
D64*
%TO.C,U11*%
X100181668Y-114600738D03*
X101321668Y-112626200D03*
D65*
X95865708Y-109476200D03*
D64*
X102461668Y-110651662D03*
%TD*%
D27*
%TO.C,U18*%
X302895000Y-260985000D03*
D28*
X300355000Y-260985000D03*
X297815000Y-260985000D03*
X295275000Y-260985000D03*
X292735000Y-260985000D03*
X290195000Y-260985000D03*
X287655000Y-260985000D03*
X285115000Y-260985000D03*
X282575000Y-260985000D03*
X280035000Y-260985000D03*
X277495000Y-260985000D03*
X274955000Y-260985000D03*
X272415000Y-260985000D03*
X269875000Y-260985000D03*
X267335000Y-260985000D03*
X264795000Y-260985000D03*
X262255000Y-260985000D03*
X259715000Y-260985000D03*
X257175000Y-260985000D03*
X254635000Y-260985000D03*
X252095000Y-260985000D03*
X249555000Y-260985000D03*
X247015000Y-260985000D03*
X244475000Y-260985000D03*
X244475000Y-276225000D03*
X247015000Y-276225000D03*
X249555000Y-276225000D03*
X252095000Y-276225000D03*
X254635000Y-276225000D03*
X257175000Y-276225000D03*
X259715000Y-276225000D03*
X262255000Y-276225000D03*
X264795000Y-276225000D03*
X267335000Y-276225000D03*
X269875000Y-276225000D03*
X272415000Y-276225000D03*
X274955000Y-276225000D03*
X277495000Y-276225000D03*
X280035000Y-276225000D03*
X282575000Y-276225000D03*
X285115000Y-276225000D03*
X287655000Y-276225000D03*
X290195000Y-276225000D03*
X292735000Y-276225000D03*
X295275000Y-276225000D03*
X297815000Y-276225000D03*
X300355000Y-276225000D03*
X302895000Y-276225000D03*
X300355000Y-273685000D03*
X257175000Y-263525000D03*
X257175000Y-266065000D03*
X257175000Y-268605000D03*
X257175000Y-271145000D03*
X257175000Y-273685000D03*
D27*
X296595800Y-264035800D03*
D28*
X294055800Y-264035800D03*
X291515800Y-264035800D03*
X288975800Y-264035800D03*
X286435800Y-264035800D03*
D66*
X289925000Y-273786600D03*
D67*
X289925000Y-271786600D03*
X289925000Y-269786600D03*
X287925000Y-269786600D03*
X287925000Y-271786600D03*
X287925000Y-273786600D03*
X302165000Y-269875000D03*
X302165000Y-267335000D03*
%TD*%
D53*
%TO.C,C18*%
X189230000Y-75096000D03*
X189230000Y-78696000D03*
%TD*%
D27*
%TO.C,P1*%
X265474000Y-195580000D03*
D28*
X265474000Y-193040000D03*
X265474000Y-190500000D03*
X265474000Y-187960000D03*
X265474000Y-185420000D03*
X265474000Y-182880000D03*
X265474000Y-180340000D03*
X265474000Y-177800000D03*
X265474000Y-175260000D03*
X265474000Y-172720000D03*
X265474000Y-170180000D03*
X265474000Y-167640000D03*
X265474000Y-165100000D03*
X265474000Y-162560000D03*
X265474000Y-160020000D03*
%TD*%
D68*
%TO.C,P6*%
X110762100Y-118565068D03*
D28*
X109492100Y-120764773D03*
X108222100Y-122964477D03*
X106952100Y-125164182D03*
X105682100Y-127363886D03*
X104412100Y-129563591D03*
X103142100Y-131763295D03*
X101872100Y-133963000D03*
X100602100Y-136162705D03*
X99332100Y-138362409D03*
X98062100Y-140562114D03*
X96792100Y-142761818D03*
X95522100Y-144961523D03*
X94252100Y-147161227D03*
X92982100Y-149360932D03*
%TD*%
D69*
%TO.C,P8*%
X92982100Y-206239068D03*
D28*
X94252100Y-208438773D03*
X95522100Y-210638477D03*
X96792100Y-212838182D03*
X98062100Y-215037886D03*
X99332100Y-217237591D03*
X100602100Y-219437295D03*
X101872100Y-221637000D03*
X103142100Y-223836705D03*
X104412100Y-226036409D03*
X105682100Y-228236114D03*
X106952100Y-230435818D03*
X108222100Y-232635523D03*
X109492100Y-234835227D03*
X110762100Y-237034932D03*
%TD*%
D70*
%TO.C,C23*%
X78696000Y-152870000D03*
X75096000Y-152870000D03*
%TD*%
D71*
%TO.C,C28*%
X116549300Y-261029346D03*
X118349300Y-257911654D03*
%TD*%
D40*
%TO.C,C25*%
X79508346Y-205762000D03*
X76390654Y-207562000D03*
%TD*%
D26*
%TO.C,H2*%
X292100000Y-63500000D03*
%TD*%
D41*
%TO.C,C4*%
X286110000Y-239080000D03*
X287660000Y-239080000D03*
%TD*%
D61*
%TO.C,C20*%
X136346700Y-83140654D03*
X138146700Y-86258346D03*
%TD*%
D72*
%TO.C,C30*%
X166370000Y-280504000D03*
X166370000Y-276904000D03*
%TD*%
D41*
%TO.C,C7*%
X273517000Y-293624000D03*
X275067000Y-293624000D03*
%TD*%
D25*
%TO.C,C1*%
X274688600Y-220522800D03*
X273138600Y-220522800D03*
%TD*%
D22*
%TO.C,C34*%
X261029346Y-239050700D03*
X257911654Y-237250700D03*
%TD*%
D71*
%TO.C,C15*%
X248942000Y-104438346D03*
X250742000Y-101320654D03*
%TD*%
D45*
%TO.C,C13*%
X276091654Y-149838000D03*
X279209346Y-148038000D03*
%TD*%
D70*
%TO.C,C12*%
X280504000Y-189230000D03*
X276904000Y-189230000D03*
%TD*%
D73*
%TO.C,U17*%
X255418332Y-240999262D03*
X254278332Y-242973800D03*
D74*
X259734292Y-246123800D03*
D73*
X253138332Y-244948338D03*
%TD*%
D75*
%TO.C,P2*%
X262617900Y-149360932D03*
D28*
X261347900Y-147161227D03*
X260077900Y-144961523D03*
X258807900Y-142761818D03*
X257537900Y-140562114D03*
X256267900Y-138362409D03*
X254997900Y-136162705D03*
X253727900Y-133963000D03*
X252457900Y-131763295D03*
X251187900Y-129563591D03*
X249917900Y-127363886D03*
X248647900Y-125164182D03*
X247377900Y-122964477D03*
X246107900Y-120764773D03*
X244837900Y-118565068D03*
%TD*%
D42*
%TO.C,J2*%
X299500000Y-241016000D03*
X299500000Y-240016000D03*
X299500000Y-239016000D03*
X299500000Y-238016000D03*
D43*
X303375000Y-242316000D03*
X303375000Y-236716000D03*
%TD*%
D76*
%TO.C,U9*%
X193723000Y-78981000D03*
X196003000Y-78981000D03*
D77*
X196003000Y-72681000D03*
D76*
X198283000Y-78981000D03*
%TD*%
D78*
%TO.C,P3*%
X237034932Y-110762100D03*
D28*
X234835227Y-109492100D03*
X232635523Y-108222100D03*
X230435818Y-106952100D03*
X228236114Y-105682100D03*
X226036409Y-104412100D03*
X223836705Y-103142100D03*
X221637000Y-101872100D03*
X219437295Y-100602100D03*
X217237591Y-99332100D03*
X215037886Y-98062100D03*
X212838182Y-96792100D03*
X210638477Y-95522100D03*
X208438773Y-94252100D03*
X206239068Y-92982100D03*
%TD*%
D79*
%TO.C,U7*%
X271341332Y-142180162D03*
X272481332Y-144154700D03*
D80*
X277937292Y-141004700D03*
D79*
X273621332Y-146129238D03*
%TD*%
D33*
%TO.C,U5*%
X189364200Y-294220800D03*
X189364200Y-293570800D03*
X189364200Y-292920800D03*
X189364200Y-292270800D03*
X189364200Y-291620800D03*
X189364200Y-290970800D03*
X189364200Y-290320800D03*
X189364200Y-289670800D03*
X189364200Y-289020800D03*
X189364200Y-288370800D03*
X183639200Y-288370800D03*
X183639200Y-289020800D03*
X183639200Y-289670800D03*
X183639200Y-290320800D03*
X183639200Y-290970800D03*
X183639200Y-291620800D03*
X183639200Y-292270800D03*
X183639200Y-292920800D03*
X183639200Y-293570800D03*
X183639200Y-294220800D03*
%TD*%
D81*
%TO.C,R2*%
X295148000Y-168251500D03*
X295148000Y-170076500D03*
%TD*%
D82*
%TO.C,U14*%
X114600738Y-255418332D03*
X112626200Y-254278332D03*
D83*
X109476200Y-259734292D03*
D82*
X110651662Y-253138332D03*
%TD*%
D44*
%TO.C,C33*%
X251161654Y-248942000D03*
X254279346Y-250742000D03*
%TD*%
D72*
%TO.C,C17*%
X202730000Y-78696000D03*
X202730000Y-75096000D03*
%TD*%
M02*
