G04 ================== begin FILE IDENTIFICATION RECORD ==================*
G04 Layout Name:  Arena Bottom V1, 6-6-2019.brd*
G04 Film Name:    SolderMask_Top*
G04 File Format:  Gerber RS274X*
G04 File Origin:  Cadence Allegro 17.2-P019*
G04 Origin Date:  Thu Aug 13 19:24:22 2020*
G04 *
G04 Layer:  VIA CLASS/SOLDERMASK_TOP*
G04 Layer:  PIN/SOLDERMASK_TOP*
G04 Layer:  DRC ERROR CLASS/SOLDERMASK_TOP*
G04 Layer:  BOARD GEOMETRY/OUTLINE*
G04 *
G04 Offset:    (0.0000 0.0000)*
G04 Mirror:    No*
G04 Mode:      Positive*
G04 Rotation:  0*
G04 FullContactRelief:  No*
G04 UndefLineWidth:     0.1000*
G04 ================== end FILE IDENTIFICATION RECORD ====================*
%FSLAX55Y55*MOMM*%
%IR0*IPPOS*OFA0.00000B0.00000*MIA0B0*SFA1.00000B1.00000*%
%AMMACRO32*
21,1,1.1001,1.4,0.0,0.0,135.*%
%ADD32MACRO32*%
%ADD37C,.2*%
%ADD34R,4.11X.73*%
%ADD12C,.5*%
%ADD36R,.4572X1.905*%
%AMMACRO28*
21,1,1.905,.4572,0.0,0.0,45.*%
%ADD28MACRO28*%
%ADD13R,10.668X8.89*%
%ADD22R,5.X2.*%
%AMMACRO30*
21,1,1.1001,1.4,0.0,0.0,45.*%
%ADD30MACRO30*%
%ADD21R,2.X5.*%
%ADD15R,1.4X1.1001*%
%ADD20R,1.1001X1.4*%
%ADD35R,.65X.5001*%
%ADD14C,8.*%
%ADD33R,1.016X1.2192*%
%AMMACRO27*
21,1,1.524,1.524,0.0,0.0,10.*%
%ADD27MACRO27*%
%AMMACRO23*
21,1,1.524,1.524,0.0,0.0,20.*%
%ADD23MACRO23*%
%AMMACRO29*
21,1,1.524,1.524,0.0,0.0,30.*%
%ADD29MACRO29*%
%ADD17C,1.524*%
%AMMACRO24*
21,1,1.524,1.524,0.0,0.0,40.*%
%ADD24MACRO24*%
%AMMACRO31*
21,1,1.524,1.524,0.0,0.0,50.*%
%ADD31MACRO31*%
%AMMACRO25*
21,1,1.524,1.524,0.0,0.0,60.*%
%ADD25MACRO25*%
%ADD11R,3.175X1.651*%
%AMMACRO19*
21,1,1.524,1.524,0.0,0.0,70.*%
%ADD19MACRO19*%
%AMMACRO26*
21,1,1.524,1.524,0.0,0.0,80.*%
%ADD26MACRO26*%
%ADD18R,1.524X1.524*%
%ADD16R,1.0668X2.286*%
%ADD10R,1.6764X1.6764*%
%ADD38C,.1*%
G75*
%LPD*%
G75*
G54D10*
X3604760Y14838220D03*
Y14508020D03*
X4208200Y15838660D03*
Y15508460D03*
X5453140Y18579600D03*
X5122940D03*
G54D11*
X3604760Y15190910D03*
Y15838610D03*
X4699000Y19005550D03*
Y19653250D03*
X31496000Y17662900D03*
Y18310600D03*
Y18929350D03*
Y19577050D03*
G54D20*
X5251560Y18134960D03*
X5451560D03*
X30450000Y19375000D03*
X30250000D03*
X30450000Y19575000D03*
X30250000D03*
X30500000Y18950000D03*
X30300000D03*
X30875000Y18700000D03*
X30675000D03*
Y19375000D03*
X30875000D03*
G54D21*
X5118000Y19352000D03*
G54D30*
X27170710Y1170710D03*
X27029290Y1029290D03*
X27279290Y1279290D03*
X27420710Y1420710D03*
X28720710Y2720710D03*
X28579290Y2579290D03*
X28829290Y2829290D03*
X28970710Y2970710D03*
X30229290Y4229290D03*
X30370710Y4370710D03*
X30479290Y4479290D03*
X30620710Y4620710D03*
X30568040Y6136790D03*
X30423710Y5992460D03*
X30282290Y5851040D03*
X30709460Y6278210D03*
G54D12*
X3450000Y15050000D03*
X3550000D03*
X3450000Y14950000D03*
X3550000D03*
X3450000Y14700000D03*
X3550000D03*
X3500000Y15350000D03*
Y16000000D03*
Y16100000D03*
Y16200000D03*
Y16300000D03*
X3850000Y14950000D03*
X3950000D03*
X4050000D03*
X4150000D03*
X4250000D03*
Y14850000D03*
Y14750000D03*
X4150000D03*
X4050000D03*
X3900000D03*
X3750000Y15050000D03*
Y14950000D03*
Y14700000D03*
X3650000Y15050000D03*
Y14950000D03*
Y14700000D03*
X3600000Y15350000D03*
X3700000D03*
X3604760Y15190910D03*
X4000000Y16100000D03*
Y16000000D03*
X3800000Y16100000D03*
X3900000D03*
Y16000000D03*
X3800000D03*
X3700040Y16277000D03*
X3700000Y16100000D03*
Y16000000D03*
X3600000D03*
Y16100000D03*
Y16200000D03*
Y16300000D03*
X4040400Y16550000D03*
X4200000D03*
X4300000D03*
X3900000D03*
X3800000D03*
X3700000D03*
X3800000Y16750000D03*
X3900000D03*
X4200000D03*
X4300000D03*
X3700000D03*
X4040400Y17200000D03*
X4200000D03*
X4300000D03*
X3900000D03*
X3800000D03*
Y17300000D03*
X3900000D03*
X4200000D03*
X4300000D03*
X3700000Y17200000D03*
Y17300000D03*
X3800000Y17100000D03*
X3900000D03*
X4200000D03*
X4300000D03*
X4040400Y16900000D03*
X4200000D03*
X4300000D03*
X3900000D03*
X3800000D03*
Y17000000D03*
X3900000D03*
X4200000D03*
X4300000D03*
X3700000Y17100000D03*
Y16900000D03*
Y17000000D03*
X3800000Y16650000D03*
X3900000D03*
X4200000D03*
X4300000D03*
X3700000D03*
X4300000Y17900000D03*
X4200000D03*
X3900000D03*
X3800000D03*
Y17800000D03*
X3900000D03*
X4300000D03*
X4200000D03*
X4040400D03*
X4300000Y18000000D03*
X3800000D03*
X3700000Y17900000D03*
Y17800000D03*
Y18000000D03*
X3800000Y17700000D03*
X3900000D03*
X4200000D03*
X4300000D03*
X4040400Y17500000D03*
X4200000D03*
X4300000D03*
X3900000D03*
X3800000D03*
Y17600000D03*
X3900000D03*
X4200000D03*
X4300000D03*
X3700000Y17700000D03*
Y17500000D03*
Y17600000D03*
X3800000Y17400000D03*
X3900000D03*
X4200000D03*
X4300000D03*
X3700000D03*
X4650000Y15150000D03*
X4850000D03*
X4750000D03*
X4350000Y14950000D03*
Y14850000D03*
Y14750000D03*
X4650000Y15550000D03*
Y15650000D03*
X4850000D03*
Y15550000D03*
X4750000D03*
Y15650000D03*
X4650000Y15450000D03*
X4850000D03*
X4750000D03*
X4650000Y15250000D03*
Y15350000D03*
X4850000D03*
Y15250000D03*
X4750000D03*
Y15350000D03*
X4400000Y16550000D03*
X4700000Y16700000D03*
X4800000D03*
X4600000D03*
X4700000Y16900000D03*
Y16800000D03*
X4800000D03*
Y16900000D03*
X4600000D03*
Y16800000D03*
X4700000Y17000000D03*
X4800000D03*
X4600000D03*
X4700000Y17200000D03*
Y17100000D03*
X4800000D03*
Y17200000D03*
X4600000D03*
Y17100000D03*
X4700000Y17300000D03*
X4800000D03*
X4600000D03*
X4400000Y16750000D03*
Y17200000D03*
Y17300000D03*
Y17100000D03*
Y16900000D03*
Y17000000D03*
Y16650000D03*
X4700000Y17500000D03*
Y17400000D03*
X4800000D03*
Y17500000D03*
X4600000D03*
Y17400000D03*
X4700000Y17600000D03*
X4800000D03*
X4600000D03*
X4700000Y17800000D03*
Y17700000D03*
X4800000D03*
Y17800000D03*
X4600000D03*
Y17700000D03*
X4700000Y17950000D03*
X4800000D03*
X4600000D03*
X4700000Y18050000D03*
X4800000D03*
X4600000D03*
X4400000Y17900000D03*
Y17800000D03*
Y18000000D03*
Y17700000D03*
Y17500000D03*
Y17600000D03*
Y17400000D03*
X4700000Y18150000D03*
X4800000D03*
X4600000D03*
X4700000Y18300000D03*
X4800000D03*
X4600000D03*
X4700000Y18800000D03*
Y18500000D03*
Y18400000D03*
X4800000D03*
Y18500000D03*
Y18800000D03*
Y18640400D03*
X4600000Y18800000D03*
Y18500000D03*
Y18400000D03*
Y19000000D03*
X4800000D03*
X4700000D03*
Y18900000D03*
X4800000D03*
X4600000D03*
X5573200Y12279980D03*
X5050000Y12500000D03*
X5699210Y17058950D03*
X5350000Y19450000D03*
Y19350000D03*
X5550000Y19450000D03*
X5450000D03*
Y19350000D03*
X5550000D03*
X5690400D03*
X6010720Y8042820D03*
X6439780Y10329170D03*
X6283640Y10611970D03*
X6450000Y13050000D03*
X6350000Y13550000D03*
X6400000Y13300000D03*
X6300000Y13800000D03*
X6250000Y14050000D03*
X6200000Y14300000D03*
X6150000Y14550000D03*
X6100310Y14850000D03*
X6050000Y19450000D03*
Y19350000D03*
Y19550000D03*
X5950000Y19450000D03*
X5850000D03*
X5950000Y19350000D03*
X5850000D03*
X5950000Y19550000D03*
X6765720Y7905160D03*
X7107510Y9225570D03*
X6972680Y9449820D03*
X6834260Y9683920D03*
X6703370Y9897360D03*
X6571240Y10114180D03*
X6750000Y12800000D03*
X7106160Y17242580D03*
X7177100Y17729860D03*
X7206050Y17955610D03*
X7147260Y17501690D03*
X7220850Y18142460D03*
X7242710Y9000280D03*
X7587360Y8787540D03*
X7266990Y16767110D03*
X7263340Y18405380D03*
X7297890Y18646510D03*
X7349840Y18935420D03*
X8500460Y4117430D03*
X8539030Y6174510D03*
X8348210Y6324130D03*
X8140360Y6494050D03*
X7960590Y6630510D03*
X9270320Y4400310D03*
X9336160Y5535660D03*
X8930910Y5863060D03*
X8737820Y6015390D03*
X9140730Y5690790D03*
X9698310Y5382620D03*
X10854550Y3503590D03*
X11593240Y3250310D03*
X11349630Y3333220D03*
X11103480Y3417610D03*
X12262560Y1291230D03*
X12079090Y3085280D03*
X11835720Y3168050D03*
X12332950Y2996450D03*
X12886870Y1900410D03*
X12558220Y2924120D03*
X12855060Y2908950D03*
X15193660Y1594120D03*
X14939660Y1588140D03*
X14668090Y1585250D03*
X15953600Y1612440D03*
X15701680Y1606090D03*
X15466830Y1596720D03*
X16486670Y1619980D03*
X16232420Y1614040D03*
X16608330Y1655500D03*
X16737290Y-63570D03*
X17117000Y786680D03*
X18899940Y1026430D03*
X19371590Y1211140D03*
X19151790Y1121610D03*
X19631440Y1307730D03*
X20098560Y1491630D03*
X19858610Y1398560D03*
X20342560Y1585430D03*
X20570340Y1676370D03*
X21059140Y1326580D03*
X21416200Y169010D03*
X21554790Y601740D03*
X23129550Y1996890D03*
X23252990Y2125890D03*
X23860490Y2649850D03*
X23648220Y2469540D03*
X23469000Y2308340D03*
X24432930Y3153540D03*
X24038540Y2810370D03*
X24247330Y2988650D03*
X25963710Y480370D03*
X25850390Y458990D03*
X25871760Y572320D03*
X25758430Y550950D03*
X25779800Y664280D03*
X25574510Y734860D03*
X25666470Y642910D03*
X25687840Y756240D03*
X25721320Y2440620D03*
X26124510Y4000600D03*
X26049100Y3876130D03*
X26125880Y3873910D03*
X26049450Y3750710D03*
X26800000Y1050000D03*
X26861770Y1682730D03*
X26883120Y1796070D03*
X26769810Y1774690D03*
X26791170Y1888030D03*
X26920820Y4742070D03*
X26788220Y4506250D03*
X26696820Y4319540D03*
X26223400Y4464280D03*
X26950000Y1000000D03*
X27400000Y1800000D03*
X27045680Y1498820D03*
X27067040Y1612160D03*
X26953720Y1590770D03*
X26975080Y1704120D03*
X27658580Y2541420D03*
X27587870Y2612130D03*
X27517160Y2682840D03*
X27658580D03*
X27587870Y2753550D03*
X27367300Y2251780D03*
X27253970Y2230410D03*
X27275340Y2343740D03*
X27162010Y2322360D03*
X27551210Y2067870D03*
X27437890Y2046490D03*
X27459260Y2159820D03*
X27345930Y2138450D03*
X27658580Y2824260D03*
X27296120Y5422690D03*
X27186030Y5213700D03*
X27052530Y4976820D03*
X27407650Y5633390D03*
X27545040Y5874920D03*
X27729290Y2612130D03*
X27800000Y2682840D03*
X27729290Y2753550D03*
X27800000Y2400000D03*
X27729290Y2470710D03*
X27870710D03*
X27800000Y2541420D03*
X27941420D03*
X27870710Y2612130D03*
X28371540Y3284460D03*
X28392900Y3397790D03*
X28279580Y3376420D03*
X28550000Y2900000D03*
X28668770Y3121930D03*
X28555450Y3100550D03*
X28463490Y3192510D03*
X28484860Y3305840D03*
X28576810Y3213880D03*
X28878570Y5447990D03*
X28598050Y5978250D03*
X28832190Y7446350D03*
X28847990Y7276440D03*
X28847360Y7193580D03*
X28851020Y7374400D03*
X29350000Y3350000D03*
X29300000Y3400000D03*
Y3300000D03*
X29250000Y3350000D03*
X29200000Y3250000D03*
X29358580Y4091420D03*
X29287870Y4162130D03*
X29429290D03*
X29500000Y3950000D03*
X29429290Y4020710D03*
X29570710D03*
X29500000Y4091420D03*
X29641420D03*
X29570710Y4162130D03*
X29217160Y4232840D03*
X29358580D03*
X29287870Y4303550D03*
X29500000Y4232840D03*
X29429290Y4303550D03*
X29358580Y4374260D03*
X29800000Y5600000D03*
X29850000Y5650000D03*
X29257180Y7649300D03*
X29500000Y7450000D03*
X29663540Y7679590D03*
X29364690Y8468720D03*
X29315910Y8188520D03*
X29289220Y7968990D03*
X29796820Y7899570D03*
X29440090Y8968270D03*
X29401750Y8716760D03*
X29477600Y9217520D03*
X29515180Y9466960D03*
X29620290Y17127700D03*
X29751170Y16914340D03*
X29483390Y17357650D03*
X29351330Y17574290D03*
X30100000Y4150000D03*
X29950000Y4200000D03*
X30008580Y4691420D03*
X29937870Y4762130D03*
X29867160Y4832840D03*
X30079290Y4762130D03*
X30008580Y4832840D03*
X29937870Y4903550D03*
X30150000Y4832840D03*
X30079290Y4903550D03*
Y4620710D03*
X30220710D03*
X30150000Y4691420D03*
X30291420D03*
X30220710Y4762130D03*
X30150000Y4550000D03*
X30008580Y4974260D03*
X30550000Y5000000D03*
X30500000Y5050000D03*
X30450000Y5100000D03*
X30400000Y5150000D03*
X30350000Y5200000D03*
X30300000Y5250000D03*
X30565830Y5263100D03*
X30323650Y5388750D03*
X29922880Y8099740D03*
X30483650Y9932810D03*
X30381680Y10568090D03*
X30500000Y12000000D03*
X30550000Y11750000D03*
X30350000Y12800000D03*
X30400000Y12550000D03*
X30450000Y12300000D03*
X30200000Y13550000D03*
X30300000Y13050000D03*
X30250000Y13300000D03*
X30000000Y13800000D03*
X30150000D03*
X30009370Y16497310D03*
X30145390Y16269770D03*
X30285910Y16029880D03*
X29872910Y16726040D03*
X30525000Y18700000D03*
X30565370Y18578810D03*
X29928750Y18618480D03*
X30500000Y19075000D03*
X30575000Y19375000D03*
X30250000Y19700000D03*
X30800000Y4750000D03*
X30750000Y4800000D03*
X30700000Y4850000D03*
X30650000Y4900000D03*
X30600000Y4950000D03*
X30650000Y4750000D03*
X30592060Y4842060D03*
X30858580Y5591420D03*
X30787870Y5662130D03*
X30929290D03*
X31000000Y5450000D03*
X30929290Y5520710D03*
X31070710D03*
X31000000Y5591420D03*
X31141420D03*
X31070710Y5662130D03*
X30679150Y5284470D03*
X30657790Y5171140D03*
X30771110Y5192520D03*
X30850000Y5900000D03*
X30858580Y5732840D03*
X30787870Y5803550D03*
X31000000Y5732840D03*
X30929290Y5803550D03*
X30700000Y5750000D03*
X30986020Y9491430D03*
X31128670Y10200990D03*
X31300000Y11200000D03*
X31050000Y11100000D03*
X31150000Y11050000D03*
X31250000Y11000000D03*
X31000000Y14300000D03*
Y19375000D03*
X30875000Y19175000D03*
X30975000Y18925000D03*
X30650000Y19800000D03*
X31000000Y19575000D03*
X32036950Y6607220D03*
X31853040Y6791130D03*
X31944990Y6699180D03*
X31966360Y6812510D03*
X31650000Y8700000D03*
X31400000Y11150000D03*
X31350000Y10950000D03*
X31550000Y14050000D03*
X31500000Y14750000D03*
X31702750Y15154650D03*
Y14900650D03*
Y15027650D03*
Y15789650D03*
Y15281650D03*
Y15535650D03*
Y15662650D03*
Y15408650D03*
Y15916650D03*
Y16043650D03*
Y16170650D03*
Y16297650D03*
Y16424650D03*
Y16551650D03*
Y16678650D03*
Y16805650D03*
Y16932650D03*
Y17059650D03*
Y17186650D03*
X31950000Y17750000D03*
Y17650000D03*
Y17550000D03*
X31737100Y17662900D03*
X31750000Y17750000D03*
X31850000D03*
Y17650000D03*
X31750000Y17550000D03*
X31850000D03*
X31750000Y17850000D03*
X31850000D03*
X31650000D03*
X31550000D03*
X31450000D03*
X31650000Y17500000D03*
X31550000D03*
X31350000D03*
Y17850000D03*
X32128910Y6515260D03*
X32242240Y6536640D03*
X32150280Y6628590D03*
X32058320Y6720550D03*
X32200000Y7937710D03*
X32157020Y8142980D03*
X32700000Y8400000D03*
Y8500000D03*
X32600000Y8400000D03*
X32500000D03*
X32600000Y8500000D03*
X32500000D03*
X32700000Y8300000D03*
X32600000D03*
X32500000D03*
X32200000Y8500000D03*
X32347920Y7890250D03*
X32412950Y7985500D03*
X32477970Y7890250D03*
X32542990Y7985500D03*
X32700000Y9300000D03*
X32600000D03*
X32500000D03*
X32400000D03*
X32700000Y9400000D03*
Y9500000D03*
X32600000Y9400000D03*
X32500000D03*
X32400000D03*
X32600000Y9500000D03*
X32500000D03*
X32400000D03*
X32379670Y9858750D03*
X32444690Y9954000D03*
X32509710Y9858750D03*
X32574740Y9954000D03*
X32400000Y12000000D03*
X32700000D03*
X32600000D03*
X32500000D03*
X32700000Y12100000D03*
X32600000D03*
X32500000D03*
X32400000D03*
X32700000Y12200000D03*
X32600000D03*
X32500000D03*
X32400000D03*
X32347920Y11573250D03*
X32412940Y11668500D03*
X32477960Y11573250D03*
X32542990Y11668500D03*
X32608010Y11573250D03*
X32673040Y11668500D03*
X32738060Y11573250D03*
X32700000Y12950000D03*
X32600000D03*
X32500000D03*
X32400000D03*
X32700000Y13050000D03*
Y13150000D03*
X32600000Y13050000D03*
X32500000D03*
X32400000D03*
X32600000Y13150000D03*
X32500000D03*
X32400000D03*
X32379670Y13573500D03*
X32444690Y13668750D03*
X32509710Y13573500D03*
X32574740Y13668750D03*
X32639760Y13573500D03*
X32704790Y13668750D03*
X32769810Y13573500D03*
X32900000Y8400000D03*
X32800000D03*
X32900000Y8500000D03*
X32800000D03*
X32900000Y8300000D03*
X32800000D03*
Y9300000D03*
Y9400000D03*
Y9500000D03*
Y12000000D03*
Y12100000D03*
Y12200000D03*
X32803080Y11668500D03*
X32800000Y12950000D03*
Y13050000D03*
Y13150000D03*
X32834830Y13668750D03*
X32805350Y15154650D03*
Y15027650D03*
Y14900650D03*
X32900000Y15700000D03*
X32805350Y15662650D03*
Y15535650D03*
Y15408650D03*
Y15281650D03*
Y15789650D03*
Y16551650D03*
Y16424650D03*
Y16297650D03*
Y15916650D03*
Y16170650D03*
Y16043650D03*
X33000010Y17049990D03*
X32805350Y16932650D03*
Y16805650D03*
Y16678650D03*
Y17186650D03*
Y17313650D03*
G54D31*
X28941200Y6681050D03*
X29330420Y6354240D03*
G54D22*
X5588000Y19052000D03*
Y19652000D03*
G54D13*
X4037860Y17267600D03*
G54D23*
X6761700Y7206750D03*
X7239340Y7380410D03*
X29344980Y19210630D03*
X29822620Y19384290D03*
G54D14*
X4068160Y10755520D03*
Y18375520D03*
X4095750Y19320250D03*
X11688160Y341520D03*
X24896160D03*
X32516160Y10755520D03*
Y18375520D03*
X32512000Y19320250D03*
G54D32*
X30106210Y5606190D03*
X29964790Y5747610D03*
G54D24*
X9928990Y3956840D03*
X9539550Y3630290D03*
G54D33*
X30679750Y19585700D03*
X30870250D03*
X30775000Y19164300D03*
X30679750Y18935700D03*
X30870250D03*
X30775000Y19814300D03*
G54D15*
X4160560Y14636640D03*
Y14836640D03*
X3906480Y14636640D03*
Y14836640D03*
X3970000Y15637080D03*
Y15837080D03*
X4478160Y15637080D03*
Y15837080D03*
X32000000Y8900000D03*
Y8700000D03*
X32029400Y12038000D03*
Y11838000D03*
Y12193600D03*
Y12393600D03*
X32200000Y7650000D03*
Y7850000D03*
G54D16*
X4210580Y16277000D03*
X4040400D03*
X3870220D03*
X3700040D03*
X4380760D03*
G54D25*
X13373100Y1219610D03*
X13627370Y1659660D03*
G54D34*
X32023050Y14900650D03*
Y15027650D03*
Y15154650D03*
Y15281650D03*
Y15408650D03*
Y15535650D03*
Y15662650D03*
Y15789650D03*
Y15916650D03*
Y16043650D03*
Y16170650D03*
Y16297650D03*
Y16424650D03*
Y16551650D03*
Y16678650D03*
Y16805650D03*
Y16932650D03*
Y17059650D03*
Y17186650D03*
Y17313650D03*
X32485050Y15154650D03*
Y15027650D03*
Y14900650D03*
Y15789650D03*
Y15662650D03*
Y15535650D03*
Y15408650D03*
Y15281650D03*
Y16551650D03*
Y16424650D03*
Y16297650D03*
Y16170650D03*
Y16043650D03*
Y15916650D03*
Y17313650D03*
Y17186650D03*
Y17059650D03*
Y16932650D03*
Y16805650D03*
Y16678650D03*
G54D26*
X17799960Y265460D03*
X17888380Y765940D03*
G54D17*
X5719220Y10070940D03*
X5806100Y9832260D03*
X5545480Y10548300D03*
X5632350Y10309620D03*
X5374590Y12279600D03*
Y12025600D03*
Y11771600D03*
Y12787600D03*
Y12533600D03*
Y13549600D03*
Y13295600D03*
Y13041600D03*
Y14311600D03*
Y14057600D03*
Y13803600D03*
Y15073600D03*
Y14819600D03*
Y14565600D03*
X5719280Y16520260D03*
X5632400Y16281580D03*
X5806150Y16758940D03*
X6501080Y7922800D03*
X6240460Y8638850D03*
X6327330Y8400160D03*
X6414210Y8161480D03*
X6544350Y9289870D03*
X5979840Y9354890D03*
X6066710Y9116210D03*
X6153590Y8877530D03*
X6283740Y10005920D03*
X6370610Y9767230D03*
X6457480Y9528550D03*
X5892970Y9593570D03*
X6023120Y10721960D03*
X6109990Y10483280D03*
X6196860Y10244600D03*
X5882820Y12279420D03*
Y12025420D03*
Y11771420D03*
Y12787420D03*
Y12533420D03*
Y13549420D03*
Y13295420D03*
Y13041420D03*
Y14311420D03*
Y14057420D03*
Y13803420D03*
Y15073420D03*
Y14819420D03*
Y14565420D03*
X6283670Y16584950D03*
X6196800Y16346270D03*
X6109920Y16107590D03*
X6544290Y17301000D03*
X6457420Y17062310D03*
X6370540Y16823630D03*
X5979900Y17236300D03*
X5893020Y16997620D03*
X6240520Y17952350D03*
X6153640Y17713670D03*
X6066770Y17474990D03*
X6501130Y18668400D03*
X6414260Y18429710D03*
X6327390Y18191030D03*
X7253800Y6354350D03*
X7065590Y7857780D03*
X7152470Y7619100D03*
X6587950Y7684120D03*
X6674830Y7445440D03*
X6804970Y8573820D03*
X6891850Y8335140D03*
X6978720Y8096460D03*
X6631230Y9051190D03*
X6718100Y8812510D03*
X6804910Y18017040D03*
X6718040Y17778360D03*
X6631160Y17539680D03*
X7065530Y18733090D03*
X6978650Y18494410D03*
X6891780Y18255720D03*
X7239270Y19210450D03*
X7152400Y18971770D03*
X6761750Y19384440D03*
X6674880Y19145760D03*
X6588010Y18907080D03*
X7906870Y5576050D03*
X7806510Y6486320D03*
X7969780Y6291750D03*
X7417070Y6159770D03*
X7580340Y5965200D03*
X7743610Y5770620D03*
X7643240Y6680900D03*
X8396680Y4992320D03*
X8559950Y4797750D03*
X8723210Y4603170D03*
X8459580Y5708020D03*
X8622850Y5513450D03*
X8070140Y5381470D03*
X8233410Y5186900D03*
X8133050Y6097170D03*
X8296310Y5902600D03*
X9049750Y4214020D03*
X9213020Y4019440D03*
X9376290Y3824870D03*
X9112650Y4929720D03*
X9275920Y4735150D03*
X9439190Y4540570D03*
X8886480Y4408600D03*
X8786120Y5318870D03*
X8949390Y5124300D03*
X9765730Y4151420D03*
X9602460Y4345990D03*
X10733460Y2743610D03*
X10547790Y3437660D03*
X10767760Y3310660D03*
X10293520Y2997610D03*
X10513490Y2870610D03*
X11647640Y2802660D03*
X10953430Y2616610D03*
X11173400Y2489610D03*
X11393370Y2362610D03*
X11613340Y2235610D03*
X10987730Y3183660D03*
X11207700Y3056660D03*
X11427670Y2929660D03*
X11833310Y2108610D03*
X12053280Y1981610D03*
X12273250Y1854610D03*
X11867610Y2675660D03*
X12087580Y2548660D03*
X12307550Y2421660D03*
X12967460Y2040660D03*
X12493220Y1727610D03*
X12713190Y1600610D03*
X12933160Y1473610D03*
X12527520Y2294660D03*
X12747490Y2167660D03*
X13153130Y1346610D03*
X13187430Y1913660D03*
X13407400Y1786660D03*
X14297990Y882950D03*
X14548130Y838850D03*
X14386410Y1383430D03*
X14636550Y1339330D03*
X14886690Y1295220D03*
X15136830Y1251110D03*
X14798270Y794740D03*
X15048410Y750630D03*
X15298550Y706530D03*
X15798830Y618310D03*
X15386970Y1207010D03*
X15637110Y1162900D03*
X15887250Y1118790D03*
X15548690Y662420D03*
X16048980Y574210D03*
X16299120Y530100D03*
X16549260Y485990D03*
X16137400Y1074690D03*
X16387540Y1030580D03*
X16637680Y986470D03*
X16799400Y441890D03*
X17049540Y397780D03*
X17299680Y353670D03*
X16887820Y942370D03*
X17137960Y898260D03*
X17388100Y854150D03*
X17549820Y309570D03*
X17638240Y810050D03*
X18784210Y265440D03*
X18696130Y765980D03*
X18946270Y810080D03*
X19034350Y309540D03*
X19284490Y353650D03*
X19534630Y397760D03*
X19196410Y854190D03*
X19446550Y898300D03*
X19696690Y942400D03*
X19784770Y441860D03*
X20034910Y485970D03*
X20285050Y530080D03*
X19946830Y986510D03*
X20196970Y1030620D03*
X20535200Y574180D03*
X20785340Y618290D03*
X20447120Y1074720D03*
X20697260Y1118830D03*
X20947400Y1162940D03*
X21035480Y662400D03*
X21197540Y1207040D03*
X21447680Y1251150D03*
X21697820Y1295260D03*
X21285620Y706500D03*
X21535760Y750610D03*
X21785900Y794720D03*
X21947960Y1339360D03*
X22036040Y838820D03*
X23211090Y1219530D03*
X22957130Y1659760D03*
X23177100Y1786760D03*
X23431060Y1346530D03*
X23397070Y1913760D03*
X23617040Y2040760D03*
X23651030Y1473530D03*
X23871000Y1600530D03*
X24090970Y1727530D03*
X23837010Y2167760D03*
X24056980Y2294760D03*
X24310940Y1854530D03*
X24530910Y1981530D03*
X24750880Y2108530D03*
X24276950Y2421760D03*
X24496920Y2548760D03*
X24716890Y2675760D03*
X24936860Y2802760D03*
X24970850Y2235530D03*
X25190820Y2362530D03*
X25410790Y2489530D03*
X25156830Y2929760D03*
X25376800Y3056760D03*
X25630760Y2616530D03*
X25850730Y2743530D03*
X25596770Y3183760D03*
X25816740Y3310760D03*
X26070700Y2870530D03*
X26655450Y3956990D03*
X26818720Y4151570D03*
X26981990Y4346140D03*
X27044670Y3630180D03*
X27207940Y3824760D03*
X27371210Y4019330D03*
X27534480Y4213910D03*
X27697740Y4408480D03*
X27145260Y4540720D03*
X27308520Y4735290D03*
X27471790Y4929870D03*
X27635060Y5124440D03*
X27861010Y4603060D03*
X28024280Y4797630D03*
X28187550Y4992210D03*
X28350820Y5186780D03*
X27798330Y5319020D03*
X27961600Y5513590D03*
X28124860Y5708170D03*
X28288130Y5902740D03*
X28451400Y6097320D03*
X28514080Y5381360D03*
X28677350Y5575930D03*
X28840620Y5770510D03*
X29003890Y5965090D03*
X29167160Y6159660D03*
X28614670Y6291900D03*
X28777940Y6486470D03*
X29822580Y7206600D03*
X29345060Y7380590D03*
X29431930Y7619270D03*
X29518800Y7857950D03*
X29909450Y7445280D03*
X29605680Y8096630D03*
X29692550Y8335320D03*
X29779420Y8574000D03*
X29866290Y8812680D03*
X29866220Y17778530D03*
X29779350Y18017220D03*
X29692470Y18255900D03*
X29605600Y18494580D03*
X29518730Y18733260D03*
X29431850Y18971940D03*
X29909490Y19145600D03*
X29996320Y7683960D03*
X30083200Y7922640D03*
X30170070Y8161330D03*
X30256940Y8400010D03*
X30343810Y8638690D03*
X29953170Y9051360D03*
X30040040Y9290040D03*
X30430690Y8877370D03*
X30517560Y9116050D03*
X30604430Y9354740D03*
X30126910Y9528730D03*
X30213790Y9767410D03*
X30300660Y10006090D03*
X30387530Y10244770D03*
X30474410Y10483450D03*
X30561200Y15869080D03*
X30474330Y16107760D03*
X30387460Y16346440D03*
X30300580Y16585120D03*
X30213710Y16823810D03*
X30126840Y17062490D03*
X30039970Y17301170D03*
X30604480Y17236150D03*
X29953090Y17539850D03*
X30517610Y17474830D03*
X30430730Y17713510D03*
X30343860Y17952190D03*
X30256990Y18190880D03*
X30170110Y18429560D03*
X30083240Y18668240D03*
X29996370Y18906920D03*
X30691310Y9593420D03*
X30778180Y9832100D03*
X30865050Y10070780D03*
X30951930Y10309460D03*
X30701500Y11517620D03*
X31209730Y11517440D03*
X30701500Y11771620D03*
Y12025620D03*
Y12279620D03*
X31209730Y11771440D03*
Y12025440D03*
Y12279440D03*
X30701500Y12533620D03*
Y12787620D03*
X31209730Y12533440D03*
Y12787440D03*
X30701500Y13041620D03*
Y13295620D03*
Y13549620D03*
X31209730Y13041440D03*
Y13295440D03*
Y13549440D03*
X30701500Y13803620D03*
Y14057620D03*
Y14311620D03*
X31209730Y13803440D03*
Y14057440D03*
Y14311440D03*
X30701500Y14565620D03*
Y14819620D03*
X31209730Y14565440D03*
Y14819440D03*
X31038840Y16042740D03*
X30951970Y16281420D03*
X30865100Y16520100D03*
X30778220Y16758780D03*
X30691350Y16997470D03*
G54D35*
X32400000Y7699990D03*
Y7800010D03*
G54D18*
X5374590Y11517600D03*
X5882820Y11517420D03*
X30701500Y15073620D03*
X31209730Y15073440D03*
G54D27*
X22286180Y882930D03*
X22198100Y1383470D03*
G54D36*
X32738060Y8142980D03*
X32673040D03*
X32608010D03*
X32542990D03*
X32477960D03*
X32412940D03*
X32347920D03*
X32282890D03*
X32217870D03*
Y8717020D03*
X32282890D03*
X32347920D03*
X32412940D03*
X32477960D03*
X32542990D03*
X32608010D03*
X32673040D03*
X32738060D03*
X32769810Y9000230D03*
X32704790D03*
X32639760D03*
X32574740D03*
X32509710D03*
X32444690D03*
X32379670D03*
Y9701270D03*
X32444690D03*
X32509710D03*
X32574740D03*
X32639760D03*
X32704790D03*
X32769810D03*
X32738060Y11825980D03*
X32673040D03*
X32608010D03*
X32542990D03*
X32477960D03*
X32412940D03*
X32347920D03*
X32282890D03*
X32217870D03*
Y12400020D03*
X32282890D03*
X32347920D03*
X32412940D03*
X32477960D03*
X32542990D03*
X32608010D03*
X32673040D03*
X32738060D03*
X32769810Y12714980D03*
X32704790D03*
X32639760D03*
X32574740D03*
X32509710D03*
X32444690D03*
X32379670D03*
Y13416020D03*
X32444690D03*
X32509710D03*
X32574740D03*
X32639760D03*
X32704790D03*
X32769810D03*
X32933130Y8142980D03*
X32868110D03*
X32803080D03*
Y8717020D03*
X32868110D03*
X32933130D03*
X32834830Y9000230D03*
Y9701270D03*
X32933130Y11825980D03*
X32868110D03*
X32803080D03*
Y12400020D03*
X32868110D03*
X32933130D03*
X32834830Y12714980D03*
Y13416020D03*
G54D19*
X5545530Y16042890D03*
X6023050Y15868900D03*
X30561280Y10722140D03*
X31038800Y10548150D03*
G54D28*
X26075070Y591720D03*
X26029090Y637700D03*
X25983120Y683670D03*
X25937130Y729660D03*
X25891160Y775630D03*
X25845170Y821620D03*
X25799200Y867590D03*
X25753220Y913570D03*
X26248930Y1409280D03*
X26910430Y1179660D03*
X26864450Y1225640D03*
X26818470Y1271620D03*
X26772490Y1317600D03*
X26340880Y1317330D03*
X26386870Y1271340D03*
X26432840Y1225370D03*
X26478830Y1179380D03*
X26524800Y1133410D03*
X26570780Y1087430D03*
X26726520Y1363580D03*
X26680530Y1409560D03*
X26634560Y1455530D03*
X26588580Y1501520D03*
X26542600Y1547490D03*
X26496620Y1593470D03*
X26450640Y1639450D03*
X26404660Y1685430D03*
X26856550Y2045360D03*
X26902530Y1999380D03*
X26948510Y1953400D03*
X26294910Y1363300D03*
X26810570Y2091340D03*
X26994480Y1907420D03*
X27040470Y1861440D03*
X27086440Y1815470D03*
X27132420Y1769480D03*
X27178400Y1723510D03*
X27224380Y1677530D03*
X27270360Y1631550D03*
X27316340Y1585570D03*
X27662570Y2179220D03*
X27616590Y2225200D03*
X27570620Y2271170D03*
X27524630Y2317160D03*
X27478660Y2363130D03*
X27432670Y2409120D03*
X27386700Y2455090D03*
X27340720Y2501070D03*
X28420200Y2781390D03*
X28020340Y2812870D03*
X28066330Y2766880D03*
X28112300Y2720910D03*
X28158280Y2674930D03*
X28374220Y2827370D03*
X28328240Y2873350D03*
X28282270Y2919330D03*
X28236280Y2965310D03*
X28190310Y3011280D03*
X28144330Y3057270D03*
X28098350Y3103240D03*
X28052370Y3149220D03*
X28006390Y3195200D03*
X27960410Y3241180D03*
X27836430Y2996780D03*
X27882410Y2950800D03*
X27928380Y2904830D03*
X27974370Y2858840D03*
X28366320Y3647090D03*
X28412300Y3601110D03*
X28466180Y2735410D03*
X28504260Y3509150D03*
X28550230Y3463170D03*
X28596220Y3417190D03*
X28642190Y3371220D03*
X28688170Y3325230D03*
X28734150Y3279260D03*
X28780130Y3233280D03*
X28826110Y3187300D03*
X28872090Y3141320D03*
X28458280Y3555130D03*
X29158120Y3890420D03*
X29112130Y3936410D03*
X29066160Y3982380D03*
X29020170Y4028370D03*
X28974200Y4074340D03*
X28928220Y4120320D03*
X29250070Y3798470D03*
X29204090Y3844450D03*
X29901520Y4538580D03*
X29855530Y4584560D03*
X29809560Y4630530D03*
X29763580Y4676520D03*
X29717600Y4722490D03*
X29671620Y4768470D03*
X29625640Y4814450D03*
X29579660Y4860430D03*
X29423930Y4616030D03*
X29469910Y4570050D03*
X29515880Y4524080D03*
X29561870Y4478090D03*
X29607840Y4432120D03*
X29653830Y4386130D03*
X29699800Y4340160D03*
X29745780Y4294180D03*
X30085430Y4354660D03*
X30039450Y4400640D03*
X29993470Y4446620D03*
X29947490Y4492600D03*
X30261440Y4990470D03*
X30307420Y4944480D03*
X30353400Y4898510D03*
X30399380Y4852530D03*
X30445360Y4806550D03*
X30491340Y4760570D03*
X30606600Y5579740D03*
X30560620Y5625720D03*
X30514640Y5671700D03*
X30468660Y5717680D03*
X29985570Y5266340D03*
X30031550Y5220360D03*
X30077530Y5174380D03*
X30123510Y5128400D03*
X30169480Y5082420D03*
X30215470Y5036440D03*
X31288380Y5709780D03*
X31334360Y5663800D03*
X30974430Y5211910D03*
X30928450Y5257890D03*
X30882470Y5303870D03*
X30836490Y5349850D03*
X30790520Y5395830D03*
X30744530Y5441810D03*
X30698560Y5487780D03*
X30652580Y5533770D03*
X30874570Y6123590D03*
X30920550Y6077610D03*
X30966530Y6031630D03*
X31012510Y5985650D03*
X31058480Y5939670D03*
X31104470Y5893690D03*
X31150440Y5847720D03*
X31196420Y5801730D03*
X31242400Y5755760D03*
X31337920Y6092120D03*
X31291950Y6138090D03*
X31245970Y6184070D03*
X31380340Y5617820D03*
X31567820Y5862220D03*
X31521840Y5908200D03*
X31475870Y5954170D03*
X31429880Y6000160D03*
X31383910Y6046130D03*
X31971580Y6449880D03*
X32017550Y6403910D03*
X32063530Y6357930D03*
X31741680Y6679780D03*
X31787660Y6633800D03*
X31833630Y6587830D03*
X31879620Y6541840D03*
X31925590Y6495870D03*
G54D37*
X32254050Y14744650D03*
Y17467650D03*
G54D38*
G01X3369660Y7471570D02*
G03X3741640Y6573550I1269998J10D01*
G01X3369660Y18693020D02*
Y7471570D01*
G01X4639660Y19963020D02*
G03X3369660Y18693020I0J-1270000D01*
G01X3741640Y6573550D02*
X10617690Y-302510D01*
G01X7878160Y19963020D02*
X4639660D01*
G01X8513160Y19212950D02*
G03X28071160I9779000J-5917432D01*
G01X8513160Y19328020D02*
G03X7878160Y19963020I-635000J0D01*
G01X8513160Y19212960D02*
Y19328020D01*
G01X10617690Y-302510D02*
G03X11515710Y-674480I898021J898030D01*
G01D02*
X25068610D01*
G01D02*
G03X25966640Y-302510I8J1270002D01*
G01D02*
X32842690Y6573550D01*
G01X28706160Y19963020D02*
G03X28071160Y19328020I0J-635000D01*
G01D02*
Y19212960D01*
G01X31944660Y19963020D02*
X28706160D01*
G01X33214660Y18693020D02*
G03X31944660Y19963020I-1270000J0D01*
G01X32842690Y6573550D02*
G03X33214660Y7471570I-898029J898021D01*
G01D02*
Y18693020D01*
G54D29*
X26036710Y3437760D03*
X26290670Y2997530D03*
M02*
