G04 ================== begin FILE IDENTIFICATION RECORD ==================*
G04 Layout Name:  Arena Bottom V1, 6-6-2019.brd*
G04 Film Name:    TOP*
G04 File Format:  Gerber RS274X*
G04 File Origin:  Cadence Allegro 17.2-P019*
G04 Origin Date:  Thu Aug 13 19:24:21 2020*
G04 *
G04 Layer:  VIA CLASS/TOP*
G04 Layer:  PIN/TOP*
G04 Layer:  ETCH/TOP*
G04 Layer:  BOARD GEOMETRY/OUTLINE*
G04 *
G04 Offset:    (0.0000 0.0000)*
G04 Mirror:    No*
G04 Mode:      Positive*
G04 Rotation:  0*
G04 FullContactRelief:  No*
G04 UndefLineWidth:     0.1000*
G04 ================== end FILE IDENTIFICATION RECORD ====================*
%FSLAX55Y55*MOMM*%
%IR0*IPPOS*OFA0.00000B0.00000*MIA0B0*SFA1.00000B1.00000*%
%AMMACRO31*
21,1,1.1001,1.4,0.0,0.0,135.*%
%ADD31MACRO31*%
%ADD36C,.2*%
%ADD33R,4.11X.73*%
%ADD12C,.5*%
%ADD35R,.3302X1.651*%
%AMMACRO27*
21,1,1.651,.3302,0.0,0.0,45.*%
%ADD27MACRO27*%
%ADD13R,10.668X8.89*%
%ADD21R,5.X2.*%
%AMMACRO29*
21,1,1.1001,1.4,0.0,0.0,45.*%
%ADD29MACRO29*%
%ADD20R,2.X5.*%
%ADD15R,1.4X1.1001*%
%ADD19R,1.1001X1.4*%
%ADD34R,.65X.5001*%
%ADD14C,8.*%
%ADD32R,1.016X1.2192*%
%AMMACRO26*
21,1,1.524,1.524,0.0,0.0,10.*%
%ADD26MACRO26*%
%AMMACRO22*
21,1,1.524,1.524,0.0,0.0,20.*%
%ADD22MACRO22*%
%AMMACRO28*
21,1,1.524,1.524,0.0,0.0,30.*%
%ADD28MACRO28*%
%ADD17C,1.524*%
%AMMACRO23*
21,1,1.524,1.524,0.0,0.0,40.*%
%ADD23MACRO23*%
%AMMACRO30*
21,1,1.524,1.524,0.0,0.0,50.*%
%ADD30MACRO30*%
%AMMACRO24*
21,1,1.524,1.524,0.0,0.0,60.*%
%ADD24MACRO24*%
%ADD11R,3.175X1.651*%
%AMMACRO18*
21,1,1.524,1.524,0.0,0.0,70.*%
%ADD18MACRO18*%
%AMMACRO25*
21,1,1.524,1.524,0.0,0.0,80.*%
%ADD25MACRO25*%
%ADD10R,1.524X1.524*%
%ADD16R,1.0668X2.286*%
%ADD37C,.4*%
%ADD38C,.127*%
%ADD39C,1.*%
%ADD40C,.1*%
%ADD41C,.7544*%
%ADD43C,.6568*%
%ADD46R,1.2704X1.4736*%
%ADD42C,8.2544*%
%ADD51R,5.2544X2.2544*%
%ADD50R,2.2544X5.2544*%
%ADD47R,1.3544X1.6544*%
%ADD44R,1.6544X1.3544*%
%ADD48C,1.7784*%
%ADD45R,3.4294X1.9054*%
%ADD49R,1.7784X1.7784*%
G75*
%LPD*%
G75*
G36*
G01X11450000Y-600000D02*
G02X10700000Y-300000I-50000J962500D01*
G01X3700000Y6700000D01*
G02X3400000Y7400000I637500J687500D01*
G01Y14637280D01*
X3812720D01*
Y14687280D01*
X3823760D01*
Y14568920D01*
X3989200D01*
Y14687280D01*
X4077840D01*
Y14568920D01*
X4243280D01*
Y14687280D01*
X4412720D01*
Y15012720D01*
X3812720D01*
Y15412720D01*
X3400000D01*
Y18750000D01*
G02X3667410Y19374210I1474999J-262502D01*
G02X3685690Y19367040I8187J-6015D01*
G03X4431080Y19560860I410060J-46789D01*
G01X4428570Y19564370D01*
X4454730Y19590530D01*
X4527530D01*
Y19557980D01*
X4870470D01*
Y19748520D01*
X4527530D01*
Y19715970D01*
X4402770D01*
X4339870Y19653070D01*
X4336360Y19655580D01*
G03X4076250Y19732510I-240608J-335330D01*
G02X4070310Y19751230I-484J10149D01*
G02X4550000Y19950000I804682J-1263733D01*
G01X7900000D01*
G02X7950000I25000J-558333D01*
G01X7955540Y19944460D01*
G02X8450000Y19200000I-87358J-594459D01*
G03X28150000I9850000J-5891040D01*
G02X28650000Y19900000I670000J50000D01*
G01X32050000D01*
G02X32423460Y19741370I-416491J-1499468D01*
G02X32420550Y19722710I-5159J-8752D01*
G03X32104070Y19382970I91448J-402463D01*
G01X32075280D01*
X31818480Y19639770D01*
X31667470D01*
Y19672320D01*
X31324530D01*
Y19481780D01*
X31667470D01*
Y19514330D01*
X31766520D01*
X32023320Y19257530D01*
X32104070D01*
G03X32918230Y19247340I407929J62715D01*
G02X32936740Y19251100I10001J-1791D01*
G02X33150000Y18750000I-1303231J-850564D01*
G01Y7400000D01*
G02X32900000Y6750000I-1982143J389286D01*
G01X25900000Y-250000D01*
G02X25150000Y-600000I-725000J575000D01*
G01X11450000D01*
G37*
G36*
G01X3800000Y14650000D02*
X3400000D01*
Y15400000D01*
X3800000D01*
Y15000000D01*
X4400000D01*
Y14700000D01*
X4243280D01*
Y14704360D01*
X4077840D01*
Y14700000D01*
X3989200D01*
Y14704360D01*
X3823760D01*
Y14700000D01*
X3800000D01*
Y14650000D01*
G37*
%LPC*%
G75*
G36*
G01X32703270Y17082370D02*
X32795930D01*
X32952280Y17238710D01*
Y17640590D01*
X32740590Y17852280D01*
X32115590D01*
X32029980Y17937890D01*
G03X32012720Y17930620I-7100J-7268D01*
G01Y17387280D01*
X31237280D01*
Y17962720D01*
X31980620D01*
G03X31987890Y17979980I2J10160D01*
G01X31927280Y18040590D01*
Y18990590D01*
X31690590Y19227280D01*
X30838520D01*
Y19090620D01*
X30711480D01*
Y19227280D01*
X30272890D01*
X30227280Y19272890D01*
Y19292280D01*
X30182280D01*
Y19457720D01*
X30317720D01*
Y19292280D01*
X30296680D01*
G03X30289410Y19275020I-2J-10160D01*
G01X30291710Y19272720D01*
X31709410D01*
X31972720Y19009410D01*
Y18059410D01*
X32134410Y17897720D01*
X32759410D01*
X32997720Y17659410D01*
Y17219890D01*
X32821420Y17043580D01*
G02X32821070Y17043240I-16009J16130D01*
G01X32821030Y17043200D01*
X32814760Y17036930D01*
X32805840D01*
G02X32804860I-490J22720D01*
G01X32703270D01*
Y17010430D01*
X32266830D01*
Y17108870D01*
X32703270D01*
Y17082370D01*
G37*
G36*
G01X18701480Y380930D02*
X17879360Y379040D01*
X15317390Y830780D01*
X14345170Y981450D01*
X13490050Y1299190D01*
X11237260Y2599840D01*
X10383630Y3056950D01*
G03X10370080Y3042830I-4801J-8954D01*
G02X10288720Y3086400I-76562J-45219D01*
G03X10292970Y3105500I-550J10145D01*
G01X10138510Y3188210D01*
X9692130Y3634590D01*
X8020090Y5627250D01*
X7084910Y6838340D01*
G02X7084490Y6838900I15044J11721D01*
G02X6899060Y7190670I1191986J853095D01*
G01X6009730Y9634060D01*
X5683380Y10589650D01*
X5504130Y10768900D01*
Y15092130D01*
G02X5663350Y15995090I2640070J-9D01*
G01X5880110Y16590610D01*
X5903340Y16642470D01*
X5882720Y16690200D01*
G03X5866500Y16693630I-9325J-4029D01*
G02X5894330Y16747500I-60353J65303D01*
G01X5893830Y16743620D01*
X5902770Y16739960D01*
X5945000Y16642190D01*
X5915470Y16576270D01*
X5699190Y15982050D01*
G03X5542270Y15092130I2445010J-889925D01*
G01Y12323120D01*
G03X5556840Y12313970I10159J1D01*
G02X5592270Y12247440I16353J-33990D01*
G01Y10784700D01*
X5766510Y10610460D01*
X6724770Y7937890D01*
G03X6740990Y7933650I9561J3431D01*
G02X6796370Y7883180I24729J-28484D01*
G01X6794810Y7881000D01*
X7028870Y7237910D01*
G03X7215520Y6861120I1785529J649870D01*
G01X8126330Y5715560D01*
X9218900Y4413480D01*
G03X9235940Y4415830I7781J6532D01*
G02X9306640Y4390130I34380J-15519D01*
G01X9305920Y4387550D01*
X9835180Y3756810D01*
X10311340Y3280650D01*
X11330630Y2763190D01*
X12834040Y1895190D01*
G03X12849260Y1903230I5086J8797D01*
G02X12924480Y1903270I37612J-2833D01*
G01X12924680Y1900600D01*
X13606460Y1506970D01*
X14354920Y1218540D01*
X15358330Y1065380D01*
X17069140Y763710D01*
G03X17080690Y776470I1768J10007D01*
G02X17088190Y811030I36311J10214D01*
G03X17086330Y825860I-7757J6559D01*
G02X17154320Y810860I51623J72401D01*
G03X17150720Y803590I940J-4992D01*
G02X17151360Y802230I-33802J-16738D01*
G01X17152470Y799790D01*
X17320410Y770180D01*
G03X17328940Y787770I1771J10005D01*
G02X17420990Y771540I59160J66381D01*
G03X17422980Y752090I3754J-9443D01*
G01X17570560Y726070D01*
G03X17579090Y743660I1769J10005D01*
G02X17671120Y727430I59154J66389D01*
G03X17673110Y707990I3760J-9437D01*
G01X17784410Y688360D01*
X17816250Y868950D01*
X17991390Y838070D01*
X17962750Y675660D01*
G03X17972830Y663740I10005J-1761D01*
G01X18649020Y668700D01*
G03X18653790Y687790I-72J10159D01*
G02X18751800Y696640I42344J78190D01*
G03X18759730Y678680I6359J-7923D01*
G01X19750020Y834150D01*
X22308680Y1285310D01*
X22941890Y1517340D01*
X26144880Y3369070D01*
X26892100D01*
X27047060Y3524030D01*
G03X27040370Y3541360I-7182J7184D01*
G02X27133490Y3634480I4300J88820D01*
G03X27150820Y3627790I10146J492D01*
G01X27246690Y3723660D01*
G03X27236270Y3740470I-7186J7180D01*
G02X27292230Y3796430I-28330J84290D01*
G03X27309040Y3786010I9630J-3234D01*
G01X27892100Y4369070D01*
X28507900D01*
X28907900Y3969070D01*
X28933900D01*
X28939320Y3974490D01*
X28840190Y4073620D01*
X28974920Y4208350D01*
X28982100Y4201170D01*
X29000000Y4219070D01*
X29107900D01*
X29419070Y3907900D01*
Y3792100D01*
X29007900Y3380930D01*
X28792100D01*
X28442100Y3730930D01*
X28429480D01*
G03X28425880Y3722260I-5J-5080D01*
G01X28592290Y3555850D01*
Y3555840D01*
X28642910Y3505220D01*
X28642920D01*
X28730220Y3417920D01*
Y3417910D01*
X28780840Y3367290D01*
X28780850D01*
X28960120Y3188020D01*
X28904900Y3132790D01*
X28970710Y3066980D01*
X29163560Y3259840D01*
X29163930Y3261050D01*
G02X29211050Y3213930I36070J-11050D01*
G01X29209840Y3213560D01*
X29016740Y3020460D01*
X29077090Y2960110D01*
X28981310Y2864330D01*
X28864330Y2981310D01*
X28914080Y3031070D01*
X28858630Y3086520D01*
X28825390Y3053290D01*
X28726250Y3152430D01*
X28705350Y3131530D01*
X28705840Y3128900D01*
G02X28631110Y3124140I-37073J-6964D01*
G03X28613790Y3131920I-10140J596D01*
G01X28592020Y3110160D01*
X28592520Y3107520D01*
G02X28562420Y3137620I-37070J-6970D01*
G01X28565050Y3137130D01*
X28586830Y3158900D01*
G03X28579040Y3176230I-7184J7187D01*
G02X28539160Y3216100I-2228J37651D01*
G03X28521830Y3223880I-10143J598D01*
G01X28500060Y3202120D01*
X28500560Y3199480D01*
G02X28470460Y3229580I-37070J-6970D01*
G01X28473090Y3229090D01*
X28494870Y3250860D01*
G03X28487080Y3268190I-7184J7186D01*
G02X28447210Y3308060I-2220J37650D01*
G03X28429880Y3315840I-10144J596D01*
G01X28408110Y3294070D01*
X28408610Y3291430D01*
G02X28378510Y3321530I-37070J-6970D01*
G01X28381140Y3321040D01*
X28402910Y3342810D01*
G03X28395130Y3360140I-7182J7187D01*
G02X28355250Y3400010I-2228J37651D01*
G03X28337920Y3407790I-10143J598D01*
G01X28316150Y3386030D01*
X28316650Y3383390D01*
G02X28286550Y3413490I-37070J-6970D01*
G01X28289180Y3413000D01*
X28377430Y3501250D01*
X28278290Y3600390D01*
X28391480Y3713590D01*
G03X28384290Y3730930I-7186J7181D01*
G01X28007900D01*
X27057900Y2780930D01*
X26348890D01*
X25759130Y2440430D01*
X25758930Y2437760D01*
G02X25683630Y2439050I-37612J2856D01*
G03X25668420Y2447440I-10149J-418D01*
G01X23208130Y1032680D01*
X22396340Y730760D01*
X21590260Y588630D01*
X21589150Y586190D01*
G02X21581760Y628110I-34362J15554D01*
G01X21583640Y626190D01*
X22386300Y767720D01*
X23191870Y1067320D01*
X26370410Y2895110D01*
X27018140D01*
X27942100Y3819070D01*
X28457890D01*
X28807890Y3469070D01*
X28979400D01*
X29330930Y3820600D01*
Y3825730D01*
G03X29322260Y3829320I-5079J-2D01*
G01X29203370Y3710440D01*
X29196190Y3717620D01*
X29146620Y3668050D01*
X29146610D01*
X29009490Y3530930D01*
X28792100D01*
X28492100Y3830930D01*
X27907900D01*
X27191480Y3114510D01*
X26343400D01*
G03X26334610Y3099270I6J-10159D01*
G01X26412140Y2964980D01*
X26258120Y2876060D01*
X26169200Y3030080D01*
X26299030Y3105030D01*
G03X26296490Y3114510I-2541J4399D01*
G01X26280270D01*
X24032650Y1816850D01*
X22958030Y1232660D01*
X22362210Y1002160D01*
X19799680Y550320D01*
X18701480Y380930D01*
G37*
G36*
G01X32445220Y7662260D02*
X32354780D01*
Y7677270D01*
X32333390D01*
X32268820Y7764040D01*
X32250580Y7782280D01*
X32117280D01*
Y7917720D01*
X32153140D01*
G03X32163080Y7929970I-3J10160D01*
G02X32182440Y7971090I36918J7736D01*
G01X32185150Y7972520D01*
Y8110260D01*
X32175830D01*
X32174710Y8109670D01*
G02Y8176290I-17690J33310D01*
G01X32175830Y8175700D01*
X32188640D01*
Y8238250D01*
X32962360D01*
Y8047710D01*
X32562060D01*
Y8018040D01*
G02X32514790Y7960440I-19075J-32542D01*
G03X32497040Y7953700I-7592J-6748D01*
G01Y7922790D01*
G02X32458900I-19070J-32540D01*
G01Y7953700D01*
G03X32441150Y7960440I-10158J-8D01*
G02X32434660Y7954650I-28191J25066D01*
G01X32432740Y7953310D01*
X32422720Y7846650D01*
Y7837740D01*
X32445220D01*
Y7762280D01*
X32354780D01*
Y7837740D01*
X32377280D01*
Y7848790D01*
X32378330Y7860010D01*
X32371390Y7860660D01*
X32369850Y7859560D01*
G02X32328850Y7922790I-21940J30681D01*
G01Y8047710D01*
X32250590D01*
Y7942030D01*
X32236440Y7927870D01*
X32236070Y7926660D01*
G02X32235360Y7924570I-36058J11084D01*
G01X32235040Y7923720D01*
Y7917720D01*
X32282720D01*
Y7814400D01*
X32303300Y7793820D01*
X32347820Y7733990D01*
X32354780Y7736300D01*
Y7737720D01*
X32445220D01*
Y7662260D01*
G37*
G36*
G01X30878550Y5442530D02*
Y5442520D01*
X31062460Y5258610D01*
X30927730Y5123880D01*
X30828590Y5223020D01*
X30807690Y5202120D01*
X30808180Y5199480D01*
G02X30733450Y5194730I-37074J-6957D01*
G03X30716130Y5202510I-10140J596D01*
G01X30694360Y5180750D01*
X30694860Y5178110D01*
G02X30664750Y5208210I-37069J-6971D01*
G01X30667390Y5207720D01*
X30689170Y5229490D01*
G03X30681380Y5246820I-7184J7187D01*
G02X30641500Y5286690I-2228J37651D01*
G03X30624170Y5294470I-10143J598D01*
G01X30602400Y5272710D01*
X30602900Y5270070D01*
G02X30572790Y5300170I-37069J-6971D01*
G01X30575430Y5299680D01*
X30663680Y5387930D01*
X30610530Y5441080D01*
Y5441090D01*
X30559910Y5491710D01*
X30559900D01*
X30509320Y5542290D01*
X30361070Y5394040D01*
X30361250Y5391700D01*
G02X30320700Y5351150I-37600J-2950D01*
G01X30318360Y5351330D01*
X30193110Y5226080D01*
X30185090D01*
G03X30177910Y5208740I3J-10158D01*
G01X30211540Y5175100D01*
Y5175090D01*
X30262160Y5124470D01*
X30262170D01*
X30349470Y5037170D01*
Y5037160D01*
X30400090Y4986540D01*
X30400100D01*
X30535570Y4851070D01*
X30559280Y4874780D01*
X30573260D01*
X30574370Y4875370D01*
G02X30601080Y4878690I17702J-33309D01*
G03X30613370Y4890980I2427J9863D01*
G02X30612320Y4901710I36631J9001D01*
G03X30601710Y4912320I-10150J460D01*
G02X30562320Y4951710I-1710J37680D01*
G03X30551710Y4962320I-10150J460D01*
G02X30512320Y5001710I-1710J37680D01*
G03X30501710Y5012320I-10150J460D01*
G02X30462320Y5051710I-1710J37680D01*
G03X30451710Y5062320I-10150J460D01*
G02X30412320Y5101710I-1710J37680D01*
G03X30401710Y5112320I-10150J460D01*
G02X30362320Y5151710I-1710J37680D01*
G03X30351710Y5162320I-10150J460D01*
G02X30312320Y5201710I-1710J37680D01*
G03X30301710Y5212320I-10150J460D01*
G02X30337680Y5248290I-1710J37680D01*
G03X30348290Y5237680I10150J-460D01*
G02X30387680Y5198290I1710J-37680D01*
G03X30398290Y5187680I10150J-460D01*
G02X30437680Y5148290I1710J-37680D01*
G03X30448290Y5137680I10150J-460D01*
G02X30487680Y5098290I1710J-37680D01*
G03X30498290Y5087680I10150J-460D01*
G02X30537680Y5048290I1710J-37680D01*
G03X30548290Y5037680I10150J-460D01*
G02X30587680Y4998290I1710J-37680D01*
G03X30598290Y4987680I10150J-460D01*
G02X30637680Y4948290I1710J-37680D01*
G03X30648290Y4937680I10150J-460D01*
G02X30687680Y4898290I1710J-37680D01*
G03X30698290Y4887680I10150J-460D01*
G02X30737680Y4848290I1710J-37680D01*
G03X30748290Y4837680I10150J-460D01*
G02X30787680Y4798290I1710J-37680D01*
G03X30798290Y4787680I10150J-460D01*
G02X30762320Y4751710I1710J-37680D01*
G03X30751710Y4762320I-10150J460D01*
G02X30712320Y4801710I-1710J37680D01*
G03X30701710Y4812320I-10150J460D01*
G02X30662320Y4851710I-1710J37680D01*
G03X30651710Y4862320I-10150J460D01*
G02X30640980Y4863370I-1729J37682D01*
G03X30628690Y4851080I-2427J-9863D01*
G02X30585140Y4804980I-36627J-9019D01*
G01X30582510Y4805470D01*
X30561640Y4784600D01*
X30541150Y4764100D01*
X30579490Y4725770D01*
X30613590Y4759870D01*
G02X30659870Y4713590I36410J-9870D01*
G01X30641740Y4695460D01*
X30727090Y4610110D01*
X30631310Y4514330D01*
X30514330Y4631310D01*
X30536830Y4653810D01*
X30535610Y4656900D01*
G02X30533650Y4663670I35094J13829D01*
G01X30533360Y4665200D01*
X30485340Y4713230D01*
X30444640Y4672540D01*
X30260730Y4856450D01*
X30260720D01*
X30219390Y4897780D01*
Y4897790D01*
X30122790Y4994390D01*
X30122780D01*
X30081450Y5035720D01*
Y5035730D01*
X29897540Y5219640D01*
X30032270Y5354370D01*
X30128830Y5257810D01*
X30142540Y5271520D01*
X30174290D01*
X30286230Y5383460D01*
X30286050Y5385800D01*
G02Y5391700I37600J2950D01*
G01X30286230Y5394040D01*
X30138030Y5542240D01*
X30095610Y5499810D01*
X29999830Y5595590D01*
X30116810Y5712570D01*
X30212590Y5616790D01*
X30170160Y5574370D01*
X30318360Y5426170D01*
X30320700Y5426350D01*
G02X30326600I2950J-37600D01*
G01X30328940Y5426170D01*
X30477190Y5574420D01*
X30380630Y5670980D01*
X30412060Y5702420D01*
G03X30404880Y5719760I-7186J7181D01*
G01X30367300D01*
X30317650Y5769410D01*
X30292890Y5744660D01*
X30208630Y5828920D01*
X30092370D01*
X30046420Y5782970D01*
X30071170Y5758210D01*
X29954190Y5641230D01*
X29929430Y5665980D01*
X29905720Y5642270D01*
X29888540D01*
X29886410Y5640130D01*
G02X29848290Y5612320I-36406J9872D01*
G03X29837680Y5601710I-460J-10150D01*
G02X29801710Y5637680I-37680J-1710D01*
G03X29812320Y5648290I460J10150D01*
G02X29838950Y5686070I37682J1714D01*
G01X29840160Y5686440D01*
X29861440Y5707710D01*
X29863180D01*
G03X29870360Y5725050I-4J10158D01*
G01X29858410Y5737010D01*
X29975390Y5853990D01*
X30000150Y5829240D01*
X30065270Y5894360D01*
X30208630D01*
X30271690Y5957420D01*
X30388670Y5840440D01*
X30363920Y5815680D01*
X30394400Y5785200D01*
X30447410D01*
X30471130Y5761490D01*
X30515360Y5805710D01*
X30558870Y5762200D01*
X30579390Y5782720D01*
X30681200D01*
X30682310Y5783310D01*
G02Y5716690I17690J-33310D01*
G01X30681200Y5717280D01*
X30628320D01*
G03X30621140Y5699940I3J-10158D01*
G01X30699270Y5621800D01*
X30699280D01*
X30740610Y5580470D01*
Y5580460D01*
X30837210Y5483860D01*
X30837220D01*
X30878550Y5442530D01*
G37*
G36*
G01X30477090Y4360110D02*
X30381310Y4264330D01*
X30264330Y4381310D01*
X30360110Y4477090D01*
X30477090Y4360110D01*
G37*
G36*
G01X30489890Y4372910D02*
X30372910Y4489890D01*
X30468690Y4585670D01*
X30585670Y4468690D01*
X30489890Y4372910D01*
G37*
G36*
G01X28516300Y2820020D02*
X28554210Y2782110D01*
X28513480Y2741370D01*
X28540770Y2714090D01*
X28589130Y2665720D01*
X28590340Y2665350D01*
G02X28615540Y2639720I-11046J-36065D01*
G01X28615900Y2638460D01*
X28685670Y2568690D01*
X28589890Y2472910D01*
X28472910Y2589890D01*
X28522660Y2639640D01*
X28484220Y2678090D01*
X28467210Y2695100D01*
X28419480Y2647380D01*
X28276940Y2789920D01*
X28255420Y2768400D01*
Y2739940D01*
X28241710Y2726230D01*
X28246310Y2721630D01*
X28111580Y2586900D01*
X27748400Y2950080D01*
X27888130Y3089820D01*
Y3109070D01*
X27922960Y3143900D01*
X27872380Y3194480D01*
X28007110Y3329210D01*
X28191020Y3145300D01*
X28191030D01*
X28232360Y3103970D01*
Y3103960D01*
X28328960Y3007360D01*
X28328970D01*
X28370300Y2966030D01*
Y2966020D01*
X28470020Y2866300D01*
X28513560Y2909840D01*
X28513930Y2911050D01*
G02X28561050Y2863930I36070J-11050D01*
G01X28559840Y2863560D01*
X28516300Y2820020D01*
G37*
G36*
G01X28935670Y2818690D02*
X28839890Y2722910D01*
X28722910Y2839890D01*
X28818690Y2935670D01*
X28935670Y2818690D01*
G37*
G36*
G01X28731310Y2614330D02*
X28614330Y2731310D01*
X28710110Y2827090D01*
X28827090Y2710110D01*
X28731310Y2614330D01*
G37*
G36*
G01X26922900Y1039880D02*
X26944130Y1061110D01*
X26891140Y1114100D01*
X26861660Y1084620D01*
Y1065390D01*
X26836410Y1040130D01*
G02X26790130Y1086410I-36410J9870D01*
G01X26796220Y1092490D01*
Y1111720D01*
X26819930Y1135430D01*
X26721190Y1234170D01*
X26667920Y1180900D01*
Y1152440D01*
X26654210Y1138730D01*
X26658810Y1134130D01*
X26524080Y999400D01*
X26160900Y1362580D01*
X26300630Y1502320D01*
Y1521570D01*
X26367210Y1588150D01*
X26316630Y1638730D01*
X26451360Y1773460D01*
X26635270Y1589550D01*
X26635280D01*
X26676610Y1548220D01*
Y1548210D01*
X26773210Y1451610D01*
X26773220D01*
X26814550Y1410280D01*
Y1410270D01*
X26998460Y1226360D01*
X26948150Y1176040D01*
Y1163770D01*
X26997470Y1114450D01*
X27018690Y1135670D01*
X27135670Y1018690D01*
X27039890Y922910D01*
X26990250Y972550D01*
G03X26976050Y972720I-7187J-7180D01*
G02X26922720Y1026050I-26050J27280D01*
G03X26922900Y1039880I-7351J7012D01*
G37*
G36*
G01X29348290Y3312320D02*
G03X29337680Y3301710I-460J-10150D01*
G02X29262330Y3301850I-37678J-1710D01*
G03X29251850Y3312330I-10158J322D01*
G02X29251710Y3387680I-1850J37672D01*
G03X29262330Y3398150I463J10151D01*
G02X29337680Y3398290I37672J1850D01*
G03X29348290Y3387680I10150J-460D01*
G02Y3312320I1710J-37680D01*
G37*
G36*
G01X32366990Y11636700D02*
Y11605790D01*
G02X32328850I-19070J-32540D01*
G01Y11730710D01*
X32188640D01*
Y11793260D01*
X32130570D01*
X32129460Y11794360D01*
G03X32112120Y11787180I-7182J-7184D01*
G01Y11770280D01*
X31946680D01*
Y11905720D01*
X32112120D01*
Y11870720D01*
X32145650D01*
X32157670Y11858700D01*
X32188640D01*
Y11921250D01*
X32250170D01*
Y11954780D01*
X32328110Y12032720D01*
X32381190D01*
X32382310Y12033310D01*
G02Y11966690I17693J-33310D01*
G01X32381190Y11967280D01*
X32355210D01*
X32319410Y11931480D01*
G03X32329570Y11921250I10159J-71D01*
G01X32962360D01*
Y11730710D01*
X32822150D01*
Y11701040D01*
G02X32774880Y11643440I-19075J-32542D01*
G03X32757130Y11636700I-7592J-6748D01*
G01Y11605790D01*
G02X32718990I-19070J-32540D01*
G01Y11636700D01*
G03X32701240Y11643440I-10158J-8D01*
G02X32644840Y11643450I-28196J25059D01*
G03X32627080Y11636710I-7600J-6743D01*
G01Y11605790D01*
G02X32588940I-19070J-32540D01*
G01Y11636700D01*
G03X32571190Y11643440I-10158J-8D01*
G02X32514790Y11643450I-28196J25059D01*
G03X32497030Y11636710I-7600J-6743D01*
G01Y11605790D01*
G02X32458890I-19070J-32540D01*
G01Y11636700D01*
G03X32441140Y11643440I-10158J-8D01*
G02X32384740I-28200J25060D01*
G03X32366990Y11636700I-7592J-6748D01*
G37*
G36*
G01X18871090Y1001980D02*
X18701020Y972000D01*
X18433330Y1239690D01*
X16518030D01*
X14696940Y1560800D01*
X14695060Y1558880D01*
G02X14635380Y1566470I-26969J26371D01*
G02X13742570Y1814170I32705J1850753D01*
G01X10873290Y3470750D01*
X10870880Y3469590D01*
G02X10817320Y3509630I-16328J34001D01*
G01X10817730Y3512200D01*
X9167810Y5162120D01*
X7966970Y6593240D01*
X7964300Y6592970D01*
G02X7924160Y6640300I-3711J37539D01*
G02X7411250Y7458150I1652056J1605837D01*
G01X6276890Y10574760D01*
X6274290Y10575430D01*
G02X6246570Y10618940I9350J36542D01*
G01X6247070Y10621580D01*
X6128810Y10739840D01*
G03X6111520Y10731560I-7187J-7184D01*
G02X6065880Y10799920I-88399J-9603D01*
G03X6080930Y10808830I4889J8907D01*
G01Y14800000D01*
G02X6080970Y14817620I3997550J-265D01*
G02X6081780Y14882860I19340J32385D01*
G02X6322010Y16167240I3996694J-82884D01*
G01X7320750Y18911260D01*
X7319190Y18913440D01*
G02X7359190Y18898880I30651J21981D01*
G01X7356590Y18898210D01*
X7283580Y18697630D01*
G03X7294140Y18684040I9549J-3478D01*
G02X7307240Y18609970I3737J-37532D01*
G01X7304640Y18609300D01*
X7249020Y18456500D01*
G03X7259580Y18442910I9549J-3478D01*
G02X7272690Y18368840I3749J-37532D01*
G01X7270090Y18368170D01*
X7206540Y18193580D01*
G03X7217100Y18179990I9549J-3478D01*
G02X7230200Y18105920I3737J-37532D01*
G01X7227600Y18105250D01*
X7191740Y18006730D01*
G03X7202300Y17993140I9547J-3479D01*
G02X7215400Y17919070I3737J-37532D01*
G01X7212800Y17918400D01*
X7162780Y17780980D01*
G03X7173340Y17767390I9547J-3479D01*
G02X7186450Y17693320I3749J-37532D01*
G01X7183850Y17692650D01*
X7132950Y17552810D01*
G03X7143510Y17539220I9548J-3479D01*
G02X7156610Y17465150I3737J-37532D01*
G01X7154010Y17464480D01*
X7091850Y17293700D01*
G03X7102410Y17280110I9547J-3479D01*
G02X7115510Y17206040I3737J-37532D01*
G01X7112910Y17205370D01*
X6686750Y16034500D01*
G03X6469070Y14799990I3391749J-1234511D01*
G01Y13082540D01*
G02Y13017460I-19070J-32540D01*
G01Y10902120D01*
X6629010Y10742180D01*
X7249460Y9037490D01*
X7252060Y9036820D01*
G02X7273360Y8978300I-9352J-36540D01*
G01X7271800Y8976120D01*
X7767580Y7613950D01*
G03X8242180Y6868960I1917509J697891D01*
G02X8243310Y6867740I-13411J-13555D01*
G01X9329780Y5572930D01*
X9332450Y5573200D01*
G02X9372480Y5525490I3708J-37537D01*
G01X9371760Y5522900D01*
X9464070Y5412900D01*
X11073790Y3803180D01*
X12539480Y2956960D01*
X12541890Y2958120D01*
G02X12595830Y2926980I16330J-34001D01*
G01X12596030Y2924310D01*
X13901200Y2170780D01*
G03X14728870Y1949000I827681J1433558D01*
G02X14732180Y1948710I-3J-19070D01*
G01X16457820Y1644430D01*
X16459700Y1646350D01*
G02X16521030Y1635530I26967J-26371D01*
G01X16522140Y1633090D01*
X16562880Y1625910D01*
G03X16573910Y1640070I1759J10006D01*
G02X16639870Y1634800I34423J15428D01*
G03X16648360Y1619070I8493J-5572D01*
G01X18807900D01*
X19006910Y1420050D01*
X20534870Y1689480D01*
X20535980Y1691920D01*
G02X20597310Y1702740I34363J-15551D01*
G01X20599190Y1700820D01*
X22360860Y2011450D01*
G03X22941070Y2313480I-188858J1071119D01*
G02X22945020Y2316520I13505J-13461D01*
G01X24395120Y3153730D01*
X24395320Y3156400D01*
G02X24449260Y3187540I37610J-2861D01*
G01X24451670Y3186380D01*
X25162590Y3596830D01*
G03X26414630Y4557420I-3024110J5237901D01*
G01X27509440Y5862160D01*
X27508720Y5864740D01*
G02X27548750Y5912460I36321J10182D01*
G01X27551420Y5912190D01*
X28700850Y7282020D01*
G03X28800090Y7426530I-697864J585578D01*
G02X28829270Y7483960I32097J19820D01*
G03X28913990Y7867600I-826280J383643D01*
G02X28915140Y7874120I19058J0D01*
G01X29486090Y9442800D01*
X29484530Y9444980D01*
G02X29505830Y9503500I30652J21980D01*
G01X29508430Y9504170D01*
X30044750Y10977710D01*
G03X30180930Y11750000I-2121839J772301D01*
G01Y13517460D01*
G02Y13582540I19070J32540D01*
G01Y13756860D01*
G03X30166360Y13766010I-10159J-1D01*
G02X30117460Y13780930I-16356J33989D01*
G01X30032540D01*
G02Y13819070I-32540J19070D01*
G01X30117460D01*
G02X30166360Y13833990I32544J-19069D01*
G03X30180930Y13843140I4411J9151D01*
G01Y15323570D01*
G03X29943540Y15896700I-810522J11D01*
G02X29939100Y15903660I13474J13492D01*
G01X29344580Y17537080D01*
X29341980Y17537750D01*
G02X29381980Y17552310I9349J36541D01*
G01X29380420Y17550130D01*
X29439570Y17387610D01*
G03X29456390Y17383990I9547J3474D01*
G02X29514040Y17335670I26994J-26345D01*
G01X29512480Y17333490D01*
X29576470Y17157660D01*
G03X29593290Y17154040I9548J3477D01*
G02X29650940Y17105720I26994J-26345D01*
G01X29649380Y17103540D01*
X29707340Y16944290D01*
G03X29724160Y16940670I9547J3474D01*
G02X29781820Y16892360I27004J-26334D01*
G01X29780260Y16890180D01*
X29829090Y16756000D01*
G03X29845910Y16752380I9548J3477D01*
G02X29903560Y16704060I26994J-26345D01*
G01X29902000Y16701880D01*
X29965550Y16527270D01*
G03X29982370Y16523650I9547J3474D01*
G02X30040020Y16475330I26994J-26345D01*
G01X30038460Y16473150D01*
X30101580Y16299740D01*
G03X30118390Y16296110I9546J3471D01*
G02X30176040Y16247790I26994J-26345D01*
G01X30174480Y16245610D01*
X30242090Y16059840D01*
G03X30258910Y16056220I9548J3477D01*
G02X30322230Y16019700I27000J-26340D01*
G02X30569070Y15392310I-673890J-627388D01*
G01Y11782540D01*
G02X30568870Y11717340I-19071J-32542D01*
G02X30409490Y10844970I-2645939J32663D01*
G01X29281020Y7744510D01*
X29281010Y7743630D01*
G02X29278820Y7680200I-1039374J4133D01*
G02X29272470Y7614820I-21639J-30897D01*
G02X29037850Y7079780I-1030829J133067D01*
G01X26732420Y4332300D01*
X26733140Y4329720D01*
G02X26687200Y4283070I-36320J-10178D01*
G02X26151920Y3806830I-4718549J4764573D01*
G02X26086860Y3755550I-4183428J5240690D01*
G02X26035220Y3715780I-37408J-4838D01*
G02X25321520Y3240390I-4066655J5331811D01*
G01X23167360Y1996700D01*
X23167160Y1994030D01*
G02X23119540Y1960520I-37612J2858D01*
G02X22480220Y1638370I-855064J901455D01*
G01X18935410Y1013320D01*
X18934300Y1010880D01*
G02X18872970Y1000060I-34363J15551D01*
G01X18871090Y1001980D01*
G37*
G36*
G01X29694190Y7701570D02*
G02X29654190Y7716130I-30651J-21981D01*
G01X29656790Y7716800D01*
X30454560Y9908650D01*
X30453000Y9910830D01*
G02X30510650Y9959150I30656J21975D01*
G03X30527470Y9962770I7272J7097D01*
G01X30713760Y10474610D01*
G03X30980930Y11650930I-4519749J1645042D01*
G01Y14267460D01*
G02X31016360Y14333990I19077J32540D01*
G03X31030930Y14343140I4411J9151D01*
G01Y14950000D01*
G03X30881910Y15943940I-3389262J-6D01*
G01X29922000Y18581270D01*
X29919400Y18581940D01*
G02X29959400Y18596500I9349J36541D01*
G01X29957840Y18594320D01*
X30917920Y15956520D01*
G02X30918230Y15955600I-17911J-6547D01*
G02X31069070Y14950000I-3276564J-1005598D01*
G01Y11650000D01*
G02X31068980Y11648170I-19069J21D01*
G02X30796590Y10444470I-4867769J468877D01*
G01X29951970Y8123900D01*
X29953530Y8121720D01*
G02X29895880Y8073400I-30656J-21975D01*
G03X29879060Y8069780I-7272J-7097D01*
G01X29825910Y7923730D01*
X29827470Y7921550D01*
G02X29769820Y7873230I-30656J-21975D01*
G03X29753000Y7869610I-7273J-7092D01*
G01X29692630Y7703750D01*
X29694190Y7701570D01*
G37*
G36*
G01X3776230Y15743340D02*
X3433290D01*
Y15933880D01*
X3437280D01*
Y16412720D01*
X3962720D01*
Y16162720D01*
X3974340D01*
Y16404020D01*
X4106460D01*
Y16162720D01*
X4112720D01*
Y15937280D01*
X3776230D01*
Y15901330D01*
X3861750D01*
X3863280Y15899800D01*
X3887280D01*
Y15904800D01*
X4052720D01*
Y15899800D01*
X4119280D01*
Y15927580D01*
X4145480D01*
Y16003540D01*
X4147860Y16005920D01*
Y16149980D01*
X4144520D01*
Y16404020D01*
X4276640D01*
Y16339720D01*
X4314700D01*
Y16404020D01*
X4446820D01*
Y16149980D01*
X4314700D01*
Y16214280D01*
X4276640D01*
Y16149980D01*
X4273300D01*
Y15953960D01*
X4270920Y15951580D01*
Y15927580D01*
X4297120D01*
Y15901380D01*
X4395440D01*
Y15904800D01*
X4560880D01*
Y15769360D01*
X4395440D01*
Y15775940D01*
X4297120D01*
Y15749740D01*
X4119280D01*
Y15774360D01*
X4052720D01*
Y15769360D01*
X3887280D01*
Y15774360D01*
X3811320D01*
X3809790Y15775890D01*
X3776230D01*
Y15743340D01*
G37*
G36*
G01X32016830Y6269900D02*
X31653650Y6633080D01*
X31788380Y6767810D01*
X31795560Y6760630D01*
X31816460Y6781530D01*
X31815970Y6784160D01*
G02X31890700Y6788920I37073J6964D01*
G03X31908020Y6781140I10140J-596D01*
G01X31929790Y6802900D01*
X31929290Y6805540D01*
G02X31959390Y6775440I37070J6970D01*
G01X31956760Y6775930D01*
X31934980Y6754160D01*
G03X31942770Y6736830I7184J-7186D01*
G02X31982640Y6696950I2219J-37652D01*
G03X31999970Y6689170I10143J-599D01*
G01X32021750Y6710940D01*
X32021250Y6713580D01*
G02X32051350Y6683480I37070J6970D01*
G01X32048720Y6683970D01*
X32026940Y6662200D01*
G03X32034730Y6644870I7184J-7186D01*
G02X32074600Y6604990I2219J-37652D01*
G03X32091930Y6597210I10143J-599D01*
G01X32113710Y6618980D01*
X32113210Y6621620D01*
G02X32143310Y6591520I37070J6970D01*
G01X32140680Y6592010D01*
X32118900Y6570240D01*
G03X32126690Y6552910I7184J-7186D01*
G02X32166560Y6513040I2220J-37650D01*
G03X32183890Y6505260I10143J-597D01*
G01X32205670Y6527030D01*
X32205170Y6529670D01*
G02X32235270Y6499570I37070J6970D01*
G01X32232630Y6500070D01*
X32144380Y6411810D01*
X32151560Y6404630D01*
X32016830Y6269900D01*
G37*
G36*
G01X31333640Y5529790D02*
X31149730Y5713700D01*
X31149720D01*
X31108390Y5755030D01*
Y5755040D01*
X31011790Y5851640D01*
X31011780D01*
X30970450Y5892970D01*
Y5892980D01*
X30900060Y5963360D01*
G03X30882720Y5956180I-7182J-7183D01*
G01Y5918810D01*
X30883310Y5917690D01*
G02X30816690I-33310J-17690D01*
G01X30817280Y5918810D01*
Y6020610D01*
X30830050Y6033380D01*
X30786540Y6076890D01*
X30826640Y6117000D01*
G03X30823050Y6125670I-3592J3591D01*
G01X30815730D01*
X30744820Y6196580D01*
X30720060Y6171830D01*
X30603080Y6288810D01*
X30698860Y6384590D01*
X30815840Y6267610D01*
X30791090Y6242850D01*
X30842830Y6191110D01*
X30853320D01*
X30877040Y6167400D01*
X30921270Y6211620D01*
X31063810Y6069080D01*
X31127100Y6132370D01*
X31152930D01*
X31292670Y6272100D01*
X31655850Y5908920D01*
X31521120Y5774190D01*
X31516520Y5778790D01*
X31502810Y5765080D01*
X31467770D01*
X31417790Y5715100D01*
X31468370Y5664520D01*
X31333640Y5529790D01*
G37*
G36*
G01X27474460Y2056100D02*
X27474960Y2053460D01*
G02X27444860Y2083560I-37070J-6970D01*
G01X27447490Y2083070D01*
X27469270Y2104840D01*
G03X27461480Y2122170I-7184J7186D01*
G02X27421610Y2162050I-2219J37652D01*
G03X27404280Y2169830I-10143J599D01*
G01X27382500Y2148060D01*
X27383000Y2145420D01*
G02X27352900Y2175520I-37070J-6970D01*
G01X27355530Y2175030D01*
X27377310Y2196800D01*
G03X27369520Y2214130I-7184J7186D01*
G02X27329650Y2254010I-2219J37652D01*
G03X27312320Y2261790I-10143J599D01*
G01X27290540Y2240020D01*
X27291040Y2237380D01*
G02X27260940Y2267480I-37070J-6970D01*
G01X27263570Y2266990D01*
X27285350Y2288760D01*
G03X27277560Y2306090I-7184J7186D01*
G02X27237690Y2345960I-2220J37650D01*
G03X27220360Y2353740I-10143J597D01*
G01X27198580Y2331970D01*
X27199080Y2329330D01*
G02X27168980Y2359430I-37070J-6970D01*
G01X27171620Y2358930D01*
X27259870Y2447190D01*
X27252690Y2454370D01*
X27387420Y2589100D01*
X27750600Y2225920D01*
X27615870Y2091190D01*
X27608690Y2098370D01*
X27587790Y2077470D01*
X27588280Y2074840D01*
G02X27513550Y2070080I-37073J-6964D01*
G03X27496230Y2077860I-10140J596D01*
G01X27474460Y2056100D01*
G37*
G36*
G01X25886960Y468600D02*
X25887460Y465960D01*
G02X25857360Y496060I-37070J-6970D01*
G01X25859990Y495570D01*
X25881770Y517340D01*
G03X25873980Y534670I-7184J7186D01*
G02X25834110Y574550I-2219J37652D01*
G03X25816780Y582330I-10143J599D01*
G01X25795000Y560560D01*
X25795500Y557920D01*
G02X25765400Y588020I-37070J-6970D01*
G01X25768030Y587530D01*
X25789810Y609300D01*
G03X25782020Y626630I-7184J7186D01*
G02X25742150Y666510I-2219J37652D01*
G03X25724820Y674290I-10143J599D01*
G01X25703040Y652520D01*
X25703540Y649880D01*
G02X25673440Y679980I-37070J-6970D01*
G01X25676070Y679490D01*
X25697850Y701260D01*
G03X25690060Y718590I-7184J7186D01*
G02X25650190Y758460I-2220J37650D01*
G03X25632860Y766240I-10143J597D01*
G01X25611080Y744470D01*
X25611580Y741830D01*
G02X25581480Y771930I-37070J-6970D01*
G01X25584120Y771430D01*
X25672370Y859690D01*
X25665190Y866870D01*
X25799920Y1001600D01*
X26163100Y638420D01*
X26028370Y503690D01*
X26021190Y510870D01*
X26000290Y489970D01*
X26000780Y487340D01*
G02X25926050Y482580I-37073J-6964D01*
G03X25908730Y490360I-10140J596D01*
G01X25886960Y468600D01*
G37*
G36*
G01X29526620Y7423270D02*
X29524720Y7421380D01*
X29527800Y7404780D01*
G02X29527500Y7396490I-18750J-3472D01*
G02X29070900Y6512100I-2191591J571429D01*
G01X28633650Y5991010D01*
X28634370Y5988430D01*
G02X28601760Y6015790I-36322J-10178D01*
G01X28604430Y6015520D01*
X29041680Y6536620D01*
G03X29489520Y7402010I-1705767J1431309D01*
G01X29487220Y7414410D01*
X29484760Y7415490D01*
G02X29526620Y7423270I15239J34508D01*
G37*
G36*
G01X32250590Y8621750D02*
Y8504320D01*
X32236440Y8490160D01*
X32236070Y8488950D01*
G02X32182440Y8533380I-36066J11048D01*
G01X32185150Y8534810D01*
Y8684300D01*
X32133270D01*
X32116250Y8667280D01*
X32082720D01*
Y8632280D01*
X31917280D01*
Y8667280D01*
X31668810D01*
X31667690Y8666690D01*
G02Y8733310I-17690J33310D01*
G01X31668810Y8732720D01*
X31917280D01*
Y8767720D01*
X32082720D01*
Y8750820D01*
G03X32100060Y8743640I10158J4D01*
G01X32106170Y8749740D01*
X32188640D01*
Y8812290D01*
X32366260D01*
G03X32373450Y8829630I2J10160D01*
G01X32356950Y8846130D01*
Y8904960D01*
X32350440D01*
Y9095500D01*
X32864060D01*
Y8904960D01*
X32857550D01*
Y8864960D01*
X32890830Y8831680D01*
Y8812290D01*
X32962360D01*
Y8621750D01*
X32250590D01*
G37*
G36*
G01X30419290Y10570960D02*
G03X30434030Y10562670I10132J766D01*
G02X30391840Y10516450I40378J-79223D01*
G03X30382250Y10530370I-9435J3763D01*
G02X30419290Y10570960I-572J37717D01*
G37*
G36*
G01X32864060Y13320750D02*
X32350440D01*
Y13511290D01*
X32360600D01*
Y13540960D01*
G02X32407870Y13598560I19075J32542D01*
G03X32425620Y13605300I7592J6748D01*
G01Y13636210D01*
G02X32463760I19070J32540D01*
G01Y13605300D01*
G03X32481510Y13598560I10158J8D01*
G02X32537910Y13598550I28196J-25059D01*
G03X32555670Y13605290I7600J6743D01*
G01Y13636210D01*
G02X32593810I19070J32540D01*
G01Y13605300D01*
G03X32611560Y13598560I10158J8D01*
G02X32667960Y13598550I28196J-25059D01*
G03X32685720Y13605290I7600J6743D01*
G01Y13636210D01*
G02X32723860I19070J32540D01*
G01Y13605300D01*
G03X32741610Y13598560I10158J8D01*
G02X32798010I28200J-25060D01*
G03X32815760Y13605300I7592J6748D01*
G01Y13636210D01*
G02X32853900I19070J32540D01*
G01Y13511290D01*
X32864060D01*
Y13320750D01*
G37*
G36*
G01X32241270Y14949870D02*
Y14851430D01*
X31804830D01*
Y14867930D01*
X31721560D01*
X31720440Y14867340D01*
G02Y14933960I-17690J33310D01*
G01X31721560Y14933370D01*
X31804830D01*
Y14949870D01*
X32241270D01*
G37*
G36*
G01X32703270Y14867930D02*
Y14851430D01*
X32266830D01*
Y14949870D01*
X32703270D01*
Y14933370D01*
X32786540D01*
X32787660Y14933960D01*
G02Y14867340I17690J-33310D01*
G01X32786540Y14867930D01*
X32703270D01*
G37*
G36*
G01X32241270Y15076870D02*
Y14978430D01*
X31804830D01*
Y14994930D01*
X31721560D01*
X31720440Y14994340D01*
G02Y15060960I-17690J33310D01*
G01X31721560Y15060370D01*
X31804830D01*
Y15076870D01*
X32241270D01*
G37*
G36*
G01X32703270Y14994930D02*
Y14978430D01*
X32266830D01*
Y15076870D01*
X32703270D01*
Y15060370D01*
X32786540D01*
X32787660Y15060960D01*
G02Y14994340I17690J-33310D01*
G01X32786540Y14994930D01*
X32703270D01*
G37*
G36*
G01X32241270Y15203870D02*
Y15105430D01*
X31804830D01*
Y15121930D01*
X31721560D01*
X31720440Y15121340D01*
G02Y15187960I-17690J33310D01*
G01X31721560Y15187370D01*
X31804830D01*
Y15203870D01*
X32241270D01*
G37*
G36*
G01X32703270Y15121930D02*
Y15105430D01*
X32266830D01*
Y15203870D01*
X32703270D01*
Y15187370D01*
X32786540D01*
X32787660Y15187960D01*
G02Y15121340I17690J-33310D01*
G01X32786540Y15121930D01*
X32703270D01*
G37*
G36*
G01X32241270Y15330870D02*
Y15232430D01*
X31804830D01*
Y15248930D01*
X31721560D01*
X31720440Y15248340D01*
G02Y15314960I-17690J33310D01*
G01X31721560Y15314370D01*
X31804830D01*
Y15330870D01*
X32241270D01*
G37*
G36*
G01X32703270Y15248930D02*
Y15232430D01*
X32266830D01*
Y15330870D01*
X32703270D01*
Y15314370D01*
X32786540D01*
X32787660Y15314960D01*
G02Y15248340I17690J-33310D01*
G01X32786540Y15248930D01*
X32703270D01*
G37*
G36*
G01X32241270Y15457870D02*
Y15359430D01*
X31804830D01*
Y15375930D01*
X31721560D01*
X31720440Y15375340D01*
G02Y15441960I-17690J33310D01*
G01X31721560Y15441370D01*
X31804830D01*
Y15457870D01*
X32241270D01*
G37*
G36*
G01X32703270Y15375930D02*
Y15359430D01*
X32266830D01*
Y15457870D01*
X32703270D01*
Y15441370D01*
X32786540D01*
X32787660Y15441960D01*
G02Y15375340I17690J-33310D01*
G01X32786540Y15375930D01*
X32703270D01*
G37*
G36*
G01X32241270Y15584870D02*
Y15486430D01*
X31804830D01*
Y15502930D01*
X31721560D01*
X31720440Y15502340D01*
G02Y15568960I-17690J33310D01*
G01X31721560Y15568370D01*
X31804830D01*
Y15584870D01*
X32241270D01*
G37*
G36*
G01X32703270Y15502930D02*
Y15486430D01*
X32266830D01*
Y15584870D01*
X32703270D01*
Y15568370D01*
X32786540D01*
X32787660Y15568960D01*
G02Y15502340I17690J-33310D01*
G01X32786540Y15502930D01*
X32703270D01*
G37*
G36*
G01X32241270Y15711870D02*
Y15613430D01*
X31804830D01*
Y15629930D01*
X31721560D01*
X31720440Y15629340D01*
G02Y15695960I-17690J33310D01*
G01X31721560Y15695370D01*
X31804830D01*
Y15711870D01*
X32241270D01*
G37*
G36*
G01Y15838870D02*
Y15740430D01*
X31804830D01*
Y15756930D01*
X31721560D01*
X31720440Y15756340D01*
G02Y15822960I-17690J33310D01*
G01X31721560Y15822370D01*
X31804830D01*
Y15838870D01*
X32241270D01*
G37*
G36*
G01Y15965870D02*
Y15867430D01*
X31804830D01*
Y15883930D01*
X31721560D01*
X31720440Y15883340D01*
G02Y15949960I-17690J33310D01*
G01X31721560Y15949370D01*
X31804830D01*
Y15965870D01*
X32241270D01*
G37*
G36*
G01X32703270Y15883930D02*
Y15867430D01*
X32266830D01*
Y15965870D01*
X32703270D01*
Y15949370D01*
X32786540D01*
X32787660Y15949960D01*
G02Y15883340I17690J-33310D01*
G01X32786540Y15883930D01*
X32703270D01*
G37*
G36*
G01X32241270Y16092870D02*
Y15994430D01*
X31804830D01*
Y16010930D01*
X31721560D01*
X31720440Y16010340D01*
G02Y16076960I-17690J33310D01*
G01X31721560Y16076370D01*
X31804830D01*
Y16092870D01*
X32241270D01*
G37*
G36*
G01X32703270Y16010930D02*
Y15994430D01*
X32266830D01*
Y16092870D01*
X32703270D01*
Y16076370D01*
X32786540D01*
X32787660Y16076960D01*
G02Y16010340I17690J-33310D01*
G01X32786540Y16010930D01*
X32703270D01*
G37*
G36*
G01X32241270Y16219870D02*
Y16121430D01*
X31804830D01*
Y16137930D01*
X31721560D01*
X31720440Y16137340D01*
G02Y16203960I-17690J33310D01*
G01X31721560Y16203370D01*
X31804830D01*
Y16219870D01*
X32241270D01*
G37*
G36*
G01X32703270Y16137930D02*
Y16121430D01*
X32266830D01*
Y16219870D01*
X32703270D01*
Y16203370D01*
X32786540D01*
X32787660Y16203960D01*
G02Y16137340I17690J-33310D01*
G01X32786540Y16137930D01*
X32703270D01*
G37*
G36*
G01X32241270Y16346870D02*
Y16248430D01*
X31804830D01*
Y16264930D01*
X31721560D01*
X31720440Y16264340D01*
G02Y16330960I-17690J33310D01*
G01X31721560Y16330370D01*
X31804830D01*
Y16346870D01*
X32241270D01*
G37*
G36*
G01X32703270Y16264930D02*
Y16248430D01*
X32266830D01*
Y16346870D01*
X32703270D01*
Y16330370D01*
X32786540D01*
X32787660Y16330960D01*
G02Y16264340I17690J-33310D01*
G01X32786540Y16264930D01*
X32703270D01*
G37*
G36*
G01X32241270Y16473870D02*
Y16375430D01*
X31804830D01*
Y16391930D01*
X31721560D01*
X31720440Y16391340D01*
G02Y16457960I-17690J33310D01*
G01X31721560Y16457370D01*
X31804830D01*
Y16473870D01*
X32241270D01*
G37*
G36*
G01X32703270Y16391930D02*
Y16375430D01*
X32266830D01*
Y16473870D01*
X32703270D01*
Y16457370D01*
X32786540D01*
X32787660Y16457960D01*
G02Y16391340I17690J-33310D01*
G01X32786540Y16391930D01*
X32703270D01*
G37*
G36*
G01X32241270Y16600870D02*
Y16502430D01*
X31804830D01*
Y16518930D01*
X31721560D01*
X31720440Y16518340D01*
G02Y16584960I-17690J33310D01*
G01X31721560Y16584370D01*
X31804830D01*
Y16600870D01*
X32241270D01*
G37*
G36*
G01X32703270Y16518930D02*
Y16502430D01*
X32266830D01*
Y16600870D01*
X32703270D01*
Y16584370D01*
X32786540D01*
X32787660Y16584960D01*
G02Y16518340I17690J-33310D01*
G01X32786540Y16518930D01*
X32703270D01*
G37*
G36*
G01X32241270Y16727870D02*
Y16629430D01*
X31804830D01*
Y16645930D01*
X31721560D01*
X31720440Y16645340D01*
G02Y16711960I-17690J33310D01*
G01X31721560Y16711370D01*
X31804830D01*
Y16727870D01*
X32241270D01*
G37*
G36*
G01X32703270Y16645930D02*
Y16629430D01*
X32266830D01*
Y16727870D01*
X32703270D01*
Y16711370D01*
X32786540D01*
X32787660Y16711960D01*
G02Y16645340I17690J-33310D01*
G01X32786540Y16645930D01*
X32703270D01*
G37*
G36*
G01X32241270Y16854870D02*
Y16756430D01*
X31804830D01*
Y16772930D01*
X31721560D01*
X31720440Y16772340D01*
G02Y16838960I-17690J33310D01*
G01X31721560Y16838370D01*
X31804830D01*
Y16854870D01*
X32241270D01*
G37*
G36*
G01X32703270Y16772930D02*
Y16756430D01*
X32266830D01*
Y16854870D01*
X32703270D01*
Y16838370D01*
X32786540D01*
X32787660Y16838960D01*
G02Y16772340I17690J-33310D01*
G01X32786540Y16772930D01*
X32703270D01*
G37*
G36*
G01X4583980Y17724820D02*
Y16810380D01*
X3491740D01*
Y17724820D01*
X3671600D01*
G02X3728400I28400J-24820D01*
G01X3771600D01*
G02X3828400I28400J-24820D01*
G01X3871600D01*
G02X3928400I28400J-24820D01*
G01X4171600D01*
G02X4228400I28400J-24820D01*
G01X4271600D01*
G02X4328400I28400J-24820D01*
G01X4371600D01*
G02X4428400I28400J-24820D01*
G01X4583980D01*
G37*
G36*
G01X32241270Y16981870D02*
Y16883430D01*
X31804830D01*
Y16899930D01*
X31721560D01*
X31720440Y16899340D01*
G02Y16965960I-17690J33310D01*
G01X31721560Y16965370D01*
X31804830D01*
Y16981870D01*
X32241270D01*
G37*
G36*
G01X32703270Y16899930D02*
Y16883430D01*
X32266830D01*
Y16981870D01*
X32703270D01*
Y16965370D01*
X32786540D01*
X32787660Y16965960D01*
G02Y16899340I17690J-33310D01*
G01X32786540Y16899930D01*
X32703270D01*
G37*
G36*
G01X32241270Y17108870D02*
Y17010430D01*
X31804830D01*
Y17026930D01*
X31721560D01*
X31720440Y17026340D01*
G02Y17092960I-17690J33310D01*
G01X31721560Y17092370D01*
X31804830D01*
Y17108870D01*
X32241270D01*
G37*
G36*
G01Y17235870D02*
Y17137430D01*
X31804830D01*
Y17153930D01*
X31721560D01*
X31720440Y17153340D01*
G02Y17219960I-17690J33310D01*
G01X31721560Y17219370D01*
X31804830D01*
Y17235870D01*
X32241270D01*
G37*
G36*
G01X32703270Y17153930D02*
Y17137430D01*
X32266830D01*
Y17235870D01*
X32703270D01*
Y17219370D01*
X32786540D01*
X32787660Y17219960D01*
G02Y17153340I17690J-33310D01*
G01X32786540Y17153930D01*
X32703270D01*
G37*
G36*
G01Y17280930D02*
Y17264430D01*
X32266830D01*
Y17362870D01*
X32703270D01*
Y17346370D01*
X32786540D01*
X32787660Y17346960D01*
G02Y17280340I17690J-33310D01*
G01X32786540Y17280930D01*
X32703270D01*
G37*
G36*
G01X5519280Y18217680D02*
Y18052240D01*
X5383840D01*
Y18217680D01*
X5388840D01*
Y18465100D01*
X5390420Y18466680D01*
Y18490680D01*
X5364220D01*
Y18668520D01*
X5390420D01*
Y18780420D01*
X5525280Y18915280D01*
Y18939280D01*
X5325280D01*
Y19164720D01*
X5850720D01*
Y18939280D01*
X5650720D01*
Y18863320D01*
X5515860Y18728460D01*
Y18668520D01*
X5542060D01*
Y18490680D01*
X5515860D01*
Y18414720D01*
X5514280Y18413140D01*
Y18217680D01*
X5519280D01*
G37*
G36*
G01X30742720Y18782720D02*
Y18617280D01*
X30607280D01*
Y18677280D01*
X30555110D01*
G02Y18722720I-30110J22720D01*
G01X30607280D01*
Y18782720D01*
X30742720D01*
G37*
G36*
G01X30942720D02*
Y18617280D01*
X30807280D01*
Y18782720D01*
X30852280D01*
Y18837880D01*
X30847530Y18842630D01*
Y18862020D01*
X30806730D01*
Y19009380D01*
X30933770D01*
Y18958420D01*
X30957470D01*
X30958520Y18958930D01*
G02X30950520Y18896300I16479J-33931D01*
G03X30933770Y18888570I-6591J-7731D01*
G01Y18862020D01*
X30897720D01*
Y18782720D01*
X30942720D01*
G37*
G36*
G01X30743270Y19009380D02*
Y18862020D01*
X30616230D01*
Y18912980D01*
X30596840D01*
X30582540Y18927280D01*
X30567720D01*
Y18867280D01*
X30432280D01*
Y19032720D01*
X30477280D01*
Y19044800D01*
X30475500Y19046320D01*
G02X30524500I24500J28680D01*
G01X30522720Y19044800D01*
Y19032720D01*
X30567720D01*
Y18972720D01*
X30601360D01*
X30607560Y18966520D01*
G03X30616230Y18970110I3590J3594D01*
G01Y19009380D01*
X30743270D01*
G37*
G36*
G01X30517720Y19457720D02*
Y19292280D01*
X30382280D01*
Y19457720D01*
X30427280D01*
Y19492280D01*
X30382280D01*
Y19657720D01*
X30517720D01*
Y19597720D01*
X30586140D01*
X30596840Y19608420D01*
X30616230D01*
Y19659380D01*
X30743270D01*
Y19512020D01*
X30616230D01*
Y19551290D01*
G03X30607560Y19554880I-5080J-4D01*
G01X30604960Y19552280D01*
X30517720D01*
Y19492280D01*
X30472720D01*
Y19457720D01*
X30517720D01*
G37*
G36*
G01X30742720D02*
Y19292280D01*
X30607280D01*
Y19332530D01*
G03X30592420Y19341540I-10160J2D01*
G02Y19408460I-17420J33460D01*
G03X30607280Y19417470I4700J9008D01*
G01Y19457720D01*
X30742720D01*
G37*
G36*
G01X30933770Y19562980D02*
Y19512020D01*
X30806730D01*
Y19659380D01*
X30933770D01*
Y19608420D01*
X30982470D01*
X30983520Y19608930D01*
G02X30965420Y19559930I16480J-33930D01*
G01X30964090Y19562980D01*
X30933770D01*
G37*
G36*
G01X6137020Y15922050D02*
X6076200Y15754930D01*
X5909080Y15815750D01*
X5969900Y15982870D01*
X6137020Y15922050D01*
G37*
G36*
G01X5659500Y16096040D02*
X5598680Y15928920D01*
X5431560Y15989740D01*
X5492380Y16156860D01*
X5659500Y16096040D01*
G37*
G36*
G01X6875670Y7153600D02*
X6708550Y7092780D01*
X6647730Y7259900D01*
X6814850Y7320720D01*
X6875670Y7153600D01*
G37*
G36*
G01X7353310Y7327260D02*
X7186190Y7266440D01*
X7125370Y7433560D01*
X7292490Y7494380D01*
X7353310Y7327260D01*
G37*
G36*
G01X9664820Y3619330D02*
X9528590Y3505020D01*
X9414280Y3641250D01*
X9550510Y3755560D01*
X9664820Y3619330D01*
G37*
G36*
G01X10054260Y3945880D02*
X9918030Y3831570D01*
X9803720Y3967800D01*
X9939950Y4082110D01*
X10054260Y3945880D01*
G37*
G36*
G01X13494570Y1252160D02*
X13405650Y1098140D01*
X13251630Y1187060D01*
X13340550Y1341080D01*
X13494570Y1252160D01*
G37*
G36*
G01X13748840Y1692210D02*
X13659920Y1538190D01*
X13505900Y1627110D01*
X13594820Y1781130D01*
X13748840Y1692210D01*
G37*
G36*
G01X17902970Y337590D02*
X17872090Y162450D01*
X17696950Y193330D01*
X17727830Y368470D01*
X17902970Y337590D01*
G37*
G36*
G01X22301110Y1311340D02*
X22125970Y1280460D01*
X22095090Y1455600D01*
X22270230Y1486480D01*
X22301110Y1311340D01*
G37*
G36*
G01X22389190Y810800D02*
X22214050Y779920D01*
X22183170Y955060D01*
X22358310Y985940D01*
X22389190Y810800D01*
G37*
G36*
G01X26158180Y3405210D02*
X26004160Y3316290D01*
X25915240Y3470310D01*
X26069260Y3559230D01*
X26158180Y3405210D01*
G37*
G36*
G01X29066470Y6692010D02*
X28952160Y6555780D01*
X28815930Y6670090D01*
X28930240Y6806320D01*
X29066470Y6692010D01*
G37*
G36*
G01X29455690Y6365200D02*
X29341380Y6228970D01*
X29205150Y6343280D01*
X29319460Y6479510D01*
X29455690Y6365200D01*
G37*
G36*
G01X29458950Y19157480D02*
X29291830Y19096660D01*
X29231010Y19263780D01*
X29398130Y19324600D01*
X29458950Y19157480D01*
G37*
G36*
G01X30530090Y5981860D02*
X30434310Y5886080D01*
X30317330Y6003060D01*
X30413110Y6098840D01*
X30530090Y5981860D01*
G37*
G36*
G01X29936590Y19331140D02*
X29769470Y19270320D01*
X29708650Y19437440D01*
X29875770Y19498260D01*
X29936590Y19331140D01*
G37*
G36*
G01X30674420Y6126190D02*
X30578640Y6030410D01*
X30461660Y6147390D01*
X30557440Y6243170D01*
X30674420Y6126190D01*
G37*
G36*
G01X31152770Y10601300D02*
X31091950Y10434180D01*
X30924830Y10495000D01*
X30985650Y10662120D01*
X31152770Y10601300D01*
G37*
G36*
G01X30675250Y10775290D02*
X30614430Y10608170D01*
X30447310Y10668990D01*
X30508130Y10836110D01*
X30675250Y10775290D01*
G37*
G36*
G01X32315610Y12304750D02*
Y12272960D01*
X32355850Y12232720D01*
X32381190D01*
X32382310Y12233310D01*
G02Y12166690I17690J-33310D01*
G01X32381190Y12167280D01*
X32328750D01*
X32250170Y12245860D01*
Y12304750D01*
X32188640D01*
Y12367300D01*
X32151570D01*
G02X32132100Y12360880I-19470J26313D01*
G01X32112120D01*
Y12325880D01*
X31946680D01*
Y12461320D01*
X32112120D01*
Y12432160D01*
G03X32120790Y12428560I5081J-4D01*
G01X32124970Y12432740D01*
X32188640D01*
Y12495290D01*
X32366260D01*
G03X32373450Y12512630I2J10160D01*
G01X32356950Y12529130D01*
Y12619710D01*
X32350440D01*
Y12810250D01*
X32864060D01*
Y12619710D01*
X32857550D01*
Y12547960D01*
X32890830Y12514680D01*
Y12495290D01*
X32962360D01*
Y12304750D01*
X32315610D01*
G37*
G36*
G01X27181310Y1064330D02*
X27064330Y1181310D01*
X27160110Y1277090D01*
X27277090Y1160110D01*
X27181310Y1064330D01*
G37*
G36*
G01X27385670Y1268690D02*
X27289890Y1172910D01*
X27172910Y1289890D01*
X27268690Y1385670D01*
X27385670Y1268690D01*
G37*
G36*
G01X27527090Y1410110D02*
X27431310Y1314330D01*
X27314330Y1431310D01*
X27335550Y1452530D01*
X27280090Y1507980D01*
X27269640Y1497540D01*
X27170500Y1596680D01*
X27082250Y1508430D01*
X27082750Y1505790D01*
G02X27052650Y1535890I-37070J-6970D01*
G01X27055280Y1535400D01*
X27077070Y1557180D01*
G03X27069280Y1574510I-7183J7187D01*
G02X27029380Y1614360I-2244J37653D01*
G03X27012060Y1622140I-10140J595D01*
G01X26990290Y1600380D01*
X26990790Y1597740D01*
G02X26960690Y1627840I-37070J-6970D01*
G01X26963320Y1627350D01*
X26985120Y1649140D01*
G03X26977330Y1666470I-7183J7187D01*
G02X26937420Y1706320I-2254J37653D01*
G03X26920100Y1714090I-10141J585D01*
G01X26898340Y1692340D01*
X26898840Y1689700D01*
G02X26868740Y1719800I-37070J-6970D01*
G01X26871370Y1719310D01*
X26893160Y1741090D01*
G03X26885370Y1758420I-7183J7187D01*
G02X26845460Y1798270I-2254J37653D01*
G03X26828140Y1806050I-10140J595D01*
G01X26806380Y1784300D01*
X26806880Y1781660D01*
G02X26776780Y1811760I-37070J-6970D01*
G01X26779410Y1811270D01*
X26801200Y1833050D01*
G03X26793410Y1850380I-7183J7187D01*
G02X26798140Y1925100I-2245J37652D01*
G01X26800780Y1924600D01*
X26821680Y1945500D01*
X26722540Y2044640D01*
X26857270Y2179370D01*
X27036540Y2000100D01*
Y2000090D01*
X27087160Y1949470D01*
X27087170D01*
X27174470Y1862170D01*
Y1862160D01*
X27225090Y1811540D01*
X27225100D01*
X27301790Y1734860D01*
G03X27319130Y1742040I7182J7183D01*
G01Y1765400D01*
X27363560Y1809840D01*
X27363930Y1811050D01*
G02X27411050Y1763930I36070J-11050D01*
G01X27409840Y1763560D01*
X27384570Y1738300D01*
Y1699490D01*
X27360860Y1675780D01*
X27404370Y1632270D01*
X27354060Y1581950D01*
Y1540700D01*
X27388890Y1505870D01*
X27410110Y1527090D01*
X27527090Y1410110D01*
G37*
G36*
G01X30133020Y4229290D02*
X30069680Y4292630D01*
X30036660Y4259620D01*
Y4240390D01*
X29986440Y4190160D01*
X29986070Y4188950D01*
G02X29938950Y4236070I-36070J11050D01*
G01X29940160Y4236440D01*
X29971220Y4267490D01*
Y4286720D01*
X29994930Y4310430D01*
X29893610Y4411750D01*
X29888930Y4407070D01*
X29830920Y4352350D01*
X29826630Y4348060D01*
X29833810Y4340880D01*
X29699080Y4206150D01*
X29335900Y4569330D01*
X29470630Y4704060D01*
X29477810Y4696880D01*
X29482490Y4701560D01*
X29540500Y4756280D01*
X29544790Y4760570D01*
X29491630Y4813730D01*
X29626360Y4948460D01*
X29810270Y4764550D01*
X29810280D01*
X29851610Y4723220D01*
Y4723210D01*
X29948210Y4626610D01*
X29948220D01*
X29989550Y4585280D01*
Y4585270D01*
X30173460Y4401360D01*
X30118150Y4346040D01*
Y4336700D01*
X30168930Y4285920D01*
X30218690Y4335670D01*
X30335670Y4218690D01*
X30239890Y4122910D01*
X30179540Y4183260D01*
X30136440Y4140160D01*
X30136070Y4138950D01*
G02X30088950Y4186070I-36070J11050D01*
G01X30090160Y4186440D01*
X30119860Y4216140D01*
X30133020Y4229290D01*
G37*
G36*
G01X32786590Y15695370D02*
G02Y15629930I18760J-32720D01*
G01X32703270D01*
Y15613430D01*
X32266830D01*
Y15711870D01*
X32703270D01*
Y15695370D01*
X32786590D01*
G37*
G36*
G01Y15822370D02*
G02Y15756930I18760J-32720D01*
G01X32703270D01*
Y15740430D01*
X32266830D01*
Y15838870D01*
X32703270D01*
Y15822370D01*
X32786590D01*
G37*
G36*
G01X32864060Y9606000D02*
X32350440D01*
Y9796540D01*
X32360600D01*
Y9826210D01*
G02X32407870Y9883810I19075J32542D01*
G03X32425620Y9890550I7592J6748D01*
G01Y9921460D01*
G02X32463760I19070J32540D01*
G01Y9890550D01*
G03X32481510Y9883810I10158J8D01*
G02X32537910Y9883800I28196J-25059D01*
G03X32555670Y9890540I7600J6743D01*
G01Y9921460D01*
G02X32593810I19070J32540D01*
G01Y9796540D01*
X32864060D01*
Y9606000D01*
G37*
G36*
G01X30472720Y18609410D02*
Y18109410D01*
X30634410Y17947720D01*
X30784410D01*
X31022720Y17709410D01*
Y17509410D01*
X31195760Y17336370D01*
X31804830D01*
Y17362870D01*
X32241270D01*
Y17264430D01*
X31804830D01*
Y17290930D01*
X31176940D01*
X30977280Y17490590D01*
Y17690590D01*
X30765590Y17902280D01*
X30615590D01*
X30427280Y18090590D01*
Y18590590D01*
X30277280Y18740590D01*
Y18867280D01*
X30232280D01*
Y19032720D01*
X30367720D01*
Y18867280D01*
X30322720D01*
Y18759410D01*
X30472720Y18609410D01*
G37*
G54D41*
X31500000Y14750000D03*
X33000010Y17049990D03*
X31550000Y14050000D03*
X31350000Y10950000D03*
X31250000Y11000000D03*
X31400000Y11150000D03*
X31300000Y11200000D03*
X30565370Y18578810D03*
X31150000Y11050000D03*
X31050000Y11100000D03*
X31128670Y10200990D03*
X30986020Y9491430D03*
X28878570Y5447990D03*
X26223400Y4464280D03*
X21416200Y169010D03*
X21059140Y1326580D03*
X16737290Y-63570D03*
X12855060Y2908950D03*
X12262560Y1291230D03*
X9698310Y5382620D03*
X8500460Y4117430D03*
X7587360Y8787540D03*
X7266990Y16767110D03*
X6750000Y12800000D03*
X5699210Y17058950D03*
X6010720Y8042820D03*
X5050000Y12500000D03*
X32900000Y15700000D03*
G54D43*
X32254050Y17467650D03*
Y14744650D03*
G54D46*
X30775000Y19814300D03*
G54D42*
X32516160Y18375520D03*
Y10755520D03*
X24896160Y341520D03*
X11688160D03*
X4068160Y10755520D03*
Y18375520D03*
G54D51*
X5588000Y19652000D03*
G54D50*
X5118000Y19352000D03*
G54D47*
X30875000Y19375000D03*
X30250000Y19575000D03*
X5251560Y18134960D03*
G54D44*
X32029400Y12193600D03*
Y12038000D03*
X32000000Y8900000D03*
X32200000Y7650000D03*
X3970000Y15637080D03*
X4478160D03*
X3906480Y14836640D03*
X4160560D03*
G54D48*
X30517610Y17474830D03*
X30604480Y17236150D03*
X30691350Y16997470D03*
X30778220Y16758780D03*
X30865100Y16520100D03*
X30951970Y16281420D03*
X31038840Y16042740D03*
X30474330Y16107760D03*
X30561200Y15869080D03*
X31209730Y14819440D03*
Y14565440D03*
X30701500Y14819620D03*
Y14565620D03*
X31209730Y14311440D03*
Y14057440D03*
Y13803440D03*
X30701500Y14311620D03*
Y14057620D03*
Y13803620D03*
X31209730Y13549440D03*
Y13295440D03*
Y13041440D03*
X30701500Y13549620D03*
Y13295620D03*
Y13041620D03*
X31209730Y12787440D03*
Y12533440D03*
Y12279440D03*
X30701500Y12787620D03*
Y12533620D03*
Y12279620D03*
X31209730Y12025440D03*
Y11771440D03*
Y11517440D03*
X30701500Y12025620D03*
Y11771620D03*
Y11517620D03*
X30951930Y10309460D03*
X30865050Y10070780D03*
X30778180Y9832100D03*
X30691310Y9593420D03*
X30604430Y9354740D03*
X30517560Y9116050D03*
X29909490Y19145600D03*
X29996370Y18906920D03*
X30083240Y18668240D03*
X30170110Y18429560D03*
X30256990Y18190880D03*
X30343860Y17952190D03*
X30430730Y17713510D03*
X29779350Y18017220D03*
X29866220Y17778530D03*
X29953090Y17539850D03*
X30039970Y17301170D03*
X30126840Y17062490D03*
X30213710Y16823810D03*
X30300580Y16585120D03*
X30387460Y16346440D03*
X30387530Y10244770D03*
X30300660Y10006090D03*
X30213790Y9767410D03*
X30126910Y9528730D03*
X30040040Y9290040D03*
X30430690Y8877370D03*
X30343810Y8638690D03*
X29953170Y9051360D03*
X29866290Y8812680D03*
X29779420Y8574000D03*
X30256940Y8400010D03*
X30170070Y8161330D03*
X30083200Y7922640D03*
X29996320Y7683960D03*
X29909450Y7445280D03*
X29822580Y7206600D03*
X29431850Y18971940D03*
X29518730Y18733260D03*
X29605600Y18494580D03*
X29692470Y18255900D03*
X29692550Y8335320D03*
X29605680Y8096630D03*
X29518800Y7857950D03*
X29431930Y7619270D03*
X29345060Y7380590D03*
X29167160Y6159660D03*
X29003890Y5965090D03*
X28777940Y6486470D03*
X28614670Y6291900D03*
X28451400Y6097320D03*
X28288130Y5902740D03*
X28840620Y5770510D03*
X28677350Y5575930D03*
X28514080Y5381360D03*
X28350820Y5186780D03*
X28124860Y5708170D03*
X27961600Y5513590D03*
X27798330Y5319020D03*
X27635060Y5124440D03*
X27471790Y4929870D03*
X28187550Y4992210D03*
X28024280Y4797630D03*
X27861010Y4603060D03*
X27697740Y4408480D03*
X27534480Y4213910D03*
X27308520Y4735290D03*
X27145260Y4540720D03*
X26981990Y4346140D03*
X26818720Y4151570D03*
X27371210Y4019330D03*
X26655450Y3956990D03*
X26070700Y2870530D03*
X25816740Y3310760D03*
X25596770Y3183760D03*
X25850730Y2743530D03*
X25630760Y2616530D03*
X25410790Y2489530D03*
X25190820Y2362530D03*
X25376800Y3056760D03*
X25156830Y2929760D03*
X24936860Y2802760D03*
X24716890Y2675760D03*
X24496920Y2548760D03*
X24970850Y2235530D03*
X24750880Y2108530D03*
X24530910Y1981530D03*
X24276950Y2421760D03*
X24310940Y1854530D03*
X24090970Y1727530D03*
X23871000Y1600530D03*
X24056980Y2294760D03*
X23837010Y2167760D03*
X23651030Y1473530D03*
X23617040Y2040760D03*
X23397070Y1913760D03*
X23177100Y1786760D03*
X22957130Y1659760D03*
X23431060Y1346530D03*
X23211090Y1219530D03*
X22036040Y838820D03*
X21785900Y794720D03*
X21947960Y1339360D03*
X21697820Y1295260D03*
X21447680Y1251150D03*
X21535760Y750610D03*
X21197540Y1207040D03*
X20947400Y1162940D03*
X20697260Y1118830D03*
X21285620Y706500D03*
X21035480Y662400D03*
X20785340Y618290D03*
X20447120Y1074720D03*
X20196970Y1030620D03*
X19946830Y986510D03*
X20535200Y574180D03*
X20285050Y530080D03*
X20034910Y485970D03*
X19696690Y942400D03*
X19446550Y898300D03*
X19196410Y854190D03*
X19784770Y441860D03*
X19534630Y397760D03*
X19284490Y353650D03*
X19034350Y309540D03*
X18946270Y810080D03*
X18784210Y265440D03*
X17549820Y309570D03*
X16887820Y942370D03*
X17299680Y353670D03*
X17049540Y397780D03*
X16799400Y441890D03*
X16637680Y986470D03*
X16387540Y1030580D03*
X16137400Y1074690D03*
X16549260Y485990D03*
X16299120Y530100D03*
X16048980Y574210D03*
X15887250Y1118790D03*
X15637110Y1162900D03*
X15386970Y1207010D03*
X15798830Y618310D03*
X15548690Y662420D03*
X15298550Y706530D03*
X14798270Y794740D03*
X14548130Y838850D03*
X15136830Y1251110D03*
X14886690Y1295220D03*
X14636550Y1339330D03*
X15048410Y750630D03*
X14297990Y882950D03*
X14386410Y1383430D03*
X13407400Y1786660D03*
X13187430Y1913660D03*
X12967460Y2040660D03*
X13153130Y1346610D03*
X12307550Y2421660D03*
X12713190Y1600610D03*
X12493220Y1727610D03*
X12273250Y1854610D03*
X12747490Y2167660D03*
X12527520Y2294660D03*
X12933160Y1473610D03*
X12087580Y2548660D03*
X11867610Y2675660D03*
X11647640Y2802660D03*
X12053280Y1981610D03*
X11833310Y2108610D03*
X11613340Y2235610D03*
X10987730Y3183660D03*
X10767760Y3310660D03*
X11393370Y2362610D03*
X11173400Y2489610D03*
X10953430Y2616610D03*
X10733460Y2743610D03*
X11427670Y2929660D03*
X11207700Y3056660D03*
X10547790Y3437660D03*
X10513490Y2870610D03*
X9275920Y4735150D03*
X9213020Y4019440D03*
X9765730Y4151420D03*
X9602460Y4345990D03*
X9439190Y4540570D03*
X9376290Y3824870D03*
X8622850Y5513450D03*
X8459580Y5708020D03*
X8559950Y4797750D03*
X8396680Y4992320D03*
X9112650Y4929720D03*
X8949390Y5124300D03*
X8786120Y5318870D03*
X9049750Y4214020D03*
X8886480Y4408600D03*
X8723210Y4603170D03*
X7969780Y6291750D03*
X7806510Y6486320D03*
X7643240Y6680900D03*
X7906870Y5576050D03*
X7743610Y5770620D03*
X8296310Y5902600D03*
X8133050Y6097170D03*
X8233410Y5186900D03*
X8070140Y5381470D03*
X7239270Y19210450D03*
X6978650Y18494410D03*
X7065530Y18733090D03*
X7152400Y18971770D03*
X6891780Y18255720D03*
X7065590Y7857780D03*
X6978720Y8096460D03*
X6891850Y8335140D03*
X7152470Y7619100D03*
X7417070Y6159770D03*
X7253800Y6354350D03*
X7580340Y5965200D03*
X6674880Y19145760D03*
X6761750Y19384440D03*
X6414260Y18429710D03*
X6501130Y18668400D03*
X6588010Y18907080D03*
X6153640Y17713670D03*
X6240520Y17952350D03*
X6327390Y18191030D03*
X6718040Y17778360D03*
X6804910Y18017040D03*
X6370540Y16823630D03*
X6457420Y17062310D03*
X6544290Y17301000D03*
X6631160Y17539680D03*
X6109920Y16107590D03*
X6196800Y16346270D03*
X6283670Y16584950D03*
X6283740Y10005920D03*
X6196860Y10244600D03*
X6109990Y10483280D03*
X6544350Y9289870D03*
X6457480Y9528550D03*
X6370610Y9767230D03*
X6240460Y8638850D03*
X6153590Y8877530D03*
X6804970Y8573820D03*
X6718100Y8812510D03*
X6631230Y9051190D03*
X6587950Y7684120D03*
X6501080Y7922800D03*
X6414210Y8161480D03*
X6327330Y8400160D03*
X6674830Y7445440D03*
X5893020Y16997620D03*
X5979900Y17236300D03*
X6066770Y17474990D03*
X5632400Y16281580D03*
X5719280Y16520260D03*
X5374590Y14565600D03*
Y14819600D03*
Y15073600D03*
X5882820Y14565420D03*
Y14819420D03*
Y15073420D03*
X5374590Y13803600D03*
Y14057600D03*
Y14311600D03*
X5882820Y13803420D03*
Y14057420D03*
Y14311420D03*
X5374590Y13041600D03*
Y13295600D03*
Y13549600D03*
X5882820Y13041420D03*
Y13295420D03*
Y13549420D03*
X5374590Y12279600D03*
Y12533600D03*
Y12787600D03*
X5882820Y12279420D03*
Y12533420D03*
Y12787420D03*
X5374590Y11771600D03*
Y12025600D03*
X5882820Y11771420D03*
Y12025420D03*
X5719220Y10070940D03*
X5632350Y10309620D03*
X5545480Y10548300D03*
X5979840Y9354890D03*
X5892970Y9593570D03*
X5806100Y9832260D03*
X6066710Y9116210D03*
G54D45*
X31496000Y18929350D03*
Y18310600D03*
X4699000Y19005550D03*
X3604760Y15190910D03*
G54D49*
X31209730Y15073440D03*
X30701500Y15073620D03*
X5374590Y11517600D03*
X5882820Y11517420D03*
X5122940Y18579600D03*
X4208200Y15508460D03*
X3604760Y14508020D03*
Y14838220D03*
%LPD*%
G75*
G36*
G01X4100000Y15950000D02*
X3450000D01*
Y16400000D01*
X3633980D01*
Y16149980D01*
X3766100D01*
Y16400000D01*
X3804160D01*
Y16149980D01*
X3936280D01*
Y16400000D01*
X3950000D01*
Y16150000D01*
X3974340D01*
Y16149980D01*
X4100000D01*
Y15950000D01*
G37*
G36*
G01X5545460Y10781510D02*
X5542270Y10784700D01*
Y12245870D01*
G02X5550420Y12249920I5081J1D01*
G03X5554130Y12247440I22779J30062D01*
G01Y10785100D01*
G02X5545460Y10781510I-5080J3D01*
G37*
G36*
G01X7004690Y7043300D02*
G02X6934900Y7203710I1271781J648704D01*
G01X6045710Y9646740D01*
X5960590Y9895980D01*
G02X5979770Y9902690I9616J3281D01*
G01X6946020Y7207820D01*
G03X7013790Y7047830I1583275J576309D01*
G02X7004690Y7043300I-4571J-2223D01*
G37*
G36*
G01X6590380Y10152040D02*
X6584000Y10149720D01*
X6582370Y10150220D01*
G03X6580590Y10150720I-11087J-36052D01*
G01X6577990Y10151390D01*
X6396110Y10651110D01*
G02X6404470Y10656440I4773J1736D01*
G01X6408130Y10652780D01*
X6590380Y10152040D01*
G37*
G36*
G01X6722500Y9935220D02*
X6716120Y9932900D01*
X6714490Y9933400D01*
G03X6712720Y9933900I-11135J-36037D01*
G01X6710120Y9934570D01*
X6443110Y10668190D01*
G02X6451470Y10673520I4773J1735D01*
G01X6455110Y10669880D01*
X6722500Y9935220D01*
G37*
G36*
G01X7955590Y6667900D02*
G03X7951320Y6667070I5050J-37380D01*
G02X7447090Y7471190I1624900J1579058D01*
G01X6420650Y10291310D01*
X6427020Y10293630D01*
X6428650Y10293130D01*
G03X6430430Y10292630I11087J36052D01*
G01X6433030Y10291960D01*
X7457050Y7478510D01*
G03X7958560Y6676460I2134655J776950D01*
G02X7955590Y6667900I-3651J-3529D01*
G37*
G36*
G01X6422260Y10884840D02*
X6419070Y10888030D01*
Y13015890D01*
G02X6427220Y13019940I5081J1D01*
G03X6430930Y13017460I22779J30062D01*
G01Y10888430D01*
G02X6422260Y10884840I-5080J3D01*
G37*
G36*
G01X6372260Y10870760D02*
X6369070Y10873950D01*
Y13265890D01*
G02X6377220Y13269940I5081J1D01*
G03X6380930Y13267460I22779J30062D01*
G01Y10874350D01*
G02X6372260Y10870760I-5080J3D01*
G37*
G36*
G01X6322260Y10856670D02*
X6319070Y10859860D01*
Y13515890D01*
G02X6327220Y13519940I5081J1D01*
G03X6330930Y13517460I22779J30062D01*
G01Y10860260D01*
G02X6322260Y10856670I-5080J3D01*
G37*
G36*
G01X6272260Y10842590D02*
X6269070Y10845780D01*
Y13765890D01*
G02X6277220Y13769940I5081J1D01*
G03X6280930Y13767460I22779J30062D01*
G01Y10846180D01*
G02X6272260Y10842590I-5080J3D01*
G37*
G36*
G01X6222260Y10828490D02*
X6219070Y10831680D01*
Y14015890D01*
G02X6227220Y14019940I5081J1D01*
G03X6230930Y14017460I22779J30062D01*
G01Y10832080D01*
G02X6222260Y10828490I-5080J3D01*
G37*
G36*
G01X6172260Y10814410D02*
X6169070Y10817600D01*
Y14265890D01*
G02X6177220Y14269940I5081J1D01*
G03X6180930Y14267460I22779J30062D01*
G01Y10818000D01*
G02X6172260Y10814410I-5080J3D01*
G37*
G36*
G01X6130930Y14517460D02*
Y10803910D01*
G02X6122260Y10800320I-5080J3D01*
G01X6119070Y10803510D01*
Y14515890D01*
G02X6127220Y14519940I5081J1D01*
G03X6130930Y14517460I22779J30062D01*
G37*
G36*
G01X7118170Y17477530D02*
X6603920Y16064620D01*
G03X6380930Y14800000I3474509J-1264629D01*
G01Y13584110D01*
G02X6372780Y13580060I-5081J-1D01*
G03X6369070Y13582540I-22779J-30062D01*
G01Y14799990D01*
G02X6592780Y16068700I3709429J-1D01*
G01X7108270Y17484990D01*
X7114640Y17482660D01*
X7115570Y17481230D01*
G03X7116610Y17479710I31640J20533D01*
G01X7118170Y17477530D01*
G37*
G36*
G01X7077070Y17218420D02*
X6650910Y16047540D01*
G03X6430930Y14799990I3427588J-1247555D01*
G01Y13334110D01*
G02X6422780Y13330060I-5081J-1D01*
G03X6419070Y13332540I-22779J-30062D01*
G01Y14800000D01*
G02X6639760Y16051580I3659360J-5D01*
G01X7067170Y17225880D01*
X7073540Y17223560D01*
X7074470Y17222120D01*
G03X7075510Y17220600I31640J20533D01*
G01X7077070Y17218420D01*
G37*
G36*
G01X7191760Y18118300D02*
X6462970Y16115980D01*
G03X6230930Y14800010I3615621J-1315971D01*
G01Y14334110D01*
G02X6222780Y14330060I-5081J-1D01*
G03X6219070Y14332540I-22779J-30062D01*
G01Y14799990D01*
G02X6451830Y16120020I3859439J4D01*
G01X7181860Y18125750D01*
X7188240Y18123430D01*
X7189160Y18122000D01*
G03X7190200Y18120480I31640J20533D01*
G01X7191760Y18118300D01*
G37*
G36*
G01X7176960Y17931450D02*
X6509950Y16098850D01*
G03X6280930Y14800010I3568561J-1298843D01*
G01Y14084110D01*
G02X6272780Y14080060I-5081J-1D01*
G03X6269070Y14082540I-22779J-30062D01*
G01Y14800010D01*
G02X6498810Y16102940I3809521J3D01*
G01X7167060Y17938910D01*
X7173430Y17936590D01*
X7174360Y17935150D01*
G03X7175400Y17933630I31640J20533D01*
G01X7176960Y17931450D01*
G37*
G36*
G01X7148010Y17705700D02*
X6556940Y16081740D01*
G03X6330930Y14799990I3521558J-1281755D01*
G01Y13834110D01*
G02X6322780Y13830060I-5081J-1D01*
G03X6319070Y13832540I-22779J-30062D01*
G01Y14800010D01*
G02X6545790Y16085810I3759441J1D01*
G01X7138100Y17713170D01*
X7144480Y17710840D01*
X7145410Y17709410D01*
G03X7146450Y17707880I31704J20432D01*
G01X7148010Y17705700D01*
G37*
G36*
G01X7268800Y18622350D02*
X6369010Y16150180D01*
G03X6131810Y14883560I3709574J-1350212D01*
G02X6123600Y14879670I-5077J107D01*
G03X6119920Y14882220I-23285J-29674D01*
G02X6357850Y16154200I3958558J-82224D01*
G01X7258900Y18629800D01*
X7265280Y18627480D01*
X7266200Y18626050D01*
G03X7267240Y18624530I31640J20533D01*
G01X7268800Y18622350D01*
G37*
G36*
G01X7234250Y18381220D02*
X6415990Y16133060D01*
G03X6180930Y14799990I3662519J-1333070D01*
G01Y14584110D01*
G02X6172780Y14580060I-5081J-1D01*
G03X6169070Y14582540I-22779J-30062D01*
G01Y14799990D01*
G02X6404850Y16137140I3909518J-4D01*
G01X7224340Y18388680D01*
X7230720Y18386360D01*
X7231650Y18384930D01*
G03X7232690Y18383400I31704J20432D01*
G01X7234250Y18381220D01*
G37*
G36*
G01X8023120Y6681900D02*
X8145390Y6536170D01*
X8140190Y6531810D01*
X8138490Y6531720D01*
G03X8136650Y6531590I1738J-37680D01*
G01X8133980Y6531320D01*
X8013500Y6674910D01*
G03X8012370Y6676130I-14541J-12335D01*
G02X7492890Y7491550I1579335J1579330D01*
G01X6552100Y10076320D01*
X6558480Y10078640D01*
X6560110Y10078140D01*
G03X6561890Y10077640I11087J36052D01*
G01X6564490Y10076970D01*
X7502830Y7498920D01*
G03X8022960Y6682050I2104444J765946D01*
G01X8023120Y6681900D01*
G37*
G36*
G01X8341830Y6361400D02*
X8051800Y6707050D01*
G03X8050670Y6708270I-14541J-12335D01*
G02X7538670Y7511960I1556608J1556588D01*
G01X6684230Y9859500D01*
X6690610Y9861820D01*
X6692240Y9861320D01*
G03X6694020Y9860820I11087J36052D01*
G01X6696620Y9860150D01*
X7548580Y7519370D01*
G03X8061260Y6714190I2074331J754974D01*
G01X8061420Y6714040D01*
X8353240Y6366250D01*
X8348040Y6361890D01*
X8346340Y6361800D01*
G03X8344500Y6361670I1738J-37680D01*
G01X8341830Y6361400D01*
G37*
G36*
G01X7126640Y9263430D02*
X7120260Y9261110D01*
X7118630Y9261610D01*
G03X7116860Y9262110I-11135J-36037D01*
G01X7114260Y9262780D01*
X6584050Y10719500D01*
G02X6592420Y10724830I4772J1742D01*
G01X6596070Y10721180D01*
X7126640Y9263430D01*
G37*
G36*
G01X8532650Y6211780D02*
X8090100Y6739190D01*
G03X8088970Y6740410I-14541J-12335D01*
G02X7584420Y7532410I1533945J1533926D01*
G01X6815130Y9646060D01*
X6821510Y9648380D01*
X6823140Y9647880D01*
G03X6824910Y9647380I11135J36037D01*
G01X6827510Y9646710D01*
X7594390Y7539730D01*
G03X8099570Y6746330I2044039J743966D01*
G01X8099730Y6746180D01*
X8544070Y6216630D01*
X8538870Y6212270D01*
X8537160Y6212180D01*
G03X8535320Y6212050I1738J-37680D01*
G01X8532650Y6211780D01*
G37*
G36*
G01X8138030Y6778320D02*
X8742850Y6057510D01*
X8737650Y6053150D01*
X8735950Y6053060D01*
G03X8734110Y6052930I1738J-37680D01*
G01X8731440Y6052660D01*
X8128410Y6771330D01*
G03X8127280Y6772550I-14541J-12335D01*
G02X7630230Y7552770I1511153J1511138D01*
G01X6953540Y9411960D01*
X6959920Y9414280D01*
X6961550Y9413780D01*
G03X6963330Y9413280I11087J36052D01*
G01X6965930Y9412610D01*
X7640150Y7560170D01*
G03X8137870Y6778470I2013899J732977D01*
G01X8138030Y6778320D01*
G37*
G36*
G01X8924530Y5900330D02*
X8166710Y6803470D01*
G03X8165580Y6804690I-14541J-12335D01*
G02X7675990Y7573210I1488473J1488448D01*
G01X7088370Y9187710D01*
X7094750Y9190030D01*
X7096380Y9189530D01*
G03X7098160Y9189030I11087J36052D01*
G01X7100760Y9188360D01*
X7685970Y7580500D01*
G03X8176170Y6810610I1983516J721929D01*
G01X8176330Y6810460D01*
X8935940Y5905180D01*
X8930740Y5900820D01*
X8929040Y5900730D01*
G03X8927200Y5900600I1738J-37680D01*
G01X8924530Y5900330D01*
G37*
G36*
G01X6853400Y9721780D02*
X6847020Y9719460D01*
X6845390Y9719960D01*
G03X6843610Y9720460I-11087J-36052D01*
G01X6841010Y9721130D01*
X6490080Y10685300D01*
G02X6498450Y10690630I4772J1743D01*
G01X6502100Y10686980D01*
X6853400Y9721780D01*
G37*
G36*
G01X6991820Y9487680D02*
X6985440Y9485360D01*
X6983810Y9485860D01*
G03X6982030Y9486360I-11087J-36052D01*
G01X6979430Y9487030D01*
X6537080Y10702390D01*
G02X6545440Y10707720I4773J1735D01*
G01X6549080Y10704080D01*
X6991820Y9487680D01*
G37*
G36*
G01X13852450Y1205220D02*
X13506350Y1333830D01*
X11255800Y2633180D01*
X10161490Y3219170D01*
X9720270Y3660390D01*
X8049810Y5651170D01*
X7902760Y5841610D01*
G02X7910780Y5847850I4021J3106D01*
G01X8058440Y5659340D01*
X9730430Y3666730D01*
X10162630Y3234530D01*
X11262240Y2643150D01*
X13515030Y1342510D01*
X13856000Y1214740D01*
G02X13852450Y1205220I-1775J-4760D01*
G37*
G36*
G01X9134350Y5728060D02*
X8205010Y6835610D01*
G03X8203880Y6836830I-14541J-12335D01*
G02X7721810Y7593540I1465610J1465591D01*
G01X7223580Y8962420D01*
X7229960Y8964740D01*
X7231590Y8964240D01*
G03X7233360Y8963740I11135J36037D01*
G01X7235960Y8963070D01*
X7731740Y7600910D01*
G03X8214470Y6842740I1953345J710940D01*
G01X8214630Y6842590D01*
X9145750Y5732910D01*
X9140550Y5728550D01*
X9138850Y5728460D01*
G03X9137020Y5728330I1757J-37679D01*
G01X9134350Y5728060D01*
G37*
G36*
G01X9302410Y5219290D02*
X9288470Y5233240D01*
X8533990Y6132390D01*
X8539190Y6136750D01*
X8540900Y6136840D01*
G03X8542740Y6136970I-1738J37680D01*
G01X8545410Y6137240D01*
X9309900Y5226150D01*
G02X9302410Y5219290I-3896J-3265D01*
G37*
G36*
G01X9248210Y5206110D02*
X9234260Y5220060D01*
X8343180Y6282010D01*
X8348380Y6286370D01*
X8350080Y6286460D01*
G03X8351920Y6286590I-1738J37680D01*
G01X8354590Y6286860D01*
X9255690Y5212970D01*
G02X9248210Y5206110I-3891J-3265D01*
G37*
G36*
G01X9206120Y5194260D02*
X10854590Y3545790D01*
X10849850Y3541050D01*
X10848260Y3540780D01*
G03X10846670Y3540480I6197J-37208D01*
G01X10843970Y3539900D01*
X9195950Y5187920D01*
X8135330Y6451930D01*
X8140530Y6456290D01*
X8142230Y6456380D01*
G03X8144070Y6456510I-1738J37680D01*
G01X8146740Y6456780D01*
X9206120Y5194260D01*
G37*
G36*
G01X10261120Y3262890D02*
X10255990Y3265560D01*
X9796880Y3724670D01*
X9265290Y4358190D01*
X9270490Y4362550D01*
X9272200Y4362640D01*
G03X9274030Y4362770I-1757J37679D01*
G01X9276700Y4363040D01*
X9807040Y3731010D01*
X10267060Y3270990D01*
G02X10261120Y3262890I-3591J-3595D01*
G37*
G36*
G01X9450800Y5275810D02*
X9436860Y5289760D01*
X9135700Y5648670D01*
X9140900Y5653030D01*
X9142600Y5653120D01*
G03X9144440Y5653250I-1738J37680D01*
G01X9147110Y5653520D01*
X9458290Y5282670D01*
G02X9450800Y5275810I-3896J-3265D01*
G37*
G36*
G01X9351860Y5238140D02*
X9337930Y5252080D01*
X8732780Y5973270D01*
X8737980Y5977630D01*
X8739690Y5977720D01*
G03X8741530Y5977850I-1738J37680D01*
G01X8744200Y5978120D01*
X9359350Y5245000D01*
G02X9351860Y5238140I-3896J-3265D01*
G37*
G36*
G01X11816980Y3200890D02*
X10966260Y3692050D01*
X9387380Y5270930D01*
X8925880Y5820940D01*
X8931070Y5825300D01*
X8932780Y5825390D01*
G03X8934620Y5825520I-1738J37680D01*
G01X8937290Y5825790D01*
X9408720Y5263960D01*
X10967840Y3704840D01*
X11826050Y3209350D01*
X11822650Y3203480D01*
X11821080Y3202810D01*
G03X11819390Y3202050I14620J-34770D01*
G01X11816980Y3200890D01*
G37*
G36*
G01X9435930Y5387100D02*
X11050370Y3772660D01*
X12323270Y3037750D01*
X12319870Y3031870D01*
X12318300Y3031210D01*
G03X12316620Y3030450I14702J-34737D01*
G01X12314210Y3029290D01*
X11016260Y3778660D01*
X9486320Y5308600D01*
X9331140Y5493540D01*
X9336340Y5497900D01*
X9338040Y5497990D01*
G03X9339870Y5498120I-1757J37679D01*
G01X9342540Y5498390D01*
X9435930Y5387100D01*
G37*
G36*
G01X13877730Y1298930D02*
X13556400Y1420400D01*
X11305710Y2719840D01*
X11155030Y2798170D01*
G02X11159670Y2807210I2340J4510D01*
G01X11312450Y2729650D01*
X13564990Y1429130D01*
X13881330Y1308420D01*
G02X13877730Y1298930I-1809J-4742D01*
G37*
G36*
G01X13865760Y1251820D02*
X13531370Y1377110D01*
X11280820Y2676470D01*
X11176380Y2732630D01*
G02X11181130Y2741610I2417J4468D01*
G01X11287370Y2686380D01*
X13540020Y1385820D01*
X13869340Y1261320D01*
G02X13865760Y1251820I-1799J-4747D01*
G37*
G36*
G01X11330890Y3366060D02*
X10916260Y3605450D01*
X10911140Y3610570D01*
G02X10917280Y3618560I3593J3593D01*
G01X11339960Y3374520D01*
X11336560Y3368650D01*
X11334990Y3367980D01*
G03X11333300Y3367220I14620J-34770D01*
G01X11330890Y3366060D01*
G37*
G36*
G01X11574500Y3283150D02*
X10941260Y3648750D01*
X10936140Y3653860D01*
G02X10942280Y3661860I3596J3597D01*
G01X11583560Y3291610D01*
X11580170Y3285730D01*
X11578600Y3285070D01*
G03X11576910Y3284310I14620J-34770D01*
G01X11574500Y3283150D01*
G37*
G36*
G01X12060350Y3118120D02*
X10991260Y3735360D01*
X10986140Y3740480D01*
G02X10992280Y3748470I3593J3593D01*
G01X12069410Y3126580D01*
X12066020Y3120700D01*
X12064450Y3120040D01*
G03X12062760Y3119280I14620J-34770D01*
G01X12060350Y3118120D01*
G37*
G36*
G01X14910810Y1612590D02*
X14680080Y1653270D01*
G03X14676770Y1653560I-3313J-18780D01*
G01X14676760D01*
G02X13781570Y1893430I11J1790390D01*
G01X11359320Y3291920D01*
X11362710Y3297800D01*
X11364280Y3298460D01*
G03X11365960Y3299220I-14702J34737D01*
G01X11368370Y3300380D01*
X13782440Y1906620D01*
G03X14683340Y1664660I903011J1564060D01*
G01X14683780D01*
X14916440Y1623640D01*
X14915260Y1616950D01*
X14914010Y1615790D01*
G03X14912690Y1614510I25590J-27710D01*
G01X14910810Y1612590D01*
G37*
G36*
G01X11122220Y3384770D02*
X13762510Y1860390D01*
G03X14633900Y1615920I914259J1583559D01*
G02X14637860Y1607810I-114J-5078D01*
G03X14635720Y1604610I30243J-22541D01*
G02X13761650Y1847210I32391J1812607D01*
G01X11113150Y3376310D01*
X11116550Y3382180D01*
X11118120Y3382850D01*
G03X11119810Y3383610I-14620J34770D01*
G01X11122220Y3384770D01*
G37*
G36*
G01X14709830Y1812380D02*
X15678460Y1641590D01*
X15677280Y1634910D01*
X15676030Y1633740D01*
G03X15674710Y1632460I25590J-27710D01*
G01X15672830Y1630540D01*
X14706130Y1800990D01*
G03X14702820Y1801280I-3313J-18780D01*
G02X13841370Y2032110I9J1722899D01*
G01X12088760Y3043980D01*
X12092160Y3049850D01*
X12093730Y3050520D01*
G03X12095420Y3051280I-14620J34770D01*
G01X12097830Y3052440D01*
X13842280Y2045280D01*
G03X14709390Y1812380I869216J1505560D01*
G01X14709830D01*
G37*
G36*
G01X15437980Y1621170D02*
X14697450Y1751750D01*
G03X14694140Y1752040I-3313J-18780D01*
G02X13821440Y1985890I20J1745407D01*
G01X11845400Y3126750D01*
X11848790Y3132630D01*
X11850360Y3133290D01*
G03X11852050Y3134050I-14620J34770D01*
G01X11854460Y3135210D01*
X13822300Y1999070D01*
G03X14700710Y1763140I880515J1525111D01*
G01X14701150D01*
X15443620Y1632230D01*
X15442440Y1625540D01*
X15441190Y1624380D01*
G03X15439860Y1623090I25588J-27712D01*
G01X15437980Y1621170D01*
G37*
G36*
G01X15164810Y1618570D02*
X14688760Y1702510D01*
G03X14685450Y1702800I-3313J-18780D01*
G02X13801520Y1939660I24J1767876D01*
G01X11602920Y3209010D01*
X11606310Y3214890D01*
X11607880Y3215550D01*
G03X11609570Y3216310I-14620J34770D01*
G01X11611980Y3217470D01*
X13802360Y1952850D01*
G03X14692030Y1713900I891777J1544601D01*
G01X14692470D01*
X15170440Y1629620D01*
X15169260Y1622940D01*
X15168010Y1621770D01*
G03X15166690Y1620490I25590J-27710D01*
G01X15164810Y1618570D01*
G37*
G36*
G01X13890360Y1345800D02*
X13581430Y1463690D01*
X12896540Y1859110D01*
X12899940Y1864980D01*
X12901510Y1865650D01*
G03X12903200Y1866410I-14620J34770D01*
G01X12905610Y1867570D01*
X13589960Y1472450D01*
X13894000Y1355290D01*
G02X13890360Y1345800I-1820J-4745D01*
G37*
G36*
G01X15924750Y1636890D02*
X14714810Y1850230D01*
G03X14711500Y1850520I-3313J-18780D01*
G01X14711490D01*
G02X13861340Y2078320I11J1700320D01*
G01X12342630Y2955150D01*
X12346020Y2961030D01*
X12347590Y2961690D01*
G03X12349280Y2962450I-14620J34770D01*
G01X12351690Y2963610D01*
X13862200Y2091510D01*
G03X14718070Y1861620I857971J1486061D01*
G01X14718510D01*
X15930370Y1647940D01*
X15929190Y1641250D01*
X15927940Y1640090D01*
G03X15926630Y1638810I25699J-27612D01*
G01X15924750Y1636890D01*
G37*
G36*
G01X16203570Y1638490D02*
X14723490Y1899470D01*
G03X14720180Y1899760I-3313J-18780D01*
G02X13881280Y2124550I15J1677807D01*
G01X12567900Y2882820D01*
X12571300Y2888700D01*
X12572870Y2889360D01*
G03X12574550Y2890120I-14702J34737D01*
G01X12576960Y2891280D01*
X13882120Y2137740D01*
G03X14726760Y1910860I846737J1466602D01*
G01X14727200D01*
X16209200Y1649540D01*
X16208020Y1642860D01*
X16206770Y1641700D01*
G03X16205450Y1640410I25696J-27614D01*
G01X16203570Y1638490D01*
G37*
G36*
G01X17908690Y564910D02*
X15349660Y1016140D01*
X14354900Y1168540D01*
X14349400Y1170640D01*
G02X14351980Y1180410I1809J4748D01*
G01X15352150Y1027740D01*
X17914140Y575990D01*
X18701540Y580940D01*
X19764970Y747290D01*
X22327350Y1199110D01*
X22560330Y1285380D01*
G02X22563880Y1275860I1775J-4760D01*
G01X22325980Y1186830D01*
X19767400Y735670D01*
X18698470Y569060D01*
X17908690Y564910D01*
G37*
G36*
G01X17900010Y515670D02*
X15340990Y966900D01*
X14354870Y1118540D01*
X14349310Y1120650D01*
G02X14351880Y1130420I1802J4749D01*
G01X15343460Y978500D01*
X17905450Y526750D01*
X18701530Y530940D01*
X19773640Y698050D01*
X22336060Y1149870D01*
X22554930Y1231790D01*
G02X22558510Y1222280I1790J-4755D01*
G01X22334640Y1137580D01*
X19776080Y686430D01*
X18698490Y519060D01*
X17900010Y515670D01*
G37*
G36*
G01X17891340Y466430D02*
X15332300Y917650D01*
X14354850Y1068550D01*
X14349230Y1070650D01*
G02X14351780Y1080430I1778J4759D01*
G01X15334770Y929260D01*
X17896750Y477510D01*
X18701510Y480940D01*
X19782320Y648810D01*
X22344780Y1100640D01*
X22550060Y1178300D01*
G02X22553670Y1168810I1796J-4748D01*
G01X22343280Y1088320D01*
X19784770Y637190D01*
X18698500Y469070D01*
X17891340Y466430D01*
G37*
G36*
G01X17882660Y417180D02*
X15323630Y868400D01*
X14354830Y1018550D01*
X14349150Y1020660D01*
G02X14351690Y1030440I1772J4760D01*
G01X15326080Y880010D01*
X17888060Y428270D01*
X18701500Y430930D01*
X19790990Y599550D01*
X22353500Y1051400D01*
X22542810Y1123820D01*
G02X22546460Y1114330I1825J-4745D01*
G01X22351930Y1039080D01*
X19793460Y587960D01*
X18698520Y419070D01*
X17882660Y417180D01*
G37*
G36*
G01X16521370Y1277830D02*
X14962880Y1552640D01*
X14964050Y1559320D01*
X14965310Y1560480D01*
G03X14966630Y1561770I-25696J27614D01*
G01X14968510Y1563690D01*
X16532500Y1287910D01*
G02X16531620Y1277830I-885J-5001D01*
G01X16521370D01*
G37*
G36*
G01X15222510Y1569670D02*
X16554920Y1334730D01*
X18538290D01*
X18784730Y1088300D01*
X19117830Y1147030D01*
X19119010Y1140350D01*
X19118230Y1138830D01*
G03X19117430Y1137160I33605J-17125D01*
G01X19116320Y1134720D01*
X18755800Y1071150D01*
X18503330Y1323630D01*
X16549580D01*
X15216880Y1558620D01*
X15218060Y1565310D01*
X15219310Y1566470D01*
G03X15220630Y1567750I-25590J27710D01*
G01X15222510Y1569670D01*
G37*
G36*
G01X15730530Y1581640D02*
X16572280Y1433210D01*
X18626520D01*
X18857130Y1202610D01*
X19597480Y1333150D01*
X19598660Y1326470D01*
X19597880Y1324950D01*
G03X19597080Y1323280I33605J-17125D01*
G01X19595970Y1320840D01*
X18839500Y1187450D01*
X18604850Y1422110D01*
X16566940D01*
X15724890Y1570580D01*
X15726070Y1577270D01*
X15727320Y1578430D01*
G03X15728650Y1579720I-25588J27712D01*
G01X15730530Y1581640D01*
G37*
G36*
G01X15495680Y1572270D02*
X16563600Y1383970D01*
X18589050D01*
X18826580Y1146450D01*
X19337630Y1236560D01*
X19338810Y1229870D01*
X19338030Y1228360D01*
G03X19337230Y1226690I33605J-17125D01*
G01X19336120Y1224250D01*
X18797650Y1129300D01*
X18554090Y1372870D01*
X16558260D01*
X15490050Y1561220D01*
X15491230Y1567910D01*
X15492480Y1569070D01*
G03X15493800Y1570350I-25590J27710D01*
G01X15495680Y1572270D01*
G37*
G36*
G01X16515520Y1595530D02*
X16598330Y1580930D01*
X18792100D01*
X18993990Y1379050D01*
X20308600Y1610850D01*
X20309780Y1604170D01*
X20309000Y1602650D01*
G03X20308200Y1600980I33605J-17125D01*
G01X20307090Y1598540D01*
X18965060Y1361900D01*
X18757140Y1569830D01*
X16592990D01*
X16509890Y1584480D01*
X16511070Y1591170D01*
X16512320Y1592330D01*
G03X16513640Y1593610I-25590J27710D01*
G01X16515520Y1595530D01*
G37*
G36*
G01X16261270Y1589590D02*
X16589650Y1531690D01*
X18741340D01*
X18952140Y1320900D01*
X20064600Y1517050D01*
X20065780Y1510370D01*
X20065000Y1508850D01*
G03X20064200Y1507180I33605J-17125D01*
G01X20063090Y1504740D01*
X18923210Y1303750D01*
X18706380Y1520590D01*
X16584310D01*
X16255650Y1578540D01*
X16256820Y1585230D01*
X16258080Y1586390D01*
G03X16259390Y1587670I-25699J27612D01*
G01X16261270Y1589590D01*
G37*
G36*
G01X15982450Y1587990D02*
X16580970Y1482450D01*
X18690580D01*
X18910290Y1262750D01*
X19824640Y1423970D01*
X19825820Y1417280D01*
X19825040Y1415770D01*
G03X19824250Y1414110I33654J-17034D01*
G01X19823140Y1411670D01*
X18870050Y1243610D01*
X18642320Y1471350D01*
X16575620D01*
X15976820Y1576940D01*
X15978000Y1583620D01*
X15979250Y1584780D01*
G03X15980570Y1586070I-25696J27614D01*
G01X15982450Y1587990D01*
G37*
G36*
G01X17917360Y614150D02*
X17140220Y751180D01*
X17141400Y757870D01*
X17142650Y759030D01*
G03X17143970Y760310I-25590J27710D01*
G01X17145850Y762230D01*
X17922830Y625230D01*
X18701560Y630940D01*
X19756280Y796530D01*
X22318640Y1248330D01*
X22564880Y1338570D01*
G02X22568400Y1329040I1751J-4768D01*
G01X22317330Y1236070D01*
X19758710Y784910D01*
X18698460Y619060D01*
X17917360Y614150D01*
G37*
G36*
G01X18713960Y1013000D02*
X18458810Y1268150D01*
G02X18466000Y1285490I7187J7181D01*
G01X18487530D01*
X18742880Y1030150D01*
X18865980Y1051850D01*
X18867160Y1045170D01*
X18866380Y1043650D01*
G03X18865580Y1041980I33605J-17125D01*
G01X18864470Y1039540D01*
X18713960Y1013000D01*
G37*
G36*
G01X23091250Y2068230D02*
X23212380Y2138160D01*
X23215780Y2132280D01*
X23215560Y2130590D01*
G03X23215380Y2128750I37440J-4591D01*
G01X23215180Y2126080D01*
X23095020Y2056710D01*
G03X23091070Y2053670I9555J-16501D01*
G02X22457490Y1723860I-839800J839821D01*
G01X19405550Y1185720D01*
X19404370Y1192400D01*
X19405150Y1193920D01*
G03X19405950Y1195590I-33605J17125D01*
G01X19407060Y1198030D01*
X22448020Y1734230D01*
G03X23090780Y2067760I-209964J1190740D01*
G01X23091250Y2068230D01*
G37*
G36*
G01X19187260Y1108500D02*
X22464110Y1686300D01*
G03X23083840Y1993810I-212849J1207188D01*
G02X23092310Y1990890I3454J-3724D01*
G03X23092930Y1987850I37238J6011D01*
G02X22473600Y1675930I-828457J874124D01*
G01X19185750Y1096190D01*
X19184570Y1102870D01*
X19185350Y1104390D01*
G03X19186150Y1106060I-33605J17125D01*
G01X19187260Y1108500D01*
G37*
G36*
G01X23822680Y2650040D02*
X23020010Y2186620D01*
G03X23016070Y2183580I9580J-16489D01*
G02X22409160Y1867650I-804455J804470D01*
G01X20132530Y1466220D01*
X20131350Y1472910D01*
X20132130Y1474420D01*
G03X20132920Y1476080I-33654J17034D01*
G01X20134030Y1478520D01*
X22399670Y1878020D01*
G03X23015780Y2197670I-201278J1141540D01*
G01X23016250Y2198140D01*
X23819880Y2662110D01*
X23823270Y2656230D01*
X23823060Y2654540D01*
G03X23822880Y2652710I37438J-4606D01*
G01X23822680Y2650040D01*
G37*
G36*
G01X23610410Y2469730D02*
X23045020Y2143310D01*
G03X23041070Y2140270I9555J-16501D01*
G02X22425300Y1819720I-816215J816217D01*
G01X19892570Y1373140D01*
X19891390Y1379820D01*
X19892170Y1381340D01*
G03X19892970Y1383010I-33605J17125D01*
G01X19894080Y1385450D01*
X22415780Y1830090D01*
G03X23040780Y2154370I-204177J1157956D01*
G01X23041250Y2154840D01*
X23607620Y2481830D01*
X23611010Y2475950D01*
X23610800Y2474260D01*
G03X23610610Y2472400I37417J-4762D01*
G01X23610410Y2469730D01*
G37*
G36*
G01X23431190Y2308530D02*
X23070010Y2100010D01*
G03X23066070Y2096970I9580J-16489D01*
G02X22441400Y1771790I-828002J828005D01*
G01X19665400Y1282310D01*
X19664220Y1288990D01*
X19665000Y1290510D01*
G03X19665800Y1292180I-33605J17125D01*
G01X19666910Y1294620D01*
X22431920Y1782160D01*
G03X23065780Y2111060I-207077J1174323D01*
G01X23066250Y2111530D01*
X23428390Y2320600D01*
X23431790Y2314730D01*
X23431570Y2313030D01*
G03X23431390Y2311200I37438J-4606D01*
G01X23431190Y2308530D01*
G37*
G36*
G01X24209520Y2988840D02*
X22970020Y2273220D01*
G03X22966070Y2270180I9555J-16501D01*
G02X22376960Y1963520I-780854J780877D01*
G01X20604300Y1650950D01*
X20603120Y1657630D01*
X20603900Y1659150D01*
G03X20604700Y1660820I-33605J17125D01*
G01X20605810Y1663260D01*
X22367480Y1973890D01*
G03X22965780Y2284270I-195489J1108675D01*
G01X22966250Y2284740D01*
X24206720Y3000920D01*
X24210120Y2995040D01*
X24209900Y2993350D01*
G03X24209720Y2991510I37440J-4591D01*
G01X24209520Y2988840D01*
G37*
G36*
G01X24000730Y2810560D02*
X22995020Y2229920D01*
G03X22991070Y2226880I9555J-16501D01*
G02X22393050Y1915580I-792666J792684D01*
G01X20376520Y1560010D01*
X20375340Y1566690D01*
X20376120Y1568210D01*
G03X20376920Y1569880I-33605J17125D01*
G01X20378030Y1572320D01*
X22383580Y1925960D01*
G03X22990780Y2240970I-198376J1125093D01*
G01X22991250Y2241440D01*
X23997930Y2822640D01*
X24001330Y2816760D01*
X24001110Y2815070D01*
G03X24000930Y2813230I37440J-4591D01*
G01X24000730Y2810560D01*
G37*
G36*
G01X23762350Y1791910D02*
X26230060Y3201030D01*
X26234890D01*
G02X26237430Y3191550I-1J-5081D01*
G01X23988970Y1893400D01*
X23772280Y1774190D01*
G02X23762350Y1791910I-4896J8899D01*
G37*
G36*
G01X23716080Y1699730D02*
X24007690Y1860180D01*
X26255110Y3157720D01*
X26259870D01*
G02X26262410Y3148240I0J-5080D01*
G01X24014010Y1850130D01*
X23720950Y1690820D01*
G02X23716080Y1699730I-2425J4461D01*
G37*
G36*
G01X23898300Y2649660D02*
X25241620Y3425220D01*
G03X26078560Y4002370I-3175788J5500700D01*
G02X26086840Y3998690I3208J-3938D01*
G03X26087250Y3994720I37673J1884D01*
G02X25242470Y3412010I-4045886J4961785D01*
G01X23901090Y2637560D01*
X23897700Y2643440D01*
X23897910Y2645130D01*
G03X23898100Y2646990I-37417J4762D01*
G01X23898300Y2649660D01*
G37*
G36*
G01X23686030Y2469350D02*
X25261550Y3378970D01*
G03X26003190Y3878880I-3220256J5577486D01*
G02X26011400Y3875030I3131J-4003D01*
G03X26011730Y3871040I37701J1109D01*
G02X25262460Y3365810I-3994607J5115903D01*
G01X23688830Y2457280D01*
X23685430Y2463150D01*
X23685650Y2464850D01*
G03X23685830Y2466680I-37438J4606D01*
G01X23686030Y2469350D01*
G37*
G36*
G01X23506810Y2308150D02*
X25281520Y3332770D01*
G03X26035270Y3841040I-3264460J5654131D01*
G03X26039050Y3839770I13886J35071D01*
G02X26040820Y3830870I-1355J-4895D01*
G02X25282470Y3319640I-4047830J5186406D01*
G01X23509610Y2296070D01*
X23506210Y2301950D01*
X23506430Y2303640D01*
G03X23506610Y2305480I-37440J4591D01*
G01X23506810Y2308150D01*
G37*
G36*
G01X23290800Y2125700D02*
X25301530Y3286600D01*
G03X26003580Y3753990I-3308576J5730652D01*
G02X26011740Y3750040I3079J-4042D01*
G03X26012020Y3746050I37713J642D01*
G02X25302440Y3273430I-4043354J5301609D01*
G01X23293600Y2113620D01*
X23290200Y2119500D01*
X23290420Y2121190D01*
G03X23290600Y2123030I-37440J4591D01*
G01X23290800Y2125700D01*
G37*
G36*
G01X27372050Y5620630D02*
X26452940Y4525280D01*
G02X25182600Y3550660I-4338581J4339793D01*
G01X24473540Y3141270D01*
X24470140Y3147150D01*
X24470360Y3148840D01*
G03X24470540Y3150680I-37440J4591D01*
G01X24470740Y3153350D01*
X25181650Y3563790D01*
G03X26442180Y4531040I-3043198J5270919D01*
G03X26443310Y4532260I-13411J13555D01*
G01X27365290Y5631040D01*
X27370490Y5626680D01*
X27370870Y5625010D01*
G03X27371330Y5623210I36765J8437D01*
G01X27372050Y5620630D01*
G37*
G36*
G01X27260520Y5409930D02*
X26491240Y4493140D01*
G02X25202570Y3504460I-4401135J4402366D01*
G01X24287940Y2976380D01*
X24284540Y2982260D01*
X24284760Y2983950D01*
G03X24284940Y2985790I-37440J4591D01*
G01X24285140Y2988460D01*
X25201680Y3517620D01*
G03X26480490Y4498900I-3087379J5347407D01*
G03X26481620Y4500120I-13411J13555D01*
G01X27253770Y5420330D01*
X27258960Y5415970D01*
X27259340Y5414300D01*
G03X27259800Y5412510I36753J8491D01*
G01X27260520Y5409930D01*
G37*
G36*
G01X27150430Y5200940D02*
X26529540Y4461000D01*
G02X25222560Y3458260I-4463719J4464915D01*
G01X24079150Y2798110D01*
X24075760Y2803990D01*
X24075970Y2805680D01*
G03X24076150Y2807510I-37438J4606D01*
G01X24076350Y2810180D01*
X25221650Y3471420D01*
G03X26518790Y4466760I-3131602J5424040D01*
G03X26519920Y4467980I-13411J13555D01*
G01X27143670Y5211340D01*
X27148870Y5206980D01*
X27149250Y5205320D01*
G03X27149710Y5203520I36765J8437D01*
G01X27150430Y5200940D01*
G37*
G36*
G01X25343970Y2861990D02*
X26155120Y3330930D01*
X26159860D01*
G02X26162400Y3321450I1J-5080D01*
G01X25349050Y2853190D01*
G02X25343970Y2861990I-2540J4400D01*
G37*
G36*
G01X25357140Y2813830D02*
X26180100Y3287630D01*
X26184850D01*
G02X26187370Y3278140I-2J-5080D01*
G01X25362200Y2805020D01*
G02X25357140Y2813830I-2530J4405D01*
G37*
G36*
G01X25370290Y2765700D02*
X26205080Y3244330D01*
X26209830D01*
G02X26212350Y3234840I3J-5079D01*
G01X25375340Y2756880D01*
G02X25370290Y2765700I-2525J4410D01*
G37*
G36*
G01X26338670Y2819070D02*
X25740060Y2473460D01*
X25737650Y2474620D01*
G03X25734610Y2475920I-16336J-33998D01*
G01X25732910Y2476560D01*
X25729470Y2482550D01*
X26380590Y2856970D01*
X27033940D01*
X27957900Y3780930D01*
X28442090D01*
X28445280Y3777740D01*
G02X28441690Y3769070I-3593J-3590D01*
G01X27992100D01*
X27042100Y2819070D01*
X26338670D01*
G37*
G36*
G01X27016930Y4964060D02*
X26567840Y4428860D01*
G02X26287070Y4164580I-4526486J4527635D01*
G02X26137410Y4036040I-4245713J4791918D01*
G03X26133580Y4037210I-12919J-35436D01*
G02X26131550Y4046050I1222J4934D01*
G03X26557090Y4434620I-4065735J4879862D01*
G03X26558220Y4435840I-13411J13555D01*
G01X27010180Y4974460D01*
X27015370Y4970100D01*
X27015750Y4968430D01*
G03X27016210Y4966640I36753J8491D01*
G01X27016930Y4964060D01*
G37*
G36*
G01X26885220Y4729310D02*
X26606140Y4396720D01*
G02X26241920Y4059430I-4589073J4590180D01*
G02X26170490Y3999080I-4224557J4927721D01*
G02X26162170Y4002700I-3249J3903D01*
G03X26161740Y4006670I-37663J-2071D01*
G03X26312370Y4136040I-4120356J4949851D01*
G03X26595390Y4402480I-4271079J4820395D01*
G03X26596520Y4403700I-13411J13555D01*
G01X26878470Y4739710D01*
X26883660Y4735350D01*
X26884040Y4733680D01*
G03X26884500Y4731890I36753J8491D01*
G01X26885220Y4729310D01*
G37*
G36*
G01X26752620Y4493490D02*
X26644450Y4364580D01*
G02X26195510Y3955400I-4651524J4652641D01*
G02X26139220Y3909190I-4202535J5061864D01*
G03X26135410Y3910410I-13392J-35263D01*
G02X26133490Y3919260I1288J4913D01*
G03X26266740Y4030470I-4116411J5067651D01*
G03X26633690Y4370340I-4249736J4956373D01*
G03X26634820Y4371560I-13411J13555D01*
G01X26745860Y4503900D01*
X26751060Y4499540D01*
X26751440Y4497870D01*
G03X26751900Y4496070I36765J8437D01*
G01X26752620Y4493490D01*
G37*
G36*
G01X26163560Y3875550D02*
G03X26163180Y3879520I-37684J-1604D01*
G03X26219870Y3926060I-4170330J5137642D01*
G03X26650870Y4317150I-4226859J5091239D01*
G02X26659470Y4314260I3573J-3608D01*
G03X26660300Y4310100I37348J5289D01*
G02X26171840Y3871830I-4691623J4737566D01*
G02X26163560Y3875550I-3203J3945D01*
G37*
G36*
G01X29008630Y7104300D02*
X26830570Y4508610D01*
X26825380Y4512970D01*
X26825000Y4514640D01*
G03X26824540Y4516430I-36753J-8491D01*
G01X26823820Y4519010D01*
X28993910Y7105220D01*
G03X29223500Y7618240I-786289J659769D01*
G02X29231920Y7621280I5024J-733D01*
G03X29234570Y7619110I25199J28070D01*
G02X29008630Y7104300I-992924J128790D01*
G37*
G36*
G01X26976780Y3299810D02*
X27907900Y4230930D01*
X28492100D01*
X28871070Y3851960D01*
X28962710D01*
X29012280Y3901530D01*
X29031280Y3882530D01*
X28967820Y3819070D01*
X28857900D01*
X28507900Y4169070D01*
X27892100D01*
X27005500Y3282470D01*
X26983970D01*
G02X26976780Y3299810I-3J10159D01*
G37*
G36*
G01X27033480Y3256510D02*
X27907900Y4130930D01*
X28492100D01*
X28842100Y3780930D01*
X28983620D01*
X29058250Y3855560D01*
X29077270Y3836540D01*
X29038870Y3798140D01*
X29038860D01*
X28959790Y3719070D01*
X28857900D01*
X28507900Y4069070D01*
X27892100D01*
X27062200Y3239170D01*
X27040670D01*
G02X27033480Y3256510I-3J10159D01*
G37*
G36*
G01X27090170Y3213200D02*
X27907900Y4030930D01*
X28492100D01*
X28842100Y3680930D01*
X28975590D01*
X29054660Y3760000D01*
X29054670D01*
X29104240Y3809570D01*
X29123240Y3790570D01*
X29006320Y3673650D01*
Y3673640D01*
X28951750Y3619070D01*
X28857900D01*
X28507900Y3969070D01*
X27892100D01*
X27118890Y3195860D01*
X27097360D01*
G02X27090170Y3213200I-3J10159D01*
G37*
G36*
G01X27146960Y3169990D02*
X27907900Y3930930D01*
X28492100D01*
X28842100Y3580930D01*
X28967550D01*
X29044460Y3657840D01*
Y3657850D01*
X29150210Y3763600D01*
X29169220Y3744590D01*
X29130820Y3706190D01*
X29130810D01*
X28993690Y3569070D01*
X28807900D01*
X28507900Y3869070D01*
X27892100D01*
X27175680Y3152650D01*
X27154150D01*
G02X27146960Y3169990I-3J10159D01*
G37*
G36*
G01X26920080Y3343110D02*
X27907900Y4330930D01*
X28492100D01*
X28892100Y3930930D01*
X28949700D01*
X28966290Y3947520D01*
X28985310Y3928500D01*
X28946910Y3890100D01*
X28886870D01*
X28507900Y4269070D01*
X27892100D01*
X26948800Y3325770D01*
X26927270D01*
G02X26920080Y3343110I-3J10159D01*
G37*
G36*
G01X26963180Y4744420D02*
X26957980Y4748790D01*
X26957600Y4750450D01*
G03X26957140Y4752250I-36765J-8437D01*
G01X26956420Y4754830D01*
X28949920Y7130570D01*
G03X29182880Y7690290I-776455J651507D01*
G02X29193010Y7689440I5062J-461D01*
G02X28964690Y7129740I-985388J75553D01*
G01X26963180Y4744420D01*
G37*
G36*
G01X27094880Y4979180D02*
X27089690Y4983540D01*
X27089310Y4985210D01*
G03X27088850Y4987000I-36753J-8491D01*
G01X27088130Y4989580D01*
X28905950Y7155950D01*
G03X29135890Y7707830I-766593J643242D01*
G02X29146010Y7706980I5057J-463D01*
G02X28920700Y7155090I-972543J75105D01*
G01X27094880Y4979180D01*
G37*
G36*
G01X28788800Y7231280D02*
X27450000Y5635750D01*
X27444810Y5640110D01*
X27444430Y5641780D01*
G03X27443970Y5643570I-36753J-8491D01*
G01X27443250Y5646150D01*
X28774060Y7232150D01*
G03X28802720Y7268020I-737003J618248D01*
G02X28811660Y7266310I4045J-3077D01*
G03X28813270Y7261700I36340J10105D01*
G02X28788800Y7231280I-741976J571798D01*
G37*
G36*
G01X28811760Y7180820D02*
X27338480Y5425040D01*
X27333280Y5429410D01*
X27332900Y5431070D01*
G03X27332440Y5432870I-36765J-8437D01*
G01X27331720Y5435450D01*
X28805000Y7191250D01*
X28810200Y7186880D01*
X28810580Y7185220D01*
G03X28811040Y7183400I36788J8330D01*
G01X28811760Y7180820D01*
G37*
G36*
G01X28852390Y7151460D02*
X27228380Y5216060D01*
X27223190Y5220420D01*
X27222810Y5222090D01*
G03X27222350Y5223880I-36753J-8491D01*
G01X27221630Y5226460D01*
X28840980Y7156310D01*
X28843650Y7156040D01*
G03X28845490Y7155910I3578J37550D01*
G01X28847190Y7155820D01*
X28852390Y7151460D01*
G37*
G36*
G01X28744840Y7256670D02*
X27587400Y5877270D01*
X27582200Y5881640D01*
X27581820Y5883300D01*
G03X27581360Y5885100I-36765J-8437D01*
G01X27580640Y5887680D01*
X28730070Y7257500D01*
G03X28806520Y7362420I-727081J610100D01*
G02X28815590Y7361460I4300J-2704D01*
G03X28817810Y7356510I35439J12921D01*
G02X28744840Y7256670I-780676J493986D01*
G37*
G36*
G01X29330930Y3876870D02*
G02X29313590Y3869690I-10158J3D01*
G01X29069690Y4113590D01*
G02X29076870Y4130930I7183J7182D01*
G01X29092100D01*
X29330930Y3892100D01*
Y3876870D01*
G37*
G36*
G01X28999070Y7841190D02*
G03X28999110Y7846240I-961923J10144D01*
G01Y7847120D01*
X29401100Y8951570D01*
X29407470Y8949250D01*
X29408400Y8947810D01*
G03X29409440Y8946290I31640J20533D01*
G01X29411000Y8944110D01*
X29009110Y7839920D01*
G03X29008970Y7839510I17974J-6366D01*
G02X28999070Y7841190I-4817J1621D01*
G37*
G36*
G01X29046060Y7824090D02*
G03X29046090Y7829140I-974847J8316D01*
G01Y7830020D01*
X29362760Y8700050D01*
X29369140Y8697730D01*
X29370060Y8696300D01*
G03X29371100Y8694780I31640J20533D01*
G01X29372660Y8692600D01*
X29056090Y7822820D01*
G03X29055950Y7822410I17974J-6366D01*
G02X29046060Y7824090I-4810J1633D01*
G37*
G36*
G01X29093040Y7806960D02*
G03X29093070Y7812040I-987807J8374D01*
G01Y7812920D01*
X29325690Y8452030D01*
X29332070Y8449710D01*
X29332990Y8448270D01*
G03X29334040Y8446740I31616J20572D01*
G01X29335600Y8444560D01*
X29103080Y7805720D01*
G03X29102930Y7805290I17929J-6495D01*
G02X29093040Y7806960I-4811J1627D01*
G37*
G36*
G01X28886040Y7388400D02*
G03X28883590Y7393420I-35026J-13987D01*
G03X28995080Y7762420I-846448J457090D01*
G02X29005200Y7761560I5057J-469D01*
G02X28895230Y7387870I-933984J71828D01*
G02X28886040Y7388400I-4471J2417D01*
G37*
G36*
G01X28884070Y7287430D02*
G03X28882190Y7292360I-36098J-10942D01*
G03X29042010Y7744190I-810972J541035D01*
G02X29052130Y7743340I5057J-463D01*
G02X28893150Y7286080I-946894J72949D01*
G02X28884070Y7287430I-4220J2830D01*
G37*
G36*
G01X28884050Y7202330D02*
G03X28882670Y7206840I-36688J-8760D01*
G03X29089000Y7726640I-777435J609446D01*
G02X29099130Y7725790I5062J-462D01*
G02X28892970Y7200350I-959770J73408D01*
G02X28884050Y7202330I-3978J3160D01*
G37*
G36*
G01X28952120Y7864220D02*
X29438610Y9200820D01*
X29444980Y9198500D01*
X29445910Y9197060D01*
G03X29446950Y9195540I31640J20533D01*
G01X29448510Y9193360D01*
X28962130Y7857020D01*
G03X28961980Y7856590I17929J-6495D01*
G02X28952080Y7858260I-4819J1613D01*
G03X28952120Y7863340I-949084J10013D01*
G01Y7864220D01*
G37*
G36*
G01X29140030Y7789880D02*
G03X29140060Y7794940I-1000676J8463D01*
G01Y7795820D01*
X29276920Y8171820D01*
X29283300Y8169490D01*
X29284220Y8168060D01*
G03X29285260Y8166540I31640J20533D01*
G01X29286820Y8164360D01*
X29150060Y7788610D01*
G03X29149920Y7788210I17927J-6499D01*
G02X29140030Y7789880I-4811J1628D01*
G37*
G36*
G01X29393780Y8492880D02*
X30268530Y10896230D01*
G03X30419070Y11749980I-2345721J853763D01*
G01Y12265890D01*
G02X30427220Y12269940I5081J1D01*
G03X30430930Y12267460I22779J30062D01*
G01Y11749990D01*
G02X30279680Y10892210I-2508001J4D01*
G01X29403680Y8485430D01*
X29397300Y8487750D01*
X29396380Y8489180D01*
G03X29395340Y8490700I-31640J-20533D01*
G01X29393780Y8492880D01*
G37*
G36*
G01X29345000Y8212680D02*
X30315520Y10879170D01*
G03X30469070Y11749990I-2392590J870828D01*
G01Y11965890D01*
G02X30477220Y11969940I5081J1D01*
G03X30480930Y11967460I22779J30062D01*
G01Y11749990D01*
G02X30326660Y10875080I-2558081J2D01*
G01X29354910Y8205220D01*
X29348530Y8207540D01*
X29347600Y8208970D01*
G03X29346560Y8210500I-31704J-20432D01*
G01X29345000Y8212680D01*
G37*
G36*
G01X29318310Y7993150D02*
X30362500Y10862040D01*
G03X30518850Y11716120I-2439650J887959D01*
G02X30527020Y11720090I5080J-62D01*
G03X30530730Y11717570I23012J29888D01*
G02X30373650Y10858010I-2607800J32429D01*
G01X29328210Y7985700D01*
X29321830Y7988020D01*
X29320910Y7989450D01*
G03X29319870Y7990970I-31640J-20533D01*
G01X29318310Y7993150D01*
G37*
G36*
G01X30502780Y9894950D02*
X29790070Y7936780D01*
X29787470Y7936110D01*
G03X29785690Y7935610I9307J-36553D01*
G01X29784060Y7935110D01*
X29777680Y7937430D01*
X30490400Y9895600D01*
X30493000Y9896270D01*
G03X30494770Y9896770I-9365J36537D01*
G01X30496400Y9897270D01*
X30502780Y9894950D01*
G37*
G36*
G01X29506690Y9241680D02*
X30127590Y10947610D01*
G03X30269070Y11749990I-2204580J802387D01*
G01Y13015890D01*
G02X30277220Y13019940I5081J1D01*
G03X30280930Y13017460I22779J30062D01*
G01Y11749980D01*
G02X30138720Y10943470I-2358121J9D01*
G01X29516600Y9234220D01*
X29510220Y9236540D01*
X29509290Y9237980D01*
G03X29508250Y9239500I-31640J-20533D01*
G01X29506690Y9241680D01*
G37*
G36*
G01X29469180Y8992430D02*
X30174560Y10930430D01*
G03X30319070Y11749980I-2251751J819563D01*
G01Y12765890D01*
G02X30327220Y12769940I5081J1D01*
G03X30330930Y12767460I22779J30062D01*
G01Y11749990D01*
G02X30185710Y10926400I-2408041J1D01*
G01X29479080Y8984980D01*
X29472700Y8987300D01*
X29471780Y8988730D01*
G03X29470740Y8990250I-31640J-20533D01*
G01X29469180Y8992430D01*
G37*
G36*
G01X29430840Y8740920D02*
X30221550Y10913360D01*
G03X30369070Y11749990I-2298661J836635D01*
G01Y12515890D01*
G02X30377220Y12519940I5081J1D01*
G03X30380930Y12517460I22779J30062D01*
G01Y11749980D01*
G02X30232690Y10909270I-2458121J9D01*
G01X29440750Y8733450D01*
X29434370Y8735770D01*
X29433450Y8737210D01*
G03X29432400Y8738740I-31616J-20572D01*
G01X29430840Y8740920D01*
G37*
G36*
G01X30091750Y10960650D02*
X29554170Y9483660D01*
X29547800Y9485980D01*
X29546870Y9487420D01*
G03X29545830Y9488940I-31640J-20533D01*
G01X29544270Y9491120D01*
X30080590Y10964670D01*
G03X30219070Y11750000I-2157678J785345D01*
G01Y13265890D01*
G02X30227220Y13269940I5081J1D01*
G03X30230930Y13267460I22779J30062D01*
G01Y11749990D01*
G02X30091750Y10960650I-2307921J3D01*
G37*
G36*
G01X30081260Y15951670D02*
X30073410Y15948810D01*
X30071120Y15951150D01*
G03X30068250Y15954060I-620316J-608919D01*
G01X30067470Y15954850D01*
X29732020Y16876480D01*
X29738400Y16878810D01*
X29740030Y16878300D01*
G03X29741820Y16877800I11040J36068D01*
G01X29744420Y16877130D01*
X30081260Y15951670D01*
G37*
G36*
G01X30034260Y15934580D02*
X30026410Y15931720D01*
X30024120Y15934070D01*
G03X30021270Y15936960I-612995J-601660D01*
G01X30020490Y15937750D01*
X29601160Y17089840D01*
X29607540Y17092160D01*
X29609170Y17091660D01*
G03X29610940Y17091160I11135J36037D01*
G01X29613540Y17090490D01*
X30034260Y15934580D01*
G37*
G36*
G01X29987290Y15917460D02*
X29979440Y15914610D01*
X29977150Y15916950D01*
G03X29974280Y15919860I-605664J-594469D01*
G01X29973500Y15920650D01*
X29464250Y17319790D01*
X29470630Y17322110D01*
X29472260Y17321610D01*
G03X29474040Y17321110I11087J36053D01*
G01X29476640Y17320440D01*
X29987290Y15917460D01*
G37*
G36*
G01X29903750Y8137600D02*
X30749600Y10461570D01*
G03X31018980Y11648150I-4555588J1658087D01*
G03X31019070Y11650000I-18969J1850D01*
G01Y14267460D01*
G03X31022780Y14269940I-19069J32542D01*
G02X31030930Y14265890I3069J-4049D01*
G01Y11650920D01*
G02X30760750Y10457510I-4829719J466127D01*
G01X29916130Y8136950D01*
X29913530Y8136280D01*
G03X29911760Y8135780I9365J-36537D01*
G01X29910130Y8135280D01*
X29903750Y8137600D01*
G37*
G36*
G01X30519070Y15382500D02*
G03X30353560Y15905920I-910419J-5D01*
G02X30361830Y15911830I4160J2921D01*
G02X30530930Y15392310I-713491J-519516D01*
G01Y12034110D01*
G02X30522780Y12030060I-5081J-1D01*
G03X30519070Y12032540I-22779J-30062D01*
G01Y15382500D01*
G37*
G36*
G01X30372780Y12830060D02*
G03X30369070Y12832540I-22779J-30062D01*
G01Y15353050D01*
G03X30209330Y15858490I-879520J-2D01*
G02X30217590Y15864400I4155J2920D01*
G02X30380930Y15362860I-688349J-501547D01*
G01Y12834110D01*
G02X30372780Y12830060I-5081J-1D01*
G37*
G36*
G01X30422780Y12580060D02*
G03X30419070Y12582540I-22779J-30062D01*
G01Y15362860D01*
G03X30257160Y15874650I-889830J-1D01*
G02X30265420Y15880570I4156J2923D01*
G02X30430930Y15372690I-696461J-507874D01*
G01Y12584110D01*
G02X30422780Y12580060I-5081J-1D01*
G37*
G36*
G01X30472780Y12330060D02*
G03X30469070Y12332540I-22779J-30062D01*
G01Y15372690D01*
G03X30305490Y15890110I-900110J2D01*
G02X30313750Y15896020I4153J2922D01*
G02X30480930Y15382500I-705099J-513523D01*
G01Y12334110D01*
G02X30472780Y12330060I-5081J-1D01*
G37*
G36*
G01X30222780Y13580060D02*
G03X30219070Y13582540I-22779J-30062D01*
G01Y15323570D01*
G03X30064840Y15811420I-848661J7D01*
G02X30073100Y15817340I4157J2923D01*
G02X30230930Y15333410I-662962J-483922D01*
G01Y13584110D01*
G02X30222780Y13580060I-5081J-1D01*
G37*
G36*
G01X30272780Y13330060D02*
G03X30269070Y13332540I-22779J-30062D01*
G01Y15333410D01*
G03X30113170Y15826870I-858929J-6D01*
G02X30121440Y15832780I4160J2920D01*
G02X30280930Y15343220I-671611J-489558D01*
G01Y13334110D01*
G02X30272780Y13330060I-5081J-1D01*
G37*
G36*
G01X30322780Y13080060D02*
G03X30319070Y13082540I-22779J-30062D01*
G01Y15343220D01*
G03X30161010Y15843020I-869240J-1D01*
G02X30169270Y15848940I4156J2924D01*
G02X30330930Y15353050I-679721J-495884D01*
G01Y13084110D01*
G02X30322780Y13080060I-5081J-1D01*
G37*
G36*
G01X30175230Y15985870D02*
X30167380Y15983010D01*
X30165090Y15985350D01*
G03X30162220Y15988260I-634976J-623377D01*
G01X30161440Y15989050D01*
X29990230Y16459450D01*
X29996610Y16461770D01*
X29998240Y16461270D01*
G03X30000020Y16460770I11087J36053D01*
G01X30002620Y16460100D01*
X30175230Y15985870D01*
G37*
G36*
G01X30128230Y15968780D02*
X30120380Y15965930D01*
X30118090Y15968270D01*
G03X30115240Y15971160I-627655J-616117D01*
G01X30114460Y15971950D01*
X29853780Y16688180D01*
X29860160Y16690500D01*
X29861790Y16690000D01*
G03X29863560Y16689500I11135J36037D01*
G01X29866160Y16688830D01*
X30128230Y15968780D01*
G37*
G36*
G01X32000000Y17950000D02*
Y17400000D01*
X31250000D01*
Y17950000D01*
X32000000D01*
G37*
%LPC*%
G75*
G54D45*
X31496000Y17662900D03*
%LPD*%
G75*
G54D10*
X3604760Y14838220D03*
Y14508020D03*
X4208200Y15838660D03*
Y15508460D03*
X5374590Y11517600D03*
X5453140Y18579600D03*
X5122940D03*
X5882820Y11517420D03*
X30701500Y15073620D03*
X31209730Y15073440D03*
G54D11*
X3604760Y15190910D03*
Y15838610D03*
X4699000Y19005550D03*
Y19653250D03*
X31496000Y17662900D03*
Y18310600D03*
Y18929350D03*
Y19577050D03*
G54D20*
X5118000Y19352000D03*
G54D30*
X28941200Y6681050D03*
X29330420Y6354240D03*
G54D21*
X5588000Y19052000D03*
Y19652000D03*
G54D12*
G01X26910430Y1179660D02*
Y1148150D01*
X27029290Y1029290D01*
G01D02*
X26979290D01*
X26950000Y1000000D01*
G01X27316340Y1585570D02*
Y1525080D01*
X27420710Y1420710D01*
G01X28579290Y2579290D02*
Y2629290D01*
G01X28970710Y2970710D02*
Y3020710D01*
G01X30229290Y4229290D02*
X30179290D01*
G01X30620710Y4620710D02*
X30570710Y4670710D01*
G01D02*
Y4681200D01*
X30491340Y4760570D01*
X3450000Y15050000D03*
X3550000D03*
X3450000Y14950000D03*
X3550000D03*
X3450000Y14700000D03*
X3550000D03*
X3500000Y15350000D03*
Y16000000D03*
Y16100000D03*
Y16200000D03*
Y16300000D03*
X3850000Y14950000D03*
X3950000D03*
X4050000D03*
X4150000D03*
X4250000D03*
Y14850000D03*
Y14750000D03*
X4150000D03*
X4050000D03*
X3900000D03*
X3750000Y15050000D03*
Y14950000D03*
Y14700000D03*
X3650000Y15050000D03*
Y14950000D03*
Y14700000D03*
X3600000Y15350000D03*
X3700000D03*
X3604760Y15190910D03*
X4000000Y16100000D03*
Y16000000D03*
X3800000Y16100000D03*
X3900000D03*
Y16000000D03*
X3800000D03*
X3700040Y16277000D03*
X3700000Y16100000D03*
Y16000000D03*
X3600000D03*
Y16100000D03*
Y16200000D03*
Y16300000D03*
X4040400Y16550000D03*
X4200000D03*
X4300000D03*
X3900000D03*
X3800000D03*
X3700000D03*
X3800000Y16750000D03*
X3900000D03*
X4200000D03*
X4300000D03*
X3700000D03*
X4040400Y17200000D03*
X4200000D03*
X4300000D03*
X3900000D03*
X3800000D03*
Y17300000D03*
X3900000D03*
X4200000D03*
X4300000D03*
X3700000Y17200000D03*
Y17300000D03*
X3800000Y17100000D03*
X3900000D03*
X4200000D03*
X4300000D03*
X4040400Y16900000D03*
X4200000D03*
X4300000D03*
X3900000D03*
X3800000D03*
Y17000000D03*
X3900000D03*
X4200000D03*
X4300000D03*
X3700000Y17100000D03*
Y16900000D03*
Y17000000D03*
X3800000Y16650000D03*
X3900000D03*
X4200000D03*
X4300000D03*
X3700000D03*
X4300000Y17900000D03*
X4200000D03*
X3900000D03*
X3800000D03*
Y17800000D03*
X3900000D03*
X4300000D03*
X4200000D03*
X4040400D03*
X4300000Y18000000D03*
X3800000D03*
X3700000Y17900000D03*
Y17800000D03*
Y18000000D03*
X3800000Y17700000D03*
X3900000D03*
X4200000D03*
X4300000D03*
X4040400Y17500000D03*
X4200000D03*
X4300000D03*
X3900000D03*
X3800000D03*
Y17600000D03*
X3900000D03*
X4200000D03*
X4300000D03*
X3700000Y17700000D03*
Y17500000D03*
Y17600000D03*
X3800000Y17400000D03*
X3900000D03*
X4200000D03*
X4300000D03*
X3700000D03*
X4650000Y15150000D03*
X4850000D03*
X4750000D03*
X4350000Y14950000D03*
Y14850000D03*
Y14750000D03*
X4650000Y15550000D03*
Y15650000D03*
X4850000D03*
Y15550000D03*
X4750000D03*
Y15650000D03*
X4650000Y15450000D03*
X4850000D03*
X4750000D03*
X4650000Y15250000D03*
Y15350000D03*
X4850000D03*
Y15250000D03*
X4750000D03*
Y15350000D03*
X4400000Y16550000D03*
X4700000Y16700000D03*
X4800000D03*
X4600000D03*
X4700000Y16900000D03*
Y16800000D03*
X4800000D03*
Y16900000D03*
X4600000D03*
Y16800000D03*
X4700000Y17000000D03*
X4800000D03*
X4600000D03*
X4700000Y17200000D03*
Y17100000D03*
X4800000D03*
Y17200000D03*
X4600000D03*
Y17100000D03*
X4700000Y17300000D03*
X4800000D03*
X4600000D03*
X4400000Y16750000D03*
Y17200000D03*
Y17300000D03*
Y17100000D03*
Y16900000D03*
Y17000000D03*
Y16650000D03*
X4700000Y17500000D03*
Y17400000D03*
X4800000D03*
Y17500000D03*
X4600000D03*
Y17400000D03*
X4700000Y17600000D03*
X4800000D03*
X4600000D03*
X4700000Y17800000D03*
Y17700000D03*
X4800000D03*
Y17800000D03*
X4600000D03*
Y17700000D03*
X4700000Y17950000D03*
X4800000D03*
X4600000D03*
X4700000Y18050000D03*
X4800000D03*
X4600000D03*
X4400000Y17900000D03*
Y17800000D03*
Y18000000D03*
Y17700000D03*
Y17500000D03*
Y17600000D03*
Y17400000D03*
X4700000Y18150000D03*
X4800000D03*
X4600000D03*
X4700000Y18300000D03*
X4800000D03*
X4600000D03*
X4700000Y18800000D03*
Y18500000D03*
Y18400000D03*
X4800000D03*
Y18500000D03*
Y18800000D03*
Y18640400D03*
X4600000Y18800000D03*
Y18500000D03*
Y18400000D03*
Y19000000D03*
X4800000D03*
X4700000D03*
Y18900000D03*
X4800000D03*
X4600000D03*
X5573200Y12279980D03*
X5050000Y12500000D03*
X5699210Y17058950D03*
X5350000Y19450000D03*
Y19350000D03*
X5550000Y19450000D03*
X5450000D03*
Y19350000D03*
X5550000D03*
X5690400D03*
X6010720Y8042820D03*
X6439780Y10329170D03*
X6283640Y10611970D03*
X6450000Y13050000D03*
X6350000Y13550000D03*
X6400000Y13300000D03*
X6300000Y13800000D03*
X6250000Y14050000D03*
X6200000Y14300000D03*
X6150000Y14550000D03*
X6100310Y14850000D03*
X6050000Y19450000D03*
Y19350000D03*
Y19550000D03*
X5950000Y19450000D03*
X5850000D03*
X5950000Y19350000D03*
X5850000D03*
X5950000Y19550000D03*
X6765720Y7905160D03*
X7107510Y9225570D03*
X6972680Y9449820D03*
X6834260Y9683920D03*
X6703370Y9897360D03*
X6571240Y10114180D03*
X6750000Y12800000D03*
X7106160Y17242580D03*
X7177100Y17729860D03*
X7206050Y17955610D03*
X7147260Y17501690D03*
X7220850Y18142460D03*
X7242710Y9000280D03*
X7587360Y8787540D03*
X7266990Y16767110D03*
X7263340Y18405380D03*
X7297890Y18646510D03*
X7349840Y18935420D03*
X8500460Y4117430D03*
X8539030Y6174510D03*
X8348210Y6324130D03*
X8140360Y6494050D03*
X7960590Y6630510D03*
X9270320Y4400310D03*
X9336160Y5535660D03*
X8930910Y5863060D03*
X8737820Y6015390D03*
X9140730Y5690790D03*
X9698310Y5382620D03*
X10854550Y3503590D03*
X11593240Y3250310D03*
X11349630Y3333220D03*
X11103480Y3417610D03*
X12262560Y1291230D03*
X12079090Y3085280D03*
X11835720Y3168050D03*
X12332950Y2996450D03*
X12886870Y1900410D03*
X12558220Y2924120D03*
X12855060Y2908950D03*
X15193660Y1594120D03*
X14939660Y1588140D03*
X14668090Y1585250D03*
X15953600Y1612440D03*
X15701680Y1606090D03*
X15466830Y1596720D03*
X16486670Y1619980D03*
X16232420Y1614040D03*
X16608330Y1655500D03*
X16737290Y-63570D03*
X17117000Y786680D03*
X18899940Y1026430D03*
X19371590Y1211140D03*
X19151790Y1121610D03*
X19631440Y1307730D03*
X20098560Y1491630D03*
X19858610Y1398560D03*
X20342560Y1585430D03*
X20570340Y1676370D03*
X21059140Y1326580D03*
X21416200Y169010D03*
X21554790Y601740D03*
X23129550Y1996890D03*
X23252990Y2125890D03*
X23860490Y2649850D03*
X23648220Y2469540D03*
X23469000Y2308340D03*
X24432930Y3153540D03*
X24038540Y2810370D03*
X24247330Y2988650D03*
X25963710Y480370D03*
X25850390Y458990D03*
X25871760Y572320D03*
X25758430Y550950D03*
X25779800Y664280D03*
X25574510Y734860D03*
X25666470Y642910D03*
X25687840Y756240D03*
X25721320Y2440620D03*
X26124510Y4000600D03*
X26049100Y3876130D03*
X26125880Y3873910D03*
X26049450Y3750710D03*
X26800000Y1050000D03*
X26861770Y1682730D03*
X26883120Y1796070D03*
X26769810Y1774690D03*
X26791170Y1888030D03*
X26920820Y4742070D03*
X26788220Y4506250D03*
X26696820Y4319540D03*
X26223400Y4464280D03*
X26950000Y1000000D03*
X27400000Y1800000D03*
X27045680Y1498820D03*
X27067040Y1612160D03*
X26953720Y1590770D03*
X26975080Y1704120D03*
X27658580Y2541420D03*
X27587870Y2612130D03*
X27517160Y2682840D03*
X27658580D03*
X27587870Y2753550D03*
X27367300Y2251780D03*
X27253970Y2230410D03*
X27275340Y2343740D03*
X27162010Y2322360D03*
X27551210Y2067870D03*
X27437890Y2046490D03*
X27459260Y2159820D03*
X27345930Y2138450D03*
X27658580Y2824260D03*
X27296120Y5422690D03*
X27186030Y5213700D03*
X27052530Y4976820D03*
X27407650Y5633390D03*
X27545040Y5874920D03*
X27729290Y2612130D03*
X27800000Y2682840D03*
X27729290Y2753550D03*
X27800000Y2400000D03*
X27729290Y2470710D03*
X27870710D03*
X27800000Y2541420D03*
X27941420D03*
X27870710Y2612130D03*
X28371540Y3284460D03*
X28392900Y3397790D03*
X28279580Y3376420D03*
X28550000Y2900000D03*
X28668770Y3121930D03*
X28555450Y3100550D03*
X28463490Y3192510D03*
X28484860Y3305840D03*
X28576810Y3213880D03*
X28878570Y5447990D03*
X28598050Y5978250D03*
X28832190Y7446350D03*
X28847990Y7276440D03*
X28847360Y7193580D03*
X28851020Y7374400D03*
X29350000Y3350000D03*
X29300000Y3400000D03*
Y3300000D03*
X29250000Y3350000D03*
X29200000Y3250000D03*
X29358580Y4091420D03*
X29287870Y4162130D03*
X29429290D03*
X29500000Y3950000D03*
X29429290Y4020710D03*
X29570710D03*
X29500000Y4091420D03*
X29641420D03*
X29570710Y4162130D03*
X29217160Y4232840D03*
X29358580D03*
X29287870Y4303550D03*
X29500000Y4232840D03*
X29429290Y4303550D03*
X29358580Y4374260D03*
X29800000Y5600000D03*
X29850000Y5650000D03*
X29257180Y7649300D03*
X29500000Y7450000D03*
X29663540Y7679590D03*
X29364690Y8468720D03*
X29315910Y8188520D03*
X29289220Y7968990D03*
X29796820Y7899570D03*
X29440090Y8968270D03*
X29401750Y8716760D03*
X29477600Y9217520D03*
X29515180Y9466960D03*
X29620290Y17127700D03*
X29751170Y16914340D03*
X29483390Y17357650D03*
X29351330Y17574290D03*
X30100000Y4150000D03*
X29950000Y4200000D03*
X30008580Y4691420D03*
X29937870Y4762130D03*
X29867160Y4832840D03*
X30079290Y4762130D03*
X30008580Y4832840D03*
X29937870Y4903550D03*
X30150000Y4832840D03*
X30079290Y4903550D03*
Y4620710D03*
X30220710D03*
X30150000Y4691420D03*
X30291420D03*
X30220710Y4762130D03*
X30150000Y4550000D03*
X30008580Y4974260D03*
X30550000Y5000000D03*
X30500000Y5050000D03*
X30450000Y5100000D03*
X30400000Y5150000D03*
X30350000Y5200000D03*
X30300000Y5250000D03*
X30565830Y5263100D03*
X30323650Y5388750D03*
X29922880Y8099740D03*
X30483650Y9932810D03*
X30381680Y10568090D03*
X30500000Y12000000D03*
X30550000Y11750000D03*
X30350000Y12800000D03*
X30400000Y12550000D03*
X30450000Y12300000D03*
X30200000Y13550000D03*
X30300000Y13050000D03*
X30250000Y13300000D03*
X30000000Y13800000D03*
X30150000D03*
X30009370Y16497310D03*
X30145390Y16269770D03*
X30285910Y16029880D03*
X29872910Y16726040D03*
X30525000Y18700000D03*
X30565370Y18578810D03*
X29928750Y18618480D03*
X30500000Y19075000D03*
X30575000Y19375000D03*
X30250000Y19700000D03*
X30800000Y4750000D03*
X30750000Y4800000D03*
X30700000Y4850000D03*
X30650000Y4900000D03*
X30600000Y4950000D03*
X30650000Y4750000D03*
X30592060Y4842060D03*
X30858580Y5591420D03*
X30787870Y5662130D03*
X30929290D03*
X31000000Y5450000D03*
X30929290Y5520710D03*
X31070710D03*
X31000000Y5591420D03*
X31141420D03*
X31070710Y5662130D03*
X30679150Y5284470D03*
X30657790Y5171140D03*
X30771110Y5192520D03*
X30850000Y5900000D03*
X30858580Y5732840D03*
X30787870Y5803550D03*
X31000000Y5732840D03*
X30929290Y5803550D03*
X30700000Y5750000D03*
X30986020Y9491430D03*
X31128670Y10200990D03*
X31300000Y11200000D03*
X31050000Y11100000D03*
X31150000Y11050000D03*
X31250000Y11000000D03*
X31000000Y14300000D03*
Y19375000D03*
X30875000Y19175000D03*
X30975000Y18925000D03*
X30650000Y19800000D03*
X31000000Y19575000D03*
X32036950Y6607220D03*
X31853040Y6791130D03*
X31944990Y6699180D03*
X31966360Y6812510D03*
X31650000Y8700000D03*
X31400000Y11150000D03*
X31350000Y10950000D03*
X31550000Y14050000D03*
X31500000Y14750000D03*
X31702750Y15154650D03*
Y14900650D03*
Y15027650D03*
Y15789650D03*
Y15281650D03*
Y15535650D03*
Y15662650D03*
Y15408650D03*
Y15916650D03*
Y16043650D03*
Y16170650D03*
Y16297650D03*
Y16424650D03*
Y16551650D03*
Y16678650D03*
Y16805650D03*
Y16932650D03*
Y17059650D03*
Y17186650D03*
X31950000Y17750000D03*
Y17650000D03*
Y17550000D03*
X31737100Y17662900D03*
X31750000Y17750000D03*
X31850000D03*
Y17650000D03*
X31750000Y17550000D03*
X31850000D03*
X31750000Y17850000D03*
X31850000D03*
X31650000D03*
X31550000D03*
X31450000D03*
X31650000Y17500000D03*
X31550000D03*
X31350000D03*
Y17850000D03*
X32128910Y6515260D03*
X32242240Y6536640D03*
X32150280Y6628590D03*
X32058320Y6720550D03*
X32200000Y7937710D03*
X32157020Y8142980D03*
X32700000Y8400000D03*
Y8500000D03*
X32600000Y8400000D03*
X32500000D03*
X32600000Y8500000D03*
X32500000D03*
X32700000Y8300000D03*
X32600000D03*
X32500000D03*
X32200000Y8500000D03*
X32347920Y7890250D03*
X32412950Y7985500D03*
X32477970Y7890250D03*
X32542990Y7985500D03*
X32700000Y9300000D03*
X32600000D03*
X32500000D03*
X32400000D03*
X32700000Y9400000D03*
Y9500000D03*
X32600000Y9400000D03*
X32500000D03*
X32400000D03*
X32600000Y9500000D03*
X32500000D03*
X32400000D03*
X32379670Y9858750D03*
X32444690Y9954000D03*
X32509710Y9858750D03*
X32574740Y9954000D03*
X32400000Y12000000D03*
X32700000D03*
X32600000D03*
X32500000D03*
X32700000Y12100000D03*
X32600000D03*
X32500000D03*
X32400000D03*
X32700000Y12200000D03*
X32600000D03*
X32500000D03*
X32400000D03*
X32347920Y11573250D03*
X32412940Y11668500D03*
X32477960Y11573250D03*
X32542990Y11668500D03*
X32608010Y11573250D03*
X32673040Y11668500D03*
X32738060Y11573250D03*
X32700000Y12950000D03*
X32600000D03*
X32500000D03*
X32400000D03*
X32700000Y13050000D03*
Y13150000D03*
X32600000Y13050000D03*
X32500000D03*
X32400000D03*
X32600000Y13150000D03*
X32500000D03*
X32400000D03*
X32379670Y13573500D03*
X32444690Y13668750D03*
X32509710Y13573500D03*
X32574740Y13668750D03*
X32639760Y13573500D03*
X32704790Y13668750D03*
X32769810Y13573500D03*
X32900000Y8400000D03*
X32800000D03*
X32900000Y8500000D03*
X32800000D03*
X32900000Y8300000D03*
X32800000D03*
Y9300000D03*
Y9400000D03*
Y9500000D03*
Y12000000D03*
Y12100000D03*
Y12200000D03*
X32803080Y11668500D03*
X32800000Y12950000D03*
Y13050000D03*
Y13150000D03*
X32834830Y13668750D03*
X32805350Y15154650D03*
Y15027650D03*
Y14900650D03*
X32900000Y15700000D03*
X32805350Y15662650D03*
Y15535650D03*
Y15408650D03*
Y15281650D03*
Y15789650D03*
Y16551650D03*
Y16424650D03*
Y16297650D03*
Y15916650D03*
Y16170650D03*
Y16043650D03*
X33000010Y17049990D03*
X32805350Y16932650D03*
Y16805650D03*
Y16678650D03*
Y17186650D03*
Y17313650D03*
G54D40*
G01X3369660Y7471570D02*
G03X3741640Y6573550I1269998J10D01*
G01X3369660Y18693020D02*
Y7471570D01*
G01X4639660Y19963020D02*
G03X3369660Y18693020I0J-1270000D01*
G01X3741640Y6573550D02*
X10617690Y-302510D01*
G01X7878160Y19963020D02*
X4639660D01*
G01X8513160Y19212950D02*
G03X28071160I9779000J-5917432D01*
G01X8513160Y19328020D02*
G03X7878160Y19963020I-635000J0D01*
G01X8513160Y19212960D02*
Y19328020D01*
G01X10617690Y-302510D02*
G03X11515710Y-674480I898021J898030D01*
G01D02*
X25068610D01*
G01D02*
G03X25966640Y-302510I8J1270002D01*
G01D02*
X32842690Y6573550D01*
G01X28706160Y19963020D02*
G03X28071160Y19328020I0J-635000D01*
G01D02*
Y19212960D01*
G01X31944660Y19963020D02*
X28706160D01*
G01X33214660Y18693020D02*
G03X31944660Y19963020I-1270000J0D01*
G01X32842690Y6573550D02*
G03X33214660Y7471570I-898029J898021D01*
G01D02*
Y18693020D01*
G54D22*
X6761700Y7206750D03*
X7239340Y7380410D03*
X29344980Y19210630D03*
X29822620Y19384290D03*
G54D13*
X4037860Y17267600D03*
G54D31*
X30106210Y5606190D03*
X29964790Y5747610D03*
G54D23*
X9928990Y3956840D03*
X9539550Y3630290D03*
G54D32*
X30679750Y19585700D03*
X30870250D03*
X30775000Y19164300D03*
X30679750Y18935700D03*
X30870250D03*
X30775000Y19814300D03*
G54D14*
X4068160Y10755520D03*
Y18375520D03*
X4095750Y19320250D03*
X11688160Y341520D03*
X24896160D03*
X32516160Y10755520D03*
Y18375520D03*
X32512000Y19320250D03*
G54D24*
X13373100Y1219610D03*
X13627370Y1659660D03*
G54D15*
X4160560Y14636640D03*
Y14836640D03*
X3906480Y14636640D03*
Y14836640D03*
X3970000Y15637080D03*
Y15837080D03*
X4478160Y15637080D03*
Y15837080D03*
X32000000Y8900000D03*
Y8700000D03*
X32029400Y12038000D03*
Y11838000D03*
Y12193600D03*
Y12393600D03*
X32200000Y7650000D03*
Y7850000D03*
G54D33*
X32023050Y14900650D03*
Y15027650D03*
Y15154650D03*
Y15281650D03*
Y15408650D03*
Y15535650D03*
Y15662650D03*
Y15789650D03*
Y15916650D03*
Y16043650D03*
Y16170650D03*
Y16297650D03*
Y16424650D03*
Y16551650D03*
Y16678650D03*
Y16805650D03*
Y16932650D03*
Y17059650D03*
Y17186650D03*
Y17313650D03*
X32485050Y15154650D03*
Y15027650D03*
Y14900650D03*
Y15789650D03*
Y15662650D03*
Y15535650D03*
Y15408650D03*
Y15281650D03*
Y16551650D03*
Y16424650D03*
Y16297650D03*
Y16170650D03*
Y16043650D03*
Y15916650D03*
Y17313650D03*
Y17186650D03*
Y17059650D03*
Y16932650D03*
Y16805650D03*
Y16678650D03*
G54D16*
X4210580Y16277000D03*
X4040400D03*
X3870220D03*
X3700040D03*
X4380760D03*
G54D25*
X17799960Y265460D03*
X17888380Y765940D03*
G54D34*
X32400000Y7699990D03*
Y7800010D03*
G54D17*
X5719220Y10070940D03*
X5806100Y9832260D03*
X5545480Y10548300D03*
X5632350Y10309620D03*
X5374590Y12279600D03*
Y12025600D03*
Y11771600D03*
Y12787600D03*
Y12533600D03*
Y13549600D03*
Y13295600D03*
Y13041600D03*
Y14311600D03*
Y14057600D03*
Y13803600D03*
Y15073600D03*
Y14819600D03*
Y14565600D03*
X5719280Y16520260D03*
X5632400Y16281580D03*
X5806150Y16758940D03*
X6501080Y7922800D03*
X6240460Y8638850D03*
X6327330Y8400160D03*
X6414210Y8161480D03*
X6544350Y9289870D03*
X5979840Y9354890D03*
X6066710Y9116210D03*
X6153590Y8877530D03*
X6283740Y10005920D03*
X6370610Y9767230D03*
X6457480Y9528550D03*
X5892970Y9593570D03*
X6023120Y10721960D03*
X6109990Y10483280D03*
X6196860Y10244600D03*
X5882820Y12279420D03*
Y12025420D03*
Y11771420D03*
Y12787420D03*
Y12533420D03*
Y13549420D03*
Y13295420D03*
Y13041420D03*
Y14311420D03*
Y14057420D03*
Y13803420D03*
Y15073420D03*
Y14819420D03*
Y14565420D03*
X6283670Y16584950D03*
X6196800Y16346270D03*
X6109920Y16107590D03*
X6544290Y17301000D03*
X6457420Y17062310D03*
X6370540Y16823630D03*
X5979900Y17236300D03*
X5893020Y16997620D03*
X6240520Y17952350D03*
X6153640Y17713670D03*
X6066770Y17474990D03*
X6501130Y18668400D03*
X6414260Y18429710D03*
X6327390Y18191030D03*
X7253800Y6354350D03*
X7065590Y7857780D03*
X7152470Y7619100D03*
X6587950Y7684120D03*
X6674830Y7445440D03*
X6804970Y8573820D03*
X6891850Y8335140D03*
X6978720Y8096460D03*
X6631230Y9051190D03*
X6718100Y8812510D03*
X6804910Y18017040D03*
X6718040Y17778360D03*
X6631160Y17539680D03*
X7065530Y18733090D03*
X6978650Y18494410D03*
X6891780Y18255720D03*
X7239270Y19210450D03*
X7152400Y18971770D03*
X6761750Y19384440D03*
X6674880Y19145760D03*
X6588010Y18907080D03*
X7906870Y5576050D03*
X7806510Y6486320D03*
X7969780Y6291750D03*
X7417070Y6159770D03*
X7580340Y5965200D03*
X7743610Y5770620D03*
X7643240Y6680900D03*
X8396680Y4992320D03*
X8559950Y4797750D03*
X8723210Y4603170D03*
X8459580Y5708020D03*
X8622850Y5513450D03*
X8070140Y5381470D03*
X8233410Y5186900D03*
X8133050Y6097170D03*
X8296310Y5902600D03*
X9049750Y4214020D03*
X9213020Y4019440D03*
X9376290Y3824870D03*
X9112650Y4929720D03*
X9275920Y4735150D03*
X9439190Y4540570D03*
X8886480Y4408600D03*
X8786120Y5318870D03*
X8949390Y5124300D03*
X9765730Y4151420D03*
X9602460Y4345990D03*
X10733460Y2743610D03*
X10547790Y3437660D03*
X10767760Y3310660D03*
X10293520Y2997610D03*
X10513490Y2870610D03*
X11647640Y2802660D03*
X10953430Y2616610D03*
X11173400Y2489610D03*
X11393370Y2362610D03*
X11613340Y2235610D03*
X10987730Y3183660D03*
X11207700Y3056660D03*
X11427670Y2929660D03*
X11833310Y2108610D03*
X12053280Y1981610D03*
X12273250Y1854610D03*
X11867610Y2675660D03*
X12087580Y2548660D03*
X12307550Y2421660D03*
X12967460Y2040660D03*
X12493220Y1727610D03*
X12713190Y1600610D03*
X12933160Y1473610D03*
X12527520Y2294660D03*
X12747490Y2167660D03*
X13153130Y1346610D03*
X13187430Y1913660D03*
X13407400Y1786660D03*
X14297990Y882950D03*
X14548130Y838850D03*
X14386410Y1383430D03*
X14636550Y1339330D03*
X14886690Y1295220D03*
X15136830Y1251110D03*
X14798270Y794740D03*
X15048410Y750630D03*
X15298550Y706530D03*
X15798830Y618310D03*
X15386970Y1207010D03*
X15637110Y1162900D03*
X15887250Y1118790D03*
X15548690Y662420D03*
X16048980Y574210D03*
X16299120Y530100D03*
X16549260Y485990D03*
X16137400Y1074690D03*
X16387540Y1030580D03*
X16637680Y986470D03*
X16799400Y441890D03*
X17049540Y397780D03*
X17299680Y353670D03*
X16887820Y942370D03*
X17137960Y898260D03*
X17388100Y854150D03*
X17549820Y309570D03*
X17638240Y810050D03*
X18784210Y265440D03*
X18696130Y765980D03*
X18946270Y810080D03*
X19034350Y309540D03*
X19284490Y353650D03*
X19534630Y397760D03*
X19196410Y854190D03*
X19446550Y898300D03*
X19696690Y942400D03*
X19784770Y441860D03*
X20034910Y485970D03*
X20285050Y530080D03*
X19946830Y986510D03*
X20196970Y1030620D03*
X20535200Y574180D03*
X20785340Y618290D03*
X20447120Y1074720D03*
X20697260Y1118830D03*
X20947400Y1162940D03*
X21035480Y662400D03*
X21197540Y1207040D03*
X21447680Y1251150D03*
X21697820Y1295260D03*
X21285620Y706500D03*
X21535760Y750610D03*
X21785900Y794720D03*
X21947960Y1339360D03*
X22036040Y838820D03*
X23211090Y1219530D03*
X22957130Y1659760D03*
X23177100Y1786760D03*
X23431060Y1346530D03*
X23397070Y1913760D03*
X23617040Y2040760D03*
X23651030Y1473530D03*
X23871000Y1600530D03*
X24090970Y1727530D03*
X23837010Y2167760D03*
X24056980Y2294760D03*
X24310940Y1854530D03*
X24530910Y1981530D03*
X24750880Y2108530D03*
X24276950Y2421760D03*
X24496920Y2548760D03*
X24716890Y2675760D03*
X24936860Y2802760D03*
X24970850Y2235530D03*
X25190820Y2362530D03*
X25410790Y2489530D03*
X25156830Y2929760D03*
X25376800Y3056760D03*
X25630760Y2616530D03*
X25850730Y2743530D03*
X25596770Y3183760D03*
X25816740Y3310760D03*
X26070700Y2870530D03*
X26655450Y3956990D03*
X26818720Y4151570D03*
X26981990Y4346140D03*
X27044670Y3630180D03*
X27207940Y3824760D03*
X27371210Y4019330D03*
X27534480Y4213910D03*
X27697740Y4408480D03*
X27145260Y4540720D03*
X27308520Y4735290D03*
X27471790Y4929870D03*
X27635060Y5124440D03*
X27861010Y4603060D03*
X28024280Y4797630D03*
X28187550Y4992210D03*
X28350820Y5186780D03*
X27798330Y5319020D03*
X27961600Y5513590D03*
X28124860Y5708170D03*
X28288130Y5902740D03*
X28451400Y6097320D03*
X28514080Y5381360D03*
X28677350Y5575930D03*
X28840620Y5770510D03*
X29003890Y5965090D03*
X29167160Y6159660D03*
X28614670Y6291900D03*
X28777940Y6486470D03*
X29822580Y7206600D03*
X29345060Y7380590D03*
X29431930Y7619270D03*
X29518800Y7857950D03*
X29909450Y7445280D03*
X29605680Y8096630D03*
X29692550Y8335320D03*
X29779420Y8574000D03*
X29866290Y8812680D03*
X29866220Y17778530D03*
X29779350Y18017220D03*
X29692470Y18255900D03*
X29605600Y18494580D03*
X29518730Y18733260D03*
X29431850Y18971940D03*
X29909490Y19145600D03*
X29996320Y7683960D03*
X30083200Y7922640D03*
X30170070Y8161330D03*
X30256940Y8400010D03*
X30343810Y8638690D03*
X29953170Y9051360D03*
X30040040Y9290040D03*
X30430690Y8877370D03*
X30517560Y9116050D03*
X30604430Y9354740D03*
X30126910Y9528730D03*
X30213790Y9767410D03*
X30300660Y10006090D03*
X30387530Y10244770D03*
X30474410Y10483450D03*
X30561200Y15869080D03*
X30474330Y16107760D03*
X30387460Y16346440D03*
X30300580Y16585120D03*
X30213710Y16823810D03*
X30126840Y17062490D03*
X30039970Y17301170D03*
X30604480Y17236150D03*
X29953090Y17539850D03*
X30517610Y17474830D03*
X30430730Y17713510D03*
X30343860Y17952190D03*
X30256990Y18190880D03*
X30170110Y18429560D03*
X30083240Y18668240D03*
X29996370Y18906920D03*
X30691310Y9593420D03*
X30778180Y9832100D03*
X30865050Y10070780D03*
X30951930Y10309460D03*
X30701500Y11517620D03*
X31209730Y11517440D03*
X30701500Y11771620D03*
Y12025620D03*
Y12279620D03*
X31209730Y11771440D03*
Y12025440D03*
Y12279440D03*
X30701500Y12533620D03*
Y12787620D03*
X31209730Y12533440D03*
Y12787440D03*
X30701500Y13041620D03*
Y13295620D03*
Y13549620D03*
X31209730Y13041440D03*
Y13295440D03*
Y13549440D03*
X30701500Y13803620D03*
Y14057620D03*
Y14311620D03*
X31209730Y13803440D03*
Y14057440D03*
Y14311440D03*
X30701500Y14565620D03*
Y14819620D03*
X31209730Y14565440D03*
Y14819440D03*
X31038840Y16042740D03*
X30951970Y16281420D03*
X30865100Y16520100D03*
X30778220Y16758780D03*
X30691350Y16997470D03*
G54D26*
X22286180Y882930D03*
X22198100Y1383470D03*
G54D35*
X32738060Y8142980D03*
X32673040D03*
X32608010D03*
X32542990D03*
X32477960D03*
X32412940D03*
X32347920D03*
X32282890D03*
X32217870D03*
Y8717020D03*
X32282890D03*
X32347920D03*
X32412940D03*
X32477960D03*
X32542990D03*
X32608010D03*
X32673040D03*
X32738060D03*
X32769810Y9000230D03*
X32704790D03*
X32639760D03*
X32574740D03*
X32509710D03*
X32444690D03*
X32379670D03*
Y9701270D03*
X32444690D03*
X32509710D03*
X32574740D03*
X32639760D03*
X32704790D03*
X32769810D03*
X32738060Y11825980D03*
X32673040D03*
X32608010D03*
X32542990D03*
X32477960D03*
X32412940D03*
X32347920D03*
X32282890D03*
X32217870D03*
Y12400020D03*
X32282890D03*
X32347920D03*
X32412940D03*
X32477960D03*
X32542990D03*
X32608010D03*
X32673040D03*
X32738060D03*
X32769810Y12714980D03*
X32704790D03*
X32639760D03*
X32574740D03*
X32509710D03*
X32444690D03*
X32379670D03*
Y13416020D03*
X32444690D03*
X32509710D03*
X32574740D03*
X32639760D03*
X32704790D03*
X32769810D03*
X32933130Y8142980D03*
X32868110D03*
X32803080D03*
Y8717020D03*
X32868110D03*
X32933130D03*
X32834830Y9000230D03*
Y9701270D03*
X32933130Y11825980D03*
X32868110D03*
X32803080D03*
Y12400020D03*
X32868110D03*
X32933130D03*
X32834830Y12714980D03*
Y13416020D03*
G54D18*
X5545530Y16042890D03*
X6023050Y15868900D03*
X30561280Y10722140D03*
X31038800Y10548150D03*
G54D27*
X26075070Y591720D03*
X26029090Y637700D03*
X25983120Y683670D03*
X25937130Y729660D03*
X25891160Y775630D03*
X25845170Y821620D03*
X25799200Y867590D03*
X25753220Y913570D03*
X26248930Y1409280D03*
X26910430Y1179660D03*
X26864450Y1225640D03*
X26818470Y1271620D03*
X26772490Y1317600D03*
X26340880Y1317330D03*
X26386870Y1271340D03*
X26432840Y1225370D03*
X26478830Y1179380D03*
X26524800Y1133410D03*
X26570780Y1087430D03*
X26726520Y1363580D03*
X26680530Y1409560D03*
X26634560Y1455530D03*
X26588580Y1501520D03*
X26542600Y1547490D03*
X26496620Y1593470D03*
X26450640Y1639450D03*
X26404660Y1685430D03*
X26856550Y2045360D03*
X26902530Y1999380D03*
X26948510Y1953400D03*
X26294910Y1363300D03*
X26810570Y2091340D03*
X26994480Y1907420D03*
X27040470Y1861440D03*
X27086440Y1815470D03*
X27132420Y1769480D03*
X27178400Y1723510D03*
X27224380Y1677530D03*
X27270360Y1631550D03*
X27316340Y1585570D03*
X27662570Y2179220D03*
X27616590Y2225200D03*
X27570620Y2271170D03*
X27524630Y2317160D03*
X27478660Y2363130D03*
X27432670Y2409120D03*
X27386700Y2455090D03*
X27340720Y2501070D03*
X28420200Y2781390D03*
X28020340Y2812870D03*
X28066330Y2766880D03*
X28112300Y2720910D03*
X28158280Y2674930D03*
X28374220Y2827370D03*
X28328240Y2873350D03*
X28282270Y2919330D03*
X28236280Y2965310D03*
X28190310Y3011280D03*
X28144330Y3057270D03*
X28098350Y3103240D03*
X28052370Y3149220D03*
X28006390Y3195200D03*
X27960410Y3241180D03*
X27836430Y2996780D03*
X27882410Y2950800D03*
X27928380Y2904830D03*
X27974370Y2858840D03*
X28366320Y3647090D03*
X28412300Y3601110D03*
X28466180Y2735410D03*
X28504260Y3509150D03*
X28550230Y3463170D03*
X28596220Y3417190D03*
X28642190Y3371220D03*
X28688170Y3325230D03*
X28734150Y3279260D03*
X28780130Y3233280D03*
X28826110Y3187300D03*
X28872090Y3141320D03*
X28458280Y3555130D03*
X29158120Y3890420D03*
X29112130Y3936410D03*
X29066160Y3982380D03*
X29020170Y4028370D03*
X28974200Y4074340D03*
X28928220Y4120320D03*
X29250070Y3798470D03*
X29204090Y3844450D03*
X29901520Y4538580D03*
X29855530Y4584560D03*
X29809560Y4630530D03*
X29763580Y4676520D03*
X29717600Y4722490D03*
X29671620Y4768470D03*
X29625640Y4814450D03*
X29579660Y4860430D03*
X29423930Y4616030D03*
X29469910Y4570050D03*
X29515880Y4524080D03*
X29561870Y4478090D03*
X29607840Y4432120D03*
X29653830Y4386130D03*
X29699800Y4340160D03*
X29745780Y4294180D03*
X30085430Y4354660D03*
X30039450Y4400640D03*
X29993470Y4446620D03*
X29947490Y4492600D03*
X30261440Y4990470D03*
X30307420Y4944480D03*
X30353400Y4898510D03*
X30399380Y4852530D03*
X30445360Y4806550D03*
X30491340Y4760570D03*
X30606600Y5579740D03*
X30560620Y5625720D03*
X30514640Y5671700D03*
X30468660Y5717680D03*
X29985570Y5266340D03*
X30031550Y5220360D03*
X30077530Y5174380D03*
X30123510Y5128400D03*
X30169480Y5082420D03*
X30215470Y5036440D03*
X31288380Y5709780D03*
X31334360Y5663800D03*
X30974430Y5211910D03*
X30928450Y5257890D03*
X30882470Y5303870D03*
X30836490Y5349850D03*
X30790520Y5395830D03*
X30744530Y5441810D03*
X30698560Y5487780D03*
X30652580Y5533770D03*
X30874570Y6123590D03*
X30920550Y6077610D03*
X30966530Y6031630D03*
X31012510Y5985650D03*
X31058480Y5939670D03*
X31104470Y5893690D03*
X31150440Y5847720D03*
X31196420Y5801730D03*
X31242400Y5755760D03*
X31337920Y6092120D03*
X31291950Y6138090D03*
X31245970Y6184070D03*
X31380340Y5617820D03*
X31567820Y5862220D03*
X31521840Y5908200D03*
X31475870Y5954170D03*
X31429880Y6000160D03*
X31383910Y6046130D03*
X31971580Y6449880D03*
X32017550Y6403910D03*
X32063530Y6357930D03*
X31741680Y6679780D03*
X31787660Y6633800D03*
X31833630Y6587830D03*
X31879620Y6541840D03*
X31925590Y6495870D03*
G54D36*
G01X26386870Y1271340D02*
X26461290Y1345760D01*
Y1374230D01*
X26588580Y1501520D01*
G01X26570780Y1087430D02*
X26645200Y1161850D01*
Y1190310D01*
X26772490Y1317600D01*
G01X26524800Y1133410D02*
X26599220Y1207830D01*
Y1236280D01*
X26726520Y1363580D01*
G01X26432840Y1225370D02*
X26507260Y1299790D01*
Y1328230D01*
X26634560Y1455530D01*
G01X26478830Y1179380D02*
X26553250Y1253800D01*
Y1282280D01*
X26680530Y1409560D01*
G01X26248930Y1409280D02*
X26323350Y1483700D01*
Y1512160D01*
X26450640Y1639450D01*
G01X26340880Y1317330D02*
X26415300Y1391750D01*
Y1420190D01*
X26542600Y1547490D01*
G01X26294910Y1363300D02*
X26369330Y1437720D01*
Y1466180D01*
X26496620Y1593470D01*
G01X28112300Y2720910D02*
X28186720Y2795330D01*
Y2823780D01*
X28282270Y2919330D01*
G01X28158280Y2674930D02*
X28232700Y2749350D01*
Y2777810D01*
X28328240Y2873350D01*
G01X27974370Y2858840D02*
X28048790Y2933260D01*
Y2961730D01*
X28144330Y3057270D01*
G01X27882410Y2950800D02*
X27956830Y3025220D01*
Y3053680D01*
X28052370Y3149220D01*
G01X27928380Y2904830D02*
X28002800Y2979250D01*
Y3007690D01*
X28098350Y3103240D01*
G01X28020340Y2812870D02*
X28094760Y2887290D01*
Y2915730D01*
X28190310Y3011280D01*
G01X28066330Y2766880D02*
X28140750Y2841300D01*
Y2869780D01*
X28236280Y2965310D01*
G01X27836430Y2996780D02*
X27910850Y3071200D01*
Y3099660D01*
X28006390Y3195200D01*
G01X30353400Y4898510D02*
X30399380Y4852530D01*
G01X30307420Y4944480D02*
X30307430D01*
X30353400Y4898510D01*
G01X30560620Y5625720D02*
X30606600Y5579740D01*
G01X30077530Y5174380D02*
X30151950Y5248800D01*
X30183700D01*
X30323650Y5388750D01*
G01X30261440Y4990470D02*
Y4990460D01*
X30307420Y4944480D01*
G01X30215470Y5036440D02*
X30261440Y4990470D01*
G01X30169480Y5082420D02*
X30169490D01*
X30215470Y5036440D01*
G01X30123510Y5128400D02*
Y5128390D01*
X30169480Y5082420D01*
G01X30077530Y5174380D02*
X30123510Y5128400D01*
G01X30323650Y5388750D02*
X30560620Y5625720D01*
G01X30106210Y5606190D02*
X30323650Y5388750D01*
G01X30300000Y18950000D02*
Y18750000D01*
X30450000Y18600000D01*
Y18100000D01*
X30625000Y17925000D01*
X30775000D01*
X31000000Y17700000D01*
Y17500000D01*
X31186350Y17313650D01*
X32023050D01*
G01X30675000Y18700000D02*
X30525000D01*
G01X30450000Y19375000D02*
Y19575000D01*
G01X32485050Y17059650D02*
X32805350D01*
X32975000Y17229300D01*
Y17650000D01*
X32750000Y17875000D01*
X32125000D01*
X31950000Y18050000D01*
Y19000000D01*
X31700000Y19250000D01*
X30282300D01*
X30250000Y19282300D01*
Y19375000D01*
G01X30500000Y18950000D02*
X30591950D01*
X30606250Y18935700D01*
X30679750D01*
G01X30500000Y18950000D02*
Y19075000D01*
G01X30250000Y19575000D02*
Y19700000D01*
G01X30450000Y19575000D02*
X30595550D01*
X30606250Y19585700D01*
X30679750D01*
G01X30606600Y5579740D02*
X30606610D01*
X30652580Y5533770D01*
G01X30698560Y5487780D02*
Y5487790D01*
X30652580Y5533770D01*
G01X31429880Y6000160D02*
X31355460Y5925740D01*
X31320430D01*
X31196420Y5801730D01*
G01X31337920Y6092120D02*
X31263500Y6017700D01*
X31228480D01*
X31104470Y5893690D01*
G01X31291950Y6138090D02*
X31217530Y6063670D01*
X31182480D01*
X31058480Y5939670D01*
G01X31245970Y6184070D02*
X31171550Y6109650D01*
X31136510D01*
X31012510Y5985650D01*
G01X31383910Y6046130D02*
X31309490Y5971710D01*
X31274430D01*
X31150440Y5847720D01*
G01X31475870Y5954170D02*
X31401450Y5879750D01*
X31366390D01*
X31242400Y5755760D01*
G01X31521840Y5908200D02*
X31447420Y5833780D01*
X31412380D01*
X31288380Y5709780D01*
G01X30875000Y18700000D02*
Y18847290D01*
X30870250Y18852040D01*
Y18935700D01*
G01X30875000Y19375000D02*
X31000000D01*
G01X30775000Y19164300D02*
X30864300D01*
G01D02*
X30875000Y19175000D01*
G01X30870250Y18935700D02*
X30964300D01*
X30975000Y18925000D01*
G01X30675000Y19375000D02*
X30575000D01*
G01X30775000Y19814300D02*
X30664300D01*
G01D02*
X30650000Y19800000D01*
G01X30870250Y19585700D02*
X30989300D01*
X31000000Y19575000D01*
G01X31567820Y5862220D02*
X31493400Y5787800D01*
X31458360D01*
X31334360Y5663800D01*
G01X32200000Y7850000D02*
X32214990D01*
X32286060Y7778930D01*
X32344800Y7699990D01*
X32400000D01*
G01Y7800010D02*
Y7847720D01*
X32412950Y7985500D01*
G01X32704790Y9000230D02*
Y8855540D01*
X32738060Y8822270D01*
Y8717020D01*
G01X32444690Y9000230D02*
Y8855540D01*
X32477960Y8822270D01*
Y8717020D01*
G01X32509710Y9000230D02*
Y8855550D01*
X32542990Y8822270D01*
Y8717020D01*
G01X32574740Y9000230D02*
Y8855540D01*
X32608010Y8822270D01*
Y8717020D01*
G01X32379670Y9000230D02*
Y8855540D01*
X32412940Y8822270D01*
Y8717020D01*
G01X32639760Y9000230D02*
Y8855550D01*
X32673040Y8822270D01*
Y8717020D01*
G01X32282890Y11931230D02*
X32351660Y12000000D01*
G01X32704790Y12714980D02*
Y12538540D01*
X32738060Y12505270D01*
Y12400020D01*
G01X32347920D02*
Y12505270D01*
G01Y12400020D02*
Y12294770D01*
G01D02*
X32392690Y12250000D01*
G01X32253190Y12600000D02*
X32200000D01*
G01X32347920Y12505270D02*
X32253190Y12600000D01*
G01X32132100Y12393600D02*
X32172240D01*
X32178660Y12400020D01*
G01X32639760Y12714980D02*
Y12538550D01*
X32673040Y12505270D01*
Y12400020D01*
G01X32574740Y12714980D02*
Y12538540D01*
X32608010Y12505270D01*
Y12400020D01*
G01X32379670Y12714980D02*
Y12538540D01*
X32412940Y12505270D01*
Y12400020D01*
G01X32444690Y12714980D02*
Y12538540D01*
X32477960Y12505270D01*
Y12400020D01*
G01X32509710Y12714980D02*
Y12538550D01*
X32542990Y12505270D01*
Y12400020D01*
G01X32769810Y9000230D02*
Y8855540D01*
X32803080Y8822270D01*
Y8717020D01*
G01X32834830Y9000230D02*
Y8855550D01*
X32868110Y8822270D01*
Y8717020D01*
G01X32769810Y12714980D02*
Y12538540D01*
X32803080Y12505270D01*
Y12400020D01*
G01X32834830Y12714980D02*
Y12538550D01*
X32868110Y12505270D01*
Y12400020D01*
X32254050Y14744650D03*
Y17467650D03*
G54D37*
G01X26864450Y1225640D02*
X26910430Y1179660D01*
G01D02*
X26828940Y1098170D01*
Y1078940D01*
X26800000Y1050000D01*
G01X27270360Y1631550D02*
X27351850Y1713040D01*
Y1751850D01*
X27400000Y1800000D01*
G01X27270360Y1631550D02*
X27316340Y1585570D01*
G01X28579290Y2629290D02*
X28473170Y2735410D01*
X28466180D01*
G01X28420200Y2781390D02*
X28466180Y2735410D01*
G01D02*
Y2816180D01*
X28550000Y2900000D01*
G01X28826110Y3187300D02*
X28872090Y3141320D01*
G01X29200000Y3250000D02*
X28970710Y3020710D01*
G01D02*
X28872090Y3119330D01*
Y3141320D01*
G01X29964790Y5747610D02*
X29892170Y5674990D01*
X29874990D01*
X29850000Y5650000D01*
G01X30085430Y4354660D02*
X30003940Y4273170D01*
Y4253940D01*
X29950000Y4200000D01*
G01X30100000Y4150000D02*
X30179290Y4229290D01*
G01X30039450Y4400640D02*
X30085430Y4354660D01*
G01X30179290Y4229290D02*
X30085430Y4323150D01*
Y4354660D01*
G01X30491340Y4760570D02*
X30572830Y4842060D01*
X30592060D01*
G01X30445360Y4806550D02*
X30491340Y4760570D01*
G01X30570710Y4670710D02*
X30650000Y4750000D01*
G01X30514640Y5671700D02*
X30468660Y5717680D01*
G01X30514640Y5671700D02*
X30592940Y5750000D01*
X30700000D01*
G01X29964790Y5747610D02*
X30078820Y5861640D01*
X30271690D01*
X30282290Y5851040D01*
G01X30468660Y5717680D02*
X30433860Y5752480D01*
X30380850D01*
X30282290Y5851040D01*
G01X30874570Y6123590D02*
X30839770Y6158390D01*
X30829280D01*
X30709460Y6278210D01*
G01X30920550Y6077610D02*
X30874570Y6123590D01*
G01X30920550Y6077610D02*
X30850000Y6007060D01*
Y5900000D01*
G01X32217870Y8717020D02*
X32119720D01*
X32102700Y8700000D01*
X32000000D01*
G01D02*
X31650000D01*
G01X32217870Y11825980D02*
X32144120D01*
X32132100Y11838000D01*
X32029400D01*
G01X32132100Y12393600D02*
X32029400D01*
G01X32023050Y15154650D02*
X31702750D01*
G01X32023050Y14900650D02*
X31702750D01*
G01X32023050Y15027650D02*
X31702750D01*
G01X32023050Y15789650D02*
X31702750D01*
G01X32023050Y15281650D02*
X31702750D01*
G01X32023050Y15535650D02*
X31702750D01*
G01X32023050Y15662650D02*
X31702750D01*
G01X32023050Y15408650D02*
X31702750D01*
G01X32023050Y15916650D02*
X31702750D01*
G01X32023050Y16043650D02*
X31702750D01*
G01X32023050Y16170650D02*
X31702750D01*
G01X32023050Y16297650D02*
X31702750D01*
G01X32023050Y16424650D02*
X31702750D01*
G01X32023050Y16551650D02*
X31702750D01*
G01X32023050Y16678650D02*
X31702750D01*
G01X32023050Y16805650D02*
X31702750D01*
G01X32023050Y16932650D02*
X31702750D01*
G01X32023050Y17059650D02*
X31702750D01*
G01X32023050Y17186650D02*
X31702750D01*
G01X32200000Y7937710D02*
Y7850000D01*
G01X32217870Y8142980D02*
Y7955580D01*
X32200000Y7937710D01*
G01X32217870Y8142980D02*
X32282890D01*
G01X32217870D02*
X32157020D01*
G01X32217870Y8717020D02*
Y8517870D01*
X32200000Y8500000D01*
G01X32282890Y8717020D02*
X32217870D01*
G01Y11825980D02*
X32282890D01*
G01X32351660Y12000000D02*
X32400000D01*
G01X32282890Y11931230D02*
Y11941230D01*
X32341660Y12000000D01*
X32351660D01*
G01X32282890Y11825980D02*
Y11931230D01*
G01Y12400020D02*
Y12259410D01*
X32342300Y12200000D01*
X32400000D01*
G01X32282890Y12400020D02*
X32217870D01*
G01X32178660D02*
X32138520D01*
X32132100Y12393600D01*
G01X32217870Y12400020D02*
X32178660D01*
G01X32485050Y15154650D02*
X32805350D01*
G01X32485050Y15027650D02*
X32805350D01*
G01X32485050Y14900650D02*
X32805350D01*
G01X32485050Y15662650D02*
X32805350D01*
G01X32485050Y15535650D02*
X32805350D01*
G01X32485050Y15408650D02*
X32805350D01*
G01X32485050Y15281650D02*
X32805350D01*
G01X32485050Y15789650D02*
X32805350D01*
G01X32485050Y16551650D02*
X32805350D01*
G01X32485050Y16424650D02*
X32805350D01*
G01X32485050Y16297650D02*
X32805350D01*
G01X32485050Y15916650D02*
X32805350D01*
G01X32485050Y16170650D02*
X32805350D01*
G01X32485050Y16043650D02*
X32805350D01*
G01X32485050Y16932650D02*
X32805350D01*
G01X32485050Y16805650D02*
X32805350D01*
G01X32485050Y16678650D02*
X32805350D01*
G01X32485050Y17186650D02*
X32805350D01*
G01X32485050Y17313650D02*
X32805350D01*
G54D28*
X26036710Y3437760D03*
X26290670Y2997530D03*
G54D19*
X5251560Y18134960D03*
X5451560D03*
X30450000Y19375000D03*
X30250000D03*
X30450000Y19575000D03*
X30250000D03*
X30500000Y18950000D03*
X30300000D03*
X30875000Y18700000D03*
X30675000D03*
Y19375000D03*
X30875000D03*
G54D38*
G01X3510760Y14508020D02*
X3604760D01*
G01X3510760Y14838220D02*
X3604760D01*
G01X3428210Y15190910D02*
X3604760D01*
G01X3486660Y17267600D02*
X4037860D01*
G01X4068160Y10337720D02*
Y10755520D01*
G01D02*
Y11173320D01*
G01X3650360Y10755520D02*
X4068160D01*
G01D02*
X4485960D01*
G01X3604760Y14414020D02*
Y14508020D01*
G01X4160560Y14563830D02*
Y14636640D01*
G01D02*
X4248360D01*
G01X3604760Y14508020D02*
Y14602020D01*
G01X3906480Y14763830D02*
Y14836640D01*
G01D02*
Y14909450D01*
G01X4160560Y14763830D02*
Y14836640D01*
G01D02*
Y14909450D01*
G01Y14836640D02*
X4248360D01*
G01X3604760Y15090560D02*
Y15190910D01*
G01Y14744220D02*
Y14838220D01*
G01D02*
Y14932220D01*
G01X3970000Y15564270D02*
Y15637080D01*
G01D02*
Y15709890D01*
G01X3882200Y15637080D02*
X3970000D01*
G01D02*
X4057800D01*
G01X4208200Y15414460D02*
Y15508460D01*
G01D02*
Y15602460D01*
G01X4114200Y15508460D02*
X4208200D01*
G01D02*
X4302200D01*
G01X3604760Y15190910D02*
Y15291260D01*
G01Y15190910D02*
X3781310D01*
G01X3870220Y16144900D02*
Y16277000D01*
G01D02*
X3941360D01*
G01X3700040Y16144900D02*
Y16277000D01*
G01X3628900D02*
X3700040D01*
G01X3969260D02*
X4040400D01*
G01D02*
X4111540D01*
G01X4037860Y17267600D02*
X4589060D01*
G01X4068160Y18375520D02*
Y18793320D01*
G01X3650360Y18375520D02*
X4068160D01*
G01D02*
X4485960D01*
G01X4478160Y15564270D02*
Y15637080D01*
G01D02*
Y15709890D01*
G01X4390360Y15637080D02*
X4478160D01*
G01D02*
X4565960D01*
G01X5000200Y19352000D02*
X5118000D01*
G01X4699000Y18905200D02*
Y19005550D01*
G01D02*
Y19105900D01*
G01X4522450Y19005550D02*
X4699000D01*
G01D02*
X4875550D01*
G01X5573200Y12279980D02*
Y10776800D01*
X5750000Y10600000D01*
X6963960Y7214300D01*
G03X7150000Y6850000I1565370J569747D01*
G01X8073250Y5671350D01*
X9744500Y3679630D01*
X10174130Y3250000D01*
X11271530Y2659810D01*
X13523200Y1359810D01*
X14350000Y1050000D01*
X15329190Y898830D01*
X17889700Y447350D01*
X18700000Y450000D01*
X19787880Y618370D01*
X22348390Y1069860D01*
X22950000Y1300000D01*
X23998330Y1876790D01*
X26250000Y3176790D01*
X27126790D01*
X27900000Y3950000D01*
X28500000D01*
X28850000Y3600000D01*
X28959650D01*
X29025390Y3665740D01*
Y3665750D01*
X29204090Y3844450D01*
G01X5806150Y16758940D02*
X5888350Y16725260D01*
X5924170Y16642330D01*
X5897790Y16583440D01*
X5681270Y15988570D01*
G03X5523200Y15092120I2462930J-896447D01*
G01Y10776800D01*
X5700000Y10600000D01*
X6027720Y9640400D01*
X6916980Y7197190D01*
G03X7100000Y6850000I1359490J494816D01*
G01X8034950Y5639210D01*
X9706200Y3647490D01*
X10150000Y3203690D01*
X11246530Y2616510D01*
X13498200Y1316510D01*
X14350000Y1000000D01*
X15320510Y849590D01*
X17881010Y398110D01*
X18700000Y400000D01*
X19796570Y569140D01*
X22357070Y1020620D01*
X22950000Y1250000D01*
X24023330Y1833490D01*
X26275000Y3133490D01*
X26275090Y3133580D01*
X27183580D01*
X27900000Y3850000D01*
X28500000D01*
X28800000Y3550000D01*
X29001590D01*
X29138710Y3687120D01*
X29138720D01*
X29250070Y3798470D01*
G01X5374590Y11677600D02*
Y11771600D01*
G01D02*
Y11865600D01*
G01X5280590Y11771600D02*
X5374590D01*
G01D02*
X5468590D01*
G01X5632400Y16187580D02*
Y16281580D01*
G01D02*
Y16375580D01*
G01X5538400Y16281580D02*
X5632400D01*
G01D02*
X5726400D01*
G01X5251560Y18047160D02*
Y18134960D01*
G01X5122940Y18485600D02*
Y18579600D01*
G01X5028940D02*
X5122940D01*
G01D02*
X5216940D01*
G01X5178750Y18134960D02*
X5251560D01*
G01D02*
X5324370D01*
G01X5118000Y19352000D02*
Y19619800D01*
G01Y19352000D02*
X5235800D01*
G01X5588000Y19534200D02*
Y19652000D01*
G01D02*
Y19769800D01*
G01X5320200Y19652000D02*
X5588000D01*
G01D02*
X5855800D01*
G01X6350000Y13550000D02*
Y10866050D01*
X6518570Y10697480D01*
X6972680Y9449820D01*
G01X6300000Y13800000D02*
Y10851960D01*
X6471580Y10680380D01*
X6834260Y9683920D01*
G01X6250000Y14050000D02*
Y10837880D01*
X6424600Y10663280D01*
X6703370Y9897360D01*
G01X6200000Y14300000D02*
Y10823780D01*
X6377610Y10646170D01*
X6571240Y10114180D01*
G01X6439780Y10329170D02*
X7474970Y7485030D01*
G03X7998890Y6662650I2116729J770442D01*
G01X8140360Y6494050D01*
G01X6150000Y14550000D02*
Y10809700D01*
X6330630Y10629070D01*
X6439780Y10329170D01*
G01X6283640Y10611970D02*
X7429170Y7464670D01*
G03X7960590Y6630510I2147046J781466D01*
G01X6100310Y14850000D02*
G03X6100000Y14800000I3978172J-49666D01*
G01Y10795610D01*
X6283640Y10611970D01*
G01X7242710Y9000280D02*
X6612540Y10731680D01*
X6450000Y10894220D01*
Y13050000D01*
G01X6400000Y13300000D02*
Y10880130D01*
X6565550Y10714580D01*
X7107510Y9225570D01*
G01X5882820Y11677420D02*
Y11771420D01*
G01D02*
Y11865420D01*
G01X5788820Y11771420D02*
X5882820D01*
G01D02*
X5976820D01*
G01X6450000Y13050000D02*
Y14799990D01*
G02X6668830Y16041020I3628498J-3D01*
G01X7106160Y17242580D01*
G01X7177100Y17729860D02*
X6574860Y16075220D01*
G03X6350000Y14799990I3503638J-1275233D01*
G01Y13550000D01*
G01X7147260Y17501690D02*
X6621840Y16058100D01*
G03X6400000Y14799990I3456589J-1258107D01*
G01Y13300000D01*
G01X7206050Y17955610D02*
X6527870Y16092330D01*
G03X6300000Y14800010I3550641J-1292321D01*
G01Y13800000D01*
G01X7220850Y18142460D02*
X6480890Y16109460D01*
G03X6250000Y14800010I3597701J-1309449D01*
G01Y14050000D01*
G01X7263340Y18405380D02*
X6433910Y16126540D01*
G03X6200000Y14799990I3644599J-1326548D01*
G01Y14300000D01*
G01X7297890Y18646510D02*
X6386930Y16143660D01*
G03X6150000Y14799980I3691658J-1343676D01*
G01Y14550000D01*
G01X7349840Y18935420D02*
X6339930Y16160720D01*
G03X6100310Y14850000I3738547J-1360728D01*
G01X6109920Y16013590D02*
Y16107590D01*
G01D02*
Y16201590D01*
G01X6015920Y16107590D02*
X6109920D01*
G01D02*
X6203920D01*
G01X6765720Y7905160D02*
X7010950Y7231390D01*
G03X7200000Y6850000I1803447J656395D01*
G01X8111560Y5703490D01*
X9782810Y3711770D01*
X10244580Y3250000D01*
X11296540Y2703110D01*
X13548210Y1403110D01*
X14350000Y1100000D01*
X15337880Y948080D01*
X17898380Y496590D01*
X18700000Y500000D01*
X19779200Y667620D01*
X22339710Y1119110D01*
X22950000Y1350000D01*
X26225000Y3220100D01*
X27070100D01*
X27900000Y4050000D01*
X28500000D01*
X28850000Y3700000D01*
X28967690D01*
X29046760Y3779070D01*
X29046770D01*
X29158120Y3890420D01*
G01X7152470Y7525100D02*
Y7619100D01*
G01D02*
Y7713100D01*
G01X7058470Y7619100D02*
X7152470D01*
G01D02*
X7246470D01*
G01X6674830Y7351440D02*
Y7445440D01*
G01D02*
Y7539440D01*
G01X6580830Y7445440D02*
X6674830D01*
G01D02*
X6768830D01*
G01X6703370Y9897360D02*
X7566500Y7525890D01*
G03X8075490Y6726930I2056409J748458D01*
G01X8539030Y6174510D01*
G01X6571240Y10114180D02*
X7520750Y7505440D01*
G03X8037190Y6694790I2086522J759430D01*
G01X8348210Y6324130D01*
G01X8930910Y5863060D02*
X8152100Y6791210D01*
G02X7658070Y7566690I1501947J1501940D01*
G01X6972680Y9449820D01*
G01X6834260Y9683920D02*
X7612310Y7546250D01*
G03X8113800Y6759070I2026117J737449D01*
G01X8737820Y6015390D01*
G01X7107510Y9225570D02*
X7703890Y7587020D01*
G03X8190400Y6823350I1965594J715413D01*
G01X9140730Y5690790D01*
G01X9336160Y5535660D02*
X8228700Y6855480D01*
G02X7749660Y7607430I1456383J1456373D01*
G01X7242710Y9000280D01*
G01X8539030Y6174510D02*
X9323860Y5239180D01*
X10929550Y3633490D01*
X11593240Y3250310D01*
G01X8348210Y6324130D02*
X9274400Y5220340D01*
X10904550Y3590190D01*
X11349630Y3333220D01*
G01X8140360Y6494050D02*
X9220190Y5207160D01*
X10879550Y3547800D01*
Y3546890D01*
X11103480Y3417610D01*
G01X7960590Y6630510D02*
X9181880Y5175020D01*
X10853310Y3503590D01*
X10854550D01*
G01X9376290Y3730870D02*
Y3824870D01*
G01D02*
Y3918870D01*
G01X9282290Y3824870D02*
X9376290D01*
G01D02*
X9470290D01*
G01X9270320Y4400310D02*
X9821110Y3743910D01*
X10300000Y3265020D01*
X11321540Y2746420D01*
X13573210Y1446410D01*
X14350000Y1150000D01*
X15346560Y997320D01*
X17907070Y545830D01*
X18700000Y550000D01*
X19770520Y716860D01*
X22331020Y1168350D01*
X22950000Y1400000D01*
X26200000Y3263400D01*
X27013400D01*
X27900000Y4150000D01*
X28500000D01*
X28850000Y3800000D01*
X28975720D01*
X29112130Y3936410D01*
G01X12558220Y2924120D02*
X11062080Y3787920D01*
X9450000Y5400000D01*
X9336160Y5535660D01*
G01X8930910Y5863060D02*
X9422790Y5276860D01*
X10979550Y3720100D01*
X12079090Y3085280D01*
G01X8737820Y6015390D02*
X9373310Y5258030D01*
X10954550Y3676790D01*
X11835720Y3168050D01*
G01X9140730Y5690790D02*
X9472250Y5295700D01*
X11004550Y3763400D01*
X12332950Y2996450D01*
G01X9765730Y4057420D02*
Y4151420D01*
G01D02*
Y4245420D01*
G01X9671730Y4151420D02*
X9765730D01*
G01D02*
X9859730D01*
G01X10854550Y3503590D02*
X13752110Y1830690D01*
G03X14668090Y1585250I915989J1586529D01*
G01X11270360Y341520D02*
X11688160D01*
G01X11349630Y3333220D02*
X13791980Y1923140D01*
G03X14685450Y1683730I893482J1547538D01*
G01X15193660Y1594120D01*
G01X11103480Y3417610D02*
X13772040Y1876910D01*
G03X14676770Y1634490I904727J1567041D01*
G01X14939660Y1588140D01*
G01X11688160Y-76280D02*
Y341520D01*
G01D02*
Y759320D01*
G01Y341520D02*
X12105960D01*
G01X12079090Y3085280D02*
X13851810Y2061800D01*
G03X14711500Y1831450I859687J1489040D01*
G01X15953600Y1612440D01*
G01X11835720Y3168050D02*
X13831840Y2015590D01*
G03X14702820Y1782210I870985J1508589D01*
G01X15701680Y1606090D01*
G01X11593240Y3250310D02*
X13811900Y1969370D01*
G03X14694140Y1732970I882248J1528079D01*
G01X15466830Y1596720D01*
G01X12886870Y1900410D02*
X13598210Y1489710D01*
X14350000Y1200000D01*
X15355240Y1046560D01*
X17915750Y595070D01*
X18700000Y600000D01*
X19761840Y766100D01*
X22322340Y1217590D01*
X22950000Y1450000D01*
X26175000Y3306700D01*
X26956700D01*
X27900000Y4250000D01*
X28500000D01*
X28878970Y3871030D01*
X28954810D01*
X29066160Y3982380D01*
G01X16486670Y1619980D02*
X14728870Y1929930D01*
G02X13891660Y2154260I-2J1674410D01*
G01X12558220Y2924120D01*
G01X12332950Y2996450D02*
X13871740Y2108030D01*
G03X14720180Y1880690I848442J1469540D01*
G01X16232420Y1614040D01*
G01X13153130Y1252610D02*
Y1346610D01*
G01X13407400Y1692660D02*
Y1786660D01*
G01D02*
Y1880660D01*
G01X13313400Y1786660D02*
X13407400D01*
G01D02*
X13501400D01*
G01X13153130Y1346610D02*
Y1440610D01*
G01X13059130Y1346610D02*
X13153130D01*
G01D02*
X13247130D01*
G01X19371590Y1211140D02*
X18791190Y1108800D01*
X18546190Y1353800D01*
X16556590D01*
X15193660Y1594120D01*
G01X19151790Y1121610D02*
X18749340Y1050650D01*
X18495430Y1304560D01*
X16547910D01*
X14939660Y1588140D01*
G01X18899940Y1026430D02*
X18707490Y992500D01*
X18441230Y1258760D01*
X16519700D01*
X14668090Y1585250D01*
G01X20098560Y1491630D02*
X18916750Y1283250D01*
X18698480Y1501520D01*
X16582640D01*
X15953600Y1612440D01*
G01X15701680Y1606090D02*
X16573950Y1452280D01*
X18634420D01*
X18863590Y1223110D01*
X19858610Y1398560D01*
G01X19631440Y1307730D02*
X18833040Y1166950D01*
X18596950Y1403040D01*
X16565270D01*
X15466830Y1596720D01*
G01X16486670Y1619980D02*
X16600000Y1600000D01*
X18800000D01*
X19000450Y1399550D01*
X20570340Y1676370D01*
G01X20342560Y1585430D02*
X18958600Y1341400D01*
X18749240Y1550760D01*
X16591320D01*
X16232420Y1614040D01*
G01X29020170Y4028370D02*
X28941800Y3950000D01*
X28900000D01*
X28500000Y4350000D01*
X27900000D01*
X26900000Y3350000D01*
X26150000D01*
X22950000Y1500000D01*
X22313660Y1266820D01*
X19753150Y815340D01*
X18700000Y650000D01*
X17924430Y644310D01*
X17117000Y786680D01*
G01X17549820Y215570D02*
Y309570D01*
G01D02*
Y403570D01*
G01X17455820Y309570D02*
X17549820D01*
G01D02*
X17643820D01*
G01X17638240Y810050D02*
Y904050D01*
G01X17544240Y810050D02*
X17638240D01*
G01D02*
X17732240D01*
G01X23469000Y2308340D02*
X23079550Y2083490D01*
G02X22444710Y1753010I-841491J841481D01*
G01X19371590Y1211140D01*
G01X23252990Y2125890D02*
X23104550Y2040190D01*
G02X22460800Y1705080I-853289J853298D01*
G01X19151790Y1121610D01*
G01X23129550Y1996890D02*
G02X22476910Y1657150I-865078J865083D01*
G01X18899940Y1026430D01*
G01X24038540Y2810370D02*
X23004550Y2213400D01*
G02X22396360Y1896800I-806156J806161D01*
G01X20098560Y1491630D01*
G01X19858610Y1398560D02*
X22412470Y1848870D01*
G03X23029550Y2170100I-200864J1139176D01*
G01X23860490Y2649850D01*
G01X23648220Y2469540D02*
X23054550Y2126790D01*
G02X22428610Y1800940I-829705J829694D01*
G01X19631440Y1307730D01*
G01X24247330Y2988650D02*
X22979550Y2256700D01*
G02X22380270Y1944740I-794344J794353D01*
G01X20342560Y1585430D01*
G01X20570340Y1676370D02*
X22364170Y1992670D01*
G03X22954550Y2300000I-192177J1089896D01*
G01X24432930Y3153540D01*
G01X28974200Y4074340D02*
X29049860Y4150000D01*
X29100000D01*
X29350000Y3900000D01*
Y3812700D01*
X28987300Y3450000D01*
X28799990D01*
X28449990Y3800000D01*
X27950000D01*
X27026040Y2876040D01*
X26375500D01*
X23200000Y1050000D01*
X22391320Y749240D01*
X21554790Y601740D01*
G01X22036040Y744820D02*
Y838820D01*
G01D02*
Y932820D01*
G01X21942040Y838820D02*
X22036040D01*
G01D02*
X22130040D01*
G01X21947960Y1245360D02*
Y1339360D01*
G01D02*
Y1433360D01*
G01X21853960Y1339360D02*
X21947960D01*
G01D02*
X22041960D01*
G01X26049450Y3750710D02*
G02X25311980Y3256910I-4080810J5296931D01*
G01X23129550Y1996890D01*
G01X23252990Y2125890D02*
X25292000Y3303120D01*
G03X26125880Y3873910I-3299031J5714141D01*
G01X23860490Y2649850D02*
X25232090Y3441740D01*
G03X26543610Y4448100I-3166272J5484172D01*
G01X27186030Y5213700D01*
G01X23648220Y2469540D02*
X25252010Y3395490D01*
G03X26124510Y4000600I-3210668J5560998D01*
G01X26049100Y3876130D02*
G02X25271990Y3349290I-4031996J5110801D01*
G01X23469000Y2308340D01*
G01X24478360Y341520D02*
X24896160D01*
G01X24432930Y3153540D02*
X25172120Y3580310D01*
G03X26428700Y4544520I-3033643J5254418D01*
G01X27545040Y5874920D01*
G01X27296120Y5422690D02*
X26505310Y4480240D01*
G02X25212110Y3487940I-4415223J4415251D01*
G01X24038540Y2810370D01*
G01X27407650Y5633390D02*
X26467010Y4512380D01*
G02X25192140Y3534140I-4352669J4352678D01*
G01X24247330Y2988650D01*
G01X24896160Y-76280D02*
Y341520D01*
G01D02*
Y759320D01*
G01Y341520D02*
X25313960D01*
G01X26075070Y591720D02*
X25963710Y480370D01*
G01X26029090Y637700D02*
X25850390Y458990D01*
G01X25937130Y729660D02*
X25758430Y550950D01*
G01X25983120Y683670D02*
X25871760Y572320D01*
G01X25891160Y775630D02*
X25779800Y664280D01*
G01X25753220Y913570D02*
X25574510Y734860D01*
G01X25845170Y821620D02*
X25666470Y642910D01*
G01X25799200Y867590D02*
X25687840Y756240D01*
G01X25721320Y2440620D02*
X26343780Y2800000D01*
X27050000D01*
X28000000Y3750000D01*
X28450000D01*
X28800000Y3400000D01*
X29000000D01*
X29400000Y3800000D01*
Y3900000D01*
X29100000Y4200000D01*
X29007900D01*
X28928220Y4120320D01*
G01X26070700Y2776530D02*
Y2870530D01*
G01D02*
Y2964530D01*
G01X25976700Y2870530D02*
X26070700D01*
G01D02*
X26164700D01*
G01X25816740Y3216760D02*
Y3310760D01*
G01D02*
Y3404760D01*
G01X25722740Y3310760D02*
X25816740D01*
G01D02*
X25910740D01*
G01X26124510Y4000600D02*
G03X26299720Y4150310I-4083095J4955948D01*
G03X26581910Y4415960I-4258355J4806195D01*
G01X27052530Y4976820D01*
G01X26049100Y3876130D02*
G03X26254330Y4044950I-4032023J5110780D01*
G03X26620210Y4383820I-4237261J4941952D01*
G01X26920820Y4742070D01*
G01X26125880Y3873910D02*
G03X26207690Y3940730I-4132811J5143432D01*
G03X26658520Y4351680I-4214738J5076516D01*
G01X26788220Y4506250D01*
G01X26049450Y3750710D02*
G03X26140020Y3821730I-4080574J5297113D01*
G03X26696820Y4319540I-4171342J5225937D01*
G01X26747510Y1200660D02*
X26818470Y1271620D01*
G01D02*
X26889430Y1342580D01*
G01X26404660Y1685430D02*
X26810570Y2091340D01*
G01X26785590Y1974400D02*
X26856550Y2045360D01*
G01X26380400Y1709690D02*
X26404660Y1685430D01*
G01X26333700Y1614470D02*
X26404660Y1685430D01*
G01X27040470Y1861440D02*
X26861770Y1682730D01*
G01X26994480Y1907420D02*
X26883120Y1796070D01*
G01X26948510Y1953400D02*
X26769810Y1774690D01*
G01X26902530Y1999380D02*
X26791170Y1888030D01*
G01X26856550Y2045360D02*
X26927510Y2116320D01*
G01X26786310Y2115600D02*
X26810570Y2091340D01*
G01D02*
X26881530Y2162300D01*
G01X29289220Y7968990D02*
X29214970Y7764990D01*
G02X28979300Y7117480I-1007351J-4D01*
G01X26788220Y4506250D01*
G01X29257180Y7649300D02*
G02X29023240Y7092040I-1015537J98592D01*
G01X26696820Y4319540D01*
G01X27108630Y1232790D02*
X27170710Y1170710D01*
G01D02*
X27232790Y1108630D01*
G01X27119230Y1119230D02*
X27170710Y1170710D01*
G01D02*
X27222190Y1222190D01*
G01X27217210Y1341370D02*
X27279290Y1279290D01*
G01D02*
X27341370Y1217210D01*
G01X27227810Y1227810D02*
X27279290Y1279290D01*
G01D02*
X27330770Y1330770D01*
G01X27224380Y1677530D02*
X27045680Y1498820D01*
G01X27178400Y1723510D02*
X27067040Y1612160D01*
G01X27132420Y1769480D02*
X26953720Y1590770D01*
G01X27086440Y1815470D02*
X26975080Y1704120D01*
G01X27478660Y2363130D02*
X27367300Y2251780D01*
G01X27432670Y2409120D02*
X27253970Y2230410D01*
G01X27386700Y2455090D02*
X27275340Y2343740D01*
G01X27340720Y2501070D02*
X27162010Y2322360D01*
G01X27662570Y2179220D02*
X27551210Y2067870D01*
G01X27616590Y2225200D02*
X27437890Y2046490D01*
G01X27570620Y2271170D02*
X27459260Y2159820D01*
G01X27524630Y2317160D02*
X27345930Y2138450D01*
G01X29315910Y8188520D02*
X29167980Y7782090D01*
G02X28935310Y7142830I-994510J-2D01*
G01X26920820Y4742070D01*
G01X28847990Y7276440D02*
G02X28803410Y7219020I-776725J557022D01*
G01X27296120Y5422690D01*
G01X27186030Y5213700D02*
X28847360Y7193580D01*
G01X29364690Y8468720D02*
X29121000Y7799200D01*
G02X28891340Y7168210I-981641J-4D01*
G01X27052530Y4976820D01*
G01X28851020Y7374400D02*
G02X28759450Y7244410I-813891J476088D01*
G01X27407650Y5633390D01*
G01X27545040Y5874920D02*
X28715460Y7269760D01*
G03X28832190Y7446350I-712474J597837D01*
G01X28303260Y2756410D02*
X28374220Y2827370D01*
G01D02*
X28445180Y2898330D01*
G01X27936150Y3265440D02*
X27960410Y3241180D01*
G01X27889450Y3170220D02*
X27960410Y3241180D01*
G01D02*
X28031370Y3312140D01*
G01X28550230Y3463170D02*
X28478380Y3391320D01*
X28371540Y3284460D01*
G01X28458280Y3555130D02*
X28279580Y3376420D01*
G01X28341340Y3530150D02*
X28412300Y3601110D01*
G01X28342060Y3671350D02*
X28366320Y3647090D01*
G01X28295360Y3576130D02*
X28366320Y3647090D01*
G01D02*
X28437280Y3718050D01*
G01X28658630Y2782790D02*
X28720710Y2720710D01*
G01D02*
X28782790Y2658630D01*
G01X28669230Y2669230D02*
X28720710Y2720710D01*
G01D02*
X28772190Y2772190D01*
G01X28767210Y2891370D02*
X28829290Y2829290D01*
G01D02*
X28891370Y2767210D01*
G01X28777810Y2777810D02*
X28829290Y2829290D01*
G01D02*
X28880770Y2880770D01*
G01X28780130Y3233280D02*
X28668770Y3121930D01*
G01X28734150Y3279260D02*
X28555450Y3100550D01*
G01X28642190Y3371220D02*
X28463490Y3192510D01*
G01X28596220Y3417190D02*
X28484860Y3305840D01*
G01X28504260Y3509150D02*
X28392900Y3397790D01*
G01X28688170Y3325230D02*
X28576810Y3213880D01*
G01X28412300Y3601110D02*
X28483260Y3672070D01*
G01X29073160Y6159660D02*
X29167160D01*
G01X28777940Y6392470D02*
Y6486470D01*
G01X29500000Y7450000D02*
X29509050Y7401300D01*
G02X29056290Y6524360I-2173135J566630D01*
G01X28598050Y5978250D01*
G01X28777940Y6486470D02*
Y6580470D01*
G01X28683940Y6486470D02*
X28777940D01*
G01D02*
X28871940D01*
G01X28832190Y7446350D02*
G03X28933060Y7867600I-829199J421257D01*
G01X29515180Y9466960D01*
G01X29440090Y8968270D02*
X29027030Y7833400D01*
G02X28847990Y7276440I-955811J-3D01*
G01X28847360Y7193580D02*
G03X29074010Y7816300I-742121J622715D01*
G01X29401750Y8716760D01*
G01X29477600Y9217520D02*
X28980050Y7850500D01*
G02X28851020Y7374400I-942909J8D01*
G01X29555400Y4884690D02*
X29579660Y4860430D01*
G01X29508700Y4789470D02*
X29579660Y4860430D01*
G01D02*
X29650620Y4931390D01*
G01X29469910Y4570050D02*
X29541760Y4641900D01*
X29599770Y4696620D01*
X29671620Y4768470D01*
G01X29607840Y4432120D02*
X29679690Y4503970D01*
X29737710Y4558680D01*
X29809560Y4630530D01*
G01X29653830Y4386130D02*
X29725680Y4457980D01*
X29783680Y4512710D01*
X29855530Y4584560D01*
G01X29561870Y4478090D02*
X29633720Y4549940D01*
X29691730Y4604670D01*
X29763580Y4676520D01*
G01X29745780Y4294180D02*
X29817630Y4366030D01*
X29875640Y4420750D01*
X29947490Y4492600D01*
G01X29423930Y4616030D02*
X29495780Y4687880D01*
X29553790Y4742600D01*
X29625640Y4814450D01*
G01X29515880Y4524080D02*
X29587730Y4595930D01*
X29645750Y4650640D01*
X29717600Y4722490D01*
G01X29699800Y4340160D02*
X29771650Y4412010D01*
X29829670Y4466730D01*
X29901520Y4538580D01*
G01X29167160Y6065660D02*
Y6159660D01*
G01D02*
Y6253660D01*
G01Y6159660D02*
X29261160D01*
G01X30550000Y11750000D02*
G02X30391570Y10851490I-2627071J-4D01*
G01X29261950Y7747890D01*
G02X29257180Y7649300I-1020312J-45D01*
G01X30483650Y9932810D02*
X29663540Y7679590D01*
G01X30400000Y12550000D02*
Y11750000D01*
G02X30250610Y10902750I-2477191J-9D01*
G01X29364690Y8468720D01*
G01X30450000Y12300000D02*
Y11750000D01*
G02X30297600Y10885690I-2527071J-4D01*
G01X29315910Y8188520D01*
G01X30500000Y12000000D02*
Y11750000D01*
G02X30344580Y10868560I-2577151J-6D01*
G01X29289220Y7968990D01*
G01X31000000Y14300000D02*
Y11650000D01*
G02X30731680Y10468090I-4805989J469655D01*
G01X29796820Y7899570D01*
G01X30300000Y13050000D02*
Y11750000D01*
G02X30156640Y10936950I-2377191J-9D01*
G01X29440090Y8968270D01*
G01X29401750Y8716760D02*
X30203630Y10919880D01*
G03X30350000Y11750000I-2280741J830113D01*
G01Y12800000D01*
G01X30250000Y13300000D02*
Y11750000D01*
G02X30109670Y10954130I-2326990J-5D01*
G01X29477600Y9217520D01*
G01X29515180Y9466960D02*
X30062670Y10971190D01*
G03X30200000Y11750000I-2139759J778823D01*
G01Y13550000D01*
G01D02*
Y15323570D01*
G03X29957020Y15910180I-829590J2D01*
G01X29351330Y17574290D01*
G01X29620290Y17127700D02*
X30050990Y15944380D01*
G02X30300000Y15343220I-601160J-601162D01*
G01Y13050000D01*
G01X29483390Y17357650D02*
X30004010Y15927280D01*
G02X30250000Y15333410I-593870J-593871D01*
G01Y13300000D01*
G01X30350000Y12800000D02*
Y15353050D01*
G03X30097980Y15961480I-860450J0D01*
G01X29751170Y16914340D01*
G01X29815490Y19145600D02*
X29909490D01*
G01X29431850Y18877940D02*
Y18971940D01*
G01D02*
Y19065940D01*
G01X29337850Y18971940D02*
X29431850D01*
G01D02*
X29525850D01*
G01X30417210Y4541370D02*
X30479290Y4479290D01*
G01D02*
X30541370Y4417210D01*
G01X30427810Y4427810D02*
X30479290Y4479290D01*
G01D02*
X30530770Y4530770D01*
G01X29922510Y4375660D02*
X29993470Y4446620D01*
G01D02*
X30064430Y4517580D01*
G01X30308630Y4432790D02*
X30370710Y4370710D01*
G01D02*
X30432790Y4308630D01*
G01X30319230Y4319230D02*
X30370710Y4370710D01*
G01D02*
X30422190Y4422190D01*
G01X29960590Y5149400D02*
X30031550Y5220360D01*
G01D02*
X30102510Y5291320D01*
G01X29961310Y5290600D02*
X29985570Y5266340D01*
G01X29914610Y5195380D02*
X29985570Y5266340D01*
G01D02*
X30056530Y5337300D01*
G01X30744530Y5441810D02*
X30565830Y5263100D01*
G01X30505960Y6198870D02*
X30568040Y6136790D01*
G01D02*
X30630120Y6074710D01*
G01X30516560Y6085310D02*
X30568040Y6136790D01*
G01D02*
X30619520Y6188270D01*
G01X30361630Y6054540D02*
X30423710Y5992460D01*
G01D02*
X30485790Y5930380D01*
G01X30372230Y5940980D02*
X30423710Y5992460D01*
G01D02*
X30475190Y6043940D01*
G01X29928750Y18618480D02*
X30900000Y15950000D01*
G02X31050000Y14950000I-3258333J-1000000D01*
G01Y11650000D01*
G02X30778670Y10450990I-4848788J467051D01*
G01X29922880Y8099740D01*
G01X30474410Y10389450D02*
Y10483450D01*
G01D02*
Y10577450D01*
G01X30380410Y10483450D02*
X30474410D01*
G01D02*
X30568410D01*
G01X30145390Y16269770D02*
X30238930Y16012780D01*
G02X30500000Y15382500I-630280J-630279D01*
G01Y12000000D01*
G01X30285910Y16029880D02*
G02X30550000Y15392310I-637570J-637570D01*
G01Y11750000D01*
G01X29872910Y16726040D02*
X30144960Y15978580D01*
G02X30400000Y15362860I-615720J-615721D01*
G01Y12550000D01*
G01X30009370Y16497310D02*
X30191950Y15995680D01*
G02X30450000Y15372690I-622990J-622989D01*
G01Y12300000D01*
G01X30000000Y13800000D02*
X30150000D01*
G01X29909490Y19051600D02*
Y19145600D01*
G01D02*
Y19239600D01*
G01Y19145600D02*
X30003490D01*
G01X30250000Y19487200D02*
Y19575000D01*
G01X30177190D02*
X30250000D01*
G01D02*
X30322810D01*
G01X30857490Y5186930D02*
X30928450Y5257890D01*
G01D02*
X30999410Y5328850D01*
G01X30974430Y5211910D02*
X30998690Y5187650D01*
G01X30903470Y5140950D02*
X30974430Y5211910D01*
G01D02*
X31045390Y5282870D01*
G01X30790520Y5395830D02*
X30718670Y5323980D01*
X30679150Y5284470D01*
G01X30836490Y5349850D02*
X30657790Y5171140D01*
G01X30882470Y5303870D02*
X30771110Y5192520D01*
G01X30895570Y5960670D02*
X30966530Y6031630D01*
G01D02*
X31037490Y6102590D01*
G01X30951930Y10215460D02*
Y10309460D01*
G01D02*
Y10403460D01*
G01X30857930Y10309460D02*
X30951930D01*
G01D02*
X31045930D01*
G01X31209730Y14725440D02*
Y14819440D01*
G01D02*
Y14913440D01*
G01X31115730Y14819440D02*
X31209730D01*
G01D02*
X31303730D01*
G01X30701500Y14725620D02*
Y14819620D01*
G01D02*
Y14913620D01*
G01X30607500Y14819620D02*
X30701500D01*
G01D02*
X30795500D01*
G01X30875000Y19287200D02*
Y19375000D01*
G01D02*
Y19462800D01*
G01X30802190Y19375000D02*
X30875000D01*
G01X30775000Y19085540D02*
Y19164300D01*
G01X30706400D02*
X30775000D01*
G01Y19735540D02*
Y19814300D01*
G01D02*
Y19893060D01*
G01Y19814300D02*
X30843600D01*
G01X31380340Y5617820D02*
X31404600Y5593560D01*
G01X31309380Y5546860D02*
X31380340Y5617820D01*
G01D02*
X31451300Y5688780D01*
G01X31925590Y6495870D02*
X32036950Y6607220D01*
G01X32017550Y6403910D02*
X32128910Y6515260D01*
G01X31971580Y6449880D02*
X32150280Y6628590D01*
G01X31741680Y6679780D02*
X31853040Y6791130D01*
G01X31833630Y6587830D02*
X31944990Y6699180D01*
G01X31787660Y6633800D02*
X31966360Y6812510D01*
G01X31879620Y6541840D02*
X32058320Y6720550D01*
G01X32000000Y8827190D02*
Y8900000D01*
G01D02*
Y8972810D01*
G01X31912200Y8900000D02*
X32000000D01*
G01D02*
X32087800D01*
G01X31941600Y12193600D02*
X32029400D01*
G01X31941600Y12038000D02*
X32029400D01*
G01X31496000Y17562550D02*
Y17662900D01*
G01D02*
Y17763250D01*
G01X31319450Y17662900D02*
X31496000D01*
G01Y18210250D02*
Y18310600D01*
G01D02*
Y18410950D01*
G01X31319450Y18310600D02*
X31496000D01*
G01D02*
X31672550D01*
G01X31496000Y18829000D02*
Y18929350D01*
G01D02*
Y19029700D01*
G01X31319450Y18929350D02*
X31496000D01*
G01D02*
X31672550D01*
G01X32063530Y6357930D02*
X32242240Y6536640D01*
G01X32200000Y7577190D02*
Y7650000D01*
G01D02*
Y7722810D01*
G01X32112200Y7650000D02*
X32200000D01*
G01D02*
X32287800D01*
G01X32738060Y8042630D02*
Y8142980D01*
G01D02*
Y8243330D01*
G01X32673040Y8042630D02*
Y8142980D01*
G01D02*
Y8243330D01*
G01X32608010Y8042630D02*
Y8142980D01*
G01D02*
Y8243330D01*
G01X32347920Y8142980D02*
Y7890250D01*
G01X32412940Y8142980D02*
Y8041370D01*
X32412950Y7985500D01*
G01X32477960Y8142980D02*
X32477970D01*
Y7890250D01*
G01X32542990Y8142980D02*
Y7985500D01*
G01X32347920Y8616670D02*
Y8717020D01*
G01D02*
Y8817370D01*
G01X32379670Y9701270D02*
Y9858750D01*
G01X32444690Y9701270D02*
Y9954000D01*
G01X32509710Y9701270D02*
Y9858750D01*
G01X32574740Y9701270D02*
Y9954000D01*
G01X32516160Y10337720D02*
Y10755520D01*
G01D02*
Y11173320D01*
G01X32098360Y10755520D02*
X32516160D01*
G01D02*
X32933960D01*
G01X32029400Y12120790D02*
Y12193600D01*
G01D02*
Y12266410D01*
G01Y12193600D02*
X32117200D01*
G01X32029400Y11965190D02*
Y12038000D01*
G01D02*
Y12110810D01*
G01Y12038000D02*
X32117200D01*
G01X32347920Y11825980D02*
Y11573250D01*
G01X32412940Y11825980D02*
Y11668500D01*
G01X32477960Y11825980D02*
Y11573250D01*
G01X32542990Y11825980D02*
Y11668500D01*
G01X32608010Y11825980D02*
Y11573250D01*
G01X32673040Y11825980D02*
Y11668500D01*
G01X32738060Y11825980D02*
Y11573250D01*
G01X32379670Y13416020D02*
Y13573500D01*
G01X32444690Y13416020D02*
Y13668750D01*
G01X32509710Y13416020D02*
Y13573500D01*
G01X32574740Y13416020D02*
Y13668750D01*
G01X32639760Y13416020D02*
Y13573500D01*
G01X32704790Y13416020D02*
Y13668750D01*
G01X32516160Y17957720D02*
Y18375520D01*
G01D02*
Y18793320D01*
G01X32098360Y18375520D02*
X32516160D01*
G01D02*
X32933960D01*
G01X32933130Y8042630D02*
Y8142980D01*
G01D02*
Y8243330D01*
G01Y8142980D02*
X32967440D01*
G01X32868110Y8042630D02*
Y8142980D01*
G01D02*
Y8243330D01*
G01X32803080Y8042630D02*
Y8142980D01*
G01D02*
Y8243330D01*
G01X32933130Y8616670D02*
Y8717020D01*
G01D02*
Y8817370D01*
G01Y8717020D02*
X32967440D01*
G01X32933130Y11725630D02*
Y11825980D01*
G01D02*
Y11926330D01*
G01Y11825980D02*
X32967440D01*
G01X32868110Y11725630D02*
Y11825980D01*
G01D02*
Y11926330D01*
G01X32803080Y11825980D02*
Y11668500D01*
G01X32933130Y12299670D02*
Y12400020D01*
G01D02*
Y12500370D01*
G01Y12400020D02*
X32967440D01*
G01X32769810Y13416020D02*
Y13573500D01*
G01X32834830Y13416020D02*
Y13668750D01*
G54D29*
X27170710Y1170710D03*
X27029290Y1029290D03*
X27279290Y1279290D03*
X27420710Y1420710D03*
X28720710Y2720710D03*
X28579290Y2579290D03*
X28829290Y2829290D03*
X28970710Y2970710D03*
X30229290Y4229290D03*
X30370710Y4370710D03*
X30479290Y4479290D03*
X30620710Y4620710D03*
X30568040Y6136790D03*
X30423710Y5992460D03*
X30282290Y5851040D03*
X30709460Y6278210D03*
G54D39*
G01X3906480Y14636640D02*
X4160560D01*
G01X3604760Y14508020D02*
X3762870D01*
G01D02*
X3891490Y14636640D01*
X3906480D01*
G01Y14836640D02*
X4160560D01*
G01X3773780D02*
X3906480D01*
G01X3604760Y14838220D02*
X3772200D01*
G01X4208200Y15838660D02*
X4476580D01*
X4478160Y15837080D01*
G01X3970000D02*
X4206620D01*
X4208200Y15838660D01*
G01X3604760Y15838610D02*
X3835770D01*
X3837300Y15837080D01*
X3970000D01*
G01X4210580Y16277000D02*
Y15979940D01*
X4208200Y15977560D01*
Y15838660D01*
G01X3700040Y16277000D02*
X3870220D01*
G01X4040400D02*
Y16550000D01*
G01X4037860Y16760400D02*
X4040400Y16757860D01*
Y16550000D01*
G01X4210580Y16277000D02*
X4380760D01*
G01X4037860Y17267600D02*
Y17774800D01*
G01Y17267600D02*
Y16760400D01*
G01X4068160Y17805100D02*
Y18375520D01*
G01X4037860Y17774800D02*
X4068160Y17805100D01*
G01X4095750Y19320250D02*
X4428750Y19653250D01*
X4699000D01*
G01X5453140Y18579600D02*
Y18754440D01*
X5588000Y18889300D01*
Y19052000D01*
G01X5451560Y18134960D02*
Y18439120D01*
X5453140Y18440700D01*
Y18579600D01*
G01X5251560Y18134960D02*
Y18450980D01*
G01X5122940Y18579600D02*
Y18718500D01*
G01X5251560Y18450980D02*
X5122940Y18579600D01*
G01X5118000Y18723440D02*
Y19352000D01*
G01X5122940Y18718500D02*
X5118000Y18723440D01*
G01X31496000Y17662900D02*
X31737100D01*
G01X31496000Y19577050D02*
X31792500D01*
X32049300Y19320250D01*
X32512000D01*
M02*
