G04 ================== begin FILE IDENTIFICATION RECORD ==================*
G04 Layout Name:  LED_12inArena V2-1.brd*
G04 Film Name:    SIG*
G04 File Format:  Gerber RS274X*
G04 File Origin:  Cadence Allegro 17.2-P019*
G04 Origin Date:  Mon Oct 05 13:51:22 2020*
G04 *
G04 Layer:  VIA KEEPOUT/ALL*
G04 Layer:  VIA KEEPOUT/BOTTOM*
G04 Layer:  VIA KEEPOUT/MISO*
G04 Layer:  VIA KEEPOUT/GND3*
G04 Layer:  VIA KEEPOUT/SIG*
G04 Layer:  VIA KEEPOUT/PWR*
G04 Layer:  VIA KEEPOUT/TOP*
G04 Layer:  VIA CLASS/FILMMASKBOTTOM*
G04 Layer:  VIA CLASS/SIG*
G04 Layer:  ROUTE KEEPOUT/ALL*
G04 Layer:  ROUTE KEEPOUT/BOTTOM*
G04 Layer:  ROUTE KEEPOUT/MISO*
G04 Layer:  ROUTE KEEPOUT/GND3*
G04 Layer:  ROUTE KEEPOUT/SIG*
G04 Layer:  ROUTE KEEPOUT/PWR*
G04 Layer:  ROUTE KEEPOUT/TOP*
G04 Layer:  ROUTE KEEPIN/ALL*
G04 Layer:  PIN/FILMMASKBOTTOM*
G04 Layer:  PIN/SIG*
G04 Layer:  PACKAGE KEEPOUT/ALL*
G04 Layer:  PACKAGE KEEPOUT/TOP*
G04 Layer:  PACKAGE KEEPOUT/BOTTOM*
G04 Layer:  PACKAGE KEEPIN/ALL*
G04 Layer:  ETCH/SIG*
G04 Layer:  BOARD GEOMETRY/OUTLINE*
G04 *
G04 Offset:    (0.0 0.0)*
G04 Mirror:    No*
G04 Mode:      Positive*
G04 Rotation:  0*
G04 FullContactRelief:  No*
G04 UndefLineWidth:     0.1*
G04 ================== end FILE IDENTIFICATION RECORD ====================*
%FSLAX25Y25*MOIN*%
%IR0*IPPOS*OFA0.00000B0.00000*MIA0B0*SFA1.00000B1.00000*%
%ADD10C,.2*%
%ADD16R,.1969X.0787*%
%ADD15R,.0787X.1969*%
%ADD12C,.06*%
%ADD11C,.024*%
%ADD13C,5.7*%
%ADD14C,.0787*%
%ADD17C,.005*%
%ADD18C,.008*%
%ADD19C,.01*%
%ADD20C,.0001*%
%ADD21C,.2104*%
%ADD25R,.2072X.089*%
%ADD24R,.089X.2072*%
%ADD26C,.0704*%
%ADD22C,.0344*%
%ADD23C,.089*%
G75*
%LPD*%
G75*
G36*
G01X-449000Y-449000D02*
Y449000D01*
X449000D01*
Y-449000D01*
X64980D01*
G02X64590Y-448520I2J400D01*
G03X61210I-1690J320D01*
G02X60820Y-449000I-392J-80D01*
G01X56740D01*
G02X56350Y-448530I2J399D01*
G03X52950I-1700J280D01*
G02X52560Y-449000I-392J-71D01*
G01X48570D01*
G02X48180Y-448520I1J400D01*
G03X44820I-1680J370D01*
G02X44430Y-449000I-391J-80D01*
G01X40440D01*
G02X40050Y-448530I2J399D01*
G03X36650I-1700J280D01*
G02X36260Y-449000I-392J-71D01*
G01X32250D01*
G02X31850Y-448540I-4J401D01*
G03X28450I-1700J240D01*
G02X28050Y-449000I-396J-59D01*
G01X24080D01*
G02X23690Y-448520I2J400D01*
G03X20310I-1690J320D01*
G02X19920Y-449000I-392J-80D01*
G01X15920D01*
G02X15530Y-448520I1J400D01*
G03X12170I-1680J370D01*
G02X11780Y-449000I-391J-80D01*
G01X7860D01*
G02X7470Y-448510I0J400D01*
G03X4130I-1670J410D01*
G02X3740Y-449000I-390J-90D01*
G01X-250D01*
G02X-640Y-448500I-3J400D01*
G03X-3960I-1660J450D01*
G02X-4350Y-449000I-387J-100D01*
G01X-8320D01*
G02X-8700Y-448490I4J399D01*
G03X-12000I-1650J490D01*
G02X-12380Y-449000I-384J-111D01*
G01X-16370D01*
G02X-16750Y-448490I4J399D01*
G03X-20050I-1650J490D01*
G02X-20430Y-449000I-384J-111D01*
G01X-24480D01*
G02X-24860Y-448480I0J399D01*
G03X-28140I-1640J530D01*
G02X-28520Y-449000I-380J-121D01*
G01X-32630D01*
G02X-33010Y-448480I0J399D01*
G03X-36290I-1640J530D01*
G02X-36670Y-449000I-380J-121D01*
G01X-40730D01*
G02X-41110Y-448480I0J399D01*
G03X-44390I-1640J530D01*
G02X-44770Y-449000I-380J-121D01*
G01X-48800D01*
G02X-49180Y-448470I-1J401D01*
G03X-52420I-1620J570D01*
G02X-52800Y-449000I-379J-129D01*
G01X-56920D01*
G02X-57290Y-448460I3J399D01*
G03X-60510I-1610J610D01*
G02X-60880Y-449000I-373J-141D01*
G01X-449000D01*
G37*
%LPC*%
G75*
G36*
G01X-397760Y-24090D02*
G03Y-24360I146J-135D01*
G02X-400330Y-24350I-1289J-1139D01*
G03Y-24080I-146J135D01*
G02X-397760Y-24090I1289J1139D01*
G37*
G36*
G01X372880Y-247450D02*
G03Y-247710I151J-130D01*
G02X370320I-1280J-1150D01*
G03Y-247450I-151J130D01*
G02X372880I1280J1150D01*
G37*
G36*
G01X339830D02*
G03Y-247710I151J-130D01*
G02X337270I-1280J-1150D01*
G03Y-247450I-151J130D01*
G02X339830I1280J1150D01*
G37*
G36*
G01X284130Y-329010D02*
G03X283870I-130J-147D01*
G02X281440Y-326580I-1120J1310D01*
G03Y-326320I-147J130D01*
G02Y-324080I1310J1120D01*
G03Y-323820I-147J130D01*
G02X283870Y-321390I1310J1120D01*
G03X284130I130J147D01*
G02X286370I1120J-1310D01*
G03X286630I130J147D01*
G02X288870I1120J-1310D01*
G03X289130I130J147D01*
G02X291370I1120J-1310D01*
G03X291630I130J147D01*
G02X293870I1120J-1310D01*
G03X294130I130J147D01*
G02X296560Y-323820I1120J-1310D01*
G03Y-324080I147J-130D01*
G02Y-326320I-1310J-1120D01*
G03Y-326580I147J-130D01*
G02X294130Y-329010I-1310J-1120D01*
G03X293870I-130J-147D01*
G02X291630I-1120J1310D01*
G03X291370I-130J-147D01*
G02X289130I-1120J1310D01*
G03X288870I-130J-147D01*
G02X286630I-1120J1310D01*
G03X286370I-130J-147D01*
G02X284130I-1120J1310D01*
G37*
G36*
G01X152930Y-394950D02*
G03Y-395210I151J-130D01*
G02X150370I-1280J-1150D01*
G03Y-394950I-151J130D01*
G02X152930I1280J1150D01*
G37*
G36*
G01X260230Y-398060D02*
G03X259970I-130J-147D01*
G02X257540Y-395630I-1120J1310D01*
G03Y-395370I-147J130D01*
G02Y-393130I1310J1120D01*
G03Y-392870I-147J130D01*
G02X259970Y-390440I1310J1120D01*
G03X260230I130J147D01*
G02X262470I1120J-1310D01*
G03X262730I130J147D01*
G02X264970I1120J-1310D01*
G03X265230I130J147D01*
G02X267470I1120J-1310D01*
G03X267730I130J147D01*
G02X269970I1120J-1310D01*
G03X270230I130J147D01*
G02X272660Y-392870I1120J-1310D01*
G03Y-393130I147J-130D01*
G02Y-395370I-1310J-1120D01*
G03Y-395630I147J-130D01*
G02X270230Y-398060I-1310J-1120D01*
G03X269970I-130J-147D01*
G02X267730I-1120J1310D01*
G03X267470I-130J-147D01*
G02X265230I-1120J1310D01*
G03X264970I-130J-147D01*
G02X262730I-1120J1310D01*
G03X262470I-130J-147D01*
G02X260230I-1120J1310D01*
G37*
G36*
G01X-141920Y-402400D02*
G03Y-402660I151J-130D01*
G02X-144480I-1280J-1150D01*
G03Y-402400I-151J130D01*
G02X-141920I1280J1150D01*
G37*
G36*
G01X260080Y-407260D02*
G03X259820I-130J-147D01*
G02X257390Y-404830I-1120J1310D01*
G03Y-404570I-147J130D01*
G02Y-402330I1310J1120D01*
G03Y-402070I-147J130D01*
G02X259820Y-399640I1310J1120D01*
G03X260080I130J147D01*
G02X262320I1120J-1310D01*
G03X262580I130J147D01*
G02X264820I1120J-1310D01*
G03X265080I130J147D01*
G02X267320I1120J-1310D01*
G03X267580I130J147D01*
G02X269820I1120J-1310D01*
G03X270080I130J147D01*
G02X272510Y-402070I1120J-1310D01*
G03Y-402330I147J-130D01*
G02Y-404570I-1310J-1120D01*
G03Y-404830I147J-130D01*
G02X270080Y-407260I-1310J-1120D01*
G03X269820I-130J-147D01*
G02X267580I-1120J1310D01*
G03X267320I-130J-147D01*
G02X265080I-1120J1310D01*
G03X264820I-130J-147D01*
G02X262580I-1120J1310D01*
G03X262320I-130J-147D01*
G02X260080I-1120J1310D01*
G37*
G36*
G01X-207620Y-405000D02*
G03Y-405260I151J-130D01*
G02X-210180I-1280J-1150D01*
G03Y-405000I-151J130D01*
G02X-207620I1280J1150D01*
G37*
G36*
G01X-229670D02*
G03Y-405260I151J-130D01*
G02X-232230I-1280J-1150D01*
G03Y-405000I-151J130D01*
G02X-229670I1280J1150D01*
G37*
G36*
G01X102890Y-418270D02*
G03X102480Y-418750I-19J-399D01*
G02X100900Y-417390I-1683J-357D01*
G03X101310Y-416910I19J399D01*
G02Y-416190I1680J360D01*
G03X100900Y-415710I-391J81D01*
G02X102480Y-414350I-103J1717D01*
G03X102890Y-414830I391J-81D01*
G02Y-418270I100J-1720D01*
G37*
G36*
G01X267530Y-424610D02*
G03X267270I-130J-147D01*
G02X264840Y-422180I-1120J1310D01*
G03Y-421920I-147J130D01*
G02Y-419680I1310J1120D01*
G03Y-419420I-147J130D01*
G02Y-417180I1310J1120D01*
G03Y-416920I-147J130D01*
G02Y-414680I1310J1120D01*
G03Y-414420I-147J130D01*
G02Y-412180I1310J1120D01*
G03Y-411920I-147J130D01*
G02X267270Y-409490I1310J1120D01*
G03X267530I130J147D01*
G02X269770I1120J-1310D01*
G03X270030I130J147D01*
G02X272460Y-411920I1120J-1310D01*
G03Y-412180I147J-130D01*
G02Y-414420I-1310J-1120D01*
G03Y-414680I147J-130D01*
G02Y-416920I-1310J-1120D01*
G03Y-417180I147J-130D01*
G02Y-419420I-1310J-1120D01*
G03Y-419680I147J-130D01*
G02Y-421920I-1310J-1120D01*
G03Y-422180I147J-130D01*
G02X270030Y-424610I-1310J-1120D01*
G03X269770I-130J-147D01*
G02X267530I-1120J1310D01*
G37*
G36*
G01X-21520Y-445510D02*
X-159630D01*
X-166510Y-438630D01*
Y-435630D01*
X-169630Y-432510D01*
X-204630D01*
X-208610Y-428530D01*
X-208650Y-428520D01*
G02X-206480Y-426350I530J1640D01*
G01X-206470Y-426390D01*
X-203370Y-429490D01*
X-168370D01*
X-163490Y-434370D01*
Y-437370D01*
X-158370Y-442490D01*
X-22780D01*
X-19980Y-439690D01*
G03X-20260Y-439010I-283J281D01*
G01X-23070D01*
X-24570Y-440510D01*
X-155630D01*
X-161510Y-434630D01*
Y-429630D01*
X-165310Y-425830D01*
X-186500D01*
G02Y-422810I-820J1510D01*
G01X-164050D01*
X-158490Y-428370D01*
Y-433370D01*
X-154370Y-437490D01*
X-31010D01*
Y-426990D01*
X170990D01*
Y-414990D01*
X171600D01*
G03X172000Y-414530I5J400D01*
G02X173920Y-412560I1701J263D01*
G03X174360Y-412080I51J395D01*
G02X175820Y-413420I1682J367D01*
G03X175380Y-413900I-51J-395D01*
G02X175400Y-414530I-1680J-369D01*
G03X175800Y-414990I395J-60D01*
G01X179010D01*
Y-439010D01*
X-15020D01*
X-21520Y-445510D01*
G37*
G36*
G01X284520Y-422760D02*
G02X282090Y-420330I-1120J1310D01*
G03Y-420070I-147J130D01*
G02Y-417830I1310J1120D01*
G03Y-417570I-147J130D01*
G02X282320Y-415110I1309J1118D01*
G03X282290Y-414460I-246J314D01*
G02X281890Y-411880I909J1462D01*
G03Y-411620I-147J130D01*
G02Y-409380I1310J1120D01*
G03Y-409120I-147J130D01*
G02X284320Y-406690I1310J1120D01*
G03X284580I130J147D01*
G02X286820I1120J-1310D01*
G03X287080I130J147D01*
G02X289320I1120J-1310D01*
G03X289580I130J147D01*
G02X291820I1120J-1310D01*
G03X292080I130J147D01*
G02X294320I1120J-1310D01*
G03X294580I130J147D01*
G02X297010Y-409120I1120J-1310D01*
G03Y-409380I147J-130D01*
G02Y-411620I-1310J-1120D01*
G03Y-411880I147J-130D01*
G02X296780Y-414340I-1309J-1118D01*
G03X296810Y-414990I246J-314D01*
G02X297210Y-417570I-909J-1462D01*
G03Y-417830I147J-130D01*
G02Y-420070I-1310J-1120D01*
G03Y-420330I147J-130D01*
G02X294780Y-422760I-1310J-1120D01*
G03X294520I-130J-147D01*
G02X292280I-1120J1310D01*
G03X292020I-130J-147D01*
G02X289780I-1120J1310D01*
G03X289520I-130J-147D01*
G02X287280I-1120J1310D01*
G03X287020I-130J-147D01*
G02X284780I-1120J1310D01*
G03X284520I-130J-147D01*
G37*
G36*
G01X172930Y-352890D02*
G02X171470Y-354230I222J-1707D01*
G03X171030Y-353750I-389J85D01*
G02Y-350330I-220J1710D01*
G03X171470Y-349850I51J395D01*
G02Y-349110I1680J370D01*
G03X171030Y-348630I-389J85D01*
G02Y-345210I-220J1710D01*
G03X171470Y-344730I51J395D01*
G02Y-343990I1680J370D01*
G03X171030Y-343510I-389J85D01*
G02Y-340090I-220J1710D01*
G03X171470Y-339610I50J396D01*
G02Y-338880I1680J365D01*
G03X171030Y-338400I-389J85D01*
G02Y-334980I-220J1710D01*
G03X171470Y-334500I51J395D01*
G02Y-333760I1680J370D01*
G03X171030Y-333280I-389J85D01*
G02X172490Y-331940I-222J1707D01*
G03X172930Y-332420I389J-85D01*
G02Y-335840I220J-1710D01*
G03X172490Y-336320I-51J-395D01*
G02Y-337060I-1680J-370D01*
G03X172930Y-337540I389J-85D01*
G02Y-340960I220J-1710D01*
G03X172490Y-341440I-50J-396D01*
G02Y-342170I-1680J-365D01*
G03X172930Y-342650I389J-85D01*
G02Y-346070I220J-1710D01*
G03X172490Y-346550I-51J-395D01*
G02Y-347290I-1680J-370D01*
G03X172930Y-347770I389J-85D01*
G02Y-351190I220J-1710D01*
G03X172490Y-351670I-51J-395D01*
G02Y-352410I-1680J-370D01*
G03X172930Y-352890I389J-85D01*
G37*
G36*
G01X246770Y-345200D02*
G02X245310Y-346540I222J-1707D01*
G03X244870Y-346060I-389J85D01*
G02Y-342640I-220J1710D01*
G03X245310Y-342160I51J395D01*
G02Y-341420I1680J370D01*
G03X244870Y-340940I-389J85D01*
G02Y-337520I-220J1710D01*
G03X245310Y-337040I51J395D01*
G02Y-336300I1680J370D01*
G03X244870Y-335820I-389J85D01*
G02Y-332400I-220J1710D01*
G03X245310Y-331920I51J395D01*
G02Y-331180I1680J370D01*
G03X244870Y-330700I-389J85D01*
G02X246330Y-329360I-222J1707D01*
G03X246770Y-329840I389J-85D01*
G02Y-333260I220J-1710D01*
G03X246330Y-333740I-51J-395D01*
G02Y-334480I-1680J-370D01*
G03X246770Y-334960I389J-85D01*
G02Y-338380I220J-1710D01*
G03X246330Y-338860I-51J-395D01*
G02Y-339600I-1680J-370D01*
G03X246770Y-340080I389J-85D01*
G02Y-343500I220J-1710D01*
G03X246330Y-343980I-51J-395D01*
G02Y-344720I-1680J-370D01*
G03X246770Y-345200I389J-85D01*
G37*
G36*
G01X1570Y-423410D02*
X-120580D01*
X-125410Y-418580D01*
Y-378580D01*
X-127580Y-376410D01*
X-184580D01*
X-191410Y-369580D01*
Y-353580D01*
X-194580Y-350410D01*
X-408580D01*
X-420410Y-338580D01*
Y-43420D01*
X-410580Y-33590D01*
X-370580D01*
X-368410Y-31420D01*
Y-19420D01*
X-365590Y-16600D01*
X-361050D01*
G03X-360650Y-16180I1J399D01*
G02X-360750Y-13730I360659J15948D01*
G02X-360810Y-12160I1500J843D01*
G02X-360920Y-8190I360815J11984D01*
G02X-360930Y-7420I1671J407D01*
G02X47160Y-357920I360934J7417D01*
G03X47010Y-358660I50J-395D01*
G02X47650Y-360990I-860J-1489D01*
G03X48000Y-361590I347J-200D01*
G01X52480D01*
G03X52830Y-361000I-3J401D01*
G02X55870I1520J800D01*
G03X56220Y-361590I353J-189D01*
G01X60730D01*
G03X61080Y-361000I-3J401D01*
G02X64120I1520J800D01*
G03X64470Y-361590I353J-189D01*
G01X260430D01*
X264040Y-357980D01*
Y-269220D01*
X273050Y-260210D01*
X290170D01*
G02X292630Y-260740I983J-1411D01*
G03X293250Y-260810I338J210D01*
G01X293490Y-260580D01*
Y-260050D01*
X293460Y-260000D01*
G02X293290Y-258450I1440J942D01*
G03X292920Y-257910I-374J141D01*
G01X292130D01*
G02Y-255090I-980J1410D01*
G01X292920D01*
G03X293290Y-254550I-4J399D01*
G02X295880Y-252530I1609J608D01*
G01X299270D01*
X303310Y-256570D01*
Y-273030D01*
X296130Y-280210D01*
X282480D01*
X280060Y-282630D01*
Y-364980D01*
X270340Y-374710D01*
G03X270620Y-375390I282J-281D01*
G01X289470D01*
X300140Y-364720D01*
Y-283020D01*
X307890Y-275270D01*
Y-267530D01*
G02X310180Y-265070I1412J981D01*
G03X310790Y-264730I211J339D01*
G01Y-264530D01*
X309260Y-263000D01*
X309220Y-262990D01*
G02X311390Y-260820I530J1640D01*
G01X311400Y-260860D01*
X313810Y-263270D01*
Y-320920D01*
X318510Y-325620D01*
Y-371930D01*
X309430Y-381010D01*
X273060D01*
G03X272760Y-381680I-5J-400D01*
G02X272810Y-383970I-1259J-1173D01*
G03Y-384230I147J-130D01*
G02Y-386470I-1310J-1120D01*
G03Y-386730I147J-130D01*
G02X270380Y-389160I-1310J-1120D01*
G03X270120I-130J-147D01*
G02X267880I-1120J1310D01*
G03X267620I-130J-147D01*
G02X265380I-1120J1310D01*
G03X265120I-130J-147D01*
G02X262880I-1120J1310D01*
G03X262620I-130J-147D01*
G02X260380I-1120J1310D01*
G03X260120I-130J-147D01*
G02X257690Y-386730I-1120J1310D01*
G03Y-386470I-147J130D01*
G02Y-384230I1310J1120D01*
G03Y-383970I-147J130D01*
G02X257740Y-381680I1309J1117D01*
G03X257440Y-381010I-295J270D01*
G01X252630D01*
X243130Y-390510D01*
X131370D01*
X121370Y-380510D01*
X14630D01*
X13060Y-382080D01*
Y-383520D01*
G02X10040I-1510J-820D01*
G01Y-380820D01*
X11770Y-379090D01*
G03X11490Y-378410I-283J281D01*
G01X-17630D01*
X-22040Y-382820D01*
Y-383350D01*
X-22010Y-383400D01*
G02X-24860Y-383360I-1438J-941D01*
G01Y-381660D01*
X-19100Y-375890D01*
G03X-19380Y-375210I-282J281D01*
G01X-24020D01*
X-27040Y-378230D01*
Y-383360D01*
G02X-29860I-1410J-980D01*
G01Y-377070D01*
X-25890Y-373090D01*
G03X-26170Y-372410I-282J281D01*
G01X-28770D01*
X-32040Y-375680D01*
Y-383360D01*
G02X-34860I-1410J-980D01*
G01Y-374520D01*
X-29930Y-369590D01*
X-13940D01*
G03X-13600Y-368970I3J402D01*
G02X-13770Y-367450I1442J931D01*
G03X-14150Y-366910I-377J138D01*
G01X-32520D01*
X-37040Y-371430D01*
Y-383360D01*
G02X-39860I-1410J-980D01*
G01Y-370270D01*
X-34690Y-365090D01*
G03X-34970Y-364410I-282J281D01*
G01X-36820D01*
X-42040Y-369630D01*
Y-383360D01*
G02X-44860I-1410J-980D01*
G01Y-368470D01*
X-37980Y-361590D01*
X-26680D01*
G03X-26290Y-361110I-3J400D01*
G02X-26310Y-360480I1680J369D01*
G03X-26670Y-360020I-396J61D01*
G02X-164600Y-321300I26666J360022D01*
G03X-165060Y-321940I-178J-357D01*
G01X-160590Y-326420D01*
Y-342420D01*
X-159420Y-343590D01*
X-140420D01*
X-135420Y-348590D01*
X-110420D01*
X-99590Y-359420D01*
Y-386420D01*
X-97420Y-388590D01*
X-21570D01*
X-19860Y-386880D01*
Y-385320D01*
G02X-17040I1410J980D01*
G01Y-388040D01*
X-20410Y-391410D01*
X-98580D01*
X-102410Y-387580D01*
Y-360580D01*
X-111580Y-351410D01*
X-136580D01*
X-141580Y-346410D01*
X-160580D01*
X-163410Y-343580D01*
Y-327580D01*
X-168580Y-322410D01*
X-362580D01*
X-371410Y-313580D01*
Y-63420D01*
X-364580Y-56590D01*
X-356780D01*
G03X-356580Y-56360I1J201D01*
G01X-356620Y-56110D01*
X-372120D01*
X-376590Y-60580D01*
Y-320420D01*
X-371420Y-325590D01*
X-170420D01*
X-165590Y-330420D01*
Y-345420D01*
X-163420Y-347590D01*
X-143420D01*
X-137420Y-353590D01*
X-110420D01*
X-104590Y-359420D01*
Y-390420D01*
X-102420Y-392590D01*
X-16570D01*
X-14860Y-390880D01*
Y-385320D01*
G02X-12040I1410J980D01*
G01Y-392040D01*
X-15410Y-395410D01*
X-103580D01*
X-107410Y-391580D01*
Y-360580D01*
X-111580Y-356410D01*
X-138580D01*
X-144580Y-350410D01*
X-164580D01*
X-168410Y-346580D01*
Y-331580D01*
X-171580Y-328410D01*
X-372580D01*
X-379410Y-321580D01*
Y-59420D01*
X-373280Y-53290D01*
X-357520D01*
G03X-357120Y-52830I3J401D01*
G02X-357660Y-49060I357085J53071D01*
G03X-358340Y-48830I-397J-55D01*
G01X-359920Y-50410D01*
X-375420D01*
X-383590Y-58580D01*
Y-327420D01*
X-380420Y-330590D01*
X-177420D01*
X-170590Y-337420D01*
Y-354420D01*
X-167020Y-357990D01*
X-114020D01*
X-109590Y-362420D01*
Y-394420D01*
X-107420Y-396590D01*
X-12570D01*
X-9860Y-393880D01*
Y-385320D01*
G02X-7040I1410J980D01*
G01Y-395040D01*
X-11410Y-399410D01*
X-51970D01*
G03X-52180Y-400150I1J-400D01*
G02X-56840I-2330J-3790D01*
G03X-57050Y-399410I-211J340D01*
G01X-108580D01*
X-112410Y-395580D01*
Y-363580D01*
X-115180Y-360810D01*
X-168180D01*
X-173410Y-355580D01*
Y-338580D01*
X-178580Y-333410D01*
X-381580D01*
X-386410Y-328580D01*
Y-57420D01*
X-376580Y-47590D01*
X-361080D01*
X-358230Y-44730D01*
X-358240Y-44640D01*
G02X-358340Y-43860I358028J46297D01*
G03X-359020Y-43620I-397J-42D01*
G01X-361810Y-46410D01*
X-381430D01*
X-390590Y-55570D01*
Y-330420D01*
X-384420Y-336590D01*
X-185420D01*
X-179590Y-342420D01*
Y-356420D01*
X-176270Y-359740D01*
X-176090D01*
X-173980Y-361850D01*
Y-362030D01*
X-173420Y-362590D01*
X-118420D01*
X-113590Y-367420D01*
Y-399260D01*
G03X-113050Y-399640I400J-5D01*
G02X-111170Y-402400I600J-1612D01*
G03Y-402660I151J-130D01*
G02X-113050Y-405420I-1280J-1148D01*
G03X-113590Y-405800I-140J-375D01*
G01Y-406940D01*
G03X-113050Y-407320I400J-5D01*
G02Y-410540I600J-1610D01*
G03X-113590Y-410920I-140J-375D01*
G01Y-411260D01*
X-113260Y-411590D01*
X-70580D01*
X-68420Y-409430D01*
X-9420D01*
X-4810Y-404820D01*
Y-390970D01*
X-4860Y-390920D01*
Y-385320D01*
G02X-2040I1410J980D01*
G01Y-389760D01*
X-1990Y-389810D01*
Y-405980D01*
X-8260Y-412250D01*
X-56880D01*
G03X-57270Y-412720I4J-400D01*
G02X-60650I-1690J-320D01*
G03X-61040Y-412250I-394J70D01*
G01X-67260D01*
X-69420Y-414410D01*
X-114420D01*
X-116410Y-412420D01*
Y-368580D01*
X-119580Y-365410D01*
X-174580D01*
X-176800Y-363190D01*
Y-363010D01*
X-177250Y-362560D01*
X-177430D01*
X-182410Y-357580D01*
Y-343580D01*
X-186580Y-339410D01*
X-385580D01*
X-393410Y-331580D01*
Y-54410D01*
X-382590Y-43590D01*
X-362970D01*
X-358850Y-39460D01*
X-358860Y-39370D01*
G02X-358960Y-38460I358803J39889D01*
G03X-359640Y-38220I-397J-42D01*
G01X-362830Y-41410D01*
X-386410D01*
X-396590Y-51590D01*
Y-336420D01*
X-389420Y-343590D01*
X-189420D01*
X-184590Y-348420D01*
Y-348440D01*
X-183590Y-349440D01*
Y-364420D01*
X-180420Y-367590D01*
X-122420D01*
X-118590Y-371420D01*
Y-414420D01*
X-116420Y-416590D01*
X-3590D01*
X140Y-412860D01*
Y-385320D01*
G02X2960I1410J980D01*
G01Y-414020D01*
X-2430Y-419410D01*
X-117580D01*
X-121410Y-415580D01*
Y-372580D01*
X-123580Y-370410D01*
X-181580D01*
X-186410Y-365580D01*
Y-350600D01*
X-187410Y-349600D01*
Y-349580D01*
X-190580Y-346410D01*
X-390580D01*
X-399410Y-337580D01*
Y-50430D01*
X-387570Y-38590D01*
X-363990D01*
X-359410Y-34000D01*
Y-33910D01*
G02X-360490Y-19420I359398J34073D01*
G01X-364430D01*
X-365590Y-20580D01*
Y-32580D01*
X-369420Y-36410D01*
X-409420D01*
X-417590Y-44580D01*
Y-337420D01*
X-407420Y-347590D01*
X-193420D01*
X-188590Y-352420D01*
Y-368420D01*
X-183420Y-373590D01*
X-126420D01*
X-122590Y-377420D01*
Y-417420D01*
X-119420Y-420590D01*
X410D01*
X5390Y-415610D01*
Y-387270D01*
X5140Y-387020D01*
Y-385320D01*
G02X7990Y-385280I1412J981D01*
G01X7960Y-385330D01*
Y-385860D01*
X8210Y-386110D01*
Y-416770D01*
X1570Y-423410D01*
G37*
G54D21*
X-435000Y-435000D03*
Y435000D03*
X-400000Y-400000D03*
Y400000D03*
X400000Y-400000D03*
Y400000D03*
X435000Y-435000D03*
Y435000D03*
G54D25*
X252100Y-439760D03*
Y-416140D03*
G54D24*
X233600Y-427950D03*
G54D22*
X-421100Y-25500D03*
X-418550Y-20380D03*
X-432260Y-15260D03*
X-418550Y-10150D03*
X-413630Y-17820D03*
Y-12700D03*
Y-7590D03*
X-362650Y24460D03*
X-370040Y12110D03*
X-360150Y74520D03*
X-311170Y192780D03*
X-268650Y-426950D03*
X-272400Y-429510D03*
Y-424390D03*
X-268650Y-421830D03*
Y-411590D03*
X-272400Y-414150D03*
X-268650Y-416710D03*
X-272400Y-419270D03*
X-274460Y244700D03*
X-208120Y-421760D03*
Y-411530D03*
Y-416650D03*
X-209750Y-372250D03*
X-187200Y-419200D03*
X-187090Y-414090D03*
X-190030Y-408970D03*
X-196560Y-366940D03*
X-186650Y-377660D03*
X-204440Y-358560D03*
X-172350Y321230D03*
X-133660Y-426840D03*
X-129000Y-403500D03*
X-103000Y-427050D03*
X-116250Y348480D03*
X-58900Y-432050D03*
X-74620Y-359950D03*
X-50800Y-432100D03*
X-42750Y-432150D03*
X-34650D03*
X16550Y-423550D03*
X6550D03*
X31550Y-384340D03*
X21550D03*
X16550D03*
X26550D03*
X11960Y365790D03*
X36550Y-384340D03*
X46550D03*
X41550D03*
X74520Y360950D03*
X115000Y-411000D03*
X116100Y-350530D03*
X146100Y-349700D03*
X164900Y-393800D03*
X173240Y-396360D03*
X164150Y-409150D03*
X172360Y-321740D03*
X194240Y-352040D03*
X204500Y-354600D03*
X207000Y301730D03*
X261950Y-263700D03*
X244850Y276360D03*
X274760Y-244800D03*
X310570Y-193420D03*
X321580Y172610D03*
X354200Y-319850D03*
X355400Y-265900D03*
X355600Y-249900D03*
X359050Y-74620D03*
X348130Y117850D03*
X373920Y-264210D03*
X378120Y-251420D03*
X373920Y-259100D03*
X370000Y-222200D03*
X369940Y-19940D03*
X367790Y-12060D03*
G54D23*
X52690Y-403940D03*
%LPD*%
G75*
G36*
G01X-368590Y-64580D02*
X-363420Y-59410D01*
X-356090D01*
G03X-169330Y-318840I356091J59407D01*
G02X-169510Y-319590I-188J-352D01*
G01X-361420D01*
X-368590Y-312420D01*
Y-64580D01*
G37*
G36*
G01X20060Y-359440D02*
G02X-23850Y-359210I-20073J359440D01*
G03X-25160Y-359120I-764J-1540D01*
G02X-322440Y-160110I25157J359121D01*
G02X-322110Y-159530I361J179D01*
G03X-323520Y-156660I-139J1713D01*
G02X-324170Y-156560I-291J272D01*
G02X-354990Y-59880I324160J156589D01*
G02X-354590Y-59410I396J69D01*
G01X-351570D01*
X-341590Y-49430D01*
Y-11370D01*
X-349160Y-3800D01*
X-354520D01*
G03X-357110Y-5820I-981J-1412D01*
G02X-357480Y-6360I-374J-141D01*
G01X-358270D01*
G03X-359500Y-6070I-982J-1410D01*
G02X-359960Y-5680I-58J398D01*
G02X-359970Y-4750I359976J4336D01*
G02X-359510Y-4350I400J4D01*
G03X-359530Y-950I257J1702D01*
G02X-360000Y-560I-71J392D01*
G02X-300360Y198450I359999J556D01*
G02X-299760Y198520I330J-224D01*
G03X-297870Y201340I1172J1258D01*
G02X-298030Y201930I168J362D01*
G02X22280Y359310I298033J-201929D01*
G02X22640Y358810I-27J-399D01*
G03X26020Y358590I1670J-410D01*
G02X26450Y359030I398J41D01*
G02X322270Y160440I-26454J-359027D01*
G02X321810Y159880I-358J-175D01*
G03X322940Y157570I-461J-1657D01*
G02X323670Y157600I372J-149D01*
G02X299870Y-199200I-323670J-157604D01*
G02X299240Y-199250I-335J222D01*
G03X297370Y-202030I-1252J-1177D01*
G02X297560Y-202630I-143J-375D01*
G02X160230Y-322380I-297563J202626D01*
G02X159660Y-321940I-179J357D01*
G03X157210Y-323140I-1686J342D01*
G02Y-323860I-176J-360D01*
G02X30760Y-358680I-157200J323863D01*
G03X28900Y-358840I-806J-1520D01*
G02X23040Y-359260I-28665J358857D01*
G03X20060Y-359440I-1439J-941D01*
G37*
G36*
G01X-355570Y-52030D02*
G02X-356250Y-51810I-285J281D01*
G02X-356870Y-47370I356223J52006D01*
G01X-348090Y-38590D01*
G02X-347410Y-38870I281J-282D01*
G01Y-43870D01*
X-355570Y-52030D01*
G37*
G36*
G01X-355520Y-56590D02*
X-355610Y-56050D01*
X-345090Y-45540D01*
G02X-344410Y-45820I281J-282D01*
G01Y-48270D01*
X-352730Y-56590D01*
X-355520D01*
G37*
G36*
G01X-353860Y-34480D02*
X-357340Y-37950D01*
G02X-358020Y-37710I-283J280D01*
G02X-358120Y-36710I358159J36321D01*
G01X-354540Y-33130D01*
G02X-353860Y-33410I281J-282D01*
G01Y-34480D01*
G37*
G36*
G01X-350410Y-36920D02*
X-356740Y-43250D01*
G02X-357420Y-43010I-282J284D01*
G02X-357530Y-42130I357160J45092D01*
G01X-351040Y-35640D01*
Y-14640D01*
G02X-350700Y-14500I199J0D01*
G01X-350410Y-14780D01*
Y-36920D01*
G37*
G36*
G01X-358560Y-32220D02*
G02X-359440Y-20140I358562J32192D01*
G02X-359080Y-19720I401J21D01*
G03X-359250Y-16290I-170J1711D01*
G02X-359650Y-15910I0J400D01*
G02X-359690Y-15030I359610J16787D01*
G02X-359280Y-14610I400J19D01*
G03X-358270Y-14300I25J1719D01*
G01X-357480D01*
G02X-357110Y-14840I-4J-399D01*
G03X-356910Y-16430I1610J-605D01*
G01Y-31510D01*
X-357870Y-32470D01*
G02X-358560Y-32220I-289J280D01*
G37*
G36*
G01X-9860Y-433850D02*
X-9820Y-433840D01*
G03X-11990Y-431670I-530J1640D01*
G01X-12000Y-431710D01*
X-18290Y-438000D01*
X-21100D01*
G02X-21380Y-437320I3J399D01*
G01X-17910Y-433850D01*
X-17870Y-433840D01*
G03X-20040Y-431670I-530J1640D01*
G01X-20050Y-431710D01*
X-25830Y-437490D01*
X-30000D01*
Y-428000D01*
X172000D01*
Y-416000D01*
X178000D01*
Y-438000D01*
X-13050D01*
G02X-13330Y-437320I3J399D01*
G01X-9860Y-433850D01*
G37*
G36*
G01X-10380Y-369590D02*
G02X-10720Y-368970I-3J402D01*
G03X-10550Y-367450I-1442J931D01*
G02X-10170Y-366910I377J138D01*
G01X265880D01*
X272760Y-360040D01*
G02X273440Y-360320I281J-282D01*
G01Y-361270D01*
X265120Y-369590D01*
X-10380D01*
G37*
G36*
G01X-22470Y-360310D02*
G03X19900Y-360460I22461J360310D01*
G03X20080Y-361000I1698J266D01*
G02X19730Y-361590I-353J-189D01*
G01X-22540D01*
G02X-22930Y-361110I3J400D01*
G03X-22890Y-360720I-1679J369D01*
G02X-22470Y-360310I400J11D01*
G37*
G36*
G01X23120Y-361000D02*
G03X23320Y-360260I-1518J807D01*
G03X27800Y-359940I-23481J360249D01*
G02X28230Y-360310I33J-397D01*
G03X28430Y-361000I1716J123D01*
G02X28080Y-361590I-353J-189D01*
G01X23470D01*
G02X23120Y-361000I3J401D01*
G37*
G36*
G01X39900Y-361590D02*
G02X39550Y-360990I-3J400D01*
G03X39590Y-359380I-1500J843D01*
G02X39900Y-358800I354J184D01*
G03X44610Y-358240I-40266J358756D01*
G02X44940Y-358920I50J-396D01*
G03X44650Y-360990I1210J-1225D01*
G02X44300Y-361590I-347J-200D01*
G01X39900D01*
G37*
G36*
G01X32020Y-359590D02*
G03X35960Y-359220I-31783J359612D01*
G02X36390Y-359710I42J-397D01*
G03X36550Y-360990I1661J-442D01*
G02X36200Y-361590I-347J-200D01*
G01X31820D01*
G02X31470Y-361000I3J401D01*
G03X31660Y-360030I-1520J801D01*
G02X32020Y-359590I397J42D01*
G37*
G36*
G01X133570Y-382590D02*
X126880Y-375890D01*
G02X127160Y-375210I282J281D01*
G01X146860D01*
X146960Y-375110D01*
X177210D01*
X177260Y-375060D01*
X177940D01*
X178090Y-375210D01*
X199990D01*
X200290Y-375510D01*
X246520D01*
G02X246800Y-376190I-2J-399D01*
G01X240410Y-382590D01*
X133570D01*
G37*
G36*
G01X132630Y-387490D02*
X124230Y-379090D01*
G02X124510Y-378410I283J281D01*
G01X125410D01*
X132410Y-385410D01*
X241570D01*
X248770Y-378210D01*
X250190D01*
G02X250470Y-378890I-3J-399D01*
G01X241870Y-387490D01*
X132630D01*
G37*
G36*
G01X270540Y-358270D02*
X264720Y-364090D01*
X262880D01*
G02X262600Y-363410I2J399D01*
G01X266860Y-359140D01*
Y-270380D01*
X274210Y-263030D01*
X290170D01*
G03X290270Y-263100I1035J1372D01*
G02X290340Y-263720I-210J-338D01*
G01X289180Y-264890D01*
X274410D01*
X270540Y-268760D01*
Y-358270D01*
G37*
G36*
G01X266970Y-372690D02*
G02X266690Y-372010I2J399D01*
G01X276260Y-362430D01*
Y-277730D01*
X276880Y-277110D01*
X280630D01*
G02X280910Y-277790I-2J-399D01*
G01X277240Y-281470D01*
Y-363820D01*
X268370Y-372690D01*
X266970D01*
G37*
G36*
G01X291540Y-377310D02*
X302960Y-365880D01*
Y-284180D01*
X310110Y-277040D01*
G02X310790Y-277320I281J-282D01*
G01Y-322180D01*
X315490Y-326880D01*
Y-370670D01*
X308170Y-377990D01*
X291820D01*
G02X291540Y-377310I2J399D01*
G37*
G36*
G01X273360Y-275680D02*
Y-269920D01*
X275570Y-267710D01*
X290340D01*
X296310Y-261740D01*
Y-260040D01*
G03X296610Y-259230I-1410J983D01*
G02X297290Y-258990I397J-41D01*
G01X298140Y-259830D01*
Y-269720D01*
X293570Y-274290D01*
X275720D01*
X274040Y-275960D01*
G02X273360Y-275680I-281J282D01*
G37*
%LPC*%
G75*
G36*
G01X285520Y0D02*
G02I-285520J0D01*
G37*
G54D26*
X-325860Y-107310D03*
X-335860Y-70000D03*
Y-60000D03*
Y-50000D03*
Y-40000D03*
Y-30000D03*
Y-20000D03*
Y-10000D03*
Y0D03*
Y10000D03*
Y20000D03*
Y30000D03*
Y40000D03*
Y50000D03*
Y60000D03*
Y70000D03*
X-325860Y107310D03*
X-295860Y-159270D03*
X-300860Y-150610D03*
X-305860Y-141950D03*
X-310860Y-133290D03*
X-315860Y-124630D03*
X-320860Y-115970D03*
Y115970D03*
X-315860Y124630D03*
X-310860Y133290D03*
X-305860Y141950D03*
X-300860Y150610D03*
X-295860Y159270D03*
X-265860Y-211230D03*
X-270860Y-202570D03*
X-275860Y-193910D03*
X-280860Y-185250D03*
X-285860Y-176590D03*
X-290860Y-167930D03*
Y167930D03*
X-285860Y176590D03*
X-280860Y185250D03*
X-275860Y193910D03*
X-270860Y202570D03*
X-265860Y211230D03*
X-255860Y-228550D03*
X-260860Y-219890D03*
Y219890D03*
X-255860Y228550D03*
X-211230Y-265860D03*
X-219890Y-260860D03*
X-228550Y-255860D03*
Y255860D03*
X-219890Y260860D03*
X-211230Y265860D03*
X-176590Y-285860D03*
X-185250Y-280860D03*
X-193910Y-275860D03*
X-202570Y-270860D03*
Y270860D03*
X-193910Y275860D03*
X-185250Y280860D03*
X-176590Y285860D03*
X-150610Y-300860D03*
X-159270Y-295860D03*
X-167930Y-290860D03*
Y290860D03*
X-159270Y295860D03*
X-150610Y300860D03*
X-115970Y-320860D03*
X-124630Y-315860D03*
X-133290Y-310860D03*
X-141950Y-305860D03*
Y305860D03*
X-133290Y310860D03*
X-124630Y315860D03*
X-115970Y320860D03*
X-107310Y-325860D03*
Y325860D03*
X-60000Y-335860D03*
X-70000D03*
Y335860D03*
X-60000D03*
X-30000Y-335860D03*
X-40000D03*
X-50000D03*
Y335860D03*
X-40000D03*
X-30000D03*
X0Y-335860D03*
X-10000D03*
X-20000D03*
Y335860D03*
X-10000D03*
X0D03*
X30000Y-335860D03*
X20000D03*
X10000D03*
Y335860D03*
X20000D03*
X30000D03*
X60000Y-335860D03*
X50000D03*
X40000D03*
Y335860D03*
X50000D03*
X60000D03*
X70000Y-335860D03*
Y335860D03*
X115970Y-320860D03*
X107310Y-325860D03*
Y325860D03*
X115970Y320860D03*
X150610Y-300860D03*
X141950Y-305860D03*
X133290Y-310860D03*
X124630Y-315860D03*
X150610Y300860D03*
X124630Y315860D03*
X133290Y310860D03*
X141950Y305860D03*
X176590Y-285860D03*
X167930Y-290860D03*
X159270Y-295860D03*
Y295860D03*
X167930Y290860D03*
X176590Y285860D03*
X202570Y-270860D03*
X193910Y-275860D03*
X185250Y-280860D03*
X211230Y-265860D03*
X202570Y270860D03*
X211230Y265860D03*
X185250Y280860D03*
X193910Y275860D03*
X228550Y-255860D03*
X219890Y-260860D03*
Y260860D03*
X228550Y255860D03*
X265860Y-211230D03*
X260860Y-219890D03*
X255860Y-228550D03*
X270860Y-202570D03*
Y202570D03*
X255860Y228550D03*
X260860Y219890D03*
X265860Y211230D03*
X280860Y-185250D03*
X275860Y-193910D03*
X300860Y-150610D03*
X295860Y-159270D03*
X290860Y-167930D03*
X285860Y-176590D03*
X300860Y150610D03*
X285860Y176590D03*
X290860Y167930D03*
X295860Y159270D03*
X275860Y193910D03*
X280860Y185250D03*
X315860Y-124630D03*
X310860Y-133290D03*
X305860Y-141950D03*
X325860Y-107310D03*
X320860Y-115970D03*
Y115970D03*
X325860Y107310D03*
X305860Y141950D03*
X310860Y133290D03*
X315860Y124630D03*
X335860Y-70000D03*
Y-40000D03*
Y-50000D03*
Y-60000D03*
Y-10000D03*
Y-20000D03*
Y-30000D03*
Y20000D03*
Y10000D03*
Y0D03*
Y50000D03*
Y40000D03*
Y30000D03*
Y70000D03*
Y60000D03*
G54D22*
X-349230Y-117050D03*
X-322480Y-172210D03*
X-245600Y-276510D03*
X-199850Y-305130D03*
X-330350Y-124930D03*
X-338750Y-110370D03*
X-355500Y-90D03*
X-349500Y57490D03*
Y74310D03*
X-272560Y224070D03*
X-239280Y-266040D03*
X-264140Y238630D03*
X-224720Y-274460D03*
X-185470Y-304910D03*
X-158020Y321000D03*
X-124630Y329900D03*
X-90080Y-334140D03*
X-89490Y-329920D03*
X-110070Y338300D03*
X-74460Y-348350D03*
X-85660Y-333350D03*
X-57640Y-348350D03*
X57490Y349850D03*
X74310D03*
X110220Y-339400D03*
X124780Y-331000D03*
X192170Y301810D03*
X238630Y265090D03*
X224070Y273510D03*
X264490Y-239080D03*
X272910Y-224520D03*
X329400Y125280D03*
X347450Y-74460D03*
Y-57640D03*
X343800Y62400D03*
X337800Y110720D03*
X-2300Y-432250D03*
X30150Y-432500D03*
X22000Y-432400D03*
X5800Y-432300D03*
X13850Y-432350D03*
X38350Y-432450D03*
X54650D03*
X46500Y-432350D03*
X62900Y-432400D03*
%LPD*%
G75*
G54D10*
X-435000Y-435000D03*
Y435000D03*
X-400000Y-400000D03*
Y400000D03*
X400000Y-400000D03*
Y400000D03*
X435000Y-435000D03*
Y435000D03*
G54D20*
G01X-460000Y-480000D02*
G03I-15000J5000D01*
G01X-465000D02*
G03I-10000J5000D01*
G01X-495000Y-475000D02*
X-455000D01*
G01X-485000Y500000D02*
Y460000D01*
G01X-470000Y475000D02*
G03I-15000J5000D01*
G01X-475000D02*
G03I-10000J5000D01*
G01X-505000Y480000D02*
X-465000D01*
G01X-475000Y-455000D02*
Y-495000D01*
G01X-450000Y-450000D02*
X450000D01*
Y450000D01*
X-450000D01*
Y-450000D01*
G01X-376500Y-400000D02*
G03I-23500J0D01*
G01Y399930D02*
G03I-23500J2D01*
G01X275000Y0D02*
G03I-275000J0D01*
G01X0Y-9000D02*
Y9000D01*
G01Y-9000D02*
Y9000D01*
G01X-9000Y0D02*
X9000D01*
G01X-9000D02*
X9000D01*
G01X423500Y-400000D02*
G03I-23500J0D01*
G01Y399930D02*
G03I-23500J2D01*
G01X480000Y-450000D02*
Y-490000D01*
G01X495000Y-475000D02*
G03I-15000J5000D01*
G01X460000Y-470000D02*
X500000D01*
G01X490000Y-475000D02*
G03I-10000J5000D01*
G01Y455000D02*
G03I-15000J5000D01*
G01X475000Y480000D02*
Y440000D01*
G01X485000Y455000D02*
G03I-10000J5000D01*
G01X455000Y460000D02*
X495000D01*
G54D11*
X-440000Y-410000D03*
Y-420000D03*
Y-400000D03*
Y-370000D03*
Y-390000D03*
Y-380000D03*
Y-340000D03*
Y-350000D03*
Y-360000D03*
Y-310000D03*
Y-330000D03*
Y-320000D03*
Y-280000D03*
Y-300000D03*
Y-290000D03*
Y-250000D03*
Y-270000D03*
Y-260000D03*
Y-220000D03*
Y-230000D03*
Y-240000D03*
Y-200000D03*
Y-190000D03*
Y-210000D03*
Y-160000D03*
Y-170000D03*
Y-180000D03*
Y-130000D03*
Y-140000D03*
Y-150000D03*
Y-100000D03*
Y-110000D03*
Y-120000D03*
Y-80000D03*
Y-70000D03*
Y-90000D03*
Y-40000D03*
Y-50000D03*
Y-60000D03*
X-425700Y-47300D03*
X-421100Y-25500D03*
X-440000Y-10000D03*
Y-20000D03*
Y-30000D03*
X-430660Y-2470D03*
Y-5030D03*
X-418550Y-20380D03*
X-432260Y-15260D03*
X-418550Y-10150D03*
X-440000Y20000D03*
Y10000D03*
Y0D03*
X-430660Y2650D03*
Y90D03*
X-440000Y40000D03*
Y50000D03*
Y30000D03*
Y80000D03*
Y70000D03*
Y60000D03*
Y100000D03*
Y90000D03*
Y110000D03*
Y120000D03*
Y140000D03*
Y130000D03*
Y160000D03*
Y150000D03*
Y170000D03*
Y200000D03*
Y190000D03*
Y180000D03*
Y230000D03*
Y220000D03*
Y210000D03*
Y240000D03*
Y260000D03*
Y250000D03*
Y280000D03*
Y270000D03*
Y290000D03*
Y320000D03*
Y310000D03*
Y300000D03*
Y350000D03*
Y340000D03*
Y330000D03*
Y380000D03*
Y360000D03*
Y370000D03*
Y400000D03*
Y390000D03*
Y410000D03*
X-420000Y440000D03*
X-440000Y420000D03*
X-403600Y-47600D03*
X-407730Y-20380D03*
X-399040Y-22940D03*
X-399050Y-25500D03*
X-413630Y-17820D03*
Y-12700D03*
Y-7590D03*
X-400000Y440000D03*
X-390000D03*
X-410000D03*
X-359250Y-18010D03*
Y-12890D03*
Y-7770D03*
Y-2650D03*
X-362650Y24460D03*
X-370040Y12110D03*
X-360150Y52580D03*
Y74520D03*
X-380000Y440000D03*
X-360000D03*
X-370000D03*
X-330350Y-124930D03*
X-338270Y-136050D03*
X-338750Y-110370D03*
X-349230Y-117050D03*
X-355500Y-15450D03*
Y-10330D03*
Y-5210D03*
Y-90D03*
X-349500Y57490D03*
Y74310D03*
X-350000Y440000D03*
X-340000D03*
X-330000D03*
X-322250Y-157820D03*
X-322480Y-172210D03*
X-298590Y199780D03*
X-311170Y192780D03*
X-320000Y440000D03*
X-310000D03*
X-300000D03*
X-268650Y-426950D03*
X-272400Y-429510D03*
Y-424390D03*
X-268650Y-421830D03*
Y-411590D03*
X-272400Y-414150D03*
X-268650Y-416710D03*
X-272400Y-419270D03*
X-272560Y224070D03*
X-285440Y225700D03*
X-274460Y244700D03*
X-280000Y440000D03*
X-270000D03*
X-290000D03*
X-245600Y-276510D03*
X-239280Y-266040D03*
X-264140Y238630D03*
X-240000Y440000D03*
X-260000D03*
X-250000D03*
X-218550Y-432000D03*
X-208900D03*
X-208120Y-426880D03*
Y-421760D03*
X-230950Y-403850D03*
Y-406410D03*
X-218550Y-408970D03*
X-208900Y-403850D03*
Y-406410D03*
X-208120Y-411530D03*
Y-416650D03*
X-209750Y-372250D03*
X-224750Y-384450D03*
X-224720Y-274460D03*
X-226600Y-287490D03*
X-230000Y440000D03*
X-220000D03*
X-210000D03*
X-187320Y-424320D03*
X-190030Y-408970D03*
X-187090Y-414090D03*
X-187200Y-419200D03*
X-202700Y-385300D03*
X-196560Y-366940D03*
X-186650Y-377660D03*
X-204440Y-358560D03*
X-185470Y-304910D03*
X-199850Y-305130D03*
X-200000Y440000D03*
X-190000D03*
X-180000D03*
X-156250Y-372450D03*
X-177590Y-363350D03*
X-156450Y-351900D03*
X-177590Y-343000D03*
X-158020Y321000D03*
X-172350Y321230D03*
X-160000Y440000D03*
X-150000D03*
X-170000D03*
X-143200Y-429400D03*
X-121150D03*
Y-426840D03*
X-133660D03*
X-143200Y-403810D03*
Y-401250D03*
X-134500Y-406370D03*
X-129000Y-403500D03*
X-124630Y329900D03*
X-135250Y337520D03*
X-120000Y440000D03*
X-140000D03*
X-130000D03*
X-103000Y-427050D03*
X-112450Y-403810D03*
Y-401250D03*
Y-408930D03*
X-90080Y-334140D03*
X-89490Y-329920D03*
X-110070Y338300D03*
X-116250Y348480D03*
X-100000Y440000D03*
X-90000D03*
X-110000D03*
X-58900Y-447850D03*
Y-432050D03*
X-58960Y-413040D03*
X-74460Y-348350D03*
X-85660Y-333350D03*
X-74620Y-359950D03*
X-80000Y440000D03*
X-70000D03*
X-60000D03*
X-34650Y-447950D03*
X-42750D03*
X-50800Y-447900D03*
Y-432100D03*
X-42750Y-432150D03*
X-34650D03*
X-28450Y-384340D03*
X-33450D03*
X-38450D03*
X-43450D03*
X-57640Y-348350D03*
X-52680Y-359950D03*
X-40000Y440000D03*
X-50000D03*
X-30000D03*
X-2300Y-448050D03*
X-10350Y-448000D03*
X-18400D03*
X-26500Y-447950D03*
Y-432150D03*
X-18400Y-432200D03*
X-10350D03*
X-2300Y-432250D03*
X1550Y-384340D03*
X-3450D03*
X-8450D03*
X-13450D03*
X-18450D03*
X-23450D03*
X-12160Y-368040D03*
X-24610Y-360750D03*
X-20000Y440000D03*
X-10000D03*
X0D03*
X13850Y-448150D03*
X22000Y-448200D03*
X30150Y-448300D03*
X5800Y-448100D03*
Y-432300D03*
X30150Y-432500D03*
X22000Y-432400D03*
X16550Y-423550D03*
X6550D03*
X13850Y-432350D03*
X11550Y-384340D03*
X6550D03*
X31550D03*
X21550D03*
X16550D03*
X26550D03*
X21600Y-360200D03*
X29950D03*
X24310Y358400D03*
X11960Y365790D03*
X10000Y440000D03*
X20000D03*
X30000D03*
X38350Y-448250D03*
X46500Y-448150D03*
X54650Y-448250D03*
Y-432450D03*
X46500Y-432350D03*
X38350Y-432450D03*
X36550Y-384340D03*
X46550D03*
X41550D03*
X38050Y-360150D03*
X46150D03*
X54350Y-360200D03*
X57490Y349850D03*
X52580Y360950D03*
X40000Y440000D03*
X50000D03*
X60000D03*
X62900Y-448200D03*
Y-432400D03*
X62600Y-360200D03*
X74310Y349850D03*
X74520Y360950D03*
X80000Y440000D03*
X70000D03*
X90000D03*
X115000Y-411000D03*
X102990Y-416550D03*
X100800Y-419110D03*
Y-413990D03*
X116100Y-350530D03*
X110220Y-339400D03*
X100000Y440000D03*
X110000D03*
X120000D03*
X142850Y-421950D03*
X151650Y-396360D03*
Y-393800D03*
X142850Y-398920D03*
X147300Y-375900D03*
X146100Y-349700D03*
X135100Y-339570D03*
X124780Y-331000D03*
X130000Y440000D03*
X140000D03*
X150000D03*
X164900Y-421950D03*
Y-419390D03*
Y-393800D03*
X173240Y-396360D03*
X164150Y-409150D03*
X176040Y-411710D03*
X173700Y-414270D03*
X176040Y-416830D03*
X169250Y-375900D03*
X177600Y-375850D03*
X170810Y-352040D03*
X173150Y-354600D03*
Y-344360D03*
X170810Y-341800D03*
Y-336690D03*
X173150Y-334130D03*
X170810Y-331570D03*
X173150Y-349480D03*
X170810Y-346920D03*
X173150Y-339250D03*
X157970Y-321600D03*
X173150Y-329010D03*
X170810Y-326450D03*
X172360Y-321740D03*
X160000Y440000D03*
X170000D03*
X180000D03*
X199650Y-376000D03*
X194240Y-352040D03*
X204500Y-354600D03*
X192170Y301810D03*
X207000Y301730D03*
X200000Y440000D03*
X190000D03*
X210000D03*
X238630Y265090D03*
X224070Y273510D03*
X225850Y287340D03*
X220000Y440000D03*
X230000D03*
X240000D03*
X266150Y-423300D03*
X268650D03*
X271150D03*
X266150Y-410800D03*
Y-413300D03*
Y-415800D03*
Y-418300D03*
Y-420800D03*
X268650Y-410800D03*
Y-413300D03*
Y-415800D03*
Y-418300D03*
Y-420800D03*
X271150Y-410800D03*
Y-413300D03*
Y-415800D03*
Y-418300D03*
Y-420800D03*
X271350Y-391750D03*
X268850D03*
X266350D03*
X263850D03*
X261350D03*
X258850D03*
X271350Y-394250D03*
X268850D03*
X266350D03*
X263850D03*
X261350D03*
X258850D03*
X271350Y-396750D03*
X268850D03*
X266350D03*
X263850D03*
X261350D03*
X258850D03*
X258700Y-405950D03*
X261200D03*
X263700D03*
X266200D03*
X268700D03*
X271200D03*
X258700Y-403450D03*
X261200D03*
X263700D03*
X266200D03*
X268700D03*
X271200D03*
X258700Y-400950D03*
X261200D03*
X263700D03*
X266200D03*
X268700D03*
X271200D03*
X271500Y-382850D03*
X269000D03*
X266500D03*
X264000D03*
X261500D03*
X259000D03*
X271500Y-385350D03*
X269000D03*
X266500D03*
X264000D03*
X261500D03*
X259000D03*
X271500Y-387850D03*
X269000D03*
X266500D03*
X264000D03*
X261500D03*
X259000D03*
X246990Y-331550D03*
Y-346910D03*
X244650Y-344350D03*
X246990Y-341790D03*
X244650Y-339230D03*
X246990Y-336670D03*
X244650Y-334110D03*
X269210Y-313950D03*
X244650Y-328990D03*
X261950Y-263700D03*
X264490Y-239080D03*
X244850Y276360D03*
X250000Y440000D03*
X270000D03*
X260000D03*
X295900Y-421450D03*
X293400D03*
X290900D03*
X288400D03*
X285900D03*
X283400D03*
X295900Y-416450D03*
X293400D03*
X290900D03*
X288400D03*
X285900D03*
X283400D03*
X295900Y-418950D03*
X293400D03*
X290900D03*
X288400D03*
X285900D03*
X283400D03*
X295700Y-408000D03*
X293200D03*
X290700D03*
X288200D03*
X285700D03*
X283200D03*
X295700Y-410500D03*
X293200D03*
X290700D03*
X288200D03*
X285700D03*
X283200D03*
X295700Y-413000D03*
X293200D03*
X290700D03*
X288200D03*
X285700D03*
X283200D03*
X282750Y-327700D03*
X285250D03*
X287750D03*
X290250D03*
X292750D03*
X295250D03*
X282750Y-325200D03*
X285250D03*
X287750D03*
X290250D03*
X292750D03*
X295250D03*
X282750Y-322700D03*
X285250D03*
X287750D03*
X290250D03*
X292750D03*
X295250D03*
X274760Y-244800D03*
X294900Y-253940D03*
X291150Y-256500D03*
X294900Y-259060D03*
X291150Y-261620D03*
X272910Y-224520D03*
X285740Y-225800D03*
X297990Y-200430D03*
X280000Y440000D03*
X300000D03*
X290000D03*
X330650Y-399250D03*
Y-401750D03*
Y-404250D03*
X330700Y-393000D03*
Y-395500D03*
X330800Y-373200D03*
Y-381600D03*
Y-384100D03*
Y-386600D03*
Y-375700D03*
Y-378200D03*
X330700Y-390500D03*
X306900Y-338000D03*
Y-340500D03*
X309400Y-338000D03*
Y-340500D03*
X311900Y-338000D03*
Y-340500D03*
X306900Y-333000D03*
Y-335500D03*
X309400Y-333000D03*
Y-335500D03*
X311900Y-333000D03*
Y-335500D03*
X306900Y-328000D03*
Y-330500D03*
X309400Y-328000D03*
Y-330500D03*
X311900Y-328000D03*
Y-330500D03*
X329700Y-321800D03*
X332200D03*
X318300Y-321700D03*
X320800D03*
X323300D03*
X327200Y-321800D03*
X329700Y-311800D03*
X332200D03*
X329700Y-309300D03*
X332200D03*
X329700Y-314300D03*
Y-316800D03*
X332200Y-314300D03*
Y-316800D03*
X329700Y-319300D03*
X332200D03*
X318300Y-309200D03*
Y-311700D03*
X320800Y-309200D03*
Y-311700D03*
X323300Y-309200D03*
Y-311700D03*
X327200Y-311800D03*
Y-309300D03*
X318300Y-314200D03*
Y-316700D03*
X320800Y-314200D03*
Y-316700D03*
X323300Y-314200D03*
Y-316700D03*
X318300Y-319200D03*
X320800D03*
X323300D03*
X327200Y-314300D03*
Y-316800D03*
Y-319300D03*
X309750Y-261350D03*
X309300Y-266550D03*
X310570Y-193420D03*
X329400Y125280D03*
X321350Y158220D03*
X321580Y172610D03*
X310000Y440000D03*
X330000D03*
X320000D03*
X340650Y-399250D03*
Y-401750D03*
Y-404250D03*
X340700Y-393000D03*
Y-395500D03*
X343150Y-399250D03*
Y-401750D03*
Y-404250D03*
X343200Y-393000D03*
Y-395500D03*
X338150Y-399250D03*
X335650D03*
X338150Y-401750D03*
X335650D03*
X338150Y-404250D03*
X335650D03*
X333150Y-399250D03*
Y-401750D03*
Y-404250D03*
X338200Y-393000D03*
X335700D03*
X338200Y-395500D03*
X335700D03*
X333200Y-393000D03*
Y-395500D03*
X343300Y-373200D03*
X340800D03*
X343300Y-381600D03*
X340800D03*
X343300Y-384100D03*
X340800D03*
X343300Y-386600D03*
X340800D03*
X343300Y-375700D03*
X340800D03*
X343300Y-378200D03*
X340800D03*
X340700Y-390500D03*
X343200D03*
X338300Y-373200D03*
X335800D03*
X338300Y-381600D03*
X335800D03*
X338300Y-384100D03*
X335800D03*
X338300Y-386600D03*
X335800D03*
X338300Y-375700D03*
X335800D03*
X338300Y-378200D03*
X335800D03*
X333300Y-373200D03*
Y-381600D03*
Y-384100D03*
Y-386600D03*
Y-375700D03*
Y-378200D03*
X338200Y-390500D03*
X335700D03*
X333200D03*
X335950Y-321850D03*
X338450D03*
X340950D03*
X335950Y-311850D03*
X338450D03*
X340950D03*
X335950Y-309350D03*
X338450D03*
X340950D03*
X335950Y-314350D03*
Y-316850D03*
X338450Y-314350D03*
Y-316850D03*
X340950Y-314350D03*
Y-316850D03*
X335950Y-319350D03*
X338450D03*
X340950D03*
X354200Y-319850D03*
X349550Y-251420D03*
X338550Y-246300D03*
Y-248860D03*
X355400Y-265900D03*
X355600Y-249900D03*
X350010Y-232260D03*
X347450Y-74460D03*
X359050Y-74620D03*
X347450Y-57640D03*
X359050Y-52680D03*
X343800Y62400D03*
X337800Y110720D03*
X348130Y117850D03*
X337170Y136850D03*
X340000Y440000D03*
X350000D03*
X360000D03*
X371600Y-271890D03*
Y-274450D03*
Y-246300D03*
Y-248860D03*
Y-266770D03*
Y-269330D03*
X373920Y-264210D03*
X378120Y-251420D03*
X373920Y-259100D03*
X366050Y-227000D03*
X370000Y-222200D03*
X369940Y-19940D03*
X367790Y-12060D03*
X370000Y440000D03*
X390000D03*
X380000D03*
X410000D03*
X420000D03*
X400000D03*
X440000Y-400000D03*
Y-420000D03*
Y-410000D03*
Y-380000D03*
Y-390000D03*
Y-370000D03*
Y-360000D03*
Y-350000D03*
Y-340000D03*
Y-320000D03*
Y-330000D03*
Y-310000D03*
Y-290000D03*
Y-300000D03*
Y-280000D03*
Y-260000D03*
Y-270000D03*
Y-250000D03*
Y-240000D03*
Y-230000D03*
Y-220000D03*
Y-210000D03*
Y-190000D03*
Y-200000D03*
Y-180000D03*
Y-170000D03*
Y-160000D03*
Y-150000D03*
Y-140000D03*
Y-130000D03*
Y-120000D03*
Y-110000D03*
Y-100000D03*
Y-90000D03*
Y-70000D03*
Y-80000D03*
Y-60000D03*
Y-50000D03*
Y-40000D03*
Y-30000D03*
Y-20000D03*
Y-10000D03*
Y0D03*
Y10000D03*
Y20000D03*
Y30000D03*
Y50000D03*
Y40000D03*
Y60000D03*
Y70000D03*
Y80000D03*
Y90000D03*
Y100000D03*
Y110000D03*
Y130000D03*
Y140000D03*
Y120000D03*
Y170000D03*
Y150000D03*
Y160000D03*
Y180000D03*
Y190000D03*
Y200000D03*
Y210000D03*
Y220000D03*
Y230000D03*
Y250000D03*
Y260000D03*
Y240000D03*
Y290000D03*
Y270000D03*
Y280000D03*
Y300000D03*
Y310000D03*
Y320000D03*
Y330000D03*
Y340000D03*
Y350000D03*
Y370000D03*
Y360000D03*
Y380000D03*
Y410000D03*
Y390000D03*
Y400000D03*
Y420000D03*
G54D12*
X-325860Y-107310D03*
X-335860Y-70000D03*
Y-60000D03*
Y-50000D03*
Y-40000D03*
Y-30000D03*
Y-20000D03*
Y-10000D03*
Y0D03*
Y10000D03*
Y20000D03*
Y30000D03*
Y40000D03*
Y50000D03*
Y60000D03*
Y70000D03*
X-325860Y107310D03*
X-295860Y-159270D03*
X-300860Y-150610D03*
X-305860Y-141950D03*
X-310860Y-133290D03*
X-315860Y-124630D03*
X-320860Y-115970D03*
Y115970D03*
X-315860Y124630D03*
X-310860Y133290D03*
X-305860Y141950D03*
X-300860Y150610D03*
X-295860Y159270D03*
X-265860Y-211230D03*
X-270860Y-202570D03*
X-275860Y-193910D03*
X-280860Y-185250D03*
X-285860Y-176590D03*
X-290860Y-167930D03*
Y167930D03*
X-285860Y176590D03*
X-280860Y185250D03*
X-275860Y193910D03*
X-270860Y202570D03*
X-265860Y211230D03*
X-255860Y-228550D03*
X-260860Y-219890D03*
Y219890D03*
X-255860Y228550D03*
X-211230Y-265860D03*
X-219890Y-260860D03*
X-228550Y-255860D03*
Y255860D03*
X-219890Y260860D03*
X-211230Y265860D03*
X-176590Y-285860D03*
X-185250Y-280860D03*
X-193910Y-275860D03*
X-202570Y-270860D03*
Y270860D03*
X-193910Y275860D03*
X-185250Y280860D03*
X-176590Y285860D03*
X-150610Y-300860D03*
X-159270Y-295860D03*
X-167930Y-290860D03*
Y290860D03*
X-159270Y295860D03*
X-150610Y300860D03*
X-115970Y-320860D03*
X-124630Y-315860D03*
X-133290Y-310860D03*
X-141950Y-305860D03*
Y305860D03*
X-133290Y310860D03*
X-124630Y315860D03*
X-115970Y320860D03*
X-107310Y-325860D03*
Y325860D03*
X-60000Y-335860D03*
X-70000D03*
Y335860D03*
X-60000D03*
X-30000Y-335860D03*
X-40000D03*
X-50000D03*
Y335860D03*
X-40000D03*
X-30000D03*
X0Y-335860D03*
X-10000D03*
X-20000D03*
Y335860D03*
X-10000D03*
X0D03*
X30000Y-335860D03*
X20000D03*
X10000D03*
Y335860D03*
X20000D03*
X30000D03*
X60000Y-335860D03*
X50000D03*
X40000D03*
Y335860D03*
X50000D03*
X60000D03*
X70000Y-335860D03*
Y335860D03*
X115970Y-320860D03*
X107310Y-325860D03*
Y325860D03*
X115970Y320860D03*
X150610Y-300860D03*
X141950Y-305860D03*
X133290Y-310860D03*
X124630Y-315860D03*
X150610Y300860D03*
X124630Y315860D03*
X133290Y310860D03*
X141950Y305860D03*
X176590Y-285860D03*
X167930Y-290860D03*
X159270Y-295860D03*
Y295860D03*
X167930Y290860D03*
X176590Y285860D03*
X202570Y-270860D03*
X193910Y-275860D03*
X185250Y-280860D03*
X211230Y-265860D03*
X202570Y270860D03*
X211230Y265860D03*
X185250Y280860D03*
X193910Y275860D03*
X228550Y-255860D03*
X219890Y-260860D03*
Y260860D03*
X228550Y255860D03*
X265860Y-211230D03*
X260860Y-219890D03*
X255860Y-228550D03*
X270860Y-202570D03*
Y202570D03*
X255860Y228550D03*
X260860Y219890D03*
X265860Y211230D03*
X280860Y-185250D03*
X275860Y-193910D03*
X300860Y-150610D03*
X295860Y-159270D03*
X290860Y-167930D03*
X285860Y-176590D03*
X300860Y150610D03*
X285860Y176590D03*
X290860Y167930D03*
X295860Y159270D03*
X275860Y193910D03*
X280860Y185250D03*
X315860Y-124630D03*
X310860Y-133290D03*
X305860Y-141950D03*
X325860Y-107310D03*
X320860Y-115970D03*
Y115970D03*
X325860Y107310D03*
X305860Y141950D03*
X310860Y133290D03*
X315860Y124630D03*
X335860Y-70000D03*
Y-40000D03*
Y-50000D03*
Y-60000D03*
Y-10000D03*
Y-20000D03*
Y-30000D03*
Y20000D03*
Y10000D03*
Y0D03*
Y50000D03*
Y40000D03*
Y30000D03*
Y70000D03*
Y60000D03*
G54D13*
X0Y0D03*
G54D14*
X-54510Y-403940D03*
X52690D03*
G54D15*
X233600Y-427950D03*
G54D16*
X252100Y-439760D03*
Y-416140D03*
G54D17*
G01X-400000Y-410710D02*
Y-400000D01*
G01D02*
Y-389290D01*
G01X-410710Y-400000D02*
X-400000D01*
G01D02*
X-389290D01*
G01X-400000Y389290D02*
Y400000D01*
G01D02*
Y410710D01*
G01X-410710Y400000D02*
X-400000D01*
G01D02*
X-389290D01*
G01X-335860Y-23710D02*
Y-20000D01*
G01D02*
Y-16290D01*
G01X-339570Y-20000D02*
X-335860D01*
G01D02*
X-332150D01*
G01X-300860Y146900D02*
Y150610D01*
G01D02*
Y154320D01*
G01X-304570Y150610D02*
X-300860D01*
G01D02*
X-297150D01*
G01X-280860Y-188960D02*
Y-185250D01*
G01D02*
Y-181540D01*
G01X-284570Y-185250D02*
X-280860D01*
G01D02*
X-277150D01*
G01X-185250Y277150D02*
Y280860D01*
G01D02*
Y284570D01*
G01X-188960Y280860D02*
X-185250D01*
G01D02*
X-181540D01*
G01X-150610Y-304570D02*
Y-300860D01*
G01D02*
Y-297150D01*
G01X-154320Y-300860D02*
X-150610D01*
G01D02*
X-146900D01*
G01X-20000Y332150D02*
Y335860D01*
G01D02*
Y339570D01*
G01X-23710Y335860D02*
X-20000D01*
G01D02*
X-16290D01*
G01X20000Y-339570D02*
Y-335860D01*
G01D02*
Y-332150D01*
G01X16290Y-335860D02*
X20000D01*
G01D02*
X23710D01*
G01X146900Y300860D02*
X150610D01*
G01Y297150D02*
Y300860D01*
G01D02*
Y304570D01*
G01Y300860D02*
X154320D01*
G01X185250Y-284570D02*
Y-280860D01*
G01D02*
Y-277150D01*
G01X181540Y-280860D02*
X185250D01*
G01D02*
X188960D01*
G01X233600Y-438510D02*
Y-427950D01*
G01D02*
Y-417390D01*
G01X228950Y-427950D02*
X233600D01*
G01D02*
X238250D01*
G01X252100Y-444410D02*
Y-439760D01*
G01D02*
Y-435110D01*
G01X241540Y-439760D02*
X252100D01*
G01D02*
X262660D01*
G01X297150Y-150610D02*
X300860D01*
G01X280860Y181540D02*
Y185250D01*
G01D02*
Y188960D01*
G01X277150Y185250D02*
X280860D01*
G01D02*
X284570D01*
G01X300860Y-154320D02*
Y-150610D01*
G01D02*
Y-146900D01*
G01Y-150610D02*
X304570D01*
G01X335860Y16290D02*
Y20000D01*
G01D02*
Y23710D01*
G01X332150Y20000D02*
X335860D01*
G01D02*
X339570D01*
G01X389290Y-400000D02*
X400000D01*
G01X389290Y400000D02*
X400000D01*
G01Y-410710D02*
Y-400000D01*
G01D02*
Y-389290D01*
G01Y-400000D02*
X410710D01*
G01X400000Y389290D02*
Y400000D01*
G01D02*
Y410710D01*
G01Y400000D02*
X410710D01*
G54D18*
G01X-359250Y-18010D02*
X-365010D01*
X-367000Y-20000D01*
Y-32000D01*
X-370000Y-35000D01*
X-410000D01*
X-419000Y-44000D01*
Y-338000D01*
X-408000Y-349000D01*
X-194000D01*
X-190000Y-353000D01*
Y-369000D01*
X-184000Y-375000D01*
X-127000D01*
X-124000Y-378000D01*
Y-418000D01*
X-120000Y-422000D01*
X990D01*
X6800Y-416190D01*
Y-386690D01*
X6550Y-386440D01*
Y-384340D01*
G01X1550D02*
Y-413440D01*
X-3010Y-418000D01*
X-117000D01*
X-120000Y-415000D01*
Y-372000D01*
X-123000Y-369000D01*
X-181000D01*
X-185000Y-365000D01*
Y-350020D01*
X-186000Y-349020D01*
Y-349000D01*
X-190000Y-345000D01*
X-390000D01*
X-398000Y-337000D01*
Y-51010D01*
X-386990Y-40000D01*
X-363410D01*
X-355500Y-32090D01*
Y-15450D01*
G01X-359250Y-12890D02*
X-354010D01*
X-352450Y-14450D01*
Y-35060D01*
X-362390Y-45000D01*
X-382010D01*
X-392000Y-54990D01*
Y-331000D01*
X-385000Y-338000D01*
X-186000D01*
X-181000Y-343000D01*
Y-357000D01*
X-176850Y-361150D01*
X-176670D01*
X-175390Y-362430D01*
Y-362610D01*
X-174000Y-364000D01*
X-119000D01*
X-115000Y-368000D01*
Y-411840D01*
X-113840Y-413000D01*
X-70000D01*
X-67840Y-410840D01*
X-8840D01*
X-3400Y-405400D01*
Y-390390D01*
X-3450Y-390340D01*
Y-384340D01*
G01X-8450D02*
Y-394460D01*
X-11990Y-398000D01*
X-108000D01*
X-111000Y-395000D01*
Y-363000D01*
X-114600Y-359400D01*
X-167600D01*
X-172000Y-355000D01*
Y-338000D01*
X-178000Y-332000D01*
X-381000D01*
X-385000Y-328000D01*
Y-58000D01*
X-376000Y-49000D01*
X-360500D01*
X-349000Y-37500D01*
Y-14200D01*
X-352870Y-10330D01*
X-355500D01*
G01X-359250Y-7770D02*
X-351430D01*
X-346000Y-13200D01*
Y-44450D01*
X-356250Y-54700D01*
X-372700D01*
X-378000Y-60000D01*
Y-321000D01*
X-372000Y-327000D01*
X-171000D01*
X-167000Y-331000D01*
Y-346000D01*
X-164000Y-349000D01*
X-144000D01*
X-138000Y-355000D01*
X-111000D01*
X-106000Y-360000D01*
Y-391000D01*
X-103000Y-394000D01*
X-15990D01*
X-13450Y-391460D01*
Y-384340D01*
G01X-18450D02*
Y-387460D01*
X-20990Y-390000D01*
X-98000D01*
X-101000Y-387000D01*
Y-360000D01*
X-111000Y-350000D01*
X-136000D01*
X-141000Y-345000D01*
X-160000D01*
X-162000Y-343000D01*
Y-327000D01*
X-168000Y-321000D01*
X-362000D01*
X-370000Y-313000D01*
Y-64000D01*
X-364000Y-58000D01*
X-352150D01*
X-343000Y-48850D01*
Y-11950D01*
X-349740Y-5210D01*
X-355500D01*
G01X-33450Y-384340D02*
Y-375100D01*
X-29350Y-371000D01*
X265700D01*
X274850Y-361850D01*
Y-277150D01*
X276300Y-275700D01*
X294150D01*
X299550Y-270300D01*
Y-259250D01*
X296800Y-256500D01*
X291150D01*
G01X294900Y-259060D02*
Y-261160D01*
X289760Y-266300D01*
X274990D01*
X271950Y-269340D01*
Y-358850D01*
X265300Y-365500D01*
X-33100D01*
X-38450Y-370850D01*
Y-384340D01*
G01X291150Y-261620D02*
X273630D01*
X265450Y-269800D01*
Y-358560D01*
X261010Y-363000D01*
X-37400D01*
X-43450Y-369050D01*
Y-384340D01*
G01X-23450D02*
Y-382240D01*
X-18210Y-377000D01*
X125990D01*
X132990Y-384000D01*
X240990D01*
X248190Y-376800D01*
X290050D01*
X301550Y-365300D01*
Y-283600D01*
X309300Y-275850D01*
Y-266550D01*
G01X-28450Y-384340D02*
Y-377650D01*
X-24600Y-373800D01*
X146280D01*
X146380Y-373700D01*
X176630D01*
X176680Y-373650D01*
X178520D01*
X178670Y-373800D01*
X200570D01*
X200870Y-374100D01*
X268950D01*
X278650Y-364400D01*
Y-282050D01*
X281900Y-278800D01*
X295550D01*
X301900Y-272450D01*
Y-257150D01*
X298690Y-253940D01*
X294900D01*
G54D19*
G01X-18400Y-432200D02*
X-25200Y-439000D01*
X-155000D01*
X-160000Y-434000D01*
Y-429000D01*
X-164680Y-424320D01*
X-187320D01*
G01X-10350Y-432200D02*
X-22150Y-444000D01*
X-159000D01*
X-165000Y-438000D01*
Y-435000D01*
X-169000Y-431000D01*
X-204000D01*
X-208120Y-426880D01*
G01X11550Y-384340D02*
Y-381450D01*
X14000Y-379000D01*
X122000D01*
X132000Y-389000D01*
X242500D01*
X252000Y-379500D01*
X308800D01*
X317000Y-371300D01*
Y-326250D01*
X312300Y-321550D01*
Y-263900D01*
X309750Y-261350D01*
M02*
